<svg viewBox="0 0 690 400" xmlns="http://www.w3.org/2000/svg"><g><g><g><g><g><line x1="40" y1="378" x2="35" y2="378" style="visibility: inherit;" fill="rgb(0, 0, 0)" stroke="rgb(204, 204, 204)" stroke-width="1px"></line><line x1="40" y1="343.6363636363636" x2="35" y2="343.6363636363636" style="visibility: inherit;" fill="rgb(0, 0, 0)" stroke="rgb(204, 204, 204)" stroke-width="1px"></line><line x1="40" y1="309.27272727272725" x2="35" y2="309.27272727272725" style="visibility: inherit;" fill="rgb(0, 0, 0)" stroke="rgb(204, 204, 204)" stroke-width="1px"></line><line x1="40" y1="274.90909090909093" x2="35" y2="274.90909090909093" style="visibility: inherit;" fill="rgb(0, 0, 0)" stroke="rgb(204, 204, 204)" stroke-width="1px"></line><line x1="40" y1="240.5454545454545" x2="35" y2="240.5454545454545" style="visibility: inherit;" fill="rgb(0, 0, 0)" stroke="rgb(204, 204, 204)" stroke-width="1px"></line><line x1="40" y1="206.18181818181816" x2="35" y2="206.18181818181816" style="visibility: inherit;" fill="rgb(0, 0, 0)" stroke="rgb(204, 204, 204)" stroke-width="1px"></line><line x1="40" y1="171.81818181818178" x2="35" y2="171.81818181818178" style="visibility: inherit;" fill="rgb(0, 0, 0)" stroke="rgb(204, 204, 204)" stroke-width="1px"></line><line x1="40" y1="137.4545454545455" x2="35" y2="137.4545454545455" style="visibility: inherit;" fill="rgb(0, 0, 0)" stroke="rgb(204, 204, 204)" stroke-width="1px"></line><line x1="40" y1="103.09090909090908" x2="35" y2="103.09090909090908" style="visibility: inherit;" fill="rgb(0, 0, 0)" stroke="rgb(204, 204, 204)" stroke-width="1px"></line><line x1="40" y1="68.7272727272727" x2="35" y2="68.7272727272727" style="visibility: inherit;" fill="rgb(0, 0, 0)" stroke="rgb(204, 204, 204)" stroke-width="1px"></line><line x1="40" y1="34.363636363636374" x2="35" y2="34.363636363636374" style="visibility: inherit;" fill="rgb(0, 0, 0)" stroke="rgb(204, 204, 204)" stroke-width="1px"></line><line x1="40" y1="0" x2="35" y2="0" style="visibility: inherit;" fill="rgb(0, 0, 0)" stroke="rgb(204, 204, 204)" stroke-width="1px"></line></g><g transform="translate(30, 0)"><text x="0" y="378" dx="0em" dy="0.3em" style="text-anchor: end; visibility: hidden; font-family: Roboto, sans-serif; font-size: 12px; font-weight: 200;" fill="rgb(50, 49, 63)" stroke="none" stroke-width="1px">1.4</text><text x="0" y="343.6363636363636" dx="0em" dy="0.3em" style="text-anchor: end; visibility: inherit; font-family: Roboto, sans-serif; font-size: 12px; font-weight: 200;" fill="rgb(50, 49, 63)" stroke="none" stroke-width="1px">1.6</text><text x="0" y="309.27272727272725" dx="0em" dy="0.3em" style="text-anchor: end; visibility: inherit; font-family: Roboto, sans-serif; font-size: 12px; font-weight: 200;" fill="rgb(50, 49, 63)" stroke="none" stroke-width="1px">1.8</text><text x="0" y="274.90909090909093" dx="0em" dy="0.3em" style="text-anchor: end; visibility: inherit; font-family: Roboto, sans-serif; font-size: 12px; font-weight: 200;" fill="rgb(50, 49, 63)" stroke="none" stroke-width="1px">2</text><text x="0" y="240.5454545454545" dx="0em" dy="0.3em" style="text-anchor: end; visibility: inherit; font-family: Roboto, sans-serif; font-size: 12px; font-weight: 200;" fill="rgb(50, 49, 63)" stroke="none" stroke-width="1px">2.2</text><text x="0" y="206.18181818181816" dx="0em" dy="0.3em" style="text-anchor: end; visibility: inherit; font-family: Roboto, sans-serif; font-size: 12px; font-weight: 200;" fill="rgb(50, 49, 63)" stroke="none" stroke-width="1px">2.4</text><text x="0" y="171.81818181818178" dx="0em" dy="0.3em" style="text-anchor: end; visibility: inherit; font-family: Roboto, sans-serif; font-size: 12px; font-weight: 200;" fill="rgb(50, 49, 63)" stroke="none" stroke-width="1px">2.6</text><text x="0" y="137.4545454545455" dx="0em" dy="0.3em" style="text-anchor: end; visibility: inherit; font-family: Roboto, sans-serif; font-size: 12px; font-weight: 200;" fill="rgb(50, 49, 63)" stroke="none" stroke-width="1px">2.8</text><text x="0" y="103.09090909090908" dx="0em" dy="0.3em" style="text-anchor: end; visibility: inherit; font-family: Roboto, sans-serif; font-size: 12px; font-weight: 200;" fill="rgb(50, 49, 63)" stroke="none" stroke-width="1px">3</text><text x="0" y="68.7272727272727" dx="0em" dy="0.3em" style="text-anchor: end; visibility: inherit; font-family: Roboto, sans-serif; font-size: 12px; font-weight: 200;" fill="rgb(50, 49, 63)" stroke="none" stroke-width="1px">3.2</text><text x="0" y="34.363636363636374" dx="0em" dy="0.3em" style="text-anchor: end; visibility: inherit; font-family: Roboto, sans-serif; font-size: 12px; font-weight: 200;" fill="rgb(50, 49, 63)" stroke="none" stroke-width="1px">3.4</text><text x="0" y="0" dx="0em" dy="0.3em" style="text-anchor: end; visibility: hidden; font-family: Roboto, sans-serif; font-size: 12px; font-weight: 200;" fill="rgb(50, 49, 63)" stroke="none" stroke-width="1px">3.6</text></g><line x1="40" y1="0" x2="40" y2="378" fill="rgb(0, 0, 0)" stroke="rgb(204, 204, 204)" stroke-width="1px"></line></g></g><g transform="translate(40, 0)" clip-path="url(#clip_0)"><clipPath id="clip_0"><rect width="650" height="378"></rect></clipPath><g><g><g><line x1="0" y1="0" x2="0" y2="378" fill="rgb(0, 0, 0)" stroke="rgb(60, 60, 60)" stroke-width="1px" opacity="0.25"></line><line x1="81.25" y1="0" x2="81.25" y2="378" fill="rgb(0, 0, 0)" stroke="rgb(60, 60, 60)" stroke-width="1px" opacity="0.25"></line><line x1="162.5" y1="0" x2="162.5" y2="378" fill="rgb(0, 0, 0)" stroke="rgb(60, 60, 60)" stroke-width="1px" opacity="0.25"></line><line x1="243.75" y1="0" x2="243.75" y2="378" fill="rgb(0, 0, 0)" stroke="rgb(60, 60, 60)" stroke-width="1px" opacity="0.25"></line><line x1="325" y1="0" x2="325" y2="378" fill="rgb(0, 0, 0)" stroke="rgb(60, 60, 60)" stroke-width="1px" opacity="0.25"></line><line x1="406.25" y1="0" x2="406.25" y2="378" fill="rgb(0, 0, 0)" stroke="rgb(60, 60, 60)" stroke-width="1px" opacity="0.25"></line><line x1="487.5" y1="0" x2="487.5" y2="378" fill="rgb(0, 0, 0)" stroke="rgb(60, 60, 60)" stroke-width="1px" opacity="0.25"></line><line x1="568.75" y1="0" x2="568.75" y2="378" fill="rgb(0, 0, 0)" stroke="rgb(60, 60, 60)" stroke-width="1px" opacity="0.25"></line><line x1="650" y1="0" x2="650" y2="378" fill="rgb(0, 0, 0)" stroke="rgb(60, 60, 60)" stroke-width="1px" opacity="0.25"></line></g><g><line x1="0" y1="378" x2="650" y2="378" fill="rgb(0, 0, 0)" stroke="rgb(60, 60, 60)" stroke-width="1px" opacity="0.25"></line><line x1="0" y1="343.6363636363636" x2="650" y2="343.6363636363636" fill="rgb(0, 0, 0)" stroke="rgb(60, 60, 60)" stroke-width="1px" opacity="0.25"></line><line x1="0" y1="309.27272727272725" x2="650" y2="309.27272727272725" fill="rgb(0, 0, 0)" stroke="rgb(60, 60, 60)" stroke-width="1px" opacity="0.25"></line><line x1="0" y1="274.90909090909093" x2="650" y2="274.90909090909093" fill="rgb(0, 0, 0)" stroke="rgb(60, 60, 60)" stroke-width="1px" opacity="0.25"></line><line x1="0" y1="240.5454545454545" x2="650" y2="240.5454545454545" fill="rgb(0, 0, 0)" stroke="rgb(60, 60, 60)" stroke-width="1px" opacity="0.25"></line><line x1="0" y1="206.18181818181816" x2="650" y2="206.18181818181816" fill="rgb(0, 0, 0)" stroke="rgb(60, 60, 60)" stroke-width="1px" opacity="0.25"></line><line x1="0" y1="171.81818181818178" x2="650" y2="171.81818181818178" fill="rgb(0, 0, 0)" stroke="rgb(60, 60, 60)" stroke-width="1px" opacity="0.25"></line><line x1="0" y1="137.4545454545455" x2="650" y2="137.4545454545455" fill="rgb(0, 0, 0)" stroke="rgb(60, 60, 60)" stroke-width="1px" opacity="0.25"></line><line x1="0" y1="103.09090909090908" x2="650" y2="103.09090909090908" fill="rgb(0, 0, 0)" stroke="rgb(60, 60, 60)" stroke-width="1px" opacity="0.25"></line><line x1="0" y1="68.7272727272727" x2="650" y2="68.7272727272727" fill="rgb(0, 0, 0)" stroke="rgb(60, 60, 60)" stroke-width="1px" opacity="0.25"></line><line x1="0" y1="34.363636363636374" x2="650" y2="34.363636363636374" fill="rgb(0, 0, 0)" stroke="rgb(60, 60, 60)" stroke-width="1px" opacity="0.25"></line><line x1="0" y1="0" x2="650" y2="0" fill="rgb(0, 0, 0)" stroke="rgb(60, 60, 60)" stroke-width="1px" opacity="0.25"></line></g></g></g><g><g><line x1="0" y1="618.5454545454545" x2="650" y2="618.5454545454545" fill="rgb(0, 0, 0)" stroke="rgb(153, 153, 153)" stroke-width="1.5px"></line></g></g><g><g><line x1="81.25" y1="0" x2="81.25" y2="378" fill="rgb(0, 0, 0)" stroke="rgb(153, 153, 153)" stroke-width="1.5px"></line></g></g><g><g><g><g><g><path stroke="rgb(255, 112, 67)" stroke-width="2px" d="M81.484,316.30849547819656L82.641,325.6568198935552L83.486,330.17214416528674L84.422,314.38541051195585L84.61699999999999,302.4718157806484L84.91600000000001,316.60078679930643L86.476,330.6902531800657L86.645,325.974949052622L86.931,326.85804017430996L87.295,325.54591433501537L87.88,329.906463733995L88.179,331.69116394343234L88.244,331.8805232588443L88.478,330.9360750986616L88.99799999999999,322.8381755409998L89.531,326.9295934861407L89.60900000000001,327.7170224385972L89.804,327.94852249155275L91.18199999999999,331.14271243080094L91.70200000000001,327.5127774398102L92.508,326.8653168110087L92.76800000000001,325.1109719074922L94.44500000000001,325.9295366914684L94.58800000000001,326.40978296987834L94.73100000000001,327.494841398648L95.875,323.6724209150238L95.966,323.44626400605466L96.226,327.3906349470807L96.38199999999999,325.25143810171704L96.53800000000001,325.8550147202343L96.64200000000001,327.25074793870226L97.52600000000001,321.5009163602965L97.55199999999999,322.9119812394689L97.721,318.93255037047186L97.773,325.9064772665528L99.13799999999999,327.2122229902626L99.671,330.03264568218714L100.204,329.8584680429734L100.672,317.9661876943891L100.88000000000001,322.34677643960015L100.91900000000001,326.281066237288L101.374,325.83574205303273L101.413,319.59681964949067L101.595,322.6078646423334L102.40100000000001,324.0347903267277L102.50500000000001,318.42292295688105L102.96000000000001,320.8901022298234L103.493,325.7211376551828L105.261,325.3013603479397L105.93700000000001,325.93164305307096L106.067,328.1460201960334L106.47,325.17229348982045L106.73,327.07453976556246L106.74300000000001,327.96318481799267L108.277,325.3940126412545L111.917,329.0099419780646L112.918,330.36498312250524L112.983,330.3678090252948L113.256,331.4452525770838L113.295,331.938175019123L113.789,327.5067311406934L114.751,320.15735540763256L114.764,316.27854166775006L115.03699999999999,319.2446559222393L115.505,318.3136446403936L115.609,314.3925039985083L116.14200000000001,317.62354675640483L116.259,310.4588365537514L116.45400000000001,309.18954269132007L116.571,310.86363414875535L117.05199999999999,311.75329789002944L117.234,315.2928279341797L117.455,318.8904375657002L117.80600000000001,324.55931308415893L118.222,323.7459743261451L118.443,324.17113039841036L119.89900000000002,329.46513776857614L121.329,326.25548147595384L121.34200000000001,326.4681241912197L121.602,330.21954078906265L121.615,329.8776399383591L122.135,329.4816861032687L122.837,329.2522903457104L123.07100000000001,332.4994961105856L123.383,329.2178958877314L123.695,330.9969961105058L123.734,330.59850358768466L124.87800000000001,326.31370678698244L125.502,326.5260897022526L126.529,330.11594971181285L126.75,329.9247625837406L127.088,328.99296126943545L127.60799999999999,330.0502635132177L128.05,328.1936256538734L128.258,326.8020419129456L128.752,327.5514321540484L128.84300000000002,328.6431953298048L128.934,330.00689246685374L128.973,328.9911726706363L129.22,325.8529112183208L129.506,325.37976905147974L130.416,326.47918613653195L131.274,330.58979654686493L132.145,329.6413662239342L132.37900000000002,325.1996168323469L132.92499999999998,321.2704227767707L133.406,318.54987764372356L133.549,316.39552987713876L134.342,315.46336095121336L134.667,319.3189424723144L134.823,321.4503346169391L134.862,323.6481789823466L135.148,323.29620802639306L135.603,323.26671185418815L135.746,325.78233345073636L136.201,324.24123302207425L136.591,321.22168988648673L137.384,322.14520624187855L137.514,317.99530470153417L139.152,317.1924354041641L140.205,312.52038275683617L140.257,314.8574032384329L140.582,317.8049085117464L141.206,320.90256699078697L141.687,321.69162430854686L142.22,320.2435627847436L142.32399999999998,320.6067130433687L142.441,319.6861874717954L142.73999999999998,316.57062405804777L143.351,314.3865710145018L144.066,316.0977980424252L144.118,321.8725989938983L144.222,322.3789226526201L144.716,322.9325684214504L145.08,321.74706487738865L147.27700000000002,318.3665882965226L147.394,321.99481547541666L147.42,320.73010698412753L147.966,323.0743948470483L148.018,326.8398430128544L148.265,320.8731978241755L148.681,318.9923587156734L148.85,307.6910471669512L149.175,315.8467815511251L149.344,319.1420929958661L149.539,322.0178393896744L149.656,323.16535798928726L150.085,321.29646263688124L150.397,317.78087290843104L150.956,318.8625667398179L151.489,314.7352690835164L152.035,313.99488209774836L152.15200000000002,318.76396652026517L152.867,321.17250384612464L154.921,285.0598288963921L155.74,299.15049349664315L156.104,313.15680625513755L157.066,318.8201163916323L157.508,321.32059983445225L157.677,327.9117140273415L158.678,298.09039223032534L159.00300000000001,295.92520514521317L159.21099999999998,284.4678600318467L159.939,292.6057097161878L160.69299999999998,302.87452502085813L161.044,303.8670917041597L161.096,289.55028773525885L162.175,305.28771627435617L162.409,312.42992655222247L162.877,319.6392436621573L163.56599999999997,323.0523873858986L163.592,326.4300679836854L163.904,325.8514886661878L163.917,321.60499827867L163.982,319.8512364955694L164.047,314.34615509321185L166.114,320.325015197401L166.413,321.06290416675546L166.582,324.96400411580646L166.647,327.39658055966606L166.855,329.6700120280659L166.92,331.01078660388015L167.03699999999998,334.61605340680825L167.24499999999998,335.2046635534844L167.99900000000002,335.49468673495426L168.74,336.74773401862257L169,335.00538071247917L169.676,331.4217172854503L170.196,331.62246392167134L170.3,331.92717907751785L171.158,329.9953639470323L171.197,330.8990004994144L172.133,333.33203678951685L172.19799999999998,332.56156294881555L172.224,333.5253317349237L172.952,332.6661353583981L173.77100000000002,332.70549186595105L173.81000000000003,331.16306009607206L173.88799999999998,331.79789527214854L174.382,328.5796916699031L174.941,324.19177553855184L175.53900000000002,326.87805584118087L175.812,326.4761658459894L176.25400000000002,326.28891674523953L176.644,326.0472500878569L176.83900000000003,327.67091510370625L177.02100000000002,328.8220813872748L177.918,327.7196930247311L178.282,323.1103331391129L178.334,321.62819694164256L178.35999999999999,326.08866049675044L178.82799999999997,327.58623826943034L178.984,329.9606346481844L179.309,331.86057707901347L179.959,334.47726889609805L180.102,332.3351905897285L180.622,330.96522052345097L180.83,330.10744357533434L181.701,330.62816704657894L181.74,330.28497015065466L182.07799999999997,331.0132671686149L182.572,331.3912808668261L182.58499999999998,331.4426456965538L182.923,328.14513620166804L183.365,321.3020213499487L183.885,306.1114549322726L185.06799999999998,315.0369951406491L186.83599999999998,321.1376628207786L187.122,322.5609594897999L188.05800000000002,307.46708097827604L188.851,294.22256115701737L189.03300000000002,285.98191973073716L189.098,279.2754815586793L190.151,293.0630962298798L190.41099999999997,302.97466054998404L191.633,271.9038141564175L192.374,284.88083569760806L192.452,293.21361532542517L193.28400000000002,304.61116621389573L193.817,312.836350040241L193.86900000000003,305.71555659785287L194.272,310.99290646084796L194.662,313.66062915469035L195.02599999999998,295.1412143347443L195.338,305.0230211128733L195.364,314.0076745684004L195.949,322.69684987764794L196.07899999999998,327.7387295790768L196.56,327.30034567286106L196.65099999999998,325.98092721108134L197.171,324.54073203923423L198.055,326.9807496084643L198.328,326.2457533324448L198.679,329.26719402016056L199.004,330.70266752793L199.823,331.4205589830277L200.226,331.3347214673507L201.006,332.32903000419805L201.52599999999998,332.019829435652L202.033,332.8935893166369L202.189,332.7217903531213L202.306,332.7853797368722L202.50099999999998,332.65783956385576L202.735,327.9985184962675L202.917,330.57371057188715L203.08599999999998,329.65349144517194L203.281,327.8283098343107L204.178,330.1127596477705L205.244,331.576099759776L205.361,333.354973760021L205.608,331.6085594672775L206.97299999999998,331.9526732031159L206.986,331.8256564481702L207.50600000000003,332.07177262187065L208.03900000000002,333.56336129984027L208.052,333.74675859217666L208.286,333.68459797840393L208.819,320.9292862861546L209.13100000000003,326.3665569703206L209.3,329.8652853926998L209.52100000000002,328.7127569782235L209.872,330.1760622790861L210.17100000000002,319.707092284319L210.574,320.03740427660557L210.587,317.02580657408663L210.6,312.9985559045544L210.73,307.37280567262377L210.89900000000003,317.3124551629543L210.97699999999998,310.46940998603384L211.159,303.0672314904301L212.069,311.0280695187171L212.42,313.14551614901325L212.82299999999998,319.44414873068433L213.044,320.78466189264924L213.733,322.4353977073086L213.954,325.1403489433493L214.045,320.8176944664957L214.747,318.2129675893906L214.89000000000001,318.50941846499745L215.69600000000003,320.2438144808623L215.73499999999999,318.99092344685977L215.748,314.7499103365651L216.385,322.5011519670564L217.035,325.5876701012571L217.113,329.18100450195243L217.126,326.9757449883391L217.204,307.25732452457527L217.76299999999998,299.3844730478196L217.98399999999998,305.93488019508857L218.543,296.5230865022432L218.998,300.38047196512764L219.479,312.6617246966464L219.609,317.71736659087884L219.635,320.7099099745856L220.441,325.8759252119908L220.57099999999997,312.3909233720592L220.662,309.3982429256569L224.549,312.38716612109187L224.61399999999998,311.17905675516073L224.71800000000002,315.91626966357285L224.952,322.1777690020261L225.472,323.541030557793L225.784,321.69392588736025L225.862,322.0779642023907L226.45999999999998,317.09283390771765L227.006,314.4943035550798L227.084,312.743634655187L227.188,313.24273746529514L228.553,291.61543774090694L229.372,289.7537824990031L229.567,290.56575721989134L230.00900000000001,299.94518708499487L230.243,305.8011409805224L231.76399999999998,284.68444088603184L232.19299999999998,265.3073611425033L233.298,238.19165937376775L233.81799999999998,240.24028470895524L234.078,244.61875641053382L234.195,249.3865207849633L234.468,254.25043256610957L234.897,263.7403282701068L235.261,272.8662510274216L235.521,283.02876654940303L235.638,287.6903175204732L236.665,296.9390816546956L236.886,301.07365063771476L237.60099999999997,304.57107720992434L238.238,304.913894900645L239.525,290.5422012599282L239.577,285.55833682207464L240.30499999999998,267.83634465860797L240.77300000000002,209.54681283625814L241.176,196.16657498008627L241.35799999999998,174.68538009242187L241.852,153.36314024181561L242.37199999999999,63.12559087393789L242.424,-1.7447276719595948L244.45200000000003,-32.402012225246914L245.06300000000002,35.38843865400979L245.674,87.97691620657157L246.454,129.43456612173128L248.96300000000002,-177.9101802654821L249.015,9.71867499771259L249.522,123.51499772843873L249.886,151.69824188435555L249.938,141.36730455069613L250.56199999999998,41.98837728164284L250.87400000000002,152.78252949252916L251.446,-482.5524774327673L254.787,-78.5777110129197L255.294,66.75312241984713L255.684,138.6548170977324L256.165,206.70255215855283L257.036,242.36030776219494L257.40000000000003,182.05559394797746L257.504,230.74922794561587L258.349,248.18914567073418L258.596,269.63380096015203L258.661,289.377763612826L260.676,291.42531576705807L261.287,301.88260027954857L262.158,221.58448220225287L262.873,225.43490753729407L262.99,183.87143615362424L263.328,203.74653034548928L263.848,228.27804725850214L265.551,221.66117656899064L265.694,228.98494172713876L265.928,213.33162703884682L266.60400000000004,-45.26754509183307L266.695,5.258343836124424L267.852,25.799057038535413L267.943,43.78794522886969L268.437,75.25672526026882L268.515,97.70031173419751L268.697,58.05802755426806L268.81399999999996,98.6909896664109L270.205,159.85248085290274L270.75100000000003,200.67771073727764L271.349,236.19628764176286L271.635,265.62021990408846L272.935,289.39108440751045L273.897,302.8294026094222L274.313,309.1183867303511L274.48199999999997,314.09298354023036L274.534,315.9872217644164L275.223,310.4925551520586L275.275,305.87288384640647L275.47,307.05005662606453L276.497,313.19121371758484L277.095,312.1995313696306L277.108,313.62125248613495L277.16,313.01245354301705L277.68,316.46562818264783L277.862,321.68374073252573L278.044,322.1333983948016L278.239,310.4696260750945L278.65500000000003,317.2761455073531L278.837,318.6546945433201L280.592,307.6509390314286L280.956,300.62733975344634L281.07300000000004,294.04689013753756L281.697,287.2829727225621L281.983,275.0446295544468L282.178,280.95385074319944L282.25600000000003,280.2860056772706L282.62,268.0442708577007L284.18,238.98763945914504L284.544,239.8309717716895L285.50600000000003,230.53996455216057L285.636,224.88620013701927L286.13,213.4202192554626L286.55899999999997,189.86307096062617L286.91,167.35711568234382L287.599,116.03593099443377L288.236,124.94287866224529L289.666,116.3775506087685L290.238,102.772255771561L290.771,102.70538081500952L291.655,119.54293609939619L291.668,133.26720284879676L292.357,149.56481793688923L292.383,168.17869116330095L293.319,221.04690354526232L293.748,253.20642306157785L294.346,275.9159809606927L294.593,290.19988648693254L294.801,295.1036317427621L298.753,304.70949147872665L298.805,312.1835926543896L300.092,311.04915397104065L300.508,303.74875131525823L300.69,310.7258433385657L300.729,311.0731376448742L301.041,305.2095458466041L301.56100000000004,289.9096388315098L302.276,297.6350342102717L302.458,306.0367576921343L302.952,311.12517149170935L303.238,307.715292993528L303.81,306.6744253102631L303.888,311.2844573871688L303.901,309.9499646489206L304.109,301.8269367104672L304.265,300.4103395047238L305.227,288.0845450343162L305.5,282.5563516529917L305.669,275.1128701244577L305.799,275.4480180535675L307.372,268.3985609625338L307.853,263.66662736676034L309.569,284.19170265379864L310.466,294.2639416081344L310.479,298.7751252621357L310.973,257.18023313429893L311.194,199.13910211368935L311.311,148.0506066678274L311.753,133.556161792611L312.234,161.14751924963886L313.599,185.33047530044914L313.703,193.6426911348039L313.755,203.47227128599593L314.40500000000003,136.0629646836625L315.315,158.35462255395524L316.394,204.75888762164539L316.667,211.93293076329488L316.82300000000004,217.44483057656268L316.927,220.22059345244392L316.979,236.81571500951011L317.031,215.1047236529229L317.94100000000003,222.80987776669375L318.838,143.67427749356233L319.56600000000003,100.73817429115911L320.515,113.98563799255325L320.827,74.45962994907418L321.022,38.53311935433227L321.334,-12.65035308000536L321.503,17.313923994753615L321.62,52.89914458017961L322.036,93.28159975747388L323.258,155.3044005421841L323.492,178.49203174584824L323.635,199.28911261884244L325.10400000000004,200.47111400712978L325.11699999999996,201.45523677752448L325.195,218.55734700037485L325.23400000000004,230.7510957668087L325.39000000000004,229.4832032954068L325.585,240.61049023535622L327.002,226.50921668135825L328.13300000000004,190.27666689957303L328.757,211.1319473429465L329.537,146.58679712405737L329.667,133.98007664382476L329.71900000000005,108.54810111213824L329.73199999999997,93.4568216873191L330.967,165.59262391005217L331.86400000000003,178.0223188903207L332.397,203.84684827527684L333.151,221.43908690789291L333.528,242.3094264600323L333.71,259.66198470847235L334.724,264.92427994404096L334.76300000000003,267.8737041525041L335.348,278.04045583167914L336.271,276.9565776992666L336.479,282.7155139104729L336.752,289.1292768837011L339.183,274.04281467161906L339.443,287.8871189277745L339.88500000000005,288.05838480610817L340.093,300.3451199429744L340.236,308.0871373288884L341.016,298.19692768944174L341.068,283.93657359059375L341.237,269.93765068830845L341.43199999999996,271.0143701253153L342.992,275.7366954727389L345.293,292.0518590725422L345.956,299.7676463370245L346.372,301.0155936126922L346.489,295.0248992556613L346.736,299.7736047769519L346.97,295.8346502093524L347.659,273.80165170966796L347.919,284.462373690568L348.205,213.6726786962633L348.50399999999996,-17.66618436799087L348.72499999999997,50.46318156476348L348.764,104.77114249820646L348.803,134.5428931502356L349.284,151.7542779405897L349.64799999999997,158.51167889703316L349.882,165.50901969506472L349.908,174.78355018581885L351.13,140.8352613162698L351.481,143.70563042396154L351.81899999999996,115.79492763528624L352.144,116.86735717293536L352.183,114.87108582919623L353.561,147.02822953859436L353.61299999999994,173.15835191466275L353.808,193.27165126054746L353.83399999999995,192.46224668228734L353.89900000000006,195.0087907036029L353.977,194.76925646672854L354.25,166.42527645583166L354.71799999999996,134.3733110532475L354.926,141.22587906858294L355.92699999999996,194.26660990658166L356.395,228.50269451540728L356.49899999999997,210.02052973553396L356.577,209.0269189072161L356.915,221.6758844230262L356.967,213.40065557474742L357.279,253.4174368608341L357.422,245.5400674652609L357.72100000000006,262.0202323622437L358.293,256.5082376582853L359.32,258.5748815147321L359.697,261.3838465717199L360.295,249.94272721016614L362.03700000000003,243.34383422149654L362.063,237.21889418371583L362.18,221.73623121764916L362.23199999999997,221.98346538048077L362.245,221.85521258316905L362.336,228.33606180463437L362.54400000000004,212.0669173555246L363.259,218.5521406830624L363.28499999999997,220.69859037352708L363.831,171.520276612089L364.013,145.25465699577902L365.027,134.52625181132564L365.45599999999996,122.1105987485941L368.29,114.89996525820628L368.60200000000003,96.89432621053236L368.95300000000003,115.54005047221891L369.23900000000003,171.93628222397192L369.36899999999997,194.50268064475253L369.577,189.77069780821049L370.448,188.89922033523368L371.02,166.39789963555515L371.176,151.4168251258211L371.462,168.42445996307703L372.385,177.5540793765334L372.411,181.60567504013792L372.892,175.65092345600635L373.516,165.3136950849286L374.153,170.74884070540938L374.38700000000006,172.97588207799754L374.842,162.21452573172837L375.32300000000004,154.74693384363357L376.597,141.21986081845932L377.299,156.61308031359638L377.624,178.45740593990016L379.44399999999996,213.54666308312179L380.757,238.04617984145023L382.12199999999996,192.9300172705761L382.18699999999995,173.58649789730217L382.356,177.98823960793806L382.655,191.20928949979253L382.81100000000004,196.3958461455543L384.839,187.7637730224156L385.30699999999996,159.8633895007884L385.72299999999996,175.32417373315462L386.711,172.32739031153136L386.72400000000005,177.33097550771964L387.933,139.00907242760096L389.09000000000003,71.43168038948849L389.116,18.795561980696792L389.81800000000004,-58.925541104706056L390.76700000000005,-5.377398878449224L392.05400000000003,78.81595596989422L393.80899999999997,142.35287680112492L394.771,203.65024567122614L395.34299999999996,232.73256506769707L395.421,245.03827179818663L397.293,264.825930159115L399.06100000000004,277.1278756384988L399.34700000000004,286.90997268055963L399.51599999999996,283.7828947057756L400.08799999999997,269.55329988249196L400.53,251.88801341074628L400.58200000000005,250.4417528006148L400.829,253.51708947430862L402.31100000000004,264.8692765793578L402.70099999999996,275.11231200356445L403.585,271.24875772923275L403.767,283.09710124093317L404.287,273.53960803667974L405.06699999999995,278.0125271313424L405.197,249.24972652827273L405.34000000000003,221.43047539200577L405.392,202.01077755032244L405.808,234.48330713896362L405.899,248.8686107426732L406.17199999999997,166.98240863587824L406.627,217.38746274404633L406.887,224.45293565978898L406.913,227.9066649568586L407.134,238.42871299666484L407.316,247.99607504503595L408.122,242.22722897533032L408.148,239.54644532725914L408.88899999999995,255.27330423755146L409.86400000000003,262.5674191686184L410.787,265.2309104578028L412.724,241.35430395678833L413.322,195.47769682886255L413.62100000000004,195.80023679196975L415.50600000000003,83.3139618633344L415.987,92.61118103146397L416.14300000000003,150.4861276127415L416.481,211.7808801594251L416.68899999999996,250.44229387636403L416.715,266.28484919361074L416.819,276.8111148734579L416.84499999999997,292.4092993815194L417.391,294.96484251495906L418.13199999999995,305.91746457297353L418.327,310.4502273378947L418.34,318.26573958266846L419.341,295.3333885176397L419.471,288.8632598971106L419.627,282.11314948906977L420.42,281.8881653295947L421.278,228.43929287312744L421.395,198.6870117500162L421.811,211.75615172094692L421.928,189.99615591307804L422.032,173.31477080309585L422.136,205.44486268854473L422.539,253.04952045216328L422.565,266.37005005927296L423.969,218.07101147671474L424.32000000000005,173.32560665298556L424.489,102.72805546185084L424.515,101.35317911617743L424.632,52.37160736053677L425.451,21.62486651107641L426.023,77.62162879391947L426.088,126.3479302168591L427.70000000000005,146.59737843734425L428.181,208.3825580310206L428.246,255.37511479824886L428.311,281.0693721054203L428.73999999999995,297.53269610871115L428.948,220.3251768755705L429.40299999999996,201.5407877146423L429.53299999999996,192.12693418357273L429.559,214.5794685289147L429.611,215.9743327078695L429.663,198.6639126948455L430.339,235.64462294649718L431.132,219.57814816517612L431.145,222.2726365104116L431.158,205.41825558663916L432.432,220.2377269816055L433.15999999999997,258.4577373443311L433.73199999999997,252.09104166876685L433.92699999999996,93.73092754698098L434.174,115.78303673060338L434.317,142.57128991653033L434.902,83.47773627458088L435.14900000000006,63.4611303005429L435.36999999999995,117.93306883861771L437.554,-684.8933946004827L439.335,-43.94567195585006L439.452,69.67703610760678L440.32300000000004,98.52540295076902L440.531,126.59824448513872L440.60900000000004,142.47500349747418L441.688,212.274785194798L441.74,253.61859084552208L442.013,278.82527907937356L442.71500000000003,296.9156649864508L443.664,305.2834080150166L443.846,304.73345176195465L444.275,305.96043772587393L444.379,307.9101496143673L445.172,289.5961584331711L445.198,276.7578330479065L445.47099999999995,284.7274364821585L446.19899999999996,267.7210041464307L446.628,259.1173221630959L447.135,234.94766434319556L447.876,258.1338936085945L449.189,261.23770720064584L449.43600000000004,273.4165647708824L451.269,201.9145024230153L452.426,197.5508711669162L452.53000000000003,192.87133500178547L453.245,163.5480331253999L453.49199999999996,134.35756677493143L454.155,119.02054155477151L454.545,113.52908437181107L454.714,120.30835069743851L456.846,164.91849031708924L456.87199999999996,190.64847985684065L457.65200000000004,214.3259223881478L458.016,230.29896372022557L459.186,235.95953875459625L459.212,229.3327523179766L459.342,250.12526592117598L460.291,263.5517601649992L461.097,160.38157841775285L461.18800000000005,148.38366714897379L461.63000000000005,25.981682854136988L462.91700000000003,65.44997176526103L463.58,69.39203174925888L464.139,162.29028411788696L464.802,174.26660507641736L465.153,128.46538080028375L465.556,162.36494233487326L465.621,154.643683200024L465.92,165.38908888938028L466.89500000000004,203.5926344429699L467.61,112.61206984730049L467.81800000000004,191.17021308071304L468.27299999999997,234.91212841543054L468.351,227.42640576546702L468.507,199.8655347150231L469.742,218.73850865222275L469.833,257.10721835744914L470.05400000000003,277.51271220433597L470.353,284.4528564281175L470.574,295.0439519380223L470.91200000000003,301.26701441267187L472.069,307.098880860724L472.212,311.1582742034683L472.537,305.56597825880584L473.265,297.5927707623097L473.421,287.1719879745201L473.59000000000003,293.5034317581562L475.15,285.63051978293214L475.70899999999995,296.51056704248873L475.852,256.2213459267317L475.878,194.9784128167147L475.92999999999995,209.190985792751L476.45,238.28660835637956L476.87899999999996,261.78596415517404L477.087,258.9482036928558L478.049,266.99852522016903L480.53200000000004,262.37956692403816L481.52,242.62087390741917L481.689,226.60289623581997L481.871,246.3973441864577L482.313,256.3750639839649L483.613,260.6936973751701L484.14599999999996,259.5251585149347L484.497,238.2576195854456L484.822,240.2086806657294L484.93899999999996,224.09122045249387L485.017,222.05465372341163L485.121,232.4894988706492L485.21200000000005,242.9145770044684L485.628,239.3498245482399L486.005,185.49258217623176L487.084,215.98041574278406L488.293,207.50029410953317L488.722,227.50437814668365L489.63199999999995,243.29828687225202L489.931,249.27539920853414L490.438,270.6065192832271L490.88,169.7805018790793L491.64700000000005,34.17334405319549L491.764,-68.71570958814661L494.598,-9.357438555391326L494.65000000000003,56.18263022350467L494.75399999999996,87.79030845095843L495.573,138.20475281196914L495.612,169.3278671644487L496.97700000000003,214.6150494075143L497.13300000000004,248.36441303718934L497.276,261.1977424056516L497.48400000000004,266.07343245497094L497.666,281.1546793820957L497.93899999999996,277.89727077303957L498.238,257.6922889490588L498.472,229.50979829341875L498.73199999999997,208.69237491305188L500.79900000000004,233.18624594697664L501.25399999999996,226.3244316273291L501.852,217.80993567719753L505.141,256.0258827593986L505.323,269.54187349545793L505.947,197.14329533834146L506.558,236.09775987519336L507.546,224.64730179081644L508.248,223.13344945120443L509.093,174.06329778198977L509.10600000000005,142.1814671196777L509.26199999999994,145.72379367471075L509.275,146.2059993105172L510.27599999999995,148.52553058606622L510.354,127.76528889177314L511.108,95.05558346218348L511.368,100.07867974344776L511.706,149.93269441417274L512.161,166.46709827553445L513.9549999999999,202.44563096419432L514.475,219.85432383483652L515.06,248.04481006954262L515.177,267.3174119462943L516.1129999999999,258.18374914892223L516.659,261.9894176009811L516.854,259.7152723167088L516.919,264.9664281272413L517.088,265.16432433073487L517.283,243.26931631142037L520.663,238.6755868994731L520.767,225.4888161899769L521.3000000000001,155.85165003919258L521.313,110.07190541561097L521.742,98.94443020684726L521.989,101.94589203926397L522.34,95.11717303539253L522.717,106.83627705107725L522.782,113.00294299539473L522.808,109.46776664895467L523.068,101.98632210984508L524.6800000000001,36.68553556715438L524.823,-22.51278619394253L529.282,-77.97979937017169L530.582,17.774868125144895L530.725,77.57731883193514L531.037,133.95364782437417L532.22,126.52850472356623L532.246,124.55812132016266L532.636,147.67344884883806L532.649,161.34278704736766L533.234,188.5399424629621L534.183,180.3798274190281L535.093,188.97664458915105L535.6650000000001,196.20364618356098L535.951,215.89528112444322L536.367,204.70512273808146L536.653,188.80849080080228L536.744,179.8327268366049L536.861,166.98718024841403L536.8870000000001,156.3466361138312L536.913,142.69221545514173L537.121,89.15060122978893L537.8100000000001,76.67858584246545L538.148,64.15072783271648L538.525,53.85413571099912L539.032,59.38856284125562L539.37,44.83290270206228L539.799,68.75157449657583L540.371,100.95823479249457L540.618,122.32359763389184L542.451,155.33838619777228L543.296,133.28145587762666L543.582,125.97994530391972L543.725,127.89473166363621L543.751,131.90872003233926L543.777,139.8403599920931L544.388,148.1467512916092L544.713,167.97368341129587L545.077,179.38773794816694L545.194,186.20928147614774L545.805,217.6324107359694L546.039,240.59202736518228L546.416,247.77986284869147L546.702,258.1961490352314L547.482,267.4949439852507L548.587,236.03869827758066L548.912,190.51248321201513L549.419,182.3356829328576L549.874,158.53438088176264L550.55,183.93241531938514L550.654,199.42600331316868L552.149,227.75783757389422L552.292,244.52381651847426L552.3960000000001,251.75497526999905L552.9680000000001,250.9709431268099L553.956,244.26540965660354L554.073,237.27905112996072L556.322,236.61421017182857L556.387,237.29859110207062L557.492,243.68325795769564L557.843,252.40875985537795L558.701,229.82790243921661L558.727,164.42348696496154L558.857,205.42474734282857L558.935,234.10747495481107L559.182,234.96826027473324L559.2470000000001,223.38487266250394L559.26,209.22189979240426L559.6239999999999,222.3908093242951L559.897,-31.655098964083205L560.469,-88.31392327771572L561.951,35.82453067623163L562.211,116.18462067666295L562.4970000000001,107.51226679631209L562.523,148.4107628917854L562.562,187.01115579831477L562.7180000000001,209.84826240848764L562.9,204.57516125604454L563.16,209.45977218877965L563.225,217.95448815998628L563.264,209.79619035609693L563.927,200.3996394116063L564.824,162.38167899317185L565.006,128.49170269106358L565.11,168.4783886849229L565.487,198.2016984678008L566.215,224.70121462899806L566.345,228.01373369766475L566.631,241.2603946902563L568.75,240.60484869783744L568.919,237.74528550807017" style="fill: none;" fill="none"></path></g></g></g></g><g opacity="0.2"><g><g><g><path stroke="rgb(255, 112, 67)" stroke-width="2px" d="M81.484,316.30849547819656L82.641,331.2658145427704L83.486,334.50685546614903L84.422,295.8202117356387L84.61699999999999,286.9174264994535L84.91600000000001,336.14624014767736L86.476,350.83841553601354L86.645,319.0999903678894L86.931,328.1604280471802L87.295,323.59756038405675L87.88,336.4077379703522L88.179,334.35850199786097L88.244,332.16394394094294L88.478,329.52125313065267L88.99799999999999,310.7008449814536L89.531,333.06383481892675L89.60900000000001,328.8978326537392L89.804,328.2957137931477L91.18199999999999,335.9335107369856L91.70200000000001,322.0682067437605L92.508,325.8941613760862L92.76800000000001,322.4795122796839L94.44500000000001,327.1573677062988L94.58800000000001,327.1301466985182L94.73100000000001,329.1224213296717L95.875,317.93880649046463L95.966,323.1070292212746L96.226,333.30718530308116L96.38199999999999,322.04264480417424L96.53800000000001,326.7603793144226L96.64200000000001,329.3443473035639L97.52600000000001,312.8761701367118L97.55199999999999,325.0285783897746L97.721,312.9634043520147L97.773,336.3673673109575L99.13799999999999,329.17084154215723L99.671,334.2632796764374L100.204,329.59720158576965L100.672,300.12776723775L100.88000000000001,328.9176595427773L100.91900000000001,332.18250092593104L101.374,325.1677557771856L101.413,310.2384360486811L101.595,327.1244321302934L102.40100000000001,326.17517885294825L102.50500000000001,310.005121902986L102.96000000000001,324.5908711390062L103.493,332.9676907929507L105.261,324.6716943870891L105.93700000000001,326.8770671107552L106.067,331.4675859104503L106.47,320.71170343052256L106.73,329.92790917916733L106.74300000000001,329.2961523966356L108.277,321.5402543761513L111.917,334.43383598327637L112.918,332.3975448391654L112.983,330.3720478794791L113.256,333.0614179047671L113.295,332.6775586821816L113.789,320.85956532304937L114.751,309.13329180804163L114.764,310.4603210579265L115.03699999999999,323.69382730397314L115.505,316.91712771762496L115.609,308.5107930356806L116.14200000000001,322.4701108932495L116.259,299.7117712497711L116.45400000000001,307.2856018976732L116.571,313.3747713349082L117.05199999999999,313.08779350194067L117.234,320.602123000405L117.455,324.28685201298106L117.80600000000001,333.0626263618469L118.222,322.52596618912435L118.443,324.8088645068082L119.89900000000002,337.4061488238248L121.329,321.4409970370206L121.34200000000001,326.7870882641185L121.602,335.8466656858271L121.615,329.36478866230357L122.135,328.8877553506331L122.837,328.90819670937276L123.07100000000001,337.3703047578985L123.383,324.29549555345017L123.695,333.66564644466746L123.734,330.0007648034529L124.87800000000001,319.88651158592916L125.502,326.8446640751578L126.529,335.5007397261533L126.75,329.6379818916321L127.088,327.59525929797775L127.60799999999999,331.636216878891L128.05,325.408668864857L128.258,324.7146663015539L128.752,328.67551751570267L128.84300000000002,330.2808400934393L128.934,332.0524381724271L128.973,327.46759297631L129.22,321.1455190398476L129.506,324.6700558012182L130.416,328.1283117641102L131.274,336.7557121623646L132.145,328.218720739538L132.37900000000002,318.53699274496597L132.92499999999998,315.3766316934065L133.406,314.46905994415283L133.549,313.1640082272616L134.342,314.0651075623252L134.667,325.1023147539659L134.823,324.6474228338762L134.862,326.9449455304579L135.148,322.7682515924627L135.603,323.2224675958807L135.746,329.5557658455588L136.201,321.929582379081L136.591,316.69237518310547L137.384,323.5304807749662L137.514,311.77045239101756L139.152,315.9881314581091L140.205,305.51230378584427L140.257,318.3629339608279L140.582,322.22616642171687L141.206,325.5490547093478L141.687,322.87521028518677L142.22,318.0714704990387L142.32399999999998,321.1514384313063L142.441,318.3053991144354L142.73999999999998,311.8972789374265L143.351,311.1104914491827L144.066,318.66463858431035L144.118,330.5348004211079L144.222,323.13840814070267L144.716,323.7630370746959L145.08,319.9688095612959L147.27700000000002,313.2958734252236L147.394,327.4371562437578L147.42,318.83304424719375L147.966,326.59082664142954L148.018,332.48801526156336L148.265,311.92323004115707L148.681,316.1711000529203L148.85,290.7390798438679L149.175,328.0803831273859L149.344,324.08506016297775L149.539,326.3314589803869L149.656,324.8866358887065L150.085,318.4931196082722L150.397,312.50748831575567L150.956,320.48510748689824L151.489,308.5443225990642L152.035,312.8843016190962L152.15200000000002,325.9175931540403L152.867,324.7853098349138L154.921,230.8908164717934L155.74,320.2864903970198L156.104,334.16627539287913L157.066,327.3150815963745L157.508,325.0713249986822L157.677,337.79838531667536L158.678,253.35840953480113L159.00300000000001,292.6774245175448L159.21099999999998,267.281842361797L159.939,304.8124842426993L160.69299999999998,318.2777479778636L161.044,305.3559417291121L161.096,268.0750817819075L162.175,328.89385908300227L162.409,323.14324196902186L162.877,330.4532193270597L163.56599999999997,328.17210297151047L163.592,331.49658888036555L163.904,324.9836196899414L163.917,315.23526269739324L163.982,317.2205938209187L164.047,306.08853298967534L166.114,329.29330535368484L166.413,322.1697376207872L166.582,330.81565403938293L166.647,331.0454452254555L166.855,333.08015923066574L166.92,333.0219484676014L167.03699999999998,340.0239536112005L167.24499999999998,336.08757877349854L167.99900000000002,335.9297215071592L168.74,338.6273049441251L169,332.391850753264L169.676,326.0462221449072L170.196,331.9235838760029L170.3,332.3842518112876L171.158,327.0976412513039L171.197,332.25445532798767L172.133,336.9815912246704L172.19799999999998,331.4058521877635L172.224,334.97098491408605L172.952,331.3773407936096L173.77100000000002,332.7645266272805L173.81000000000003,328.84941244125366L173.88799999999998,332.75014803626317L174.382,323.752386266535L174.941,317.609901341525L175.53900000000002,330.90747629512435L175.812,325.8733308532021L176.25400000000002,326.00804309411484L176.644,325.68475010178304L176.83900000000003,330.1064126274802L177.02100000000002,330.5488308126276L177.918,326.06611048091537L178.282,316.1962933106856L178.334,319.40499264543706L178.35999999999999,332.7793558294123L178.82799999999997,329.83260492845017L178.984,333.5222292163155L179.309,334.71049072525716L179.959,338.4023066217249L180.102,329.1220731301741L180.622,328.9102654240348L180.83,328.8207781531594L181.701,331.4092522534457L181.74,329.77017480676824L182.07799999999997,332.10571269555527L182.572,331.9583014141429L182.58499999999998,331.5196929411455L182.923,323.19887195933944L183.365,311.03734907236964L183.885,283.3256053057584L185.06799999999998,328.42530545321375L186.83599999999998,330.2886643409729L187.122,324.6959044933319L188.05800000000002,284.8262632109902L188.851,274.35578142512924L189.03300000000002,273.62095759131694L189.098,269.2158243005926L190.151,313.74451823668045L190.41099999999997,317.8420070301402L191.633,225.29754456606778L192.374,304.34636800939387L192.452,305.7127847671509L193.28400000000002,321.7074925466017L193.817,325.17412577975875L193.86900000000003,295.0343664342707L194.272,318.9089312553406L194.662,317.66221319545394L195.02599999999998,267.3620921048251L195.338,319.84573128006673L195.364,327.4846547516909L195.949,335.7306128415194L196.07899999999998,335.30154913122004L196.56,326.6427698135376L196.65099999999998,324.0017995184118L197.171,322.3804392814636L198.055,330.6407759623094L198.328,325.14325891841537L198.679,333.7993550517342L199.004,332.8558777895841L199.823,332.4973961656744L200.226,331.2059651938352L201.006,333.82049280946904L201.52599999999998,331.556028582833L202.033,334.2042291381142L202.189,332.464091907848L202.306,332.8807638124986L202.50099999999998,332.466529304331L202.735,321.009536894885L202.917,334.4364986853166L203.08599999999998,328.27316275509924L203.281,325.09053741801864L204.178,333.53943436796015L205.244,333.77110992778427L205.361,336.02328476038844L205.608,328.9889380281622L206.97299999999998,332.4688438068736L206.986,331.6351313157515L207.50600000000003,332.4409468824213L208.03900000000002,335.80074431679463L208.052,334.02185453068125L208.286,333.5913570577448L208.819,301.7963187477805L209.13100000000003,334.5224629965696L209.3,335.11337802626866L209.52100000000002,326.98396435650915L209.872,332.37102023038L210.17100000000002,304.0036372921683L210.574,320.53287226503545L210.587,312.5084100203081L210.6,306.9576799002561L210.73,298.93418032472783L210.89900000000003,332.22192939844996L210.97699999999998,300.2048422206532L211.159,291.96396374702454L212.069,322.9693265611475L212.42,316.32168609445745L212.82299999999998,328.892097603191L213.044,322.7954316355965L213.733,324.9115014292977L213.954,329.19777579741043L214.045,314.33371275121516L214.747,314.30587727373296L214.89000000000001,318.9540947784077L215.69600000000003,322.8454085046595L215.73499999999999,317.11158689585596L215.748,308.38839067112315L216.385,334.1280144127932L217.035,330.2174473025582L217.113,334.57100610299545L217.126,323.66785571791905L217.204,277.67969382892954L217.76299999999998,287.575195832686L217.98399999999998,315.760490915992L218.543,282.40539596297526L218.998,306.16655015945435L219.479,331.0836037939245L219.609,325.3008294322274L219.635,325.1987250501459L220.441,333.6249480680986L220.57099999999997,292.1634206121618L220.662,304.90922225605357L224.549,316.87055091424423L224.61399999999998,309.36689270626414L224.71800000000002,323.022089026191L224.952,331.57001800970596L225.472,325.58592289144343L225.784,318.92326888171107L225.862,322.6540216749365L226.45999999999998,309.61513846570796L227.006,310.59650802612305L227.084,310.11763130534774L227.188,313.99139168045735L228.553,259.1744881543246L229.372,286.9612996361472L229.567,291.78371930122375L230.00900000000001,314.0143318826502L230.243,314.5850718238137L231.76399999999998,253.00939074429598L232.19299999999998,236.24174152721056L233.298,197.51810672066426L233.81799999999998,243.31322271173653L234.078,251.1864639629017L234.195,256.5381673466075L234.468,261.54630023782903L234.897,277.9751718261025L235.261,286.5551351633939L235.521,298.27253983237523L235.638,294.6826439770785L236.665,310.81222785602915L236.886,307.27550411224365L237.60099999999997,309.8172170682387L238.238,305.4281214367259L239.525,268.9846607988531L239.577,278.0825401652943L240.30499999999998,241.25335641340777L240.77300000000002,122.11251510273325L241.176,176.09621819582853L241.35799999999998,142.4635877609253L241.852,121.37978046590631L242.37199999999999,-72.23073317787862L243.48999999999998,-140.99202294783154L244.45200000000003,81.99919561906295L245.06300000000002,137.07411497289482L245.674,166.85963253541425L246.454,191.62104099447075L248.96300000000002,-638.9272998463022L249.015,291.16195789250463L249.522,294.20948182452804L249.886,193.97310811823067L249.938,125.87089855020697L250.56199999999998,-107.08001362193711L250.87400000000002,318.9737578088587L251.446,-1435.5549878207119L252.694,40.63592186841098L253.643,180.0195662758567L254.202,-582.8619372627951L254.787,236.03548453070903L255.294,284.74937256899744L255.684,246.50735911456022L256.165,308.7741547497836L257.036,295.84694116765803L257.40000000000003,91.59852322665127L257.504,303.78967894207346L258.349,274.3490222584117L258.596,301.80078389427877L258.661,318.9937075918371L260.676,294.4966439984061L261.287,317.56852704828435L262.158,101.13730508630927L262.873,231.21054553985596L262.99,121.52622907811944L263.328,233.55917163328692L263.848,265.07532262802124L265.551,211.73587053472343L265.694,239.97058946436104L265.928,189.8516550064087L266.60400000000004,-433.16630328785277L266.695,81.04717722806065L267.852,56.610126842152L267.943,70.771277514371L268.437,122.45989530736749L268.515,131.36569144509056L268.697,-1.4053987156260792L268.81399999999996,159.64043283462524L270.205,251.59471763264048L270.75100000000003,261.91555556384L271.349,289.47415299849075L271.635,309.7561182975769L272.935,325.04738116264343L273.897,322.9868799122897L274.313,318.55186291174454L274.48199999999997,321.5548787550493L274.534,318.82857910069555L275.223,302.2505552335219L275.275,298.9433768879283L275.47,308.8158157955516L276.497,322.4029493548653L277.095,310.7120078476992L277.108,315.7538341608915L277.16,312.0992551283403L277.68,321.64539014209396L277.862,329.51090955734253L278.044,322.8078848882155L278.239,292.9739675955339L278.65500000000003,327.4859246557409L278.837,320.7225180972706L280.592,291.1453057635914L280.956,290.09194083647293L281.07300000000004,284.17621571367437L281.697,277.137096600099L281.983,256.6871148022738L282.178,289.8176825263283L282.25600000000003,279.2842380783775L282.62,249.68166862834582L284.18,195.40269236131147L284.544,241.09597024050626L285.50600000000003,216.6034537228671L285.636,216.40555351430717L286.13,196.22124793312764L286.55899999999997,154.52734851837158L286.91,133.59818276492032L287.599,39.0541539625688L288.236,138.30330016396263L289.666,103.52955852855337L290.238,82.36431351574986L290.771,102.60506838018247L291.655,144.79926902597603L291.668,153.85360297289762L292.357,174.011240569028L292.383,196.09950100291857L293.319,300.3492221182043L293.748,301.4457023360512L294.346,309.980317809365L294.593,311.62574477629227L294.801,302.45924962650645L298.753,319.1182810826735L298.805,323.3947444178841L300.092,309.3474959460172L300.508,292.7981473315846L300.69,321.1914813735268L300.729,311.5940791043368L301.041,296.41415814919907L301.56100000000004,266.9597783088684L302.276,309.22312727841467L302.458,318.6393429149281L302.952,318.7577921910719L303.238,302.60047524625605L303.81,305.1131237853657L303.888,318.1995055025274L303.901,307.9482255415483L304.109,289.64239480278707L304.265,298.28544369610876L305.227,269.59585332870483L305.5,274.26406158100474L305.669,263.9476478316567L305.799,275.9507399472323L307.372,257.8243753259832L307.853,256.5687269731001L309.569,314.97931558435613L310.466,309.37230003963816L310.479,305.54190074313766L310.973,194.78789494254374L311.194,112.07740558277476L311.311,71.41786349903452L311.753,111.81449447978628L312.234,202.53455543518066L313.599,221.6049093766646L313.703,206.11101488633588L313.755,218.2166415127841L314.40500000000003,34.9490047801625L315.315,191.7921093593944L316.394,274.3652852231806L316.667,222.69399547576904L316.82300000000004,225.7126802964644L316.927,224.38423776626587L316.979,261.7083973451094L317.031,182.538236618042L317.94100000000003,234.36760893735018L318.838,24.970877083865087L319.56600000000003,36.33401948755439L320.515,133.85683354464445L320.827,15.170617883855662L321.022,-15.356646537780762L321.334,-89.4255617315119L321.503,62.26033960689199L321.62,106.27697545831855L322.036,153.85528252341533L323.258,248.33860171924937L323.492,213.27347855134443L323.635,230.4847339283336L325.10400000000004,202.24411608956075L325.11699999999996,202.93142093311656L325.195,244.2105123346502L325.23400000000004,249.04171891645953L325.39000000000004,227.581364588304L325.585,257.3014206452803L327.002,205.3573063503612L328.13300000000004,135.92784222689542L328.757,242.4148680080067L329.537,49.769071795723676L329.667,115.06999592347579L329.71900000000005,70.4001378146085L329.73199999999997,70.81990255009048L330.967,273.7963272441517L331.86400000000003,196.66686136072335L332.397,242.58364235271105L333.151,247.8274448568171L333.528,273.6149357882413L333.71,285.69082208113235L334.724,272.8177227973938L334.76300000000003,272.2978404651988L335.348,293.29058335044164L336.271,275.3307605006478L336.479,291.35391822728246L336.752,298.7499213435433L339.183,251.4131213534962L339.443,308.65357531200755L339.88500000000005,288.31528362360865L340.093,318.77522264827377L340.236,319.70016340775925L341.016,283.36161323027176L341.068,262.5460424423218L341.237,248.93926633488047L341.43199999999996,272.62944928082555L342.992,282.8201834938743L345.293,316.52460447224706L345.956,311.341327233748L346.372,302.8875145261938L346.489,286.03885772011495L346.736,306.8966630588878L346.97,289.92621835795313L347.659,240.75215396014127L347.919,300.4534566619179L348.205,107.48813620480625L348.50399999999996,-364.674478964372L348.72499999999997,152.65723046389493L348.764,186.2330838983709L348.803,179.20051912827924L349.284,177.57135512612084L349.64799999999997,168.64778033169833L349.882,176.00503089211205L349.908,188.6953459219499L351.13,89.91282801194625L351.481,148.01118408549917L351.81899999999996,73.9288734522733L352.144,118.47600147940898L352.183,111.87667881358755L353.561,195.26394510269165L353.61299999999994,212.35353547876534L353.808,223.44160027937457L353.83399999999995,191.24813981489703L353.89900000000006,198.8286067355763L353.977,194.4099551114169L354.25,123.90930643948643L354.71799999999996,86.29536294937134L354.926,151.50473109158602L355.92699999999996,273.82770616357976L356.395,279.85682142864573L356.49899999999997,182.29728256572378L356.577,207.53650266473946L356.915,240.64933269674125L356.967,200.9878123023293L357.279,313.44260878996414L357.422,233.72401337190107L357.72100000000006,286.7404797077179L358.293,248.2402456023476L359.32,261.6748472994024L359.697,265.5972941572016L360.295,232.78104816783556L362.03700000000003,233.4454947384921L362.063,228.03148412704468L362.18,198.51223676854912L362.23199999999997,222.3543166247281L362.245,221.66283338720146L362.336,238.05733563683248L362.54400000000004,187.66320068185982L363.259,228.2799756743691L363.28499999999997,223.91826490922406L363.831,97.75280596993188L364.013,105.85622757131407L365.027,118.4336440346458L365.45599999999996,103.48711915449663L368.29,104.08401502262461L368.60200000000003,69.88586763902144L368.95300000000003,143.50863686474887L369.23900000000003,256.53062985160136L369.36899999999997,228.35227827592328L369.577,182.67272355339745L370.448,187.5920041257685L371.02,132.6459185860374L371.176,128.9452133612199L371.462,193.93591221896085L372.385,191.24850849671796L372.411,187.68306853554466L372.892,166.71879607980904L373.516,149.807852528312L374.153,178.9015591361306L374.38700000000006,176.31644413687965L374.842,146.07249121232465L375.32300000000004,143.54554601149127L376.597,120.9292512806979L377.299,179.70290955630216L377.624,211.22389437935567L379.44399999999996,266.1805487979542L380.757,274.79545497894287L382.12199999999996,125.25577341426504L382.18699999999995,144.57121883739126L382.356,184.59085217389193L382.655,211.04086433757433L382.81100000000004,204.17568111419678L384.839,174.81566333770752L385.30699999999996,118.01281421834776L385.72299999999996,198.5153500817039L386.711,167.83221517909658L386.72400000000005,184.83635330200195L387.933,81.526217807423L389.09000000000003,-29.934407667680183L389.85699999999997,-125.96873031962998L390.76700000000005,115.17072798989038L392.05400000000003,205.10598824240947L393.80899999999997,237.65825804797086L394.771,295.596298976378L395.34299999999996,276.3560441624034L395.421,263.4968318939209L397.293,294.5074177005074L399.06100000000004,295.58079385757446L399.34700000000004,301.583118243651L399.51599999999996,279.09227774359965L400.08799999999997,248.20890764756635L400.53,225.39008370312777L400.58200000000005,248.27236188541758L400.829,258.1300944848494L402.31100000000004,281.89755723693156L402.70099999999996,290.4768651398745L403.585,265.45342631773514L403.767,300.8696165084839L404.287,259.20336823029953L405.06699999999995,284.72190577333623L405.197,206.1055256236683L405.34000000000003,179.7015986876054L405.392,172.88123078779742L405.808,283.1921015219255L405.899,270.44656614823776L406.17199999999997,44.153105475685834L406.627,292.9950439062986L406.887,235.0511450334029L406.913,233.08725890246305L407.134,254.2117850563743L407.316,262.3471181175926L408.122,233.57395987077192L408.148,235.52526985515246L408.88899999999995,278.8635926029899L409.86400000000003,273.50859156521886L410.787,269.2261473915794L412.724,205.5393942052668L413.322,126.66278613697398L413.62100000000004,196.28404673663053L415.50600000000003,-85.41545052961865L415.987,106.5570097836581L416.14300000000003,237.298547484658L416.481,303.7230089794505L416.68899999999996,308.4344144517725L416.715,290.04868216948074L416.819,292.6005133932287L416.84499999999997,315.80657614361155L417.391,298.7981572151184L418.13199999999995,322.3463976599953L418.327,317.24937148527664L418.34,329.9890079498291L419.341,260.93486192009664L419.471,279.15806696631694L419.627,271.9879838770086L420.42,281.5506890903819L421.278,148.26598418842661L421.395,154.05859006534922L421.811,231.35986167734322L421.928,157.35616220127451L422.032,148.29269313812256L422.136,253.64000051671806L422.539,324.45650709759104L422.565,286.3508444699374L423.969,145.62245360287753L424.32000000000005,106.2074994173917L424.489,-3.1682713248512733L424.515,99.29086459766734L424.632,-21.100750272924266L425.451,-24.49524476311421L426.023,161.61677221818402L426.088,199.43738235126844L427.70000000000005,176.97155076807198L428.181,301.06032742153513L428.246,325.86394994909114L428.311,319.61075806617737L428.73999999999995,322.22768211364746L428.948,104.51389802585948L429.40299999999996,173.36420397324994L429.53299999999996,178.00615388696846L429.559,248.2582700469277L429.611,218.0666289763017L429.663,172.69828267530963L430.339,291.1156883239746L431.132,195.47843599319458L431.145,226.31436902826485L431.158,180.13668420098045L432.432,242.46693407405505L433.15999999999997,315.7877528884194L433.73199999999997,242.54099815542045L433.92699999999996,-143.80924363569775L434.174,148.8612005060369L434.317,182.7536696954207L434.902,-5.162594188343364L435.14900000000006,33.43622133948588L435.36999999999995,199.64097664572978L437.554,-1889.1330897591326L438.321,-221.50131797790527L439.296,207.9057579907504L439.335,214.97527287223124L439.452,240.11109820279208L440.32300000000004,141.79795321551236L440.531,168.70750678669322L440.60900000000004,166.29014201597735L441.688,316.9744577407837L441.74,315.6342993216081L442.013,316.6353114301508L442.71500000000003,324.0512438470667L443.664,317.83502255786544L443.846,303.90851738236165L444.275,307.80091667175293L444.379,310.8347174471075L445.172,262.12517166137695L445.198,257.50034497000956L445.47099999999995,296.6818416335366L446.19899999999996,242.21135564283892L446.628,246.2117991880937L447.135,198.69317761334506L447.876,292.91323750669306L449.189,265.89342758872294L449.43600000000004,291.68485112623733L451.269,94.6614089012146L452.426,191.00542428276754L452.53000000000003,185.85203075408936L453.245,119.56308031082153L453.49199999999996,90.57186724922876L454.155,96.0150037245317L454.545,105.2918985973705L454.714,130.4772501858798L456.846,231.83369974656537L456.87199999999996,229.24346416646782L457.65200000000004,249.8420861851085L458.016,254.25852571834216L459.186,244.45040130615234L459.212,219.39257266304708L459.342,281.3140363259749L460.291,283.691501530734L461.097,5.626305796883345L461.18800000000005,130.38680024580523L461.63000000000005,-157.62129358811808L462.91700000000003,124.65240513194692L463.58,75.3051217252558L464.139,301.63766267082906L464.802,192.23108651421285L465.153,59.763544386083446L465.556,213.2142846367576L465.621,143.06179449775004L465.92,181.50719742341474L466.89500000000004,260.8979527733543L467.61,-23.858777046203613L467.81800000000004,309.0074279308319L468.27299999999997,300.5250014175068L468.351,216.19782179052177L468.507,158.52422813935712L469.742,247.04796955802226L469.833,314.66028291528875L470.05400000000003,308.12095297466624L470.353,294.8630727637898L470.574,310.9305952028795L470.91200000000003,310.60160812464625L472.069,315.8466805328022L472.212,317.2473642175848L472.537,297.17753434181213L473.265,285.63295951756567L473.421,271.54081379283554L473.59000000000003,303.0005974336104L475.15,273.8211518200961L475.70899999999995,312.83063793182373L475.852,195.78751425309613L475.878,103.11401315168901L475.92999999999995,230.50984525680542L476.45,281.93004220182246L476.87899999999996,297.03499785336584L477.087,254.69156299937853L478.049,279.0740075111389L480.53200000000004,255.45112947984174L481.52,212.98283438249067L481.689,202.5759297284213L481.871,276.0890161124143L482.313,271.3416436802257L483.613,267.1716474619779L484.14599999999996,257.77235022458166L484.497,206.35631119121203L484.822,243.135272286155L484.93899999999996,199.9150301326405L485.017,218.9998036297885L485.121,248.14176659150556L485.21200000000005,258.5521942051974L485.628,234.00269586389717L486.005,104.70671861821958L487.084,261.7121660926125L488.293,194.78011165965685L488.722,257.5105042024092L489.63199999999995,266.9891499606046L489.931,258.2410677129572L490.438,302.6031993952665L490.88,18.541475772857666L491.64700000000005,-169.23739268563008L494.13,-0.47173248637803233L494.598,74.16917207024316L494.65000000000003,154.49273339184847L494.75399999999996,135.2018257921392L495.573,213.8264193534851L495.612,216.01253869316793L496.97700000000003,282.5458227721128L497.13300000000004,298.9884584817019L497.276,280.4477364583449L497.48400000000004,273.38696752895004L497.666,303.77654977278274L497.93899999999996,273.0111578594554L498.238,227.3848162130876L498.472,187.23606230995873L498.73199999999997,177.46623984250155L500.79900000000004,269.92705249786377L501.25399999999996,216.03171014785767L501.852,205.0381917520003L505.141,313.34980338270014L505.323,289.81585959954697L505.947,88.54542810266669L506.558,294.52945668047124L507.546,207.47161466425118L508.248,220.86267094178632L509.093,100.45807027816772L509.10600000000005,94.35872112620962L509.26199999999994,151.0372835072604L509.275,146.92930776422676L510.27599999999995,152.00482749938965L510.354,96.6249263503335L511.108,45.99102531779897L511.368,107.61332416534424L511.706,224.71371642026034L512.161,191.26870406757703L513.9549999999999,256.41342999718404L514.475,245.96736314079976L515.06,290.3305394216017L515.177,296.22631476142186L516.1129999999999,244.4832549528642L516.659,267.69792027906936L516.854,256.3040543903004L516.919,272.84316184303975L517.088,265.4611686359752L517.283,210.42680428244853L520.663,231.7849927815524L520.767,205.70866012573242L521.3000000000001,51.39590081301602L521.313,41.402288480238475L521.742,82.25321739370176L521.989,106.44808478788896L522.34,84.8740945295854L522.717,124.41493307460439L522.782,122.25294191187079L522.808,104.16500212929468L523.068,90.76415530118076L524.6800000000001,-61.26564424688164L525.707,-18.396469116210938L525.941,31.032456831498582L526.396,-219.90599077398124L529.282,-21.116480697285013L530.582,161.4068693681197L530.725,167.28099489212036L531.037,218.51814131303266L532.22,115.39079007235439L532.246,121.60254621505737L532.636,182.34644014185128L532.649,181.84679434516212L533.234,229.33567558635363L534.183,168.1396548531272L535.093,201.8718703443354L535.6650000000001,207.04414857517588L535.951,245.4327335357666L536.367,187.91988515853882L536.653,164.9635428948836L536.744,166.36908089030874L536.861,147.71886036612773L536.8870000000001,140.3858199119568L536.913,122.21058446710761L537.121,8.838179891759715L537.8100000000001,57.970562761480174L538.148,45.35894081809306L538.525,38.409247528422995L539.032,67.69020353664052L539.37,22.999412493272263L539.799,104.62958218834619L540.371,149.2682252363725L540.618,154.37164189598778L542.451,204.86056904359296L543.296,100.19606039740825L543.582,115.02767944335938L543.725,130.76691120321098L543.751,137.92970258539376L543.777,151.73781993172386L544.388,160.6063382408836L544.713,197.71408159082588L545.077,196.50881975347343L545.194,196.4415967681191L545.805,264.7671046257019L546.039,275.03145230900157L546.416,258.5616160739552L546.702,273.8205783150413L547.482,281.4431364102797L548.587,188.85432971607554L548.912,122.22316061366689L549.419,170.07048251412132L549.874,122.8324278051203L550.55,222.02946697581896L550.654,222.6663853038441L552.149,270.25558896498245L552.292,269.67278493534434L552.3960000000001,262.6017133972862L552.9680000000001,249.79489491202617L553.956,234.20710945129395L554.073,226.79951333999634L556.322,235.61694873463023L556.387,238.32516249743375L557.492,253.26025824113324L557.843,265.4970127019015L558.701,195.9566163149747L558.727,66.3168637535789L558.857,266.9266379096291L558.935,277.1315663727847L559.182,236.2594382546165L559.2470000000001,206.00979124416003L559.26,187.97744048725474L559.6239999999999,242.14417362213135L559.897,-412.7239613966508L560.001,-322.77133213389993L560.469,1.3675801537253869L561.951,222.0322116071528L562.211,236.7247556773099L562.4970000000001,94.50373597578569L562.523,209.75850703499532L562.562,244.9117451581088L562.7180000000001,244.10392232374713L562.9,196.66550952737984L563.16,216.78668858788228L563.225,230.69656211679634L563.264,197.55874365026298L563.927,186.30481299487028L564.824,105.35473836552012L565.006,77.65673823790117L565.11,228.45841767571187L565.487,242.7866631421176L566.215,264.4504888707941L566.345,232.98251230066475L566.631,261.1303861791437L568.75,239.62152970920909L568.919,233.4559407234192" style="fill: none;" fill="none"></path></g></g></g></g></g></g><g transform="translate(40, 378)" clip-path="url(#clip_1)"><clipPath id="clip_1"><rect width="650" height="22"></rect></clipPath><g><g><line x1="0" y1="0" x2="0" y2="5" style="visibility: inherit;" fill="rgb(0, 0, 0)" stroke="rgb(204, 204, 204)" stroke-width="1px"></line><line x1="81.25" y1="0" x2="81.25" y2="5" style="visibility: inherit;" fill="rgb(0, 0, 0)" stroke="rgb(204, 204, 204)" stroke-width="1px"></line><line x1="162.5" y1="0" x2="162.5" y2="5" style="visibility: inherit;" fill="rgb(0, 0, 0)" stroke="rgb(204, 204, 204)" stroke-width="1px"></line><line x1="243.75" y1="0" x2="243.75" y2="5" style="visibility: inherit;" fill="rgb(0, 0, 0)" stroke="rgb(204, 204, 204)" stroke-width="1px"></line><line x1="325" y1="0" x2="325" y2="5" style="visibility: inherit;" fill="rgb(0, 0, 0)" stroke="rgb(204, 204, 204)" stroke-width="1px"></line><line x1="406.25" y1="0" x2="406.25" y2="5" style="visibility: inherit;" fill="rgb(0, 0, 0)" stroke="rgb(204, 204, 204)" stroke-width="1px"></line><line x1="487.5" y1="0" x2="487.5" y2="5" style="visibility: inherit;" fill="rgb(0, 0, 0)" stroke="rgb(204, 204, 204)" stroke-width="1px"></line><line x1="568.75" y1="0" x2="568.75" y2="5" style="visibility: inherit;" fill="rgb(0, 0, 0)" stroke="rgb(204, 204, 204)" stroke-width="1px"></line><line x1="650" y1="0" x2="650" y2="5" style="visibility: inherit;" fill="rgb(0, 0, 0)" stroke="rgb(204, 204, 204)" stroke-width="1px"></line></g><g transform="translate(0, 8)"><text x="0" y="0" dx="0em" dy="0.95em" style="text-anchor: middle; visibility: hidden; font-family: Roboto, sans-serif; font-size: 12px; font-weight: 200;" fill="rgb(50, 49, 63)" stroke="none" stroke-width="1px">-50k</text><text x="81.25" y="0" dx="0em" dy="0.95em" style="text-anchor: middle; visibility: inherit; font-family: Roboto, sans-serif; font-size: 12px; font-weight: 200;" fill="rgb(50, 49, 63)" stroke="none" stroke-width="1px">0</text><text x="162.5" y="0" dx="0em" dy="0.95em" style="text-anchor: middle; visibility: inherit; font-family: Roboto, sans-serif; font-size: 12px; font-weight: 200;" fill="rgb(50, 49, 63)" stroke="none" stroke-width="1px">50k</text><text x="243.75" y="0" dx="0em" dy="0.95em" style="text-anchor: middle; visibility: inherit; font-family: Roboto, sans-serif; font-size: 12px; font-weight: 200;" fill="rgb(50, 49, 63)" stroke="none" stroke-width="1px">100k</text><text x="325" y="0" dx="0em" dy="0.95em" style="text-anchor: middle; visibility: inherit; font-family: Roboto, sans-serif; font-size: 12px; font-weight: 200;" fill="rgb(50, 49, 63)" stroke="none" stroke-width="1px">150k</text><text x="406.25" y="0" dx="0em" dy="0.95em" style="text-anchor: middle; visibility: inherit; font-family: Roboto, sans-serif; font-size: 12px; font-weight: 200;" fill="rgb(50, 49, 63)" stroke="none" stroke-width="1px">200k</text><text x="487.5" y="0" dx="0em" dy="0.95em" style="text-anchor: middle; visibility: inherit; font-family: Roboto, sans-serif; font-size: 12px; font-weight: 200;" fill="rgb(50, 49, 63)" stroke="none" stroke-width="1px">250k</text><text x="568.75" y="0" dx="0em" dy="0.95em" style="text-anchor: middle; visibility: inherit; font-family: Roboto, sans-serif; font-size: 12px; font-weight: 200;" fill="rgb(50, 49, 63)" stroke="none" stroke-width="1px">300k</text><text x="650" y="0" dx="0em" dy="0.95em" style="text-anchor: middle; visibility: hidden; font-family: Roboto, sans-serif; font-size: 12px; font-weight: 200;" fill="rgb(50, 49, 63)" stroke="none" stroke-width="1px">350k</text></g><line x1="0" y1="0" x2="650" y2="0" fill="rgb(0, 0, 0)" stroke="rgb(204, 204, 204)" stroke-width="1px"></line></g></g></g></g></svg>