<svg viewBox="0 0 330 200" xmlns="http://www.w3.org/2000/svg"><g><g><g><g><g><line x1="60" y1="177.984375" x2="55" y2="177.984375" style="visibility: inherit;" fill="rgb(0, 0, 0)" stroke="rgb(204, 204, 204)" stroke-width="1px"></line><line x1="60" y1="161.80397727272725" x2="55" y2="161.80397727272725" style="visibility: inherit;" fill="rgb(0, 0, 0)" stroke="rgb(204, 204, 204)" stroke-width="1px"></line><line x1="60" y1="145.6235795454545" x2="55" y2="145.6235795454545" style="visibility: inherit;" fill="rgb(0, 0, 0)" stroke="rgb(204, 204, 204)" stroke-width="1px"></line><line x1="60" y1="129.44318181818176" x2="55" y2="129.44318181818176" style="visibility: inherit;" fill="rgb(0, 0, 0)" stroke="rgb(204, 204, 204)" stroke-width="1px"></line><line x1="60" y1="113.26278409090901" x2="55" y2="113.26278409090901" style="visibility: inherit;" fill="rgb(0, 0, 0)" stroke="rgb(204, 204, 204)" stroke-width="1px"></line><line x1="60" y1="97.08238636363626" x2="55" y2="97.08238636363626" style="visibility: inherit;" fill="rgb(0, 0, 0)" stroke="rgb(204, 204, 204)" stroke-width="1px"></line><line x1="60" y1="80.9019886363635" x2="55" y2="80.9019886363635" style="visibility: inherit;" fill="rgb(0, 0, 0)" stroke="rgb(204, 204, 204)" stroke-width="1px"></line><line x1="60" y1="64.72159090909078" x2="55" y2="64.72159090909078" style="visibility: inherit;" fill="rgb(0, 0, 0)" stroke="rgb(204, 204, 204)" stroke-width="1px"></line><line x1="60" y1="48.541193181818024" x2="55" y2="48.541193181818024" style="visibility: inherit;" fill="rgb(0, 0, 0)" stroke="rgb(204, 204, 204)" stroke-width="1px"></line><line x1="60" y1="32.3607954545455" x2="55" y2="32.3607954545455" style="visibility: inherit;" fill="rgb(0, 0, 0)" stroke="rgb(204, 204, 204)" stroke-width="1px"></line><line x1="60" y1="16.18039772727275" x2="55" y2="16.18039772727275" style="visibility: inherit;" fill="rgb(0, 0, 0)" stroke="rgb(204, 204, 204)" stroke-width="1px"></line><line x1="60" y1="0" x2="55" y2="0" style="visibility: inherit;" fill="rgb(0, 0, 0)" stroke="rgb(204, 204, 204)" stroke-width="1px"></line></g><g transform="translate(50, 0)"><text x="0" y="177.984375" dx="0em" dy="0.3em" style="text-anchor: end; visibility: hidden; font-family: Roboto, sans-serif; font-size: 12px; font-weight: 200;" fill="rgb(50, 49, 63)" stroke="none" stroke-width="1px">0.218</text><text x="0" y="161.80397727272725" dx="0em" dy="0.3em" style="text-anchor: end; visibility: inherit; font-family: Roboto, sans-serif; font-size: 12px; font-weight: 200;" fill="rgb(50, 49, 63)" stroke="none" stroke-width="1px">0.22</text><text x="0" y="145.6235795454545" dx="0em" dy="0.3em" style="text-anchor: end; visibility: hidden; font-family: Roboto, sans-serif; font-size: 12px; font-weight: 200;" fill="rgb(50, 49, 63)" stroke="none" stroke-width="1px">0.222</text><text x="0" y="129.44318181818176" dx="0em" dy="0.3em" style="text-anchor: end; visibility: inherit; font-family: Roboto, sans-serif; font-size: 12px; font-weight: 200;" fill="rgb(50, 49, 63)" stroke="none" stroke-width="1px">0.224</text><text x="0" y="113.26278409090901" dx="0em" dy="0.3em" style="text-anchor: end; visibility: hidden; font-family: Roboto, sans-serif; font-size: 12px; font-weight: 200;" fill="rgb(50, 49, 63)" stroke="none" stroke-width="1px">0.226</text><text x="0" y="97.08238636363626" dx="0em" dy="0.3em" style="text-anchor: end; visibility: inherit; font-family: Roboto, sans-serif; font-size: 12px; font-weight: 200;" fill="rgb(50, 49, 63)" stroke="none" stroke-width="1px">0.228</text><text x="0" y="80.9019886363635" dx="0em" dy="0.3em" style="text-anchor: end; visibility: hidden; font-family: Roboto, sans-serif; font-size: 12px; font-weight: 200;" fill="rgb(50, 49, 63)" stroke="none" stroke-width="1px">0.23</text><text x="0" y="64.72159090909078" dx="0em" dy="0.3em" style="text-anchor: end; visibility: inherit; font-family: Roboto, sans-serif; font-size: 12px; font-weight: 200;" fill="rgb(50, 49, 63)" stroke="none" stroke-width="1px">0.232</text><text x="0" y="48.541193181818024" dx="0em" dy="0.3em" style="text-anchor: end; visibility: hidden; font-family: Roboto, sans-serif; font-size: 12px; font-weight: 200;" fill="rgb(50, 49, 63)" stroke="none" stroke-width="1px">0.234</text><text x="0" y="32.3607954545455" dx="0em" dy="0.3em" style="text-anchor: end; visibility: inherit; font-family: Roboto, sans-serif; font-size: 12px; font-weight: 200;" fill="rgb(50, 49, 63)" stroke="none" stroke-width="1px">0.236</text><text x="0" y="16.18039772727275" dx="0em" dy="0.3em" style="text-anchor: end; visibility: hidden; font-family: Roboto, sans-serif; font-size: 12px; font-weight: 200;" fill="rgb(50, 49, 63)" stroke="none" stroke-width="1px">0.238</text><text x="0" y="0" dx="0em" dy="0.3em" style="text-anchor: end; visibility: hidden; font-family: Roboto, sans-serif; font-size: 12px; font-weight: 200;" fill="rgb(50, 49, 63)" stroke="none" stroke-width="1px">0.24</text></g><line x1="60" y1="0" x2="60" y2="177.984375" fill="rgb(0, 0, 0)" stroke="rgb(204, 204, 204)" stroke-width="1px"></line></g></g><g transform="translate(60, 0)" clip-path="url(#clip_0)"><clipPath id="clip_0"><rect width="270" height="177"></rect></clipPath><g><g><g><line x1="0" y1="0" x2="0" y2="177.984375" fill="rgb(0, 0, 0)" stroke="rgb(60, 60, 60)" stroke-width="1px" opacity="0.25"></line><line x1="38.57142857142857" y1="0" x2="38.57142857142857" y2="177.984375" fill="rgb(0, 0, 0)" stroke="rgb(60, 60, 60)" stroke-width="1px" opacity="0.25"></line><line x1="77.14285714285714" y1="0" x2="77.14285714285714" y2="177.984375" fill="rgb(0, 0, 0)" stroke="rgb(60, 60, 60)" stroke-width="1px" opacity="0.25"></line><line x1="115.71428571428571" y1="0" x2="115.71428571428571" y2="177.984375" fill="rgb(0, 0, 0)" stroke="rgb(60, 60, 60)" stroke-width="1px" opacity="0.25"></line><line x1="154.28571428571428" y1="0" x2="154.28571428571428" y2="177.984375" fill="rgb(0, 0, 0)" stroke="rgb(60, 60, 60)" stroke-width="1px" opacity="0.25"></line><line x1="192.85714285714286" y1="0" x2="192.85714285714286" y2="177.984375" fill="rgb(0, 0, 0)" stroke="rgb(60, 60, 60)" stroke-width="1px" opacity="0.25"></line><line x1="231.42857142857142" y1="0" x2="231.42857142857142" y2="177.984375" fill="rgb(0, 0, 0)" stroke="rgb(60, 60, 60)" stroke-width="1px" opacity="0.25"></line><line x1="270" y1="0" x2="270" y2="177.984375" fill="rgb(0, 0, 0)" stroke="rgb(60, 60, 60)" stroke-width="1px" opacity="0.25"></line></g><g><line x1="0" y1="177.984375" x2="270" y2="177.984375" fill="rgb(0, 0, 0)" stroke="rgb(60, 60, 60)" stroke-width="1px" opacity="0.25"></line><line x1="0" y1="161.80397727272725" x2="270" y2="161.80397727272725" fill="rgb(0, 0, 0)" stroke="rgb(60, 60, 60)" stroke-width="1px" opacity="0.25"></line><line x1="0" y1="145.6235795454545" x2="270" y2="145.6235795454545" fill="rgb(0, 0, 0)" stroke="rgb(60, 60, 60)" stroke-width="1px" opacity="0.25"></line><line x1="0" y1="129.44318181818176" x2="270" y2="129.44318181818176" fill="rgb(0, 0, 0)" stroke="rgb(60, 60, 60)" stroke-width="1px" opacity="0.25"></line><line x1="0" y1="113.26278409090901" x2="270" y2="113.26278409090901" fill="rgb(0, 0, 0)" stroke="rgb(60, 60, 60)" stroke-width="1px" opacity="0.25"></line><line x1="0" y1="97.08238636363626" x2="270" y2="97.08238636363626" fill="rgb(0, 0, 0)" stroke="rgb(60, 60, 60)" stroke-width="1px" opacity="0.25"></line><line x1="0" y1="80.9019886363635" x2="270" y2="80.9019886363635" fill="rgb(0, 0, 0)" stroke="rgb(60, 60, 60)" stroke-width="1px" opacity="0.25"></line><line x1="0" y1="64.72159090909078" x2="270" y2="64.72159090909078" fill="rgb(0, 0, 0)" stroke="rgb(60, 60, 60)" stroke-width="1px" opacity="0.25"></line><line x1="0" y1="48.541193181818024" x2="270" y2="48.541193181818024" fill="rgb(0, 0, 0)" stroke="rgb(60, 60, 60)" stroke-width="1px" opacity="0.25"></line><line x1="0" y1="32.3607954545455" x2="270" y2="32.3607954545455" fill="rgb(0, 0, 0)" stroke="rgb(60, 60, 60)" stroke-width="1px" opacity="0.25"></line><line x1="0" y1="16.18039772727275" x2="270" y2="16.18039772727275" fill="rgb(0, 0, 0)" stroke="rgb(60, 60, 60)" stroke-width="1px" opacity="0.25"></line><line x1="0" y1="0" x2="270" y2="0" fill="rgb(0, 0, 0)" stroke="rgb(60, 60, 60)" stroke-width="1px" opacity="0.25"></line></g></g></g><g><g><line x1="0" y1="1941.6477272727282" x2="270" y2="1941.6477272727282" fill="rgb(0, 0, 0)" stroke="rgb(153, 153, 153)" stroke-width="1.5px"></line></g></g><g><g><line x1="38.57142857142857" y1="0" x2="38.57142857142857" y2="177.984375" fill="rgb(0, 0, 0)" stroke="rgb(153, 153, 153)" stroke-width="1.5px"></line></g></g><g><g><g><g><g><path stroke="rgb(255, 112, 67)" stroke-width="2px" d="M48.44571428571429,-17.54648144370808L49.06285714285714,3.5491647658994006L49.68,13.781862853948294L50.29714285714285,24.09609447997299L50.91428571428572,35.901819571968836L51.53142857142857,44.20823933981712L52.14857142857143,52.825624557545474L52.76571428571428,57.897591906055645L53.38285714285714,58.27926878631522L54,59.277164844806315L54.61714285714286,63.09005007264163L55.23428571428571,68.0303881946726L55.85142857142857,71.20883663187368L56.46857142857142,76.0015189656594L57.08571428571429,77.72531253751028L57.70285714285714,79.50865893517523L58.32,83.34536636640456L58.93714285714285,86.18057411208417L59.55428571428572,88.51547182869727L60.17142857142857,90.78010291533595L60.78857142857143,91.8660934136533L61.40571428571428,95.27710584715487L62.02285714285714,97.30408721252823L62.64,99.15077008868387L63.25714285714286,100.98807940405113L63.87428571428571,100.61614565248162L64.49142857142857,100.54912611014876L65.10857142857142,98.60561797847429L65.72571428571429,99.83490831062431L66.34285714285714,101.63981371459789L66.96,102.90623916681452L67.57714285714286,104.64865252194176L68.19428571428571,105.29762465331085L68.81142857142856,107.96623792768577L69.42857142857142,109.40962565818667L70.0457142857143,109.43824645493362L70.66285714285715,109.45064502002994L71.28,111.23045961895728L71.89714285714285,112.45699659659492L72.51428571428572,111.42903027966675L73.13142857142857,110.07012402161816L73.74857142857142,111.70307429068795L74.36571428571428,112.67835986723601L74.98285714285714,113.93178258366815L75.60000000000001,114.30182673473344L76.21714285714286,115.027187603011L76.83428571428571,113.72764131160551L77.45142857142858,115.21378622030765L78.06857142857143,117.11247947020605L78.68571428571428,116.39772944801817L79.30285714285714,117.66472762332252L79.92,116.87326015528768L80.53714285714285,117.96494644265366L81.1542857142857,119.21370761072936L81.77142857142857,119.5545777581912L82.38857142857144,120.37869588214217L83.00571428571429,119.07200315490815L83.62285714285714,120.623588264009L84.24,121.71164446477748L84.85714285714286,123.1534757984707L85.47428571428571,124.93164572731104L86.09142857142857,124.42600146990345L86.70857142857142,124.38855562178898L87.3257142857143,125.40964619554823L87.94285714285715,125.99573057984246L88.56,127.03058119723421L89.17714285714285,128.630191944039L89.79428571428572,129.4234018735972L90.41142857142857,129.7527831701284L91.02857142857142,130.8587091637201L91.64571428571428,131.00538018486986L92.26285714285714,131.45798437155142L92.88,132.78612472878285L93.49714285714286,134.15120102701815L94.11428571428571,133.8508847722253L94.73142857142858,134.66526021754754L95.34857142857143,134.50550130753007L95.96571428571428,134.26300485763008L96.58285714285714,134.85259313951215L97.2,136.73795240319484L97.81714285714285,136.99621699010837L98.4342857142857,137.28648483055463L99.05142857142857,138.39941863923525L99.66857142857144,139.34232990727583L100.28571428571429,140.66944345182645L100.90285714285714,140.55726969885487L101.52,140.71289271549693L102.13714285714286,141.82474950978008L102.75428571428571,140.74547943032854L103.37142857142857,141.4313821790584L103.98857142857142,142.02061947704118L104.6057142857143,142.46857924531315L105.22285714285715,142.80500965042515L105.84,143.69151452059631L106.45714285714286,142.90596213215508L107.07428571428572,143.7517484602336L107.69142857142857,144.68911352941691L108.30857142857143,144.54441479801173L108.92571428571428,144.72512756981587L109.54285714285714,145.21995285390003L110.16,144.39097610931904L110.77714285714286,144.89326672312043L111.39428571428572,145.40372883440196L112.01142857142858,145.1765816055359L112.62857142857143,144.97476046315705L113.24571428571429,146.12675945276595L113.86285714285714,146.1902616254432L114.47999999999999,146.26158743433717L115.09714285714286,146.4742184895185L115.71428571428571,146.3684058227836L116.33142857142857,147.07332532253824L116.94857142857144,146.69898533817275L117.5657142857143,144.69298849655547L118.18285714285715,145.73988046673185L118.8,146.09378087152123L119.41714285714285,146.86924995728245L120.03428571428572,146.19660415797196L120.65142857142857,145.9722554101043L121.26857142857142,146.19159081858476L121.88571428571427,146.75380865615347L122.50285714285715,147.35765872114035L123.12,148.0470059079713L123.73714285714286,148.32535335311522L124.35428571428571,148.09130491094507L124.97142857142858,147.83967742881663L125.58857142857143,148.35622898989857L126.20571428571428,149.03056861516748L126.82285714285713,148.887329713154L127.44,148.14581721463676L128.05714285714285,148.1690907341596L128.67428571428573,147.21747067478398L129.29142857142858,147.42999901929522L129.90857142857143,146.0325642767747L130.5257142857143,147.166597464343L131.14285714285714,148.5850932519684L131.76,148.79190536148326L132.37714285714284,149.3222574414863L132.9942857142857,148.08841654552714L133.61142857142858,148.96521474354282L134.22857142857143,147.38995220092798L134.84571428571428,148.37692744439656L135.46285714285713,147.85544067521084L136.08,148.94791143242793L136.69714285714286,149.5891685905901L137.31428571428572,150.46664856767825L137.93142857142857,150.3592187796034L138.54857142857142,150.52892374808926L139.1657142857143,150.98787399501617L139.78285714285713,150.71901806671835L140.4,150.52944680277517L141.01714285714286,150.95332379688026L141.6342857142857,149.97332827803297L142.25142857142856,149.92025032399033L142.8685714285714,149.49940197804432L143.4857142857143,150.1562510556944L144.10285714285715,149.80500320441558L144.72,148.9103794080316L145.33714285714285,147.98195138281864L145.95428571428573,148.09541234131245L146.57142857142856,148.75530945834737L147.18857142857144,149.95803901734664L147.80571428571426,150.50236687474487L148.42285714285714,150.33064423121135L149.04000000000002,150.68166281024227L149.65714285714284,150.84120755548398L150.27428571428572,151.35573676608834L150.89142857142858,151.5543167451694L151.50857142857143,151.89605445164264L152.12571428571428,151.8095508360935L152.74285714285713,152.01206447213104L153.35999999999999,151.86719795533668L153.97714285714287,152.2599357435135L154.59428571428572,152.78625667167972L155.21142857142857,152.54639469384787L155.82857142857145,153.06113283040636L156.44571428571427,152.94104686686396L157.06285714285715,151.60434234871738L157.67999999999998,150.83954651458131L158.29714285714286,151.48778282672646L158.9142857142857,151.13503213820843L159.53142857142856,151.74145680812444L160.14857142857144,152.51808630566518L160.7657142857143,152.4386806155051L161.38285714285715,152.8527083387449L162,153.50497871983578L162.61714285714285,153.24858364873774L163.2342857142857,153.47786517576066L163.85142857142858,153.18853054290057L164.4685714285714,153.1423305512398L165.0857142857143,153.3306421726276L165.70285714285717,153.97912715884172L166.32,153.49994464953974L166.93714285714287,154.02019085959535L167.5542857142857,154.02053938216L168.17142857142858,154.47557220233648L168.78857142857143,154.9151484129672L169.40571428571428,154.7730633171379L170.02285714285713,153.72758065761772L170.64000000000001,153.87284519719424L171.25714285714284,154.1309968030158L171.87428571428572,154.34958816053646L172.49142857142857,154.75902834517225L173.10857142857142,154.83384423790716L173.7257142857143,155.0528610429151L174.34285714285713,155.16855096812034L174.96,154.41911829872956L175.57714285714286,154.7141891175057L176.1942857142857,155.07182053809254L176.81142857142856,155.02426817020722L177.42857142857142,155.329428442641L178.0457142857143,155.38579891684714L178.66285714285715,154.0716417807442L179.28,154.195205979505L179.89714285714285,153.59087020355446L180.51428571428573,153.6946173455852L181.13142857142856,153.4962774935401L181.74857142857144,154.14307672958967L182.36571428571426,154.42608196494675L182.98285714285714,153.49354520648546L183.60000000000002,152.82716465544726L184.21714285714285,153.7312896593441L184.83428571428573,153.8686571596188L185.45142857142855,154.55567685760195L186.06857142857143,155.07296298266454L186.68571428571428,155.41164058600953L187.30285714285714,154.0049293925238L187.92,153.73449555073856L188.53714285714287,154.7898241549764L189.15428571428572,154.78336520338124L189.77142857142857,154.96731196318683L190.38857142857145,155.43292665253094L191.00571428571428,155.513237762469L191.62285714285716,154.95986317521871L192.23999999999998,155.61184314696177L192.85714285714286,155.35320031250882L193.4742857142857,155.5987339716927L194.09142857142857,155.64990080937477L194.70857142857145,155.77598272832537L195.32571428571427,154.79563269058838L195.94285714285715,154.8361325372361L196.56,155.04049093977366L197.17714285714285,155.39018028521448L197.7942857142857,155.24166109306998L198.4114285714286,155.32532664954783L199.0285714285714,154.39721137780845L199.6457142857143,153.89430189751795L200.26285714285711,154.67903128719095L200.88,154.7471724860783L201.49714285714288,155.18163980651067L202.1142857142857,155.4537968783907L202.73142857142858,155.71078519085668L203.34857142857143,155.72267699531176L203.96571428571428,155.31018995169532L204.58285714285714,155.73326372049002L205.2,154.12750011251538L205.81714285714284,154.990618197066L206.43428571428572,155.33522976260238L207.05142857142857,155.9336022279639L207.66857142857143,156.4564818305007L208.2857142857143,157.15159219335874L208.90285714285713,156.65819123496772L209.52,156.6372052000798L210.13714285714283,157.09800250281776L210.75428571428571,155.49211254134008L211.37142857142857,155.78242992365577L211.98857142857142,156.20549070397362L212.6057142857143,156.02191137032904L213.22285714285715,155.75856456361257L213.84,156.51468847775183L214.45714285714286,156.75633358131535L215.0742857142857,156.5914020723593L215.69142857142856,155.1160131540227L216.30857142857144,154.70055212597066L216.92571428571426,155.56547785917874L217.54285714285714,155.98152895326345L218.16000000000003,156.32036909415876L218.77714285714285,156.3796360273252L219.39428571428573,156.2801764269849L220.01142857142855,155.12143981842567L220.62857142857143,155.15636542813178L221.24571428571429,155.96897058104972L221.86285714285714,156.73168465563276L222.48,157.25778740736163L223.09714285714287,157.06886092584412L223.71428571428572,156.63044496415534L224.33142857142857,157.01225940631764L224.94857142857143,157.29574174645487L225.56571428571428,156.11847860736873L226.18285714285716,156.98283452759708L226.79999999999998,157.68893266109626L227.41714285714286,158.04001842006642L228.03428571428572,158.3544904268048L228.65142857142857,158.53569932269173L229.26857142857142,158.61582940385858L229.88571428571427,158.1717122051404L230.50285714285715,155.62475813545248L231.12,155.4703153113979L231.73714285714286,156.68763061935286L232.3542857142857,157.26747277145782L232.9714285714286,157.41906897560014L233.5885714285714,157.6331357866187L234.2057142857143,157.86264780803856L234.82285714285712,157.66188941477387L235.44,157.89880275136505L236.05714285714288,157.92073494536305L236.6742857142857,157.96750453779296L237.29142857142858,157.96065404096038L237.90857142857143,156.66536906422084L238.5257142857143,157.44338460942973L239.14285714285714,157.9347868214558L239.76,156.05629222223348L240.37714285714284,156.96572743920896L240.99428571428572,157.10165181840836L241.61142857142858,157.14882462840978L242.22857142857143,157.15928641752143L242.8457142857143,156.26700698658993L243.46285714285713,156.6800567010326L244.08,156.46057349523835L244.69714285714284,155.88370413371263L245.31428571428572,156.39235404180343L245.93142857142857,156.7259945789944L246.54857142857142,156.95892119316707L247.1657142857143,156.20065109204464L247.78285714285715,156.53082893716797L248.4,157.2718115230934L249.01714285714286,157.21948013562186L249.6342857142857,157.72878722155784L250.25142857142856,157.91512009202162" style="fill: none;" fill="none"></path></g></g></g></g><g opacity="0.20000000298023224"><g><g><g><path stroke="rgb(255, 112, 67)" stroke-width="2px" d="M47.82857142857142,-3.6620059372349902L48.44571428571429,15.747205150652272L49.06285714285714,35.18727789802302L49.68,29.129351137459892L50.29714285714285,39.566499157385344L50.91428571428572,53.60975975594055L51.53142857142857,56.66759566530919L52.14857142857143,65.75153224889861L52.76571428571428,65.5054828465323L53.38285714285714,58.85178139390927L54,60.77400467697187L54.61714285714286,68.80936815826725L55.23428571428571,75.44088779313655L55.85142857142857,75.97650635987516L56.46857142857142,83.19053981749506L57.08571428571429,80.3110023236579L57.70285714285714,82.18367817684666L58.32,89.10042705522339L58.93714285714285,90.43338552752337L59.55428571428572,92.01781830327074L60.17142857142857,94.17704948689784L60.78857142857143,93.49507914432745L61.40571428571428,100.39362446574322L62.02285714285714,100.34455924929878L62.64,101.92079439674586L63.25714285714286,103.7440433734181L63.87428571428571,100.05824502557512L64.49142857142857,100.44859679669815L65.10857142857142,95.69035578180439L65.72571428571429,101.67884380852969L66.34285714285714,104.34717182027681L66.96,104.80587734502143L67.57714285714286,107.26227255453438L68.19428571428571,106.27108285034241L68.81142857142856,111.9691578391939L69.42857142857142,111.57470725392074L70.0457142857143,109.48117765005335L70.66285714285715,109.46924286767498L71.28,113.9001815173436L71.89714285714285,114.29680206304921L72.51428571428572,109.88708080427548L73.13142857142857,108.03176463454619L73.74857142857142,114.1524996942925L74.36571428571428,114.14128823205824L74.98285714285714,115.81191665831611L75.60000000000001,114.85689296133137L76.21714285714286,116.11522890542716L76.83428571428571,111.77832187449725L77.45142857142858,117.44300358336076L78.06857142857143,119.96051934505387L78.68571428571428,115.32560441473665L79.30285714285714,119.56522488627918L79.92,115.68605895323506L80.53714285714285,119.6024758737026L81.1542857142857,121.0868493628434L81.77142857142857,120.06588297938417L82.38857142857144,121.61487306806848L83.00571428571429,117.11196406405755L83.62285714285714,122.95096592765978L84.24,123.34372876592994L84.85714285714286,125.31622279901053L85.47428571428571,127.59890062057158L86.09142857142857,123.66753508379172L86.70857142857142,124.3323868496174L87.3257142857143,126.94128205618735L87.94285714285715,126.87485715628347L88.56,128.5828571233221L89.17714285714285,131.02960806424642L89.79428571428572,130.6132167679342L90.41142857142857,130.2468551149253L91.02857142857142,132.51759815410793L91.64571428571428,131.22538671659473L92.26285714285714,132.13689065157348L92.88,134.77833526462993L93.49714285714286,136.19881547437132L94.11428571428571,133.40041039003566L94.73142857142858,135.88682338553056L95.34857142857143,134.26586294250393L95.96571428571428,133.89926018278027L96.58285714285714,135.7369755623354L97.2,139.56599129871887L97.81714285714285,137.38361387047914L98.4342857142857,137.7218865912238L99.05142857142857,140.0688193522563L99.66857142857144,140.7566968093372L100.28571428571429,142.66011376865205L100.90285714285714,140.38900906939736L101.52,140.94632724046028L102.13714285714286,143.49253470120442L102.75428571428571,139.12657431115142L103.37142857142857,142.46023630215362L103.98857142857142,142.90447542401537L104.6057142857143,143.14051889772102L105.22285714285715,143.30965525809336L105.84,145.0212718258527L106.45714285714286,141.72763354949313L107.07428571428572,145.0204279523512L107.69142857142857,146.0951611331918L108.30857142857143,144.32736670090392L108.92571428571428,144.99619672752237L109.54285714285714,145.96219078002665L110.16,143.14751099244774L110.77714285714286,145.64670264382252L111.39428571428572,146.1694220013239L112.01142857142858,144.83586076223713L112.62857142857143,144.67202874958852L113.24571428571429,147.85475793717936L113.86285714285714,146.28551488445902L114.47999999999999,146.3685761476782L115.09714285714286,146.79316507229072L115.71428571428571,146.20968682268125L116.33142857142857,148.1307045721703L116.94857142857144,146.1374753616242L117.5657142857143,141.6839932341298L118.18285714285715,147.3102184219963L118.8,146.62463147870517L119.41714285714285,148.03245358592406L120.03428571428572,145.1876354590058L120.65142857142857,145.63573228830302L121.26857142857142,146.5205939313058L121.88571428571427,147.59713541250673L122.50285714285715,148.26343381862068L123.12,149.0810266882181L123.73714285714286,148.74287452083078L124.35428571428571,147.7402322476899L124.97142857142858,147.4622362056239L125.58857142857143,149.1310563315214L126.20571428571428,150.04207805307072L126.82285714285713,148.67247136013413L127.44,147.03354846686122L128.05714285714285,148.20400101344353L128.67428571428573,145.7900405857204L129.29142857142858,147.74879153606227L129.90857142857143,143.9364121629941L130.5257142857143,148.86764724569562L131.14285714285714,150.7128369334069L131.76,149.10212352575564L132.37714285714284,150.11778556149113L132.9942857142857,146.23765520158815L133.61142857142858,150.28041204056615L134.22857142857143,145.02705838700587L134.84571428571428,149.85739030959928L135.46285714285713,147.0732105214318L136.08,150.58661756825379L136.69714285714286,150.55105432783336L137.31428571428572,151.78286853331053L137.93142857142857,150.19807409749112L138.54857142857142,150.7834812008183L139.1657142857143,151.6762993654067L139.78285714285713,150.31573417427188L140.4,150.24508990686047L141.01714285714286,151.58913928803733L141.6342857142857,148.5033349997618L142.25142857142856,149.84063339292663L142.8685714285714,148.86812945912504L143.4857142857143,151.14152467216957L144.10285714285715,149.27813142749733L144.72,147.5684437134557L145.33714285714285,146.58930934499946L145.95428571428573,148.26560377905312L146.57142857142856,149.74515513389963L147.18857142857144,151.7621333558451L147.80571428571426,151.31885866084218L148.42285714285714,150.07306026591158L149.04000000000002,151.20819067878818L149.65714285714284,151.08052467334676L150.27428571428572,152.12753058199516L150.89142857142858,151.852186713791L151.50857142857143,152.40866101135245L152.12571428571428,151.67979541277003L152.74285714285713,152.3158349261873L153.35999999999999,151.6498981801454L153.97714285714287,152.84904242577875L154.59428571428572,153.57573806392872L155.21142857142857,152.18660172710025L155.82857142857145,153.833240035244L156.44571428571427,152.76091792155054L157.06285714285715,149.59928557149726L157.67999999999998,149.6923527633771L158.29714285714286,152.46013729494402L158.9142857142857,150.60590610543096L159.53142857142856,152.65109381299803L160.14857142857144,153.68303055197677L160.7657142857143,152.31957208026537L161.38285714285715,153.47374992360443L162,154.48338429147208L162.61714285714285,152.86399104209107L163.2342857142857,153.82178746629504L163.85142857142858,152.75452859361062L164.4685714285714,153.0730305637487L165.0857142857143,153.6131096047095L165.70285714285717,154.95185463816264L166.32,152.7811708855866L166.93714285714287,154.80056017467922L167.5542857142857,154.02106216600671L168.17142857142858,155.15812143260104L168.78857142857143,155.57451272891325L169.40571428571428,154.55993567339397L170.02285714285713,152.1593566683375L170.64000000000001,154.09074200655925L171.25714285714284,154.51822421174833L171.87428571428572,154.67747519681737L172.49142857142857,155.37318862212652L173.10857142857142,154.9460680770095L173.7257142857143,155.38138625042683L174.34285714285713,155.3420858559283L174.96,153.29496929464352L175.57714285714286,155.1567953456701L176.1942857142857,155.6082676689733L176.81142857142856,154.95293961837885L177.42857142857142,155.7871688512916L178.0457142857143,155.4703546281565L178.66285714285715,152.10040607658976L179.28,154.38055227764627L179.89714285714285,152.68436653962866L180.51428571428573,153.85023805863136L181.13142857142856,153.19876771547237L181.74857142857144,155.11327558366412L182.36571428571426,154.8505898179825L182.98285714285714,152.09474006879395L183.60000000000002,151.82759382889012L184.21714285714285,155.08747716518963L184.83428571428573,154.07470841003072L185.45142857142855,155.5862064045769L186.06857142857143,155.84889217025855L186.68571428571428,155.91965699102727L187.30285714285714,151.89486260229552L187.92,153.32884478806093L188.53714285714287,156.37281706133348L189.15428571428572,154.77367677598852L189.77142857142857,155.24323210289532L190.38857142857145,156.13134868654677L191.00571428571428,155.6337044273757L191.62285714285716,154.12980129434303L192.23999999999998,156.58981310457668L192.85714285714286,154.9652360608293L193.4742857142857,155.9670344604687L194.09142857142857,155.72665106589818L194.70857142857145,155.965105606751L195.32571428571427,153.32510763398284L195.94285714285715,154.8968823072077L196.56,155.34702854357997L197.17714285714285,155.91471430337563L197.7942857142857,155.01888230485332L198.4114285714286,155.4508249842646L199.0285714285714,153.00503847019917L199.6457142857143,153.139937677082L200.26285714285711,155.8561253717L200.88,154.84938428440893L201.49714285714288,155.83334078715944L202.1142857142857,155.86203248621047L202.73142857142858,156.09626765955576L203.34857142857143,155.7405147019943L203.96571428571428,154.69145938627082L204.58285714285714,156.36787437368181L205.2,151.7188547005538L205.81714285714284,156.28529532389206L206.43428571428572,155.8521471109072L207.05142857142857,156.83116092600605L207.66857142857143,157.24080123430625L208.2857142857143,158.19425773764536L208.90285714285713,155.91808979738164L209.52,156.60572614774784L210.13714285714283,157.78919845692474L210.75428571428571,153.08327759912407L211.37142857142857,156.21790599712932L211.98857142857142,156.8400818744505L212.6057142857143,155.74654236986214L213.22285714285715,155.36354435353792L213.84,157.6488743489608L214.45714285714286,157.11880123666063L215.0742857142857,156.34400480892506L215.69142857142856,152.9029297765175L216.30857142857144,154.07736058389258L216.92571428571426,156.86286645899102L217.54285714285714,156.60560559439048L218.16000000000003,156.82862930550152L218.77714285714285,156.4685364270752L219.39428571428573,156.13098702647468L220.01142857142855,153.38333490558645L220.62857142857143,155.20875384269112L221.24571428571429,157.18787831042638L221.86285714285714,157.87575576750731L222.48,158.0469415349547L223.09714285714287,156.78547120356762L223.71428571428572,155.97282102162188L224.33142857142857,157.58498106956142L224.94857142857143,157.7209652566605L225.56571428571428,154.35258389873937L226.18285714285716,158.27936840793961L226.79999999999998,158.74807986134493L227.41714285714286,158.56664705852216L228.03428571428572,158.82619843691248L228.65142857142857,158.8075126665221L229.26857142857142,158.7360245256092L229.88571428571427,157.50553640706295L230.50285714285715,151.80432703092015L231.12,155.23865107531572L231.73714285714286,158.51360358128494L232.3542857142857,158.13723599961534L232.9714285714286,157.64646328181365L233.5885714285714,157.95423600314692L234.2057142857143,158.20691584016788L234.82285714285712,157.3607518248768L235.44,158.25417275625193L236.05714285714288,157.95363323636013L236.6742857142857,158.03765892643818L237.29142857142858,157.9503782957115L237.90857142857143,154.72244159911165L238.5257142857143,158.61040792724287L239.14285714285714,158.67189013949508L239.76,153.2385503234003L240.37714285714284,158.32988026467234L240.99428571428572,157.30553838720715L241.61142857142858,157.21958384341136L242.22857142857143,157.17497910118917L242.8457142857143,154.92858784019268L243.46285714285713,157.29963127269664L244.08,156.13134868654677L244.69714285714284,155.0184000914239L245.31428571428572,157.1553289039399L245.93142857142857,157.2264553847807L246.54857142857142,157.30831111442635L247.1657142857143,155.06324594036082L247.78285714285715,157.02609570485285L248.4,158.38328540198165L249.01714285714286,157.14098305441436L249.6342857142857,158.4927478504621L250.25142857142856,158.19461939771742" style="fill: none;" fill="none"></path></g></g></g></g></g></g><g transform="translate(60, 177)" clip-path="url(#clip_1)"><clipPath id="clip_1"><rect width="270" height="22"></rect></clipPath><g><g><line x1="0" y1="0" x2="0" y2="5" style="visibility: inherit;" fill="rgb(0, 0, 0)" stroke="rgb(204, 204, 204)" stroke-width="1px"></line><line x1="38.57142857142857" y1="0" x2="38.57142857142857" y2="5" style="visibility: inherit;" fill="rgb(0, 0, 0)" stroke="rgb(204, 204, 204)" stroke-width="1px"></line><line x1="77.14285714285714" y1="0" x2="77.14285714285714" y2="5" style="visibility: inherit;" fill="rgb(0, 0, 0)" stroke="rgb(204, 204, 204)" stroke-width="1px"></line><line x1="115.71428571428571" y1="0" x2="115.71428571428571" y2="5" style="visibility: inherit;" fill="rgb(0, 0, 0)" stroke="rgb(204, 204, 204)" stroke-width="1px"></line><line x1="154.28571428571428" y1="0" x2="154.28571428571428" y2="5" style="visibility: inherit;" fill="rgb(0, 0, 0)" stroke="rgb(204, 204, 204)" stroke-width="1px"></line><line x1="192.85714285714286" y1="0" x2="192.85714285714286" y2="5" style="visibility: inherit;" fill="rgb(0, 0, 0)" stroke="rgb(204, 204, 204)" stroke-width="1px"></line><line x1="231.42857142857142" y1="0" x2="231.42857142857142" y2="5" style="visibility: inherit;" fill="rgb(0, 0, 0)" stroke="rgb(204, 204, 204)" stroke-width="1px"></line><line x1="270" y1="0" x2="270" y2="5" style="visibility: inherit;" fill="rgb(0, 0, 0)" stroke="rgb(204, 204, 204)" stroke-width="1px"></line></g><g transform="translate(0, 8)"><text x="0" y="0" dx="0em" dy="0.95em" style="text-anchor: middle; visibility: hidden; font-family: Roboto, sans-serif; font-size: 12px; font-weight: 200;" fill="rgb(50, 49, 63)" stroke="none" stroke-width="1px">-50k</text><text x="38.57142857142857" y="0" dx="0em" dy="0.95em" style="text-anchor: middle; visibility: inherit; font-family: Roboto, sans-serif; font-size: 12px; font-weight: 200;" fill="rgb(50, 49, 63)" stroke="none" stroke-width="1px">0</text><text x="77.14285714285714" y="0" dx="0em" dy="0.95em" style="text-anchor: middle; visibility: inherit; font-family: Roboto, sans-serif; font-size: 12px; font-weight: 200;" fill="rgb(50, 49, 63)" stroke="none" stroke-width="1px">50k</text><text x="115.71428571428571" y="0" dx="0em" dy="0.95em" style="text-anchor: middle; visibility: inherit; font-family: Roboto, sans-serif; font-size: 12px; font-weight: 200;" fill="rgb(50, 49, 63)" stroke="none" stroke-width="1px">100k</text><text x="154.28571428571428" y="0" dx="0em" dy="0.95em" style="text-anchor: middle; visibility: inherit; font-family: Roboto, sans-serif; font-size: 12px; font-weight: 200;" fill="rgb(50, 49, 63)" stroke="none" stroke-width="1px">150k</text><text x="192.85714285714286" y="0" dx="0em" dy="0.95em" style="text-anchor: middle; visibility: inherit; font-family: Roboto, sans-serif; font-size: 12px; font-weight: 200;" fill="rgb(50, 49, 63)" stroke="none" stroke-width="1px">200k</text><text x="231.42857142857142" y="0" dx="0em" dy="0.95em" style="text-anchor: middle; visibility: inherit; font-family: Roboto, sans-serif; font-size: 12px; font-weight: 200;" fill="rgb(50, 49, 63)" stroke="none" stroke-width="1px">250k</text><text x="270" y="0" dx="0em" dy="0.95em" style="text-anchor: middle; visibility: hidden; font-family: Roboto, sans-serif; font-size: 12px; font-weight: 200;" fill="rgb(50, 49, 63)" stroke="none" stroke-width="1px">300k</text></g><line x1="0" y1="0" x2="270" y2="0" fill="rgb(0, 0, 0)" stroke="rgb(204, 204, 204)" stroke-width="1px"></line></g></g></g></g></svg>