<svg viewBox="0 0 330 200" xmlns="http://www.w3.org/2000/svg"><g><g><g><g><g><line x1="60" y1="177.984375" x2="55" y2="177.984375" style="visibility: inherit;" fill="rgb(0, 0, 0)" stroke="rgb(204, 204, 204)" stroke-width="1px"></line><line x1="60" y1="164.29326923076923" x2="55" y2="164.29326923076923" style="visibility: inherit;" fill="rgb(0, 0, 0)" stroke="rgb(204, 204, 204)" stroke-width="1px"></line><line x1="60" y1="150.60216346153845" x2="55" y2="150.60216346153845" style="visibility: inherit;" fill="rgb(0, 0, 0)" stroke="rgb(204, 204, 204)" stroke-width="1px"></line><line x1="60" y1="136.9110576923077" x2="55" y2="136.9110576923077" style="visibility: inherit;" fill="rgb(0, 0, 0)" stroke="rgb(204, 204, 204)" stroke-width="1px"></line><line x1="60" y1="123.21995192307692" x2="55" y2="123.21995192307692" style="visibility: inherit;" fill="rgb(0, 0, 0)" stroke="rgb(204, 204, 204)" stroke-width="1px"></line><line x1="60" y1="109.52884615384612" x2="55" y2="109.52884615384612" style="visibility: inherit;" fill="rgb(0, 0, 0)" stroke="rgb(204, 204, 204)" stroke-width="1px"></line><line x1="60" y1="95.8377403846154" x2="55" y2="95.8377403846154" style="visibility: inherit;" fill="rgb(0, 0, 0)" stroke="rgb(204, 204, 204)" stroke-width="1px"></line><line x1="60" y1="82.1466346153846" x2="55" y2="82.1466346153846" style="visibility: inherit;" fill="rgb(0, 0, 0)" stroke="rgb(204, 204, 204)" stroke-width="1px"></line><line x1="60" y1="68.45552884615383" x2="55" y2="68.45552884615383" style="visibility: inherit;" fill="rgb(0, 0, 0)" stroke="rgb(204, 204, 204)" stroke-width="1px"></line><line x1="60" y1="54.76442307692308" x2="55" y2="54.76442307692308" style="visibility: inherit;" fill="rgb(0, 0, 0)" stroke="rgb(204, 204, 204)" stroke-width="1px"></line><line x1="60" y1="41.0733173076923" x2="55" y2="41.0733173076923" style="visibility: inherit;" fill="rgb(0, 0, 0)" stroke="rgb(204, 204, 204)" stroke-width="1px"></line><line x1="60" y1="27.38221153846152" x2="55" y2="27.38221153846152" style="visibility: inherit;" fill="rgb(0, 0, 0)" stroke="rgb(204, 204, 204)" stroke-width="1px"></line><line x1="60" y1="13.69110576923078" x2="55" y2="13.69110576923078" style="visibility: inherit;" fill="rgb(0, 0, 0)" stroke="rgb(204, 204, 204)" stroke-width="1px"></line><line x1="60" y1="0" x2="55" y2="0" style="visibility: inherit;" fill="rgb(0, 0, 0)" stroke="rgb(204, 204, 204)" stroke-width="1px"></line></g><g transform="translate(50, 0)"><text x="0" y="177.984375" dx="0em" dy="0.3em" style="text-anchor: end; visibility: hidden; font-family: Roboto, sans-serif; font-size: 12px; font-weight: 200;" fill="rgb(50, 49, 63)" stroke="none" stroke-width="1px">0.06</text><text x="0" y="164.29326923076923" dx="0em" dy="0.3em" style="text-anchor: end; visibility: inherit; font-family: Roboto, sans-serif; font-size: 12px; font-weight: 200;" fill="rgb(50, 49, 63)" stroke="none" stroke-width="1px">0.065</text><text x="0" y="150.60216346153845" dx="0em" dy="0.3em" style="text-anchor: end; visibility: hidden; font-family: Roboto, sans-serif; font-size: 12px; font-weight: 200;" fill="rgb(50, 49, 63)" stroke="none" stroke-width="1px">0.07</text><text x="0" y="136.9110576923077" dx="0em" dy="0.3em" style="text-anchor: end; visibility: inherit; font-family: Roboto, sans-serif; font-size: 12px; font-weight: 200;" fill="rgb(50, 49, 63)" stroke="none" stroke-width="1px">0.075</text><text x="0" y="123.21995192307692" dx="0em" dy="0.3em" style="text-anchor: end; visibility: hidden; font-family: Roboto, sans-serif; font-size: 12px; font-weight: 200;" fill="rgb(50, 49, 63)" stroke="none" stroke-width="1px">0.08</text><text x="0" y="109.52884615384612" dx="0em" dy="0.3em" style="text-anchor: end; visibility: inherit; font-family: Roboto, sans-serif; font-size: 12px; font-weight: 200;" fill="rgb(50, 49, 63)" stroke="none" stroke-width="1px">0.085</text><text x="0" y="95.8377403846154" dx="0em" dy="0.3em" style="text-anchor: end; visibility: hidden; font-family: Roboto, sans-serif; font-size: 12px; font-weight: 200;" fill="rgb(50, 49, 63)" stroke="none" stroke-width="1px">0.09</text><text x="0" y="82.1466346153846" dx="0em" dy="0.3em" style="text-anchor: end; visibility: inherit; font-family: Roboto, sans-serif; font-size: 12px; font-weight: 200;" fill="rgb(50, 49, 63)" stroke="none" stroke-width="1px">0.095</text><text x="0" y="68.45552884615383" dx="0em" dy="0.3em" style="text-anchor: end; visibility: hidden; font-family: Roboto, sans-serif; font-size: 12px; font-weight: 200;" fill="rgb(50, 49, 63)" stroke="none" stroke-width="1px">0.1</text><text x="0" y="54.76442307692308" dx="0em" dy="0.3em" style="text-anchor: end; visibility: inherit; font-family: Roboto, sans-serif; font-size: 12px; font-weight: 200;" fill="rgb(50, 49, 63)" stroke="none" stroke-width="1px">0.105</text><text x="0" y="41.0733173076923" dx="0em" dy="0.3em" style="text-anchor: end; visibility: hidden; font-family: Roboto, sans-serif; font-size: 12px; font-weight: 200;" fill="rgb(50, 49, 63)" stroke="none" stroke-width="1px">0.11</text><text x="0" y="27.38221153846152" dx="0em" dy="0.3em" style="text-anchor: end; visibility: inherit; font-family: Roboto, sans-serif; font-size: 12px; font-weight: 200;" fill="rgb(50, 49, 63)" stroke="none" stroke-width="1px">0.115</text><text x="0" y="13.69110576923078" dx="0em" dy="0.3em" style="text-anchor: end; visibility: hidden; font-family: Roboto, sans-serif; font-size: 12px; font-weight: 200;" fill="rgb(50, 49, 63)" stroke="none" stroke-width="1px">0.12</text><text x="0" y="0" dx="0em" dy="0.3em" style="text-anchor: end; visibility: hidden; font-family: Roboto, sans-serif; font-size: 12px; font-weight: 200;" fill="rgb(50, 49, 63)" stroke="none" stroke-width="1px">0.125</text></g><line x1="60" y1="0" x2="60" y2="177.984375" fill="rgb(0, 0, 0)" stroke="rgb(204, 204, 204)" stroke-width="1px"></line></g></g><g transform="translate(60, 0)" clip-path="url(#clip_0)"><clipPath id="clip_0"><rect width="270" height="177"></rect></clipPath><g><g><g><line x1="0" y1="0" x2="0" y2="177.984375" fill="rgb(0, 0, 0)" stroke="rgb(60, 60, 60)" stroke-width="1px" opacity="0.25"></line><line x1="38.57142857142857" y1="0" x2="38.57142857142857" y2="177.984375" fill="rgb(0, 0, 0)" stroke="rgb(60, 60, 60)" stroke-width="1px" opacity="0.25"></line><line x1="77.14285714285714" y1="0" x2="77.14285714285714" y2="177.984375" fill="rgb(0, 0, 0)" stroke="rgb(60, 60, 60)" stroke-width="1px" opacity="0.25"></line><line x1="115.71428571428571" y1="0" x2="115.71428571428571" y2="177.984375" fill="rgb(0, 0, 0)" stroke="rgb(60, 60, 60)" stroke-width="1px" opacity="0.25"></line><line x1="154.28571428571428" y1="0" x2="154.28571428571428" y2="177.984375" fill="rgb(0, 0, 0)" stroke="rgb(60, 60, 60)" stroke-width="1px" opacity="0.25"></line><line x1="192.85714285714286" y1="0" x2="192.85714285714286" y2="177.984375" fill="rgb(0, 0, 0)" stroke="rgb(60, 60, 60)" stroke-width="1px" opacity="0.25"></line><line x1="231.42857142857142" y1="0" x2="231.42857142857142" y2="177.984375" fill="rgb(0, 0, 0)" stroke="rgb(60, 60, 60)" stroke-width="1px" opacity="0.25"></line><line x1="270" y1="0" x2="270" y2="177.984375" fill="rgb(0, 0, 0)" stroke="rgb(60, 60, 60)" stroke-width="1px" opacity="0.25"></line></g><g><line x1="0" y1="177.984375" x2="270" y2="177.984375" fill="rgb(0, 0, 0)" stroke="rgb(60, 60, 60)" stroke-width="1px" opacity="0.25"></line><line x1="0" y1="164.29326923076923" x2="270" y2="164.29326923076923" fill="rgb(0, 0, 0)" stroke="rgb(60, 60, 60)" stroke-width="1px" opacity="0.25"></line><line x1="0" y1="150.60216346153845" x2="270" y2="150.60216346153845" fill="rgb(0, 0, 0)" stroke="rgb(60, 60, 60)" stroke-width="1px" opacity="0.25"></line><line x1="0" y1="136.9110576923077" x2="270" y2="136.9110576923077" fill="rgb(0, 0, 0)" stroke="rgb(60, 60, 60)" stroke-width="1px" opacity="0.25"></line><line x1="0" y1="123.21995192307692" x2="270" y2="123.21995192307692" fill="rgb(0, 0, 0)" stroke="rgb(60, 60, 60)" stroke-width="1px" opacity="0.25"></line><line x1="0" y1="109.52884615384612" x2="270" y2="109.52884615384612" fill="rgb(0, 0, 0)" stroke="rgb(60, 60, 60)" stroke-width="1px" opacity="0.25"></line><line x1="0" y1="95.8377403846154" x2="270" y2="95.8377403846154" fill="rgb(0, 0, 0)" stroke="rgb(60, 60, 60)" stroke-width="1px" opacity="0.25"></line><line x1="0" y1="82.1466346153846" x2="270" y2="82.1466346153846" fill="rgb(0, 0, 0)" stroke="rgb(60, 60, 60)" stroke-width="1px" opacity="0.25"></line><line x1="0" y1="68.45552884615383" x2="270" y2="68.45552884615383" fill="rgb(0, 0, 0)" stroke="rgb(60, 60, 60)" stroke-width="1px" opacity="0.25"></line><line x1="0" y1="54.76442307692308" x2="270" y2="54.76442307692308" fill="rgb(0, 0, 0)" stroke="rgb(60, 60, 60)" stroke-width="1px" opacity="0.25"></line><line x1="0" y1="41.0733173076923" x2="270" y2="41.0733173076923" fill="rgb(0, 0, 0)" stroke="rgb(60, 60, 60)" stroke-width="1px" opacity="0.25"></line><line x1="0" y1="27.38221153846152" x2="270" y2="27.38221153846152" fill="rgb(0, 0, 0)" stroke="rgb(60, 60, 60)" stroke-width="1px" opacity="0.25"></line><line x1="0" y1="13.69110576923078" x2="270" y2="13.69110576923078" fill="rgb(0, 0, 0)" stroke="rgb(60, 60, 60)" stroke-width="1px" opacity="0.25"></line><line x1="0" y1="0" x2="270" y2="0" fill="rgb(0, 0, 0)" stroke="rgb(60, 60, 60)" stroke-width="1px" opacity="0.25"></line></g></g></g><g><g><line x1="0" y1="342.2776442307692" x2="270" y2="342.2776442307692" fill="rgb(0, 0, 0)" stroke="rgb(153, 153, 153)" stroke-width="1.5px"></line></g></g><g><g><line x1="38.57142857142857" y1="0" x2="38.57142857142857" y2="177.984375" fill="rgb(0, 0, 0)" stroke="rgb(153, 153, 153)" stroke-width="1.5px"></line></g></g><g><g><g><g><g><path stroke="rgb(255, 112, 67)" stroke-width="2px" d="M47.063314285714284,-7.141704154335665L47.31634285714286,7.658410072615319L47.5632,-3.9655346701149075L47.89028571428571,-4.978334630781932L47.9088,12.115203480356897L48.1248,33.499545931173266L48.14331428571428,22.09668390769938L48.22971428571429,14.307716277364527L48.612342857142856,-6.193185065728709L49.0752,-0.3502066233382065L49.130742857142856,18.793982950254826L49.970057142857144,31.710777335685236L50.29097142857143,38.860091704280634L50.35268571428571,49.26493224755752L50.544000000000004,51.61721176565925L50.66742857142857,46.07786830630762L50.6736,43.17290583465816L51.34628571428571,46.984396471902286L51.401828571428574,53.42554174397879L52.20411428571428,47.31371378202771L52.88297142857143,38.47865630191394L53.12982857142857,48.767132416005936L53.60502857142857,71.14696706935857L53.63588571428571,75.30818870909684L53.71611428571428,89.47777538071797L53.76548571428572,54.38826722158004L53.784,50.73650326117379L54.01851428571429,56.007723670687085L54.4752,64.78396550706101L54.48137142857143,55.07411705173388L54.610971428571425,61.609770014228864L54.83314285714286,46.12837193205159L54.88251428571429,39.34267925517472L55.13554285714286,48.993790742087704L55.19108571428571,78.49329249442278L55.283657142857145,75.61072892630264L55.3392,67.45937204648399L55.561371428571434,60.5379883256722L55.567542857142854,79.11323538032606L55.65394285714285,69.13814388692222L55.75885714285714,80.66908972308633L55.92548571428571,55.83759442613343L56.12297142857143,60.6526075029697L56.22788571428571,64.12451420069884L56.919085714285714,68.17680346561622L57.597942857142854,88.27080624892665L57.60411428571428,80.59998783138579L57.72754285714286,68.22075994097197L57.733714285714285,64.86112747604642L57.98057142857143,63.7401098527335L58.31382857142857,53.63055872507597L58.42491428571429,51.92247211154386L58.57302857142857,51.50327056651925L58.72114285714286,51.74983605129695L58.73965714285715,56.28213699668365L59.28274285714286,67.78683940106345L59.57897142857143,74.55004225106802L60.066514285714284,75.79854475107352L60.17142857142857,89.07911878516138L60.33188571428572,77.04400900970548L60.578742857142856,75.02703053564107L60.78857142857143,93.76070942083624L60.88731428571428,96.64529604363679L61.12182857142857,105.08894487773667L61.140342857142855,73.42184070648196L61.16502857142857,72.13188127332295L61.20822857142857,69.98762938569085L61.22674285714286,90.40039770057395L61.344,97.96946894701638L61.47977142857143,98.68064220358185L61.91177142857143,86.79879495692728L62.31908571428572,91.78242577317346L62.73257142857143,84.34864700589104L62.84365714285715,88.39555790910734L63.10285714285714,65.63658868292316L63.331199999999995,66.42175522973974L63.39908571428571,71.82896690203634L63.77554285714286,74.6289446163306L63.92982857142857,93.7101050896974L64.00388571428572,88.58801092427353L64.0224,83.06264423822688L64.15817142857142,96.07235407878085L64.37417142857143,96.0807480265664L64.44205714285715,89.99307187067576L64.65805714285715,91.77667998527559L64.84320000000001,112.15440127073157L65.21965714285714,87.30725040963728L65.28137142857143,89.93004945432735L66.05897142857143,113.08785421711445L66.55885714285714,110.66299317567815L66.58354285714286,87.01236808283305L66.73782857142857,102.79785759914667L67.03405714285715,108.86766080601568L67.2624,109.82417997259529L67.51542857142857,127.17402961033568L67.5648,126.37573024472997L67.62034285714286,116.17239603042066L67.76228571428571,114.64268758712501L68.05234285714285,105.60530160760663L68.39177142857143,122.7398290494693L68.41645714285715,126.87153345933883L68.46582857142856,110.24893078826932L68.70034285714286,110.97056630364399L68.87314285714287,79.71454193678495L69.91611428571429,92.97711332088753L69.97165714285714,92.19036548397798L69.984,86.40287073056477L70.2432,106.90876752948874L70.26788571428571,98.77067148828023L70.38514285714287,85.0795037994262L70.58262857142857,100.61257195859316L70.66285714285715,101.27845114818979L70.81714285714285,97.00172283245875L70.89737142857142,98.0803194850597L70.98994285714285,109.10569493520204L71.04548571428572,118.8361228207548L71.24914285714286,91.52305497445693L71.39725714285714,106.81222395637144L71.41577142857143,102.22352173150762L71.66262857142857,94.92826088558043L71.712,102.12488917139301L71.91565714285714,118.13279983032903L72.17485714285715,117.24996943811573L72.23039999999999,127.82388677446086L72.56982857142857,95.54724875770486L73.54491428571428,78.14096129444798L73.93371428571429,87.29747178272481L74.1065142857143,90.57691898799125L74.24845714285713,95.52758926027346L74.56320000000001,97.64985070422442L74.77302857142858,98.0386382231171L74.85325714285715,94.17137248582664L75.32845714285713,93.50681822888953L75.48274285714287,86.78939161606486L75.5814857142857,90.04676667829641L75.65554285714286,111.56950170589464L75.92708571428571,104.17690003740499L76.28502857142858,100.87917874679437L76.45165714285713,103.25640287833424L76.47634285714285,107.89344271335747L76.98857142857143,105.7185251715739L77.09965714285714,81.95991166844838L77.32182857142857,97.15759129249975L77.64891428571428,109.11888877795799L77.66125714285715,91.84484392838141L77.80937142857142,97.36525738098251L77.81554285714286,107.40929395139418L77.8464,121.75543840867056L77.87725714285713,113.66312888357754L78.85851428571429,121.5894666676766L79.00045714285714,103.5682288412376L79.08068571428572,103.43956045424068L79.11154285714285,111.51098000057463L79.21028571428572,98.38679006841802L79.24114285714286,95.6752915278817L79.2966857142857,122.94243933759485L79.39542857142857,139.76157858312962L79.75337142857144,123.01557609318235L80.10514285714285,94.45823288284059L80.22857142857143,90.83645692997946L80.54948571428572,103.6374425743069L80.79634285714286,114.09428875682487L80.84571428571428,114.51755403744055L81.25302857142857,100.57638505165706L81.27154285714285,113.50872953681723L81.33942857142857,120.74706158913969L81.71588571428572,126.8763774415788L81.74674285714286,101.28003079556927L81.75908571428572,108.60575989529515L82.10468571428571,117.16444115438611L82.49348571428571,125.20163406788441L82.512,126.58051416337203L82.54902857142858,132.31796266102504L82.78354285714285,125.11500574431889L83.04891428571429,126.1416217251945L83.3328,129.91451874443555L83.4624,111.37760826040584L83.67222857142858,116.90868198305851L83.85737142857144,101.71407547024411L83.94994285714286,119.75359705855423L84.03634285714286,137.90195321466933L84.46217142857142,138.88630529346068L84.63497142857143,123.01024635684078L84.65965714285714,105.30031255749354L84.672,119.69607032343853L84.74605714285714,122.3926473719014L84.89417142857144,132.6341246720185L84.96822857142857,125.26834776767006L85.05462857142858,122.8564058672558L85.12251428571429,129.50231254406947L85.43108571428571,123.99682047917584L85.49897142857142,127.71365808135214L85.7088,126.1061385093594L85.74582857142856,119.8201337584912L85.84457142857143,121.89681092888814L86.25805714285714,124.1833752043564L86.27657142857143,128.85772721761234L86.43702857142857,133.5787421344021L86.67154285714285,148.36271566988935L86.67771428571429,143.4772858760425L86.83817142857143,141.56867359872822L87.048,142.6714887976532L87.29485714285714,133.08370105794873L87.3318857142857,106.03047350746323L87.50468571428571,97.72022123901321L87.85645714285714,125.74248716736072L88.22674285714285,104.15832639513913L88.42422857142857,113.8205988599683L88.69577142857143,132.8543418827583L88.83154285714286,143.93293057927986L89.27588571428572,128.71596234622186L89.35611428571428,123.43322066324197L89.65234285714286,121.5786132200494L89.73874285714285,123.2189847545149L89.7696,127.45616828131419L90.26948571428571,138.75042364655695L90.39291428571428,139.57234059265662L90.97302857142857,152.7229782752467L91.3248,158.13201150124826L91.36182857142857,132.1520831045255L91.7568,144.20085489770054L92.00982857142857,148.81178585022164L92.03451428571428,153.1540621170783L92.22582857142856,146.59982310412363L92.41097142857143,134.42155691233484L92.58377142857142,128.27775904772423L92.73188571428571,132.5260827176402L92.74422857142856,130.76231579880502L93.02194285714285,139.00066764200884L93.08365714285715,139.91431668522247L93.31200000000001,140.29721447554448L93.3552,138.50198168379933L93.60205714285715,136.7232563366729L94.0217142857143,155.65560315046727L94.15131428571428,144.77080063122844L94.31794285714285,131.53201650666085L94.47222857142857,126.42694744871993L94.86102857142856,113.40460961752336L95.05234285714286,134.4132289712872L95.42262857142858,129.55480680684948L95.66948571428571,120.18428072306708L95.91017142857142,126.30898170228829L95.98422857142857,105.98636195025345L96.03977142857143,91.83622839766029L96.13234285714286,105.32672055094847L96.24342857142857,120.24505102895536L96.32982857142856,136.9976186635308L96.41005714285714,168.12110900484893L96.44091428571429,144.3219159356534L96.50262857142857,138.02066134485207L96.92845714285714,115.96779349148565L97.43451428571429,136.74858677191403L97.49005714285715,121.62476802181726L97.60731428571428,119.0310758440196L98.25531428571428,124.09955017538249L98.26148571428571,133.88541484470684L98.50834285714285,152.88357439632506L98.76137142857142,149.29446031620355L98.76754285714286,139.798305722206L98.87862857142856,145.6755483946057L99.13165714285714,133.913833557292L99.19954285714286,119.53477282296188L99.27977142857144,99.59190596527999L99.36,96.79675022219021L99.46491428571429,119.22892092645498L99.63154285714285,121.52475841394723L99.77348571428571,115.68178693207254L99.9648,138.23982240283854L99.97097142857142,146.06273436408972L99.97714285714285,127.97108465614345L100.03885714285715,127.32776393196747L100.11908571428572,109.4981465498119L100.15611428571428,102.91885122498584L100.2425142857143,110.21450003385165L100.6745142857143,101.26085573028256L100.84114285714287,109.03491558340512L101.03245714285714,132.74527300063585L101.13737142857143,134.81113156524626L101.46445714285714,124.84241307415769L101.56937142857143,112.71064390421907L101.61257142857143,132.00986536760308L101.94582857142856,125.36486722609712L102.01371428571427,138.2571351726443L102.39634285714286,131.21149850006714L102.41485714285714,132.26708361864917L102.42102857142858,122.61247274786957L102.72342857142858,111.03682473164999L103.032,106.34176056076522L103.06902857142856,111.44364805925932L103.0752,112.20620267629285L103.11222857142857,116.66526192447458L103.3776,126.54159432438561L103.48251428571427,120.29855908278118L103.74788571428572,126.67141774254597L103.96388571428571,126.63479187577882L104.19222857142857,132.4043235349226L104.25394285714286,137.56897480523764L104.26628571428571,123.13728804620196L104.6489142857143,144.83898323095977L104.71062857142857,129.33588677856685L104.75382857142857,132.5221690005803L105.04388571428571,129.3573593013226L105.48205714285714,139.45977238059896L106.59908571428572,131.37041193937733L106.62994285714285,120.56863070582136L106.67931428571428,123.51361636572146L106.79039999999999,123.06507148334717L107.03725714285714,121.27020197467112L107.18537142857143,126.59769258734323L107.2224,143.06966362183027L107.50628571428571,133.05278602455166L107.76548571428572,123.33533659458546L107.80251428571428,122.04232838750231L107.85188571428571,135.97249294533958L108.49988571428571,132.8170642768145L108.88868571428571,125.03043193859504L108.9504,114.07649720538895L108.98125714285715,119.64382161614077L109.19108571428572,130.71766962505558L109.30217142857143,128.49332121024946L110.02422857142857,137.16495611542027L110.22788571428572,141.70012784064107L110.75245714285715,139.0427365314084L110.99931428571429,131.3494688200872L111.12274285714287,130.5725257780711L111.1782857142857,151.30950663397937L111.3078857142857,131.2613208581429L111.51154285714286,113.55368080657826L111.68434285714285,124.74623802684813L111.80777142857143,94.18706819540257L111.86331428571428,106.18041480823226L112.35085714285714,108.4021605307874L112.45577142857142,102.96120501812361L112.79520000000001,118.79991361611336L113.0976,118.28314431944592L113.70857142857143,141.59044208500345L113.73325714285714,132.60291075287242L114.07885714285715,116.0454173195597L114.30102857142857,128.15367682080807L114.49234285714286,130.02548185640458L114.50468571428571,119.09595253510564L114.57874285714286,128.05995598057726L114.81325714285715,123.15748761081132L115.06011428571429,129.0560448130035L115.0848,113.74442498305476L115.09714285714286,109.37047131996201L115.22674285714287,124.40650868095732L115.23291428571427,110.63935575138426L115.3254857142857,131.77138503177196L115.39954285714286,134.27326486998774L115.56617142857144,146.8124058040503L115.57851428571428,136.01546489864148L115.59085714285715,127.77879483749281L116.04754285714286,128.07410989036813L116.3376,138.0895256218651L116.62765714285715,142.86787260960116L116.99794285714285,155.81444716290898L117.45462857142857,154.4717176894426L117.51017142857143,147.4575205265148L118.18902857142858,142.43883247850664L118.21371428571429,132.010272769432L118.45439999999999,133.94671390961153L118.62719999999999,145.89833183031223L118.65188571428571,145.91856037959212L118.78148571428572,134.9567528379946L118.86171428571429,141.0784807770017L118.9481142857143,150.04913282278667L119.09622857142857,136.29456361689154L119.36777142857143,135.0818013554886L119.96022857142856,148.0370190523174L120.41074285714286,151.15979537888737L120.67611428571428,146.01668231358522L120.95382857142857,155.73808860851716L121.19451428571429,162.66625570882013L121.37965714285716,153.05431784006723L121.608,152.71985989691706L122.02148571428572,147.28650322531948L122.19428571428571,138.42595488228073L122.24365714285715,130.84087474967183L122.64479999999999,122.8374144290396L122.76205714285715,140.4631976031735L122.79291428571429,147.71453887615144L123.74948571428571,133.7193675391335L124.03954285714286,135.45497250124566L124.29257142857143,138.8263395807052L124.45302857142858,140.94777989336737L124.79245714285715,140.85136343849302L124.848,141.981736418892L125.00845714285714,146.3752314397811L125.25531428571429,124.79982095968745L126.06377142857143,129.07877099475323L126.13165714285714,127.15653294189904L126.24274285714286,133.60874340822892L126.56365714285715,132.50160476738L126.60685714285715,141.01603016827963L127.1561142857143,136.2388583086284L127.19931428571428,151.51759852160032L127.43382857142858,144.60994750809544L127.47085714285714,139.89421737924187L127.55725714285714,153.17669879032943L127.61280000000001,139.9211870432423L128.27314285714286,127.47672141945407L128.53234285714285,135.24545071437544L128.81622857142855,144.23315095031015L128.952,139.20785263071096L129.56914285714285,148.69022282920903L129.66171428571428,144.46239978852256L130.02582857142858,131.94721598945372L130.22331428571428,127.30344906608762L130.30354285714287,140.45080479186842L130.32822857142858,138.34373801889413L130.65531428571427,139.03711236549162L130.68,136.1455497463108L130.77257142857144,125.92161568310648L131.26011428571428,138.21366973908508L131.544,145.99816932196478L131.55017142857142,146.1102228720409L131.57485714285713,148.73903876536167L131.82171428571428,141.9641023755807L131.90811428571428,151.24559754167427L131.99451428571427,161.86140196868323L132.0870857142857,173.86588090410302L132.2290285714286,151.21359385822532L132.2845714285714,152.16062268792604L132.37097142857144,142.54823804174578L133.20411428571427,136.80546839068546L133.29051428571427,133.88700164004257L133.3769142857143,161.4759988829772L133.43245714285715,153.5076996417625L133.72868571428572,150.0446220113999L133.86445714285713,151.0185788525488L133.95702857142857,163.8677310483089L133.99405714285714,157.7181042385725L134.16685714285714,156.4531658316881L134.90742857142857,162.94234913597543L135.0802285714286,148.273302419916L135.26537142857143,153.76969471636448L135.5369142857143,131.08730825446864L135.59862857142855,131.2401207940185L135.76525714285714,121.12621881570152L135.83314285714286,135.87074264512017L136.0368,117.70120622667886L136.08617142857142,128.5829634201145L136.20342857142856,131.90003933662294L136.27131428571428,145.9195989018752L136.5305142857143,150.25735077315895L136.82674285714285,120.0807895519212L136.8329142857143,135.2026008067045L137.51177142857142,150.26012610629283L137.78331428571428,151.64400919288673L138.03634285714287,148.88675570270584L138.45600000000002,139.688609239129L138.46217142857142,143.69367769892654L138.78925714285714,147.38336584027607L138.8016,168.76514919129838L138.83862857142856,167.43471178285748L139.24594285714284,160.8825051010077L139.4496,155.88254271787184L139.7334857142857,146.37724795533742L139.85074285714285,150.99721310595638L139.94948571428571,154.50814495798696L141.048,154.1487372940516L141.82559999999998,153.2325597326208L141.85028571428572,136.14774876569666L142.46125714285714,147.93378296428207L142.65874285714287,154.11353045716658L142.74514285714287,172.6235489013554L142.76365714285714,166.28759568908305L142.91177142857143,163.45777210417063L143.15862857142855,152.13650997840202L143.1833142857143,137.76603498964556L143.49805714285714,127.03159137494524L143.58445714285713,142.57348050096425L143.81897142857142,145.94751121516725L143.95474285714283,157.76222952164323L144.2262857142857,157.25647496647213L144.2633142857143,161.2418240235129L144.2694857142857,147.57700139300835L144.36822857142857,168.50928765386334L144.4422857142857,170.8983805430995L144.89897142857143,152.08391285468122L145.02857142857144,153.5687870452905L145.1088,140.9464777067251L145.17051428571426,146.92822214299926L145.2198857142857,129.71045890529496L145.91725714285715,150.72189413708975L146.1456,144.33769704734266L146.66400000000002,127.55867028083583L146.96022857142856,134.59438084739347L147.38605714285714,133.0866056925403L147.39222857142857,134.54118389858078L147.62674285714286,137.65314081243713L147.73165714285713,138.1915105716788L147.78719999999998,120.16464743017342L147.9970285714286,112.00432668465349L148.2253714285714,113.65695538186392L148.50925714285714,114.86683507089374L148.87337142857143,128.44637253592532L148.92274285714288,142.47905664050535L148.94742857142856,135.0398098842176L149.256,142.65886413907816L149.688,155.80563980409755L149.7065142857143,137.86783172156967L149.87314285714285,153.87210140566538L150.20022857142857,170.01533606648806L150.32982857142858,160.4939440563916L150.4038857142857,170.22496206400044L150.45325714285713,166.49374616361433L150.47794285714286,170.83776519199944L150.50262857142857,158.83799006816153L150.9346285714286,161.49639396749126L151.36045714285714,151.8226596683692L151.70605714285713,145.13672224972385L151.7862857142857,145.6072193775927L152.15657142857143,155.15591118786364L152.3046857142857,154.32545977854255L152.39725714285714,144.9031380014893L152.54537142857143,146.96248685999373L152.6256,156.14949294472547L152.68114285714285,158.1694854254998L152.87862857142858,164.65808281882428L153.45874285714285,146.27808931006933L153.4896,167.47981592732157L153.5698285714286,168.5173160696327L153.63771428571428,172.38737040672856L154.3350857142857,148.84237186937796L154.34125714285716,145.24995421590964L154.3782857142857,133.27772280993065L154.3968,140.53356923953203L154.47085714285714,150.3548884967905L154.56342857142857,157.15861608707786L155.2361142857143,137.55479383413513L155.77302857142857,153.59989466145518L156.05074285714286,162.6023967752513L156.06925714285714,143.0549515684776L156.43954285714287,130.7962210432753L156.50125714285716,128.14108364079476L156.52594285714287,133.63993858752826L156.53211428571427,155.95417118861417L157.1184,143.3002485093641L157.54422857142856,145.76729658059517L157.79725714285715,137.5443555771429L158.15519999999998,137.65300184766167L158.33417142857144,144.17333597369435L158.42057142857144,132.797769787819L158.90194285714287,150.80596210541188L158.92045714285715,138.71052723556258L159.1981714285714,137.55122606219396L159.63634285714286,133.79196836044008L159.7350857142857,151.4145425196548L159.8646857142857,151.16799698987845L159.9078857142857,164.63282124877554L161.01874285714285,145.58954134424607L161.14217142857143,151.44102537579656L161.352,139.6917154203253L161.45074285714287,146.7010990753949L161.5186285714286,129.79123897358704L161.88274285714286,134.8661976689337L161.8889142857143,134.95219555194032L161.9136,131.3962992343057L161.99382857142857,133.25884484486852L162.0864,125.12202362725687L162.46285714285716,142.4624793641552L162.82697142857143,140.56475451527285L163.91931428571428,157.92697449974588L164.23405714285715,150.20669332874778L164.43154285714286,131.51476342590541L164.48708571428574,134.10763050201058L164.60434285714285,152.16357705132214L164.71542857142856,155.70956692756647L165.04251428571428,136.8950166420747L165.16594285714285,125.76491094932383L165.3017142857143,132.1389621981786L165.44365714285715,147.9309969974744L165.54857142857142,147.30538516228103L165.5670857142857,140.66562420212358L165.5856,126.36521116960196L165.81394285714285,141.98460542488485L165.98674285714284,155.72390309777984L166.09782857142858,152.95961776679192L166.11017142857145,149.32537289395157L166.69028571428572,159.39903208827795L166.85691428571428,155.15553904086613L167.0173714285714,160.24039209525557L167.17165714285716,142.6556122859877L167.19017142857143,153.40914291905577L167.84434285714283,145.14895108114584L167.86902857142857,150.74821865095396L167.9616,149.64790810833784L167.97394285714284,139.24783768979418L168.00480000000002,153.02030782838176L168.04182857142857,162.12953143367452L168.17142857142858,151.602653062666L168.3936,123.29761368848813L168.49234285714286,136.03694761748295L168.96754285714286,141.11064862648107L169.18971428571427,136.9020305758602L169.23908571428572,134.2291214205796L169.27611428571427,143.64808795549507L169.43657142857143,138.64243758043395L169.46125714285714,137.15494832948752L169.60937142857142,130.73274572175367L169.67725714285714,153.0494314781656L169.8192,151.4211901783601L170.09074285714286,151.11437220828702L170.5782857142857,162.99446948774013L170.75725714285716,162.46919870544883L171.04114285714286,143.55302709671275L171.76319999999998,138.0217855576467L171.77554285714285,128.29850590830483L171.8310857142857,135.22472596609626L171.85577142857144,144.39934205107272L171.86194285714285,147.88454251026351L171.90514285714286,125.67825750216639L172.00388571428573,129.49289927693508L172.34331428571429,133.88740430115962L172.35565714285715,116.32129125072338L172.61485714285715,138.66520084606756L172.70125714285714,116.33641712567459L173.18262857142858,121.90973850058418L173.22582857142856,135.11749233919025L173.38628571428572,141.08107832568396L174.73165714285713,128.4955603967344L174.87977142857142,135.7525848719847L175.0464,152.80073610146212L175.18217142857142,163.60261472106748L175.24388571428574,160.50751732847095L175.34262857142855,165.01891589375896L175.7561142857143,156.81888179859897L176.02765714285715,163.69744439140325L176.10171428571428,162.64584933799608L176.1449142857143,176.29377203039473L176.2374857142857,172.39147718351754L176.67565714285712,178.40805489670623L176.688,166.64658937978882L176.91634285714287,172.99382532935738L177.2125714285714,156.78805912480018L177.5149714285714,140.44731136923272L177.62605714285715,158.6848110710534L177.84205714285716,141.35588829392145L178.0704,141.58645629545188L178.32342857142856,149.3942881858208L178.67520000000002,145.8784657391672L179.00845714285717,132.40541917943472L179.16274285714286,139.37049904682345L180.02674285714286,148.67176787175143L180.19337142857142,157.23347466102072L180.40937142857143,155.74664147110664L180.84137142857142,161.03301314361025L180.87222857142856,158.1577818156493L180.95245714285716,151.77141073424428L181.0944,158.10319979561612L181.16845714285716,135.95094784696613L182.1312,128.05556272748973L182.35337142857145,129.91485112716498L182.48914285714287,134.7165459687442L182.55085714285713,143.97474348640944L183.01988571428572,142.7312835328875L183.02605714285716,149.5268965122231L183.60000000000002,139.2372099951433L184.14925714285715,136.55640082685122L184.1616,131.7846634805666L184.49485714285714,115.7884233329322L184.51337142857145,116.55831248909067L184.94537142857143,116.99198605022077L185.55634285714285,114.53265926948127L186.3894857142857,119.91900407195881L186.84617142857144,119.0828413998429L187.1177142857143,127.78148596016015L187.15474285714285,104.41116876647186L187.43245714285715,119.66531380501004L188.0434285714286,132.3290994894681L188.88274285714283,126.47522681191937L189.01851428571428,139.47953218430732L189.09874285714284,158.4800626832784L189.3702857142857,156.78854491424002L189.5801142857143,154.37180123639163L189.60479999999998,145.5655550378649L189.72205714285712,162.40686595531966L190.4256,167.7308765445413L190.61074285714287,150.36193847885687L191.03040000000001,155.54187821462287L191.1168,147.13401338199645L191.36365714285714,151.54210727658676L191.73394285714284,129.7640574625861L191.79565714285715,119.37456852586229L191.86354285714285,110.70750156530283L191.88822857142856,144.05859964165023L192.0857142857143,115.45119855613575L192.1289142857143,124.91554642103902L192.25851428571428,134.05416483909525L192.4745142857143,159.99270011056137L192.59794285714287,162.2638807272763L192.6102857142857,161.24918860806784L192.71519999999998,137.22209432359105L192.8016,152.83921777532072L193.18422857142858,134.93061063366207L193.19657142857142,145.3613817259621L193.54834285714287,135.0723277776029L194.0112,137.82621871456675L194.39382857142857,163.464821843953L195.31337142857143,155.12434565098073L195.59725714285713,135.45748001749027L195.7392,159.78196388674354L196.63405714285716,155.45130052669847L196.8624,147.28033432389773L196.93645714285714,136.75304059705195L197.0969142857143,135.74632459292562L197.19565714285716,162.909926962945L197.20800000000003,159.18511418942467L197.25737142857142,161.31907500287437L197.2697142857143,142.83479902955753L197.5289142857143,151.99036563010387L197.8806857142857,150.77206545239585L197.97325714285714,143.08138126603419L197.97942857142857,145.1565529662572L198.3065142857143,156.76185090351456L198.45462857142857,150.68351961654363L198.51634285714286,143.9489171581269L198.5904,129.06944739726143L198.96685714285715,148.18921817673362L199.37417142857143,135.95011996487267L199.42971428571428,118.1973111383036L199.62720000000002,137.3355771069339L199.68274285714284,150.73073772144403L199.7321142857143,133.5980512982903L199.7814857142857,121.22734316368233L199.97279999999998,135.1451497105538L199.98514285714285,156.8512427454895L200.65165714285715,150.35166737130822L200.664,124.09214612345399L200.8182857142857,130.74455240718746L200.89851428571427,135.59296659567215L200.91085714285714,135.19235510574387L200.9664,146.43745969582332L201.3552,146.38994679504108L201.62674285714286,148.7574047608422L201.6576,143.30667646222258L202.05874285714287,158.55140795517232L202.42285714285714,157.66605239571632L202.6512,150.6994248698535L202.68205714285716,147.66428164327934L202.7129142857143,153.3521853952006L202.91657142857144,153.02141280220857L203.0153142857143,136.7720011949642L203.23131428571426,133.16890180430775L203.29302857142858,132.67155464615297L203.30537142857145,134.84218148755858L203.33005714285713,129.70510393740776L203.35474285714287,123.05060771036908L203.67565714285715,133.93888212844104L204.05211428571428,149.2950579802494L204.05828571428572,139.63623703279822L204.06445714285715,145.4163695252233L204.66925714285713,141.35497639006405L205.01485714285715,156.74815454615174L205.2864,156.10020510880614L205.37897142857145,154.61954770827296L205.49622857142856,152.0702477481661L205.56411428571428,146.66684550572276L205.84182857142858,144.44895129768318L205.95908571428572,137.69514758654512L206.064,130.2253965294923L207.10080000000002,123.49646098879258L207.4649142857143,144.06131316952676L207.63771428571428,160.48336038579208L207.92777142857142,165.5277160324342L207.94628571428572,154.90710774398735L208.00182857142858,140.69110586543133L208.4153142857143,156.04461598308168L208.51405714285713,137.23895336359584L208.5510857142857,153.8920863564578L209.06331428571428,166.04091795001452L209.088,165.1052545230697L209.2176,165.02099478545412L209.55085714285715,153.4417411051675L210.00137142857142,171.75422312524077L210.08777142857141,171.36408640300655L210.29142857142855,152.02967657773334L210.3408,149.5422836170677L210.3654857142857,146.03986727745067L210.71725714285716,143.01218859523397L210.72959999999998,154.24992387645324L210.8592,152.1691661519156L211.2048,147.80260375128L211.40845714285715,150.16641109766434L211.64914285714286,149.7891003562003L212.0009142857143,138.3513874387173L212.62422857142857,161.58860726788902L212.74148571428572,162.12051989241672L213.61165714285713,138.0355468678555L214.16091428571428,130.99095033493774L214.21028571428573,115.17553912712187L214.33371428571428,132.01742540599395L214.5497142857143,137.81443123638942L214.66697142857143,151.43722015758334L214.98171428571428,137.68726135813606L215.06811428571427,131.30427774812367L215.16685714285714,134.15664370734305L215.2470857142857,140.84811134730373L216.2592,139.98792098857103L216.27154285714286,157.05766168479178L216.6418285714286,159.1797248545393L216.81462857142859,165.529970216939L217.37005714285715,164.16746850410144L217.3824,147.65050998672845L217.44411428571428,154.4646739515479L217.89462857142857,144.9696925925766L218.27725714285714,142.83809046424102L218.32045714285715,136.60988714228304L218.5302857142857,147.43620687475251L219.14125714285714,153.5425779859634L219.456,160.2622516973963L219.69668571428574,128.30006611720395L219.72137142857142,134.25047000323178L220.0361142857143,139.36655431170544L220.20274285714288,162.65758209852615L220.39405714285715,133.4577175302309L220.4249142857143,125.18840168765657L220.56685714285715,128.92841509110957L220.75817142857142,123.89249966163085L221.0297142857143,127.8869376932967L221.36914285714286,136.8138482792506L221.4678857142857,141.0259039505607L221.6838857142857,151.59203953934733L221.7209142857143,123.8411513832827L221.79497142857144,140.31854681354443L221.94925714285714,142.17610302263125L222.31954285714286,164.76044114980772L222.38125714285715,134.12689651758524L222.42445714285714,136.38599489179077L222.5293714285714,142.16223603835869L222.6713142857143,161.79053633412326L222.77622857142856,148.84062635331557L222.9366857142857,155.00619742031495L223.18354285714287,157.11341152936697L223.48594285714285,164.88876154138777L223.55382857142857,153.96493425746777L223.7081142857143,167.26822660088953L224.0537142857143,166.12123596237961L224.12777142857144,166.21135260104296L224.208,164.42400603114825L224.94857142857143,160.79512282082115L225.21394285714285,136.53258623052918L225.28182857142855,150.31621864580794L225.29417142857142,149.9043967909505L225.31885714285715,155.53005714329765L225.56571428571428,150.597955321046L225.76937142857142,133.08881129777959L225.86811428571428,134.1928773019164L225.98537142857143,143.63551392559174L226.32479999999998,147.86073699782744L226.98514285714285,150.06507539604763L227.45417142857144,139.99622447421254L227.50354285714286,122.08845970195246L227.50971428571427,134.51968748164396L227.97257142857143,138.89783036275503L228.0528,131.08269957052602L228.13920000000002,150.54106430811558L228.34902857142856,124.23482762945952L228.96617142857144,145.31926049605983L229.2192,151.37954970775093L229.38582857142856,161.33382565464345L229.5401142857143,165.67231346167168L229.59565714285714,159.98006730931837L229.6326857142857,156.79686235590134L229.68205714285713,165.50286914553777L229.72525714285715,168.6169545309326L229.84868571428572,166.2920414283782L229.92274285714285,157.37676073538603L230.10171428571428,148.5149226883824L230.61394285714286,161.13187255756304L231.1878857142857,151.1802681683812L231.39154285714284,161.9570163822395L231.82354285714285,131.20604796857623L231.9654857142857,125.72476031557885L232.20617142857142,148.68658848809343L232.416,147.79708641042743L232.78011428571426,150.90309800328686L232.83565714285714,146.20660595516603L233.07634285714286,143.73128182336143L233.39725714285714,146.2366215816497L233.63177142857143,143.7354101292854L233.76754285714287,167.290051269326L233.95885714285714,153.89293260502993L234.18102857142856,145.16987011531975L234.2057142857143,146.67075075239507L234.2550857142857,160.81182871189708L234.64388571428572,159.30154203499782L234.6624,147.70495498432817L235.1808,139.2293635858897L235.3104,138.44878886442092L235.38445714285714,144.8187601537529L235.45234285714287,146.06207100387172L235.55108571428573,150.92277061179388L235.63748571428573,125.61134503500688L235.7670857142857,121.48793910753672L235.90902857142856,146.4808077300221L236.02011428571427,140.33786676964598L236.14354285714288,149.92699946232193L237.1248,149.90589684822962L237.13714285714286,160.7659607555686L237.3408,158.33026355366104L237.6246857142857,164.30497358399575L238.14925714285712,163.89792295682466L238.53805714285716,168.28163804305032L239.18605714285715,155.1452239207931L239.27245714285715,153.12609961523503L239.56868571428572,149.8227861425031L239.85874285714286,141.75782921304375L240.15497142857143,130.9433278128257L240.32777142857145,148.84501747190325L240.66102857142857,162.2367525539882L241.06217142857142,163.36215848574676L241.06834285714285,164.72646129571834L241.1424,154.1817510270796L241.14857142857142,153.6225135171339L241.62377142857142,149.30903663977307L241.6608,130.33428621420546L242.01874285714285,141.56280876661413L242.14217142857143,148.75090610206513L242.30262857142856,149.7245307216232L242.51862857142856,155.28752947754313L243.09874285714287,151.08868299025136L243.37028571428573,127.78191382679658L243.61714285714285,134.57183239605018L243.89485714285715,143.71800484439973L243.9504,146.82963799137045L244.39474285714286,156.55442555399807L244.65394285714285,149.76386107769815L244.74651428571428,160.83546303608324L244.77737142857143,166.53946897839833L244.85760000000002,171.58442762953183L244.95017142857142,164.92171009750678L245.46857142857144,149.28210535480068L246.55474285714286,159.77299082128374L246.60411428571427,155.78979347008408L246.85714285714286,158.90860338114925L246.8633142857143,165.59501706095188L247.06697142857143,171.4142564714122L247.18422857142858,165.83128524264316L247.35085714285714,157.31326434425003L247.52982857142857,159.45812216686483L247.5606857142857,157.33922943452095L247.57302857142858,168.5186015147043L247.69645714285716,182.01994356147347L248.39382857142857,148.30132029891686L248.46171428571427,152.0848788545298L248.5296,151.49872066509255L248.93691428571427,147.3204693035368L248.94925714285714,140.29095001200798L249.01097142857142,126.86742871508093L249.06034285714287,154.48251237231835L249.27634285714288,142.5963443198094L249.61577142857143,134.4551934743398L250.1033142857143,148.93155169041412L250.13417142857142,159.05971669255837L250.31931428571428,147.80692813530052" style="fill: none;" fill="none"></path></g></g></g></g><g opacity="0.20000000298023224"><g><g><g><path stroke="rgb(255, 112, 67)" stroke-width="2px" d="M44.03931428571429,-62.75949176544178L44.83542857142857,7.506672095937226L44.90331428571428,-17.169194317494444L45.51428571428571,-25.84482224371571L45.55748571428571,9.495088445524182L45.68091428571429,-1.955182570964098L46.39062857142857,-34.91974514550887L46.41531428571429,18.746829738553892L47.063314285714284,1.1653243922270276L47.31634285714286,29.8585813635817L47.5632,-21.401451760903L47.79154285714286,-72.31180596237L47.89028571428571,38.46664006033769L47.9088,37.7555106426231L48.1248,65.57605960406363L48.14331428571428,4.992390873555373L48.22971428571429,2.6242648322994815L48.612342857142856,-36.94453707967814L48.87771428571428,-28.213131897008196L49.0752,22.83313601421049L49.130742857142856,47.510267310560884L49.970057142857144,51.08596891379701L50.29097142857143,49.584063257162384L50.35268571428571,64.87219306246305L50.544000000000004,55.145631042810585L50.66742857142857,37.768853117282L50.6736,38.815462127184645L51.34628571428571,52.701632427768054L51.401828571428574,63.08725965209305L52.20411428571428,38.14597183910126L52.88297142857143,25.226070081743487L53.12982857142857,64.19984658714384L53.60502857142857,104.71671904938724L53.63588571428571,81.55002116870422L53.71611428571428,110.73215538814951L53.76548571428572,1.7540049828732198L53.784,45.258857320564296L54.01851428571429,63.91455428495716L54.4752,77.94832826162187L54.48137142857143,40.50934436874321L54.610971428571425,71.4132494579714L54.83314285714286,22.906274808785653L54.88251428571429,29.164140239859428L55.13554285714286,63.470457972457204L55.19108571428571,122.74254512292548L55.283657142857145,71.28688357412241L55.3392,55.23233672675604L55.561371428571434,50.15591274445446L55.567542857142854,106.97610596230682L55.65394285714285,54.175506646816544L55.75885714285714,97.9655084773325L55.92548571428571,18.59035148070408L56.12297142857143,67.87512711822413L56.22788571428571,69.33237424729249L56.919085714285714,74.2552373629923L57.597942857142854,118.41181042389228L57.60411428571428,69.09376020507457L57.72754285714286,49.651918105351236L57.733714285714285,59.82167877865812L57.98057142857143,62.05858341776408L58.31382857142857,38.466232033589705L58.42491428571429,49.360342191245685L58.57302857142857,50.87446824898226L58.72114285714286,52.11968427846352L58.73965714285715,63.080588414763604L59.28274285714286,85.0438930076332L59.57897142857143,84.69484652607485L60.066514285714284,77.67129850108176L60.17142857142857,108.99997983629312L60.33188571428572,58.99134434652157L60.578742857142856,72.00156282454442L60.78857142857143,121.86122774862899L60.88731428571428,100.97217597783758L61.12182857142857,117.75441812888648L61.140342857142855,25.921184449599906L61.16502857142857,70.19694212358445L61.20822857142857,66.7712515542427L61.22674285714286,121.01955017289862L61.344,109.32307581668003L61.47977142857143,99.74740208843006L61.91177142857143,68.97602408694533L62.31908571428572,99.25787199754268L62.73257142857143,73.19797885496743L62.84365714285715,94.46592426393181L63.10285714285714,31.498134843646902L63.331199999999995,67.59950504996456L63.39908571428571,79.93978441048127L63.77554285714286,78.828911187772L63.92982857142857,122.33184579974755L64.00388571428572,80.90486967613778L64.0224,74.77459420915693L64.15817142857142,115.58691883961167L64.37417142857143,96.09333894824466L64.44205714285715,80.86155763683983L64.65805714285715,94.45209215717533L64.84320000000001,142.72098319891555L65.21965714285714,50.03652411799591L65.28137142857143,93.8642480213625L66.05897142857143,147.8245613612951L66.55885714285714,107.02570161352362L66.58354285714286,51.536430443565436L66.73782857142857,126.47609187361714L67.03405714285715,117.97236561631925L67.2624,111.25895872246474L67.51542857142857,153.1988040669463L67.5648,125.17828119632144L67.62034285714286,100.86739470895667L67.76228571428571,112.34812492218155L68.05234285714285,92.04922263832906L68.39177142857143,148.44162021226322L68.41645714285715,133.06909007414316L68.46582857142856,85.31502678166501L68.70034285714286,112.05301957670599L68.87314285714287,32.83050538649639L69.91611428571429,112.8709703970414L69.97165714285714,91.01024372861363L69.984,77.72162860044493L70.2432,137.66761272787474L70.26788571428571,86.56352742646749L70.38514285714287,64.54275226614509L70.58262857142857,123.91217419734366L70.66285714285715,102.27726993258469L70.81714285714285,90.5866303588622L70.89737142857142,99.69821446396124L70.98994285714285,125.64375811041548L71.04548571428572,133.431764649084L71.24914285714286,50.55345320501007L71.39725714285714,129.74597742924323L71.41577142857143,95.34046839421185L71.66262857142857,83.9853696166896L71.712,112.91983160011183L71.91565714285714,142.1446658187331L72.17485714285715,115.92572384979576L72.23039999999999,143.6847627789785L72.56982857142857,47.13229173257086L73.54491428571428,52.03153009956272L73.93371428571429,101.03223751514003L74.1065142857143,95.4960897958909L74.24845714285713,102.95359466869671L74.56320000000001,100.83324287015084L74.77302857142858,98.62181950145616L74.85325714285715,88.37047387989095L75.32845714285713,92.50998684348396L75.48274285714287,76.7132516968279L75.5814857142857,94.93282927164378L75.65554285714286,143.85360424729208L75.92708571428571,93.08799753467049L76.28502857142858,95.93259681087848L76.45165714285713,106.82223907564409L76.47634285714285,114.84900246589228L76.98857142857143,102.45614885889854L77.09965714285714,46.321991413760074L77.32182857142857,119.95411072857678L77.64891428571428,127.06083500614531L77.66125714285715,65.93377665401651L77.80937142857142,105.64587755988423L77.81554285714286,122.47534880701166L77.8464,143.27465509458517L77.87725714285713,101.52466459593806L78.85851428571429,133.47897334382512L79.00045714285714,76.53637210157915L79.08068571428572,103.24655787374537L79.11154285714285,123.61810932007548L79.21028571428572,78.7005051701831L79.24114285714286,91.60804371707715L79.2966857142857,163.84316105216456L79.39542857142857,164.99028745143173L79.75337142857144,97.8965723582615L80.10514285714285,51.62221806732794L80.22857142857143,85.40379300068777L80.54948571428572,122.83892104079804L80.79634285714286,129.77955803060186L80.84571428571428,115.15245195836403L81.25302857142857,79.66463157298186L81.27154285714285,132.90724626455741L81.33942857142857,131.6045596676234L81.71588571428572,136.0703512202375L81.74674285714286,62.885510826555006L81.75908571428572,119.59435354488399L82.10468571428571,130.0024630430226L82.49348571428571,137.2574234381318L82.512,128.64883430660345L82.54902857142858,140.92413540750456L82.78354285714285,114.31057036925968L83.04891428571429,127.68154569650784L83.3328,135.5738642732971L83.4624,83.57224253436121L83.67222857142858,125.2052925670376L83.85737142857144,78.92216570102252L83.94994285714286,146.81287944101942L84.03634285714286,165.1244874488419L84.46217142857142,140.36283341164773L84.63497142857143,99.1961579519109L84.65965714285714,78.73541185847267L84.672,141.28970697235602L84.74605714285714,126.43751294459574L84.89417142857144,147.9963406221941L84.96822857142857,114.21968241114743L85.05462857142858,119.23849301663442L85.12251428571429,139.47117255928998L85.43108571428571,115.73858238183536L85.49897142857142,133.28891448461664L85.7088,123.69485915137025L85.74582857142856,110.39112663218893L85.84457142857143,125.01182668448355L86.25805714285714,127.61322161755882L86.27657142857143,135.86925523749625L86.43702857142857,140.66026450958677L86.67154285714285,170.5386759731202L86.67771428571429,136.14914118527219L86.83817142857143,138.70575518275683L87.048,144.32571159604078L87.29485714285714,118.7020194483921L87.3318857142857,65.45063218173499L87.50468571428571,85.25484283633817L87.85645714285714,167.77588605988197L88.22674285714285,71.78208523680671L88.42422857142857,128.31400755721216L88.69577142857143,161.40495641694332L88.83154285714286,160.55081362406222L89.27588571428572,105.89050999663483L89.35611428571428,115.50910813877216L89.65234285714286,118.79670205526054L89.73874285714285,125.67954205621321L89.7696,133.8119435715131L90.26948571428571,155.69180669442105L90.39291428571428,140.80521601180618L90.97302857142857,172.44893479913188L91.3248,166.24556134025065L91.36182857142857,93.18219050944138L91.7568,162.27401258746306L92.00982857142857,155.72818227900336L92.03451428571428,159.66747651736324L92.22582857142856,136.7684645846916L92.41097142857143,116.1541576246516L92.58377142857142,119.06206225080844L92.73188571428571,138.89856822251414L92.74422857142856,128.11666542055227L93.02194285714285,151.35819540681462L93.08365714285715,141.28479025004287L93.31200000000001,140.8715611610275L93.3552,135.80913249618158L93.60205714285715,134.05516831598317L94.0217142857143,184.05412337115894L94.15131428571428,128.44359685237018L94.31794285714285,111.67384031980943L94.47222857142857,118.76934386180855L94.86102857142856,93.87110287072852L95.05234285714286,165.92615800193295L95.42262857142858,122.26717356019296L95.66948571428571,106.12849159739338L95.91017142857142,135.49603317112016L95.98422857142857,75.50243232220124L96.03977142857143,70.61102806877058L96.13234285714286,125.56245878088072L96.24342857142857,142.62254674596568L96.32982857142856,162.12647011539397L96.41005714285714,214.80634451682607L96.44091428571429,108.62312633186005L96.50262857142857,128.56877945865003L96.92845714285714,82.88849171143599L97.43451428571429,167.91977669255664L97.49005714285715,98.93903989667216L97.60731428571428,115.14053757732304L98.25531428571428,131.70226167242689L98.26148571428571,148.5642118486934L98.50834285714285,181.38081372375242L98.76137142857142,143.91078919602128L98.76754285714286,125.55407383120976L98.87862857142856,154.49141240320526L99.13165714285714,116.27126130132146L99.19954285714286,97.96618172146667L99.27977142857144,69.67760567875722L99.36,92.60401660755564L99.46491428571429,152.87717698285212L99.63154285714285,124.9685146451856L99.77348571428571,106.9173297092605L99.9648,172.07687560898754L99.97097142857142,157.7971023059665L99.97714285714285,100.83361009422403L100.03885714285715,126.36278284570344L100.11908571428572,82.75372047657862L100.15611428571428,93.04990823774669L100.2425142857143,121.1579732471504L100.6745142857143,87.830389274929L100.84114285714287,120.69600536308896L101.03245714285714,168.31080912648198L101.13737142857143,137.90991941216186L101.46445714285714,109.88933533752478L101.56937142857143,94.51299014931115L101.61257142857143,160.95869756267908L101.94582857142856,115.39737001383818L102.01371428571427,157.59553709246504L102.39634285714286,120.64304349120133L102.41485714285714,133.85046129652227L102.42102857142858,108.13055644170024L102.72342857142858,93.67335270732067L103.032,99.29916430443812L103.06902857142856,119.09647930700045L103.0752,113.35003460184313L103.11222857142857,123.3538507967471L103.3776,141.35609292425215L103.48251428571427,110.93400622037454L103.74788571428572,136.23070573219312L103.96388571428571,126.5798530756281L104.19222857142857,141.05862102363832L104.25394285714286,145.31595171071015L104.26628571428571,101.4897579076485L104.6489142857143,177.39152600809646L104.71062857142857,106.08124209997746L104.75382857142857,137.3015923336005L105.04388571428571,124.61014475243594L105.48205714285714,154.61339199951348L106.59908571428572,119.23637127754493L106.62994285714285,104.3659588554874L106.67931428571428,127.9310948555716L106.79039999999999,122.39225415978581L107.03725714285714,118.57789771165699L107.18537142857143,134.58892850635144L107.2224,167.77762017356088L107.50628571428571,118.02746962863378L107.76548571428572,108.75916244963612L107.80251428571428,120.1028160768776L107.85188571428571,156.86773978209553L108.49988571428571,128.083921274027L108.88868571428571,113.35048343126591L108.9504,97.64559510557983L108.98125714285715,127.99480823226847L109.19108571428572,147.32844163842785L109.30217142857143,125.15679858804036L110.02422857142857,150.17240847317646L110.22788571428572,148.5028854284722L110.75245714285715,135.05664956755936L110.99931428571429,119.80956725310534L111.12274285714287,129.40711121504697L111.1782857142857,182.4149779178417L111.3078857142857,101.18904219438824L111.51154285714286,86.99222072923126L111.68434285714285,141.535073857253L111.80777142857143,48.34831344823424L111.86331428571428,124.17043472747676L112.35085714285714,111.73477911462005L112.45577142857142,94.79977174912794L112.79520000000001,142.55797651309805L113.0976,117.50799037444476L113.70857142857143,176.5513887333397L113.73325714285714,119.12161375467595L114.07885714285715,91.20917716959062L114.30102857142857,146.31606607268063L114.49234285714286,132.8331894097993L114.50468571428571,102.70165855315729L114.57874285714286,141.5059611487847L114.81325714285715,115.80378505616233L115.06011428571429,137.9038806162918L115.0848,90.77699523813162L115.09714285714286,102.80954082532283L115.22674285714287,146.9605647224503L115.23291428571427,89.98862635702469L115.3254857142857,163.4694289523535L115.39954285714286,138.02608462731138L115.56617142857144,165.62111720514412L115.57851428571428,119.82005354052838L115.59085714285715,115.42378974576982L116.04754285714286,128.51708246968113L116.3376,153.1126492191106L116.62765714285715,150.0353930912052L116.99794285714285,175.23430899287072L117.45462857142857,152.45762347924307L117.51017142857143,136.93622478212302L118.18902857142858,134.9108004064944L118.21371428571429,116.36743320582005L118.45439999999999,136.85137561988086L118.62719999999999,163.82575871136325L118.65188571428571,145.94890320351203L118.78148571428572,118.51404152559832L118.86171428571429,150.2610726855122L118.9481142857143,163.50511089146423L119.09622857142857,115.66270980804872L119.36777142857143,133.2626579633842L119.96022857142856,167.46984559756058L120.41074285714286,155.84395986874227L120.67611428571428,138.30201271563195L120.95382857142857,170.32019805091505L121.19451428571429,173.05850635927456L121.37965714285716,138.63641103693786L121.608,152.21817298219182L122.02148571428572,139.1364682179231L122.19428571428571,125.13513236772269L122.24365714285715,119.46325455075845L122.64479999999999,110.83222394809127L122.76205714285715,166.9018723643743L122.79291428571429,158.59155078561832L123.74948571428571,112.72661053360655L124.03954285714286,138.0583799444139L124.29257142857143,143.8833901998945L124.45302857142858,144.1299403623606L124.79245714285715,140.70673875618152L124.848,143.6772958894905L125.00845714285714,152.9654739711147L125.25531428571429,92.43670523954698L126.06377142857143,135.4971960473519L126.13165714285714,124.27317586261779L126.24274285714286,143.2870591077237L126.56365714285715,130.84089680610654L126.60685714285715,153.78766826962908L127.1561142857143,129.07310051915164L127.19931428571428,174.43570884105822L127.43382857142858,134.24847098783803L127.47085714285714,132.82062218596155L127.55725714285714,173.10042090696066L127.61280000000001,120.0379194226116L128.27314285714286,108.81002298377167L128.53234285714285,146.89854465675754L128.81622857142855,157.7147013042122L128.952,131.66990515131218L129.56914285714285,162.91377812695617L129.66171428571428,138.12066522749285L130.02582857142858,113.17444029085051L130.22331428571428,120.3377986810385L130.30354285714287,160.17183838053964L130.32822857142858,135.18313785943275L130.65531428571427,140.07717388538788L130.68,131.80820581753952L130.77257142857144,110.58571458829995L131.26011428571428,156.65175082305302L131.544,157.6749186962843L131.55017142857142,146.2783031971552L131.57485714285713,152.68226260534271L131.82171428571428,131.80169779090926L131.90811428571428,165.16784029081464L131.99451428571427,177.78510860919667L132.0870857142857,191.87259930723275L132.2290285714286,117.23516328940883L132.2845714285714,153.5811659324771L132.37097142857144,128.1296610724754L133.20411428571427,128.191313914095L133.29051428571427,129.5093015140782L133.3769142857143,202.85949474737907L133.43245714285715,141.55525077994054L133.72868571428572,144.85000556585592L133.86445714285713,152.47951411427212L133.95702857142857,183.141459341949L133.99405714285714,148.49366402396788L134.16685714285714,154.5557582213615L134.90742857142857,172.67612409240638L135.0802285714286,126.26973234582692L135.26537142857143,162.01428316103724L135.5369142857143,97.06372856162488L135.59862857142855,131.46933960334326L135.76525714285714,105.95536584822602L135.83314285714286,157.98752838924813L136.0368,90.4469015990169L136.08617142857142,144.90559921026804L136.20342857142856,136.87565321138558L136.27131428571428,166.94893824975364L136.5305142857143,156.76397858008457L136.82674285714285,74.81594772006456L136.8329142857143,157.8853176888795L137.51177142857142,172.84641405567527L137.78331428571428,153.71983382277764L138.03634285714287,144.75087546743453L138.45600000000002,125.89138954376372L138.46217142857142,149.7012803886229L138.78925714285714,152.9178980523004L138.8016,200.83782421783187L138.83862857142856,165.43905567019604L139.24594285714284,151.0541950782331L139.4496,148.3825991431681L139.7334857142857,132.11930581153584L139.85074285714285,157.9271608318847L139.94948571428571,159.77454273603283L141.048,153.6096257981486L141.82559999999998,151.85829339047464L141.85028571428572,110.52053231531038L142.46125714285714,165.61283426216016L142.65874285714287,163.38315169649343L142.74514285714287,200.38857656763867L142.76365714285714,156.78366587067453L142.91177142857143,159.21303672680202L143.15862857142855,135.15461678974904L143.1833142857143,116.21032250651088L143.49805714285714,110.92992595289476L143.58445714285713,165.88631418999285L143.81897142857142,151.0085572864717L143.95474285714283,175.48430698135724L144.2262857142857,156.4978431337155L144.2633142857143,167.21984760907407L144.2694857142857,127.07976744725153L144.36822857142857,199.90771704514583L144.4422857142857,174.48201987695379L144.89897142857143,123.8622113220537L145.02857142857144,155.7960983312044L145.1088,122.01301369887706L145.17051428571426,155.90083879741053L145.2198857142857,103.88381404873844L145.91725714285715,182.239046984782L146.1456,134.761401412722L146.66400000000002,102.3901301310756L146.96022857142856,145.14794669722994L147.38605714285714,130.82494296026059L147.39222857142857,136.72305120764156L147.62674285714286,142.32107618322166L147.73165714285713,138.9990652105413L147.78719999999998,93.1243527179154L147.9970285714286,99.7638455663736L148.2253714285714,116.13589842767956L148.50925714285714,116.68165460443839L148.87337142857143,148.81567873347265L148.92274285714288,163.52808279737545L148.94742857142856,123.88093974978592L149.256,154.087445521369L149.688,175.52580330162667L149.7065142857143,110.96111959777772L149.87314285714285,177.87850593180897L150.20022857142857,194.23018805772207L150.32982857142858,146.21185604124688L150.4038857142857,184.8214890754137L150.45325714285713,160.8969223130351L150.47794285714286,177.35379373457712L150.50262857142857,140.83832738240463L150.9346285714286,165.4839998164859L151.36045714285714,137.31205821968615L151.70605714285713,135.1078161217559L151.7862857142857,146.312965069396L152.15657142857143,169.47894890327007L152.3046857142857,153.07978266456092L152.39725714285714,130.76965533590948L152.54537142857143,150.05151014775038L152.6256,169.93000207182305L152.68114285714285,161.1994741466613L152.87862857142858,174.39097890881104L153.45874285714285,118.70809904693697L153.4896,199.28240585319983L153.5698285714286,170.07356628309935L153.63771428571428,178.19245191237243L154.3350857142857,113.52487406335197L154.34125714285716,139.86132773570716L154.3782857142857,115.31937570096208L154.3968,151.41733888393412L154.47085714285714,165.08686738267826L154.56342857142857,167.3642074725089L155.2361142857143,108.14906045472107L155.77302857142857,177.6675459024353L156.05074285714286,176.10614994594542L156.06925714285714,113.73378375831705L156.43954285714287,112.4081252554718L156.50125714285716,124.158377537074L156.52594285714287,141.88822100762852L156.53211428571427,189.425520090243L157.1184,124.31936449048898L157.54422857142856,149.46786868744172L157.79725714285715,125.20994407196459L158.15519999999998,137.81597125343978L158.33417142857144,153.95383716274338L158.42057142857144,115.73442050900597L158.90194285714287,177.8182505818012L158.92045714285715,120.56737493078869L159.1981714285714,135.81227430214102L159.63634285714286,128.15308180780937L159.7350857142857,177.84840375847685L159.8646857142857,150.79817869521392L159.9078857142857,184.83005763712123L161.01874285714285,117.02462148745187L161.14217142857143,160.2182514231222L161.352,122.06775048711839L161.45074285714287,157.21517455799935L161.5186285714286,104.42644882087525L161.88274285714286,142.47863571195361L161.8889142857143,135.08119237645028L161.9136,126.06245475785377L161.99382857142857,136.05266326071265L162.0864,112.91679180083938L162.46285714285716,168.47316296950268L162.82697142857143,137.7181672419493L163.91931428571428,183.97030447645542L164.23405714285715,138.62627157225057L164.43154285714286,103.47686857164193L164.48708571428574,137.99693111616833L164.60434285714285,179.24749687528953L164.71542857142856,161.02855174193303L165.04251428571428,108.67319121383704L165.16594285714285,109.06975241019748L165.3017142857143,141.70003907146076L165.44365714285715,171.61904919641808L165.54857142857142,146.36696740949097L165.5670857142857,130.70598276188738L165.5856,104.9145916208195L165.81394285714285,165.41369680780917L165.98674285714284,176.33284960712234L166.09782857142858,148.81318977030998L166.11017142857145,143.874005584691L166.69028571428572,174.50952087976754L166.85691428571428,148.79029946974836L167.0173714285714,167.86767167683976L167.17165714285716,116.2784425720859L167.19017142857143,169.5394388686579L167.84434285714283,132.758663324281L167.86902857142857,159.14712000566607L167.9616,147.99744229441364L167.97394285714284,123.64773206197872L168.00480000000002,173.67901303626311L168.04182857142857,175.79336684161368L168.17142857142858,135.81233550615323L168.3936,80.84005462722136L168.49234285714286,155.14594851097522L168.96754285714286,148.72120013997818L169.18971428571427,130.5891034999289L169.23908571428572,130.21975768765864L169.27611428571427,157.77653775786837L169.43657142857143,131.1339620178422L169.46125714285714,134.9237144530679L169.60937142857142,121.09944181015285L169.67725714285714,186.52446011278346L169.8192,148.9788282286519L170.09074285714286,150.65414525317743L170.5782857142857,180.81461540691984L170.75725714285716,161.68129253201187L171.04114285714286,115.17876968360864L171.76319999999998,129.72492324904752L171.77554285714285,113.71358643429211L171.8310857142857,145.61405605278335L171.85577142857144,158.16126617853743L171.86194285714285,153.11234319904963L171.90514285714286,92.36882999002073L172.00388571428573,135.21486193908808L172.34331428571429,140.47916183749643L172.35565714285715,89.97212167506895L172.61485714285715,172.1810652390839L172.70125714285714,82.84324154508515L173.18262857142858,130.26972056294863L173.22582857142856,154.92912309709936L173.38628571428572,150.0264573054245L174.73165714285713,109.61728350331005L174.87977142857142,146.6381215848602L175.0464,178.3729629456782L175.18217142857142,179.80543265047555L175.24388571428574,155.8648712395762L175.34262857142855,171.78601374169094L175.7561142857143,144.51883065585906L176.02765714285715,174.0152882806097L176.10171428571428,161.06845675788534L176.1449142857143,196.76565606899274L176.2374857142857,166.53803491320176L176.67565714285712,187.43292146648926L176.688,149.00439110441278L176.91634285714287,182.51467925371028L177.2125714285714,132.4794098179644L177.5149714285714,115.93618973588141L177.62605714285715,186.0410606237845L177.84205714285716,115.36250412822343L178.0704,141.9323082977476L178.32342857142856,161.10603602137417L178.67520000000002,140.60473206918687L179.00845714285717,112.1958493398359L179.16274285714286,149.8181188479066L180.02674285714286,162.62367110914334L180.19337142857142,170.07603484492464L180.40937142857143,153.5163916862355L180.84137142857142,168.96257065236568L180.87222857142856,153.8449348237079L180.95245714285716,142.1918541121368L181.0944,167.60088338767392L181.16845714285716,102.72256992399119L182.1312,116.21248504827514L182.35337142857145,132.70378372667787L182.48914285714287,141.91908823111308L182.55085714285713,157.8620397629073L183.01988571428572,140.8660936026046L183.02605714285716,159.72031598122646L183.60000000000002,123.80268021952361L184.14925714285715,132.53518707441307L184.1616,124.62705746113967L184.49485714285714,91.79406311148061L184.51337142857145,117.71314622332844L184.94537142857143,117.64249639191594L185.55634285714285,110.84366909837208L186.3894857142857,127.99852127567507L186.84617142857144,117.82859739166899L187.1177142857143,140.82945280063612L187.15474285714285,69.35569297593946L187.43245714285715,142.54653136281726L188.0434285714286,151.32477801615516L188.88274285714283,117.6944177955962L189.01851428571428,158.98599024288927L189.09874285714284,186.98085843173502L189.3702857142857,154.25126826068242L189.5801142857143,150.746685719619L189.60479999999998,132.35618574007486L189.72205714285712,187.66883233150182L190.4256,175.71689242837377L190.61074285714287,124.30853138033014L191.03040000000001,163.31178781827194L191.1168,134.52221613305693L191.36365714285714,158.15424811847222L191.73394285714284,97.09698274158515L191.79565714285715,103.79033512077652L191.86354285714285,97.70690112446364L191.88822857142856,194.08524675617136L192.0857142857143,72.54009692786404L192.1289142857143,139.11206821839397L192.25851428571428,147.76209246617955L192.4745142857143,198.9005030177605L192.59794285714287,165.67065165234874L192.6102857142857,159.72715042925512L192.71519999999998,101.18145289687581L192.8016,176.26490295291518L193.18422857142858,108.06769992117412L193.19657142857142,161.0075383644121L193.54834285714287,119.63874685506407L194.0112,141.9570551200125L194.39382857142857,201.9227265380323L195.31337142857143,142.61363136152235L195.59725714285713,105.95718156725455L195.7392,196.26868969062343L196.63405714285716,148.95530548663092L196.8624,135.02388501969668L196.93645714285714,120.96210000678323L197.0969142857143,134.23625058673608L197.19565714285716,203.65533051797405L197.20800000000003,153.5978950291442L197.25737142857142,164.5200162230489L197.2697142857143,115.10838506958231L197.5289142857143,165.72371553092336L197.8806857142857,148.9446151858339L197.97325714285714,131.54535498649167L197.97942857142857,148.26931051659182L198.3065142857143,174.16979780940054L198.45462857142857,141.56602268608717L198.51634285714286,133.84701347050185L198.5904,106.75024275596324L198.96685714285715,176.8688743459419L199.37417142857143,117.5914726470812L199.42971428571428,91.56809789845003L199.62720000000002,166.04297605987924L199.68274285714284,170.8234786432093L199.7321142857143,107.89902166355975L199.7814857142857,102.67128096177026L199.97279999999998,156.02185953086098L199.98514285714285,189.410382297893L200.65165714285715,140.6023043100364L200.664,84.70286425167265L200.8182857142857,140.72316183278767L200.89851428571427,142.86558787839917L200.91085714285714,134.5914378708515L200.9664,163.3051165809425L201.3552,146.3186774438677L201.62674285714286,152.3085917095439L201.6576,135.13058401429308L202.05874285714287,181.41850519459695L202.42285714285714,156.33801905653223L202.6512,140.24948358105925L202.68205714285716,143.1115668034181L202.7129142857143,161.88404102308246L202.91657142857144,152.52525391272053L203.0153142857143,112.39788378409754L203.23131428571426,127.76425271832314L203.29302857142858,131.92553390892078L203.30537142857145,138.09812174966703L203.33005714285713,121.99948761218157L203.35474285714287,113.06886336981103L203.67565714285715,150.27129375554907L204.05211428571428,172.32932175796194L204.05828571428572,125.1480056116214L204.06445714285715,154.08656826386084L204.66925714285713,135.26288668732516L205.01485714285715,179.83792178028335L205.2864,155.12828095278775L205.37897142857145,152.39856160747317L205.49622857142856,148.24629780800583L205.56411428571428,138.56174214205777L205.84182857142858,141.12210998562378L205.95908571428572,127.56444201983798L206.064,119.020769943913L207.10080000000002,113.40305767774295L207.4649142857143,174.90859144062807L207.63771428571428,185.11643121019006L207.92777142857142,173.0942495023975L207.94628571428572,138.97619531131707L208.00182857142858,119.3671030475973L208.4153142857143,179.07488115955718L208.51405714285713,109.03045943436715L208.5510857142857,178.8717858457508L209.06331428571428,184.26416534034965L209.088,163.70175938265254L209.2176,164.89460517903072L209.55085714285715,136.07286058473758L210.00137142857142,199.22294615535066L210.08777142857141,170.77888131965523L210.29142857142855,123.02806183982354L210.3408,145.81119417606925L210.3654857142857,140.78624276802518L210.71725714285716,138.47067057190893L210.72959999999998,171.1065267982821L210.8592,149.0480295651091L211.2048,141.25276015032657L211.40845714285715,153.71212211724085L211.64914285714286,149.22313424400411L212.0009142857143,121.19481806249287L212.62422857142857,196.44443701164653L212.74148571428572,162.91838882920834L213.61165714285713,101.9080873310136L214.16091428571428,120.42405553556118L214.21028571428573,91.45242231539808L214.33371428571428,157.28025482430195L214.5497142857143,146.50993998198268L214.66697142857143,171.87140353937417L214.98171428571428,117.06232315896507L215.06811428571427,121.72980233310506L215.16685714285714,138.43519264617217L215.2470857142857,150.88531280724476L216.2592,138.69763545047206L216.27154285714286,182.66227272912286L216.6418285714286,162.3628196091606L216.81462857142859,175.05533826053858L217.37005714285715,162.1237159348451L217.3824,122.87507221066895L217.44411428571428,164.68591989877706L217.89462857142857,130.7272205541197L218.27725714285714,139.6406872717377L218.32045714285715,127.26758215934612L218.5302857142857,163.67568647345672L219.14125714285714,162.70213465277965L219.456,170.3417622645457L219.69668571428574,80.35678774691544L219.72137142857142,143.1760758322735L220.0361142857143,147.0406807744159L220.20274285714288,197.59412377875728L220.39405714285715,89.65792067778798L220.4249142857143,112.78442792379512L220.56685714285715,134.53843519628907L220.75817142857142,116.33862651741273L221.0297142857143,133.8785947407954L221.36914285714286,150.20421415818137L221.4678857142857,147.34398745752586L221.6838857142857,167.4412429225273L221.7209142857143,82.21481914918583L221.79497142857144,165.034639958937L221.94925714285714,144.96243733626144L222.31954285714286,198.63694834057242L222.38125714285715,88.17657956925149L222.42445714285714,139.7746424530991L222.5293714285714,150.82659775821062L222.6713142857143,191.23298677777012L222.77622857142856,129.4157613821041L222.9366857142857,164.25455402081403L223.18354285714287,160.27423269294488L223.48594285714285,176.55178655941899L223.55382857142857,137.57919333158776L223.7081142857143,187.22316511602213L224.0537142857143,164.40075000461476L224.12777142857144,166.34652755903795L224.208,161.74298617630623L224.94857142857143,155.35179800533044L225.21394285714285,100.13878134509119L225.28182857142855,170.9916672687261L225.29417142857142,149.2866640086644L225.31885714285715,163.96854767181838L225.56571428571428,143.19980258766847L225.76937142857142,106.82509526287994L225.86811428571428,135.8489763081217L225.98537142857143,157.79946886110477L226.32479999999998,154.198571606181L226.98514285714285,153.37158299337787L227.45417142857144,124.89294809145994L227.50354285714286,95.22681254356239L227.50971428571427,153.16652915118118L227.97257142857143,145.46504468442154L228.0528,119.36000338218246L228.13920000000002,179.72861141449988L228.34902857142856,84.77547261147544L228.96617142857144,176.94590979596026L229.2192,160.46998352528763L229.38582857142856,176.26523957498227L229.5401142857143,172.18004517221394L229.59565714285714,151.44169808078843L229.6326857142857,152.02205492577588L229.68205714285713,178.5618793299923L229.72525714285715,173.28808260902477L229.84868571428572,162.80467177454668L229.92274285714285,144.00383969589782L230.10171428571428,135.2221656178769L230.61394285714286,180.05729736133407L231.1878857142857,136.25286158460838L231.39154285714284,178.12213870302702L231.82354285714285,85.07959534808133L231.9654857142857,117.50282883608284L232.20617142857142,183.12933074686532L232.416,146.46283329392855L232.78011428571426,155.56211539257603L232.83565714285714,139.16186788298475L233.07634285714286,140.01829562565456L233.39725714285714,149.99463121908215L233.63177142857143,139.98359295073897L233.76754285714287,202.6220129793868L233.95885714285714,133.79725460858586L234.18102857142856,132.08527638075444L234.2057142857143,148.92207170800808L234.2550857142857,182.0234456511501L234.64388571428572,157.0361120196489L234.6624,130.31007440832371L235.1808,126.51597648823204L235.3104,137.27792678221775L235.38445714285714,154.37371708775083L235.45234285714287,147.92703727904993L235.55108571428573,158.2138200236771L235.63748571428573,87.64420666982635L235.7670857142857,115.30283021633156L235.90902857142856,183.97011066375015L236.02011428571427,131.12345532908176L236.14354285714288,164.31069850133588L237.1248,149.87424292709105L237.13714285714286,177.0560566165771L237.3408,154.67671775079978L237.6246857142857,173.26703862949776L238.14925714285712,163.28734701606803L238.53805714285716,174.85721067238885L239.18605714285715,135.44060273740726L239.27245714285715,150.09741315689797L239.56868571428572,144.8678159334052L239.85874285714286,129.66039381885471L240.15497142857143,114.72157571249856L240.32777142857145,175.69755196051958L240.66102857142857,182.32435517711565L241.06217142857142,165.05026738338458L241.06834285714285,166.77291551067566L241.1424,138.36468562412148L241.14857142857142,152.78365725221542L241.62377142857142,142.83882132373176L241.6608,101.8721605758541L242.01874285714285,158.40559259522706L242.14217142857143,159.53305210524167L242.30262857142856,151.18496765096026L242.51862857142856,163.63202761142298L243.09874285714287,144.79041325931365L243.37028571428573,92.82176008161444L243.61714285714285,144.75671024993062L243.89485714285715,157.43726351692413L243.9504,151.49708771182654L244.39474285714286,171.14160689793957L244.65394285714285,139.57801436324817L244.74651428571428,177.44286597366084L244.77737142857143,175.09547789187098L244.85760000000002,179.15186560623204L244.95017142857142,154.92763379946925L245.46857142857144,125.82269824074152L246.55474285714286,175.50931902100834L246.60411428571427,149.81499744328454L246.85714285714286,163.58681824774695L246.8633142857143,175.6246375806558L247.06697142857143,180.14311558710267L247.18422857142858,157.4568283994897L247.35085714285714,144.53623299666035L247.52982857142857,162.67540890078706L247.5606857142857,154.16089033600517L247.57302857142858,185.2876596349793L247.69645714285716,202.27195663162723L248.39382857142857,97.72338540508196L248.46171428571427,157.76021668794922L248.5296,150.61948338093666L248.93691428571427,141.0530922612032L248.94925714285714,129.74667107471478L249.01097142857142,106.7321467696904L249.06034285714287,195.90513785817444L249.27634285714288,124.76709224104594L249.61577142857143,122.24346720613539L250.1033142857143,170.6460890145256L250.13417142857142,174.25196419577472L250.31931428571428,130.9277452994138" style="fill: none;" fill="none"></path></g></g></g></g></g></g><g transform="translate(60, 177)" clip-path="url(#clip_1)"><clipPath id="clip_1"><rect width="270" height="22"></rect></clipPath><g><g><line x1="0" y1="0" x2="0" y2="5" style="visibility: inherit;" fill="rgb(0, 0, 0)" stroke="rgb(204, 204, 204)" stroke-width="1px"></line><line x1="38.57142857142857" y1="0" x2="38.57142857142857" y2="5" style="visibility: inherit;" fill="rgb(0, 0, 0)" stroke="rgb(204, 204, 204)" stroke-width="1px"></line><line x1="77.14285714285714" y1="0" x2="77.14285714285714" y2="5" style="visibility: inherit;" fill="rgb(0, 0, 0)" stroke="rgb(204, 204, 204)" stroke-width="1px"></line><line x1="115.71428571428571" y1="0" x2="115.71428571428571" y2="5" style="visibility: inherit;" fill="rgb(0, 0, 0)" stroke="rgb(204, 204, 204)" stroke-width="1px"></line><line x1="154.28571428571428" y1="0" x2="154.28571428571428" y2="5" style="visibility: inherit;" fill="rgb(0, 0, 0)" stroke="rgb(204, 204, 204)" stroke-width="1px"></line><line x1="192.85714285714286" y1="0" x2="192.85714285714286" y2="5" style="visibility: inherit;" fill="rgb(0, 0, 0)" stroke="rgb(204, 204, 204)" stroke-width="1px"></line><line x1="231.42857142857142" y1="0" x2="231.42857142857142" y2="5" style="visibility: inherit;" fill="rgb(0, 0, 0)" stroke="rgb(204, 204, 204)" stroke-width="1px"></line><line x1="270" y1="0" x2="270" y2="5" style="visibility: inherit;" fill="rgb(0, 0, 0)" stroke="rgb(204, 204, 204)" stroke-width="1px"></line></g><g transform="translate(0, 8)"><text x="0" y="0" dx="0em" dy="0.95em" style="text-anchor: middle; visibility: hidden; font-family: Roboto, sans-serif; font-size: 12px; font-weight: 200;" fill="rgb(50, 49, 63)" stroke="none" stroke-width="1px">-50k</text><text x="38.57142857142857" y="0" dx="0em" dy="0.95em" style="text-anchor: middle; visibility: inherit; font-family: Roboto, sans-serif; font-size: 12px; font-weight: 200;" fill="rgb(50, 49, 63)" stroke="none" stroke-width="1px">0</text><text x="77.14285714285714" y="0" dx="0em" dy="0.95em" style="text-anchor: middle; visibility: inherit; font-family: Roboto, sans-serif; font-size: 12px; font-weight: 200;" fill="rgb(50, 49, 63)" stroke="none" stroke-width="1px">50k</text><text x="115.71428571428571" y="0" dx="0em" dy="0.95em" style="text-anchor: middle; visibility: inherit; font-family: Roboto, sans-serif; font-size: 12px; font-weight: 200;" fill="rgb(50, 49, 63)" stroke="none" stroke-width="1px">100k</text><text x="154.28571428571428" y="0" dx="0em" dy="0.95em" style="text-anchor: middle; visibility: inherit; font-family: Roboto, sans-serif; font-size: 12px; font-weight: 200;" fill="rgb(50, 49, 63)" stroke="none" stroke-width="1px">150k</text><text x="192.85714285714286" y="0" dx="0em" dy="0.95em" style="text-anchor: middle; visibility: inherit; font-family: Roboto, sans-serif; font-size: 12px; font-weight: 200;" fill="rgb(50, 49, 63)" stroke="none" stroke-width="1px">200k</text><text x="231.42857142857142" y="0" dx="0em" dy="0.95em" style="text-anchor: middle; visibility: inherit; font-family: Roboto, sans-serif; font-size: 12px; font-weight: 200;" fill="rgb(50, 49, 63)" stroke="none" stroke-width="1px">250k</text><text x="270" y="0" dx="0em" dy="0.95em" style="text-anchor: middle; visibility: hidden; font-family: Roboto, sans-serif; font-size: 12px; font-weight: 200;" fill="rgb(50, 49, 63)" stroke="none" stroke-width="1px">300k</text></g><line x1="0" y1="0" x2="270" y2="0" fill="rgb(0, 0, 0)" stroke="rgb(204, 204, 204)" stroke-width="1px"></line></g></g></g></g></svg>