<svg viewBox="0 0 330 200" xmlns="http://www.w3.org/2000/svg"><g><g><g><g><g><line x1="61.953125" y1="177.921875" x2="56.953125" y2="177.921875" style="visibility: inherit;" fill="rgb(0, 0, 0)" stroke="rgb(204, 204, 204)" stroke-width="1px"></line><line x1="61.953125" y1="164.2355769230769" x2="56.953125" y2="164.2355769230769" style="visibility: inherit;" fill="rgb(0, 0, 0)" stroke="rgb(204, 204, 204)" stroke-width="1px"></line><line x1="61.953125" y1="150.54927884615387" x2="56.953125" y2="150.54927884615387" style="visibility: inherit;" fill="rgb(0, 0, 0)" stroke="rgb(204, 204, 204)" stroke-width="1px"></line><line x1="61.953125" y1="136.86298076923077" x2="56.953125" y2="136.86298076923077" style="visibility: inherit;" fill="rgb(0, 0, 0)" stroke="rgb(204, 204, 204)" stroke-width="1px"></line><line x1="61.953125" y1="123.1766826923077" x2="56.953125" y2="123.1766826923077" style="visibility: inherit;" fill="rgb(0, 0, 0)" stroke="rgb(204, 204, 204)" stroke-width="1px"></line><line x1="61.953125" y1="109.49038461538463" x2="56.953125" y2="109.49038461538463" style="visibility: inherit;" fill="rgb(0, 0, 0)" stroke="rgb(204, 204, 204)" stroke-width="1px"></line><line x1="61.953125" y1="95.80408653846155" x2="56.953125" y2="95.80408653846155" style="visibility: inherit;" fill="rgb(0, 0, 0)" stroke="rgb(204, 204, 204)" stroke-width="1px"></line><line x1="61.953125" y1="82.11778846153845" x2="56.953125" y2="82.11778846153845" style="visibility: inherit;" fill="rgb(0, 0, 0)" stroke="rgb(204, 204, 204)" stroke-width="1px"></line><line x1="61.953125" y1="68.4314903846154" x2="56.953125" y2="68.4314903846154" style="visibility: inherit;" fill="rgb(0, 0, 0)" stroke="rgb(204, 204, 204)" stroke-width="1px"></line><line x1="61.953125" y1="54.745192307692314" x2="56.953125" y2="54.745192307692314" style="visibility: inherit;" fill="rgb(0, 0, 0)" stroke="rgb(204, 204, 204)" stroke-width="1px"></line><line x1="61.953125" y1="41.058894230769226" x2="56.953125" y2="41.058894230769226" style="visibility: inherit;" fill="rgb(0, 0, 0)" stroke="rgb(204, 204, 204)" stroke-width="1px"></line><line x1="61.953125" y1="27.372596153846175" x2="56.953125" y2="27.372596153846175" style="visibility: inherit;" fill="rgb(0, 0, 0)" stroke="rgb(204, 204, 204)" stroke-width="1px"></line><line x1="61.953125" y1="13.686298076923087" x2="56.953125" y2="13.686298076923087" style="visibility: inherit;" fill="rgb(0, 0, 0)" stroke="rgb(204, 204, 204)" stroke-width="1px"></line><line x1="61.953125" y1="0" x2="56.953125" y2="0" style="visibility: inherit;" fill="rgb(0, 0, 0)" stroke="rgb(204, 204, 204)" stroke-width="1px"></line></g><g transform="translate(51.953125, 0)"><text x="0" y="177.921875" dx="0em" dy="0.3em" style="text-anchor: end; visibility: hidden; font-family: Roboto, sans-serif; font-size: 12px; font-weight: 200;" fill="rgb(50, 49, 63)" stroke="none" stroke-width="1px">0.065</text><text x="0" y="164.2355769230769" dx="0em" dy="0.3em" style="text-anchor: end; visibility: inherit; font-family: Roboto, sans-serif; font-size: 12px; font-weight: 200;" fill="rgb(50, 49, 63)" stroke="none" stroke-width="1px">0.07</text><text x="0" y="150.54927884615387" dx="0em" dy="0.3em" style="text-anchor: end; visibility: hidden; font-family: Roboto, sans-serif; font-size: 12px; font-weight: 200;" fill="rgb(50, 49, 63)" stroke="none" stroke-width="1px">0.075</text><text x="0" y="136.86298076923077" dx="0em" dy="0.3em" style="text-anchor: end; visibility: inherit; font-family: Roboto, sans-serif; font-size: 12px; font-weight: 200;" fill="rgb(50, 49, 63)" stroke="none" stroke-width="1px">0.08</text><text x="0" y="123.1766826923077" dx="0em" dy="0.3em" style="text-anchor: end; visibility: hidden; font-family: Roboto, sans-serif; font-size: 12px; font-weight: 200;" fill="rgb(50, 49, 63)" stroke="none" stroke-width="1px">0.085</text><text x="0" y="109.49038461538463" dx="0em" dy="0.3em" style="text-anchor: end; visibility: inherit; font-family: Roboto, sans-serif; font-size: 12px; font-weight: 200;" fill="rgb(50, 49, 63)" stroke="none" stroke-width="1px">0.09</text><text x="0" y="95.80408653846155" dx="0em" dy="0.3em" style="text-anchor: end; visibility: hidden; font-family: Roboto, sans-serif; font-size: 12px; font-weight: 200;" fill="rgb(50, 49, 63)" stroke="none" stroke-width="1px">0.095</text><text x="0" y="82.11778846153845" dx="0em" dy="0.3em" style="text-anchor: end; visibility: inherit; font-family: Roboto, sans-serif; font-size: 12px; font-weight: 200;" fill="rgb(50, 49, 63)" stroke="none" stroke-width="1px">0.1</text><text x="0" y="68.4314903846154" dx="0em" dy="0.3em" style="text-anchor: end; visibility: hidden; font-family: Roboto, sans-serif; font-size: 12px; font-weight: 200;" fill="rgb(50, 49, 63)" stroke="none" stroke-width="1px">0.105</text><text x="0" y="54.745192307692314" dx="0em" dy="0.3em" style="text-anchor: end; visibility: inherit; font-family: Roboto, sans-serif; font-size: 12px; font-weight: 200;" fill="rgb(50, 49, 63)" stroke="none" stroke-width="1px">0.11</text><text x="0" y="41.058894230769226" dx="0em" dy="0.3em" style="text-anchor: end; visibility: hidden; font-family: Roboto, sans-serif; font-size: 12px; font-weight: 200;" fill="rgb(50, 49, 63)" stroke="none" stroke-width="1px">0.115</text><text x="0" y="27.372596153846175" dx="0em" dy="0.3em" style="text-anchor: end; visibility: inherit; font-family: Roboto, sans-serif; font-size: 12px; font-weight: 200;" fill="rgb(50, 49, 63)" stroke="none" stroke-width="1px">0.12</text><text x="0" y="13.686298076923087" dx="0em" dy="0.3em" style="text-anchor: end; visibility: hidden; font-family: Roboto, sans-serif; font-size: 12px; font-weight: 200;" fill="rgb(50, 49, 63)" stroke="none" stroke-width="1px">0.125</text><text x="0" y="0" dx="0em" dy="0.3em" style="text-anchor: end; visibility: hidden; font-family: Roboto, sans-serif; font-size: 12px; font-weight: 200;" fill="rgb(50, 49, 63)" stroke="none" stroke-width="1px">0.13</text></g><line x1="61.953125" y1="0" x2="61.953125" y2="177.921875" fill="rgb(0, 0, 0)" stroke="rgb(204, 204, 204)" stroke-width="1px"></line></g></g><g transform="translate(61, 0)" clip-path="url(#clip_0)"><clipPath id="clip_0"><rect width="268" height="177"></rect></clipPath><g><g><g><line x1="0" y1="0" x2="0" y2="177.921875" fill="rgb(0, 0, 0)" stroke="rgb(60, 60, 60)" stroke-width="1px" opacity="0.25"></line><line x1="33.505859375" y1="0" x2="33.505859375" y2="177.921875" fill="rgb(0, 0, 0)" stroke="rgb(60, 60, 60)" stroke-width="1px" opacity="0.25"></line><line x1="67.01171875" y1="0" x2="67.01171875" y2="177.921875" fill="rgb(0, 0, 0)" stroke="rgb(60, 60, 60)" stroke-width="1px" opacity="0.25"></line><line x1="100.517578125" y1="0" x2="100.517578125" y2="177.921875" fill="rgb(0, 0, 0)" stroke="rgb(60, 60, 60)" stroke-width="1px" opacity="0.25"></line><line x1="134.0234375" y1="0" x2="134.0234375" y2="177.921875" fill="rgb(0, 0, 0)" stroke="rgb(60, 60, 60)" stroke-width="1px" opacity="0.25"></line><line x1="167.529296875" y1="0" x2="167.529296875" y2="177.921875" fill="rgb(0, 0, 0)" stroke="rgb(60, 60, 60)" stroke-width="1px" opacity="0.25"></line><line x1="201.03515625" y1="0" x2="201.03515625" y2="177.921875" fill="rgb(0, 0, 0)" stroke="rgb(60, 60, 60)" stroke-width="1px" opacity="0.25"></line><line x1="234.541015625" y1="0" x2="234.541015625" y2="177.921875" fill="rgb(0, 0, 0)" stroke="rgb(60, 60, 60)" stroke-width="1px" opacity="0.25"></line><line x1="268.046875" y1="0" x2="268.046875" y2="177.921875" fill="rgb(0, 0, 0)" stroke="rgb(60, 60, 60)" stroke-width="1px" opacity="0.25"></line></g><g><line x1="0" y1="177.921875" x2="268.046875" y2="177.921875" fill="rgb(0, 0, 0)" stroke="rgb(60, 60, 60)" stroke-width="1px" opacity="0.25"></line><line x1="0" y1="164.2355769230769" x2="268.046875" y2="164.2355769230769" fill="rgb(0, 0, 0)" stroke="rgb(60, 60, 60)" stroke-width="1px" opacity="0.25"></line><line x1="0" y1="150.54927884615387" x2="268.046875" y2="150.54927884615387" fill="rgb(0, 0, 0)" stroke="rgb(60, 60, 60)" stroke-width="1px" opacity="0.25"></line><line x1="0" y1="136.86298076923077" x2="268.046875" y2="136.86298076923077" fill="rgb(0, 0, 0)" stroke="rgb(60, 60, 60)" stroke-width="1px" opacity="0.25"></line><line x1="0" y1="123.1766826923077" x2="268.046875" y2="123.1766826923077" fill="rgb(0, 0, 0)" stroke="rgb(60, 60, 60)" stroke-width="1px" opacity="0.25"></line><line x1="0" y1="109.49038461538463" x2="268.046875" y2="109.49038461538463" fill="rgb(0, 0, 0)" stroke="rgb(60, 60, 60)" stroke-width="1px" opacity="0.25"></line><line x1="0" y1="95.80408653846155" x2="268.046875" y2="95.80408653846155" fill="rgb(0, 0, 0)" stroke="rgb(60, 60, 60)" stroke-width="1px" opacity="0.25"></line><line x1="0" y1="82.11778846153845" x2="268.046875" y2="82.11778846153845" fill="rgb(0, 0, 0)" stroke="rgb(60, 60, 60)" stroke-width="1px" opacity="0.25"></line><line x1="0" y1="68.4314903846154" x2="268.046875" y2="68.4314903846154" fill="rgb(0, 0, 0)" stroke="rgb(60, 60, 60)" stroke-width="1px" opacity="0.25"></line><line x1="0" y1="54.745192307692314" x2="268.046875" y2="54.745192307692314" fill="rgb(0, 0, 0)" stroke="rgb(60, 60, 60)" stroke-width="1px" opacity="0.25"></line><line x1="0" y1="41.058894230769226" x2="268.046875" y2="41.058894230769226" fill="rgb(0, 0, 0)" stroke="rgb(60, 60, 60)" stroke-width="1px" opacity="0.25"></line><line x1="0" y1="27.372596153846175" x2="268.046875" y2="27.372596153846175" fill="rgb(0, 0, 0)" stroke="rgb(60, 60, 60)" stroke-width="1px" opacity="0.25"></line><line x1="0" y1="13.686298076923087" x2="268.046875" y2="13.686298076923087" fill="rgb(0, 0, 0)" stroke="rgb(60, 60, 60)" stroke-width="1px" opacity="0.25"></line><line x1="0" y1="0" x2="268.046875" y2="0" fill="rgb(0, 0, 0)" stroke="rgb(60, 60, 60)" stroke-width="1px" opacity="0.25"></line></g></g></g><g><g><line x1="0" y1="355.84375" x2="268.046875" y2="355.84375" fill="rgb(0, 0, 0)" stroke="rgb(153, 153, 153)" stroke-width="1.5px"></line></g></g><g><g><line x1="33.505859375" y1="0" x2="33.505859375" y2="177.921875" fill="rgb(0, 0, 0)" stroke="rgb(153, 153, 153)" stroke-width="1.5px"></line></g></g><g><g><g><g><g><path stroke="rgb(255, 112, 67)" stroke-width="2px" d="M41.8957265625,-3.888519952922427L42.2281046875,1.523986157226464L42.2709921875,-0.09408680078513941L42.458625000000005,14.061860176813264L42.6784234375,6.1323023742189156L43.4075109375,-3.245691497980682L43.686279687500004,2.3923562098729723L43.7398890625,21.736855940864245L43.906078125,-1.7289731096759915L44.013296875,21.31714794082739L44.0186578125,30.837660887790296L44.6512484375,33.53713742266115L46.1523109375,29.82399989268852L46.565103125,49.72124214055751L46.591907812500004,49.04646018317056L46.7044875,39.76993796242209L46.7205703125,29.247873403724324L46.924285937499995,45.8856255641757L47.3209953125,56.714936889446115L47.326356249999996,52.14806464356054L47.4389359375,24.465638838613895L47.6319296875,30.0579983710676L47.6748171875,32.068214414452484L47.894615625,35.81159946591946L47.9428640625,40.975302517111224L48.023278125000004,51.73870704304878L48.0715265625,57.355481949052944L48.26988125,30.943429731615353L48.344934375,23.041001528741962L48.4360703125,39.41226997564719L48.58081562500001,46.58735340601038L48.752365624999996,68.31027565341422L48.843501562499995,60.08603185741305L49.4439265625,68.08857840887818L50.033629687499996,63.76365664891209L50.038990625000004,54.14471370874963L50.146209375,34.056483236786775L50.1515703125,51.40580839895887L50.3660078125,50.92754168133915L50.6554984375,49.8062397024885L50.7519953125,70.26785065360532L50.8806578125,60.38566681956314L51.0093203125,60.75476250283803L51.025403125,71.24579565222564L51.497165625,60.407343905077084L51.754490625,61.570548679703656L52.1780046875,71.78503729905943L52.269140625,59.40198824045468L52.408525,70.66069404569899L52.6229625,66.52618760764106L52.805234375000005,53.80538166475113L52.891009374999996,66.47667634405931L53.094725000000004,75.97997801117582L53.1322515625,65.47458706201259L53.169778125,81.69555860071337L53.1858609375,67.67800086556898L53.28771875,64.69695805719142L53.405659375,79.95429641560905L53.780925,78.21094236281307L54.134746875,67.54768222141762L54.4939296875,40.719977161409986L54.5904265625,65.68861296980283L54.815585937499996,52.84639080881527L55.013940625000004,64.49222391872584L55.0729109375,75.41336826137704L55.399928125,72.16536564653931L55.5339515625,71.99674699889268L55.598282812499995,79.73711100157125L55.614365625,77.83621102527626L55.73230625,77.35124582160597L55.9199390625,80.08950300576852L55.978909375,97.81375248586944L56.1665421875,78.117736744709L56.3273703125,90.24831985489698L56.6543875,70.58246704703006L56.707996875,67.39648343500066L57.383475,67.85958265837931L57.8177109375,75.12548938542591L57.8391546875,82.51575442384059L57.973178125,106.14870274757307L58.230503125,91.87336265420548L58.4288578125,82.60760242727318L58.64865625,77.7341654952409L58.691543749999994,83.74635696593293L58.7397921875,92.29341800153087L58.86309375,85.51846480745203L59.115057812500005,68.36663341031196L59.409909375,62.608718800063045L59.431353125,67.04163684536385L59.474240625,64.2247363533134L59.67795625,65.50832758217918L59.8280625,80.0873200108206L60.734060937500004,102.53685084420785L60.782309375,91.99204677985767L60.79303125,95.30122363649038L61.018190625,97.59834456203373L61.039634375,107.1443040869747L61.1414921875,109.74599142909616L61.3130421875,117.40472299434927L61.382734375000005,92.93580125209985L61.5167578125,83.74753722972474L61.58645,75.85783369302679L61.6668640625,77.20690824577629L61.715112500000004,106.27744821484268L61.8920234375,110.22862678019125L62.0206859375,109.2096265197249L62.25120625,95.04471556516049L62.4710046875,116.99694556300699L62.696164062499996,90.1953529588423L62.7444125,86.20314971652301L63.0392640625,82.63747142225814L63.8862921875,99.58537103702315L64.22403125,121.09385855687054L64.3741375,100.91475619223877L64.770846875,107.858234474814L64.95311875,113.63981733674397L65.0228109375,109.38857719424124L65.435603125,114.52882666979077L65.5696265625,105.63802352239647L65.6554015625,110.18261789918834L65.9556140625,114.72947292265718L66.26654843749999,100.96025778787025L66.41129375,98.45186791356456L66.4327375,107.33803242076755L66.8776953125,96.57153326458939L66.9741921875,94.71954225017872L67.16718593750001,77.02231299613426L67.45131562499999,95.41097533596188L67.46203750000001,109.11308479096077L67.5907,105.1037444314246L67.5960609375,86.74284840690515L67.622865625,85.81815538945172L67.64967031249999,103.04082630619446L68.502059375,105.85768311254014L68.6253609375,86.54919762194785L68.695053125,78.88251227794852L68.7218578125,88.39472248605877L68.80763281249999,111.66787644914177L68.83443749999999,108.87412129144282L68.8826859375,122.03073812185819L68.9684609375,105.2047104101941L69.2793953125,109.4934713626153L69.58496875,112.05886394081303L69.6921875,108.68541232378836L69.97095625,97.34697974921315L70.18539375,92.84203355286036L70.22828125000001,92.3559532697066L70.582103125,112.43615909559605L70.5981859375,114.94687399135645L70.9841734375,121.59837761957647L71.010978125,108.81623058122378L71.0217,108.4262836084404L71.3219125,119.07117933039851L71.6596515625,116.77161833853208L71.675734375,95.90609747726822L71.7079,115.06099195097198L71.91161562500001,119.41401011185512L72.1421359375,102.2648214513243L72.38873906250001,103.35071317873025L72.50131875,105.89149917566137L72.68359062500001,108.4478180547717L72.84441875,111.01686656897857L72.9248328125,105.12572076617307L72.99988593750001,93.42627491817206L73.36979062500001,102.46623580917687L73.519896875,92.12952989503493L73.541340625,113.30957192297934L73.55206249999999,119.96871794617411L73.74505624999999,114.34101906708504L73.8093875,123.94793418031638L73.9434109375,125.71558392919582L74.2114578125,112.01721233781471L74.270428125,127.12412307739572L74.484865625,136.13871167983305L74.570640625,126.24090353001839L74.9298234375,121.99154144014689L74.94590625000001,139.1566942310689L75.085290625,127.12274662100994L75.28900625,105.85749004329325L75.2943671875,121.88332501751235L75.4337515625,124.11014750949543L75.6160234375,128.6148429342536L75.83046093749999,126.54526046500557L76.31830624999999,132.45139954975244L77.04739375,128.49136505485518L77.165334375,113.24866853069445L77.551321875,115.64686246601795L77.8783390625,126.8923578849124L77.9533921875,109.43833825905249L77.980196875,79.9326970823447L78.41443281250001,113.83393740093786L78.5216515625,115.84797161810974L79.02557968750001,120.75742884122474L79.331153125,122.4357276646212L79.36331875,128.00517721966665L79.70641875,121.69514940530402L79.9262171875,123.93844981915306L79.9476609375,87.42446634937714L80.11385,99.01038981303667L80.27467812500001,74.52296329652518L80.42478437499999,102.5412334005985L80.553446875,110.98371562000602L80.56416875,113.31658150291186L80.8054109375,123.35641494976315L80.8590203125,111.58543613960138L81.05737500000001,127.49208029784367L81.0949015625,131.66615857702442L81.3093390625,141.15706199202876L81.67388281250001,114.71177359931569L81.7864625,139.35651653829342L81.93120781249999,129.63625518883677L82.06523125,122.44131892562272L82.4029703125,111.14228138864026L82.569159375,105.54686299614944L82.890815625,105.94883730895219L83.10525312499999,129.0155967836906L83.31432968749999,128.30099985673698L83.3786609375,114.5766029881552L83.42690937500001,112.274621745325L83.50732343749999,118.63606460767411L83.6038203125,133.20481194958387L83.6788734375,126.40029986272357L83.748565625,112.41116368004279L83.82897968750001,84.45134071944274L84.198884375,113.84961753000802L84.63848125,133.3270449274514L84.6867296875,147.25555521052524L84.78858749999999,131.50509243936207L85.3514859375,124.7245996983871L85.356846875,120.6123831620128L85.571284375,118.4889724223845L85.79108281250001,119.65609221675045L85.79644375,128.51763913487454L85.892940625,116.30176985073699L86.1127390625,139.0123272615325L86.2414015625,140.53322695400607L86.31109375,125.04637144118858L86.40222968750001,128.78274948997978L86.546975,119.52821763205316L86.6702765625,118.05970909722546L86.836465625,133.10104485064755L86.8418265625,132.95857563441996L86.8471875,109.45519900367262L86.900796875,100.13337148122731L86.97048906250001,119.45801468275747L87.0026546875,107.27301497488682L87.0777078125,103.68905033520004L87.45297343749999,112.61668048122861L87.59771875,123.66864147640258L87.7639078125,119.73303396659557L87.85504375,134.95303765904308L88.1391734375,118.68240829325214L88.230309375,125.05218075411912L88.2678359375,148.57931059068954L88.5573265625,142.19107447785353L88.616296875,122.39053107830257L88.94867500000001,127.27504763848884L88.9647578125,119.90523163765782L88.97011875,133.53767558916095L89.23280468749999,145.7546172522755L89.50085156249999,151.68305808311942L89.5330171875,146.91789672381313L89.538378125,127.05329790476937L89.57054375,127.10571444515732L89.80106406249999,135.00035817278535L89.8922,113.04444268149385L90.12272031250001,124.21824886064883L90.310353125,122.20468421978221L90.5087078125,122.32812996120157L90.5623171875,112.76347055293243L90.57303906249999,123.2159273027652L90.90541718749999,110.25032810971396L90.9590265625,122.49189596949554L90.996553125,102.9917333786687L92.5994734375,134.00586963597402L92.626278125,144.92389623548323L92.669165625,136.2029515013658L92.7656625,127.71775057933569L92.98010000000001,131.28891648852314L93.1087625,126.07455666789427L93.140928125,134.28265387350655L93.38753125,148.50006835105734L93.612690625,154.38367148208175L93.64485625,141.2171644035512L93.68774375,127.85994251356533L94.25064218749999,128.18543948784728L94.58838125000001,140.31602791675277L94.6687953125,131.7221913429836L94.8510671875,122.86209541366928L94.94756406249999,114.0271129738751L95.61768124999999,118.49323576337567L95.79459218749999,134.96259292076027L96.250271875,144.36492782544283L96.464709375,122.229040427074L96.571928125,122.54910824716538L96.6201765625,140.09529341543103L96.73275625,113.31284323959831L96.90966718749999,131.0585604459016L97.0597734375,122.31640989820357L97.1669921875,139.13826777934915L97.215240625,135.09405178726223L97.6387546875,143.47356258333608L97.729890625,122.48169741966359L98.02474218750001,118.8249203147255L98.287428125,128.4610898301884L98.8181609375,142.18660758906373L98.8396046875,141.18584579279627L99.1398171875,136.85114215029336L99.3328109375,138.18861431302687L99.499,136.75375074127513L99.57405312499999,143.7999962394247L99.77776875,127.03842739163693L99.99220625,124.85184232005022L100.01365,130.21620945118303L100.024371875,132.0662664887523L100.1369515625,119.04494140448503L100.1423125,117.7335885701181L100.2227265625,119.95964889114326L100.2870578125,124.87976499687382L100.431803125,124.00178442670396L100.442525,130.55469469278728L100.45324687499999,129.7981303840111L100.84995625,128.5262467658634L101.1019203125,127.19466572154366L101.353884375,142.6813945124915L101.675540625,145.33204475313917L102.7102015625,126.80474940573548L102.73164531249999,140.5018324249684L102.940721875,147.39245418020437L103.090828125,132.83605679153644L103.112271875,133.97696290113842L103.369596875,121.37450682633339L103.498259375,138.2320945689813L103.73414062500001,127.08095738792794L104.248790625,139.35204329696725L104.6401390625,134.6958619062243L104.87065937499999,143.74770079557734L105.1119015625,141.419261672576L105.320978125,138.97632788420808L105.48180624999999,130.5910529983911L105.6801609375,116.52871179641367L106.03934375,131.31560436718468L106.18945000000001,143.8173969956322L106.2323375,142.91657891599988L106.5807984375,152.45260440476696L106.68265625000001,145.35901876441378L106.7094609375,142.13678670916886L107.54040625,147.46043671222654L107.7923703125,138.47335010809513L108.151553125,143.07005821701156L108.44640468749999,143.21507553932597L108.494653125,140.34625233517602L108.63403749999999,135.6765401365882L108.848475,116.55154275155563L109.5507578125,124.65716149289311L109.609728125,139.79358364426201L109.70622499999999,151.24116104706226L109.98499375,140.05960776713408L110.02252031249999,145.56929005776573L110.49964375,130.36319404853944L110.53717031250001,136.85059092050054L110.7408859375,141.82562518566542L110.7730515625,142.26962147608788L110.84810468750001,142.41376841743752L110.89635312499999,153.93154154103058L111.4699734375,155.5698139788514L111.6951328125,133.161256085547L111.9417359375,149.73867765707507L112.0596765625,146.60314940557137L112.5957703125,152.88759421431715L112.99247968750001,152.18867406179496L113.1640296875,164.095062742796L113.233721875,150.08951817437043L113.255165625,152.24973694549382L113.5392953125,133.68881209449148L113.56073906249999,124.0481861165878L113.641153125,135.9731970333128L114.06466718749999,134.8471250097449L114.3112703125,140.5132050035616L114.31663125,144.0502199940641L114.338075,146.51846916459326L114.5525125,152.90989510245976L114.627565625,151.111472094397L114.70261875,144.37353279468178L114.7830328125,143.13601223615976L114.9545828125,144.99177469323288L115.0296359375,140.71833968412201L115.7533625,126.06806339364427L115.90346875,136.77642416502894L115.95171718750001,120.59875774049813L116.20904218749999,121.64824070999607L116.32698281249999,127.23692874454747L116.407396875,128.10109796571055L116.43956250000001,136.81769825936632L116.58966875,156.25567944010075L117.23298125000001,130.26262971180776L117.38308749999999,143.59462142835915L117.779796875,127.41045461133633L117.83340625,136.4254113730154L118.037121875,129.00387255103638L118.21403281250001,115.79491485925418L118.358778125,122.1953783883371L118.6429078125,111.3686238410018L118.90559375,122.18033923854739L119.495296875,126.94642655065037L119.731178125,124.85873799456307L119.9509765625,127.72405108826936L120.3155203125,148.0236932236603L120.32088125,154.69103949021817L120.6050109375,162.95936854388037L120.6157328125,167.55135380295576L121.0017203125,136.5505904837604L121.17863125,139.85055425579858L121.425234375,134.16284541930796L121.5270921875,131.90096542916555L121.6128671875,117.39086004429214L123.24259218750001,95.0518629462758L123.2640359375,108.56786804661665L123.79476874999999,111.49038441889638L123.96631875,106.27776670679262L124.041371875,119.08260562579679L124.0574546875,120.5896311871609L124.1861171875,144.63683632550885L124.4005546875,164.27568308048973L124.69540625,173.05889402203758L124.770459375,154.83856695880638L124.974175,149.03436325200906L125.09211562499999,136.6557883925842L125.327996875,146.24007610600796L125.3601625,145.70056357310062L125.3655234375,142.2695182206188L125.4512984375,154.85833710980145L125.51562968750001,165.49393038880822L125.9123390625,137.59675974057427L126.02491875000001,138.5971543610816L126.09461093750001,131.812595691449L126.1482203125,137.16709297818815L126.79689375000001,127.29023983865287L126.9952484375,141.33589721503094L127.7028921875,114.57616381283295L128.072796875,133.8545833239654L128.0781578125,139.142513777292L128.2818734375,147.17330282857512L128.373009375,133.91792140458475L128.42125781250002,132.0869499795805L128.6035296875,135.40632427302106L128.80188437500001,146.51921026222283L129.3647828125,123.97091800169227L129.4076703125,144.3510736774305L129.4291140625,154.7062314610891L129.6971609375,142.86232502140456L130.0724265625,147.4675799506385L130.517384375,152.36804227831144L130.6299640625,137.19138416830887L130.6942953125,133.530853851607L130.7371828125,132.13083024000858L130.75862656249998,142.85675152215111L130.7800703125,152.9018608801391L131.1553359375,147.14696780372924L131.525240625,153.5437161404378L131.825453125,151.68970240633226L132.2168015625,149.35719234928922L132.3454640625,150.82864752066743L132.425878125,159.11613104428645L132.55454062500002,166.73603775081855L132.6242328125,135.73318518378375L132.67248125,157.29432294661132L132.84403125,132.3464383554579L133.347959375,141.83999647819113L133.44445625,148.31925129425088L133.5034265625,150.9190508153738L134.10921249999998,151.66287807445514L134.1145734375,151.55799334249028L134.14673906250002,149.12032416669896L134.162821875,123.29099272258412L134.227153125,129.56425551502767L134.30756718749998,132.49467885148076L134.891909375,137.22143531139432L135.3583109375,142.5554572771809L135.61563593749997,141.9870027431819L135.93729218750002,152.34259238344157L135.9909015625,132.5357790164179L136.0123453125,141.5677512721034L136.01770625,145.83184943366763L136.5269953125,133.40573022863882L136.8969,136.09320688543227L137.1166984375,136.19759270413797L137.4276328125,142.70873129513197L137.5831,144.24488547050146L137.658153125,154.7603560707163L138.07630625000002,139.83905921309264L138.0923890625,139.63165342327056L138.33363125,133.9213845412132L138.7142578125,132.7387862254166L138.80003281249998,137.71615879804713L138.91261250000002,149.98231463958814L139.9151078125,142.49059583704172L140.02232656249998,148.31438814481243L140.20459843749998,145.48397353512365L140.2903734375,144.12387647927503L140.34934374999997,166.04769681628352L140.67100000000002,160.37693518148154L140.69244375,135.53229719753529L140.7621359375,124.15027202295961L140.84255000000002,125.54759331453198L141.4858625,121.85314448355305L142.4347484375,138.0684925126102L142.70815625,152.0872893935699L142.87970625,158.15391467010224L142.9279546875,165.56118311930766L143.0298125,167.45240578116727L143.126309375,153.83454091966848L143.41043906250002,149.6114405670735L143.5176578125,132.96509789558738L143.6355984375,151.02101827256834L143.7589,144.51489772797592L143.8500359375,134.7301657815507L143.86611875,142.16543977355272L143.8822015625,147.69549542623142L144.08055625,146.2780099168745L144.2306625,143.19844361859106L144.327159375,146.74687159302854L144.33788124999998,137.5812272768625L144.841809375,137.19531256685838L144.98655468750002,125.70097544253098L145.1259390625,147.76168469616792L145.2599625,164.95870766459282L145.2760453125,144.15216611669678L145.8443046875,135.02885833872668L145.8657484375,146.2265720032043L145.94616249999999,126.16504825857297L145.956884375,143.1545083687586L145.9836890625,148.78957275146576L146.0158546875,127.41685713539962L146.12843437499998,137.83475405538806L146.321428125,138.39094953976752L146.407203125,133.09780018772295L146.8199953125,156.93883071507648L147.0129890625,157.58076414427083L147.0558765625,148.16258373881968L147.0880421875,137.2476864586462L147.2274265625,147.30295802325566L147.2488703125,155.40173257622226L147.3775328125,142.3895913335419L147.436503125,148.2829817413221L147.5598046875,145.65622309759186L147.7956859375,149.55150858783676L148.2192,148.0507167091044L148.3746671875,138.70688249184965L148.62127031249997,149.42401307279587L149.24849999999998,145.43361933020967L149.259221875,138.3564729933426L149.3074703125,150.85476414046983L149.32891406250002,131.8170933155749L149.334275,128.6263541750424L149.3718015625,137.2653896389217L149.45757656249998,129.76946780901824L149.752428125,149.49103162279806L149.76315,144.40400107075806L149.98830937499997,135.7870367489746L150.0633625,138.04951464392767L150.48151562500001,156.35515496881735L150.6584265625,140.7311421842931L151.8271109375,119.01912433215756L151.9557734375,129.43610089020737L152.10051875000002,143.47091411490672L152.218459375,134.99459310690946L152.27206875000002,150.93503010260488L152.35784375,136.92871010175648L152.7170265625,136.68255482222114L152.9529078125,152.3596307536713L153.0172390625,135.34500444280883L153.1351796875,136.84166840897552L153.51580625,159.56886394112163L153.526528125,161.40453334872203L153.7248828125,164.28905467550484L153.98220781249998,168.3441974612953L154.24489375,175.57326667896814L154.341390625,166.39212039378165L154.5290234375,159.23499606144287L154.727378125,150.01990110175274L155.25275000000002,156.81013218199587L155.542240625,143.77220519194117L155.6762640625,128.70763302669775L156.4267953125,130.0245778246504L156.57154062499998,151.1649808754218L157.13443906249998,144.2185011283698L157.16124374999998,144.08112192272498L157.2309359375,146.29998108110823L157.3542375,142.16678386890248L157.41856875000002,144.27054574290085L158.254875,135.99792314502562L158.44786875,134.53361448536862L158.61941875,138.09059068847833L159.02685,155.66633899172166L159.03221093750003,137.5227985057488L159.530778125,147.3319063807156L160.0079015625,148.62825789658564L160.0186234375,144.8939721533465L160.3081140625,136.49352826463263L160.32419687499998,147.06117570620066L160.6994625,138.22515453263625L161.2301953125,140.4986149080618L161.953921875,138.3727259773099L162.35063125,135.78520281470202L162.5865125,105.59106287747416L162.618678125,106.53368444351271L163.390653125,115.85765750584257L164.11974062500002,117.2807476429833L164.23768125,112.62576840044449L164.3073734375,123.93273313472619L164.5432546875,129.68667991287515L164.7255265625,123.72393100124188L164.74697031250003,129.9017855441516L164.848828125,125.97008904548696L165.45997500000001,114.52447167022585L165.620803125,121.98727926931646L165.985346875,127.40968720104685L166.0604,146.79471100357202L166.2748375,146.15662321088124L166.59649374999998,132.63578694074715L166.65010312500002,152.7044678871147L166.70907343750002,152.85409500298505L166.7305171875,151.43281802083158L166.9020671875,162.09557288404787L166.93959375,161.24950093613876L167.0521734375,139.56744410312686L167.23980625000002,146.9532399377294L167.347025,141.3066429870983L167.357746875,146.5855885199782L167.44888281250002,161.33208224014936L167.5239359375,145.97079760180048L167.8563140625,141.0204144706805L167.86703593750002,144.31055136352197L168.17260937499998,149.0421541548268L168.5746796875,130.05335442696946L168.9070578125,134.27191220400957L169.7058375,133.86321861996305L169.952440625,137.31750552050894L170.0757421875,162.06847187745072L170.853078125,130.51819578874682L171.05143281250002,127.35948070781346L171.11576406249998,147.1398235824692L171.2551484375,134.74585621670275L171.3409234375,136.59738207989588L171.3516453125,109.70763595444654L171.3945328125,123.82573009118668L171.40525468750002,139.30789943924114L171.6304140625,149.97336723701994L171.9359875,143.87975649815752L172.0164015625,158.43990228948817L172.0217625,154.13690159531703L172.4345546875,137.8310787757415L172.48816406249998,148.91567826410815L172.55249531249999,149.30051581278624L172.8795125,134.20416918124025L173.233334375,129.98943081600893L173.2815828125,152.88499627646385L173.4531328125,151.1416528679834L173.50138124999998,149.01234912134262L173.54426875000001,142.76154164515629L173.58715625,144.23026874927606L173.75334531250002,142.0007083272054L173.7640671875,143.5609514804596L174.3430484375,142.172194237869L174.48779375,139.7718434521931L174.55748593750002,157.13039464947425L174.5682078125,162.0119172011987L174.61645625,181.04417200325963L174.9541953125,170.72061547961715L175.19007656250002,145.18406018047355L175.21688125,158.13777552052747L175.88163749999998,161.03401891502963L176.0799921875,169.6581757422981L176.10679687500001,162.96993390553646L176.13360156250002,149.42771340004978L176.31051250000002,151.56266525078894L176.3962875,165.0602642273338L176.5839203125,162.73582250750687L176.6375296875,161.09277275919163L176.6482515625,162.08220017866452L176.6696953125,155.50619524455306L176.69113906249999,141.14319957601154L176.9699078125,145.88507043403737L177.29692500000002,147.01698449297393L177.30228593750002,136.99017082461597L177.307646875,131.9989632549265L177.83301875,137.20227221271588L178.13323125000002,140.49590310821768L178.3691125,132.4443563293644L178.4495265625,130.2896251118858L178.55138437500003,147.99918795011058L178.6103546875,119.71062395960598L178.851596875,132.85316166846297L178.9534546875,144.95077449846195L179.044590625,155.42529939661605L179.97739375,160.16379337125784L180.2936890625,165.74377150818313L180.69575937500002,164.83905930762103L180.7118421875,163.6105717206081L180.76009062499998,155.37579789797525L181.1192734375,157.24164396539712L181.20504843749998,165.62811767167196L181.2372140625,155.61274841984073L181.682171875,149.05809693822124L181.703615625,152.69826629245173L181.8161953125,142.12708505276447L182.1056859375,122.75415552656781L182.497034375,116.13129385349255L182.57208749999998,116.84712728381494L182.7489984375,126.30904357823702L182.79188593749998,142.40869276397902L183.118903125,129.18218169771373L183.129625,136.7113562000729L183.2422046875,135.13588950507082L183.5424171875,138.40615854455947L183.719328125,154.41822494658527L183.9284046875,155.5052604524929L184.23397812500002,169.34562685940037L184.7754328125,152.8793937086916L184.877290625,162.8852617746735L185.63318281250002,166.61059845209638L186.11030625,147.2881721188205L186.15319374999999,157.7214351193126L186.4480453125,159.07327405050148L186.54990312500001,148.09745069737696L186.82331093750003,151.71047096720272L186.9841390625,139.11484312791535L187.05383125,147.45630716122722L187.933025,142.60623970192808L187.943746875,146.88924049250565L188.265403125,145.76174864427276L188.415509375,134.5974030370682L188.89799375,145.42697586690443L188.908715625,131.46611691313902L188.96232500000002,150.56586372531282L189.35367343750002,153.82585915274862L189.68605156249998,135.0205552785806L189.723578125,127.28868378361146L189.90585,135.84260059160385L190.4365828125,154.20102078457802L190.709990625,137.73329273811748L190.9405109375,133.23716635414524L191.21391875,151.6932163385526L191.3586640625,135.22896111048152L191.52485312500002,131.01621932979597L191.5516578125,138.8097635747952L191.67495937500001,157.21959159955333L192.0770296875,141.7095785650631L192.37188125,147.7085005217757L192.45765624999999,156.96444688559293L192.6452890625,161.28057783993134L192.67745468750002,166.1308281665704L192.7417859375,164.0296568184798L193.25107500000001,138.6800008700784L193.2886015625,147.38321582800813L193.3797375,154.33249049963138L193.5030390625,170.38380676298672L193.594175,159.1934017819906L193.733559375,161.72302997688573L194.21068281249998,141.78969324281766L194.269653125,134.79999598495087L194.4036765625,138.29049821775234L194.7038890625,124.64832907132413L194.7682203125,140.40195302596797L194.8379125,147.95503013135922L195.48122500000002,145.49421196072157L195.7117453125,171.17346841394564L195.770715625,179.2382510776081L195.7814375,172.916005489445L195.80288125,169.15491356116357L196.01731875000002,182.54880008018816L196.1942296875,171.13479687762648L196.2800046875,169.15323601827652L196.6767140625,161.6132847093175L197.700653125,181.285870801072L198.10808437499998,179.57005558291144L198.1777765625,161.688958880874L198.25282968750003,164.3476317755737L198.4351015625,162.26326980531516L198.9711953125,167.1810824610804L199.19099375,153.31931929628635L199.3357390625,158.2629852849945L199.4697625,162.3321017745626L199.5180109375,151.5635395380701L199.5501765625,154.00157106121338L199.5930640625,152.99784522760348L199.630590625,152.9408520315632L199.802140625,164.0445586521595L199.9576078125,150.95269261339743L200.402565625,134.6046234281362L200.9011328125,155.1126098310123L201.07804375,148.3382445930963L201.453309375,142.75100462353035L201.5766109375,141.95402609318742L201.7856875,143.40451595144583L201.96795937500002,146.52571478225516L202.2842546875,158.13129228051028L202.332503125,172.12592569888122L202.5415796875,149.42125280345576L202.8203484375,134.06869685687641L203.0240640625,156.18252386490622L203.1420046875,157.67945819100925L203.30819375000002,147.53498966880852L203.5011875,164.17327490643092L203.52263125,139.85326274065008L203.56551875,145.66334991724992L203.90325781250002,137.74411575665022L203.919340625,155.54914284280713L204.48223906249999,150.41752182066466L204.5465703125,162.65987590018275L204.605540625,155.6824032800467L204.691315625,130.05090799363495L204.76636875,136.57608722121282L204.87894843750001,145.07105716982483L205.00225,134.06779370348477L205.098746875,147.6869195745052L205.205965625,143.60754172925124L206.05835468749999,140.32747381077894L206.2459875,154.154834549201L206.49259062500002,145.47765363362853L207.8489078125,143.61918732484784L207.9239609375,144.98530346123093L208.1812859375,151.95361247513398L208.43325,169.80105977160343L208.84068125000002,155.24474486492986L209.130171875,162.9779701704832L209.4786328125,138.90374947594646L209.48399375,155.50125362094963L209.548325,161.49726611241925L209.5536859375,146.6848738292366L209.966478125,149.14033507068515L209.99864375,154.74552028818167L210.309578125,140.66046980319095L210.41679687500002,136.68780420218854L210.55618125,143.05415361884548L210.7438140625,158.61194396456762L211.4836234375,171.3469142264948L211.6980609375,167.9552277800669L211.939303125,170.6559224395694L211.98755156250002,158.49857410650938L212.37353906250002,160.17912687765838L212.5986984375,163.31554158644363L212.6791125,169.35200983581717L212.7059171875,146.3812347145017L212.775609375,147.1330036071219L212.8560234375,152.10204327505764L214.2498671875,163.58289382728827L214.29275468749998,145.1180530579205L214.512553125,153.51867593005116L214.5179140625,159.14837600263155L214.694825,161.30079174452152L214.79668281250002,156.0901137292365L214.94142812500002,158.7498928451755L215.09689531249998,160.30574694656906L215.1237,143.29455677382032L215.134421875,152.89471280199606L215.241640625,158.56624676042L215.90639687499998,159.8866691457155L215.9653671875,161.07550767242333L216.3191890625,163.2418466956948L216.3299109375,149.3161270857199L216.4264078125,149.5149497669166L216.61404062499997,155.42867670445915L216.90889218750002,167.06469546530025L217.33240625,147.60900530599807L217.3592109375,136.94136658012053L217.80416874999997,154.33331125291008L218.3402625,153.2720785810357L218.39923281249997,143.15789740554172L218.5278953125,157.79032307767264L219.015740625,162.2117067832186L219.02646249999998,152.16322529475116L219.187290625,165.61437753149025L219.1926515625,172.44606165823157L219.43389375,156.8658124241192L219.8252421875,163.82335106411105L220.2005078125,144.18718736781332L220.4363890625,130.03431571492897L220.5543296875,147.90578987061477L220.7258796875,140.93259301927156L220.8438203125,154.26797140070065L220.881346875,154.26277226768661L220.9295953125,158.38805346268438L220.9403171875,156.25155301481567L220.9510390625,161.7687927899377L221.0368140625,146.31108045376388L221.32094375,155.01146142728587L221.46032812500002,165.2146718121455L221.61579531249998,151.17548927731016L221.82487187499999,162.98975429872692L221.96425625,179.6661974904636L222.1411671875,181.87298888321436L222.3770484375,148.34508149964847L222.47890625,150.6804783266552L223.2347984375,157.26841970032447L223.58325937499998,170.43649570761872L223.7012,172.51199857399732L223.76017031249998,169.9976181160435L223.7708921875,147.70809398885905L223.7816140625,147.29970603524035L224.033578125,165.09244674628698L224.1676015625,161.45198512829927L224.3177078125,155.35976849692884L224.36595625,148.20956244514963L224.6179203125,133.3756022310569L224.7144171875,141.22736721133765L224.869884375,158.25437776879855L224.987825,149.00525927186493L225.30948125,169.01558949152786L225.7651609375,155.04849851907542L225.89918437499998,156.18241949306372L226.10826093749998,160.0977774355474L226.29589375,143.025335373667L226.57466250000002,142.43872333095885L226.61755,137.33010068307976L227.23405781250003,130.03413135384417L227.293028125,149.1136750892257L227.33591562499998,143.64066566922762L227.571796875,148.84156217551825L227.97922812500002,137.78244736992204L228.0274765625,151.9990092157229L228.95491875000002,162.49691879293437L228.9817234375,157.24915250088597L229.26049218749998,164.09954383404013L229.4052375,166.0614400948366L229.75905937500002,166.10413156292714L229.76978125,153.0854455240962L229.823390625,153.34484460512797L229.85555624999998,168.19790403686693L229.9574140625,162.24429619715443L229.98421875,145.80618169867685L229.9895796875,151.85946431083883L230.1396859375,151.90187173701446L230.252265625,154.93234869411822L230.295153125,159.84168183542266L230.48814687499998,170.24217601488107L231.09929375000002,155.70240875241777L231.2065125,155.0830868461036L231.324453125,158.77166363066414L231.33517500000002,152.02699535139257L231.3512578125,146.91536564568926L231.4155890625,140.61123699713704L231.49064218750001,148.13534663307962L231.5978609375,151.1128259321006L231.624665625,145.71829664998043L231.64074843749998,140.37655776586956L231.91415625,152.48961069114338L232.28406093750002,158.5189206123319L232.3591140625,160.5412253773135L232.4020015625,144.95224851503733L232.55746875,140.34949745994436L232.85768125,158.14070319024466L232.91129062500002,165.5291013724429L233.02923125,164.16172738130248L233.9030640625,168.0547146036394L234.5356546875,143.748603016226" style="fill: none;" fill="none"></path></g></g></g></g><g opacity="0.20000000298023224"><g><g><g><path stroke="rgb(255, 112, 67)" stroke-width="2px" d="M39.853209375,-65.83103260011052L40.217753125,1.22190955610803L40.228474999999996,-36.857071268730444L41.5151,-74.63862346900768L41.600875,14.785544022058074L41.616957812500004,-29.300785301683018L41.8206734375,-35.80130570123974L41.8957265625,34.977651931345484L42.2281046875,9.642745321043416L42.2709921875,-2.5211962375503045L42.458625000000005,35.29578064188649L42.6784234375,-5.762034329227524L43.4075109375,-17.312682305964124L43.686279687500004,10.849427771539654L43.7398890625,50.75360553711655L43.906078125,-36.92771668531572L44.013296875,55.8863295164819L44.0186578125,45.118430308209604L44.6512484375,37.58635222496322L46.1523109375,24.254293597733188L46.565103125,79.56710551234966L46.591907812500004,48.03428724709039L46.7044875,25.8551546313012L46.7205703125,13.464776565678997L46.924285937499995,70.84225380485161L47.3209953125,72.95890387735116L47.326356249999996,45.297756274732265L47.4389359375,-17.057999868805584L47.6319296875,38.44653766974809L47.6748171875,35.0835384795299L47.894615625,41.42667704311988L47.9428640625,48.72085709389872L48.023278125000004,67.8838138319552L48.0715265625,65.78064430805927L48.26988125,-8.67464859454102L48.344934375,11.187359224431797L48.4360703125,63.969172646005L48.58081562500001,57.349978551555154L48.752365624999996,100.89465902452001L48.843501562499995,47.749666163411284L49.4439265625,80.09239823607585L50.033629687499996,57.276274008962986L50.038990625000004,39.71629929850596L50.146209375,3.9241375288424796L50.1515703125,77.42979614221706L50.3660078125,50.210141604909545L50.6554984375,48.12428673421248L50.7519953125,100.96026708028064L50.8806578125,45.56239106849983L51.0093203125,61.30840602775034L51.025403125,86.98234537630702L51.497165625,44.149666284354275L51.754490625,63.31535584164355L52.1780046875,87.10677022809307L52.269140625,40.82741465254759L52.408525,87.54875275356552L52.6229625,60.324427950554174L52.805234375000005,34.724172750416294L52.891009374999996,85.48361836302166L53.094725000000004,90.23493051185058L53.1322515625,49.716500638267746L53.169778125,106.02701590876455L53.1858609375,46.65166426285242L53.28771875,60.225393844625124L53.405659375,102.84030395323555L53.780925,75.59591128361915L54.134746875,51.55279200932441L54.4939296875,0.47841957139855007L54.5904265625,103.14156668239202L54.815585937499996,33.583057567333945L55.013940625000004,81.96097358359168L55.0729109375,91.79508477535387L55.399928125,67.2933617242827L55.5339515625,71.74381902742272L55.598282812499995,91.34765700558917L55.614365625,74.98486106083371L55.73230625,76.62379801610057L55.9199390625,84.19688878201237L55.978909375,124.40012670602079L56.1665421875,48.573713132968315L56.3273703125,108.4441945201789L56.6543875,41.0836878352297L56.707996875,62.617508016956556L57.383475,68.55423149344726L57.8177109375,86.02434947599586L57.8391546875,93.60115198146266L57.973178125,141.59812523317166L58.230503125,70.46035251415407L58.4288578125,68.70896208687472L58.64865625,70.42401009719248L58.691543749999994,92.76464417197099L58.7397921875,105.11400955492775L58.86309375,75.35603501633383L59.115057812500005,42.63888631460186L59.409909375,53.97184688468967L59.431353125,73.69101391331508L59.474240625,59.999385615237635L59.67795625,67.43371442547786L59.8280625,101.95580865378277L60.734060937500004,136.21114709428872L60.782309375,76.17484068333243L60.79303125,100.26498892143944L61.018190625,101.04402595034873L61.039634375,121.4632433743861L61.1414921875,113.64852244227839L61.3130421875,128.892820342229L61.382734375000005,56.232418638725704L61.5167578125,69.9651411961621L61.58645,64.02327838797983L61.6668640625,79.23052007490053L61.715112500000004,149.88325816844232L61.8920234375,116.15539462821415L62.0206859375,107.68112612902547L62.25120625,73.79734913331386L62.4710046875,149.9252905597767L62.696164062499996,49.99296405259522L62.7444125,80.21484485304414L63.0392640625,77.28895398086081L63.8862921875,125.00722045917064L64.22403125,153.35658983664158L64.3741375,70.64610264529117L64.770846875,118.27345189867685L64.95311875,122.31219162963906L65.0228109375,103.01171698048711L65.435603125,122.23920088311515L65.5696265625,92.30181880130505L65.6554015625,116.99950946437626L65.9556140625,121.54975545786036L66.26654843749999,80.3064350856898L66.41129375,94.68928310210602L66.4327375,120.66727918157211L66.8776953125,80.42178453032216L66.9741921875,91.94155572856276L67.16718593750001,50.476469115067566L67.45131562499999,122.9939688457033L67.46203750000001,129.666248973459L67.5907,99.08973389212042L67.5960609375,59.201504370126024L67.622865625,84.43111586327164L67.64967031249999,128.8748326813086L68.502059375,110.08296832205872L68.6253609375,57.58646938605952L68.695053125,67.38248426194949L68.7218578125,102.66303779822418L68.80763281249999,146.57760739376624L68.83443749999999,104.68348855489434L68.8826859375,141.7656633674812L68.9684609375,79.96566884269795L69.2793953125,115.92661279124708L69.58496875,115.90695280810962L69.6921875,103.62523489825142L69.97095625,80.33933088735034L70.18539375,86.08461425833119L70.22828125000001,91.62683284497605L70.582103125,142.55646783443024L70.5981859375,118.71294633499707L70.9841734375,131.5756330619065L71.010978125,89.64301002369477L71.0217,107.84136314926526L71.3219125,135.0385229133356L71.6596515625,113.32227685073248L71.675734375,64.60781618537239L71.7079,143.7933336615276L71.91161562500001,125.94353735317976L72.1421359375,76.54103846052806L72.38873906250001,104.97955076983915L72.50131875,109.70267817105812L72.68359062500001,112.28229637343725L72.84441875,114.87043934028884L72.9248328125,96.28900206196482L72.99988593750001,75.87710614617055L73.36979062500001,116.02617714568402L73.519896875,76.62447102382208L73.541340625,145.07963496489594L73.55206249999999,129.95743698096618L73.74505624999999,105.89947074845148L73.8093875,138.35830685016342L73.9434109375,128.36705855251506L74.2114578125,91.46965495074312L74.270428125,149.7844891867672L74.484865625,149.660594583489L74.570640625,111.39419130529637L74.9298234375,115.61749830533965L74.94590625000001,164.90442341745188L75.085290625,109.07182520592154L75.28900625,73.9596051767182L75.2943671875,145.92207747884095L75.4337515625,127.45038124747003L75.6160234375,135.37188607139083L75.83046093749999,123.4408867611335L76.31830624999999,141.3106081768727L77.04739375,122.55131331250932L77.165334375,90.38462374445339L77.551321875,119.2441533690032L77.8783390625,143.76060101325407L77.9533921875,83.25730882026255L77.980196875,35.67423531728296L78.41443281250001,164.6857978788276L78.5216515625,118.86902294386753L79.02557968750001,128.12161467589726L79.331153125,124.95317589971597L79.36331875,136.35935155223484L79.70641875,112.23010768376005L79.9262171875,127.30340043992665L79.9476609375,32.65349114471331L80.11385,116.38927500852598L80.27467812500001,37.791823521757934L80.42478437499999,144.56863855670852L80.553446875,123.64743894911732L80.56416875,116.81588032727059L80.8054109375,138.41616512004L80.8590203125,93.92896792435876L81.05737500000001,151.3520465352071L81.0949015625,137.92727599579555L81.3093390625,155.39341711453523L81.67388281250001,75.04384101024615L81.7864625,176.32363094676L81.93120781249999,115.05586316465185L82.06523125,111.64891453080168L82.4029703125,94.19372508316661L82.569159375,97.15373540741321L82.890815625,106.55179877815625L83.10525312499999,163.61573599579816L83.31432968749999,127.22910446630648L83.3786609375,93.99000768528249L83.42690937500001,108.8216498810798L83.50732343749999,128.1782289011977L83.6038203125,155.05793296244858L83.6788734375,116.19353173243313L83.748565625,91.4274594060217L83.82897968750001,42.51160627854272L84.198884375,157.94703274585595L84.63848125,162.54318602361647L84.6867296875,168.14832063513592L84.78858749999999,107.87939828261733L85.3514859375,114.55386058692464L85.356846875,114.4440583574514L85.571284375,115.30385631294205L85.79108281250001,121.40677190829929L85.79644375,141.80995951206066L85.892940625,97.97796592453066L86.1127390625,173.07816337772576L86.2414015625,142.8145764927165L86.31109375,101.81608817196236L86.40222968750001,134.38731656316668L86.546975,105.64641984516324L86.6702765625,115.85694629498401L86.836465625,155.66304848078067L86.8418265625,132.74487181007862L86.8471875,74.20013405755162L86.900796875,86.15063019755942L86.97048906250001,148.44497948505273L87.0026546875,88.99551541308085L87.0777078125,98.31310337566985L87.45297343749999,126.00812570027148L87.59771875,140.24658296916348L87.7639078125,113.82962270188506L87.85504375,157.78304319771436L88.1391734375,94.27646424456572L88.230309375,134.6068394454196L88.2678359375,183.87000534554514L88.5573265625,132.60872030859957L88.616296875,92.68971597897605L88.94867500000001,134.60182247876836L88.9647578125,108.85050763641128L88.97011875,153.98634151641568L89.23280468749999,164.0800297469474L89.50085156249999,160.57571932938524L89.5330171875,139.77015468485368L89.538378125,97.25639967620373L89.57054375,127.18433925573929L89.80106406249999,146.84232376422733L89.8922,80.11056944455666L90.12272031250001,140.97895812938134L90.310353125,119.18433725848223L90.5087078125,122.51329857333063L90.5623171875,98.41648144052867L90.57303906249999,138.89461242751435L90.90541718749999,90.8019293201371L90.9590265625,140.85424775916798L90.996553125,73.74148949242843L92.5994734375,180.52707402193204L92.626278125,161.30093613474702L92.669165625,123.12153440018973L92.7656625,114.98994919629051L92.98010000000001,136.6456653523044L93.1087625,118.25301693695097L93.140928125,146.59479968192485L93.38753125,169.82619006738355L93.612690625,163.20907617861835L93.64485625,121.46740378575544L93.68774375,107.82410967858652L94.25064218749999,128.67368494927024L94.58838125000001,158.511910560111L94.6687953125,118.83143648232979L94.8510671875,109.5719515196979L94.94756406249999,100.77463931418384L95.61768124999999,125.1924199476265L95.79459218749999,159.66662865683725L96.250271875,158.4684301824667L96.464709375,89.02520932952086L96.571928125,123.02920997730241L96.6201765625,166.41457116782954L96.73275625,73.13916797584926L96.90966718749999,157.67713625535657L97.0597734375,109.20318407665653L97.1669921875,164.37105460106753L97.215240625,129.0277277991319L97.6387546875,156.04282877744677L97.729890625,90.99389967415482L98.02474218750001,113.3397546573184L98.287428125,142.91534410338278L98.8181609375,162.77488422737673L98.8396046875,139.68470309839515L99.1398171875,130.34908668653895L99.3328109375,140.19482255712725L99.499,134.60145538364753L99.57405312499999,154.36936448664906L99.77776875,101.8960741199553L99.99220625,121.57196471267024L100.01365,138.2627601478822L100.024371875,134.8413520451062L100.1369515625,99.51295377808408L100.1423125,115.76655931856772L100.2227265625,123.29873937268098L100.2870578125,132.25993915546974L100.431803125,122.68481357144908L100.442525,140.38406009191218L100.45324687499999,128.66328392084688L100.84995625,126.6184213386419L101.1019203125,125.19729415506413L101.353884375,165.9114876989132L101.675540625,149.30802011411066L102.7102015625,99.01380638462994L102.73164531249999,161.04745695381783L102.940721875,157.7283868130583L103.090828125,111.00146070853451L103.112271875,135.6883220655414L103.369596875,102.4708227141259L103.498259375,163.5184761829531L103.73414062500001,110.35425161634787L104.248790625,157.75867216052632L104.6401390625,127.7115898201099L104.87065937499999,157.32545912960688L105.1119015625,137.92660298807402L105.320978125,135.3119272016562L105.48180624999999,118.01314066966565L105.6801609375,95.43519999344763L106.03934375,153.49594322334116L106.18945000000001,162.57008593830352L106.2323375,141.5653517965514L106.5807984375,166.75664263791762L106.68265625000001,134.718640303884L106.7094609375,137.3034386263014L107.54040625,155.4459117168131L107.7923703125,124.99272020189808L108.151553125,149.96512038038614L108.44640468749999,143.4326015227976L108.494653125,136.04301752895117L108.63403749999999,128.6719718387064L108.848475,87.86404667400684L109.5507578125,136.8155896048993L109.609728125,162.49821687131546L109.70622499999999,168.41252715126254L109.98499375,123.2872778472419L110.02252031249999,153.83381349371317L110.49964375,107.55405003470013L110.53717031250001,146.5816862284421L110.7408859375,149.28817658341273L110.7730515625,142.9356159117216L110.84810468750001,142.629988829462L110.89635312499999,171.20820122642013L111.4699734375,158.02722263558266L111.6951328125,99.5484192455904L111.9417359375,174.6048100143671L112.0596765625,141.89985702831586L112.5957703125,162.31426142743572L112.99247968750001,151.14029383301164L113.1640296875,181.95464576429757L113.233721875,129.08120132173195L113.255165625,155.4900651021789L113.5392953125,105.84742481798794L113.56073906249999,109.58724714973225L113.641153125,153.86071340840024L114.06466718749999,133.15801697439298L114.3112703125,149.01232499428667L114.31663125,149.35574247981782L114.338075,150.22084292038704L114.5525125,162.4970340092595L114.627565625,148.4138375823028L114.70261875,134.26662384510902L114.7830328125,141.27973139837673L114.9545828125,147.77541837884257L115.0296359375,134.30818717045565L115.7533625,104.09264895792765L115.90346875,152.83896532210593L115.95171718750001,96.33225810370193L116.20904218749999,123.22246516424303L116.32698281249999,135.61996079637453L116.407396875,129.39735179745523L116.43956250000001,149.89259869984997L116.58966875,185.41265121120244L117.23298125000001,91.27305511936834L117.38308749999999,163.59260900318623L117.779796875,103.13420438580215L117.83340625,149.94784651553402L118.037121875,117.87156431806774L118.21403281250001,95.98147832158094L118.358778125,131.79607368196145L118.6429078125,95.12849201999893L118.90559375,138.39791233486568L119.495296875,134.09555751880487L119.731178125,121.72720516043215L119.9509765625,132.0220207288288L120.3155203125,178.4731564267467L120.32088125,164.69205889005502L120.6050109375,175.36186212437372L120.6157328125,174.43933169156887L121.0017203125,90.04944550496741L121.17863125,144.80049991385582L121.425234375,125.63128216457197L121.5270921875,128.5081454439519L121.6128671875,95.62570196698205L123.24259218750001,61.54336729925128L123.2640359375,128.8418756971279L123.79476874999999,115.87415897731599L123.96631875,98.45884013863711L124.041371875,138.28986400430307L124.0574546875,122.85016952920705L124.1861171875,180.70764403303085L124.69540625,186.23371043435944L124.770459375,127.50807636395957L124.974175,140.3280576918131L125.09211562499999,118.08792610344692L125.327996875,160.6165076761435L125.3601625,144.8912947737397L125.3655234375,137.1229501918961L125.4512984375,173.74156544357538L125.51562968750001,181.44732030731842L125.9123390625,95.75100376822343L126.02491875000001,140.0977462918426L126.09461093750001,121.63575768700014L126.1482203125,145.19883890829695L126.79689375000001,112.47496012934984L126.9952484375,162.4043832795981L127.7028921875,74.43656370953586L128.072796875,162.77221259066405L128.0781578125,147.0744094572818L128.2818734375,159.21948640549985L128.373009375,114.0348492685992L128.42125781250002,129.34049284207418L128.6035296875,140.38538571318182L128.80188437500001,163.18853924602558L129.3647828125,90.14847961089646L129.4076703125,174.9213071910378L129.4291140625,170.23896813657709L129.6971609375,125.09646536187769L130.0724265625,154.37546234448942L130.517384375,159.7187357698209L130.6299640625,114.42639700330508L130.6942953125,128.0400583765541L130.7371828125,130.03079482261091L130.75862656249998,158.94563344536493L130.7800703125,167.96952491712113L131.1553359375,138.51462818911443L131.525240625,163.13883864550064L131.825453125,148.90868180517396L132.2168015625,145.8584272637247L132.3454640625,153.03583027773468L132.425878125,171.54735632971503L132.55454062500002,178.16589781061677L132.6242328125,89.22890633323159L132.67248125,189.63602959085256L132.84403125,94.92461146872779L133.347959375,156.080333662291L133.44445625,158.0381335183405L133.5034265625,154.81875009705814L134.10921249999998,152.7786189630771L134.1145734375,151.40066624454295L134.14673906250002,145.46382040301194L134.162821875,84.54699555641184L134.227153125,138.97414970369294L134.30756718749998,136.89031385616042L134.891909375,144.3115700012646L135.3583109375,150.55649022586073L135.61563593749997,141.13432094218354L135.93729218750002,167.87597684383107L135.9909015625,102.82555896588245L136.0123453125,155.11570965563163L136.01770625,152.22799667601404L136.5269953125,114.76655142109556L136.8969,140.12442187062248L137.1166984375,136.35417143219652L137.4276328125,152.475439181623L137.5831,146.54911673355562L137.658153125,170.53356197103858L138.07630625000002,117.45711392665713L138.0923890625,139.32054473853742L138.33363125,125.35598121812711L138.7142578125,130.96488875172173L138.80003281249998,145.18221765699295L138.91261250000002,168.38154840189964L139.9151078125,131.25301763322204L140.02232656249998,157.05007660646854L140.20459843749998,141.23835162059046L140.2903734375,142.08373089550207L140.34934374999997,198.93342732179624L140.67100000000002,151.8707927292786L140.69244375,98.26534022161594L140.7621359375,107.07723426109611L140.84255000000002,127.64357525189051L141.4858625,116.31147123708462L142.4347484375,162.3915145561959L142.70815625,173.11548471500953L142.87970625,167.25385258490076L142.9279546875,176.67208579311577L143.0298125,170.28923977395664L143.126309375,133.40774362742042L143.41043906250002,143.27679003818105L143.5176578125,107.99558388835823L143.6355984375,178.1048988380398L143.7589,134.75571691108723L143.8500359375,120.05306786191294L143.86611875,153.3183507615557L143.8822015625,155.99057890524944L144.08055625,144.15178165283916L144.2306625,138.57909417116585L144.327159375,152.06951355468482L144.33788124999998,123.83276080261345L144.841809375,136.6164405018521L144.98655468750002,108.45946975603988L145.1259390625,180.85274857662333L145.2599625,190.75424211723015L145.2760453125,112.9423537948527L145.8443046875,121.34389667177142L145.8657484375,163.02314249992085L145.94616249999999,96.07276264162591L145.956884375,168.63869853403708L145.9836890625,157.2421693255265L146.0158546875,95.35778371130046L146.12843437499998,153.46159943537072L146.321428125,139.22524276633678L146.407203125,125.15807615965605L146.8199953125,192.7003765061068L147.0129890625,158.5436642880623L147.0558765625,134.03531313064292L147.0880421875,120.87534053838597L147.2274265625,162.38586537016985L147.2488703125,167.54989440567218L147.3775328125,122.87137946952134L147.436503125,157.12306735299242L147.5598046875,141.71608513199655L147.7956859375,155.39443682320416L148.2192,145.7995288910058L148.3746671875,124.69113116596755L148.62127031249997,165.49970894421523L149.24849999999998,139.44802871633036L149.259221875,127.74075348804205L149.3074703125,169.60220086116058L149.32891406250002,103.2605870782326L149.334275,123.84024546424358L149.3718015625,150.22394283474065L149.45757656249998,118.52558506416301L149.752428125,179.0733773434678L149.76315,136.77345524269802L149.98830937499997,122.86159026629937L150.0633625,141.44323148635718L150.48151562500001,183.81361545615184L150.6584265625,117.29512300750672L151.8271109375,86.45109755395411L151.9557734375,145.06156572728202L152.10051875000002,164.5231339519557L152.218459375,122.28011159491369L152.27206875000002,174.84568559614797L152.35784375,115.91923010048386L152.7170265625,136.31332190291812L152.9529078125,175.8752446508465L153.0172390625,109.82306497651513L153.1351796875,139.0866643582256L153.51580625,193.65965723934082L153.526528125,164.15803746012256L153.7248828125,168.61583666567907L153.98220781249998,174.42691163998097L154.24489375,186.41687050547736L154.341390625,152.62040096600182L154.5290234375,148.4993095629347L154.727378125,136.19725866221754L155.25275000000002,166.9954788023606L155.542240625,124.21531470685912L155.6762640625,106.11077477883262L156.4267953125,131.99999502157937L156.57154062499998,182.8755854515789L157.13443906249998,133.79878150779183L157.16124374999998,143.87505311425775L157.2309359375,149.6282698186831L157.3542375,135.96698805059378L157.41856875000002,147.42618855389838L158.254875,123.58898924821271L158.44786875,132.33715149588312L158.61941875,143.42605499314288L159.02685,182.0299614465867L159.03221093750003,110.30748777678953L159.530778125,162.04556819316574L160.0079015625,150.57278517039063L160.0186234375,139.29254353848788L160.3081140625,123.89286243156174L160.32419687499998,162.9126468685527L160.6994625,124.9711227722896L161.2301953125,143.9088054712002L161.953921875,135.18389258118202L162.35063125,131.9039180707903L162.5865125,60.299852971632326L162.618678125,107.94761679257051L163.390653125,129.84361709933728L164.11974062500002,119.41538284869434L164.23768125,105.64329953663626L164.3073734375,140.89318023614874L164.5432546875,138.31760008009866L164.7255265625,114.77980763379199L164.74697031250003,139.16856735851616L164.848828125,120.07254429748998L165.45997500000001,97.35604560733417L165.620803125,133.1814906679524L165.985346875,135.54329909864242L166.0604,175.87224670735975L166.2748375,145.19949152184506L166.59649374999998,112.35453253554611L166.65010312500002,182.80748930666596L166.70907343750002,153.07853567679055L166.7305171875,149.3009025476013L166.9020671875,178.08970517887232L166.93959375,159.9803930142751L167.0521734375,107.04435885360895L167.23980625000002,158.03193368963323L167.347025,132.83674756115158L167.357746875,154.50400681929807L167.44888281250002,183.4518228204061L167.5239359375,122.92887064427713L167.8563140625,133.59483977400055L167.86703593750002,149.24575670278415L168.17260937499998,156.13955834178398L168.5746796875,101.57015483518346L168.9070578125,140.59974886956985L169.7058375,133.2501782438933L169.952440625,142.49893587132772L170.0757421875,199.1949214128634L170.853078125,83.19278165569101L171.05143281250002,122.6214080864134L171.11576406249998,176.81033789445289L171.2551484375,116.15490516805305L171.3409234375,139.37467087468562L171.3516453125,69.37301676627249L171.3945328125,145.00287129629692L171.40525468750002,162.53115346132276L171.6304140625,165.9715689336881L171.9359875,134.73934038986383L172.0164015625,180.28012097648414L172.0217625,147.68240055406037L172.4345546875,113.37234454637824L172.48816406249998,165.54257749665817L172.55249531249999,149.87777213580335L172.8795125,111.55964923392122L173.233334375,123.66732326816197L173.2815828125,187.2283444671462L173.4531328125,148.52663775526275L173.50138124999998,145.81839350138148L173.54426875000001,133.38533043087676L173.58715625,146.4333594054557L173.75334531250002,138.65636769409937L173.7640671875,145.901316210341L174.3430484375,140.0890583739831L174.48779375,136.17131727367928L174.55748593750002,183.16822144539597L174.5682078125,169.33420102878546L174.61645625,209.592554206351L174.9541953125,155.23528069415346L175.19007656250002,106.87922723175815L175.21688125,177.56834853060832L175.88163749999998,165.3783840067828L176.0799921875,182.59441098320082L176.10679687500001,152.93757115039404L176.13360156250002,129.11438264181982L176.31051250000002,154.76509302689766L176.3962875,185.3066626921511L176.5839203125,159.24915992776647L176.6375296875,158.6281981367188L176.6482515625,163.56634130787393L176.6696953125,145.64218784338578L176.69113906249999,119.59870607319934L176.9699078125,152.9978767210761L177.29692500000002,148.7148555813787L177.30228593750002,121.94995032207898L177.307646875,124.51215190039231L177.83301875,145.00723564940003L178.13323125000002,145.43634945147028L178.3691125,120.3670361610846L178.4495265625,127.05752828566789L178.55138437500003,174.56353220744774L178.6103546875,77.27777797384906L178.851596875,152.5669682317485L178.9534546875,163.09719374346045L179.044590625,171.1370867438471L179.97739375,167.27153433322047L180.2936890625,174.1137387135711L180.69575937500002,163.48199100677786L180.7118421875,161.76784034008875L180.76009062499998,143.02363716402593L181.1192734375,160.0404130665299L181.20504843749998,178.20782823108422L181.2372140625,140.58969454209392L181.682171875,139.22611971579207L181.703615625,158.1585203237975L181.8161953125,126.27031319323356L182.1056859375,93.69476123727287L182.497034375,106.19700134387956L182.57208749999998,117.92087742929847L182.7489984375,140.50191801987017L182.79188593749998,166.55816654259195L183.118903125,109.34241509831583L183.129625,148.0051179536117L183.2422046875,132.77268946256777L183.5424171875,143.31156210379245L183.719328125,178.436324549624L183.9284046875,157.13581371135436L184.23397812500002,190.10617646976158L184.7754328125,128.18004398262843L184.877290625,177.89406387364636L185.63318281250002,172.19860346823071L186.11030625,118.30453261890663L186.15319374999999,173.3713296200507L186.4480453125,161.1010324472848L186.54990312500001,131.63371566769024L186.82331093750003,157.13000137194132L186.9841390625,120.22140136898425L187.05383125,159.96850321119507L187.933025,135.33113851297935L187.943746875,153.31374167837203L188.265403125,144.07051087192332L188.415509375,117.8508846262613L188.89799375,161.67133511165872L188.908715625,110.5248284824909L188.96232500000002,179.21548394357356L189.35367343750002,158.71585229390232L189.68605156249998,106.81259946732854L189.723578125,115.69087654115776L189.90585,148.67347580359248L190.4365828125,181.73865107403927L190.709990625,113.03170066842667L190.9405109375,126.49297677818686L191.21391875,179.37729131516355L191.3586640625,110.53257826837496L191.52485312500002,124.69710665876762L191.5516578125,150.50007994229404L191.67495937500001,184.8343336366905L192.0770296875,118.44455901332775L192.37188125,156.70688345684454L192.45765624999999,170.8483664313188L192.6452890625,167.75477427143892L192.67745468750002,173.40620365652902L192.7417859375,160.87789979634377L193.25107500000001,100.65551694747636L193.2886015625,160.43803826490273L193.3797375,164.75640250706616L193.5030390625,194.46078115801973L193.594175,142.40779431049643L193.733559375,165.51747226922845L194.21068281249998,111.88968814171565L194.269653125,124.31545009815063L194.4036765625,143.52625156695453L194.7038890625,104.18507535168185L194.7682203125,164.03238895793376L194.8379125,159.28464578944616L195.48122500000002,141.80298470476498L195.7117453125,209.69235309378175L195.770715625,191.33542507310182L195.7814375,163.43263710720035L195.80288125,163.51327566874144L196.01731875000002,202.63962985872507L196.1942296875,154.01379207378397L196.2800046875,166.18089472925146L196.6767140625,150.30335774587897L197.700653125,210.79474993870377L198.10808437499998,176.99633275567052L198.1777765625,134.86731382781784L198.25282968750003,168.33564111762323L198.4351015625,159.13672684992736L198.9711953125,174.55780144472823L199.19099375,132.52667454909533L199.3357390625,165.67848426805665L199.4697625,168.43577650891473L199.5180109375,135.4106961833313L199.5501765625,157.65861834592832L199.5930640625,151.49225647718862L199.630590625,152.85536223750276L199.802140625,180.70011858305392L199.9576078125,131.31489355525432L200.402565625,110.08251965024438L200.9011328125,185.87458943532639L201.07804375,138.17669673622228L201.453309375,134.37014466918146L201.5766109375,140.75855829767312L201.7856875,145.5802507388334L201.96795937500002,151.20751302846924L202.2842546875,175.53965852789295L202.332503125,193.1178758264376L202.5415796875,115.36424346031765L202.8203484375,111.03986293700738L203.0240640625,189.35326437695096L203.1420046875,159.92485968016376L203.30819375000002,132.3182868855074L203.5011875,189.13070276286453L203.52263125,103.3732444919789L203.56551875,154.37848068214953L203.90325781250002,125.8652645157507L203.919340625,182.25668347204248L204.48223906249999,142.720090287451L204.5465703125,181.02340701945988L204.605540625,145.21619434984257L204.691315625,91.60366506401738L204.76636875,146.3638560625796L204.87894843750001,157.81351209274277L205.00225,117.56289850397467L205.098746875,168.11560838103583L205.205965625,137.48847496137023L206.05835468749999,135.40737193307052L206.2459875,174.89587565683402L206.49259062500002,132.46188226026985L207.8489078125,140.83148786167686L207.9239609375,147.0344776658055L208.1812859375,162.40607599598857L208.43325,196.5722307163076L208.84068125000002,133.41027250491945L209.130171875,174.57780812881313L209.4786328125,102.79241843414137L209.48399375,180.39750983845443L209.548325,170.49128484962364L209.5536859375,124.46628540446265L209.966478125,152.82352693285793L209.99864375,163.15329811442643L210.309578125,119.5328940757049L210.41679687500002,130.72880580068497L210.55618125,152.60367774383096L210.7438140625,181.94862948315077L211.4836234375,190.44936961938558L211.6980609375,162.86769811042515L211.939303125,174.70696442882314L211.98755156250002,140.26255160691932L212.37353906250002,162.6999560343818L212.5986984375,168.0201636496215L212.6791125,178.4067122098775L212.7059171875,111.92507203252843L212.775609375,148.26065694605217L212.8560234375,159.55560277696125L214.2498671875,180.80416965563427L214.29275468749998,117.4207919038689L214.512553125,166.1196102382472L214.5179140625,167.59292611150215L214.694825,164.52941535735647L214.79668281250002,148.274096706309L214.94142812500002,162.73956151908408L215.09689531249998,162.63952809865944L215.1237,117.77777151469716L215.134421875,167.2949468442597L215.241640625,167.0735476980559L215.90639687499998,161.86730272365878L215.9653671875,162.85876546248508L216.3191890625,166.49135523060193L216.3299109375,128.42754767075758L216.4264078125,149.81318378871163L216.61404062499997,164.299267110773L216.90889218750002,184.51872360656182L217.33240625,118.42547006704488L217.3592109375,120.93990849130431L217.80416874999997,180.42122826209436L218.3402625,151.68022957322404L218.39923281249997,127.98662564230081L218.5278953125,179.73896158586902L219.015740625,168.84378234153758L219.02646249999998,137.09050306204995L219.187290625,185.79110588659893L219.1926515625,182.69358784834353L219.43389375,133.49543857295066L219.8252421875,174.25965902409874L220.2005078125,114.73294182336674L220.4363890625,108.80500823560243L220.5543296875,174.7130011041434L220.7258796875,130.47279774225677L220.8438203125,174.2710389728443L220.881346875,154.25497356816555L220.9295953125,164.57597525518102L220.9403171875,153.04680234301264L220.9510390625,170.04465245262077L221.0368140625,123.12451194950309L221.32094375,168.06203288756885L221.46032812500002,180.519487389435L221.61579531249998,130.1167154750572L221.82487187499999,180.71115183085203L222.1411671875,185.1831759723405L222.3770484375,98.05322042429964L222.47890625,154.1835735671652L223.2347984375,167.15033176082832L223.58325937499998,190.18860971856L223.7012,175.62525287356516L223.76017031249998,166.22604742911287L223.7708921875,114.27380779808244L223.7816140625,146.68712410481217L224.033578125,191.78155781285696L224.1676015625,155.99129270131772L224.3177078125,146.2214435498732L224.36595625,137.48425336748076L224.6179203125,111.1246619099178L224.7144171875,153.00501468175878L224.869884375,183.7948936049898L224.987825,135.13158152646457L225.30948125,199.03108482102218L225.7651609375,134.09786206039672L225.89918437499998,157.88330095404615L226.10826093749998,165.97081434927307L226.29589375,117.41667228084633L226.57466250000002,141.55880526689668L226.61755,129.66716671126107L227.23405781250003,119.09017735999078L227.293028125,177.73299069229802L227.33591562499998,135.4311515392306L227.571796875,156.64290693495423L227.97922812500002,121.19377516152768L228.0274765625,173.3238519844241L228.95491875000002,178.24378315875165L228.9817234375,149.37750306281333L229.26049218749998,174.37513083377138L229.4052375,169.0042844860313L229.75905937500002,166.1681687650629L229.76978125,133.55741646584985L229.823390625,153.7339432266756L229.85555624999998,190.4774931844754L229.9574140625,153.31388443758567L229.98421875,121.14900995096049L229.9895796875,160.93938822908183L230.1396859375,151.9654828762779L230.252265625,159.47806412977383L230.295153125,167.20568154737927L230.48814687499998,185.8429172840686L231.09929375000002,133.89275785872283L231.2065125,154.15410398663238L231.324453125,164.30452880750482L231.33517500000002,141.9099929324853L231.3512578125,139.24792108713433L231.4155890625,131.15504402430872L231.49064218750001,159.4215110869935L231.5978609375,155.579044880632L231.624665625,137.62650272680017L231.64074843749998,132.36394943970328L231.91415625,170.659190079054L232.28406093750002,167.56288549411468L232.3591140625,163.57468252478597L232.4020015625,121.5687832216231L232.55746875,133.44537087730492L232.85768125,184.8275117856952L232.91129062500002,176.61169864574018L233.02923125,162.1106663945919L233.9030640625,173.8941954371448L234.5356546875,107.28943563510593" style="fill: none;" fill="none"></path></g></g></g></g></g></g><g transform="translate(61, 177)" clip-path="url(#clip_1)"><clipPath id="clip_1"><rect width="268" height="22"></rect></clipPath><g><g><line x1="0" y1="0" x2="0" y2="5" style="visibility: inherit;" fill="rgb(0, 0, 0)" stroke="rgb(204, 204, 204)" stroke-width="1px"></line><line x1="33.505859375" y1="0" x2="33.505859375" y2="5" style="visibility: inherit;" fill="rgb(0, 0, 0)" stroke="rgb(204, 204, 204)" stroke-width="1px"></line><line x1="67.01171875" y1="0" x2="67.01171875" y2="5" style="visibility: inherit;" fill="rgb(0, 0, 0)" stroke="rgb(204, 204, 204)" stroke-width="1px"></line><line x1="100.517578125" y1="0" x2="100.517578125" y2="5" style="visibility: inherit;" fill="rgb(0, 0, 0)" stroke="rgb(204, 204, 204)" stroke-width="1px"></line><line x1="134.0234375" y1="0" x2="134.0234375" y2="5" style="visibility: inherit;" fill="rgb(0, 0, 0)" stroke="rgb(204, 204, 204)" stroke-width="1px"></line><line x1="167.529296875" y1="0" x2="167.529296875" y2="5" style="visibility: inherit;" fill="rgb(0, 0, 0)" stroke="rgb(204, 204, 204)" stroke-width="1px"></line><line x1="201.03515625" y1="0" x2="201.03515625" y2="5" style="visibility: inherit;" fill="rgb(0, 0, 0)" stroke="rgb(204, 204, 204)" stroke-width="1px"></line><line x1="234.541015625" y1="0" x2="234.541015625" y2="5" style="visibility: inherit;" fill="rgb(0, 0, 0)" stroke="rgb(204, 204, 204)" stroke-width="1px"></line><line x1="268.046875" y1="0" x2="268.046875" y2="5" style="visibility: inherit;" fill="rgb(0, 0, 0)" stroke="rgb(204, 204, 204)" stroke-width="1px"></line></g><g transform="translate(0, 8)"><text x="0" y="0" dx="0em" dy="0.95em" style="text-anchor: middle; visibility: hidden; font-family: Roboto, sans-serif; font-size: 12px; font-weight: 200;" fill="rgb(50, 49, 63)" stroke="none" stroke-width="1px">-50k</text><text x="33.505859375" y="0" dx="0em" dy="0.95em" style="text-anchor: middle; visibility: inherit; font-family: Roboto, sans-serif; font-size: 12px; font-weight: 200;" fill="rgb(50, 49, 63)" stroke="none" stroke-width="1px">0</text><text x="67.01171875" y="0" dx="0em" dy="0.95em" style="text-anchor: middle; visibility: inherit; font-family: Roboto, sans-serif; font-size: 12px; font-weight: 200;" fill="rgb(50, 49, 63)" stroke="none" stroke-width="1px">50k</text><text x="100.517578125" y="0" dx="0em" dy="0.95em" style="text-anchor: middle; visibility: inherit; font-family: Roboto, sans-serif; font-size: 12px; font-weight: 200;" fill="rgb(50, 49, 63)" stroke="none" stroke-width="1px">100k</text><text x="134.0234375" y="0" dx="0em" dy="0.95em" style="text-anchor: middle; visibility: inherit; font-family: Roboto, sans-serif; font-size: 12px; font-weight: 200;" fill="rgb(50, 49, 63)" stroke="none" stroke-width="1px">150k</text><text x="167.529296875" y="0" dx="0em" dy="0.95em" style="text-anchor: middle; visibility: inherit; font-family: Roboto, sans-serif; font-size: 12px; font-weight: 200;" fill="rgb(50, 49, 63)" stroke="none" stroke-width="1px">200k</text><text x="201.03515625" y="0" dx="0em" dy="0.95em" style="text-anchor: middle; visibility: inherit; font-family: Roboto, sans-serif; font-size: 12px; font-weight: 200;" fill="rgb(50, 49, 63)" stroke="none" stroke-width="1px">250k</text><text x="234.541015625" y="0" dx="0em" dy="0.95em" style="text-anchor: middle; visibility: inherit; font-family: Roboto, sans-serif; font-size: 12px; font-weight: 200;" fill="rgb(50, 49, 63)" stroke="none" stroke-width="1px">300k</text><text x="268.046875" y="0" dx="0em" dy="0.95em" style="text-anchor: middle; visibility: hidden; font-family: Roboto, sans-serif; font-size: 12px; font-weight: 200;" fill="rgb(50, 49, 63)" stroke="none" stroke-width="1px">350k</text></g><line x1="0" y1="0" x2="268.046875" y2="0" fill="rgb(0, 0, 0)" stroke="rgb(204, 204, 204)" stroke-width="1px"></line></g></g></g></g></svg>