<svg viewBox="0 0 330 200" xmlns="http://www.w3.org/2000/svg"><g><g><g><g><g><line x1="48.875" y1="177" x2="43.875" y2="177" style="visibility: inherit;" fill="rgb(0, 0, 0)" stroke="rgb(204, 204, 204)" stroke-width="1px"></line><line x1="48.875" y1="159.3" x2="43.875" y2="159.3" style="visibility: inherit;" fill="rgb(0, 0, 0)" stroke="rgb(204, 204, 204)" stroke-width="1px"></line><line x1="48.875" y1="141.6" x2="43.875" y2="141.6" style="visibility: inherit;" fill="rgb(0, 0, 0)" stroke="rgb(204, 204, 204)" stroke-width="1px"></line><line x1="48.875" y1="123.89999999999998" x2="43.875" y2="123.89999999999998" style="visibility: inherit;" fill="rgb(0, 0, 0)" stroke="rgb(204, 204, 204)" stroke-width="1px"></line><line x1="48.875" y1="106.2" x2="43.875" y2="106.2" style="visibility: inherit;" fill="rgb(0, 0, 0)" stroke="rgb(204, 204, 204)" stroke-width="1px"></line><line x1="48.875" y1="88.49999999999999" x2="43.875" y2="88.49999999999999" style="visibility: inherit;" fill="rgb(0, 0, 0)" stroke="rgb(204, 204, 204)" stroke-width="1px"></line><line x1="48.875" y1="70.79999999999997" x2="43.875" y2="70.79999999999997" style="visibility: inherit;" fill="rgb(0, 0, 0)" stroke="rgb(204, 204, 204)" stroke-width="1px"></line><line x1="48.875" y1="53.10000000000001" x2="43.875" y2="53.10000000000001" style="visibility: inherit;" fill="rgb(0, 0, 0)" stroke="rgb(204, 204, 204)" stroke-width="1px"></line><line x1="48.875" y1="35.400000000000006" x2="43.875" y2="35.400000000000006" style="visibility: inherit;" fill="rgb(0, 0, 0)" stroke="rgb(204, 204, 204)" stroke-width="1px"></line><line x1="48.875" y1="17.69999999999999" x2="43.875" y2="17.69999999999999" style="visibility: inherit;" fill="rgb(0, 0, 0)" stroke="rgb(204, 204, 204)" stroke-width="1px"></line><line x1="48.875" y1="0" x2="43.875" y2="0" style="visibility: inherit;" fill="rgb(0, 0, 0)" stroke="rgb(204, 204, 204)" stroke-width="1px"></line></g><g transform="translate(38.875, 0)"><text x="0" y="177" dx="0em" dy="0.3em" style="text-anchor: end; visibility: hidden; font-family: &quot;Helvetica Neue&quot;, sans-serif; font-size: 12px; font-weight: 200;" fill="rgb(50, 49, 63)" stroke="none" stroke-width="1px">0.22</text><text x="0" y="159.3" dx="0em" dy="0.3em" style="text-anchor: end; visibility: inherit; font-family: &quot;Helvetica Neue&quot;, sans-serif; font-size: 12px; font-weight: 200;" fill="rgb(50, 49, 63)" stroke="none" stroke-width="1px">0.24</text><text x="0" y="141.6" dx="0em" dy="0.3em" style="text-anchor: end; visibility: hidden; font-family: &quot;Helvetica Neue&quot;, sans-serif; font-size: 12px; font-weight: 200;" fill="rgb(50, 49, 63)" stroke="none" stroke-width="1px">0.26</text><text x="0" y="123.89999999999998" dx="0em" dy="0.3em" style="text-anchor: end; visibility: inherit; font-family: &quot;Helvetica Neue&quot;, sans-serif; font-size: 12px; font-weight: 200;" fill="rgb(50, 49, 63)" stroke="none" stroke-width="1px">0.28</text><text x="0" y="106.2" dx="0em" dy="0.3em" style="text-anchor: end; visibility: hidden; font-family: &quot;Helvetica Neue&quot;, sans-serif; font-size: 12px; font-weight: 200;" fill="rgb(50, 49, 63)" stroke="none" stroke-width="1px">0.3</text><text x="0" y="88.49999999999999" dx="0em" dy="0.3em" style="text-anchor: end; visibility: inherit; font-family: &quot;Helvetica Neue&quot;, sans-serif; font-size: 12px; font-weight: 200;" fill="rgb(50, 49, 63)" stroke="none" stroke-width="1px">0.32</text><text x="0" y="70.79999999999997" dx="0em" dy="0.3em" style="text-anchor: end; visibility: hidden; font-family: &quot;Helvetica Neue&quot;, sans-serif; font-size: 12px; font-weight: 200;" fill="rgb(50, 49, 63)" stroke="none" stroke-width="1px">0.34</text><text x="0" y="53.10000000000001" dx="0em" dy="0.3em" style="text-anchor: end; visibility: inherit; font-family: &quot;Helvetica Neue&quot;, sans-serif; font-size: 12px; font-weight: 200;" fill="rgb(50, 49, 63)" stroke="none" stroke-width="1px">0.36</text><text x="0" y="35.400000000000006" dx="0em" dy="0.3em" style="text-anchor: end; visibility: hidden; font-family: &quot;Helvetica Neue&quot;, sans-serif; font-size: 12px; font-weight: 200;" fill="rgb(50, 49, 63)" stroke="none" stroke-width="1px">0.38</text><text x="0" y="17.69999999999999" dx="0em" dy="0.3em" style="text-anchor: end; visibility: inherit; font-family: &quot;Helvetica Neue&quot;, sans-serif; font-size: 12px; font-weight: 200;" fill="rgb(50, 49, 63)" stroke="none" stroke-width="1px">0.4</text><text x="0" y="0" dx="0em" dy="0.3em" style="text-anchor: end; visibility: hidden; font-family: &quot;Helvetica Neue&quot;, sans-serif; font-size: 12px; font-weight: 200;" fill="rgb(50, 49, 63)" stroke="none" stroke-width="1px">0.42</text></g><line x1="48.875" y1="0" x2="48.875" y2="177" fill="rgb(0, 0, 0)" stroke="rgb(204, 204, 204)" stroke-width="1px"></line></g></g><g transform="translate(48, 0)" clip-path="url(#clip_0)"><clipPath id="clip_0"><rect width="281" height="177"></rect></clipPath><g><g><g><line x1="0" y1="0" x2="0" y2="177" fill="rgb(0, 0, 0)" stroke="rgb(60, 60, 60)" stroke-width="1px" opacity="0.25"></line><line x1="28.1125" y1="0" x2="28.1125" y2="177" fill="rgb(0, 0, 0)" stroke="rgb(60, 60, 60)" stroke-width="1px" opacity="0.25"></line><line x1="56.225" y1="0" x2="56.225" y2="177" fill="rgb(0, 0, 0)" stroke="rgb(60, 60, 60)" stroke-width="1px" opacity="0.25"></line><line x1="84.33749999999999" y1="0" x2="84.33749999999999" y2="177" fill="rgb(0, 0, 0)" stroke="rgb(60, 60, 60)" stroke-width="1px" opacity="0.25"></line><line x1="112.45" y1="0" x2="112.45" y2="177" fill="rgb(0, 0, 0)" stroke="rgb(60, 60, 60)" stroke-width="1px" opacity="0.25"></line><line x1="140.5625" y1="0" x2="140.5625" y2="177" fill="rgb(0, 0, 0)" stroke="rgb(60, 60, 60)" stroke-width="1px" opacity="0.25"></line><line x1="168.67499999999998" y1="0" x2="168.67499999999998" y2="177" fill="rgb(0, 0, 0)" stroke="rgb(60, 60, 60)" stroke-width="1px" opacity="0.25"></line><line x1="196.7875" y1="0" x2="196.7875" y2="177" fill="rgb(0, 0, 0)" stroke="rgb(60, 60, 60)" stroke-width="1px" opacity="0.25"></line><line x1="224.9" y1="0" x2="224.9" y2="177" fill="rgb(0, 0, 0)" stroke="rgb(60, 60, 60)" stroke-width="1px" opacity="0.25"></line><line x1="253.01250000000002" y1="0" x2="253.01250000000002" y2="177" fill="rgb(0, 0, 0)" stroke="rgb(60, 60, 60)" stroke-width="1px" opacity="0.25"></line><line x1="281.125" y1="0" x2="281.125" y2="177" fill="rgb(0, 0, 0)" stroke="rgb(60, 60, 60)" stroke-width="1px" opacity="0.25"></line></g><g><line x1="0" y1="177" x2="281.125" y2="177" fill="rgb(0, 0, 0)" stroke="rgb(60, 60, 60)" stroke-width="1px" opacity="0.25"></line><line x1="0" y1="159.3" x2="281.125" y2="159.3" fill="rgb(0, 0, 0)" stroke="rgb(60, 60, 60)" stroke-width="1px" opacity="0.25"></line><line x1="0" y1="141.6" x2="281.125" y2="141.6" fill="rgb(0, 0, 0)" stroke="rgb(60, 60, 60)" stroke-width="1px" opacity="0.25"></line><line x1="0" y1="123.89999999999998" x2="281.125" y2="123.89999999999998" fill="rgb(0, 0, 0)" stroke="rgb(60, 60, 60)" stroke-width="1px" opacity="0.25"></line><line x1="0" y1="106.2" x2="281.125" y2="106.2" fill="rgb(0, 0, 0)" stroke="rgb(60, 60, 60)" stroke-width="1px" opacity="0.25"></line><line x1="0" y1="88.49999999999999" x2="281.125" y2="88.49999999999999" fill="rgb(0, 0, 0)" stroke="rgb(60, 60, 60)" stroke-width="1px" opacity="0.25"></line><line x1="0" y1="70.79999999999997" x2="281.125" y2="70.79999999999997" fill="rgb(0, 0, 0)" stroke="rgb(60, 60, 60)" stroke-width="1px" opacity="0.25"></line><line x1="0" y1="53.10000000000001" x2="281.125" y2="53.10000000000001" fill="rgb(0, 0, 0)" stroke="rgb(60, 60, 60)" stroke-width="1px" opacity="0.25"></line><line x1="0" y1="35.400000000000006" x2="281.125" y2="35.400000000000006" fill="rgb(0, 0, 0)" stroke="rgb(60, 60, 60)" stroke-width="1px" opacity="0.25"></line><line x1="0" y1="17.69999999999999" x2="281.125" y2="17.69999999999999" fill="rgb(0, 0, 0)" stroke="rgb(60, 60, 60)" stroke-width="1px" opacity="0.25"></line><line x1="0" y1="0" x2="281.125" y2="0" fill="rgb(0, 0, 0)" stroke="rgb(60, 60, 60)" stroke-width="1px" opacity="0.25"></line></g></g></g><g><g><line x1="0" y1="371.70000000000005" x2="281.125" y2="371.70000000000005" fill="rgb(0, 0, 0)" stroke="rgb(153, 153, 153)" stroke-width="1.5px"></line></g></g><g><g><line x1="28.1125" y1="0" x2="28.1125" y2="177" fill="rgb(0, 0, 0)" stroke="rgb(153, 153, 153)" stroke-width="1.5px"></line></g></g><g><g><g><g><g><path stroke="rgb(255, 112, 67)" stroke-width="2px" d="M30.3615,-58.40136720325265L31.486,36.73105304614808L32.6105,20.238770764332003L33.735,68.16620990141274L34.8595,91.16841724622353L35.984,110.79970021670361L37.1085,127.23348328061934L38.233000000000004,137.24312417859392L39.3575,138.1329189869584L40.482,141.58139285305356L41.6065,145.03777733941732L42.731,142.13348915631326L43.8555,130.1175706752332L44.980000000000004,127.500639797297L46.1045,124.97900136027414L47.229000000000006,132.93091797048095L48.3535,116.53905875764349L49.477999999999994,128.17373408893673L50.6025,137.5526192543439L51.727,107.08698469857644L52.8515,-13.256802928058335L53.976,33.65063215238567L55.100500000000004,80.93406425145491L56.225,41.98373560837064L57.3495,58.03237580832452L58.474,82.5274786714075L59.5985,38.957201296452865L60.723,82.38724473153869L61.847500000000004,68.71827541378546L62.972,0.704605336430518L64.0965,42.840041112364815L65.221,85.62088724129275L66.3455,110.10414132812959L67.47,126.19475666274857L68.5945,135.96513907632027L69.719,84.51469485323842L70.8435,97.56674485230353L71.968,117.35776478089349L73.0925,124.2118849382386L74.217,135.3711124357987L75.34150000000001,139.88221937413587L76.46600000000001,142.90726210405526L77.5905,146.44706338400738L78.715,140.2886229067484L79.83949999999999,140.51902140316867L80.964,144.81569942208347L82.0885,147.5915877233654L83.213,73.98797202591466L84.33749999999999,91.69608031093348L85.462,93.78453202951125L86.5865,113.29960695930652L87.711,76.25245261682164L88.8355,91.65212212380598L89.96000000000001,114.78080640541492L91.0845,127.5324351138321L92.209,124.16134002366306L93.3335,134.26028914069403L94.45800000000001,127.45218697556979L95.58250000000001,120.26657922368699L96.707,69.20749683440506L97.83149999999999,102.15849720275901L98.95599999999999,117.733480224827L100.0805,130.5325789319391L101.205,139.15131717603896L102.3295,83.72077487994126L103.454,94.04480190210876L104.5785,116.63733905514084L105.703,130.5367762432098L106.8275,138.16800984535215L107.952,143.55548832770342L109.07650000000001,145.92239357683752L110.20100000000001,148.39478010805666L111.3255,137.63304927153717L112.45,143.26643107535438L113.5745,98.91149244905706L114.699,105.91812652946231L115.8235,123.39852912068794L116.948,133.88519872212666L118.07249999999999,141.18393634429128L119.197,96.86362268609138L120.3215,55.58056033183537L121.446,30.81121877032163L122.5705,16.831690633282903L123.69500000000001,69.96402236937635L124.8195,63.019846391195955L125.944,84.13252311916047L127.0685,98.43141577703292L128.193,111.81138068951687L129.3175,127.83296370099492L130.442,136.55270643467014L131.56650000000002,79.37721494575918L132.691,98.87698014104714L133.8155,117.24354593947143L134.94,105.51417730924254L136.0645,124.12703064964273L137.189,87.31465045622625L138.3135,63.37435360438607L139.438,50.84463444046369L140.5625,43.27372578079812L141.687,73.65376887378285L142.8115,80.28710941348787L143.936,95.83958070680089L145.0605,103.82298165562504L146.185,122.0837652254269L147.3095,118.72022613574059L148.434,131.38586612635248L148.434,121.17596877153747L149.5585,129.69679487547896L150.68300000000002,103.95372522831929L151.8075,106.338760684496L152.93200000000002,120.87193883571973L154.0565,128.60535535761088L155.181,109.5351061960958L156.30550000000002,108.85222796326296L157.43,121.4896711857642L158.5545,128.97516131588966L159.67899999999997,123.07359694832057L160.80349999999999,123.14247499819692L161.928,134.25115483830032L163.05249999999998,140.37459800618677L164.177,124.70442818866844L165.3015,118.90257409850764L166.426,120.76622945332532L167.5505,118.01450575032236L168.67499999999998,129.81449653767584L169.7995,133.9705418280544L170.924,113.09536359380377L172.0485,61.270168784086096L173.173,95.31049814869415L174.29749999999999,110.86660960822967L175.422,120.17132722323939L176.5465,104.6499884831059L177.671,89.71023598832778L178.7955,109.87591343118484L179.92000000000002,98.17256042834363L181.0445,117.04300372765205L182.169,103.57734917262637L183.2935,122.69097079312473L184.418,72.88912539646428L185.54250000000002,104.08898540595413L186.667,94.72304396068597L187.7915,92.18966651580061L188.91600000000003,92.38479934585884L190.0405,100.9744435623455L191.16500000000002,96.84504407377052L192.2895,91.82245419341925L193.414,114.50730880927206L194.5385,124.09348308820222L195.66299999999998,127.3816203390282L196.7875,132.5112170097066L197.91199999999998,139.74719765763479L199.0365,143.0188924776375L200.161,145.35129729431029L201.28549999999998,135.44152791691513L202.41,118.48764660473282L203.53449999999998,121.3974824030138L204.659,133.25085895412786L205.7835,125.52222678633706L206.908,135.55187286956414L208.0325,73.61546463265002L209.157,84.52144059714064L210.2815,93.56328196511497L211.406,93.48085323563711L212.5305,101.6375830077618L213.655,117.41510809561547L214.7795,52.04688745678028L215.904,23.881734709385398L217.0285,72.96403228547773L218.15300000000002,92.98633306089998L219.2775,112.91153381862618L220.40200000000002,115.73125296472533L221.5265,95.80406351351157L222.651,27.311943127294853L223.77550000000002,52.88975122069148L224.9,61.48938042697212L226.02450000000002,86.83494783387718L227.149,91.72218278495154L228.2735,115.10076203493881L229.398,129.73368130534055L230.52249999999998,115.3428307247708L231.647,95.86864739373621L232.77149999999997,91.60380970546781L233.896,104.92278534119832L235.0205,111.1879655524821L236.14499999999998,114.66871134547776L237.2695,110.42288333719009L238.394,106.45551180449148L239.5185,120.72297104839694L240.643,118.13234750893238L241.76749999999998,124.82430322925165L242.892,88.55345757460542L244.0165,111.67161995444268L245.141,104.26583411141375L246.2655,122.40999162581046L247.39000000000001,128.1041450451999L248.5145,50.7454898972028L249.639,75.04748546473462L250.7635,1.8257438671128625L251.888,61.27797305056673" style="fill: none;" fill="none"></path></g></g></g></g><g opacity="0.2"><g><g><g><path stroke="rgb(255, 112, 67)" stroke-width="2px" d="M28.1125,-988.191310930252L29.237,151.09969673752784L30.3615,150.62237417399882L31.486,148.60677925944327L32.6105,-1.2935529828071708L33.735,134.4671121060848L34.8595,124.06194178462027L35.984,139.4222992479801L37.1085,151.47012120187281L38.233000000000004,152.10627434849738L39.3575,139.45954082608222L40.482,146.73533720970153L41.6065,150.21106837391852L42.731,137.78274668455123L43.8555,112.1078172147274L44.980000000000004,123.57708914279937L46.1045,121.19761077761649L47.229000000000006,144.85677389502524L48.3535,91.95376707315445L49.477999999999994,145.62468363046645L50.6025,151.62043264210223L51.727,61.38953534960747L52.8515,-193.7701083898545L53.976,104.0112291097641L55.100500000000004,151.8588763296604L56.225,-16.441591250896465L57.3495,82.10529504418373L58.474,119.27009536027907L59.5985,-26.398174631595623L60.723,147.53228588104247L61.847500000000004,48.21482596993445L62.972,-101.31588624715812L64.0965,106.04318974614144L65.221,149.7921533703804L66.3455,146.8290214061737L67.47,150.33067924976348L68.5945,150.6207125455141L69.719,7.33902899622916L70.8435,117.14481977820395L71.968,147.0442946076393L73.0925,134.4930651605129L74.217,152.10995366871356L75.34150000000001,146.64887977838515L76.46600000000001,147.4448261976242L77.5905,151.7567653030157L78.715,131.05096219182013L79.83949999999999,140.86461914777755L80.964,151.26071645021437L82.0885,151.75542017519473L83.213,-36.417451518774044L84.33749999999999,118.2582427382469L85.462,96.91720960736275L86.5865,142.57221935391425L87.711,20.681721103191364L88.8355,114.75162638425826L89.96000000000001,149.47383282780646L91.0845,146.65987817645072L92.209,119.10469738841056L93.3335,149.4087128162384L94.45800000000001,117.24003372788428L95.58250000000001,109.48816759586335L96.707,-7.381126749515545L97.83149999999999,151.58499775528907L98.95599999999999,141.09595475792884L100.0805,149.7312269926071L101.205,152.07942454218863L102.3295,0.574961435794819L103.454,109.53084243535996L104.5785,150.52614478468894L105.703,151.38593202531337L106.8275,149.61486024856566L107.952,151.63670605123042L109.07650000000001,149.47275145053862L110.20100000000001,152.10335990488528L111.3255,121.49045301675795L112.45,151.71650378108023L113.5745,32.37908450961112L114.699,116.42807765007018L115.8235,149.6191330075264L116.948,149.61520312428473L118.07249999999999,152.1320427775383L119.197,30.383152198791493L120.3215,-6.344033199548733L122.5705,-4.137601572275173L123.69500000000001,149.66251997351645L124.8195,52.6035824239254L125.944,115.80153821110724L127.0685,119.87975476384162L128.193,131.8813280582428L129.3175,151.86533821821212L130.442,149.63232053518294L131.56650000000002,-6.386022287607204L132.691,128.12662793397902L133.8155,144.79339463710784L134.94,87.92012436389923L136.0645,152.04631066024302L137.189,32.096080166101444L138.3135,27.463908326625813L139.438,32.05005569458007L140.5625,31.91736279129981L141.687,119.22383351325988L142.8115,90.23712022304535L143.936,119.16828764677047L145.0605,115.79808307886123L146.185,149.4749405801296L147.3095,113.67491750121116L148.434,150.38432611227034L148.434,105.86112273931504L149.5585,142.47803403139113L150.68300000000002,65.3391207575798L151.8075,109.91631386876107L152.93200000000002,142.6717060625553L154.0565,140.2054801404476L155.181,80.92973245382309L156.30550000000002,107.82791061401367L157.43,140.44583601951598L158.5545,140.20339651107787L159.67899999999997,114.22125039696692L160.80349999999999,123.24579207301139L161.928,150.91417459845542L163.05249999999998,149.55976275801657L164.177,101.1991734623909L165.3015,110.19979296326638L166.426,123.56171248555182L167.5505,113.88692019581794L168.67499999999998,147.51448271870612L169.7995,140.20460976362227L170.924,81.78259624242783L172.0485,-16.467623430490505L173.173,146.37099219560622L174.29749999999999,134.20077679753302L175.422,134.12840364575385L176.5465,81.36798037290573L177.671,67.30060724616051L178.7955,140.12442959547042L179.92000000000002,80.6175309240818L181.0445,145.34866867661475L182.169,83.3788673400879L183.2935,151.36140322387217L184.418,-1.8136426985263938L185.54250000000002,150.8887754201889L186.667,80.67413179278374L187.7915,88.3896003484726L188.91600000000003,92.6774985909462L190.0405,113.85890988707541L191.16500000000002,90.65094484090805L192.2895,84.28856937289238L193.414,148.5345907330513L194.5385,138.4727445065975L195.66299999999998,132.31382621526717L196.7875,140.20561201572417L197.91199999999998,150.60116862952708L199.0365,147.9264347076416L200.161,148.84990451931952L201.28549999999998,120.57687385082244L202.41,93.05682463645935L203.53449999999998,125.76223610043525L204.659,151.0309237807989L205.7835,113.92927853465079L206.908,150.59634199440478L208.0325,-19.28914772272111L209.157,100.88040454387665L210.2815,107.1260440170765L211.406,93.35721014142037L212.5305,113.87267766594886L213.655,141.081395727396L214.7795,-46.005443501472485L215.904,-18.365994411706936L217.0285,146.58747864961623L218.15300000000002,123.01978422403334L219.2775,142.79933495521544L220.40200000000002,119.96083168387412L221.5265,65.9132793366909L222.651,-75.42623745203025L223.77550000000002,91.25646336078644L224.9,74.38882423639298L226.02450000000002,124.85329894423484L227.149,99.05303521156311L228.2735,150.16863090991973L229.398,151.6830602109432L230.52249999999998,93.75655485391617L231.647,66.65737239718437L232.77149999999997,85.20655317306519L233.896,124.90124879479407L235.0205,120.58573586940764L236.14499999999998,119.88983003497123L237.2695,104.05414132475853L238.394,100.50445450544358L239.5185,142.12415991425513L240.643,114.24641219973563L241.76749999999998,134.86223680973052L242.892,34.1471890926361L244.0165,146.34886352419852L245.141,93.15715534687043L246.2655,149.6262278974056L247.39000000000001,136.64537517428397L248.5145,-65.29249282479293L249.639,111.50047881603241L250.7635,-108.00686852931983L251.888,150.45631682574748" style="fill: none;" fill="none"></path></g></g></g></g></g></g><g transform="translate(48, 177)" clip-path="url(#clip_1)"><clipPath id="clip_1"><rect width="281" height="23"></rect></clipPath><g><g><line x1="0" y1="0" x2="0" y2="5" style="visibility: inherit;" fill="rgb(0, 0, 0)" stroke="rgb(204, 204, 204)" stroke-width="1px"></line><line x1="28.1125" y1="0" x2="28.1125" y2="5" style="visibility: inherit;" fill="rgb(0, 0, 0)" stroke="rgb(204, 204, 204)" stroke-width="1px"></line><line x1="56.225" y1="0" x2="56.225" y2="5" style="visibility: inherit;" fill="rgb(0, 0, 0)" stroke="rgb(204, 204, 204)" stroke-width="1px"></line><line x1="84.33749999999999" y1="0" x2="84.33749999999999" y2="5" style="visibility: inherit;" fill="rgb(0, 0, 0)" stroke="rgb(204, 204, 204)" stroke-width="1px"></line><line x1="112.45" y1="0" x2="112.45" y2="5" style="visibility: inherit;" fill="rgb(0, 0, 0)" stroke="rgb(204, 204, 204)" stroke-width="1px"></line><line x1="140.5625" y1="0" x2="140.5625" y2="5" style="visibility: inherit;" fill="rgb(0, 0, 0)" stroke="rgb(204, 204, 204)" stroke-width="1px"></line><line x1="168.67499999999998" y1="0" x2="168.67499999999998" y2="5" style="visibility: inherit;" fill="rgb(0, 0, 0)" stroke="rgb(204, 204, 204)" stroke-width="1px"></line><line x1="196.7875" y1="0" x2="196.7875" y2="5" style="visibility: inherit;" fill="rgb(0, 0, 0)" stroke="rgb(204, 204, 204)" stroke-width="1px"></line><line x1="224.9" y1="0" x2="224.9" y2="5" style="visibility: inherit;" fill="rgb(0, 0, 0)" stroke="rgb(204, 204, 204)" stroke-width="1px"></line><line x1="253.01250000000002" y1="0" x2="253.01250000000002" y2="5" style="visibility: inherit;" fill="rgb(0, 0, 0)" stroke="rgb(204, 204, 204)" stroke-width="1px"></line><line x1="281.125" y1="0" x2="281.125" y2="5" style="visibility: inherit;" fill="rgb(0, 0, 0)" stroke="rgb(204, 204, 204)" stroke-width="1px"></line></g><g transform="translate(0, 8)"><text x="0" y="0" dx="0em" dy="0.95em" style="text-anchor: middle; visibility: hidden; font-family: &quot;Helvetica Neue&quot;, sans-serif; font-size: 12px; font-weight: 200;" fill="rgb(50, 49, 63)" stroke="none" stroke-width="1px">-20k</text><text x="28.1125" y="0" dx="0em" dy="0.95em" style="text-anchor: middle; visibility: inherit; font-family: &quot;Helvetica Neue&quot;, sans-serif; font-size: 12px; font-weight: 200;" fill="rgb(50, 49, 63)" stroke="none" stroke-width="1px">0</text><text x="56.225" y="0" dx="0em" dy="0.95em" style="text-anchor: middle; visibility: hidden; font-family: &quot;Helvetica Neue&quot;, sans-serif; font-size: 12px; font-weight: 200;" fill="rgb(50, 49, 63)" stroke="none" stroke-width="1px">20k</text><text x="84.33749999999999" y="0" dx="0em" dy="0.95em" style="text-anchor: middle; visibility: inherit; font-family: &quot;Helvetica Neue&quot;, sans-serif; font-size: 12px; font-weight: 200;" fill="rgb(50, 49, 63)" stroke="none" stroke-width="1px">40k</text><text x="112.45" y="0" dx="0em" dy="0.95em" style="text-anchor: middle; visibility: hidden; font-family: &quot;Helvetica Neue&quot;, sans-serif; font-size: 12px; font-weight: 200;" fill="rgb(50, 49, 63)" stroke="none" stroke-width="1px">60k</text><text x="140.5625" y="0" dx="0em" dy="0.95em" style="text-anchor: middle; visibility: inherit; font-family: &quot;Helvetica Neue&quot;, sans-serif; font-size: 12px; font-weight: 200;" fill="rgb(50, 49, 63)" stroke="none" stroke-width="1px">80k</text><text x="168.67499999999998" y="0" dx="0em" dy="0.95em" style="text-anchor: middle; visibility: hidden; font-family: &quot;Helvetica Neue&quot;, sans-serif; font-size: 12px; font-weight: 200;" fill="rgb(50, 49, 63)" stroke="none" stroke-width="1px">100k</text><text x="196.7875" y="0" dx="0em" dy="0.95em" style="text-anchor: middle; visibility: inherit; font-family: &quot;Helvetica Neue&quot;, sans-serif; font-size: 12px; font-weight: 200;" fill="rgb(50, 49, 63)" stroke="none" stroke-width="1px">120k</text><text x="224.9" y="0" dx="0em" dy="0.95em" style="text-anchor: middle; visibility: hidden; font-family: &quot;Helvetica Neue&quot;, sans-serif; font-size: 12px; font-weight: 200;" fill="rgb(50, 49, 63)" stroke="none" stroke-width="1px">140k</text><text x="253.01250000000002" y="0" dx="0em" dy="0.95em" style="text-anchor: middle; visibility: inherit; font-family: &quot;Helvetica Neue&quot;, sans-serif; font-size: 12px; font-weight: 200;" fill="rgb(50, 49, 63)" stroke="none" stroke-width="1px">160k</text><text x="281.125" y="0" dx="0em" dy="0.95em" style="text-anchor: middle; visibility: hidden; font-family: &quot;Helvetica Neue&quot;, sans-serif; font-size: 12px; font-weight: 200;" fill="rgb(50, 49, 63)" stroke="none" stroke-width="1px">180k</text></g><line x1="0" y1="0" x2="281.125" y2="0" fill="rgb(0, 0, 0)" stroke="rgb(204, 204, 204)" stroke-width="1px"></line></g></g></g></g></svg>