<svg viewBox="0 0 330 200" xmlns="http://www.w3.org/2000/svg"><g><g><g><g><g><line x1="48.875" y1="177" x2="43.875" y2="177" style="visibility: inherit;" fill="rgb(0, 0, 0)" stroke="rgb(204, 204, 204)" stroke-width="1px"></line><line x1="48.875" y1="163.3846153846154" x2="43.875" y2="163.3846153846154" style="visibility: inherit;" fill="rgb(0, 0, 0)" stroke="rgb(204, 204, 204)" stroke-width="1px"></line><line x1="48.875" y1="149.76923076923077" x2="43.875" y2="149.76923076923077" style="visibility: inherit;" fill="rgb(0, 0, 0)" stroke="rgb(204, 204, 204)" stroke-width="1px"></line><line x1="48.875" y1="136.15384615384613" x2="43.875" y2="136.15384615384613" style="visibility: inherit;" fill="rgb(0, 0, 0)" stroke="rgb(204, 204, 204)" stroke-width="1px"></line><line x1="48.875" y1="122.53846153846155" x2="43.875" y2="122.53846153846155" style="visibility: inherit;" fill="rgb(0, 0, 0)" stroke="rgb(204, 204, 204)" stroke-width="1px"></line><line x1="48.875" y1="108.92307692307692" x2="43.875" y2="108.92307692307692" style="visibility: inherit;" fill="rgb(0, 0, 0)" stroke="rgb(204, 204, 204)" stroke-width="1px"></line><line x1="48.875" y1="95.30769230769229" x2="43.875" y2="95.30769230769229" style="visibility: inherit;" fill="rgb(0, 0, 0)" stroke="rgb(204, 204, 204)" stroke-width="1px"></line><line x1="48.875" y1="81.6923076923077" x2="43.875" y2="81.6923076923077" style="visibility: inherit;" fill="rgb(0, 0, 0)" stroke="rgb(204, 204, 204)" stroke-width="1px"></line><line x1="48.875" y1="68.07692307692307" x2="43.875" y2="68.07692307692307" style="visibility: inherit;" fill="rgb(0, 0, 0)" stroke="rgb(204, 204, 204)" stroke-width="1px"></line><line x1="48.875" y1="54.46153846153844" x2="43.875" y2="54.46153846153844" style="visibility: inherit;" fill="rgb(0, 0, 0)" stroke="rgb(204, 204, 204)" stroke-width="1px"></line><line x1="48.875" y1="40.84615384615387" x2="43.875" y2="40.84615384615387" style="visibility: inherit;" fill="rgb(0, 0, 0)" stroke="rgb(204, 204, 204)" stroke-width="1px"></line><line x1="48.875" y1="27.230769230769226" x2="43.875" y2="27.230769230769226" style="visibility: inherit;" fill="rgb(0, 0, 0)" stroke="rgb(204, 204, 204)" stroke-width="1px"></line><line x1="48.875" y1="13.615384615384613" x2="43.875" y2="13.615384615384613" style="visibility: inherit;" fill="rgb(0, 0, 0)" stroke="rgb(204, 204, 204)" stroke-width="1px"></line><line x1="48.875" y1="0" x2="43.875" y2="0" style="visibility: inherit;" fill="rgb(0, 0, 0)" stroke="rgb(204, 204, 204)" stroke-width="1px"></line></g><g transform="translate(38.875, 0)"><text x="0" y="177" dx="0em" dy="0.3em" style="text-anchor: end; visibility: hidden; font-family: &quot;Helvetica Neue&quot;, sans-serif; font-size: 12px; font-weight: 200;" fill="rgb(50, 49, 63)" stroke="none" stroke-width="1px">0.11</text><text x="0" y="163.3846153846154" dx="0em" dy="0.3em" style="text-anchor: end; visibility: inherit; font-family: &quot;Helvetica Neue&quot;, sans-serif; font-size: 12px; font-weight: 200;" fill="rgb(50, 49, 63)" stroke="none" stroke-width="1px">0.12</text><text x="0" y="149.76923076923077" dx="0em" dy="0.3em" style="text-anchor: end; visibility: hidden; font-family: &quot;Helvetica Neue&quot;, sans-serif; font-size: 12px; font-weight: 200;" fill="rgb(50, 49, 63)" stroke="none" stroke-width="1px">0.13</text><text x="0" y="136.15384615384613" dx="0em" dy="0.3em" style="text-anchor: end; visibility: inherit; font-family: &quot;Helvetica Neue&quot;, sans-serif; font-size: 12px; font-weight: 200;" fill="rgb(50, 49, 63)" stroke="none" stroke-width="1px">0.14</text><text x="0" y="122.53846153846155" dx="0em" dy="0.3em" style="text-anchor: end; visibility: hidden; font-family: &quot;Helvetica Neue&quot;, sans-serif; font-size: 12px; font-weight: 200;" fill="rgb(50, 49, 63)" stroke="none" stroke-width="1px">0.15</text><text x="0" y="108.92307692307692" dx="0em" dy="0.3em" style="text-anchor: end; visibility: inherit; font-family: &quot;Helvetica Neue&quot;, sans-serif; font-size: 12px; font-weight: 200;" fill="rgb(50, 49, 63)" stroke="none" stroke-width="1px">0.16</text><text x="0" y="95.30769230769229" dx="0em" dy="0.3em" style="text-anchor: end; visibility: hidden; font-family: &quot;Helvetica Neue&quot;, sans-serif; font-size: 12px; font-weight: 200;" fill="rgb(50, 49, 63)" stroke="none" stroke-width="1px">0.17</text><text x="0" y="81.6923076923077" dx="0em" dy="0.3em" style="text-anchor: end; visibility: inherit; font-family: &quot;Helvetica Neue&quot;, sans-serif; font-size: 12px; font-weight: 200;" fill="rgb(50, 49, 63)" stroke="none" stroke-width="1px">0.18</text><text x="0" y="68.07692307692307" dx="0em" dy="0.3em" style="text-anchor: end; visibility: hidden; font-family: &quot;Helvetica Neue&quot;, sans-serif; font-size: 12px; font-weight: 200;" fill="rgb(50, 49, 63)" stroke="none" stroke-width="1px">0.19</text><text x="0" y="54.46153846153844" dx="0em" dy="0.3em" style="text-anchor: end; visibility: inherit; font-family: &quot;Helvetica Neue&quot;, sans-serif; font-size: 12px; font-weight: 200;" fill="rgb(50, 49, 63)" stroke="none" stroke-width="1px">0.2</text><text x="0" y="40.84615384615387" dx="0em" dy="0.3em" style="text-anchor: end; visibility: hidden; font-family: &quot;Helvetica Neue&quot;, sans-serif; font-size: 12px; font-weight: 200;" fill="rgb(50, 49, 63)" stroke="none" stroke-width="1px">0.21</text><text x="0" y="27.230769230769226" dx="0em" dy="0.3em" style="text-anchor: end; visibility: inherit; font-family: &quot;Helvetica Neue&quot;, sans-serif; font-size: 12px; font-weight: 200;" fill="rgb(50, 49, 63)" stroke="none" stroke-width="1px">0.22</text><text x="0" y="13.615384615384613" dx="0em" dy="0.3em" style="text-anchor: end; visibility: hidden; font-family: &quot;Helvetica Neue&quot;, sans-serif; font-size: 12px; font-weight: 200;" fill="rgb(50, 49, 63)" stroke="none" stroke-width="1px">0.23</text><text x="0" y="0" dx="0em" dy="0.3em" style="text-anchor: end; visibility: hidden; font-family: &quot;Helvetica Neue&quot;, sans-serif; font-size: 12px; font-weight: 200;" fill="rgb(50, 49, 63)" stroke="none" stroke-width="1px">0.24</text></g><line x1="48.875" y1="0" x2="48.875" y2="177" fill="rgb(0, 0, 0)" stroke="rgb(204, 204, 204)" stroke-width="1px"></line></g></g><g transform="translate(48, 0)" clip-path="url(#clip_0)"><clipPath id="clip_0"><rect width="281" height="177"></rect></clipPath><g><g><g><line x1="0" y1="0" x2="0" y2="177" fill="rgb(0, 0, 0)" stroke="rgb(60, 60, 60)" stroke-width="1px" opacity="0.25"></line><line x1="28.1125" y1="0" x2="28.1125" y2="177" fill="rgb(0, 0, 0)" stroke="rgb(60, 60, 60)" stroke-width="1px" opacity="0.25"></line><line x1="56.225" y1="0" x2="56.225" y2="177" fill="rgb(0, 0, 0)" stroke="rgb(60, 60, 60)" stroke-width="1px" opacity="0.25"></line><line x1="84.33749999999999" y1="0" x2="84.33749999999999" y2="177" fill="rgb(0, 0, 0)" stroke="rgb(60, 60, 60)" stroke-width="1px" opacity="0.25"></line><line x1="112.45" y1="0" x2="112.45" y2="177" fill="rgb(0, 0, 0)" stroke="rgb(60, 60, 60)" stroke-width="1px" opacity="0.25"></line><line x1="140.5625" y1="0" x2="140.5625" y2="177" fill="rgb(0, 0, 0)" stroke="rgb(60, 60, 60)" stroke-width="1px" opacity="0.25"></line><line x1="168.67499999999998" y1="0" x2="168.67499999999998" y2="177" fill="rgb(0, 0, 0)" stroke="rgb(60, 60, 60)" stroke-width="1px" opacity="0.25"></line><line x1="196.7875" y1="0" x2="196.7875" y2="177" fill="rgb(0, 0, 0)" stroke="rgb(60, 60, 60)" stroke-width="1px" opacity="0.25"></line><line x1="224.9" y1="0" x2="224.9" y2="177" fill="rgb(0, 0, 0)" stroke="rgb(60, 60, 60)" stroke-width="1px" opacity="0.25"></line><line x1="253.01250000000002" y1="0" x2="253.01250000000002" y2="177" fill="rgb(0, 0, 0)" stroke="rgb(60, 60, 60)" stroke-width="1px" opacity="0.25"></line><line x1="281.125" y1="0" x2="281.125" y2="177" fill="rgb(0, 0, 0)" stroke="rgb(60, 60, 60)" stroke-width="1px" opacity="0.25"></line></g><g><line x1="0" y1="177" x2="281.125" y2="177" fill="rgb(0, 0, 0)" stroke="rgb(60, 60, 60)" stroke-width="1px" opacity="0.25"></line><line x1="0" y1="163.3846153846154" x2="281.125" y2="163.3846153846154" fill="rgb(0, 0, 0)" stroke="rgb(60, 60, 60)" stroke-width="1px" opacity="0.25"></line><line x1="0" y1="149.76923076923077" x2="281.125" y2="149.76923076923077" fill="rgb(0, 0, 0)" stroke="rgb(60, 60, 60)" stroke-width="1px" opacity="0.25"></line><line x1="0" y1="136.15384615384613" x2="281.125" y2="136.15384615384613" fill="rgb(0, 0, 0)" stroke="rgb(60, 60, 60)" stroke-width="1px" opacity="0.25"></line><line x1="0" y1="122.53846153846155" x2="281.125" y2="122.53846153846155" fill="rgb(0, 0, 0)" stroke="rgb(60, 60, 60)" stroke-width="1px" opacity="0.25"></line><line x1="0" y1="108.92307692307692" x2="281.125" y2="108.92307692307692" fill="rgb(0, 0, 0)" stroke="rgb(60, 60, 60)" stroke-width="1px" opacity="0.25"></line><line x1="0" y1="95.30769230769229" x2="281.125" y2="95.30769230769229" fill="rgb(0, 0, 0)" stroke="rgb(60, 60, 60)" stroke-width="1px" opacity="0.25"></line><line x1="0" y1="81.6923076923077" x2="281.125" y2="81.6923076923077" fill="rgb(0, 0, 0)" stroke="rgb(60, 60, 60)" stroke-width="1px" opacity="0.25"></line><line x1="0" y1="68.07692307692307" x2="281.125" y2="68.07692307692307" fill="rgb(0, 0, 0)" stroke="rgb(60, 60, 60)" stroke-width="1px" opacity="0.25"></line><line x1="0" y1="54.46153846153844" x2="281.125" y2="54.46153846153844" fill="rgb(0, 0, 0)" stroke="rgb(60, 60, 60)" stroke-width="1px" opacity="0.25"></line><line x1="0" y1="40.84615384615387" x2="281.125" y2="40.84615384615387" fill="rgb(0, 0, 0)" stroke="rgb(60, 60, 60)" stroke-width="1px" opacity="0.25"></line><line x1="0" y1="27.230769230769226" x2="281.125" y2="27.230769230769226" fill="rgb(0, 0, 0)" stroke="rgb(60, 60, 60)" stroke-width="1px" opacity="0.25"></line><line x1="0" y1="13.615384615384613" x2="281.125" y2="13.615384615384613" fill="rgb(0, 0, 0)" stroke="rgb(60, 60, 60)" stroke-width="1px" opacity="0.25"></line><line x1="0" y1="0" x2="281.125" y2="0" fill="rgb(0, 0, 0)" stroke="rgb(60, 60, 60)" stroke-width="1px" opacity="0.25"></line></g></g></g><g><g><line x1="0" y1="326.7692307692308" x2="281.125" y2="326.7692307692308" fill="rgb(0, 0, 0)" stroke="rgb(153, 153, 153)" stroke-width="1.5px"></line></g></g><g><g><line x1="28.1125" y1="0" x2="28.1125" y2="177" fill="rgb(0, 0, 0)" stroke="rgb(153, 153, 153)" stroke-width="1.5px"></line></g></g><g><g><g><g><g><path stroke="rgb(255, 112, 67)" stroke-width="2px" d="M28.58479,-2.328202518706064L28.618525,61.41099131715545L28.910895,73.08121899945232L29.16953,102.507851858115L29.855475000000002,118.46299484729431L29.88921,134.70385014522375L29.990415,95.14052866780095L30.687604999999998,-41.74551102750408L30.74383,-37.6169808108088L30.979975000000003,30.310769157485907L31.114915,64.91140773040732L31.182385,87.1877983729996L31.575960000000002,95.73059124371926L31.59845,123.39974630586181L31.68841,109.55740754696399L32.014514999999996,105.7908886413739L32.239415,120.42750911507483L32.846645,125.22455828611757L33.2852,78.72847734770916L33.44263,90.95470152686582L34.13982,83.64193393360335L34.443435,96.22874047552827L34.623355000000004,110.21692966256722L34.70207,107.91444195586183L34.713315,65.80297358718974L35.084399999999995,56.0756553413877L35.24183,-28.160637412919698L35.388014999999996,24.551422549924325L35.545445,64.41978147171342L35.657895,100.57624588984828L36.14143,134.1929053089937L36.23139,133.30643369900474L36.32135,132.35097547504023L36.714925,121.31803513493024L36.759904999999996,129.49228319201364L36.782395,112.70015949015453L36.939825,118.53918800049024L36.962315000000004,128.84942257537665L37.04103,110.17804748796888L37.130990000000004,141.56080473738587L37.19846,125.86377901120116L37.51332,125.73467141004681L38.739025000000005,100.2429095852043L39.031394999999996,30.748298667688317L39.04264,4.64318259042679L39.11011,65.34818479749919L39.177580000000006,50.28371837166452L39.37999,98.8546800462029L39.413725,112.2808119940884L39.51493,145.09822897718672L40.065935,146.3221395547069L40.099669999999996,140.79925966332183L40.234609999999996,135.14825548066307L40.403285,111.43237799924354L40.470755000000004,67.88866553340819L40.52698,95.56809462458436L41.111720000000005,95.34019719525341L41.167944999999996,102.60562206898078L41.17919,119.54704438022608L41.3816,91.80988016441786L41.527784999999994,96.62150608910937L42.10128,116.07608219677671L42.292445,109.96572679786864L42.91092,126.91274732654688L42.944655000000004,95.2755718166874L43.102085,116.49899505999551L43.147065000000005,50.74071397072953L43.686825000000006,29.494685850661284L43.76554,43.47289629659181L44.012930000000004,76.73967193385946L44.147870000000005,102.01973205010377L44.26032,96.04592143554117L44.59767,109.21550031797803L44.721365,122.79522897823834L44.878795000000004,120.84078698814574L45.238635,97.72161680688704L45.56474,70.98935368840198L45.74466,74.85098947625706L45.92458,8.423596664592651L45.96956,26.878115227416174L46.160725000000006,66.61251781985098L46.5543,82.8371470955079L47.026590000000006,90.33221177152417L47.127795000000006,43.83020827705636L47.251490000000004,69.03033515854737L47.330205,115.37638300454287L47.43141,105.49826956315391L47.588840000000005,82.23558891131609L47.61133,106.22925049528878L47.645064999999995,129.66869106478424L48.139845,119.41956972600408L48.64587,110.32530982392475L48.84828,111.6581313519601L48.949484999999996,114.23697188458084L49.09567,112.8552492153168L49.129405,110.28249172609479L49.219365,-8.134851602802541L49.669165,22.726576511439532L49.86033,9.89818960505724L49.97278,51.986435946599315L50.006515,55.16344622364794L50.613745,93.2992236773257L50.748685,85.60571972077211L51.00732,133.03244231668188L51.45712,93.91729245408311L51.468365,90.50978376301948L51.558325,105.75635904157468L51.603305,124.0725087821924L51.68202,138.16166528053358L52.27800499999999,141.47027046672864L52.356719999999996,147.0837809569564L52.705315,139.63219844492602L52.750295,139.6209786366959L52.840255,-234.0728687432637L53.25632,-32.318547302551224L53.267565000000005,30.539816369328463L53.492465,58.78179116736358L53.54869,95.96708799324429L53.762344999999996,45.67006793204911L53.942265,33.77290177234849L54.054715,59.80875711007987L54.189654999999995,64.58141475307619L54.482025,86.34626667042869L54.58323,101.37537822192625L54.976805000000006,107.88264592695894L54.98805,45.214281281467834L55.01054,-68.60908920360183L55.505320000000005,15.737513927173836L55.595279999999995,25.994554605767348L55.696484999999996,57.86614594674607L55.71897499999999,54.13313516452426L55.7752,73.59217597070507L56.056325,7.392514752104319L56.06757,39.648880582947356L56.18002,35.04674049545639L56.20251,75.24817358176573L56.258734999999994,116.23951294851696L56.416165,88.63087968497146L56.483635,114.47236577643464L56.58484,88.07050823782755L56.753515,76.06762972565495L56.820985,-25.768696654670066L57.41697,33.069633321815985L58.305325,86.97970938770152L58.507735,78.821700256213L58.9238,84.10507731505898L59.081230000000005,112.14074285181334L59.474804999999996,119.3333885576063L60.408139999999996,121.89127737180334L60.678020000000004,91.55481582084403L61.476415,25.266384390495517L61.566375,72.5496004506959L61.971195,83.4910883055521L62.274809999999995,89.73737846568508L62.308545,81.01536725659494L62.960755,16.751102348057685L63.657945,-5.0904109231074415L64.040275,-4.365480216013594L64.05152,48.368095259864816L64.43384999999999,90.80437034061306L64.5463,32.14031577017661L64.580035,-8.067559631609981L64.59128,39.148214510070744L64.61377,93.15801940894296L64.625015,60.84801749310594L65.277225,99.56415725166163L65.727025,109.92079743669092L66.07562,96.12095134443207L66.379235,109.55265649136219L66.43546,143.90163273338723L66.68285,141.87624222105063L66.896505,100.14362359544364L67.06518,99.20071683962044L67.2451,85.04449920760011L67.57120499999999,96.33145145809806L67.60494,119.42642227093532L67.886065,134.7075278991195L68.5945,129.58545592123969L68.79691,143.1835281202569L68.8194,107.19274435016683L68.84188999999999,82.00347577996035L68.90936,49.59548248376788L69.22422,38.2842747559192L69.38165,33.50991003178882L70.01137,55.765478186434635L70.05635,13.714395924904693L70.180045,14.44842225122835L70.764785,58.10740945316694L71.00093,77.22064496026836L71.057155,91.80901500092251L71.079645,106.23151341519996L71.19209500000001,106.45168185451818L71.56318,113.52478043613502L71.69812,113.71698474192146L72.28286,119.10739142663013L72.59772000000001,125.13828399482483L72.91257999999999,131.4363709629226L73.33989,102.93763333663769L73.463585,83.68819075152075L73.49732,84.18691016033172L74.138285,77.36470644764415L74.19451,40.56962671564182L74.31820499999999,39.872474636903206L75.13909000000001,65.32042736647314L75.27403,23.70877906216623L75.29652,69.89301395000619L75.352745,106.75619411585917L75.36399,134.35144647155198L75.64511499999999,134.86193307845494L75.70134,112.51124098847149L75.735075,114.6949108226244L75.825035,112.34024603724883L76.04993499999999,72.47346863668022L76.08367,101.74899967990066L76.26359000000001,97.71624808782005L76.51098,-3.811909446093864L76.65716499999999,6.999408729413204L76.679655,-63.765533952620984L77.241905,-0.25622252011282853L77.511785,56.448728730132146L77.5905,102.1882334942107L77.65796999999999,115.81456831752476L77.92785,135.5491032983568L77.961585,138.71998652776475L78.62504,-8.419236716634913L78.816205,31.516939466683283L79.05235,82.12691765892262L79.59210999999999,56.40594773855612L79.625845,77.61388478176798L79.80576500000001,57.284575572133534L80.15436,65.58356491587558L80.46921999999999,89.1424239480523L80.55918,102.51249757020454L80.60416,112.19782577015533L80.69412,126.6174593204482L81.110185,83.5911490341558L81.16641,60.913312750903174L81.52624999999999,96.62861364859874L81.61621000000001,92.99358723856898L81.717415,114.70953200866285L81.95356,72.70778942196345L82.0885,30.050133529605347L82.11099,74.865340771259L82.5383,31.21545091435337L82.67324,33.96042156638791L83.14553000000001,84.42813043937646L83.91019,-18.983465901295773L84.04513,-27.097098860556684L84.89975,30.257448502944413L84.92224,90.17003080255087L84.933485,111.16119929693382L85.52947,81.14019782866383L85.84433,59.81944274069231L86.5865,100.02071655580527L87.025055,117.25891421861769L88.037105,96.5945711732622L88.217025,93.3619300686823L88.374455,113.87961754122875L89.0604,106.30266735551612L89.30779000000001,105.70093140087319L89.903775,113.70040905386821L90.128675,122.09273525698279L90.151165,88.70640305560497L90.51100500000001,96.42668039728207L90.780885,96.9661686038407L90.938315,108.30991960030622L91.42184999999999,102.28236855268648L91.73671,118.81040724772775L91.7592,77.78800679012507L91.80418,83.58107743718844L91.972855,79.90501113431364L92.4339,84.17539693394865L92.467635,114.49532904956632L93.06362,105.8100925296731L93.412215,73.42019461912574L93.42346,35.77096097982596L93.614625,65.61184140586704L93.64836000000001,23.55667418473959L94.03068999999999,34.77527991305956L94.05318000000001,84.54923515678608L94.13189500000001,101.35506684005036L94.536715,101.80824596123374L94.77286,123.10829522594771L95.04274,142.84889665154518L95.098965,130.72384258499636L95.16643499999999,130.1786449125554L95.47005,124.35649047734597L95.69494999999999,118.48647260104205L95.751175,132.73694799342962L95.91985,36.78859049998323L95.976075,-115.40524421013612L96.740735,-9.44187538268119L96.763225,56.739654411836156L96.943145,62.336017133159245L97.055595,60.92480276445778L97.617845,97.26125381518465L97.83149999999999,128.75273140103897L97.977685,116.10293412474789L98.04515500000001,117.90465299325905L98.19134,120.50245287991046L98.83230499999999,131.34799267268835L99.09094,116.63889743842368L99.147165,136.0494424175528L99.417045,135.95145637130273L99.54074,147.2035382336662L99.664435,130.78085221282205L99.81062,122.71229622850524L100.0805,120.47247347793498L101.148775,119.13459334020416L101.16002,110.1969704280357L101.205,126.84698538345002L101.4299,134.31117298268572L102.03713,127.26679718440445L102.14958,122.1466091776324L102.363235,126.86322874636659L102.970465,146.91574641399464L103.07167000000001,147.9427237053685L103.13914,135.07226495018207L103.20661,131.55937548642794L103.240345,124.4910051740824L103.31906000000001,142.2168616896824L103.40902,133.1417327431414L103.442755,136.23521028206193L103.57769499999999,117.54464179240316L103.88131,127.66746886946349L103.92629000000001,119.60532031651125L104.049985,108.70456827628851L104.93834,102.58758682486054L105.09577,125.91244154810734L105.18572999999999,67.56479360934297L105.354405,102.94944208841628L106.08533,34.87877358737103L106.41143500000001,46.740947594391685L106.44516999999999,79.41146870355955L106.73754000000001,92.57985037598012L106.98493,47.980715008162036L107.85079499999999,51.1639900826754L108.01947000000001,70.58665912382163L108.10943,49.42367822638869L108.368065,32.38043295936049L108.570475,84.88307110197334L109.020275,82.95188139239224L109.25641999999999,87.48277826798446L109.605015,120.77764615187382L110.20100000000001,126.17125912538003L110.324695,141.5509730689346L110.527105,138.49127993521347L110.639555,137.42937310108053L110.6508,144.27495392395466L110.86445499999999,153.2257607675673L111.12309,145.81495799221472L111.33674500000001,136.6640429225208L111.7753,141.309021867451L111.80903500000001,146.57160438770424L111.88775000000001,74.44347374336849L112.00019999999999,48.24469524945667L112.033935,115.90083687132878L112.20260999999999,130.63285901186174L112.573695,143.92581282876316L112.78735,116.41360734824535L113.675705,127.45934672814815L114.06928,123.96732274917856L114.260445,102.45390806150677L114.42912,103.33836575112852L114.552815,106.83995905697688L114.62028500000001,129.56167584352517L114.90141000000001,78.0291872327175L114.957635,104.65197370400978L115.01386,6.250348067908277L115.21627,54.06422489497179L115.33996499999999,67.79721293493898L115.3737,71.58442572877146L115.5986,71.13953839890286L115.68856,95.98962798346815L115.80101,82.34224072886735L116.194585,60.941333974926266L116.25081,7.833741398585403L116.936755,17.743150844717206L116.948,64.26389756702804L117.30784,73.28438040373167L117.881335,102.33805237818075L117.971295,126.11698250766352L118.36487000000001,121.94460208706892L118.48856500000001,140.41447580016893L118.623505,124.32048847769046L118.81467,83.9418960389846L119.48937,69.95812225023411L120.09660000000001,80.74382976927832L120.14158,91.80496025227592L120.29901000000001,110.65942439568049L120.490175,153.20878287128124L120.557645,101.67546513063617L121.02993500000001,81.37502937270025L121.20985499999999,105.80261430638873L121.33355,112.50284173464406L121.524715,62.71302045807616L121.749615,56.357034128688824L121.80584,49.23272365713024L121.82833000000001,97.56821268750647L121.8958,86.51149815476606L122.1207,114.26387070327388L122.154435,128.42514816395231L122.21066,64.1225419673247L122.31186500000001,93.54320716962447L123.323915,101.50848670618716L123.33516,71.70748171513848L123.35765,62.51463528641024L123.67250999999999,14.612387575637143L123.728735,0.266414292642736L123.78496,22.859287217207168L124.43717,75.96885365405066L124.72954,112.69165327918482L124.830745,103.9150890167105L125.20182999999999,110.87501925286017L125.213075,120.19658837810513L125.31428,122.43970305884784L125.74159,118.76789207510936L125.83155,143.9863824157927L125.88777499999999,142.76008931589666L126.247615,133.5316430299571L126.77613000000001,82.50654801587959L126.82111,95.87534478773938L127.079745,106.83947036867576L127.282155,103.09949657764255L127.31589,118.27112363430209L127.552035,96.06105800705711L127.67573,122.03739342005818L127.94561,127.66383176209972L128.024325,135.089556106747L128.21549,101.28471059041165L128.23798,82.17055096244823L128.271715,50.915935036864724L128.50786,86.37116743441953L128.58657499999998,75.87013166001894L128.84521,88.02128789198811L129.036375,92.88725381532149L129.238785,98.66851875539233L129.306255,126.1293954774155L129.418705,128.13893992083524L129.63236,140.208178561882L129.935975,104.28288602578758L130.025935,74.92678068267638L130.26208,36.02405740684517L131.060475,76.93766592661291L131.74642,86.66936373497741L131.85887,107.11032719667786L131.937585,64.73665718772247L132.2412,97.24615687177598L132.47734499999999,88.73817193260483L132.769715,108.68972409356513L132.87092,102.95534856670427L133.23076,111.22493130894499L133.466905,108.2170806252571L133.95044000000001,108.9682753829175L133.984175,104.98696851970679L134.20907499999998,136.9918164927891L134.28779,148.42954785708605L134.58016,158.61046484621315L135.36731,131.60837113933164L135.468515,107.85816831450886L135.54722999999998,111.8554947338636L135.693415,54.09586280817139L135.94080499999998,104.18954348337034L136.0645,125.30882814619537L136.188195,141.67540623142935L136.36811500000002,143.33415217864058L136.63799500000002,135.3998204431525L136.705465,120.76117076278048L136.9641,52.20318678865257L137.16651000000002,77.93032212534432L137.852455,108.39122256738658L137.95365999999999,125.04841559040331L138.44844,125.57053200089071L138.7633,116.09889167266655L138.797035,57.65661833026243L139.246835,75.45946839103198L139.516715,91.3506981989229L140.24764,117.97062477967506L141.12475,99.90460205606209L141.180975,73.95971832042045L141.21471,107.90116906062747L141.37214,107.39520665803678L141.50708,99.57082682865797L141.765715,86.19827823191112L141.833185,113.88471554084003L142.00186,125.37037898335271L142.18178,136.76184029397342L142.45165999999998,124.24013702466885L142.642825,26.846469375322584L143.31752500000002,29.781849377283407L143.44122000000002,-0.2770472385298035L143.66612,-11.367078411723753L143.744835,34.064792232976885L143.80106,76.38974386932594L145.01551999999998,101.68872588059897L145.049255,101.36808750416715L145.2854,104.69261116156963L145.341625,115.73909014683953L145.82515999999998,91.00013867932368L145.94885499999998,84.88500398806951L146.061305,49.33460842800089L146.10628499999999,30.650852257478874L146.43239,67.14957587847768L146.53359500000002,95.99667319888592L146.79223,100.2331620234945L146.803475,110.99028450857256L146.93841500000002,56.29099767296982L147.28701,94.74550850738156L147.388215,119.6917488025417L147.57938,137.14307368814153L147.635605,116.46174299957644L147.73681,117.63196733325708L147.82676999999998,99.53721678233597L147.91673,123.1419163390737L148.10789499999998,129.59887818181346L148.445245,141.22415248517336L148.557695,133.39820004588543L148.97376,95.8695963410782L148.512715,96.41201513202014L148.52396000000002,120.1317752762406L148.77135,126.6056969391795L148.85006499999997,123.32219448161763L149.16492499999998,82.95810352662176L149.277375,80.4523735659336L149.3336,102.87851200480273L149.457295,133.24220425795002L149.5585,158.98353894482955L149.71593000000001,170.9924613013184L150.14324,131.65043540489722L150.176975,138.70927305955L150.55930500000002,141.47622357295012L150.604285,99.10138872417977L150.86292,115.90416056605086L150.93039000000002,65.90283901278553L150.95288,71.19781867916628L151.40268,105.63037912355853L151.47015,118.51088498005083L151.49264,119.10545018709371L151.616335,131.71868563072348L151.67256,129.83596576951746L151.82999,82.9579077180241L151.931195,99.25686709426088L152.111115,92.32925202867122L152.39224000000002,111.97982234013516L152.605895,122.54406530182254L152.7071,124.24450485191393L152.90950999999998,114.62558253896303L153.21312500000002,84.6743656340915L153.47176,90.36598796141982L153.49425000000002,58.335711176765386L153.505495,62.53412263771396L154.16895,68.70108312613527L154.202685,69.31513448550514L154.30389,103.23739940016303L154.7312,74.09560547203046L155.304695,94.10924371806148L155.86694500000002,99.85161433286653L155.956905,74.69285098299311L156.361725,86.0716724169273L156.55289000000002,93.7187263426242L156.77778999999998,88.11949214083303L157.09265,85.94561179860305L157.126385,97.54739346733017L157.20510000000002,111.2468589847795L157.22759,128.3559220147667L157.418755,90.92115525861423L157.508715,110.27706082508102L157.60992000000002,98.53002290450002L157.778595,82.79081365639985L157.958515,120.31958578975164L158.39707,92.96518619168958L158.53200999999999,102.02019434297044L158.66695,79.91025647136408L158.790645,99.94676951260148L158.94807500000002,113.72213159156769L158.970565,106.10860792306208L159.375385,113.52096088555815L159.780205,131.0002103969481L160.08381999999997,144.38291340619483L160.252495,148.61625176950238L160.589845,98.19393452391772L160.85972500000003,99.7449817221966L161.06213499999998,58.83694095199333L161.43322,35.04885334611183L161.736835,76.70360764949285L161.88302000000002,92.80796109078203L161.90551,123.41937878117761L161.916755,127.08133263359412L162.14165500000001,131.02652188017242L162.19788,130.40814147470806L162.35531,129.41362315463076L162.46776,76.92588983802227L162.52398499999998,51.66535891788142L162.6027,93.9546168776935L162.81635500000002,111.05683257636478L162.95129500000002,110.90125680333912L163.34487000000001,26.999704194419678L164.04206000000002,71.33096244246181L164.210735,65.85160415632696L164.33443,46.15377873109912L164.37941,86.9796614193241L164.55933,100.25428488466908L164.93041499999998,119.43718964410698L165.03162,131.47521268458888L165.5264,108.92092179184345L165.75130000000001,122.49526571953638L165.785035,94.84707170468864L165.964955,103.5824446360193L166.14487499999998,96.4372850722487L166.94327,115.649933501681L167.04447499999998,120.57579752205903L167.39307,121.0066388319035L167.60672499999998,98.8079445211305L167.64046,75.83544957466665L167.88785,92.0446105066449L168.618775,87.62649582727889L168.708735,96.20709130477621L168.94488,81.92144760400161L169.19227,71.40001152471L169.518375,47.64194979149511L170.03564500000002,84.5312178558658L170.35050500000003,100.57754577464857L171.01396,97.42495645397948L171.19387999999998,107.02959966342384L171.542475,110.13303339657857L171.632435,124.6049020814482L171.86858,101.13632771078709L172.149705,83.62993175119232L172.20593,99.7477116210144L172.352115,80.7161191953946L172.4983,79.3159192126461L172.56577000000001,61.736712118199605L173.03806,96.45996580228184L173.049305,97.36594064334938L173.274205,100.25060791918811L173.926415,102.6860442624364L174.11758,99.38102518804419L174.421195,68.5723668294403L174.43244,45.48088607716693L174.5224,79.17035402695295L174.65734,98.38895670997155L174.79228,101.30820829756064L174.960955,64.68371292266986L175.005935,41.730647222848404L175.1971,106.34727381268243L175.39951000000002,96.654586978045L175.60191999999998,81.73687025009346L175.77059500000001,54.79492229007016L175.88304499999998,71.74511246276374L175.91678,38.21956692892874L176.05172000000002,52.77983321403602L176.062965,75.02168496274801L176.107945,99.7759632466894L176.422805,73.39731517105196L176.71517500000002,93.65500000196955L177.08626,111.82431647594956L177.254935,88.57573631837293L177.659755,68.23367247060914L178.25574,73.43950898371648L178.30072,96.33795613233522L178.52562,90.98499834372241L179.076625,61.155599002580146L179.40273,76.2834808505051L179.87501999999998,93.88046463541869L180.44851500000001,103.60470811897281L180.61719000000002,39.34013535282199L180.70715,82.3937902717019L180.77461999999997,50.64206345946478L181.33686999999998,86.54077703444842L181.37060499999998,120.18094548030675L181.40434,120.72822544289173L181.55052500000002,128.59895031500918L181.85414,134.94957826827022L182.135265,112.88787608963833L182.21398,98.86616848298844L182.46137,81.82720236734986L182.697515,91.29982942701929L182.84369999999998,87.74323370763898L183.237275,88.05585075305984L183.49590999999998,115.19902778017158L183.529645,129.92653342050738L183.67583000000002,133.52614378356546L183.72081,127.60535590121697L184.27181499999998,51.407492129391954L184.28306,64.27265718849922L184.496715,75.62837319674014L184.53045,69.12376325603861L184.631655,101.0433052634253L184.64290000000003,113.26089857961445L184.71036999999998,138.6176281426018L184.93527,130.90190694651994L184.95775999999998,134.0446592977349L185.87985,128.43913765200813L185.94732000000002,130.44548565646085L186.790695,147.8852469510761L187.105555,126.94777035451878L187.465395,129.33859360244654L187.53286500000002,112.18873665348757L187.7915,109.11640912065546L188.207565,125.02994960959384L188.21881,131.15031490665362L188.28628,133.88643873711817L188.38748500000003,116.89166937458751L188.57864999999998,114.29827362594563L188.71359,90.4872404272136L188.78106,113.21313328354223L189.00596000000002,71.33627853967255L189.05094,109.73299318107622L189.32082,127.22355252421113L189.444515,108.56786049737873L190.006765,97.03118813833201L190.276645,107.7051933171235L190.53528,107.72659769197827L190.9401,113.60718408411597L191.20998,54.6261760186306L191.23246999999998,41.371274136052534L191.243715,25.997041673527264L191.91841499999998,70.8770977012863L192.08709,98.2648525897501L192.15456,97.53385306610463L192.49191,127.64340237827454L192.593115,65.98328022804058L192.638095,55.786300101830676L192.705565,53.750775818934954L192.885485,88.43647778326925L193.36902,112.3189698255202L193.50396,29.313230537221187L193.740105,59.80845621076868L193.75135,55.53717905421412L193.79632999999998,84.53090855516453L193.84131,106.11570792449754L193.88629,110.03887680571452L194.077455,113.16129043845731L194.144925,137.2120050507918L194.189905,132.71619728040582L194.49352,146.14662476815377L194.797135,112.43299786938556L195.01079,98.585548150087L195.37063,115.65200776494832L195.38187499999998,120.17730985709557L195.39312,87.3138886516694L195.66299999999998,22.881133423081934L196.393925,18.37758268648912L196.528865,72.63684766409439L197.2373,89.23053156042529L197.70959,118.13660642787019L197.75457,119.48980598664951L198.24935000000002,132.62090540354836L198.463005,118.16507082972623L198.87906999999998,119.01721752392241L199.21642,125.98315515389388L199.295135,117.22952676255633L199.40758499999998,130.48406869343094L199.609995,128.5811417213886L199.86863,131.26413375163773L200.059795,131.91549192131532L200.127265,119.53124445465556L200.20598,133.8562049843878L200.734495,128.85200801314818L200.79072,133.32159980842002L200.97063999999997,130.9424118872839L201.03811,137.67134847087425L201.15056,120.72642876366281L201.35297,89.73017060278632L201.544135,82.20188034394339L201.566625,84.48239905955536L201.926465,98.0005134230338L202.15136500000003,117.6553866739973L202.27506000000002,133.93492259147882L202.80357500000002,153.62994715356854L202.938515,152.05472728573005L203.06221,159.93073261449675L203.78189,164.5619009406334L204.130485,145.3794973415712L204.54655,150.16304271676694L204.81643,159.82287202723265L204.917635,141.884348319043L204.985105,127.0473592812694L205.15377999999998,73.64234837455658L205.344945,96.80212160042636L205.502375,88.45831978008947L205.53611,55.29083216736659L205.749765,71.45333415322547L205.96341999999999,116.5192529608147L207.234105,122.13216782918977L207.32406500000002,116.3498014069742L207.391535,138.4150302196599L207.661415,147.8476302550652L207.67266,159.24812277758784L208.09997,71.66081045217727L208.403585,97.48844904895765L208.538525,81.04071759881876L208.77467,79.8567595574168L209.43812499999999,86.61497262628171L209.58431,103.70700915485475L209.69676,132.79246240844546L209.74174,146.82355514942356L210.022865,127.17953336473781L210.270255,119.01443973462132L211.079895,111.44210533483418L211.32728500000002,131.64459718758633L211.372265,139.40858825694232L211.39475499999998,138.62757814501762L211.406,138.74186891568417L211.51845,161.12173161107086L211.74335,131.86439361369204L212.03572,146.6608058913592L212.41805000000002,117.88148543812937L212.519255,84.34919997935819L213.148975,110.59036712257185L213.75620500000002,77.60449898119411L214.048575,108.75603224056657L214.1048,133.59779769174415L214.3297,141.16497166977388L214.903195,101.2262123531281L214.948175,93.32131586340908L215.308015,92.15036388373467L215.85902,98.9165185514639L216.08392,31.102335312303012L216.44376000000003,68.28426906138061L216.55621,97.6209451256817L216.56745500000002,104.0470932111471L216.84858000000003,111.60729248527966L216.904805,122.09906184749221L216.949785,143.8220416467893L217.107215,136.07413219350855L217.57950499999998,114.4264848334045L217.86063,131.99572306014878L218.704005,123.926820024523L219.45742,98.85399292802569L219.806015,125.61331479991622L220.18834500000003,86.84959711120081L220.19959,-42.229258926413536L220.44698,37.95574309128398L220.87429,64.53479431870919L220.930515,95.38061733816377L220.98674,105.97776948354155L221.09919,117.82882429005531L221.402805,137.3828511930171L221.41405,133.81397782223328L221.49276500000002,72.68754502073608L221.650195,77.19240635686832L221.77389,35.249439259079026L221.97629999999998,69.60216066728144L221.99879,28.817566445869403L222.25742499999998,83.90904703819886L222.26867000000001,94.75636605120333L222.27991500000002,72.83955692330518L222.31365,97.56369379852082L222.527305,127.92752851065319L222.92088,126.88500696384546L223.112045,126.4293575073789L223.25823,119.99636176188005L223.269475,127.33045429012857L223.381925,148.76079204095413L223.50562,126.05469562611631L223.61807000000002,120.18096229939346L223.70803,137.52536399163324L223.82048,149.0996287056885L224.371485,139.74714229867124L224.461445,136.8359610790236L224.506425,136.7461170912014L224.821285,158.2047486409909L224.978715,96.33003840340912L225.046185,65.35825297255634L225.203615,54.41574308379393L225.226105,80.39525378775173L225.30482,64.0733308285064L225.3498,73.26873175989952L225.383535,75.71519360954385L225.39478,113.98276926012804L225.43975999999998,82.77380810522833L225.72088499999998,89.11056893351876L225.833335,88.84215908631985L225.878315,41.58825714680279L226.058235,34.72325154579849L226.21566499999997,74.28685014141675L226.62048499999997,108.80094391704064L226.63173,107.140184212559L226.71044500000002,111.5442847157825L226.83414000000002,136.92233079437574L227.17149,135.50719240579883L227.385145,92.41802817241985L227.39639000000003,100.67028408120976L227.452615,95.97565501255336L227.75623,125.60257341916424L227.95864,124.67923224702056L228.18354,140.67910089472144L229.43173499999997,150.02053436817098L229.53294,143.42010631715232L229.71285999999998,142.15473090741023L229.74659499999999,157.3594988716239L229.8478,155.0215054224259L230.16266,149.10208257305732L230.54499,70.8529043250292L230.556235,76.9491926609971L230.65744,39.846427680590836L230.691175,78.0128608052551L231.12973,71.37366503917278L231.298405,45.50376148763084L231.410855,64.41207625529225L231.57953,58.388961345779734L231.60202,66.57672857324721L231.69198,59.339780545255636L231.87189999999998,85.15782021046942L232.0968,98.19470074786429L232.36668,77.71526667850654L232.61407,109.12026317573819L232.92892999999998,133.93754383396373L233.06387,38.840409488919335L233.53616,38.49885305756601L233.569895,34.51274257665668L234.03094,28.70281231172055L234.1209,64.82702583761088L235.031745,101.81828301731619L235.04299,127.57633975954715L236.02130499999998,98.43491152871304L236.11126499999997,118.77080456079541L236.60604500000002,132.6954349167528L236.61729,123.68723017864947L237.190785,118.99730668142018L237.29199000000003,125.96308513135611L237.865485,123.2428133852031L237.977935,125.45333358859878L238.05665,85.01860855350408L238.112875,74.89267694504615L238.382755,40.70199882533467L238.79882,94.27097941550022L238.989985,39.34551442515908L239.462275,33.6424114681559L240.002035,69.20983634593215L240.024525,37.57129385866918L240.451835,31.15770818837632L240.73296,34.38266492743949L240.94661499999998,54.701190485943116L241.00284000000002,71.92347341074644L241.059065,102.76124939772866L241.261475,104.0889415479137L241.3177,87.37337222729111L241.373925,92.56393078448305L241.508865,105.09449339704562L241.74501,72.78335678135385L242.273525,109.76211165474716L242.50967,126.37702548876601L242.925735,74.86336638784293L243.10565499999998,98.43102171115073L243.487985,102.05136007308775L243.61168,126.14454108161081L243.75786499999998,119.84632037321904L244.17393,137.5208904014745L244.25264499999997,156.86588751750423L244.297625,143.5015839563902L244.57874999999999,92.62311493503242L244.87112000000002,83.59404895347515L245.32092,121.86141465230541L245.78196499999999,129.48838728006473L245.8157,139.25484901087341L245.871925,130.12916623739977L246.434175,139.7062684487616L246.659075,142.47185637073835L246.82775,141.05186866600815L246.86148500000002,127.04952504150384L246.883975,136.6632717246551L247.108875,134.92439179847605L247.176345,114.45674452964599L247.43498000000002,109.77264279181855L247.71610500000003,106.37122631747737L247.738595,111.99507300708375L247.88478,60.12821540121752L248.12092500000003,77.68093629777373L248.33458000000002,83.91825536824156L248.40205,46.451351464335545L248.55947999999998,87.76776099145766L248.683175,62.51125575176778L248.78438,94.27846239435432L248.82936,125.91069589924854L249.30165,146.8876786338992L249.38036499999998,152.4701711636332L249.42534500000002,147.15859761384868L249.48157,148.45564823385416L249.492815,161.73540730452189L249.942615,159.71533362740894L250.15626999999998,167.88613825246466L250.459885,178.33316080921526L250.71851999999998,142.42740120474983L251.044625,140.21233259246824L251.50567,118.83760015500465L251.61811999999998,121.94173594453125L251.75306,125.47883054558883L251.944225,39.77453904164656L252.124145,82.83866021750829L252.214105,54.54366281873446L252.31530999999998,43.278852128159116" style="fill: none;" fill="none"></path></g></g></g></g><g opacity="0.2"><g><g><g><path stroke="rgb(255, 112, 67)" stroke-width="2px" d="M28.31491,-124.70870009752417L28.58479,71.1000960285847L28.618525,122.60061739958249L28.910895,86.8054067538335L29.16953,140.92726371838495L29.855475000000002,140.53470145280545L29.88921,157.9285330749475L29.990415,37.456826145832366L30.687604999999998,-243.62583083372851L30.74383,-31.486594594441954L30.979975000000003,131.5862944171979L31.114915,116.62407044263986L31.182385,120.52964805639706L31.575960000000002,108.52804432923978L31.59845,164.8709548459603L31.68841,88.80366209837106L32.014514999999996,100.14270414755894L32.239415,142.3787235892736L32.846645,132.4194012605227L33.2852,8.988605866065399L33.44263,109.29336728040988L34.13982,72.67302317344226L34.443435,115.10870178387717L34.623355000000004,131.19904773968918L34.70207,104.46072676090094L34.713315,2.6359506203577894L35.084399999999995,41.484702862226044L35.24183,-154.51494722182935L35.388014999999996,103.61946393893315L35.545445,124.22229781976114L35.657895,154.81093052717355L36.14143,184.61788774912173L36.23139,131.97672638984827L36.32135,130.91778820753098L36.714925,104.76862509892537L36.759904999999996,141.75365506685696L36.782395,87.51197419716762L36.939825,127.29773071179024L36.962315000000004,144.31477438028043L37.04103,82.17098491925461L37.130990000000004,188.634940548585L37.19846,102.31824044080881L37.51332,125.54101000840848L38.739025000000005,62.0052668589812L39.031394999999996,-73.49361769052652L39.04264,-34.51449152139517L39.11011,156.40568810242874L39.177580000000006,27.687018733758208L39.37999,171.71112255637462L39.413725,132.42000991564532L39.51493,194.32435445143625L40.065935,148.15800542097827L40.099669999999996,132.5149398262684L40.234609999999996,126.6717492066897L40.403285,75.85856177715155L40.470755000000004,2.5730968346962584L40.52698,137.08723826133289L41.111720000000005,94.9983510512572L41.167944999999996,113.50375937957031L41.17919,144.95917784709198L41.3816,50.20413384070763L41.527784999999994,103.83894497614641L42.10128,145.25794635827725L42.292445,100.80019369950662L42.91092,152.33327811956406L42.944655000000004,47.819808551898376L43.102085,148.33412992495758L43.147065000000005,-47.89670766316931L43.686825000000006,-2.3743563294410706L43.76554,64.44021196548755L44.012930000000004,126.63983538976083L44.147870000000005,139.93982222447028L44.26032,87.0852055136974L44.59767,128.96986864163324L44.721365,143.16482196862881L44.878795000000004,117.90912400300687L45.238635,63.04286153499896L45.56474,30.890959010674408L45.74466,80.64344315803969L45.92458,-91.21749255290399L45.96956,54.55989307165146L46.160725000000006,126.21412170850314L46.5543,107.1740910089933L47.026590000000006,101.57480878554858L47.127795000000006,-25.922796964645386L47.251490000000004,106.8305254807839L47.330205,184.8954547735361L47.43141,90.68109940107053L47.588840000000005,47.34156793355942L47.61133,142.2197428712478L47.645064999999995,164.82785191902747L48.139845,104.04588771783389L48.64587,96.68391997080583L48.84828,113.65736364401303L48.949484999999996,118.10523268351189L49.09567,110.78266521142079L49.129405,106.42335549226175L49.219365,-185.76086659614856L49.669165,69.01871868280264L49.86033,-9.344390754516297L49.97278,115.11880545891248L50.006515,59.928961639220915L50.613745,150.50288985784238L50.748685,74.0654637859418L51.00732,204.1725262105465L51.45712,35.244567660185L51.468365,85.398520726424L51.558325,128.62622195940753L51.603305,151.54673339311893L51.68202,159.29540002804535L52.27800499999999,146.43317824602127L52.356719999999996,155.504046692298L52.705315,128.45482467688046L52.750295,139.60414892435074L52.840255,-794.6136398132031L52.930215000000004,75.87235795993072L52.975195,-8.431894994699064L53.200095,47.87071240865268L53.25632,-47.03213335000555L53.267565000000005,124.82736187714798L53.492465,101.14475336441627L53.54869,151.74503323206534L53.762344999999996,-29.77546215974371L53.942265,15.927152532797606L54.054715,98.86254011667693L54.189654999999995,71.74040121757068L54.482025,118.99354454645744L54.58323,123.91904554917262L54.976805000000006,117.64354748450793L54.98805,-48.78826568676877L55.01054,-239.34414493120636L55.505320000000005,142.25741862333737L55.595279999999995,41.38011562365753L55.696484999999996,105.67353295821411L55.71897499999999,48.53361899119159L55.7752,102.78073717997624L56.056325,-91.90697707579687L56.06757,88.03342932921191L56.18002,28.14353036421997L56.20251,135.55032321122977L56.258734999999994,177.72652199864388L56.416165,47.2179297896532L56.483635,153.2345949136294L56.58484,48.46772192991699L56.753515,58.063311957395996L56.820985,-178.52318622515747L57.41697,121.3271282865451L58.305325,167.84482348652986L58.507735,66.58468655898021L58.9238,92.03014290332794L59.081230000000005,154.19424115694486L59.474804999999996,130.12235711629575L60.408139999999996,125.72811059309886L60.678020000000004,46.05012349440503L61.476415,-74.16626275502722L61.566375,143.47442454099655L61.971195,99.90332008783633L62.274809999999995,99.10681370588449L62.308545,67.93235044295972L62.960755,-79.64529501474823L63.837865,-212.16444754600525L64.040275,120.96633781836584L64.05152,127.4684584736824L64.43384999999999,154.45878296173535L64.5463,-55.85576608547797L64.580035,-68.37937273428992L64.59128,109.9718757225917L64.61377,174.1727267572513L64.625015,12.383014619350433L65.277225,157.6383668894951L65.727025,125.45575771423486L66.07562,75.42118220604384L66.379235,129.70021421175738L66.43546,195.42509709642485L66.68285,138.83815645254575L66.896505,37.5446956570332L67.06518,97.78635670588567L67.2451,63.81017275956961L67.57120499999999,113.261879833845L67.60494,154.06887849019125L67.886065,157.62918634139575L68.5945,121.90234795441995L68.79691,163.58063641878275L68.8194,53.20656869503169L68.84188999999999,44.219572924650635L68.90936,0.9834925394791583L69.22422,21.317463164146147L69.38165,26.348362945593323L70.01137,89.14883041840334L70.05635,-49.3622274673902L70.180045,15.549461740713866L70.764785,123.59589025607477L71.00093,105.89049822092056L71.057155,113.69157006190375L71.079645,127.86526103661612L71.19209500000001,106.78193451349551L71.56318,124.1344283085603L71.69812,114.00529120060114L72.28286,127.1930014536931L72.59772000000001,134.1846228471169L72.91257999999999,140.8835014150693L73.33989,60.18952689721034L73.463585,54.81402687384532L73.49732,84.93498927354813L74.138285,67.13140087861282L74.19451,-14.622992882361814L74.31820499999999,38.82674651879532L75.13909000000001,103.49235646082805L75.27403,-38.70869339429419L75.29652,139.16936628176614L75.352745,162.0509643646387L75.36399,175.74432500509116L75.64511499999999,135.62766298880945L75.70134,78.98520285349628L75.735075,117.97041557385371L75.825035,108.80824885918544L76.04993499999999,12.67330253582736L76.08367,145.66229624473132L76.26359000000001,91.66712069969911L76.51098,-156.10414574696472L76.65716499999999,23.216385992673736L76.679655,-169.91294797567224L77.241905,95.00774462864949L77.511785,141.50615560549957L77.5905,170.79749064032848L77.65796999999999,136.25407055249582L77.92785,165.15090576960492L77.961585,143.47631137187665L78.62504,-229.12807158323437L78.816205,91.42120374166049L79.05235,158.04188494728163L79.59210999999999,17.82449285800641L79.625845,109.42579034658579L79.80576500000001,26.790611757681916L80.15436,78.03204893148863L80.46921999999999,124.48071249631735L80.55918,122.56760800343294L80.60416,126.72581807008157L80.69412,148.2469096458875L81.110185,19.051683604717255L81.16641,26.89655832602429L81.52624999999999,150.20156499514212L81.61621000000001,87.5410476235243L81.717415,147.28344916380368L81.95356,9.705175541914429L82.0885,-33.93635030893179L82.11099,142.08815163373947L82.5383,-34.259383871005156L82.67324,38.07787754443976L83.14553000000001,160.12969374885927L83.91019,-174.1008604123042L84.011395,24.083029733254364L84.04513,-65.10744568017813L84.89975,116.28926954819606L84.92224,180.03890425196062L84.933485,142.6479520385082L85.52947,36.10869562625885L85.84433,27.838310108735016L86.5865,160.32262727847467L87.025055,143.11621071283633L88.037105,65.59805660522902L88.217025,88.51296841181242L88.374455,144.65614875004843L89.0604,94.93724207694714L89.30779000000001,104.79832746890875L89.903775,125.6996255333607L90.128675,134.6812245616546L90.151165,38.62690475353827L90.51100500000001,108.00709640979767L90.780885,97.77540091367868L90.938315,125.32554609500446L91.42184999999999,93.24104198125693L91.73671,143.60246529028967L91.7592,16.25440610372104L91.80418,92.27068340778351L91.972855,74.39091168000148L92.4339,90.58097563340114L92.467635,159.97522722299283L93.06362,92.78223774983333L93.412215,24.835347753304717L93.42346,-20.702889479123655L93.614625,110.37316204492862L93.64836000000001,-39.52607664695154L94.03068999999999,51.603188505539535L94.05318000000001,159.21016802237585L94.13189500000001,126.56381436494681L94.536715,102.4880146430089L94.77286,155.0583691230187L95.04274,172.45979878994135L95.098965,112.53626148517316L95.16643499999999,129.36084840389398L95.47005,115.62325882453186L95.69494999999999,109.68144578658618L95.751175,154.11266108201102L95.91985,-107.13394574018622L95.976075,-343.6959962753149L96.45961,65.39032261188214L96.740735,41.02583776529019L96.763225,156.01194910361215L96.943145,70.73056121514394L97.055595,58.80798121140553L97.617845,151.76593039127496L97.83149999999999,175.9899477798205L97.977685,97.12823821031131L98.04515500000001,120.60723129602579L98.19134,124.39915270988757L98.83230499999999,147.61630236185513L99.09094,94.57525458702675L99.147165,165.16525988624647L99.417045,135.8044773019277L99.54074,164.08166102721142L99.664435,106.14682318155582L99.81062,110.60946225203001L100.0805,117.11273935207954L101.148775,117.12777313360802L101.16002,96.79053605978305L101.205,151.82200781657144L101.4299,145.50745438153928L102.03713,116.7002334869825L102.14958,114.4663271674743L102.363235,133.93815809946796L102.970465,176.99452291543668L103.07167000000001,149.48318964242935L103.13914,115.76657681740247L103.20661,126.29004129079672L103.240345,113.88844970556406L103.31906000000001,168.80564646308238L103.40902,119.52903932332993L103.442755,140.87542659044266L103.57769499999999,89.50878905791504L103.88131,142.85170948505402L103.92629000000001,107.51209748708285L104.049985,92.35344021595442L104.93834,93.41211464771858L105.09577,160.89972363297755L105.18572999999999,-19.956678298803467L105.354405,156.0264148070262L106.08533,-67.2272291641969L106.41143500000001,64.53420860492267L106.44516999999999,128.41725036731134L106.73754000000001,112.33242288461099L106.98493,-18.917988043565032L107.85079499999999,55.93890269444539L108.01947000000001,99.72066268554101L108.10943,17.67920688023935L108.368065,6.815565058818237L108.570475,163.6370283158926L109.020275,80.05509682802054L109.25641999999999,94.27912358137277L109.605015,170.71994797770793L110.20100000000001,134.26167858563937L110.324695,164.62054398426642L110.527105,133.90174023463175L110.639555,135.8365128498811L110.6508,154.54332515826593L110.86445499999999,166.65197103298627L111.12309,134.6987538291858L111.33674500000001,122.93767031797996L111.7753,148.27649028484637L111.80903500000001,154.46547816808408L111.88775000000001,-33.74872222313513L112.00019999999999,8.946527508588929L112.033935,217.38504930413686L112.20260999999999,152.73089222266123L112.573695,163.8652435541153L112.78735,75.1452991274687L113.675705,144.02795579800238L114.06928,118.72928678072415L114.260445,70.18378602999908L114.42912,104.6650522855612L114.552815,112.09234901574942L114.62028500000001,163.64425102334755L114.90141000000001,0.7304543165060124L114.957635,144.58615341094824L115.01386,-141.35209038624396L115.21627,125.78504013556702L115.33996499999999,88.39669499488978L115.3737,77.26524491952016L115.5986,70.47220740409999L115.68856,133.26476236031607L115.80101,61.871159846966094L116.194585,28.83997384401468L116.25081,-71.82764746592596L116.936755,32.607265013914855L116.948,134.0450176504942L117.30784,86.81510465878708L117.881335,145.9185603398543L117.971295,161.7853777018877L118.36487000000001,115.68603145617706L118.48856500000001,168.1192863698189L118.623505,100.17950749397278L118.81467,23.37400738092569L119.48937,48.98246156710846L120.09660000000001,96.92239104784453L120.14158,108.39665597677231L120.29901000000001,138.94112061078732L120.490175,217.03282058468233L120.557645,24.37548851966858L121.02993500000001,50.92437573579642L121.20985499999999,142.4439917069215L121.33355,122.55318287702707L121.524715,-11.971711456775665L121.749615,46.82305463460776L121.80584,38.54625794979242L121.82833000000001,170.07144623307082L121.8958,69.9264263556554L122.1207,155.8924295260356L122.154435,149.6670643549699L122.21066,-32.33136732761679L122.31186500000001,137.6742049730741L123.323915,113.45640601103122L123.33516,27.00597422856552L123.35765,48.7253656433179L123.67250999999999,-57.24098399052252L123.728735,-21.252545631848875L123.78496,56.7485966040538L124.43717,155.6332033093159L124.72954,167.77585271688608L124.830745,90.75024262299905L125.20182999999999,121.31491460708472L125.213075,134.17894206597254L125.31428,125.80437507996193L125.74159,113.26017559950168L125.83155,181.8141179268177L125.88777499999999,140.9206496660526L126.247615,119.68897360104782L126.77613000000001,5.968905494763277L126.82111,115.92853994552905L127.079745,123.28565874008032L127.282155,97.48953589109274L127.31589,141.0285642192914L127.552035,62.7459595661897L127.67573,161.00189653955974L127.94561,136.10348927516205L128.024325,146.22814262371799L128.21549,50.577442315908584L128.23798,53.49931152050311L128.271715,4.034011148489441L128.50786,139.55401603075174L128.58657499999998,60.118577998418075L128.84521,106.24802223994182L129.036375,100.1862027003215L129.238785,107.3404161654986L129.306255,167.32071056045018L129.418705,131.15325658596478L129.63236,158.31203652345218L129.935975,50.39494722164595L130.025935,30.89262266800955L130.26208,-22.330027506901672L131.060475,138.3080787062645L131.74642,101.26691044752414L131.85887,137.77177238922854L131.937585,1.176152174289399L132.2412,146.0104063978562L132.47734499999999,75.97619452384802L132.769715,138.61705233500555L132.87092,94.35378527641296L133.23076,123.62930542230606L133.466905,103.70530459972528L133.95044000000001,110.095067519408L133.984175,99.01500822489078L134.20907499999998,184.99908845241254L134.28779,165.58614490353145L134.58016,173.8818403299038L135.36731,91.10523057900943L135.468515,72.23286407727463L135.54722999999998,117.85148436289568L135.693415,-32.54358508036688L135.94080499999998,179.33006449616872L136.0645,156.98775514043294L136.188195,166.22527335928038L136.36811500000002,145.82227109945737L136.63799500000002,123.49832283992035L136.705465,98.80319624222243L136.9641,-50.633789172539366L137.16651000000002,116.52102513038196L137.852455,154.08257323044998L137.95365999999999,150.0342051249284L138.44844,126.35370661662176L138.7633,101.89143118033043L138.797035,-30.00679168334375L139.246835,102.16374348218625L139.516715,115.18754291075928L140.24764,157.90051465080336L141.12475,72.80556797064268L141.180975,35.04239271695798L141.21471,158.81334517093805L141.37214,106.6362630541508L141.50708,87.83425708458974L141.765715,66.13945533679082L141.833185,155.41437150423343L142.00186,142.59887414712173L142.18178,153.84903225990442L142.45165999999998,105.45758212071199L142.642825,-119.24403209869678L143.31752500000002,34.18491938022467L143.44122000000002,-45.36539216224966L143.66612,-28.00212517151465L143.744835,102.21259820002777L143.80106,139.8771713238496L145.01551999999998,139.63719889750848L145.049255,100.88712993951944L145.2854,109.67939664767339L145.341625,132.30880862474442L145.82515999999998,53.891711478049956L145.94885499999998,75.71230195118831L146.061305,-3.99098491210205L146.10628499999999,2.625218001695771L146.43239,121.89766130997585L146.53359500000002,139.26731917949823L146.79223,106.58789526040738L146.803475,127.12596823618964L146.93841500000002,-25.757932580434385L147.28701,152.42727475899918L147.388215,157.11110924528197L147.57938,163.32006101654127L147.635605,85.4397469667288L147.73681,119.38730383377809L147.82676999999998,72.39509095595433L147.91673,158.54896567418024L148.10789499999998,139.28432094592316L148.445245,158.66206394021327L148.557695,121.6592713869535L148.97376,39.57669078386749L148.512715,97.22564331843303L148.52396000000002,155.71141549257132L148.77135,136.3165794335879L148.85006499999997,118.39694079527489L149.16492499999998,22.41196709412796L149.277375,76.69377862490141L149.3336,136.51771966310648L149.457295,178.78774263767096L149.71593000000001,189.00584483605164L150.14324,72.63739656026547L150.176975,149.29752954152914L150.55930500000002,145.62664934305045L150.604285,35.53913645102429L150.86292,141.10831832885742L150.93039000000002,-9.099143317112578L150.95288,79.14028817873736L151.40268,157.2792197901469L151.47015,137.8316437647893L151.49264,119.99729799765808L151.616335,150.63853879616812L151.67256,127.01188597770837L151.82999,12.640820640784057L151.931195,123.705306158616L152.111115,81.93782943028671L152.39224000000002,141.45567780733109L152.605895,138.39042974435367L152.7071,126.79516417705096L152.90950999999998,100.19719906953665L153.21312500000002,39.74754027678418L153.47176,98.90342145241225L153.49425000000002,10.290295999783751L153.505495,68.83173982913678L154.16895,77.95152385876729L154.202685,70.2362115245599L154.30389,154.1207967721499L154.7312,30.382914579831635L155.304695,124.12970108710803L155.86694500000002,108.46517025507414L155.956905,36.95470595818301L156.361725,103.13990456782855L156.55289000000002,105.18930723116948L156.77778999999998,79.72064083814621L157.09265,82.68479128525807L157.126385,114.95006597042084L157.20510000000002,131.79605726095346L157.22759,154.01951655974756L157.418755,34.76900512438556L157.508715,139.31091917478122L157.60992000000002,80.90946602362854L157.778595,59.18199978424953L157.958515,176.6127439897794L158.39707,51.93358679459645L158.53200999999999,115.60270656989172L158.66695,46.7453496639545L158.790645,130.0015390744576L158.94807500000002,134.385174710017L158.970565,94.68832242030365L159.375385,124.63949032930228L159.780205,157.219084664033L160.08381999999997,164.45696792006493L160.252495,154.96625931446368L160.589845,22.56045865554077L160.85972500000003,102.07155251961488L161.06213499999998,-2.525120203311616L161.43322,-0.6332780627104171L161.736835,139.1857391045644L161.88302000000002,116.96449125271577L161.90551,169.336505316771L161.916755,132.57426341221884L162.14165500000001,136.94430575003992L162.19788,129.4805708665114L162.35531,127.92184567451477L162.46776,-1.8057101368904114L162.52398499999998,13.774562537670135L162.6027,157.38850381741156L162.81635500000002,136.71015612437174L162.95129500000002,110.6678931438006L163.34487000000001,-98.85262471895953L164.04206000000002,137.82784981452502L164.210735,57.63256672712474L164.33443,16.607040593257324L164.37941,148.21848545166162L164.55933,120.1662200826865L164.93041499999998,148.21154678326388L165.03162,149.53224724531174L165.5264,75.08948545272534L165.75130000000001,142.85678161107577L165.785035,53.37478068241707L165.964955,116.68550403301532L166.14487499999998,85.71954572659274L166.94327,144.4689061458294L167.04447499999998,127.9645935526261L167.39307,121.65290079667018L167.60672499999998,65.50990305497096L167.64046,41.376707154970916L167.88785,116.35835190461233L168.618775,80.99932380822989L168.708735,109.07798452102222L168.94488,60.49298205283972L169.19227,55.61785740577258L169.518375,12.004857191672698L170.03564500000002,139.86511995242194L170.35050500000003,124.64703765282265L171.01396,92.6960724729758L171.19387999999998,121.43656447759042L171.542475,114.78818399631061L171.632435,146.31270510875262L171.86858,65.93346615479543L172.149705,57.370337811800155L172.20593,123.9243814257475L172.352115,52.168730556964874L172.4983,77.21561923852333L172.56577000000001,35.36790147652994L173.03806,148.54484632840524L173.049305,98.72490290495065L173.274205,104.5776088329462L173.926415,106.33919877730884L174.11758,94.42349657645593L174.421195,22.359379291534424L174.43244,10.843664948756896L174.5224,129.704555951632L174.65734,127.21686073449942L174.79228,105.68708567894423L174.960955,9.746969860333678L175.005935,7.301048673116242L175.1971,203.27221369743347L175.39951000000002,82.1155567260889L175.60191999999998,59.36029515816615L175.77059500000001,14.382000350035156L175.88304499999998,97.17039772180411L175.91678,-12.06875137182385L176.05172000000002,74.62023264169693L176.062965,108.38446258581602L176.107945,136.90738067260156L176.422805,33.829343057595764L176.71517500000002,124.04152724834589L177.08626,139.07829118691959L177.254935,53.702866082008086L177.659755,37.72057669896347L178.25574,81.24826375337749L178.30072,130.68562685526334L178.52562,82.95556166080328L179.076625,16.41149999086673L179.40273,98.97530362239252L179.87501999999998,120.27594031278903L180.44851500000001,118.19107334430402L180.61719000000002,-57.05672379640433L180.70715,146.97427265002176L180.77461999999997,3.0144732411091013L181.33686999999998,140.38884739692395L181.37060499999998,170.6411981490942L181.40434,121.54914538676923L181.55052500000002,140.40503762318536L181.85414,144.4755201981618L182.135265,79.79532282169049L182.21398,77.83360707301361L182.46137,56.26875319389197L182.697515,105.50877001652351L182.84369999999998,82.4083401285685L183.237275,88.52477632119106L183.49590999999998,155.91379332083923L183.529645,152.01779188101108L183.67583000000002,138.9255593281526L183.72081,118.72417407769424L184.27181499999998,-62.88930352834555L184.28306,83.57040477716006L184.496715,92.66194720910146L184.53045,59.366848344986266L184.631655,148.92261827450534L184.64290000000003,131.58728855389816L184.71036999999998,176.65272248708285L184.93527,119.32832515239716L184.95775999999998,138.75878782455737L185.87985,120.03085518341798L185.94732000000002,133.45500766313992L186.790695,174.04488889299907L187.105555,95.54155545968277L187.465395,132.92482847433826L187.53286500000002,86.46395123004913L187.7915,104.50791782140732L188.207565,148.90026034300143L188.21881,140.33086285224329L188.28628,137.9906244828151L188.38748500000003,91.39951533079147L188.57864999999998,110.4081800029828L188.71359,54.77069062911548L188.78106,147.30197256803513L189.00596000000002,8.520996423868041L189.05094,167.32806514318173L189.32082,153.45939153891345L189.444515,80.58432245713016L190.006765,79.72617959976196L190.276645,123.71620108531073L190.53528,107.75870425426044L190.9401,122.4280636723225L191.20998,-33.84533607959747L191.23246999999998,21.488921312185425L191.243715,2.935692979739258L191.91841499999998,138.1971817429249L192.08709,139.34648492244574L192.15456,96.43735378063643L192.49191,172.80772634652945L192.593115,-26.506902997310334L192.638095,40.49082991251578L192.705565,50.6974893945914L192.885485,140.46503072977066L193.36902,148.14270788889667L193.50396,-95.1953783952273L193.740105,105.55129472108987L193.75135,49.13026331938231L193.79632999999998,128.02150280659015L193.84131,138.49290697849713L193.88629,115.92363012754001L194.077455,117.84491088757149L194.144925,173.28807696929346L194.189905,125.97248562482687L194.49352,166.29226599977568L194.797135,61.8625575212332L195.01079,77.81437357113911L195.37063,141.25169718724032L195.38187499999998,126.96526299531644L195.39312,38.01875684353021L195.66299999999998,-73.76799941979925L196.393925,11.622256581599913L196.528865,154.02574513050226L197.2373,114.1210574049216L197.70959,161.49571872903752L197.75457,121.51960532481854L198.24935000000002,152.31755452889664L198.463005,96.48131896899297L198.87906999999998,120.29543756521664L199.21642,136.43206159885113L199.295135,104.09908417555002L199.40758499999998,150.3658815897428L199.609995,125.72675126332504L199.86863,135.28862179701144L200.059795,132.89252917583173L200.127265,100.95487325466597L200.20598,155.34364577898612L200.734495,121.34571255628879L200.79072,140.02598750132782L200.97063999999997,127.37363000557974L201.03811,147.7647533462598L201.15056,95.30904920284564L201.35297,43.23578336147162L201.544135,70.90944495567909L201.566625,87.90317713297331L201.926465,118.27768496825145L202.15136500000003,147.13769655044263L202.27506000000002,158.3542264677011L202.80357500000002,183.17248399670308L202.938515,149.6918974839724L203.06221,171.7447406076468L203.78189,171.50865342983832L204.130485,116.6058919429779L204.54655,157.33836077956053L204.81643,174.31261599293123L204.917635,114.97656275675848L204.985105,104.79187572460908L205.15377999999998,-6.4651679855126645L205.344945,131.541781439231L205.502375,75.94261704958403L205.53611,5.539600748282197L205.749765,95.69708713201376L205.96341999999999,184.1181311721985L207.234105,130.55154013175232L207.32406500000002,107.67625177365083L207.391535,171.51287343868842L207.661415,161.99653030817325L207.67266,176.34886156137173L208.09997,-59.72015803593857L208.403585,136.22990694412817L208.538525,56.36912042361041L208.77467,78.0808224953138L209.43812499999999,96.75229222957904L209.58431,129.3450639477143L209.69676,176.42064228883157L209.74174,167.87019426089066L210.022865,97.71350068770923L210.270255,106.76679928944661L211.079895,100.0836037351535L211.32728500000002,161.94833496671455L211.372265,151.0545748609763L211.39475499999998,137.4560629771306L211.406,138.91330507168402L211.51845,194.6915256541509L211.74335,87.97838661762385L212.03572,168.85542430785986L212.41805000000002,74.71250475828464L212.519255,34.050771791201385L213.148975,149.95211783739236L213.75620500000002,28.1256967691275L214.048575,155.48333212962518L214.1048,170.86044586851045L214.3297,152.5157326368185L214.903195,41.318073378159454L214.948175,81.46397112883055L215.308015,90.39393591422302L215.85902,109.06575055305774L216.08392,-70.61893954643836L216.44376000000003,124.05716968499698L216.55621,141.62595922213336L216.56745500000002,113.6863153393452L216.84858000000003,122.94759139647851L216.904805,137.83671589081104L216.949785,176.40651134573497L217.107215,124.45226801358737L217.57950499999998,81.9550137932484L217.86063,158.34958040026518L218.704005,111.8234654710843L219.45742,61.24475228327972L219.806015,165.75229760775198L220.18834500000003,28.704020578127654L220.19959,-235.84754298283508L220.44698,158.23324611783028L220.87429,104.40337115984697L220.930515,141.64935186734567L220.98674,121.87349770160822L221.09919,135.605406499826L221.402805,166.7138915474598L221.41405,128.46066776605753L221.49276500000002,-19.002104181509765L221.650195,83.94969836106667L221.77389,-27.66501138760495L221.97629999999998,121.13124277958504L221.99879,-32.359324886248686L222.25742499999998,166.54626792669296L222.26867000000001,111.02734457071011L222.27991500000002,39.964343231457946L222.31365,134.64989911134427L222.527305,173.4732805788517L222.92088,125.32122464363391L223.112045,125.74588332267908L223.25823,110.34686814363187L223.269475,138.33159308250134L223.381925,180.90629866719246L223.50562,91.99555100385959L223.61807000000002,111.37036230930916L223.70803,163.54196652999292L223.82048,166.4610257767714L224.371485,125.71841268814526L224.461445,132.46918924955222L224.506425,136.61135110946802L224.821285,190.39269596567522L224.978715,3.517973047036378L225.046185,18.90057482627722L225.203615,38.00197825065027L225.226105,119.36451984368838L225.30482,39.59044638963846L225.3498,87.06183315698917L225.383535,79.38488638401031L225.39478,171.38413273600432L225.43975999999998,35.96036637287875L225.72088499999998,98.61571017595438L225.833335,88.43954431552154L225.878315,-29.2925957624729L226.058235,24.425743144292113L226.21566499999997,133.63224803484403L226.62048499999997,160.57208458047646L226.63173,104.64904465583655L226.71044500000002,118.15043547061774L226.83414000000002,174.98939991226564L227.17149,133.3844848229335L227.385145,27.784281822351318L227.39639000000003,113.04866794439462L227.452615,88.93371140956879L227.75623,170.0429510290806L227.95864,123.29422048880504L228.18354,164.67890386627272L229.43173499999997,164.03268457834537L229.53294,133.51946424062436L229.71285999999998,140.2566677927971L229.74659499999999,180.16665081794446L229.8478,151.51451524862875L230.16266,140.22294829900449L230.54499,-46.52086304701294L230.556235,86.09362516494899L230.65744,-15.807719790018524L230.691175,135.26251049225147L231.12973,61.414871390049285L231.298405,6.698906160317932L231.410855,92.77454840678436L231.57953,49.35428898151105L231.60202,78.85837941444838L231.69198,48.48435850326831L231.87189999999998,123.8848797082901L232.0968,117.75002155395654L232.36668,46.99611557446994L232.61407,156.22775792158566L232.92892999999998,171.16346482130197L233.06387,-103.80529202864722L233.53616,37.98651841053595L233.569895,28.533576855292694L234.03094,19.987916914316315L234.1209,119.01334612644635L235.031745,157.3051687868742L235.04299,166.21342487289354L236.02130499999998,54.72276918246196L236.11126499999997,149.274644108919L236.60604500000002,153.58238045068887L236.61729,110.17492307149448L237.190785,111.96242143557622L237.29199000000003,136.41175280626004L237.865485,119.1624057659736L237.977935,128.76911389369232L238.05665,24.36652100086212L238.112875,59.70377953235919L238.382755,-10.584018354232484L238.79882,174.62445030074852L238.989985,-43.04268306035263L239.462275,25.087757032651183L240.002035,122.5609736625965L240.024525,-9.88651987222525L240.451835,21.53732968293704L240.73296,39.22010003603424L240.94661499999998,85.17897882369849L241.00284000000002,97.75689779795134L241.059065,149.017913378202L241.261475,106.08047977319131L241.3177,62.30001824635727L241.373925,100.34976862027095L241.508865,123.89033731588951L241.74501,24.316651857816254L242.273525,165.23024396483714L242.50967,151.29939623979422L242.925735,-2.4071222635416234L243.10565499999998,133.78250469611243L243.487985,107.48186761599321L243.61168,162.28431259439543L243.75786499999998,110.39898931063139L244.17393,164.03274544385764L244.25264499999997,185.88338319154886L244.297625,123.4551286147191L244.57874999999999,16.305411402995787L244.87112000000002,70.05044998113925L245.32092,179.26246320055083L245.78196499999999,140.92884622170374L245.8157,153.9045416070865L245.871925,116.44064207718924L246.434175,154.0719217658043L246.659075,146.6202382537035L246.82775,138.92188710891284L246.86148500000002,106.04600960474748L246.883975,151.08389174938202L247.108875,132.31607190920755L247.176345,83.75527362640088L247.43498000000002,102.74649018507738L247.71610500000003,101.26910160596555L247.738595,120.43084304149335L247.88478,-17.67207100758185L248.12092500000003,104.01001764260806L248.33458000000002,93.27423397394327L248.40205,-9.7490043915235L248.55947999999998,149.74237528214087L248.683175,24.626497892233033L248.78438,141.92927235823413L248.82936,173.3590461565898L249.30165,178.3531527358752L249.38036499999998,160.8439099582342L249.42534500000002,139.19123728917197L249.48157,150.40122416386237L249.492815,181.65504591052348L249.942615,156.68522311173953L250.15626999999998,180.14234519004822L250.459885,194.0036946443411L250.71851999999998,88.5687617980517L251.044625,136.88972967404587L251.50567,86.77550149880923L251.61811999999998,126.59793962882117L251.75306,130.78447244717523L251.944225,-88.78189821426685L252.124145,147.43484198130093L252.214105,12.10116672057373L252.31530999999998,26.38163609229602" style="fill: none;" fill="none"></path></g></g></g></g></g></g><g transform="translate(48, 177)" clip-path="url(#clip_1)"><clipPath id="clip_1"><rect width="281" height="23"></rect></clipPath><g><g><line x1="0" y1="0" x2="0" y2="5" style="visibility: inherit;" fill="rgb(0, 0, 0)" stroke="rgb(204, 204, 204)" stroke-width="1px"></line><line x1="28.1125" y1="0" x2="28.1125" y2="5" style="visibility: inherit;" fill="rgb(0, 0, 0)" stroke="rgb(204, 204, 204)" stroke-width="1px"></line><line x1="56.225" y1="0" x2="56.225" y2="5" style="visibility: inherit;" fill="rgb(0, 0, 0)" stroke="rgb(204, 204, 204)" stroke-width="1px"></line><line x1="84.33749999999999" y1="0" x2="84.33749999999999" y2="5" style="visibility: inherit;" fill="rgb(0, 0, 0)" stroke="rgb(204, 204, 204)" stroke-width="1px"></line><line x1="112.45" y1="0" x2="112.45" y2="5" style="visibility: inherit;" fill="rgb(0, 0, 0)" stroke="rgb(204, 204, 204)" stroke-width="1px"></line><line x1="140.5625" y1="0" x2="140.5625" y2="5" style="visibility: inherit;" fill="rgb(0, 0, 0)" stroke="rgb(204, 204, 204)" stroke-width="1px"></line><line x1="168.67499999999998" y1="0" x2="168.67499999999998" y2="5" style="visibility: inherit;" fill="rgb(0, 0, 0)" stroke="rgb(204, 204, 204)" stroke-width="1px"></line><line x1="196.7875" y1="0" x2="196.7875" y2="5" style="visibility: inherit;" fill="rgb(0, 0, 0)" stroke="rgb(204, 204, 204)" stroke-width="1px"></line><line x1="224.9" y1="0" x2="224.9" y2="5" style="visibility: inherit;" fill="rgb(0, 0, 0)" stroke="rgb(204, 204, 204)" stroke-width="1px"></line><line x1="253.01250000000002" y1="0" x2="253.01250000000002" y2="5" style="visibility: inherit;" fill="rgb(0, 0, 0)" stroke="rgb(204, 204, 204)" stroke-width="1px"></line><line x1="281.125" y1="0" x2="281.125" y2="5" style="visibility: inherit;" fill="rgb(0, 0, 0)" stroke="rgb(204, 204, 204)" stroke-width="1px"></line></g><g transform="translate(0, 8)"><text x="0" y="0" dx="0em" dy="0.95em" style="text-anchor: middle; visibility: hidden; font-family: &quot;Helvetica Neue&quot;, sans-serif; font-size: 12px; font-weight: 200;" fill="rgb(50, 49, 63)" stroke="none" stroke-width="1px">-20k</text><text x="28.1125" y="0" dx="0em" dy="0.95em" style="text-anchor: middle; visibility: inherit; font-family: &quot;Helvetica Neue&quot;, sans-serif; font-size: 12px; font-weight: 200;" fill="rgb(50, 49, 63)" stroke="none" stroke-width="1px">0</text><text x="56.225" y="0" dx="0em" dy="0.95em" style="text-anchor: middle; visibility: hidden; font-family: &quot;Helvetica Neue&quot;, sans-serif; font-size: 12px; font-weight: 200;" fill="rgb(50, 49, 63)" stroke="none" stroke-width="1px">20k</text><text x="84.33749999999999" y="0" dx="0em" dy="0.95em" style="text-anchor: middle; visibility: inherit; font-family: &quot;Helvetica Neue&quot;, sans-serif; font-size: 12px; font-weight: 200;" fill="rgb(50, 49, 63)" stroke="none" stroke-width="1px">40k</text><text x="112.45" y="0" dx="0em" dy="0.95em" style="text-anchor: middle; visibility: hidden; font-family: &quot;Helvetica Neue&quot;, sans-serif; font-size: 12px; font-weight: 200;" fill="rgb(50, 49, 63)" stroke="none" stroke-width="1px">60k</text><text x="140.5625" y="0" dx="0em" dy="0.95em" style="text-anchor: middle; visibility: inherit; font-family: &quot;Helvetica Neue&quot;, sans-serif; font-size: 12px; font-weight: 200;" fill="rgb(50, 49, 63)" stroke="none" stroke-width="1px">80k</text><text x="168.67499999999998" y="0" dx="0em" dy="0.95em" style="text-anchor: middle; visibility: hidden; font-family: &quot;Helvetica Neue&quot;, sans-serif; font-size: 12px; font-weight: 200;" fill="rgb(50, 49, 63)" stroke="none" stroke-width="1px">100k</text><text x="196.7875" y="0" dx="0em" dy="0.95em" style="text-anchor: middle; visibility: inherit; font-family: &quot;Helvetica Neue&quot;, sans-serif; font-size: 12px; font-weight: 200;" fill="rgb(50, 49, 63)" stroke="none" stroke-width="1px">120k</text><text x="224.9" y="0" dx="0em" dy="0.95em" style="text-anchor: middle; visibility: hidden; font-family: &quot;Helvetica Neue&quot;, sans-serif; font-size: 12px; font-weight: 200;" fill="rgb(50, 49, 63)" stroke="none" stroke-width="1px">140k</text><text x="253.01250000000002" y="0" dx="0em" dy="0.95em" style="text-anchor: middle; visibility: inherit; font-family: &quot;Helvetica Neue&quot;, sans-serif; font-size: 12px; font-weight: 200;" fill="rgb(50, 49, 63)" stroke="none" stroke-width="1px">160k</text><text x="281.125" y="0" dx="0em" dy="0.95em" style="text-anchor: middle; visibility: hidden; font-family: &quot;Helvetica Neue&quot;, sans-serif; font-size: 12px; font-weight: 200;" fill="rgb(50, 49, 63)" stroke="none" stroke-width="1px">180k</text></g><line x1="0" y1="0" x2="281.125" y2="0" fill="rgb(0, 0, 0)" stroke="rgb(204, 204, 204)" stroke-width="1px"></line></g></g></g></g></svg>