<svg viewBox="0 0 330 200" xmlns="http://www.w3.org/2000/svg"><g><g><g><g><g><line x1="58.59375" y1="177" x2="53.59375" y2="177" style="visibility: inherit;" fill="rgb(0, 0, 0)" stroke="rgb(204, 204, 204)" stroke-width="1px"></line><line x1="58.59375" y1="157.33333333333334" x2="53.59375" y2="157.33333333333334" style="visibility: inherit;" fill="rgb(0, 0, 0)" stroke="rgb(204, 204, 204)" stroke-width="1px"></line><line x1="58.59375" y1="137.66666666666666" x2="53.59375" y2="137.66666666666666" style="visibility: inherit;" fill="rgb(0, 0, 0)" stroke="rgb(204, 204, 204)" stroke-width="1px"></line><line x1="58.59375" y1="118" x2="53.59375" y2="118" style="visibility: inherit;" fill="rgb(0, 0, 0)" stroke="rgb(204, 204, 204)" stroke-width="1px"></line><line x1="58.59375" y1="98.33333333333333" x2="53.59375" y2="98.33333333333333" style="visibility: inherit;" fill="rgb(0, 0, 0)" stroke="rgb(204, 204, 204)" stroke-width="1px"></line><line x1="58.59375" y1="78.66666666666666" x2="53.59375" y2="78.66666666666666" style="visibility: inherit;" fill="rgb(0, 0, 0)" stroke="rgb(204, 204, 204)" stroke-width="1px"></line><line x1="58.59375" y1="58.999999999999986" x2="53.59375" y2="58.999999999999986" style="visibility: inherit;" fill="rgb(0, 0, 0)" stroke="rgb(204, 204, 204)" stroke-width="1px"></line><line x1="58.59375" y1="39.33333333333334" x2="53.59375" y2="39.33333333333334" style="visibility: inherit;" fill="rgb(0, 0, 0)" stroke="rgb(204, 204, 204)" stroke-width="1px"></line><line x1="58.59375" y1="19.666666666666657" x2="53.59375" y2="19.666666666666657" style="visibility: inherit;" fill="rgb(0, 0, 0)" stroke="rgb(204, 204, 204)" stroke-width="1px"></line><line x1="58.59375" y1="0" x2="53.59375" y2="0" style="visibility: inherit;" fill="rgb(0, 0, 0)" stroke="rgb(204, 204, 204)" stroke-width="1px"></line></g><g transform="translate(48.59375, 0)"><text x="0" y="177" dx="0em" dy="0.3em" style="text-anchor: end; visibility: hidden; font-family: &quot;Helvetica Neue&quot;, sans-serif; font-size: 12px; font-weight: 200;" fill="rgb(50, 49, 63)" stroke="none" stroke-width="1px">-0.02</text><text x="0" y="157.33333333333334" dx="0em" dy="0.3em" style="text-anchor: end; visibility: inherit; font-family: &quot;Helvetica Neue&quot;, sans-serif; font-size: 12px; font-weight: 200;" fill="rgb(50, 49, 63)" stroke="none" stroke-width="1px">0</text><text x="0" y="137.66666666666666" dx="0em" dy="0.3em" style="text-anchor: end; visibility: hidden; font-family: &quot;Helvetica Neue&quot;, sans-serif; font-size: 12px; font-weight: 200;" fill="rgb(50, 49, 63)" stroke="none" stroke-width="1px">0.02</text><text x="0" y="118" dx="0em" dy="0.3em" style="text-anchor: end; visibility: inherit; font-family: &quot;Helvetica Neue&quot;, sans-serif; font-size: 12px; font-weight: 200;" fill="rgb(50, 49, 63)" stroke="none" stroke-width="1px">0.04</text><text x="0" y="98.33333333333333" dx="0em" dy="0.3em" style="text-anchor: end; visibility: hidden; font-family: &quot;Helvetica Neue&quot;, sans-serif; font-size: 12px; font-weight: 200;" fill="rgb(50, 49, 63)" stroke="none" stroke-width="1px">0.06</text><text x="0" y="78.66666666666666" dx="0em" dy="0.3em" style="text-anchor: end; visibility: inherit; font-family: &quot;Helvetica Neue&quot;, sans-serif; font-size: 12px; font-weight: 200;" fill="rgb(50, 49, 63)" stroke="none" stroke-width="1px">0.08</text><text x="0" y="58.999999999999986" dx="0em" dy="0.3em" style="text-anchor: end; visibility: hidden; font-family: &quot;Helvetica Neue&quot;, sans-serif; font-size: 12px; font-weight: 200;" fill="rgb(50, 49, 63)" stroke="none" stroke-width="1px">0.1</text><text x="0" y="39.33333333333334" dx="0em" dy="0.3em" style="text-anchor: end; visibility: inherit; font-family: &quot;Helvetica Neue&quot;, sans-serif; font-size: 12px; font-weight: 200;" fill="rgb(50, 49, 63)" stroke="none" stroke-width="1px">0.12</text><text x="0" y="19.666666666666657" dx="0em" dy="0.3em" style="text-anchor: end; visibility: hidden; font-family: &quot;Helvetica Neue&quot;, sans-serif; font-size: 12px; font-weight: 200;" fill="rgb(50, 49, 63)" stroke="none" stroke-width="1px">0.14</text><text x="0" y="0" dx="0em" dy="0.3em" style="text-anchor: end; visibility: hidden; font-family: &quot;Helvetica Neue&quot;, sans-serif; font-size: 12px; font-weight: 200;" fill="rgb(50, 49, 63)" stroke="none" stroke-width="1px">0.16</text></g><line x1="58.59375" y1="0" x2="58.59375" y2="177" fill="rgb(0, 0, 0)" stroke="rgb(204, 204, 204)" stroke-width="1px"></line></g></g><g transform="translate(58, 0)" clip-path="url(#clip_0)"><clipPath id="clip_0"><rect width="271" height="177"></rect></clipPath><g><g><g><line x1="0" y1="0" x2="0" y2="177" fill="rgb(0, 0, 0)" stroke="rgb(60, 60, 60)" stroke-width="1px" opacity="0.25"></line><line x1="27.140625" y1="0" x2="27.140625" y2="177" fill="rgb(0, 0, 0)" stroke="rgb(60, 60, 60)" stroke-width="1px" opacity="0.25"></line><line x1="54.28125" y1="0" x2="54.28125" y2="177" fill="rgb(0, 0, 0)" stroke="rgb(60, 60, 60)" stroke-width="1px" opacity="0.25"></line><line x1="81.421875" y1="0" x2="81.421875" y2="177" fill="rgb(0, 0, 0)" stroke="rgb(60, 60, 60)" stroke-width="1px" opacity="0.25"></line><line x1="108.5625" y1="0" x2="108.5625" y2="177" fill="rgb(0, 0, 0)" stroke="rgb(60, 60, 60)" stroke-width="1px" opacity="0.25"></line><line x1="135.703125" y1="0" x2="135.703125" y2="177" fill="rgb(0, 0, 0)" stroke="rgb(60, 60, 60)" stroke-width="1px" opacity="0.25"></line><line x1="162.84375" y1="0" x2="162.84375" y2="177" fill="rgb(0, 0, 0)" stroke="rgb(60, 60, 60)" stroke-width="1px" opacity="0.25"></line><line x1="189.984375" y1="0" x2="189.984375" y2="177" fill="rgb(0, 0, 0)" stroke="rgb(60, 60, 60)" stroke-width="1px" opacity="0.25"></line><line x1="217.125" y1="0" x2="217.125" y2="177" fill="rgb(0, 0, 0)" stroke="rgb(60, 60, 60)" stroke-width="1px" opacity="0.25"></line><line x1="244.265625" y1="0" x2="244.265625" y2="177" fill="rgb(0, 0, 0)" stroke="rgb(60, 60, 60)" stroke-width="1px" opacity="0.25"></line><line x1="271.40625" y1="0" x2="271.40625" y2="177" fill="rgb(0, 0, 0)" stroke="rgb(60, 60, 60)" stroke-width="1px" opacity="0.25"></line></g><g><line x1="0" y1="177" x2="271.40625" y2="177" fill="rgb(0, 0, 0)" stroke="rgb(60, 60, 60)" stroke-width="1px" opacity="0.25"></line><line x1="0" y1="157.33333333333334" x2="271.40625" y2="157.33333333333334" fill="rgb(0, 0, 0)" stroke="rgb(60, 60, 60)" stroke-width="1px" opacity="0.25"></line><line x1="0" y1="137.66666666666666" x2="271.40625" y2="137.66666666666666" fill="rgb(0, 0, 0)" stroke="rgb(60, 60, 60)" stroke-width="1px" opacity="0.25"></line><line x1="0" y1="118" x2="271.40625" y2="118" fill="rgb(0, 0, 0)" stroke="rgb(60, 60, 60)" stroke-width="1px" opacity="0.25"></line><line x1="0" y1="98.33333333333333" x2="271.40625" y2="98.33333333333333" fill="rgb(0, 0, 0)" stroke="rgb(60, 60, 60)" stroke-width="1px" opacity="0.25"></line><line x1="0" y1="78.66666666666666" x2="271.40625" y2="78.66666666666666" fill="rgb(0, 0, 0)" stroke="rgb(60, 60, 60)" stroke-width="1px" opacity="0.25"></line><line x1="0" y1="58.999999999999986" x2="271.40625" y2="58.999999999999986" fill="rgb(0, 0, 0)" stroke="rgb(60, 60, 60)" stroke-width="1px" opacity="0.25"></line><line x1="0" y1="39.33333333333334" x2="271.40625" y2="39.33333333333334" fill="rgb(0, 0, 0)" stroke="rgb(60, 60, 60)" stroke-width="1px" opacity="0.25"></line><line x1="0" y1="19.666666666666657" x2="271.40625" y2="19.666666666666657" fill="rgb(0, 0, 0)" stroke="rgb(60, 60, 60)" stroke-width="1px" opacity="0.25"></line><line x1="0" y1="0" x2="271.40625" y2="0" fill="rgb(0, 0, 0)" stroke="rgb(60, 60, 60)" stroke-width="1px" opacity="0.25"></line></g></g></g><g><g><line x1="0" y1="157.33333333333334" x2="271.40625" y2="157.33333333333334" fill="rgb(0, 0, 0)" stroke="rgb(153, 153, 153)" stroke-width="1.5px"></line></g></g><g><g><line x1="27.140625" y1="0" x2="27.140625" y2="177" fill="rgb(0, 0, 0)" stroke="rgb(153, 153, 153)" stroke-width="1.5px"></line></g></g><g><g><g><g><g><path stroke="rgb(255, 112, 67)" stroke-width="2px" d="M32.351625,-2.2396284469287195L32.785875000000004,9.972082682906574L33.220124999999996,18.776291554902485L33.654375,25.19556531614549L34.088625,30.25244653270292L34.522875,33.967182553916814L34.957125,36.54124371169877L35.391375,38.878076834265045L35.825625,41.131873302693236L36.259875,42.327426205345745L36.694125,42.905398566384434L37.128375,44.38958526711207L37.562625,45.31634100738461L37.996875,45.54764201636527L38.431125,45.84226100833445L38.865375,46.68727395286845L39.299625000000006,47.702080514526756L39.733875,47.911431855447034L40.168124999999996,48.685596534869944L40.602375,49.161758913303046L41.036625,49.55796780314844L41.470875,49.705601794539646L41.905125000000005,50.83757939279063L42.339375,51.54185447827207L42.773624999999996,51.88444742614587L43.207875,52.4459257746002L43.642125,52.40691256261681L44.076375,53.57023266751196L44.510625000000005,54.97490623983329L44.944874999999996,55.94068554324244L45.379124999999995,56.45320444290137L45.813375,57.42240730928857L46.247625,58.16736059399727L46.681875,59.53135807132654L47.116125000000004,60.888560840434565L47.550374999999995,62.18418330291641L47.984625,63.142718243649995L48.418875,65.05408156598249L48.853125,65.86809618086795L49.287375000000004,67.2682994036587L49.721625,69.83607244663162L50.155874999999995,72.58069600566151L50.590125,74.64140905084695L51.024375,77.17991474753208L51.458625,79.7481590379418L51.892875000000004,82.63358284845835L52.327125,84.77936801800081L52.761374999999994,88.57887851291287L53.195625,89.68927017704682L53.629875,92.03750692520167L54.064125,93.70544762142674L54.498375,95.7068186306646L54.932625,95.54123167616271L55.36687499999999,96.37457911921825L55.801125,98.91202251068724L56.235375,100.61780983280325L56.669625,99.75545991006206L57.103875,102.14934467996781L57.538125,102.7330681774554L57.97237500000001,103.49290541967973L58.406625,104.15244663652514L58.840875,105.52433121242166L59.275125,105.7446908396763L59.709375,105.46179841214114L60.143625,105.71596870573576L60.577875000000006,105.73144953897923L61.012125,106.33710734517176L61.446374999999996,106.2111333914844L61.880625,107.0712216898748L62.314875,105.95343816607884L62.749125,106.44322799243345L63.183375000000005,107.347622876949L63.617625,106.90246856247597L64.051875,105.35409043948977L64.486125,105.75805153481838L64.92037499999999,106.90644943932301L65.354625,107.25524117680155L65.788875,105.86665822246728L66.223125,105.35688714193736L66.657375,106.26404552364806L67.09162500000001,105.51512030584293L67.525875,106.22020720733806L67.960125,106.34053232447468L68.394375,106.02903041646577L68.828625,105.98794816080151L69.262875,106.5542319216932L69.69712499999999,107.43031694880754L70.131375,108.28575726086873L70.565625,108.8105019235709L70.999875,107.85784561857176L71.434125,108.80224166070178L71.868375,107.49683500580839L72.302625,108.08993224652322L72.736875,107.31725472421473L73.171125,108.59265085087833L73.605375,107.95935121889877L74.039625,107.63412165869853L74.47387499999999,109.53144160943972L74.90812500000001,108.79268133066743L75.342375,109.74904384864955L75.776625,109.80703414571438L76.210875,110.68591214970044L76.645125,111.79374219728683L77.079375,110.29813270918434L77.513625,109.9585437555228L77.947875,111.63553696646974L78.382125,111.07500625317107L78.816375,111.17714234887447L79.250625,110.45315948445928L79.684875,111.35543998570839L80.11912500000001,111.92664580042124L80.553375,111.06925884879604L80.987625,112.30998403924887L81.421875,112.30801681040636L81.85612499999999,112.34801965669142L82.29037500000001,111.10385302433579L82.724625,112.07504170971636L83.158875,111.32338958782468L83.593125,110.1819066929967L84.02737499999999,111.41634438404347L84.461625,112.0740120260054L84.895875,113.56503831335709L85.33012500000001,114.03122208310448L85.764375,111.8762275445061L86.19862499999999,112.43660302763762L86.632875,113.05968928022534L87.06712499999999,112.77940302799155L87.50137500000001,112.36016565984494L87.935625,112.85057259356581L88.369875,112.1423521861768L88.804125,112.76815818699218L89.23837499999999,112.51867459487131L89.67262500000001,111.79672486447024L90.106875,113.27649676022565L90.54112500000001,113.4162739468672L90.975375,114.27478149452159L91.40962499999999,114.32106355380027L91.843875,115.01188702713058L92.278125,115.04161594309771L92.71237500000001,115.69083108901L93.146625,116.25565319001089L93.58087499999999,114.25173234287546L94.015125,116.05653030083764L94.44937499999999,116.84443631811651L94.88362500000001,115.93503764794497L95.317875,114.56065904116369L95.752125,115.54104981531145L96.186375,115.57988308594291L96.62062499999999,115.36593502993782L97.054875,115.28072311323126L97.489125,115.82748330041511L97.92337500000001,116.8029928052708L98.357625,114.55280862416532L98.79187499999999,114.5217761735064L99.226125,116.03288060565446L99.660375,116.24256191436243L100.09462500000001,116.7536970701841L100.528875,117.10948119026587L100.963125,116.80196372943419L101.397375,114.775483862225L101.83162499999999,116.07697921434868L102.26587500000001,114.85063654247818L102.700125,115.90712144810297L103.134375,116.73523536824189L103.568625,116.91467992963197L104.00287499999999,116.63287208578072L104.437125,116.3073539958462L104.871375,116.93664459344139L105.305625,117.09111235910488L105.739875,115.89514151736398L106.174125,117.5018695534724L106.608375,117.11648674655703L107.04262499999999,117.99480875044314L107.476875,117.62283310220191L107.911125,117.52361047322879L108.345375,117.37013627522387L108.779625,117.46177453060864L109.213875,118.15207102453661L109.64812500000001,118.6050935162462L110.082375,118.59946926971418L110.516625,118.11083766245926L110.950875,117.9873279636547L111.385125,118.92747050059508L111.819375,117.91229830105705L112.253625,116.77316773088535L112.687875,117.40330781033691L113.122125,118.44805654778713L113.556375,117.61337605850676L113.990625,117.94193577510185L114.424875,117.85924692099532L114.859125,118.61703266289973L115.293375,118.28246574453797L115.727625,119.05134735615422L116.161875,118.46336965726637L116.596125,118.23354208052251L117.030375,118.50447207935706L117.464625,119.02912735192808L117.898875,118.24570424009661L118.333125,118.77834059387028L118.767375,118.47251855983086L119.20162499999999,117.84927257689088L119.63587500000001,117.65574062243451L120.070125,119.5035256517451L120.504375,119.86889192993567L120.938625,118.3222621810543L121.372875,119.15817330174292L121.807125,117.79099895095416L122.241375,118.53402152877402L122.675625,118.98211944831223L123.109875,119.06152324715939L123.544125,119.77792117202095L123.978375,119.44756636045662L124.41262499999999,118.76305899533999L124.84687500000001,119.18774928657237L125.281125,119.41727124854738L125.715375,119.96103279812026L126.149625,119.5785451026135L126.58387499999999,119.43860898562511L127.01812500000001,120.2860604146018L127.452375,119.55682025962437L127.886625,119.14238950677732L128.320875,118.89572383702608L128.755125,119.06680545851079L129.18937499999998,118.54268494334511L129.623625,119.68789171628174L130.057875,120.36329353323788L130.492125,120.72499087237046L130.926375,120.41862560877834L131.360625,120.85036507489066L131.794875,121.47147379164963L132.229125,121.43841447638513L132.663375,121.68019892200057L133.097625,121.41450594320432L133.53187499999999,120.23340110354346L133.966125,120.77373333994183L134.400375,121.51219248805621L134.83462500000002,122.13344026725001L135.268875,121.00099822950665L135.703125,120.73783834520361L136.13737500000002,119.98668243434061L136.57162499999998,119.93757987586275L137.005875,120.98048999250503L137.440125,120.4416147242421L137.87437500000001,119.2992547136804L138.308625,120.20446993900899L138.742875,120.79729553953943L139.17712500000002,120.63028419253908L139.61137499999998,121.1177004291873L140.045625,120.57577383106516L140.479875,120.62572244357406L140.914125,121.15062831571502L141.348375,121.69418788789194L141.782625,121.43263318343053L142.21687500000002,120.63684523624036L142.65112499999998,121.96787777456754L143.085375,122.43617170897986L143.51962500000002,121.02425781795102L143.95387499999998,121.67358762865496L144.388125,122.20004714237788L144.822375,122.67544211570703L145.256625,121.65775722836028L145.690875,122.47522366588058L146.125125,122.36171476172252L146.55937500000002,122.39144915219254L146.99362499999998,122.70483107294305L147.427875,121.87363137955863L147.862125,121.66493020647007L148.296375,121.84194419201158L148.730625,119.67828894803489L149.164875,120.7028165130788L149.59912500000002,121.3086842210476L150.03337499999998,121.31417079635764L150.467625,122.33834442417805L150.90187500000002,121.63204004618117L151.336125,120.7437033131873L151.770375,121.44200607787502L152.204625,122.75763411711216L152.638875,122.36097012693024L153.07312499999998,121.75578553915622L153.507375,121.9039860046343L153.94162500000002,122.00764847456034L154.37587499999998,121.26328211223255L154.810125,121.21210936026873L155.244375,122.33452752322216L155.678625,122.31059118761775L156.112875,122.96681809815261L156.547125,123.4120398177256L156.981375,120.88686918796398L157.41562499999998,121.54764440108119L157.849875,121.75343985825049L158.28412500000002,120.4860637573556L158.718375,120.23061051000096L159.152625,121.78004912552598L159.586875,121.69237805714624L160.021125,122.2486303804939L160.45537499999998,121.99347660890967L160.889625,122.3215181049809L161.32387500000002,123.3411304364863L161.758125,122.72467451653458L162.192375,123.02630401171194L162.626625,123.30418805788128L163.060875,122.14467373893758L163.495125,121.78211726291637L163.929375,121.15124962852593L164.363625,121.9499693848264L164.79787499999998,123.04495474522739L165.232125,123.94731603160758L165.66637500000002,123.58455194887674L166.100625,123.55137382362577L166.534875,124.1419571662801L166.969125,123.81024802475318L167.403375,121.65142845063892L167.83762499999997,121.86958719958557L168.271875,122.11066717308574L168.70612500000001,122.59399138133813L169.140375,123.25285717293276L169.574625,123.35575640963309L170.008875,122.76805417299344L170.443125,123.48661907053038L170.877375,123.4412149749361L171.311625,123.88781943493063L171.745875,123.48077118142231L172.180125,123.92982228046924L172.614375,124.47974872259063L173.048625,123.40001356205003L173.482875,122.97156603694353L173.917125,123.54373219148553L174.351375,123.56214102230213L174.785625,123.4214550234183L175.21987499999997,123.10287396077143L175.654125,124.04556404131945L176.088375,123.99637555029966L176.522625,123.82979275850639L176.956875,122.62367033303688L177.391125,123.514076998875L177.825375,123.34203804495658L178.259625,123.60791891890403L178.693875,124.27934916959784L179.128125,124.8530488102431L179.562375,124.16915868155925L179.996625,124.15246497849287L180.430875,123.91732886787054L180.865125,123.58898723933575L181.299375,123.54896805671936L181.733625,123.84871767752222L182.167875,124.36170051669788L182.602125,124.1173108538531L183.036375,124.55068503641343L183.470625,125.12596765154552L183.904875,124.46265034870675L184.339125,125.04188507197125L184.773375,124.64240521429672L185.207625,124.67718784752702L185.64187500000003,124.9476797426336L186.076125,125.32479970522283L186.510375,124.784439672237L186.944625,125.04644735408148L187.378875,124.97100053083294L187.81312499999999,124.32675200016136L188.247375,125.1193510143608L188.681625,124.73069510352514L189.115875,125.09762344752887L189.550125,125.1669283250678L189.984375,125.25135899422816L190.418625,124.7532814393734L190.852875,124.10899494590134L191.287125,124.52319463889859L191.721375,124.63647928914067L192.155625,124.79729906567317L192.589875,124.43833182363738L193.02412500000003,125.03220997418381L193.458375,124.15547811884929L193.892625,124.50464979250779L194.326875,124.49245140814514L194.761125,123.5397566171312L195.19537499999998,124.07817204267722L195.629625,124.39994943422641L196.06387500000002,124.76717768579263L196.498125,125.2348393915268L196.932375,125.47538589347437L197.366625,125.41143584395866L197.800875,125.32382505126051L198.235125,125.37620492073249L198.669375,124.80069153483123L199.10362500000002,124.58878267194079L199.53787499999999,124.85406007996349L199.972125,125.48172956286558L200.406375,125.06974200851931L200.840625,124.35419150062728L201.274875,123.63106798947848L201.709125,122.39931915395059L202.143375,122.4047863792932L202.57762499999998,123.16434358526602L203.011875,124.2041842796564L203.44612500000002,125.05456836570264L203.880375,123.97467310755826L204.314625,124.63728607612475L204.748875,124.64505838007307L205.183125,124.69595723440592L205.617375,125.55329372191635L206.051625,125.34186068596964L206.48587500000002,125.01105574919296L206.92012499999998,125.0682042190642L207.354375,125.31836726760133L207.788625,124.42441439327754L208.222875,124.58853336690163L208.657125,125.27322845271206L209.091375,124.94222509430435L209.52562500000002,124.94427131255419L209.95987499999998,125.11303339485298L210.394125,125.53139793426178L210.82837500000002,125.8005260639412L211.26262499999999,125.80266244091727L211.696875,125.03441246575994L212.131125,124.94450382824867L212.565375,125.46926106077112L212.999625,125.72080501056718L213.433875,125.66801484904889L213.86812500000002,126.02886311699274L214.30237499999998,125.71075996352825L214.736625,126.01468971328096L215.170875,126.1682240235179L215.605125,126.1136392256043L216.039375,126.17814343276152L216.473625,124.94164573412654L216.90787500000002,124.97709032850375L217.34212499999998,125.15891523434863L217.776375,124.77673227950422L218.21062500000002,124.83526374219548L218.64487499999998,125.44290154964939L219.079125,124.85018108760048L219.513375,124.51647087717888L219.94762500000002,125.23609531890256L220.381875,125.155245874152L220.816125,125.65565092791641L221.25037500000002,125.57591439940248L221.68462499999998,125.45410657023021L222.118875,125.02063165164765L222.553125,124.5218876166549L222.987375,123.94661012371817L223.421625,124.68055850216015L223.855875,125.24701641171136L224.29012500000002,125.78243435225264L224.72437499999998,126.38066422522887L225.158625,126.61677717962358L225.59287500000002,126.07083334007956L226.02712499999998,126.13144777404725L226.461375,126.01869919809178L226.895625,125.28658914513869L227.32987500000002,124.91972703604391L227.76412499999998,124.90453222812309L228.198375,124.81551650914207L228.63262500000002,125.49175100377792L229.06687499999998,126.156304989864L229.501125,126.61996031280928L229.935375,125.6942802248989L230.369625,125.43807519546714L230.803875,125.36671707970837L231.238125,123.89367380803589L231.67237500000002,124.2750797623342L232.10662499999998,124.98802868350023L232.540875,125.72905383551324L232.97512500000002,125.66526995426935L233.40937499999998,126.10299317932044L233.843625,125.689153834557L234.277875,125.99234823845354L234.71212500000001,125.26952135838584L235.14637499999998,125.44928264187287L235.580625,125.22962862789538L236.01487500000002,126.07790396932705L236.44912499999998,125.86087233219908L236.883375,126.47952762183169L237.317625,126.22289484006137L237.751875,126.79051543779357L238.186125,126.52892110650052L238.620375,126.59225336554235L239.05462500000002,126.9738742679909L239.48887499999998,126.96376352681051L239.923125,126.85424166027704L240.35737500000002,127.02935697249967L240.791625,127.04059543527603L241.225875,126.98435781141582L241.660125,126.10443825765726L242.094375,126.14550929513143L242.52862499999998,126.56958894280532L242.962875,126.8429022223628L243.39712500000002,126.70936051751434L243.83137499999998,126.42723334180468L244.265625,126.32609406121863" style="fill: none;" fill="none"></path></g></g></g></g><g opacity="0.2"><g><g><g><path stroke="rgb(255, 112, 67)" stroke-width="2px" d="M30.614625,-32.356020520130784L31.048875,0.20700374245643616L31.483125,8.8591648042202L31.917375,17.152288099130004L32.351625,23.024357149998337L32.785875000000004,28.265725364287704L33.220124999999996,31.972255845864623L33.654375,34.81994858880839L34.088625,37.8356284548839L34.522875,39.53834341466427L34.957125,40.4019433160623L35.391375,42.38311292231083L35.825625,44.512444401780755L36.259875,44.120716219147056L36.694125,43.77234569688639L37.128375,46.61584773659706L37.562625,46.706468030810356L37.996875,45.89459254344305L38.431125,46.28418874243894L38.865375,47.954792072375625L39.299625000000006,49.22428942223391L39.733875,48.22545875112215L40.168124999999996,49.84684329728286L40.602375,49.87600238621235L41.036625,50.15228109061718L41.470875,49.927052771051734L41.905125000000005,52.53554574151835L42.339375,52.59826708833377L42.773624999999996,52.398336842656136L43.207875,53.288143292069435L43.642125,52.34839274485907L44.076375,55.315212820967034L44.510625000000005,57.08191659549871L44.944874999999996,57.389354497194276L45.379124999999995,57.221982792019844L45.813375,58.87621160844961L46.247625,59.28479052086671L46.681875,61.57735428710777L47.116125000000004,62.924364993969576L47.550374999999995,64.12761699656645L47.984625,64.58052065471806L48.418875,67.9211265494426L48.853125,67.08911810318627L49.287375000000004,69.3686042378346L49.721625,73.68773201107979L50.155874999999995,76.69763134419918L50.590125,77.73247861862183L51.024375,80.98767329255739L51.458625,83.60052547355491L51.892875000000004,86.96171856423219L52.327125,87.99804577231407L52.761374999999994,94.27814425528048L53.195625,91.35485767324765L53.629875,95.55986204743385L54.064125,96.20735866576433L54.498375,98.70887514452139L54.932625,95.29285124440987L55.36687499999999,97.62460028380156L55.801125,102.71818759789069L56.235375,103.17649081597725L56.669625,98.46193502595027L57.103875,105.74017183482647L57.538125,103.60865342368682L57.97237500000001,104.63266128301619L58.406625,105.14175846179326L58.840875,107.58215807626644L59.275125,106.07523028055826L59.709375,105.03745977083841L60.143625,106.0972241461277L60.577875000000006,105.75467078884442L61.012125,107.24559405446053L61.446374999999996,106.02217246095339L61.880625,108.36135413746038L62.314875,104.27676288038491L62.749125,107.17791273196538L63.183375000000005,108.70421520372231L63.617625,106.23473709076643L64.051875,103.03152325501044L64.486125,106.3639931778113L64.92037499999999,108.62904629607995L65.354625,107.77842878301938L65.788875,103.78378379096587L66.223125,104.59223052114248L66.657375,107.62478309621413L67.09162500000001,104.39173247913519L67.525875,107.2778375595808L67.960125,106.5210200001796L68.394375,105.56177755445242L68.828625,105.92632477730511L69.262875,107.4036575630307L69.69712499999999,108.74444448947906L70.131375,109.5689177289605L70.565625,109.59761891762415L70.999875,106.42886116107304L71.434125,110.21883572389682L71.868375,105.53872502346833L72.302625,108.97957810759544L72.736875,106.15823844075203L73.171125,110.50574504087368L73.605375,107.00940177092949L74.039625,107.14627731839815L74.47387499999999,112.37742153555155L74.90812500000001,107.68454091250896L75.342375,111.18358762562275L75.776625,109.8940195913116L76.210875,112.00422915567954L76.645125,113.45548726866642L77.079375,108.05471847703059L77.513625,109.44916032503048L77.947875,114.15102678289016L78.382125,110.23421018322308L78.816375,111.33034649242957L79.250625,109.36718518783648L79.684875,112.70886073758204L80.11912500000001,112.7834545224905L80.553375,109.78317842135826L80.987625,114.17107182492812L81.421875,112.30506596714257L81.85612499999999,112.408023926119L82.29037500000001,109.23760307580233L82.724625,113.53182473778725L83.158875,110.19591140498717L83.593125,108.46968235075474L84.02737499999999,113.26800092061359L84.461625,113.06051348894835L84.895875,115.8015777443846L85.33012500000001,114.73049773772556L85.764375,108.6437357366085L86.19862499999999,113.2771662523349L86.632875,113.99431865910688L87.06712499999999,112.35897364964087L87.50137500000001,111.731309607625L87.935625,113.58618299414712L88.369875,111.08002157509327L88.804125,113.70686718821526L89.23837499999999,112.14444920668998L89.67262500000001,110.7138002688686L90.106875,115.49615460385878L90.54112500000001,113.62593972682953L90.975375,115.56254281600316L91.40962499999999,114.39048664271832L91.843875,116.04812223712602L92.278125,115.08620931704839L92.71237500000001,116.6646538078785L93.146625,117.1028863415122L93.58087499999999,111.24585107217231L94.015125,118.76372723778088L94.44937499999999,118.02629534403482L94.88362500000001,114.57093964268763L95.317875,112.49909113099177L95.752125,117.01163597653309L96.186375,115.6381329918901L96.62062499999999,115.04501294593015L97.054875,115.15290523817141L97.489125,116.6476235811909L97.92337500000001,118.26625706255436L98.357625,111.1775323525071L98.79187499999999,114.47522749751806L99.226125,118.29953725387651L99.660375,116.55708387742439L100.09462500000001,117.5203998039166L100.528875,117.64315737038851L100.963125,116.3406875381867L101.397375,111.73576406141122L101.83162499999999,118.02922224253416L102.26587500000001,113.01112253467241L102.700125,117.49184880654016L103.134375,117.97740624845028L103.568625,117.18384677171707L104.00287499999999,116.21016032000382L104.437125,115.81907686094442L104.871375,117.88058048983414L105.305625,117.32281400760014L105.739875,114.10118525475264L106.174125,119.91196160763502L106.608375,116.53841253618398L107.04262499999999,119.31229175627232L107.476875,117.06486962984005L107.911125,117.3747765297691L108.345375,117.13992497821647L108.779625,117.5992319136858L109.213875,119.18751576542854L109.64812500000001,119.28462725381056L110.082375,118.59103289991617L110.516625,117.3778902515769L110.950875,117.80206341544786L111.385125,120.33768430600563L111.819375,116.38954000174999L112.253625,115.06447187562782L112.687875,118.34851792951424L113.122125,120.01517965396245L113.556375,116.36135532458623L113.990625,118.43477534999448L114.424875,117.73521363983551L114.859125,119.75371127575636L115.293375,117.78061536699533L115.727625,120.20466977357864L116.161875,117.58140310893455L116.596125,117.88880071540673L117.030375,118.9108670776089L117.464625,119.81611026078463L117.898875,117.07056957234938L118.333125,119.57729512453079L118.767375,118.01378550877173L119.20162499999999,116.91440360248089L119.63587500000001,117.36544269074996L120.070125,122.27520319571097L120.504375,120.41694134722152L120.938625,116.00231755773225L121.372875,120.41203998277584L121.807125,115.74023742477098L122.241375,119.64855539550382L122.675625,119.65426632761955L123.109875,119.1806289454301L123.544125,120.8525180593133L123.978375,118.95203414311011L124.41262499999999,117.73629794766504L124.84687500000001,119.82478472342093L125.281125,119.76155419150987L125.715375,120.77667512247959L126.149625,119.00481355935335L126.58387499999999,119.22870481014252L127.01812500000001,121.55723755806684L127.452375,118.46296002715826L127.886625,118.52074337750673L128.320875,118.5257253323992L128.755125,119.32342789073785L129.18937499999998,117.7565041705966L129.623625,121.40570187568665L130.057875,121.37639625867207L130.492125,121.26753688106933L130.926375,119.95907771339019L131.360625,121.49797427405912L131.794875,122.40313686678806L132.229125,121.38882550348838L132.663375,122.04287559042373L133.097625,121.01596647500992L133.53187499999999,118.46174384405214L133.966125,121.58423169453938L134.400375,122.6198812102278L134.83462500000002,123.0653119360407L135.268875,119.30233517289162L135.703125,120.34309851874907L136.13737500000002,118.8599485680461L136.57162499999998,119.86392603814602L137.005875,122.54485516746838L137.440125,119.63330182184775L137.87437500000001,117.58571469783783L138.308625,121.56229277700186L138.742875,121.68653394033511L139.17712500000002,120.37976717203856L139.61137499999998,121.84882478415966L140.045625,119.76288393388191L140.479875,120.70064536233743L140.914125,121.93798712392648L141.348375,122.50952724615732L141.782625,121.04030112673837L142.21687500000002,119.44316331545511L142.65112499999998,123.96442658205827L143.085375,123.1386126105984L143.51962500000002,118.90638698140779L143.95387499999998,122.64758234471083L144.388125,122.98973641296227L144.822375,123.38853457570076L145.256625,120.13122989734013L145.690875,123.70142332216103L146.125125,122.19145140548547L146.55937500000002,122.43605073789755L146.99362499999998,123.17490395406881L147.427875,120.62683183948198L147.862125,121.35187844683726L148.296375,122.10746517032385L148.730625,116.43280608206987L149.164875,122.23960786064464L149.59912500000002,122.21748578300077L150.03337499999998,121.32240065932274L150.467625,123.87460486590862L150.90187500000002,120.5725834791859L151.336125,119.41119821369648L151.770375,122.4894602249066L152.204625,124.73107617596784L152.638875,121.76597414165735L153.07312499999998,120.84800865749517L153.507375,122.12628670285144L153.94162500000002,122.1631421794494L154.37587499999998,120.14673256874084L154.810125,121.13535023232299L155.244375,124.01815476765235L155.678625,122.27468668421108L156.112875,123.95115846395493L156.547125,124.07987239708503L156.981375,117.09911324332157L157.41562499999998,122.53880722075701L157.849875,122.06213304400444L158.28412500000002,118.5849996060133L158.718375,119.84743063896894L159.152625,124.10420704881349L159.586875,121.56087145457664L160.021125,123.08300886551538L160.45537499999998,121.61074595153332L160.889625,122.81358034908772L161.32387500000002,124.87054893374443L161.758125,121.799990636607L162.192375,123.47874825447798L162.626625,123.72101412713528L163.060875,120.40540226052204L163.495125,121.23828254888454L163.929375,120.20494817694028L164.363625,123.1480490192771L164.79787499999998,124.6874327858289L165.232125,125.30085796117783L165.66637500000002,123.04040582478046L166.100625,123.50160663574934L166.534875,125.02783218026161L166.969125,123.3126843124628L167.403375,118.41319908946753L167.83762499999997,122.19682532300551L168.271875,122.47228713333607L168.70612500000001,123.31897769371668L169.140375,124.2411558603247L169.574625,123.51010526468356L170.008875,121.88650081803401L170.443125,124.56446641683578L170.877375,123.3731088315447L171.311625,124.55772612492243L171.745875,122.87019880115986L172.180125,124.60339892903963L172.614375,125.3046383857727L173.048625,121.78041082123914L173.482875,122.32889474928379L173.917125,124.40198142329851L174.351375,123.58975426852703L174.785625,123.2104260250926L175.21987499999997,122.6250023668011L175.654125,125.45959916214147L176.088375,123.92259281376997L176.522625,123.57991857081652L176.956875,120.81448669483264L177.391125,124.84968699763218L177.825375,123.083979614079L178.259625,124.00674022982517L178.693875,125.28649454563856L179.128125,125.71359827121097L179.562375,123.1433234885335L179.996625,124.12742442389329L180.430875,123.56462470193702L180.865125,123.09647479653358L181.299375,123.48893928279479L181.733625,124.2983421087265L182.167875,125.13117477546135L182.602125,123.75072635958591L183.036375,125.20074631025393L183.470625,125.9888915742437L183.904875,123.4676743944486L184.339125,125.91073715686798L184.773375,124.04318542778492L185.207625,124.72936179737249L185.64187500000003,125.35341758529344L186.076125,125.89047964910665L186.510375,123.97389962275821L186.944625,125.43945887684822L187.378875,124.8578302959601L187.81312499999999,123.36037920415401L188.247375,126.30824953565994L188.681625,124.14771123727161L189.115875,125.6480159635345L189.550125,125.27088564137617L189.984375,125.37800499796867L190.418625,124.00616510709126L190.852875,123.14256520569324L191.287125,125.14449417839447L191.721375,124.80640626450379L192.155625,125.03852873047191L192.589875,123.89988096058369L193.02412500000003,125.92302720000346L193.458375,122.84038033584753L193.892625,125.0284073029955L194.326875,124.47415383160114L194.761125,122.11071443061033L195.19537499999998,124.88579518099625L195.629625,124.88261552155018L196.06387500000002,125.31802006314197L196.498125,125.93633195012808L196.932375,125.83620564639568L197.366625,125.3155107696851L197.800875,125.19240886221328L198.235125,125.45477472494045L198.669375,123.93742145597935L199.10362500000002,124.27091937760511L199.53787499999999,125.25197619199753L199.972125,126.42323378721872L200.406375,124.45176067699988L200.840625,123.28086573878923L201.274875,122.54638272275525L201.709125,120.55169590065876L202.143375,122.41298721730709L202.57762499999998,124.30367939422527L203.011875,125.763945321242L203.44612500000002,126.33014449477196L203.880375,122.35483022034168L204.314625,125.63120552897453L204.748875,124.6567168359955L205.183125,124.7723055159052L205.617375,126.83929845318198L206.051625,125.02471113204956L206.48587500000002,124.514848344028L206.92012499999998,125.15392692387104L207.354375,125.69361184040704L207.788625,123.08348508179188L208.222875,124.83471182733774L208.657125,126.30027108142772L209.091375,124.44572005669275L209.52562500000002,124.94734063992897L209.95987499999998,125.36617651830116L210.394125,126.15894474337497L210.82837500000002,126.20421825846036L211.26262499999999,125.80586700638135L211.696875,123.88203750302394L212.131125,124.80964087198177L212.565375,126.25639690955478L212.999625,126.09812093526125L213.433875,125.58882960677147L213.86812500000002,126.5701355189085L214.30237499999998,125.2336052333315L214.736625,126.47058433791001L215.170875,126.3985254888733L215.605125,126.03176202873388L216.039375,126.27489974349737L216.473625,123.08689918617407L216.90787500000002,125.03025722006956L217.34212499999998,125.43165259311596L217.776375,124.20345784723759L218.21062500000002,124.9230609362324L218.64487499999998,126.35435826083024L219.079125,123.96110039452711L219.513375,124.01590556154648L219.94762500000002,126.31553198148806L220.381875,125.03397170702615L220.816125,126.40625850856304L221.25037500000002,125.45630960663158L221.68462499999998,125.2713948264718L222.118875,124.37041927377382L222.553125,123.77377156416574L222.987375,123.0836938843131L223.421625,125.78148106982309L223.855875,126.09670327603817L224.29012500000002,126.58556126306453L224.72437499999998,127.27800903469324L225.158625,126.97094661121565L225.59287500000002,125.25191758076349L226.02712499999998,126.22236942499876L226.461375,125.84957633415857L226.895625,124.18842406570911L227.32987500000002,124.36943387240171L227.76412499999998,124.88174001624186L228.198375,124.68199293067057L228.63262500000002,126.50610274573165L229.06687499999998,127.1531359689931L229.501125,127.31544329722722L229.935375,124.30576009303331L230.369625,125.0537676513195L230.803875,125.25967990607023L231.238125,121.68410890052715L231.67237500000002,124.84718869378169L232.10662499999998,126.05745206524928L232.540875,126.84059156353274L232.97512500000002,125.56959413240352L233.40937499999998,126.75957801689704L233.843625,125.0683948174119L234.277875,126.44713984429836L234.71212500000001,124.1852810382843L235.14637499999998,125.71892456710339L235.580625,124.90014760692914L236.01487500000002,127.35031698147455L236.44912499999998,125.53532487650712L236.883375,127.40751055628061L237.317625,125.83794566740592L237.751875,127.64194633439183L238.186125,126.13652960956097L238.620375,126.68725175410509L239.05462500000002,127.54630562166372L239.48887499999998,126.94859741503993L239.923125,126.6899588604768L240.35737500000002,127.29202994083363L240.791625,127.05745312944055L241.225875,126.90000137562552L241.660125,124.78455892701943L242.094375,126.20711585134268L242.52862499999998,127.20570841431618L242.962875,127.25287214169899L243.39712500000002,126.50904796024163L243.83137499999998,126.00404257824023L244.265625,126.17438514033952" style="fill: none;" fill="none"></path></g></g></g></g></g></g><g transform="translate(58, 177)" clip-path="url(#clip_1)"><clipPath id="clip_1"><rect width="271" height="23"></rect></clipPath><g><g><line x1="0" y1="0" x2="0" y2="5" style="visibility: inherit;" fill="rgb(0, 0, 0)" stroke="rgb(204, 204, 204)" stroke-width="1px"></line><line x1="27.140625" y1="0" x2="27.140625" y2="5" style="visibility: inherit;" fill="rgb(0, 0, 0)" stroke="rgb(204, 204, 204)" stroke-width="1px"></line><line x1="54.28125" y1="0" x2="54.28125" y2="5" style="visibility: inherit;" fill="rgb(0, 0, 0)" stroke="rgb(204, 204, 204)" stroke-width="1px"></line><line x1="81.421875" y1="0" x2="81.421875" y2="5" style="visibility: inherit;" fill="rgb(0, 0, 0)" stroke="rgb(204, 204, 204)" stroke-width="1px"></line><line x1="108.5625" y1="0" x2="108.5625" y2="5" style="visibility: inherit;" fill="rgb(0, 0, 0)" stroke="rgb(204, 204, 204)" stroke-width="1px"></line><line x1="135.703125" y1="0" x2="135.703125" y2="5" style="visibility: inherit;" fill="rgb(0, 0, 0)" stroke="rgb(204, 204, 204)" stroke-width="1px"></line><line x1="162.84375" y1="0" x2="162.84375" y2="5" style="visibility: inherit;" fill="rgb(0, 0, 0)" stroke="rgb(204, 204, 204)" stroke-width="1px"></line><line x1="189.984375" y1="0" x2="189.984375" y2="5" style="visibility: inherit;" fill="rgb(0, 0, 0)" stroke="rgb(204, 204, 204)" stroke-width="1px"></line><line x1="217.125" y1="0" x2="217.125" y2="5" style="visibility: inherit;" fill="rgb(0, 0, 0)" stroke="rgb(204, 204, 204)" stroke-width="1px"></line><line x1="244.265625" y1="0" x2="244.265625" y2="5" style="visibility: inherit;" fill="rgb(0, 0, 0)" stroke="rgb(204, 204, 204)" stroke-width="1px"></line><line x1="271.40625" y1="0" x2="271.40625" y2="5" style="visibility: inherit;" fill="rgb(0, 0, 0)" stroke="rgb(204, 204, 204)" stroke-width="1px"></line></g><g transform="translate(0, 8)"><text x="0" y="0" dx="0em" dy="0.95em" style="text-anchor: middle; visibility: hidden; font-family: &quot;Helvetica Neue&quot;, sans-serif; font-size: 12px; font-weight: 200;" fill="rgb(50, 49, 63)" stroke="none" stroke-width="1px">-50k</text><text x="27.140625" y="0" dx="0em" dy="0.95em" style="text-anchor: middle; visibility: inherit; font-family: &quot;Helvetica Neue&quot;, sans-serif; font-size: 12px; font-weight: 200;" fill="rgb(50, 49, 63)" stroke="none" stroke-width="1px">0</text><text x="54.28125" y="0" dx="0em" dy="0.95em" style="text-anchor: middle; visibility: hidden; font-family: &quot;Helvetica Neue&quot;, sans-serif; font-size: 12px; font-weight: 200;" fill="rgb(50, 49, 63)" stroke="none" stroke-width="1px">50k</text><text x="81.421875" y="0" dx="0em" dy="0.95em" style="text-anchor: middle; visibility: inherit; font-family: &quot;Helvetica Neue&quot;, sans-serif; font-size: 12px; font-weight: 200;" fill="rgb(50, 49, 63)" stroke="none" stroke-width="1px">100k</text><text x="108.5625" y="0" dx="0em" dy="0.95em" style="text-anchor: middle; visibility: hidden; font-family: &quot;Helvetica Neue&quot;, sans-serif; font-size: 12px; font-weight: 200;" fill="rgb(50, 49, 63)" stroke="none" stroke-width="1px">150k</text><text x="135.703125" y="0" dx="0em" dy="0.95em" style="text-anchor: middle; visibility: inherit; font-family: &quot;Helvetica Neue&quot;, sans-serif; font-size: 12px; font-weight: 200;" fill="rgb(50, 49, 63)" stroke="none" stroke-width="1px">200k</text><text x="162.84375" y="0" dx="0em" dy="0.95em" style="text-anchor: middle; visibility: hidden; font-family: &quot;Helvetica Neue&quot;, sans-serif; font-size: 12px; font-weight: 200;" fill="rgb(50, 49, 63)" stroke="none" stroke-width="1px">250k</text><text x="189.984375" y="0" dx="0em" dy="0.95em" style="text-anchor: middle; visibility: inherit; font-family: &quot;Helvetica Neue&quot;, sans-serif; font-size: 12px; font-weight: 200;" fill="rgb(50, 49, 63)" stroke="none" stroke-width="1px">300k</text><text x="217.125" y="0" dx="0em" dy="0.95em" style="text-anchor: middle; visibility: hidden; font-family: &quot;Helvetica Neue&quot;, sans-serif; font-size: 12px; font-weight: 200;" fill="rgb(50, 49, 63)" stroke="none" stroke-width="1px">350k</text><text x="244.265625" y="0" dx="0em" dy="0.95em" style="text-anchor: middle; visibility: inherit; font-family: &quot;Helvetica Neue&quot;, sans-serif; font-size: 12px; font-weight: 200;" fill="rgb(50, 49, 63)" stroke="none" stroke-width="1px">400k</text><text x="271.40625" y="0" dx="0em" dy="0.95em" style="text-anchor: middle; visibility: hidden; font-family: &quot;Helvetica Neue&quot;, sans-serif; font-size: 12px; font-weight: 200;" fill="rgb(50, 49, 63)" stroke="none" stroke-width="1px">450k</text></g><line x1="0" y1="0" x2="271.40625" y2="0" fill="rgb(0, 0, 0)" stroke="rgb(204, 204, 204)" stroke-width="1px"></line></g></g></g></g></svg>