<svg viewBox="0 0 330 200" xmlns="http://www.w3.org/2000/svg"><g><g><g><g><g><line x1="48.875" y1="177" x2="43.875" y2="177" style="visibility: inherit;" fill="rgb(0, 0, 0)" stroke="rgb(204, 204, 204)" stroke-width="1px"></line><line x1="48.875" y1="164.35714285714286" x2="43.875" y2="164.35714285714286" style="visibility: inherit;" fill="rgb(0, 0, 0)" stroke="rgb(204, 204, 204)" stroke-width="1px"></line><line x1="48.875" y1="151.71428571428572" x2="43.875" y2="151.71428571428572" style="visibility: inherit;" fill="rgb(0, 0, 0)" stroke="rgb(204, 204, 204)" stroke-width="1px"></line><line x1="48.875" y1="139.07142857142858" x2="43.875" y2="139.07142857142858" style="visibility: inherit;" fill="rgb(0, 0, 0)" stroke="rgb(204, 204, 204)" stroke-width="1px"></line><line x1="48.875" y1="126.42857142857142" x2="43.875" y2="126.42857142857142" style="visibility: inherit;" fill="rgb(0, 0, 0)" stroke="rgb(204, 204, 204)" stroke-width="1px"></line><line x1="48.875" y1="113.7857142857143" x2="43.875" y2="113.7857142857143" style="visibility: inherit;" fill="rgb(0, 0, 0)" stroke="rgb(204, 204, 204)" stroke-width="1px"></line><line x1="48.875" y1="101.14285714285715" x2="43.875" y2="101.14285714285715" style="visibility: inherit;" fill="rgb(0, 0, 0)" stroke="rgb(204, 204, 204)" stroke-width="1px"></line><line x1="48.875" y1="88.5" x2="43.875" y2="88.5" style="visibility: inherit;" fill="rgb(0, 0, 0)" stroke="rgb(204, 204, 204)" stroke-width="1px"></line><line x1="48.875" y1="75.85714285714285" x2="43.875" y2="75.85714285714285" style="visibility: inherit;" fill="rgb(0, 0, 0)" stroke="rgb(204, 204, 204)" stroke-width="1px"></line><line x1="48.875" y1="63.21428571428568" x2="43.875" y2="63.21428571428568" style="visibility: inherit;" fill="rgb(0, 0, 0)" stroke="rgb(204, 204, 204)" stroke-width="1px"></line><line x1="48.875" y1="50.57142857142861" x2="43.875" y2="50.57142857142861" style="visibility: inherit;" fill="rgb(0, 0, 0)" stroke="rgb(204, 204, 204)" stroke-width="1px"></line><line x1="48.875" y1="37.928571428571445" x2="43.875" y2="37.928571428571445" style="visibility: inherit;" fill="rgb(0, 0, 0)" stroke="rgb(204, 204, 204)" stroke-width="1px"></line><line x1="48.875" y1="25.285714285714306" x2="43.875" y2="25.285714285714306" style="visibility: inherit;" fill="rgb(0, 0, 0)" stroke="rgb(204, 204, 204)" stroke-width="1px"></line><line x1="48.875" y1="12.642857142857167" x2="43.875" y2="12.642857142857167" style="visibility: inherit;" fill="rgb(0, 0, 0)" stroke="rgb(204, 204, 204)" stroke-width="1px"></line><line x1="48.875" y1="0" x2="43.875" y2="0" style="visibility: inherit;" fill="rgb(0, 0, 0)" stroke="rgb(204, 204, 204)" stroke-width="1px"></line></g><g transform="translate(38.875, 0)"><text x="0" y="177" dx="0em" dy="0.3em" style="text-anchor: end; visibility: hidden; font-family: &quot;Helvetica Neue&quot;, sans-serif; font-size: 12px; font-weight: 200;" fill="rgb(50, 49, 63)" stroke="none" stroke-width="1px">0.38</text><text x="0" y="164.35714285714286" dx="0em" dy="0.3em" style="text-anchor: end; visibility: inherit; font-family: &quot;Helvetica Neue&quot;, sans-serif; font-size: 12px; font-weight: 200;" fill="rgb(50, 49, 63)" stroke="none" stroke-width="1px">0.4</text><text x="0" y="151.71428571428572" dx="0em" dy="0.3em" style="text-anchor: end; visibility: hidden; font-family: &quot;Helvetica Neue&quot;, sans-serif; font-size: 12px; font-weight: 200;" fill="rgb(50, 49, 63)" stroke="none" stroke-width="1px">0.42</text><text x="0" y="139.07142857142858" dx="0em" dy="0.3em" style="text-anchor: end; visibility: inherit; font-family: &quot;Helvetica Neue&quot;, sans-serif; font-size: 12px; font-weight: 200;" fill="rgb(50, 49, 63)" stroke="none" stroke-width="1px">0.44</text><text x="0" y="126.42857142857142" dx="0em" dy="0.3em" style="text-anchor: end; visibility: hidden; font-family: &quot;Helvetica Neue&quot;, sans-serif; font-size: 12px; font-weight: 200;" fill="rgb(50, 49, 63)" stroke="none" stroke-width="1px">0.46</text><text x="0" y="113.7857142857143" dx="0em" dy="0.3em" style="text-anchor: end; visibility: inherit; font-family: &quot;Helvetica Neue&quot;, sans-serif; font-size: 12px; font-weight: 200;" fill="rgb(50, 49, 63)" stroke="none" stroke-width="1px">0.48</text><text x="0" y="101.14285714285715" dx="0em" dy="0.3em" style="text-anchor: end; visibility: hidden; font-family: &quot;Helvetica Neue&quot;, sans-serif; font-size: 12px; font-weight: 200;" fill="rgb(50, 49, 63)" stroke="none" stroke-width="1px">0.5</text><text x="0" y="88.5" dx="0em" dy="0.3em" style="text-anchor: end; visibility: inherit; font-family: &quot;Helvetica Neue&quot;, sans-serif; font-size: 12px; font-weight: 200;" fill="rgb(50, 49, 63)" stroke="none" stroke-width="1px">0.52</text><text x="0" y="75.85714285714285" dx="0em" dy="0.3em" style="text-anchor: end; visibility: hidden; font-family: &quot;Helvetica Neue&quot;, sans-serif; font-size: 12px; font-weight: 200;" fill="rgb(50, 49, 63)" stroke="none" stroke-width="1px">0.54</text><text x="0" y="63.21428571428568" dx="0em" dy="0.3em" style="text-anchor: end; visibility: inherit; font-family: &quot;Helvetica Neue&quot;, sans-serif; font-size: 12px; font-weight: 200;" fill="rgb(50, 49, 63)" stroke="none" stroke-width="1px">0.56</text><text x="0" y="50.57142857142861" dx="0em" dy="0.3em" style="text-anchor: end; visibility: hidden; font-family: &quot;Helvetica Neue&quot;, sans-serif; font-size: 12px; font-weight: 200;" fill="rgb(50, 49, 63)" stroke="none" stroke-width="1px">0.58</text><text x="0" y="37.928571428571445" dx="0em" dy="0.3em" style="text-anchor: end; visibility: inherit; font-family: &quot;Helvetica Neue&quot;, sans-serif; font-size: 12px; font-weight: 200;" fill="rgb(50, 49, 63)" stroke="none" stroke-width="1px">0.6</text><text x="0" y="25.285714285714306" dx="0em" dy="0.3em" style="text-anchor: end; visibility: hidden; font-family: &quot;Helvetica Neue&quot;, sans-serif; font-size: 12px; font-weight: 200;" fill="rgb(50, 49, 63)" stroke="none" stroke-width="1px">0.62</text><text x="0" y="12.642857142857167" dx="0em" dy="0.3em" style="text-anchor: end; visibility: inherit; font-family: &quot;Helvetica Neue&quot;, sans-serif; font-size: 12px; font-weight: 200;" fill="rgb(50, 49, 63)" stroke="none" stroke-width="1px">0.64</text><text x="0" y="0" dx="0em" dy="0.3em" style="text-anchor: end; visibility: hidden; font-family: &quot;Helvetica Neue&quot;, sans-serif; font-size: 12px; font-weight: 200;" fill="rgb(50, 49, 63)" stroke="none" stroke-width="1px">0.66</text></g><line x1="48.875" y1="0" x2="48.875" y2="177" fill="rgb(0, 0, 0)" stroke="rgb(204, 204, 204)" stroke-width="1px"></line></g></g><g transform="translate(48, 0)" clip-path="url(#clip_0)"><clipPath id="clip_0"><rect width="281" height="177"></rect></clipPath><g><g><g><line x1="0" y1="0" x2="0" y2="177" fill="rgb(0, 0, 0)" stroke="rgb(60, 60, 60)" stroke-width="1px" opacity="0.25"></line><line x1="28.1125" y1="0" x2="28.1125" y2="177" fill="rgb(0, 0, 0)" stroke="rgb(60, 60, 60)" stroke-width="1px" opacity="0.25"></line><line x1="56.225" y1="0" x2="56.225" y2="177" fill="rgb(0, 0, 0)" stroke="rgb(60, 60, 60)" stroke-width="1px" opacity="0.25"></line><line x1="84.33749999999999" y1="0" x2="84.33749999999999" y2="177" fill="rgb(0, 0, 0)" stroke="rgb(60, 60, 60)" stroke-width="1px" opacity="0.25"></line><line x1="112.45" y1="0" x2="112.45" y2="177" fill="rgb(0, 0, 0)" stroke="rgb(60, 60, 60)" stroke-width="1px" opacity="0.25"></line><line x1="140.5625" y1="0" x2="140.5625" y2="177" fill="rgb(0, 0, 0)" stroke="rgb(60, 60, 60)" stroke-width="1px" opacity="0.25"></line><line x1="168.67499999999998" y1="0" x2="168.67499999999998" y2="177" fill="rgb(0, 0, 0)" stroke="rgb(60, 60, 60)" stroke-width="1px" opacity="0.25"></line><line x1="196.7875" y1="0" x2="196.7875" y2="177" fill="rgb(0, 0, 0)" stroke="rgb(60, 60, 60)" stroke-width="1px" opacity="0.25"></line><line x1="224.9" y1="0" x2="224.9" y2="177" fill="rgb(0, 0, 0)" stroke="rgb(60, 60, 60)" stroke-width="1px" opacity="0.25"></line><line x1="253.01250000000002" y1="0" x2="253.01250000000002" y2="177" fill="rgb(0, 0, 0)" stroke="rgb(60, 60, 60)" stroke-width="1px" opacity="0.25"></line><line x1="281.125" y1="0" x2="281.125" y2="177" fill="rgb(0, 0, 0)" stroke="rgb(60, 60, 60)" stroke-width="1px" opacity="0.25"></line></g><g><line x1="0" y1="177" x2="281.125" y2="177" fill="rgb(0, 0, 0)" stroke="rgb(60, 60, 60)" stroke-width="1px" opacity="0.25"></line><line x1="0" y1="164.35714285714286" x2="281.125" y2="164.35714285714286" fill="rgb(0, 0, 0)" stroke="rgb(60, 60, 60)" stroke-width="1px" opacity="0.25"></line><line x1="0" y1="151.71428571428572" x2="281.125" y2="151.71428571428572" fill="rgb(0, 0, 0)" stroke="rgb(60, 60, 60)" stroke-width="1px" opacity="0.25"></line><line x1="0" y1="139.07142857142858" x2="281.125" y2="139.07142857142858" fill="rgb(0, 0, 0)" stroke="rgb(60, 60, 60)" stroke-width="1px" opacity="0.25"></line><line x1="0" y1="126.42857142857142" x2="281.125" y2="126.42857142857142" fill="rgb(0, 0, 0)" stroke="rgb(60, 60, 60)" stroke-width="1px" opacity="0.25"></line><line x1="0" y1="113.7857142857143" x2="281.125" y2="113.7857142857143" fill="rgb(0, 0, 0)" stroke="rgb(60, 60, 60)" stroke-width="1px" opacity="0.25"></line><line x1="0" y1="101.14285714285715" x2="281.125" y2="101.14285714285715" fill="rgb(0, 0, 0)" stroke="rgb(60, 60, 60)" stroke-width="1px" opacity="0.25"></line><line x1="0" y1="88.5" x2="281.125" y2="88.5" fill="rgb(0, 0, 0)" stroke="rgb(60, 60, 60)" stroke-width="1px" opacity="0.25"></line><line x1="0" y1="75.85714285714285" x2="281.125" y2="75.85714285714285" fill="rgb(0, 0, 0)" stroke="rgb(60, 60, 60)" stroke-width="1px" opacity="0.25"></line><line x1="0" y1="63.21428571428568" x2="281.125" y2="63.21428571428568" fill="rgb(0, 0, 0)" stroke="rgb(60, 60, 60)" stroke-width="1px" opacity="0.25"></line><line x1="0" y1="50.57142857142861" x2="281.125" y2="50.57142857142861" fill="rgb(0, 0, 0)" stroke="rgb(60, 60, 60)" stroke-width="1px" opacity="0.25"></line><line x1="0" y1="37.928571428571445" x2="281.125" y2="37.928571428571445" fill="rgb(0, 0, 0)" stroke="rgb(60, 60, 60)" stroke-width="1px" opacity="0.25"></line><line x1="0" y1="25.285714285714306" x2="281.125" y2="25.285714285714306" fill="rgb(0, 0, 0)" stroke="rgb(60, 60, 60)" stroke-width="1px" opacity="0.25"></line><line x1="0" y1="12.642857142857167" x2="281.125" y2="12.642857142857167" fill="rgb(0, 0, 0)" stroke="rgb(60, 60, 60)" stroke-width="1px" opacity="0.25"></line><line x1="0" y1="0" x2="281.125" y2="0" fill="rgb(0, 0, 0)" stroke="rgb(60, 60, 60)" stroke-width="1px" opacity="0.25"></line></g></g></g><g><g><line x1="0" y1="417.21428571428567" x2="281.125" y2="417.21428571428567" fill="rgb(0, 0, 0)" stroke="rgb(153, 153, 153)" stroke-width="1.5px"></line></g></g><g><g><line x1="28.1125" y1="0" x2="28.1125" y2="177" fill="rgb(0, 0, 0)" stroke="rgb(153, 153, 153)" stroke-width="1.5px"></line></g></g><g><g><g><g><g><path stroke="rgb(255, 112, 67)" stroke-width="2px" d="M29.542864,-36.22461523421575L30.244552,4.608260431631663L30.523428000000003,-12.562797874094088L30.716842,-38.5596037678674L30.748328,42.27415071949156L30.964232000000003,-4.220297827534836L31.022706000000003,41.327963167018595L31.130658,74.3979596179371L31.324071999999997,65.37782355726063L31.360056,96.45531619393502L31.64343,56.399857708004845L31.719896000000002,78.95490458820116L31.746884,49.90599443207718L31.872828000000002,60.07549191750731L32.480058,61.66672832320428L32.673472,47.04356110174078L32.907368,42.57646331012245L33.078292000000005,24.961137423587616L33.420139999999996,33.170205863964696L33.784478,5.257491829279502L34.031867999999996,12.26859285227269L34.045362000000004,11.470849874875512L34.108334,55.03906017735201L34.126326,18.132660397686493L34.34223,24.2696476089084L34.373716,26.645219646832174L34.571628000000004,41.68715996712726L34.706568,53.167404706333215L34.962954,70.84276831344718L35.093396,63.76313507446494L35.165364000000004,59.439636118734185L35.237332,79.11894692858642L35.718618,37.496390956381106L35.912031999999996,19.057978155073613L35.925526,81.3866944311901L36.406812,108.16404585080134L36.505768,121.50548395140625L36.555246000000004,36.26139903666038L36.735166,20.33004779820689L36.811632,20.2737776266124L36.870106,24.589216930419923L37.270428,37.626996353653624L37.540307999999996,52.66277442045707L37.949626,54.94080276121035L38.003602,109.87018759576736L38.147538000000004,93.88284463600907L38.174526,58.52603389911188L38.286976,78.1009704987051L38.489386,63.485873248226454L38.858222000000005,64.47076249653351L39.069627999999994,62.31520878565283L39.146094000000005,64.03300358827099L39.155089999999994,60.3561400258765L39.177580000000006,48.15122334777948L39.29003,60.06085817502007L39.294528,68.50188035914086L39.348504000000005,44.99861625777103L39.370994,-0.34521315129748587L39.568906,-3.6950598904532796L40.18963,2.604618974725639L40.43702,12.370840419820496L41.458065999999995,85.63168049594684L41.777423999999996,39.837367889869626L41.790918000000005,65.49711972671909L42.051801999999995,33.11112937193863L42.330678,49.441457586656554L42.641040000000004,30.611837906513358L42.704012000000006,86.9145461184737L42.713007999999995,85.73507819040073L42.717506,51.7256045224362L42.97839,31.813585999817974L43.76554,5.927685654374528L44.386264,35.712740626802486L44.39526,29.600981028428492L44.62016,37.88688933686325L44.939518,47.790343593573L45.173414,70.01091942932847L45.267872,91.78715599624297L45.299358,130.33089993965274L45.780643999999995,67.1086515034961L45.906588,101.87647701604104L46.032532,64.13442938763801L46.266428,73.51435061580143L46.545304,107.56324909925753L46.986108,59.98899935960945L47.125546,71.30907961893192L47.148036,59.76974090182509L47.530366,86.97022191431356L47.539362000000004,53.81634001580615L47.9037,49.43718541054572L48.317516,81.16358651495028L48.393981999999994,86.6450074301723L48.48844,125.33693847576163L49.091172,92.94819795628587L49.109164,141.2777156121232L49.145148,111.20856518921583L49.648923999999994,89.9833344728958L49.711895999999996,96.29847649487834L49.882819999999995,128.0005615679459L49.936796,102.99755746378433L50.125712,59.21726900490479L50.472058,82.76993262688302L50.8274,36.014278537409524L50.836396,56.4277480129378L51.079288,73.28196935813634L51.205232,79.25660263021251L51.677521999999996,83.88821607456566L52.154309999999995,47.762440265401494L52.217282,27.24999414752972L52.491659999999996,42.60135369649737L53.071902,34.08385196077697L53.656642000000005,44.34226143635604L53.854554,69.29064178461779L54.236883999999996,97.04496298514488L54.326844,76.08044203007117L54.488772,138.31487528186804L54.520258,149.06331525011774L54.682185999999994,117.32015370671019L54.776644,108.9418965811461L55.055519999999994,105.06157899621988L55.14548,58.54330955664352L55.644758,46.306048549107345L55.689738,76.1643434965816L56.000099999999996,91.34541033872061L56.058574,109.57166592238343L56.085561999999996,73.14576258974927L56.144036,58.464431564317124L56.400422,47.67346464924657L56.503876,109.18369429054304L56.791748,86.4069703384784L57.439460000000004,71.98181666094773L57.682352,73.2324265855645L57.812794,67.2590072250934L58.055686,93.26347983969963L58.231108,74.6710021595069L58.244602,96.39996465869767L58.298578,64.57834665247044L58.438016,2.999637962986469L58.941792,63.05960997609294L59.445568,107.83251111394675L59.562516,71.60307280064109L60.075288,110.07015100111566L60.111272,97.22142342919108L60.29569,126.45993180049993L60.709506000000005,71.50346563612972L60.997378,82.0155262065691L61.213282,96.77015019305549L61.316736,99.7966899377414L61.6226,52.08633370498383L61.66758,69.92767734450696L61.681073999999995,69.66244995071055L61.748544,78.88038417979224L61.896978000000004,159.71472339203444L62.715614,203.08962881275025L63.01698,152.72914890728345L63.142924,138.62278242790157L63.187903999999996,65.95858886513044L63.345334,61.3623138791412L64.056018,74.26451944353437L64.39336800000001,71.26504611398137L64.90614,114.6564873899541L65.090558,82.63861955164715L65.598832,117.92739153650137L65.72927399999999,88.80504442728173L65.75176400000001,72.20153070035684L65.79224599999999,72.58714037946444L66.19706599999999,85.3817739628733L66.21056,73.10502598116116L66.336504,71.26123555899112L66.381484,70.44882463625765L66.799798,69.7765567664435L66.95273,70.01340153003517L67.22261,76.94931570742257L68.045744,100.94010554924706L68.162692,88.07351067596313L68.176186,116.40178117286771L68.270644,152.25430819300354L68.30213,93.49206248551849L68.563014,84.01083054662746L68.590002,39.27371649201169L68.84188999999999,78.61086270620837L69.76398,68.22128057639333L70.015868,131.70295918253805L70.15980400000001,145.18556949230108L70.55113,109.31227412319568L70.699564,61.295744485067246L71.05490599999999,69.07925665930755L71.08639199999999,69.6530767303628L71.14486600000001,68.38537060663921L71.414746,71.21739118109498L71.54968600000001,94.53441271924333L71.65314,48.48273158090748L71.734104,61.71381237857857L72.386314,47.17078570917096L72.674186,84.18272177046019L73.35338399999999,76.81503652645722L73.470332,110.22483789562757L74.33394799999999,77.98918732360175L74.365434,88.58328129605418L74.87370800000001,90.48951981092502L74.887202,77.24910653946662L74.98166,96.01355080368272L75.24704200000001,53.4667126655026L75.440456,113.14753640920864L75.82278600000001,109.74277398979379L75.962224,89.46248514819997L76.03419199999999,97.27523235387633L76.11065799999999,84.30026724283114L76.290578,91.79973069464272L76.49748600000001,92.58507001182501L76.501984,41.556310454834716L76.60094,73.59345076073957L76.75837,100.45352896207426L76.875318,88.81635610808392L76.9158,110.43381348154051L77.149696,76.0075976135967L77.16319,60.674851613201994L77.316122,69.54611083939317L77.334114,98.73357406643667L77.437568,69.51985329535476L77.464556,92.98945141947964L77.473552,79.01412727476603L77.68046,89.67881384601776L78.049296,117.61726685402567L78.134758,79.85042422862095L78.17524,85.34602177224728L78.481104,102.65488729015014L78.4901,99.21031070432076L78.75998,136.2726473133624L79.475162,103.09640470952667L79.71355600000001,123.5333936458623L79.803516,116.50636362621248L79.942954,135.5468253877533L79.983436,96.22716141860316L80.059902,113.35815454708201L80.13636799999999,94.42460576832866L80.505204,63.38190308041571L80.60865799999999,67.63279872944558L80.67163,57.60938267765236L81.00448200000001,70.11612295934522L81.517254,66.80252108471966L81.949062,56.080011713914885L81.971552,21.61698123718068L82.13347999999999,34.10600600781896L82.272918,79.00282877598492L82.709224,62.75495697549414L82.826172,61.26033006262777L82.844164,120.02028173980031L82.91613199999999,124.54243318475858L83.105048,89.12389740404318L83.39292,118.56811903834156L83.406414,62.732195728539324L83.478382,109.25066809438232L83.91019,112.05998590680358L84.148584,141.94531098403826L85.106658,130.20826884660386L85.232602,92.11223429600922L85.70939,113.68843564401672L86.033246,140.39956910701667L86.312122,123.13216532557736L86.662966,61.08326115695638L86.739432,70.56531718919616L86.86087799999999,77.93137132512636L86.95533599999999,25.158625507107587L87.009312,47.24360302229084L87.07678200000001,27.154937112310535L87.333168,51.62977245772338L87.66152199999999,64.03127209056376L88.156302,87.61737562244508L88.394696,83.1590775346565L88.412688,65.05102895899036L88.853492,78.19200651511461L89.04240800000001,79.39077274173876L89.271806,116.92060449735835L89.37526,132.22715649870088L89.640642,158.55577794063885L89.654136,127.96741984864781L90.07694799999999,113.90674178094943L90.22988000000001,89.87184087041354L90.38730999999999,95.7624886710502L90.562732,73.26447922121972L90.97654800000001,99.46276176735373L91.075504,110.74393230962097L91.44434,120.17409625224676L92.078558,100.84111381429165L92.375426,46.28104647057748L92.406912,81.88323406015334L92.44739399999999,61.38346800245684L92.52386000000001,93.72540152521205L92.604824,130.78411712574865L92.870206,99.7710336721755L93.095106,138.34572777184178L93.306512,154.65190685410695L93.58988599999999,125.77193843325188L93.92723600000001,146.2011301355715L93.954224,129.80282577497695L94.089164,123.85523389097665L94.12964600000001,120.74690840433011L94.174626,98.78186778045539L94.588442,100.63021202829725L94.62892400000001,102.31197174245182L94.646916,80.23739830338825L94.723382,55.67834329757268L95.011254,30.424869807338894L95.096716,62.17517732572844L95.703946,112.89114774546115L95.98732000000001,147.15119435188396L96.194228,109.0796642206231L96.39214000000001,131.61713881249798L96.778968,144.2015382074365L97.039852,140.44261441197858L97.710054,131.83367509583752L97.71905000000001,137.57957392469544L97.86298599999999,119.37703603229224L98.00242399999999,63.20015345986327L98.267806,62.26527128630832L98.91102,38.62559586771701L99.01897199999999,112.51654786046797L99.059454,103.96223796030041L99.306844,105.68351157251521L99.986042,94.9498435992894L100.049014,94.92253405002425L100.50781,90.87599465424135L100.602268,84.86517800281743L101.20050200000001,67.21103212299697L101.524358,87.94267557300776L101.623314,106.98831910547493L101.69978,81.13730000989618L101.906688,45.174280017409075L102.05962,38.72403924708314L102.35199,53.38906287066705L102.71183,56.91074497732774L103.053678,40.90716581909385L103.215606,105.69270436387377L103.714884,85.73263543243732L103.719382,89.17670234081464L103.87231399999999,50.39865647065744L103.93528599999999,65.0335520779718L104.124202,135.3934312984722L104.875368,112.50981430562598L105.014806,104.19019281392936L105.167738,96.55577501967937L105.653522,105.1952817109719L105.801956,118.90227324343121L105.88292,114.81074158467118L105.891916,127.85576438122212L105.999868,116.60831544952097L106.004366,109.10479607845679L106.01786,109.05868976512751L106.10332199999999,80.97323459931305L106.260752,74.24651630421761L106.40019,71.63412038420095L106.57561199999999,67.83637801199404L106.620592,60.87790855997352L107.020914,90.29875441673387L107.08388599999999,78.49121436219636L107.214328,86.14300644839544L107.25031200000001,69.96170606537646L107.380754,58.220795645260765L107.826056,74.89271420220035L108.865094,99.83872074557752L108.99103799999999,123.74153026743777L109.03152,112.34081535137409L109.157464,114.52175553541271L109.31489400000001,133.3643433820403L109.36887,149.0945150835035L109.65674200000001,163.9098664171272L110.26397200000001,168.04198934799786L110.506864,128.43070644239398L111.105098,125.06751370319188L111.10959600000001,108.95553714481358L111.739316,111.50869805227993L112.283574,141.2363877997049L112.31506,125.23541832767845L112.87731,103.43146026613068L113.38558400000001,68.7577718627217L113.471046,47.695821780156564L113.59699,101.7483332691312L113.695946,144.0687376155516L113.79040400000001,115.63255937149201L114.096268,95.7086314224776L114.33466200000001,99.51243577212124L114.595546,101.32584525574124L114.79345799999999,85.42122652360555L115.75603000000001,117.22393924304527L115.836994,143.85963893120697L115.93594999999999,133.80893190017468L115.962938,105.79801887033486L116.45322,97.1078140738238L116.516192,98.78495057666643L116.56567,71.47477716523441L116.81306000000001,92.12968022842598L116.862538,117.3782384911058L116.889526,132.3869074398462L117.15490799999999,137.90759475145416L117.276354,143.96026234949971L117.37980800000001,132.21887556133734L117.694668,109.00443150650305L117.793624,88.98520715777865L117.942058,128.13137790664052L118.05001,93.77421333085478L118.22993,75.71612466048927L118.310894,58.439548520277384L118.337882,88.20478678398584L118.35137599999999,68.02312717827111L118.693224,93.45991186920548L118.697722,84.28526786426663L118.90912800000001,88.98518629092811L119.04856600000001,86.92129096178657L119.170012,98.96297497197482L119.183506,108.20331842602276L119.205996,128.94385172495407L119.525354,158.0204624422824L119.574832,131.20956080827588L119.79523400000001,109.19387725056434L120.05162,103.43692738790902L120.25402999999999,77.81566891062016L120.43844800000001,83.0504830419287L120.496922,66.69951235715706L120.50142000000001,62.053135633680725L120.600376,92.50898696026587L120.67234400000001,111.49589778805604L121.171622,100.02315465448055L121.26608,41.64946264783336L121.576442,109.03566864500606L121.58993600000001,94.64396112611566L121.594434,75.91044036503749L121.810338,60.08126421289174L121.91829,116.17908626506645L122.512026,111.41196894643089L122.87186600000001,102.38225661684928L122.93034,80.05699390410437L123.21821200000001,107.55381999839494L123.510582,116.84483382617067L123.614036,107.98545195937365L123.991868,111.4532588311276L124.005362,125.71848754301826L124.02785200000001,100.61465185157412L124.329218,131.72241979914367L124.41018199999999,176.73048581441998L124.747532,116.25096248926887L124.92295399999999,89.65332324453354L125.633638,127.24245460377176L125.82255400000001,104.00420292175012L125.827052,87.18285923318642L126.119422,70.55003401876863L126.14641,94.78551503819192L126.263358,94.91935432775855L126.357816,99.74351302876494L126.384804,128.88352436224133L127.095488,109.50695203780835L128.17051,56.393408350670285L128.228984,15.334630363981034L128.38191600000002,7.397320661936561L128.489868,25.23213273099151L128.55284,49.45266232548238L128.678784,86.59940465144314L129.191556,140.92761102656294L129.348986,70.47259694795817L129.515412,106.26257821255673L129.92473,99.74211340490092L130.50947,126.92147315349047L130.84682,79.70202527526541L131.25164,59.650948342753054L131.265134,74.7193150860504L131.92633999999998,84.91807948859288L131.944332,101.08532991680269L132.137746,110.28202211746945L132.18722400000001,90.12943724498204L132.232204,145.8306480304985L132.385136,142.85101748531312L132.430116,132.00366387297152L132.547064,128.13993125192275L132.749474,117.50091183630369L132.852928,103.73586824207153L133.082326,115.06036586989723L133.190278,145.847095833513L133.27574,130.34125780412558L133.487146,104.17397415590544L133.99542,121.36888945414834L134.215822,151.76560531531018L134.58016,109.74022044907275L134.629638,107.72325232300746L134.719598,57.49010278047422L135.04795199999998,76.3515767836819L135.304338,89.23760365494445L135.78562399999998,75.4179209379967L136.419842,58.99070288930885L136.595264,69.42238110760435L136.725706,50.409669110789594L137.117032,105.5755526361553L137.332936,109.30459733489424L137.34193199999999,103.56218334758526L137.512856,89.20222463698875L137.61631,124.85056277636276L137.935668,97.15072717638115L138.569886,82.12513008849884L138.857758,91.23212509151826L139.298562,104.47809377021082L139.33454600000002,105.91759993599605L140.01824200000001,101.08640169226038L140.117198,109.1135870881254L140.265632,93.21577388449757L140.598484,106.18276994639615L140.77390599999998,87.81476788903804L141.16073400000002,79.2321671965282L141.48908799999998,87.77835914627082L141.601538,75.20491562225786L141.660012,110.17078462291492L141.70049400000002,123.69187745310674L142.055836,65.57766601188243L142.32121800000002,109.77081656047517L142.83399,102.44557424027722L142.90146,74.39468695221035L143.25680200000002,102.0805079736742L143.64812799999999,71.0184023566674L144.04845,66.27669369930382L144.214876,64.75774600018815L144.372306,91.4907510700978L144.70515799999998,71.37603521825673L145.26290999999998,104.6812909716986L145.35736799999998,135.75362542971848L145.39785,101.60245467078191L145.469818,98.80659596746355L145.753192,111.95177140267947L145.75769000000003,80.96216570396578L145.82066200000003,111.74732116240729L146.373916,149.56508268939535L146.423394,144.1396216768789L146.873194,98.2523763412354L147.17455999999999,94.2834432707414L148.07415999999998,101.10431761999894L148.645406,96.20728141258425L148.649904,50.30432065498135L148.780346,107.87513405357011L148.78934199999998,115.45199161250204L149.234644,98.61196036879653L149.909344,80.98173669594613L150.197216,80.62193192186236L150.224204,121.64674115350925L150.251192,54.83389155966687L150.269184,76.02914278874958L150.273682,137.44094550455566L150.790952,121.99171063807579L151.038342,91.34161545084957L151.578102,118.32063987828093L151.82999,133.36444720782345L152.270794,130.6593481456403L152.31577399999998,107.7844673181104L152.34725999999998,112.72233203216699L152.428224,114.3581670421789L152.68461000000002,116.9275217353362L152.882522,93.85401132186314L153.26935,59.26794364568198L153.67866800000002,49.928035900947265L153.68766399999998,67.56090684292128L153.8316,70.342203767727L153.912564,105.54330788862801L155.185498,77.26939977210307L155.302446,112.22417796425376L155.50035799999998,132.93506522298412L155.74774799999997,156.83427188842967L156.026624,159.86491820671418L156.08509800000002,142.5231847441263L156.49891399999998,131.05792019309715L156.629356,144.50977692160842L156.80477800000003,127.43583258226671L158.06421799999998,132.90460111042952L158.41956000000002,77.29576683162593L158.536508,100.19642451391273L158.635464,107.02286965923615L158.720926,83.00753964946934L158.83337600000002,93.7865043961694L158.90534399999999,49.52717643282952L158.95932000000002,61.98265268216386L159.15273399999998,58.43960532858458L159.45859800000002,57.27590879133889L159.73747400000002,68.87583658892841L160.67305800000003,79.1639183185718L160.704544,86.34836376356695L160.745026,114.6999165556544L160.969926,77.43097686079564L160.98342000000002,90.46171198159627L161.077878,72.15588683834349L161.21731599999998,75.96792363835633L161.302778,45.76790494407314L161.91450600000002,85.15494150842571L162.278844,108.4134891990912L162.283342,132.6064421768584L162.436274,108.43611929628841L163.05249999999998,108.69263787669382L163.07499,94.88829703775231L163.191938,107.85220877062449L163.398846,84.15779762789026L163.466316,58.79759964369951L163.835152,39.92928926532824L164.02856599999998,55.26965580897463L164.145514,89.04370169096211L164.32993199999999,118.76894445399822L164.523346,106.80602737006345L165.11708199999998,119.8283668042571L165.14856799999998,103.97307464880139L165.16656,103.3078110540056L165.625356,107.84077316921956L165.805276,102.90916196347479L166.228088,91.18291585350755L166.29106000000002,110.2153836428549L166.372024,114.27931353344223L166.56094,160.3775740659713L167.78439600000002,154.06258802903852L168.02279,75.76745622588236L168.558052,110.20678181702007L169.376688,111.64015855685196L169.54311399999997,79.11500130046034L169.965926,64.87702801367249L170.681108,106.64261986850352L170.798056,103.8252370547146L170.97797599999998,141.40205000244066L171.184884,98.93481706961342L171.477254,90.4771188665206L171.50874,91.42250835539124L171.544724,92.71859786296619L171.760628,110.64440824448481L171.80111,81.31079004237986L172.066492,102.62505394578794L172.124966,106.23063188665743L172.777176,130.925909583156L172.831152,127.95234781935324L172.97958599999998,120.63297586700028L173.168502,110.58511658347078L173.460872,61.52486526868596L173.793724,68.74478142543605L174.00512999999998,80.19605183566279L174.29749999999999,113.67934285721836L174.427942,129.63431165546314L174.486416,129.38338361766588L174.796778,86.94151828127805L174.81027200000003,106.36395500222609L175.003686,97.70538407976149L175.224088,54.35506165104513L175.475976,84.49538659414377L176.06971199999998,103.65756774930024L176.105696,111.89459556929987L176.137182,117.52960960707412L176.555496,113.1423729883683L176.609472,127.3764267460735L176.699432,92.53273398087384L177.212204,125.56704823020674L177.230196,123.8669706829148L177.351642,120.45133816629055L177.360638,85.614660181323L177.765458,75.83510464464216L178.080318,41.86247409602757L178.201764,19.573667271260973L178.23325,39.10011474432878L178.359194,63.89342893957779L178.970922,78.60064724564361L179.384738,114.13700878480388L179.416224,137.3070690129614L179.821044,117.63949992708574L179.861526,91.01768453561027L179.915502,84.00668838151806L180.00096399999998,98.49720915019479L180.07743,101.18680319702608L180.320322,76.4552553744077L180.37429799999998,87.85781871384135L180.486748,44.5650939343148L180.65317399999998,28.515643312117135L180.914058,45.41941422692918L181.12096599999998,94.75485825649655L181.20642800000002,65.07098370005603L181.23791400000002,86.19752765933902L181.444822,117.81922144607275L181.678718,92.17848501240273L181.69221199999998,38.619119664128675L181.849642,65.07644694197798L182.434382,100.33439895939861L182.66827800000002,115.77936255252723L182.672776,138.7536604193403L182.767234,107.09386812033715L183.014624,123.38242116713288L183.40595,120.86817583357126L183.410448,140.43283814907397L183.58137200000002,137.1953667019455L183.73880200000002,99.69728969593172L183.779284,97.07824204088557L183.95470600000002,116.51349753826786L184.17510800000002,104.85128738780487L184.42249800000002,92.4920783384337L184.566434,102.84609081750138L184.993744,103.40020493850979L185.67744,103.02579178580311L185.897842,96.70858147415153L186.05977,89.59676167854957L186.33864599999998,108.47888252771331L186.684992,159.4099765534529L186.698486,137.9545446362436L187.040334,123.23189675028308L187.134792,78.52533153679227L187.17077600000002,98.98058559716067L187.22925,81.25368758230742L187.23824599999998,48.97050094717346L187.26523400000002,102.0392337754754L187.70603799999998,88.72130723006141L187.715034,101.30344862635327L188.10636000000002,69.24482307797477L188.119854,128.37431534338054L188.2413,86.46569187424558L189.010458,130.046994138508L189.041944,104.6315627150232L189.338812,110.16145411702104L189.361302,81.57879723566325L189.829094,98.01736129709893L189.90556,115.42488084156315L190.20692599999998,78.32620768328478L190.296886,99.78257282466532L190.778172,78.13655372963281L191.012068,52.53220095595421L191.07953799999999,62.21427174340391L191.147008,111.24344321277731L191.218976,70.26932961371028L191.27745,86.00431054693061L191.43488,97.69211471168583L191.520342,132.13376205531083L191.551828,129.04471250225072L192.599862,135.988124826076L192.869742,104.90142400346969L193.004682,65.69918119820471L193.090144,48.1203916919126L193.490466,47.57426767658552L193.665888,66.8236664667977L193.68388000000002,100.95452034768695L193.724362,70.85854007693756L193.75135,98.90035120014493L193.8638,108.73108970569626L194.12018600000002,143.89942376454337L194.776894,108.014954441341L195.298662,103.07330849467569L195.447096,135.8991353434256L195.93737800000002,127.80091466438361L195.964366,121.39497222689317L196.00484799999998,76.5350156744145L196.58509,91.20519431351558L196.738022,40.02735113708681L197.88951,91.17188413761302L197.97497199999998,100.34494607002031L198.168386,117.01528836186735L198.478748,132.90446636870251L199.445818,85.42477946329394L199.900116,98.15085482421767L200.14750600000002,124.62233622139075L200.214976,107.41849434959691L200.525338,120.61178161426496L200.67827,93.13117881167683L201.011122,120.88034851111794L201.08309,142.2585134261887L201.132568,127.16889332940137L201.28549999999998,72.97665567948962L201.64534,52.443832290412615L201.919718,73.87166960287873L201.924216,42.46246858557765L202.18509999999998,41.31063122480677L202.27506000000002,37.73480611571836L202.468474,90.11645986753204L202.49096400000002,73.57883455993657L202.81482,108.58733413942664L203.449038,95.68382631054611L203.552492,42.40656011800908L203.55698999999998,28.654512172517286L204.168718,64.55262413697918L204.600526,39.25160858421867L204.86590800000002,68.26497411363927L204.915386,96.28771733508387L206.192818,141.05087374011208L206.37723599999998,162.2073698405851L206.692096,131.566411084371L206.81804,150.1883519040738L207.047438,119.11721576648407L207.483744,118.56687252673268L207.62318199999999,124.6321126023951L207.645672,112.52980224234854L207.722138,93.8005118332599L207.951536,123.14573030417355L208.12246,157.3304050455914L209.040052,181.28310185869236L209.36390799999998,177.49868197730427L209.836198,170.23052224639375L210.22752400000002,144.34823688086718L210.2815,142.3826749286634L210.425436,138.3123980873915L210.55138,124.3850408247424L210.94270600000002,113.36290716238696L210.987686,126.35669237013812L211.014674,82.80918588932335L211.032666,101.56360344961021L211.172104,101.57093265237394L211.1811,112.10612865181811L211.244072,143.91918181968103L211.27105999999998,138.0356313153221L211.599414,102.6199053930282L212.71042,106.81518652310778L213.106244,100.89882576456726L213.223192,85.1737864187253L213.628012,109.21475165908886L213.749458,70.4630595690672L214.06431800000001,58.75750624219563L214.370182,76.56539207148543L214.44215,81.41841044607838L214.739018,82.43658292811394L214.95492199999998,52.61775617228997L215.02689,76.01423545649163L215.157332,142.69819536361828L215.269782,141.00980478684914L215.355244,149.21800220789714L216.002956,136.3960050135642L216.03894000000003,143.31635070126848L216.326812,103.44415225128719L216.44825799999998,63.60832523855373L217.055488,87.01946578951362L217.086974,138.80788216396894L217.167938,132.54713162169548L217.631232,147.7370364944423L217.739184,94.24531694447984L217.784164,49.72532822862007L217.847136,50.525305910811355L218.126012,84.79732988794687L218.553322,114.04494570122472L218.85019,91.79019578608802L218.90866400000002,129.14210860234542L219.0526,68.24805101506571L219.13356399999998,81.33721746484602L219.178544,61.59228145596059L219.273002,60.63233982547412L219.763284,90.84580056085755L220.078144,134.76938945693797L220.518948,106.06364046718497L221.045214,91.81394088123594L221.216138,102.47232787692589L221.364572,81.69310290659182L221.441038,110.52884425888145L221.61646000000002,102.62708500043647L222.704976,102.77967227962418L222.77694400000001,110.33625451689757L223.424656,89.52581035048675L223.658552,92.291484765203L223.856464,90.60128753218802L224.013894,118.05484400122191L224.14883400000002,85.96895622653773L224.256786,93.22229689708873L224.36473800000002,66.2183770762688L224.400722,61.2087094425103L224.4502,75.06717951529869L224.454698,127.68781043975315L224.72457799999998,113.61314451457885L224.846024,99.16884880605156L224.86401600000002,116.88081573707689L224.931486,90.01073800737501L225.04843400000001,126.06346407490447L225.09791199999998,110.66390412594787L225.14739,143.35696431127735L225.295824,136.96811870753152L225.678154,124.15810648384749L225.916548,143.74089958708748L225.93454,109.67949319659716L225.99301400000002,131.6067681001368L226.352854,154.26139331891875L226.37084599999997,109.11948995185169L226.49229200000002,134.91024496448546L226.532774,83.03282922340082L226.9241,116.65538474732509L226.955586,79.69927471509752L227.15349799999998,76.86232224823597L227.391892,92.61585566150366L227.54932200000002,119.1684010720513L227.56731399999998,107.63277992924479L227.841692,104.6676203261469L228.277998,121.13897016009756L228.448922,121.71577886558217L228.65582999999998,134.6478973054175L228.660328,130.76355355776198L228.673822,133.82602065510235L228.92571,80.31776080808194L229.303542,61.91142084255222L229.411494,66.93133676595419L229.631896,123.13356647647149L229.694868,100.92843069374315L230.36057200000002,91.6598885128994L230.495512,77.21564457493758L230.760894,77.78312564896186L230.99029199999998,150.2898952101354L231.91688000000002,115.91379911850855L231.957362,139.93827667411458L232.047322,125.28742618052792L232.18676,86.89228779828582L232.19575600000002,124.04189788383437L232.80298599999998,94.5174382359431L232.964914,65.53934782585522L233.162826,103.77156968703198L233.42820799999998,127.70434563716165L233.48218400000002,135.43100129665592L233.990458,124.83236334980523L234.156884,118.24389092226284L234.296322,99.1101997722014L234.45375199999998,143.23197015355117L235.128452,157.68432210139773L235.168934,117.75552659696035L235.29038,146.53776468401284L235.42532,146.0364317323105L235.578252,133.6985013244608L235.780662,131.05545338312572L235.81664600000002,134.50067395503052L235.94259,106.42319040106287L236.450864,60.70177199861476L236.522832,83.67728838660673L236.626286,99.1247918838846L236.801708,107.9830262289908L236.878174,86.40305164699274L237.26500199999998,101.56593995836091L237.305484,69.55750870264173L237.458416,60.9182217503413L237.97568600000002,62.514606226289075L238.151108,91.60973024211835L238.385004,84.08931830516676L239.680428,66.63493700107382L239.774886,51.819135395938275L240.409104,62.24024914484188L240.60251799999998,18.911385341598987L240.840912,46.4251206388474L240.872398,85.73788271369934L240.962358,99.50961851576125L241.079306,120.84189929833931L241.484126,152.04321921714413L241.71802200000002,128.63551963903043L241.987902,111.48269758800332L242.019388,112.14516015159883L242.14983,123.94889961068513L242.38822399999998,105.04371839309826L242.406216,87.79354677440068L242.46469000000002,75.2309986632972L242.52766200000002,117.09518425782545L242.635614,87.43915631416881L242.68959,86.63710375368947L242.833526,30.367023646986894L242.865012,46.779464093369654L242.927984,81.38335406547418L243.436258,104.35303903508138L243.485736,125.19022252748323L243.512724,83.35123751685394L243.69714199999999,109.99781503922394L243.715134,117.64623281319359L243.778106,45.5791467519453L243.88155999999998,71.50055987360612L244.358348,70.17394506169877L244.551762,63.03872409431814L244.74967400000003,81.85773910180224L244.830638,119.85964137287519L244.90260600000002,126.78410718934967L245.037546,77.14411836239326L245.347908,82.01767117773495L245.910158,94.27487994003725L246.10357199999999,72.00377849628165L246.112568,74.12692239218737L246.278994,109.52708586993941L246.283492,81.41401466863655L246.328472,102.16807081185166L246.36445600000002,101.21337813068855L246.47690599999999,102.93839501951932L246.85023999999999,104.42570720851728L246.87273000000002,84.14851055416224L246.94019999999998,102.33343817771275L247.81281199999998,130.3270357914189L248.433536,145.811344322749L249.387112,167.3433085067201L249.737956,126.22929777147002L249.980848,115.60997900800311L250.09329799999998,134.97203186073884L250.660046,129.23575071473877L251.02438400000003,110.86866226184344L251.24478599999998,117.70217395400647L251.298762,92.66998490949145L251.384224,131.00914159912526L251.64960599999998,140.69555368465237L252.17137400000001,131.1855359819058L252.526716,144.84226732446177L252.715632,98.94354693800548L253.039488,75.11486298780136L253.264388,108.85460114528743L253.30936799999998,88.58385721645189" style="fill: none;" fill="none"></path></g></g></g></g><g opacity="0.2"><g><g><g><path stroke="rgb(255, 112, 67)" stroke-width="2px" d="M28.301416,-115.22313822167257L28.31491,20.387260641370517L28.431858000000002,-130.8757915837424L28.535311999999998,-23.123140607561368L28.863666,20.972523118768436L29.142542000000002,-13.554195182664046L29.340454,-80.27434367792944L29.497884,37.348455854824635L29.50688,-127.41659004347662L29.542864,12.795502398695277L30.244552,65.72424750668662L30.523428000000003,-38.285745441913576L30.716842,-77.52425433908189L30.748328,163.46777222411973L30.964232000000003,-73.94229575565882L31.022706000000003,109.63878996031626L31.130658,123.99791641320502L31.324071999999997,51.84844394241061L31.360056,143.06985078539168L31.64343,-3.682011978966841L31.719896000000002,112.78702959844045L31.746884,6.332973309925649L31.872828000000002,75.32966586521694L32.480058,64.05357614585333L32.673472,25.108847686222646L32.907368,35.875823480742326L33.078292000000005,-1.4618351800100982L33.420139999999996,45.48380398750308L33.784478,-36.61156996658869L34.031867999999996,22.785242991788067L34.045362000000004,10.274235504014172L34.108334,120.39137251036507L34.126326,-37.226937685694L34.34223,33.47512826749258L34.373716,30.208577666963862L34.571628000000004,64.250070307936L34.706568,70.38777175119947L34.962954,97.35581366504942L35.093396,53.14368523018702L35.165364000000004,52.954387690339786L35.237332,108.63791312915939L35.718618,-24.937442983899786L35.912031999999996,-8.599641042096266L35.925526,174.87976883564676L36.406812,148.33007297771317L36.505768,141.5176411015647L36.555246000000004,-91.60472833258763L36.735166,-3.5669790591512367L36.811632,20.189372369221303L36.870106,31.062375886099687L37.270428,57.183665488447474L37.540307999999996,75.21644152062281L37.949626,58.357845272336704L38.003602,192.26426484755106L38.147538000000004,69.90183019638063L38.174526,5.490817793778035L38.286976,107.46337539809092L38.489386,41.56322737251011L38.858222000000005,65.94809636899404L39.069627999999994,59.081878219332026L39.146094000000005,66.6096957921982L39.155089999999994,54.84084468228477L39.177580000000006,29.84384833063399L39.29003,77.92531041588103L39.294528,81.16341363532203L39.348504000000005,9.743720105716193L39.370994,-68.36095726490018L39.501436,0.25156377043043676L39.568906,-9.077896152223843L40.18963,12.054137272494188L40.43702,27.020172587462866L41.458065999999995,195.52294061013632L41.777423999999996,-28.85410101924623L41.790918000000005,103.98674748199328L42.051801999999995,-15.467856160231975L42.330678,73.93694990873338L42.641040000000004,2.367408386298621L42.704012000000006,171.36860843641418L42.713007999999995,83.96587629829135L42.717506,0.7113940204893083L42.97839,1.9455582158906282L43.76554,-32.90116486379077L44.386264,80.39032308544432L44.39526,20.433341630867574L44.62016,50.315751799515326L44.939518,62.64552497863771L45.173414,103.3417831829616L45.267872,124.45151084661484L45.299358,188.1465158547674L45.780643999999995,-27.724721150738844L45.906588,154.02821528485845L46.032532,7.521357945033515L46.266428,87.58423245804651L46.545304,158.63659682444165L46.986108,-11.372375249862642L47.125546,88.28920000791551L47.148036,42.460732826164815L47.530366,127.77094343304634L47.539362000000004,4.085517168045072L47.9037,42.86845350265506L48.317516,128.753188171557L48.393981999999994,94.86713880300523L48.48844,183.37483504414558L49.091172,44.36508717707227L49.109164,213.77199209587914L49.145148,66.1048395548548L49.648923999999994,58.14548839841571L49.711895999999996,105.7711895278522L49.882819999999995,175.5536891775472L49.936796,65.49305130754199L50.125712,-6.453163683414431L50.472058,118.09892805985044L50.8274,-34.11920259680065L50.836396,87.04795222623008L51.079288,98.56330137593406L51.205232,88.21855253832682L51.677521999999996,90.83563624109541L52.154309999999995,-6.426223448344615L52.217282,-3.518675029277773L52.491659999999996,65.6283930199487L53.071902,21.307599357196295L53.656642000000005,59.729875649724704L53.854554,106.7132123070104L54.236883999999996,138.67644478593553L54.326844,44.63366059746062L54.488772,231.66652515956332L54.520258,165.1859752024923L54.682185999999994,69.70541139159884L54.776644,96.37451089279993L55.055519999999994,99.24110261883055L55.14548,-11.234094602721058L55.644758,27.950157037803137L55.689738,120.95178591779302L56.000099999999996,114.11701060192925L56.058574,136.91104929787772L56.085561999999996,18.506907590797994L56.144036,36.44243502616885L56.400422,31.487014276640764L56.503876,201.44903875248772L56.791748,52.24188441038133L57.439460000000004,50.3440861446517L57.682352,75.1083414724895L57.812794,58.298878184386666L58.055686,132.27018876160895L58.231108,46.782285639217946L58.244602,128.9934084074838L58.298578,16.845919643129633L58.438016,-89.36842507123941L58.941792,153.14956799575262L59.445568,174.99186282072748L59.562516,17.2589153306825L60.075288,167.77076830182756L60.111272,77.94833207130434L60.29569,170.3176943574633L60.709506000000005,-10.931233610425664L60.997378,97.78361706222807L61.213282,118.90208617278509L61.316736,104.33649955477034L61.6226,-19.479200644152485L61.66758,96.6896928037916L61.681073999999995,69.26460886001588L61.748544,92.70728552341463L61.896978000000004,280.9662322103977L62.715614,268.15198694382394L63.01698,77.18842904908317L63.142924,117.4632327088288L63.187903999999996,-43.037701479026225L63.345334,54.46790140015739L64.056018,93.61782779012408L64.39336800000001,66.76583611965181L64.90614,179.74364930391312L65.090558,34.61181779418675L65.598832,170.8605495137828L65.72927399999999,45.121523763452274L65.75176400000001,47.29626010996955L65.79224599999999,73.16555489812579L66.19706599999999,104.57372433798655L66.21056,54.68990400859289L66.336504,68.49554992573603L66.381484,69.2302082521575L66.799798,68.76815496172225L66.95273,70.36866867542268L67.22261,87.35318697350367L68.045744,136.92629031198365L68.162692,68.77361836603711L68.176186,158.89418691822462L68.270644,206.0330987232072L68.30213,5.348693924290814L68.563014,69.78898263829096L68.590002,-27.831954589911845L68.84188999999999,137.61658202750343L69.76398,52.636907381670824L70.015868,226.92547709175517L70.15980400000001,165.4094849569457L70.55113,55.502331069537576L70.699564,-10.729049972125438L71.05490599999999,80.75452492066793L71.08639199999999,70.51380683694568L71.14486600000001,66.48381142105376L71.414746,75.46542204277857L71.54968600000001,129.50994502646583L71.65314,-20.594790126596166L71.734104,81.56043357508524L72.386314,25.35624570505962L72.674186,139.70062586239408L73.35338399999999,65.76350866045271L73.470332,160.33953994938307L74.33394799999999,29.635711465563105L74.365434,104.47442225473269L74.87370800000001,93.34887758323126L74.887202,57.388486632279L74.98166,124.16021720000677L75.24704200000001,-10.353544541767661L75.440456,202.66877202476775L75.82278600000001,104.63563036067146L75.962224,59.04205188580923L76.03419199999999,108.99435316239085L76.11065799999999,64.83781957626344L76.290578,103.04892587235997L76.49748600000001,93.76307898759843L76.501984,-34.98682888065065L76.60094,121.64916121959686L76.75837,140.74364626407623L76.875318,71.3605968270983L76.9158,142.85999954172544L77.149696,24.36827381168095L77.16319,37.67573261260989L77.316122,82.85299967867988L77.334114,142.51476890700204L77.437568,25.69927213873183L77.464556,128.19384860566686L77.473552,58.05114105769567L77.68046,105.6758437028953L78.049296,159.52494636603765L78.134758,23.200160290513736L78.17524,93.58941808768682L78.481104,128.61818556700433L78.4901,94.0434458255768L78.75998,191.8661522269249L79.475162,53.33204080377307L79.71355600000001,154.18887705036573L79.803516,105.96581859673773L79.942954,164.10751803006445L79.983436,37.24766546487811L80.059902,139.05464423980033L80.13636799999999,66.02428260019849L80.505204,16.817849048546407L80.60865799999999,74.0091422029904L80.67163,42.57425859996252L81.00448200000001,88.87623338188445L81.517254,61.832118272781386L81.949062,39.996247657707784L81.971552,-30.077564477920504L82.13347999999999,52.83954316377641L82.272918,146.34806292823384L82.709224,38.383149274757955L82.826172,59.01838969332832L82.844164,208.1602092555591L82.91613199999999,131.32566035219602L83.105048,35.99609373297011L83.39292,162.73445148978914L83.406414,-21.021689236164065L83.478382,179.0283766431468L83.91019,116.27396262543542L84.148584,186.7732985998903L85.106658,112.60270564045226L85.232602,34.96818247011731L85.70939,146.0527376660279L86.033246,180.46626930151666L86.312122,97.23105965341841L86.662966,-31.99009509597505L86.739432,84.78840123755592L86.86087799999999,88.98045252902169L86.95533599999999,-54.00049321992054L87.009312,80.37106929506575L87.07678200000001,-2.978061752659926L87.333168,88.34202547584262L87.66152199999999,82.63352153982436L88.156302,122.9965309202671L88.394696,76.47163040297373L88.412688,37.88895609549115L88.853492,97.90347284930094L89.04240800000001,81.18892208167486L89.271806,173.21535213078772L89.37526,155.18698450071471L89.640642,198.0487101035459L89.654136,82.08488271066122L90.07694799999999,92.81572467940195L90.22988000000001,53.819489504609805L90.38730999999999,104.5984603720052L90.562732,39.517465046473944L90.97654800000001,138.76018558655466L91.075504,127.66568812302181L91.44434,134.31934216618538L92.078558,71.841640157359L92.375426,-35.559054544993785L92.406912,135.28651544451714L92.44739399999999,30.633818915912116L92.52386000000001,142.238301809345L92.604824,186.37219052655357L92.870206,53.25140849181585L93.095106,196.20776892134123L93.306512,179.11117547750473L93.58988599999999,82.45198580196926L93.92723600000001,176.84491768905096L93.954224,105.2053692340851L94.089164,114.93384606497628L94.12964600000001,116.08442017436028L94.174626,65.8343068446432L94.588442,103.40272840006011L94.62892400000001,104.83461131368365L94.646916,47.12553814479284L94.723382,18.839760788849446L95.011254,-7.455340428011738L95.096716,109.80063860331263L95.703946,188.9651033750602L95.98732000000001,198.54126426151822L96.194228,51.97236902373179L96.39214000000001,165.4233507003103L96.778968,163.0781372998442L97.039852,134.8042287187917L97.710054,118.9202661216259L97.71905000000001,146.1984221679824L97.86298599999999,92.07322919368745L98.00242399999999,-21.065170398780253L98.267806,60.862948025975925L98.91102,3.1660827398300455L99.01897199999999,223.35297584959437L99.059454,91.13077311004912L99.306844,108.26542199083738L99.986042,78.84934163945063L100.049014,94.88156972612654L100.50781,84.80618556056704L100.602268,75.84895302568164L101.20050200000001,40.72981330326627L101.524358,119.04014074802399L101.623314,135.55678440417563L101.69978,42.36077136652813L101.906688,-8.770249971321647L102.05962,29.048678091594184L102.35199,75.38659830604281L102.71183,62.19326813731875L103.053678,16.901797081742984L103.215606,202.87101218104362L103.714884,55.79253203528269L103.719382,94.3428027033806L103.87231399999999,-7.768412334578358L103.93528599999999,86.98589548894338L104.124202,240.93325012922287L104.875368,78.18438881635667L105.014806,91.71076057638442L105.167738,85.1041483283043L105.653522,118.15454174791064L105.801956,139.46276054212026L105.88292,108.6734440965312L105.891916,147.42329857604844L105.999868,99.73714205196927L106.004366,97.84951702186041L106.01786,108.9895302951336L106.10332199999999,38.8450518505914L106.260752,64.15643886157446L106.40019,67.71552650417601L106.57561199999999,62.1397644536836L106.620592,50.44020438194276L107.020914,134.43002320187435L107.08388599999999,60.77990428039007L107.214328,97.62069457769395L107.25031200000001,45.689755490848L107.380754,40.609430015087156L107.826056,99.90059203760966L108.865094,137.25773056064332L108.99103799999999,159.59574455022812L109.03152,95.23974297727858L109.157464,117.79316581147057L109.31489400000001,161.62822515198164L109.36887,172.68977263569832L109.65674200000001,186.13289341756277L110.26397200000001,174.24017374430383L110.506864,69.0137820839882L111.105098,120.0227245943887L111.10959600000001,84.78757230724608L111.739316,115.33843941347939L112.283574,185.8279224208423L112.31506,101.23396411963873L112.87731,70.72552317380907L113.38558400000001,16.747239257608157L113.471046,16.10289665630887L113.59699,182.82710050259317L113.695946,207.54934413518225L113.79040400000001,72.97829200540271L114.096268,65.82273949895587L114.33466200000001,105.21814229658673L114.595546,104.04595948117121L114.79345799999999,61.56429842540197L115.75603000000001,164.92800832220487L115.836994,183.81318846344948L115.93594999999999,118.73287135362625L115.962938,63.78164932557516L116.45322,84.07250687905722L116.516192,101.30065533093045L116.56567,30.50951704808645L116.81306000000001,123.11203482321332L116.862538,155.25107588512557L116.889526,154.89991086295674L117.15490799999999,146.1886257188661L117.276354,153.03926374656814L117.37980800000001,114.60679537909371L117.694668,74.18276542425157L117.793624,58.956370634692064L117.942058,186.8506340299334L118.05001,42.23846646717618L118.22993,48.62899165494102L118.310894,32.52468430995944L118.337882,132.85264417954855L118.35137599999999,37.750637769699125L118.693224,131.61508890560697L118.697722,70.5233018568584L118.90912800000001,96.0350639309202L119.04856600000001,83.82544796807426L119.170012,117.02550098725729L119.183506,122.06383360709464L119.205996,160.05465167335103L119.525354,201.63537851827485L119.574832,90.99320835726603L119.79523400000001,76.17035191399711L120.05162,94.80150259392603L120.25402999999999,39.38378119468692L120.43844800000001,90.90270423889162L120.496922,42.17305632999967L120.50142000000001,55.083570548466284L120.600376,138.19276395014356L120.67234400000001,139.9762640297413L121.171622,82.81403995411738L121.26608,-45.91107536213738L121.576442,210.11497764076506L121.58993600000001,73.05639984777997L121.594434,47.8101592234203L121.810338,36.337499984673116L121.91829,200.32581934332848L122.512026,104.26129296847753L122.87186600000001,88.83768812247686L122.93034,46.5690998349871L123.21821200000001,148.79905913983072L123.510582,130.7813545678343L123.614036,94.69637915917806L123.991868,116.65496913875853L124.005362,147.11633061085428L124.02785200000001,62.958898314407904L124.329218,178.38407172049796L124.41018199999999,244.2425848373345L124.747532,25.531677501542248L124.92295399999999,49.75686437743052L125.633638,183.62615164262908L125.82255400000001,69.14682539871762L125.827052,61.950843700340826L126.119422,45.60079619714193L126.14641,131.13873656732696L126.263358,95.1201132621084L126.357816,106.9797510802746L126.384804,172.5935413624559L127.095488,80.44209355115892L128.17051,-23.2769071800368L128.38191600000002,-4.508643891130163L128.489868,51.98435083457403L128.55284,85.78345671721868L128.678784,142.31951814038413L129.191556,222.41992058924268L129.348986,-35.20992416994912L129.515412,159.94755010945457L129.92473,89.96141619341715L130.50947,167.69051277637482L130.84682,8.872853457927732L131.25164,29.574332943984473L131.265134,97.32186520099641L131.92633999999998,100.21622609240669L131.944332,125.33620555911746L132.137746,124.07706041846957L132.18722400000001,59.90055993625097L132.232204,229.3824642087732L132.385136,138.38157166753496L132.430116,115.73263345445906L132.547064,122.34433232034957L132.749474,101.54238271287511L132.852928,83.08830285072328L133.082326,132.04711231163571L133.190278,192.02719077893667L133.27574,107.08250076004438L133.487146,64.92304868357523L133.99542,147.1612624015127L134.215822,197.36067910705293L134.58016,46.702143149716534L134.629638,104.69780013390951L134.719598,-17.859621533325736L135.04795199999998,104.6437877884933L135.304338,108.56664396183832L135.78562399999998,54.68839686257499L136.419842,34.34987581627712L136.595264,85.0698984350477L136.725706,21.890601115567364L137.117032,188.32437792420387L137.332936,114.8981643830027L137.34193199999999,94.94856236662184L137.512856,67.66228657109397L137.61631,178.32306998542379L137.935668,55.60097377640861L138.569886,59.5867344566754L138.857758,104.89261759604727L139.298562,124.34704678824971L139.33454600000002,108.07685918467386L140.01824200000001,93.8396043266569L140.117198,121.15436518192291L140.265632,69.3690540790558L140.598484,125.63326403924398L140.77390599999998,60.26276480300086L141.16073400000002,66.35826615776335L141.48908799999998,100.59764707088472L141.601538,56.34475033623832L141.660012,162.61958812390054L141.70049400000002,143.97351669839452L142.055836,-21.5936511499541L142.32121800000002,176.06054238336426L142.83399,91.45771075998034L142.90146,32.31835602011L143.25680200000002,143.60923950587L143.64812799999999,24.42524393115727L144.04845,59.16413071325849L144.214876,62.47932445151466L144.372306,131.59025867496217L144.70515799999998,41.20396144049511L145.26290999999998,154.6391746018614L145.35736799999998,182.36212711674827L145.39785,50.37569853237699L145.469818,94.61280791248595L145.753192,131.6695345555033L145.75769000000003,34.47775715589526L145.82066200000003,157.9250543500696L146.373916,206.29172497987747L146.423394,136.00143015810423L146.873194,29.421508337770206L147.17455999999999,88.33004366500037L148.07415999999998,111.33562914388521L148.645406,88.86172710146224L148.649904,-18.550120481422965L148.780346,194.2313541514533L148.78934199999998,126.81727795089995L149.234644,73.35191350323814L149.909344,54.53640118667059L150.197216,80.08222476073675L150.224204,183.18395500097955L150.251192,-45.38538283109662L150.269184,107.82201963237355L150.273682,229.55864957826478L150.790952,98.81785833835603L151.038342,45.36647267001018L151.578102,158.789176519428L151.82999,155.93015820213728L152.270794,126.60169955236572L152.31577399999998,73.47214607681548L152.34725999999998,120.12912910325187L152.428224,116.81191955719676L152.68461000000002,120.7815537750721L152.882522,59.24374570165362L153.26935,7.3888421314103425L153.67866800000002,35.918174283845104L153.68766399999998,94.01021325588228L153.8316,74.51414915493557L153.912564,158.34496406997954L155.185498,34.85853759731566L155.302446,164.65634525247984L155.50035799999998,164.00139611107963L155.74774799999997,192.68308188659805L156.026624,164.4108876841409L156.08509800000002,116.51058455024447L156.49891399999998,113.86002336655345L156.629356,164.68756201437543L156.80477800000003,101.82491607325419L158.06421799999998,141.10775390267372L158.41956000000002,-6.117484586579451L158.536508,134.5474110373429L158.635464,117.26253737722125L158.720926,46.98454463481906L158.83337600000002,109.95495151621955L158.90534399999999,-16.8618155121803L158.95932000000002,80.66586705616542L159.15273399999998,53.12503429821561L159.45859800000002,55.53036398547037L159.73747400000002,86.27572828531267L160.67305800000003,94.5960409130369L160.704544,97.12503193105971L160.745026,157.2272457437856L160.969926,21.527567318507636L160.98342000000002,110.00781466279712L161.077878,44.69714912346433L161.21731599999998,81.68597883837565L161.302778,0.4678769026484133L161.91450600000002,144.2354963549546L162.278844,143.30131073508943L162.283342,168.8958716435092L162.436274,72.18063497543336L163.05249999999998,109.07741574730193L163.07499,74.18178577933993L163.191938,127.29807636993272L163.398846,48.61618091378895L163.466316,20.757302667413455L163.835152,11.626823697771357L164.02856599999998,78.28020562444415L164.145514,139.70477051394326L164.32993199999999,163.35680859855245L164.523346,88.86165174416135L165.11708199999998,139.36187595554762L165.14856799999998,80.19013641561781L165.16656,102.30991566181184L165.625356,114.64021634204047L165.805276,95.51174515485765L166.228088,73.59354668855669L166.29106000000002,138.76408532687597L166.372024,120.37520836932319L166.56094,229.52496486476488L167.78439600000002,144.59010897363936L168.02279,-41.67524147885186L168.558052,161.86577020372664L169.376688,113.79022366659981L169.54311399999997,30.32726541587286L169.965926,43.520068083490656L170.681108,169.29100765075003L170.798056,99.59916283403125L170.97797599999998,197.76726942402976L171.184884,35.23396767037258L171.477254,77.79057156188148L171.50874,92.84059258869718L171.544724,94.66273212432863L171.760628,137.53312381676267L171.80111,37.3103627392224L172.066492,134.59644980090007L172.124966,111.63899879796165L172.777176,167.9688261279038L172.831152,123.49200517364912L172.97958599999998,109.65391793847085L173.168502,95.51332765817644L173.460872,-12.065511703491183L173.793724,79.57465566056116L174.00512999999998,97.37295745100295L174.29749999999999,163.9042793895517L174.427942,153.56676485283035L174.486416,129.00699156097005L174.796778,23.27872027669636L174.81027200000003,135.49761008364814L175.003686,84.71752769606455L175.224088,-10.670421992029446L175.475976,129.7058740087918L176.06971199999998,132.40083948203497L176.105696,124.25013729929924L176.137182,125.98213066373553L176.555496,106.56151806030955L176.609472,148.7275073826313L176.699432,40.26719483307431L177.212204,175.11851960420609L177.230196,121.31685436197691L177.351642,115.32788939135415L177.360638,33.3596432038716L177.765458,61.165771339620875L178.080318,-9.09647172689435L178.201764,-13.859542965888949L178.23325,68.38978595393046L178.359194,101.08340023245131L178.970922,100.66147470474245L179.384738,167.4415510935443L179.416224,172.06215935519765L179.821044,88.13814629827228L179.861526,51.08496144839697L179.915502,73.49019415037974L180.00096399999998,120.23299030320985L180.07743,105.22119426727296L180.320322,39.35793364048007L180.37429799999998,104.96166372299196L180.486748,-20.37399323497499L180.65317399999998,4.441467378820704L180.914058,70.77507059914726L181.12096599999998,168.75802430084775L181.20642800000002,20.54517186539516L181.23791400000002,117.88734359826361L181.444822,165.2517621261733L181.678718,53.71738036189761L181.69221199999998,-41.719928358282345L181.849642,104.76243785875185L182.434382,153.2213269855295L182.66827800000002,138.94680794222015L182.672776,173.2151072195598L182.767234,59.6041796718325L183.014624,147.8152507373265L183.40595,117.09680783322881L183.410448,169.7798316223281L183.58137200000002,132.33915953125273L183.73880200000002,43.450174186910914L183.779284,93.14967055831637L183.95470600000002,145.66638078434127L184.17510800000002,87.35797216211047L184.42249800000002,73.95326476437705L184.566434,118.37710953610284L184.993744,104.23137612002238L185.67744,102.46417205674308L185.897842,87.2327660066741L186.05977,78.92903198514666L186.33864599999998,136.8020638014589L186.684992,235.80661759206225L186.698486,105.77139676042967L187.040334,101.14792492134231L187.134792,11.465483716556037L187.17077600000002,129.66346668771337L187.22925,54.663340560027535L187.23824599999998,0.5457209944725321L187.26523400000002,181.64233301792825L187.70603799999998,68.74441741194045L187.715034,120.17666072079115L188.10636000000002,21.156884755407077L188.119854,217.06855374148913L188.2413,23.602756670543158L189.010458,195.41894753490175L189.041944,66.50841557979585L189.338812,118.45629122001785L189.361302,38.70481191362654L189.829094,122.67520738925253L189.90556,141.53616015825952L190.20692599999998,22.678197945867282L190.296886,131.96712053673608L190.778172,45.6675250870841L191.012068,14.125671795436347L191.07953799999999,76.73737792457854L191.147008,184.7872004168374L191.218976,8.808159215109697L191.27745,109.60678194676127L191.43488,115.22382095881872L191.520342,183.7962330707482L191.551828,124.41113817266057L192.599862,146.4032433118139L192.869742,58.271372769560145L193.004682,6.895816990307424L193.090144,21.75220743247442L193.490466,46.755081653595L193.665888,95.69776465211596L193.68388000000002,152.15080116902078L193.724362,25.714569670813432L193.75135,140.9630678849561L193.8638,123.47719746402333L194.12018600000002,196.651924852814L194.776894,54.18825045653753L195.298662,95.66083957467761L195.447096,185.13787561655045L195.93737800000002,115.65358364582062L195.964366,111.78605857065747L196.00484799999998,9.245080845696606L196.58509,113.2104622721672L196.738022,-36.73941362755639L197.88951,167.8886836384024L197.97497199999998,114.1045389686312L198.168386,142.02080179963792L198.478748,156.7382333789553L199.445818,14.205249105181025L199.900116,117.23996786560332L200.14750600000002,164.3295583171504L200.214976,81.61273154190609L200.525338,140.401712511267L200.67827,51.91027460779463L201.011122,162.5041030602796L201.08309,174.32576079879487L201.132568,104.53446318422046L201.28549999999998,-8.311700795377988L201.64534,21.64459720679693L201.919718,106.0134255715779L201.924216,-4.65133294037409L202.18509999999998,39.58287518365046L202.27506000000002,32.37106845208578L202.468474,168.6889404952526L202.49096400000002,48.77239659854345L202.81482,161.1000835086618L203.449038,76.32856456722533L203.552492,-37.50933917079652L203.55698999999998,8.026440254279578L204.168718,118.39979208367211L204.600526,1.3000852550779314L204.86590800000002,111.78502240777017L204.915386,138.32183216725076L206.192818,208.19560834765434L206.37723599999998,193.9421139912946L206.692096,85.60497295004981L206.81804,178.12126313362802L207.047438,72.51051156009947L207.483744,117.74135766710555L207.62318199999999,133.72997271588872L207.645672,94.37633670227869L207.722138,65.70657621962684L207.951536,167.1635580105441L208.12246,208.60741715771812L209.040052,217.2121470783438L209.36390799999998,171.82205215522222L209.836198,159.32828265002797L210.22752400000002,105.5248088325773L210.2815,139.43433200035776L210.425436,132.2069828254836L210.55138,103.49400493076871L210.94270600000002,96.82970666885377L210.987686,145.8473701817649L211.014674,17.487926168101183L211.032666,129.69522979004043L211.172104,101.58192645651954L211.1811,127.90892265098435L211.244072,191.63876157147544L211.27105999999998,129.21030555878366L211.599414,49.49631650958743L212.71042,113.10810821822713L213.106244,92.02428462675641L213.223192,61.5862273999623L213.628012,145.27619951963425L213.749458,12.335521434034632L214.06431800000001,41.199176251888304L214.370182,103.27722081542016L214.44215,88.69793800796782L214.739018,83.9638416511672L214.95492199999998,7.8895160385540635L215.02689,111.10895438279425L215.157332,242.72413522430827L215.269782,138.47721892169545L215.355244,161.53029833946908L216.002956,117.16300922206472L216.03894000000003,153.69686923282487L216.326812,43.63585457631521L216.44825799999998,3.8545847194535554L217.055488,122.13617661595345L217.086974,216.49050672565187L217.167938,123.1560058082853L217.631232,170.52189380356245L217.739184,14.007737619536272L217.784164,-17.05465484516961L217.847136,51.725272434098386L218.126012,136.20536585365022L218.553322,157.9163694211415L218.85019,58.40807091338294L218.90866400000002,185.16997782673155L219.0526,-23.09303536585398L219.13356399999998,100.97096713951657L219.178544,31.97487744263242L219.273002,59.1924273797444L219.763284,136.1659916639328L220.078144,200.65477280105864L220.518948,63.005016982555404L221.045214,70.43939150231226L221.216138,118.4599083704608L221.364572,50.524265451090685L221.441038,153.7824562873159L221.61646000000002,90.774446112769L222.704976,103.00855319840568L222.77694400000001,121.67112787280765L223.424656,58.31014410087042L223.658552,96.43999638727735L223.856464,88.0659916826657L224.013894,159.2351787047727L224.14883400000002,37.840124564511456L224.256786,104.10230790291514L224.36473800000002,25.712497345038855L224.400722,53.69420799187253L224.4502,95.85488462448122L224.454698,206.6187568264348L224.72457799999998,92.50114562681745L224.846024,77.50240524326053L224.86401600000002,143.44876613361495L224.931486,49.70562141282218L225.04843400000001,180.1425531761987L225.09791199999998,87.56456420251303L225.14739,192.39655458927155L225.295824,127.38485030191285L225.678154,104.94308814832144L225.916548,173.11508924194746L225.93454,58.58738361086165L225.99301400000002,164.49768045544624L226.352854,188.24333114709174L226.37084599999997,41.406634901251124L226.49229200000002,173.59637748343604L226.532774,5.216705611773932L226.9241,167.08921803321158L226.955586,24.265109666756246L227.15349799999998,72.60689354794367L227.391892,116.24615578140532L227.54932200000002,158.99721918787276L227.56731399999998,90.32934821503504L227.841692,100.21988092150008L228.277998,145.84599491102355L228.448922,122.58099192380905L228.65582999999998,154.04607496517045L228.660328,124.93703793627876L228.673822,138.41972130111287L228.92571,0.05537103755136741L229.303542,34.3019108942577L229.411494,74.46121065105712L229.631896,207.4369110422475L229.694868,67.6207270196506L230.36057200000002,77.75707524163383L230.495512,55.54927866799491L230.760894,78.63434725999834L230.99029199999998,259.05004955189565L231.91688000000002,64.34965498106821L231.957362,175.97499300752366L232.047322,103.31115044014796L232.18676,29.29958022492275L232.19575600000002,179.76631301215718L232.80298599999998,50.23074876410621L232.964914,22.072212210723364L233.162826,161.1199024787971L233.42820799999998,163.60350956235612L233.48218400000002,147.02098478589738L233.990458,108.9344064295292L234.156884,108.3611822809492L234.296322,70.40966304710935L234.45375199999998,209.41462572557586L235.128452,179.36285002316748L235.168934,57.86233334030425L235.29038,189.71112181459154L235.42532,145.284432304757L235.578252,115.19160571268628L235.780662,127.09088147112303L235.81664600000002,139.66850481288773L235.94259,64.30696507011142L236.450864,-7.880355605057304L236.522832,118.1405629685947L236.626286,122.29604712980134L236.801708,121.27037774665015L236.878174,54.03308977399554L237.26500199999998,124.31027242541313L237.305484,21.54486181906293L237.458416,47.9592913218907L237.97568600000002,64.90918294021063L238.151108,135.25241626586234L238.385004,72.80870039973941L239.680428,40.45336504493443L239.774886,29.59543298823496L240.409104,77.8719197681972L240.60251799999998,-46.08191036326542L240.840912,87.69572358472007L240.872398,144.70702582597733L240.962358,120.16722221885409L241.079306,152.8403204722064L241.484126,198.84519909535135L241.71802200000002,93.52397027185987L241.987902,85.75346451146262L242.019388,113.13885399699211L242.14983,141.6545087993145L242.38822399999998,76.68594656671797L242.406216,61.918289346354356L242.46469000000002,56.387176496641985L242.52766200000002,179.8914626496179L242.635614,42.95511439868383L242.68959,85.43402491297041L242.833526,-54.03809651306696L242.865012,71.39812476294382L242.927984,133.28918902363097L243.436258,138.80756648949216L243.485736,156.44599776608604L243.512724,20.59276000091009L243.69714199999999,149.967681322779L243.715134,129.11885947414808L243.778106,-62.521482339927104L243.88155999999998,110.38267955609732L244.358348,68.18402284383775L244.551762,52.33589264324735L244.74967400000003,110.0862616130284L244.830638,176.86249477948462L244.90260600000002,137.17080591406142L245.037546,2.6841351219586045L245.347908,89.32800040074758L245.910158,112.66069308349066L246.10357199999999,38.597126330648166L246.112568,77.31163823604585L246.278994,162.62733108656747L246.283492,39.24440786668234L246.328472,133.29915502667427L246.36445600000002,99.78133910894395L246.47690599999999,105.5259203527655L246.85023999999999,106.65667549201422L246.87273000000002,53.73271557262967L246.94019999999998,129.61082961303848L247.81281199999998,172.3174322119781L248.433536,169.03780711974417L249.387112,199.6412547826767L249.737956,64.55828166859492L249.980848,99.68100086280279L250.09329799999998,164.01511113984245L250.660046,120.63132899573873L251.02438400000003,83.31802958250047L251.24478599999998,127.95244149225098L251.298762,55.12170134271895L251.384224,188.51787663357598L251.64960599999998,155.22517181294305L252.17137400000001,116.92050942778587L252.526716,165.3273643382958L252.715632,30.09546635832106L253.039488,39.3718370624951L253.264388,159.46420838151658L253.30936799999998,58.1777413231986" style="fill: none;" fill="none"></path></g></g></g></g></g></g><g transform="translate(48, 177)" clip-path="url(#clip_1)"><clipPath id="clip_1"><rect width="281" height="23"></rect></clipPath><g><g><line x1="0" y1="0" x2="0" y2="5" style="visibility: inherit;" fill="rgb(0, 0, 0)" stroke="rgb(204, 204, 204)" stroke-width="1px"></line><line x1="28.1125" y1="0" x2="28.1125" y2="5" style="visibility: inherit;" fill="rgb(0, 0, 0)" stroke="rgb(204, 204, 204)" stroke-width="1px"></line><line x1="56.225" y1="0" x2="56.225" y2="5" style="visibility: inherit;" fill="rgb(0, 0, 0)" stroke="rgb(204, 204, 204)" stroke-width="1px"></line><line x1="84.33749999999999" y1="0" x2="84.33749999999999" y2="5" style="visibility: inherit;" fill="rgb(0, 0, 0)" stroke="rgb(204, 204, 204)" stroke-width="1px"></line><line x1="112.45" y1="0" x2="112.45" y2="5" style="visibility: inherit;" fill="rgb(0, 0, 0)" stroke="rgb(204, 204, 204)" stroke-width="1px"></line><line x1="140.5625" y1="0" x2="140.5625" y2="5" style="visibility: inherit;" fill="rgb(0, 0, 0)" stroke="rgb(204, 204, 204)" stroke-width="1px"></line><line x1="168.67499999999998" y1="0" x2="168.67499999999998" y2="5" style="visibility: inherit;" fill="rgb(0, 0, 0)" stroke="rgb(204, 204, 204)" stroke-width="1px"></line><line x1="196.7875" y1="0" x2="196.7875" y2="5" style="visibility: inherit;" fill="rgb(0, 0, 0)" stroke="rgb(204, 204, 204)" stroke-width="1px"></line><line x1="224.9" y1="0" x2="224.9" y2="5" style="visibility: inherit;" fill="rgb(0, 0, 0)" stroke="rgb(204, 204, 204)" stroke-width="1px"></line><line x1="253.01250000000002" y1="0" x2="253.01250000000002" y2="5" style="visibility: inherit;" fill="rgb(0, 0, 0)" stroke="rgb(204, 204, 204)" stroke-width="1px"></line><line x1="281.125" y1="0" x2="281.125" y2="5" style="visibility: inherit;" fill="rgb(0, 0, 0)" stroke="rgb(204, 204, 204)" stroke-width="1px"></line></g><g transform="translate(0, 8)"><text x="0" y="0" dx="0em" dy="0.95em" style="text-anchor: middle; visibility: hidden; font-family: &quot;Helvetica Neue&quot;, sans-serif; font-size: 12px; font-weight: 200;" fill="rgb(50, 49, 63)" stroke="none" stroke-width="1px">-50k</text><text x="28.1125" y="0" dx="0em" dy="0.95em" style="text-anchor: middle; visibility: inherit; font-family: &quot;Helvetica Neue&quot;, sans-serif; font-size: 12px; font-weight: 200;" fill="rgb(50, 49, 63)" stroke="none" stroke-width="1px">0</text><text x="56.225" y="0" dx="0em" dy="0.95em" style="text-anchor: middle; visibility: hidden; font-family: &quot;Helvetica Neue&quot;, sans-serif; font-size: 12px; font-weight: 200;" fill="rgb(50, 49, 63)" stroke="none" stroke-width="1px">50k</text><text x="84.33749999999999" y="0" dx="0em" dy="0.95em" style="text-anchor: middle; visibility: inherit; font-family: &quot;Helvetica Neue&quot;, sans-serif; font-size: 12px; font-weight: 200;" fill="rgb(50, 49, 63)" stroke="none" stroke-width="1px">100k</text><text x="112.45" y="0" dx="0em" dy="0.95em" style="text-anchor: middle; visibility: hidden; font-family: &quot;Helvetica Neue&quot;, sans-serif; font-size: 12px; font-weight: 200;" fill="rgb(50, 49, 63)" stroke="none" stroke-width="1px">150k</text><text x="140.5625" y="0" dx="0em" dy="0.95em" style="text-anchor: middle; visibility: inherit; font-family: &quot;Helvetica Neue&quot;, sans-serif; font-size: 12px; font-weight: 200;" fill="rgb(50, 49, 63)" stroke="none" stroke-width="1px">200k</text><text x="168.67499999999998" y="0" dx="0em" dy="0.95em" style="text-anchor: middle; visibility: hidden; font-family: &quot;Helvetica Neue&quot;, sans-serif; font-size: 12px; font-weight: 200;" fill="rgb(50, 49, 63)" stroke="none" stroke-width="1px">250k</text><text x="196.7875" y="0" dx="0em" dy="0.95em" style="text-anchor: middle; visibility: inherit; font-family: &quot;Helvetica Neue&quot;, sans-serif; font-size: 12px; font-weight: 200;" fill="rgb(50, 49, 63)" stroke="none" stroke-width="1px">300k</text><text x="224.9" y="0" dx="0em" dy="0.95em" style="text-anchor: middle; visibility: hidden; font-family: &quot;Helvetica Neue&quot;, sans-serif; font-size: 12px; font-weight: 200;" fill="rgb(50, 49, 63)" stroke="none" stroke-width="1px">350k</text><text x="253.01250000000002" y="0" dx="0em" dy="0.95em" style="text-anchor: middle; visibility: inherit; font-family: &quot;Helvetica Neue&quot;, sans-serif; font-size: 12px; font-weight: 200;" fill="rgb(50, 49, 63)" stroke="none" stroke-width="1px">400k</text><text x="281.125" y="0" dx="0em" dy="0.95em" style="text-anchor: middle; visibility: hidden; font-family: &quot;Helvetica Neue&quot;, sans-serif; font-size: 12px; font-weight: 200;" fill="rgb(50, 49, 63)" stroke="none" stroke-width="1px">450k</text></g><line x1="0" y1="0" x2="281.125" y2="0" fill="rgb(0, 0, 0)" stroke="rgb(204, 204, 204)" stroke-width="1px"></line></g></g></g></g></svg>