<svg viewBox="0 0 330 200" xmlns="http://www.w3.org/2000/svg"><g><g><g><g><g><line x1="48.875" y1="177" x2="43.875" y2="177" style="visibility: inherit;" fill="rgb(0, 0, 0)" stroke="rgb(204, 204, 204)" stroke-width="1px"></line><line x1="48.875" y1="165.2" x2="43.875" y2="165.2" style="visibility: inherit;" fill="rgb(0, 0, 0)" stroke="rgb(204, 204, 204)" stroke-width="1px"></line><line x1="48.875" y1="153.39999999999998" x2="43.875" y2="153.39999999999998" style="visibility: inherit;" fill="rgb(0, 0, 0)" stroke="rgb(204, 204, 204)" stroke-width="1px"></line><line x1="48.875" y1="141.59999999999997" x2="43.875" y2="141.59999999999997" style="visibility: inherit;" fill="rgb(0, 0, 0)" stroke="rgb(204, 204, 204)" stroke-width="1px"></line><line x1="48.875" y1="129.79999999999995" x2="43.875" y2="129.79999999999995" style="visibility: inherit;" fill="rgb(0, 0, 0)" stroke="rgb(204, 204, 204)" stroke-width="1px"></line><line x1="48.875" y1="117.99999999999996" x2="43.875" y2="117.99999999999996" style="visibility: inherit;" fill="rgb(0, 0, 0)" stroke="rgb(204, 204, 204)" stroke-width="1px"></line><line x1="48.875" y1="106.19999999999995" x2="43.875" y2="106.19999999999995" style="visibility: inherit;" fill="rgb(0, 0, 0)" stroke="rgb(204, 204, 204)" stroke-width="1px"></line><line x1="48.875" y1="94.39999999999993" x2="43.875" y2="94.39999999999993" style="visibility: inherit;" fill="rgb(0, 0, 0)" stroke="rgb(204, 204, 204)" stroke-width="1px"></line><line x1="48.875" y1="82.59999999999992" x2="43.875" y2="82.59999999999992" style="visibility: inherit;" fill="rgb(0, 0, 0)" stroke="rgb(204, 204, 204)" stroke-width="1px"></line><line x1="48.875" y1="70.80000000000004" x2="43.875" y2="70.80000000000004" style="visibility: inherit;" fill="rgb(0, 0, 0)" stroke="rgb(204, 204, 204)" stroke-width="1px"></line><line x1="48.875" y1="59.00000000000004" x2="43.875" y2="59.00000000000004" style="visibility: inherit;" fill="rgb(0, 0, 0)" stroke="rgb(204, 204, 204)" stroke-width="1px"></line><line x1="48.875" y1="47.20000000000002" x2="43.875" y2="47.20000000000002" style="visibility: inherit;" fill="rgb(0, 0, 0)" stroke="rgb(204, 204, 204)" stroke-width="1px"></line><line x1="48.875" y1="35.400000000000034" x2="43.875" y2="35.400000000000034" style="visibility: inherit;" fill="rgb(0, 0, 0)" stroke="rgb(204, 204, 204)" stroke-width="1px"></line><line x1="48.875" y1="23.600000000000023" x2="43.875" y2="23.600000000000023" style="visibility: inherit;" fill="rgb(0, 0, 0)" stroke="rgb(204, 204, 204)" stroke-width="1px"></line><line x1="48.875" y1="11.800000000000011" x2="43.875" y2="11.800000000000011" style="visibility: inherit;" fill="rgb(0, 0, 0)" stroke="rgb(204, 204, 204)" stroke-width="1px"></line><line x1="48.875" y1="0" x2="43.875" y2="0" style="visibility: inherit;" fill="rgb(0, 0, 0)" stroke="rgb(204, 204, 204)" stroke-width="1px"></line></g><g transform="translate(38.875, 0)"><text x="0" y="177" dx="0em" dy="0.3em" style="text-anchor: end; visibility: hidden; font-family: &quot;Helvetica Neue&quot;, sans-serif; font-size: 12px; font-weight: 200;" fill="rgb(50, 49, 63)" stroke="none" stroke-width="1px">0.96</text><text x="0" y="165.2" dx="0em" dy="0.3em" style="text-anchor: end; visibility: inherit; font-family: &quot;Helvetica Neue&quot;, sans-serif; font-size: 12px; font-weight: 200;" fill="rgb(50, 49, 63)" stroke="none" stroke-width="1px">0.98</text><text x="0" y="153.39999999999998" dx="0em" dy="0.3em" style="text-anchor: end; visibility: hidden; font-family: &quot;Helvetica Neue&quot;, sans-serif; font-size: 12px; font-weight: 200;" fill="rgb(50, 49, 63)" stroke="none" stroke-width="1px">1</text><text x="0" y="141.59999999999997" dx="0em" dy="0.3em" style="text-anchor: end; visibility: hidden; font-family: &quot;Helvetica Neue&quot;, sans-serif; font-size: 12px; font-weight: 200;" fill="rgb(50, 49, 63)" stroke="none" stroke-width="1px">1.02</text><text x="0" y="129.79999999999995" dx="0em" dy="0.3em" style="text-anchor: end; visibility: inherit; font-family: &quot;Helvetica Neue&quot;, sans-serif; font-size: 12px; font-weight: 200;" fill="rgb(50, 49, 63)" stroke="none" stroke-width="1px">1.04</text><text x="0" y="117.99999999999996" dx="0em" dy="0.3em" style="text-anchor: end; visibility: hidden; font-family: &quot;Helvetica Neue&quot;, sans-serif; font-size: 12px; font-weight: 200;" fill="rgb(50, 49, 63)" stroke="none" stroke-width="1px">1.06</text><text x="0" y="106.19999999999995" dx="0em" dy="0.3em" style="text-anchor: end; visibility: hidden; font-family: &quot;Helvetica Neue&quot;, sans-serif; font-size: 12px; font-weight: 200;" fill="rgb(50, 49, 63)" stroke="none" stroke-width="1px">1.08</text><text x="0" y="94.39999999999993" dx="0em" dy="0.3em" style="text-anchor: end; visibility: inherit; font-family: &quot;Helvetica Neue&quot;, sans-serif; font-size: 12px; font-weight: 200;" fill="rgb(50, 49, 63)" stroke="none" stroke-width="1px">1.1</text><text x="0" y="82.59999999999992" dx="0em" dy="0.3em" style="text-anchor: end; visibility: hidden; font-family: &quot;Helvetica Neue&quot;, sans-serif; font-size: 12px; font-weight: 200;" fill="rgb(50, 49, 63)" stroke="none" stroke-width="1px">1.12</text><text x="0" y="70.80000000000004" dx="0em" dy="0.3em" style="text-anchor: end; visibility: hidden; font-family: &quot;Helvetica Neue&quot;, sans-serif; font-size: 12px; font-weight: 200;" fill="rgb(50, 49, 63)" stroke="none" stroke-width="1px">1.14</text><text x="0" y="59.00000000000004" dx="0em" dy="0.3em" style="text-anchor: end; visibility: inherit; font-family: &quot;Helvetica Neue&quot;, sans-serif; font-size: 12px; font-weight: 200;" fill="rgb(50, 49, 63)" stroke="none" stroke-width="1px">1.16</text><text x="0" y="47.20000000000002" dx="0em" dy="0.3em" style="text-anchor: end; visibility: hidden; font-family: &quot;Helvetica Neue&quot;, sans-serif; font-size: 12px; font-weight: 200;" fill="rgb(50, 49, 63)" stroke="none" stroke-width="1px">1.18</text><text x="0" y="35.400000000000034" dx="0em" dy="0.3em" style="text-anchor: end; visibility: hidden; font-family: &quot;Helvetica Neue&quot;, sans-serif; font-size: 12px; font-weight: 200;" fill="rgb(50, 49, 63)" stroke="none" stroke-width="1px">1.2</text><text x="0" y="23.600000000000023" dx="0em" dy="0.3em" style="text-anchor: end; visibility: inherit; font-family: &quot;Helvetica Neue&quot;, sans-serif; font-size: 12px; font-weight: 200;" fill="rgb(50, 49, 63)" stroke="none" stroke-width="1px">1.22</text><text x="0" y="11.800000000000011" dx="0em" dy="0.3em" style="text-anchor: end; visibility: hidden; font-family: &quot;Helvetica Neue&quot;, sans-serif; font-size: 12px; font-weight: 200;" fill="rgb(50, 49, 63)" stroke="none" stroke-width="1px">1.24</text><text x="0" y="0" dx="0em" dy="0.3em" style="text-anchor: end; visibility: hidden; font-family: &quot;Helvetica Neue&quot;, sans-serif; font-size: 12px; font-weight: 200;" fill="rgb(50, 49, 63)" stroke="none" stroke-width="1px">1.26</text></g><line x1="48.875" y1="0" x2="48.875" y2="177" fill="rgb(0, 0, 0)" stroke="rgb(204, 204, 204)" stroke-width="1px"></line></g></g><g transform="translate(48, 0)" clip-path="url(#clip_0)"><clipPath id="clip_0"><rect width="281" height="177"></rect></clipPath><g><g><g><line x1="0" y1="0" x2="0" y2="177" fill="rgb(0, 0, 0)" stroke="rgb(60, 60, 60)" stroke-width="1px" opacity="0.25"></line><line x1="28.1125" y1="0" x2="28.1125" y2="177" fill="rgb(0, 0, 0)" stroke="rgb(60, 60, 60)" stroke-width="1px" opacity="0.25"></line><line x1="56.225" y1="0" x2="56.225" y2="177" fill="rgb(0, 0, 0)" stroke="rgb(60, 60, 60)" stroke-width="1px" opacity="0.25"></line><line x1="84.33749999999999" y1="0" x2="84.33749999999999" y2="177" fill="rgb(0, 0, 0)" stroke="rgb(60, 60, 60)" stroke-width="1px" opacity="0.25"></line><line x1="112.45" y1="0" x2="112.45" y2="177" fill="rgb(0, 0, 0)" stroke="rgb(60, 60, 60)" stroke-width="1px" opacity="0.25"></line><line x1="140.5625" y1="0" x2="140.5625" y2="177" fill="rgb(0, 0, 0)" stroke="rgb(60, 60, 60)" stroke-width="1px" opacity="0.25"></line><line x1="168.67499999999998" y1="0" x2="168.67499999999998" y2="177" fill="rgb(0, 0, 0)" stroke="rgb(60, 60, 60)" stroke-width="1px" opacity="0.25"></line><line x1="196.7875" y1="0" x2="196.7875" y2="177" fill="rgb(0, 0, 0)" stroke="rgb(60, 60, 60)" stroke-width="1px" opacity="0.25"></line><line x1="224.9" y1="0" x2="224.9" y2="177" fill="rgb(0, 0, 0)" stroke="rgb(60, 60, 60)" stroke-width="1px" opacity="0.25"></line><line x1="253.01250000000002" y1="0" x2="253.01250000000002" y2="177" fill="rgb(0, 0, 0)" stroke="rgb(60, 60, 60)" stroke-width="1px" opacity="0.25"></line><line x1="281.125" y1="0" x2="281.125" y2="177" fill="rgb(0, 0, 0)" stroke="rgb(60, 60, 60)" stroke-width="1px" opacity="0.25"></line></g><g><line x1="0" y1="177" x2="281.125" y2="177" fill="rgb(0, 0, 0)" stroke="rgb(60, 60, 60)" stroke-width="1px" opacity="0.25"></line><line x1="0" y1="165.2" x2="281.125" y2="165.2" fill="rgb(0, 0, 0)" stroke="rgb(60, 60, 60)" stroke-width="1px" opacity="0.25"></line><line x1="0" y1="153.39999999999998" x2="281.125" y2="153.39999999999998" fill="rgb(0, 0, 0)" stroke="rgb(60, 60, 60)" stroke-width="1px" opacity="0.25"></line><line x1="0" y1="141.59999999999997" x2="281.125" y2="141.59999999999997" fill="rgb(0, 0, 0)" stroke="rgb(60, 60, 60)" stroke-width="1px" opacity="0.25"></line><line x1="0" y1="129.79999999999995" x2="281.125" y2="129.79999999999995" fill="rgb(0, 0, 0)" stroke="rgb(60, 60, 60)" stroke-width="1px" opacity="0.25"></line><line x1="0" y1="117.99999999999996" x2="281.125" y2="117.99999999999996" fill="rgb(0, 0, 0)" stroke="rgb(60, 60, 60)" stroke-width="1px" opacity="0.25"></line><line x1="0" y1="106.19999999999995" x2="281.125" y2="106.19999999999995" fill="rgb(0, 0, 0)" stroke="rgb(60, 60, 60)" stroke-width="1px" opacity="0.25"></line><line x1="0" y1="94.39999999999993" x2="281.125" y2="94.39999999999993" fill="rgb(0, 0, 0)" stroke="rgb(60, 60, 60)" stroke-width="1px" opacity="0.25"></line><line x1="0" y1="82.59999999999992" x2="281.125" y2="82.59999999999992" fill="rgb(0, 0, 0)" stroke="rgb(60, 60, 60)" stroke-width="1px" opacity="0.25"></line><line x1="0" y1="70.80000000000004" x2="281.125" y2="70.80000000000004" fill="rgb(0, 0, 0)" stroke="rgb(60, 60, 60)" stroke-width="1px" opacity="0.25"></line><line x1="0" y1="59.00000000000004" x2="281.125" y2="59.00000000000004" fill="rgb(0, 0, 0)" stroke="rgb(60, 60, 60)" stroke-width="1px" opacity="0.25"></line><line x1="0" y1="47.20000000000002" x2="281.125" y2="47.20000000000002" fill="rgb(0, 0, 0)" stroke="rgb(60, 60, 60)" stroke-width="1px" opacity="0.25"></line><line x1="0" y1="35.400000000000034" x2="281.125" y2="35.400000000000034" fill="rgb(0, 0, 0)" stroke="rgb(60, 60, 60)" stroke-width="1px" opacity="0.25"></line><line x1="0" y1="23.600000000000023" x2="281.125" y2="23.600000000000023" fill="rgb(0, 0, 0)" stroke="rgb(60, 60, 60)" stroke-width="1px" opacity="0.25"></line><line x1="0" y1="11.800000000000011" x2="281.125" y2="11.800000000000011" fill="rgb(0, 0, 0)" stroke="rgb(60, 60, 60)" stroke-width="1px" opacity="0.25"></line><line x1="0" y1="0" x2="281.125" y2="0" fill="rgb(0, 0, 0)" stroke="rgb(60, 60, 60)" stroke-width="1px" opacity="0.25"></line></g></g></g><g><g><line x1="0" y1="743.3999999999999" x2="281.125" y2="743.3999999999999" fill="rgb(0, 0, 0)" stroke="rgb(153, 153, 153)" stroke-width="1.5px"></line></g></g><g><g><line x1="28.1125" y1="0" x2="28.1125" y2="177" fill="rgb(0, 0, 0)" stroke="rgb(153, 153, 153)" stroke-width="1.5px"></line></g></g><g><g><g><g><g><path stroke="rgb(255, 112, 67)" stroke-width="2px" d="M33.420139999999996,-2.3016411823662395L33.784478,5.712628414174702L34.031867999999996,9.378664204743558L34.045362000000004,4.596899451123619L34.108334,13.814340305553316L34.126326,19.906375303225616L34.34223,8.870619940391833L34.373716,7.562973839077017L34.571628000000004,16.472478016338385L34.706568,20.56911414589544L34.962954,20.039779682203175L35.093396,17.620361394875488L35.165364000000004,19.61792059231152L35.237332,19.115708142900587L35.718618,18.904801396323933L35.912031999999996,28.555398920462522L35.925526,29.971521327158484L36.406812,34.7739645275843L36.505768,31.614994179736385L36.555246000000004,28.493502466356887L36.735166,22.507674279448395L36.811632,31.6449619285533L36.870106,33.20165721847687L37.270428,38.205788528177294L37.540307999999996,39.4059296675058L37.949626,36.10552751943453L38.003602,32.84541381314253L38.147538000000004,41.60369485923766L38.174526,43.68656723445159L38.286976,46.08041945901829L38.489386,45.80807734374605L38.858222000000005,44.27024332549814L39.069627999999994,52.249989184538464L39.146094000000005,44.86060729551312L39.155089999999994,49.63602214174264L39.177580000000006,52.06202439496995L39.29003,57.662912306964785L39.294528,52.24934332000042L39.348504000000005,51.43572503344305L39.370994,50.18775553474481L39.501436,45.846367767868315L39.568906,43.65903464997888L40.18963,50.884725485116746L40.43702,49.99453116051585L41.458065999999995,49.83903375978609L41.777423999999996,52.71026340314944L41.790918000000005,58.6276899861646L42.051801999999995,54.60086684509231L42.330678,51.80758856942725L42.641040000000004,52.779255156579495L42.704012000000006,60.143781197585426L42.713007999999995,60.934724014113954L42.717506,62.540055142111L42.97839,65.3714798702398L43.76554,65.56412914834021L44.386264,70.55537627364157L44.39526,68.810069941431L44.62016,67.23555383619646L44.939518,70.55372831307038L45.173414,72.79518899132128L45.267872,75.39774056917018L45.299358,75.71543797400955L45.780643999999995,73.59101582853414L45.906588,74.52601544194471L46.032532,73.94707828601044L46.266428,72.30301980638413L46.545304,76.28542007245964L46.986108,77.8441092898748L47.125546,79.77046223225013L47.148036,75.76582210863712L47.530366,75.74829957011393L47.539362000000004,72.60113786889943L47.9037,72.80765324135913L48.317516,70.86077598869979L48.393981999999994,74.37269571864702L48.48844,76.7458487811333L49.091172,79.82660049335037L49.109164,78.86328775725289L49.145148,78.87137494469596L49.648923999999994,85.9693306659753L49.711895999999996,86.37112854332298L49.882819999999995,87.18671927458381L49.936796,86.07691542629198L50.125712,86.6624626751172L50.472058,89.26066440316605L50.8274,91.44527208550319L50.836396,87.67036336269112L51.079288,86.61037132266836L51.205232,85.69878138735098L51.677521999999996,85.30307254334814L52.154309999999995,85.61604892456845L52.217282,82.61587126758292L52.491659999999996,85.90796495262744L53.071902,88.66245986452074L53.656642000000005,95.57649504560447L53.854554,94.79496114860899L54.236883999999996,98.31172663575961L54.326844,99.5980120671185L54.488772,101.91534750058598L54.520258,103.75818997618168L54.682185999999994,104.57825712917223L54.776644,102.80856961106045L55.055519999999994,101.65245396908989L55.14548,100.97147274385023L55.644758,102.20688692313509L55.689738,98.236242349041L56.000099999999996,101.80533408587723L56.058574,100.81261668840375L56.085561999999996,99.27361733817652L56.144036,99.58454218330142L56.400422,101.17748537315224L56.503876,97.52781496198949L56.791748,90.9610476693629L57.439460000000004,97.37365367180821L57.682352,96.47742092470348L57.812794,99.73206256306177L58.055686,103.34829063460835L58.231108,102.10747259167196L58.244602,99.21218392197709L58.298578,99.8457835587527L58.438016,99.82124449209368L58.941792,99.99509918091303L59.445568,104.35689452289112L59.562516,111.139851931325L60.075288,112.73774212574446L60.111272,108.47562196001704L60.29569,109.71402275410468L60.709506000000005,106.48414996532901L60.997378,101.82260444681825L61.213282,113.77002232385263L61.316736,108.88303310103765L61.6226,112.00686173455449L61.66758,107.5366006756814L61.681073999999995,105.9809050694103L61.748544,109.73861834377017L61.896978000000004,108.31581806284161L62.715614,108.1239759489415L63.01698,113.07431610372765L63.142924,113.36425190894067L63.187903999999996,110.3517128427521L63.345334,107.77417845485787L64.056018,114.06140091751917L64.39336800000001,113.29182326993288L64.90614,113.39077519059737L65.090558,113.9364601628813L65.598832,111.9004129896661L65.72927399999999,112.90241988242269L65.75176400000001,109.52764421308399L65.79224599999999,110.73806266310432L66.19706599999999,110.47384952260624L66.21056,108.34395857068047L66.336504,109.1162168324718L66.381484,113.1204124153096L66.799798,119.87384328963988L66.95273,116.20536748959205L67.22261,114.80805302854527L68.045744,119.1288502383003L68.162692,115.04535896347573L68.176186,117.41715884427198L68.270644,119.30978509080398L68.30213,116.707811533761L68.563014,117.42413804254048L68.590002,113.21895756078433L68.84188999999999,113.9178822955648L69.76398,116.37856795079469L70.015868,119.10024768881178L70.15980400000001,120.65287842972386L70.55113,116.84758134021354L70.699564,120.06118968089811L71.05490599999999,118.47656305170287L71.08639199999999,119.4248754569067L71.14486600000001,118.60379198480675L71.414746,117.34301589065205L71.54968600000001,120.07120847543128L71.65314,120.7953642454149L71.734104,120.03587653675089L72.386314,118.35683147930152L72.674186,117.73910819544226L73.35338399999999,118.40336106213238L73.470332,121.2646255468864L74.33394799999999,118.87419029090044L74.365434,124.46537173755901L74.87370800000001,122.48331674675904L74.887202,122.00101963484735L74.98166,120.46029621007709L75.24704200000001,122.59730977560682L75.440456,120.00464952198035L75.82278600000001,118.08005579595184L75.962224,116.81999627282872L76.03419199999999,116.56074000078829L76.11065799999999,114.7694826738738L76.290578,117.08241071562185L76.49748600000001,117.56058683312071L76.501984,117.5486877436407L76.60094,117.43714527100133L76.75837,117.7258258665193L76.875318,120.59199067143138L76.9158,120.41963451974112L77.149696,118.63260609789202L77.16319,118.46392107298078L77.316122,117.16253954106631L77.334114,119.34331283291623L77.437568,119.1260185415771L77.464556,120.65945078940547L77.473552,121.9856156564436L77.68046,118.5592238555361L78.049296,118.68119467556522L78.134758,119.04206923759006L78.17524,119.73897164890774L78.481104,119.54040100234518L78.4901,119.50273291860681L78.75998,117.77139421817455L79.475162,121.91428359816554L79.71355600000001,125.64252849859054L79.803516,124.77723439956935L79.942954,120.55635057702796L79.983436,122.2041891838023L80.059902,121.9885580888336L80.13636799999999,123.93474858468443L80.505204,126.69470035472915L80.60865799999999,126.10832751416814L80.67163,121.3960530652025L81.00448200000001,121.14370966276043L81.517254,122.84007669639892L81.949062,123.76199018211543L81.971552,125.18282835991016L82.13347999999999,123.80820752925175L82.272918,121.91349398700288L82.709224,124.25609129195152L82.826172,126.03191325142828L82.844164,127.00628236934443L82.91613199999999,124.80074652197897L83.105048,121.52758399106824L83.39292,123.2977753702269L83.406414,118.92457506558088L83.478382,116.00455092847821L83.91019,119.9261414114265L84.148584,126.51044230840382L85.106658,122.51739072073565L85.232602,124.97012486975825L85.70939,124.41084389997377L86.033246,123.2772435111574L86.312122,125.22353238599126L86.662966,125.60039165220633L86.739432,125.30989372850644L86.86087799999999,127.47328294349424L86.95533599999999,128.74402708192298L87.009312,124.81255772101657L87.07678200000001,126.12618100635868L87.333168,126.91030376906792L87.66152199999999,126.44874627206087L88.156302,126.35268135317187L88.394696,125.1395195785047L88.412688,129.26460455792432L88.853492,129.33242183051868L89.04240800000001,127.56610440446352L89.271806,124.77267804642571L89.37526,126.10394120514424L89.640642,122.01004897296441L89.654136,127.45002539360519L90.07694799999999,128.50635581614972L90.22988000000001,124.6639625489854L90.38730999999999,128.92359435678378L90.562732,128.747283445125L90.97654800000001,132.12941861291236L91.075504,130.40103503310385L91.44434,134.90600184109024L92.078558,131.4712322539461L92.375426,130.61025968470403L92.406912,130.52605824993987L92.44739399999999,128.91258677796674L92.52386000000001,132.90186082456194L92.604824,132.96426423033284L92.870206,133.4727717950356L93.095106,132.513814882899L93.306512,133.20565312651672L93.58988599999999,134.14136449782765L93.92723600000001,128.2107578390165L93.954224,129.72242500980633L94.089164,129.04185798287344L94.12964600000001,127.70700075697872L94.174626,129.25879762215592L94.588442,130.89143814589494L94.62892400000001,133.83611178127467L94.646916,131.1795589526149L94.723382,130.78430670259306L95.011254,130.89795062159243L95.096716,131.06575731524674L95.703946,132.17091597133185L95.98732000000001,132.61724337704962L96.194228,130.63121749382012L96.39214000000001,134.00888687980643L96.778968,130.9197968495636L97.039852,131.24445819930713L97.710054,131.03216482208055L97.71905000000001,131.51126033428835L97.86298599999999,130.40920939423754L98.00242399999999,129.58705582605663L98.267806,129.53860888473315L98.91102,128.60426442141608L99.01897199999999,130.34240909764327L99.059454,126.61710790365427L99.306844,125.58493917685448L99.986042,124.32135512293397L100.049014,129.9321545807184L100.50781,126.24173852250945L100.602268,128.0009085538743L101.20050200000001,130.18872334735136L101.524358,130.71885378227554L101.623314,129.73255544105712L101.69978,128.84250621080125L101.906688,132.3017303805335L102.05962,131.4511107457152L102.35199,132.0842488296312L102.71183,133.4028023152042L103.053678,132.95316740444235L103.215606,134.4971743951495L103.714884,133.68614467920395L103.719382,133.8276892336698L103.87231399999999,133.827934455424L103.93528599999999,132.60712049457396L104.124202,131.95588135512446L104.875368,134.2577848517405L105.014806,135.1744727756684L105.167738,134.9522239104572L105.653522,135.2697966036596L105.801956,134.29606791123143L105.88292,132.07607086529967L105.891916,132.3540904142298L105.999868,132.31085823642235L106.004366,130.37772813002476L106.01786,134.2809041509641L106.10332199999999,134.73387753543926L106.260752,133.47239168392218L106.40019,134.28610306684143L106.57561199999999,136.87631630482653L106.620592,138.14894152392364L107.020914,135.26915794795403L107.08388599999999,135.7203315722088L107.214328,135.74852590484267L107.25031200000001,135.38943971587918L107.380754,134.4740292012316L107.826056,134.45453467009193L108.865094,134.7313177564008L108.99103799999999,133.67971812118668L109.03152,133.3914230586862L109.157464,130.4382197905644L109.31489400000001,132.2008647089639L109.36887,134.35756703170773L109.65674200000001,135.24705837698372L110.26397200000001,133.76851229746086L110.506864,134.30490616845458L111.105098,135.07248795919043L111.10959600000001,135.09049877221833L111.739316,135.47930551943455L112.283574,134.82441837178035L112.31506,134.4904536735198L112.87731,135.11801245756033L113.38558400000001,136.0984309944336L113.471046,134.85410107331415L113.59699,135.64701861594278L113.695946,134.67896344693997L113.79040400000001,135.78627455253906L114.096268,137.54423430931269L114.33466200000001,137.90071123225508L114.595546,138.21635586609258L114.79345799999999,137.15245628470075L115.75603000000001,137.18625141211686L115.836994,140.2374795116683L115.93594999999999,140.1978803156435L115.962938,138.81494034758916L116.45322,139.152205747555L116.516192,138.2479098666848L116.56567,139.9989352815832L116.81306000000001,140.02425718030247L116.862538,140.37299981904582L116.889526,139.05029778952922L117.15490799999999,135.97998179719167L117.276354,135.82590827539747L117.37980800000001,136.57363979098312L117.694668,137.88839331672858L117.793624,135.68675022725023L117.942058,135.56585049035408L118.05001,133.01368971468355L118.22993,135.56415460944982L118.310894,134.09400725389003L118.337882,135.10659028067874L118.35137599999999,135.8664261494559L118.693224,134.26043134656436L118.697722,133.84099053935336L118.90912800000001,134.2573253226049L119.04856600000001,133.09120068977876L119.170012,137.37220542210696L119.183506,132.64702936517207L119.205996,135.6436664945305L119.525354,139.20727234163405L119.574832,138.55412506269516L119.79523400000001,135.78952265266838L120.05162,135.69447141935987L120.25402999999999,133.0495624521409L120.43844800000001,132.77470222348182L120.496922,136.28108125230202L120.50142000000001,138.8802251750262L120.600376,135.55094380939198L120.67234400000001,138.04990695335988L121.171622,138.4590596200139L121.26608,140.0441226959891L121.576442,138.41411872867744L121.58993600000001,136.67527688601015L121.594434,136.84764379655357L121.810338,138.24300558564076L121.91829,138.36827903268932L122.512026,138.57865218447554L122.87186600000001,137.23206485347092L122.93034,137.70480074069582L123.21821200000001,139.00180706490085L123.510582,139.87951866810914L123.614036,138.7158070184314L123.991868,140.20500754937677L124.005362,139.4765252663204L124.02785200000001,137.70520976504736L124.329218,137.88813894344005L124.41018199999999,137.75141980023773L124.747532,138.69397832972754L124.92295399999999,139.683849403995L125.633638,135.19356165274246L125.82255400000001,135.9637912007824L125.827052,139.63819966630072L126.119422,138.16822983930072L126.14641,137.87066290205448L126.263358,137.33167771712374L126.357816,138.10847104677805L126.384804,136.98678278141762L127.095488,139.1973300028655L128.17051,141.291531146098L128.228984,138.55707692893074L128.38191600000002,138.67806115979988L128.489868,139.50476727983374L128.55284,138.28648268998273L128.678784,138.36063335788617L129.191556,139.27872185738306L129.348986,137.83992518443705L129.515412,136.6720750752619L129.92473,140.19095185896936L130.50947,139.04260242641675L130.84682,139.8645247355741L131.25164,138.46638268802408L131.265134,137.55857064827586L131.92633999999998,139.91814978184885L131.944332,138.45661082781893L132.137746,139.60450396846255L132.18722400000001,137.8764970511825L132.232204,139.6502469283719L132.385136,139.49696803464758L132.430116,139.9876432536499L132.547064,140.33741490116452L132.749474,142.93369289440358L132.852928,141.9283388483669L133.082326,142.4812400453177L133.190278,142.8285947962336L133.27574,141.53445942900967L133.487146,139.8552339154625L133.99542,140.50211087692634L134.215822,139.64887925046006L134.58016,140.13967064414814L134.629638,140.48433545228474L134.719598,138.6791185176172L135.04795199999998,139.6439023849844L135.304338,140.43188821062319L135.78562399999998,139.58376066914127L136.419842,140.26405450481727L136.595264,138.60946234690277L136.725706,138.9579102648922L137.117032,139.4726201900022L137.332936,140.51353328038311L137.34193199999999,142.08313804989484L137.512856,143.61665868595492L137.61631,141.34568477532417L137.935668,140.3691468385526L138.569886,139.53413102076453L138.857758,140.18192047265774L139.298562,139.99577267162562L139.33454600000002,141.82677913184497L140.01824200000001,138.34329739854053L140.117198,139.6644947126228L140.265632,139.55131786791787L140.598484,141.0030369480151L140.77390599999998,139.6269699501812L141.16073400000002,141.69802822636478L141.48908799999998,140.82565102319063L141.601538,141.62823588216395L141.660012,141.53741293051297L141.70049400000002,140.55538934766332L142.055836,142.42323315083433L142.32121800000002,142.1861656519142L142.83399,141.15440355374608L142.90146,140.55110099455237L143.25680200000002,137.80292952144455L143.64812799999999,138.69441569855394L144.04845,143.04484247333153L144.214876,143.2193656967065L144.372306,145.324645159601L144.70515799999998,144.68970912334848L145.26290999999998,142.69833585761506L145.35736799999998,142.52739857877796L145.39785,139.55061631706656L145.469818,140.02000102345525L145.753192,141.32315532293543L145.75769000000003,142.3789827437796L145.82066200000003,141.9988893372773L146.373916,143.2146108545637L146.423394,141.07944549070453L146.873194,141.16847061244633L147.17455999999999,138.90816736655228L148.07415999999998,135.0345250727939L148.645406,137.55060544742386L148.649904,137.59042458971282L148.780346,138.20722731852499L148.78934199999998,138.23318130078295L149.234644,138.32046570719712L149.909344,138.50368475879085L150.197216,140.8000309083751L150.224204,142.21961668574164L150.251192,141.00404208328334L150.269184,138.81024171725522L150.273682,139.78458230147126L150.790952,138.7925913456044L151.038342,139.4498109986163L151.578102,137.86526810704325L151.82999,142.54670685040153L152.270794,138.4631703085136L152.31577399999998,139.52522108235544L152.34725999999998,141.6392577104483L152.428224,141.18400300578554L152.68461000000002,143.93957866809535L152.882522,143.2680930565701L153.26935,142.56797239964644L153.67866800000002,140.69002761474513L153.68766399999998,140.3562004067377L153.8316,142.3544161592648L153.912564,141.17283861844092L155.185498,141.77904378538344L155.302446,141.57320635774735L155.50035799999998,142.05049249445796L155.74774799999997,143.38792771408197L156.026624,142.32036225741643L156.08509800000002,140.21761805025068L156.49891399999998,139.48125009421904L156.629356,139.19663871696224L156.80477800000003,140.65817131382602L158.06421799999998,140.78646130193687L158.41956000000002,143.11177160995854L158.536508,140.65780332242045L158.635464,141.84965460392584L158.720926,142.6841916232869L158.83337600000002,142.60342474875245L158.90534399999999,143.23779018936997L158.95932000000002,142.1107690919545L159.15273399999998,142.15828795129693L159.45859800000002,142.27117131051213L159.73747400000002,143.09360770879263L160.67305800000003,143.73612026034627L160.704544,143.8658952549626L160.745026,143.4773648736196L160.969926,142.74527279837838L160.98342000000002,143.7762967699999L161.077878,141.35422597612347L161.21731599999998,141.16949002674465L161.302778,140.11564527947456L161.91450600000002,140.52798755525797L162.278844,142.7034305641606L162.283342,144.27948027071685L162.436274,143.5193543840487L163.05249999999998,143.66654318386549L163.07499,143.21663653501412L163.191938,142.3089929416689L163.398846,142.0181699845143L163.466316,142.5449854143231L163.835152,143.33132432507097L164.02856599999998,145.17629041794908L164.145514,145.61169786527128L164.32993199999999,144.68908918425063L164.523346,144.68671339824564L165.11708199999998,143.93809315964444L165.14856799999998,143.10298714044615L165.16656,144.28939253451185L165.625356,141.40041475273222L165.805276,142.8715902708594L166.228088,139.92475008384122L166.29106000000002,140.30870981821855L166.372024,140.59962871914772L166.56094,142.4972096732001L167.78439600000002,143.01828655068525L168.02279,146.75977426805758L168.558052,149.1616512277046L169.376688,146.7265023409318L169.54311399999997,145.69655724638636L169.965926,143.6881254069443L170.681108,143.23757575228422L170.798056,145.47145547792087L170.97797599999998,144.45006942704185L171.184884,144.70270534488483L171.477254,144.96150325377533L171.50874,144.9058659567818L171.544724,143.4506781968108L171.760628,145.20854412511775L171.80111,143.21664235947006L172.066492,141.83618664477746L172.124966,141.06927214464235L172.777176,138.36976168156082L172.831152,141.83218392849219L172.97958599999998,143.3112118883148L173.168502,143.90916419048392L173.460872,140.36082631122633L173.793724,142.71668018920167L174.00512999999998,144.27727389110885L174.29749999999999,147.63383332117658L174.427942,144.3720545817867L174.486416,143.20196272191131L174.796778,142.80875598702863L174.81027200000003,144.8505113894584L175.003686,143.45145059435615L175.224088,144.5895102644506L175.475976,145.05144266990072L176.06971199999998,143.12451962415724L176.105696,143.74994099965298L176.137182,144.7674229051506L176.555496,143.43347263728594L176.609472,144.0991054176987L176.699432,142.82828998325465L177.212204,141.82421928261633L177.230196,143.682267088979L177.351642,144.68369006829832L177.360638,144.62312780211784L177.765458,143.1002782582666L178.080318,138.33609179016497L178.201764,143.0999286947044L178.23325,144.97668491228774L178.359194,145.3863218070528L178.970922,146.1049137354768L179.384738,145.31221005921827L179.416224,143.77947563651352L179.821044,144.092724635143L179.861526,144.57795959111385L179.915502,142.37929534313878L180.00096399999998,141.87284236549024L180.07743,143.38498105405972L180.320322,142.05222730278493L180.37429799999998,140.660142076251L180.486748,139.4414890696031L180.65317399999998,142.6416293769731L180.914058,142.72502504287084L181.12096599999998,142.57677829323964L181.20642800000002,142.43434866463403L181.23791400000002,143.703513728352L181.444822,143.57945797608585L181.678718,143.68732890705041L181.69221199999998,144.7412496734844L181.849642,144.44500325257704L182.434382,143.52692518076373L182.66827800000002,143.59332496548345L182.672776,143.48478932514573L182.767234,143.77569602092967L183.014624,145.3120931611113L183.40595,145.71233835134828L183.410448,145.16095247217365L183.58137200000002,145.14060106246677L183.73880200000002,143.53499927502284L183.779284,144.4061323164786L183.95470600000002,144.4183598708442L184.17510800000002,146.05900862880537L184.42249800000002,145.78262803952683L184.566434,145.20143828154085L184.993744,143.62216984606067L185.67744,144.19881971464318L185.897842,146.38689976564507L186.05977,145.5771114780393L186.33864599999998,143.58748055183204L186.684992,144.1678781168658L186.698486,145.4381041894554L187.040334,144.57162588418714L187.134792,140.9997441004586L187.17077600000002,144.207051717691L187.22925,144.44616168704766L187.23824599999998,144.6406335089632L187.26523400000002,146.6278777250068L187.70603799999998,144.5628275566349L187.715034,146.02052377778583L188.10636000000002,145.3669919056791L188.119854,145.34327955502852L188.2413,144.84783046876538L189.010458,147.55343491455997L189.041944,146.39958162439518L189.338812,145.3003763969698L189.361302,143.82892355775581L189.829094,143.37969996366348L189.90556,143.22824165483385L190.20692599999998,145.1720861366992L190.296886,147.2854753453496L190.778172,146.8969021963456L191.012068,145.41984036489595L191.07953799999999,144.3119402678268L191.147008,144.76094494530307L191.218976,144.47426311891525L191.27745,146.14108067942408L191.43488,146.68571972723447L191.520342,146.14177466318387L191.551828,146.37222372582778L192.599862,148.55303371364607L192.869742,149.87834347495277L193.004682,149.37610167747044L193.090144,149.17797801545447L193.490466,145.92884192020404L193.665888,142.68204514235683L193.68388000000002,141.7457282641556L193.724362,142.83202039355194L193.75135,143.83670094462724L193.8638,144.6731289652139L194.12018600000002,143.67983664197627L194.776894,143.96190442277728L195.298662,144.44103440781674L195.447096,144.193246476294L195.93737800000002,147.14684289004884L195.964366,147.83946620766204L196.00484799999998,144.4934649762147L196.58509,144.84476478437387L196.738022,141.7878230162848L197.88951,142.4530285303824L197.97497199999998,144.38432451874215L198.168386,144.4071319960963L198.478748,144.35869795223533L199.445818,145.53048324430256L199.900116,143.91423755552927L200.14750600000002,146.3557764963302L200.214976,146.6993591091629L200.525338,144.78056542048427L200.67827,143.50465827923765L201.011122,144.53894776905625L201.08309,145.50781286004204L201.132568,143.32159384395484L201.28549999999998,143.57233477774753L201.64534,144.87039667811092L201.919718,145.00089979199225L201.924216,144.80847402589114L202.18509999999998,144.0510145531689L202.27506000000002,143.61476930776803L202.468474,144.85323530673722L202.49096400000002,144.03477096462086L202.81482,145.51694036426446L203.449038,146.6632405430216L203.552492,148.5803092283093L203.55698999999998,148.72441592944165L204.168718,144.92942834337057L204.600526,145.35512639307672L204.86590800000002,147.23949677243044L204.915386,146.2044667249573L206.192818,145.0632060054333L206.37723599999998,145.7106782343024L206.692096,147.72141737377854L206.81804,147.6811858429683L207.047438,146.74009526814064L207.483744,147.02166523125794L207.62318199999999,147.107360501212L207.645672,145.66706080145966L207.722138,144.4743110925396L207.951536,145.81532478037116L208.12246,145.9894918042579L209.040052,146.51467063416L209.36390799999998,146.46857330792525L209.836198,146.2415054273211L210.22752400000002,143.7321005220176L210.2815,141.9809937307216L210.425436,143.76479706698524L210.55138,146.4840897270075L210.94270600000002,143.81063736128993L210.987686,142.13367232232207L211.014674,143.57371989577362L211.032666,143.07136584096753L211.172104,146.65005461200244L211.1811,146.18615146532156L211.244072,148.20732053312355L211.27105999999998,148.42142721291006L211.599414,148.8560387961604L212.71042,147.37011594966276L213.106244,148.5028442203714L213.223192,146.12573183892454L213.628012,145.75398835491106L213.749458,145.07647544473983L214.06431800000001,144.9811792846356L214.370182,146.0098098657033L214.44215,143.60489920982718L214.739018,145.21217521315222L214.95492199999998,145.46769186190008L215.02689,144.02178729731585L215.157332,142.73983968948573L215.269782,143.79295534643674L215.355244,145.24851420136184L216.002956,145.4032382739298L216.03894000000003,143.5532931764551L216.326812,142.41291392085714L216.44825799999998,144.23984483383754L217.055488,143.37105472745094L217.086974,144.38592015183917L217.167938,147.01394484088993L217.631232,147.09797372368686L217.739184,145.9318469020588L217.784164,147.15843604879745L217.847136,147.37766351984249L218.126012,147.3522719400304L218.553322,147.01749792201383L218.85019,146.40068130554596L218.90866400000002,148.42848476446773L219.0526,145.9406742708511L219.13356399999998,146.0810751328842L219.178544,146.51976826011992L219.273002,147.72196423900044L219.763284,147.80752342636538L220.078144,144.71565568026992L220.518948,144.70211876140294L221.045214,144.72367733899506L221.216138,145.7230536209568L221.364572,144.54749046725183L221.441038,145.37446592189164L221.61646000000002,146.05903238974386L222.704976,144.60739796473015L222.77694400000001,146.06892873474015L223.424656,146.46636979119813L223.658552,146.69445320330163L223.856464,145.9308940289146L224.013894,147.01908230052743L224.14883400000002,146.45832071820706L224.256786,145.77250330281146L224.36473800000002,145.99384538073465L224.400722,146.85637455784752L224.4502,144.47497105123688L224.454698,143.558663088811L224.72457799999998,146.66439064427175L224.846024,147.39101306011645L224.86401600000002,148.20180769568904L224.931486,146.5590649450196L225.04843400000001,146.87984963443128L225.09791199999998,147.54065703026203L225.14739,149.39552025956957L225.295824,149.6994062338057L225.678154,151.81666814290182L225.916548,150.5515595710438L225.93454,147.8347197887994L225.99301400000002,145.8253496573983L226.352854,146.76481434384692L226.37084599999997,147.63554099964918L226.49229200000002,147.34708822588817L226.532774,147.01604756367615L226.9241,148.70919686706313L226.955586,148.29337811321884L227.15349799999998,147.75166531473914L227.391892,147.35571335357736L227.54932200000002,146.47169308783003L227.56731399999998,145.4135547549807L227.841692,145.24754287190925L228.277998,146.13721835009855L228.448922,145.6502878963506L228.65582999999998,145.65426171180943L228.660328,147.19998763774234L228.673822,146.55327549203867L228.92571,145.67603664532086L229.303542,147.3394840629982L229.411494,146.9737581868224L229.631896,148.05706752653435L229.694868,147.56888861009784L230.36057200000002,149.21856386750525L230.495512,149.91828561359398L230.760894,147.27292929967493L230.99029199999998,148.1118548660294L231.91688000000002,146.3148552482615L231.957362,147.37755036743224L232.047322,145.72637530560337L232.18676,146.0529038309756L232.19575600000002,145.75755564926283L232.80298599999998,146.72211233471756L232.964914,144.6543662625249L233.162826,145.0967988155898L233.42820799999998,146.37508860484465L233.48218400000002,146.99177389654938L233.990458,144.0725695068444L234.156884,146.16958241074119L234.296322,149.20916842227481L234.45375199999998,149.24819388631155L235.128452,148.90525612976057L235.168934,147.1205349644774L235.29038,147.75723037962635L235.42532,147.40671035912354L235.578252,147.2731462411089L235.780662,148.13041240286847L235.81664600000002,147.59567789978993L235.94259,147.22760123221406L236.450864,147.21249472980696L236.522832,145.8886448710262L236.626286,146.270029421395L236.801708,146.8177802871143L236.878174,147.21921189251395L237.26500199999998,145.9716737343242L237.305484,148.43615304430543L237.458416,148.4345740592492L237.97568600000002,148.64108230328628L238.151108,144.91465117487948L238.385004,141.97182848187475L239.680428,144.02420193989389L239.774886,145.35479622268264L240.409104,145.75495275726067L240.60251799999998,147.5571251539597L240.840912,148.33121194769194L240.872398,148.67888231235295L240.962358,147.8499250218722L241.079306,147.87729468139716L241.484126,146.27019467230267L241.71802200000002,146.20457148477803L241.987902,147.409002980741L242.019388,146.77791117259991L242.14983,143.86041436331953L242.38822399999998,144.9143653591721L242.406216,147.47249479533724L242.46469000000002,148.68752391959123L242.52766200000002,148.2443073357635L242.635614,148.84392933401426L242.68959,149.76079996796224L242.833526,146.86511632187225L242.865012,144.2385784028951L242.927984,146.6987283825269L243.436258,146.50242886301223L243.485736,150.3781419930241L243.512724,147.9567773161758L243.69714199999999,148.81624202599704L243.715134,149.3114116088783L243.778106,147.72833061553456L243.88155999999998,147.55819898806473L244.358348,149.93230867125064L244.551762,147.76844468913953L244.74967400000003,148.76997485639137L244.830638,147.2405762224286L244.90260600000002,146.57917597942884L245.037546,147.28671214969953L245.347908,146.46990418190956L245.910158,146.19734679076203L246.10357199999999,147.64411146648607L246.112568,147.95963044648093L246.278994,149.58281644156412L246.283492,147.3548947904756L246.328472,148.9394288596064L246.36445600000002,148.35319394448697L246.47690599999999,141.693777633782L246.85023999999999,146.76840386931642L246.87273000000002,144.4069122060809L246.94019999999998,144.3706353035375L247.81281199999998,139.91248639147307L248.433536,143.86776548219214L249.387112,145.6719632100612L249.737956,146.3262072152824L249.980848,144.079560083564L250.09329799999998,144.67207254076953L250.660046,146.0920631808338L251.02438400000003,147.8291622210918L251.24478599999998,148.7801569205152L251.298762,148.85197682748L251.384224,148.03446830016233L251.64960599999998,147.94632696093242L252.17137400000001,148.48854780543525L252.526716,148.91969000070497L252.715632,148.10722453814276L253.039488,146.9969563545081L253.264388,147.26223579772073L253.30936799999998,146.83617263631677" style="fill: none;" fill="none"></path></g></g></g></g><g opacity="0.2"><g><g><g><path stroke="rgb(255, 112, 67)" stroke-width="2px" d="M31.872828000000002,-4.5877066612243596L32.480058,17.384332084655767L32.673472,-16.61529455184936L32.907368,7.514716053009039L33.078292000000005,-8.883113002777094L33.420139999999996,4.257713222503668L33.784478,17.734030151367193L34.031867999999996,14.877717161178595L34.045362000000004,-2.575747108459467L34.108334,27.64050092697144L34.126326,29.044427537918097L34.34223,-7.6830128192901554L34.373716,5.6015047073364315L34.571628000000004,29.83673419952393L34.706568,26.714068317413336L34.962954,19.245777988433844L35.093396,13.991233968734747L35.165364000000004,22.614259386062628L35.237332,18.362389469146734L35.718618,18.5884412765503L35.912031999999996,43.0312952041626L35.925526,32.09570493698121L36.406812,41.97762932777405L36.505768,26.876538658142096L36.555246000000004,23.811264896392828L36.735166,13.528931999206549L36.811632,45.350893402099615L36.870106,35.536700153350836L37.270428,45.711985492706305L37.540307999999996,41.20614137649537L37.949626,31.15492429733277L38.003602,27.95524325370789L38.147538000000004,54.74111642837525L38.174526,46.810875797271734L38.286976,49.671197795867926L38.489386,45.39956417083741L38.858222000000005,41.963492298126226L39.069627999999994,64.21960797309876L39.146094000000005,33.7765344619751L39.155089999999994,56.79914441108704L39.177580000000006,55.70102777481078L39.29003,66.06424417495728L39.294528,44.12898983955384L39.348504000000005,50.21529760360718L39.370994,48.31580128669739L39.501436,39.33428611755372L39.568906,40.37803497314454L40.18963,61.72326173782349L40.43702,48.65923967361451L41.458065999999995,49.60578765869141L41.777423999999996,57.017107868194586L41.790918000000005,67.50382986068725L42.051801999999995,48.56063213348389L42.330678,47.61767115592957L42.641040000000004,54.236755037307745L42.704012000000006,71.19057025909423L42.713007999999995,62.12113823890685L42.717506,64.94805183410645L42.97839,69.61861696243285L43.76554,65.85310306549071L44.386264,78.04224696159362L44.39526,66.19211044311524L44.62016,64.87377967834473L44.939518,75.53099002838135L45.173414,76.1573800086975L45.267872,79.30156793594361L45.299358,76.1919840812683L45.780643999999995,70.40438261032104L45.906588,75.92851486206055L46.032532,73.07867255210876L46.266428,69.83693208694459L46.545304,82.25902047157287L46.986108,80.1821431159973L47.125546,82.65999164581298L47.148036,69.75886192321778L47.530366,75.7220157623291L47.539362000000004,67.88039531707763L47.9037,73.11742630004882L48.317516,67.9404601097107L48.393981999999994,79.6405753135681L48.48844,80.30557837486266L49.091172,84.44772806167602L49.109164,77.41831865310668L49.145148,78.88350572586059L49.648923999999994,96.61626424789428L49.711895999999996,86.97382535934447L49.882819999999995,88.41010537147521L49.936796,84.41220965385438L50.125712,87.5407835483551L50.472058,93.15796699523925L50.8274,94.72218360900878L50.836396,82.00800027847289L51.079288,85.02038326263427L51.205232,84.331396484375L51.677521999999996,84.70950927734376L52.154309999999995,86.08551349639892L52.217282,78.11560478210448L52.491659999999996,90.84610548019408L53.071902,92.79420223236083L53.656642000000005,105.94754781723022L53.854554,93.62266030311584L54.236883999999996,103.58687486648559L54.326844,101.5274402141571L54.488772,105.39135065078734L54.520258,106.52245368957519L54.682185999999994,105.80835785865783L54.776644,100.15403833389281L55.055519999999994,99.91828050613402L55.14548,99.95000090599059L55.644758,104.06000819206237L55.689738,92.28027548789977L56.000099999999996,107.15897169113158L56.058574,99.3235405921936L56.085561999999996,96.96511831283568L56.144036,100.05092945098876L56.400422,103.56690015792846L56.503876,92.05330934524535L56.791748,81.11089673042298L57.439460000000004,106.99256267547607L57.682352,95.13307180404662L57.812794,104.61402502059936L58.055686,108.77263274192809L58.231108,100.24624552726745L58.244602,94.86925091743468L58.298578,100.796183013916L58.438016,99.7844358921051L58.941792,100.25588121414184L59.445568,110.89958753585815L59.562516,121.31428804397582L60.075288,115.13457741737365L60.111272,102.08244171142577L60.29569,111.5716239452362L60.709506000000005,101.63934078216552L60.997378,94.83028616905212L61.213282,131.69114913940427L61.316736,101.55254926681518L61.6226,116.6926046848297L61.66758,100.83120908737182L61.681073999999995,103.64736166000365L61.748544,115.37518825531004L61.896978000000004,106.18161764144897L62.715614,107.83621277809142L63.01698,120.49982633590697L63.142924,113.79915561676025L63.187903999999996,105.83290424346923L63.345334,103.90787687301635L64.056018,123.49223461151122L64.39336800000001,112.13745679855346L64.90614,113.53920307159423L65.090558,114.75498762130736L65.598832,108.84634222984313L65.72927399999999,114.4054302215576L65.75176400000001,104.46548070907592L65.79224599999999,112.55369033813476L66.19706599999999,110.07752981185912L66.21056,105.14912214279174L66.336504,110.27460422515868L66.381484,119.12670578956603L66.799798,130.00398960113523L66.95273,110.70265378952026L67.22261,112.71208133697509L68.045744,125.61004605293273L68.162692,108.920122051239L68.176186,120.9748586654663L68.270644,122.14872446060178L68.30213,112.8048511981964L68.563014,118.49862780570982L68.590002,106.91118683815002L68.84188999999999,114.96626939773557L69.76398,120.06959643363952L70.015868,123.18276729583738L70.15980400000001,122.98182454109191L70.55113,111.13963570594787L70.699564,124.88160219192503L71.05490599999999,116.09962310791015L71.08639199999999,120.84734406471252L71.14486600000001,117.3721667766571L71.414746,115.45185174942016L71.54968600000001,124.16349735260007L71.65314,121.8815979003906L71.734104,118.89664497375487L72.386314,115.83826389312743L72.674186,116.8125232696533L73.35338399999999,119.39974036216735L73.470332,125.55652227401731L74.33394799999999,115.28853740692138L74.365434,132.85214390754697L74.87370800000001,119.51023426055907L74.887202,121.27757396697997L74.98166,118.14921107292173L75.24704200000001,125.80283012390134L75.440456,116.11565914154052L75.82278600000001,115.19316520690917L75.962224,114.92990698814391L76.03419199999999,116.17185559272765L76.11065799999999,112.08259668350219L76.290578,120.55180277824401L76.49748600000001,118.27785100936889L76.501984,117.53083910942077L76.60094,117.26983156204223L76.75837,118.15884675979613L76.875318,124.89123787879942L76.9158,120.16110029220579L77.149696,115.95206346511839L77.16319,118.210893535614L77.316122,115.21046724319457L77.334114,122.61447277069091L77.437568,118.80007710456847L77.464556,122.95959916114805L77.473552,123.97486295700071L77.68046,113.41963615417478L78.049296,118.86415090560912L78.134758,119.58338108062742L78.17524,120.78432526588439L78.481104,119.24254503250121L78.4901,119.44623079299924L78.75998,115.17438616752624L79.475162,128.12861766815183L79.71355600000001,131.23489584922788L79.803516,123.47929325103757L79.942954,114.22502484321592L79.983436,124.67594709396361L80.059902,121.66511144638059L80.13636799999999,126.85403432846067L80.505204,130.83462800979612L80.60865799999999,125.22876825332641L80.67163,114.32764139175414L81.00448200000001,120.76519455909727L81.517254,125.38462724685667L81.949062,125.14486041069028L81.971552,127.31408562660216L82.13347999999999,121.74627628326414L82.272918,119.07142367362975L82.709224,127.76998724937437L82.826172,128.6956461906433L82.844164,128.46783604621885L82.91613199999999,121.49244275093078L83.105048,116.61784019470214L83.39292,125.95306243896482L83.406414,112.36477460861205L83.478382,111.62451472282409L83.91019,125.80852713584898L84.148584,136.3868936538696L85.106658,116.52781333923339L85.232602,128.6492260932922L85.70939,123.57192244529722L86.033246,121.57684292793273L86.312122,128.14296569824216L86.662966,126.16568055152891L86.739432,124.87414684295652L86.86087799999999,130.71836676597593L86.95533599999999,130.65014328956602L87.009312,118.91535367965696L87.07678200000001,128.09661593437193L87.333168,128.0864879131317L87.66152199999999,125.75641002655027L88.156302,126.20858397483823L88.394696,123.31977691650388L88.412688,135.4522320270538L88.853492,129.43414773941038L89.04240800000001,124.91662826538084L89.271806,120.58253850936889L89.37526,128.10083594322202L89.640642,115.86921062469482L89.654136,135.60999002456663L90.07694799999999,130.0908514499664L90.22988000000001,118.90037264823911L90.38730999999999,135.31304206848142L90.562732,128.4828170776367L90.97654800000001,137.20262136459348L91.075504,127.8084596633911L91.44434,141.66345205307005L92.078558,126.31907787322996L92.375426,129.31880083084104L92.406912,130.39975609779356L92.44739399999999,126.4923795700073L92.52386000000001,138.88577189445493L92.604824,133.05786933898924L92.870206,134.23553314208982L93.095106,131.0753795146942L93.306512,134.24341049194334L93.58988599999999,135.5449315547943L93.92723600000001,119.31484785079955L93.954224,131.9899257659912L94.089164,128.02100744247434L94.12964600000001,125.70471491813657L94.174626,131.58649291992185L94.588442,133.34039893150327L94.62892400000001,138.25312223434446L94.646916,127.19472970962522L94.723382,130.1914283275604L95.011254,131.06841650009153L95.096716,131.31746735572813L95.703946,133.82865395545957L95.98732000000001,133.2867344856262L96.194228,127.65217866897581L96.39214000000001,139.075390958786L96.778968,126.2861618041992L97.039852,131.7314502239227L97.710054,130.71372475624082L97.71905000000001,132.22990360260007L97.86298599999999,128.75613298416135L98.00242399999999,128.35382547378538L98.267806,129.46593847274778L98.91102,127.2027477264404L99.01897199999999,132.94962611198423L99.059454,121.02915611267088L99.306844,124.03668608665464L99.986042,122.4259790420532L100.049014,138.348353767395L100.50781,120.7061144351959L100.602268,130.6396636009216L101.20050200000001,133.47044553756712L101.524358,131.51404943466184L101.623314,128.2531079292297L101.69978,127.50743236541746L101.906688,137.4905666351318L102.05962,130.17518129348753L102.35199,133.03395595550535L102.71183,135.38063254356382L103.053678,132.27871503829954L103.215606,136.8131848812103L103.714884,132.46960010528562L103.719382,134.04000606536863L103.87231399999999,133.8283022880554L103.93528599999999,130.77589955329893L104.124202,130.9790226459503L104.875368,137.7106400966644L105.014806,136.54950466156004L105.167738,134.61885061264036L105.653522,135.7461556434631L105.801956,132.8354748725891L105.88292,128.74607529640195L105.891916,132.7711197376251L105.999868,132.24600996971128L106.004366,127.47803297042846L106.01786,140.13566818237302L106.10332199999999,135.41333761215208L106.260752,131.5801629066467L106.40019,135.50667014122007L106.57561199999999,140.76163616180418L106.620592,140.05787935256956L107.020914,130.9494825839996L107.08388599999999,136.39709200859068L107.214328,135.7908174037933L107.25031200000001,134.85081043243406L107.380754,133.10091342926023L107.826056,134.42529287338255L108.865094,135.14649238586424L108.99103799999999,132.10231866836546L109.03152,132.95898046493528L109.157464,126.00841488838195L109.31489400000001,134.8448320865631L109.36887,137.59262051582334L109.65674200000001,136.58129539489744L110.26397200000001,131.55069317817686L110.506864,135.10949697494505L111.105098,136.22386064529417L111.10959600000001,135.11751499176023L111.739316,136.06251564025877L112.283574,133.84208765029905L112.31506,133.98950662612913L112.87731,136.0593506336212L113.38558400000001,137.56905879974363L113.471046,132.9876061916351L113.59699,136.83639492988584L113.695946,133.22688069343565L113.79040400000001,137.44724121093748L114.096268,140.18117394447324L114.33466200000001,138.43542661666868L114.595546,138.68982281684873L114.79345799999999,135.5566069126129L115.75603000000001,137.23694410324094L115.836994,144.81432166099546L115.93594999999999,140.13848152160642L115.962938,136.7405303955078L116.45322,139.65810384750364L116.516192,136.89146604537962L116.56567,142.62547340393064L116.81306000000001,140.06224002838132L116.862538,140.89611377716062L116.889526,137.0662447452545L117.15490799999999,131.37450780868528L117.276354,135.59479799270628L117.37980800000001,137.69523706436155L117.694668,139.86052360534666L117.793624,132.3842855930328L117.942058,135.38450088500974L118.05001,129.18544855117796L118.22993,139.3898519515991L118.310894,131.88878622055051L118.337882,136.6254648208618L118.35137599999999,137.00617995262144L118.693224,131.85143914222715L118.697722,133.21182932853696L118.90912800000001,134.88182749748228L119.04856600000001,131.34201374053953L119.170012,143.79371252059934L119.183506,125.55926527976987L119.205996,140.1386221885681L119.525354,144.5526811122894L119.574832,137.5744041442871L119.79523400000001,131.64261903762815L120.05162,135.55189456939695L120.25402999999999,129.08219900131223L120.43844800000001,132.36241188049314L120.496922,141.5406497955322L120.50142000000001,142.77894105911253L120.600376,130.55702176094053L120.67234400000001,141.7983516693115L121.171622,139.0727886199951L121.26608,142.42171730995176L121.576442,135.96911277770994L121.58993600000001,134.06701412200925L121.594434,137.10619416236875L121.810338,140.33604826927183L121.91829,138.5561892032623L122.512026,138.89421191215513L122.87186600000001,135.2121838569641L122.93034,138.41390457153318L123.21821200000001,140.94731655120847L123.510582,141.19608607292173L123.614036,136.97023954391477L123.991868,142.43880834579465L124.005362,138.38380184173582L124.02785200000001,135.0482365131378L124.329218,138.16253271102903L124.41018199999999,137.54634108543394L124.747532,140.10781612396238L124.92295399999999,141.1686560153961L125.633638,128.45813002586362L125.82255400000001,137.11913552284238L125.827052,145.14981236457822L126.119422,135.96327509880064L126.14641,137.42431249618528L126.263358,136.52319993972776L126.357816,139.27366104125974L126.384804,135.30425038337705L127.095488,142.5131508350372L128.17051,144.43283286094663L128.228984,134.4553956031799L128.38191600000002,138.8595375061035L128.489868,140.74482645988462L128.55284,136.45905580520628L128.678784,138.4718593597412L129.191556,140.6558546066284L129.348986,135.6817301750183L129.515412,134.920299911499L129.92473,145.46926703453062L130.50947,137.32007827758787L130.84682,141.09740819931028L131.25164,136.3691696166992L131.265134,136.19685258865354L131.92633999999998,143.45751848220823L131.944332,136.26430239677427L132.137746,141.32634367942808L132.18722400000001,135.28448667526243L132.232204,142.31087174415586L132.385136,139.26704969406126L132.430116,140.7236560821533L132.547064,140.8620723724365L132.749474,146.82810988426206L132.852928,140.4203077793121L133.082326,143.310591840744L133.190278,143.3496269226074L133.27574,139.5932563781738L133.487146,137.33639564514158L133.99542,141.4724263191223L134.215822,138.36903181076048L134.58016,140.87585773468015L134.629638,141.00133266448972L134.719598,135.97129311561582L135.04795199999998,141.09107818603513L135.304338,141.6138669490814L135.78562399999998,138.3115693569183L136.419842,141.28449525833128L136.595264,136.1275741100311L136.725706,139.4805821418762L137.117032,140.2446850776672L137.332936,142.07490291595457L137.34193199999999,144.43754520416257L137.512856,145.91693964004514L137.61631,137.93922390937803L137.935668,138.90433993339536L138.569886,138.28160729408262L138.857758,141.1536046504974L139.298562,139.7165509700775L139.33454600000002,144.57328882217405L140.01824200000001,133.11807479858396L140.117198,141.64629068374632L140.265632,139.38155260086057L140.598484,143.180615568161L140.77390599999998,137.56286945343015L141.16073400000002,144.80461564064024L141.48908799999998,139.51708521842954L141.601538,142.83211317062376L141.660012,141.40117850303648L141.70049400000002,139.08235397338865L142.055836,145.2249988555908L142.32121800000002,141.8305644035339L142.83399,139.60676040649412L142.90146,139.6461471557617L143.25680200000002,133.6806723117828L143.64812799999999,140.03164496421812L144.04845,149.57048263549802L144.214876,143.48115053176878L144.372306,148.48256435394285L144.70515799999998,143.7373050689697L145.26290999999998,139.71127595901487L145.35736799999998,142.27099266052244L145.39785,135.0854429244995L145.469818,140.7240780830383L145.753192,143.27788677215574L145.75769000000003,143.96272387504575L145.82066200000003,141.42874922752378L146.373916,145.03819313049314L146.423394,137.87669744491575L146.873194,141.30200829505918L147.17455999999999,135.51771249771116L148.07415999999998,129.22406163215635L148.645406,141.32472600936887L148.649904,137.65015330314634L148.780346,139.13243141174314L148.78934199999998,138.2721122741699L149.234644,138.45139231681821L149.909344,138.77851333618162L150.197216,144.24455013275144L150.224204,144.34899535179136L150.251192,139.18068017959592L150.269184,135.51954116821287L150.273682,141.2460931777954L150.790952,137.30460491180418L151.038342,140.43564047813413L151.578102,135.48845376968382L151.82999,149.56886496543882L152.270794,132.33786549568174L152.31577399999998,141.11829724311826L152.34725999999998,144.81031265258787L152.428224,140.50112094879148L152.68461000000002,148.07294216156004L152.882522,142.2608646392822L153.26935,141.51779141426084L153.67866800000002,137.87311043739317L153.68766399999998,139.85545959472654L153.8316,145.3517397880554L153.912564,139.40047230720518L155.185498,142.6883515357971L155.302446,141.2644502162933L155.50035799999998,142.7664216995239L155.74774799999997,145.39408054351804L156.026624,140.7190140724182L156.08509800000002,137.06350173950193L156.49891399999998,138.3766981601715L156.629356,138.76972165107725L156.80477800000003,142.85047020912168L158.06421799999998,140.97889628410337L158.41956000000002,146.59973707199094L158.536508,136.97685089111326L158.635464,143.63743152618406L158.720926,143.93599715232847L158.83337600000002,142.48227443695066L158.90534399999999,144.189338350296L158.95932000000002,140.42023744583128L159.15273399999998,142.22956624031065L159.45859800000002,142.4404963493347L159.73747400000002,144.32726230621336L160.67305800000003,144.69988908767698L160.704544,144.06055774688718L160.745026,142.8945693016052L160.969926,141.64713468551633L160.98342000000002,145.32283272743223L161.077878,137.72111978530882L161.21731599999998,140.89238610267637L161.302778,138.5348781585693L161.91450600000002,141.14650096893308L162.278844,145.96659507751463L162.283342,146.64355483055112L162.436274,142.3791655540466L163.05249999999998,143.88732638359068L163.07499,142.54177656173704L163.191938,140.94752755165098L163.398846,141.58193554878233L163.466316,143.33520855903623L163.835152,144.5108326911926L164.02856599999998,147.9437395572662L164.145514,146.26480903625486L164.32993199999999,143.3051761627197L164.523346,144.68314971923826L165.11708199999998,142.81516280174253L165.14856799999998,141.85032811164854L165.16656,146.06900062561033L165.625356,137.06694808006284L165.805276,145.0783535480499L166.228088,135.5044898033142L166.29106000000002,140.88464941978452L166.372024,141.03600707054136L166.56094,145.34358110427854L167.78439600000002,143.79990186691282L168.02279,152.3720058441162L168.558052,152.76446666717527L169.376688,143.07377901077268L169.54311399999997,144.15163960456846L169.965926,140.67547764778135L170.681108,142.56175127029417L170.798056,148.8222750663757L170.97797599999998,142.91799035072324L171.184884,145.08165922164915L171.477254,145.34970011711118L171.50874,144.82241001129148L171.544724,141.26789655685423L171.760628,147.8453430175781L171.80111,140.2287897109985L172.066492,139.76550307273862L172.124966,139.91890039443967L172.777176,134.32049598693845L172.831152,147.02581729888914L172.97958599999998,145.52975382804868L173.168502,144.80609264373777L173.460872,135.03831949234007L173.793724,146.25046100616453L174.00512999999998,146.6181644439697L174.29749999999999,152.66867246627805L174.427942,139.479386472702L174.486416,141.44682493209837L174.796778,142.21894588470457L174.81027200000003,147.913144493103L175.003686,141.35285940170286L175.224088,146.29659976959226L175.475976,145.74434127807615L176.06971199999998,140.23413505554197L176.105696,144.6880730628967L176.137182,146.2936457633972L176.555496,141.43254723548887L176.609472,145.09755458831785L176.699432,140.92206683158872L177.212204,140.3181132316589L177.230196,146.46933879852293L177.351642,146.1858245372772L177.360638,144.53228440284727L177.765458,140.8160039424896L178.080318,131.18981208801267L178.201764,150.24568405151365L178.23325,147.7918192386627L178.359194,146.00077714920042L178.970922,147.18280162811277L179.384738,144.1231545448303L179.416224,141.48037400245664L179.821044,144.56259813308714L179.861526,145.30581202507017L179.915502,139.08129897117612L180.00096399999998,141.1131628990173L180.07743,145.65318908691404L180.320322,140.05309667587278L180.37429799999998,138.57201423645017L180.486748,137.61350955963132L180.65317399999998,147.44183983802793L180.914058,142.8501185417175L181.12096599999998,142.3544081687927L181.20642800000002,142.22070422172544L181.23791400000002,145.6072613239288L181.444822,143.39337434768674L181.678718,143.8491353034973L181.69221199999998,146.32213082313535L181.849642,144.0006336212158L182.434382,142.1498080730438L182.66827800000002,143.69292464256284L182.672776,143.32198586463926L182.767234,144.2120560646057L183.014624,147.61668887138364L183.40595,146.31270613670347L183.410448,144.33387365341184L183.58137200000002,145.11007394790647L183.73880200000002,141.1265965938568L183.779284,145.7128318786621L183.95470600000002,144.43670120239256L184.17510800000002,148.51998176574705L184.42249800000002,145.3680571556091L184.566434,144.32965364456174L184.993744,141.25326719284055L185.67744,145.06379451751707L185.897842,149.6690198421478L186.05977,144.36242904663084L186.33864599999998,140.60303416252134L186.684992,145.03847446441648L186.698486,147.34344329833982L187.040334,143.27190842628477L187.134792,135.6419214248657L187.17077600000002,149.0180131435394L187.22925,144.80482664108274L187.23824599999998,144.93234124183653L187.26523400000002,149.60874404907224L187.70603799999998,141.46525230407713L187.715034,148.2070681095123L188.10636000000002,144.3866940975189L188.119854,145.3077110290527L188.2413,144.1046568393707L189.010458,151.61184158325193L189.041944,144.66880168914793L189.338812,143.6515685558319L189.361302,141.6217442989349L189.829094,142.705864572525L189.90556,143.00105419158933L190.20692599999998,148.08785285949705L190.296886,150.45555915832517L190.778172,146.31404247283933L191.012068,143.20424761772153L191.07953799999999,142.65009012222288L191.147008,145.4344519615173L191.218976,144.04424037933347L191.27745,148.64130702018736L191.43488,147.50267829895017L191.520342,145.32585706710813L191.551828,146.71789731979368L192.599862,151.8242486953735L192.869742,151.86630811691282L193.004682,148.62273898124693L193.090144,148.8807925224304L193.490466,141.05513777732847L193.665888,137.81184997558591L193.68388000000002,140.34125294685361L193.724362,144.46145858764646L193.75135,145.3437217712402L193.8638,145.92777099609373L194.12018600000002,142.18989815711973L194.776894,144.38500609397886L195.298662,145.15972938537595L195.447096,143.82156457901L195.93737800000002,151.57723751068113L195.964366,148.878401184082L196.00484799999998,139.47446312904356L196.58509,145.37171449661253L196.738022,137.20241036415098L197.88951,143.4508368015289L197.97497199999998,147.28126850128172L198.168386,144.44134321212766L198.478748,144.28604688644407L199.445818,147.28816118240354L199.900116,141.48986902236936L200.14750600000002,150.01808490753172L200.214976,147.21473302841184L200.525338,141.9023748874664L200.67827,141.59079756736753L201.011122,146.09038200378416L201.08309,146.96111049652097L201.132568,140.0422653198242L201.28549999999998,143.94844617843626L201.64534,146.81748952865598L201.919718,145.1966544628143L201.924216,144.51983537673948L202.18509999999998,142.91482534408567L202.27506000000002,142.96040143966673L202.468474,146.71093430519102L202.49096400000002,142.8070744514465L202.81482,147.74019446372984L203.449038,148.3826908111572L203.552492,151.45591225624082L203.55698999999998,148.9405759811401L204.168718,139.2369469642639L204.600526,145.99367346763609L204.86590800000002,150.06605234146116L204.915386,144.65192165374754L206.192818,143.35131492614744L206.37723599999998,146.68188657760618L206.692096,150.73752608299253L206.81804,147.6208385467529L207.047438,145.32845940589903L207.483744,147.44402017593382L207.62318199999999,147.23590340614317L207.645672,143.50661125183103L207.722138,142.68518652915952L207.951536,147.8268453121185L208.12246,146.25074234008787L209.040052,147.30243887901304L209.36390799999998,146.39942731857298L209.836198,145.90090360641477L210.22752400000002,139.96799316406248L210.2815,139.35433354377744L210.425436,146.4405020713806L210.55138,150.563028717041L210.94270600000002,139.8004588127136L210.987686,139.61822476387022L211.014674,145.7337912559509L211.032666,142.31783475875852L211.172104,152.01808776855466L211.1811,145.49029674530027L211.244072,151.23907413482664L211.27105999999998,148.7425872325897L211.599414,149.50795617103574L212.71042,145.14123167991636L213.106244,150.2019366264343L213.223192,142.56006326675413L213.628012,145.19637312889097L213.749458,144.060206079483L214.06431800000001,144.83823504447935L214.370182,147.55275573730466L214.44215,139.99753322601316L214.739018,147.62308921813963L214.95492199999998,145.85096683502195L215.02689,141.85293045043943L215.157332,140.81691827774046L215.269782,145.37262883186338L215.355244,147.43185248374937L216.002956,145.63532438278196L216.03894000000003,140.7783755302429L216.326812,140.7023450374603L216.44825799999998,146.98024120330808L217.055488,142.06786956787107L217.086974,145.9082182884216L217.167938,150.95598187446592L217.631232,147.22401704788206L217.739184,144.18265666961668L217.784164,148.99831976890562L217.847136,147.7065047264099L218.126012,147.31418457031248L218.553322,146.515336894989L218.85019,145.4754563808441L218.90866400000002,151.47018995285032L219.0526,142.208958530426L219.13356399999998,146.29167642593382L219.178544,147.1778079509735L219.273002,149.52525820732114L219.763284,147.9358622074127L220.078144,140.0778540611267L220.518948,144.6818133831024L221.045214,144.75601520538328L221.216138,147.2221180438995L221.364572,142.7841457366943L221.441038,146.6149291038513L221.61646000000002,147.0858820915222L222.704976,142.42994632720945L222.77694400000001,148.26122488975523L223.424656,147.062531375885L223.658552,147.0365783214569L223.856464,144.78555526733396L224.013894,148.65136470794675L224.14883400000002,145.61717834472654L224.256786,144.743777179718L224.36473800000002,146.3258584976196L224.400722,148.15016832351682L224.4502,140.90286579132078L224.454698,142.1842011451721L224.72457799999998,151.32298197746275L224.846024,148.48094668388364L224.86401600000002,149.41799964904783L224.931486,144.09495081901548L225.04843400000001,147.36102666854856L225.09791199999998,148.53186812400816L225.14739,152.17781510353086L225.295824,150.1552351951599L225.678154,154.992561006546L225.916548,148.6538967132568L225.93454,143.75946011543272L225.99301400000002,142.8112944602966L226.352854,148.17401137351987L226.37084599999997,148.94163098335264L226.49229200000002,146.91440906524656L226.532774,146.51948657035825L226.9241,151.24892082214353L226.955586,147.66964998245237L227.15349799999998,146.93909611701963L227.391892,146.7617854118347L227.54932200000002,145.14566268920896L227.56731399999998,143.82634725570676L227.841692,144.99852504730222L228.277998,147.4717315673828L228.448922,144.91989221572874L228.65582999999998,145.66022243499754L228.660328,149.51857652664182L228.673822,145.58320727348325L228.92571,144.36017837524412L229.303542,149.83465518951414L229.411494,146.42516937255857L229.631896,149.68203153610227L229.694868,146.8366202354431L230.36057200000002,151.6930767536163L230.495512,150.96786823272703L230.760894,143.30489482879636L230.99029199999998,149.3702432155609L231.91688000000002,143.61935582160947L231.957362,148.97159304618833L232.047322,143.24961271286008L232.18676,146.5426966190338L232.19575600000002,145.3145333766937L232.80298599999998,148.16894736289976L232.964914,141.55274715423582L233.162826,145.76044764518736L233.42820799999998,148.29252328872678L233.48218400000002,147.91680183410642L233.990458,139.69376292228696L234.156884,149.31510176658628L234.296322,153.76854743957517L234.45375199999998,149.30673208236692L235.128452,148.39084949493406L235.168934,144.4434532165527L235.29038,148.71227350234983L235.42532,146.88093032836912L235.578252,147.0728000640869L235.780662,149.4163116455078L235.81664600000002,146.7935761451721L235.94259,146.6754862308502L236.450864,147.18983497619627L236.522832,143.9028700828552L236.626286,146.84210624694822L236.801708,147.63940658569334L236.878174,147.82135930061338L237.26500199999998,144.10036649703977L237.305484,152.13287200927732L237.458416,148.43220558166502L237.97568600000002,148.95084466934202L238.151108,139.32500448226926L238.385004,137.55759444236753L239.680428,147.10276212692258L239.774886,147.35068764686582L240.409104,146.35518755912778L240.60251799999998,150.26038374900816L240.840912,149.49234213829038L240.872398,149.20038785934446L240.962358,146.6064890861511L241.079306,147.9183491706848L241.484126,143.85954465866087L241.71802200000002,146.1061367034912L241.987902,149.21565022468565L242.019388,145.83127346038816L242.14983,139.48416914939878L242.38822399999998,146.49529185295103L242.406216,151.30968894958494L242.46469000000002,150.51006760597227L242.52766200000002,147.57948246002195L242.635614,149.74336233139036L242.68959,151.13610591888425L242.833526,142.5215908527374L242.865012,140.2987715244293L242.927984,150.38895335197446L243.436258,146.2079795837402L243.485736,156.19171168804166L243.512724,144.3247303009033L243.69714199999999,150.10543909072874L243.715134,150.05416598320005L243.778106,145.35370912551878L243.88155999999998,147.30300154685972L244.358348,153.49347319602964L244.551762,144.52264871597288L244.74967400000003,150.27227010726926L244.830638,144.94647827148435L244.90260600000002,145.58707561492918L245.037546,148.34801640510557L245.347908,145.2446922302246L245.910158,145.7885107040405L246.10357199999999,149.814258480072L246.112568,148.43290891647337L246.278994,152.01759543418882L246.283492,144.01301231384275L246.328472,151.3162299633026L246.36445600000002,147.47384157180784L246.47690599999999,131.7046531677246L246.85023999999999,154.38034322261808L246.87273000000002,140.8646747112274L246.94019999999998,144.31621994972227L247.81281199999998,133.22526302337644L248.433536,149.80068411827085L249.387112,148.3782598018646L249.737956,147.307573223114L249.980848,140.7095893859863L250.09329799999998,145.56084122657774L250.660046,148.22204914093015L251.02438400000003,150.43481078147886L251.24478599999998,150.20664896965025L251.298762,148.95970668792722L251.384224,146.80820550918577L251.64960599999998,147.81411495208738L252.17137400000001,149.3018790721893L252.526716,149.5664032936096L252.715632,146.8885263442993L253.039488,145.33155407905576L253.264388,147.66015496253965L253.30936799999998,146.1970778942108" style="fill: none;" fill="none"></path></g></g></g></g></g></g><g transform="translate(48, 177)" clip-path="url(#clip_1)"><clipPath id="clip_1"><rect width="281" height="23"></rect></clipPath><g><g><line x1="0" y1="0" x2="0" y2="5" style="visibility: inherit;" fill="rgb(0, 0, 0)" stroke="rgb(204, 204, 204)" stroke-width="1px"></line><line x1="28.1125" y1="0" x2="28.1125" y2="5" style="visibility: inherit;" fill="rgb(0, 0, 0)" stroke="rgb(204, 204, 204)" stroke-width="1px"></line><line x1="56.225" y1="0" x2="56.225" y2="5" style="visibility: inherit;" fill="rgb(0, 0, 0)" stroke="rgb(204, 204, 204)" stroke-width="1px"></line><line x1="84.33749999999999" y1="0" x2="84.33749999999999" y2="5" style="visibility: inherit;" fill="rgb(0, 0, 0)" stroke="rgb(204, 204, 204)" stroke-width="1px"></line><line x1="112.45" y1="0" x2="112.45" y2="5" style="visibility: inherit;" fill="rgb(0, 0, 0)" stroke="rgb(204, 204, 204)" stroke-width="1px"></line><line x1="140.5625" y1="0" x2="140.5625" y2="5" style="visibility: inherit;" fill="rgb(0, 0, 0)" stroke="rgb(204, 204, 204)" stroke-width="1px"></line><line x1="168.67499999999998" y1="0" x2="168.67499999999998" y2="5" style="visibility: inherit;" fill="rgb(0, 0, 0)" stroke="rgb(204, 204, 204)" stroke-width="1px"></line><line x1="196.7875" y1="0" x2="196.7875" y2="5" style="visibility: inherit;" fill="rgb(0, 0, 0)" stroke="rgb(204, 204, 204)" stroke-width="1px"></line><line x1="224.9" y1="0" x2="224.9" y2="5" style="visibility: inherit;" fill="rgb(0, 0, 0)" stroke="rgb(204, 204, 204)" stroke-width="1px"></line><line x1="253.01250000000002" y1="0" x2="253.01250000000002" y2="5" style="visibility: inherit;" fill="rgb(0, 0, 0)" stroke="rgb(204, 204, 204)" stroke-width="1px"></line><line x1="281.125" y1="0" x2="281.125" y2="5" style="visibility: inherit;" fill="rgb(0, 0, 0)" stroke="rgb(204, 204, 204)" stroke-width="1px"></line></g><g transform="translate(0, 8)"><text x="0" y="0" dx="0em" dy="0.95em" style="text-anchor: middle; visibility: hidden; font-family: &quot;Helvetica Neue&quot;, sans-serif; font-size: 12px; font-weight: 200;" fill="rgb(50, 49, 63)" stroke="none" stroke-width="1px">-50k</text><text x="28.1125" y="0" dx="0em" dy="0.95em" style="text-anchor: middle; visibility: inherit; font-family: &quot;Helvetica Neue&quot;, sans-serif; font-size: 12px; font-weight: 200;" fill="rgb(50, 49, 63)" stroke="none" stroke-width="1px">0</text><text x="56.225" y="0" dx="0em" dy="0.95em" style="text-anchor: middle; visibility: hidden; font-family: &quot;Helvetica Neue&quot;, sans-serif; font-size: 12px; font-weight: 200;" fill="rgb(50, 49, 63)" stroke="none" stroke-width="1px">50k</text><text x="84.33749999999999" y="0" dx="0em" dy="0.95em" style="text-anchor: middle; visibility: inherit; font-family: &quot;Helvetica Neue&quot;, sans-serif; font-size: 12px; font-weight: 200;" fill="rgb(50, 49, 63)" stroke="none" stroke-width="1px">100k</text><text x="112.45" y="0" dx="0em" dy="0.95em" style="text-anchor: middle; visibility: hidden; font-family: &quot;Helvetica Neue&quot;, sans-serif; font-size: 12px; font-weight: 200;" fill="rgb(50, 49, 63)" stroke="none" stroke-width="1px">150k</text><text x="140.5625" y="0" dx="0em" dy="0.95em" style="text-anchor: middle; visibility: inherit; font-family: &quot;Helvetica Neue&quot;, sans-serif; font-size: 12px; font-weight: 200;" fill="rgb(50, 49, 63)" stroke="none" stroke-width="1px">200k</text><text x="168.67499999999998" y="0" dx="0em" dy="0.95em" style="text-anchor: middle; visibility: hidden; font-family: &quot;Helvetica Neue&quot;, sans-serif; font-size: 12px; font-weight: 200;" fill="rgb(50, 49, 63)" stroke="none" stroke-width="1px">250k</text><text x="196.7875" y="0" dx="0em" dy="0.95em" style="text-anchor: middle; visibility: inherit; font-family: &quot;Helvetica Neue&quot;, sans-serif; font-size: 12px; font-weight: 200;" fill="rgb(50, 49, 63)" stroke="none" stroke-width="1px">300k</text><text x="224.9" y="0" dx="0em" dy="0.95em" style="text-anchor: middle; visibility: hidden; font-family: &quot;Helvetica Neue&quot;, sans-serif; font-size: 12px; font-weight: 200;" fill="rgb(50, 49, 63)" stroke="none" stroke-width="1px">350k</text><text x="253.01250000000002" y="0" dx="0em" dy="0.95em" style="text-anchor: middle; visibility: inherit; font-family: &quot;Helvetica Neue&quot;, sans-serif; font-size: 12px; font-weight: 200;" fill="rgb(50, 49, 63)" stroke="none" stroke-width="1px">400k</text><text x="281.125" y="0" dx="0em" dy="0.95em" style="text-anchor: middle; visibility: hidden; font-family: &quot;Helvetica Neue&quot;, sans-serif; font-size: 12px; font-weight: 200;" fill="rgb(50, 49, 63)" stroke="none" stroke-width="1px">450k</text></g><line x1="0" y1="0" x2="281.125" y2="0" fill="rgb(0, 0, 0)" stroke="rgb(204, 204, 204)" stroke-width="1px"></line></g></g></g></g></svg>