<svg viewBox="0 0 330 200" xmlns="http://www.w3.org/2000/svg"><g><g><g><g><g><line x1="58.59375" y1="177" x2="53.59375" y2="177" style="visibility: inherit;" fill="rgb(0, 0, 0)" stroke="rgb(204, 204, 204)" stroke-width="1px"></line><line x1="58.59375" y1="159.3" x2="53.59375" y2="159.3" style="visibility: inherit;" fill="rgb(0, 0, 0)" stroke="rgb(204, 204, 204)" stroke-width="1px"></line><line x1="58.59375" y1="141.6" x2="53.59375" y2="141.6" style="visibility: inherit;" fill="rgb(0, 0, 0)" stroke="rgb(204, 204, 204)" stroke-width="1px"></line><line x1="58.59375" y1="123.9" x2="53.59375" y2="123.9" style="visibility: inherit;" fill="rgb(0, 0, 0)" stroke="rgb(204, 204, 204)" stroke-width="1px"></line><line x1="58.59375" y1="106.2" x2="53.59375" y2="106.2" style="visibility: inherit;" fill="rgb(0, 0, 0)" stroke="rgb(204, 204, 204)" stroke-width="1px"></line><line x1="58.59375" y1="88.49999999999999" x2="53.59375" y2="88.49999999999999" style="visibility: inherit;" fill="rgb(0, 0, 0)" stroke="rgb(204, 204, 204)" stroke-width="1px"></line><line x1="58.59375" y1="70.79999999999998" x2="53.59375" y2="70.79999999999998" style="visibility: inherit;" fill="rgb(0, 0, 0)" stroke="rgb(204, 204, 204)" stroke-width="1px"></line><line x1="58.59375" y1="53.10000000000001" x2="53.59375" y2="53.10000000000001" style="visibility: inherit;" fill="rgb(0, 0, 0)" stroke="rgb(204, 204, 204)" stroke-width="1px"></line><line x1="58.59375" y1="35.400000000000006" x2="53.59375" y2="35.400000000000006" style="visibility: inherit;" fill="rgb(0, 0, 0)" stroke="rgb(204, 204, 204)" stroke-width="1px"></line><line x1="58.59375" y1="17.69999999999999" x2="53.59375" y2="17.69999999999999" style="visibility: inherit;" fill="rgb(0, 0, 0)" stroke="rgb(204, 204, 204)" stroke-width="1px"></line><line x1="58.59375" y1="0" x2="53.59375" y2="0" style="visibility: inherit;" fill="rgb(0, 0, 0)" stroke="rgb(204, 204, 204)" stroke-width="1px"></line></g><g transform="translate(48.59375, 0)"><text x="0" y="177" dx="0em" dy="0.3em" style="text-anchor: end; visibility: hidden; font-family: &quot;Helvetica Neue&quot;, sans-serif; font-size: 12px; font-weight: 200;" fill="rgb(50, 49, 63)" stroke="none" stroke-width="1px">-0.01</text><text x="0" y="159.3" dx="0em" dy="0.3em" style="text-anchor: end; visibility: inherit; font-family: &quot;Helvetica Neue&quot;, sans-serif; font-size: 12px; font-weight: 200;" fill="rgb(50, 49, 63)" stroke="none" stroke-width="1px">0</text><text x="0" y="141.6" dx="0em" dy="0.3em" style="text-anchor: end; visibility: hidden; font-family: &quot;Helvetica Neue&quot;, sans-serif; font-size: 12px; font-weight: 200;" fill="rgb(50, 49, 63)" stroke="none" stroke-width="1px">0.01</text><text x="0" y="123.9" dx="0em" dy="0.3em" style="text-anchor: end; visibility: inherit; font-family: &quot;Helvetica Neue&quot;, sans-serif; font-size: 12px; font-weight: 200;" fill="rgb(50, 49, 63)" stroke="none" stroke-width="1px">0.02</text><text x="0" y="106.2" dx="0em" dy="0.3em" style="text-anchor: end; visibility: hidden; font-family: &quot;Helvetica Neue&quot;, sans-serif; font-size: 12px; font-weight: 200;" fill="rgb(50, 49, 63)" stroke="none" stroke-width="1px">0.03</text><text x="0" y="88.49999999999999" dx="0em" dy="0.3em" style="text-anchor: end; visibility: inherit; font-family: &quot;Helvetica Neue&quot;, sans-serif; font-size: 12px; font-weight: 200;" fill="rgb(50, 49, 63)" stroke="none" stroke-width="1px">0.04</text><text x="0" y="70.79999999999998" dx="0em" dy="0.3em" style="text-anchor: end; visibility: hidden; font-family: &quot;Helvetica Neue&quot;, sans-serif; font-size: 12px; font-weight: 200;" fill="rgb(50, 49, 63)" stroke="none" stroke-width="1px">0.05</text><text x="0" y="53.10000000000001" dx="0em" dy="0.3em" style="text-anchor: end; visibility: inherit; font-family: &quot;Helvetica Neue&quot;, sans-serif; font-size: 12px; font-weight: 200;" fill="rgb(50, 49, 63)" stroke="none" stroke-width="1px">0.06</text><text x="0" y="35.400000000000006" dx="0em" dy="0.3em" style="text-anchor: end; visibility: hidden; font-family: &quot;Helvetica Neue&quot;, sans-serif; font-size: 12px; font-weight: 200;" fill="rgb(50, 49, 63)" stroke="none" stroke-width="1px">0.07</text><text x="0" y="17.69999999999999" dx="0em" dy="0.3em" style="text-anchor: end; visibility: inherit; font-family: &quot;Helvetica Neue&quot;, sans-serif; font-size: 12px; font-weight: 200;" fill="rgb(50, 49, 63)" stroke="none" stroke-width="1px">0.08</text><text x="0" y="0" dx="0em" dy="0.3em" style="text-anchor: end; visibility: hidden; font-family: &quot;Helvetica Neue&quot;, sans-serif; font-size: 12px; font-weight: 200;" fill="rgb(50, 49, 63)" stroke="none" stroke-width="1px">0.09</text></g><line x1="58.59375" y1="0" x2="58.59375" y2="177" fill="rgb(0, 0, 0)" stroke="rgb(204, 204, 204)" stroke-width="1px"></line></g></g><g transform="translate(58, 0)" clip-path="url(#clip_0)"><clipPath id="clip_0"><rect width="271" height="177"></rect></clipPath><g><g><g><line x1="0" y1="0" x2="0" y2="177" fill="rgb(0, 0, 0)" stroke="rgb(60, 60, 60)" stroke-width="1px" opacity="0.25"></line><line x1="27.140625" y1="0" x2="27.140625" y2="177" fill="rgb(0, 0, 0)" stroke="rgb(60, 60, 60)" stroke-width="1px" opacity="0.25"></line><line x1="54.28125" y1="0" x2="54.28125" y2="177" fill="rgb(0, 0, 0)" stroke="rgb(60, 60, 60)" stroke-width="1px" opacity="0.25"></line><line x1="81.421875" y1="0" x2="81.421875" y2="177" fill="rgb(0, 0, 0)" stroke="rgb(60, 60, 60)" stroke-width="1px" opacity="0.25"></line><line x1="108.5625" y1="0" x2="108.5625" y2="177" fill="rgb(0, 0, 0)" stroke="rgb(60, 60, 60)" stroke-width="1px" opacity="0.25"></line><line x1="135.703125" y1="0" x2="135.703125" y2="177" fill="rgb(0, 0, 0)" stroke="rgb(60, 60, 60)" stroke-width="1px" opacity="0.25"></line><line x1="162.84375" y1="0" x2="162.84375" y2="177" fill="rgb(0, 0, 0)" stroke="rgb(60, 60, 60)" stroke-width="1px" opacity="0.25"></line><line x1="189.984375" y1="0" x2="189.984375" y2="177" fill="rgb(0, 0, 0)" stroke="rgb(60, 60, 60)" stroke-width="1px" opacity="0.25"></line><line x1="217.125" y1="0" x2="217.125" y2="177" fill="rgb(0, 0, 0)" stroke="rgb(60, 60, 60)" stroke-width="1px" opacity="0.25"></line><line x1="244.265625" y1="0" x2="244.265625" y2="177" fill="rgb(0, 0, 0)" stroke="rgb(60, 60, 60)" stroke-width="1px" opacity="0.25"></line><line x1="271.40625" y1="0" x2="271.40625" y2="177" fill="rgb(0, 0, 0)" stroke="rgb(60, 60, 60)" stroke-width="1px" opacity="0.25"></line></g><g><line x1="0" y1="177" x2="271.40625" y2="177" fill="rgb(0, 0, 0)" stroke="rgb(60, 60, 60)" stroke-width="1px" opacity="0.25"></line><line x1="0" y1="159.3" x2="271.40625" y2="159.3" fill="rgb(0, 0, 0)" stroke="rgb(60, 60, 60)" stroke-width="1px" opacity="0.25"></line><line x1="0" y1="141.6" x2="271.40625" y2="141.6" fill="rgb(0, 0, 0)" stroke="rgb(60, 60, 60)" stroke-width="1px" opacity="0.25"></line><line x1="0" y1="123.9" x2="271.40625" y2="123.9" fill="rgb(0, 0, 0)" stroke="rgb(60, 60, 60)" stroke-width="1px" opacity="0.25"></line><line x1="0" y1="106.2" x2="271.40625" y2="106.2" fill="rgb(0, 0, 0)" stroke="rgb(60, 60, 60)" stroke-width="1px" opacity="0.25"></line><line x1="0" y1="88.49999999999999" x2="271.40625" y2="88.49999999999999" fill="rgb(0, 0, 0)" stroke="rgb(60, 60, 60)" stroke-width="1px" opacity="0.25"></line><line x1="0" y1="70.79999999999998" x2="271.40625" y2="70.79999999999998" fill="rgb(0, 0, 0)" stroke="rgb(60, 60, 60)" stroke-width="1px" opacity="0.25"></line><line x1="0" y1="53.10000000000001" x2="271.40625" y2="53.10000000000001" fill="rgb(0, 0, 0)" stroke="rgb(60, 60, 60)" stroke-width="1px" opacity="0.25"></line><line x1="0" y1="35.400000000000006" x2="271.40625" y2="35.400000000000006" fill="rgb(0, 0, 0)" stroke="rgb(60, 60, 60)" stroke-width="1px" opacity="0.25"></line><line x1="0" y1="17.69999999999999" x2="271.40625" y2="17.69999999999999" fill="rgb(0, 0, 0)" stroke="rgb(60, 60, 60)" stroke-width="1px" opacity="0.25"></line><line x1="0" y1="0" x2="271.40625" y2="0" fill="rgb(0, 0, 0)" stroke="rgb(60, 60, 60)" stroke-width="1px" opacity="0.25"></line></g></g></g><g><g><line x1="0" y1="159.3" x2="271.40625" y2="159.3" fill="rgb(0, 0, 0)" stroke="rgb(153, 153, 153)" stroke-width="1.5px"></line></g></g><g><g><line x1="27.140625" y1="0" x2="27.140625" y2="177" fill="rgb(0, 0, 0)" stroke="rgb(153, 153, 153)" stroke-width="1.5px"></line></g></g><g><g><g><g><g><path stroke="rgb(255, 112, 67)" stroke-width="2px" d="M31.934745000000003,-5.227464153846398L32.264775,3.501700326902295L32.6165175,6.9939126636150775L32.855354999999996,11.387599197161052L32.8683825,15.629487412553203L32.9291775,19.527992914186314L32.9465475,22.74070129080107L33.154987500000004,19.371059892490024L33.185385000000004,17.813961353151427L33.376455,18.122811347349L33.50673,18.081290591924386L33.7542525,18.615782512645524L33.880185,19.05330860972964L33.949665,22.949294089526575L34.019145,29.1155464316831L34.4837925,32.86556869127307L34.670519999999996,32.09517401197269L34.683547499999996,32.331306469089895L35.148195,34.152997841692866L35.24373,30.51374221570478L35.291497500000006,29.940607517515957L35.4651975,32.06834895705231L35.53902,35.89222281276085L35.5954725,36.84537556349852L35.981955,40.1681749330794L36.242504999999994,40.83148093979639L36.6376725,38.27631290054805L36.6897825,39.35777658520078L36.828742500000004,39.43538692294322L36.8547975,41.592057775847934L36.96336,39.606981535787924L37.158772500000005,41.2739895355914L37.514857500000005,47.72114174617633L37.718954999999994,48.88639871629064L37.7927775,50.3105082187175L37.8014625,51.68513484854219L37.823175000000006,52.13698864435386L37.9317375,51.675093297095486L37.936080000000004,48.94015435929978L37.98819,48.72259998176028L38.0099025,49.28851124080141L38.135835,50.78104353923868L38.2009725,52.27123074042363L38.8002375,50.646456703588726L39.039075,55.204147846725775L40.0248225,53.375783013240834L40.33314,52.30733093555945L40.3461675,52.068476644970076L40.598032499999995,55.979466360698396L40.8672675,59.231246813470264L41.166900000000005,61.24205722292312L41.227695000000004,59.68749717819719L41.23638,59.69020787565725L41.240722500000004,59.74305465155135L41.4925875,62.61941793282803L42.252525000000006,63.57118605327594L42.85179,67.5350285408019L42.860475,68.24074935061446L43.0776,69.63309850598996L43.3859175,69.62666107121483L43.6117275,71.32099874677286L43.70292,72.05404313243642L43.7333175,72.65450967572458L44.197964999999996,72.37836742950873L44.319555,72.02249155791637L44.441145,71.41666346223376L44.666955,72.48872130293383L44.936189999999996,72.03508339451987L45.361755,77.90959146515871L45.4963725,79.49120378253663L45.518085,79.55468935345294L45.8871975,79.43721798226048L45.8958825,79.76778106310849L46.247625,82.66711183857252L46.647135,83.96339046163159L46.7209575,87.54330153705355L46.812149999999995,85.13260999704407L47.394045,84.79453292241696L47.411415000000005,86.81469766468406L47.446155,86.64775036794305L47.932514999999995,86.42762296332336L47.993309999999994,87.14026569207559L48.158325,87.418296853185L48.210435000000004,85.63344585685748L48.39282,88.10094410472404L48.7271925,90.66533122654731L49.070249999999994,91.04870706436618L49.078935,91.64558057390202L49.31343,93.10525358976453L49.43502,91.71293188012557L49.8909825,90.08893261299679L50.3512875,91.7378910043606L50.4120825,94.47853278689198L50.676975,96.49817950590021L51.2371575,99.46825532474259L51.8016825,99.82650675510251L51.992752499999995,102.1057342862182L52.361864999999995,101.41256531447726L52.448715,103.6155671362314L52.605045,105.4966288584014L52.635442499999996,105.91458079502225L52.7917725,105.55216357103131L52.882965,105.06043112391913L53.15219999999999,108.54985998609475L53.23905,105.6680226876665L53.721067500000004,106.4365984841781L53.764492499999996,108.04878038851005L54.064125,105.924875023291L54.1205775,107.8992502297911L54.146632499999996,108.02589539742188L54.203085,109.63306787166427L54.4506075,108.62599158438103L54.550485,109.56204244853292L54.828405000000004,110.53151835984727L55.453725,111.39994163922512L55.68822,112.69132525361802L55.8141525,109.88124339781538L56.0486475,111.23778110267124L56.218005,112.81921387893797L56.231032500000005,114.19520305921338L56.283142500000004,112.32140065002265L56.41776,113.25034077297343L56.90412,113.21340495664293L57.390480000000004,114.36992490749607L57.503385,114.64857481963067L57.99843,114.77226306943076L58.03317,116.04659774242626L58.2112125,116.98524357997647L58.6107225,117.02040247513813L58.8886425,117.16612126734233L59.0970825,116.87323083881364L59.19696,116.55201837035314L59.49225,112.32934332527098L59.535675,114.53880801401958L59.5487025,116.4405905667092L59.61384,117.21360675145061L59.7571425,117.62925561129376L60.5474775,119.12338928764655L60.838425,119.47444785586353L60.960015,118.50756205857608L61.00344,116.21293725336082L61.1554275,117.50485640445046L61.8415425,118.5935426838916L62.16723,118.46886703269014L62.662275,118.96959436146216L62.8403175,120.91803784613488L63.33102,121.28003911313223L63.4569525,122.82828868977313L63.47866500000001,123.11716595591358L63.5177475,123.55902202875167L63.9085725,121.29781286806315L63.921600000000005,119.85848861092597L64.04319000000001,119.47398770513695L64.086615,121.1268393180523L64.4904675,119.78703100244722L64.6381125,119.9714008731277L64.8986625,118.20538881615587L65.69334,120.83714728591315L65.806245,122.5215206011383L65.8192725,124.18989099468281L65.910465,124.52302957389051L65.94086250000001,123.45591968305882L66.1927275,124.14515698676095L66.2187825,123.15131454869976L66.4619625,123.00621506962102L67.352175,123.84553304369999L67.595355,124.64214673641774L67.73431500000001,124.50002025785119L68.11211250000001,125.72877600146575L68.255415,123.95646930964733L68.5984725,125.26145844269958L68.62886999999999,125.505666248853L68.68532250000001,125.63521726569832L68.9458725,124.81296768838942L69.0761475,124.84041450920569L69.176025,124.52374982805767L69.25419000000001,123.6679589043362L69.8838525,125.70250063748975L70.16177250000001,122.50427242256293L70.81748999999999,125.50338392011577L70.930395,126.63954982758912L71.764155,127.39692599953025L71.7945525,126.99747774947173L72.285255,127.4540799283891L72.2982825,126.34269936793501L72.389475,126.96221940436038L72.6456825,125.12366222839398L72.83241,122.5109278944185L73.2015225,123.43554539573495L73.33614,126.32169539208593L73.40562,127.92918129816877L73.47944249999999,128.884829285772L73.6531425,128.3491100773402L73.85289750000001,125.97589969934154L73.85723999999999,128.3145373195477L73.952775,126.79170290530132L74.1047625,127.55259935617688L74.21766749999999,127.98942187285569L74.25675,128.4077084604272L74.48256,128.8543714546185L74.4955875,129.70497971671946L74.6432325,130.82500275878982L74.6606025,130.81946251308247L74.76048,130.5596673277934L74.786535,128.71136753606316L74.79522,129.9418438578994L74.994975,128.31295063348716L75.35106,128.10483263702454L75.43356750000001,124.77415167225159L75.47265,126.73459537704443L75.76794000000001,128.13689978021176L75.776625,130.28055671258446L76.037175,129.58988574805068L76.7276325,128.543999726249L76.957785,130.1280257324417L77.044635,130.31216157913443L77.1792525,129.51718875700377L77.218335,130.97661414971435L77.2921575,132.19451671871832L77.36598,132.8004501796263L77.722065,132.11621173062906L77.82194249999999,132.35456293770068L77.8827375,131.2825836607718L78.2040825,132.41699635692856L78.6991275,131.56326919739496L79.1160075,132.98022511315378L79.13772,132.06532391406316L79.29405,131.61281830935013L79.4286675,130.97827286015945L79.84989,132.0932927806139L79.962795,132.28241323897004L79.980165,130.41190571885562L80.049645,131.8008625358418L80.23203,130.69596282363386L80.50995,132.84417200115593L80.5229775,132.47678293721242L80.5924575,130.7260397770188L81.0093375,131.7693084124137L81.23948999999999,133.5668073505705L82.1644425,134.01413581478866L82.2860325,133.54975077529713L82.7463375,130.7847610903976L83.0589975,132.3860900700508L83.3282325,133.8212329370033L83.66694749999999,132.9309595967681L83.74077,133.54413093941514L83.85801749999999,133.6361704477197L83.94921,132.7191720294074L84.00132,132.98442177293396L84.0664575,132.7006526776713L84.31398,134.20823311111698L84.6309825,135.01148665250165L85.10865749999999,135.54001910314454L85.33881,133.44564946309026L85.35618,133.983790189864L85.781745,135.51782771592843L85.96413000000001,136.09461293277445L86.1855975,136.0452751680154L86.28547499999999,136.6472027679645L86.5416825,136.31867800655144L86.55470999999999,136.5873176139723L86.96290499999999,135.80911685837094L87.11055,136.11093431718817L87.2625375,135.40755313758655L87.431895,135.51741500466824L87.831405,136.09882730600094L87.92693999999999,136.80336274836574L88.28302500000001,136.45039297764964L88.8953175,136.20749514371437L89.1819225,137.39236479637194L89.21232,138.03740631542902L89.2514025,136.37089183898152L89.325225,136.312221180179L89.40338999999999,137.071381382065L89.65959749999999,136.68479649658022L89.8767225,136.6983511739076L90.08081999999999,137.47329651344424L90.35439749999999,136.3046488380647L90.680085,133.3986196807752L90.70614,136.01242111842214L90.836415,136.72538794976697L90.87549750000001,136.99176853509084L90.91892250000001,137.47587093821963L91.3184325,137.7338554557371L91.357515,138.5688021364038L91.374885,134.870017996563L91.44870750000001,135.86967003830284L91.72662749999999,135.66521461420064L91.809135,137.67021773122434L92.39537250000001,138.1782856877904L92.66895000000001,137.86401226021414L92.86870499999999,136.6018766334508L93.059775,136.8879317829522L93.43323,138.50637512561752L93.685095,137.5384683898513L94.3321275,137.9341282367065L94.3408125,138.4827873819682L94.4797725,138.75147915161327L94.61438999999999,137.2383859208326L94.87059749999999,138.23229543319945L95.491575,138.24669994206192L95.595795,138.7382059506533L95.6348775,139.73278042939052L95.873715,139.0360930634543L96.5294325,137.68559583830861L96.5902275,138.8642687775673L97.0331625,139.7777742675234L97.12435500000001,139.83405794881517L97.7019075,139.98027161215384L98.0145675,140.2135795654633L98.1101025,140.71413178424706L98.183925,141.02277587357563L98.38368,139.89771551685573L98.531325,140.14607262684132L98.8135875,141.05173645778433L99.1609875,138.79308778309186L99.4910175,139.39794037320232L99.6473475,139.1162449160398L100.12936499999999,139.85911089162119L100.1337075,138.8420428748732L100.2813525,136.36266783242257L100.3421475,138.99851170146363L100.52453249999999,138.38949055396853L101.24973,139.43949191196762L101.3843475,140.30917340441943L101.5319925,140.75816011279466L102.00098249999999,140.53095798074986L102.14428500000001,140.85283537182085L102.22245,140.79911766378802L102.231135,140.94552265109849L102.335355,137.33697417275448L102.3396975,139.05978671444262L102.352725,139.80147468333126L102.4352325,140.94621108835747L102.58722,140.36785801241285L102.72183749999999,140.52381913104347L102.891195,141.31923800223285L102.93462,141.08568290301093L103.32110250000001,138.4660566091712L103.3818975,140.35726163596962L103.50783,141.38280049494537L103.54257,141.12134707782644L103.66850249999999,139.90380745314943L104.09841,138.652141597917L105.10152749999999,137.40480310636778L105.2231175,139.14683229993594L105.2622,140.488858204161L105.38379,141.9544589753895L105.53577750000001,142.01254637202317L105.5878875,137.8265611237925L105.8658075,139.52616164396056L106.452045,141.21057137182265L106.68654,140.55099836829848L107.2640925,140.71062157776083L107.26843500000001,141.0719468134709L107.876385,142.26687538746404L108.4018275,143.10356671108843L108.432225,143.30446475189353L108.9750375,142.8542737544562L109.46574000000001,143.51034362023984L109.5482475,142.7737649663145L109.6698375,142.78651515566438L109.7653725,139.4847380600758L109.856565,139.04382799207494L110.151855,140.9318181311448L110.3820075,141.58594782011863L110.6338725,141.6561725701818L110.82494249999999,141.20785601353225L111.7542375,142.16464150020823L111.8324025,143.02133074116318L111.9279375,143.21875790304904L111.9539925,142.8358283549366L112.427325,143.77251074417342L112.48812,144.1510467210645L112.5358875,142.83646917711104L112.774725,143.26871165824178L112.8224925,143.83413900445248L112.8485475,143.93830663165656L113.104755,144.19833527222994L113.2220025,144.3618891286297L113.32188000000001,144.2507096628811L113.62585499999999,143.34843099984323L113.72139,143.63173199711918L113.8646925,143.2945097317915L113.9689125,143.76994540024523L114.1426125,140.895330771379L114.2207775,142.16384987775822L114.2468325,142.94994049709643L114.25985999999999,143.73890326852563L114.58989000000001,140.44712507581687L114.59423249999999,140.10631131563173L114.79833,141.966596902213L114.9329475,142.31662630680293L115.050195,140.36716519575174L115.0632225,142.1153233139566L115.084935,142.83304046221681L115.3932525,143.74948344500726L115.44102,144.42031776649873L115.6538025,141.40722627754877L115.901325,142.6204506636612L116.09673749999999,143.3207594030173L116.27478,143.28113182294794L116.3312325,144.01692060222285L116.335575,140.97537132152948L116.43110999999999,142.29468001275677L116.50059,143.28185604393138L116.9826075,144.28538998599143L117.0738,143.67851375168735L117.3734325,138.37609079525575L117.38646,139.3520585246128L117.3908025,140.51588785304082L117.5992425,142.77204787345798L117.7034625,143.94017921685918L118.2766725,144.5725511245414L118.62407250000001,145.06590428776946L118.680525,144.84473464952353L118.95844500000001,144.14181406135228L119.2407075,143.80653694292823L119.340585,143.82747830954742L119.705355,144.15606838290424L119.7183825,144.41975086644013L119.74009500000001,144.50629075938295L120.0310425,144.1973538258602L120.1092075,143.74137304821193L120.43489500000001,143.89071189045058L120.6042525,142.78132694068043L121.2903675,142.35267518343025L121.47275250000001,143.55058735881147L121.47709499999999,144.27985303609904L121.75935750000001,145.1229358413627L121.7854125,145.54998411238552L121.89831749999999,143.90743361011363L121.98951,143.74967386973034L122.01556500000001,143.98861434073527L122.70168,144.11939244694278L123.7395375,144.08849316568234L123.79598999999999,144.52971828613317L123.943635,144.59746730153938L124.047855,144.72745297938692L124.10865000000001,145.24109337316517L124.23024000000001,145.67954071074166L124.725285,145.92582963278556L124.8772725,144.6156683940927L125.03794500000001,144.0595654300892L125.43311250000001,144.7143714903023L125.9976375,143.45982037772097L126.32332500000001,144.40351777256643L126.71415,143.29463106054732L126.7271775,145.0576589479069L127.36552499999999,145.05039621853948L127.38289499999999,145.41374971144867L127.56962250000001,144.38940307050032L127.61739,143.13661765381147L127.660815,144.36965151294737L127.80846,142.67958018252057L127.851885,144.1304059800881L127.96479000000001,144.54478147237768L128.1602025,144.7292158175067L128.26008,144.65197921178077L128.4815475,145.30426037285528L128.5857675,144.80199340163946L128.668275,145.54776907118725L128.87237249999998,144.43036617548805L129.363075,144.57339708156312L129.5758575,145.30492775125458L129.92759999999998,142.7516383278856L129.9753675,143.6390260789388L130.0622175,144.51763133055528L130.37922,144.67285147337054L130.6267425,145.64210157455764L131.09139,145.97528169564464L131.70368249999999,145.21377284578716L131.87304,145.70409303018292L131.9989725,146.50071411950196L132.37677,146.84258950954856L132.58521,147.04608443547L132.593895,146.4805635880304L132.75891,145.86389330571131L132.8587875,144.4319179966762L133.167105,145.48621900698328L133.77939750000002,143.8334745907532L134.05731749999998,144.7786204543708L134.4828825,145.59790328425157L134.51762250000002,146.20924342710964L135.1776825,144.03484126471992L135.27321750000002,145.00026405300804L135.41652,144.14200995502537L135.737865,145.17454397283592L135.9072225,145.37651527816115L136.2806775,146.01844253782366L136.59768,145.2123283093806L136.7062425,144.70583677757597L136.762695,141.07769582446704L136.80177750000001,142.38546377927833L137.144835,144.08550876094864L137.40104250000002,145.74684225269536L137.8960875,143.560271418532L137.96122499999998,144.7744011593999L138.3042825,146.14609242316436L138.68207999999998,145.80658738560288L139.06856249999998,147.03487645057922L139.229235,146.13502120997362L139.3812225,146.56413287282498L139.7025675,147.38410364239223L140.24103749999998,146.60857512562757L140.33222999999998,146.22830108454397L140.3713125,143.56372444093566L140.44079250000001,144.74894367917085L140.71437,143.94563899763648L140.7187125,143.92910206483737L140.77950750000002,143.7479359022792L141.313635,144.98294801493086L141.3614025,145.92463549557087L141.79565250000002,146.92275375631604L142.0866,147.57669417981597L142.9551,147.10605079903777L143.5065975,144.78934884175405L143.51094,145.36751111219672L143.6368725,145.75542366360335L143.6455575,146.5123483843637L144.075465,146.76685558718637L144.72684,144.60541717134234L145.00476,145.464956555127L145.030815,146.66674021168583L145.05687,147.4907255417647L145.07424,147.22726546140265L145.0785825,147.90452203221173L145.57797,146.99324019263418L145.81680749999998,145.43871583169837L146.3379075,146.36351064190947L146.5810875,147.2547921272855L147.0066525,147.1320483630294L147.0500775,147.3860679885235L147.08047499999998,147.77034518289486L147.15864000000002,146.27689479957772L147.40616250000002,147.06056645323784L147.5972325,147.72417376978666L147.9706875,147.75668065693063L148.365855,143.3276037753885L148.37454,145.03042640321044L148.5135,146.58504940223747L148.591665,146.8225371810171L149.82059249999998,146.1380831780954L149.93349750000002,146.80823120082462L150.12456749999998,146.9872302356663L150.363405,147.89468497973994L150.63263999999998,146.55751225660632L150.68909250000002,144.48493188998336L151.08860249999998,146.4062145837768L151.21453499999998,146.4826847897395L151.3838925,147.05805933625544L152.5997925,147.46156436451403L152.94285,148.32344392656165L153.055755,148.39713148538098L153.15129000000002,146.79411400833027L153.2337975,147.76935780787943L153.34236,146.18976383995698L153.41183999999998,147.01408412555864L153.46395,148.01981135167188L153.6506775,147.69506399390104L153.94596750000002,147.6134680886239L154.2152025,147.76306426967204L155.11844250000001,147.73186201837672L155.14884,148.50716764218814L155.18792249999998,148.75278230756348L155.4050475,146.1353117537488L155.41807500000002,146.25976729322906L155.50926750000002,147.15531476030907L155.64388499999998,147.6409751665751L155.72639249999997,147.64929816199302L156.3169725,147.97751397615946L156.668715,146.86508714214727L156.6730575,148.13928184028424L156.8207025,148.11225093977725L157.41562499999998,148.48872400426612L157.4373375,147.75616042198982L157.5502425,145.8495131177142L157.7499975,146.74351141228883L157.815135,147.56705396778648L158.17122,147.2837836473123L158.3579475,147.92309288189924L158.47085249999998,148.13418028589257L158.64889499999998,148.32855397968692L158.8356225,148.1720668060136L159.4088325,147.7564617974342L159.43922999999998,146.15028649212604L159.4566,147.30060397366697L159.89953500000001,147.26824784415967L160.07323499999998,147.80075758487288L160.48143000000002,146.89223096327666L160.542225,148.0631558735322L160.62039,148.5235518758983L160.802775,148.6560922415847L161.983935,147.4319505566683L162.2140875,148.19496107216636L162.730845,148.82265339868343L163.52118000000002,148.36585298271223L163.6818525,148.94388087639953L164.0900475,147.7482161324456L164.780505,148.23690471701232L164.89341,148.93347851210777L165.06710999999999,147.82443698368337L165.266865,147.4281362075917L165.5491275,148.507211811427L165.579525,147.96233191696328L165.614265,148.22179959599688L165.82270499999998,148.3760256191165L165.8617875,148.3984316093517L166.117995,148.19349370175854L166.1744475,144.76752046927365L166.80411,145.14912978006632L166.85622,145.5164974802329L166.99952249999998,146.96219602151774L167.1819075,147.7836816687081L167.46417,147.06495576604866L167.785515,148.15924847844042L167.9896125,148.19154632790566L168.271875,146.72087881582186L168.3978075,146.98939011286024L168.45426,147.87812400454476L168.7538925,148.6813344604176L168.76692,148.76422922522733L168.9536475,147.79681768066234L169.16643,148.14540471320777L169.40961,147.36999820700544L169.98282,147.80495076615367L170.01756,148.73586552069338L170.0479575,149.71547202051133L170.45181000000002,149.2182076855329L170.50392,149.6794002352701L170.59077,149.25991057379818L171.085815,149.31698823071287L171.103185,149.49821476591686L171.2204325,149.62378918172752L171.2291175,149.95161597165068L171.6199425,148.8917556166357L171.92391750000002,147.45431301174796L172.041165,148.14218869546494L172.0715625,148.5496895369258L172.1931525,146.98788448803822L172.78373249999999,148.21409470488547L173.1832425,147.56412455238353L173.21364,144.56239645703107L173.604465,146.05015788919312L173.6435475,148.03003277232696L173.6956575,144.37128050506382L173.778165,146.39971006187957L173.8519875,146.19372014908888L174.0864825,147.7103173708701L174.1385925,144.59550853048466L174.24715500000002,147.0052750337106L174.4078275,148.00407148401334L174.6596925,148.68650100201603L174.8594475,147.0594707981958L174.941955,144.64165149636352L174.9723525,146.93596621763578L175.1721075,147.57660495854537L175.3979175,147.72407723593486L175.410945,147.6677767143564L175.5629325,147.83710377892353L176.1274575,148.88210640396474L176.35326750000002,148.86641052176535L176.35761000000002,149.2079529956578L176.4488025,149.7421647815018L176.68764000000002,149.9390670234328L177.0654375,149.75905419330988L177.06978,149.55881886119363L177.23479500000002,150.03927657460997L177.3867825,148.6439183389743L177.425865,148.3393374193072L177.5952225,144.71454853957056L177.808005,146.12633128669952L178.04684250000003,146.42101727184414L178.1858025,147.60382622268352L178.59833999999998,147.7474303747657L179.2584,149.3165900245573L179.4711825,148.71907166497505L179.6275125,148.36473120484706L179.8967475,147.85533205790196L180.23112,149.3773747761421L180.2441475,149.48468850288526L180.57417750000002,149.16645051462194L180.66537,148.60645871645357L180.70011000000002,149.53664959921625L180.7565625,150.2568817032378L180.7652475,150.22644733305282L180.7913025,150.38174182804232L181.21686749999998,150.43235149357798L181.2255525,150.73501369364013L181.60335,150.73706974808545L181.6163775,150.82392670094472L181.733625,150.14760899032356L182.47619250000002,149.91717357857644L182.50659000000002,150.3339631721295L182.793195,148.99101523741587L182.81490749999998,148.17859798451963L183.2665275,147.92596277210535L183.34035,146.6381165679599L183.6312975,147.68261916585595L183.7181475,148.927893248411L184.182795,148.57572396276115L184.408605,148.99766801783574L184.4737425,148.78796475828665L184.53888,149.6365603195189L184.60836,150.35953132810047L184.6648125,151.15963905462237L184.8168,150.91311410581238L184.8993075,148.50346165576676L184.92970499999998,149.85991563128889L185.9415075,150.29983456985627L186.2020575,150.24300196025655L186.3323325,149.8510469627612L186.41484,149.65252902707357L186.8013225,150.39851975024283L186.97068,150.10905469152652L186.98805000000002,150.09489990334703L187.02713250000002,149.97211270636913L187.0531875,149.34140812155067L187.16174999999998,147.36053558660421L187.40927250000001,147.384927998396L188.04327750000002,147.8594220958127L188.5470075,148.4537359879597L188.69030999999998,148.61723320267703L189.1636425,149.30494951960208L189.1896975,148.57025154579736L189.22877999999997,146.46108193456564L189.7889625,147.39930571442505L189.9366075,146.37790227845704L191.0482875,147.33065349863705L191.13079499999998,148.58760630388105L191.3175225,148.0111412808242L191.617155,147.84663560986178L192.5507925,149.44592002451213L192.989385,147.60233265083906L193.22822250000002,149.27707473522054L193.29336,149.6697552817203L193.5929925,149.81380425354166L193.74063750000002,148.9003978194912L194.0619825,147.00868006301639L194.1314625,148.81124933073053L194.17923,149.39530756523686L194.326875,149.14797693357156L194.674275,148.63034723179214L194.9391675,149.20485956066352L194.94351,149.96713947120907L195.19537499999998,148.09582180418732L195.282225,145.97070591129756L195.4689525,148.01487510533866L195.490665,148.9762215969368L195.803325,149.9567903777155L196.4156175,150.63781490930572L196.51549500000002,150.62557473940345L196.5198375,150.61352466821785L197.1104175,150.41886062461208L197.5272975,150.80216588631612L197.78350500000002,150.7900840606859L197.8312725,150.24009468177383L199.0645425,149.86766490918055L199.242585,148.28378993477912L199.54656,149.3814260138213L199.66815,149.41636519242164L199.8896175,150.0004829462399L200.31084,149.44913309163036L200.4454575,148.62478622039367L200.46716999999998,148.372984878735L200.5409925,147.369410524974L200.76246,149.25856561084672L200.927475,149.49597275187125L201.813345,150.25704626667232L202.126005,148.74755726160245L202.5819675,149.16255552046977L202.959765,149.7206322099178L203.011875,147.3208142416423L203.150835,147.92700200478706L203.272425,149.81849139012678L203.6502225,150.43196798095275L203.6936475,150.59617673600715L203.7197025,149.837110142082L203.7370725,150.48199859018325L203.87168999999997,150.56637581671893L203.880375,150.69450030735504L203.94117,151.0817029134862L203.96722499999998,149.69230606676234L204.28422750000001,149.87844661456998L205.356825,150.19038651791308L205.738965,150.65823775481937L205.85187000000002,149.8516078291193L206.242695,150.81128501067192L206.35994250000002,150.35816942114909L206.6639175,150.81922461075652L206.9592075,151.1645881514732L207.02868750000002,151.48071316523755L207.3152925,151.35154177825692L207.5237325,151.20897300336387L207.5932125,150.3276689555116L207.719145,149.22415461992426L207.8277075,150.1206169418556L207.910215,149.50486688909305L208.535535,150.25790888024792L208.570275,149.60835858078852L208.848195,149.0925559664044L208.9654425,150.09797607566554L209.55168,150.53372511025154L209.5820775,148.39993871871164L209.66024249999998,149.86528112932163L210.10752000000002,150.46779905792545L210.21174,150.16835224769395L210.255165,150.92856684046615L210.31596000000002,151.29111294362025L210.585195,151.36435982168064L210.9977325,151.5983504423818L211.2843375,150.06497984837418L211.34079000000003,149.91637148319737L211.47975,150.36576564198168L211.55791499999998,150.8032889252778L211.60134,150.70171569732582L211.6925325,150.7778851231054L212.165865,148.11903288946243L212.46984,149.76527387237962L212.895405,151.0071544833789L213.4034775,150.80720016406832L213.56849250000002,151.50216419639057L213.711795,150.72628276961663L213.7856175,150.84054191853176L213.95497500000002,150.40168651093882L215.00586,149.87392970867361L215.07534,149.88848368129078L215.70066,150.79570243508186L215.92647,151.65948011510412L216.11754,151.22320973378623L216.2695275,151.5748017241192L216.39980250000002,150.88375607197776L216.5040225,151.49829784529086L216.60824250000002,151.5891996156971L216.64298250000002,151.21624356109206L216.69075,151.30706829122187L216.69509250000002,151.68924351962795L216.95564249999998,151.85207989071245L217.07289,150.1251458258446L217.09026,149.89340149580036L217.15539750000002,150.08513666491865L217.2683025,151.27403171454316L217.31607,149.65263879251148L217.36383750000002,149.76123701349894L217.50714,148.22596154595018L217.87625250000002,148.9567398298359L218.106405,145.75156939632154L218.123775,146.06727645170065L218.1802275,147.05346736838743L218.5276275,149.01592354464725L218.5449975,149.63380297683594L218.662245,150.6326934597666L218.7013275,150.60466969478279L219.079125,150.01824853185207L219.1095225,149.99852404781217L219.3005925,149.99464110687694L219.530745,150.35334068227004L219.68273250000001,151.00416062072333L219.70010249999999,151.3268446244026L219.964995,149.9379543453291L220.3862175,148.88343533745913L220.5512325,149.36937607718414L220.75098749999998,149.6599742049301L220.75533,150.5141659573063L220.7683575,150.51812708283035L221.0115375,151.37286658554268L221.3763075,150.68004205476637L221.4805275,151.38542285379853L221.69331,150.543217884851L221.754105,151.39633454455586L222.396795,150.98796765110583L222.52706999999998,149.1939724962514L222.7832775,148.6034174394221L223.00474499999999,149.7938324918068L223.8993,147.77901136083702L223.9383825,148.7940023539412L224.02523250000002,149.16226061056244L224.15985,150.68758963909858L224.168535,149.98262675221034L224.7547725,150.48588557505767L224.9111025,150.15874304943776L225.1021725,150.03318224488794L225.35837999999998,150.94439085924088L225.41049,151.61152441943264L225.90119249999998,151.2336299782668L226.061865,151.61037172291722L226.1964825,152.07265665655015L226.34847,151.67553255766438L226.999845,151.82258743612354L227.0389275,151.8363556695335L227.15617500000002,151.34250676906723L227.28645,151.75191709161768L227.43409499999999,151.51826391122324L227.6295075,152.11276466407824L227.66424750000002,149.7629555163291L227.7858375,149.09687395162922L228.27653999999998,150.597789079875L228.34601999999998,151.39542895506634L228.4458975,151.6485087947596L228.615255,150.76669124642305L228.6890775,151.2605918550002L229.06253249999997,151.73417852623805L229.101615,151.4129725672516L229.24926,148.81187279732302L229.7486475,150.26746063440308L229.918005,148.33442733710567L230.14381500000002,148.98217957452272L231.394455,150.02829115203224L231.4856475,151.0434083204639L232.09794000000002,151.84594426787925L232.28466749999998,152.19712855517585L232.51482000000001,152.2789157142101L232.5452175,152.3469009024193L232.6320675,148.85402392103015L232.7449725,150.21717391731585L233.1357975,150.3577633743569L233.36160750000002,150.6009954364648L233.6221575,151.57496865557437L233.652555,151.52549209209863L233.7784875,151.08174020439435L234.00863999999999,149.33209101238876L234.02601,150.7434559906887L234.08246250000002,150.49931317957441L234.1432575,150.69410916957082L234.2474775,150.3059496216048L234.2995875,150.9782289770734L234.4385475,151.79058633089016L234.468945,150.16019424708156L234.52974,150.57566769152265L235.0204425,151.0447215768956L235.06821,151.63031615615714L235.094265,151.81723514870302L235.27230749999998,151.54464174360334L235.2896775,152.22600763030528L235.3504725,151.80354476273166L235.45035,150.4842507272965L235.910655,151.4334208684046L236.0973825,151.1160193532335L236.2884525,151.50776921664936L236.3666175,151.46746916192927L236.43609750000002,151.97674341503176L236.5663725,151.6822415006363L236.866005,150.10338867237888L237.4088175,151.2902739199592L237.595545,152.0148682712074L237.60423,152.506543899763L237.7649025,151.07616634909115L237.76924499999998,151.00227000419082L237.81267,152.26453381007929L237.84741,152.605167538418L237.9559725,152.35127904638267L238.3164,151.9574269321538L238.33811250000002,148.98574021455508L238.40324999999999,150.47960428899145L239.24569499999998,148.32147406387696L239.84496000000001,148.87396117961924L240.76557,150.45055799386068L241.104285,149.15569352597691L241.33878,150.4264131441903L241.4473425,150.63029014841865L241.9944975,150.9919521747598L242.34624000000002,150.58462545624786L242.5590225,151.5366625967706L242.6111325,151.77296849433094L242.69364,152.02072140041594L242.94984749999998,152.0078552725232L243.4535775,151.01830899610022L243.79663499999998,151.64438484385698L243.97902,151.48851908393257L244.29168,151.64598333558473L244.508805,151.739802180505L244.55222999999998,151.187109944687" style="fill: none;" fill="none"></path></g></g></g></g><g opacity="0.2"><g><g><g><path stroke="rgb(255, 112, 67)" stroke-width="2px" d="M31.3571925,-26.77684604823591L31.54392,4.546314704418194L31.76973,9.893989044427883L31.934745000000003,7.836141291260731L32.264775,16.5954422235489L32.6165175,12.232230010628712L32.855354999999996,17.978128123283398L32.8683825,21.992319229245197L32.9291775,25.375750887393963L32.9465475,27.55976371765138L33.154987500000004,14.316597881913196L33.185385000000004,15.478313568234455L33.376455,18.586086335778248L33.50673,18.01900945901872L33.7542525,19.417520391941082L33.880185,19.709597754478466L33.949665,28.793272304534923L34.019145,38.36492494046689L34.4837925,38.49060207903386L34.670519999999996,30.939581993222248L34.683547499999996,32.6855051547289L35.148195,36.885534900426876L35.24373,25.054858776927006L35.291497500000006,29.08090547025205L35.4651975,35.259961116313946L35.53902,41.62803359627725L35.5954725,38.275104689598095L35.981955,45.152373987436306L36.242504999999994,41.82643994987012L36.6376725,34.443560841679584L36.6897825,40.979972112178814L36.828742500000004,39.55180242955686L36.8547975,44.8270640552044L36.96336,36.62936717569829L37.158772500000005,43.77450153529645L37.514857500000005,57.3918700620532L37.718954999999994,50.634284171462056L37.7927775,52.44667247235775L37.8014625,53.74707479327917L37.823175000000006,52.81476933807134L37.9317375,50.98225027620792L37.936080000000004,44.83774595260621L37.98819,48.39626841545106L38.0099025,50.13737812936306L38.135835,53.019841986894605L38.2009725,54.50651154220104L38.8002375,48.20929564833642L39.039075,62.040684561431405L40.0248225,50.63323576301336L40.33314,50.704652819037435L40.3461675,51.71019520908594L40.598032499999995,61.84595093429088L40.8672675,64.1089174926281L41.166900000000005,64.25827283710241L41.227695000000004,57.3556571111083L41.23638,59.69427392184734L41.240722500000004,59.82232481539249L41.4925875,66.93396285474299L42.252525000000006,64.99883823394775L42.85179,73.4807922720909L42.860475,69.29933056533335L43.0776,71.72162223905323L43.3859175,69.6170049190521L43.6117275,73.86250526010988L43.70292,73.15360971093176L43.7333175,73.55520949065684L44.197964999999996,71.96415406018494L44.319555,71.48867775052784L44.441145,70.50792131870983L44.666955,74.0968080639839L44.936189999999996,71.35462653189896L45.361755,86.72135357111691L45.4963725,81.86362225860356L45.518085,79.6499177098274L45.8871975,79.26101092547177L45.8958825,80.26362568438051L46.247625,87.01610800176857L46.647135,85.90780839622019L46.7209575,92.91316815018654L46.812149999999995,81.51657268702982L47.394045,84.28741731047629L47.411415000000005,89.84494477808475L47.446155,86.39732942283152L47.932514999999995,86.0974318563938L47.993309999999994,88.20922978520392L48.158325,87.83534359484909L48.210435000000004,82.95616936236618L48.39282,91.80219147652387L48.7271925,94.5119119092822L49.070249999999994,91.62377082109451L49.078935,92.54089083820581L49.31343,95.29476311355829L49.43502,89.62444931566715L49.8909825,87.65293371230362L50.3512875,94.21132859140634L50.4120825,98.58949546068906L50.676975,99.52764958441257L51.2371575,103.92336905300617L51.8016825,100.36388390064239L51.992752499999995,105.5245755828917L52.361864999999995,100.37281185686588L52.448715,106.92006986886263L52.605045,108.31822144165635L52.635442499999996,106.54150869995355L52.7917725,105.00853773504495L52.882965,104.32283245325088L53.15219999999999,113.78400327935815L53.23905,101.34526674002409L53.721067500000004,107.58946217894554L53.764492499999996,110.46705324500799L54.064125,102.73901697546243L54.1205775,110.86081303954124L54.146632499999996,108.21586314886808L54.203085,112.04382658302784L54.4506075,107.11537715345621L54.550485,110.96611874476075L54.828405000000004,111.9857322268188L55.453725,112.70257655829191L55.68822,114.62840067520737L55.8141525,105.66612061411142L56.0486475,113.27258765995502L56.218005,115.19136304333806L56.231032500000005,116.25918682962656L56.283142500000004,109.51069703623652L56.41776,114.6437509573996L56.90412,113.15800123214721L57.390480000000004,116.10470483377576L57.503385,115.06654968783259L57.99843,114.9577954441309L58.03317,117.9580997519195L58.2112125,118.3932123363018L58.6107225,117.07314081788063L58.8886425,117.38469945564866L59.0970825,116.4338951960206L59.19696,116.07019966766238L59.49225,105.99533075764775L59.535675,117.8530050471425L59.5487025,119.2932643957436L59.61384,118.37313102856278L59.7571425,118.25272890105843L60.5474775,121.36458980217576L60.838425,120.00103570818901L60.960015,117.05723336264491L61.00344,112.77100004553795L61.1554275,119.44273513108492L61.8415425,120.22657210305333L62.16723,118.28185355588793L62.662275,119.72068535462022L62.8403175,123.84070307314396L63.33102,121.82304101362824L63.4569525,125.15066305473447L63.47866500000001,123.55048185512423L63.5177475,124.22180613800883L63.9085725,117.90599912703037L63.921600000000005,117.6995022252202L64.04319000000001,118.89723634645343L64.086615,123.60611673742532L64.4904675,117.77731852903962L64.6381125,120.24795567914843L64.8986625,115.5563707306981L65.69334,124.78478499054908L65.806245,125.04808057397604L65.8192725,126.69244658499956L65.910465,125.02273744270205L65.94086250000001,121.85525484681129L66.1927275,125.17901294231415L66.2187825,121.660550891608L66.4619625,122.78856585100293L67.352175,125.10451000481844L67.595355,125.83706727549433L67.73431500000001,124.28683054000139L68.11211250000001,127.57190961688757L68.255415,121.29800927191972L68.5984725,127.21894214227795L68.62886999999999,125.87197795808315L68.68532250000001,125.82954379096627L68.9458725,123.57959332242608L69.0761475,124.88158474043011L69.176025,124.04875280633568L69.25419000000001,122.384272518754L69.8838525,128.75431323722006L70.16177250000001,117.70693010017276L70.81748999999999,130.00205116644503L70.930395,128.34379868879915L71.764155,128.532990257442L71.7945525,126.39830537438392L72.285255,128.1389831967652L72.2982825,124.67562852725386L72.389475,127.89149945899844L72.6456825,122.3658264644444L72.83241,118.59182639345526L73.2015225,124.8224716477096L73.33614,130.65092038661243L73.40562,130.3404101572931L73.47944249999999,130.31830126717688L73.6531425,127.54553126469254L73.85289750000001,122.41608413234353L73.85723999999999,131.82249374985696L73.952775,124.50745128393173L74.1047625,128.69394403249026L74.21766749999999,128.6446556478739L74.25675,129.0351383417845L74.48256,129.52436594590546L74.4955875,130.98089210987092L74.6432325,132.50503732189537L74.6606025,130.8111521445215L74.76048,130.16997454985977L74.786535,125.93891784846782L74.79522,131.7875583406538L74.994975,125.8696107968688L75.35106,127.79265564233064L75.43356750000001,119.77813022509217L75.47265,129.67526093423368L75.76794000000001,130.2403563849628L75.776625,133.49604211114348L76.037175,128.55387930125L76.7276325,126.97517069354653L76.957785,132.5040647417307L77.044635,130.58836534917356L77.1792525,128.32472952380778L77.218335,133.16575223878027L77.2921575,134.02137057222427L77.36598,133.70935037098826L77.722065,131.0898540571332L77.82194249999999,132.71208974830807L77.8827375,129.6746147453785L78.2040825,134.1186154011637L78.6991275,130.2826784580946L79.1160075,135.10565898679198L79.13772,130.69297211542727L79.29405,130.93405990228058L79.4286675,130.02645468637348L79.84989,133.76582266129554L79.962795,132.56609392650427L79.980165,127.60614443868398L80.049645,133.88429776132108L80.23203,129.038613255322L80.50995,136.06648576743902L80.5229775,131.92569934129716L80.5924575,128.0999250367284L81.0093375,133.33421136550606L81.23948999999999,136.26305575780572L82.1644425,134.68512851111592L82.2860325,132.85317321605982L82.7463375,126.63727656304836L83.0589975,134.78808353953065L83.3282325,135.97394723743201L83.66694749999999,131.5955495864153L83.74077,134.46388795338572L83.85801749999999,133.7742297101766L83.94921,131.34367440193893L84.00132,133.38229638822378L84.0664575,132.2749990347773L84.31398,136.46960376128555L84.6309825,136.21636696457864L85.10865749999999,136.3328177791089L85.33881,130.30409500300885L85.35618,134.79100128002466L85.781745,137.81888400502504L85.96413000000001,136.95979075804354L86.1855975,135.97126852087678L86.28547499999999,137.55009416788818L86.5416825,135.82589086443187L86.55470999999999,136.99027702510358L86.96290499999999,134.64181572496892L87.11055,136.56366050541402L87.2625375,134.3524813681841L87.431895,135.68220780529083L87.831405,136.97094575800003L87.92693999999999,137.86016591191293L88.28302500000001,135.92093832157553L88.8953175,135.84314839281143L89.1819225,139.16966927535833L89.21232,139.00496859401466L89.2514025,133.87112012431027L89.325225,136.22421519197525L89.40338999999999,138.21012168489398L89.65959749999999,136.1049191683531L89.8767225,136.71868318989874L90.08081999999999,138.6357145227492L90.35439749999999,134.5516773249954L90.680085,129.03957594484092L90.70614,139.93312327489258L90.836415,137.79483819678427L90.87549750000001,137.39133941307665L90.91892250000001,138.20202454291285L91.3184325,138.12083223201336L91.357515,139.82122215740384L91.374885,129.32184178680183L91.44870750000001,137.36914810091258L91.72662749999999,135.35853147804738L91.809135,140.67772240675987L92.39537250000001,138.94038762263955L92.66895000000001,137.39260211884977L92.86870499999999,134.70867319330574L93.059775,137.3170145072043L93.43323,140.93404013961555L93.685095,136.08660828620197L94.3321275,138.52761800698937L94.3408125,139.30577609986068L94.4797725,139.15451680608095L94.61438999999999,134.96874607466162L94.87059749999999,139.7231597017497L95.491575,138.26830670535566L95.595795,139.47546496354045L95.6348775,141.22464214749635L95.873715,137.99106201454998L96.5294325,135.6598500005901L96.5902275,140.63227818645538L97.0331625,141.1480325024575L97.12435500000001,139.91848347075285L97.7019075,140.1995921071619L98.0145675,140.5635414954275L98.1101025,141.46496011242272L98.183925,141.4857420075685L98.38368,138.2101249817759L98.531325,140.5186082918197L98.8135875,142.41023220419885L99.1609875,135.4051147710532L99.4910175,140.30521925836803L99.6473475,138.69370173029603L100.12936499999999,140.97340985499324L100.1337075,137.31644084975125L100.2813525,132.64360526874663L100.3421475,142.95227750502528L100.52453249999999,137.4759588327259L101.24973,141.01449394896628L101.3843475,141.61369564309717L101.5319925,141.43164017535747L102.00098249999999,140.19015478268267L102.14428500000001,141.33565145842732L102.22245,140.71854110173882L102.231135,141.16513013206423L102.335355,131.92415145523847L102.3396975,141.6440055269748L102.352725,140.91400663666428L102.4352325,142.66331569589676L102.58722,139.50032839849592L102.72183749999999,140.75776080898942L102.891195,142.51236630901695L102.93462,140.73535025417806L103.32110250000001,134.53661716841162L103.3818975,143.19406917616726L103.50783,142.921108783409L103.54257,140.7291669521481L103.66850249999999,138.07749801613392L104.09841,136.77464281506838L105.10152749999999,135.53379536904396L105.2231175,141.75987609028817L105.2622,142.5018970604986L105.38379,144.15286013223232L105.53577750000001,142.09967746697367L105.5878875,131.5475832514465L105.8658075,142.0755624242127L106.452045,143.7371859636158L106.68654,139.5616388630122L107.2640925,140.95005639195443L107.26843500000001,141.61393466703595L107.876385,144.05926824845375L108.4018275,144.3586036965251L108.432225,143.60581181310118L108.9750375,142.1789872583002L109.46574000000001,144.49444841891528L109.5482475,141.66889698542656L109.6698375,142.80564043968917L109.7653725,134.53207241669298L109.856565,138.38246289007367L110.151855,143.7638033397496L110.3820075,142.5671423535794L110.6338725,141.76150969527663L110.82494249999999,140.53538117855788L111.7542375,143.59981973022224L111.8324025,144.30636460259558L111.9279375,143.51489864587785L111.9539925,142.26143403276802L112.427325,145.17753432802854L112.48812,144.71885068640114L112.5358875,140.8646028611809L112.774725,143.9170753799379L112.8224925,144.68228002376856L112.8485475,144.0945580724627L113.104755,144.58837823309005L113.2220025,144.60721991322936L113.32188000000001,144.0839404642582L113.62585499999999,141.99501300528647L113.72139,144.05668349303306L113.8646925,142.78867633379997L113.9689125,144.48309890292586L114.1426125,136.5834088280797L114.2207775,144.06662853732706L114.2468325,144.12907642610372L114.25985999999999,144.92234742566944L114.58989000000001,135.50945778675379L114.59423249999999,139.59509067535402L114.79833,144.75702528208495L114.9329475,142.84167041368784L115.050195,137.44297352917494L115.0632225,144.73756049126388L115.084935,143.90961618460716L115.3932525,145.1241479191929L115.44102,145.4265692487359L115.6538025,136.8875890441239L115.901325,144.4402872428298L116.09673749999999,144.37122251205147L116.27478,143.22169045284392L116.3312325,145.1206037711352L116.335575,136.41304740048946L116.43110999999999,144.27364304959775L116.50059,144.76262009069325L116.9826075,145.7906908990815L117.0738,142.76819940023125L117.3734325,130.42245636060835L117.38646,140.81601011864842L117.3908025,142.26163184568287L117.5992425,146.1562879040837L117.7034625,145.69237623196094L118.2766725,145.52110898606477L118.62407250000001,145.80593403261153L118.680525,144.51298019215466L118.95844500000001,143.0874331790954L119.2407075,143.30362126529218L119.340585,143.85889035947622L119.705355,144.64895349293948L119.7183825,144.81527459174396L119.74009500000001,144.6361005987972L120.0310425,143.7339484255761L120.1092075,143.0574018817395L120.43489500000001,144.1147201538086L120.6042525,141.1172495160252L121.2903675,141.70969754755498L121.47275250000001,145.34745562188326L121.47709499999999,145.37375155203043L121.75935750000001,146.38756004925816L121.7854125,146.19055651891975L121.89831749999999,141.4436078567058L121.98951,143.5130342591554L122.01556500000001,144.34702504724265L122.70168,144.3155596062541L123.7395375,144.0421442437917L123.79598999999999,145.19155596680937L123.943635,144.69909082464875L124.047855,144.92243149615825L124.10865000000001,146.01155396383254L124.23024000000001,146.33721171710638L124.725285,146.29526301585136L124.8772725,142.65042653605343L125.03794500000001,143.22541098408402L125.43311250000001,145.69658058062194L125.9976375,141.57799370884896L126.32332500000001,145.8190638648346L126.71415,141.63130099251867L126.7271775,147.70220077894626L127.36552499999999,145.03950212448834L127.38289499999999,145.95877995081244L127.56962250000001,142.85288310907782L127.61739,141.2574395287782L127.660815,146.21920230165122L127.80846,140.14447318688036L127.851885,146.30664467643945L127.96479000000001,145.16634471081196L128.1602025,145.0058673352003L128.26008,144.5361243031919L128.4815475,146.282682114467L128.5857675,144.04859294481577L128.668275,146.66643257550894L128.87237249999998,142.75426183193923L129.363075,144.78794344067575L129.5758575,146.40222375579177L129.92759999999998,138.92170419283212L129.9753675,144.97010770551861L130.0622175,145.83553920798002L130.37922,144.90568168759347L130.6267425,147.09597672633825L131.09139,146.4750518772751L131.70368249999999,144.07150957100095L131.87304,146.43957330677657L131.9989725,147.69564575348048L132.37677,147.35540259461848L132.58521,147.35132682435213L132.593895,145.63228231687097L132.75891,144.93888788223268L132.8587875,142.2839550331235L133.167105,147.06767052244393L133.77939750000002,141.35435796640814L134.05731749999998,146.19633924979715L134.4828825,146.82682752907274L134.51762250000002,147.12625364139674L135.1776825,140.77323802113534L135.27321750000002,146.44839823544024L135.41652,142.85462880805136L135.737865,146.72334499955176L135.9072225,145.679472236149L136.2806775,146.98133342731742L136.59768,144.00315696671606L136.7062425,143.94609947986902L136.762695,135.63548439480365L136.80177750000001,144.3471157114953L137.144835,146.63557623345403L137.40104250000002,148.23884249031542L137.8960875,140.280415167287L137.96122499999998,146.59559577070175L138.3042825,148.20362931881098L138.68207999999998,145.2973298292607L139.06856249999998,148.8773100480437L139.229235,144.7852383490652L139.3812225,147.207800367102L139.7025675,148.61405979674308L140.24103749999998,145.44528235048054L140.33222999999998,145.65789002291856L140.3713125,139.56685947552324L140.44079250000001,146.52677253652362L140.71437,142.7406819753349L140.7187125,143.9042966656387L140.77950750000002,143.47618665844203L141.313635,146.83546618390827L141.3614025,147.3371667165309L141.79565250000002,148.4199311474338L142.0866,148.55760481506584L142.9551,146.40008572787045L143.5065975,141.3142959058285L143.51094,146.2347545178607L143.6368725,146.33729249071328L143.6455575,147.6477354655042L144.075465,147.14861639142035L144.72684,141.36325954757632L145.00476,146.75426563080399L145.030815,148.46941569652407L145.05687,148.72670353688298L145.07424,146.83207534085957L145.0785825,148.92040688842533L145.57797,145.62631743326781L145.81680749999998,143.10692929029466L146.3379075,147.75070285722612L146.5810875,148.59171435534952L147.0066525,146.94793271664528L147.0500775,147.76709742676465L147.08047499999998,148.34676097445188L147.15864000000002,144.036719224602L147.40616250000002,148.23607393372802L147.5972325,148.71958474460988L147.9706875,147.80544098764656L148.365855,136.6839884530753L148.37454,147.5846603449434L148.5135,148.91698390077798L148.591665,147.17876884918658L149.82059249999998,145.11140217371283L149.93349750000002,147.8134532349184L150.12456749999998,147.2557287879288L150.363405,149.2558670958504L150.63263999999998,144.5517531719059L150.68909250000002,141.37606134004892L151.08860249999998,149.28813862446694L151.21453499999998,146.59739009868352L151.3838925,147.9211211560294L152.5997925,148.06682190690188L152.94285,149.61626326963307L153.055755,148.50766282361L153.15129000000002,144.38958779275418L153.2337975,149.23222350720314L153.34236,143.82037288807334L153.41183999999998,148.25056455396114L153.46395,149.52840219084175L153.6506775,147.2079429572448L153.94596750000002,147.49107423070816L154.2152025,147.98745854124425L155.11844250000001,147.6850586414337L155.14884,149.6701260779053L155.18792249999998,149.12120430562643L155.4050475,142.2091059230268L155.41807500000002,146.44645060244946L155.50926750000002,148.49863596092908L155.64388499999998,148.36946577597408L155.72639249999997,147.66178265511988L156.3169725,148.46983769740908L156.668715,145.196446891129L156.6730575,150.05057388748975L156.8207025,148.07170458901672L157.41562499999998,149.0534336009994L157.4373375,146.65731504857538L157.5502425,142.9895421613008L157.7499975,148.08450885415076L157.815135,148.80236780103294L158.17122,146.85887816660104L158.3579475,148.8820567337796L158.47085249999998,148.45081139188258L158.64889499999998,148.6201145203784L158.8356225,147.9373360455036L159.4088325,147.13305428456513L159.43922999999998,143.74102353416384L159.4566,149.02608019597827L159.89953500000001,147.21971364989875L160.07323499999998,148.59952219594268L160.48143000000002,145.52944103088228L160.542225,149.81954323891551L160.62039,149.21414587944744L160.802775,148.85490279011427L161.983935,145.5957380292937L162.2140875,149.33947684541343L162.730845,149.76419188845904L163.52118000000002,147.68065235875545L163.6818525,149.81092271693052L164.0900475,145.9547190165147L164.780505,148.9699375938624L164.89341,149.97833920475097L165.06710999999999,146.16087469104676L165.266865,146.83368504345415L165.5491275,150.12582521717997L165.579525,147.14501207526772L165.614265,148.61100111454724L165.82270499999998,148.60736465379594L165.8617875,148.43204059470443L166.117995,147.8860868403688L166.1744475,139.62856062054635L166.80411,145.72154374625532L166.85622,146.06754903048275L166.99952249999998,149.130743833445L167.1819075,149.01591013949363L167.46417,145.98686691205947L167.785515,149.80068754702808L167.9896125,148.23999310210345L168.271875,144.51487754769624L168.3978075,147.39215705841778L168.45426,149.21122484207152L168.7538925,149.88615014422686L168.76692,148.88857137244193L168.9536475,146.3457003638148L169.16643,148.66828526202588L169.40961,146.2068884477019L169.98282,148.45737960487602L170.01756,150.13223765250297L170.0479575,151.1848817702383L170.45181000000002,148.47231118306516L170.50392,150.37118905987592L170.59077,148.63067608159034L171.085815,149.4026047160849L171.103185,149.77005456872286L171.2204325,149.81215080544354L171.2291175,150.44335615653546L171.6199425,147.30196508411316L171.92391750000002,145.29814910441635L172.041165,149.1740022210404L172.0715625,149.16094079911707L172.1931525,144.64517691470684L172.78373249999999,150.05341003015639L173.1832425,146.5891693236306L173.21364,140.0598043140024L173.604465,148.28180003743617L173.6435475,150.99984509702773L173.6956575,138.88315210416914L173.778165,149.4423543971032L173.8519875,145.8847352799028L174.0864825,149.98521320354195L174.1385925,139.92329526990653L174.24715500000002,150.61992478854955L174.4078275,149.5022661594674L174.6596925,149.71014527902008L174.8594475,144.6189254924655L174.941955,141.0149225436151L174.9723525,150.37743829954417L175.1721075,148.5375630699098L175.3979175,147.94528565201907L175.410945,147.58332593198864L175.5629325,148.09109437577425L176.1274575,150.44961034152658L176.35326750000002,148.84286669846622L176.35761000000002,149.7202667064965L176.4488025,150.54348246026785L176.68764000000002,150.2344203863293L177.0654375,149.4890349481255L177.06978,149.2584658630192L177.23479500000002,150.7599631447345L177.3867825,146.55088098552076L177.425865,147.8824660398066L177.5952225,139.2773652199656L177.808005,148.24400540739296L178.04684250000003,146.863046249561L178.1858025,149.37803964894266L178.59833999999998,147.96283660288898L179.2584,151.6703294992447L179.4711825,147.82279412560163L179.6275125,147.8332205146551L179.8967475,147.09123333748428L180.23112,151.66043885350228L180.2441475,149.645659093L180.57417750000002,148.68909353222696L180.66537,147.76647101920096L180.70011000000002,150.9319359233603L180.7565625,151.33722985927017L180.7652475,150.18079577777536L180.7913025,150.61468357052655L181.21686749999998,150.5082659918815L181.2255525,151.18900699373336L181.60335,150.7401538297534L181.6163775,150.95421213023366L181.733625,149.1331324243918L182.47619250000002,149.5715204609558L182.50659000000002,150.95914756245912L182.793195,146.97659333534537L182.81490749999998,146.95997210517524L183.2665275,147.54700995348392L183.34035,144.70634726174177L183.6312975,149.24937306270002L183.7181475,150.7958043722436L184.182795,148.04747003428636L184.408605,149.6305841004476L184.4737425,148.47340986896305L184.53888,150.9094536613673L184.60836,151.44398784097285L184.6648125,152.3598006444052L184.8168,150.5433266825974L184.8993075,144.88898298069836L184.92970499999998,151.89459659457208L185.9415075,150.9597129777074L186.2020575,150.15775304585696L186.3323325,149.26311446651815L186.41484,149.35475212354214L186.8013225,151.5175058349967L186.97068,149.6748571034521L186.98805000000002,150.0736677210778L187.02713250000002,149.78793191090227L187.0531875,148.39535124432294L187.16174999999998,144.3892267841846L187.40927250000001,147.42151661608366L188.04327750000002,148.57116324193774L188.5470075,149.34520682618023L188.69030999999998,148.86247902475296L189.1636425,150.3365239949897L189.1896975,147.46820458509026L189.22877999999997,143.2973275177181L189.7889625,148.80664138421415L189.9366075,144.84579712450505L191.0482875,148.75978032890706L191.13079499999998,150.473035511747L191.3175225,147.14644374623893L191.617155,147.5998771034181L192.5507925,151.84484664648772L192.989385,144.83695159032942L193.22822250000002,151.78918786179275L193.29336,150.25877610147L193.5929925,150.02987771127374L193.74063750000002,147.5302881684154L194.0619825,144.1711034283042L194.1314625,151.51510323230178L194.17923,150.27139491699637L194.326875,148.7769809860736L194.674275,147.85390267912297L194.9391675,150.06662805397065L194.94351,151.11055933702738L195.19537499999998,145.28884530365465L195.282225,142.78303207196296L195.4689525,151.08112889640034L195.490665,150.41824133433403L195.803325,151.4276435488835L196.4156175,151.6593517066911L196.51549500000002,150.60721448455007L196.5198375,150.59544956143947L197.1104175,150.1268645592034L197.5272975,151.3771237788722L197.78350500000002,150.77196132224054L197.8312725,149.41511061340572L199.0645425,149.30902025029062L199.242585,145.907977473177L199.54656,151.0278801323846L199.66815,149.46877396032215L199.8896175,150.87665957696737L200.31084,148.62210830971597L200.4454575,147.38826591353862L200.46716999999998,147.99528286624698L200.5409925,145.86404899433253L200.76246,152.0922982396558L200.927475,149.85208346340806L201.813345,151.39865653887392L202.126005,146.48332375399767L202.5819675,149.78505290877075L202.959765,150.55774724408985L203.011875,143.72108728922905L203.150835,148.83628364950417L203.272425,152.65572546813638L203.6502225,151.35218286719174L203.6936475,150.84248986858876L203.7197025,148.69851025119422L203.7370725,151.4493312623352L203.87168999999997,150.69294165652246L203.880375,150.88668704330922L203.94117,151.66250682268293L203.96722499999998,147.60821079667656L204.28422750000001,150.15765743628145L205.356825,150.65829637292774L205.738965,151.36001461017878L205.85187000000002,148.6416629405692L206.242695,152.2508007830009L206.35994250000002,149.67849603686483L206.6639175,151.51080739516766L206.9592075,151.68263346254827L207.02868750000002,151.95490068588407L207.3152925,151.15778469778598L207.5237325,150.9951198410243L207.5932125,149.0057128837332L207.719145,147.56888311654328L207.8277075,151.46531042475254L207.910215,148.58124180994926L208.535535,151.3874718669802L208.570275,148.6340331315994L208.848195,148.31885204482822L208.9654425,151.60610623955728L209.55168,151.18734866213055L209.5820775,145.19925913140176L209.66024249999998,152.06329474523665L210.10752000000002,151.3715759508312L210.21174,149.71918203234674L210.255165,152.06888872962446L210.31596000000002,151.83493209835143L210.585195,151.47423013877125L210.9977325,151.94933637343348L211.2843375,147.76492395736275L211.34079000000003,149.69345893543215L211.47975,151.0398568801582L211.55791499999998,151.45957385022194L211.60134,150.5493558553979L211.6925325,150.89213926177473L212.165865,144.13075453899802L212.46984,152.2346353467554L212.895405,152.8699753998779L213.4034775,150.50726868510247L213.56849250000002,152.54461024487392L213.711795,149.56246062945576L213.7856175,151.01193064190448L213.95497500000002,149.74340339954944L215.00586,149.08229450527577L215.07534,149.91031464021654L215.70066,152.1565305657685L215.92647,152.9551466351375L216.11754,150.5688041618094L216.2695275,152.1021897096187L216.39980250000002,149.84718759376557L216.5040225,152.42011050526054L216.60824250000002,151.72555227130653L216.64298250000002,150.65680947918446L216.69075,151.44330538641663L216.69509250000002,152.26250636223705L216.95564249999998,152.0963344473392L217.07289,147.53474472854285L217.09026,149.54578500073404L217.15539750000002,150.37273941859604L217.2683025,153.05737428897993L217.31607,147.22054940946398L217.36383750000002,149.92413434498013L217.50714,145.923048344627L217.87625250000002,150.05290725566448L218.106405,140.94381374605L218.123775,146.54083703476934L218.1802275,148.53275374341754L218.5276275,151.95960780903698L218.5449975,150.56062212511898L218.662245,152.13102918416263L218.7013275,150.56263404730709L219.079125,149.13861678745596L219.1095225,149.96893732175232L219.3005925,149.9888166954741L219.530745,150.89139004535974L219.68273250000001,151.98039052840323L219.70010249999999,151.81087062992157L219.964995,147.8546189267188L220.3862175,147.3016568256542L220.5512325,150.09828718677164L220.75098749999998,150.09587139654906L220.75533,151.79545358587058L220.7683575,150.52406877111645L221.0115375,152.65497583961115L221.3763075,149.64080525860192L221.4805275,152.4434940523468L221.69331,149.27991043142973L221.754105,152.67600953411312L222.396795,150.3754173109308L222.52706999999998,146.50297976396976L222.7832775,147.7175848541781L223.00474499999999,151.57945507038386L223.8993,144.75677966438235L223.9383825,150.31648884359748L224.02523250000002,149.71464799549432L224.15985,152.97558318190278L224.168535,148.92518242187796L224.7547725,151.2407738093287L224.9111025,149.66802926100792L225.1021725,149.84484103806318L225.35837999999998,152.3112037807703L225.41049,152.61222475972028L225.90119249999998,150.66678831651808L226.061865,152.17548433989288L226.1964825,152.76608405699955L226.34847,151.07984640933574L226.999845,152.04316975381226L227.0389275,151.8570080196485L227.15617500000002,150.60173341836781L227.28645,152.3660325754434L227.43409499999999,151.16778414063157L227.6295075,153.00451579336078L227.66424750000002,146.23824179470537L227.7858375,148.09775160457937L228.27653999999998,152.8491617722437L228.34601999999998,152.5918887678534L228.4458975,152.02812855429949L228.615255,149.44396492391826L228.6890775,152.00144276786597L229.06253249999997,152.44455853309483L229.101615,150.9311636287719L229.24926,144.9102231424302L229.7486475,152.45084239002318L229.918005,145.43487739115952L230.14381500000002,149.95380793064834L231.394455,151.5974585182965L231.4856475,152.56608407311143L232.09794000000002,153.0497481890023L232.28466749999998,152.72390498612077L232.51482000000001,152.40159645276145L232.5452175,152.44887868473307L232.6320675,143.6147084489465L232.7449725,152.26189891174437L233.1357975,150.56864755991847L233.36160750000002,150.96584352962674L233.6221575,153.0359284842387L233.652555,151.451277246885L233.7784875,150.41611237283797L234.00863999999999,146.70761722438036L234.02601,152.86050345813857L234.08246250000002,150.13309896290303L234.1432575,150.9863031545654L234.2474775,149.7237102996558L234.2995875,151.98664801027627L234.4385475,153.0091223616153L234.468945,147.7146061213687L234.52974,151.1988778581843L235.0204425,151.74830240495504L235.06821,152.50870802504943L235.094265,152.09761363752187L235.27230749999998,151.1357516359538L235.2896775,153.2480564603582L235.3504725,151.16985046137125L235.45035,148.50530967414377L235.910655,152.85717608006672L236.0973825,150.6399170804769L236.2884525,152.09539401177318L236.3666175,151.40701907984914L236.43609750000002,152.74065479468555L236.5663725,151.2404886290431L236.866005,147.73510942999272L237.4088175,153.0706017913297L237.595545,153.10175979807974L237.60423,153.24405734259636L237.7649025,148.93060002308337L237.76924499999998,150.89142548684032L237.81267,154.157929518912L237.84741,153.11611813092605L237.9559725,151.9704463083297L238.3164,151.3666487608105L238.33811250000002,144.52821013815702L238.40324999999999,152.72040040064604L239.24569499999998,145.0842787262052L239.84496000000001,149.7026918532327L240.76557,152.81545321522282L241.104285,147.21339682415126L241.33878,152.3324925715104L241.4473425,150.9361056547612L241.9944975,151.53444521427156L242.34624000000002,149.97363537847997L242.5590225,152.96471830755473L242.6111325,152.12742734067143L242.69364,152.3923507595435L242.94984749999998,151.98855608068408L243.4535775,149.53398958146573L243.79663499999998,152.58349861549215L243.97902,151.25472044404597L244.29168,151.88217971306295L244.508805,151.8805304478854L244.55222999999998,150.35807159096004" style="fill: none;" fill="none"></path></g></g></g></g></g></g><g transform="translate(58, 177)" clip-path="url(#clip_1)"><clipPath id="clip_1"><rect width="271" height="23"></rect></clipPath><g><g><line x1="0" y1="0" x2="0" y2="5" style="visibility: inherit;" fill="rgb(0, 0, 0)" stroke="rgb(204, 204, 204)" stroke-width="1px"></line><line x1="27.140625" y1="0" x2="27.140625" y2="5" style="visibility: inherit;" fill="rgb(0, 0, 0)" stroke="rgb(204, 204, 204)" stroke-width="1px"></line><line x1="54.28125" y1="0" x2="54.28125" y2="5" style="visibility: inherit;" fill="rgb(0, 0, 0)" stroke="rgb(204, 204, 204)" stroke-width="1px"></line><line x1="81.421875" y1="0" x2="81.421875" y2="5" style="visibility: inherit;" fill="rgb(0, 0, 0)" stroke="rgb(204, 204, 204)" stroke-width="1px"></line><line x1="108.5625" y1="0" x2="108.5625" y2="5" style="visibility: inherit;" fill="rgb(0, 0, 0)" stroke="rgb(204, 204, 204)" stroke-width="1px"></line><line x1="135.703125" y1="0" x2="135.703125" y2="5" style="visibility: inherit;" fill="rgb(0, 0, 0)" stroke="rgb(204, 204, 204)" stroke-width="1px"></line><line x1="162.84375" y1="0" x2="162.84375" y2="5" style="visibility: inherit;" fill="rgb(0, 0, 0)" stroke="rgb(204, 204, 204)" stroke-width="1px"></line><line x1="189.984375" y1="0" x2="189.984375" y2="5" style="visibility: inherit;" fill="rgb(0, 0, 0)" stroke="rgb(204, 204, 204)" stroke-width="1px"></line><line x1="217.125" y1="0" x2="217.125" y2="5" style="visibility: inherit;" fill="rgb(0, 0, 0)" stroke="rgb(204, 204, 204)" stroke-width="1px"></line><line x1="244.265625" y1="0" x2="244.265625" y2="5" style="visibility: inherit;" fill="rgb(0, 0, 0)" stroke="rgb(204, 204, 204)" stroke-width="1px"></line><line x1="271.40625" y1="0" x2="271.40625" y2="5" style="visibility: inherit;" fill="rgb(0, 0, 0)" stroke="rgb(204, 204, 204)" stroke-width="1px"></line></g><g transform="translate(0, 8)"><text x="0" y="0" dx="0em" dy="0.95em" style="text-anchor: middle; visibility: hidden; font-family: &quot;Helvetica Neue&quot;, sans-serif; font-size: 12px; font-weight: 200;" fill="rgb(50, 49, 63)" stroke="none" stroke-width="1px">-50k</text><text x="27.140625" y="0" dx="0em" dy="0.95em" style="text-anchor: middle; visibility: inherit; font-family: &quot;Helvetica Neue&quot;, sans-serif; font-size: 12px; font-weight: 200;" fill="rgb(50, 49, 63)" stroke="none" stroke-width="1px">0</text><text x="54.28125" y="0" dx="0em" dy="0.95em" style="text-anchor: middle; visibility: hidden; font-family: &quot;Helvetica Neue&quot;, sans-serif; font-size: 12px; font-weight: 200;" fill="rgb(50, 49, 63)" stroke="none" stroke-width="1px">50k</text><text x="81.421875" y="0" dx="0em" dy="0.95em" style="text-anchor: middle; visibility: inherit; font-family: &quot;Helvetica Neue&quot;, sans-serif; font-size: 12px; font-weight: 200;" fill="rgb(50, 49, 63)" stroke="none" stroke-width="1px">100k</text><text x="108.5625" y="0" dx="0em" dy="0.95em" style="text-anchor: middle; visibility: hidden; font-family: &quot;Helvetica Neue&quot;, sans-serif; font-size: 12px; font-weight: 200;" fill="rgb(50, 49, 63)" stroke="none" stroke-width="1px">150k</text><text x="135.703125" y="0" dx="0em" dy="0.95em" style="text-anchor: middle; visibility: inherit; font-family: &quot;Helvetica Neue&quot;, sans-serif; font-size: 12px; font-weight: 200;" fill="rgb(50, 49, 63)" stroke="none" stroke-width="1px">200k</text><text x="162.84375" y="0" dx="0em" dy="0.95em" style="text-anchor: middle; visibility: hidden; font-family: &quot;Helvetica Neue&quot;, sans-serif; font-size: 12px; font-weight: 200;" fill="rgb(50, 49, 63)" stroke="none" stroke-width="1px">250k</text><text x="189.984375" y="0" dx="0em" dy="0.95em" style="text-anchor: middle; visibility: inherit; font-family: &quot;Helvetica Neue&quot;, sans-serif; font-size: 12px; font-weight: 200;" fill="rgb(50, 49, 63)" stroke="none" stroke-width="1px">300k</text><text x="217.125" y="0" dx="0em" dy="0.95em" style="text-anchor: middle; visibility: hidden; font-family: &quot;Helvetica Neue&quot;, sans-serif; font-size: 12px; font-weight: 200;" fill="rgb(50, 49, 63)" stroke="none" stroke-width="1px">350k</text><text x="244.265625" y="0" dx="0em" dy="0.95em" style="text-anchor: middle; visibility: inherit; font-family: &quot;Helvetica Neue&quot;, sans-serif; font-size: 12px; font-weight: 200;" fill="rgb(50, 49, 63)" stroke="none" stroke-width="1px">400k</text><text x="271.40625" y="0" dx="0em" dy="0.95em" style="text-anchor: middle; visibility: hidden; font-family: &quot;Helvetica Neue&quot;, sans-serif; font-size: 12px; font-weight: 200;" fill="rgb(50, 49, 63)" stroke="none" stroke-width="1px">450k</text></g><line x1="0" y1="0" x2="271.40625" y2="0" fill="rgb(0, 0, 0)" stroke="rgb(204, 204, 204)" stroke-width="1px"></line></g></g></g></g></svg>