<svg viewBox="0 0 330 200" xmlns="http://www.w3.org/2000/svg"><g><g><g><g><g><line x1="48.875" y1="177" x2="43.875" y2="177" style="visibility: inherit;" fill="rgb(0, 0, 0)" stroke="rgb(204, 204, 204)" stroke-width="1px"></line><line x1="48.875" y1="162.25000000000003" x2="43.875" y2="162.25000000000003" style="visibility: inherit;" fill="rgb(0, 0, 0)" stroke="rgb(204, 204, 204)" stroke-width="1px"></line><line x1="48.875" y1="147.5" x2="43.875" y2="147.5" style="visibility: inherit;" fill="rgb(0, 0, 0)" stroke="rgb(204, 204, 204)" stroke-width="1px"></line><line x1="48.875" y1="132.75" x2="43.875" y2="132.75" style="visibility: inherit;" fill="rgb(0, 0, 0)" stroke="rgb(204, 204, 204)" stroke-width="1px"></line><line x1="48.875" y1="118.00000000000003" x2="43.875" y2="118.00000000000003" style="visibility: inherit;" fill="rgb(0, 0, 0)" stroke="rgb(204, 204, 204)" stroke-width="1px"></line><line x1="48.875" y1="103.25000000000001" x2="43.875" y2="103.25000000000001" style="visibility: inherit;" fill="rgb(0, 0, 0)" stroke="rgb(204, 204, 204)" stroke-width="1px"></line><line x1="48.875" y1="88.5" x2="43.875" y2="88.5" style="visibility: inherit;" fill="rgb(0, 0, 0)" stroke="rgb(204, 204, 204)" stroke-width="1px"></line><line x1="48.875" y1="73.75" x2="43.875" y2="73.75" style="visibility: inherit;" fill="rgb(0, 0, 0)" stroke="rgb(204, 204, 204)" stroke-width="1px"></line><line x1="48.875" y1="58.99999999999997" x2="43.875" y2="58.99999999999997" style="visibility: inherit;" fill="rgb(0, 0, 0)" stroke="rgb(204, 204, 204)" stroke-width="1px"></line><line x1="48.875" y1="44.25000000000003" x2="43.875" y2="44.25000000000003" style="visibility: inherit;" fill="rgb(0, 0, 0)" stroke="rgb(204, 204, 204)" stroke-width="1px"></line><line x1="48.875" y1="29.50000000000003" x2="43.875" y2="29.50000000000003" style="visibility: inherit;" fill="rgb(0, 0, 0)" stroke="rgb(204, 204, 204)" stroke-width="1px"></line><line x1="48.875" y1="14.75" x2="43.875" y2="14.75" style="visibility: inherit;" fill="rgb(0, 0, 0)" stroke="rgb(204, 204, 204)" stroke-width="1px"></line><line x1="48.875" y1="0" x2="43.875" y2="0" style="visibility: inherit;" fill="rgb(0, 0, 0)" stroke="rgb(204, 204, 204)" stroke-width="1px"></line></g><g transform="translate(38.875, 0)"><text x="0" y="177" dx="0em" dy="0.3em" style="text-anchor: end; visibility: hidden; font-family: &quot;Helvetica Neue&quot;, sans-serif; font-size: 12px; font-weight: 200;" fill="rgb(50, 49, 63)" stroke="none" stroke-width="1px">0.4</text><text x="0" y="162.25000000000003" dx="0em" dy="0.3em" style="text-anchor: end; visibility: inherit; font-family: &quot;Helvetica Neue&quot;, sans-serif; font-size: 12px; font-weight: 200;" fill="rgb(50, 49, 63)" stroke="none" stroke-width="1px">0.42</text><text x="0" y="147.5" dx="0em" dy="0.3em" style="text-anchor: end; visibility: hidden; font-family: &quot;Helvetica Neue&quot;, sans-serif; font-size: 12px; font-weight: 200;" fill="rgb(50, 49, 63)" stroke="none" stroke-width="1px">0.44</text><text x="0" y="132.75" dx="0em" dy="0.3em" style="text-anchor: end; visibility: inherit; font-family: &quot;Helvetica Neue&quot;, sans-serif; font-size: 12px; font-weight: 200;" fill="rgb(50, 49, 63)" stroke="none" stroke-width="1px">0.46</text><text x="0" y="118.00000000000003" dx="0em" dy="0.3em" style="text-anchor: end; visibility: hidden; font-family: &quot;Helvetica Neue&quot;, sans-serif; font-size: 12px; font-weight: 200;" fill="rgb(50, 49, 63)" stroke="none" stroke-width="1px">0.48</text><text x="0" y="103.25000000000001" dx="0em" dy="0.3em" style="text-anchor: end; visibility: inherit; font-family: &quot;Helvetica Neue&quot;, sans-serif; font-size: 12px; font-weight: 200;" fill="rgb(50, 49, 63)" stroke="none" stroke-width="1px">0.5</text><text x="0" y="88.5" dx="0em" dy="0.3em" style="text-anchor: end; visibility: hidden; font-family: &quot;Helvetica Neue&quot;, sans-serif; font-size: 12px; font-weight: 200;" fill="rgb(50, 49, 63)" stroke="none" stroke-width="1px">0.52</text><text x="0" y="73.75" dx="0em" dy="0.3em" style="text-anchor: end; visibility: inherit; font-family: &quot;Helvetica Neue&quot;, sans-serif; font-size: 12px; font-weight: 200;" fill="rgb(50, 49, 63)" stroke="none" stroke-width="1px">0.54</text><text x="0" y="58.99999999999997" dx="0em" dy="0.3em" style="text-anchor: end; visibility: hidden; font-family: &quot;Helvetica Neue&quot;, sans-serif; font-size: 12px; font-weight: 200;" fill="rgb(50, 49, 63)" stroke="none" stroke-width="1px">0.56</text><text x="0" y="44.25000000000003" dx="0em" dy="0.3em" style="text-anchor: end; visibility: inherit; font-family: &quot;Helvetica Neue&quot;, sans-serif; font-size: 12px; font-weight: 200;" fill="rgb(50, 49, 63)" stroke="none" stroke-width="1px">0.58</text><text x="0" y="29.50000000000003" dx="0em" dy="0.3em" style="text-anchor: end; visibility: hidden; font-family: &quot;Helvetica Neue&quot;, sans-serif; font-size: 12px; font-weight: 200;" fill="rgb(50, 49, 63)" stroke="none" stroke-width="1px">0.6</text><text x="0" y="14.75" dx="0em" dy="0.3em" style="text-anchor: end; visibility: inherit; font-family: &quot;Helvetica Neue&quot;, sans-serif; font-size: 12px; font-weight: 200;" fill="rgb(50, 49, 63)" stroke="none" stroke-width="1px">0.62</text><text x="0" y="0" dx="0em" dy="0.3em" style="text-anchor: end; visibility: hidden; font-family: &quot;Helvetica Neue&quot;, sans-serif; font-size: 12px; font-weight: 200;" fill="rgb(50, 49, 63)" stroke="none" stroke-width="1px">0.64</text></g><line x1="48.875" y1="0" x2="48.875" y2="177" fill="rgb(0, 0, 0)" stroke="rgb(204, 204, 204)" stroke-width="1px"></line></g></g><g transform="translate(48, 0)" clip-path="url(#clip_0)"><clipPath id="clip_0"><rect width="281" height="177"></rect></clipPath><g><g><g><line x1="0" y1="0" x2="0" y2="177" fill="rgb(0, 0, 0)" stroke="rgb(60, 60, 60)" stroke-width="1px" opacity="0.25"></line><line x1="28.1125" y1="0" x2="28.1125" y2="177" fill="rgb(0, 0, 0)" stroke="rgb(60, 60, 60)" stroke-width="1px" opacity="0.25"></line><line x1="56.225" y1="0" x2="56.225" y2="177" fill="rgb(0, 0, 0)" stroke="rgb(60, 60, 60)" stroke-width="1px" opacity="0.25"></line><line x1="84.33749999999999" y1="0" x2="84.33749999999999" y2="177" fill="rgb(0, 0, 0)" stroke="rgb(60, 60, 60)" stroke-width="1px" opacity="0.25"></line><line x1="112.45" y1="0" x2="112.45" y2="177" fill="rgb(0, 0, 0)" stroke="rgb(60, 60, 60)" stroke-width="1px" opacity="0.25"></line><line x1="140.5625" y1="0" x2="140.5625" y2="177" fill="rgb(0, 0, 0)" stroke="rgb(60, 60, 60)" stroke-width="1px" opacity="0.25"></line><line x1="168.67499999999998" y1="0" x2="168.67499999999998" y2="177" fill="rgb(0, 0, 0)" stroke="rgb(60, 60, 60)" stroke-width="1px" opacity="0.25"></line><line x1="196.7875" y1="0" x2="196.7875" y2="177" fill="rgb(0, 0, 0)" stroke="rgb(60, 60, 60)" stroke-width="1px" opacity="0.25"></line><line x1="224.9" y1="0" x2="224.9" y2="177" fill="rgb(0, 0, 0)" stroke="rgb(60, 60, 60)" stroke-width="1px" opacity="0.25"></line><line x1="253.01250000000002" y1="0" x2="253.01250000000002" y2="177" fill="rgb(0, 0, 0)" stroke="rgb(60, 60, 60)" stroke-width="1px" opacity="0.25"></line><line x1="281.125" y1="0" x2="281.125" y2="177" fill="rgb(0, 0, 0)" stroke="rgb(60, 60, 60)" stroke-width="1px" opacity="0.25"></line></g><g><line x1="0" y1="177" x2="281.125" y2="177" fill="rgb(0, 0, 0)" stroke="rgb(60, 60, 60)" stroke-width="1px" opacity="0.25"></line><line x1="0" y1="162.25000000000003" x2="281.125" y2="162.25000000000003" fill="rgb(0, 0, 0)" stroke="rgb(60, 60, 60)" stroke-width="1px" opacity="0.25"></line><line x1="0" y1="147.5" x2="281.125" y2="147.5" fill="rgb(0, 0, 0)" stroke="rgb(60, 60, 60)" stroke-width="1px" opacity="0.25"></line><line x1="0" y1="132.75" x2="281.125" y2="132.75" fill="rgb(0, 0, 0)" stroke="rgb(60, 60, 60)" stroke-width="1px" opacity="0.25"></line><line x1="0" y1="118.00000000000003" x2="281.125" y2="118.00000000000003" fill="rgb(0, 0, 0)" stroke="rgb(60, 60, 60)" stroke-width="1px" opacity="0.25"></line><line x1="0" y1="103.25000000000001" x2="281.125" y2="103.25000000000001" fill="rgb(0, 0, 0)" stroke="rgb(60, 60, 60)" stroke-width="1px" opacity="0.25"></line><line x1="0" y1="88.5" x2="281.125" y2="88.5" fill="rgb(0, 0, 0)" stroke="rgb(60, 60, 60)" stroke-width="1px" opacity="0.25"></line><line x1="0" y1="73.75" x2="281.125" y2="73.75" fill="rgb(0, 0, 0)" stroke="rgb(60, 60, 60)" stroke-width="1px" opacity="0.25"></line><line x1="0" y1="58.99999999999997" x2="281.125" y2="58.99999999999997" fill="rgb(0, 0, 0)" stroke="rgb(60, 60, 60)" stroke-width="1px" opacity="0.25"></line><line x1="0" y1="44.25000000000003" x2="281.125" y2="44.25000000000003" fill="rgb(0, 0, 0)" stroke="rgb(60, 60, 60)" stroke-width="1px" opacity="0.25"></line><line x1="0" y1="29.50000000000003" x2="281.125" y2="29.50000000000003" fill="rgb(0, 0, 0)" stroke="rgb(60, 60, 60)" stroke-width="1px" opacity="0.25"></line><line x1="0" y1="14.75" x2="281.125" y2="14.75" fill="rgb(0, 0, 0)" stroke="rgb(60, 60, 60)" stroke-width="1px" opacity="0.25"></line><line x1="0" y1="0" x2="281.125" y2="0" fill="rgb(0, 0, 0)" stroke="rgb(60, 60, 60)" stroke-width="1px" opacity="0.25"></line></g></g></g><g><g><line x1="0" y1="472" x2="281.125" y2="472" fill="rgb(0, 0, 0)" stroke="rgb(153, 153, 153)" stroke-width="1.5px"></line></g></g><g><g><line x1="28.1125" y1="0" x2="28.1125" y2="177" fill="rgb(0, 0, 0)" stroke="rgb(153, 153, 153)" stroke-width="1.5px"></line></g></g><g><g><g><g><g><path stroke="rgb(255, 112, 67)" stroke-width="2px" d="M30.523428000000003,-9.757652885230272L30.716842,49.15521211548507L30.748328,-61.17252992247725L30.964232000000003,12.595458335066496L31.022706000000003,-15.849972195357168L31.360056,-56.975668031543194L31.64343,1.0835464665711925L31.719896000000002,-45.96044817046328L31.746884,13.884937672131827L31.872828000000002,16.0822149925892L32.480058,31.271049219409235L32.673472,36.33821971359228L32.907368,45.52763802950966L33.078292000000005,60.60959633268722L33.420139999999996,52.86135290083341L33.784478,93.98891605300335L34.031867999999996,88.56114454799143L34.045362000000004,81.74719012465233L34.108334,40.81502710539428L34.126326,90.14890390660321L34.34223,70.59840781804523L34.373716,66.84114889750182L34.571628000000004,60.30040747150552L34.706568,52.04489720546607L34.962954,30.53922173893659L35.093396,35.59221789953796L35.165364000000004,41.50992139694378L35.237332,15.353685684503347L35.718618,62.08717698519504L35.912031999999996,95.98292966637729L35.925526,24.937847955288504L36.406812,-1.058392356854739L36.505768,-19.055739075958712L36.555246000000004,76.73261213370859L36.735166,86.95032421399682L36.811632,96.8443113962268L36.870106,93.3583646535447L37.270428,83.01827939267558L37.540307999999996,66.70032644219833L37.949626,60.9817752954187L38.003602,-7.628253667569879L38.147538000000004,21.93914354502826L38.174526,64.89374791777519L38.286976,45.87574102399418L38.489386,61.891671156393315L38.858222000000005,56.13399667472038L39.069627999999994,68.13797015506279L39.146094000000005,56.30377123688595L39.155089999999994,65.98995475730275L39.177580000000006,83.07327334142315L39.29003,76.37226260934223L39.294528,60.89698723098009L39.348504000000005,87.39105274760945L39.370994,138.4964413552536L39.501436,132.16932761127075L39.568906,133.00090569528533L40.18963,135.36040169759153L40.43702,120.95466191031667L41.458065999999995,36.05112160717326L41.777423999999996,93.51203089043429L41.790918000000005,71.07195438793266L42.051801999999995,102.19251298815587L42.330678,78.29396153635126L42.641040000000004,100.63860272256336L42.704012000000006,44.80549551777719L42.713007999999995,47.16909507353708L42.717506,88.83143953943018L42.97839,114.40293446459631L43.76554,144.44740154313007L44.386264,114.28558973054264L44.39526,118.94028473246203L44.62016,106.72510621755191L44.939518,99.32146320229096L45.173414,75.49331282070476L45.267872,53.03545297677046L45.299358,8.214687165586497L45.780643999999995,79.43350356040501L45.906588,40.18807076941795L46.032532,83.74922049958029L46.266428,70.30421424459523L46.545304,35.74751160473295L46.986108,90.75143068987533L47.125546,79.29359756683351L47.148036,87.723885123581L47.530366,56.01704163828512L47.539362000000004,90.6248961477221L47.9037,94.78397073678622L48.317516,54.796111645295866L48.393981999999994,51.29938134073889L48.48844,10.129705467937384L49.091172,51.9083896154868L49.109164,-6.5219170049007005L49.145148,28.638419783402952L49.648923999999994,62.36532813685507L49.711895999999996,55.20300414787151L49.882819999999995,19.120872346320226L49.936796,47.64748090968038L50.125712,98.4282765237421L50.472058,73.1294160633046L50.8274,130.24868049316157L50.836396,101.46562299783561L51.079288,79.86918926033695L51.205232,72.3394209014972L51.677521999999996,67.11790857717989L52.154309999999995,108.96881852153298L52.217282,128.00782675506687L52.491659999999996,113.37148137665997L53.071902,125.51418361531027L53.656642000000005,122.03926593343216L53.854554,91.00622390675423L54.236883999999996,63.310953157948745L54.326844,88.45951721537554L54.488772,17.965557417085392L54.520258,7.555128825194004L54.682185999999994,45.76490656881708L54.776644,53.532308008367835L55.055519999999994,55.16028567915856L55.14548,109.78113903263626L55.644758,125.28196365630279L55.689738,84.81223672029766L56.000099999999996,72.44730113385556L56.058574,49.11978558563251L56.085561999999996,89.64016392149367L56.144036,106.4873886842599L56.400422,121.48762813443366L56.503876,44.77357196351545L56.791748,62.734029206875945L57.439460000000004,87.21727034046894L57.682352,84.09985905048039L57.812794,96.30804755185119L58.055686,69.92454979356572L58.231108,89.4058059843567L58.244602,59.86290168715638L58.298578,98.56086656423277L58.438016,169.98497362716117L58.941792,100.14772369732337L59.445568,52.88302607697176L59.562516,103.5132957420464L60.075288,60.58084837923744L60.111272,69.71243071752966L60.29569,36.75771985172142L60.709506000000005,96.82158793043443L60.997378,78.66987838167758L61.213282,76.51245988499409L61.316736,67.00661006624273L61.6226,128.3329294982837L61.66758,101.0095901884607L61.681073999999995,98.58198722588847L61.748544,92.2027851247062L61.896978000000004,-4.055625146432533L62.715614,-55.522049287440666L63.01698,9.273477500985678L63.142924,26.496213785595017L63.187903999999996,108.46151661383291L63.345334,110.06363278333654L64.056018,102.41645368161383L64.39336800000001,105.00579223169436L64.90614,54.29747821768258L65.090558,91.52191314029777L65.598832,47.65579188423206L65.72927399999999,82.23926927183183L65.75176400000001,97.27119975408387L65.79224599999999,98.15025109720511L66.19706599999999,83.83508435888459L66.21056,96.09529849888902L66.336504,99.37192684413203L66.381484,104.63628035188441L66.799798,114.42062285185293L66.95273,109.48191305780675L67.22261,100.37922488918463L68.045744,76.69438293737508L68.162692,85.89921670652825L68.176186,55.119174334391374L68.270644,15.51817100821998L68.30213,81.26627772795595L68.563014,92.93594883529802L68.590002,140.286856202176L68.84188999999999,95.32764100306679L69.76398,110.17494917674928L70.015868,39.18318109967757L70.15980400000001,25.453490705838504L70.55113,62.03703225943488L70.699564,122.81179248865271L71.05490599999999,111.20647506461039L71.08639199999999,111.62066891518532L71.14486600000001,112.01933841542782L71.414746,107.48193847320306L71.54968600000001,83.67756512869492L71.65314,138.4416533417052L71.734104,122.41258732715526L72.386314,136.43291187429L72.674186,93.81273299541219L73.35338399999999,101.98905627778858L73.470332,66.11412655622777L74.33394799999999,100.41876047438987L74.365434,95.21440307847622L74.87370800000001,90.32262026400545L74.887202,105.62998066622723L74.98166,81.55409823822207L75.24704200000001,134.6294137177898L75.440456,62.849630602480985L75.82278600000001,64.03083936469677L75.962224,84.9135191386755L76.03419199999999,74.80477523480748L76.11065799999999,87.30496549412545L76.290578,81.66998560312356L76.49748600000001,82.34032924820764L76.501984,140.88457774430387L76.60094,104.00296186989469L76.75837,72.71001454344946L76.875318,89.68740954489449L76.9158,64.07732255751456L77.149696,101.82133895453553L77.16319,119.14426037846056L77.316122,106.7010397146824L77.334114,75.37726969901821L77.437568,109.29660644760192L77.464556,84.6022954859165L77.473552,102.05188778506684L77.68046,86.00543734709598L78.049296,53.64972475338094L78.134758,99.54993683795999L78.17524,93.1926847499661L78.481104,72.16648231757007L78.4901,75.24488585479452L78.75998,30.129102321191965L79.475162,74.44912629230278L79.71355600000001,54.606246917864425L79.803516,61.64610835875321L79.942954,34.48736674168856L79.983436,81.81205206858604L80.059902,61.0488857135027L80.13636799999999,85.3182855906993L80.505204,125.2698285557574L80.60865799999999,119.47816604243192L80.67163,125.72845147172498L81.00448200000001,110.34915556979114L81.517254,116.69120397252996L81.949062,129.76281636406875L81.971552,172.12694198757347L82.13347999999999,156.0267020396587L82.272918,101.54304831815935L82.709224,122.96255685444581L82.826172,126.84726187918132L82.844164,60.29131100972624L82.91613199999999,51.67980667591178L83.105048,89.37035566353855L83.39292,56.33640422692332L83.406414,116.1648848192122L83.478382,58.97279795028123L83.91019,60.16255512247889L84.148584,32.77776183134563L85.106658,41.293239590205275L85.232602,88.99802957575174L85.70939,64.2787608659306L86.033246,31.031538185837178L86.312122,53.011735509253924L86.662966,126.24414432669727L86.739432,114.56311688795718L86.86087799999999,108.6352798579635L86.95533599999999,172.1740017258228L87.009312,141.38333861369497L87.07678200000001,166.58038808309203L87.333168,138.3783982479761L87.66152199999999,122.99833399559199L88.156302,95.14090812507358L88.394696,99.6984710055774L88.412688,125.75666356433543L88.853492,109.87112853735158L89.04240800000001,106.0243352759449L89.271806,58.76831205538319L89.37526,42.323932348796234L89.640642,6.626735853617475L89.654136,49.00121036616872L90.07694799999999,67.04997898011159L90.22988000000001,90.1619451574609L90.38730999999999,88.90712756706031L90.562732,114.88863487120123L90.97654800000001,88.30937336132315L91.075504,72.69398390200959L91.44434,67.47041658727663L92.078558,85.83331778149807L92.375426,147.91678775847558L92.406912,106.00690631568794L92.44739399999999,128.60081223547675L92.52386000000001,95.87957165181767L92.604824,52.40608072006782L92.870206,89.38473462297961L93.095106,43.176581902709245L93.306512,24.694617404584022L93.58988599999999,60.04449092986822L93.92723600000001,30.007999072329085L93.954224,49.9398788868522L94.089164,55.730971506782524L94.12964600000001,57.57779383155594L94.174626,84.9416921227747L94.588442,84.71860203084788L94.62892400000001,86.08948004804512L94.646916,110.06363478638208L94.723382,137.80526447497292L95.011254,167.49491385342176L95.096716,129.827227292785L95.703946,71.82835470338401L95.98732000000001,32.54715316712699L96.194228,75.00730184447674L96.39214000000001,52.81646570999571L96.778968,33.59896289967986L97.039852,38.79348162212068L97.710054,48.407019563902026L97.71905000000001,42.07373945020947L97.86298599999999,61.82048884691784L98.00242399999999,126.96296871103041L98.267806,127.57895266054389L98.91102,153.9846261324782L99.01897199999999,69.74642341031425L99.059454,74.65540273603081L99.306844,71.64732492933447L99.986042,83.153177410184L100.049014,89.70741283286728L100.50781,89.43473285072511L100.602268,98.6228403069584L101.20050200000001,121.89320310461574L101.524358,98.27172304694683L101.623314,74.61035611334343L101.69978,103.52870699824634L101.906688,150.27836522496787L102.05962,156.63689267061386L102.35199,139.94178145779512L102.71183,138.42246742637957L103.053678,156.27926286811834L103.215606,82.74349215480807L103.714884,104.70691994341088L103.719382,101.28957202143592L103.87231399999999,147.5639967805572L103.93528599999999,127.86564943113493L104.124202,45.21883889984235L104.875368,74.35626609892336L105.014806,84.84597433668785L105.167738,93.28791565932285L105.653522,83.70012834809692L105.801956,66.3573423215298L105.88292,68.37817251614027L105.891916,53.44551460701999L105.999868,68.0170584604667L106.004366,73.63689688953916L106.01786,78.26061282225353L106.10332199999999,111.11623475949708L106.260752,117.62819819450823L106.40019,121.62815490842135L106.57561199999999,128.9651876239793L106.620592,138.77148904495337L107.020914,101.93896881397306L107.08388599999999,115.49040794167364L107.214328,106.17125348921684L107.25031200000001,124.70949888036291L107.380754,137.77024780396007L107.826056,118.81686772515405L108.865094,90.57890614038729L108.99103799999999,60.651970792806324L109.03152,73.03322462379711L109.157464,66.1866189011322L109.31489400000001,46.382701800369404L109.36887,32.47089653378916L109.65674200000001,15.589988393582104L110.26397200000001,8.219184126256181L110.506864,55.37763236510651L111.105098,60.19435677854956L111.10959600000001,78.86359356003246L111.739316,75.87306124065665L112.283574,40.02351659592597L112.31506,58.19015476737384L112.87731,84.60011203070862L113.38558400000001,126.00488648998964L113.471046,149.32866227142944L113.59699,87.25323283382018L113.695946,38.04509408299779L113.79040400000001,72.78849273934757L114.096268,97.4438547969746L114.33466200000001,93.17912523036529L114.595546,91.42877085259757L114.79345799999999,108.84108815342901L115.75603000000001,71.38150502294724L115.836994,43.76358644396322L115.93594999999999,55.357684279860564L115.962938,86.46796146952005L116.45322,96.63783450676732L116.516192,93.39309810253219L116.56567,127.9914449849858L116.81306000000001,103.74560606474483L116.862538,74.48927944895509L116.889526,55.282382929306564L117.15490799999999,44.89532640217624L117.276354,37.57315211676885L117.37980800000001,52.252458877464164L117.694668,81.35536666339637L117.793624,101.84102021828889L117.942058,56.159856147620644L118.05001,92.85492080870488L118.22993,118.30853260411752L118.310894,136.09828662785253L118.337882,102.31036317296241L118.35137599999999,126.47670242159018L118.693224,96.1645397005585L118.697722,106.48599539745496L118.90912800000001,100.74806858628178L119.04856600000001,101.55243490653746L119.170012,93.66733981679387L119.183506,76.25207907861777L119.205996,55.501546948589734L119.525354,25.651498180292748L119.574832,55.83494044641415L119.79523400000001,79.31959149420116L120.05162,85.41168943154726L120.25402999999999,111.70522083704421L120.43844800000001,105.27087043443173L120.496922,128.42338084410935L120.50142000000001,138.36041350502558L120.600376,98.11729024254552L120.67234400000001,78.6782734894948L121.171622,92.15641895557621L121.26608,162.49325461760273L121.576442,84.04786137089205L121.58993600000001,98.2579848488871L121.594434,119.84429178361319L121.810338,139.11578536465305L121.91829,73.33820127507765L122.512026,78.89930350220631L122.87186600000001,87.54515797279137L122.93034,114.27434762347852L123.21821200000001,84.10885714309877L123.510582,74.5061814237682L123.614036,83.37879301601939L123.991868,81.05760293897563L124.005362,63.39438102064476L124.02785200000001,90.43196379791463L124.329218,54.49692724735007L124.41018199999999,2.006616452875562L124.747532,73.68205463262967L124.92295399999999,106.41221140845164L125.633638,57.123960214993616L125.82255400000001,84.6989144314177L125.827052,108.61297191553399L126.119422,125.82918375356846L126.14641,97.00454340948973L126.263358,96.85906633480977L126.357816,92.26758881059045L126.384804,56.769249210636346L127.095488,82.08396208279164L128.17051,146.68037208910485L128.228984,190.98037329909627L128.489868,180.53550890897785L128.55284,150.54135519155906L128.678784,107.11350712710052L129.191556,44.77557111700432L129.348986,125.72046966505087L129.515412,82.73738508911151L129.92473,94.47035845214857L130.50947,61.848389292327965L130.84682,117.57195533190274L131.25164,139.67925711795152L131.265134,120.23013837530887L131.92633999999998,111.28406742450403L131.944332,90.4439558222104L132.137746,81.57616498674207L132.18722400000001,103.4494912660435L132.232204,40.16815196492169L132.385136,44.15699737678705L132.430116,56.82106766349516L132.547064,61.59331715849899L132.749474,77.17399760930454L132.852928,92.00871630220837L133.082326,79.21615243976848L133.190278,43.94179140940622L133.27574,60.10350473770686L133.487146,88.99855745464075L133.99542,69.68680793422168L134.215822,32.852623357639914L134.58016,83.55959121839183L134.629638,85.9737972763537L134.719598,141.95653698726647L135.04795199999998,121.09279549052806L135.304338,106.64023920256194L135.78562399999998,121.56420795535021L136.419842,141.89695511111603L136.595264,127.45413140564551L136.725706,149.73923929994933L137.117032,85.87999240437532L137.332936,82.74581404852493L137.34193199999999,91.64293709592594L137.512856,110.57006142256606L137.61631,66.73828232120239L137.935668,97.39479288954004L138.569886,114.56952109037914L138.857758,104.36061365663454L139.298562,88.33293051278258L139.33454600000002,88.68753337118422L140.01824200000001,90.87555814536447L140.117198,82.75973031969089L140.265632,101.52331181199087L140.598484,87.7795874823972L140.77390599999998,107.4047090440896L141.16073400000002,119.73910898744509L141.48908799999998,109.01394056546354L141.601538,124.89724427621167L141.660012,85.50192968941097L141.70049400000002,67.95488187608939L142.055836,137.38124428354394L142.32121800000002,84.83399758435898L142.83399,93.00147931395537L142.90146,124.46748673092466L143.25680200000002,88.16062877876244L143.64812799999999,125.65555857600383L144.04845,136.1137719153262L144.214876,138.47895842784027L144.372306,109.74327617879734L144.70515799999998,132.07510532138366L145.26290999999998,91.0529159259654L145.35736799999998,54.746625933161795L145.39785,91.97892841286153L145.469818,95.33364179484063L145.753192,81.96124947519307L145.75769000000003,119.44246843130117L145.82066200000003,83.12681831521229L146.373916,40.011173937335286L146.423394,43.27957691765704L146.873194,96.51007768521838L147.17455999999999,98.04264292126975L148.07415999999998,85.4390054524307L148.645406,95.26259126546172L148.649904,148.62492326070182L148.780346,82.06834018927402L148.78934199999998,72.94574754656307L149.234644,92.5955047322568L149.909344,114.29372003157476L150.197216,117.22576426553452L150.224204,70.63722857885195L150.251192,146.7227635207929L150.269184,119.36251570124375L150.273682,48.65117047631108L150.790952,65.81498522998912L151.038342,103.04264514113683L151.578102,69.20112935581938L151.82999,57.13044181990105L152.270794,55.23312767462427L152.31577399999998,83.14219423005879L152.34725999999998,79.86377129477201L152.428224,78.0085126013872L152.68461000000002,78.1288659722398L152.882522,103.93208083217083L153.26935,143.39378803792442L153.67866800000002,153.7883696724346L153.68766399999998,132.0898996930939L153.8316,130.69506945858134L153.912564,88.05120301633916L155.185498,122.08035913342141L155.302446,80.76324662705605L155.50035799999998,57.12256228411398L155.74774799999997,30.533840081001557L156.026624,26.220780253949897L156.08509800000002,44.68794001373243L156.49891399999998,56.343088991836225L156.629356,40.26164473736014L156.80477800000003,61.76840019013717L158.06421799999998,55.380401669658625L158.41956000000002,122.80493124646986L158.536508,92.98931004001528L158.635464,87.18287765618457L158.720926,115.83758579275784L158.83337600000002,103.81931599725351L158.90534399999999,155.90470072477498L158.95932000000002,139.54548400550746L159.15273399999998,143.87374442761933L159.45859800000002,145.4064847823727L159.73747400000002,132.83897191862746L160.67305800000003,121.65235017884069L160.704544,113.1096493789452L160.745026,79.44481238060581L160.969926,123.10074551304214L160.98342000000002,109.13513625502604L161.077878,127.09122826361667L161.21731599999998,122.21055843057641L161.302778,156.12312391771323L161.91450600000002,110.55023904665381L162.278844,86.59809407010123L162.283342,59.81213888176947L162.436274,87.0719771006624L163.05249999999998,86.79982311838384L163.07499,102.64773664065311L163.191938,87.18305263035364L163.398846,114.09051040478272L163.466316,143.99277658860518L163.835152,167.10675939679527L164.02856599999998,151.24950345015753L164.145514,112.30276849064965L164.32993199999999,76.38906320448959L164.523346,90.40802412340788L165.11708199999998,74.45266515678016L165.14856799999998,92.57587777773054L165.16656,94.35573902845091L165.625356,85.46953407001321L165.805276,92.840160817336L166.228088,103.21579126741348L166.29106000000002,81.00330356494106L166.372024,76.43385906061837L166.56094,24.969306510933052L167.78439600000002,33.498178125767566L168.02279,129.2014637776307L168.558052,91.76306068826267L169.376688,87.23716645198195L169.54311399999997,123.65490610454756L169.965926,138.25353502067495L170.681108,88.7601937462841L170.798056,94.54924115001884L170.97797599999998,49.89499841010405L171.184884,99.92102340981862L171.477254,109.6622388906807L171.50874,108.71675414726322L171.544724,105.27753627827873L171.760628,86.49716141540478L171.80111,118.22051403354806L172.066492,91.71371105570321L172.124966,87.97603786741925L172.777176,55.63149540874507L172.831152,63.27562449725362L172.97958599999998,73.06131110401095L173.168502,85.1889389384457L173.460872,138.28995874098948L173.793724,132.35559990150938L174.00512999999998,120.93304656829365L174.29749999999999,86.6776959352847L174.427942,63.874447170088075L174.486416,62.33428979110086L174.796778,111.02362616176228L174.81027200000003,90.88174522706757L175.003686,99.63768424861956L175.224088,151.49037888809045L175.475976,117.22717469432354L176.06971199999998,92.28137489258287L176.105696,83.06541540681742L176.137182,77.35488925253996L176.555496,81.01310683414728L176.609472,65.04659629538881L176.699432,104.28384905859964L177.212204,64.46493937853062L177.230196,68.69541604687622L177.351642,73.87977068048623L177.360638,114.31028668535892L177.765458,124.25780777605263L178.080318,158.53624980134896L178.201764,190.20804851343118L178.23325,169.6033555095785L178.359194,141.84058449419697L178.970922,125.06945639701107L179.384738,82.89033185155046L179.416224,55.19340019649769L179.821044,77.91058548823898L179.861526,108.75098071417753L179.915502,115.70662733865704L180.00096399999998,97.32275804849222L180.07743,96.16089200360626L180.320322,122.71649282206926L180.37429799999998,108.97122561353345L180.486748,156.95203466664495L180.65317399999998,179.26041517526355L180.914058,159.35925329846407L181.12096599999998,102.29386087132852L181.20642800000002,137.7544279627404L181.23791400000002,113.73726377084267L181.444822,76.42327163931375L181.678718,106.41085682700063L181.69221199999998,170.2376537703871L181.849642,138.92990821501013L182.434382,96.21260602414844L182.66827800000002,78.2830199428811L182.672776,51.20169381072607L182.767234,88.27916304928355L183.014624,71.11429618991795L183.40595,74.62291094778409L183.410448,51.191680914869494L183.58137200000002,54.7431101600591L183.73880200000002,97.0652616620221L183.779284,101.33665218354218L183.95470600000002,80.18780185223197L184.17510800000002,95.25626803303112L184.42249800000002,109.20708187141628L184.566434,95.90808847974907L184.993744,93.22768722433548L185.67744,93.73147298371015L185.897842,104.08563847825062L186.05977,111.5181511252232L186.33864599999998,87.21423664147304L186.684992,27.88595602783346L186.698486,54.46033837719429L187.040334,70.68624896004L187.134792,118.61239186045054L187.17077600000002,98.36949330041726L187.22925,119.04967325609871L187.23824599999998,156.96915898133486L187.26523400000002,97.47498793249825L187.70603799999998,110.41017500070035L187.715034,97.42701611225186L188.10636000000002,134.01097979727018L188.119854,64.96074428905617L188.2413,113.51661228388292L189.010458,66.14977747946821L189.041944,94.18514841049819L189.338812,86.91914070397561L189.361302,118.76476792544094L189.829094,99.13019475966675L189.90556,79.16869995373474L190.20692599999998,124.44507634865039L190.296886,101.53551229373691L190.778172,126.45023323020982L191.012068,154.2998438472846L191.07953799999999,141.7065896806299L191.147008,84.71354121072164L191.218976,131.85709033669872L191.27745,115.24977220452928L191.43488,102.39752376888458L191.520342,62.53969462403218L191.551828,65.86643785052634L192.599862,60.308527277786354L192.869742,98.25665051155022L193.004682,143.52810622699695L193.090144,163.8717354801157L193.490466,160.1366273919856L193.665888,133.7410934662888L193.68388000000002,92.75728545761527L193.724362,129.27827635512602L193.75135,98.08147047225151L193.8638,88.48317773499198L194.12018600000002,46.201695915210905L194.776894,88.22179406651776L195.298662,94.33834807735037L195.447096,55.66367426312783L195.93737800000002,68.5170520949174L195.964366,77.16256233500297L196.00484799999998,126.19549668101585L196.58509,109.128501381088L196.738022,165.44038456416652L197.88951,106.20629018388111L197.97497199999998,97.39475419427103L198.168386,78.21473704758377L198.478748,59.685335367817245L199.445818,115.87665968531287L199.900116,99.77744997378542L200.14750600000002,71.2481721570275L200.214976,91.58517972410809L200.525338,73.73449452984987L200.67827,104.58089310686982L201.011122,74.28794328428033L201.08309,49.806776833872405L201.132568,64.43518178006433L201.28549999999998,128.0759180148865L201.64534,153.86913897755298L201.919718,128.79375809527966L201.924216,164.87967775522196L202.18509999999998,166.056379611841L202.27506000000002,170.56831241580912L202.468474,110.15272038539094L202.49096400000002,128.02295658206845L202.81482,88.6238421870226L203.449038,104.82706839877096L203.552492,169.38532008551198L203.55698999999998,185.61453310741567L204.168718,139.07076118048184L204.600526,168.96101940069295L204.86590800000002,137.4725846433264L204.915386,103.71477119825019L206.192818,50.21970642031275L206.37723599999998,27.00641918433334L206.692096,64.81027812512296L206.81804,43.01984559745537L207.047438,77.84975504428711L207.483744,79.07350953549486L207.62318199999999,72.44799646216838L207.645672,84.87191555189015L207.722138,105.64996907286002L207.951536,72.30297843916507L208.12246,32.539674212356175L209.040052,4.9342007337926646L209.36390799999998,9.920690756971737L209.836198,17.94345073815296L210.22752400000002,44.770167475438825L210.2815,45.874352327285266L210.425436,52.600207120953755L210.55138,71.45976708577795L210.94270600000002,80.7214840903683L210.987686,63.397450474190975L211.014674,116.31921667294998L211.032666,93.54241220019634L211.172104,97.9720527581118L211.1811,85.047744539484L211.244072,50.29763991064115L211.27105999999998,58.008315696873L211.599414,99.79237384471757L212.71042,92.91051939054405L213.106244,101.03388591363476L213.223192,116.74447534534006L213.628012,87.83214530976224L213.749458,132.384347019384L214.06431800000001,145.72958897220477L214.370182,126.09560584227671L214.44215,117.29589613199494L214.739018,118.1709532136933L214.95492199999998,153.33837419719796L215.02689,124.6023333547789L215.157332,45.661752955810954L215.269782,48.57439673942136L215.355244,41.0741852820027L216.002956,55.91282921434093L216.03894000000003,45.79729727149399L216.326812,91.1043000175977L216.44825799999998,139.4441709074035L217.055488,110.86363738493056L217.086974,52.60147663185555L217.167938,62.580153168616064L217.631232,44.71258097969138L217.739184,105.78668777395872L217.784164,158.9431497290706L217.847136,158.1328374823913L218.126012,118.08655521160274L218.553322,83.44838243058871L218.85019,109.28013610441417L218.90866400000002,68.29959211110436L219.0526,136.04561323141672L219.13356399999998,120.76814766058692L219.178544,144.39457463222365L219.273002,146.98549547790066L219.763284,112.95127151607618L220.078144,57.156337119335774L220.518948,90.1119866354435L221.045214,106.84688205618673L221.216138,95.37175251900557L221.364572,118.46800900613906L221.441038,85.81243851849817L221.61646000000002,96.06973324459427L222.704976,94.29708720589662L222.77694400000001,87.30192547646152L223.424656,111.69955565695163L223.658552,108.39812005856156L223.856464,109.59734307705475L224.013894,78.78192004548974L224.14883400000002,115.8024428486077L224.256786,106.22688049073506L224.36473800000002,137.97024665472202L224.400722,145.0484179627734L224.4502,125.86562061141956L224.454698,63.170241605228384L224.72457799999998,83.40499244391098L224.846024,101.88452482377997L224.86401600000002,82.33060174081038L224.931486,111.54571468170468L225.04843400000001,69.38980819306364L225.09791199999998,88.8575552971458L225.14739,52.98898129888153L225.295824,61.462165219949355L225.678154,78.74925978980465L225.916548,55.65678480864766L225.93454,91.8675111925674L225.99301400000002,63.363049804930284L226.352854,37.289302325108224L226.37084599999997,90.78580192080653L226.49229200000002,59.9198157152624L226.532774,120.04133733279059L226.9241,83.17581075529188L226.955586,125.77972883641678L227.15349799999998,128.4139803508518L227.391892,109.39046992418753L227.54932200000002,77.0362929198598L227.56731399999998,89.03738313874335L227.841692,92.86792941070041L228.277998,75.2028371404198L228.448922,73.71873714390915L228.65582999999998,58.51516762890533L228.660328,64.62314336012669L228.673822,60.24023125476161L228.92571,121.21383317057204L229.303542,145.05586222257563L229.411494,138.44824554590195L229.631896,74.5840259198416L229.694868,99.52434993410523L230.36057200000002,112.56988215222607L230.495512,131.04365081056744L230.760894,127.32096474447722L230.99029199999998,43.28237604545873L231.91688000000002,81.98107102183889L231.957362,54.857982556035424L232.047322,69.73324563503878L232.18676,114.3001674377955L232.19575600000002,70.8835085966609L232.80298599999998,106.32470408311025L232.964914,137.68410454529845L233.162826,93.68519442283109L233.42820799999998,66.98179671170115L233.48218400000002,58.46027873159527L233.990458,67.33381360889125L234.156884,77.48465757441909L234.296322,103.41414647622342L234.45375199999998,52.152993353148844L235.128452,34.80196842666899L235.168934,79.14893109867835L235.29038,46.57129995387717L235.42532,46.547449292909675L235.578252,60.872078384263304L235.780662,64.77951617556987L235.81664600000002,61.07078057240351L235.94259,93.64527952498736L236.450864,146.34268492356864L236.522832,117.55073438820794L236.626286,99.89993052922223L236.801708,90.61743995691856L236.878174,116.0900757559867L237.26500199999998,96.64325694136205L237.305484,137.2008786373877L237.458416,148.36185002765322L237.97568600000002,146.15104918146892L238.151108,108.3541356472061L238.385004,113.1795259563855L239.680428,135.6725779502828L239.774886,154.19794756944412L240.409104,142.20579875573776L240.60251799999998,194.86253452935972L240.840912,163.69670108341668L240.872398,118.23802818884549L240.962358,102.59014450329597L241.079306,77.16873908530509L241.484126,38.699728146140814L241.71802200000002,65.82535816725789L241.987902,86.93670807180818L242.019388,85.39556584297428L242.14983,68.16255080425027L242.38822399999998,92.26509130432179L242.406216,114.99990778824072L242.46469000000002,131.27673828995455L242.52766200000002,81.79998739001888L242.635614,117.30994374416912L242.68959,119.11165206946518L242.833526,180.80200029800883L242.865012,159.05030015939803L242.927984,121.58115715881783L243.436258,94.34238504827384L243.485736,74.6329613891862L243.512724,120.34055168435702L243.69714199999999,90.44076939228611L243.715134,81.85265062930249L243.778106,164.12811164070408L243.88155999999998,134.2234935880258L244.358348,138.34337740066968L244.551762,144.09521285845832L244.74967400000003,123.22835488411187L244.830638,76.9978599029327L244.90260600000002,67.88038713202147L245.037546,126.8008557585792L245.347908,120.75190490054587L245.910158,105.61656596402828L246.10357199999999,133.10606479728523L246.112568,130.81860591819463L246.278994,92.14337115198715L246.283492,122.18785809105843L246.328472,99.42949226275803L246.36445600000002,99.66857057080104L246.47690599999999,89.43754779854676L246.85023999999999,94.20973185038125L246.87273000000002,116.15281883678173L246.94019999999998,94.26929081559976L247.81281199999998,56.93663199592116L248.433536,43.585509347012504L249.387112,20.06320856040179L249.737956,69.38686496034535L249.980848,78.43828430184884L250.09329799999998,56.504910519177685L250.660046,64.82153112319405L251.02438400000003,88.59091211931288L251.24478599999998,81.41053508267633L251.298762,110.6060668739428L251.384224,64.75193504767118L251.64960599999998,53.346315397480154L252.17137400000001,65.53142068008127L252.526716,49.87661543619363L252.715632,102.47449300367671L253.039488,128.82118332194707L253.264388,89.75067267303123L253.30936799999998,113.09759132554802" style="fill: none;" fill="none"></path></g></g></g></g><g opacity="0.2"><g><g><g><path stroke="rgb(255, 112, 67)" stroke-width="2px" d="M28.301416,-113.0411906838417L28.31491,22.557848066091537L28.431858000000002,-126.91301915049553L29.142542000000002,-236.36738869547844L29.165032,9.498107552528381L29.259490000000003,-228.39253905415535L29.542864,-200.1765048801899L30.244552,2.9646986424923227L30.523428000000003,91.11000162363054L30.716842,137.4552597552538L30.748328,-226.58633130788803L30.964232000000003,123.21622458100319L31.022706000000003,-58.51089569926262L31.130658,-51.69360327720642L31.324071999999997,16.532950222492246L31.360056,-125.18800261616707L31.64343,88.17045775055885L31.719896000000002,-116.52551132440567L31.746884,103.65230751037599L31.872828000000002,19.378115355968475L32.480058,54.054235786199584L32.673472,43.93896248936653L32.907368,59.31175139546396L33.078292000000005,83.23251989483833L33.420139999999996,41.238992035388975L33.784478,155.68024714291099L34.031867999999996,80.41948837041855L34.045362000000004,71.52625930309297L34.108334,-20.58321449160576L34.126326,164.1497169882059L34.34223,41.272664189338684L34.373716,61.20526057481766L34.571628000000004,50.489295393228545L34.706568,39.66163185238841L34.962954,-1.7192913889884665L35.093396,43.17171213030815L35.165364000000004,50.38647663593292L35.237332,-23.88066786527631L35.718618,132.18741391599178L35.912031999999996,146.82655867934227L35.925526,-81.62977460026741L36.555246000000004,220.4151389449835L36.735166,102.27689233422281L36.811632,111.68529216945173L36.870106,88.12944453954697L37.270428,67.50815150141717L37.540307999999996,42.22339701652527L37.949626,52.40394857525827L38.003602,-110.54329711198807L38.147538000000004,66.29023936390877L38.174526,129.32565447688103L38.286976,17.34873068332675L38.489386,85.91556635499002L38.858222000000005,47.49748495221138L39.069627999999994,86.14393037557602L39.146094000000005,38.55247285962105L39.155089999999994,80.51923003792764L39.177580000000006,108.6982512176037L39.29003,66.32074651122095L39.294528,37.68407416343689L39.348504000000005,127.13215102255346L39.370994,215.15452426671985L39.501436,122.67865699529649L39.568906,134.24827282130718L40.18963,138.89964570105076L40.43702,99.34605222940446L41.458065999999995,-91.30418884754181L41.777423999999996,179.70339481532577L41.790918000000005,37.4118396341801L42.051801999999995,148.87335088849068L42.330678,42.446134358644485L42.641040000000004,134.1555645018816L42.704012000000006,-38.94416528940201L42.713007999999995,50.714494407176986L42.717506,151.3249562382698L42.97839,152.76017685234547L43.76554,189.51410216093066L44.386264,69.04287201166153L44.39526,125.92232723534109L44.62016,88.40233844518663L44.939518,88.2159986793995L45.173414,39.75108724832535L45.267872,19.348663210868835L45.299358,-59.016461551189394L45.906588,-18.68007841706276L46.032532,149.09094509482384L46.266428,50.13670486211777L46.545304,-16.087542355060577L46.986108,173.25730931758883L47.125546,62.10684788227083L47.148036,100.3693164587021L47.530366,8.456776410341291L47.539362000000004,142.53667791187763L47.9037,101.02258262038232L48.317516,-5.185676991939545L48.393981999999994,46.05428588390353L48.48844,-51.624808341264725L49.091172,114.57641583681107L49.109164,-94.16737693548203L49.145148,81.37892496585847L49.648923999999994,112.95569066703321L49.711895999999996,44.459518164396314L49.882819999999995,-35.00232535600662L49.936796,90.4373937547207L50.125712,174.59946994483474L50.472058,35.18112537264824L50.8274,215.9275771379471L50.836396,58.29103675484659L51.079288,47.474538654088974L51.205232,61.04476836323738L51.677521999999996,59.28564009070398L52.154309999999995,171.7451834380627L52.217282,156.56633910536766L52.491659999999996,91.41696330904962L53.071902,143.72823697328568L53.656642000000005,116.82688941061498L53.854554,44.456660866737366L54.236883999999996,21.768047034740448L54.326844,126.18236330151558L54.488772,-87.77538228034973L54.520258,-8.060514062643023L54.682185999999994,103.0795731842518L54.776644,65.18341016769409L55.055519999999994,57.60225218534471L55.14548,191.7124190628529L55.644758,148.53320059180263L55.689738,24.1076463162899L56.000099999999996,53.89989775419235L56.058574,14.128512263298035L56.085561999999996,150.42073142528537L56.144036,131.7582258284092L56.400422,143.9879873096943L56.503876,-70.29751229286194L56.791748,89.6747150719166L57.439460000000004,123.94213204085827L57.682352,79.4237421154976L57.812794,114.6203303039074L58.055686,30.349303156137466L58.231108,118.6276902705431L58.244602,15.548545241355896L58.298578,156.60781387984753L58.438016,277.1211342215538L60.075288,-3.8178226649760916L60.111272,83.40980422496797L60.29569,-12.674346446990967L60.709506000000005,186.9173900485039L60.997378,51.442314058542266L61.213282,73.27633213996887L61.316736,52.74783533811569L61.6226,220.32240864634514L61.66758,60.02458122372627L61.681073999999995,94.94058278203012L61.748544,82.63398197293283L61.896978000000004,-148.44324055314064L62.715614,-132.72168549895287L63.01698,106.46676768362524L63.142924,52.330318212509155L63.187903999999996,231.40947085618976L63.345334,112.46680703759195L64.056018,90.94568502902986L64.39336800000001,108.88980005681516L64.90614,-21.76499280333516L65.090558,147.35856552422047L65.598832,-18.143389999866486L65.72927399999999,134.11448535323143L65.75176400000001,119.81909547746183L65.79224599999999,99.46882811188699L66.19706599999999,62.36233425140381L66.21056,114.48561970889568L66.336504,104.28686936199666L66.381484,112.532810613513L66.799798,129.0971366018057L66.95273,102.07384836673738L67.22261,86.72519263625146L68.045744,41.16712000966075L68.162692,99.70646736025812L68.176186,8.94911077618599L68.270644,-43.88333398103714L68.30213,179.88843780756L68.563014,110.4404554963112L68.590002,211.3132172524929L68.84188999999999,27.888818204402924L69.76398,132.44591143727303L70.015868,-67.30447101593018L70.15980400000001,4.858955115079908L70.55113,116.91234458982946L70.699564,213.97393283247948L71.05490599999999,93.79849892854692L71.08639199999999,112.24195969104768L71.14486600000001,112.61734266579153L71.414746,100.67583855986597L71.54968600000001,47.971005111932755L71.65314,220.58778566122058L71.734104,98.36898830533029L72.386314,157.4633986949921L72.674186,29.882464677095413L73.35338399999999,114.25354120135309L73.470332,12.301731973886518L74.33394799999999,151.8757113516331L74.365434,87.4078669846058L74.87370800000001,82.98494604229928L74.887202,128.59102126955986L74.98166,45.44027459621432L75.24704200000001,214.24238693714145L75.440456,-44.820044070482254L75.82278600000001,65.80265250802042L75.962224,116.23753879964353L76.03419199999999,59.641659379005446L76.11065799999999,106.05525088310243L76.290578,73.21751576662064L76.49748600000001,83.34584471583368L76.501984,228.70095048844817L76.60094,48.680538058280945L76.75837,25.77059355378151L76.875318,115.15350204706192L76.9158,25.662192076444626L77.149696,158.43736355006698L77.16319,145.12864251434806L77.316122,88.03620871901512L77.334114,28.39161467552185L77.437568,160.1756115704775L77.464556,47.560829043388395L77.473552,128.2262762337923L77.68046,61.935761690139785L78.049296,5.1161558628082275L78.134758,168.40025496482852L78.17524,83.65680661797525L78.481104,40.62717866897583L78.4901,79.8624911606312L78.75998,-37.54457297921181L79.475162,140.92916224896908L79.71355600000001,24.841927856206894L79.803516,72.20590052008629L79.942954,-6.2507456839084625L79.983436,152.7990800589323L80.059902,29.904136180877686L80.13636799999999,121.72238540649415L80.505204,185.19714300334456L80.60865799999999,110.79067227244379L80.67163,135.10387961566448L81.00448200000001,87.28021171689035L81.517254,126.20427657663824L81.949062,149.37023495137691L81.971552,235.6731304228306L82.13347999999999,131.8763421177864L82.272918,19.817567735910444L82.709224,155.0918196588755L82.826172,132.67431941628456L82.844164,-39.54261529445648L82.91613199999999,38.76255017518997L83.105048,145.90617914497855L83.39292,6.7854770720005035L83.406414,205.90760570764544L83.478382,-26.815332353115082L83.91019,61.94719088077545L84.148584,-8.299428105354309L85.106658,54.066456228494644L85.232602,160.55521455407145L85.70939,27.19985780119896L86.033246,-18.839295834302902L86.312122,85.98203149437906L86.662966,236.0927575528622L86.739432,97.04157572984697L86.86087799999999,99.74352431297304L86.95533599999999,267.48208452761173L87.009312,95.19734394550325L87.07678200000001,204.3759622871876L87.333168,96.07541349530221L87.66152199999999,99.92823761701585L88.156302,53.3547693192959L88.394696,106.53481532633306L88.412688,164.84395240247252L88.853492,86.04282599687578L89.04240800000001,100.25414538383485L89.271806,-12.11572277545929L89.37526,17.657362788915634L89.640642,-46.91905888915062L89.654136,112.56292213499547L90.07694799999999,94.12313190102579L90.22988000000001,124.82989442348482L90.38730999999999,87.02490118145944L90.562732,153.86089582741263L90.97654800000001,48.44048109650612L91.075504,49.27089971303941L91.44434,59.63506561517717L92.078558,113.3776695728302L92.375426,241.0419927239418L92.406912,43.14208415150645L92.44739399999999,162.49167111516002L92.52386000000001,46.79771077632904L92.604824,-12.804155677556992L92.870206,144.85271547734737L93.095106,-26.135647177696228L93.306512,-3.0283293426036835L93.58988599999999,113.06930121779443L93.92723600000001,-15.046738713979693L93.954224,79.83769860863687L94.089164,64.41761043667793L94.12964600000001,60.34802731871606L94.174626,125.98753955960275L94.588442,84.3839668929577L94.62892400000001,88.1457970738411L94.646916,146.02486689388755L94.723382,179.41770900785926L95.011254,212.02938792109492L95.096716,73.32569745182992L95.703946,-15.169954180717468L95.98732000000001,-26.37464913725853L96.194228,138.6975248605013L96.39214000000001,19.530211508274107L96.778968,4.772708684206037L97.039852,46.58525970578194L97.710054,62.827326476573944L97.71905000000001,32.573819279670715L97.86298599999999,91.44061294198038L98.00242399999999,224.67668850719932L98.267806,128.50292858481407L98.91102,193.59313634037974L99.01897199999999,-56.61088067293167L99.059454,82.01887172460556L99.306844,67.1352082192898L99.986042,100.4119561314583L100.049014,99.53876596689226L100.50781,89.02571287751199L100.602268,112.40500149130823L101.20050200000001,156.7987473011017L101.524358,62.83950296044351L101.623314,39.11830571293834L101.69978,146.90623332560062L101.906688,220.40285256505013L102.05962,166.17468383908275L102.35199,114.89911463856697L102.71183,136.14349637925625L103.053678,183.06445603072646L103.215606,-27.560163915157318L103.714884,137.65206162631512L103.719382,96.16355013847352L103.87231399999999,216.97563391923907L103.93528599999999,98.31812840700151L104.124202,-78.75137689709663L104.875368,118.06240689754486L105.014806,100.5805366933346L105.167738,105.95082764327528L105.653522,69.31844738125803L105.801956,40.34316328167918L105.88292,71.40941780805589L105.891916,31.04652774333954L105.999868,89.87437424063684L106.004366,82.06665453314783L106.01786,85.19618672132493L106.10332199999999,160.3996676653624L106.260752,127.39614334702492L106.40019,127.62808997929098L106.57561199999999,139.97073669731617L106.620592,153.4809411764145L107.020914,46.69018846750262L107.08388599999999,135.8175666332245L107.214328,92.19252181053163L107.25031200000001,152.51686696708202L107.380754,157.36137118935585L107.826056,90.38679760694505L108.865094,48.221963763237L108.99103799999999,15.761567771434784L109.03152,91.60510537028314L109.157464,55.91671031713487L109.31489400000001,16.676826149225263L109.36887,11.60318863391879L109.65674200000001,-9.731373816728563L110.26397200000001,-2.8370222747325897L110.506864,126.115304723382L111.105098,67.41944339871408L111.10959600000001,106.8674487322569L111.739316,71.38726276159288L112.283574,-13.750800371170016L112.31506,85.44011202454567L112.87731,124.21504792571068L113.38558400000001,188.11204817891124L113.695946,-35.76711404323575L113.79040400000001,124.9035907238722L114.096268,134.42689788341522L114.33466200000001,86.78203088045122L114.595546,88.8032392859459L114.79345799999999,134.95956410467625L115.75603000000001,15.192130327224731L115.836994,2.3367085754871653L115.93594999999999,72.74883103370667L115.962938,133.13337725400925L116.45322,111.8926440626383L116.516192,88.5259934961796L116.56567,179.88896530866626L116.81306000000001,67.3768476843834L116.862538,30.604789525270462L116.889526,26.47203814983368L117.15490799999999,29.314741611480713L117.276354,26.58989068865779L117.37980800000001,74.27141901850702L117.694668,125.0097283422947L117.793624,132.5695005506277L117.942058,-12.361889958381624L118.05001,147.89751780033112L118.22993,156.48895029723644L118.310894,162.78291766345504L118.337882,51.62847799062729L118.35137599999999,162.72621129453185L118.693224,50.69629561901094L118.697722,121.96817894279958L118.90912800000001,92.14117836952211L119.04856600000001,102.75898438692094L119.170012,81.83969718217851L119.183506,50.12918797135353L119.205996,24.37574875354767L119.525354,-19.12357497215271L119.574832,101.11010384559633L119.79523400000001,114.54656806588174L120.05162,94.54983633756639L120.25402999999999,151.14551794528964L120.43844800000001,95.61934483051301L120.496922,163.1521464586258L120.50142000000001,153.26596249639988L120.600376,37.75260534882548L120.67234400000001,49.51974835991861L121.171622,112.37363715469839L121.26608,267.99850811064243L121.576442,-33.62022849917412L121.58993600000001,119.57317006587982L121.594434,152.22375218570232L121.810338,168.02302573621276L121.91829,-25.328174859285355L122.512026,87.24095684289934L122.87186600000001,100.51393967866899L122.93034,154.36813209950924L123.21821200000001,38.86062142252925L123.510582,60.10216784477235L123.614036,96.68771040439607L123.991868,77.57581782341005L124.005362,36.89954814314842L124.02785200000001,130.9883379638195L124.329218,0.5943724215030954L124.41018199999999,-76.72884973883629L124.747532,181.1952119022608L124.92295399999999,155.50744657218456L125.633638,-16.808416575193405L125.82255400000001,126.06134575605394L125.827052,144.48405814170837L126.119422,151.65350151062015L126.14641,53.767582893371596L126.263358,96.64085072278978L126.357816,85.38037252426147L126.384804,3.5217398107052134L127.095488,120.05603139102459L128.17051,243.57498709857464L128.38191600000002,214.43837557733062L128.489868,150.79341095685962L128.55284,105.55012461543085L128.678784,41.971735030412674L129.191556,-48.731332898139954L129.348986,247.13781748712066L129.515412,18.26275822520259L129.92473,112.06981849670412L130.50947,12.915435552597046L130.84682,201.15730439126494L131.25164,172.84020979702476L131.265134,91.05646026134492L131.92633999999998,97.86496099829675L131.944332,59.18378841876985L132.137746,68.2744787335396L132.18722400000001,136.25948068499565L132.232204,-54.753856986761065L132.385136,50.14026549458504L132.430116,75.81717309355736L132.547064,68.75169140100479L132.749474,100.54501828551294L132.852928,114.26079434156419L133.082326,60.02730664610864L133.190278,-8.969750136137009L133.27574,84.34607473015785L133.487146,132.3411365300417L133.99542,40.71918365359306L134.215822,-22.398653507232638L134.58016,159.62004300951958L134.629638,89.59510636329652L134.719598,225.93064655363563L135.04795199999998,89.79718324542047L135.304338,84.96140477061272L135.78562399999998,143.95016108453274L136.419842,172.39607584476474L136.595264,105.78989584743978L136.725706,183.16690114140513L137.117032,-9.908877938985796L137.332936,78.04454651474953L137.34193199999999,104.98862166702749L137.512856,138.96074791252613L137.61631,0.9906136691570282L137.935668,143.37955874204636L138.569886,140.3316133916378L138.857758,89.0472525060177L139.298562,64.2914057970047L139.33454600000002,89.21943765878679L140.01824200000001,94.15759530663492L140.117198,70.58598858118059L140.265632,129.6686840504408L140.598484,67.1640009880066L140.77390599999998,136.84239138662815L141.16073400000002,138.24070890247822L141.48908799999998,92.92618793249132L141.601538,148.7221998423338L141.660012,26.408957809209852L141.70049400000002,41.63431015610695L142.055836,241.52078789472583L142.32121800000002,6.013127535581617L142.83399,105.25270190835L142.90146,171.66649785637858L143.25680200000002,33.70034185051921L143.64812799999999,181.89795327186587L144.04845,151.80109192430973L144.214876,142.0267381966114L144.372306,66.63975280523302L144.70515799999998,165.57284903526306L145.26290999999998,29.519631832838087L145.35736799999998,0.2871909439563751L145.39785,147.827382132411L145.469818,100.36571186780931L145.753192,61.90266099572183L145.75769000000003,175.66429686546329L145.82066200000003,28.653343141078977L146.373916,-24.662292629480334L146.423394,48.182181388139725L146.873194,176.35582883656028L147.17455999999999,100.34149077534677L148.07415999999998,66.53354924917221L148.645406,109.99796998500825L148.649904,228.668421253562L148.780346,-17.766534417867632L148.78934199999998,59.26185858249666L149.234644,122.07014051079751L149.909344,146.84104298055175L150.197216,121.62383061647415L150.224204,0.754425048828125L150.251192,260.8510659337044L150.269184,78.32214397192001L150.273682,-57.4158473610878L150.790952,91.56070736050607L151.038342,158.88413500785828L151.578102,18.438855677843094L151.82999,39.024410516023664L152.270794,52.38715645670891L152.31577399999998,125.0057940632105L152.34725999999998,74.94613689184189L152.428224,75.22562456130983L152.68461000000002,78.30939602851869L152.882522,142.63690312206745L153.26935,202.58634884655478L153.67866800000002,169.3802421241999L153.68766399999998,99.54219472408296L153.8316,128.60282410681248L153.912564,24.085403352975845L155.185498,173.12409330904487L155.302446,18.787577867507935L155.50035799999998,21.661535769701004L155.74774799999997,-9.349243223667145L156.026624,19.75119051337242L156.08509800000002,72.38867965340614L156.49891399999998,73.82581245899202L156.629356,16.139478355646133L156.80477800000003,94.02853336930276L158.06421799999998,45.79840388894081L158.41956000000002,223.9417256116867L158.536508,48.26587823033333L158.635464,78.47322908043863L158.720926,158.81964799761772L158.83337600000002,85.79191130399705L158.90534399999999,234.03277781605723L158.95932000000002,115.00665892660618L159.15273399999998,150.36613506078723L159.45859800000002,147.70559531450272L159.73747400000002,113.9877026230097L160.67305800000003,104.87241756916048L160.704544,100.29559817910196L160.745026,28.947556883096723L160.969926,188.58464521169665L160.98342000000002,88.18672236800195L161.077878,154.0253662765026L161.21731599999998,114.88955368101597L161.302778,206.99197214841845L161.91450600000002,42.19091174006462L162.278844,50.66987660527229L162.283342,19.633206099271803L162.436274,127.96173442900182L163.05249999999998,86.39159214496613L163.07499,126.419606924057L163.191938,63.98602661490442L163.398846,154.4516970664263L163.466316,188.8461758643389L163.835152,201.77773360908034L164.02856599999998,127.46361953020097L164.145514,53.8826660513878L164.32993199999999,22.51850527524951L164.523346,111.43646550178529L165.11708199999998,50.51962670683862L165.14856799999998,119.76069670915604L165.16656,97.0255309045315L165.625356,72.14022663235664L165.805276,103.89610093832017L166.228088,118.77923694252969L166.29106000000002,47.684572011232376L166.372024,69.57969230413438L166.56094,-52.22752231359479L167.78439600000002,46.29148554801941L168.02279,272.75639225542545L168.558052,35.60545605421066L169.376688,80.4483250975609L169.54311399999997,178.281515583396L169.965926,160.15147839486602L170.681108,14.520181834697723L170.798056,103.23281225562097L170.97797599999998,-17.086365699768066L171.184884,174.96006090939048L171.477254,124.27406211197376L171.50874,107.29852703213693L171.544724,100.11870947480203L171.760628,58.326599121093764L171.80111,165.80554296076298L172.066492,51.953506588935866L172.124966,82.36952808499336L172.777176,7.114681720733671L172.831152,74.74181813001634L172.97958599999998,87.73984101414682L173.168502,103.38038069009782L173.460872,217.94148844480517L173.793724,123.45406164228916L174.00512999999998,103.79921656847002L174.29749999999999,35.29466998577118L174.427942,29.66957402229312L174.486416,60.02405372262001L174.796778,184.0576307177544L174.81027200000003,60.66892382502556L175.003686,112.7715927809477L175.224088,229.26942084729671L175.475976,65.83236840367317L176.06971199999998,54.86267518997194L176.105696,69.24147617816925L176.137182,68.7891000211239L176.555496,86.50043320655824L176.609472,41.09683048725131L176.699432,163.1397282034159L177.212204,4.736574858427076L177.230196,75.04113104939462L177.351642,81.65630263090135L177.360638,174.956060692668L177.765458,139.17908941209316L178.080318,209.95391283929348L178.201764,237.71574658155444L178.23325,138.69631600379944L178.359194,100.19642797112466L178.970922,99.91276425123216L179.384738,19.621645033359528L179.416224,13.648002713918686L179.821044,111.98636342585088L179.861526,155.01157355308536L179.915502,126.14009727537632L180.00096399999998,69.74695411324501L180.07743,94.4180929362774L180.320322,162.5498940497637L180.37429799999998,88.35332480072977L180.486748,228.92324824631214L180.65317399999998,212.72298593819144L180.914058,129.50751048326492L181.12096599999998,16.695772230625153L181.20642800000002,190.9452785998583L181.23791400000002,77.711517482996L181.444822,20.452283442020445L181.678718,151.392234608531L181.69221199999998,265.97784918546677L181.849642,91.96828988194467L182.434382,32.13665273785591L182.66827800000002,51.388640820980086L182.672776,10.579704612493543L182.767234,143.89536690711975L183.014624,45.36699590086937L183.40595,79.8858330845833L183.410448,16.04483586549759L183.58137200000002,60.07025402784349L183.73880200000002,160.5484889149666L183.779284,107.74373796582223L183.95470600000002,48.46452635526657L184.17510800000002,117.85896730422975L184.42249800000002,130.133302628994L184.566434,75.95959839224815L184.993744,89.20708534121515L185.67744,94.48715162277223L185.897842,119.6168867200613L186.05977,122.66692009568216L186.33864599999998,50.75836491584778L186.684992,-61.10646489262581L186.698486,94.3219119012356L187.040334,95.02511483430864L187.134792,190.50160621106627L187.17077600000002,68.0051454603672L187.22925,150.069943189621L187.23824599999998,213.84838756918907L187.26523400000002,8.233731359243393L187.70603799999998,129.8129556030035L187.715034,77.95227777957918L188.10636000000002,188.88692532479766L189.010458,-4.900474727153778L189.041944,136.23820480704308L189.338812,76.02012914419174L189.361302,166.53320875763896L189.829094,69.67833501100542L189.90556,49.22645774483682L190.20692599999998,192.35964094102386L190.296886,67.17116621136665L190.778172,163.8223146349192L191.012068,196.0742597728968L191.07953799999999,122.81670843064785L191.147008,-0.776031494140625L191.218976,202.57241402566436L191.27745,90.33879500627519L191.43488,83.1191511154175L191.520342,2.75295090675354L191.551828,70.85655269026756L192.599862,51.97166141867639L192.869742,155.17883536219597L193.004682,211.4352898001671L193.090144,194.3871793597937L193.490466,154.53396525979042L193.665888,94.14779257774354L193.68388000000002,31.281573444604874L193.724362,184.0597627013922L193.75135,51.28626164793968L193.8638,74.08573862910272L194.12018600000002,-17.220526814460754L194.776894,151.25194129347804L195.298662,103.51317909359933L195.447096,-2.3483364582061483L195.93737800000002,87.79711884260178L195.964366,90.13082769513132L196.00484799999998,199.74489820003512L196.58509,83.52800843119623L196.738022,249.90820933878422L197.88951,17.35514861345291L197.97497199999998,84.17745020985605L198.168386,49.44471132755281L198.478748,31.89123284816742L199.445818,200.16364616155627L199.900116,75.62863540649415L200.14750600000002,28.454255431890488L200.214976,122.09069107472898L200.525338,46.95846673846245L200.67827,150.8504909723997L201.011122,28.848518550395994L201.08309,13.085027158260345L201.132568,86.37778919935228L201.28549999999998,223.53702236711982L201.64534,192.5589704215527L201.919718,91.18068677186967L201.924216,219.00855724513534L202.18509999999998,167.82143239676955L202.27506000000002,177.33621162176135L202.468474,19.52933233976364L202.49096400000002,154.82831087708473L202.81482,29.52517059445384L203.449038,129.13190771639347L203.552492,266.2226976156235L203.55698999999998,209.95835264027122L204.168718,69.25510329008104L204.600526,213.7964067310095L204.86590800000002,90.23993250727655L204.915386,53.078051030635834L206.192818,-30.022890746593447L206.37723599999998,-7.813511669635744L206.692096,121.51606653630735L206.81804,10.33419680595398L207.047438,130.09461921453476L207.483744,80.90914127230644L207.62318199999999,62.50972685217859L207.645672,103.5077941864729L207.722138,136.8170493543148L207.951536,22.282492488622665L208.12246,-27.10528212785718L209.040052,-36.47400948405266L209.36390799999998,17.400425791740446L209.836198,29.977590709924698L210.22752400000002,85.0102425813675L210.2815,47.530629605054884L210.425436,62.68898931145668L210.55138,99.74910703301431L210.94270600000002,94.61405959725381L210.987686,37.41140004992485L211.014674,195.70186597108844L211.032666,59.37720549106598L211.172104,104.61651359498502L211.1811,65.66128221154214L211.244072,-1.827517032623291L211.27105999999998,69.5743293762207L211.599414,162.46846106648448L212.71042,82.58773770928384L213.106244,113.21893569827081L213.223192,140.310359492898L213.628012,44.46365025639534L213.749458,199.21264958381656L214.06431800000001,165.74745190143585L214.370182,96.64463114738466L214.44215,104.0963315665722L214.739018,119.48353883624078L214.95492199999998,206.08950567245486L215.02689,81.4982720911503L215.157332,-72.74911764264107L215.269782,52.9433624148369L215.355244,29.823868095874815L216.002956,78.1707951128483L216.03894000000003,30.62399935722351L216.326812,159.06480413675308L216.44825799999998,211.9539772421122L217.055488,67.9928371012211L217.086974,-34.79176449775693L217.167938,77.54816797375679L217.631232,17.91122269630432L217.739184,197.39784796535972L217.784164,238.67784266173842L217.847136,156.91736911237243L218.126012,58.017131805419936L218.553322,31.491123259067535L218.85019,148.02776661515236L218.90866400000002,6.828776121139555L219.0526,237.6646449118853L219.13356399999998,97.85194930434228L219.178544,179.8342150896788L219.273002,150.87187674641612L219.763284,61.89993557333948L220.078144,-26.536064475774765L220.518948,139.54546090960503L221.045214,131.94922518730164L221.216138,78.15905821323396L221.364572,153.1123937368393L221.441038,36.829082787036924L221.61646000000002,111.45567533373834L222.704976,91.63811814785005L222.77694400000001,76.80918288230897L223.424656,148.2960009276867L223.658552,103.44596666097642L223.856464,111.39617760479452L224.013894,32.55878549814224L224.14883400000002,171.33322705328467L224.256786,91.8635369539261L224.36473800000002,185.5852959007025L224.400722,155.6656749248505L224.4502,97.09142458438875L224.454698,-30.872826904058428L224.72457799999998,113.75711870193483L224.846024,129.6038233935833L224.86401600000002,52.999717116355896L224.931486,155.3683840930462L225.04843400000001,6.15594846010211L225.09791199999998,118.059175953269L225.14739,-0.8138796985149384L225.295824,74.17194110155107L225.678154,104.67990164458753L225.916548,21.018072336912155L225.93454,146.18360076844692L225.99301400000002,20.606357723474503L226.352854,-1.82131889462471L226.37084599999997,171.03055131435397L226.49229200000002,13.620836406946182L226.532774,210.22361975908282L226.9241,27.877520889043836L226.955586,189.68560595810416L227.15349799999998,132.36535762250423L227.391892,80.85520428419113L227.54932200000002,28.505027413368225L227.56731399999998,107.03901846706869L227.841692,98.61374881863595L228.277998,48.7051987349987L228.448922,71.49258714914322L228.65582999999998,35.709813356399536L228.660328,73.78510695695877L228.673822,53.665863096714034L228.92571,212.67423604428768L229.303542,180.818905800581L229.411494,128.53682053089142L229.631896,-21.212303519248934L229.694868,136.9348359555006L230.36057200000002,132.1381804794073L230.495512,158.7543037980795L230.760894,121.73693564534189L230.99029199999998,-82.77550700306892L231.91688000000002,140.0291134864092L231.957362,14.173349857330322L232.047322,92.04614025354387L232.18676,181.1505501419306L232.19575600000002,5.75852033495903L232.80298599999998,159.48649731278422L232.964914,184.72320523858073L233.162826,27.68682923913005L233.42820799999998,26.92670014500621L233.48218400000002,45.67800176143646L233.990458,80.64411592483522L234.156884,92.71092352271081L234.296322,142.3083798289299L234.45375199999998,-24.73873633146286L235.128452,8.775431036949158L235.168934,145.6693751066923L235.29038,-2.2951467633247375L235.42532,46.51167330145836L235.578252,82.35902202129365L235.780662,70.64067286252975L235.81664600000002,55.50767716765405L235.94259,142.50702795386314L236.450864,225.3887930214405L236.522832,74.36280858516695L236.626286,73.42372474074365L236.801708,76.69370409846307L236.878174,154.2990294545889L237.26500199999998,67.4730287194252L237.305484,198.03731118142608L237.458416,165.10330711305141L237.97568600000002,142.83484791219234L238.151108,51.65876534581186L238.385004,120.41761142015459L239.680428,169.41215594112876L239.774886,181.98600199818614L240.409104,124.2175755351782L240.60251799999998,273.84763818979263L240.840912,116.94795091450216L240.872398,50.05001884698869L240.962358,79.11831897497179L241.079306,39.03663095831871L241.484126,-19.00378826260564L241.71802200000002,106.51380319893362L241.987902,118.6037329286337L242.019388,83.08385249972345L242.14983,42.31302824616432L242.38822399999998,128.41890205442905L242.406216,149.10213251411915L242.46469000000002,155.69198404252532L242.52766200000002,7.5848610401153564L242.635614,170.57487827539447L242.68959,121.8142145574093L242.833526,273.3375226408243L242.865012,126.42274995148183L242.927984,65.37744265794755L243.436258,53.48422688245773L243.485736,45.06882590055466L243.512724,188.90193712711337L243.69714199999999,45.591095954179764L243.715134,68.97047248482704L243.778106,287.5413031578064L243.88155999999998,89.36656650900842L244.358348,144.52320311963558L244.551762,152.72296604514122L244.74967400000003,91.92806792259218L244.830638,7.652117431163788L244.90260600000002,54.204177975654616L245.037546,215.18155869841578L245.347908,111.67847861349584L245.910158,82.9135575592518L246.10357199999999,174.34031304717067L246.112568,127.38741759955884L246.278994,34.13051900267604L246.283492,167.2545884996653L246.328472,65.29194352030754L246.36445600000002,100.02718803286554L246.47690599999999,74.09101364016534L246.85023999999999,101.36800792813303L246.87273000000002,149.0674493163824L246.94019999999998,61.44399878382684L247.81281199999998,0.9376437664032267L248.433536,23.558825373649597L249.387112,-15.220242619514465L249.737956,143.37234956026077L249.980848,92.0154133141041L250.09329799999998,23.604849845170975L250.660046,77.29646202921869L251.02438400000003,124.24498361349106L251.24478599999998,70.63996952772142L251.298762,154.3993645608425L251.384224,-4.029262691736221L251.64960599999998,36.237885922193556L252.17137400000001,83.80907860398293L252.526716,26.39440757036209L252.715632,181.37130935490134L253.039488,168.34121879935267L253.264388,31.14490669965744L253.30936799999998,148.1179693043232" style="fill: none;" fill="none"></path></g></g></g></g></g></g><g transform="translate(48, 177)" clip-path="url(#clip_1)"><clipPath id="clip_1"><rect width="281" height="23"></rect></clipPath><g><g><line x1="0" y1="0" x2="0" y2="5" style="visibility: inherit;" fill="rgb(0, 0, 0)" stroke="rgb(204, 204, 204)" stroke-width="1px"></line><line x1="28.1125" y1="0" x2="28.1125" y2="5" style="visibility: inherit;" fill="rgb(0, 0, 0)" stroke="rgb(204, 204, 204)" stroke-width="1px"></line><line x1="56.225" y1="0" x2="56.225" y2="5" style="visibility: inherit;" fill="rgb(0, 0, 0)" stroke="rgb(204, 204, 204)" stroke-width="1px"></line><line x1="84.33749999999999" y1="0" x2="84.33749999999999" y2="5" style="visibility: inherit;" fill="rgb(0, 0, 0)" stroke="rgb(204, 204, 204)" stroke-width="1px"></line><line x1="112.45" y1="0" x2="112.45" y2="5" style="visibility: inherit;" fill="rgb(0, 0, 0)" stroke="rgb(204, 204, 204)" stroke-width="1px"></line><line x1="140.5625" y1="0" x2="140.5625" y2="5" style="visibility: inherit;" fill="rgb(0, 0, 0)" stroke="rgb(204, 204, 204)" stroke-width="1px"></line><line x1="168.67499999999998" y1="0" x2="168.67499999999998" y2="5" style="visibility: inherit;" fill="rgb(0, 0, 0)" stroke="rgb(204, 204, 204)" stroke-width="1px"></line><line x1="196.7875" y1="0" x2="196.7875" y2="5" style="visibility: inherit;" fill="rgb(0, 0, 0)" stroke="rgb(204, 204, 204)" stroke-width="1px"></line><line x1="224.9" y1="0" x2="224.9" y2="5" style="visibility: inherit;" fill="rgb(0, 0, 0)" stroke="rgb(204, 204, 204)" stroke-width="1px"></line><line x1="253.01250000000002" y1="0" x2="253.01250000000002" y2="5" style="visibility: inherit;" fill="rgb(0, 0, 0)" stroke="rgb(204, 204, 204)" stroke-width="1px"></line><line x1="281.125" y1="0" x2="281.125" y2="5" style="visibility: inherit;" fill="rgb(0, 0, 0)" stroke="rgb(204, 204, 204)" stroke-width="1px"></line></g><g transform="translate(0, 8)"><text x="0" y="0" dx="0em" dy="0.95em" style="text-anchor: middle; visibility: hidden; font-family: &quot;Helvetica Neue&quot;, sans-serif; font-size: 12px; font-weight: 200;" fill="rgb(50, 49, 63)" stroke="none" stroke-width="1px">-50k</text><text x="28.1125" y="0" dx="0em" dy="0.95em" style="text-anchor: middle; visibility: inherit; font-family: &quot;Helvetica Neue&quot;, sans-serif; font-size: 12px; font-weight: 200;" fill="rgb(50, 49, 63)" stroke="none" stroke-width="1px">0</text><text x="56.225" y="0" dx="0em" dy="0.95em" style="text-anchor: middle; visibility: hidden; font-family: &quot;Helvetica Neue&quot;, sans-serif; font-size: 12px; font-weight: 200;" fill="rgb(50, 49, 63)" stroke="none" stroke-width="1px">50k</text><text x="84.33749999999999" y="0" dx="0em" dy="0.95em" style="text-anchor: middle; visibility: inherit; font-family: &quot;Helvetica Neue&quot;, sans-serif; font-size: 12px; font-weight: 200;" fill="rgb(50, 49, 63)" stroke="none" stroke-width="1px">100k</text><text x="112.45" y="0" dx="0em" dy="0.95em" style="text-anchor: middle; visibility: hidden; font-family: &quot;Helvetica Neue&quot;, sans-serif; font-size: 12px; font-weight: 200;" fill="rgb(50, 49, 63)" stroke="none" stroke-width="1px">150k</text><text x="140.5625" y="0" dx="0em" dy="0.95em" style="text-anchor: middle; visibility: inherit; font-family: &quot;Helvetica Neue&quot;, sans-serif; font-size: 12px; font-weight: 200;" fill="rgb(50, 49, 63)" stroke="none" stroke-width="1px">200k</text><text x="168.67499999999998" y="0" dx="0em" dy="0.95em" style="text-anchor: middle; visibility: hidden; font-family: &quot;Helvetica Neue&quot;, sans-serif; font-size: 12px; font-weight: 200;" fill="rgb(50, 49, 63)" stroke="none" stroke-width="1px">250k</text><text x="196.7875" y="0" dx="0em" dy="0.95em" style="text-anchor: middle; visibility: inherit; font-family: &quot;Helvetica Neue&quot;, sans-serif; font-size: 12px; font-weight: 200;" fill="rgb(50, 49, 63)" stroke="none" stroke-width="1px">300k</text><text x="224.9" y="0" dx="0em" dy="0.95em" style="text-anchor: middle; visibility: hidden; font-family: &quot;Helvetica Neue&quot;, sans-serif; font-size: 12px; font-weight: 200;" fill="rgb(50, 49, 63)" stroke="none" stroke-width="1px">350k</text><text x="253.01250000000002" y="0" dx="0em" dy="0.95em" style="text-anchor: middle; visibility: inherit; font-family: &quot;Helvetica Neue&quot;, sans-serif; font-size: 12px; font-weight: 200;" fill="rgb(50, 49, 63)" stroke="none" stroke-width="1px">400k</text><text x="281.125" y="0" dx="0em" dy="0.95em" style="text-anchor: middle; visibility: hidden; font-family: &quot;Helvetica Neue&quot;, sans-serif; font-size: 12px; font-weight: 200;" fill="rgb(50, 49, 63)" stroke="none" stroke-width="1px">450k</text></g><line x1="0" y1="0" x2="281.125" y2="0" fill="rgb(0, 0, 0)" stroke="rgb(204, 204, 204)" stroke-width="1px"></line></g></g></g></g></svg>