<svg viewBox="0 0 330 200" xmlns="http://www.w3.org/2000/svg"><g><g><g><g><g><line x1="58.59375" y1="177" x2="53.59375" y2="177" style="visibility: inherit;" fill="rgb(0, 0, 0)" stroke="rgb(204, 204, 204)" stroke-width="1px"></line><line x1="58.59375" y1="159.3" x2="53.59375" y2="159.3" style="visibility: inherit;" fill="rgb(0, 0, 0)" stroke="rgb(204, 204, 204)" stroke-width="1px"></line><line x1="58.59375" y1="141.6" x2="53.59375" y2="141.6" style="visibility: inherit;" fill="rgb(0, 0, 0)" stroke="rgb(204, 204, 204)" stroke-width="1px"></line><line x1="58.59375" y1="123.9" x2="53.59375" y2="123.9" style="visibility: inherit;" fill="rgb(0, 0, 0)" stroke="rgb(204, 204, 204)" stroke-width="1px"></line><line x1="58.59375" y1="106.2" x2="53.59375" y2="106.2" style="visibility: inherit;" fill="rgb(0, 0, 0)" stroke="rgb(204, 204, 204)" stroke-width="1px"></line><line x1="58.59375" y1="88.49999999999999" x2="53.59375" y2="88.49999999999999" style="visibility: inherit;" fill="rgb(0, 0, 0)" stroke="rgb(204, 204, 204)" stroke-width="1px"></line><line x1="58.59375" y1="70.79999999999998" x2="53.59375" y2="70.79999999999998" style="visibility: inherit;" fill="rgb(0, 0, 0)" stroke="rgb(204, 204, 204)" stroke-width="1px"></line><line x1="58.59375" y1="53.10000000000001" x2="53.59375" y2="53.10000000000001" style="visibility: inherit;" fill="rgb(0, 0, 0)" stroke="rgb(204, 204, 204)" stroke-width="1px"></line><line x1="58.59375" y1="35.400000000000006" x2="53.59375" y2="35.400000000000006" style="visibility: inherit;" fill="rgb(0, 0, 0)" stroke="rgb(204, 204, 204)" stroke-width="1px"></line><line x1="58.59375" y1="17.69999999999999" x2="53.59375" y2="17.69999999999999" style="visibility: inherit;" fill="rgb(0, 0, 0)" stroke="rgb(204, 204, 204)" stroke-width="1px"></line><line x1="58.59375" y1="0" x2="53.59375" y2="0" style="visibility: inherit;" fill="rgb(0, 0, 0)" stroke="rgb(204, 204, 204)" stroke-width="1px"></line></g><g transform="translate(48.59375, 0)"><text x="0" y="177" dx="0em" dy="0.3em" style="text-anchor: end; visibility: hidden; font-family: &quot;Helvetica Neue&quot;, sans-serif; font-size: 12px; font-weight: 200;" fill="rgb(50, 49, 63)" stroke="none" stroke-width="1px">-0.02</text><text x="0" y="159.3" dx="0em" dy="0.3em" style="text-anchor: end; visibility: inherit; font-family: &quot;Helvetica Neue&quot;, sans-serif; font-size: 12px; font-weight: 200;" fill="rgb(50, 49, 63)" stroke="none" stroke-width="1px">0</text><text x="0" y="141.6" dx="0em" dy="0.3em" style="text-anchor: end; visibility: hidden; font-family: &quot;Helvetica Neue&quot;, sans-serif; font-size: 12px; font-weight: 200;" fill="rgb(50, 49, 63)" stroke="none" stroke-width="1px">0.02</text><text x="0" y="123.9" dx="0em" dy="0.3em" style="text-anchor: end; visibility: inherit; font-family: &quot;Helvetica Neue&quot;, sans-serif; font-size: 12px; font-weight: 200;" fill="rgb(50, 49, 63)" stroke="none" stroke-width="1px">0.04</text><text x="0" y="106.2" dx="0em" dy="0.3em" style="text-anchor: end; visibility: hidden; font-family: &quot;Helvetica Neue&quot;, sans-serif; font-size: 12px; font-weight: 200;" fill="rgb(50, 49, 63)" stroke="none" stroke-width="1px">0.06</text><text x="0" y="88.49999999999999" dx="0em" dy="0.3em" style="text-anchor: end; visibility: inherit; font-family: &quot;Helvetica Neue&quot;, sans-serif; font-size: 12px; font-weight: 200;" fill="rgb(50, 49, 63)" stroke="none" stroke-width="1px">0.08</text><text x="0" y="70.79999999999998" dx="0em" dy="0.3em" style="text-anchor: end; visibility: hidden; font-family: &quot;Helvetica Neue&quot;, sans-serif; font-size: 12px; font-weight: 200;" fill="rgb(50, 49, 63)" stroke="none" stroke-width="1px">0.1</text><text x="0" y="53.10000000000001" dx="0em" dy="0.3em" style="text-anchor: end; visibility: inherit; font-family: &quot;Helvetica Neue&quot;, sans-serif; font-size: 12px; font-weight: 200;" fill="rgb(50, 49, 63)" stroke="none" stroke-width="1px">0.12</text><text x="0" y="35.400000000000006" dx="0em" dy="0.3em" style="text-anchor: end; visibility: hidden; font-family: &quot;Helvetica Neue&quot;, sans-serif; font-size: 12px; font-weight: 200;" fill="rgb(50, 49, 63)" stroke="none" stroke-width="1px">0.14</text><text x="0" y="17.69999999999999" dx="0em" dy="0.3em" style="text-anchor: end; visibility: inherit; font-family: &quot;Helvetica Neue&quot;, sans-serif; font-size: 12px; font-weight: 200;" fill="rgb(50, 49, 63)" stroke="none" stroke-width="1px">0.16</text><text x="0" y="0" dx="0em" dy="0.3em" style="text-anchor: end; visibility: hidden; font-family: &quot;Helvetica Neue&quot;, sans-serif; font-size: 12px; font-weight: 200;" fill="rgb(50, 49, 63)" stroke="none" stroke-width="1px">0.18</text></g><line x1="58.59375" y1="0" x2="58.59375" y2="177" fill="rgb(0, 0, 0)" stroke="rgb(204, 204, 204)" stroke-width="1px"></line></g></g><g transform="translate(58, 0)" clip-path="url(#clip_0)"><clipPath id="clip_0"><rect width="271" height="177"></rect></clipPath><g><g><g><line x1="0" y1="0" x2="0" y2="177" fill="rgb(0, 0, 0)" stroke="rgb(60, 60, 60)" stroke-width="1px" opacity="0.25"></line><line x1="30.15625" y1="0" x2="30.15625" y2="177" fill="rgb(0, 0, 0)" stroke="rgb(60, 60, 60)" stroke-width="1px" opacity="0.25"></line><line x1="60.3125" y1="0" x2="60.3125" y2="177" fill="rgb(0, 0, 0)" stroke="rgb(60, 60, 60)" stroke-width="1px" opacity="0.25"></line><line x1="90.46875" y1="0" x2="90.46875" y2="177" fill="rgb(0, 0, 0)" stroke="rgb(60, 60, 60)" stroke-width="1px" opacity="0.25"></line><line x1="120.625" y1="0" x2="120.625" y2="177" fill="rgb(0, 0, 0)" stroke="rgb(60, 60, 60)" stroke-width="1px" opacity="0.25"></line><line x1="150.78125" y1="0" x2="150.78125" y2="177" fill="rgb(0, 0, 0)" stroke="rgb(60, 60, 60)" stroke-width="1px" opacity="0.25"></line><line x1="180.9375" y1="0" x2="180.9375" y2="177" fill="rgb(0, 0, 0)" stroke="rgb(60, 60, 60)" stroke-width="1px" opacity="0.25"></line><line x1="211.09375" y1="0" x2="211.09375" y2="177" fill="rgb(0, 0, 0)" stroke="rgb(60, 60, 60)" stroke-width="1px" opacity="0.25"></line><line x1="241.25" y1="0" x2="241.25" y2="177" fill="rgb(0, 0, 0)" stroke="rgb(60, 60, 60)" stroke-width="1px" opacity="0.25"></line><line x1="271.40625" y1="0" x2="271.40625" y2="177" fill="rgb(0, 0, 0)" stroke="rgb(60, 60, 60)" stroke-width="1px" opacity="0.25"></line></g><g><line x1="0" y1="177" x2="271.40625" y2="177" fill="rgb(0, 0, 0)" stroke="rgb(60, 60, 60)" stroke-width="1px" opacity="0.25"></line><line x1="0" y1="159.3" x2="271.40625" y2="159.3" fill="rgb(0, 0, 0)" stroke="rgb(60, 60, 60)" stroke-width="1px" opacity="0.25"></line><line x1="0" y1="141.6" x2="271.40625" y2="141.6" fill="rgb(0, 0, 0)" stroke="rgb(60, 60, 60)" stroke-width="1px" opacity="0.25"></line><line x1="0" y1="123.9" x2="271.40625" y2="123.9" fill="rgb(0, 0, 0)" stroke="rgb(60, 60, 60)" stroke-width="1px" opacity="0.25"></line><line x1="0" y1="106.2" x2="271.40625" y2="106.2" fill="rgb(0, 0, 0)" stroke="rgb(60, 60, 60)" stroke-width="1px" opacity="0.25"></line><line x1="0" y1="88.49999999999999" x2="271.40625" y2="88.49999999999999" fill="rgb(0, 0, 0)" stroke="rgb(60, 60, 60)" stroke-width="1px" opacity="0.25"></line><line x1="0" y1="70.79999999999998" x2="271.40625" y2="70.79999999999998" fill="rgb(0, 0, 0)" stroke="rgb(60, 60, 60)" stroke-width="1px" opacity="0.25"></line><line x1="0" y1="53.10000000000001" x2="271.40625" y2="53.10000000000001" fill="rgb(0, 0, 0)" stroke="rgb(60, 60, 60)" stroke-width="1px" opacity="0.25"></line><line x1="0" y1="35.400000000000006" x2="271.40625" y2="35.400000000000006" fill="rgb(0, 0, 0)" stroke="rgb(60, 60, 60)" stroke-width="1px" opacity="0.25"></line><line x1="0" y1="17.69999999999999" x2="271.40625" y2="17.69999999999999" fill="rgb(0, 0, 0)" stroke="rgb(60, 60, 60)" stroke-width="1px" opacity="0.25"></line><line x1="0" y1="0" x2="271.40625" y2="0" fill="rgb(0, 0, 0)" stroke="rgb(60, 60, 60)" stroke-width="1px" opacity="0.25"></line></g></g></g><g><g><line x1="0" y1="159.3" x2="271.40625" y2="159.3" fill="rgb(0, 0, 0)" stroke="rgb(153, 153, 153)" stroke-width="1.5px"></line></g></g><g><g><line x1="30.15625" y1="0" x2="30.15625" y2="177" fill="rgb(0, 0, 0)" stroke="rgb(153, 153, 153)" stroke-width="1.5px"></line></g></g><g><g><g><g><g><path stroke="rgb(255, 112, 67)" stroke-width="2px" d="M38.841249999999995,-5.2027060224140484L39.323750000000004,2.639558186762258L39.80625,8.390479612408058L40.28875,13.379682155794683L40.77125,18.321634252438088L41.25375,21.456868794974838L41.736250000000005,24.525967531465028L42.21875,27.224179397248434L42.701249999999995,29.605691600795836L43.18375,31.680179988299813L43.66625,32.318377585094L44.14875,33.566593173649665L44.63125,36.1287601683689L45.113749999999996,37.205957821158904L45.596250000000005,38.57112852485079L46.07875,39.38411189233662L46.561249999999994,40.71671075915563L47.04375,42.286273987360914L47.52625,43.84211815561187L48.008750000000006,44.19095824708131L48.49125,45.65968174516303L48.973749999999995,45.88670369404588L49.456250000000004,47.504350971196374L49.93875,48.62075646753047L50.42124999999999,49.3609182999777L50.90375,50.21822020344371L51.38625,51.304370344587426L51.868750000000006,53.43074252196L52.35125,53.82534094268274L52.833749999999995,53.76297258027765L53.316250000000004,55.16870227689476L53.79875,56.71984612904211L54.28125,57.386531324164665L54.76375,58.80656869291275L55.246249999999996,59.82482781278675L55.728750000000005,61.42128458897989L56.21125,62.72587721932446L56.69375,65.05804069691101L57.17625,66.14730000825668L57.65875,67.51865800042135L58.14125,70.66378059100643L58.62375,71.9088800240251L59.106249999999996,73.65043488196692L59.588750000000005,77.32631648929221L60.07125,79.03453587324205L60.55375,82.213713446443L61.03625,85.83199311565441L61.51875,88.82834981066635L62.00125,93.46304103960186L62.48375,96.3549316849088L62.96625,98.07196750913712L63.44875,99.8604296438375L63.93125,102.62081020697826L64.41375000000001,103.46983657076878L64.89625,104.57740039971425L65.37875,107.014908159059L65.86125,107.9731600009094L66.34375,109.54371273772063L66.82625,109.7674625915655L67.30875,108.16748536064436L67.79124999999999,108.9890641145957L68.27374999999999,107.34926768797949L68.75625000000001,108.31333536719272L69.23875,107.09091093549125L69.72125,107.7865754610836L70.20375,108.50354073593256L70.68625,108.16198841988584L71.16875,109.59864970421518L71.65125,109.5103730131729L72.13375,109.49306607333085L72.61625,110.01639038495577L73.09875,109.79001811368678L73.58125000000001,109.1994452784861L74.06375,110.23942019524603L74.54625,111.73601330031411L75.02875,111.66312843358192L75.51124999999999,110.54173385349317L75.99375,110.88335426418425L76.47625000000001,112.52459465395476L76.95875,110.88062548119464L77.44125,110.95108980642938L77.92375,110.3036527926158L78.40624999999999,111.58230376180595L78.88875,111.19085135094275L79.37125,111.25467081208198L79.85375,111.92005052887897L80.33624999999999,113.34518492921293L80.81875,111.61587280573904L81.30125000000001,111.82188389594829L81.78375,113.01864671317026L82.26625,113.82634134773782L82.74875,115.73186939587814L83.23124999999999,116.55862094211949L83.71375,115.91052328913433L84.19625,114.31386255812063L84.67875,115.82019171888479L85.16125,116.74671660050657L85.64375,116.62815938374345L86.12625000000001,115.90134381610719L86.60875,114.70952869688611L87.09125,113.10973191371644L87.57375,113.1422429937785L88.05624999999999,112.64737408183008L88.53875000000001,114.2197135673284L89.02125000000001,111.90680545457121L89.50375,113.52962281309316L89.98625,112.58681203396768L90.46875,111.39362211925774L90.95125,116.04149239422674L91.43375,116.89902245916005L91.91625,116.90641148458168L92.39874999999999,116.35878070455935L92.88125,115.76775592990009L93.36375,116.10860247985892L93.84625,115.44803497061952L94.32875,115.80577180275812L94.81125,115.77512720638211L95.29375,116.9415896958929L95.77624999999999,116.39193707536589L96.25875,114.44228983092862L96.74125000000001,115.76266408782337L97.22375,116.94725319606741L97.70625,117.86834245212484L98.18875,118.13304765813118L98.67125,117.39085405464508L99.15375,118.43074495104275L99.63625,116.31643575255467L100.11874999999999,116.34795979126926L100.60125,116.99353497871539L101.08375000000001,117.3832248336004L101.56625,114.22936466073553L102.04875,115.60858668050503L102.53125,117.87907806850276L103.01374999999999,118.76597044179917L103.49625,117.98942705249834L103.97875,117.93117761138706L104.46125,120.36413791610974L104.94375,118.99689192643271L105.42625,119.15444038969581L105.90875000000001,116.85005400545776L106.39125,114.5786157796823L106.87375,115.71845942408102L107.35625,117.326641180338L107.83874999999999,119.74819838268849L108.32125,119.05473597772891L108.80375000000001,117.81681312994942L109.28625,120.60239431456796L109.76875,119.09358919349951L110.25125,118.90721364103342L110.73374999999999,120.44656699736467L111.21625,120.38761325055094L111.69875,119.35080257102089L112.18125,119.60530695166729L112.66375,118.57705065337743L113.14625,121.06702300267176L113.62875000000001,119.76786036078188L114.11125,121.6423329352382L114.59375,120.12103400582332L115.07625,120.46031017395413L115.55874999999999,119.97231401200625L116.04125,118.92312984106262L116.52375,118.86993803463768L117.00625,120.5695730258965L117.48875,118.50162233888766L117.97125,120.29051101165808L118.45375,120.29463507925152L118.93625,122.37804467764305L119.41875,119.79957708261493L119.90125,120.42112214858582L120.38374999999999,120.20618217405826L120.86625000000001,119.9802067796418L121.34875000000001,119.76791628837756L121.83125,120.48167811387881L122.31375,121.7579024687654L122.79625,123.43479633630788L123.27875,121.58121728450939L123.76125,121.14774882048897L124.24375,120.95223123997766L124.72625,122.32559002411554L125.20875,121.26579598142023L125.69125,122.12875328661988L126.17375,121.85935491265052L126.65625,120.8549300082993L127.13875,119.77394365629384L127.62124999999999,118.73601646608608L128.10375,121.73773871562778L128.58625,122.30408319474398L129.06875,122.33203650320254L129.55125,123.35442077222277L130.03375,124.83115964414364L130.51624999999999,122.55999543357899L130.99875,123.801298205787L131.48125000000002,121.64050618811493L131.96375,123.0757917252424L132.44625,123.16314134342926L132.92875,121.37882259364996L133.41125,122.86033972100063L133.89375,122.87591652837779L134.37625,122.41962815503709L134.85875,124.99696432280797L135.34125,124.10455960886631L135.82375000000002,122.78578291271302L136.30625,121.0664354049216L136.78875,122.97146775889698L137.27125,120.84121752541245L137.75375,121.09694301462758L138.23624999999998,122.80818138764255L138.71875,122.13369246242017L139.20125,124.01028577904444L139.68375,122.00579436642255L140.16625000000002,121.95439837707474L140.64875,123.4622168915474L141.13125,124.53348098081372L141.61375,123.54787253190291L142.09625,122.79114245950706L142.57874999999999,121.3149998100372L143.06125,121.51384594480822L143.54375,121.7861592778005L144.02624999999998,121.90054110607133L144.50875000000002,121.64975509566443L144.99125,123.55707981122956L145.47375,123.32422859599248L145.95625,124.49817892807755L146.43875,125.29246300964374L146.92125,125.73912678336393L147.40375,125.47144635543401L147.88625,124.92242716536029L148.36874999999998,125.37200950375261L148.85125,123.46893701249994L149.33374999999998,124.75770256516121L149.81625000000003,124.00267514167298L150.29875,124.24745297597687L150.78125,123.07158955256247L151.26375000000002,123.39289592069449L151.74625,122.05236853845156L152.22875,121.93575134508154L152.71125,123.22551931191887L153.19375,124.355844239589L153.67624999999998,125.4283344043472L154.15875,126.38288139928451L154.64125,125.88818077641172L155.12375,125.76930235086348L155.60625000000002,125.79375235264578L156.08875,124.91201334878849L156.57125,124.36662928095488L157.05375,126.28946404028551L157.53625,126.43276817690501L158.01874999999998,125.70874897266131L158.50125,125.30621434196652L158.98375,126.35445223089945L159.46625,126.35909081123407L159.94875000000002,125.1956375886329L160.43125,125.36416557248401L160.91375,125.44949821094255L161.39625,125.84100326394784L161.87875,123.59783797380774L162.36124999999998,122.82145800660521L162.84375,124.65286569398921L163.32625,122.09154629291464L163.80874999999997,124.38198881615023L164.29125,123.92048849891913L164.77375,125.00830883938843L165.25625000000002,125.54142841165529L165.73875,123.88026183793107L166.22125,125.03745177328085L166.70375,123.74928338312802L167.18625,125.99576439370928L167.66875,126.96624442106615L168.15125,127.67063443729955L168.63375,126.36515108537483L169.11624999999998,126.49398038084391L169.59875000000002,124.93741317537476L170.08125,124.44967416910558L170.56375,124.81795272641318L171.04625000000001,124.76013288863264L171.52875,127.38402150522329L172.01125,126.54364714861308L172.49375,127.13117179298635L172.97625,128.42379377617976L173.45874999999998,129.13422321697797L173.94125,125.51791153473093L174.42375,126.52197471900246L174.90625,126.65341084804214L175.38875000000002,127.67692414406584L175.87125,129.2156123231867L176.35375,130.4196193445336L176.83625,128.4521899162895L177.31875,127.30616225654879L177.80124999999998,126.11852736207842L178.28375,127.51434856583475L178.76624999999999,127.67767773049951L179.24874999999997,125.69418751405405L179.73125000000002,127.68450305406289L180.21375,126.97271746840498L180.69625000000002,127.19537054834618L181.17875,127.26913453959139L181.66125,125.46685157431789L182.14375,125.92657363959329L182.62625,124.86128938495025L183.10875,126.52872291951718L183.59125,125.1686261397561L184.07375,127.82324841302399L184.55625,128.2743669577346L185.03875000000002,127.06126978533898L185.52125,126.02124292097946L186.00375,126.0415324785856L186.48625,124.95154803923056L186.96875,125.60281402546934L187.45125,126.96104229616387L187.93375,125.53781975851811L188.41625,126.6716277733228L188.89874999999998,127.32412778018602L189.38125000000002,128.12131569760254L189.86375,126.75372668312318L190.34625,126.69589899275498L190.82875,127.14854482557652L191.31125,127.42828485486672L191.79375,127.95205628763297L192.27625,127.68613254928982L192.75875,127.20379774185653L193.24124999999998,128.49965505071066L193.72375,128.5933855770086L194.20624999999998,128.68428203422158L194.68875,128.60646328722436L195.17125000000001,129.50713369455931L195.65375,130.70695056561826L196.13625,129.48383915718912L196.61875,128.65805392561268L197.10125,128.82497515706962L197.58374999999998,128.97184603141991L198.06625,129.14124724523572L198.54874999999998,129.03060570333213L199.03125,127.74307945474273L199.51375000000002,128.34429263653925L199.99625,129.82574082408885L200.47875000000002,126.84194256183231L200.96125,127.84971409748033L201.44375,129.85006252399108L201.92625,130.13580291522157L202.40875,130.7379729032672L202.89124999999999,130.84389578551986L203.37375,130.01272323847377L203.85625,126.56776646268705L204.33875,127.26815419460738L204.82125000000002,128.80089457938314L205.30375,128.69087906962181L205.78625,126.99917465439765L206.26875,126.85250982011155L206.75125,127.24186777064082L207.23375,128.6263870921068L207.71625,128.7818155062993L208.19875,130.50783749775883L208.68124999999998,128.78155512545584L209.16375000000002,126.86922524502323L209.64625,125.49896733063726L210.12875,126.41913159220377L210.61125,127.2430132253704L211.09375,127.35451618991718L211.57625,126.9820913098003L212.05875,129.60424241821443L212.54125,131.2499550288944L213.02374999999998,131.39200140988993L213.50625,130.53501335624557L213.98874999999998,130.42659547504007L214.47125000000003,130.47651756868493L214.95375,128.41639011660655L215.43625,127.72981682276392L215.91875000000002,125.80683537754813L216.40125,124.9132469811046L216.88375,125.64976816850924L217.36625,126.3356844301702L217.84875,128.662508281957L218.33124999999998,129.17312407040052L218.81375,129.41543908413323L219.29625000000001,128.54676787821097L219.77875,129.24011271427656L220.26125000000002,128.17619284350027L220.74375,127.54805861746283L221.22625,128.4477149339617L221.70875,129.53040626866226L222.19125,129.44724554522398L222.67374999999998,129.0694425547335L223.15625,128.09679902727686L223.63875,129.62336107990313L224.12125,129.97937434972027L224.60375000000002,129.7806966782254L225.08625,128.65137820694696L225.56875,129.54742446812304L226.05125,130.25739343000836L226.53375,127.66132624437444L227.01624999999999,126.54612221086045L227.49875,128.31400215157282L227.98125,127.02629650967366L228.46374999999998,127.87454555503754L228.94625,128.45324513478414L229.42875,129.94305997260415L229.91125000000002,127.9630885608077L230.39375,129.99220110741734L230.87625,128.76314026395966L231.35875000000001,128.5488134174376L231.84125,129.72105481885848L232.32375,129.1636403656779L232.80625,129.3319450856315L233.28875,129.28772796309394L233.77124999999998,128.1160244379425L234.25375000000003,129.2272698464384L234.73625,131.35520636528076L235.21875,132.3246197570225L235.70125000000002,132.1447685138202L236.18375,131.56832798843482L236.66625,130.0611633940035L237.14875,130.28086663207375L237.63125,130.32760132772304L238.11374999999998,131.57753317950713L238.59625,130.29697766660777L239.07875,129.75030164247232L239.56125,129.42341301158353L240.04375000000002,129.73895063111357L240.52625,128.14941155349715L241.00875,126.98563452890815L241.49125,127.33347026426375L241.97375,128.3831073753165L242.45624999999998,128.46547141266626L242.93875,129.64105326558803L243.42125,130.45228437751922L243.90374999999997,130.83580624383922L244.38625000000002,129.83609405322215L244.86875,129.27373777993526L245.35125,130.26490214909916L245.83375,128.9498113685596L246.31625,127.80298982493568L246.79874999999998,129.92389501784734L247.28125,131.0072993150621L247.76375,131.7258352745336L248.24625,131.78114791832934L248.72875,132.17921329481942L249.21125,132.9294094556185L249.69375000000002,130.7771492382057L250.17625,129.6264565527539L250.65875,128.67791355014447L251.14125,129.64020522272946L251.62375,131.16898122153498L252.10625,131.2354284177531L252.58875,132.38061134414727L253.07125,131.8756444281152L253.55374999999998,130.4242429388053L254.03625000000002,130.30602084234278L254.51875,129.89795767119477" style="fill: none;" fill="none"></path></g></g></g></g><g opacity="0.2"><g><g><g><path stroke="rgb(255, 112, 67)" stroke-width="2px" d="M37.39375,-1.8514560878276995L37.87625,4.881409782171261L38.35875,7.056573781371128L38.841249999999995,11.620803478360187L39.323750000000004,14.402237686514866L39.80625,17.01654635667802L40.28875,20.863321799039852L40.77125,25.73446482717992L41.25375,26.159683468937885L41.736250000000005,29.12959382236005L42.21875,31.27148568928243L42.701249999999995,33.177953812479984L43.18375,34.79190938472749L43.66625,33.27567339241506L44.14875,35.4389158666134L44.63125,39.97200981080533L45.113749999999996,38.82175408601762L45.596250000000005,40.61888441741468L46.07875,40.60358688533307L46.561249999999994,42.715609002113354L47.04375,44.640618789196026L47.52625,46.175884383916866L48.008750000000006,44.71421838104726L48.49125,47.86276698410512L48.973749999999995,46.22723661661149L49.456250000000004,49.93082188367843L49.93875,50.29536471068859L50.42124999999999,50.4711610481143L50.90375,51.504173058271405L51.38625,52.933595556020734L51.868750000000006,56.6203007876873L52.35125,54.41723857372999L52.833749999999995,53.66942003667354L53.316250000000004,57.27729682177305L53.79875,59.046561907231805L54.28125,58.38655911684036L54.76375,60.936624746024606L55.246249999999996,61.352216492593286L55.728750000000005,63.81596975326538L56.21125,64.68276616483926L56.69375,68.55628591328858L57.17625,67.78118897527455L57.65875,69.57569498866795L58.14125,75.3814644768834L58.62375,73.77652917355297L59.106249999999996,76.26276716887949L59.588750000000005,82.84013890027998L60.07125,81.59686494916676L60.55375,86.98247980624436L61.03625,91.25941261947155L61.51875,93.32288485318422L62.00125,100.41507788300514L62.48375,100.69276765286922L62.96625,100.64752124547958L63.44875,102.54312284588813L63.93125,106.76138105168938L64.41375000000001,104.7433761164546L64.89625,106.23874614313245L65.37875,110.67116979807615L65.86125,109.41053776368499L66.34375,111.89954184293747L66.82625,110.10308737233281L67.30875,105.76751951426267L67.79124999999999,110.22143224552273L68.27374999999999,104.88957304805517L68.75625000000001,109.75943688601255L69.23875,105.25727428793907L69.72125,108.83007224947214L70.20375,109.57898864820599L70.68625,107.6496599458158L71.16875,111.75364163070917L71.65125,109.37795797660947L72.13375,109.46710566356778L72.61625,110.80137685239315L73.09875,109.45045970678329L73.58125000000001,108.31358602568507L74.06375,111.79938257038593L74.54625,113.98090295791626L75.02875,111.55380113348365L75.51124999999999,108.85964198336005L75.99375,111.39578488022089L76.47625000000001,114.9864552386105L76.95875,108.41467172205448L77.44125,111.05678629428148L77.92375,109.3324972718954L78.40624999999999,113.50028021559119L78.88875,110.60367273464799L79.37125,111.35040000379085L79.85375,112.91812010407448L80.33624999999999,115.48288652971387L80.81875,109.02190462052822L81.30125000000001,112.13090053126216L81.78375,114.81379093900323L82.26625,115.03788329958915L82.74875,118.59016146808862L83.23124999999999,117.79874826148152L83.71375,114.93837680965662L84.19625,111.91887146160006L84.67875,118.07968546003103L85.16125,118.1365039229393L85.64375,116.45032355859875L86.12625000000001,114.81112046465277L86.60875,112.92180601805448L87.09125,110.71003673896193L87.57375,113.19100961387157L88.05624999999999,111.90507071390748L88.53875000000001,116.57822279557585L89.02125000000001,108.43744328543544L89.50375,115.96384885087609L89.98625,111.17259586527943L90.46875,109.60383724719286L90.95125,123.0132978066802L91.43375,118.18531755656004L91.91625,116.91749502271414L92.39874999999999,115.53733453452587L92.88125,114.8812187679112L93.36375,116.61987230479717L93.84625,114.4571837067604L94.32875,116.34237705096602L94.81125,115.72916031181812L95.29375,118.69128343015909L95.77624999999999,115.56745814457535L96.25875,111.51781896427273L96.74125000000001,117.74322547316551L97.22375,118.72413685843348L97.70625,119.24997633621096L98.18875,118.53010546714067L98.67125,116.27756364941597L99.15375,119.99058129563927L99.63625,113.14497195482254L100.11874999999999,116.39524584934115L100.60125,117.9618977598846L101.08375000000001,117.96775961592793L101.56625,109.49857440143823L102.04875,117.6774197101593L102.53125,121.28481515049934L103.01374999999999,120.09630900174379L103.49625,116.8246119685471L103.97875,117.84380344972014L104.46125,124.01357837319374L104.94375,116.94602294191718L105.42625,119.39076308459043L105.90875000000001,113.39347442910075L106.39125,111.17145844101906L106.87375,117.42822489067912L107.35625,119.73891381472349L107.83874999999999,123.3805341862142L108.32125,118.01454237028956L108.80375000000001,115.95992885828018L109.28625,124.78076609149575L109.76875,116.83038151189685L110.25125,118.6276503123343L110.73374999999999,122.75559703186154L111.21625,120.29918263033032L111.69875,117.79558655172586L112.18125,119.98706352263689L112.66375,117.03466620594263L113.14625,124.80198152661323L113.62875000000001,117.81911639794707L114.11125,124.45404179692268L114.59375,117.83908561170101L115.07625,120.96922442615032L115.55874999999999,119.24031976908445L116.04125,117.34935358464718L116.52375,118.79015032500028L117.00625,123.11902551278472L117.48875,115.3996963083744L117.97125,122.9738440208137L118.45375,120.30082118064165L118.93625,125.50315907523036L119.41875,115.93187569007277L119.90125,121.35343974754214L120.38374999999999,119.88377221226692L120.86625000000001,119.64124368801713L121.34875000000001,119.44948055148124L121.83125,121.55232085213065L122.31375,123.67223900109529L122.79625,125.95013713762164L123.27875,118.80084870681166L123.76125,120.49754612445831L124.24375,120.65895486921072L124.72625,124.38562820032239L125.20875,119.67610491737723L125.69125,123.42318924441933L126.17375,121.45525735169649L126.65625,119.3482926517725L127.13875,118.15246412828564L127.62124999999999,117.17912568077445L128.10375,126.2403220899403L128.58625,123.15359991341829L129.06875,122.3739664658904L129.55125,124.88799717575311L130.03375,127.04626795202493L130.51624999999999,119.15324911773205L130.99875,125.66325236409902L131.48125000000002,118.39931816160679L131.96375,125.22872003093362L132.44625,123.29416577070951L132.92875,118.70234446898102L133.41125,125.08261541202664L133.89375,122.89928173944354L134.37625,121.73519559502601L134.85875,128.86296857446433L135.34125,122.76595253795385L135.82375000000002,120.80761786848306L136.30625,118.48741414323449L136.78875,125.82901628986001L137.27125,117.64584217518568L137.75375,121.48053124845028L138.23624999999998,125.37503894716501L138.71875,121.12195907458663L139.20125,126.82517575398087L139.68375,118.99905724748969L140.16625000000002,121.87730439305305L140.64875,125.7239446632564L141.13125,126.14037711471319L141.61375,122.06945985853672L142.09625,121.65604735091328L142.57874999999999,119.10078583583235L143.06125,121.81211514696479L143.54375,122.19462927728891L144.02624999999998,122.0721138484776L144.50875000000002,121.27357608005404L144.99125,126.41806688457727L145.47375,122.97495177313685L145.95625,126.25910442620516L146.43875,126.48388913199305L146.92125,126.40912244394421L147.40375,125.06992571353912L147.88625,124.09889838024974L148.36874999999998,126.04638301134109L148.85125,120.61432827562093L149.33374999999998,126.69085089415312L149.81625000000003,122.87013400644064L150.29875,124.61461972743272L150.78125,121.30779441744089L151.26375000000002,123.87485547289252L151.74625,120.04157746508717L152.22875,121.76082555502653L152.71125,125.16017126217484L153.19375,126.05133163109421L153.67624999999998,127.03706965148449L154.15875,127.81470189169049L154.64125,125.14612984210252L155.12375,125.5909847125411L155.60625000000002,125.83042735531926L156.08875,123.58940484300255L156.57125,123.54855317920446L157.05375,129.17371617928148L157.53625,126.64772438183427L158.01874999999998,124.62272016629576L158.50125,124.70241239592433L158.98375,127.92680906429887L159.46625,126.36604868173599L159.94875000000002,123.45045775473118L160.43125,125.61695754826069L160.91375,125.57749716863036L161.39625,126.42826084345579L161.87875,120.23309003859758L162.36124999999998,121.65688805580139L162.84375,127.39997722506523L163.32625,118.24956719130277L163.80874999999997,127.81765260100364L164.29125,123.22823802307248L164.77375,126.64003935009241L165.25625000000002,126.34110777005553L165.73875,121.38851197734475L166.22125,126.77323667630553L166.70375,121.81703079789877L167.18625,129.3654859095812L167.66875,128.42196446210147L168.15125,128.72721946164967L168.63375,124.40692605748772L169.11624999999998,126.68722432404756L169.59875000000002,122.60256236717105L170.08125,123.71806565970182L170.56375,125.37037056237459L171.04625000000001,124.67340313196182L171.52875,131.31985443010927L172.01125,125.28308561369776L172.49375,128.0124587595463L172.97625,130.3627267509699L173.45874999999998,130.19986737817527L173.94125,120.0934440113604L174.42375,128.02806949540974L174.90625,126.85056504160166L175.38875000000002,129.2121940881014L175.87125,131.52364459186794L176.35375,132.22562987655402L176.83625,125.5010457739234L177.31875,125.58712076693773L177.80124999999998,124.33707502037286L178.28375,129.60808037146927L178.76624999999999,127.92267147749662L179.24874999999997,122.71895218938589L179.73125000000002,130.66997636407615L180.21375,125.90503908991813L180.69625000000002,127.52935016825795L181.17875,127.37978052645921L181.66125,122.76342712640762L182.14375,126.61615673750639L182.62625,123.26336300298571L183.10875,129.0298732213676L183.59125,123.12848097011447L184.07375,131.80518182292582L184.55625,128.95104477480055L185.03875000000002,125.24162402674555L185.52125,124.46120262444019L186.00375,126.07196681499481L186.48625,123.316571380198L186.96875,126.5797130048275L187.45125,128.99838470220567L187.93375,123.40298595204949L188.41625,128.37233979552985L188.89874999999998,128.30287779048086L189.38125000000002,129.31709757372738L189.86375,124.70234316140413L190.34625,126.60915745720267L190.82875,127.82751357480883L191.31125,127.84789489880204L191.79375,128.73771343678237L192.27625,127.28724694177508L192.75875,126.48029553070664L193.24124999999998,130.44344101399184L193.72375,128.73398136645557L194.20624999999998,128.82062672004105L194.68875,128.4897351667285L195.17125000000001,130.8581393055618L195.65375,132.5066758722067L196.13625,127.64917204454541L196.61875,127.41937607824802L197.10125,129.07535700425507L197.58374999999998,129.19215234294535L198.06625,129.39534906595946L198.54874999999998,128.86464339047672L199.03125,125.81179008185863L199.51375000000002,129.24611240923406L199.99625,132.04791310541333L200.47875000000002,122.36624516844749L200.96125,129.36137140095235L201.44375,132.85058516375722L201.92625,130.56441350206734L202.40875,131.6412278853357L202.89124999999999,131.0027801088989L203.37375,128.76596441790463L203.85625,121.40033129900694L204.33875,128.31873579248787L204.82125000000002,131.10000515654684L205.30375,128.5258558049798L205.78625,124.46161803156137L206.26875,126.63251256868243L206.75125,127.82590469643473L207.23375,130.70316607430578L207.71625,129.01495812758805L208.19875,133.09687048494817L208.68124999999998,126.19213156700134L209.16375000000002,124.00073042437434L209.64625,123.44358045905828L210.12875,127.79937798455357L210.61125,128.47883567512037L211.09375,127.52177063673734L211.57625,126.42345398962497L212.05875,133.5374690808356L212.54125,133.71852394491435L213.02374999999998,131.60507098138334L213.50625,129.24953127577902L213.98874999999998,130.26396865323187L214.47125000000003,130.55140070915223L214.95375,125.32619893848896L215.43625,126.69995688199997L215.91875000000002,122.92236320972442L216.40125,123.57286438643932L216.88375,126.75454994961619L217.36625,127.36455882266164L217.84875,132.1527440596372L218.33124999999998,129.93904775306584L218.81375,129.7789116047323L219.29625000000001,127.24376106932759L219.77875,130.28012996837498L220.26125000000002,126.58031303733587L220.74375,126.60585727840662L221.22625,129.79719940871001L221.70875,131.1544432707131L222.19125,129.32250446006657L222.67374999999998,128.50273806899787L223.15625,126.63783373609185L223.63875,131.91320415884257L224.12125,130.51339425444604L224.60375000000002,129.4826801709831L225.08625,126.95740050002932L225.56875,130.89149385988713L226.05125,131.32234687283636L226.53375,123.76722546592354L227.01624999999999,124.87331616058945L227.49875,130.9658220626414L227.98125,125.09473804682493L228.46374999999998,129.14691912308336L228.94625,129.32129450440408L229.42875,132.17778222933413L229.91125000000002,124.99313144311309L230.39375,133.03586992733182L230.87625,126.9195489987731L231.35875000000001,128.22732314765454L231.84125,131.47941692098976L232.32375,128.32751868590714L232.80625,129.58440216556193L233.28875,129.2214022792876L233.77124999999998,126.35846915021538L234.25375000000003,130.89413795918227L234.73625,134.54711114354433L235.21875,133.77873984463514L235.70125000000002,131.87499164901675L236.18375,130.70366720035673L236.66625,127.80041650235653L237.14875,130.61042148917915L237.63125,130.397703371197L238.11374999999998,133.45243095718325L238.59625,128.37614439725877L239.07875,128.93028760626913L239.56125,128.9330800652504L240.04375000000002,130.2122570604086L240.52625,125.76510293707251L241.00875,125.23996899202466L241.49125,127.85522386729717L241.97375,129.95756304189564L242.45624999999998,128.58901746869088L242.93875,131.40442604497076L243.42125,131.669131045416L243.90374999999997,131.41108904331924L244.38625000000002,128.33652576729656L244.86875,128.4302033700049L245.35125,131.751648702845L245.83375,126.97717519775033L246.31625,126.08275750949979L246.79874999999998,133.10525280721487L247.28125,132.6324057608843L247.76375,132.80363921374084L248.24625,131.86411688402296L248.72875,132.77631135955454L249.21125,134.05470369681717L249.69375000000002,127.54875891208648L250.17625,127.90041752457618L250.65875,127.25509904623031L251.14125,131.08364273160697L251.62375,133.46214521974326L252.10625,131.33509921208025L252.58875,134.09838573373855L253.07125,131.11819405406715L253.55374999999998,128.24714070484043L254.03625000000002,130.128687697649L254.51875,129.28586291447283" style="fill: none;" fill="none"></path></g></g></g></g></g></g><g transform="translate(58, 177)" clip-path="url(#clip_1)"><clipPath id="clip_1"><rect width="271" height="23"></rect></clipPath><g><g><line x1="0" y1="0" x2="0" y2="5" style="visibility: inherit;" fill="rgb(0, 0, 0)" stroke="rgb(204, 204, 204)" stroke-width="1px"></line><line x1="30.15625" y1="0" x2="30.15625" y2="5" style="visibility: inherit;" fill="rgb(0, 0, 0)" stroke="rgb(204, 204, 204)" stroke-width="1px"></line><line x1="60.3125" y1="0" x2="60.3125" y2="5" style="visibility: inherit;" fill="rgb(0, 0, 0)" stroke="rgb(204, 204, 204)" stroke-width="1px"></line><line x1="90.46875" y1="0" x2="90.46875" y2="5" style="visibility: inherit;" fill="rgb(0, 0, 0)" stroke="rgb(204, 204, 204)" stroke-width="1px"></line><line x1="120.625" y1="0" x2="120.625" y2="5" style="visibility: inherit;" fill="rgb(0, 0, 0)" stroke="rgb(204, 204, 204)" stroke-width="1px"></line><line x1="150.78125" y1="0" x2="150.78125" y2="5" style="visibility: inherit;" fill="rgb(0, 0, 0)" stroke="rgb(204, 204, 204)" stroke-width="1px"></line><line x1="180.9375" y1="0" x2="180.9375" y2="5" style="visibility: inherit;" fill="rgb(0, 0, 0)" stroke="rgb(204, 204, 204)" stroke-width="1px"></line><line x1="211.09375" y1="0" x2="211.09375" y2="5" style="visibility: inherit;" fill="rgb(0, 0, 0)" stroke="rgb(204, 204, 204)" stroke-width="1px"></line><line x1="241.25" y1="0" x2="241.25" y2="5" style="visibility: inherit;" fill="rgb(0, 0, 0)" stroke="rgb(204, 204, 204)" stroke-width="1px"></line><line x1="271.40625" y1="0" x2="271.40625" y2="5" style="visibility: inherit;" fill="rgb(0, 0, 0)" stroke="rgb(204, 204, 204)" stroke-width="1px"></line></g><g transform="translate(0, 8)"><text x="0" y="0" dx="0em" dy="0.95em" style="text-anchor: middle; visibility: hidden; font-family: &quot;Helvetica Neue&quot;, sans-serif; font-size: 12px; font-weight: 200;" fill="rgb(50, 49, 63)" stroke="none" stroke-width="1px">-50k</text><text x="30.15625" y="0" dx="0em" dy="0.95em" style="text-anchor: middle; visibility: inherit; font-family: &quot;Helvetica Neue&quot;, sans-serif; font-size: 12px; font-weight: 200;" fill="rgb(50, 49, 63)" stroke="none" stroke-width="1px">0</text><text x="60.3125" y="0" dx="0em" dy="0.95em" style="text-anchor: middle; visibility: hidden; font-family: &quot;Helvetica Neue&quot;, sans-serif; font-size: 12px; font-weight: 200;" fill="rgb(50, 49, 63)" stroke="none" stroke-width="1px">50k</text><text x="90.46875" y="0" dx="0em" dy="0.95em" style="text-anchor: middle; visibility: inherit; font-family: &quot;Helvetica Neue&quot;, sans-serif; font-size: 12px; font-weight: 200;" fill="rgb(50, 49, 63)" stroke="none" stroke-width="1px">100k</text><text x="120.625" y="0" dx="0em" dy="0.95em" style="text-anchor: middle; visibility: hidden; font-family: &quot;Helvetica Neue&quot;, sans-serif; font-size: 12px; font-weight: 200;" fill="rgb(50, 49, 63)" stroke="none" stroke-width="1px">150k</text><text x="150.78125" y="0" dx="0em" dy="0.95em" style="text-anchor: middle; visibility: inherit; font-family: &quot;Helvetica Neue&quot;, sans-serif; font-size: 12px; font-weight: 200;" fill="rgb(50, 49, 63)" stroke="none" stroke-width="1px">200k</text><text x="180.9375" y="0" dx="0em" dy="0.95em" style="text-anchor: middle; visibility: hidden; font-family: &quot;Helvetica Neue&quot;, sans-serif; font-size: 12px; font-weight: 200;" fill="rgb(50, 49, 63)" stroke="none" stroke-width="1px">250k</text><text x="211.09375" y="0" dx="0em" dy="0.95em" style="text-anchor: middle; visibility: inherit; font-family: &quot;Helvetica Neue&quot;, sans-serif; font-size: 12px; font-weight: 200;" fill="rgb(50, 49, 63)" stroke="none" stroke-width="1px">300k</text><text x="241.25" y="0" dx="0em" dy="0.95em" style="text-anchor: middle; visibility: hidden; font-family: &quot;Helvetica Neue&quot;, sans-serif; font-size: 12px; font-weight: 200;" fill="rgb(50, 49, 63)" stroke="none" stroke-width="1px">350k</text><text x="271.40625" y="0" dx="0em" dy="0.95em" style="text-anchor: middle; visibility: hidden; font-family: &quot;Helvetica Neue&quot;, sans-serif; font-size: 12px; font-weight: 200;" fill="rgb(50, 49, 63)" stroke="none" stroke-width="1px">400k</text></g><line x1="0" y1="0" x2="271.40625" y2="0" fill="rgb(0, 0, 0)" stroke="rgb(204, 204, 204)" stroke-width="1px"></line></g></g></g></g></svg>