<svg viewBox="0 0 330 200" xmlns="http://www.w3.org/2000/svg"><g><g><g><g><g><line x1="48.875" y1="177" x2="43.875" y2="177" style="visibility: inherit;" fill="rgb(0, 0, 0)" stroke="rgb(204, 204, 204)" stroke-width="1px"></line><line x1="48.875" y1="157.33333333333331" x2="43.875" y2="157.33333333333331" style="visibility: inherit;" fill="rgb(0, 0, 0)" stroke="rgb(204, 204, 204)" stroke-width="1px"></line><line x1="48.875" y1="137.66666666666666" x2="43.875" y2="137.66666666666666" style="visibility: inherit;" fill="rgb(0, 0, 0)" stroke="rgb(204, 204, 204)" stroke-width="1px"></line><line x1="48.875" y1="118" x2="43.875" y2="118" style="visibility: inherit;" fill="rgb(0, 0, 0)" stroke="rgb(204, 204, 204)" stroke-width="1px"></line><line x1="48.875" y1="98.33333333333331" x2="43.875" y2="98.33333333333331" style="visibility: inherit;" fill="rgb(0, 0, 0)" stroke="rgb(204, 204, 204)" stroke-width="1px"></line><line x1="48.875" y1="78.66666666666669" x2="43.875" y2="78.66666666666669" style="visibility: inherit;" fill="rgb(0, 0, 0)" stroke="rgb(204, 204, 204)" stroke-width="1px"></line><line x1="48.875" y1="59" x2="43.875" y2="59" style="visibility: inherit;" fill="rgb(0, 0, 0)" stroke="rgb(204, 204, 204)" stroke-width="1px"></line><line x1="48.875" y1="39.33333333333337" x2="43.875" y2="39.33333333333337" style="visibility: inherit;" fill="rgb(0, 0, 0)" stroke="rgb(204, 204, 204)" stroke-width="1px"></line><line x1="48.875" y1="19.666666666666686" x2="43.875" y2="19.666666666666686" style="visibility: inherit;" fill="rgb(0, 0, 0)" stroke="rgb(204, 204, 204)" stroke-width="1px"></line><line x1="48.875" y1="0" x2="43.875" y2="0" style="visibility: inherit;" fill="rgb(0, 0, 0)" stroke="rgb(204, 204, 204)" stroke-width="1px"></line></g><g transform="translate(38.875, 0)"><text x="0" y="177" dx="0em" dy="0.3em" style="text-anchor: end; visibility: hidden; font-family: &quot;Helvetica Neue&quot;, sans-serif; font-size: 12px; font-weight: 200;" fill="rgb(50, 49, 63)" stroke="none" stroke-width="1px">0.35</text><text x="0" y="157.33333333333331" dx="0em" dy="0.3em" style="text-anchor: end; visibility: inherit; font-family: &quot;Helvetica Neue&quot;, sans-serif; font-size: 12px; font-weight: 200;" fill="rgb(50, 49, 63)" stroke="none" stroke-width="1px">0.4</text><text x="0" y="137.66666666666666" dx="0em" dy="0.3em" style="text-anchor: end; visibility: hidden; font-family: &quot;Helvetica Neue&quot;, sans-serif; font-size: 12px; font-weight: 200;" fill="rgb(50, 49, 63)" stroke="none" stroke-width="1px">0.45</text><text x="0" y="118" dx="0em" dy="0.3em" style="text-anchor: end; visibility: inherit; font-family: &quot;Helvetica Neue&quot;, sans-serif; font-size: 12px; font-weight: 200;" fill="rgb(50, 49, 63)" stroke="none" stroke-width="1px">0.5</text><text x="0" y="98.33333333333331" dx="0em" dy="0.3em" style="text-anchor: end; visibility: hidden; font-family: &quot;Helvetica Neue&quot;, sans-serif; font-size: 12px; font-weight: 200;" fill="rgb(50, 49, 63)" stroke="none" stroke-width="1px">0.55</text><text x="0" y="78.66666666666669" dx="0em" dy="0.3em" style="text-anchor: end; visibility: inherit; font-family: &quot;Helvetica Neue&quot;, sans-serif; font-size: 12px; font-weight: 200;" fill="rgb(50, 49, 63)" stroke="none" stroke-width="1px">0.6</text><text x="0" y="59" dx="0em" dy="0.3em" style="text-anchor: end; visibility: hidden; font-family: &quot;Helvetica Neue&quot;, sans-serif; font-size: 12px; font-weight: 200;" fill="rgb(50, 49, 63)" stroke="none" stroke-width="1px">0.65</text><text x="0" y="39.33333333333337" dx="0em" dy="0.3em" style="text-anchor: end; visibility: inherit; font-family: &quot;Helvetica Neue&quot;, sans-serif; font-size: 12px; font-weight: 200;" fill="rgb(50, 49, 63)" stroke="none" stroke-width="1px">0.7</text><text x="0" y="19.666666666666686" dx="0em" dy="0.3em" style="text-anchor: end; visibility: hidden; font-family: &quot;Helvetica Neue&quot;, sans-serif; font-size: 12px; font-weight: 200;" fill="rgb(50, 49, 63)" stroke="none" stroke-width="1px">0.75</text><text x="0" y="0" dx="0em" dy="0.3em" style="text-anchor: end; visibility: hidden; font-family: &quot;Helvetica Neue&quot;, sans-serif; font-size: 12px; font-weight: 200;" fill="rgb(50, 49, 63)" stroke="none" stroke-width="1px">0.8</text></g><line x1="48.875" y1="0" x2="48.875" y2="177" fill="rgb(0, 0, 0)" stroke="rgb(204, 204, 204)" stroke-width="1px"></line></g></g><g transform="translate(48, 0)" clip-path="url(#clip_0)"><clipPath id="clip_0"><rect width="281" height="177"></rect></clipPath><g><g><g><line x1="0" y1="0" x2="0" y2="177" fill="rgb(0, 0, 0)" stroke="rgb(60, 60, 60)" stroke-width="1px" opacity="0.25"></line><line x1="31.23611111111111" y1="0" x2="31.23611111111111" y2="177" fill="rgb(0, 0, 0)" stroke="rgb(60, 60, 60)" stroke-width="1px" opacity="0.25"></line><line x1="62.47222222222222" y1="0" x2="62.47222222222222" y2="177" fill="rgb(0, 0, 0)" stroke="rgb(60, 60, 60)" stroke-width="1px" opacity="0.25"></line><line x1="93.70833333333333" y1="0" x2="93.70833333333333" y2="177" fill="rgb(0, 0, 0)" stroke="rgb(60, 60, 60)" stroke-width="1px" opacity="0.25"></line><line x1="124.94444444444444" y1="0" x2="124.94444444444444" y2="177" fill="rgb(0, 0, 0)" stroke="rgb(60, 60, 60)" stroke-width="1px" opacity="0.25"></line><line x1="156.18055555555557" y1="0" x2="156.18055555555557" y2="177" fill="rgb(0, 0, 0)" stroke="rgb(60, 60, 60)" stroke-width="1px" opacity="0.25"></line><line x1="187.41666666666666" y1="0" x2="187.41666666666666" y2="177" fill="rgb(0, 0, 0)" stroke="rgb(60, 60, 60)" stroke-width="1px" opacity="0.25"></line><line x1="218.65277777777777" y1="0" x2="218.65277777777777" y2="177" fill="rgb(0, 0, 0)" stroke="rgb(60, 60, 60)" stroke-width="1px" opacity="0.25"></line><line x1="249.88888888888889" y1="0" x2="249.88888888888889" y2="177" fill="rgb(0, 0, 0)" stroke="rgb(60, 60, 60)" stroke-width="1px" opacity="0.25"></line><line x1="281.125" y1="0" x2="281.125" y2="177" fill="rgb(0, 0, 0)" stroke="rgb(60, 60, 60)" stroke-width="1px" opacity="0.25"></line></g><g><line x1="0" y1="177" x2="281.125" y2="177" fill="rgb(0, 0, 0)" stroke="rgb(60, 60, 60)" stroke-width="1px" opacity="0.25"></line><line x1="0" y1="157.33333333333331" x2="281.125" y2="157.33333333333331" fill="rgb(0, 0, 0)" stroke="rgb(60, 60, 60)" stroke-width="1px" opacity="0.25"></line><line x1="0" y1="137.66666666666666" x2="281.125" y2="137.66666666666666" fill="rgb(0, 0, 0)" stroke="rgb(60, 60, 60)" stroke-width="1px" opacity="0.25"></line><line x1="0" y1="118" x2="281.125" y2="118" fill="rgb(0, 0, 0)" stroke="rgb(60, 60, 60)" stroke-width="1px" opacity="0.25"></line><line x1="0" y1="98.33333333333331" x2="281.125" y2="98.33333333333331" fill="rgb(0, 0, 0)" stroke="rgb(60, 60, 60)" stroke-width="1px" opacity="0.25"></line><line x1="0" y1="78.66666666666669" x2="281.125" y2="78.66666666666669" fill="rgb(0, 0, 0)" stroke="rgb(60, 60, 60)" stroke-width="1px" opacity="0.25"></line><line x1="0" y1="59" x2="281.125" y2="59" fill="rgb(0, 0, 0)" stroke="rgb(60, 60, 60)" stroke-width="1px" opacity="0.25"></line><line x1="0" y1="39.33333333333337" x2="281.125" y2="39.33333333333337" fill="rgb(0, 0, 0)" stroke="rgb(60, 60, 60)" stroke-width="1px" opacity="0.25"></line><line x1="0" y1="19.666666666666686" x2="281.125" y2="19.666666666666686" fill="rgb(0, 0, 0)" stroke="rgb(60, 60, 60)" stroke-width="1px" opacity="0.25"></line><line x1="0" y1="0" x2="281.125" y2="0" fill="rgb(0, 0, 0)" stroke="rgb(60, 60, 60)" stroke-width="1px" opacity="0.25"></line></g></g></g><g><g><line x1="0" y1="314.66666666666663" x2="281.125" y2="314.66666666666663" fill="rgb(0, 0, 0)" stroke="rgb(153, 153, 153)" stroke-width="1.5px"></line></g></g><g><g><line x1="31.23611111111111" y1="0" x2="31.23611111111111" y2="177" fill="rgb(0, 0, 0)" stroke="rgb(153, 153, 153)" stroke-width="1.5px"></line></g></g><g><g><g><g><g><path stroke="rgb(255, 112, 67)" stroke-width="2px" d="M31.461011111111112,-115.25001716613764L31.590953333333335,11.53451487969383L31.705902222222225,23.449373996725342L32.07074,-96.07106694760427L37.81318666666667,-35.20636508104215L37.82818,20.333173559398944L37.89814888888889,-2.5946710680843807L37.91814,23.472837401028443L38.158033333333336,-90.83642069428873L38.41292,-25.77543636934024L38.56285333333334,33.08454565142446L38.847726666666674,22.257977971475043L38.99266222222222,80.64582227524623L39.07262666666667,79.61912054284578L39.152591111111114,64.88923301150773L39.687353333333334,33.26256812173804L39.90225777777778,15.188647661070974L39.91725111111111,56.53544708755848L40.45201333333333,39.22622074619076L40.56196444444444,79.00082609306753L40.61694,40.45546579259954L40.816851111111106,69.2346866921823L40.90181333333334,20.08461589766989L40.96678444444444,11.068743470206158L41.411586666666665,-35.94987031454451L42.16625111111111,-8.107851776149744L42.22622444444445,25.97237341842333L42.38615333333333,32.427671900837794L42.41614,27.794100883472822L42.54108444444445,74.10463664703082L42.76598444444445,48.24082274698594L43.175802222222224,78.7771414804272L43.41069777777778,77.66601703292997L43.49566,78.4273277147226L43.505655555555556,75.7288135065801L43.53064444444445,43.732955942998274L43.65558888888889,57.678790734479804L43.66058666666667,92.82151160613898L43.72056,109.02556449160699L43.745548888888884,65.21623680185708L43.890484444444446,85.59388507122652L43.965451111111115,93.43897013295606L43.99543777777778,94.48797683176744L44.655144444444446,63.74309674257442L44.93002222222222,80.40616405420153L46.06451777777777,87.93237339106784L46.41936,72.6497211614107L46.434353333333334,68.43273221009105L46.72422444444444,85.50823106698073L47.03408666666667,92.9017609337879L47.378933333333336,83.06243291576183L47.44890222222222,68.43441794164663L47.45889777777778,62.70230783133317L47.46389555555555,82.6507903244611L47.753766666666664,80.03690777062475L48.62837777777778,72.49799718363539L49.31807111111112,55.18961824121149L49.328066666666665,59.0113913365726L49.577955555555555,56.70702750773374L49.93279777777778,75.39354281002967L50.19268222222222,77.88188720767513L50.29763555555555,71.02701300596087L50.33262,79.53060205508204L50.867382222222226,89.86693561710275L51.00732,106.71982240262048L51.14725777777778,107.03490708420127L51.40714222222223,70.6318203974731L51.71700444444445,70.67834780031248L52.206786666666666,95.24224907605137L52.36171777777778,86.47770068515311L52.38670666666666,83.48715138516206L52.81151777777778,65.71849408198224L52.821513333333336,82.76882243821318L53.22633333333333,58.31033101480779L53.68612888888889,71.28898228884685L53.77109111111111,77.97025877841882L53.876044444444446,65.86690897112234L54.545746666666666,58.92249695280283L54.56573777777778,82.50454606902055L54.60572,77.8812349694458L55.16547111111111,93.4445652995996L55.23544,110.43974611170047L55.425355555555555,118.73472780986796L55.485328888888894,106.76872358523312L55.695235555555556,104.57906582635144L56.08006444444444,92.0511415641397L56.47488888888889,89.6887808387015L56.48488444444444,85.56442565984727L56.75476444444445,74.97845851938249L56.89470222222222,59.45985616580842L57.41946888888889,62.04428076745785L57.94923333333333,64.71002128919989L58.01920222222222,95.16612994194642L58.32406666666667,107.43177791150778L58.96878,92.54523061739822L59.618491111111105,110.89540625628285L59.838393333333336,95.06241983383765L60.26320444444444,108.61511090324245L60.36316,104.05744964436245L60.543079999999996,83.23386935326788L60.57806444444444,106.69911992510158L60.757984444444446,102.92239064351716L60.86293777777778,115.12690408851302L61.172799999999995,100.2653632312552L61.27275555555556,90.31991002656235L61.82750888888889,125.27531585910249L61.87748666666667,108.41862293373545L62.22233333333333,94.23312388434613L62.287304444444445,119.14374125743669L62.31729111111112,93.43112352338292L62.382262222222224,110.05461387741681L62.66713555555556,118.09872455343475L62.78208444444444,94.18493790792348L63.10194222222223,116.56033171435348L63.82162222222222,112.87489035856817L64.09150222222222,124.76210775652783L64.23643777777778,113.89764309731677L64.50631777777778,111.74474163536762L64.70123111111111,80.97625769586088L64.71622444444444,80.57962792760561L64.77619777777778,92.55741284080204L64.93112888888889,99.06300249370648L65.49088,103.02565209869176L66.05063111111112,129.347403276783L66.18057333333333,103.97048839856494L66.29052444444444,99.44618813750729L66.75032,95.56158708268953L66.79030222222222,94.77315528433256L66.99521111111112,93.01492533231217L67.45500666666666,92.76440544810556L67.77486444444445,83.17547167869405L68.01475777777777,100.8538371574799L68.12970666666666,142.24532867184797L68.22466444444444,125.77389544275316L68.46955555555556,97.50111844953045L68.51953333333333,115.07000974108465L68.53452666666666,118.10544921928458L68.60949333333333,108.7823541123101L68.77441999999999,86.91454869658325L69.65402888888889,102.24986807992404L69.68401555555555,123.34667854601351L70.01886666666667,97.91078244702543L70.15880444444444,104.10487636162752L70.20878222222223,93.28546533724018L70.38370444444445,75.4262120827457L71.17335333333332,82.43236222889547L71.34827555555556,92.9061508438579L71.54818666666667,79.73959673215502L72.11793333333334,80.93669045430157L72.32284222222222,75.58418262280067L72.8875911111111,95.49611326223834L73.03252666666667,105.20581357578172L73.05751555555557,112.77058687746367L73.10249555555556,113.32527485851355L73.55229555555556,156.357834573769L73.5672888888889,125.7938509123624L73.70722666666667,121.04418930235111L73.75720444444445,120.47122308903499L74.04707555555555,114.6782068885976L74.22199777777779,120.75104870464088L74.39192222222222,105.27010506430678L74.69178888888888,99.7016923708086L75.31151333333332,93.881192621531L75.60638222222222,112.61814574615673L75.73632444444445,121.98261061638502L75.75131777777779,123.88821628489043L75.85627111111111,119.89022099255291L75.89125555555556,111.52670388586584L76.18112666666666,113.17335675458469L76.21111333333334,131.08690839390175L76.4909888888889,127.26076992380747L77.51553333333334,137.38105152464786L77.7954088888889,113.96600242306911L77.95533777777777,118.75125694980298L78.39014444444445,83.79688549464989L78.55507111111112,101.61980271593362L78.94989555555556,109.02837931467474L78.98487999999999,101.62833085469431L79.04985111111111,96.14474047906414L79.34971777777778,64.47967812431185L79.4996511111111,78.05292906569838L79.6146,45.287870014950045L79.70456,83.3207021744516L80.42923777777779,86.1859348888079L80.74909555555556,115.20319581080756L81.50376,97.01224481294126L81.63370222222221,94.83509000477932L82.59327555555555,79.82136437299496L82.62826,82.91732411187476L83.1930088888889,104.9747131621932L83.20800222222222,101.16508413688909L83.31295555555555,87.67369215490363L83.60782444444445,99.61208297889597L83.65780222222223,108.65630832958918L83.82272888888889,113.79907607822838L84.24754,124.52854191336564L84.40247111111111,110.33855557684224L84.48243555555555,97.01849885132383L84.56739777777778,119.04951146848879L84.76730888888889,114.51592034265131L84.99720666666666,115.73546277382808L85.00220444444444,140.05463229953548L85.11215555555556,116.87245499693933L85.28707777777778,116.26345366400629L85.41702,89.63893526094448L85.462,103.0440196114617L85.72188444444444,108.75828178233925L85.73687777777778,141.11637828850957L85.90680222222221,127.54802213174631L85.92679333333334,91.385371315852L86.04174222222223,88.34567782185985L86.07172888888888,76.46296423019476L86.08172444444445,90.45289552216633L86.31162222222221,94.96305824123762L86.72143999999999,109.58959773860141L86.81639777777778,106.33527494081912L86.86137777777779,78.73513671920138L87.20122666666667,90.2670431444969L87.21122222222222,100.87764443019584L87.51108888888889,101.59059063430364L88.30573555555554,109.15408854386646L88.57061777777777,92.94673162719472L88.67057333333334,82.32449652763721L88.82550444444445,123.81290162014476L88.87048444444444,128.7468032622785L88.95544666666667,123.61811875012222L89.04040888888889,142.97396868888558L89.45022666666667,139.2803718393486L89.56517555555556,140.69431223146762L89.63514444444444,114.38209932847411L90.00498,103.53695524019156L90.57472666666666,111.41247481673253L91.05451333333333,122.67049624067121L91.07950222222222,86.66438610677864L91.25942222222221,93.28788095707661L91.41435333333332,94.33095665372389L91.89913777777778,107.82662870643722L92.02908,127.48043708498192L92.04907111111112,129.90862562951392L92.12903555555555,116.18238298116296L92.33894222222222,83.13881834358877L92.6588,60.665439875985626L92.67379333333334,95.18981832190282L92.75375777777778,111.08824775570983L93.23354444444445,102.3110744036497L93.49842666666666,110.33454886340662L93.97321555555556,103.94946620820102L94.56295333333334,136.98352303877357L94.70289111111111,114.92307010556193L95.23265555555555,88.34751917083022L95.59249555555554,121.8744354952909L95.90235777777778,117.46617734687749L96.29218444444444,106.04297573719757L96.37714666666666,82.52040430319909L96.51208666666666,91.59699167656463L96.61704,85.38181240070396L96.67701333333333,94.07581071083867L96.75198,87.4324281137692L96.77197111111111,78.83336621452416L96.85693333333334,97.93120108005827L97.03685333333333,101.23462705189444L97.23676444444445,124.56957574908608L97.40169111111112,128.01024008725886L97.95144666666667,109.21957064232114L98.2163288888889,129.3194343282434L98.23631999999999,128.14778674644148L98.33627555555556,130.30308990280975L98.72610222222222,110.16899399320968L98.93600888888889,111.60207385437106L99.19089555555556,113.67297991086889L99.30584444444445,95.31404194813874L99.60071333333333,114.18270935365703L99.61570666666665,122.79919828026978L100.08549777777777,117.27483429739569L100.25542222222222,128.60437339681204L100.43034444444444,106.93447513265102L100.62525777777779,84.88082350223873L101.08505333333333,119.77301796036727L101.19500444444444,89.94686566844241L101.60482222222221,104.64652265144186L102.3095088888889,112.67318024456182L102.63936222222222,127.63276787332504L102.67434666666666,113.2715104643413L102.71932666666667,105.08170838101164L102.80428888888889,127.92778150405559L102.86426222222222,117.70023382603767L102.89424888888888,119.12735368152246L103.18911777777777,151.59944894317658L103.43900666666666,138.52628966810627L103.67390222222222,130.8722663679261L103.85382222222222,114.79795384159917L103.98876222222223,134.77859743287905L104.36359555555555,150.19510777702376L104.39358222222222,131.86436309761075L104.54351555555556,110.80788155205806L104.58849555555555,106.61710499807853L104.63847333333334,104.59214133670723L105.0982688888889,78.07464652052002L105.10326666666667,121.18328971539226L105.14324888888889,114.36041836862339L105.16324,101.13865699524423L105.24820222222222,109.29380717767124L105.56806,90.25207146938351L105.66301777777778,80.8940747793657L106.33771777777778,108.26438982980306L106.65257777777778,87.53560434796525L106.88247555555556,108.65806597283351L107.10237777777779,106.5584454326483L107.53218666666666,114.36945553155654L107.82205777777777,103.4749402256722L107.93700666666666,108.59922207505988L108.56672666666667,102.10935681528741L108.57672222222223,111.65188019355273L108.7366511111111,110.8199881129273L108.89158222222221,92.2861855315849L109.18645111111111,105.04914253678035L109.90113333333333,68.18232076402175L110.02108,61.6492336334924L110.06606,55.91552777342838L110.32594444444445,57.69373906802838L110.34093777777778,78.18574169368569L111.09560222222223,84.22796859994145L111.16557111111112,64.0474001963215L111.67534444444445,74.43375068501294L111.78029777777778,62.910070675188265L112.44500222222223,80.14159046266913L112.80484222222223,83.09261724146862L112.91479333333332,78.15363492643431L112.99975555555555,88.89109507049479L113.22965333333333,72.04231075552323L113.39957777777778,73.31425399049452L113.72443333333334,63.90487290897569L114.12425555555556,71.30059081005219L114.14924444444443,78.20244107457299L114.50408666666667,113.93590664354343L114.68400666666668,91.68678764991392L115.23876,95.26515028770226L115.24375777777779,127.60754092869433L115.41368222222222,106.0432069480654L115.48365111111112,114.6143902250272L115.69355777777778,97.9913120334233L116.52818666666667,90.47990592707505L116.68311777777778,90.41017650200513L116.85304222222221,102.89616189778002L117.20788444444445,110.15446635711281L117.39280222222223,98.4703676181719L117.55772888888889,101.96266640093037L117.6476888888889,103.48867269873284L117.65768444444444,117.22991493058005L117.7776311111111,115.79320974376878L117.7826288888889,110.73073048925646L117.79762222222223,87.72545519393435L117.89258000000001,97.43791422201248L118.06750222222222,104.61024081480335L118.22243333333333,114.92126950286925L118.41734666666667,130.5795559127913L118.46732444444446,115.33314585922875L118.91212666666667,132.231227272185L118.98209555555555,104.31245615090866L119.12703111111112,106.51201535466875L119.16701333333333,104.53062550944229L119.31194888888889,120.20897004240038L119.80672888888888,129.20591381331255L120.96121555555557,85.82022447868174L121.10115333333333,85.95635428915811L121.14613333333334,103.21871038411295L121.28607111111111,106.43322452784125L121.46099333333333,127.40341474740033L121.52096666666667,143.75225720084703L121.84082444444444,166.93550218707517L122.51552444444444,138.34593698322493L122.78540444444445,120.22893864079148L123.45010888888889,111.55759869116841L123.45510666666667,90.13931693691991L124.15479555555555,87.46204837595809L124.75952666666666,111.53665894132092L124.7945111111111,88.14274874842899L125.41923333333334,109.50789276470779L125.98398222222222,82.78504142588399L126.07894,91.98613954440367L126.21887777777778,85.73910680327182L126.32882888888888,85.53155898400168L126.43378222222222,104.51249204882792L126.77363111111111,96.8905309526651L127.03851333333333,121.32664697697929L127.32838444444445,131.76518024602237L127.54828666666666,124.12308033465567L127.69322222222223,105.24995824590854L128.6178111111111,74.86003811893185L128.70777111111113,110.15668261689336L128.81772222222222,97.00618207837579L128.8477088888889,96.5022195123758L129.08760222222222,92.804038362292L129.39246666666668,122.35040228958184L129.46243555555557,98.64100658930491L129.5174111111111,116.25635812304708L129.7922888888889,119.55612553132946L129.84726444444445,116.75004580601083L129.87725111111112,132.68178398003596L130.17212,117.42288919244457L130.30706,135.03397125375815L130.42200888888888,119.16942030413477L130.77185333333333,87.21454379294433L130.88180444444444,95.90503280958009L131.04673111111111,93.3986606057513L131.13169333333335,113.41962542470463L131.16667777777778,98.56483808161519L131.36658888888888,122.91640112599752L131.4565488888889,102.51087773919716L131.48653555555555,115.06875265288717L131.50152888888888,117.74594263622186L131.88136,112.23330331875297L131.88635777777776,105.65781989713557L132.12125333333333,141.85196926804412L132.27618444444445,136.8610356804452L132.41112444444445,111.9660925322804L132.4261177777778,112.87152751211521L132.45110666666667,95.60352843557317L132.80594888888888,106.16290239624887L132.86092444444444,102.06423135677603L133.10581555555555,95.6852688237804L133.3906888888889,96.48819754787947L133.61558888888888,95.50823749463953L133.82049777777777,85.15623943027573L133.88546888888888,116.2349565506978L133.89046666666667,97.92305391317626L134.00041777777778,99.12116912972542L134.08038222222223,89.03938511990476L134.63513555555556,125.84984524239877L134.7400888888889,119.35678189112612L135.08493555555555,144.25131656992755L135.09992888888888,113.06693234206233L135.10492666666667,137.85401958323115L135.34482,145.94198407787042L135.46476666666666,139.33071017697227L136.12447333333333,122.15909269909922L136.52429555555554,120.18925177729646L136.58926666666667,134.65197503373932L136.90912444444444,108.47411297841418L137.23398,116.40653023173545L137.34892888888888,105.8476907474804L137.76874222222222,89.4405388233865L137.78373555555555,105.09500876652032L137.80872444444444,119.17508900714017L138.14357555555554,97.46213840972638L138.23353555555556,96.15857481677087L138.6083688888889,102.02325068941961L138.80328222222224,106.13751821735251L139.5929311111111,124.13895602038751L139.80283777777777,108.99216588543604L139.80783555555556,117.55645915790448L140.13269111111111,112.71531905883978L140.1626777777778,113.59557969264844L140.29262,134.56398662860786L140.39757333333333,113.4151189859843L140.42756,95.84340758340376L141.02229555555553,104.61455475817215L141.2172088888889,100.8546390743857L142.28673333333333,105.64165936778818L142.41167777777778,105.05587438069283L142.4766488888889,123.47507777604956L142.64657333333335,107.199126013876L142.76651999999999,94.90432547455687L142.8364888888889,125.53012529368593L142.97642666666667,108.61748793535665L143.54617333333334,89.9855214604531L143.72109555555556,99.4573393731591L143.90601333333333,120.01782749906837L144.36081111111113,101.03733154226738L144.9755377777778,95.364107553697L145.01052222222222,95.95993505986714L145.38535555555558,74.5795001530976L145.83515555555556,75.98399741317817L145.8501488888889,102.91933871229085L146.58482222222221,106.44501174839095L146.60481333333334,129.64674479177648L146.81971777777778,142.26307041492691L146.87469333333334,124.07841904389838L146.92467111111114,102.95670725163608L147.09459555555557,96.57742013090925L147.1445733333333,94.38909622959741L147.27451555555555,111.65196660120755L147.49941555555554,83.76164330021224L147.61436444444445,92.35380430008384L147.8692511111111,113.91468070538087L147.98919777777778,125.34900530929113L148.08415555555555,130.29906608713515L148.31905111111112,137.32472799253173L148.88379999999998,126.22668830969955L149.12869111111112,131.02425543716961L149.53351111111112,134.37443796943472L149.58848666666665,119.3935633668354L149.68844222222222,103.02816304578687L150.05328,114.05299543349528L150.33815333333334,136.11186594372143L150.87291555555555,141.17354688607742L151.57760222222223,145.7561852707252L151.77251555555554,152.43179257951888L151.91745111111112,136.4310609196189L152.11236444444447,146.39909836220122L152.35225777777777,149.31172588209733L152.59215111111112,162.79742581093564L152.60214666666667,158.8458032674248L152.79206222222223,111.40228437185216L152.9070111111111,149.17269109964326L153.26185333333333,147.5595686710673L153.96653999999998,101.5784362799007L154.28639777777778,103.53345738129289L154.51629555555556,96.89246721035127L154.6662288888889,102.63555617510804L154.77618,111.99165854878937L154.8161622222222,94.73564314461383L155.4258911111111,81.17388939628982L155.57582444444446,96.8990694350202L155.68577555555558,121.66614481207922L155.85070222222222,91.31935298679588L156.22053777777776,82.18465327563874L156.4154511111111,110.3192704797367L156.84526,102.22975141290304L157.21009777777778,104.6385345368593L157.3350422222222,95.01321137203826L157.40001333333333,72.32323733322255L157.44499333333331,65.9225515485948L157.83981777777777,73.97590679890787L158.13468666666668,82.72217509130759L158.70443333333333,107.57302126673932L158.77939999999998,87.24703649712448L159.17422444444443,95.70845460116574L159.6090311111111,108.19573947123513L160.05383333333333,125.9689662873655L160.2387511111111,128.4025206498251L160.41367333333332,131.65976279170985L160.7835088888889,135.23224702591705L161.3232688888889,119.31799147396292L161.40323333333336,112.37450587274037L161.5081866666667,82.66057471149011L161.55316666666667,80.09346539803053L161.6331311111111,71.72268410738928L161.9479911111111,90.13390572200197L161.95298888888888,77.63121690350758L162.02295777777778,87.5558957139531L162.63768444444443,90.98908828973047L162.69266,76.13492703008221L163.19243777777777,50.03531889657715L163.5272888888889,70.20135666056797L164.52684444444444,104.66863451674179L164.95665333333335,94.0073940571622L165.16156222222224,101.88980932731285L165.16656,93.2609423857859L165.31149555555555,91.78454184901305L165.3214911111111,102.76813286367013L165.8162711111111,88.3030128269769L166.56593777777778,108.66150285736978L166.88579555555557,139.81067938369273L166.91578222222222,86.76915006694247L166.9457688888889,102.26219766650827L166.96576,136.70968690701858L166.97075777777778,106.37288875096161L167.3455911111111,92.2763720674105L167.5455022222222,100.71476793623688L167.82038,131.06406566502687L168.42011333333335,139.28634160162233L168.46009555555554,129.20892937223846L168.6999888888889,152.51352978889582L169.1897711111111,134.33403181122407L169.2397488888889,115.2156493609349L169.27473333333333,93.09837218593755L169.36469333333332,100.77071882369835L169.6495666666667,93.37876102774968L169.86946888888886,82.87679847150821L170.29927777777777,75.3632780397124L170.75407555555557,102.47470273678623L170.76407111111112,129.97900505525942L170.924,127.9777525961185L171.01396,120.32926366526593L172.4283311111111,119.33055383641745L172.55827333333332,107.5852998972688L172.77817555555555,82.15038737142604L173.05305333333334,87.77054066946819L173.36291555555556,83.61838500196166L173.42788666666667,94.61468064284978L173.88768222222222,98.11089218952254L174.0326177777778,116.70239710786737L174.22753111111112,121.81125586814956L175.6269088888889,114.93280953717594L176.02173333333332,116.00617117813647L176.15167555555556,85.48259070991332L176.26162666666667,97.95562952843619L176.35658444444445,97.2394973561405L176.4815288888889,88.95595020404889L176.56149333333335,111.06286163142185L176.62146666666666,103.4153079212359L176.7014311111111,102.306660637497L176.8363711111111,144.36450895383302L177.17622,138.743586989528L177.48608222222222,136.42776622709795L178.52562,130.890713093701L178.56060444444444,115.4992277689912L178.60558444444445,111.63262858796946L178.85547333333332,102.73831729178926L178.87046666666666,100.7986594602583L178.97541999999999,123.46487493704467L179.03539333333336,123.38261344069663L179.1303511111111,117.62303596755523L179.2253088888889,112.08619680814338L179.90500666666668,109.5969355035567L180.30982666666665,101.86736848724347L180.31482444444444,110.38998845481356L180.48474888888887,111.39637586631464L180.80960444444443,130.12692810589922L181.16944444444445,132.3206457703999L181.1944333333333,131.82653477249687L181.32437555555555,99.60079194580403L181.55427333333333,84.97221283202303L181.62924,84.54610652179478L182.03905777777777,98.8293719596721L182.2539622222222,111.69676785709801L182.38390444444445,126.78452966834509L182.58881333333335,121.40485495463255L182.8037177777778,137.27531442325457L183.46342444444443,123.70787263680185L183.4984088888889,124.06053173205467L183.5184,115.63061813311502L184.02817333333334,96.3220658210718L184.22808444444445,108.97623389012438L184.69787555555556,92.33595284450146L184.76784444444442,83.88187502599611L184.85780444444444,76.93228399819246L185.0677111111111,103.9172229850259L186.42710666666667,97.3644299239298L186.6919888888889,64.12908765457351L187.28672444444445,99.5289892640647L188.19632000000001,117.50824661375702L188.38123777777778,81.52638071768455L188.8510288888889,127.27644411321265L189.64567555555553,130.70710611102453L189.77561777777777,120.60314709200941L189.97552888888887,93.98007269454686L190.20542666666665,130.10856263490132L190.53028222222224,139.9755210756358L190.56526666666664,107.8679538336851L190.6052488888889,105.04129511718699L190.84514222222222,128.11743172767606L190.8901222222222,118.54935581344077L191.1849911111111,127.9941464673939L191.24996222222222,123.34725358554499L191.97464000000002,108.57069164793953L192.03461333333334,96.32514633107937L192.19953999999998,101.82527972878272L192.40944666666667,109.21411227556818L192.73430222222223,70.1302913628385L193.1041377777778,95.47995609059127L193.33903333333333,69.53860120384408L193.6638888888889,92.86506161138522L193.80882444444447,58.65693960812757L193.87379555555555,88.28199044601364L193.88878888888888,95.36206027509519L194.21864222222223,99.08537689432552L194.23363555555554,115.94646145255396L194.44853999999998,107.91467341592525L194.69343111111112,113.27633443361884L194.97330666666667,109.12608648272177L195.63301333333334,106.12889895994556L195.66799777777777,141.74400799766636L195.67299555555556,124.5616467712052L195.70798,116.53927789833511L196.1727733333333,117.34010945979574L196.23274666666669,116.71293109590104L196.29771777777776,108.75112065832388L196.33270222222222,109.16923102434818L196.90244888888887,110.17700740911367L196.92244,125.73770344983222L197.05738,109.15076613067001L197.06737555555557,115.7256307103539L197.40222666666665,111.09812663584775L197.51717555555555,139.07313814912138L197.86702,118.40176850450375L197.91699777777777,149.04822759961488L198.00196,135.66860321244837L198.03694444444443,105.2928808236991L198.05193777777777,127.75613972176362L198.17688222222222,124.81339355684867L198.85658,137.4158397458646L199.31637555555557,106.08829416886884L199.35136,80.25577420029589L199.80116,108.5644882482303L199.84614,102.2990480718223L199.90611333333334,101.22786395890762L200.00107111111112,84.63406395004147L200.08603333333332,84.02723230770795L200.35591333333332,79.43584730139314L200.41588666666667,96.12961635139148L200.54083111111112,82.67524355935984L200.69076444444445,79.62250796728097L200.7257488888889,111.68646065258639L201.01562,112.7957539550284L201.2455177777778,126.62392671854215L201.34047555555557,102.45667271584821L201.37545999999998,91.3836708353195L201.60535777777778,95.9992471865555L201.86524222222224,132.0817742386504L201.88023555555554,101.43704395526912L202.0551577777778,96.02926500460065L202.68987555555555,108.17679389210872L202.70486888888888,112.87172191873586L202.96475333333333,117.11500421485542L202.96975111111112,117.17057288083176L203.07470444444445,125.60227560436371L203.3495822222222,125.04104256293562L203.78438888888888,108.7531475523793L203.78938666666667,133.85508415101071L203.97930222222223,137.3343755543119L204.05426888888888,145.728711422675L204.15422444444445,133.37143988791695L204.19920444444446,109.49495373199537L204.39411777777778,93.2091023725082L204.63900888888887,96.33709892045317L204.91388666666668,113.19809327370442L205.07381555555554,122.7829406371505L205.54860444444444,127.79204183285182L206.30826666666667,155.1059257515157L206.55315777777778,114.33464885122882L206.7330777777778,118.9566338402071L207.04294000000002,130.57835814607373L207.4277688888889,145.84461976638772L207.44276222222223,136.05233574838246L207.82259333333332,147.62439030566296L207.92754666666667,143.14408252731056L207.9675288888889,145.82696570214682L208.0325,126.2222140943431L208.04249555555555,127.98782530121545L208.07248222222222,109.32718913570568L208.56226444444445,109.74938269147589L208.57226,104.96380194637766L209.00706666666667,103.48247752555365L209.02205999999998,99.84794818143938L209.157,91.26983782518442L210.01162000000002,97.41622169535478L210.04660444444443,100.86123270822239L210.37645777777777,100.67210067331398L210.40144666666666,114.52378889532645L210.92121555555556,131.8715944247152L211.0061777777778,106.30814863582683L211.3410288888889,96.62804396156609L211.44098444444447,102.2043646765002L211.64589333333333,84.93622974111129L211.97574666666665,58.31023431352868L212.2356311111111,95.44049442926304L212.3105977777778,73.94351402790898L212.38556444444444,100.62155345204405L212.4655288888889,70.89947969390708L212.5305,99.45321509842331L212.7054222222222,109.36661542418156L212.80038,110.45911812561283L212.83536444444445,113.95454972452438L213.99984666666668,131.3331875093769L214.29971333333336,116.75516725110955L214.44964666666667,108.17173508323005L214.54460444444445,99.492932515443L214.98940666666667,114.16713953640101L215.18432,102.04617313122375L215.2043111111111,98.6730221325693L215.2492911111111,99.34306327191219L215.27927777777776,121.42568820131157L215.40422222222222,108.99933671203652L215.68909555555555,141.10993961839318L215.904,150.9556473832236L216.4187711111111,142.89100254024504L216.99851333333334,141.78682031102244L217.16344,135.18963750521698L217.70819777777777,124.76794351132924L217.73818444444444,111.23615269457628L217.78316444444442,110.67627690193254L218.42787777777778,107.81539821996608L218.5978022222222,124.21919045671414L218.95764222222223,115.18842806314187L219.87723333333335,112.2829765194342L219.9721911111111,113.79402637364578L220.18709555555557,131.07286051044133L220.5319422222222,99.47099606471816L221.60646444444444,82.90453548596832L222.11124,96.3126927258563L222.38611777777777,96.70145945799301L222.46108444444445,91.68175563644539L222.8059311111111,56.49421328761879L222.97585555555554,96.43997375046432L223.3456911111111,111.70741758272185L223.42565555555555,122.9511897178002L223.48063111111114,127.32584553628212L223.65055555555557,129.39122058750615L224.05037777777778,112.56131487966435L224.35524222222222,105.17152931221838L224.36024,101.28428040700265L224.6501111111111,94.76635748599236L224.75006666666667,91.9426686353739L224.9649711111111,91.9986149065051L224.98996,75.2882753764999L225.3498,84.08028210135771L226.05448666666666,87.42434444188558L226.16943555555554,116.37670120095899L226.17443333333333,85.30092258748823L226.8541311111111,89.85335984725205L227.3339177777778,92.06202875116534L227.62878666666668,111.50815440737645L227.6837622222222,94.7425823938257L228.88822666666664,105.84675236928898L229.1031311111111,96.57373195720774L229.30803999999998,93.96179714500744L229.65788444444445,82.60190878728929L229.79782222222224,98.92510485502025L230.0527088888889,123.73094906718697L230.53749333333332,109.13013527181445L230.57747555555557,112.34124943447135L230.69242444444444,149.2686478902818L230.71741333333335,114.28634062269853L230.80237555555556,97.0204482487412L231.05726222222222,133.8021018432521L231.24717777777778,124.72101896168449L232.26672444444443,128.56039302246765L232.62656444444445,116.86591988025305L233.15133111111112,120.02676262786903L233.58613777777776,112.52347051897198L233.6461111111111,111.1032270498984L233.80604,130.8978493794548L233.94597777777778,120.64357409783686L234.38078444444446,107.07152065778861L234.43076222222223,106.98958394415233L234.4607488888889,122.72521497500175L234.48074000000003,110.47477281307519L234.63567111111112,86.86914595891241L234.64566666666667,93.5090912079565L234.71563555555554,88.50996302936986L234.7456222222222,67.79788048689275L235.11046,117.97383862907512L236.3449111111111,107.70275801524413L236.37989555555555,91.3413891917759L236.78471555555555,89.11816435612997L236.86468,109.79973898067729L236.9146577777778,118.62767802318726L237.36445777777777,121.02454045598185L237.49939777777777,135.09794114739384L237.84924222222224,126.35047668642213L238.1890911111111,86.80057509596989L238.26905555555555,105.91005867236365L238.59890888888887,120.60291618613508L238.83880222222223,126.49916761621697L238.91876666666667,95.78442421856444L239.06370222222225,75.71863674702001L239.18864666666664,80.80807703086785L239.28360444444442,101.18429141848715L239.3135911111111,101.10709533855972L240.00328444444443,145.32980524161852L240.04326666666665,148.53972829178608L240.36312444444445,134.08516916908206L240.49806444444445,128.35817805097926L241.17276444444445,109.47764187951742L241.20774888888891,108.11595890064947L241.2977088888889,110.6273638713752L241.81248000000002,100.57163580507407L241.9324266666667,103.59323137750447L241.96241333333333,89.10655458221966L241.98240444444446,108.90615394582434L242.05237333333332,129.20998431962778L242.36223555555554,125.37963714036573L242.70208444444444,111.82445675829983L242.83702444444447,130.8236469191309L243.16687777777776,125.43103777738389L243.2318488888889,118.64856423162605L243.39177777777778,125.5442057444047L243.48173777777777,94.45498706460346L243.53171555555556,115.27145652111577L243.6366688888889,99.13043963990336L244.18142666666665,92.5088150903487L244.53127111111112,90.12326702306096L244.82114222222222,91.22624105312082L245.02105333333333,115.39713679610284L245.15599333333333,126.50249678408261L245.29593111111112,100.23176966417924L245.6057933333333,105.52559270645637L245.7957088888889,120.91983902167554L245.96063555555557,121.8338072680112L246.04559777777777,130.72421731050866L246.2405111111111,142.6755497465296L247.44997333333333,126.13765022018136L247.5299377777778,103.92386277233709L248.2496177777778,133.95892424413648L248.5095022222222,111.21472721315874L248.72940444444444,134.77428275555843L248.90432666666666,127.72517778601532L249.05426,122.31941078181833L249.17420666666666,106.08503782396973L249.29415333333333,105.86942415820837L249.33413555555555,130.8421221577363L249.3891111111111,124.09204831142645L249.39410888888887,108.18849616698078L249.69397555555554,107.70503587793303L249.82891555555557,114.44037417136227L249.84890666666666,127.14791861114459L249.92387333333332,135.2619475460304L250.05381555555556,139.7623426240436L250.1087911111111,156.5721417499633L250.16376666666667,152.60457119741346L250.32869333333332,131.75314859587934L250.75350444444445,90.62954720679313L251.01838666666666,116.04411559595698L251.03837777777778,125.06600850399754L251.10334888888892,137.61971806830022L251.50317111111113,137.77671405084442L251.5231622222222,106.2384145681511L251.65810222222223,101.94406742400632L251.70308222222224,137.12160420346282L252.13788888888888,144.72032338735275L252.17287333333334,146.27962562853185L252.39277555555557,109.15882018455319L252.65765777777776,111.54625872322988L252.83258,107.65575272768181L252.8525711111111,125.39899930315877L253.15743555555554,102.94489052071769L253.64222,96.45062250797712L253.83213555555557,98.57447637064116L254.06203333333335,67.80620522266341L254.0670311111111,79.32128766556013L254.08202444444444,89.0624694707757L254.36190000000002,98.41645351346922L254.78171333333333,74.23789777336474L254.90166,78.00772581484685L255.1465511111111,104.09524869513575L255.21652,107.35136451478046L255.9561911111111,93.80449136588123L256.10612444444445,112.01368184383597L256.40099333333336,84.06377595759962L256.65588,120.57661132473271L257.6854222222222,108.10425679956985L257.7304022222222,101.33243135457305L257.8303577777778,82.61901269661428L257.9852888888889,69.96578011298404L257.99528444444445,97.990227612163L258.6699844444444,94.7957147711349L258.84990444444446,113.2736393265227L259.06980666666664,106.25495717837212L259.36467555555555,111.33536806452553L259.4246488888889,107.7594338819282L259.95941111111114,114.71095582832278L259.98939777777775,122.38464045319586L260.17431555555555,104.93554917848286L260.3292466666667,127.43057163482614L260.5041688888889,107.88052700316337L261.25383555555555,102.1559010407652L261.29881555555556,105.34717704820584L261.43375555555554,94.86102464577328L261.5836888888889,137.01483786968848L261.7536133333333,159.9053827893841L261.97851333333335,112.17361628048266L262.01849555555555,104.0785910151361L262.15843333333333,117.3900221583421L262.72318222222225,121.93885370078733L262.8031466666667,123.65918602138589L262.91809555555557,127.21110580915112L263.1130088888889,125.61827804975053L263.1979711111111,135.68903782963162L263.3579,109.56923546989402L263.62778000000003,119.14536691466756L263.67276,97.4962862854786L263.84268444444444,107.23630259785575L264.35745555555553,92.59259141894293L264.4174288888889,99.98791362491515L264.6123422222222,98.35644351033724L264.8722266666667,118.39809134754553L266.31158666666664,115.7428321072639L266.41654,95.14858969226563L266.8413511111111,84.21423411473683" style="fill: none;" fill="none"></path></g></g></g></g><g opacity="0.2"><g><g><g><path stroke="rgb(255, 112, 67)" stroke-width="2px" d="M31.461011111111112,-82.26684999465942L31.590953333333335,133.24766564369202L31.705902222222225,37.46124831835428L32.07074,-252.11695464452094L32.38060222222222,-220.33747466405225L32.405591111111114,55.379382451375335L32.51054444444444,-153.30014896392817L34.58962,-1.0082820256550633L34.804524444444446,104.72603249549866L34.84450666666667,-129.66880273818964L35.15936666666666,13.721776088078855L35.24432888888889,-125.19887558619178L35.414253333333335,-132.33505121866858L36.088953333333336,52.64840372403464L36.30385777777777,-138.24057849248243L37.53830888888889,-58.52379075686133L37.81318666666667,36.74656637509665L37.82818,103.64247488975525L37.89814888888889,-36.986436367034884L37.91814,62.574098984400436L38.158033333333336,-262.3003048896789L38.193017777777776,-45.87124300003049L38.41292,44.83693289756775L38.56285333333334,121.3745183547338L38.847726666666674,6.018126487731962L38.99266222222222,168.227588613828L39.07262666666667,78.07906794548035L39.152591111111114,42.79440172513327L39.687353333333334,-14.17742919921875L39.90225777777778,-11.922233025232913L39.91725111111111,118.55564622084299L40.45201333333333,13.262381235758482L40.56196444444444,138.6627341111501L40.61694,-17.362574656804384L40.816851111111106,112.40351804097494L40.90181333333334,-53.64049029350278L41.411586666666665,-106.47779099146521L41.71145333333333,1.1355293591817315L42.16625111111111,11.403936227162717L42.22622444444445,77.09271121025087L42.38615333333333,42.11061962445578L42.41614,20.84374435742697L42.54108444444445,143.5704402923584L42.76598444444445,9.445101896921813L43.175802222222224,124.58161958058675L43.41069777777778,75.99933036168417L43.49566,79.5692937374115L43.505655555555556,71.68104219436646L43.53064444444445,-4.260830402374268L43.65558888888889,78.59754292170209L43.66058666666667,145.53559291362762L43.72056,133.33164381980896L43.745548888888884,-0.4977547327677314L43.890484444444446,116.16035747528076L43.965451111111115,105.20659772555034L43.99543777777778,96.06148687998454L44.655144444444446,17.625776608785003L44.93002222222222,105.40076502164204L46.06451777777777,99.2216873963674L46.41936,49.72574281692506L46.434353333333334,62.10724878311159L46.72422444444444,111.12147935231528L47.03408666666667,103.99205573399861L47.378933333333336,68.30344088872273L47.44890222222222,46.492395480473846L47.45889777777778,54.10414266586304L47.46389555555555,112.57351406415303L47.753766666666664,76.11608393987021L48.62837777777778,61.18963130315146L49.31807111111112,29.227049827575684L49.328066666666665,64.74405097961426L49.577955555555555,53.25048176447552L49.93279777777778,103.42331576347351L50.19268222222222,81.61440380414327L50.29763555555555,60.744701703389495L50.33262,92.28598562876384L50.867382222222226,105.37143596013387L51.00732,131.99915258089703L51.14725777777778,107.50753410657246L51.40714222222223,16.027190367380797L51.71700444444445,70.74813890457155L52.206786666666666,132.08810098965964L52.36171777777778,73.33087809880575L52.38670666666666,79.00132743517558L52.81151777777778,39.06550812721255L52.821513333333336,108.34431497255962L53.22633333333333,21.622593879699707L53.68612888888889,90.7569591999054L53.77109111111111,87.9921735127767L53.876044444444446,47.71188426017764L54.545746666666666,48.505878925323515L54.56573777777778,117.87761974334717L54.60572,70.94626832008363L55.16547111111111,116.78956079483032L55.23544,135.93251732985178L55.425355555555555,131.17720035711926L55.485328888888894,88.81971724828084L55.695235555555556,101.29457918802898L56.08006444444444,73.25925517082216L56.47488888888889,86.14523975054422L56.48488444444444,79.37789289156596L56.75476444444445,59.0995078086853L56.89470222222222,36.1819526354472L57.41946888888889,65.92091766993205L57.94923333333333,68.70863207181296L58.01920222222222,140.85029292106628L58.32406666666667,125.83024986584982L58.96878,70.21540967623393L59.618491111111105,138.42066971460977L59.838393333333336,71.31294020016988L60.26320444444444,128.94414750734964L60.36316,97.22095775604248L60.543079999999996,51.99849891662598L60.57806444444444,141.89699578285217L60.757984444444446,97.25729672114055L60.86293777777778,133.43367425600687L61.172799999999995,77.97305194536845L61.27275555555556,75.40173021952313L61.82750888888889,177.7084246079127L61.87748666666667,83.13358354568481L62.22233333333333,72.95487531026205L62.287304444444445,156.50966731707254L62.31729111111112,54.862196922302246L62.382262222222224,134.98984940846762L62.66713555555556,130.16489056746164L62.78208444444444,58.3142579396566L63.10194222222223,150.1234224239985L63.82162222222222,107.34672832489014L64.09150222222222,142.5929338534673L64.23643777777778,97.60094610850017L64.50631777777778,108.51538944244385L64.70123111111111,34.82353178660077L64.71622444444444,79.98468327522279L64.77619777777778,110.52409021059673L64.93112888888889,108.82138697306316L65.49088,108.96962650616963L66.05063111111112,168.83003004391986L66.18057333333333,65.9051160812378L66.29052444444444,92.65973774592082L66.75032,89.73468550046286L66.79030222222222,93.59050758679709L66.99521111111112,90.37758040428162L67.45500666666666,92.38862562179565L67.77486444444445,68.79207102457683L68.01475777777777,127.37138537565868L68.12970666666666,204.33256594340006L68.22466444444444,101.06674559911092L68.46955555555556,55.09195295969646L68.51953333333333,141.42334667841592L68.53452666666666,122.65860843658447L68.60949333333333,94.79771145184836L68.77441999999999,54.11284057299298L69.65402888888889,125.25284715493521L69.68401555555555,154.9918942451477L70.01886666666667,59.756938298543304L70.15880444444444,113.39601723353067L70.20878222222223,77.05634880065918L70.38370444444445,48.63733220100406L71.17335333333332,92.94158744812012L71.34827555555556,108.61683376630147L71.54818666666667,59.98976556460063L72.11793333333334,82.73233103752138L72.32284222222222,67.55542087554932L72.8875911111111,125.36400922139485L73.03252666666667,119.7703640460968L73.05751555555557,124.11774682998657L73.10249555555556,114.15730683008829L73.55229555555556,220.90667414665222L73.5672888888889,79.94787542025249L73.70722666666667,113.9196968873342L73.75720444444445,119.61177376906076L74.04707555555555,105.9886825879415L74.22199777777779,129.86031142870584L74.39192222222222,82.04868960380556L74.69178888888888,91.34907333056132L75.31151333333332,85.15044299761455L75.60638222222222,140.72357543309528L75.73632444444445,136.02930792172748L75.75131777777779,126.74662478764853L75.85627111111111,113.89322805404663L75.89125555555556,98.98142822583517L76.18112666666666,115.64333605766296L76.21111333333334,157.9572358528773L76.4909888888889,121.52156221866608L77.51553333333334,152.5614739259084L77.7954088888889,78.8434287707011L77.95533777777777,125.92913873990376L78.39014444444445,31.365328311920166L78.55507111111112,128.3541785478592L78.94989555555556,120.14124421278636L78.98487999999999,90.52825816472372L79.04985111111111,87.91935491561891L79.34971777777778,16.98208459218344L79.4996511111111,98.41280547777812L79.6146,-3.8597185611724854L79.70456,140.36995041370392L80.42923777777779,90.48378396034241L80.74909555555556,158.72908719380695L81.50376,69.72581831614178L81.63370222222221,91.56935779253642L82.59327555555555,57.300775925318405L82.62826,87.56126372019449L83.1930088888889,138.0607967376709L83.20800222222222,95.4506405989329L83.31295555555555,67.43660418192546L83.60782444444445,117.51966921488444L83.65780222222223,122.22264635562897L83.82272888888889,121.51322770118713L84.24754,140.62274066607156L84.40247111111111,89.0535760720571L84.48243555555555,77.03841376304626L84.56739777777778,152.09603039423624L84.76730888888889,107.71553365389506L84.99720666666666,117.56477642059326L85.00220444444444,176.53338658809662L85.11215555555556,82.09918904304504L85.28707777777778,115.34995166460673L85.41702,49.70215765635173L85.462,123.15164613723755L85.72188444444444,117.32967503865561L85.73687777777778,189.65352304776508L85.90680222222221,107.19548789660136L85.92679333333334,37.14139509201053L86.04174222222223,83.78613758087158L86.07172888888888,58.638893842697144L86.08172444444445,111.4377924601237L86.31162222222221,101.72830231984456L86.72143999999999,131.5294069846471L86.81639777777778,101.4537907441457L86.86137777777779,37.33492938677472L87.20122666666667,107.56490278244019L87.21122222222222,116.7935463587443L87.51108888888889,102.66000994046529L88.30573555555554,120.49933540821075L88.57061777777777,68.6356962521871L88.67057333333334,66.39114387830098L88.82550444444445,186.04550925890604L88.87048444444444,136.14765572547913L88.95544666666667,115.92509198188782L89.04040888888889,172.00774359703064L89.45022666666667,133.73997656504312L89.56517555555556,142.81522281964618L89.63514444444444,74.91377997398376L90.00498,87.26923910776773L90.57472666666666,123.22575418154399L91.05451333333333,139.55752837657928L91.07950222222222,32.65522090593976L91.25942222222221,103.2231232325236L91.41435333333332,95.89557019869487L91.89913777777778,128.0701367855072L92.02908,156.96114965279895L92.04907111111112,133.55090844631195L92.12903555555555,95.59301900863647L92.33894222222222,33.573471387227386L92.6588,26.9553721745809L92.67379333333334,146.9763859907786L92.75375777777778,134.93589190642038L93.23354444444445,89.1453143755595L93.49842666666666,122.36976055304208L93.97321555555556,94.37184222539267L94.56295333333334,186.53460828463236L94.70289111111111,81.83239070574442L95.23265555555555,48.484192768732726L95.59249555555554,172.1648099819819L95.90235777777778,110.8537901242574L96.29218444444444,88.90817332267761L96.37714666666666,47.236547152201354L96.51208666666666,105.21187273661296L96.61704,76.05904348691305L96.67701333333333,107.11680817604065L96.75198,77.46735421816508L96.77197111111111,65.93477336565655L96.85693333333334,126.57795337835947L97.03685333333333,106.18976600964865L97.23676444444445,159.57199879487354L97.40169111111112,133.17123659451804L97.95144666666667,81.03356647491456L98.2163288888889,159.46922985712686L98.23631999999999,126.3903153737386L98.33627555555556,133.53604463736215L98.72610222222222,79.96785012880962L98.93600888888889,113.75169364611308L99.19089555555556,116.77933899561563L99.30584444444445,67.77563500404358L99.60071333333333,142.4857104619344L99.61570666666665,135.7239316701889L100.08549777777777,108.98828832308452L100.25542222222222,145.59868204593658L100.43034444444444,74.4296277364095L100.62525777777779,51.800346056620285L101.08505333333333,172.11130964756012L101.19500444444444,45.207637230555235L101.60482222222221,126.69600812594095L102.3095088888889,124.71316663424173L102.63936222222222,150.07214931646982L102.67434666666666,91.72962435086568L102.71932666666667,92.79700525601706L102.80428888888889,162.19689118862152L102.86426222222222,102.35891230901082L102.89424888888888,121.26803346474965L103.18911777777777,200.30759183565775L103.43900666666666,118.9165507555008L103.67390222222222,119.39123141765594L103.85382222222222,90.68648505210876L103.98876222222223,164.74956281979877L104.36359555555555,173.31987329324085L104.39358222222222,104.36824607849121L104.54351555555556,79.22315923372906L104.58849555555555,100.33094016710918L104.63847333333334,101.55469584465027L105.0982688888889,38.29840429623923L105.10326666666667,185.8462545077006L105.14324888888889,104.12611134847005L105.16324,81.30601493517558L105.24820222222222,121.52653245131174L105.56806,61.68946790695192L105.66301777777778,66.857079744339L106.33771777777778,149.31986240545908L106.65257777777778,56.44242612520854L106.88247555555556,140.3417584101359L107.10237777777779,103.4090146223704L107.53218666666666,126.08597067991893L107.82205777777777,87.13316726684572L107.93700666666666,116.28564484914145L108.56672666666667,92.37455892562866L108.57672222222223,125.96566526095071L108.7366511111111,109.57214999198914L108.89158222222221,64.48548165957133L109.18645111111111,124.19357804457346L109.90113333333333,12.882088104883849L110.02108,51.849602937698364L110.06606,47.31496898333231L110.32594444444445,60.36105600992839L110.34093777777778,108.92374563217163L111.09560222222223,93.29130895932516L111.16557111111112,33.77654759089154L111.67534444444445,90.01327641805014L111.78029777777778,45.62455066045126L112.44500222222223,105.98887014389038L112.80484222222223,87.51915740966797L112.91479333333332,70.74516145388287L112.99975555555555,104.9972852865855L113.22965333333333,46.769134283065824L113.39957777777778,75.22216884295148L113.72443333333334,49.79080128669739L114.12425555555556,82.39416766166687L114.14924444444443,88.55521647135417L114.50408666666667,167.5361049969991L114.68400666666668,58.313109159469604L115.23876,100.63269424438477L115.24375777777779,176.1211268901825L115.41368222222222,73.696705977122L115.48365111111112,127.47116514046986L115.69355777777778,73.05669474601747L116.52818666666667,79.21279676755269L116.68311777777778,90.30558236440022L116.85304222222221,121.62513999144235L117.20788444444445,121.04192304611206L117.39280222222223,80.94421950976054L117.55772888888889,107.20111457506816L117.6476888888889,105.77768214543661L117.65768444444444,137.84177827835083L117.7776311111111,113.63815196355183L117.7826288888889,103.137011607488L117.79762222222223,53.217542250951155L117.89258000000001,112.00660276412964L118.06750222222222,115.36873070398967L118.22243333333333,130.38781253496805L118.41734666666667,154.06698552767435L118.46732444444446,92.46353077888489L118.91212666666667,157.57834939161935L118.98209555555555,62.434299468994155L119.12703111111112,109.81135416030884L119.16701333333333,101.55854074160258L119.31194888888889,143.72648684183756L119.80672888888888,142.7013294696808L120.96121555555557,20.741690476735442L121.10115333333333,86.16054900487265L121.14613333333334,129.11224452654523L121.28607111111111,111.25499574343364L121.46099333333333,158.85870007673898L121.52096666666667,168.27552088101703L121.84082444444444,201.71036966641742L122.51552444444444,95.46158917744954L122.78540444444445,93.05344112714131L123.45010888888889,98.55058876673381L123.45510666666667,58.0118943055471L124.15479555555555,83.4461455345154L124.75952666666666,147.64857478936514L124.7945111111111,53.05188345909119L125.41923333333334,141.55560878912607L125.98398222222222,42.700764417648315L126.07894,105.78778672218323L126.21887777777778,76.36855769157411L126.32882888888888,85.22023725509645L126.43378222222222,132.9838916460673L126.77363111111111,85.45758930842081L127.03851333333333,157.98082101345062L127.32838444444445,147.42298014958698L127.54828666666666,112.65993046760559L127.69322222222223,76.94027511278789L128.6178111111111,29.275157928466797L128.70777111111113,163.10164936383563L128.81772222222222,77.28043127059937L128.8477088888889,95.74627566337585L129.08760222222222,87.25676663716634L129.39246666666668,166.66994818051654L129.46243555555557,63.07691303888957L129.5174111111111,142.67938542366028L129.7922888888889,124.50577664375305L129.84726444444445,112.54092621803284L129.87725111111112,156.5793912410736L130.17212,94.53454701105754L130.30706,161.45059434572855L130.42200888888888,95.3725938796997L130.77185333333333,39.28222902615866L130.88180444444444,108.94076633453369L131.04673111111111,89.63910230000815L131.13169333333335,143.45107265313464L131.16667777777778,76.28265706698102L131.36658888888888,159.44374569257099L131.4565488888889,71.90259265899658L131.48653555555555,133.90556502342224L131.50152888888888,121.76172761122386L131.88136,103.96434434254965L131.88635777777776,95.79459476470947L132.12125333333333,196.14319332440692L132.27618444444445,129.37463529904684L132.41112444444445,74.62367781003317L132.4261177777778,114.22967998186746L132.45110666666667,69.70152982076009L132.80594888888888,122.00196333726248L132.86092444444444,95.91622479756674L133.10581555555555,86.11682502428691L133.3906888888889,97.69259063402812L133.61558888888888,94.03829741477966L133.82049777777777,69.62824233373007L133.88546888888888,162.85303223133087L133.89046666666667,70.45519995689392L134.00041777777778,100.91834195454916L134.08038222222223,73.91670910517377L134.63513555555556,181.06553542613983L134.7400888888889,109.61718686421712L135.08493555555555,181.59311858812967L135.09992888888888,66.2903560002645L135.10492666666667,175.03465044498444L135.34482,158.0739308198293L135.46476666666666,129.4137993256251L136.12447333333333,96.40166648228964L136.52429555555554,117.23449039459229L136.58926666666667,156.34605991840363L136.90912444444444,69.20731989542644L137.23398,128.30515611171722L137.34892888888888,90.00943152109782L137.76874222222222,64.8298109372457L137.78373555555555,128.576713681221L137.80872444444444,140.29520936806995L138.14357555555554,64.89271251360576L138.23353555555556,94.20322942733765L138.6083688888889,110.82026449839275L138.80328222222224,112.30891950925191L139.5929311111111,151.14111272493997L139.80283777777777,86.27198068300883L139.80783555555556,130.40289906660715L140.13269111111111,105.45360891024272L140.1626777777778,114.9159706433614L140.29262,166.016597032547L140.39757333333333,81.69181752204895L140.42756,69.48584047953288L141.02229555555553,117.7712755203247L141.2172088888889,95.21476554870605L142.28673333333333,112.82218980789185L142.41167777777778,104.17719690004985L142.4766488888889,151.10388286908466L142.64657333333335,82.78519837061565L142.76651999999999,76.46212466557822L142.8364888888889,171.46882502237955L142.97642666666667,83.24853189786276L143.54617333333334,62.03757174809776L143.72109555555556,113.66506624221802L143.90601333333333,150.8585596879323L144.36081111111113,72.56658760706584L144.9755377777778,86.85427157084148L145.01052222222222,96.85367631912231L145.38535555555558,42.50884779294333L145.83515555555556,78.09074330329896L145.8501488888889,143.32235066095987L146.58482222222221,111.73352130254109L146.60481333333334,164.44934435685474L146.81971777777778,161.1875588496526L146.87469333333334,96.80144198735555L146.92467111111114,71.27413956324261L147.09459555555557,87.00848944981894L147.1445733333333,91.10661037762961L147.27451555555555,137.54627215862274L147.49941555555554,41.9261583487193L147.61436444444445,105.24204579989116L147.8692511111111,146.2559953133265L147.98919777777778,142.50049221515656L148.08415555555555,137.72415725390115L148.31905111111112,147.86322085062662L148.88379999999998,109.57962878545125L149.12869111111112,138.22060612837473L149.53351111111112,139.39971176783243L149.58848666666665,96.9222514629364L149.68844222222222,78.48006256421408L150.05328,130.59024401505786L150.33815333333334,169.20017170906067L150.87291555555555,148.7660682996114L151.57760222222223,152.63014284769693L151.77251555555554,162.44520354270935L151.91745111111112,112.42996342976888L152.11236444444447,161.3511545260747L152.35225777777777,153.68066716194153L152.59215111111112,183.02597570419312L152.60214666666667,152.9183694521586L152.79206222222223,40.237006028493255L152.9070111111111,205.82830119132996L153.26185333333333,145.13988502820334L153.96653999999998,32.60673769315085L154.28639777777778,106.46598903338115L154.51629555555556,86.9309819539388L154.6662288888889,111.25018962224325L154.77618,126.02581210931142L154.8161622222222,68.85162003835042L155.4258911111111,60.83125877380371L155.57582444444446,120.48683949311575L155.68577555555558,158.81675787766773L155.85070222222222,45.79916524887088L156.22053777777776,68.48260370890301L156.4154511111111,152.52119628588358L156.84526,90.09547281265259L157.21009777777778,108.25170922279358L157.3350422222222,80.57522662480672L157.40001333333333,38.28827627499899L157.44499333333331,56.321522871653244L157.83981777777777,86.05593967437744L158.13468666666668,95.84157752990723L158.70443333333333,144.84929052988687L158.77939999999998,56.75805934270224L159.17422444444443,108.40058175722758L159.6090311111111,126.9266667763392L160.05383333333333,152.62880651156107L160.2387511111111,132.05285219351452L160.41367333333332,136.54562600453693L160.7835088888889,140.59097337722778L161.3232688888889,95.44660814603169L161.40323333333336,101.95927747090657L161.5081866666667,38.089677969614684L161.55316666666667,76.2428014278412L161.6331311111111,59.16651217142743L161.9479911111111,117.7507381439209L161.95298888888888,58.87718367576599L162.02295777777778,102.44291392962138L162.63768444444443,96.1388771533966L162.69266,53.85368514060974L163.19243777777777,10.88590669631958L163.5272888888889,100.45041330655415L164.52684444444444,156.3695513010025L164.95665333333335,78.01553336779277L165.16156222222224,113.71343223253886L165.16656,80.3176419734955L165.31149555555555,89.56994104385376L165.3214911111111,119.24351938565573L165.8162711111111,66.60533277193707L166.56593777777778,139.19923790295917L166.88579555555557,186.53444417317706L166.91578222222222,7.2068560918172295L166.9457688888889,125.50176906585693L166.96576,188.38092076778412L166.97075777777778,60.86769151687622L167.3455911111111,71.13159704208374L167.5455022222222,113.37236173947653L167.82038,176.58801225821176L168.42011333333335,151.6197555065155L168.46009555555554,114.09281102816264L168.6999888888889,187.47043041388193L169.1897711111111,107.0647848447164L169.2397488888889,86.5380756855011L169.27473333333333,59.922456423441574L169.36469333333332,112.27923878033957L169.6495666666667,82.2908243338267L169.86946888888886,67.123854637146L170.29927777777777,64.09299739201865L170.75407555555557,143.14183978239694L170.76407111111112,171.23545853296915L170.924,124.97587390740712L171.01396,108.85653026898702L172.4283311111111,117.83248909314474L172.55827333333332,89.96741898854575L172.77817555555555,43.998018582661956L173.05305333333334,96.20077061653137L173.36291555555556,77.3901515007019L173.42788666666667,111.10912410418193L173.88768222222222,103.35520950953166L174.0326177777778,144.5896544853846L174.22753111111112,129.4745440085729L175.6269088888889,104.61514004071553L176.02173333333332,117.61621363957724L176.15167555555556,39.69722000757852L176.26162666666667,116.66518775622049L176.35658444444445,96.16529909769694L176.4815288888889,76.53062947591147L176.56149333333335,144.22322877248126L176.62146666666666,91.94397735595703L176.7014311111111,100.64368971188863L176.8363711111111,207.4512814283371L177.17622,130.3122040430705L177.48608222222222,132.95403508345285L178.52562,122.58513339360555L178.56060444444444,92.41199978192647L178.60558444444445,105.83272981643677L178.85547333333332,89.39685034751892L178.87046666666666,97.88917271296184L178.97541999999999,157.4641981522242L179.03539333333336,123.25922119617462L179.1303511111111,108.98366975784302L179.2253088888889,103.78093806902568L179.90500666666668,105.86304354667664L180.30982666666665,90.27301796277365L180.31482444444444,123.17391840616861L180.48474888888887,112.90595698356628L180.80960444444443,158.22275646527606L181.16944444444445,135.61122226715088L181.1944333333333,131.0853682756424L181.32437555555555,51.262177705764785L181.55427333333333,63.02934416135153L181.62924,83.90694705645242L182.03905777777777,120.25427011648813L182.2539622222222,130.9978617032369L182.38390444444445,149.41617238521576L182.58881333333335,113.33534288406372L182.8037177777778,161.08100362618762L183.46342444444443,103.3567099571228L183.4984088888889,124.58952037493387L183.5184,102.98574773470561L184.02817333333334,67.35923735300702L184.22808444444445,127.9574859937032L184.69787555555556,67.37553127606711L184.76784444444442,71.20075829823813L184.85780444444444,66.50789745648703L185.0677111111111,144.39463146527606L186.42710666666667,87.53524033228557L186.6919888888889,14.276074250539182L187.28672444444445,152.62884167830148L188.19632000000001,144.47713263829547L188.38123777777778,27.553581873575865L188.8510288888889,195.90153920650482L189.64567555555553,135.8530991077423L189.77561777777777,105.44720856348674L189.97552888888887,54.04546109835307L190.20542666666665,184.30129754543304L190.53028222222224,154.77595873673755L190.56526666666664,59.70660297075908L190.6052488888889,100.80130704243977L190.84514222222222,162.73163664340973L190.8901222222222,104.19724194208781L191.1849911111111,142.16133244832355L191.24996222222222,116.3769142627716L191.97464000000002,86.40584874153139L192.03461333333334,77.95682835578918L192.19953999999998,110.07547982533772L192.40944666666667,120.29736109574637L192.73430222222223,11.504559993743896L193.1041377777778,133.50445318222046L193.33903333333333,30.626568873723357L193.6638888888889,127.85475222269693L193.80882444444447,7.344756603240995L193.87379555555555,132.7195667028427L193.88878888888888,105.98216501871745L194.21864222222223,104.67035182317099L194.23363555555554,141.23808828989664L194.44853999999998,95.86699136098227L194.69343111111112,121.3188259601593L194.97330666666667,102.90071455637614L195.63301333333334,101.63311767578125L195.66799777777777,195.16667155424753L195.67299555555556,98.78810493151347L195.70798,104.50572458902995L196.1727733333333,118.5413568019867L196.23274666666669,115.772163550059L196.29771777777776,96.8084050019582L196.33270222222222,109.79639657338461L196.90244888888887,111.68867198626201L196.92244,149.07874751091003L197.05738,84.27036015192668L197.06737555555557,125.58792757987976L197.40222666666665,104.15687052408855L197.51717555555555,181.03565541903177L197.86702,87.39471403757732L197.91699777777777,195.0179162422816L198.00196,115.59916663169861L198.03694444444443,59.729297240575164L198.05193777777777,161.45102806886035L198.17688222222222,120.39927430947623L198.85658,156.31950902938843L199.31637555555557,59.096975803375244L199.35136,41.50699424743655L199.80116,151.02755932013193L199.84614,92.90088780721028L199.90611333333334,99.62108778953552L200.00107111111112,59.74336393674217L200.08603333333332,83.11698484420778L200.35591333333332,72.54876979192098L200.41588666666667,121.17026992638907L200.54083111111112,62.49368437131247L200.69076444444445,75.0434045791626L200.7257488888889,159.78238968054453L201.01562,114.4596939086914L201.2455177777778,147.36618586381275L201.34047555555557,66.20579171180725L201.37545999999998,74.77416801452637L201.60535777777778,102.92261171340942L201.86524222222224,186.2055648167928L201.88023555555554,55.469948530197144L202.0551577777778,87.91759657859802L202.68987555555555,126.39808722337087L202.70486888888888,119.91411395867667L202.96475333333333,123.47992765903473L202.96975111111112,117.25392587979636L203.07470444444445,138.24982968966165L203.3495822222222,124.19919300079346L203.78438888888888,84.3213050365448L203.78938666666667,171.50798904895782L203.97930222222223,142.5533126592636L204.05426888888888,158.32021522521973L204.15422444444445,114.83553258577983L204.19920444444446,73.680224498113L204.39411777777778,68.7803253332774L204.63900888888887,101.0290937423706L204.91388666666668,138.48958480358124L205.07381555555554,137.16021168231964L205.54860444444444,135.3056936264038L206.30826666666667,196.0767516295115L206.55315777777778,53.17773350079855L206.7330777777778,125.88961132367452L207.04294000000002,148.01094460487366L207.4277688888889,168.7440121968587L207.44276222222223,121.36390972137451L207.82259333333332,164.98247214158374L207.92754666666667,136.4236208597819L207.9675288888889,149.85129046440125L208.0325,96.81508668263754L208.04249555555555,130.63624211152393L208.07248222222222,81.33623488744101L208.56226444444445,110.38267302513123L208.57226,97.78543082873027L209.00706666666667,101.26049089431763L209.02205999999998,94.39615416526794L209.157,78.402672290802L210.01162000000002,106.63579750061035L210.04660444444443,106.0287492275238L210.37645777777777,100.38840262095134L210.40144666666666,135.30132122834522L210.92121555555556,157.8933027187983L211.0061777777778,67.96297995249431L211.3410288888889,82.10788695017497L211.44098444444447,110.56884574890137L211.64589333333333,59.03402733802797L211.97574666666665,18.371241172154754L212.2356311111111,151.13588460286456L212.3105977777778,41.6980434258779L212.38556444444444,140.63861258824664L212.4655288888889,26.31636905670166L212.5305,142.28381820519763L212.7054222222222,124.23671591281891L212.80038,112.09787217775981L212.83536444444445,119.19769712289174L213.99984666666668,157.40114418665567L214.29971333333336,94.8881368637085L214.44964666666667,95.29658683141072L214.54460444444445,86.47472866376242L214.98940666666667,136.178450067838L215.18432,83.86472352345784L215.2043111111111,93.61329563458762L215.2492911111111,100.34812498092651L215.27927777777776,154.54962559541065L215.40422222222222,90.35980947812398L215.68909555555555,189.27584397792816L215.904,165.72420903046924L216.4187711111111,130.7940352757772L216.99851333333334,140.1305469671885L217.16344,125.29386329650879L217.70819777777777,109.13540252049764L217.73818444444444,90.93846646944682L217.78316444444442,109.83646321296692L218.42787777777778,103.5240801970164L218.5978022222222,148.82487881183624L218.95764222222223,101.64228447278342L219.87723333333335,107.92479920387268L219.9721911111111,116.06060115496318L220.18709555555557,156.99111171563464L220.5319422222222,52.06819939613342L221.60646444444444,58.05484461784363L222.11124,116.42492858568826L222.38611777777777,97.28460955619812L222.46108444444445,84.15219990412395L222.8059311111111,3.712899764378875L222.97585555555554,156.35861444473267L223.3456911111111,134.6085833311081L223.42565555555555,139.81684792041779L223.48063111111114,133.887829264005L223.65055555555557,132.48928316434223L224.05037777777778,87.31645631790161L224.35524222222222,94.08685096104941L224.36024,95.45340704917908L224.6501111111111,84.98947310447693L224.75006666666667,87.70713535944621L224.9649711111111,92.0825343132019L224.98996,50.22276608149211L225.3498,97.26829218864441L226.05448666666666,92.44043795267741L226.16943555555554,159.8052363395691L226.17443333333333,38.687254667282104L226.8541311111111,96.68201573689778L227.3339177777778,95.37503210703532L227.62878666666668,140.67734289169312L227.6837622222222,69.59422437349956L228.88822666666664,122.50300733248392L229.1031311111111,82.6642013390859L229.30803999999998,90.04389492670695L229.65788444444445,65.56207625071208L229.79782222222224,123.40989895661671L230.0527088888889,160.939715385437L230.53749333333332,87.22891457875569L230.57747555555557,117.15792067845663L230.69242444444444,204.6597455739975L230.71741333333335,61.81287972132367L230.80237555555556,71.12160968780519L231.05726222222222,188.9745822350184L231.24717777777778,111.09939463933308L232.26672444444443,134.31945411364237L232.62656444444445,99.32421016693115L233.15133111111112,124.768026749293L233.58613777777776,101.26853235562642L233.6461111111111,108.97286184628805L233.80604,160.58978287378946L233.94597777777778,105.26216117540996L234.38078444444446,86.71344049771626L234.43076222222223,106.86667887369792L234.4607488888889,146.32866152127585L234.48074000000003,92.09910957018535L234.63567111111112,51.46070567766826L234.64566666666667,103.46900908152263L234.71563555555554,81.01127076148987L234.7456222222222,36.72975667317709L235.11046,193.23777584234873L236.3449111111111,92.29613709449768L236.37989555555555,66.79933595657349L236.78471555555555,85.78332710266113L236.86468,140.82210091749826L236.9146577777778,131.8695865869522L237.36445777777777,124.61983410517375L237.49939777777777,156.2080421845118L237.84924222222224,113.2292799949646L238.1890911111111,27.475722710291564L238.26905555555555,134.57428403695425L238.59890888888887,142.64220245679218L238.83880222222223,135.3435447613398L238.91876666666667,49.71230912208557L239.06370222222225,45.61995553970337L239.18864666666664,88.44223745663962L239.28360444444442,131.74861299991608L239.3135911111111,100.99130121866862L240.00328444444443,211.66387009620667L240.04326666666665,153.35461286703745L240.36312444444445,112.40333048502605L240.49806444444445,119.76769137382507L241.17276444444445,81.15683762232463L241.20774888888891,106.07343443234761L241.2977088888889,114.39447132746378L241.81248000000002,85.48804370562236L241.9324266666667,108.1256247361501L241.96241333333333,67.37653938929242L241.98240444444446,138.60555299123126L242.05237333333332,159.66572988033295L242.36223555555554,119.63411637147269L242.70208444444444,91.49168618520102L242.83702444444447,159.3224321603775L243.16687777777776,117.3421240647634L243.2318488888889,108.4748539129893L243.39177777777778,135.8876680135727L243.48173777777777,47.82115904490152L243.53171555555556,146.49616070588428L243.6366688888889,74.91891431808472L244.18142666666665,82.57637826601663L244.53127111111112,86.54494492212932L244.82114222222222,92.88070209821066L245.02105333333333,151.65348041057587L245.15599333333333,143.16053676605225L245.29593111111112,60.82567898432414L245.6057933333333,113.46632726987204L245.7957088888889,144.01120849450427L245.96063555555557,123.20475963751475L246.04559777777777,144.05983237425485L246.2405111111111,160.602548400561L247.44997333333333,101.33080093065898L247.5299377777778,70.6031816005707L248.2496177777778,179.01151645183563L248.5095022222222,77.09843166669211L248.72940444444444,170.1136160691579L248.90432666666666,117.15152033170064L249.05426,114.21076027552287L249.17420666666666,81.73347838719687L249.29415333333333,105.54600365956625L249.33413555555555,168.3011691570282L249.3891111111111,113.96693754196167L249.39410888888887,84.33316795031229L249.69397555555554,106.97984544436137L249.82891555555557,124.54338161150613L249.84890666666666,146.20923527081808L249.92387333333332,147.43299094835916L250.05381555555556,146.51293524106342L250.1087911111111,181.78684043884277L250.16376666666667,146.65321536858875L250.32869333333332,100.47601469357808L250.75350444444445,28.944145123163878L251.01838666666666,154.16596817970276L251.03837777777778,138.59884786605835L251.10334888888892,156.4502824147542L251.50317111111113,138.01220802466074L251.5231622222222,58.93096534411113L251.65810222222223,95.50254670778911L251.70308222222224,189.88790937264758L252.13788888888888,156.11840216318765L252.17287333333334,148.61857899030048L252.39277555555557,53.477612018585205L252.65765777777776,115.1274165312449L252.83258,101.81999373435974L252.8525711111111,152.0138691663742L253.15743555555554,69.26372734705609L253.64222,86.70922048886617L253.83213555555557,101.76025716463725L254.06203333333335,21.653798500696837L254.0670311111111,96.5939113299052L254.08202444444444,103.67424217859904L254.36190000000002,112.44742957750957L254.78171333333333,37.97006416320801L254.90166,83.66246787707011L255.1465511111111,143.22653301556903L255.21652,112.23553824424744L255.9561911111111,73.48418164253236L256.10612444444445,139.32746756076813L256.40099333333336,42.138917128245026L256.65588,175.3458643754323L257.6854222222222,89.39572501182556L257.7304022222222,91.17469318707784L257.8303577777778,54.548884709676116L257.9852888888889,50.985931237538665L257.99528444444445,140.0268988609314L258.6699844444444,90.0039455095927L258.84990444444446,140.99052615960437L259.06980666666664,95.72693395614624L259.36467555555555,118.95598439375559L259.4246488888889,102.39553260803223L259.95941111111114,125.13823874791463L259.98939777777775,133.89516739050546L260.17431555555555,78.76191226641339L260.3292466666667,161.173105319341L260.5041688888889,78.55546005566916L261.25383555555555,93.56896209716797L261.29881555555556,110.13409105936687L261.43375555555554,79.13179604212445L261.5836888888889,200.2455577055613L261.7536133333333,194.2412001689275L261.97851333333335,40.57596651713055L262.01849555555555,91.9360531171163L262.15843333333333,137.35716887315115L262.72318222222225,128.76210101445517L262.8031466666667,126.23968450228374L262.91809555555557,132.53898549079895L263.1130088888889,123.22903641064963L263.1979711111111,150.79517749945322L263.3579,70.38953193028769L263.62778000000003,133.5095640818278L263.67276,65.02266534169516L263.84268444444444,121.84632706642151L264.35745555555553,70.62702465057374L264.4174288888889,111.08089693387349L264.6123422222222,95.90923833847046L264.8722266666667,148.46056310335794L266.31158666666664,111.75994324684143L266.41654,64.25722606976828L266.8413511111111,67.81270074844362" style="fill: none;" fill="none"></path></g></g></g></g></g></g><g transform="translate(48, 177)" clip-path="url(#clip_1)"><clipPath id="clip_1"><rect width="281" height="23"></rect></clipPath><g><g><line x1="0" y1="0" x2="0" y2="5" style="visibility: inherit;" fill="rgb(0, 0, 0)" stroke="rgb(204, 204, 204)" stroke-width="1px"></line><line x1="31.23611111111111" y1="0" x2="31.23611111111111" y2="5" style="visibility: inherit;" fill="rgb(0, 0, 0)" stroke="rgb(204, 204, 204)" stroke-width="1px"></line><line x1="62.47222222222222" y1="0" x2="62.47222222222222" y2="5" style="visibility: inherit;" fill="rgb(0, 0, 0)" stroke="rgb(204, 204, 204)" stroke-width="1px"></line><line x1="93.70833333333333" y1="0" x2="93.70833333333333" y2="5" style="visibility: inherit;" fill="rgb(0, 0, 0)" stroke="rgb(204, 204, 204)" stroke-width="1px"></line><line x1="124.94444444444444" y1="0" x2="124.94444444444444" y2="5" style="visibility: inherit;" fill="rgb(0, 0, 0)" stroke="rgb(204, 204, 204)" stroke-width="1px"></line><line x1="156.18055555555557" y1="0" x2="156.18055555555557" y2="5" style="visibility: inherit;" fill="rgb(0, 0, 0)" stroke="rgb(204, 204, 204)" stroke-width="1px"></line><line x1="187.41666666666666" y1="0" x2="187.41666666666666" y2="5" style="visibility: inherit;" fill="rgb(0, 0, 0)" stroke="rgb(204, 204, 204)" stroke-width="1px"></line><line x1="218.65277777777777" y1="0" x2="218.65277777777777" y2="5" style="visibility: inherit;" fill="rgb(0, 0, 0)" stroke="rgb(204, 204, 204)" stroke-width="1px"></line><line x1="249.88888888888889" y1="0" x2="249.88888888888889" y2="5" style="visibility: inherit;" fill="rgb(0, 0, 0)" stroke="rgb(204, 204, 204)" stroke-width="1px"></line><line x1="281.125" y1="0" x2="281.125" y2="5" style="visibility: inherit;" fill="rgb(0, 0, 0)" stroke="rgb(204, 204, 204)" stroke-width="1px"></line></g><g transform="translate(0, 8)"><text x="0" y="0" dx="0em" dy="0.95em" style="text-anchor: middle; visibility: hidden; font-family: &quot;Helvetica Neue&quot;, sans-serif; font-size: 12px; font-weight: 200;" fill="rgb(50, 49, 63)" stroke="none" stroke-width="1px">-50k</text><text x="31.23611111111111" y="0" dx="0em" dy="0.95em" style="text-anchor: middle; visibility: inherit; font-family: &quot;Helvetica Neue&quot;, sans-serif; font-size: 12px; font-weight: 200;" fill="rgb(50, 49, 63)" stroke="none" stroke-width="1px">0</text><text x="62.47222222222222" y="0" dx="0em" dy="0.95em" style="text-anchor: middle; visibility: inherit; font-family: &quot;Helvetica Neue&quot;, sans-serif; font-size: 12px; font-weight: 200;" fill="rgb(50, 49, 63)" stroke="none" stroke-width="1px">50k</text><text x="93.70833333333333" y="0" dx="0em" dy="0.95em" style="text-anchor: middle; visibility: inherit; font-family: &quot;Helvetica Neue&quot;, sans-serif; font-size: 12px; font-weight: 200;" fill="rgb(50, 49, 63)" stroke="none" stroke-width="1px">100k</text><text x="124.94444444444444" y="0" dx="0em" dy="0.95em" style="text-anchor: middle; visibility: inherit; font-family: &quot;Helvetica Neue&quot;, sans-serif; font-size: 12px; font-weight: 200;" fill="rgb(50, 49, 63)" stroke="none" stroke-width="1px">150k</text><text x="156.18055555555557" y="0" dx="0em" dy="0.95em" style="text-anchor: middle; visibility: inherit; font-family: &quot;Helvetica Neue&quot;, sans-serif; font-size: 12px; font-weight: 200;" fill="rgb(50, 49, 63)" stroke="none" stroke-width="1px">200k</text><text x="187.41666666666666" y="0" dx="0em" dy="0.95em" style="text-anchor: middle; visibility: inherit; font-family: &quot;Helvetica Neue&quot;, sans-serif; font-size: 12px; font-weight: 200;" fill="rgb(50, 49, 63)" stroke="none" stroke-width="1px">250k</text><text x="218.65277777777777" y="0" dx="0em" dy="0.95em" style="text-anchor: middle; visibility: inherit; font-family: &quot;Helvetica Neue&quot;, sans-serif; font-size: 12px; font-weight: 200;" fill="rgb(50, 49, 63)" stroke="none" stroke-width="1px">300k</text><text x="249.88888888888889" y="0" dx="0em" dy="0.95em" style="text-anchor: middle; visibility: inherit; font-family: &quot;Helvetica Neue&quot;, sans-serif; font-size: 12px; font-weight: 200;" fill="rgb(50, 49, 63)" stroke="none" stroke-width="1px">350k</text><text x="281.125" y="0" dx="0em" dy="0.95em" style="text-anchor: middle; visibility: hidden; font-family: &quot;Helvetica Neue&quot;, sans-serif; font-size: 12px; font-weight: 200;" fill="rgb(50, 49, 63)" stroke="none" stroke-width="1px">400k</text></g><line x1="0" y1="0" x2="281.125" y2="0" fill="rgb(0, 0, 0)" stroke="rgb(204, 204, 204)" stroke-width="1px"></line></g></g></g></g></svg>