<svg viewBox="0 0 330 200" xmlns="http://www.w3.org/2000/svg"><g><g><g><g><g><line x1="58.59375" y1="177" x2="53.59375" y2="177" style="visibility: inherit;" fill="rgb(0, 0, 0)" stroke="rgb(204, 204, 204)" stroke-width="1px"></line><line x1="58.59375" y1="163.3846153846154" x2="53.59375" y2="163.3846153846154" style="visibility: inherit;" fill="rgb(0, 0, 0)" stroke="rgb(204, 204, 204)" stroke-width="1px"></line><line x1="58.59375" y1="149.76923076923077" x2="53.59375" y2="149.76923076923077" style="visibility: inherit;" fill="rgb(0, 0, 0)" stroke="rgb(204, 204, 204)" stroke-width="1px"></line><line x1="58.59375" y1="136.15384615384616" x2="53.59375" y2="136.15384615384616" style="visibility: inherit;" fill="rgb(0, 0, 0)" stroke="rgb(204, 204, 204)" stroke-width="1px"></line><line x1="58.59375" y1="122.53846153846153" x2="53.59375" y2="122.53846153846153" style="visibility: inherit;" fill="rgb(0, 0, 0)" stroke="rgb(204, 204, 204)" stroke-width="1px"></line><line x1="58.59375" y1="108.92307692307692" x2="53.59375" y2="108.92307692307692" style="visibility: inherit;" fill="rgb(0, 0, 0)" stroke="rgb(204, 204, 204)" stroke-width="1px"></line><line x1="58.59375" y1="95.3076923076923" x2="53.59375" y2="95.3076923076923" style="visibility: inherit;" fill="rgb(0, 0, 0)" stroke="rgb(204, 204, 204)" stroke-width="1px"></line><line x1="58.59375" y1="81.6923076923077" x2="53.59375" y2="81.6923076923077" style="visibility: inherit;" fill="rgb(0, 0, 0)" stroke="rgb(204, 204, 204)" stroke-width="1px"></line><line x1="58.59375" y1="68.07692307692307" x2="53.59375" y2="68.07692307692307" style="visibility: inherit;" fill="rgb(0, 0, 0)" stroke="rgb(204, 204, 204)" stroke-width="1px"></line><line x1="58.59375" y1="54.46153846153847" x2="53.59375" y2="54.46153846153847" style="visibility: inherit;" fill="rgb(0, 0, 0)" stroke="rgb(204, 204, 204)" stroke-width="1px"></line><line x1="58.59375" y1="40.84615384615387" x2="53.59375" y2="40.84615384615387" style="visibility: inherit;" fill="rgb(0, 0, 0)" stroke="rgb(204, 204, 204)" stroke-width="1px"></line><line x1="58.59375" y1="27.230769230769226" x2="53.59375" y2="27.230769230769226" style="visibility: inherit;" fill="rgb(0, 0, 0)" stroke="rgb(204, 204, 204)" stroke-width="1px"></line><line x1="58.59375" y1="13.615384615384613" x2="53.59375" y2="13.615384615384613" style="visibility: inherit;" fill="rgb(0, 0, 0)" stroke="rgb(204, 204, 204)" stroke-width="1px"></line><line x1="58.59375" y1="0" x2="53.59375" y2="0" style="visibility: inherit;" fill="rgb(0, 0, 0)" stroke="rgb(204, 204, 204)" stroke-width="1px"></line></g><g transform="translate(48.59375, 0)"><text x="0" y="177" dx="0em" dy="0.3em" style="text-anchor: end; visibility: hidden; font-family: &quot;Helvetica Neue&quot;, sans-serif; font-size: 12px; font-weight: 200;" fill="rgb(50, 49, 63)" stroke="none" stroke-width="1px">-0.01</text><text x="0" y="163.3846153846154" dx="0em" dy="0.3em" style="text-anchor: end; visibility: inherit; font-family: &quot;Helvetica Neue&quot;, sans-serif; font-size: 12px; font-weight: 200;" fill="rgb(50, 49, 63)" stroke="none" stroke-width="1px">0</text><text x="0" y="149.76923076923077" dx="0em" dy="0.3em" style="text-anchor: end; visibility: hidden; font-family: &quot;Helvetica Neue&quot;, sans-serif; font-size: 12px; font-weight: 200;" fill="rgb(50, 49, 63)" stroke="none" stroke-width="1px">0.01</text><text x="0" y="136.15384615384616" dx="0em" dy="0.3em" style="text-anchor: end; visibility: inherit; font-family: &quot;Helvetica Neue&quot;, sans-serif; font-size: 12px; font-weight: 200;" fill="rgb(50, 49, 63)" stroke="none" stroke-width="1px">0.02</text><text x="0" y="122.53846153846153" dx="0em" dy="0.3em" style="text-anchor: end; visibility: hidden; font-family: &quot;Helvetica Neue&quot;, sans-serif; font-size: 12px; font-weight: 200;" fill="rgb(50, 49, 63)" stroke="none" stroke-width="1px">0.03</text><text x="0" y="108.92307692307692" dx="0em" dy="0.3em" style="text-anchor: end; visibility: inherit; font-family: &quot;Helvetica Neue&quot;, sans-serif; font-size: 12px; font-weight: 200;" fill="rgb(50, 49, 63)" stroke="none" stroke-width="1px">0.04</text><text x="0" y="95.3076923076923" dx="0em" dy="0.3em" style="text-anchor: end; visibility: hidden; font-family: &quot;Helvetica Neue&quot;, sans-serif; font-size: 12px; font-weight: 200;" fill="rgb(50, 49, 63)" stroke="none" stroke-width="1px">0.05</text><text x="0" y="81.6923076923077" dx="0em" dy="0.3em" style="text-anchor: end; visibility: inherit; font-family: &quot;Helvetica Neue&quot;, sans-serif; font-size: 12px; font-weight: 200;" fill="rgb(50, 49, 63)" stroke="none" stroke-width="1px">0.06</text><text x="0" y="68.07692307692307" dx="0em" dy="0.3em" style="text-anchor: end; visibility: hidden; font-family: &quot;Helvetica Neue&quot;, sans-serif; font-size: 12px; font-weight: 200;" fill="rgb(50, 49, 63)" stroke="none" stroke-width="1px">0.07</text><text x="0" y="54.46153846153847" dx="0em" dy="0.3em" style="text-anchor: end; visibility: inherit; font-family: &quot;Helvetica Neue&quot;, sans-serif; font-size: 12px; font-weight: 200;" fill="rgb(50, 49, 63)" stroke="none" stroke-width="1px">0.08</text><text x="0" y="40.84615384615387" dx="0em" dy="0.3em" style="text-anchor: end; visibility: hidden; font-family: &quot;Helvetica Neue&quot;, sans-serif; font-size: 12px; font-weight: 200;" fill="rgb(50, 49, 63)" stroke="none" stroke-width="1px">0.09</text><text x="0" y="27.230769230769226" dx="0em" dy="0.3em" style="text-anchor: end; visibility: inherit; font-family: &quot;Helvetica Neue&quot;, sans-serif; font-size: 12px; font-weight: 200;" fill="rgb(50, 49, 63)" stroke="none" stroke-width="1px">0.1</text><text x="0" y="13.615384615384613" dx="0em" dy="0.3em" style="text-anchor: end; visibility: hidden; font-family: &quot;Helvetica Neue&quot;, sans-serif; font-size: 12px; font-weight: 200;" fill="rgb(50, 49, 63)" stroke="none" stroke-width="1px">0.11</text><text x="0" y="0" dx="0em" dy="0.3em" style="text-anchor: end; visibility: hidden; font-family: &quot;Helvetica Neue&quot;, sans-serif; font-size: 12px; font-weight: 200;" fill="rgb(50, 49, 63)" stroke="none" stroke-width="1px">0.12</text></g><line x1="58.59375" y1="0" x2="58.59375" y2="177" fill="rgb(0, 0, 0)" stroke="rgb(204, 204, 204)" stroke-width="1px"></line></g></g><g transform="translate(58, 0)" clip-path="url(#clip_0)"><clipPath id="clip_0"><rect width="271" height="177"></rect></clipPath><g><g><g><line x1="0" y1="0" x2="0" y2="177" fill="rgb(0, 0, 0)" stroke="rgb(60, 60, 60)" stroke-width="1px" opacity="0.25"></line><line x1="27.140625" y1="0" x2="27.140625" y2="177" fill="rgb(0, 0, 0)" stroke="rgb(60, 60, 60)" stroke-width="1px" opacity="0.25"></line><line x1="54.28125" y1="0" x2="54.28125" y2="177" fill="rgb(0, 0, 0)" stroke="rgb(60, 60, 60)" stroke-width="1px" opacity="0.25"></line><line x1="81.421875" y1="0" x2="81.421875" y2="177" fill="rgb(0, 0, 0)" stroke="rgb(60, 60, 60)" stroke-width="1px" opacity="0.25"></line><line x1="108.5625" y1="0" x2="108.5625" y2="177" fill="rgb(0, 0, 0)" stroke="rgb(60, 60, 60)" stroke-width="1px" opacity="0.25"></line><line x1="135.703125" y1="0" x2="135.703125" y2="177" fill="rgb(0, 0, 0)" stroke="rgb(60, 60, 60)" stroke-width="1px" opacity="0.25"></line><line x1="162.84375" y1="0" x2="162.84375" y2="177" fill="rgb(0, 0, 0)" stroke="rgb(60, 60, 60)" stroke-width="1px" opacity="0.25"></line><line x1="189.984375" y1="0" x2="189.984375" y2="177" fill="rgb(0, 0, 0)" stroke="rgb(60, 60, 60)" stroke-width="1px" opacity="0.25"></line><line x1="217.125" y1="0" x2="217.125" y2="177" fill="rgb(0, 0, 0)" stroke="rgb(60, 60, 60)" stroke-width="1px" opacity="0.25"></line><line x1="244.265625" y1="0" x2="244.265625" y2="177" fill="rgb(0, 0, 0)" stroke="rgb(60, 60, 60)" stroke-width="1px" opacity="0.25"></line><line x1="271.40625" y1="0" x2="271.40625" y2="177" fill="rgb(0, 0, 0)" stroke="rgb(60, 60, 60)" stroke-width="1px" opacity="0.25"></line></g><g><line x1="0" y1="177" x2="271.40625" y2="177" fill="rgb(0, 0, 0)" stroke="rgb(60, 60, 60)" stroke-width="1px" opacity="0.25"></line><line x1="0" y1="163.3846153846154" x2="271.40625" y2="163.3846153846154" fill="rgb(0, 0, 0)" stroke="rgb(60, 60, 60)" stroke-width="1px" opacity="0.25"></line><line x1="0" y1="149.76923076923077" x2="271.40625" y2="149.76923076923077" fill="rgb(0, 0, 0)" stroke="rgb(60, 60, 60)" stroke-width="1px" opacity="0.25"></line><line x1="0" y1="136.15384615384616" x2="271.40625" y2="136.15384615384616" fill="rgb(0, 0, 0)" stroke="rgb(60, 60, 60)" stroke-width="1px" opacity="0.25"></line><line x1="0" y1="122.53846153846153" x2="271.40625" y2="122.53846153846153" fill="rgb(0, 0, 0)" stroke="rgb(60, 60, 60)" stroke-width="1px" opacity="0.25"></line><line x1="0" y1="108.92307692307692" x2="271.40625" y2="108.92307692307692" fill="rgb(0, 0, 0)" stroke="rgb(60, 60, 60)" stroke-width="1px" opacity="0.25"></line><line x1="0" y1="95.3076923076923" x2="271.40625" y2="95.3076923076923" fill="rgb(0, 0, 0)" stroke="rgb(60, 60, 60)" stroke-width="1px" opacity="0.25"></line><line x1="0" y1="81.6923076923077" x2="271.40625" y2="81.6923076923077" fill="rgb(0, 0, 0)" stroke="rgb(60, 60, 60)" stroke-width="1px" opacity="0.25"></line><line x1="0" y1="68.07692307692307" x2="271.40625" y2="68.07692307692307" fill="rgb(0, 0, 0)" stroke="rgb(60, 60, 60)" stroke-width="1px" opacity="0.25"></line><line x1="0" y1="54.46153846153847" x2="271.40625" y2="54.46153846153847" fill="rgb(0, 0, 0)" stroke="rgb(60, 60, 60)" stroke-width="1px" opacity="0.25"></line><line x1="0" y1="40.84615384615387" x2="271.40625" y2="40.84615384615387" fill="rgb(0, 0, 0)" stroke="rgb(60, 60, 60)" stroke-width="1px" opacity="0.25"></line><line x1="0" y1="27.230769230769226" x2="271.40625" y2="27.230769230769226" fill="rgb(0, 0, 0)" stroke="rgb(60, 60, 60)" stroke-width="1px" opacity="0.25"></line><line x1="0" y1="13.615384615384613" x2="271.40625" y2="13.615384615384613" fill="rgb(0, 0, 0)" stroke="rgb(60, 60, 60)" stroke-width="1px" opacity="0.25"></line><line x1="0" y1="0" x2="271.40625" y2="0" fill="rgb(0, 0, 0)" stroke="rgb(60, 60, 60)" stroke-width="1px" opacity="0.25"></line></g></g></g><g><g><line x1="0" y1="163.3846153846154" x2="271.40625" y2="163.3846153846154" fill="rgb(0, 0, 0)" stroke="rgb(153, 153, 153)" stroke-width="1.5px"></line></g></g><g><g><line x1="27.140625" y1="0" x2="27.140625" y2="177" fill="rgb(0, 0, 0)" stroke="rgb(153, 153, 153)" stroke-width="1.5px"></line></g></g><g><g><g><g><g><path stroke="rgb(255, 112, 67)" stroke-width="2px" d="M34.019145,-2.7224759171868698L34.4837925,3.261584158081547L34.670519999999996,9.103041904369093L34.683547499999996,13.99638061753808L35.148195,18.03957620572342L35.24373,19.674672015413364L35.291497500000006,19.769604738986914L35.4651975,24.79510135075492L35.53902,27.3812812255442L35.5954725,28.62158090117731L35.981955,27.593032373445368L36.242504999999994,32.52294258223387L36.6376725,38.776228695333884L36.6897825,43.39014528622582L36.828742500000004,43.72212588126601L36.8547975,43.688069479904186L36.96336,46.65672065772216L37.158772500000005,50.64043948350009L37.514857500000005,51.68650057539098L37.718954999999994,52.40121143236611L37.7927775,55.10553975713856L37.8014625,58.13675541766054L37.823175000000006,57.906633997943956L37.9317375,58.467877478087416L37.936080000000004,57.56322680890095L37.98819,60.089222785479265L38.0099025,60.16630456614513L38.135835,62.83840139140726L38.2009725,63.24937713998581L38.8002375,65.29543117062602L39.039075,67.11157628476279L40.0248225,71.60365157518736L40.33314,75.52525769633576L40.3461675,77.74660578531156L40.598032499999995,80.0621207957578L40.8672675,80.41564080287155L41.166900000000005,81.57249917305376L41.227695000000004,82.77522873297072L41.23638,83.68506669053279L41.240722500000004,83.92433915855102L41.4925875,83.082067994971L42.252525000000006,85.71447461765939L42.85179,88.05517572622351L42.860475,90.73569257717458L43.0776,92.63889203694906L43.3859175,93.83302012038084L43.6117275,93.50548909828024L43.70292,93.34838699076013L43.7333175,95.56218652819425L44.197964999999996,96.98012115021523L44.319555,98.36034695688564L44.441145,99.65012300518285L44.666955,100.57526986488594L44.936189999999996,99.66586071709284L45.361755,101.29306735257614L45.4963725,101.54989605572776L45.518085,101.35561125853906L45.8871975,103.60200998963312L45.8958825,103.70343918165709L46.247625,104.47293965417371L46.647135,103.72662385618547L46.7209575,105.15557578440178L46.812149999999995,105.42512202586747L47.394045,107.83647562322167L47.411415000000005,106.34963704271634L47.446155,107.44161163229472L47.932514999999995,107.43910597790362L47.993309999999994,108.26554600430363L48.158325,109.11217999615432L48.210435000000004,110.25141893627831L48.39282,110.76136371513222L48.7271925,110.79825632584104L49.070249999999994,110.53847501257572L49.078935,109.07866406694451L49.31343,110.30007523450493L49.43502,111.04801455323151L49.8909825,112.67541241434687L50.3512875,113.9668098684628L50.4120825,114.24747718918428L50.676975,115.33805907328559L51.2371575,115.98631759481944L51.8016825,117.58703810479327L51.992752499999995,118.104020519247L52.361864999999995,119.17315218455398L52.448715,119.9203586362364L52.605045,120.23533225643317L52.635442499999996,120.53946586234747L52.7917725,121.39721845167597L52.882965,121.55456104439513L53.15219999999999,122.11963757749072L53.23905,121.786408698047L53.721067500000004,122.44081621978385L53.764492499999996,122.90844095738032L54.064125,123.45979226203465L54.1205775,123.78799292877643L54.146632499999996,123.87083107034027L54.203085,123.76772601462125L54.4506075,125.05709358418783L54.550485,125.54925982413035L54.828405000000004,126.02803764038153L55.453725,126.2065650492023L55.68822,126.96656961371548L55.8141525,127.84609791851531L56.0486475,129.17949168719437L56.218005,128.8210198745767L56.231032500000005,129.13598612938165L56.283142500000004,129.97030769239018L56.41776,130.76424906751373L56.90412,130.62648898927577L57.390480000000004,131.3639267391364L57.503385,131.82536421250012L57.99843,131.13034851408887L58.03317,131.4725795526869L58.2112125,129.5712643972469L58.6107225,130.81925290501403L58.8886425,131.87764350991606L59.0970825,132.60918622909833L59.19696,132.60251341649433L59.49225,133.6534287585896L59.535675,133.4004714330942L59.5487025,133.12258471081734L59.61384,133.188943243206L59.7571425,133.86322857784978L60.5474775,134.10313422176506L60.838425,133.83152948182934L60.960015,134.11334846969177L61.00344,133.96920463338472L61.1554275,133.69351281461104L61.8415425,134.82860199400133L62.16723,134.9291598082728L62.662275,135.59945518468393L62.8403175,135.65503577981062L63.33102,135.812097348258L63.4569525,136.26074097969467L63.47866500000001,135.30770202322117L63.5177475,136.16577082595597L63.9085725,136.40028381777626L63.921600000000005,135.36975554600434L64.04319000000001,134.7467732414264L64.086615,135.59329477365458L64.4904675,136.11106080500133L64.6381125,136.61531535865802L64.8986625,137.01302929042174L65.69334,136.92989110448687L65.806245,137.23976191854638L65.8192725,137.79810221685358L65.910465,136.80138521837L65.94086250000001,136.7168834327773L66.1927275,137.358374385185L66.2187825,136.87761428062322L66.4619625,136.76098561669983L67.352175,136.75565367891824L67.595355,137.562547094963L67.73431500000001,137.74718729053305L68.11211250000001,137.48757839071143L68.255415,138.337869247233L68.5984725,138.7743376546482L68.62886999999999,138.15730447124488L68.68532250000001,138.4161823805312L68.9458725,138.1839195728752L69.0761475,138.47306422442605L69.176025,138.83309265175936L69.25419000000001,133.01215880242367L69.8838525,135.3568699413336L70.16177250000001,137.3110561187421L70.81748999999999,138.6627609654097L70.930395,138.47165756023742L71.764155,138.9338585538399L71.7945525,139.4544017946973L72.285255,139.5953334999603L72.2982825,139.3150139213653L72.389475,138.55795037193332L72.6456825,139.43033288981457L72.83241,139.6672035111176L73.2015225,139.45628968198224L73.33614,139.7015992316597L73.40562,139.75713874522958L73.47944249999999,140.22288452850557L73.6531425,140.42622373308956L73.85289750000001,139.62232079482118L73.85723999999999,140.38057033552047L73.952775,140.42199875521345L74.1047625,140.7220490764654L74.21766749999999,140.58983209034108L74.25675,140.50718574267347L74.48256,140.23506449141976L74.4955875,139.8425164281063L74.6432325,140.26223019023823L74.6606025,140.64044974142823L74.76048,141.0441694102052L74.786535,139.9936572936302L74.79522,140.29297232422752L74.994975,140.41768195345574L75.35106,140.75588801892422L75.43356750000001,141.0403826033123L75.47265,140.41252078980492L75.76794000000001,141.04664697065434L75.776625,139.97072357195535L76.037175,139.125204007604L76.7276325,139.89591992039487L76.957785,140.36995753568277L77.044635,141.3315819673741L77.1792525,141.8813664804241L77.218335,140.02119917949545L77.2921575,140.74145796741274L77.36598,140.19808414142312L77.722065,139.92426926782167L77.82194249999999,140.5187237329555L77.8827375,140.49399079485372L78.2040825,139.9327816169295L78.6991275,140.64995462807707L79.1160075,141.25431046805244L79.13772,141.11049957824625L79.29405,141.4089287309864L79.4286675,142.02198319289428L79.84989,142.0009821242981L79.962795,142.02879922655734L79.980165,141.9186021400771L80.049645,142.15204263660843L80.23203,140.94790528377018L80.50995,141.65715521600686L80.5229775,141.49902621569493L80.5924575,139.56481738118455L81.0093375,139.74892689079763L81.23948999999999,138.7835520614933L82.1644425,140.24107690167776L82.2860325,140.27971862493138L82.7463375,141.42205609248066L83.0589975,141.28404253366259L83.3282325,140.95959019929384L83.66694749999999,139.00293627175589L83.74077,139.4581686156565L83.85801749999999,139.63393131778085L83.94921,140.41701990343552L84.00132,140.20022486480678L84.0664575,141.00436751719798L84.31398,141.9753176113937L84.6309825,142.45392075035508L85.10865749999999,139.92185601458914L85.33881,141.0614783838426L85.35618,141.5429510734423L85.781745,139.29281868455627L85.96413000000001,139.4523601767795L86.1855975,139.84704733851277L86.28547499999999,141.07157705312298L86.5416825,141.3319171947283L86.55470999999999,142.10193069676507L86.96290499999999,142.29222297815147L87.11055,142.41851971375007L87.2625375,142.72971642670802L87.431895,141.03763173545832L87.831405,141.8726209764667L87.92693999999999,142.32360386570986L88.28302500000001,141.37695842150038L88.8953175,141.98676953848573L89.1819225,142.39400773049448L89.21232,142.52679379876471L89.2514025,142.53879719204545L89.325225,142.969565371114L89.40338999999999,142.73073678372884L89.65959749999999,142.28710078989616L89.8767225,142.67256362751675L90.08081999999999,142.50798928357187L90.35439749999999,142.05159486945837L90.680085,142.69993666938305L90.70614,143.18249711380906L90.836415,143.01215791602527L90.87549750000001,141.5320626711363L90.91892250000001,139.59464351581465L91.3184325,140.58746517241465L91.357515,140.60934652068343L91.374885,141.19084255526417L91.44870750000001,141.22280939596862L91.72662749999999,141.05644301511398L91.809135,142.3307767559419L92.39537250000001,142.49724806096137L92.66895000000001,143.30563938993572L92.86870499999999,142.74776290880655L93.059775,142.99636701751268L93.43323,143.2525893827405L93.685095,143.30735852221636L94.3321275,143.78976202799717L94.3408125,143.7693641836001L94.4797725,144.12359419022246L94.61438999999999,144.30760909351255L94.87059749999999,142.9641377460604L95.491575,142.9134152188273L95.595795,142.8849309205176L95.6348775,141.7480939619775L95.873715,142.58629663866054L96.5294325,143.28070824721993L96.5902275,142.75906059074129L97.0331625,142.62307803633598L97.12435500000001,143.27155257082273L97.7019075,143.7898730336986L98.0145675,144.2388570647593L98.1101025,144.2290832464971L98.183925,143.30272191692322L98.38368,143.6412888241851L98.531325,143.7997734638341L98.8135875,143.910141491201L99.1609875,144.28219831920515L99.4910175,144.20010463145104L99.6473475,143.92179171486885L100.12936499999999,144.2012712642204L100.1337075,143.82646772632447L100.2813525,142.29816283161952L100.3421475,143.45451589198373L100.52453249999999,142.28170622703158L101.24973,143.51784893852812L101.3843475,144.0453934624885L101.5319925,143.8414835277256L102.00098249999999,140.8233725660569L102.14428500000001,142.37891863555103L102.22245,143.68771547813373L102.231135,143.4039933177641L102.335355,143.16248244898384L102.3396975,143.26727669176654L102.352725,140.881542809002L102.4352325,142.44688647806652L102.58722,142.61513307468712L102.72183749999999,143.68307577215526L102.891195,143.82370034656049L102.93462,144.11224946650844L103.32110250000001,144.13640755394272L103.3818975,144.11157821335667L103.50783,143.8867240100354L103.54257,144.14237736482002L103.66850249999999,143.3322495517325L104.09841,143.2982844250179L105.10152749999999,143.79783174225042L105.2231175,143.6280095877641L105.2622,143.47951157233402L105.38379,143.8541273197012L105.53577750000001,144.2917297697581L105.5878875,143.95190678658264L105.8658075,144.2816209426698L106.452045,144.39525924533743L106.68654,143.32024081502135L107.2640925,142.5308222712916L107.26843500000001,142.49333036264065L107.876385,142.93274054672335L108.4018275,143.72388319852178L108.432225,143.84850079583157L108.9750375,143.43607285411144L109.46574000000001,144.09042386494363L109.5482475,143.6390600909039L109.6698375,143.768877902261L109.7653725,144.13723200111255L109.856565,144.50450377917412L110.151855,144.62028214350553L110.3820075,142.98652721514964L110.6338725,142.04789409542022L110.82494249999999,142.03105320588955L111.7542375,143.1738733496715L111.8324025,143.83929772757037L111.9279375,144.28326365240403L111.9539925,144.74095264216746L112.427325,145.18010377532073L112.48812,143.54392805301035L112.5358875,143.5763272656099L112.774725,144.56035988099416L112.8224925,144.47447991892534L112.8485475,142.73001220860064L113.104755,143.1859615966649L113.2220025,144.08247757439258L113.32188000000001,143.7346575174413L113.62585499999999,144.00569477059688L113.72139,144.16063234435467L113.8646925,142.72327867446052L113.9689125,141.45515421302053L114.1426125,142.63721320217485L114.2207775,143.5252775572416L114.2468325,143.64770204995594L114.25985999999999,143.86792479857516L114.58989000000001,140.63647300429585L114.59423249999999,142.3331649127175L114.79833,143.11335719843737L114.9329475,143.01262146342737L115.050195,143.68009705860626L115.0632225,143.3783135991829L115.084935,143.5262880621506L115.3932525,142.80958159394444L115.44102,143.94668538898503L115.6538025,143.67024280928354L115.901325,143.815474589369L116.09673749999999,144.56339400473087L116.27478,144.29742984015988L116.3312325,144.71279610006178L116.335575,144.91162935610282L116.43110999999999,144.88793745456002L116.50059,143.75882488655685L116.9826075,144.26706215930872L117.0738,144.72854554836914L117.3734325,144.02713811668275L117.38646,144.30082494595544L117.3908025,144.3219939598788L117.5992425,144.51138237098795L117.7034625,144.96086877824675L118.2766725,143.6188580887334L118.62407250000001,143.84870724475664L118.680525,144.0378462256155L118.95844500000001,144.13643785213094L119.2407075,143.86504237520265L119.340585,144.08204494092482L119.705355,143.89398426723344L119.7183825,144.4785134553241L119.74009500000001,143.88449728257956L120.0310425,143.930832137501L120.1092075,144.04521829934603L120.43489500000001,144.35261627122617L120.6042525,143.60972078986038L121.2903675,144.6836416567802L121.47275250000001,144.89789767157902L121.47709499999999,145.01248061654397L121.75935750000001,144.92100699462185L121.7854125,145.04351079203988L121.89831749999999,145.27756716200847L121.98951,143.09138938833144L122.01556500000001,143.63745032211233L122.70168,144.43123098737055L123.7395375,144.85938925678397L123.79598999999999,144.79099457470417L123.943635,144.8831872996697L124.047855,145.150980887464L124.10865000000001,145.0755186338593L124.23024000000001,144.4416966315499L124.725285,143.48752889011035L124.8772725,144.2940703296471L125.03794500000001,144.60923896686165L125.43311250000001,144.3955347251099L125.9976375,144.80293781778272L126.32332500000001,145.07435780448353L126.71415,143.20110066825345L126.7271775,144.12188573719197L127.36552499999999,144.03728760597096L127.38289499999999,143.5862558156806L127.56962250000001,144.18329693614174L127.61739,143.00547490629026L127.660815,143.62937026010664L127.80846,144.7138837333951L127.851885,144.49509957081372L127.96479000000001,144.77998788352278L128.1602025,142.86509729969552L128.26008,143.35640532196697L128.4815475,144.1999378702846L128.5857675,140.72124861214476L128.668275,141.95586473045026L128.87237249999998,139.5847481396861L129.363075,142.15830635688337L129.5758575,143.8060998194957L129.92759999999998,144.04886397217822L129.9753675,144.44014320966667L130.0622175,144.82525820448393L130.37922,142.64156053382027L130.6267425,143.35470632861774L131.09139,144.19462390517242L131.70368249999999,144.77475676952673L131.87304,145.00501049344143L131.9989725,143.68603475607233L132.37677,144.3547662892334L132.58521,144.47122004217414L132.593895,144.96076913080518L132.75891,143.81406906555466L132.8587875,144.30125251024268L133.167105,144.97896401511747L133.77939750000002,143.93318255958766L134.05731749999998,144.9921986317779L134.4828825,144.91871120427615L134.51762250000002,144.69081555221143L135.1776825,145.39381934513386L135.27321750000002,145.42321253351366L135.41652,144.27718202055232L135.737865,144.5169867394748L135.9072225,144.895851025164L136.2806775,144.44284127557913L136.59768,144.87960737336613L136.7062425,144.3200739147829L136.762695,143.86217393195798L136.80177750000001,144.4600988036441L137.144835,144.02412360323675L137.40104250000002,144.0969325929292L137.8960875,144.51274009166912L137.96122499999998,143.54125480676788L138.3042825,144.12826370469713L138.68207999999998,144.74480948484208L139.06856249999998,144.14220294460492L139.229235,144.0888513230878L139.3812225,144.70198231853783L139.7025675,145.11643875627823L140.24103749999998,144.89442490344248L140.33222999999998,144.9069636257635L140.3713125,145.21584824116368L140.44079250000001,145.70856404927483L140.71437,145.03396074939346L140.7187125,145.33928829710825L140.77950750000002,145.28699412994885L141.313635,145.6369877419531L141.3614025,145.40878417527023L141.79565250000002,145.54129387674857L142.0866,144.69501801091693L142.9551,141.91475439386065L143.5065975,141.81374621694567L143.51094,143.27407307738005L143.6368725,144.20782767973552L143.6455575,144.34433829527575L144.075465,144.3229929168129L144.72684,145.3544821658655L145.00476,145.51474951549682L145.030815,145.4692484887637L145.05687,143.64145269292393L145.07424,143.9699305335473L145.0785825,144.09791510021358L145.57797,144.47620619847393L145.81680749999998,143.9385274268949L146.3379075,144.41918261776033L146.5810875,144.03582691244694L147.0066525,144.956810758871L147.0500775,144.97324944953314L147.08047499999998,145.32729496266407L147.15864000000002,145.3926356880378L147.40616250000002,145.72272046405834L147.5972325,144.69630228578308L147.9706875,141.6667868842484L148.365855,143.19069672340348L148.37454,144.17626237721834L148.5135,142.27876126631898L148.591665,143.71616211728062L149.82059249999998,144.54079195721584L149.93349750000002,145.08529901354464L150.12456749999998,145.33753733636615L150.363405,145.4659867820473L150.63263999999998,145.3815356107185L150.68909250000002,145.8132687272988L151.08860249999998,144.04157135766613L151.21453499999998,144.94714090811027L151.3838925,144.7931916063238L152.5997925,144.83841865997L152.94285,141.62953544700434L153.055755,143.11800196701552L153.15129000000002,143.71331460551366L153.2337975,144.3091518044872L153.34236,145.12133877454005L153.41183999999998,145.25829892374526L153.46395,145.69622328096943L153.6506775,145.76817719468067L153.94596750000002,145.56600573510926L154.2152025,145.9674224724279L155.11844250000001,145.5917043684023L155.14884,145.1858255217867L155.18792249999998,145.25245466234665L155.4050475,144.2644248032712L155.41807500000002,144.80956118537307L155.50926750000002,145.10149216687824L155.64388499999998,143.97872566120895L155.72639249999997,144.62262048729656L156.3169725,144.46179062967536L156.668715,144.9486196692107L156.6730575,144.06858224533673L156.8207025,144.46105987290454L157.41562499999998,145.19081955092634L157.4373375,145.51557404843078L157.5502425,144.9226586236919L157.7499975,145.23238498321746L157.815135,145.6412366007706L158.17122,145.83235900573652L158.3579475,143.44442619550475L158.47085249999998,144.5275637616044L158.64889499999998,143.34114191175073L158.8356225,144.40533481257577L159.4088325,144.39974735611972L159.43922999999998,144.6164465336368L159.4566,145.23851349272982L159.89953500000001,143.1714569615137L160.07323499999998,143.53493494931803L160.48143000000002,144.44268987585548L160.542225,144.52847874926732L160.62039,145.1289488496568L160.802775,144.76862077845254L161.983935,145.10865356377937L162.2140875,145.42211551257202L162.730845,144.83286197953362L163.52118000000002,143.89409810357287L163.6818525,144.77530214382546L164.0900475,145.31033023504722L164.780505,144.53389625457984L164.89341,145.24760746506766L165.06710999999999,144.05599089522678L165.266865,144.85958403705345L165.5491275,145.44111707286845L165.579525,145.01263213900353L165.614265,143.26595717976602L165.82270499999998,143.99354831738265L165.8617875,144.9171878844357L166.117995,145.21727992111965L166.1744475,144.73496011939818L166.80411,143.73607417831664L166.85622,144.69567119791782L166.99952249999998,144.9890869786147L167.1819075,144.98526465634862L167.46417,145.1828530980416L167.785515,143.27109954697573L167.9896125,143.65428146204346L168.271875,144.329302638312L168.3978075,145.02248260466033L168.45426,145.28804262493256L168.7538925,145.5823002325501L168.76692,144.79841121559454L168.9536475,145.16422082338264L169.16643,145.1255323302727L169.40961,145.37160753472838L169.98282,143.6773405253587L170.01756,144.41862703509548L170.0479575,143.11761272683347L170.45181000000002,143.53848478899545L170.50392,143.44538169328064L170.59077,142.23318668966473L171.085815,142.26765280191475L171.103185,143.42220421257701L171.2204325,142.5080079317552L171.2291175,144.39382864349625L171.6199425,144.24801670430992L171.92391750000002,144.90824359205854L172.041165,144.09856951081633L172.0715625,145.0744290360902L172.08459,145.33347076610065L172.1931525,145.52040841586745L172.78373249999999,145.68326944137794L173.1832425,145.6760716659873L173.21364,145.55350196189443L173.604465,145.63832560857804L173.6435475,145.28317784889327L173.6956575,145.31918282364848L173.778165,145.49690990515194L173.8519875,145.9329335683948L174.0864825,146.1447876740041L174.1385925,145.68508812547213L174.24715500000002,145.7045077222523L174.4078275,145.54672713941417L174.6596925,144.14075799160696L174.8594475,144.55202656725527L174.941955,145.299504950236L174.9723525,143.6135693258817L175.1721075,144.21363643209787L175.3979175,144.28940939293847L175.410945,144.7494900533901L175.5629325,144.97849397359676L176.1274575,143.54958779810897L176.35326750000002,144.50070910423418L176.35761000000002,144.9901451959071L176.4488025,145.3618810723385L176.68764000000002,145.63115401246037L177.0654375,144.41720284856856L177.06978,144.84795953064585L177.23479500000002,145.4470387566468L177.3867825,145.79327898329933L177.425865,146.08461632104274L177.5952225,146.28124002425957L177.808005,144.2051930968661L178.04684250000003,144.35886813943702L178.1858025,145.05158143877367L178.59833999999998,144.32976334785587L179.2584,144.765739695699L179.4711825,145.4904456078604L179.6275125,145.26503659745703L179.8967475,145.66667370176702L180.23112,146.07531711885244L180.2441475,145.13174138519665L180.57417750000002,145.55601426968002L180.66537,145.23386205531875L180.70011000000002,144.63965365513948L180.7565625,145.0780393061373L180.7652475,144.99366759797854L180.7913025,141.02143701224693L181.21686749999998,143.1177465986835L181.2255525,143.67679373372587L181.60335,143.41715410332813L181.6163775,142.31423752388227L181.733625,143.14066558180008L182.47619250000002,144.39360975669933L182.50659000000002,145.32139475818437L182.793195,145.45356685199988L182.81490749999998,145.96635986595084L183.2665275,143.98001451720341L183.34035,144.8161558926491L183.6312975,141.98113551353055L183.7181475,143.24228850304635L184.182795,143.37721778608017L184.408605,145.02553837851218L184.4737425,145.2357930238989L184.53888,145.42487162098203L184.60836,144.42843819200255L184.6648125,144.5465716169478L184.8168,143.40015562864735L184.8993075,143.51373237986002L184.92970499999998,144.504476851015L185.9415075,145.37529455080644L186.2020575,145.0634660892373L186.3323325,144.4244882328919L186.41484,145.03894645068254L186.8013225,145.5161983542542L186.97068,145.96900196326558L186.98805000000002,145.8555281815099L187.02713250000002,145.78007766383507L187.0531875,145.75103257716117L187.16174999999998,143.26464065499738L187.40927250000001,144.39778592501202L188.04327750000002,144.44590175006644L188.5470075,143.4354880583287L188.69030999999998,143.60454372404175L189.1636425,144.18136517813392L189.1896975,144.27950767722848L189.22877999999997,145.16288602838728L189.7889625,145.30378155954412L189.9366075,144.87487770530836L191.0482875,145.26192820811377L191.13079499999998,145.0834740451544L191.3175225,145.35118296797643L191.617155,145.94456312827074L192.5507925,145.30875879103561L192.989385,145.53371022731986L193.22822250000002,145.3707403488719L193.29336,145.44514999926514L193.5929925,145.26243774057605L193.74063750000002,145.76596144047852L194.0619825,145.91696688198L194.1314625,146.22916321736955L194.17923,146.49931441587714L194.326875,145.27940498668534L194.674275,143.61918773578753L194.9391675,144.36244866286467L194.94351,144.92550437814995L195.19537499999998,145.53722348266888L195.282225,143.30402142492744L195.4689525,143.06688893090833L195.490665,143.60698740162067L195.803325,144.71872381623388L196.4156175,145.40476280580364L196.51549500000002,145.9470786563228L196.5198375,145.84138107506914L197.1104175,145.96271370223408L197.5272975,146.20538638719052L197.78350500000002,146.3160070377798L197.8312725,146.46788228533242L199.0645425,146.74251746054358L199.242585,146.88226965260336L199.54656,146.9627850305547L199.66815,146.9488805739679L199.8896175,146.7274345540623L200.31084,146.4747415153433L200.4454575,146.16318329899238L200.46716999999998,145.28594875563724L200.5409925,145.44623390229117L200.76246,142.97954593763464L200.927475,142.04938915333116L201.813345,143.57314210740077L202.126005,142.07664484331036L202.5819675,143.27756433596397L202.959765,143.8197075492292L203.011875,144.62862880876406L203.150835,145.47859692289722L203.272425,145.11612037995036L203.6502225,144.9502981154146L203.6936475,145.54494194078578L203.7197025,145.68406707761184L203.7370725,145.32486576739524L203.87168999999997,145.45446917380116L203.880375,144.45934976089362L203.94117,144.7378021319686L203.96722499999998,144.31958977428638L204.28422750000001,144.61732031800122L205.356825,145.34181881784065L205.738965,145.8416450302888L205.85187000000002,144.1733458753006L206.242695,142.98879092520244L206.35994250000002,144.26272000194282L206.6639175,144.47647585097138L206.9592075,144.79678642662736L207.02868750000002,145.29936050949686L207.3152925,143.95607941357747L207.5237325,141.57104025213073L207.5932125,143.44622884521849L207.719145,143.91778283957774L207.8277075,144.76428068010796L207.910215,145.51588489551924L208.535535,145.58637710762233L208.570275,146.18255113252252L208.848195,146.08229836108467L208.9654425,145.50947953172297L209.55168,145.89407553549043L209.5820775,146.16085436233217L209.66024249999998,145.37600689793933L210.10752000000002,145.69675483435347L210.21174,146.1519143634986L210.255165,146.1747635561749L210.31596000000002,146.4861561479973L210.585195,144.57076791935924L210.9977325,145.34298109351624L211.2843375,145.79873935713556L211.34079000000003,145.83007739408401L211.47975,146.37157852638532L211.55791499999998,145.12479625342166L211.60134,144.67027313987677L211.6925325,145.18162981512154L212.165865,143.82004506172862L212.46984,144.9905378104025L212.895405,145.61463192781605L213.4034775,146.21236896508032L213.56849250000002,144.8352048884952L213.711795,145.19266711019375L213.7856175,145.10951056661867L213.95497500000002,145.72408949552803L215.00586,145.71075765735588L215.07534,144.73484626735947L215.70066,144.78197208711006L215.92647,145.27441761250242L216.11754,145.76293410182654L216.2695275,144.5985543811177L216.39980250000002,144.76721444927782L216.5040225,145.17332540367232L216.60824250000002,145.343770765059L216.64298250000002,144.61820412077842L216.69075,145.51167999789274L216.69509250000002,144.4400020033612L216.95564249999998,145.1405892167019L217.07289,145.08987291256213L217.09026,144.96996879820415L217.15539750000002,144.95682647213434L217.2683025,145.47014361666086L217.31607,145.45606455246013L217.36383750000002,145.4721869996017L217.50714,145.79815216005187L217.87625250000002,144.8273786323916L218.106405,145.6264703458523L218.123775,145.7444440821853L218.1802275,146.16043367053732L218.5276275,146.27271330624987L218.5449975,146.5241110072742L218.662245,145.8895040311526L218.7013275,146.0254317439769L219.079125,146.1456171762405L219.1095225,145.7608424822365L219.3005925,146.22207382641562L219.530745,146.50178997089782L219.68273250000001,146.2697028092761L219.70010249999999,144.55375274896096L219.964995,145.4504919785413L220.3862175,144.4018370420703L220.5512325,145.3247405106865L220.75098749999998,145.53748254498865L220.75533,145.08041814990838L220.7683575,145.26557718302837L221.0115375,143.39811232370522L221.3763075,143.9883174668693L221.4805275,144.9888348290428L221.69331,146.00703720206644L221.754105,145.9697328048991L222.396795,146.20048323832847L222.52706999999998,144.7458532752063L222.7832775,145.4347321781702L223.00474499999999,145.98143716024177L223.8993,145.2608031666135L223.9383825,146.0166479234105L224.02523250000002,145.73045772861823L224.15985,146.28028397109327L224.168535,145.4889122064301L224.7547725,145.70394089244903L224.9111025,145.48623771346547L225.1021725,145.8922457247515L225.35837999999998,144.49850637176408L225.41049,144.49234255848668L225.90119249999998,144.6735283361391L226.061865,145.37138042768473L226.1964825,145.97369047149706L226.34847,146.6830360087665L226.999845,146.78833755842933L227.0389275,146.70247254344002L227.15617500000002,146.1221600504739L227.28645,146.3969782434578L227.43409499999999,146.50970589360264L227.6295075,146.71883451119234L227.66424750000002,146.861479306692L227.7858375,146.52844333491248L228.27653999999998,146.0767029470846L228.34601999999998,144.96760249049106L228.4458975,145.6862848308629L228.615255,143.40190433809528L228.6890775,143.13362401530918L229.06253249999997,143.71084594186686L229.101615,144.94578362241847L229.24926,145.4243803680223L229.7486475,145.43866412196556L229.918005,146.33759233291423L230.14381500000002,146.31385298722577L231.394455,145.85296709216408L231.4856475,144.75124275003398L232.09794000000002,143.5755511832186L232.28466749999998,144.34986256512462L232.51482000000001,144.20067091716345L232.5452175,142.78739494549734L232.6320675,143.0063520855984L232.7449725,143.3836991210839L233.1357975,144.71191513382834L233.36160750000002,144.9564628282257L233.6221575,145.32127257529535L233.652555,145.27775908477824L233.7784875,145.64437201359198L234.00863999999999,145.2041310521723L234.02601,145.7510904359629L234.08246250000002,146.09255199313867L234.1432575,144.6596181320911L234.2474775,144.73699903561956L234.2995875,145.73212208654593L234.4385475,145.6717104228549L234.468945,144.538611607523L234.52974,144.66322903910628L235.0204425,145.6381268785695L235.06821,143.28669618378188L235.094265,144.4491646732419L235.27230749999998,145.3748782503691L235.2896775,145.99464631523136L235.3504725,146.2597003532331L235.45035,146.27037461153566L235.910655,144.40656102078452L236.0973825,142.68179875791293L236.2884525,143.42716836440695L236.3666175,144.91865972216576L236.43609750000002,143.62192033000332L236.5663725,144.30065570415354L236.866005,145.2116467903838L237.4088175,145.00595791252857L237.595545,144.82180486227975L237.60423,145.15456612517136L237.7649025,145.03530991601303L237.76924499999998,145.74204451022499L237.81267,144.89089394822184L237.84741,145.5547918459718L237.9559725,146.0436269498893L238.3164,146.4835596250404L238.33811250000002,146.34551165147388L238.40324999999999,145.82476057874192L239.24569499999998,145.44408984011017L239.84496000000001,145.8567427533557L240.76557,142.73100347491396L241.104285,144.4525585042696L241.33878,144.51230929585324L241.4473425,145.5970627517867L241.9944975,144.72184195182774L242.34624000000002,144.54980552485662L242.5590225,144.7644416333547L242.6111325,144.89301026916064L242.69364,145.204919875687L242.94984749999998,144.23254111172298L243.4535775,144.28200055081112L243.79663499999998,144.9701162826281L243.97902,142.88422211118112L244.29168,144.79238172994138L244.317735,141.6018524234749" style="fill: none;" fill="none"></path></g></g></g></g><g opacity="0.2"><g><g><g><path stroke="rgb(255, 112, 67)" stroke-width="2px" d="M33.949665,-0.781702266289642L34.019145,5.871527167466979L34.4837925,12.237674268392425L34.670519999999996,17.865228522282393L34.683547499999996,21.33638868652858L35.148195,24.104369587623154L35.24373,22.12731572985652L35.291497500000006,19.912003824344055L35.4651975,32.333346268305434L35.53902,31.2605510376967L35.5954725,30.48203041461798L35.981955,26.050209581851988L36.242504999999994,39.917807895403655L36.6376725,48.15615786497409L36.6897825,50.31102017255931L36.828742500000004,44.22009677382616L36.8547975,43.636984877861465L36.96336,51.109697424448456L37.158772500000005,56.616017722166504L37.514857500000005,53.25559221322722L37.718954999999994,53.473277717828765L37.7927775,59.16203224429718L37.8014625,62.683578908443465L37.823175000000006,57.56145186836905L37.9317375,59.30974269830264L37.936080000000004,56.206250805121215L37.98819,63.87821675034671L38.0099025,60.28192723714389L38.135835,66.84654662930049L38.2009725,63.86584076285364L38.8002375,68.36451221658633L39.039075,69.83579395596797L40.0248225,78.34176451082415L40.33314,81.40766687805838L40.3461675,81.07862791877528L40.598032499999995,83.53539331142719L40.8672675,80.94592081354216L41.166900000000005,83.3077867283271L41.227695000000004,84.57932307284614L41.23638,85.04982362687589L41.240722500000004,84.28324786057841L41.4925875,81.81866124960094L42.252525000000006,89.66308455169202L42.85179,91.56622738906972L42.860475,94.75646785360117L43.0776,95.49369122661078L43.3859175,95.62421224552851L43.6117275,93.01419256512935L43.70292,93.11273382947995L43.7333175,98.88288583434546L44.197964999999996,99.10702308324667L44.319555,100.43068566689125L44.441145,101.58478707762865L44.666955,101.96299015444059L44.936189999999996,98.30174699540322L45.361755,103.7338773058011L45.4963725,101.93513911045515L45.518085,101.06418406275603L45.8871975,106.97160808627422L45.8958825,103.85558296969303L46.247625,105.62719036294864L46.647135,102.60715015920309L46.7209575,107.29900367672627L46.812149999999995,105.829441388066L47.394045,111.453506019253L47.411415000000005,104.11937917195833L47.446155,109.07957351666231L47.932514999999995,107.43534749631698L47.993309999999994,109.50520604390364L48.158325,110.38213098393037L48.210435000000004,111.96027734646431L48.39282,111.5262808834131L48.7271925,110.85359524190426L49.070249999999994,110.14880304267773L49.078935,106.88894764849773L49.31343,112.13219198584557L49.43502,112.16992353132137L49.8909825,115.11650920601991L50.3512875,115.90390604963669L50.4120825,114.66847817026652L50.676975,116.97393189943753L51.2371575,116.95870537712022L51.8016825,119.98811886975399L51.992752499999995,118.8794941409276L52.361864999999995,120.77684968251448L52.448715,121.04116831376001L52.605045,120.70779268672833L52.635442499999996,120.99566627121888L52.7917725,122.68384733566872L52.882965,121.79057493347388L53.15219999999999,122.9672523771341L53.23905,121.28656537888142L53.721067500000004,123.42242750238914L53.764492499999996,123.60987806377503L54.064125,124.28681921901611L54.1205775,124.28029392888912L54.146632499999996,123.99508828268601L54.203085,123.6130684310427L54.4506075,126.9911449385377L54.550485,126.28750918404414L54.828405000000004,126.74620436475827L55.453725,126.47435616243344L55.68822,128.10657646048526L55.8141525,129.16539037571505L56.0486475,131.17958234021296L56.218005,128.2833121556502L56.231032500000005,129.60843551158905L56.283142500000004,131.22179003690297L56.41776,131.95516113019906L56.90412,130.41984887191882L57.390480000000004,132.47008336392733L57.503385,132.51752042254577L57.99843,130.08782496647194L58.03317,131.985926110584L58.2112125,126.71929166408685L58.6107225,132.69123566666474L58.8886425,133.46522941726906L59.0970825,133.70650030787175L59.19696,132.59250419758834L59.49225,135.22980177173247L59.535675,133.0210354448511L59.5487025,132.70575462740203L59.61384,133.28848104178905L59.7571425,134.87465657981542L60.5474775,134.46299268763798L60.838425,133.42412237192576L60.960015,134.53607695148543L61.00344,133.7529888789241L61.1554275,133.27997508645058L61.8415425,136.53123576308673L62.16723,135.07999652968005L62.662275,136.60489824930062L62.8403175,135.73840667250064L63.33102,136.04768970092903L63.4569525,136.93370642684974L63.47866500000001,133.87814358851085L63.5177475,137.4528740300582L63.9085725,136.7520533055067L63.921600000000005,133.8239631383465L64.04319000000001,133.81229978455946L64.086615,136.86307707199683L64.4904675,136.8877098520215L64.6381125,137.37169718914308L64.8986625,137.60960018806733L65.69334,136.80518382558455L65.806245,137.7045681396356L65.8192725,138.6356126643144L65.910465,135.30630972064458L65.94086250000001,136.5901307543883L66.1927275,138.32061081379652L66.2187825,136.15647412378055L66.4619625,136.58604262081477L67.352175,136.74765577224585L67.595355,138.7728872190301L67.73431500000001,138.02414758388812L68.11211250000001,137.098165040979L68.255415,139.6133055320153L68.5984725,139.42904026577105L68.62886999999999,137.23175469613992L68.68532250000001,138.8044992444607L68.9458725,137.8355253613912L69.0761475,138.90678120175232L69.176025,139.37313529275932L69.25419000000001,124.28075802842012L69.8838525,138.87393664969846L70.16177250000001,140.2423353848549L70.81748999999999,140.6903182354111L70.930395,138.18500245247895L71.764155,139.6271600442437L71.7945525,140.23521665598338L72.285255,139.8067310578548L72.2982825,138.8945345534728L72.389475,137.42235504778532L72.6456825,140.73890666663647L72.83241,140.02250944307218L73.2015225,139.13991893827915L73.33614,140.06956355617598L73.40562,139.8404480155844L73.47944249999999,140.92150320341955L73.6531425,140.73123253996556L73.85289750000001,138.4164663874186L73.85723999999999,141.5179446465694L73.952775,140.4841413847529L74.1047625,141.17212455834334L74.21766749999999,140.39150661115463L74.25675,140.38321622117206L74.48256,139.82688261453922L74.4955875,139.25369433313608L74.6432325,140.89180083343615L74.6606025,141.20777906821326L74.76048,141.64974891337064L74.786535,138.4178891187677L74.79522,140.7419448701235L74.994975,140.60474639729813L75.35106,141.2631971171269L75.43356750000001,141.46712447989444L75.47265,139.47072806954384L75.76794000000001,141.99783624192844L75.776625,138.3568384739069L76.037175,137.856924661077L76.7276325,141.05199378958116L76.957785,141.08101395861462L77.044635,142.7740186149111L77.1792525,142.70604324999908L77.218335,137.23094822810248L77.2921575,141.8218461492887L77.36598,139.3830234024387L77.722065,139.51354695741946L77.82194249999999,141.41040543065623L77.8827375,140.45689138770103L78.2040825,139.09096785004323L78.6991275,141.72571414479842L79.1160075,142.1608442280155L79.13772,140.89478324353695L79.29405,141.85657246009663L79.4286675,142.94156488575615L79.84989,141.96948052140382L79.962795,142.07052487994616L79.980165,141.75330651035677L80.049645,142.50220338140542L80.23203,139.1416992545128L80.50995,142.72103011436187L80.5229775,141.26183271522706L80.5924575,136.66350412941895L81.0093375,140.02509115521724L81.23948999999999,137.3354898175368L82.1644425,142.42736416195447L82.2860325,140.3376812098118L82.7463375,143.1355622938046L83.0589975,141.0770221954355L83.3282325,140.47291169774073L83.66694749999999,136.06795538044892L83.74077,140.1410171315074L83.85801749999999,139.8975753709674L83.94921,141.5916527819175L84.00132,139.87503230686372L84.0664575,142.2105814957848L84.31398,143.43174275268728L84.6309825,143.17182545879712L85.10865749999999,136.12375891094024L85.33881,142.7709119377228L85.35618,142.26516010784187L85.781745,135.91762010122721L85.96413000000001,139.69167241511437L86.1855975,140.43907808111265L86.28547499999999,142.90837162503828L86.5416825,141.72242740713634L86.55470999999999,143.25695094982018L86.96290499999999,142.57766140023102L87.11055,142.607964817148L87.2625375,143.19651149614498L87.431895,138.4995046985837L87.831405,143.12510483797925L87.92693999999999,143.00007819957457L88.28302500000001,139.95699025518618L88.8953175,142.90148621396378L89.1819225,143.00486501850762L89.21232,142.72597290117005L89.2514025,142.55680228196658L89.325225,143.61571763971676L89.40338999999999,142.37249390265117L89.65959749999999,141.62164679914713L89.8767225,143.25075788394764L90.08081999999999,142.26112776765456L90.35439749999999,141.36700324828809L90.680085,143.67244936927005L90.70614,143.9063377804481L90.836415,142.75664911934962L90.87549750000001,139.31191980380277L90.91892250000001,136.68851478283221L91.3184325,142.07669765731464L91.357515,140.6421685430866L91.374885,142.06308660713526L91.44870750000001,141.27075965702534L91.72662749999999,140.80689344383202L91.809135,144.2422773671838L92.39537250000001,142.74695501849055L92.66895000000001,144.5182263833972L92.86870499999999,141.9109481871128L93.059775,143.3692731805719L93.43323,143.63692293058222L93.685095,143.3895122314302L94.3321275,144.51336728666837L94.3408125,143.73876741700448L94.4797725,144.654939200156L94.61438999999999,144.5836314484477L94.87059749999999,140.94893072488216L95.491575,142.83733142797763L95.595795,142.84220447305302L95.6348775,140.04283852416734L95.873715,143.84360065368506L96.5294325,144.32232566005908L96.5902275,141.9765891060233L97.0331625,142.41910420472806L97.12435500000001,144.2442643725528L97.7019075,144.5673537280124L98.0145675,144.91233311135034L98.1101025,144.21442251910383L98.183925,141.9131799225624L98.38368,144.14913918507787L98.531325,144.0375004233076L98.8135875,144.0756935322514L99.1609875,144.84028356121138L99.4910175,144.07696409981983L99.6473475,143.50432233999555L100.12936499999999,144.62049058824778L100.1337075,143.26426241948053L100.2813525,140.0057054895621L100.3421475,145.18904548253005L100.52453249999999,140.52249172960336L101.24973,145.37206300577293L101.3843475,144.83671024842903L101.5319925,143.53561862558126L102.00098249999999,136.2962061235538L102.14428500000001,144.71223773979224L102.22245,145.65091074200777L102.231135,142.97841007720965L102.335355,142.80021614581347L102.3396975,143.4244680559406L102.352725,137.3029419848552L102.4352325,144.79490198166326L102.58722,142.86750296961802L102.72183749999999,145.2849898183575L102.891195,144.0346372081683L102.93462,144.54507314643035L103.32110250000001,144.17264468509416L103.3818975,144.07433420247756L103.50783,143.54944270505354L103.54257,144.52585739699694L103.66850249999999,142.1170578321012L104.09841,143.24733673494595L105.10152749999999,144.54715271809926L105.2231175,143.37327635603455L105.2622,143.2567645491889L105.38379,144.41605094075203L105.53577750000001,144.9481334448434L105.5878875,143.44217231181952L105.8658075,144.77619217680052L106.452045,144.56571669933888L106.68654,141.70771316954722L107.2640925,141.346694455697L107.26843500000001,142.4370924996642L107.876385,143.59185582284744L108.4018275,144.9105971762194L108.432225,144.0354271917962L108.9750375,142.81743094153128L109.46574000000001,145.07195038119187L109.5482475,142.96201442984434L109.6698375,143.9636046192967L109.7653725,144.68976314938985L109.856565,145.05541144626645L110.151855,144.79394969000265L110.3820075,140.53589482261583L110.6338725,140.63994441582605L110.82494249999999,142.00579187159354L111.7542375,144.88810356534444L111.8324025,144.83743429441864L111.9279375,144.94921253965452L111.9539925,145.4274861268126L112.427325,145.83883047505066L112.48812,141.0896644695447L112.5358875,143.62492608450927L112.774725,146.0364088040705L112.8224925,144.34565997582214L112.8485475,140.11331064311358L113.104755,143.86988567876128L113.2220025,145.4272515409841L113.32188000000001,143.2129274320144L113.62585499999999,144.41225065033024L113.72139,144.39303870499134L113.8646925,140.5672481696193L113.9689125,139.55296752086053L114.1426125,144.41030168590638L114.2207775,144.85737408984164L114.2468325,143.83133878902748L114.25985999999999,144.19825892150402L114.58989000000001,135.78929531287687L114.59423249999999,144.87820277535L114.79833,144.2836456270172L114.9329475,142.86151786091236L115.050195,144.6813104513746L115.0632225,142.92563841004784L115.084935,143.74824975660215L115.3932525,141.7345218916352L115.44102,145.6523410815459L115.6538025,143.2555789397313L115.901325,144.0333222594972L116.09673749999999,145.68527312777363L116.27478,143.8984835933034L116.3312325,145.3358454899146L116.335575,145.20987924016438L116.43110999999999,144.85239960224584L116.50059,142.06515603455213L116.9826075,145.02941806843648L117.0738,145.4207706319598L117.3734325,142.97502696915313L117.38646,144.71135518986443L117.3908025,144.35374748076384L117.5992425,144.79546498765166L117.7034625,145.63509838913495L118.2766725,141.60584205446335L118.62407250000001,144.1934809787915L118.680525,144.32155469690377L118.95844500000001,144.2843252919041L119.2407075,143.45794915981017L119.340585,144.40754878950807L119.705355,143.61189325669636L119.7183825,145.35530723746007L119.74009500000001,142.99347302346274L120.0310425,144.00033441988322L120.1092075,144.2167975421135L120.43489500000001,144.8137132290464L120.6042525,142.49537756781166L121.2903675,146.29452295715993L121.47275250000001,145.21928169377722L121.47709499999999,145.18435503399144L121.75935750000001,144.78379656173863L121.7854125,145.22726648816695L121.89831749999999,145.62865171696131L121.98951,139.8121227278159L122.01556500000001,144.45654172278367L122.70168,145.62190198525786L123.7395375,145.50162666090407L123.79598999999999,144.68840255158452L123.943635,145.0214763871179L124.047855,145.55267126915547L124.10865000000001,144.96232525345224L124.23024000000001,143.49096362808575L124.725285,142.05627727795104L124.8772725,145.50388248895223L125.03794500000001,145.08199192268344L125.43311250000001,144.07497836248234L125.9976375,145.41404245679195L126.32332500000001,145.4814877845347L126.71415,140.39121496390837L126.7271775,145.5030633405997L127.36552499999999,143.9103904091395L127.38289499999999,142.909708130245L127.56962250000001,145.0788586168335L127.61739,141.23874186151303L127.660815,144.56521329083122L127.80846,146.34065394332777L127.851885,144.16692332694163L127.96479000000001,145.2073203525864L128.1602025,139.9927614239546L128.26008,144.0933673553742L128.4815475,145.46523669276098L128.5857675,135.50321472493502L128.668275,143.80778890790847L128.87237249999998,136.0280732535399L129.363075,146.0186436826793L129.5758575,146.27779001341418L129.92759999999998,144.41301020120198L129.9753675,145.02706206589937L130.0622175,145.4029306967098L130.37922,139.36601402782478L130.6267425,144.42442502081394L131.09139,145.45450027000444L131.70368249999999,145.64495606605823L131.87304,145.35039107931348L131.9989725,141.70757115001862L132.37677,145.35786358897502L132.58521,144.64590067158525L132.593895,145.69509276375175L132.75891,142.09401896767892L132.8587875,145.03202767727467L133.167105,145.99553127242967L133.77939750000002,142.3645103762929L134.05731749999998,146.5807227400633L134.4828825,144.80848006302347L134.51762250000002,144.34897207411436L135.1776825,146.4483250345175L135.27321750000002,145.46730231608336L135.41652,142.55813625111028L135.737865,144.8766938178585L135.9072225,145.46414745369782L136.2806775,143.7633266512018L136.59768,145.53475652004664L136.7062425,143.48077372690807L136.762695,143.17532395772062L136.80177750000001,145.35698611117326L137.144835,143.3701608026257L137.40104250000002,144.20614607746785L137.8960875,145.136451339779L137.96122499999998,142.08402687941606L138.3042825,145.00877705159095L138.68207999999998,145.66962815505954L139.06856249999998,143.23829313424918L139.229235,144.00882389081212L139.3812225,145.6216788117129L139.7025675,145.7381234128888L140.24103749999998,144.56140412418887L140.33222999999998,144.925771709245L140.3713125,145.679175164264L140.44079250000001,146.44763776144157L140.71437,144.02205579957138L140.7187125,145.79727961868048L140.77950750000002,145.2085528792097L141.313635,146.1619781599595L141.3614025,145.0664788252459L141.79565250000002,145.74005842896608L142.0866,143.42560421216945L142.9551,137.74435896827623L143.5065975,141.66223395157317L143.51094,145.4645633680316L143.6368725,145.6084595832687L143.6455575,144.54910421858614L144.075465,144.29097484911864L144.72684,146.90171603944438L145.00476,145.7551505399438L145.030815,145.400996948664L145.05687,140.89975899916428L145.07424,144.46264729448237L145.0785825,144.289891950213L145.57797,145.04364284586447L145.81680749999998,143.13200926952638L146.3379075,145.14016540405842L146.5810875,143.46079335447686L147.0066525,146.3382865285071L147.0500775,144.99790748552635L147.08047499999998,145.85836323236043L147.15864000000002,145.49064677609846L147.40616250000002,146.2178476280891L147.5972325,143.15667501837015L147.9706875,137.12251378194645L148.365855,145.47656148213605L148.37454,145.65461085794064L148.5135,139.43250959996993L148.591665,145.87226339372305L149.82059249999998,145.77773671711867L149.93349750000002,145.90205959803782L150.12456749999998,145.71589482059846L150.363405,145.65866095056901L150.63263999999998,145.2548588537253L150.68909250000002,146.4608684021693L151.08860249999998,141.38402530321707L151.21453499999998,146.30549523377647L151.3838925,144.56226765364408L152.5997925,144.9062592404393L152.94285,136.81621062755585L153.055755,145.3507017470323L153.15129000000002,144.60628356326083L153.2337975,145.2029076029475L153.34236,146.3396192296193L153.41183999999998,145.46373914755307L153.46395,146.35310981680567L153.6506775,145.87610806524754L153.94596750000002,145.26274854575212L154.2152025,146.5695475784059L155.11844250000001,145.02812721236393L155.14884,144.57700725186328L155.18792249999998,145.3523983731866L155.4050475,142.78238001465797L155.41807500000002,145.62726575852588L155.50926750000002,145.539388639136L155.64388499999998,142.294575902705L155.72639249999997,145.58846272642796L156.3169725,144.2205458432436L156.668715,145.67886322851365L156.6730575,142.74852610952578L156.8207025,145.0497763142563L157.41562499999998,146.28545906795904L157.4373375,146.00270579468744L157.5502425,144.0332854865835L157.7499975,145.6969745225058L157.815135,146.25451402710036L158.17122,146.11904261318537L158.3579475,139.86252698015707L158.47085249999998,146.15227011075388L158.64889499999998,141.56150913697022L158.8356225,146.00162416381332L159.4088325,144.39136617143566L159.43922999999998,144.94149529991242L159.4566,146.17161393136934L159.89953500000001,140.07087216468958L160.07323499999998,144.08015193102452L160.48143000000002,145.80432226566168L160.542225,144.65716205938503L160.62039,146.029654000241L160.802775,144.22812867164612L161.983935,145.61870274176965L162.2140875,145.892308435761L162.730845,143.948981679976L163.52118000000002,142.48595228963174L163.6818525,146.0971082042043L164.0900475,146.11287237187992L164.780505,143.36924528387877L164.89341,146.31817428079935L165.06710999999999,142.26856604046546L165.266865,146.0649737497935L165.5491275,146.31341662659094L165.579525,144.36990473820612L165.614265,140.64594474090978L165.82270499999998,145.08493502380756L165.8617875,146.30264723501526L166.117995,145.66741797614554L166.1744475,144.01148041681603L166.80411,142.23774526669428L166.85622,146.13506672731958L166.99952249999998,145.42921064966L167.1819075,144.97953117294952L167.46417,145.47923576058105L167.785515,140.40346922037693L167.9896125,144.22905433464507L168.271875,145.34183440271477L168.3978075,146.0622525541828L168.45426,145.68638265534088L168.7538925,146.02368664397642L168.76692,143.6225776901612L168.9536475,145.71293523506478L169.16643,145.06749959060778L169.40961,145.74072034141193L169.98282,141.13594001130417L170.01756,145.53055679970063L170.0479575,141.16609126444047L170.45181000000002,144.16979288223843L170.50392,143.30572704970837L170.59077,140.41489418424092L171.085815,142.31935197028974L171.103185,145.1540313285704L171.2204325,141.13671351052247L171.2291175,147.22255971110783L171.6199425,144.02929879553042L171.92391750000002,145.89858392368143L172.041165,142.884058388953L172.0715625,146.538218324001L172.08459,145.72203336111627L172.1931525,145.80081489051764L172.78373249999999,145.9275609796437L173.1832425,145.66527500290135L173.21364,145.36964740575507L173.604465,145.76556107860344L173.6435475,144.75045620936612L173.6956575,145.37319028578125L173.778165,145.7635005274071L173.8519875,146.5869690632591L174.0864825,146.4625688324181L174.1385925,144.9955388026742L174.24715500000002,145.73363711742255L174.4078275,145.31005626515702L174.6596925,142.0318042698961L174.8594475,145.16892943072776L174.941955,146.42072252470712L174.9723525,141.08466588935028L175.1721075,145.11373709142208L175.3979175,144.40306883419936L175.410945,145.4396110440676L175.5629325,145.32199985390673L176.1274575,141.4062285348773L176.35326750000002,145.92739106342196L176.35761000000002,145.7242993334165L176.4488025,145.91948488698557L176.68764000000002,146.03506342264322L177.0654375,142.59627610273085L177.06978,145.49409455376176L177.23479500000002,146.34565759564822L177.3867825,146.31263932327812L177.425865,146.52162232765784L177.5952225,146.5761755790848L177.808005,141.09112270577594L178.04684250000003,144.58938070329336L178.1858025,146.09065138777862L178.59833999999998,143.24703621147916L179.2584,145.41970421746373L179.4711825,146.5775044761025L179.6275125,144.92692308185192L179.8967475,146.26912935823202L180.23112,146.68828224448058L180.2441475,143.71637778471296L180.57417750000002,146.19242359640506L180.66537,144.7506337337769L180.70011000000002,143.74834105487054L180.7565625,145.73561778263405L180.7652475,144.8671100357404L180.7913025,135.06309113364952L181.21686749999998,146.26221097833835L181.2255525,144.51536443628945L181.60335,143.0276946577315L181.6163775,140.6598626547135L181.733625,144.38030766867675L182.47619250000002,146.27302601904825L182.50659000000002,146.71307226041188L182.793195,145.6518249927232L182.81490749999998,146.73554938687727L183.2665275,141.0004964940823L183.34035,146.07036795581763L183.6312975,137.7286049448527L183.7181475,145.13401798732005L184.182795,143.57961171063093L184.408605,147.49801926716015L184.4737425,145.55117499197905L184.53888,145.7084895166067L184.60836,142.9337880485333L184.6648125,144.7237717543657L184.8168,141.68053164619664L184.8993075,143.68409750667902L184.92970499999998,145.9905935577475L185.9415075,146.68152110049357L186.2020575,144.59572339688356L186.3323325,143.4660214483738L186.41484,145.9606337773685L186.8013225,146.23207620961162L186.97068,146.6482073767827L186.98805000000002,145.68531750887632L187.02713250000002,145.66690188732284L187.0531875,145.7074649471503L187.16174999999998,139.53505277175168L187.40927250000001,146.097503830034L188.04327750000002,144.51807548764805L188.5470075,141.91986752072205L188.69030999999998,143.85812722261136L189.1636425,145.04659735927214L189.1896975,144.42672142587028L189.22877999999997,146.48795355512544L189.7889625,145.51512485627944L189.9366075,144.23152192395466L191.0482875,145.84250396232193L191.13079499999998,144.81579280071534L191.3175225,145.7527463522095L191.617155,146.83463336871222L192.5507925,144.35505228518292L192.989385,145.87113738174622L193.22822250000002,145.1262855311999L193.29336,145.55676447485502L193.5929925,144.98836935254243L193.74063750000002,146.52124699033223L194.0619825,146.14347504423216L194.1314625,146.6974577204539L194.17923,146.9045412136385L194.326875,143.44954084289762L194.674275,141.1288618594408L194.9391675,145.47734005348042L194.94351,145.77008795107787L195.19537499999998,146.45480213944728L195.282225,139.9542183383153L195.4689525,142.7111901898797L195.490665,144.41713510768918L195.803325,146.38632843815364L196.4156175,146.4338212901583L196.51549500000002,146.76055243210152L196.5198375,145.6828347031887L197.1104175,146.14471264298146L197.5272975,146.5693954146252L197.78350500000002,146.48193801366367L197.8312725,146.69569515666137L199.0645425,147.15447022336033L199.242585,147.091897940693L199.54656,147.08355809748173L199.66815,146.9280238890877L199.8896175,146.39526552420395L200.31084,146.09570195726477L200.4454575,145.69584597446598L200.46716999999998,143.97009694060455L200.5409925,145.68666162227208L200.76246,139.2795139906498L200.927475,140.654153976876L201.813345,145.85877153850518L202.126005,139.83189894717472L202.5819675,145.07894357494436L202.959765,144.63292236912707L203.011875,145.8420106980663L203.150835,146.75354909409697L203.272425,144.57240556553006L203.6502225,144.70156471861097L203.6936475,146.43690767884254L203.7197025,145.89275478285091L203.7370725,144.78606380207034L203.87168999999997,145.64887428341004L203.880375,142.96667064153232L203.94117,145.1554806885811L203.96722499999998,143.69227123776307L204.28422750000001,145.06391613357343L205.356825,146.42856656759977L205.738965,146.59138434896101L205.85187000000002,141.67089714281835L206.242695,141.21195850005518L206.35994250000002,146.1736136170534L206.6639175,144.7971096245142L206.9592075,145.27725229011133L207.02868750000002,146.0532216338011L207.3152925,141.94115776969835L207.5237325,137.99348150996062L207.5932125,146.25901173485013L207.719145,144.6251138311166L207.8277075,146.0340274409033L207.910215,146.64329121863614L208.535535,145.692115425777L208.570275,147.0768121698728L208.848195,145.9319192039279L208.9654425,144.65025128768042L209.55168,146.4709695411416L209.5820775,146.56102260259482L209.66024249999998,144.19873570135007L210.10752000000002,146.17787673897467L210.21174,146.83465365721628L210.255165,146.2090373451893L210.31596000000002,146.95324503573087L210.585195,141.69768557640222L210.9977325,146.5013008547517L211.2843375,146.48237675256453L211.34079000000003,145.87708444950673L211.47975,147.18383022483724L211.55791499999998,143.2546228439762L211.60134,143.9884884695594L211.6925325,145.9486648279887L212.165865,141.77766793163923L212.46984,146.7462769334133L212.895405,146.55077310393636L213.4034775,147.10897452097672L213.56849250000002,142.76945877361754L213.711795,145.72886044274156L213.7856175,144.98477575125602L213.95497500000002,146.64595788889207L215.00586,145.69075990009765L215.07534,143.27097918236484L215.70066,144.85266081673595L215.92647,146.01308590059097L216.11754,146.4957088358127L216.2695275,142.85198480005448L216.39980250000002,145.02020455151796L216.5040225,145.78249183526407L216.60824250000002,145.59943880713902L216.64298250000002,143.52985415435754L216.69075,146.85189381356423L216.69509250000002,142.83248501156385L216.95564249999998,146.19147003671299L217.07289,145.0137984563525L217.09026,144.7901126266672L217.15539750000002,144.93711298302964L217.2683025,146.2401193334506L217.31607,145.43494595615908L217.36383750000002,145.496370670314L217.50714,146.28709990072707L217.87625250000002,143.37121834090124L218.106405,146.82510791604335L218.123775,145.92140468668478L218.1802275,146.78441805306534L218.5276275,146.44113275981866L218.5449975,146.9012075588107L218.662245,144.93759356697018L218.7013275,146.2293233132133L219.079125,146.32589532463595L219.1095225,145.18368044123054L219.3005925,146.91392084268423L219.530745,146.92136418762115L219.68273250000001,145.9215720668435L219.70010249999999,141.9798276584882L219.964995,146.7956008229118L220.3862175,142.82885463736378L220.5512325,146.70909571361082L220.75098749999998,145.85659559644185L220.75533,144.39482155728797L220.7683575,145.54331573270835L221.0115375,140.59691503472052L221.3763075,144.87362518161535L221.4805275,146.48961087230305L221.69331,147.53434076160192L221.754105,145.91377620914807L222.396795,146.5466088884725L222.52706999999998,142.56390833052305L222.7832775,146.4680505326161L223.00474499999999,146.80149463334908L223.8993,144.1798521761711L223.9383825,147.15041505860594L224.02523250000002,145.3011724364299L224.15985,147.10502333480576L224.168535,144.3018545594353L224.7547725,146.02648392147742L224.9111025,145.15968294499012L225.1021725,146.50125774168052L225.35837999999998,142.40789734228298L225.41049,144.48309683857056L225.90119249999998,144.94530700261777L226.061865,146.41815856500313L226.1964825,146.87715553721557L226.34847,147.74705431467066L226.999845,146.94628988292354L227.0389275,146.57367502095607L227.15617500000002,145.2516913110247L227.28645,146.80920553293365L227.43409499999999,146.6787973688199L227.6295075,147.03252743757687L227.66424750000002,147.07544649994145L227.7858375,146.02888937724325L228.27653999999998,145.39909236534282L228.34601999999998,143.30395180560075L228.4458975,146.76430834142062L228.615255,139.97533359894385L228.6890775,142.73120353113L229.06253249999997,144.5766788317034L229.101615,146.7981901432459L229.24926,146.142275486428L229.7486475,145.46008975288044L229.918005,147.68598464933726L230.14381500000002,146.27824396869312L231.394455,145.1616382495715L231.4856475,143.09865623683885L232.09794000000002,141.81201383299552L232.28466749999998,145.51132963798366L232.51482000000001,143.97688344522163L232.5452175,140.66748098799815L232.6320675,143.33478779575L232.7449725,143.94971967431215L233.1357975,146.704239152945L233.36160750000002,145.32328436982172L233.6221575,145.86848719589986L233.652555,145.21248884900257L233.7784875,146.19429140681257L234.00863999999999,144.54376961004274L234.02601,146.57152951164886L234.08246250000002,146.6047443289023L234.1432575,142.5102173405198L234.2474775,144.8530703909122L234.2995875,147.22480666293546L234.4385475,145.58109292731837L234.468945,142.83896338452513L234.52974,144.8501551864812L235.0204425,147.10047363776425L235.06821,139.75955014160047L235.094265,146.19286740743198L235.27230749999998,146.76344861605992L235.2896775,146.92429841252473L235.3504725,146.6572814102356L235.45035,146.28638599898952L235.910655,141.6108406346578L236.0973825,140.09465536360557L236.2884525,144.545222774148L236.3666175,147.15589675880395L236.43609750000002,141.6768112417597L236.5663725,145.31875876537882L236.866005,146.5781334197292L237.4088175,144.6974245957457L237.595545,144.5455752869065L237.60423,145.65370801950877L237.7649025,144.85642560227558L237.76924499999998,146.80214640154287L237.81267,143.61416810521712L237.84741,146.55063869259678L237.9559725,146.77687960576552L238.3164,147.1434586377671L238.33811250000002,146.13843969112406L238.40324999999999,145.04363396964393L239.24569499999998,144.8730837321625L239.84496000000001,146.475722123224L240.76557,138.04239455725138L241.104285,147.03489104830302L241.33878,144.60193548322871L241.4473425,147.22419293568686L241.9944975,143.4090107518893L242.34624000000002,144.29175088439996L242.5590225,145.08639579610184L242.6111325,145.08586322286953L242.69364,145.67278428547658L242.94984749999998,142.77397296577692L243.4535775,144.3561897094433L243.79663499999998,146.00228988035366L243.97902,139.75538085401058L244.29168,147.65462115808174L244.317735,136.8160584637752" style="fill: none;" fill="none"></path></g></g></g></g></g></g><g transform="translate(58, 177)" clip-path="url(#clip_1)"><clipPath id="clip_1"><rect width="271" height="23"></rect></clipPath><g><g><line x1="0" y1="0" x2="0" y2="5" style="visibility: inherit;" fill="rgb(0, 0, 0)" stroke="rgb(204, 204, 204)" stroke-width="1px"></line><line x1="27.140625" y1="0" x2="27.140625" y2="5" style="visibility: inherit;" fill="rgb(0, 0, 0)" stroke="rgb(204, 204, 204)" stroke-width="1px"></line><line x1="54.28125" y1="0" x2="54.28125" y2="5" style="visibility: inherit;" fill="rgb(0, 0, 0)" stroke="rgb(204, 204, 204)" stroke-width="1px"></line><line x1="81.421875" y1="0" x2="81.421875" y2="5" style="visibility: inherit;" fill="rgb(0, 0, 0)" stroke="rgb(204, 204, 204)" stroke-width="1px"></line><line x1="108.5625" y1="0" x2="108.5625" y2="5" style="visibility: inherit;" fill="rgb(0, 0, 0)" stroke="rgb(204, 204, 204)" stroke-width="1px"></line><line x1="135.703125" y1="0" x2="135.703125" y2="5" style="visibility: inherit;" fill="rgb(0, 0, 0)" stroke="rgb(204, 204, 204)" stroke-width="1px"></line><line x1="162.84375" y1="0" x2="162.84375" y2="5" style="visibility: inherit;" fill="rgb(0, 0, 0)" stroke="rgb(204, 204, 204)" stroke-width="1px"></line><line x1="189.984375" y1="0" x2="189.984375" y2="5" style="visibility: inherit;" fill="rgb(0, 0, 0)" stroke="rgb(204, 204, 204)" stroke-width="1px"></line><line x1="217.125" y1="0" x2="217.125" y2="5" style="visibility: inherit;" fill="rgb(0, 0, 0)" stroke="rgb(204, 204, 204)" stroke-width="1px"></line><line x1="244.265625" y1="0" x2="244.265625" y2="5" style="visibility: inherit;" fill="rgb(0, 0, 0)" stroke="rgb(204, 204, 204)" stroke-width="1px"></line><line x1="271.40625" y1="0" x2="271.40625" y2="5" style="visibility: inherit;" fill="rgb(0, 0, 0)" stroke="rgb(204, 204, 204)" stroke-width="1px"></line></g><g transform="translate(0, 8)"><text x="0" y="0" dx="0em" dy="0.95em" style="text-anchor: middle; visibility: hidden; font-family: &quot;Helvetica Neue&quot;, sans-serif; font-size: 12px; font-weight: 200;" fill="rgb(50, 49, 63)" stroke="none" stroke-width="1px">-50k</text><text x="27.140625" y="0" dx="0em" dy="0.95em" style="text-anchor: middle; visibility: inherit; font-family: &quot;Helvetica Neue&quot;, sans-serif; font-size: 12px; font-weight: 200;" fill="rgb(50, 49, 63)" stroke="none" stroke-width="1px">0</text><text x="54.28125" y="0" dx="0em" dy="0.95em" style="text-anchor: middle; visibility: hidden; font-family: &quot;Helvetica Neue&quot;, sans-serif; font-size: 12px; font-weight: 200;" fill="rgb(50, 49, 63)" stroke="none" stroke-width="1px">50k</text><text x="81.421875" y="0" dx="0em" dy="0.95em" style="text-anchor: middle; visibility: inherit; font-family: &quot;Helvetica Neue&quot;, sans-serif; font-size: 12px; font-weight: 200;" fill="rgb(50, 49, 63)" stroke="none" stroke-width="1px">100k</text><text x="108.5625" y="0" dx="0em" dy="0.95em" style="text-anchor: middle; visibility: hidden; font-family: &quot;Helvetica Neue&quot;, sans-serif; font-size: 12px; font-weight: 200;" fill="rgb(50, 49, 63)" stroke="none" stroke-width="1px">150k</text><text x="135.703125" y="0" dx="0em" dy="0.95em" style="text-anchor: middle; visibility: inherit; font-family: &quot;Helvetica Neue&quot;, sans-serif; font-size: 12px; font-weight: 200;" fill="rgb(50, 49, 63)" stroke="none" stroke-width="1px">200k</text><text x="162.84375" y="0" dx="0em" dy="0.95em" style="text-anchor: middle; visibility: hidden; font-family: &quot;Helvetica Neue&quot;, sans-serif; font-size: 12px; font-weight: 200;" fill="rgb(50, 49, 63)" stroke="none" stroke-width="1px">250k</text><text x="189.984375" y="0" dx="0em" dy="0.95em" style="text-anchor: middle; visibility: inherit; font-family: &quot;Helvetica Neue&quot;, sans-serif; font-size: 12px; font-weight: 200;" fill="rgb(50, 49, 63)" stroke="none" stroke-width="1px">300k</text><text x="217.125" y="0" dx="0em" dy="0.95em" style="text-anchor: middle; visibility: hidden; font-family: &quot;Helvetica Neue&quot;, sans-serif; font-size: 12px; font-weight: 200;" fill="rgb(50, 49, 63)" stroke="none" stroke-width="1px">350k</text><text x="244.265625" y="0" dx="0em" dy="0.95em" style="text-anchor: middle; visibility: inherit; font-family: &quot;Helvetica Neue&quot;, sans-serif; font-size: 12px; font-weight: 200;" fill="rgb(50, 49, 63)" stroke="none" stroke-width="1px">400k</text><text x="271.40625" y="0" dx="0em" dy="0.95em" style="text-anchor: middle; visibility: hidden; font-family: &quot;Helvetica Neue&quot;, sans-serif; font-size: 12px; font-weight: 200;" fill="rgb(50, 49, 63)" stroke="none" stroke-width="1px">450k</text></g><line x1="0" y1="0" x2="271.40625" y2="0" fill="rgb(0, 0, 0)" stroke="rgb(204, 204, 204)" stroke-width="1px"></line></g></g></g></g></svg>