<svg viewBox="0 0 330 200" xmlns="http://www.w3.org/2000/svg"><g><g><g><g><g><line x1="58.59375" y1="177" x2="53.59375" y2="177" style="visibility: inherit;" fill="rgb(0, 0, 0)" stroke="rgb(204, 204, 204)" stroke-width="1px"></line><line x1="58.59375" y1="162.25" x2="53.59375" y2="162.25" style="visibility: inherit;" fill="rgb(0, 0, 0)" stroke="rgb(204, 204, 204)" stroke-width="1px"></line><line x1="58.59375" y1="147.5" x2="53.59375" y2="147.5" style="visibility: inherit;" fill="rgb(0, 0, 0)" stroke="rgb(204, 204, 204)" stroke-width="1px"></line><line x1="58.59375" y1="132.75" x2="53.59375" y2="132.75" style="visibility: inherit;" fill="rgb(0, 0, 0)" stroke="rgb(204, 204, 204)" stroke-width="1px"></line><line x1="58.59375" y1="118" x2="53.59375" y2="118" style="visibility: inherit;" fill="rgb(0, 0, 0)" stroke="rgb(204, 204, 204)" stroke-width="1px"></line><line x1="58.59375" y1="103.25" x2="53.59375" y2="103.25" style="visibility: inherit;" fill="rgb(0, 0, 0)" stroke="rgb(204, 204, 204)" stroke-width="1px"></line><line x1="58.59375" y1="88.49999999999999" x2="53.59375" y2="88.49999999999999" style="visibility: inherit;" fill="rgb(0, 0, 0)" stroke="rgb(204, 204, 204)" stroke-width="1px"></line><line x1="58.59375" y1="73.75000000000001" x2="53.59375" y2="73.75000000000001" style="visibility: inherit;" fill="rgb(0, 0, 0)" stroke="rgb(204, 204, 204)" stroke-width="1px"></line><line x1="58.59375" y1="58.999999999999986" x2="53.59375" y2="58.999999999999986" style="visibility: inherit;" fill="rgb(0, 0, 0)" stroke="rgb(204, 204, 204)" stroke-width="1px"></line><line x1="58.59375" y1="44.25" x2="53.59375" y2="44.25" style="visibility: inherit;" fill="rgb(0, 0, 0)" stroke="rgb(204, 204, 204)" stroke-width="1px"></line><line x1="58.59375" y1="29.5" x2="53.59375" y2="29.5" style="visibility: inherit;" fill="rgb(0, 0, 0)" stroke="rgb(204, 204, 204)" stroke-width="1px"></line><line x1="58.59375" y1="14.75" x2="53.59375" y2="14.75" style="visibility: inherit;" fill="rgb(0, 0, 0)" stroke="rgb(204, 204, 204)" stroke-width="1px"></line><line x1="58.59375" y1="0" x2="53.59375" y2="0" style="visibility: inherit;" fill="rgb(0, 0, 0)" stroke="rgb(204, 204, 204)" stroke-width="1px"></line></g><g transform="translate(48.59375, 0)"><text x="0" y="177" dx="0em" dy="0.3em" style="text-anchor: end; visibility: hidden; font-family: &quot;Helvetica Neue&quot;, sans-serif; font-size: 12px; font-weight: 200;" fill="rgb(50, 49, 63)" stroke="none" stroke-width="1px">-0.01</text><text x="0" y="162.25" dx="0em" dy="0.3em" style="text-anchor: end; visibility: inherit; font-family: &quot;Helvetica Neue&quot;, sans-serif; font-size: 12px; font-weight: 200;" fill="rgb(50, 49, 63)" stroke="none" stroke-width="1px">0</text><text x="0" y="147.5" dx="0em" dy="0.3em" style="text-anchor: end; visibility: hidden; font-family: &quot;Helvetica Neue&quot;, sans-serif; font-size: 12px; font-weight: 200;" fill="rgb(50, 49, 63)" stroke="none" stroke-width="1px">0.01</text><text x="0" y="132.75" dx="0em" dy="0.3em" style="text-anchor: end; visibility: inherit; font-family: &quot;Helvetica Neue&quot;, sans-serif; font-size: 12px; font-weight: 200;" fill="rgb(50, 49, 63)" stroke="none" stroke-width="1px">0.02</text><text x="0" y="118" dx="0em" dy="0.3em" style="text-anchor: end; visibility: hidden; font-family: &quot;Helvetica Neue&quot;, sans-serif; font-size: 12px; font-weight: 200;" fill="rgb(50, 49, 63)" stroke="none" stroke-width="1px">0.03</text><text x="0" y="103.25" dx="0em" dy="0.3em" style="text-anchor: end; visibility: inherit; font-family: &quot;Helvetica Neue&quot;, sans-serif; font-size: 12px; font-weight: 200;" fill="rgb(50, 49, 63)" stroke="none" stroke-width="1px">0.04</text><text x="0" y="88.49999999999999" dx="0em" dy="0.3em" style="text-anchor: end; visibility: hidden; font-family: &quot;Helvetica Neue&quot;, sans-serif; font-size: 12px; font-weight: 200;" fill="rgb(50, 49, 63)" stroke="none" stroke-width="1px">0.05</text><text x="0" y="73.75000000000001" dx="0em" dy="0.3em" style="text-anchor: end; visibility: inherit; font-family: &quot;Helvetica Neue&quot;, sans-serif; font-size: 12px; font-weight: 200;" fill="rgb(50, 49, 63)" stroke="none" stroke-width="1px">0.06</text><text x="0" y="58.999999999999986" dx="0em" dy="0.3em" style="text-anchor: end; visibility: hidden; font-family: &quot;Helvetica Neue&quot;, sans-serif; font-size: 12px; font-weight: 200;" fill="rgb(50, 49, 63)" stroke="none" stroke-width="1px">0.07</text><text x="0" y="44.25" dx="0em" dy="0.3em" style="text-anchor: end; visibility: inherit; font-family: &quot;Helvetica Neue&quot;, sans-serif; font-size: 12px; font-weight: 200;" fill="rgb(50, 49, 63)" stroke="none" stroke-width="1px">0.08</text><text x="0" y="29.5" dx="0em" dy="0.3em" style="text-anchor: end; visibility: hidden; font-family: &quot;Helvetica Neue&quot;, sans-serif; font-size: 12px; font-weight: 200;" fill="rgb(50, 49, 63)" stroke="none" stroke-width="1px">0.09</text><text x="0" y="14.75" dx="0em" dy="0.3em" style="text-anchor: end; visibility: inherit; font-family: &quot;Helvetica Neue&quot;, sans-serif; font-size: 12px; font-weight: 200;" fill="rgb(50, 49, 63)" stroke="none" stroke-width="1px">0.1</text><text x="0" y="0" dx="0em" dy="0.3em" style="text-anchor: end; visibility: hidden; font-family: &quot;Helvetica Neue&quot;, sans-serif; font-size: 12px; font-weight: 200;" fill="rgb(50, 49, 63)" stroke="none" stroke-width="1px">0.11</text></g><line x1="58.59375" y1="0" x2="58.59375" y2="177" fill="rgb(0, 0, 0)" stroke="rgb(204, 204, 204)" stroke-width="1px"></line></g></g><g transform="translate(58, 0)" clip-path="url(#clip_0)"><clipPath id="clip_0"><rect width="271" height="177"></rect></clipPath><g><g><g><line x1="0" y1="0" x2="0" y2="177" fill="rgb(0, 0, 0)" stroke="rgb(60, 60, 60)" stroke-width="1px" opacity="0.25"></line><line x1="27.140625" y1="0" x2="27.140625" y2="177" fill="rgb(0, 0, 0)" stroke="rgb(60, 60, 60)" stroke-width="1px" opacity="0.25"></line><line x1="54.28125" y1="0" x2="54.28125" y2="177" fill="rgb(0, 0, 0)" stroke="rgb(60, 60, 60)" stroke-width="1px" opacity="0.25"></line><line x1="81.421875" y1="0" x2="81.421875" y2="177" fill="rgb(0, 0, 0)" stroke="rgb(60, 60, 60)" stroke-width="1px" opacity="0.25"></line><line x1="108.5625" y1="0" x2="108.5625" y2="177" fill="rgb(0, 0, 0)" stroke="rgb(60, 60, 60)" stroke-width="1px" opacity="0.25"></line><line x1="135.703125" y1="0" x2="135.703125" y2="177" fill="rgb(0, 0, 0)" stroke="rgb(60, 60, 60)" stroke-width="1px" opacity="0.25"></line><line x1="162.84375" y1="0" x2="162.84375" y2="177" fill="rgb(0, 0, 0)" stroke="rgb(60, 60, 60)" stroke-width="1px" opacity="0.25"></line><line x1="189.984375" y1="0" x2="189.984375" y2="177" fill="rgb(0, 0, 0)" stroke="rgb(60, 60, 60)" stroke-width="1px" opacity="0.25"></line><line x1="217.125" y1="0" x2="217.125" y2="177" fill="rgb(0, 0, 0)" stroke="rgb(60, 60, 60)" stroke-width="1px" opacity="0.25"></line><line x1="244.265625" y1="0" x2="244.265625" y2="177" fill="rgb(0, 0, 0)" stroke="rgb(60, 60, 60)" stroke-width="1px" opacity="0.25"></line><line x1="271.40625" y1="0" x2="271.40625" y2="177" fill="rgb(0, 0, 0)" stroke="rgb(60, 60, 60)" stroke-width="1px" opacity="0.25"></line></g><g><line x1="0" y1="177" x2="271.40625" y2="177" fill="rgb(0, 0, 0)" stroke="rgb(60, 60, 60)" stroke-width="1px" opacity="0.25"></line><line x1="0" y1="162.25" x2="271.40625" y2="162.25" fill="rgb(0, 0, 0)" stroke="rgb(60, 60, 60)" stroke-width="1px" opacity="0.25"></line><line x1="0" y1="147.5" x2="271.40625" y2="147.5" fill="rgb(0, 0, 0)" stroke="rgb(60, 60, 60)" stroke-width="1px" opacity="0.25"></line><line x1="0" y1="132.75" x2="271.40625" y2="132.75" fill="rgb(0, 0, 0)" stroke="rgb(60, 60, 60)" stroke-width="1px" opacity="0.25"></line><line x1="0" y1="118" x2="271.40625" y2="118" fill="rgb(0, 0, 0)" stroke="rgb(60, 60, 60)" stroke-width="1px" opacity="0.25"></line><line x1="0" y1="103.25" x2="271.40625" y2="103.25" fill="rgb(0, 0, 0)" stroke="rgb(60, 60, 60)" stroke-width="1px" opacity="0.25"></line><line x1="0" y1="88.49999999999999" x2="271.40625" y2="88.49999999999999" fill="rgb(0, 0, 0)" stroke="rgb(60, 60, 60)" stroke-width="1px" opacity="0.25"></line><line x1="0" y1="73.75000000000001" x2="271.40625" y2="73.75000000000001" fill="rgb(0, 0, 0)" stroke="rgb(60, 60, 60)" stroke-width="1px" opacity="0.25"></line><line x1="0" y1="58.999999999999986" x2="271.40625" y2="58.999999999999986" fill="rgb(0, 0, 0)" stroke="rgb(60, 60, 60)" stroke-width="1px" opacity="0.25"></line><line x1="0" y1="44.25" x2="271.40625" y2="44.25" fill="rgb(0, 0, 0)" stroke="rgb(60, 60, 60)" stroke-width="1px" opacity="0.25"></line><line x1="0" y1="29.5" x2="271.40625" y2="29.5" fill="rgb(0, 0, 0)" stroke="rgb(60, 60, 60)" stroke-width="1px" opacity="0.25"></line><line x1="0" y1="14.75" x2="271.40625" y2="14.75" fill="rgb(0, 0, 0)" stroke="rgb(60, 60, 60)" stroke-width="1px" opacity="0.25"></line><line x1="0" y1="0" x2="271.40625" y2="0" fill="rgb(0, 0, 0)" stroke="rgb(60, 60, 60)" stroke-width="1px" opacity="0.25"></line></g></g></g><g><g><line x1="0" y1="162.25" x2="271.40625" y2="162.25" fill="rgb(0, 0, 0)" stroke="rgb(153, 153, 153)" stroke-width="1.5px"></line></g></g><g><g><line x1="27.140625" y1="0" x2="27.140625" y2="177" fill="rgb(0, 0, 0)" stroke="rgb(153, 153, 153)" stroke-width="1.5px"></line></g></g><g><g><g><g><g><path stroke="rgb(255, 112, 67)" stroke-width="2px" d="M33.949665,-0.5820489255911809L34.019145,4.358573308325191L34.4837925,12.856028835896382L34.670519999999996,18.41694478803487L34.683547499999996,23.11882107652906L35.148195,26.616972540138022L35.24373,28.404492702713725L35.291497500000006,31.03181431096226L35.4651975,35.68649273161731L35.53902,37.90839852420359L35.5954725,39.59923610406335L35.981955,39.361446629864815L36.242504999999994,44.19566675776923L36.6376725,49.60387755188496L36.6897825,51.66866976173689L36.828742500000004,53.00111059637081L36.8547975,53.06465830380451L36.96336,55.41708813592652L37.158772500000005,59.52073584785994L37.514857500000005,60.11004938060606L37.718954999999994,61.06559538766483L37.7927775,64.05728258445707L37.8014625,66.05333436581402L37.823175000000006,66.9435553732688L37.9317375,67.15368361074772L37.936080000000004,65.33692562460331L37.98819,68.92831127571718L38.0099025,69.3000174893597L38.135835,71.40178695968741L38.2009725,71.39480851383182L38.8002375,73.71810358787282L39.039075,75.72417753055514L40.0248225,80.14525554993642L40.33314,84.72446607899006L40.3461675,86.89712388873896L40.598032499999995,88.85769482738256L40.8672675,89.672268340209L41.166900000000005,90.73193568689754L41.227695000000004,91.98237598808487L41.23638,93.1728816024773L41.240722500000004,93.12201384558158L41.4925875,92.19114551159068L42.252525000000006,94.88409737177088L42.85179,97.64077645347949L42.860475,100.48189656917117L43.0776,102.53135435124553L43.3859175,103.91778916174361L43.6117275,103.50679150405041L43.70292,103.17866981138296L43.7333175,105.80864884918634L44.197964999999996,107.435544416104L44.319555,108.7122211157049L44.441145,109.77553774856122L44.666955,110.93956721688862L44.936189999999996,110.16037297615739L45.361755,112.0520765564998L45.4963725,112.43157425565482L45.518085,112.09600060011721L45.8871975,114.40186696693763L45.8958825,114.47089579072872L46.247625,115.17283788169789L46.647135,114.43956147042135L46.7209575,116.05317940954697L46.812149999999995,116.37474920761187L47.394045,119.15288389346956L47.411415000000005,117.41214822007393L47.446155,118.38128733574257L47.932514999999995,118.43167499863449L47.993309999999994,119.4053982729515L48.158325,120.3283934479833L48.210435000000004,121.51581828808071L48.39282,122.13526155957749L48.7271925,122.26095155870419L49.070249999999994,122.08763230216803L49.078935,120.52232091797768L49.31343,121.66044113664853L49.43502,122.35258300083296L49.8909825,124.09106068597684L50.3512875,125.47984624601276L50.4120825,125.84719453720373L50.676975,126.90418729763104L51.2371575,127.37363226983472L51.8016825,129.37982125519827L51.992752499999995,129.86355278232165L52.361864999999995,131.094678937426L52.448715,131.81526354046514L52.605045,131.86472542638688L52.635442499999996,132.01919723111456L52.7917725,133.30097660456934L52.882965,133.4469884949019L53.15219999999999,134.1167315634841L53.23905,134.05614575774993L53.721067500000004,134.60917565617876L53.764492499999996,135.14282211225577L54.064125,135.85838635153382L54.1205775,136.21955746568327L54.146632499999996,136.27832850087933L54.203085,135.91914557602556L54.4506075,137.52313824369938L54.550485,137.94276982321995L54.828405000000004,138.33420908465777L55.453725,138.46582199269412L55.68822,139.42452750956343L55.8141525,140.57336266587868L56.0486475,141.60680932775554L56.218005,141.47813950725148L56.231032500000005,141.65022639556378L56.283142500000004,142.38784971050114L56.41776,143.03220166429395L56.90412,142.9163828688235L57.390480000000004,143.9949796164704L57.503385,144.37133782891468L57.99843,144.09925325386544L58.03317,144.44418388708127L58.2112125,142.71489780532534L58.6107225,143.76637340195308L58.8886425,144.61139124025303L59.0970825,145.27649347529947L59.19696,145.30009931018137L59.49225,146.4482638091009L59.535675,146.2979538552559L59.5487025,145.84690547511556L59.61384,145.79856211632836L59.7571425,146.60092092269866L60.5474775,146.8197516506267L60.838425,146.60597424911572L60.960015,146.91398419190713L61.00344,146.77825520932237L61.1554275,146.56200721934175L61.8415425,147.699208933933L62.16723,147.87676909942832L62.662275,148.36503467115406L62.8403175,148.33275441543844L63.33102,148.64263322072676L63.4569525,149.12371825310558L63.47866500000001,147.98369406801743L63.5177475,148.7078344189661L63.9085725,148.8859470476083L63.921600000000005,147.77010991994274L64.04319000000001,147.3995655984356L64.086615,148.36939919840836L64.4904675,148.9438319208565L64.6381125,149.3845571985002L64.8986625,149.57989741289052L65.69334,149.70810213751156L65.806245,149.97201367432808L65.8192725,150.63572396484724L65.910465,149.54300645119076L65.94086250000001,149.33255445734338L66.1927275,149.9680651919584L66.2187825,149.36781405860427L66.4619625,149.17906387346534L67.352175,149.40030441178408L67.595355,150.37188126869367L67.73431500000001,150.46145367497127L68.11211250000001,150.09817122853647L68.255415,151.1271036555952L68.5984725,151.55919922850794L68.62886999999999,151.08044598415356L68.68532250000001,151.4065432014457L68.9458725,151.19939893967756L69.0761475,151.39579321790097L69.176025,151.90805582425511L69.25419000000001,145.586054774204L69.8838525,148.03106107183788L70.16177250000001,150.0695515814781L70.81748999999999,151.5464453518158L70.930395,151.32988698246425L71.764155,151.7895641244566L71.7945525,152.4225622889543L72.285255,152.47251969123002L72.2982825,152.12604956187528L72.389475,151.35597686123978L72.6456825,152.1816648203634L72.83241,152.34902163571135L73.2015225,152.23170112636546L73.33614,152.57432130670912L73.40562,152.65448579644482L73.47944249999999,153.0633584317882L73.6531425,153.2673075186726L73.85289750000001,152.38329717274854L73.85723999999999,153.19762206137239L73.952775,153.11697626429088L74.1047625,153.4580662057089L74.21766749999999,153.33909631868673L74.25675,153.30402541965526L74.48256,152.97932357153465L74.4955875,152.59333963337494L74.6432325,153.11247400894285L74.6606025,153.48905788670194L74.76048,153.7589465828476L74.786535,152.81483471273557L74.79522,153.15594450833902L74.994975,153.23399720741065L75.35106,153.55533738041075L75.43356750000001,153.84761198318245L75.47265,153.22999999199058L75.76794000000001,153.85412679738548L75.776625,152.81608019956496L76.037175,151.87647024319202L76.7276325,152.65172626503187L76.957785,153.1554316920586L77.044635,154.1850207288964L77.1792525,154.70007710359417L77.218335,152.78094131023838L77.2921575,153.55698514220805L77.36598,152.92698312673832L77.722065,152.5931032638929L77.82194249999999,153.21267690941286L77.8827375,153.1584243908351L78.2040825,152.43060773930404L78.6991275,153.26901155529293L79.1160075,153.93997970096245L79.13772,153.90000419410003L79.29405,154.25537268425188L79.4286675,154.88214557922726L79.84989,154.79494081080315L79.962795,154.8735148766062L79.980165,154.80956978103052L80.049645,155.07793005574808L80.23203,153.7438959914465L80.50995,154.447344941118L80.5229775,154.38268574329086L80.5924575,152.3124035149924L81.0093375,152.45009355098676L81.23948999999999,151.30955119491026L82.1644425,152.86917757316175L82.2860325,152.9428218017071L82.7463375,154.15970483985092L83.0589975,154.01034168417183L83.3282325,153.75279958312916L83.66694749999999,151.65582925015812L83.74077,152.09290702750758L83.85801749999999,152.3235890717311L83.94921,153.11647798723004L84.00132,152.8048285680623L84.0664575,153.6464320059932L84.31398,154.56767898474286L84.6309825,155.2340506355414L85.10865749999999,152.587602542144L85.33881,153.77083821374293L85.35618,154.26646553313356L85.781745,151.86818296811353L85.96413000000001,151.96837950986696L86.1855975,152.54207086353495L86.28547499999999,153.6731250081673L86.5416825,154.00026015493063L86.55470999999999,154.94281024554545L86.96290499999999,155.0644085564117L87.11055,155.20782630527916L87.2625375,155.57789893566013L87.431895,153.72785332981312L87.831405,154.65295270828048L87.92693999999999,155.20970803162538L88.28302500000001,154.04987204841424L88.8953175,154.6862632434243L89.1819225,155.18135299742514L89.21232,155.32284924625037L89.2514025,155.4462221569638L89.325225,155.93719871271077L89.40338999999999,155.67287084901884L89.65959749999999,155.11416124482187L89.8767225,155.5493579912438L90.08081999999999,155.34298972275877L90.35439749999999,154.85233762386903L90.680085,155.57330467100272L90.70614,155.87098006297845L90.836415,155.7872397662085L90.87549750000001,154.22238028803508L90.91892250000001,152.22674993319237L91.3184325,153.2496189312215L91.357515,153.20789080831113L91.374885,153.8333232414213L91.44870750000001,153.89722022799327L91.72662749999999,153.8207258249457L91.809135,155.199013072875L92.39537250000001,155.3955277758848L92.66895000000001,156.14407090136103L92.86870499999999,155.5323416371342L93.059775,155.84644098101984L93.43323,156.0697013738762L93.685095,156.00964435114776L94.3321275,156.5424119703617L94.3408125,156.57134772515798L94.4797725,156.91244663496465L94.61438999999999,157.16700250280815L94.87059749999999,155.66433411239336L95.491575,155.57165712355823L95.595795,155.6050672914192L95.6348775,154.4235194464016L95.873715,155.34287593413816L96.5294325,156.08583041295068L96.5902275,155.5506870443875L97.0331625,155.40953165059562L97.12435500000001,156.08616166654767L97.7019075,156.4756701025168L98.0145675,157.0031873733729L98.1101025,157.06670573266177L98.183925,155.99239933717595L98.38368,156.35678472394255L98.531325,156.5067570164398L98.8135875,156.78170274793553L99.1609875,157.29611645418822L99.4910175,157.1655591520312L99.6473475,156.8236507381584L100.12936499999999,157.0321565345465L100.1337075,156.5566737652146L100.2813525,155.05110727755417L100.3421475,156.26726229670683L100.52453249999999,155.0630822661998L101.24973,156.3478220069249L101.3843475,156.96962714491946L101.5319925,156.64588112897374L102.00098249999999,153.40070229294417L102.14428500000001,155.12719841426622L102.22245,156.42799587827778L102.231135,156.06372552365426L102.335355,155.82814892754175L102.3396975,155.97331025041768L102.352725,153.4582330973454L102.4352325,155.20426961440268L102.58722,155.40617935975445L102.72183749999999,156.54129923513935L102.891195,156.73403920916934L102.93462,157.02518253690062L103.32110250000001,157.04141681712377L103.3818975,156.98459649892305L103.50783,156.76134213655683L103.54257,156.96725779505144L103.66850249999999,156.1817973651756L104.09841,156.13958940812316L105.10152749999999,156.62712277650232L105.2231175,156.46205495702858L105.2622,156.23801408653043L105.38379,156.62443110639725L105.53577750000001,157.20497658344655L105.5878875,156.83359908103228L105.8658075,157.1932497412445L106.452045,157.25377348362545L106.68654,156.15176177147265L107.2640925,155.2969816194742L107.26843500000001,155.2645829655912L107.876385,155.74320015240826L108.4018275,156.6246418090969L108.432225,156.73625892285986L108.9750375,156.18293748075206L109.46574000000001,156.89554351713173L109.5482475,156.45996229884574L109.6698375,156.61763448374376L109.7653725,156.97202412205206L109.856565,157.3481401137733L110.151855,157.44529642757243L110.3820075,155.72471595594416L110.6338725,154.75452516139524L110.82494249999999,154.63975468560145L111.7542375,155.96555257497184L111.8324025,156.67279740740628L111.9279375,157.21961824991416L111.9539925,157.6904808530099L112.427325,158.11652748214897L112.48812,156.30143819054334L112.5358875,156.3499528398014L112.774725,157.39175152202455L112.8224925,157.27445878059422L112.8485475,155.36700256300423L113.104755,155.85056772264437L113.2220025,156.8717059002897L113.32188000000001,156.5122059164766L113.62585499999999,156.85304116039788L113.72139,157.0559786231328L113.8646925,155.51788194267505L113.9689125,153.97153658386947L114.1426125,155.30125662124533L114.2207775,156.32063443771827L114.2468325,156.40742513825717L114.25985999999999,156.65933826999498L114.58989000000001,153.16642004064698L114.59423249999999,155.07060407949302L114.79833,155.92284602947348L114.9329475,155.8404366411034L115.050195,156.49156069409557L115.0632225,156.04537234154617L115.084935,156.1327862622799L115.3932525,155.39648831084142L115.44102,156.66697991671649L115.6538025,156.38567699436834L115.901325,156.5468673763282L116.09673749999999,157.32530452868608L116.27478,157.07403793017576L116.3312325,157.48328207453272L116.335575,157.73622937419373L116.43110999999999,157.7324147369503L116.50059,156.61810787836694L116.9826075,157.1011240663453L117.0738,157.6002730052627L117.3734325,156.71559340538573L117.38646,156.96744398214366L117.3908025,156.9931142903891L117.5992425,157.2567914647625L117.7034625,157.7573148043426L118.2766725,156.36343770754917L118.62407250000001,156.65448145634358L118.680525,156.91086021170497L118.95844500000001,156.95472999669153L119.2407075,156.64494657036386L119.340585,156.88956961790754L119.705355,156.7023223279642L119.7183825,157.32247366661068L119.74009500000001,156.65843512042156L120.0310425,156.66662097239146L120.1092075,156.89749761045664L120.43489500000001,157.17421349768753L120.6042525,156.3112279397095L121.2903675,157.42759203528806L121.47275250000001,157.74032232774314L121.47709499999999,157.83167438006336L121.75935750000001,157.7000709789749L121.7854125,157.88873964672572L121.89831749999999,158.16556976735762L121.98951,155.74670306705042L122.01556500000001,156.3479083962931L122.70168,157.16753104386143L123.7395375,157.68784518965282L123.79598999999999,157.6071538753253L123.943635,157.7220281531329L124.047855,158.04027776613324L124.10865000000001,157.90572404725918L124.23024000000001,157.2034555326466L124.725285,156.11822439100231L124.8772725,157.05052767455732L125.03794500000001,157.42523659008089L125.43311250000001,157.20038400545621L125.9976375,157.70067747301553L126.32332500000001,157.92212909613443L126.71415,155.83751331082368L126.7271775,156.82758543555892L127.36552499999999,156.68962517851566L127.38289499999999,156.1950926503478L127.56962250000001,156.7905096541532L127.61739,155.63476909488816L127.660815,156.3979146630116L127.80846,157.51267674019098L127.851885,157.27863067368142L127.96479000000001,157.53493263206315L128.1602025,155.5566158773761L128.26008,156.0508376504897L128.4815475,156.96334213571512L128.5857675,153.20952745076576L128.668275,154.5231836201604L128.87237249999998,151.9422869626049L129.363075,154.76779514707184L129.5758575,156.51101735160236L129.92759999999998,156.81970578704318L129.9753675,157.2146365290078L130.0622175,157.62764558362989L130.37922,155.24954350355583L130.6267425,156.00975830117727L131.09139,156.92714431245173L131.70368249999999,157.57364060180063L131.87304,157.81326413346335L131.9989725,156.348087072219L132.37677,157.1190317698765L132.58521,157.2891637889861L132.593895,157.81807038321384L132.75891,156.52887496599877L132.8587875,157.0368581883569L133.167105,157.81364168779683L133.77939750000002,156.6582597925909L134.05731749999998,157.75776095452483L134.4828825,157.75651093905836L134.51762250000002,157.48950818064463L135.1776825,158.09876318550573L135.27321750000002,158.11926562624927L135.41652,156.9655235600114L135.737865,157.17449088214428L135.9072225,157.6862602035878L136.2806775,157.18892148513663L136.59768,157.62699304467628L136.7062425,157.0525142426189L136.762695,156.46209963745753L136.80177750000001,157.0492437724546L137.144835,156.58016171514393L137.40104250000002,156.68877756962567L137.8960875,157.2346479882152L137.96122499999998,156.30390605304245L138.3042825,156.8319698938458L138.68207999999998,157.52186316233002L139.06856249999998,156.74544369865134L139.229235,156.67104358552723L139.3812225,157.32638622131617L139.7025675,157.84403783070175L140.24103749999998,157.58556389977934L140.33222999999998,157.66205142791438L140.3713125,158.0031411192141L140.44079250000001,158.47932915058416L140.71437,157.78755288493517L140.7187125,158.17307088393724L140.77950750000002,158.13351027738307L141.313635,158.45316710561144L141.3614025,158.21628317007202L141.79565250000002,158.26305960921587L142.0866,157.355853510622L142.9551,154.38285816176167L143.5065975,154.22414240219254L143.51094,155.77493989910892L143.6368725,156.80919778352208L143.6455575,156.9619248331836L144.075465,156.94668975096204L144.72684,158.03271600229297L145.00476,158.2756778824009L145.030815,158.25927218531388L145.05687,156.27319147931675L145.07424,156.59969412431278L145.0785825,156.74578174876888L145.57797,157.22002078978105L145.81680749999998,156.65012121934672L146.3379075,157.2267747883028L146.5810875,156.76388752953864L147.0066525,157.67412640394514L147.0500775,157.7342656507596L147.08047499999998,158.08141962335287L147.15864000000002,158.10023745590166L147.40616250000002,158.52402028352003L147.5972325,157.43204012031097L147.9706875,154.03227997617267L148.365855,155.82256202958206L148.37454,156.81889682495776L148.5135,154.80660285921653L148.591665,156.40137362329222L149.82059249999998,157.2685389144603L149.93349750000002,157.831563343477L150.12456749999998,158.1085068458858L150.363405,158.21062112550322L150.63263999999998,158.11173417575887L150.68909250000002,158.5654649673118L151.08860249999998,156.64101959582948L151.21453499999998,157.68237121079807L151.3838925,157.59223300592643L152.5997925,157.61527253055002L152.94285,154.0844415667708L153.055755,155.70412642122764L153.15129000000002,156.32507423154388L153.2337975,156.9695996846892L153.34236,157.85540971615612L153.41183999999998,157.99765225661517L153.46395,158.49312810519842L153.6506775,158.58151026348102L153.94596750000002,158.317630218706L154.2152025,158.73554206503047L155.11844250000001,158.3593384478434L155.14884,157.900289762814L155.18792249999998,158.01747454249437L155.4050475,156.94674295939402L155.41807500000002,157.4353923497231L155.50926750000002,157.79098976063392L155.64388499999998,156.55587975998318L155.72639249999997,157.34302746126934L156.3169725,157.09278723929754L156.668715,157.61203074561465L156.6730575,156.62166702922826L156.8207025,157.08816519512845L157.41562499999998,157.91322398731327L157.4373375,158.2935805221228L157.5502425,157.62312803556117L157.7499975,157.96965713938084L157.815135,158.4325847087391L158.17122,158.61253856152075L158.3579475,156.04614427889751L158.47085249999998,157.2656357747636L158.64889499999998,155.8618973970307L158.8356225,156.98143826519433L159.4088325,156.93940145131936L159.43922999999998,157.1862386080294L159.4566,157.98958533025424L159.89953500000001,155.73852729788655L160.07323499999998,156.0969519669599L160.48143000000002,157.11020591958086L160.542225,157.1875935573725L160.62039,157.8511139680429L160.802775,157.44116993582526L161.983935,157.92895343420298L162.2140875,158.16993694176088L162.730845,157.50567374647295L163.52118000000002,156.5152032663413L163.6818525,157.42215945474732L164.0900475,157.98311196144255L164.780505,157.15702390932043L164.89341,157.88438939879015L165.06710999999999,156.64431195716367L165.266865,157.5226812755372L165.5491275,158.1455393774431L165.579525,157.62869651220714L165.614265,155.74288207316383L165.82270499999998,156.6177420815951L165.8617875,157.64780289928626L166.117995,157.8816111557216L166.1744475,157.31104111358707L166.80411,156.2595191830631L166.85622,157.30218309638192L166.99952249999998,157.6275311115707L167.1819075,157.63771561078056L167.46417,157.8485172076781L167.785515,155.80737798191663L167.9896125,156.19482835407962L168.271875,156.93291484412347L168.3978075,157.68548763899085L168.45426,157.97068631471294L168.7538925,158.2889505800372L168.76692,157.49312161143217L168.9536475,157.9005278041659L169.16643,157.79780957950715L169.40961,158.02526848275477L169.98282,156.30625854605594L170.01756,157.13420771520083L170.0479575,155.77246581255343L170.45181000000002,156.13760655972106L170.50392,155.99765246273722L170.59077,154.68472688424822L171.085815,154.7185297835439L171.103185,156.01027587515156L171.2204325,155.02418209906392L171.2291175,156.90850091007934L171.6199425,156.86692072411677L171.92391750000002,157.58648849813818L172.041165,156.7648046615045L172.0715625,157.85399093092283L172.08459,158.11433619941502L172.1931525,158.29706512706863L172.78373249999999,158.46768257313528L173.1832425,158.41770371541267L173.21364,158.2544550601088L173.604465,158.31135587722096L173.6435475,157.8640375908578L173.6956575,157.8896691419066L173.778165,158.1414933001738L173.8519875,158.64334319934943L174.0864825,158.83942382223574L174.1385925,158.32510073194084L174.24715500000002,158.4181823484029L174.4078275,158.24782208476518L174.6596925,156.77139933239104L174.8594475,157.14816381197085L174.941955,157.95285233755578L174.9723525,156.16653001639796L175.1721075,156.76945592754961L175.3979175,156.87868488084604L175.410945,157.31219232595387L175.5629325,157.66038398296115L176.1274575,156.17583291590498L176.35326750000002,157.12729727384246L176.35761000000002,157.71921686372116L176.4488025,158.06641392843994L176.68764000000002,158.30741978985932L177.0654375,157.0074833690546L177.06978,157.54398281192687L177.23479500000002,158.17814005438407L177.3867825,158.51020471561057L177.425865,158.82581080586823L177.5952225,159.05105971464246L177.808005,156.85329633567468L178.04684250000003,156.99261070445917L178.1858025,157.70229135034305L178.59833999999998,156.9686274423246L179.2584,157.45688338253538L179.4711825,158.16334162960882L179.6275125,157.94873074990397L179.8967475,158.30136173165596L180.23112,158.74627507762912L180.2441475,157.72811115312908L180.57417750000002,158.2524249884126L180.66537,157.91284982654153L180.70011000000002,157.22419315583377L180.7565625,157.71837757131453L180.7652475,157.62752437698316L180.7913025,153.2728609441666L181.21686749999998,155.5238044127195L181.2255525,156.1978242247548L181.60335,155.90799520290622L181.6163775,154.70048107654887L181.733625,155.6120274471926L182.47619250000002,156.96092536681516L182.50659000000002,157.97500110362208L182.793195,158.1041023753985L182.81490749999998,158.63847456869286L183.2665275,156.4346854310292L183.34035,157.32406322662504L183.6312975,154.18797062004788L183.7181475,155.60645360272116L184.182795,155.76952356205723L184.408605,157.54204129518996L184.4737425,157.86457209269363L184.53888,158.08946727111285L184.60836,157.0832181007823L184.6648125,157.19542139823946L184.8168,155.96801141794452L184.8993075,156.02574856666283L184.92970499999998,157.05478181760793L185.9415075,158.03916491862034L186.2020575,157.83704578596513L186.3323325,157.05930975712485L186.41484,157.80256377158477L186.8013225,158.35321443498754L186.97068,158.76174814632347L186.98805000000002,158.59416215376666L187.02713250000002,158.4973500465437L187.0531875,158.41881126210595L187.16174999999998,155.6491316984326L187.40927250000001,156.93799728242192L188.04327750000002,157.0052592868552L188.5470075,155.94716260969312L188.69030999999998,156.18051881156293L189.1636425,156.73704012557525L189.1896975,156.88525507857818L189.22877999999997,157.8600144602048L189.7889625,157.96412055427209L189.9366075,157.56067352918907L191.0482875,157.94968813112007L191.13079499999998,157.73780092651396L191.3175225,158.0567747782454L191.617155,158.72088181569262L192.5507925,158.08842164110592L192.989385,158.2829710038577L193.22822250000002,158.12306970021945L193.29336,158.16379786090522L193.5929925,157.93917799476665L193.74063750000002,158.39902111962144L194.0619825,158.5569206012209L194.1314625,158.8648278830637L194.17923,159.12108526119414L194.326875,157.823189681143L194.674275,156.01724860466746L194.9391675,156.75017605344044L194.94351,157.40833858620874L195.19537499999998,158.1890614045963L195.282225,155.74581069895208L195.4689525,155.48918678308922L195.490665,155.9731494680518L195.803325,157.24786900729902L196.4156175,158.0189806040434L196.51549500000002,158.59498110608544L196.5198375,158.43496150025746L197.1104175,158.54827838539495L197.5272975,158.84180422449134L197.78350500000002,158.93772541067912L197.8312725,159.15680122773557L199.0645425,159.37454775345003L199.242585,159.61094947529838L199.54656,159.69119603125122L199.66815,159.68462025826085L199.8896175,159.4639621606203L200.31084,159.25851911368486L200.4454575,158.85599419986838L200.46716999999998,157.94850045060744L200.5409925,158.14689499860634L200.76246,155.51833204463497L200.927475,154.3987855470054L201.813345,156.10655112431928L202.126005,154.5000278094276L202.5819675,155.77267839898104L202.959765,156.36093095661363L203.011875,157.2523462793002L203.150835,158.10392897895468L203.272425,157.69330792842206L203.6502225,157.5346889534914L203.6936475,158.19839384752953L203.7197025,158.36281153450722L203.7370725,157.9009478507545L203.87168999999997,158.03281814470776L203.880375,156.95010924389146L203.94117,157.26211278794443L203.96722499999998,156.81222201903603L204.28422750000001,157.16064811947535L205.356825,157.96474906736665L205.738965,158.4965191757101L205.85187000000002,156.66297533179332L206.242695,155.34837174621975L206.35994250000002,156.73918564629707L206.6639175,156.93778445290195L206.9592075,157.32866903523603L207.02868750000002,157.8958952818364L207.3152925,156.42457408720554L207.5237325,153.84807587311744L207.5932125,155.90502172637258L207.719145,156.44967537107033L207.8277075,157.38206204342148L207.910215,158.1487113173406L208.535535,158.16808593876516L208.570275,158.86138617343926L208.848195,158.76317849794611L208.9654425,158.09837752371408L209.55168,158.49985348745435L209.5820775,158.81053831429332L209.66024249999998,157.96440151110917L210.10752000000002,158.3690067669042L210.21174,158.88035122973696L210.255165,158.94412660869494L210.31596000000002,159.1843772984056L210.585195,157.09729192519237L210.9977325,157.9228110997285L211.2843375,158.40107387859183L211.34079000000003,158.49222780584802L211.47975,159.03099604490666L211.55791499999998,157.7754474823148L211.60134,157.2881694346165L211.6925325,157.76322179288388L212.165865,156.31960982867014L212.46984,157.59872199454603L212.895405,158.2727998251055L213.4034775,158.8859066605823L213.56849250000002,157.37099918348383L213.711795,157.67405978393356L213.7856175,157.56507461893514L213.95497500000002,158.2324489062828L215.00586,158.2270443489508L215.07534,157.22961341107526L215.70066,157.30504231955268L215.92647,157.77422002177332L216.11754,158.3789948438422L216.2695275,157.0741511152575L216.39980250000002,157.1386131766708L216.5040225,157.61085676028335L216.60824250000002,157.8492845428117L216.64298250000002,157.03031313033418L216.69075,158.05393585135573L216.69509250000002,157.00282983989288L216.95564249999998,157.7074738790923L217.07289,157.68626262147106L217.09026,157.56192185287625L217.15539750000002,157.56360256862985L217.2683025,158.13459462572916L217.31607,158.1110664528409L217.36383750000002,158.0632986875206L217.50714,158.4469603669989L217.87625250000002,157.3993285294904L218.106405,158.26816647390663L218.123775,158.34964026054078L218.1802275,158.82963010036212L218.5276275,158.92592756089277L218.5449975,159.17887938597698L218.662245,158.52733154697805L218.7013275,158.62276641890685L219.079125,158.73743292469325L219.1095225,158.31621259868393L219.3005925,158.84971571926923L219.530745,159.07486251585536L219.68273250000001,158.78520993124158L219.70010249999999,156.95794720582342L219.964995,157.95348312430636L220.3862175,156.9029882027093L220.5512325,157.83163573722965L220.75098749999998,158.03365817520574L220.75533,157.58984679548325L220.7683575,157.90046622309615L221.0115375,155.79720723936575L221.3763075,156.46329930078383L221.4805275,157.55054700958442L221.69331,158.67072881065437L221.754105,158.5861903044738L222.396795,158.8783451177572L222.52706999999998,157.27039304199187L222.7832775,157.96085062135305L223.00474499999999,158.60187117607137L223.8993,157.7833791104562L223.9383825,158.5974878257763L224.02523250000002,158.31530731964867L224.15985,158.8455180956163L224.168535,158.04423940892073L224.7547725,158.22770598575133L224.9111025,158.01497050289606L225.1021725,158.48566932217355L225.35837999999998,156.98837296209382L225.41049,156.98589519482715L225.90119249999998,157.18992145439603L226.061865,157.89759556643287L226.1964825,158.6251887703124L226.34847,159.37809898857748L226.999845,159.5079337917628L227.0389275,159.41656842904462L227.15617500000002,158.79137586485027L227.28645,158.99565723869608L227.43409499999999,159.1155219329836L227.6295075,159.36767702532958L227.66424750000002,159.58629893450268L227.7858375,159.2253857358408L228.27653999999998,158.70178766489326L228.34601999999998,157.51809805931327L228.4458975,158.28066044746038L228.615255,155.78916867195483L228.6890775,155.49821932815115L229.06253249999997,156.09085090243877L229.101615,157.49772547135873L229.24926,157.96273853320702L229.7486475,157.98147182968302L229.918005,158.91759708054838L230.14381500000002,158.97664472514674L231.394455,158.49950969074612L231.4856475,157.27987631752012L232.09794000000002,155.99942590855161L232.28466749999998,156.87132172137558L232.51482000000001,156.76162107721007L232.5452175,155.21159555463515L232.6320675,155.40855118787897L232.7449725,155.82462477330336L233.1357975,157.25497465070467L233.36160750000002,157.54135400877598L233.6221575,157.90706534207584L233.652555,157.83025177925137L233.7784875,158.22384048420895L234.00863999999999,157.7027823535537L234.02601,158.32178187752874L234.08246250000002,158.62329154169626L234.1432575,157.08693177524844L234.2474775,157.21677495227317L234.2995875,158.2913689913608L234.4385475,158.21667936271473L234.468945,157.01613401462015L234.52974,157.13525475763902L235.0204425,158.20090682129674L235.06821,155.69608739749708L235.094265,156.92889079750623L235.27230749999998,157.89429578094436L235.2896775,158.5595520161707L235.3504725,158.82748099675365L235.45035,158.86501756093256L235.910655,156.8513275338343L236.0973825,154.95465726256407L236.2884525,155.79460676614218L236.3666175,157.46169662630572L236.43609750000002,156.0230730799944L236.5663725,156.7779668351627L236.866005,157.736531855687L237.4088175,157.61785841621057L237.595545,157.41094713758434L237.60423,157.7884537850939L237.7649025,157.52733314093933L237.76924499999998,158.29955208237723L237.81267,157.3412099270046L237.84741,158.15708706274935L237.9559725,158.71110076654702L238.3164,159.15923497013L238.33811250000002,158.98635144863576L238.40324999999999,158.40421657072187L239.24569499999998,157.94962842768314L239.84496000000001,158.45535123435562L240.76557,155.00706531271578L241.104285,156.8789280067734L241.33878,156.97670394619416L241.4473425,158.17490109593302L241.9944975,157.23879641002048L242.34624000000002,157.03031619462746L242.5590225,157.27214299893902L242.6111325,157.39552581723945L242.69364,157.72625870151916L242.94984749999998,156.66178742807267L243.4535775,156.68104800216054L243.79663499999998,157.43808965286505L243.97902,155.10533878874566L244.29168,157.19876268180033L244.317735,153.74962885966494" style="fill: none;" fill="none"></path></g></g></g></g><g opacity="0.2"><g><g><g><path stroke="rgb(255, 112, 67)" stroke-width="2px" d="M33.880185,-3.9521473050117493L33.949665,7.863767579197884L34.019145,11.76950665563345L34.4837925,25.602212123572826L34.670519999999996,26.758318714797497L34.683547499999996,30.171635508537292L35.148195,31.864199735224247L35.24373,31.085772946476936L35.291497500000006,34.972796723246574L35.4651975,42.66851036250591L35.53902,41.24125721305609L35.5954725,42.13549247384071L35.981955,39.004762418568134L36.242504999999994,51.446996949613094L36.6376725,57.7161937430501L36.6897825,54.765858076512814L36.828742500000004,54.99977184832096L36.8547975,53.15997986495495L36.96336,58.94573288410902L37.158772500000005,65.67620741575956L37.514857500000005,60.99401967972517L37.718954999999994,62.498914398252964L37.7927775,68.54481337964535L37.8014625,69.04741203784944L37.823175000000006,68.27888688445091L37.9317375,67.46887596696615L37.936080000000004,62.611788645386696L37.98819,74.315389752388L38.0099025,69.85757680982351L38.135835,74.55444116517903L38.2009725,71.38434084504844L38.8002375,77.20304619893432L39.039075,78.73328844457866L40.0248225,86.77687257900834L40.33314,91.59328187257051L40.3461675,90.15611060336232L40.598032499999995,91.79855123534799L40.8672675,90.89412860944867L41.166900000000005,92.3214367069304L41.227695000000004,93.85803643986581L41.23638,94.95864002406597L41.240722500000004,93.04571221023798L41.4925875,90.79484301060438L42.252525000000006,98.92352516204119L42.85179,101.7757950760424L42.860475,104.74357674270868L43.0776,105.60554102435708L43.3859175,105.99744137749076L43.6117275,102.89029501751065L43.70292,102.68648727238178L43.7333175,109.75361740589142L44.197964999999996,109.87588776648043L44.319555,110.6272361651063L44.441145,111.37051269784568L44.666955,112.68561141937971L44.936189999999996,108.99158161506055L45.361755,114.8896319270134L45.4963725,113.00082080438733L45.518085,111.59264011681078L45.8871975,117.86066651716828L45.8958825,114.57443902641535L46.247625,116.22575101815164L46.647135,113.33964685350657L46.7209575,118.4736063182354L46.812149999999995,116.85710390470922L47.394045,123.32008592225611L47.411415000000005,114.80104470998049L47.446155,119.83499600924551L47.932514999999995,118.50725649297237L47.993309999999994,120.86598318442702L48.158325,121.712886210531L48.210435000000004,123.29695554822683L48.39282,123.06442646682262L48.7271925,122.44948655739427L49.070249999999994,121.82765341736376L49.078935,118.17435384169221L49.31343,123.3676214646548L49.43502,123.3907957971096L49.8909825,126.69877721369267L50.3512875,127.5630245860666L50.4120825,126.3982169739902L50.676975,128.489676438272L51.2371575,128.07779972814023L51.8016825,132.38910473324358L51.992752499999995,130.58915007300675L52.361864999999995,132.94136817008257L52.448715,132.89614044502378L52.605045,131.93891825526953L52.635442499999996,132.25090493820608L52.7917725,135.22364566475153L52.882965,133.6660063304007L53.15219999999999,135.1213461663574L53.23905,133.96526704914868L53.721067500000004,135.43872050382197L53.764492499999996,135.94329179637134L54.064125,136.9317327104509L54.1205775,136.76131413690746L54.146632499999996,136.3664850536734L54.203085,135.3803711887449L54.4506075,139.9291272452101L54.550485,138.57221719250083L54.828405000000004,138.9213679768145L55.453725,138.6632413547486L55.68822,140.8625857848674L55.8141525,142.29661540035158L56.0486475,143.15697932057083L56.218005,141.2851347764954L56.231032500000005,141.90835672803223L56.283142500000004,143.49428468290716L56.41776,143.99872959498316L56.90412,142.7426546756178L57.390480000000004,145.61287473794073L57.503385,144.9358751475811L57.99843,143.69112639129162L58.03317,144.961579836905L58.2112125,140.12096868269145L58.6107225,145.34358679689467L58.8886425,145.87891799770296L59.0970825,146.27414682786912L59.19696,145.33550806250423L59.49225,148.17051055748016L59.535675,146.07248892448843L59.5487025,145.17033290490508L59.61384,145.72604707814753L59.7571425,147.80445913225412L60.5474775,147.14799774251878L60.838425,146.28530814684927L60.960015,147.37599910609424L61.00344,146.57466173544526L61.1554275,146.23763523437083L61.8415425,149.40501150581986L62.16723,148.14310934767127L62.662275,149.09743302874267L62.8403175,148.284334031865L63.33102,149.10745142865926L63.4569525,149.84534580167383L63.47866500000001,146.2736577903852L63.5177475,149.79404494538903L63.9085725,149.15311599057168L63.921600000000005,146.0963542284444L64.04319000000001,146.84374911617488L64.086615,149.8241495983675L64.4904675,149.8054810045287L64.6381125,150.04564511496574L64.8986625,149.87290773447603L65.69334,149.90040922444314L65.806245,150.36788097955287L65.8192725,151.63128940062597L65.910465,147.90393018070608L65.94086250000001,149.01687646657228L66.1927275,150.92133129388094L66.2187825,148.46743735857308L66.4619625,148.8959385957569L67.352175,149.73216521926224L67.595355,151.82924655405805L67.73431500000001,150.59581228438765L68.11211250000001,149.55324755888432L68.255415,152.67050229618326L68.5984725,152.20734258787706L68.62886999999999,150.36231611762196L68.68532250000001,151.89568902738392L68.9458725,150.88868254702538L69.0761475,151.69038463523611L69.176025,152.67644973378628L69.25419000000001,136.10305319912732L69.8838525,151.69857051828876L70.16177250000001,153.12728734593838L70.81748999999999,153.76178600732237L70.930395,151.0050494284369L71.764155,152.47907983744517L71.7945525,153.37205953570083L72.285255,152.5474557946436L72.2982825,151.60634436784312L72.389475,150.20086781028658L72.6456825,153.42019675904885L72.83241,152.6000568587333L73.2015225,152.05572036234662L73.33614,153.08825157722458L73.40562,152.77473253104836L73.47944249999999,153.6766673848033L73.6531425,153.57323114899918L73.85289750000001,151.05728165386245L73.85723999999999,154.41910939430818L73.952775,152.99600756866857L74.1047625,153.96970111783594L74.21766749999999,153.1606414881535L74.25675,153.2514190711081L74.48256,152.49227079935372L74.4955875,152.01436372613534L74.6432325,153.89117557229474L74.6606025,154.0539337033406L74.76048,154.1637796270661L74.786535,151.39866690756753L74.79522,153.6676092017442L74.994975,153.35107625601813L75.35106,154.03734763991088L75.43356750000001,154.28602388733998L75.47265,152.30358200520277L75.76794000000001,154.79031700547785L75.776625,151.2590103028342L76.037175,150.46705530863255L76.7276325,153.81461029779166L76.957785,153.91098983259872L77.044635,155.72940428415313L77.1792525,155.47266166564077L77.218335,149.9022376202047L77.2921575,154.7210508901626L77.36598,151.98198010353372L77.722065,152.09228346962482L77.82194249999999,154.14203737769276L77.8827375,153.0770456129685L78.2040825,151.33888276200742L78.6991275,154.52661727927625L79.1160075,154.9464319194667L79.13772,153.84004093380645L79.29405,154.7884254194796L79.4286675,155.82230492169037L79.84989,154.66413365816697L79.962795,154.9913759753108L79.980165,154.71365213766694L80.049645,155.4804704678245L80.23203,151.74284489499405L80.50995,155.5025183656253L80.5229775,154.28569694655016L80.5924575,149.20698017254472L81.0093375,152.65662860497832L81.23948999999999,149.59873766079545L82.1644425,155.208617140539L82.2860325,153.05328814452514L82.7463375,155.98502939706668L83.0589975,153.7862969506532L83.3282325,153.36648643156514L83.66694749999999,148.51037375070155L83.74077,152.74852369353175L83.85801749999999,152.66961213806644L83.94921,154.3058113604784L84.00132,152.33735443931073L84.0664575,154.90883716288954L84.31398,155.94954945286736L84.6309825,156.23360811173916L85.10865749999999,148.61793040204793L85.33881,155.54569172114134L85.35618,155.00990651221946L85.781745,148.27075912058353L85.96413000000001,152.1186743224971L86.1855975,153.40260789403692L86.28547499999999,155.3697062251158L86.5416825,154.49096287507564L86.55470999999999,156.35663538146764L86.96290499999999,155.2468060227111L87.11055,155.42295292858034L87.2625375,156.1330078812316L87.431895,150.95278492104262L87.831405,156.0406017759815L87.92693999999999,156.04484101664275L88.28302500000001,152.31011807359755L88.8953175,155.64085003593937L89.1819225,155.9239876284264L89.21232,155.53509361948818L89.2514025,155.63128152303398L89.325225,156.67366354633123L89.40338999999999,155.27637905348092L89.65959749999999,154.27609683852643L89.8767225,156.20215311087668L90.08081999999999,155.03343732003123L90.35439749999999,154.1163594755344L90.680085,156.65475524170324L90.70614,156.31749315094203L90.836415,155.66162932105362L90.87549750000001,151.87509107077494L90.91892250000001,149.23330440092832L91.3184325,154.7839224282652L91.357515,153.14529862394556L91.374885,154.77147189108655L91.44870750000001,153.9930657078512L91.72662749999999,153.70598422037438L91.809135,157.26644394476898L92.39537250000001,155.69029983039945L92.66895000000001,157.2668855895754L92.86870499999999,154.61474774079397L93.059775,156.31758999684826L93.43323,156.40459196316078L93.685095,155.91955881705508L94.3321275,157.34156339918263L94.3408125,156.61475135735236L94.4797725,157.4240949996747L94.61438999999999,157.54883630457334L94.87059749999999,153.4103315267712L95.491575,155.43264164030552L95.595795,155.65518254321069L95.6348775,152.65119767887518L95.873715,156.72191066574305L96.5294325,157.20026213116944L96.5902275,154.74797199154273L97.0331625,155.19779855990782L97.12435500000001,157.10110669047572L97.7019075,157.05993275647052L98.0145675,157.79446327965707L98.1101025,157.1619832715951L98.183925,154.38093974394724L98.38368,156.90336280409247L98.531325,156.73171545518562L98.8135875,157.19412134517916L99.1609875,158.06773701356724L99.4910175,156.9697231987957L99.6473475,156.31078811734915L100.12936499999999,157.34491522912867L100.1337075,155.84344961121678L100.2813525,152.7927575460635L100.3421475,158.0914948254358L100.52453249999999,153.25681222043931L101.24973,158.2749316180125L101.3843475,157.9023348519113L101.5319925,156.16026210505515L102.00098249999999,148.53293403889984L102.14428500000001,157.71694259624928L102.22245,158.37919207429513L102.231135,155.51731999171898L102.335355,155.474784033373L102.3396975,156.19105223473161L102.352725,149.685617367737L102.4352325,157.82332438998856L102.58722,155.70904397778213L102.72183749999999,158.24397904821672L102.891195,157.0231491702143L102.93462,157.4618975284975L103.32110250000001,157.06576823745854L103.3818975,156.89936602162197L103.50783,156.4264605930075L103.54257,157.27613128279336L103.66850249999999,155.00360672036186L104.09841,156.07627747254446L105.10152749999999,157.35842282907106L105.2231175,156.214453227818L105.2622,155.90195278078318L105.38379,157.2040566361975L105.53577750000001,158.0757947990205L105.5878875,156.27653282741085L105.8658075,157.73272573156282L106.452045,157.3445590971969L106.68654,154.4987442032434L107.2640925,154.01481139147654L107.26843500000001,155.2159849847667L107.876385,156.46112593263388L108.4018275,157.94680429412983L108.432225,156.9036845935043L108.9750375,155.35295531759039L109.46574000000001,157.96445257170126L109.5482475,155.8065904714167L109.6698375,156.85414276109077L109.7653725,157.50360857951455L109.856565,157.91231410135515L110.151855,157.59103089827113L110.3820075,153.14384524850175L110.6338725,153.2992389695719L110.82494249999999,154.46759897191077L111.7542375,157.9542494090274L111.8324025,157.73366465605795L111.9279375,158.03984951367602L111.9539925,158.39677475765347L112.427325,158.75559742585756L112.48812,153.57880425313488L112.5358875,156.42272481368855L112.774725,158.95444954535924L112.8224925,157.09851966844872L112.8485475,152.50581823661923L113.104755,156.5759154621046L113.2220025,158.40341316675767L113.32188000000001,155.97295594075695L113.62585499999999,157.36429402627982L113.72139,157.36038481723517L113.8646925,153.21073692198843L113.9689125,151.65201854566112L114.1426125,157.29583667730913L114.2207775,157.84970116242766L114.2468325,156.5376111890655L114.25985999999999,157.03720796760172L114.58989000000001,147.927042696625L114.59423249999999,157.92688013776205L114.79833,157.20120895444416L114.9329475,155.7168225585483L115.050195,157.46824677358381L115.0632225,155.37608981272206L115.084935,156.2639071433805L115.3932525,154.29204138368368L115.44102,158.57271732552908L115.6538025,155.96372261084616L115.901325,156.788652949268L116.09673749999999,158.49296025722288L116.27478,156.6971380324103L116.3312325,158.09714829106815L116.335575,158.11565032368526L116.43110999999999,157.72669278108515L116.50059,154.94664759049192L116.9826075,157.82564834831282L117.0738,158.34899641363882L117.3734325,155.38857400557026L117.38646,157.34521984728053L117.3908025,157.03161975275725L117.5992425,157.6523072263226L117.7034625,158.50809981371276L118.2766725,154.272622062359L118.62407250000001,157.0910470795352L118.680525,157.29542834474705L118.95844500000001,157.02053467417136L119.2407075,156.18027143087238L119.340585,157.25650418922305L119.705355,156.4214513930492L119.7183825,158.2527006745804L119.74009500000001,155.6623773011379L120.0310425,156.67889975034632L120.1092075,157.24381256755441L120.43489500000001,157.58928732853383L120.6042525,155.0167496027425L121.2903675,159.10213817865588L121.47275250000001,158.20941776642576L121.47709499999999,157.9687024585437L121.75935750000001,157.50266587734222L121.7854125,158.17174264835194L121.89831749999999,158.5808149483055L121.98951,152.11840301658958L122.01556500000001,157.24971639015712L122.70168,158.39696501521394L123.7395375,158.4683164083399L123.79598999999999,157.48611690383404L123.943635,157.8943395698443L124.047855,158.51765218563378L124.10865000000001,157.70389346894808L124.23024000000001,156.1500527607277L124.725285,154.49037767853588L124.8772725,158.44898259988986L125.03794500000001,157.98729996336624L125.43311250000001,156.86310512851924L125.9976375,158.45111767435446L126.32332500000001,158.25430653081276L126.71415,152.7105896328576L126.7271775,158.31269362266175L127.36552499999999,156.48268479295075L127.38289499999999,155.453293858096L127.56962250000001,157.6836351598613L127.61739,153.9011582559906L127.660815,157.54263301519677L127.80846,159.1848198559601L127.851885,156.92756157391705L127.96479000000001,157.91938556963578L128.1602025,152.5891407453455L128.26008,156.79217031016015L128.4815475,158.33209886355326L128.5857675,147.5788054233417L128.668275,156.49366787425242L128.87237249999998,148.07094197627157L129.363075,159.0060574237723L129.5758575,159.12585065839812L129.92759999999998,157.2827384402044L129.9753675,157.80703264195472L130.0622175,158.24715916556306L130.37922,151.68239038344473L130.6267425,157.15008049760945L131.09139,158.3032233293634L131.70368249999999,158.54338503582403L131.87304,158.17269943095744L131.9989725,154.15032148035243L132.37677,158.27544881636277L132.58521,157.5443618176505L132.593895,158.61143027455546L132.75891,154.59508184017614L132.8587875,157.7988330218941L133.167105,158.97881693695672L133.77939750000002,154.92518694978207L134.05731749999998,159.40701269742567L134.4828825,157.75463591585867L134.51762250000002,157.08900404302403L135.1776825,159.01264569279738L135.27321750000002,158.15001928736456L135.41652,155.23491046065465L135.737865,157.4879418653436L135.9072225,158.4539141857531L136.2806775,156.44291340745986L136.59768,158.2841003839858L136.7062425,156.19079603953287L136.762695,155.5764777297154L136.80177750000001,157.92995997495018L137.144835,155.87653862917796L137.40104250000002,156.8517013513483L137.8960875,158.05345361609943L137.96122499999998,154.9077931502834L138.3042825,157.6240656550508L138.68207999999998,158.55670306505635L139.06856249999998,155.5808145031333L139.229235,156.5594434158411L139.3812225,158.3094001749996L139.7025675,158.6205152447801L140.24103749999998,157.19785300339572L140.33222999999998,157.7767827201169L140.3713125,158.5147756561637L140.44079250000001,159.19361119763926L140.71437,156.7498884864617L140.7187125,158.7513478824403L140.77950750000002,158.0741693675518L141.313635,158.932652347954L141.3614025,157.86095726676285L141.79565250000002,158.33322426793166L142.0866,155.99504436273128L142.9551,149.92336513847113L143.5065975,153.98606876283884L143.51094,158.10113614448346L143.6368725,158.3605846101418L143.6455575,157.19101540767588L144.075465,156.92383712762967L144.72684,159.6617553792894L145.00476,158.64012070256285L145.030815,158.23466363968328L145.05687,153.29407042032108L145.07424,157.08944809180684L145.0785825,156.96491318545304L145.57797,157.93137935129926L145.81680749999998,155.79527186369523L146.3379075,158.09175514173694L146.5810875,156.0695566413924L147.0066525,159.03948471555486L147.0500775,157.8244745209813L147.08047499999998,158.60215058224276L147.15864000000002,158.12846420472488L147.40616250000002,159.15969452494755L147.5972325,155.79406987549737L147.9706875,148.93263975996524L148.365855,158.50798510969616L148.37454,158.3133990180213L148.5135,151.78816191060469L148.591665,158.79352976940572L149.82059249999998,158.56928685121238L149.93349750000002,158.6760999870021L150.12456749999998,158.52392209949903L150.363405,158.3637925449293L150.63263999999998,157.96340375114232L150.68909250000002,159.2460611546412L151.08860249999998,153.754351538606L151.21453499999998,159.24439863325097L151.3838925,157.45702569861896L152.5997925,157.6498318174854L152.94285,148.78819512110204L153.055755,158.13365370291285L153.15129000000002,157.25649594701827L153.2337975,157.93638786440715L153.34236,159.18412476335652L153.41183999999998,158.21101606730372L153.46395,159.2363418780733L153.6506775,158.71408350090496L153.94596750000002,157.92181015154347L154.2152025,159.36240983451717L155.11844250000001,157.79503302206285L155.14884,157.21171673526987L155.18792249999998,158.1932517120149L155.4050475,155.34064558474347L155.41807500000002,158.16836643521674L155.50926750000002,158.32438587700017L155.64388499999998,154.7032147590071L155.72639249999997,158.52374901319854L156.3169725,156.71742690633982L156.668715,158.39089600509033L156.6730575,155.13612145464867L156.8207025,157.7879124439787L157.41562499999998,159.15081217559054L157.4373375,158.86411532433704L157.5502425,156.61744930571876L157.7499975,158.48945079511032L157.815135,159.12697606277652L158.17122,158.8824693406932L158.3579475,152.19655285496265L158.47085249999998,159.0948730185628L158.64889499999998,153.75628983043134L158.8356225,158.66074956743978L159.4088325,156.8763462305069L159.43922999999998,157.55649434309453L159.4566,159.1946054135915L159.89953500000001,152.36194024933502L160.07323499999998,156.6345889705699L160.48143000000002,158.6300868485123L160.542225,157.30367501406L160.62039,158.84639458404854L160.802775,156.82625388749875L161.983935,158.6606286817696L162.2140875,158.53141220309772L162.730845,156.50927895354107L163.52118000000002,155.02949754614383L163.6818525,158.78259373735636L164.0900475,158.8245407214854L164.780505,155.91789183113724L164.89341,158.97543763299473L165.06710999999999,154.78419579472393L165.266865,158.8402352530975L165.5491275,159.07982653030194L165.579525,156.85343221435323L165.614265,152.91416041459888L165.82270499999998,157.93003209424205L165.8617875,159.19289412582293L166.117995,158.23232354037464L166.1744475,156.45518605038524L166.80411,154.6822362872772L166.85622,158.86617896636017L166.99952249999998,158.11555313435383L167.1819075,157.65299235959537L167.46417,158.16471960302442L167.785515,152.74566914327443L167.9896125,156.7760039123241L168.271875,158.04004457918927L168.3978075,158.8143468312919L168.45426,158.39848432829604L168.7538925,158.76634697802365L168.76692,156.29937815852463L168.9536475,158.51163709326647L169.16643,157.64373224251904L169.40961,158.36645683762617L169.98282,153.7277436410077L170.01756,158.37613146891817L170.0479575,153.72985295858234L170.45181000000002,156.6853176804725L170.50392,155.78772131726146L170.59077,152.71533851651475L171.085815,154.76923413248733L171.103185,157.9478950125631L171.2204325,153.5450414349325L171.2291175,159.7349791266024L171.6199425,156.80455044517294L171.92391750000002,158.66584015917033L172.041165,155.53227890655398L172.0715625,159.4877703350503L172.08459,158.50485410215333L172.1931525,158.57115851854905L172.78373249999999,158.72360874223523L173.1832425,158.34273542882875L173.21364,158.00958207715303L173.604465,158.3967071028892L173.6435475,157.19306016131304L173.6956575,157.92811646847986L173.778165,158.51922953757457L173.8519875,159.39611804811284L174.0864825,159.13354475656524L174.1385925,157.55361609649844L174.24715500000002,158.557804773096L174.4078275,157.99228168930858L174.6596925,154.55676520382985L174.8594475,157.71331053134054L174.941955,159.15988512593322L174.9723525,153.4870465346612L175.1721075,157.6738447942771L175.3979175,157.04252831079066L175.410945,157.9624534936156L175.5629325,158.1826714684721L176.1274575,153.94900631532073L176.35326750000002,158.55449381074868L176.35761000000002,158.60709624853916L176.4488025,158.58720952551812L176.68764000000002,158.66892858198844L177.0654375,155.0575787378475L177.06978,158.34873197623529L177.23479500000002,159.12937591806985L177.3867825,159.0083017074503L177.425865,159.2992199412547L177.5952225,159.3889330778038L177.808005,153.55665126722306L178.04684250000003,157.2015822576359L178.1858025,158.76681231916882L178.59833999999998,155.8681315802969L179.2584,158.18926729285158L179.4711825,159.22302900021896L179.6275125,157.6268144303467L179.8967475,158.83030820428394L180.23112,159.41364509658888L180.2441475,156.20086526637897L180.57417750000002,159.0388957413379L180.66537,157.40348708373494L180.70011000000002,156.19120814977214L180.7565625,158.4596541945357L180.7652475,157.49124458548613L180.7913025,146.74086579494178L181.21686749999998,158.90021961554885L181.2255525,157.20885394280776L181.60335,155.47325167013332L181.6163775,152.88920988701284L181.733625,156.97934700315818L182.47619250000002,158.98427224624902L182.50659000000002,159.49611470883247L182.793195,158.2977542830631L182.81490749999998,159.44003285863437L183.2665275,153.12900172453374L183.34035,158.65812992001884L183.6312975,149.48383171018213L183.7181475,157.73417807673104L184.182795,156.01412850106135L184.408605,160.20081789488904L184.4737425,158.34836828894913L184.53888,158.42681003874168L184.60836,155.5738443452865L184.6648125,157.36372634442523L184.8168,154.12689644750208L184.8993075,156.11235428974032L184.92970499999998,158.59833169402555L185.9415075,159.51573957013898L186.2020575,157.53386708698235L186.3323325,155.89270571386442L186.41484,158.91744479327463L186.8013225,159.1791904300917L186.97068,159.37454871332739L186.98805000000002,158.34278316493146L187.02713250000002,158.35213188570924L187.0531875,158.30100308544934L187.16174999999998,151.49461235292256L187.40927250000001,158.87129565840587L188.04327750000002,157.10615229350515L188.5470075,154.36001759395003L188.69030999999998,156.53055311436765L189.1636425,157.57182209659368L189.1896975,157.1075775080826L189.22877999999997,159.32215353264473L189.7889625,158.12027969537303L189.9366075,156.95550299156457L191.0482875,158.53321003401652L191.13079499999998,157.41997011960484L191.3175225,158.53523555584252L191.617155,159.7170423718635L192.5507925,157.13973137922585L192.989385,158.5747950479854L193.22822250000002,157.88321774476208L193.29336,158.22489010193385L193.5929925,157.6022481955588L193.74063750000002,159.08878580690362L194.0619825,158.7937698236201L194.1314625,159.32668880582787L194.17923,159.50547132838983L194.326875,155.8763463110663L194.674275,153.3083369899541L194.9391675,157.8495672265999L194.94351,158.3955823853612L195.19537499999998,159.3601456321776L195.282225,152.0809346404858L195.4689525,155.10425090929493L195.490665,156.69909349549562L195.803325,159.1599483161699L196.4156175,159.17564799916L196.51549500000002,159.45898185914848L196.5198375,158.1949320915155L197.1104175,158.71825371310115L197.5272975,159.28209298313595L197.78350500000002,159.08160718996078L197.8312725,159.4854149533203L199.0645425,159.70116754202172L199.242585,159.9655520580709L199.54656,159.81156586518046L199.66815,159.67475659877528L199.8896175,159.13297501415946L200.31084,158.95035454328172L200.4454575,158.2522068291437L200.46716999999998,156.58725982671604L200.5409925,158.44448682060465L200.76246,151.57548761367798L200.927475,152.719465800561L201.813345,158.66819949029014L202.126005,152.09024283709005L202.5819675,157.68165428331122L202.959765,157.2433097930625L203.011875,158.5894692633301L203.150835,159.38130302843638L203.272425,157.0773763526231L203.6502225,157.29676049109548L203.6936475,159.19395118858665L203.7197025,158.6094380649738L203.7370725,157.2081523251254L203.87168999999997,158.23062358563766L203.880375,155.32604589266703L203.94117,157.73011810402386L203.96722499999998,156.13738586567342L204.28422750000001,157.68328727013431L205.356825,159.17090048920363L205.738965,159.29417433822528L205.85187000000002,153.91265956591815L206.242695,153.3764663678594L206.35994250000002,158.82540649641305L206.6639175,157.23568266280927L206.9592075,157.91499590873718L207.02868750000002,158.74673465173692L207.3152925,154.21759229525924L207.5237325,149.98332855198532L207.5932125,158.99044050625525L207.719145,157.266655838117L207.8277075,158.78064205194823L207.910215,159.29868522821926L208.535535,158.19714787090197L208.570275,159.90133652545046L208.848195,158.61586698470637L208.9654425,157.101176062366L209.55168,159.1020674330648L209.5820775,159.27656555455178L209.66024249999998,156.69519630633295L210.10752000000002,158.97591465059668L210.21174,159.64736792398617L210.255165,159.03978967713192L210.31596000000002,159.5447533329716L210.585195,153.96666386537254L210.9977325,159.16108986153267L211.2843375,159.11846804688685L211.34079000000003,158.6289586967323L211.47975,159.83914840349462L211.55791499999998,155.89212463842705L211.60134,156.55725236306898L211.6925325,158.47580033028498L212.165865,154.15419188234955L212.46984,159.51739024335984L212.895405,159.2839165709447L213.4034775,159.80556691379752L213.56849250000002,155.0986379678361L213.711795,158.12865068460815L213.7856175,157.4015968714375L213.95497500000002,159.23351033730432L215.00586,158.21893751295283L215.07534,155.7334670042619L215.70066,157.4181856822688L215.92647,158.4779865751043L216.11754,159.28615707694553L216.2695275,155.11688552238047L216.39980250000002,157.23530626879074L216.5040225,158.31922213570215L216.60824250000002,158.2069262166042L216.64298250000002,155.80185601161793L216.69075,159.58936993288808L216.69509250000002,155.42617082269862L216.95564249999998,158.76443993789144L217.07289,157.6544457350392L217.09026,157.37541069998406L217.15539750000002,157.5661236422602L217.2683025,158.9910827113781L217.31607,158.07577419350855L217.36383750000002,157.9916470395401L217.50714,159.02245288621634L217.87625250000002,155.82788077322766L218.106405,159.57142339053098L218.123775,158.471850940492L218.1802275,159.54961486009415L218.5276275,159.07037375168875L218.5449975,159.5583071236033L218.662245,157.55000978847966L218.7013275,158.7659187268L219.079125,158.90943268337287L219.1095225,157.68438210966997L219.3005925,159.64997040014714L219.530745,159.41258271073457L219.68273250000001,158.35073105432093L219.70010249999999,154.2170531176962L219.964995,159.44678700203076L220.3862175,155.3272458203137L220.5512325,159.22460703901015L220.75098749999998,158.3366918321699L220.75533,156.92412972589955L220.7683575,158.36639536451548L221.0115375,152.64231876377016L221.3763075,157.46243739291094L221.4805275,159.18141857278533L221.69331,160.35100151225924L221.754105,158.45938254520297L222.396795,159.31657733768225L222.52706999999998,154.8584649283439L222.7832775,158.99653699039482L223.00474499999999,159.56340200814884L223.8993,156.55564101203345L223.9383825,159.81865089875646L224.02523250000002,157.8920365604572L224.15985,159.64083425956778L224.168535,156.8423213788774L224.7547725,158.5029058509972L224.9111025,157.69586727861315L225.1021725,159.19171755108982L225.35837999999998,154.74242842197418L225.41049,156.98217854392715L225.90119249999998,157.49596084374934L226.061865,158.95910673448816L226.1964825,159.71657857613172L226.34847,160.50746431597508L226.999845,159.70268599654082L227.0389275,159.27952038496733L227.15617500000002,157.85358701855876L227.28645,159.30207929946482L227.43409499999999,159.29531897441484L227.6295075,159.74590966384858L227.66424750000002,159.91423179826234L227.7858375,158.68401593784802L228.27653999999998,157.9163905584719L228.34601999999998,155.74256365094334L228.4458975,159.42450402968097L228.615255,152.05193100869656L228.6890775,155.0617953124456L229.06253249999997,156.97979826387018L229.101615,159.6080373247387L229.24926,158.66025812597945L229.7486475,158.00957177439705L229.918005,160.3217849568464L230.14381500000002,159.06521619204432L231.394455,157.7838071391452L231.4856475,155.4504262576811L232.09794000000002,154.07875029509887L232.28466749999998,158.17916544061154L232.51482000000001,156.5970701109618L232.5452175,152.88655727077276L232.6320675,155.70398463774472L232.7449725,156.4487351514399L233.1357975,159.40049946680665L233.36160750000002,157.97092304588296L233.6221575,158.45563234202564L233.652555,157.71503143501468L233.7784875,158.81422354164533L234.00863999999999,156.92119515757076L234.02601,159.2502811634913L234.08246250000002,159.07555603794754L234.1432575,154.78239212557673L234.2474775,157.41153971781023L234.2995875,159.90326004999224L234.4385475,158.10464491974562L234.468945,155.21531599247828L234.52974,157.31393587216735L235.0204425,159.7993849167833L235.06821,151.93885826179758L235.094265,158.77809589751996L235.27230749999998,159.34240325610153L235.2896775,159.55743636901025L235.3504725,159.22937446762808L235.45035,158.92132240720093L235.910655,153.8307924931869L236.0973825,152.10965185565874L236.2884525,157.05453102150932L236.3666175,159.96233141655102L236.43609750000002,153.86513776052743L236.5663725,157.91030746791512L236.866005,159.17437938647345L237.4088175,157.4398482569959L237.595545,157.10058021964505L237.60423,158.35471375635825L237.7649025,157.1356521747075L237.76924499999998,159.45788049453404L237.81267,155.90369669394568L237.84741,159.3809027663665L237.9559725,159.54212132224347L238.3164,159.83143627550453L238.33811250000002,158.72702616639435L238.40324999999999,157.53101425385103L239.24569499999998,157.26774621312506L239.84496000000001,159.21393544436432L240.76557,149.83463643025607L241.104285,159.6867220478598L241.33878,157.12336785532534L241.4473425,159.97219682054128L241.9944975,155.83463938115165L242.34624000000002,156.71759587153792L242.5590225,157.63488320540637L242.6111325,157.58060004469007L242.69364,158.22235802793875L242.94984749999998,155.06508051790297L243.4535775,156.70993886329234L243.79663499999998,158.57365212892182L243.97902,151.60621249256656L244.29168,160.33889852138236L244.317735,148.5759281264618" style="fill: none;" fill="none"></path></g></g></g></g></g></g><g transform="translate(58, 177)" clip-path="url(#clip_1)"><clipPath id="clip_1"><rect width="271" height="23"></rect></clipPath><g><g><line x1="0" y1="0" x2="0" y2="5" style="visibility: inherit;" fill="rgb(0, 0, 0)" stroke="rgb(204, 204, 204)" stroke-width="1px"></line><line x1="27.140625" y1="0" x2="27.140625" y2="5" style="visibility: inherit;" fill="rgb(0, 0, 0)" stroke="rgb(204, 204, 204)" stroke-width="1px"></line><line x1="54.28125" y1="0" x2="54.28125" y2="5" style="visibility: inherit;" fill="rgb(0, 0, 0)" stroke="rgb(204, 204, 204)" stroke-width="1px"></line><line x1="81.421875" y1="0" x2="81.421875" y2="5" style="visibility: inherit;" fill="rgb(0, 0, 0)" stroke="rgb(204, 204, 204)" stroke-width="1px"></line><line x1="108.5625" y1="0" x2="108.5625" y2="5" style="visibility: inherit;" fill="rgb(0, 0, 0)" stroke="rgb(204, 204, 204)" stroke-width="1px"></line><line x1="135.703125" y1="0" x2="135.703125" y2="5" style="visibility: inherit;" fill="rgb(0, 0, 0)" stroke="rgb(204, 204, 204)" stroke-width="1px"></line><line x1="162.84375" y1="0" x2="162.84375" y2="5" style="visibility: inherit;" fill="rgb(0, 0, 0)" stroke="rgb(204, 204, 204)" stroke-width="1px"></line><line x1="189.984375" y1="0" x2="189.984375" y2="5" style="visibility: inherit;" fill="rgb(0, 0, 0)" stroke="rgb(204, 204, 204)" stroke-width="1px"></line><line x1="217.125" y1="0" x2="217.125" y2="5" style="visibility: inherit;" fill="rgb(0, 0, 0)" stroke="rgb(204, 204, 204)" stroke-width="1px"></line><line x1="244.265625" y1="0" x2="244.265625" y2="5" style="visibility: inherit;" fill="rgb(0, 0, 0)" stroke="rgb(204, 204, 204)" stroke-width="1px"></line><line x1="271.40625" y1="0" x2="271.40625" y2="5" style="visibility: inherit;" fill="rgb(0, 0, 0)" stroke="rgb(204, 204, 204)" stroke-width="1px"></line></g><g transform="translate(0, 8)"><text x="0" y="0" dx="0em" dy="0.95em" style="text-anchor: middle; visibility: hidden; font-family: &quot;Helvetica Neue&quot;, sans-serif; font-size: 12px; font-weight: 200;" fill="rgb(50, 49, 63)" stroke="none" stroke-width="1px">-50k</text><text x="27.140625" y="0" dx="0em" dy="0.95em" style="text-anchor: middle; visibility: inherit; font-family: &quot;Helvetica Neue&quot;, sans-serif; font-size: 12px; font-weight: 200;" fill="rgb(50, 49, 63)" stroke="none" stroke-width="1px">0</text><text x="54.28125" y="0" dx="0em" dy="0.95em" style="text-anchor: middle; visibility: hidden; font-family: &quot;Helvetica Neue&quot;, sans-serif; font-size: 12px; font-weight: 200;" fill="rgb(50, 49, 63)" stroke="none" stroke-width="1px">50k</text><text x="81.421875" y="0" dx="0em" dy="0.95em" style="text-anchor: middle; visibility: inherit; font-family: &quot;Helvetica Neue&quot;, sans-serif; font-size: 12px; font-weight: 200;" fill="rgb(50, 49, 63)" stroke="none" stroke-width="1px">100k</text><text x="108.5625" y="0" dx="0em" dy="0.95em" style="text-anchor: middle; visibility: hidden; font-family: &quot;Helvetica Neue&quot;, sans-serif; font-size: 12px; font-weight: 200;" fill="rgb(50, 49, 63)" stroke="none" stroke-width="1px">150k</text><text x="135.703125" y="0" dx="0em" dy="0.95em" style="text-anchor: middle; visibility: inherit; font-family: &quot;Helvetica Neue&quot;, sans-serif; font-size: 12px; font-weight: 200;" fill="rgb(50, 49, 63)" stroke="none" stroke-width="1px">200k</text><text x="162.84375" y="0" dx="0em" dy="0.95em" style="text-anchor: middle; visibility: hidden; font-family: &quot;Helvetica Neue&quot;, sans-serif; font-size: 12px; font-weight: 200;" fill="rgb(50, 49, 63)" stroke="none" stroke-width="1px">250k</text><text x="189.984375" y="0" dx="0em" dy="0.95em" style="text-anchor: middle; visibility: inherit; font-family: &quot;Helvetica Neue&quot;, sans-serif; font-size: 12px; font-weight: 200;" fill="rgb(50, 49, 63)" stroke="none" stroke-width="1px">300k</text><text x="217.125" y="0" dx="0em" dy="0.95em" style="text-anchor: middle; visibility: hidden; font-family: &quot;Helvetica Neue&quot;, sans-serif; font-size: 12px; font-weight: 200;" fill="rgb(50, 49, 63)" stroke="none" stroke-width="1px">350k</text><text x="244.265625" y="0" dx="0em" dy="0.95em" style="text-anchor: middle; visibility: inherit; font-family: &quot;Helvetica Neue&quot;, sans-serif; font-size: 12px; font-weight: 200;" fill="rgb(50, 49, 63)" stroke="none" stroke-width="1px">400k</text><text x="271.40625" y="0" dx="0em" dy="0.95em" style="text-anchor: middle; visibility: hidden; font-family: &quot;Helvetica Neue&quot;, sans-serif; font-size: 12px; font-weight: 200;" fill="rgb(50, 49, 63)" stroke="none" stroke-width="1px">450k</text></g><line x1="0" y1="0" x2="271.40625" y2="0" fill="rgb(0, 0, 0)" stroke="rgb(204, 204, 204)" stroke-width="1px"></line></g></g></g></g></svg>