<svg viewBox="0 0 330 200" xmlns="http://www.w3.org/2000/svg"><g><g><g><g><g><line x1="48.875" y1="177" x2="43.875" y2="177" style="visibility: inherit;" fill="rgb(0, 0, 0)" stroke="rgb(204, 204, 204)" stroke-width="1px"></line><line x1="48.875" y1="159.29999999999998" x2="43.875" y2="159.29999999999998" style="visibility: inherit;" fill="rgb(0, 0, 0)" stroke="rgb(204, 204, 204)" stroke-width="1px"></line><line x1="48.875" y1="141.6" x2="43.875" y2="141.6" style="visibility: inherit;" fill="rgb(0, 0, 0)" stroke="rgb(204, 204, 204)" stroke-width="1px"></line><line x1="48.875" y1="123.89999999999999" x2="43.875" y2="123.89999999999999" style="visibility: inherit;" fill="rgb(0, 0, 0)" stroke="rgb(204, 204, 204)" stroke-width="1px"></line><line x1="48.875" y1="106.19999999999997" x2="43.875" y2="106.19999999999997" style="visibility: inherit;" fill="rgb(0, 0, 0)" stroke="rgb(204, 204, 204)" stroke-width="1px"></line><line x1="48.875" y1="88.5" x2="43.875" y2="88.5" style="visibility: inherit;" fill="rgb(0, 0, 0)" stroke="rgb(204, 204, 204)" stroke-width="1px"></line><line x1="48.875" y1="70.79999999999998" x2="43.875" y2="70.79999999999998" style="visibility: inherit;" fill="rgb(0, 0, 0)" stroke="rgb(204, 204, 204)" stroke-width="1px"></line><line x1="48.875" y1="53.10000000000001" x2="43.875" y2="53.10000000000001" style="visibility: inherit;" fill="rgb(0, 0, 0)" stroke="rgb(204, 204, 204)" stroke-width="1px"></line><line x1="48.875" y1="35.400000000000006" x2="43.875" y2="35.400000000000006" style="visibility: inherit;" fill="rgb(0, 0, 0)" stroke="rgb(204, 204, 204)" stroke-width="1px"></line><line x1="48.875" y1="17.69999999999999" x2="43.875" y2="17.69999999999999" style="visibility: inherit;" fill="rgb(0, 0, 0)" stroke="rgb(204, 204, 204)" stroke-width="1px"></line><line x1="48.875" y1="0" x2="43.875" y2="0" style="visibility: inherit;" fill="rgb(0, 0, 0)" stroke="rgb(204, 204, 204)" stroke-width="1px"></line></g><g transform="translate(38.875, 0)"><text x="0" y="177" dx="0em" dy="0.3em" style="text-anchor: end; visibility: hidden; font-family: &quot;Helvetica Neue&quot;, sans-serif; font-size: 12px; font-weight: 200;" fill="rgb(50, 49, 63)" stroke="none" stroke-width="1px">0.35</text><text x="0" y="159.29999999999998" dx="0em" dy="0.3em" style="text-anchor: end; visibility: inherit; font-family: &quot;Helvetica Neue&quot;, sans-serif; font-size: 12px; font-weight: 200;" fill="rgb(50, 49, 63)" stroke="none" stroke-width="1px">0.4</text><text x="0" y="141.6" dx="0em" dy="0.3em" style="text-anchor: end; visibility: hidden; font-family: &quot;Helvetica Neue&quot;, sans-serif; font-size: 12px; font-weight: 200;" fill="rgb(50, 49, 63)" stroke="none" stroke-width="1px">0.45</text><text x="0" y="123.89999999999999" dx="0em" dy="0.3em" style="text-anchor: end; visibility: inherit; font-family: &quot;Helvetica Neue&quot;, sans-serif; font-size: 12px; font-weight: 200;" fill="rgb(50, 49, 63)" stroke="none" stroke-width="1px">0.5</text><text x="0" y="106.19999999999997" dx="0em" dy="0.3em" style="text-anchor: end; visibility: hidden; font-family: &quot;Helvetica Neue&quot;, sans-serif; font-size: 12px; font-weight: 200;" fill="rgb(50, 49, 63)" stroke="none" stroke-width="1px">0.55</text><text x="0" y="88.5" dx="0em" dy="0.3em" style="text-anchor: end; visibility: inherit; font-family: &quot;Helvetica Neue&quot;, sans-serif; font-size: 12px; font-weight: 200;" fill="rgb(50, 49, 63)" stroke="none" stroke-width="1px">0.6</text><text x="0" y="70.79999999999998" dx="0em" dy="0.3em" style="text-anchor: end; visibility: hidden; font-family: &quot;Helvetica Neue&quot;, sans-serif; font-size: 12px; font-weight: 200;" fill="rgb(50, 49, 63)" stroke="none" stroke-width="1px">0.65</text><text x="0" y="53.10000000000001" dx="0em" dy="0.3em" style="text-anchor: end; visibility: inherit; font-family: &quot;Helvetica Neue&quot;, sans-serif; font-size: 12px; font-weight: 200;" fill="rgb(50, 49, 63)" stroke="none" stroke-width="1px">0.7</text><text x="0" y="35.400000000000006" dx="0em" dy="0.3em" style="text-anchor: end; visibility: hidden; font-family: &quot;Helvetica Neue&quot;, sans-serif; font-size: 12px; font-weight: 200;" fill="rgb(50, 49, 63)" stroke="none" stroke-width="1px">0.75</text><text x="0" y="17.69999999999999" dx="0em" dy="0.3em" style="text-anchor: end; visibility: inherit; font-family: &quot;Helvetica Neue&quot;, sans-serif; font-size: 12px; font-weight: 200;" fill="rgb(50, 49, 63)" stroke="none" stroke-width="1px">0.8</text><text x="0" y="0" dx="0em" dy="0.3em" style="text-anchor: end; visibility: hidden; font-family: &quot;Helvetica Neue&quot;, sans-serif; font-size: 12px; font-weight: 200;" fill="rgb(50, 49, 63)" stroke="none" stroke-width="1px">0.85</text></g><line x1="48.875" y1="0" x2="48.875" y2="177" fill="rgb(0, 0, 0)" stroke="rgb(204, 204, 204)" stroke-width="1px"></line></g></g><g transform="translate(48, 0)" clip-path="url(#clip_0)"><clipPath id="clip_0"><rect width="281" height="177"></rect></clipPath><g><g><g><line x1="0" y1="0" x2="0" y2="177" fill="rgb(0, 0, 0)" stroke="rgb(60, 60, 60)" stroke-width="1px" opacity="0.25"></line><line x1="28.1125" y1="0" x2="28.1125" y2="177" fill="rgb(0, 0, 0)" stroke="rgb(60, 60, 60)" stroke-width="1px" opacity="0.25"></line><line x1="56.225" y1="0" x2="56.225" y2="177" fill="rgb(0, 0, 0)" stroke="rgb(60, 60, 60)" stroke-width="1px" opacity="0.25"></line><line x1="84.33749999999999" y1="0" x2="84.33749999999999" y2="177" fill="rgb(0, 0, 0)" stroke="rgb(60, 60, 60)" stroke-width="1px" opacity="0.25"></line><line x1="112.45" y1="0" x2="112.45" y2="177" fill="rgb(0, 0, 0)" stroke="rgb(60, 60, 60)" stroke-width="1px" opacity="0.25"></line><line x1="140.5625" y1="0" x2="140.5625" y2="177" fill="rgb(0, 0, 0)" stroke="rgb(60, 60, 60)" stroke-width="1px" opacity="0.25"></line><line x1="168.67499999999998" y1="0" x2="168.67499999999998" y2="177" fill="rgb(0, 0, 0)" stroke="rgb(60, 60, 60)" stroke-width="1px" opacity="0.25"></line><line x1="196.7875" y1="0" x2="196.7875" y2="177" fill="rgb(0, 0, 0)" stroke="rgb(60, 60, 60)" stroke-width="1px" opacity="0.25"></line><line x1="224.9" y1="0" x2="224.9" y2="177" fill="rgb(0, 0, 0)" stroke="rgb(60, 60, 60)" stroke-width="1px" opacity="0.25"></line><line x1="253.01250000000002" y1="0" x2="253.01250000000002" y2="177" fill="rgb(0, 0, 0)" stroke="rgb(60, 60, 60)" stroke-width="1px" opacity="0.25"></line><line x1="281.125" y1="0" x2="281.125" y2="177" fill="rgb(0, 0, 0)" stroke="rgb(60, 60, 60)" stroke-width="1px" opacity="0.25"></line></g><g><line x1="0" y1="177" x2="281.125" y2="177" fill="rgb(0, 0, 0)" stroke="rgb(60, 60, 60)" stroke-width="1px" opacity="0.25"></line><line x1="0" y1="159.29999999999998" x2="281.125" y2="159.29999999999998" fill="rgb(0, 0, 0)" stroke="rgb(60, 60, 60)" stroke-width="1px" opacity="0.25"></line><line x1="0" y1="141.6" x2="281.125" y2="141.6" fill="rgb(0, 0, 0)" stroke="rgb(60, 60, 60)" stroke-width="1px" opacity="0.25"></line><line x1="0" y1="123.89999999999999" x2="281.125" y2="123.89999999999999" fill="rgb(0, 0, 0)" stroke="rgb(60, 60, 60)" stroke-width="1px" opacity="0.25"></line><line x1="0" y1="106.19999999999997" x2="281.125" y2="106.19999999999997" fill="rgb(0, 0, 0)" stroke="rgb(60, 60, 60)" stroke-width="1px" opacity="0.25"></line><line x1="0" y1="88.5" x2="281.125" y2="88.5" fill="rgb(0, 0, 0)" stroke="rgb(60, 60, 60)" stroke-width="1px" opacity="0.25"></line><line x1="0" y1="70.79999999999998" x2="281.125" y2="70.79999999999998" fill="rgb(0, 0, 0)" stroke="rgb(60, 60, 60)" stroke-width="1px" opacity="0.25"></line><line x1="0" y1="53.10000000000001" x2="281.125" y2="53.10000000000001" fill="rgb(0, 0, 0)" stroke="rgb(60, 60, 60)" stroke-width="1px" opacity="0.25"></line><line x1="0" y1="35.400000000000006" x2="281.125" y2="35.400000000000006" fill="rgb(0, 0, 0)" stroke="rgb(60, 60, 60)" stroke-width="1px" opacity="0.25"></line><line x1="0" y1="17.69999999999999" x2="281.125" y2="17.69999999999999" fill="rgb(0, 0, 0)" stroke="rgb(60, 60, 60)" stroke-width="1px" opacity="0.25"></line><line x1="0" y1="0" x2="281.125" y2="0" fill="rgb(0, 0, 0)" stroke="rgb(60, 60, 60)" stroke-width="1px" opacity="0.25"></line></g></g></g><g><g><line x1="0" y1="300.9" x2="281.125" y2="300.9" fill="rgb(0, 0, 0)" stroke="rgb(153, 153, 153)" stroke-width="1.5px"></line></g></g><g><g><line x1="28.1125" y1="0" x2="28.1125" y2="177" fill="rgb(0, 0, 0)" stroke="rgb(153, 153, 153)" stroke-width="1.5px"></line></g></g><g><g><g><g><g><path stroke="rgb(255, 112, 67)" stroke-width="2px" d="M28.31491,-40.37670496702191L28.431858000000002,47.59080053665204L28.535311999999998,-14.217860139511913L34.031867999999996,-77.06811107552781L34.045362000000004,1.8726531307297307L34.108334,48.54274052584796L34.126326,36.95191723331973L34.34223,57.323280734284324L34.373716,11.277921021212336L34.571628000000004,-90.61880049619515L35.718618,-22.570684210995154L35.912031999999996,12.111619142001274L35.925526,-10.718751811434913L36.406812,26.026800128732248L36.505768,-10.158420713215435L36.735166,-43.00591858013098L36.811632,15.14396783032231L36.870106,14.925890528667622L37.270428,36.20725933287795L37.540307999999996,35.01277185186174L37.949626,56.09378391687065L38.003602,95.82827319971621L38.147538000000004,66.67128510398145L38.174526,68.43079822494094L38.286976,47.47796146174204L38.489386,75.84439645826912L38.858222000000005,61.41572182309643L39.069627999999994,58.06492497046003L39.146094000000005,55.89165579747676L39.155089999999994,89.22672119779324L39.177580000000006,90.67450418855512L39.29003,87.67242150536629L39.294528,76.1252386965242L39.348504000000005,41.024259648197074L39.370994,73.53582368938517L39.501436,74.22798769622081L39.568906,78.02033130257746L40.18963,102.75128653961073L40.43702,86.60179875443967L41.458065999999995,90.3799858078396L41.777423999999996,96.11329770952676L41.790918000000005,105.4707922605885L42.051801999999995,103.22302426267939L42.330678,86.19279369693562L42.641040000000004,99.68372851956822L42.704012000000006,114.10285043685994L42.713007999999995,114.34150806408744L42.717506,103.82741633022796L42.97839,106.62027125695329L43.76554,117.21603213989127L44.386264,127.49083426501387L44.39526,125.55732443634292L44.62016,127.92719264211428L44.939518,108.88197358239992L45.173414,107.9903896414596L45.267872,117.94993452568997L45.299358,104.73593081200211L45.780643999999995,93.25383381106904L45.906588,83.33174809013875L46.032532,91.06272779580993L46.266428,119.94248969720032L46.545304,114.95657740215198L46.986108,89.75540196764314L47.125546,95.21302126328851L47.148036,100.90682263422431L47.530366,119.9641315987612L47.539362000000004,105.59921857183606L47.9037,130.77212244311232L48.317516,117.2856466271833L48.393981999999994,109.69835603584978L48.48844,119.88182214468797L49.091172,122.15164311629583L49.109164,104.04747043551235L49.145148,113.34048025668397L49.648923999999994,98.05892616785015L49.711895999999996,80.88129467890526L49.882819999999995,73.27636545137084L49.936796,85.16772882244295L50.125712,85.53031884253801L50.472058,94.74798700941075L50.8274,94.27938112814707L50.836396,97.60365812062909L51.079288,111.57272730874833L51.205232,128.37444954042326L51.677521999999996,126.63728057458809L52.154309999999995,124.48348372408635L52.217282,95.55387813346911L52.491659999999996,87.50209517536955L53.071902,106.48789868866442L53.656642000000005,83.44286367723366L53.854554,99.52450551407948L54.236883999999996,85.5773533309544L54.326844,91.81253768712551L54.488772,117.55595998352925L54.520258,100.6373349069724L54.682185999999994,95.57523733372508L54.776644,85.17778539416202L55.055519999999994,97.17133918617371L55.14548,98.91231666096573L55.644758,71.19429342561082L55.689738,85.71598993666836L56.000099999999996,95.64448855237882L56.058574,73.09003476808502L56.085561999999996,96.97467020815627L56.144036,87.95318849841367L56.400422,75.74122377371557L56.503876,99.98878837666375L56.791748,82.90455857897676L57.439460000000004,87.70442906370684L57.682352,73.7570998248513L57.812794,78.83075555187796L58.055686,90.63386431707345L58.231108,112.09328284843805L58.244602,116.50931010594391L58.298578,109.71865694254889L58.438016,109.0416506894246L58.941792,104.67312870787475L59.445568,74.2705662963801L59.562516,100.07455676066954L60.075288,93.65902549545812L60.111272,95.96550116611031L60.29569,90.20290286107367L60.709506000000005,97.99243550517265L60.997378,114.07123963009181L61.213282,101.3449678037814L61.316736,63.428564964190215L61.6226,94.6172052588791L61.66758,79.42091344158234L61.681073999999995,82.44022984481084L61.748544,95.00718744263784L61.896978000000004,113.73741176882825L62.715614,90.67977498030329L63.01698,108.60730895790854L63.142924,101.14745218153831L63.187903999999996,109.3025310051205L63.345334,122.74251414369118L64.056018,118.26325356144054L64.39336800000001,124.45971470343079L64.90614,126.68769194404486L65.090558,132.2824123580468L65.598832,110.14271917576862L65.72927399999999,101.00339083811802L65.75176400000001,96.46511801803804L65.79224599999999,100.70938893750127L66.19706599999999,63.6905495536018L66.21056,91.11719286273053L66.336504,88.04702065843419L66.381484,87.2719803336744L66.799798,83.5528735544374L66.95273,101.26147458470406L67.22261,112.67095760772551L68.045744,93.11186636608792L68.162692,87.93221224976747L68.176186,85.72028545876246L68.270644,90.17828043663444L68.30213,100.88875919558967L68.563014,101.0309806321762L68.590002,86.93366555063139L68.84188999999999,91.94603427224287L69.76398,77.43203783972818L70.015868,96.19253424730154L70.15980400000001,94.55206726507099L70.55113,127.98912904331536L70.699564,109.36719908278853L71.05490599999999,103.68065185285609L71.08639199999999,105.7898623736918L71.14486600000001,109.63075036717774L71.414746,137.06262533970667L71.54968600000001,127.65142494862076L71.65314,154.20663430705545L71.734104,120.36097862729356L72.386314,120.06463930612165L72.674186,95.83418631080008L73.35338399999999,111.90490892602926L73.470332,114.09304712220387L74.33394799999999,128.59033488991471L74.365434,124.1461229882396L74.87370800000001,106.7597154570673L74.887202,111.21533631998625L74.98166,122.15563865493729L75.24704200000001,114.27651904577611L75.440456,108.5341689119017L75.82278600000001,94.25599611337637L75.962224,104.00998233637601L76.03419199999999,114.81481609631413L76.11065799999999,96.86137530499003L76.290578,101.08044494922936L76.49748600000001,100.14569806656826L76.501984,78.33800001860612L76.60094,102.1598990292606L76.75837,102.29032581396443L76.875318,125.6503116306516L76.9158,112.26680689912156L77.149696,107.83454856551357L77.16319,77.7653583221237L77.316122,88.4276607330203L77.334114,121.76822462413074L77.437568,128.52241037090636L77.464556,134.56166400551803L77.473552,121.56593513274196L77.68046,118.875763519907L78.049296,106.79293267745017L78.134758,110.10401731978797L78.17524,133.44237258345453L78.481104,124.57184479183294L78.4901,111.96140403238738L78.75998,111.8868537681568L79.475162,106.512142711715L79.71355600000001,121.33478738655812L79.803516,131.18686058157783L79.942954,95.78031856795607L79.983436,89.03469796526706L80.059902,93.7521489450233L80.13636799999999,77.32419558458906L80.505204,81.54234312589992L80.60865799999999,80.85582938323036L80.67163,105.19583022671708L81.00448200000001,117.8326145272122L81.517254,109.26942498807111L81.949062,98.74718509271145L81.971552,128.37296416613106L82.13347999999999,121.64212281616113L82.272918,121.6002027077173L82.709224,111.00093226687281L82.826172,92.14997500572306L82.844164,88.63416211601317L82.91613199999999,100.61657525537146L83.105048,131.0650196971758L83.39292,152.8487502731242L83.406414,119.21726475699893L83.478382,104.30602481451123L83.91019,113.68771612695744L84.148584,108.73982733280593L85.106658,81.77236792678318L85.232602,102.24315022727657L85.70939,127.4841949039746L86.033246,97.80280738199049L86.312122,99.81337303354915L86.662966,109.72722382566081L86.739432,132.35094569218603L86.86087799999999,123.27980952079562L86.95533599999999,130.2430465353457L87.009312,124.28450638609695L87.07678200000001,130.98666102980118L87.333168,127.37711859282578L87.66152199999999,110.0679588922067L88.156302,118.26262187768242L88.394696,97.56644731407891L88.412688,96.940873666081L88.853492,111.95899502007552L89.04240800000001,111.1178309510254L89.271806,104.97044051588196L89.37526,125.71983696520698L89.640642,107.37595631540042L89.654136,96.85245601809154L90.07694799999999,103.75293375299053L90.22988000000001,93.33759962824392L90.38730999999999,112.0136071259225L90.562732,132.2470301374462L90.97654800000001,100.33831084636847L91.075504,125.53743022959233L91.44434,115.52629339623928L92.078558,108.88116615729616L92.375426,94.12185890267541L92.406912,107.10247824424656L92.44739399999999,111.82381071707098L92.52386000000001,90.67850303447534L92.604824,93.21011358139687L92.870206,68.06871823810205L93.095106,80.73725875581901L93.306512,89.09500533321857L93.58988599999999,77.2857186769209L93.92723600000001,66.72285095064413L93.954224,90.8778677034889L94.089164,108.76265078833785L94.12964600000001,112.4202878454392L94.174626,112.25207024449496L94.588442,137.67455079099173L94.62892400000001,130.041753742341L94.646916,132.84358417346704L94.723382,119.27780311676636L95.011254,130.61143450124726L95.096716,137.09883893599311L95.703946,110.8842867771995L95.98732000000001,131.8774183941014L96.194228,112.6143532104568L96.39214000000001,113.1716109077499L96.778968,107.29058457138332L97.039852,119.86821490718239L97.710054,123.56470601435491L97.71905000000001,112.61136647627347L97.86298599999999,113.69950593808647L98.00242399999999,128.644462388154L98.267806,118.04528926455743L98.91102,151.98307612087586L99.01897199999999,156.2317161807195L99.059454,160.13823652319763L99.306844,140.75205293686778L99.986042,135.1345432579016L100.049014,152.33569017288062L100.50781,142.69495153926L100.602268,153.60035218061319L101.20050200000001,142.16780654705352L101.524358,138.49366422722807L101.623314,141.1413534511928L101.69978,133.16429568468357L101.906688,148.37890269004598L102.05962,147.75133559252794L102.35199,152.48820115772472L102.71183,143.15811430959454L103.053678,109.51136825769275L103.215606,129.01389646464065L103.714884,127.16087578257009L103.719382,99.18250784945538L103.87231399999999,114.66593696637185L103.93528599999999,107.63603861071607L104.124202,120.88808801494802L104.875368,128.88470807267882L105.014806,127.698534537516L105.167738,118.90432342598552L105.653522,126.20536433642934L105.801956,120.49374487749238L105.88292,120.98381073684394L105.891916,109.41474705344974L105.999868,109.74173392657363L106.004366,113.33438329341365L106.01786,132.24926964069815L106.10332199999999,122.22855349317439L106.260752,115.25789483508612L106.40019,106.47509919238775L106.57561199999999,91.39722659726553L106.620592,105.62428650939235L107.020914,90.6487558083759L107.08388599999999,116.49033908587852L107.214328,114.02056225622987L107.25031200000001,117.50757089904127L107.380754,101.18403726369843L107.826056,93.21622719258491L108.865094,133.5504572837974L108.99103799999999,132.97398985680493L109.03152,118.95378684316015L109.157464,116.52665038653574L109.31489400000001,95.0979950269959L109.36887,80.46167140012395L109.65674200000001,59.53767107966786L110.26397200000001,86.77028236772561L110.506864,101.57332703820431L111.105098,109.3673452791665L111.10959600000001,128.44654936892354L111.739316,130.79391391815284L112.283574,108.54182334745849L112.31506,130.1575665569599L112.87731,113.48549729921194L113.38558400000001,137.4465960737334L113.471046,127.88406931378043L113.59699,133.09750998388287L113.695946,134.35614844543073L113.79040400000001,117.79558442820512L114.096268,125.33380048507098L114.33466200000001,102.15756684919383L114.595546,91.64298357951749L114.79345799999999,100.83749957077569L115.75603000000001,132.87688882823508L115.836994,105.51363340184523L115.93594999999999,118.21443751314541L115.962938,120.73477764403376L116.45322,97.54772990390988L116.516192,121.23486437228519L116.56567,105.85533313409802L116.81306000000001,103.94498313698959L116.862538,107.33924946089857L116.889526,93.59544908106491L117.15490799999999,107.68075938642122L117.276354,90.6947998834854L117.37980800000001,104.5947272058252L117.694668,132.24331299280664L117.793624,123.59311481365884L117.942058,125.39998580008341L118.05001,135.70759183519837L118.22993,108.28979482623195L118.310894,122.68637273295079L118.337882,110.92855672349546L118.35137599999999,107.26548823064573L118.693224,111.47906438080075L118.697722,115.47449870805501L118.90912800000001,82.52931178510522L119.04856600000001,86.2588628679534L119.170012,110.31911594331383L119.183506,112.32281365549635L119.205996,129.58728482816264L119.525354,119.10492632444885L119.574832,121.85721778426282L119.79523400000001,127.15639785023757L120.05162,126.33781464512484L120.25402999999999,127.9811367584189L120.43844800000001,136.41204009967564L120.496922,109.41809990476081L120.50142000000001,124.99729678672855L120.600376,123.39428019071998L120.67234400000001,129.85417025771966L121.171622,98.34642307214277L121.26608,104.20909954221449L121.576442,84.79968430227876L121.58993600000001,113.9370362474134L121.594434,91.56294082841936L121.810338,82.87960443998372L121.91829,88.50381700816749L122.512026,102.51902934445737L122.87186600000001,103.28288487275718L122.93034,89.03093941974804L123.21821200000001,114.10149417858221L123.510582,107.34080526912747L123.614036,116.61485549977144L123.991868,130.98562120658588L124.005362,117.21071281947152L124.02785200000001,105.03114409755143L124.329218,125.58103168672604L124.41018199999999,124.18722537914684L124.747532,120.26015647268156L124.92295399999999,117.95366903314508L125.633638,102.88155330282164L125.82255400000001,114.57876226104324L125.827052,107.65759238241327L126.119422,112.79475885771637L126.14641,110.65954952086763L126.263358,91.2295246973381L126.357816,111.47566291181718L126.384804,127.05885504536911L127.095488,128.25249336035898L128.17051,123.80632686300186L128.228984,105.21660109331079L128.38191600000002,118.20251601678054L128.489868,127.81100244129848L128.55284,101.04616029504034L128.678784,116.3612526240533L129.191556,134.1983890380016L129.348986,124.16724834475227L129.515412,104.80340206166092L129.92473,121.68951965057843L130.50947,121.7591656821012L130.84682,143.95589004379747L131.25164,144.74527964605232L131.265134,121.11856524475421L131.92633999999998,119.31875067906384L131.944332,98.73624295924189L132.137746,88.70884883722115L132.18722400000001,102.24600061130792L132.232204,119.19525886745612L132.385136,126.40002128345583L132.430116,128.31041783370267L132.547064,114.0370135061603L132.749474,136.8351440616048L132.852928,130.01750271007995L133.082326,110.64602109244812L133.190278,100.00170997411814L133.27574,96.11949599522835L133.487146,90.08921984635883L133.99542,99.17793968560154L134.215822,95.86552112604294L134.58016,91.75374285522173L134.629638,105.93147955979744L134.719598,120.76112964299821L135.04795199999998,111.13710672943296L135.304338,91.58075175814928L135.78562399999998,86.84580657323062L136.419842,82.2889332237235L136.595264,76.51647880210824L136.725706,91.78801395973174L137.117032,84.4624489550627L137.332936,69.11682842760305L137.34193199999999,71.41593480222832L137.512856,114.46644993849642L137.61631,80.48318070070773L137.935668,80.63363115487591L138.569886,122.38804458438216L138.857758,121.6744369057349L139.298562,111.6362065045554L139.33454600000002,127.80716834834328L140.01824200000001,122.2873590706057L140.117198,103.25527377595108L140.265632,130.25206292432307L140.598484,140.76798311687566L140.77390599999998,113.6598126495901L141.16073400000002,121.48523601085085L141.48908799999998,120.39170976752122L141.601538,128.43343738242436L141.660012,151.20253816321164L141.70049400000002,158.46788313790958L142.055836,151.1725524211216L142.32121800000002,142.6052101435833L142.83399,117.9603500928028L142.90146,133.33941616568228L143.25680200000002,128.31671304436483L143.64812799999999,116.55321510155176L144.04845,103.52499385547145L144.214876,101.7340649454087L144.372306,99.01621927310765L144.70515799999998,94.15349149161422L145.26290999999998,106.56291430624628L145.35736799999998,135.23332616706077L145.39785,139.45110401284327L145.469818,149.60442334635036L145.753192,132.8397835720955L145.75769000000003,143.223781799637L145.82066200000003,134.14866861782235L146.373916,132.64723695922947L146.423394,145.8641095114294L146.873194,171.7340899057712L147.17455999999999,153.38903855726278L148.07415999999998,121.45426645901891L148.645406,119.39352050201353L148.649904,130.2191579841152L148.780346,132.38952514306158L148.78934199999998,123.21982301697402L149.234644,136.5480905713157L149.909344,119.27890861639474L150.197216,89.76014598732648L150.224204,136.8160059578744L150.251192,123.08015820309681L150.269184,92.82057613447407L150.273682,119.96846604296626L150.790952,115.91642394989168L151.038342,91.3532103593912L151.578102,84.44242801998654L151.82999,69.33734679421542L152.270794,90.63492385030241L152.31577399999998,108.52725148844989L152.34725999999998,130.3273087158696L152.428224,125.2820505604086L152.68461000000002,130.71378524690496L152.882522,139.90672398322596L153.26935,149.6280552048312L153.67866800000002,121.96201856486954L153.68766399999998,98.96844173164938L153.8316,99.75816542084081L153.912564,105.75686054095664L155.185498,107.29434164920474L155.302446,118.51581255292312L155.50035799999998,141.3224640446628L155.74774799999997,137.15545880304126L156.026624,141.0712600535533L156.08509800000002,131.510888346814L156.49891399999998,128.48731655167512L156.629356,110.30759513310772L156.80477800000003,103.87041433770767L158.06421799999998,110.68401928972786L158.41956000000002,111.0269750465845L158.536508,138.325893179768L158.635464,127.67555987369639L158.720926,128.34323185164703L158.83337600000002,135.65584239410742L158.90534399999999,115.90676004080406L158.95932000000002,122.28417029373902L159.15273399999998,84.58082571025524L159.45859800000002,90.95576577184102L159.73747400000002,93.59061979292332L160.67305800000003,97.92035313033163L160.704544,112.28870511760176L160.745026,114.71958366817154L160.969926,122.75185912481496L160.98342000000002,126.95468110580177L161.077878,105.61763851844626L161.21731599999998,111.28560678126426L161.302778,114.13864747024782L161.91450600000002,118.21525512300255L162.278844,125.37481767989587L162.283342,118.5965599099242L162.436274,116.7018801235821L163.05249999999998,107.15840950153266L163.07499,102.87329979027504L163.191938,130.12460184624905L163.398846,141.57034019309947L163.466316,140.60000296401182L163.835152,127.87113393287183L164.02856599999998,115.48312911117269L164.145514,100.60920149281142L164.32993199999999,108.18041219588828L164.523346,94.62907419131228L165.11708199999998,107.66257793382422L165.14856799999998,107.0308042542673L165.16656,111.49646212676386L165.625356,129.14726242792142L165.805276,118.60144426209646L166.228088,132.85802979101487L166.29106000000002,140.83798394459336L166.372024,146.7791962352863L166.56094,122.9621851854009L167.78439600000002,125.99328762128843L168.02279,158.27120492121512L168.558052,127.03283719337546L169.376688,110.21479891369677L169.54311399999997,143.74274702209198L169.965926,103.01549580656268L170.681108,99.56667545177208L170.798056,109.75992715559997L170.97797599999998,132.5004975426352L171.184884,99.79738987613653L171.477254,91.08836688237749L171.50874,121.24876963637686L171.544724,123.63876291002285L171.760628,100.79095033100518L171.80111,108.69537571007771L172.066492,102.3860471995757L172.124966,107.72161098194634L172.777176,120.28597994728395L172.831152,131.23254543354219L172.97958599999998,126.10286917334858L173.168502,119.10908932474888L173.460872,154.3625782286384L173.793724,130.82959709854472L174.00512999999998,154.84072806770533L174.29749999999999,133.68337490519838L174.427942,164.43159091449354L174.486416,137.82882855878216L174.796778,131.9413450726625L174.81027200000003,113.9558479505036L175.003686,120.00017370446045L175.224088,116.08345269717886L175.475976,120.42726565097637L176.06971199999998,120.13179093775071L176.105696,122.05823538170407L176.137182,120.3695671025881L176.555496,117.16957442903335L176.609472,115.87711946096312L176.699432,116.68313699678353L177.212204,116.57446927616462L177.230196,102.01436536544242L177.351642,117.09660689016386L177.360638,115.14102960574745L177.765458,88.92869116394591L178.080318,108.48419973331018L178.201764,108.79502123998L178.23325,129.1252073288345L178.24674399999998,105.65116639139556L178.359194,106.52817552567903L178.970922,93.97772986222141L179.384738,122.37616205292247L179.416224,145.87136648701014L179.821044,120.94216380242338L179.861526,127.90817896916764L179.915502,129.08840411898075L180.00096399999998,142.5370539879595L180.07743,142.3376767287132L180.320322,147.2495542651103L180.37429799999998,132.60313051019227L180.486748,142.97485915824245L180.65317399999998,115.19774924280924L180.914058,113.73477413751291L181.12096599999998,103.33393142281538L181.20642800000002,125.44268564735987L181.23791400000002,134.58756374093971L181.444822,131.65014600976158L181.678718,98.57549978389649L181.69221199999998,127.74430445846505L181.849642,130.22717922697416L182.434382,120.11728980165691L182.66827800000002,115.57507474197132L182.672776,112.47396235807646L182.767234,105.27560829367582L183.014624,106.43234429863897L183.40595,120.38799159352664L183.410448,95.9164012087863L183.58137200000002,93.01921429476032L183.73880200000002,102.07821679020456L183.779284,121.71012896004041L183.95470600000002,134.95934588493537L184.17510800000002,130.2446632408001L184.42249800000002,115.32063308852301L184.566434,107.43179255185953L184.993744,101.61982864772338L185.67744,76.56788180014526L185.897842,115.09736141765735L186.05977,110.19639326813589L186.33864599999998,101.6975121216939L186.684992,87.89342769843137L186.698486,96.60269919909115L187.040334,84.63135467456024L187.134792,88.43504560045149L187.17077600000002,87.09731968433705L187.22925,104.27832780951886L187.23824599999998,102.67556102439539L187.26523400000002,120.70374243834483L187.70603799999998,120.80497271405976L187.715034,123.47062528245046L188.10636000000002,125.009008155539L188.119854,128.5845160021033L188.2413,135.91479366383828L189.010458,130.58601710177584L189.041944,127.27008451567367L189.338812,127.77832288233205L189.361302,115.81946442298747L189.829094,101.45236806495582L189.90556,124.85407334580182L190.20692599999998,135.12183046110962L190.296886,128.849511536172L190.778172,158.62390623582064L191.012068,129.25247323329842L191.07953799999999,148.5635908688044L191.147008,125.41466386347625L191.218976,151.21290417212018L191.27745,126.37652552901366L191.43488,117.3955226801554L191.520342,118.15359174148554L191.551828,116.17466967425533L192.599862,99.61257507039183L192.869742,109.51366853256866L193.004682,119.31352270328907L193.090144,125.27579289843982L193.490466,111.27003660065141L193.665888,124.15185592092399L193.68388000000002,128.26234478424385L193.724362,128.02283172768588L193.75135,109.27927030660058L193.8638,122.28971900425759L194.12018600000002,91.91954312016016L194.776894,95.27019879156019L195.298662,93.26095780452292L195.447096,96.71739202928664L195.93737800000002,106.97217860097956L195.964366,117.68599390909236L196.00484799999998,117.48788171723581L196.58509,121.06201588699278L196.738022,104.73059290164146L197.88951,111.26396672197241L197.97497199999998,112.26440321128402L198.168386,97.16745598507423L198.478748,125.78780124779044L199.445818,139.75933847305475L199.900116,129.11968471453963L200.14750600000002,128.5190854277991L200.214976,134.0833186606635L200.525338,166.44604767919L200.67827,132.5823914001013L201.011122,118.99751715359838L201.08309,109.61702550707908L201.132568,106.56052207266481L201.28549999999998,104.13768401691433L201.64534,119.46402769416042L201.919718,127.85084554391781L201.924216,130.19381157420682L202.18509999999998,133.22780564703112L202.27506000000002,136.34420056866148L202.468474,136.28756972149932L202.49096400000002,153.7544321155305L202.81482,144.15356147860024L203.449038,140.47425040110667L203.552492,114.6933398372216L203.55698999999998,143.75388800420063L204.168718,140.09172139714775L204.600526,137.3687644705213L204.86590800000002,120.44126468092423L204.915386,134.22119938606156L206.192818,140.483968143905L206.37723599999998,138.39609845950886L206.692096,147.34834553047827L206.81804,131.59029514101036L207.047438,108.2851511007958L207.483744,119.47562017002187L207.62318199999999,86.45851406787921L207.645672,116.10882193407471L207.722138,130.57076163387927L207.951536,96.12889626560586L208.12246,106.8129230292915L209.040052,101.88426814748517L209.36390799999998,111.99425244256062L209.836198,109.79216958000782L210.22752400000002,116.50020410129142L210.2815,117.40286814635223L210.425436,101.24076846280826L210.55138,110.89524121665438L210.94270600000002,122.60263019313501L210.987686,122.20642699664882L211.014674,107.71453642526893L211.032666,120.48478937911767L211.172104,141.93426710586417L211.1811,136.06999249351423L211.244072,140.32073409970045L211.27105999999998,158.88537836799287L211.599414,113.10572368102828L212.71042,121.88818247197605L213.106244,130.0121181528481L213.223192,118.7849091935582L213.628012,115.03297407677333L213.749458,100.70143843204119L214.06431800000001,108.52057119673692L214.370182,142.55540131369952L214.44215,124.50620074534253L214.739018,111.48653801121614L214.95492199999998,105.8953343477148L215.02689,132.8611014369904L215.157332,150.06959818862552L215.269782,145.09710929788756L215.355244,127.88644270657066L216.002956,89.47306488846873L216.03894000000003,85.45699959096395L216.326812,98.22344907937696L216.44825799999998,104.44382311355024L217.055488,121.802865451878L217.086974,122.50968363422493L217.167938,120.15154802881682L217.631232,127.83114443828464L217.739184,124.6739045394051L217.784164,111.13312953547168L217.847136,98.3190952982636L218.126012,103.9338812950928L218.553322,93.10606920025816L218.85019,101.93464792312426L218.90866400000002,108.82825826490665L219.0526,105.06814647009816L219.13356399999998,131.54369736844802L219.178544,113.15300194462837L219.273002,129.85416663670958L219.763284,135.22722622504483L220.078144,137.20920199364812L220.518948,115.16741597539419L221.045214,116.48715346745392L221.216138,106.33838669831596L221.364572,109.42910600885773L221.441038,103.01692849865569L221.61646000000002,92.90418329281219L222.704976,107.98016045118933L222.77694400000001,126.7824916078184L223.424656,99.31307245454391L223.658552,121.41443859792471L223.856464,98.4506347945733L224.013894,105.86897588559405L224.14883400000002,113.59128920071373L224.256786,127.43870359321265L224.36473800000002,126.34893509900466L224.400722,104.66819204542577L224.4502,109.40916251691303L224.454698,121.08673816413953L224.72457799999998,122.82654792720838L224.846024,115.95571856650571L224.86401600000002,104.38591813178573L224.931486,96.70144291360208L225.04843400000001,92.29363048815146L225.09791199999998,77.3635013481582L225.14739,82.49995802286892L225.295824,100.53347108390109L225.678154,137.44776732460366L225.916548,114.49892931184593L225.93454,107.49116944433105L225.99301400000002,95.48879805064712L226.352854,95.95562925610847L226.37084599999997,124.80558457537835L226.49229200000002,127.80784986117092L226.532774,97.39175824700956L226.9241,90.92571839081744L226.955586,89.6274738907069L227.15349799999998,122.22412986512482L227.391892,121.94453704688249L227.54932200000002,126.3633697148162L227.56731399999998,109.63404657101616L227.841692,129.26508142504682L228.277998,133.05675322743411L228.448922,132.8532100709209L228.65582999999998,161.22740289878422L228.660328,149.63162867374166L228.673822,138.2238229855713L228.92571,131.72934966712097L229.303542,152.84915244000496L229.411494,149.37580352435913L229.631896,125.48592390424254L229.694868,123.6144334280863L230.36057200000002,134.79439258363095L230.495512,119.17656317583467L230.760894,145.67133250732272L230.99029199999998,111.63959827720554L231.91688000000002,123.7720180052485L231.957362,129.98000115501677L232.047322,146.15345001189587L232.18676,159.11177071075844L232.19575600000002,132.54479108894589L232.80298599999998,136.60736930516197L232.964914,119.42258404342434L233.162826,124.99882662444175L233.42820799999998,120.12433675377883L233.48218400000002,123.24188104301282L233.990458,113.64719639199728L234.156884,129.00979969249815L234.296322,106.06117977468163L234.45375199999998,123.4887988291263L235.128452,127.938415544157L235.168934,124.83193451936529L235.29038,134.06920962557487L235.42532,98.30324157849127L235.578252,77.71386877521972L235.780662,120.03284827128114L235.81664600000002,125.76505888018048L235.94259,113.77866195507664L236.450864,110.5003502873648L236.522832,108.52070326018743L236.626286,105.70624511246926L236.801708,107.54052645209461L236.878174,98.48361835386174L237.26500199999998,100.05240938130507L237.305484,123.52158934273416L237.458416,119.42374229430017L237.97568600000002,119.99241777419363L238.151108,126.74748369311877L238.385004,109.30460418376676L239.680428,112.73988947101446L239.774886,132.84748960988532L240.409104,114.33583208952433L240.60251799999998,109.42338856836608L240.840912,118.97186240184573L240.872398,136.0773056401507L240.962358,125.92706791244126L241.079306,116.46415916253434L241.484126,127.3925665186006L241.71802200000002,153.72374950207222L241.987902,174.14538614724248L242.019388,164.62593721374373L242.14983,148.6920011557609L242.38822399999998,121.85380920633494L242.406216,112.50054499187958L242.46469000000002,123.54747651981647L242.52766200000002,127.27733335833153L242.635614,114.55672557080031L242.68959,117.04363828017856L242.833526,118.63400239178264L242.865012,110.95445411222413L242.927984,108.62973305235646L243.436258,102.48532265573944L243.485736,104.06598174423102L243.512724,124.71117988497092L243.69714199999999,116.97993407768055L243.715134,96.45830552412298L243.778106,119.82855006595389L243.88155999999998,118.52100824201068L244.358348,123.21148042967296L244.551762,133.1649004142903L244.74967400000003,120.2978496361627L244.830638,126.02125916295371L244.90260600000002,94.62823016055299L245.037546,112.2548632872574L245.347908,138.89942150190308L245.910158,152.17430278345844L246.10357199999999,145.10162669590056L246.112568,136.0366904721912L246.278994,159.39883759893516L246.283492,158.34100935982192L246.328472,135.97497172192647L246.36445600000002,130.83146169564674L246.47690599999999,120.80447080362768L246.85023999999999,134.1325942768391L246.87273000000002,161.90240844808432L246.94019999999998,138.43977338267808L247.81281199999998,111.5733626830187L248.433536,126.76881777689495L249.387112,138.96715305474783L249.737956,114.80679564373126L249.980848,124.05840670047061L250.09329799999998,126.01980004655036L250.660046,132.83571994034477L251.02438400000003,125.28155849771515L251.24478599999998,115.64322228429802L251.298762,127.19419386862567L251.384224,124.36647055434497L251.64960599999998,140.14531521491594L252.17137400000001,146.7064158564352L252.526716,129.53007234367985L252.715632,137.7815061738089L253.039488,125.87095397055121L253.066476,109.7191997226475" style="fill: none;" fill="none"></path></g></g></g></g><g opacity="0.2"><g><g><g><path stroke="rgb(255, 112, 67)" stroke-width="2px" d="M28.301416,-217.71988663673397L28.31491,66.02920403480529L28.431858000000002,132.03960582017896L28.535311999999998,-86.90484509468081L28.863666,5.522569441795355L29.142542000000002,-54.53442320823669L29.497884,-183.59719047546383L29.50688,54.144118809700004L29.542864,-281.37939534187313L31.64343,-31.65448472499847L31.719896000000002,47.03783490657807L31.746884,-97.52487716674807L31.872828000000002,-149.67026052474978L32.480058,31.20246269702912L32.673472,61.23506298065185L32.907368,-191.21764025688168L34.031867999999996,-72.71531853675842L34.045362000000004,120.28379001617431L34.108334,118.54786827564239L34.126326,19.56568279266358L34.34223,87.88032546043395L34.373716,-57.79011783599853L34.706568,-362.3595927715302L34.962954,27.72996511459351L35.093396,50.08231809139251L35.165364000000004,-48.21690115928649L35.237332,62.78581073284148L35.718618,-52.40483794212341L35.912031999999996,64.1350741624832L35.925526,-44.964308238029474L36.406812,81.14512803554534L36.505768,-64.43625197410583L36.735166,-53.43203029632568L36.811632,102.36879744529723L36.870106,14.59877457618714L37.270428,68.12931253910064L37.540307999999996,33.22104063034058L37.949626,87.71530201435088L38.003602,155.43000712394712L38.147538000000004,22.93580296039582L38.174526,71.07006790637969L38.286976,16.048706316947943L38.489386,118.39404895305633L38.858222000000005,39.772709870338446L39.069627999999994,53.038729691505424L39.146094000000005,52.631752038002006L39.155089999999994,139.22931929826734L39.177580000000006,92.84617867469787L39.29003,83.16929748058318L39.294528,58.8044644832611L39.348504000000005,-11.627208924293512L39.370994,122.30316975116729L39.501436,75.2662337064743L39.568906,83.70884671211242L40.18963,139.84771939516065L40.43702,62.377567076683036L41.458065999999995,96.04726638793944L41.777423999999996,104.71326556205749L41.790918000000005,119.50703408718108L42.051801999999995,99.85137226581573L42.330678,60.64744784832L42.641040000000004,119.92013075351714L42.704012000000006,135.73153331279752L42.713007999999995,114.69949450492858L42.717506,88.05627872943877L42.97839,110.80955364704131L43.76554,133.10967346429823L44.386264,142.90303745269773L44.39526,122.65705969333648L44.62016,131.4819949507713L44.939518,80.31414499282836L45.173414,106.65301373004912L45.267872,132.8892518520355L45.299358,84.91492524147033L45.780643999999995,76.03068830966949L45.906588,68.44861950874328L46.032532,102.6591973543167L46.266428,163.26213254928587L46.545304,107.47770895957946L46.986108,51.95363881587981L47.125546,103.39945020675658L47.148036,109.44752469062804L47.530366,148.55009504556654L47.539362000000004,84.05184903144836L47.9037,168.53147825002668L48.317516,97.05593290328979L48.393981999999994,98.31742014884948L48.48844,135.15702130794523L49.091172,125.55637457370757L49.109164,76.89121141433715L49.145148,127.27999498844146L49.648923999999994,75.1365950345993L49.711895999999996,55.11484744548797L49.882819999999995,61.868971610069266L49.936796,103.0047738790512L50.125712,86.07420387268066L50.472058,108.57448925971984L50.8274,93.57647230625152L50.836396,102.5900736093521L51.079288,132.5263310909271L51.205232,153.57703288793562L51.677521999999996,124.03152712583541L52.154309999999995,121.25278844833373L52.217282,52.159469747543326L52.491659999999996,75.4244207382202L53.071902,134.9666039586067L53.656642000000005,48.87531116008759L53.854554,123.64696826934814L54.236883999999996,64.65662505626678L54.326844,101.16531422138213L54.488772,156.1710934281349L54.520258,75.25939729213714L54.682185999999994,87.98209097385406L54.776644,69.5816074848175L55.055519999999994,115.16166987419128L55.14548,101.52378287315368L55.644758,29.617258572578436L55.689738,107.49853470325469L56.000099999999996,110.53723647594451L56.058574,39.25835409164429L56.085561999999996,132.80162336826322L56.144036,74.42096593379974L56.400422,57.42327668666839L56.503876,136.36013528108595L56.791748,57.27821388244628L57.439460000000004,94.904234790802L57.682352,52.836105966567985L57.812794,86.4412391424179L58.055686,108.33852746486663L58.231108,144.2824106454849L58.244602,123.13335099220275L58.298578,99.53267719745635L58.438016,108.02614130973815L58.941792,98.12034573554992L59.445568,28.66672267913819L59.562516,138.7805424571037L60.075288,84.03572859764098L60.111272,99.42521467208861L60.29569,81.55900540351867L60.709506000000005,109.6767344713211L60.997378,138.18944581747053L61.213282,82.25556006431579L61.316736,6.5539607048034725L61.6226,141.40016570091245L61.66758,56.6264757156372L61.681073999999995,86.96920444965362L61.748544,113.85762383937835L61.896978000000004,141.83274825811384L62.715614,56.09331979751586L63.01698,135.49860992431638L63.142924,89.95766701698302L63.187903999999996,121.53514924049377L63.345334,142.90248885154722L64.056018,111.54436268806457L64.39336800000001,133.75440641641615L64.90614,130.02965780496595L65.090558,140.67449297904966L65.598832,76.93317940235137L65.72927399999999,87.29439833164214L65.75176400000001,89.65770878791808L65.79224599999999,107.07579531669616L66.19706599999999,8.162290477752691L66.21056,132.25715782642362L66.336504,83.44176235198974L66.381484,86.10941984653472L66.799798,77.97421338558196L66.95273,127.82437613010406L67.22261,129.78518214225767L68.045744,63.77322950363158L68.162692,80.16273107528686L68.176186,82.40239527225494L68.270644,96.86527290344237L68.30213,116.95447733402251L68.563014,101.24431278705596L68.590002,65.7876929283142L68.84188999999999,99.46458735466003L69.76398,55.66104319095611L70.015868,124.33327885866164L70.15980400000001,92.09136679172515L70.55113,178.14472171068192L70.699564,81.43430414199828L71.05490599999999,95.15083100795745L71.08639199999999,108.95367815494537L71.14486600000001,115.39208235740661L71.414746,178.21043779850007L71.54968600000001,113.53462436199187L71.65314,194.03944834470747L71.734104,69.59249510765075L72.386314,119.6201303243637L72.674186,59.48850681781768L73.35338399999999,136.01099284887312L73.470332,117.37525441646575L74.33394799999999,150.336266541481L74.365434,117.47980513572692L74.87370800000001,80.68010416030883L74.887202,117.89876761436462L74.98166,138.56609215736387L75.24704200000001,102.4578396320343L75.440456,99.92064371109008L75.82278600000001,72.83873691558837L75.962224,118.64096167087554L76.03419199999999,131.0220667362213L76.11065799999999,69.93121411800384L76.290578,107.40904941558837L76.49748600000001,98.74357774257659L76.501984,45.62645294666291L76.60094,137.8927475452423L76.75837,102.4859659910202L76.875318,160.69029035568235L76.9158,92.19154980182647L77.149696,101.18616106510162L77.16319,32.661572957038885L77.316122,104.42111434936523L77.334114,171.77907046079636L77.437568,138.65368899106977L77.464556,143.62054445743559L77.473552,102.07234182357787L77.68046,114.8405061006546L78.049296,88.66868641376495L78.134758,115.07064428329467L78.17524,168.4499054789543L78.481104,111.26605310440063L78.4901,93.04574289321899L78.75998,111.7750283718109L79.475162,98.4500761270523L79.71355600000001,143.56875439882276L79.803516,145.96497037410734L79.942954,42.670505547523504L79.983436,78.91626706123351L80.059902,100.82832541465758L80.13636799999999,52.682265543937675L80.505204,87.8695644378662L80.60865799999999,79.82605876922607L80.67163,141.70583149194715L81.00448200000001,136.78779097795484L81.517254,96.42464067935943L81.949062,82.96382524967193L81.971552,172.81163277626038L82.13347999999999,111.54586079120635L82.272918,121.53732254505157L82.709224,95.10202660560607L82.826172,63.873539113998405L82.844164,83.36044278144836L82.91613199999999,118.59019496440887L83.105048,176.73768635988236L83.39292,185.5243461370468L83.406414,68.77003648281097L83.478382,81.93916490077972L83.91019,127.76025309562682L84.148584,101.31799414157867L85.106658,41.32117881774903L85.232602,132.94932367801664L85.70939,165.34576191902158L86.033246,53.280726099014274L86.312122,102.82922151088714L86.662966,124.59800001382827L86.739432,166.28652849197385L86.86087799999999,109.67310526371001L86.95533599999999,140.68790205717085L87.009312,115.34669616222381L87.07678200000001,141.0398929953575L87.333168,121.96280493736266L87.66152199999999,84.10421934127807L88.156302,130.55461635589597L88.394696,66.5221854686737L88.412688,96.00251319408416L88.853492,134.48617705106733L89.04240800000001,109.85608484745025L89.271806,95.7493548631668L89.37526,156.84393163919447L89.640642,79.8601353406906L89.654136,81.06720557212829L90.07694799999999,114.10365035533904L90.22988000000001,77.71459844112395L90.38730999999999,140.02761837244032L90.562732,162.59716465473173L90.97654800000001,52.475231909751884L91.075504,163.33610930442808L91.44434,100.50958814620971L92.078558,98.91347529888152L92.375426,71.98289802074432L92.406912,126.57340725660323L92.44739399999999,118.90580942630767L92.52386000000001,58.96054151058196L92.604824,97.00752940177917L92.870206,30.356625223159796L93.095106,99.7400695323944L93.306512,101.63162519931792L93.58988599999999,59.57178869247436L93.92723600000001,50.878549361228934L93.954224,127.11039283275603L94.089164,135.58982541561124L94.12964600000001,117.9067434310913L94.174626,111.9997438430786L94.588442,175.80827161073685L94.62892400000001,118.59255816936492L94.646916,137.04632982015607L94.723382,98.92913153171538L95.011254,147.61188157796857L95.096716,146.82994558811185L95.703946,71.56245853900909L95.98732000000001,163.36711581945417L96.194228,83.71975543498992L96.39214000000001,114.00749745368957L96.778968,98.46904506683349L97.039852,138.73466041088102L97.710054,129.10944267511366L97.71905000000001,96.1813571691513L97.86298599999999,115.33171513080596L98.00242399999999,151.0618970632553L98.267806,102.14652957916259L98.91102,202.88975640535352L99.01897199999999,162.6046762704849L99.059454,165.9980170369148L99.306844,111.67277755737304L99.986042,126.70827873945235L100.049014,178.13741054534913L100.50781,128.23384358882902L100.602268,169.95845314264298L101.20050200000001,125.01898809671401L101.524358,132.9824507474899L101.623314,145.11288728713987L101.69978,121.19870903491973L101.906688,171.2008131980896L102.05962,146.8099849462509L102.35199,159.59349950551984L102.71183,129.16298403739927L103.053678,59.04124917984008L103.215606,158.26768877506254L103.714884,124.38134475946426L103.719382,57.21495594978332L103.87231399999999,137.8910806417465L103.93528599999999,97.09119107723235L104.124202,140.7661621212959L104.875368,140.87963815927503L105.014806,125.91927423477172L105.167738,105.71300675868987L105.653522,137.156925702095L105.801956,111.9263156890869L105.88292,121.71890952587127L105.891916,92.06115152835845L105.999868,110.23221423625945L106.004366,118.7233573436737L106.01786,160.62159916162489L106.10332199999999,107.19747927188872L106.260752,104.80190684795379L106.40019,93.30090572834014L106.57561199999999,68.7804177045822L106.620592,126.96487637758254L107.020914,68.18545975685119L107.08388599999999,155.2527140021324L107.214328,110.31589701175689L107.25031200000001,122.73808386325835L107.380754,76.6987368106842L107.826056,81.2645120859146L108.865094,194.05180242061613L108.99103799999999,132.1092887163162L109.03152,97.92348232269286L109.157464,112.88594570159911L109.31489400000001,62.95501198768615L109.36887,58.50718595981597L109.65674200000001,28.15167059898377L110.26397200000001,127.61919929981231L110.506864,123.77789404392242L111.105098,121.05837264060973L111.10959600000001,157.0653555035591L111.739316,134.31496074199674L112.283574,75.16368749141692L112.31506,162.58118137121198L112.87731,88.47739341259002L113.38558400000001,173.3882442355156L113.471046,113.540279173851L113.59699,140.91767098903654L113.695946,136.2441061377525L113.79040400000001,92.95473840236663L114.096268,136.6411245703697L114.33466200000001,67.3932163953781L114.595546,75.87110867500304L114.79345799999999,114.62927355766296L115.75603000000001,180.93597271442414L115.836994,64.46875026226043L115.93594999999999,137.26564368009565L115.962938,124.51528784036635L116.45322,62.76715829372405L116.516192,156.76556607484815L116.56567,82.78603627681731L116.81306000000001,101.0794581413269L116.862538,112.43064894676208L116.889526,72.97974851131438L117.15490799999999,128.8087248444557L117.276354,65.21586062908172L117.37980800000001,125.44461818933486L117.694668,173.71619167327881L117.793624,110.61781754493713L117.942058,128.11029227972028L118.05001,151.16900088787077L118.22993,67.16309931278228L118.310894,144.281239593029L118.337882,93.29183270931243L118.35137599999999,101.77088549137115L118.693224,117.79942860603332L118.697722,121.46765019893645L118.90912800000001,33.11153140068055L119.04856600000001,91.85318949222564L119.170012,146.4094955563545L119.183506,115.32836022377013L119.205996,155.483991587162L119.525354,103.38138856887817L119.574832,125.98565497398376L119.79523400000001,135.10516794919965L120.05162,125.10993983745574L120.25402999999999,130.44611992835996L120.43844800000001,149.0583951115608L120.496922,68.9271896123886L120.50142000000001,148.36609210968015L120.600376,120.98975529670714L120.67234400000001,139.54400535821912L121.171622,51.08480229377746L121.26608,113.00311424732207L121.576442,55.685561442375175L121.58993600000001,157.64306416511533L121.594434,58.001797699928275L121.810338,69.85459985733031L121.91829,96.9401358604431L122.512026,123.5418478488922L122.87186600000001,104.4286681652069L122.93034,67.65302124023437L123.21821200000001,151.70732631683347L123.510582,97.19977190494537L123.614036,130.52593084573743L123.991868,152.54176976680753L124.005362,96.54835023880004L124.02785200000001,86.76179101467132L124.329218,156.40586307048795L124.41018199999999,122.096515917778L124.747532,114.3695531129837L124.92295399999999,114.49393787384032L125.633638,80.27337970733642L125.82255400000001,132.12457569837568L125.827052,97.27583756446838L126.119422,120.50050857067107L126.14641,107.45673551559447L126.263358,62.084487462043754L126.357816,141.84487023353574L126.384804,150.433643245697L127.095488,130.04295083284376L128.17051,117.13707711696624L128.228984,77.3320124387741L128.38191600000002,137.68138840198515L128.489868,142.2237320780754L128.55284,60.89889707565307L128.678784,139.33389111757276L129.191556,160.95409365892408L129.348986,109.12053730487823L129.515412,75.75763263702392L129.92473,147.0186960339546L130.50947,121.86363472938537L130.84682,177.25097658634186L131.25164,145.92936404943464L131.265134,85.678493642807L131.92633999999998,116.61902883052825L131.944332,67.86248137950896L132.137746,73.66775765419005L132.18722400000001,122.55172827243804L132.232204,144.61914625167844L132.385136,137.20716490745542L132.430116,131.17601265907285L132.547064,92.6269070148468L132.749474,171.03233989477158L132.852928,119.79104068279266L133.082326,81.58879866600036L133.190278,84.03524329662322L133.27574,90.29617502689361L133.487146,81.0438056230545L133.99542,112.81101944446563L134.215822,90.89689328670501L134.58016,85.58607544898986L134.629638,127.19808461666106L134.719598,143.00560476779935L135.04795199999998,96.70107235908507L135.304338,62.246219301223746L135.78562399999998,79.74338879585265L136.419842,75.45362319946288L136.595264,67.85779716968536L136.725706,114.69531669616698L137.117032,73.47410144805907L137.332936,46.09839763641358L137.34193199999999,74.86459436416625L137.512856,179.04222264289857L137.61631,29.508276844024664L137.935668,80.85930683612823L138.569886,185.0196647286415L138.857758,120.60402538776397L139.298562,96.57886090278625L139.33454600000002,152.0636111140251L140.01824200000001,114.00764515399932L140.117198,74.70714583396911L140.265632,170.7472466468811L140.598484,156.54186340570448L140.77390599999998,72.9975569486618L141.16073400000002,133.22337105274198L141.48908799999998,118.75142040252685L141.601538,140.49602880477903L141.660012,185.35618933439252L141.70049400000002,169.36590059995652L142.055836,140.2295563459396L142.32121800000002,129.75419672727583L142.83399,80.99306001663207L142.90146,156.4080152750015L143.25680200000002,120.7826583623886L143.64812799999999,98.90796818733214L144.04845,83.982661986351L144.214876,99.04767158031463L144.372306,94.93945076465606L144.70515799999998,86.85939981937408L145.26290999999998,125.17704852819442L145.35736799999998,178.23894395828248L145.39785,145.777770781517L145.469818,164.834402346611L145.753192,107.69282391071319L145.75769000000003,158.79977914094923L145.82066200000003,120.5359988451004L146.373916,130.39508947134016L146.423394,165.6894183397293L146.873194,210.5390604972839L147.17455999999999,125.87146153450011L148.07415999999998,73.55210831165313L148.645406,116.30240156650542L148.649904,146.45761420726774L148.780346,135.64507588148115L148.78934199999998,109.4652698278427L149.234644,156.5404919028282L149.909344,93.37513568401336L150.197216,45.482002043724066L150.224204,207.39979591369627L150.251192,102.47638657093047L150.269184,47.43120303153992L150.273682,160.69030090570448L150.790952,109.83836081027984L151.038342,54.50838997364043L151.578102,74.07625451087951L151.82999,46.67972495555878L152.270794,122.58128943443297L152.31577399999998,135.36574294567106L152.34725999999998,163.02739455699918L152.428224,117.7141633272171L152.68461000000002,138.86138727664945L152.882522,153.6961320877075L153.26935,164.21005203723905L153.67866800000002,80.46296360492705L153.68766399999998,64.47807648181914L153.8316,100.94275095462798L153.912564,114.75490322113036L155.185498,109.60056331157683L155.302446,135.34801890850065L155.50035799999998,175.53244128227234L155.74774799999997,130.90495094060896L156.026624,146.94496192932127L156.08509800000002,117.17033078670501L156.49891399999998,123.95195885896682L156.629356,83.03801300525664L156.80477800000003,94.21464314460754L158.06421799999998,120.90442671775817L158.41956000000002,111.5414086818695L158.536508,179.2742703795433L158.635464,111.70005991458892L158.720926,129.34473981857298L158.83337600000002,146.62475820779798L158.90534399999999,86.28313651084899L158.95932000000002,131.85028567314146L159.15273399999998,28.025808835029608L159.45859800000002,100.51817586421966L159.73747400000002,97.5429008245468L160.67305800000003,104.41495313644408L160.704544,133.8412330985069L160.745026,118.36590149402618L160.969926,134.8002723097801L160.98342000000002,133.25891407728193L161.077878,73.61207463741302L161.21731599999998,119.78755917549132L161.302778,118.41820850372314L161.91450600000002,124.3301666021347L162.278844,136.11416151523588L162.283342,108.42917325496673L162.436274,113.8598604440689L163.05249999999998,92.84320356845855L163.07499,96.44563522338866L163.191938,171.00155493021012L163.398846,158.73894771337507L163.466316,139.14449712038038L163.835152,108.7778303861618L164.02856599999998,96.90112187862395L164.145514,78.29831006526946L164.32993199999999,119.53722825050353L164.523346,74.30206718444823L165.11708199999998,127.21283354759215L165.14856799999998,106.08314373493194L165.16656,118.19494893550872L165.625356,155.62346287965772L165.805276,102.78271701335906L166.228088,154.24290808439252L166.29106000000002,152.80791517496107L166.372024,155.69101467132566L166.56094,87.2366686105728L167.78439600000002,130.53994127511976L168.02279,206.68808087110517L168.558052,80.1752856016159L169.376688,84.98774149417876L169.54311399999997,194.03466918468473L169.965926,41.92461898326874L170.681108,94.39344491958617L170.798056,125.04980471134185L170.97797599999998,166.611353123188L171.184884,50.74272837638854L171.477254,78.02483239173888L171.50874,166.48937376737592L171.544724,127.22375282049178L171.760628,66.51923146247863L171.80111,120.55201377868651L172.066492,92.92205443382262L172.124966,115.72495665550231L172.777176,139.13253339529035L172.831152,147.6523936629295L172.97958599999998,118.40835478305816L173.168502,108.61841955184936L173.460872,207.24281158447263L173.793724,95.53012540340423L174.00512999999998,190.8574245214462L174.29749999999999,101.94734516143798L174.427942,210.55391492843626L174.486416,97.92468502521514L174.796778,123.11011984348296L174.81027200000003,86.97760226726531L175.003686,129.0666623353958L175.224088,110.2083711862564L175.475976,126.94298508167266L176.06971199999998,119.68857886791228L176.105696,124.94790204763412L176.137182,117.83656468391418L176.555496,112.36958541870116L176.609472,113.93843700885772L176.699432,117.89216330051421L177.212204,116.4114676952362L177.230196,80.17420949935912L177.351642,139.71996917724607L177.360638,112.20766367912292L177.765458,49.61018350124358L178.080318,137.81746258735654L178.201764,109.26125349998473L178.23325,159.62048646211622L178.24674399999998,70.44010498523711L178.359194,107.84368922710418L178.970922,75.1520613670349L179.384738,164.97381033897398L179.416224,181.11417313814164L179.821044,83.5483597755432L179.861526,138.35720171928403L179.915502,130.8587418437004L180.00096399999998,162.7100287914276L180.07743,142.03861083984373L180.320322,154.61737056970594L180.37429799999998,110.63349487781524L180.486748,158.53245213031767L180.65317399999998,73.53208436965942L180.914058,111.54031147956847L181.12096599999998,87.73266735076903L181.20642800000002,158.6058169841766L181.23791400000002,148.3048808813095L181.444822,127.24401941299438L181.678718,48.96353044509888L181.69221199999998,171.49751147031785L181.849642,133.95149137973783L182.434382,104.95245566368102L182.66827800000002,108.76175215244292L182.672776,107.82229378223418L182.767234,94.47807719707488L183.014624,108.16744830608367L183.40595,141.32146253585813L183.410448,59.20901563167571L183.58137200000002,88.6734339237213L183.73880200000002,115.66672053337096L183.779284,151.15799721479414L183.95470600000002,154.8331712722778L184.17510800000002,123.17263927459716L184.42249800000002,92.93458786010741L184.566434,95.59853174686431L184.993744,92.90188279151916L185.67744,38.98996152877808L185.897842,172.89158084392548L186.05977,102.84494104385375L186.33864599999998,88.94919040203094L186.684992,67.18730106353759L186.698486,109.66660645008086L187.040334,66.67433788776397L187.134792,94.14058198928832L187.17077600000002,85.0907308101654L187.22925,130.04983999729154L187.23824599999998,100.2714108467102L187.26523400000002,147.74601455926893L187.70603799999998,120.95681812763213L187.715034,127.46910413503646L188.10636000000002,127.3165824651718L188.119854,133.94777777194975L188.2413,146.9102101564407L189.010458,122.59285225868224L189.041944,122.29618563652038L189.338812,128.54068043231962L189.361302,97.88117673397063L189.829094,79.90172352790832L189.90556,159.95663126707075L190.20692599999998,150.52346613407133L190.296886,119.44103314876556L190.778172,203.28549828529356L191.012068,85.19532372951507L191.07953799999999,177.53026732206345L191.147008,90.691273355484L191.218976,189.91026463508604L191.27745,89.12195756435393L191.43488,103.92401840686797L191.520342,119.29069533348083L191.551828,113.20628657341003L192.599862,74.76943316459655L192.869742,124.36530872583388L193.004682,134.01330395936964L193.090144,134.2191981911659L193.490466,90.2614021539688L193.665888,143.47458490133283L193.68388000000002,134.4280780792236L193.724362,127.66356214284896L193.75135,81.16392817497253L193.8638,141.80539205074308L194.12018600000002,46.36427929401398L194.776894,100.29618229866027L195.298662,90.24709632396697L195.447096,101.90204336643218L195.93737800000002,122.35435845851897L195.964366,133.75671687126157L196.00484799999998,117.19071342945098L196.58509,126.42321714162826L196.738022,80.2334584236145L197.88951,121.06402745246886L197.97497199999998,113.76505794525146L198.168386,74.52203514575957L198.478748,168.71831914186475L199.445818,160.7166443109512L199.900116,113.16020407676696L200.14750600000002,127.61818649768828L200.214976,142.42966850996015L200.525338,214.99014120697973L200.67827,81.78690698146819L201.011122,98.62020578384399L201.08309,95.5462880373001L201.132568,101.97576692104339L201.28549999999998,100.50342693328857L201.64534,142.45354321002958L201.919718,140.4310723185539L201.924216,133.70826061964033L202.18509999999998,137.77879675626752L202.27506000000002,141.018792951107L202.468474,136.20262345075605L202.49096400000002,179.9547257065773L202.81482,129.75225552320478L203.449038,134.9552837848663L203.552492,76.02197399139403L203.55698999999998,187.34471025466917L204.168718,134.59847148656843L204.600526,133.28432908058164L204.86590800000002,95.05001499652862L204.915386,154.89110144376752L206.192818,149.87812128067014L206.37723599999998,135.2642939329147L206.692096,160.77671613693235L206.81804,107.95321955680846L207.047438,73.32743504047393L207.483744,136.2613237738609L207.62318199999999,36.93285491466523L207.645672,160.5842837333679L207.722138,152.2636711835861L207.951536,44.46609821319581L208.12246,122.83896317481994L209.040052,94.49128582477569L209.36390799999998,127.15922888517379L209.836198,106.48904528617858L210.22752400000002,126.56225588321685L210.2815,118.75686421394347L210.425436,76.99761893749236L210.55138,125.37695034742354L210.94270600000002,140.16371365785596L210.987686,121.61212220191955L211.014674,85.97670056819915L211.032666,139.64016880989072L211.172104,174.1084836959839L211.1811,127.27358057498931L211.244072,146.69684650897977L211.27105999999998,186.7323447704315L211.599414,44.436241650581366L212.71042,135.06187065839765L213.106244,142.19802167415617L213.223192,101.9440957546234L213.628012,109.40507140159606L213.749458,79.20413496494292L214.06431800000001,120.24927034378051L214.370182,193.60764648914335L214.44215,97.432399892807L214.739018,91.95704391002654L214.95492199999998,97.50852885246276L215.02689,173.30975207090378L215.157332,175.8823433160782L215.269782,137.63837596178053L215.355244,102.07044281959533L216.002956,31.852998161315924L216.03894000000003,79.43290164470672L216.326812,117.37312331199645L216.44825799999998,113.77438416481017L217.055488,147.84142895936964L217.086974,123.56991090774535L217.167938,116.61434462070464L217.631232,139.3505390524864L217.739184,119.9380446910858L217.784164,90.82196702957152L217.847136,79.09804394245147L218.126012,112.3560602903366L218.553322,76.86435105800628L218.85019,115.17751600742339L218.90866400000002,119.16867377758025L219.0526,99.42797877788543L219.13356399999998,171.2570237159729L219.178544,85.56695880889892L219.273002,154.90591367483137L219.763284,143.28681560754774L220.078144,140.18216564655302L220.518948,82.1047369480133L221.045214,118.46675970554351L221.216138,91.11523654460906L221.364572,114.0651849746704L221.441038,93.39866223335265L221.61646000000002,77.73506548404693L222.704976,130.594126188755L222.77694400000001,154.98598834276197L223.424656,58.108943724632255L223.658552,154.5664878129959L223.856464,64.0049290895462L224.013894,116.99648752212524L224.14883400000002,125.17475917339324L224.256786,148.20982518196104L224.36473800000002,124.71428235769271L224.400722,72.14707746505736L224.4502,116.52061822414397L224.454698,138.60310163497923L224.72457799999998,125.43626257181167L224.846024,105.64947452545165L224.86401600000002,87.0312174797058L224.931486,85.17473008632659L225.04843400000001,85.68191184997558L225.09791199999998,54.968307638168326L225.14739,90.20464303493499L225.295824,127.58374067544936L225.678154,192.81921168565748L225.916548,80.07567229270934L225.93454,96.97952964305877L225.99301400000002,77.48524096012115L226.352854,96.65587606430053L226.37084599999997,168.08051755428312L226.49229200000002,132.31124778985975L226.532774,51.76762082576751L226.9241,81.22665860652923L226.955586,87.68010714054107L227.15349799999998,171.11911382675171L227.391892,121.52514781951903L227.54932200000002,132.99161871671674L227.56731399999998,84.54006185531615L227.841692,158.7116337060928L228.277998,138.744260931015L228.448922,132.5478953361511L228.65582999999998,203.7886921405792L228.660328,132.2379673361778L228.673822,121.11211445331573L228.92571,121.98763968944549L229.303542,184.5288565993309L229.411494,144.16578015089033L229.631896,89.65110447406768L229.694868,120.80719771385192L230.36057200000002,151.56433131694791L230.495512,95.74981906414031L230.760894,185.41348650455473L230.99029199999998,60.591996932029716L231.91688000000002,141.9706475973129L231.957362,139.29197587966917L232.047322,170.4136232972145L232.18676,178.54925175905228L232.19575600000002,92.6943216562271L232.80298599999998,142.70123662948606L232.964914,93.64540615081786L233.162826,133.36319049596784L233.42820799999998,112.81260194778442L233.48218400000002,127.91819747686385L233.990458,99.25516941547393L234.156884,152.0537046432495L234.296322,71.63824989795684L234.45375199999998,149.63022741079328L235.128452,134.612840616703L235.168934,120.17221298217773L235.29038,147.9251222848892L235.42532,44.65428950786591L235.578252,46.829809570312506L235.780662,183.51131751537324L235.81664600000002,134.3633747935295L235.94259,95.79906656742095L236.450864,105.58288278579711L236.522832,105.55123271942138L236.626286,101.48455789089202L236.801708,110.29194846153258L236.878174,84.89825620651244L237.26500199999998,102.40559592247008L237.305484,158.72535928487775L237.458416,113.27697172164916L237.97568600000002,120.8454309940338L238.151108,136.88008257150648L238.385004,83.14028491973876L239.680428,117.89281740188598L239.774886,163.0088898181915L240.409104,86.56834580898284L240.60251799999998,102.05472328662871L240.840912,133.29457315206525L240.872398,161.73547049760816L240.962358,110.70171132087707L241.079306,102.26979603767394L241.484126,143.78517755270002L241.71802200000002,193.22052397727964L241.987902,204.77784111499784L242.019388,150.3467638134956L242.14983,124.79109706878661L242.38822399999998,81.59652128219604L242.406216,98.47064867019652L242.46469000000002,140.11787381172178L242.52766200000002,132.8721186161041L242.635614,95.47581388950347L242.68959,120.7740073442459L242.833526,121.01954855918883L242.865012,99.43513169288634L242.927984,105.14265146255492L243.436258,93.2687070608139L243.485736,106.43697037696838L243.512724,155.67897709608076L243.69714199999999,105.38306536674499L243.715134,65.67586269378661L243.778106,154.88391687870023L243.88155999999998,116.55969550609588L244.358348,130.24718871116636L244.551762,148.09503039121626L244.74967400000003,100.99727346897124L244.830638,134.60637345314024L244.90260600000002,47.53868665695191L245.037546,138.69481297731397L245.347908,178.86625882387162L245.910158,172.08662470579148L246.10357199999999,134.49261256456373L246.112568,122.43928613662719L246.278994,194.44205828905103L246.283492,156.75426700115202L246.328472,102.4259152650833L246.36445600000002,123.1161966562271L246.47690599999999,105.76398446559905L246.85023999999999,154.12477948665617L246.87273000000002,203.55712970495222L246.94019999999998,103.24582078456878L247.81281199999998,71.27374663352965L248.433536,149.56200041770933L249.387112,157.26465597152708L249.737956,78.56625952720641L249.980848,137.93582328557966L250.09329799999998,128.96189006567L250.660046,143.05959978103635L251.02438400000003,113.95031633377074L251.24478599999998,101.18571796417235L251.298762,144.52065124511716L251.384224,120.12488558292388L251.64960599999998,163.81358220577238L252.17137400000001,156.54806681871412L252.526716,103.7655570745468L252.715632,150.1586569190025L253.039488,108.00512566566466L253.066476,85.49156835079192" style="fill: none;" fill="none"></path></g></g></g></g></g></g><g transform="translate(48, 177)" clip-path="url(#clip_1)"><clipPath id="clip_1"><rect width="281" height="23"></rect></clipPath><g><g><line x1="0" y1="0" x2="0" y2="5" style="visibility: inherit;" fill="rgb(0, 0, 0)" stroke="rgb(204, 204, 204)" stroke-width="1px"></line><line x1="28.1125" y1="0" x2="28.1125" y2="5" style="visibility: inherit;" fill="rgb(0, 0, 0)" stroke="rgb(204, 204, 204)" stroke-width="1px"></line><line x1="56.225" y1="0" x2="56.225" y2="5" style="visibility: inherit;" fill="rgb(0, 0, 0)" stroke="rgb(204, 204, 204)" stroke-width="1px"></line><line x1="84.33749999999999" y1="0" x2="84.33749999999999" y2="5" style="visibility: inherit;" fill="rgb(0, 0, 0)" stroke="rgb(204, 204, 204)" stroke-width="1px"></line><line x1="112.45" y1="0" x2="112.45" y2="5" style="visibility: inherit;" fill="rgb(0, 0, 0)" stroke="rgb(204, 204, 204)" stroke-width="1px"></line><line x1="140.5625" y1="0" x2="140.5625" y2="5" style="visibility: inherit;" fill="rgb(0, 0, 0)" stroke="rgb(204, 204, 204)" stroke-width="1px"></line><line x1="168.67499999999998" y1="0" x2="168.67499999999998" y2="5" style="visibility: inherit;" fill="rgb(0, 0, 0)" stroke="rgb(204, 204, 204)" stroke-width="1px"></line><line x1="196.7875" y1="0" x2="196.7875" y2="5" style="visibility: inherit;" fill="rgb(0, 0, 0)" stroke="rgb(204, 204, 204)" stroke-width="1px"></line><line x1="224.9" y1="0" x2="224.9" y2="5" style="visibility: inherit;" fill="rgb(0, 0, 0)" stroke="rgb(204, 204, 204)" stroke-width="1px"></line><line x1="253.01250000000002" y1="0" x2="253.01250000000002" y2="5" style="visibility: inherit;" fill="rgb(0, 0, 0)" stroke="rgb(204, 204, 204)" stroke-width="1px"></line><line x1="281.125" y1="0" x2="281.125" y2="5" style="visibility: inherit;" fill="rgb(0, 0, 0)" stroke="rgb(204, 204, 204)" stroke-width="1px"></line></g><g transform="translate(0, 8)"><text x="0" y="0" dx="0em" dy="0.95em" style="text-anchor: middle; visibility: hidden; font-family: &quot;Helvetica Neue&quot;, sans-serif; font-size: 12px; font-weight: 200;" fill="rgb(50, 49, 63)" stroke="none" stroke-width="1px">-50k</text><text x="28.1125" y="0" dx="0em" dy="0.95em" style="text-anchor: middle; visibility: inherit; font-family: &quot;Helvetica Neue&quot;, sans-serif; font-size: 12px; font-weight: 200;" fill="rgb(50, 49, 63)" stroke="none" stroke-width="1px">0</text><text x="56.225" y="0" dx="0em" dy="0.95em" style="text-anchor: middle; visibility: hidden; font-family: &quot;Helvetica Neue&quot;, sans-serif; font-size: 12px; font-weight: 200;" fill="rgb(50, 49, 63)" stroke="none" stroke-width="1px">50k</text><text x="84.33749999999999" y="0" dx="0em" dy="0.95em" style="text-anchor: middle; visibility: inherit; font-family: &quot;Helvetica Neue&quot;, sans-serif; font-size: 12px; font-weight: 200;" fill="rgb(50, 49, 63)" stroke="none" stroke-width="1px">100k</text><text x="112.45" y="0" dx="0em" dy="0.95em" style="text-anchor: middle; visibility: hidden; font-family: &quot;Helvetica Neue&quot;, sans-serif; font-size: 12px; font-weight: 200;" fill="rgb(50, 49, 63)" stroke="none" stroke-width="1px">150k</text><text x="140.5625" y="0" dx="0em" dy="0.95em" style="text-anchor: middle; visibility: inherit; font-family: &quot;Helvetica Neue&quot;, sans-serif; font-size: 12px; font-weight: 200;" fill="rgb(50, 49, 63)" stroke="none" stroke-width="1px">200k</text><text x="168.67499999999998" y="0" dx="0em" dy="0.95em" style="text-anchor: middle; visibility: hidden; font-family: &quot;Helvetica Neue&quot;, sans-serif; font-size: 12px; font-weight: 200;" fill="rgb(50, 49, 63)" stroke="none" stroke-width="1px">250k</text><text x="196.7875" y="0" dx="0em" dy="0.95em" style="text-anchor: middle; visibility: inherit; font-family: &quot;Helvetica Neue&quot;, sans-serif; font-size: 12px; font-weight: 200;" fill="rgb(50, 49, 63)" stroke="none" stroke-width="1px">300k</text><text x="224.9" y="0" dx="0em" dy="0.95em" style="text-anchor: middle; visibility: hidden; font-family: &quot;Helvetica Neue&quot;, sans-serif; font-size: 12px; font-weight: 200;" fill="rgb(50, 49, 63)" stroke="none" stroke-width="1px">350k</text><text x="253.01250000000002" y="0" dx="0em" dy="0.95em" style="text-anchor: middle; visibility: inherit; font-family: &quot;Helvetica Neue&quot;, sans-serif; font-size: 12px; font-weight: 200;" fill="rgb(50, 49, 63)" stroke="none" stroke-width="1px">400k</text><text x="281.125" y="0" dx="0em" dy="0.95em" style="text-anchor: middle; visibility: hidden; font-family: &quot;Helvetica Neue&quot;, sans-serif; font-size: 12px; font-weight: 200;" fill="rgb(50, 49, 63)" stroke="none" stroke-width="1px">450k</text></g><line x1="0" y1="0" x2="281.125" y2="0" fill="rgb(0, 0, 0)" stroke="rgb(204, 204, 204)" stroke-width="1px"></line></g></g></g></g></svg>