<svg viewBox="0 0 330 200" xmlns="http://www.w3.org/2000/svg"><g><g><g><g><g><line x1="58.59375" y1="177" x2="53.59375" y2="177" style="visibility: inherit;" fill="rgb(0, 0, 0)" stroke="rgb(204, 204, 204)" stroke-width="1px"></line><line x1="58.59375" y1="164.35714285714283" x2="53.59375" y2="164.35714285714283" style="visibility: inherit;" fill="rgb(0, 0, 0)" stroke="rgb(204, 204, 204)" stroke-width="1px"></line><line x1="58.59375" y1="151.7142857142857" x2="53.59375" y2="151.7142857142857" style="visibility: inherit;" fill="rgb(0, 0, 0)" stroke="rgb(204, 204, 204)" stroke-width="1px"></line><line x1="58.59375" y1="139.07142857142873" x2="53.59375" y2="139.07142857142873" style="visibility: inherit;" fill="rgb(0, 0, 0)" stroke="rgb(204, 204, 204)" stroke-width="1px"></line><line x1="58.59375" y1="126.42857142857156" x2="53.59375" y2="126.42857142857156" style="visibility: inherit;" fill="rgb(0, 0, 0)" stroke="rgb(204, 204, 204)" stroke-width="1px"></line><line x1="58.59375" y1="113.7857142857144" x2="53.59375" y2="113.7857142857144" style="visibility: inherit;" fill="rgb(0, 0, 0)" stroke="rgb(204, 204, 204)" stroke-width="1px"></line><line x1="58.59375" y1="101.14285714285724" x2="53.59375" y2="101.14285714285724" style="visibility: inherit;" fill="rgb(0, 0, 0)" stroke="rgb(204, 204, 204)" stroke-width="1px"></line><line x1="58.59375" y1="88.50000000000009" x2="53.59375" y2="88.50000000000009" style="visibility: inherit;" fill="rgb(0, 0, 0)" stroke="rgb(204, 204, 204)" stroke-width="1px"></line><line x1="58.59375" y1="75.85714285714295" x2="53.59375" y2="75.85714285714295" style="visibility: inherit;" fill="rgb(0, 0, 0)" stroke="rgb(204, 204, 204)" stroke-width="1px"></line><line x1="58.59375" y1="63.21428571428578" x2="53.59375" y2="63.21428571428578" style="visibility: inherit;" fill="rgb(0, 0, 0)" stroke="rgb(204, 204, 204)" stroke-width="1px"></line><line x1="58.59375" y1="50.571428571428626" x2="53.59375" y2="50.571428571428626" style="visibility: inherit;" fill="rgb(0, 0, 0)" stroke="rgb(204, 204, 204)" stroke-width="1px"></line><line x1="58.59375" y1="37.92857142857147" x2="53.59375" y2="37.92857142857147" style="visibility: inherit;" fill="rgb(0, 0, 0)" stroke="rgb(204, 204, 204)" stroke-width="1px"></line><line x1="58.59375" y1="25.285714285714306" x2="53.59375" y2="25.285714285714306" style="visibility: inherit;" fill="rgb(0, 0, 0)" stroke="rgb(204, 204, 204)" stroke-width="1px"></line><line x1="58.59375" y1="12.642857142857167" x2="53.59375" y2="12.642857142857167" style="visibility: inherit;" fill="rgb(0, 0, 0)" stroke="rgb(204, 204, 204)" stroke-width="1px"></line><line x1="58.59375" y1="0" x2="53.59375" y2="0" style="visibility: inherit;" fill="rgb(0, 0, 0)" stroke="rgb(204, 204, 204)" stroke-width="1px"></line></g><g transform="translate(48.59375, 0)"><text x="0" y="177" dx="0em" dy="0.3em" style="text-anchor: end; visibility: hidden; font-family: &quot;Helvetica Neue&quot;, sans-serif; font-size: 12px; font-weight: 200;" fill="rgb(50, 49, 63)" stroke="none" stroke-width="1px">0.166</text><text x="0" y="164.35714285714283" dx="0em" dy="0.3em" style="text-anchor: end; visibility: inherit; font-family: &quot;Helvetica Neue&quot;, sans-serif; font-size: 12px; font-weight: 200;" fill="rgb(50, 49, 63)" stroke="none" stroke-width="1px">0.168</text><text x="0" y="151.7142857142857" dx="0em" dy="0.3em" style="text-anchor: end; visibility: hidden; font-family: &quot;Helvetica Neue&quot;, sans-serif; font-size: 12px; font-weight: 200;" fill="rgb(50, 49, 63)" stroke="none" stroke-width="1px">0.17</text><text x="0" y="139.07142857142873" dx="0em" dy="0.3em" style="text-anchor: end; visibility: inherit; font-family: &quot;Helvetica Neue&quot;, sans-serif; font-size: 12px; font-weight: 200;" fill="rgb(50, 49, 63)" stroke="none" stroke-width="1px">0.172</text><text x="0" y="126.42857142857156" dx="0em" dy="0.3em" style="text-anchor: end; visibility: hidden; font-family: &quot;Helvetica Neue&quot;, sans-serif; font-size: 12px; font-weight: 200;" fill="rgb(50, 49, 63)" stroke="none" stroke-width="1px">0.174</text><text x="0" y="113.7857142857144" dx="0em" dy="0.3em" style="text-anchor: end; visibility: inherit; font-family: &quot;Helvetica Neue&quot;, sans-serif; font-size: 12px; font-weight: 200;" fill="rgb(50, 49, 63)" stroke="none" stroke-width="1px">0.176</text><text x="0" y="101.14285714285724" dx="0em" dy="0.3em" style="text-anchor: end; visibility: hidden; font-family: &quot;Helvetica Neue&quot;, sans-serif; font-size: 12px; font-weight: 200;" fill="rgb(50, 49, 63)" stroke="none" stroke-width="1px">0.178</text><text x="0" y="88.50000000000009" dx="0em" dy="0.3em" style="text-anchor: end; visibility: inherit; font-family: &quot;Helvetica Neue&quot;, sans-serif; font-size: 12px; font-weight: 200;" fill="rgb(50, 49, 63)" stroke="none" stroke-width="1px">0.18</text><text x="0" y="75.85714285714295" dx="0em" dy="0.3em" style="text-anchor: end; visibility: hidden; font-family: &quot;Helvetica Neue&quot;, sans-serif; font-size: 12px; font-weight: 200;" fill="rgb(50, 49, 63)" stroke="none" stroke-width="1px">0.182</text><text x="0" y="63.21428571428578" dx="0em" dy="0.3em" style="text-anchor: end; visibility: inherit; font-family: &quot;Helvetica Neue&quot;, sans-serif; font-size: 12px; font-weight: 200;" fill="rgb(50, 49, 63)" stroke="none" stroke-width="1px">0.184</text><text x="0" y="50.571428571428626" dx="0em" dy="0.3em" style="text-anchor: end; visibility: hidden; font-family: &quot;Helvetica Neue&quot;, sans-serif; font-size: 12px; font-weight: 200;" fill="rgb(50, 49, 63)" stroke="none" stroke-width="1px">0.186</text><text x="0" y="37.92857142857147" dx="0em" dy="0.3em" style="text-anchor: end; visibility: inherit; font-family: &quot;Helvetica Neue&quot;, sans-serif; font-size: 12px; font-weight: 200;" fill="rgb(50, 49, 63)" stroke="none" stroke-width="1px">0.188</text><text x="0" y="25.285714285714306" dx="0em" dy="0.3em" style="text-anchor: end; visibility: hidden; font-family: &quot;Helvetica Neue&quot;, sans-serif; font-size: 12px; font-weight: 200;" fill="rgb(50, 49, 63)" stroke="none" stroke-width="1px">0.19</text><text x="0" y="12.642857142857167" dx="0em" dy="0.3em" style="text-anchor: end; visibility: inherit; font-family: &quot;Helvetica Neue&quot;, sans-serif; font-size: 12px; font-weight: 200;" fill="rgb(50, 49, 63)" stroke="none" stroke-width="1px">0.192</text><text x="0" y="0" dx="0em" dy="0.3em" style="text-anchor: end; visibility: hidden; font-family: &quot;Helvetica Neue&quot;, sans-serif; font-size: 12px; font-weight: 200;" fill="rgb(50, 49, 63)" stroke="none" stroke-width="1px">0.194</text></g><line x1="58.59375" y1="0" x2="58.59375" y2="177" fill="rgb(0, 0, 0)" stroke="rgb(204, 204, 204)" stroke-width="1px"></line></g></g><g transform="translate(58, 0)" clip-path="url(#clip_0)"><clipPath id="clip_0"><rect width="271" height="177"></rect></clipPath><g><g><g><line x1="0" y1="0" x2="0" y2="177" fill="rgb(0, 0, 0)" stroke="rgb(60, 60, 60)" stroke-width="1px" opacity="0.25"></line><line x1="38.77232142857142" y1="0" x2="38.77232142857142" y2="177" fill="rgb(0, 0, 0)" stroke="rgb(60, 60, 60)" stroke-width="1px" opacity="0.25"></line><line x1="77.54464285714285" y1="0" x2="77.54464285714285" y2="177" fill="rgb(0, 0, 0)" stroke="rgb(60, 60, 60)" stroke-width="1px" opacity="0.25"></line><line x1="116.31696428571428" y1="0" x2="116.31696428571428" y2="177" fill="rgb(0, 0, 0)" stroke="rgb(60, 60, 60)" stroke-width="1px" opacity="0.25"></line><line x1="155.0892857142857" y1="0" x2="155.0892857142857" y2="177" fill="rgb(0, 0, 0)" stroke="rgb(60, 60, 60)" stroke-width="1px" opacity="0.25"></line><line x1="193.86160714285714" y1="0" x2="193.86160714285714" y2="177" fill="rgb(0, 0, 0)" stroke="rgb(60, 60, 60)" stroke-width="1px" opacity="0.25"></line><line x1="232.63392857142856" y1="0" x2="232.63392857142856" y2="177" fill="rgb(0, 0, 0)" stroke="rgb(60, 60, 60)" stroke-width="1px" opacity="0.25"></line><line x1="271.40625" y1="0" x2="271.40625" y2="177" fill="rgb(0, 0, 0)" stroke="rgb(60, 60, 60)" stroke-width="1px" opacity="0.25"></line></g><g><line x1="0" y1="177" x2="271.40625" y2="177" fill="rgb(0, 0, 0)" stroke="rgb(60, 60, 60)" stroke-width="1px" opacity="0.25"></line><line x1="0" y1="164.35714285714283" x2="271.40625" y2="164.35714285714283" fill="rgb(0, 0, 0)" stroke="rgb(60, 60, 60)" stroke-width="1px" opacity="0.25"></line><line x1="0" y1="151.7142857142857" x2="271.40625" y2="151.7142857142857" fill="rgb(0, 0, 0)" stroke="rgb(60, 60, 60)" stroke-width="1px" opacity="0.25"></line><line x1="0" y1="139.07142857142873" x2="271.40625" y2="139.07142857142873" fill="rgb(0, 0, 0)" stroke="rgb(60, 60, 60)" stroke-width="1px" opacity="0.25"></line><line x1="0" y1="126.42857142857156" x2="271.40625" y2="126.42857142857156" fill="rgb(0, 0, 0)" stroke="rgb(60, 60, 60)" stroke-width="1px" opacity="0.25"></line><line x1="0" y1="113.7857142857144" x2="271.40625" y2="113.7857142857144" fill="rgb(0, 0, 0)" stroke="rgb(60, 60, 60)" stroke-width="1px" opacity="0.25"></line><line x1="0" y1="101.14285714285724" x2="271.40625" y2="101.14285714285724" fill="rgb(0, 0, 0)" stroke="rgb(60, 60, 60)" stroke-width="1px" opacity="0.25"></line><line x1="0" y1="88.50000000000009" x2="271.40625" y2="88.50000000000009" fill="rgb(0, 0, 0)" stroke="rgb(60, 60, 60)" stroke-width="1px" opacity="0.25"></line><line x1="0" y1="75.85714285714295" x2="271.40625" y2="75.85714285714295" fill="rgb(0, 0, 0)" stroke="rgb(60, 60, 60)" stroke-width="1px" opacity="0.25"></line><line x1="0" y1="63.21428571428578" x2="271.40625" y2="63.21428571428578" fill="rgb(0, 0, 0)" stroke="rgb(60, 60, 60)" stroke-width="1px" opacity="0.25"></line><line x1="0" y1="50.571428571428626" x2="271.40625" y2="50.571428571428626" fill="rgb(0, 0, 0)" stroke="rgb(60, 60, 60)" stroke-width="1px" opacity="0.25"></line><line x1="0" y1="37.92857142857147" x2="271.40625" y2="37.92857142857147" fill="rgb(0, 0, 0)" stroke="rgb(60, 60, 60)" stroke-width="1px" opacity="0.25"></line><line x1="0" y1="25.285714285714306" x2="271.40625" y2="25.285714285714306" fill="rgb(0, 0, 0)" stroke="rgb(60, 60, 60)" stroke-width="1px" opacity="0.25"></line><line x1="0" y1="12.642857142857167" x2="271.40625" y2="12.642857142857167" fill="rgb(0, 0, 0)" stroke="rgb(60, 60, 60)" stroke-width="1px" opacity="0.25"></line><line x1="0" y1="0" x2="271.40625" y2="0" fill="rgb(0, 0, 0)" stroke="rgb(60, 60, 60)" stroke-width="1px" opacity="0.25"></line></g></g></g><g><g><line x1="0" y1="1226.3571428571431" x2="271.40625" y2="1226.3571428571431" fill="rgb(0, 0, 0)" stroke="rgb(153, 153, 153)" stroke-width="1.5px"></line></g></g><g><g><line x1="38.77232142857142" y1="0" x2="38.77232142857142" y2="177" fill="rgb(0, 0, 0)" stroke="rgb(153, 153, 153)" stroke-width="1.5px"></line></g></g><g><g><g><g><g><path stroke="rgb(255, 112, 67)" stroke-width="2px" d="M49.31839285714286,-10.84878614831652L49.93875,33.8283562341293L50.559107142857144,48.59559978168633L51.17946428571429,74.91306725337537L51.79982142857143,89.77502783059276L52.42017857142857,103.93205260262484L53.04053571428571,108.55654249654918L53.660892857142855,113.75430562931265L54.28125,99.31399477489873L54.901607142857145,108.72851115886914L55.52196428571428,119.27012969556759L56.14232142857143,118.84255252523361L56.762678571428566,122.03484699770254L57.38303571428572,88.92738549206116L58.003392857142856,97.0543453656403L58.62375,64.51848277260366L59.24410714285714,70.32941631350654L59.86446428571429,93.79071035110339L60.48482142857143,99.78500144607204L61.105178571428574,114.6604540727812L61.72553571428571,74.9139142287058L62.34589285714286,76.33954811895757L62.96625,80.81901177054326L63.58660714285715,96.79018514756085L64.20696428571429,103.94698693400687L64.82732142857142,108.02837202183386L65.44767857142857,123.81747998155546L66.06803571428571,125.49575947838741L66.68839285714286,124.45372448627248L67.30875,123.65382526756468L67.92910714285713,108.3166663635489L68.54946428571428,119.10470365914352L69.16982142857142,120.55658211371068L69.79017857142857,119.19630414964266L70.41053571428571,127.5138943834639L71.03089285714286,130.03058137131825L71.65125,110.67295122947678L72.27160714285715,115.72209541256815L72.89196428571428,128.88533031752695L73.51232142857143,135.79853973105892L74.13267857142857,86.72706716162783L74.75303571428572,107.00722914791254L75.37339285714285,121.56954082505523L75.99375,130.01928901382578L76.61410714285715,133.47694383174883L77.2344642857143,125.69532926659485L77.85482142857143,135.93128107144582L78.47517857142857,138.03087492762214L79.09553571428572,141.99904799278073L79.71589285714286,138.52491562426812L80.33624999999999,139.6556308031295L80.95660714285714,135.75486048563465L81.57696428571428,134.65587214872588L82.19732142857143,133.79840248117915L82.81767857142857,132.90310256058024L83.43803571428572,125.95998685242314L84.05839285714286,131.88238769154145L84.67875,127.5390612769663L85.29910714285714,128.627720855132L85.91946428571428,136.26861072073567L86.53982142857143,139.76973272513604L87.16017857142856,123.43804780760728L87.78053571428572,127.47324319127219L88.40089285714286,108.3325266311008L89.02125000000001,106.47182687764582L89.64160714285714,120.26775026365402L90.26196428571428,129.40264430753666L90.88232142857143,135.10942656464738L91.50267857142858,138.35972198305097L92.1230357142857,140.35586718763875L92.74339285714285,139.0850375263367L93.36375,137.98015383294063L93.98410714285716,125.01744264353675L94.60446428571429,113.22613536964624L95.22482142857143,122.58078742500308L95.84517857142858,125.8660930627866L96.4655357142857,123.80520870379021L97.08589285714285,123.86358026831485L97.70625,133.60801464079444L98.32660714285714,115.78464562408433L98.94696428571427,121.6287635402903L99.56732142857143,113.69618440746567L100.18767857142858,63.09012167245582L100.80803571428572,75.60147251923846L101.42839285714285,102.32835101372852L102.04875,101.58410274046496L102.66910714285714,102.10355901667472L103.28946428571429,113.82598599846281L103.90982142857142,105.92460479513737L104.53017857142856,117.89998470138792L105.15053571428572,121.55800114081498L105.77089285714287,127.00843479637038L106.39125,125.6527363596867L107.01160714285714,129.0685197384832L107.63196428571429,128.7033157731954L108.25232142857143,135.9519135194255L108.87267857142857,131.06663780093734L109.49303571428571,134.72011796471384L110.11339285714286,141.16616337713043L110.73374999999999,140.06100001719605L111.35410714285715,133.2056041934737L111.97446428571429,141.25296273785435L112.59482142857144,146.35432200832304L113.21517857142857,144.8907982608437L113.83553571428571,118.79911077793429L114.45589285714286,87.46571040786341L115.07625,92.18042610752528L115.69660714285713,116.00741670700114L116.31696428571428,125.06462079389213L116.93732142857144,131.08258554145542L117.55767857142858,126.533412098573L118.17803571428571,137.8817068421675L118.79839285714286,142.80799456142395L119.41875,140.15835204458327L120.03910714285715,124.48195092095025L120.65946428571428,133.79576807660018L121.27982142857142,117.80187810837802L121.90017857142857,126.71382472826497L122.52053571428571,133.29010795643853L123.14089285714286,139.40183511430587L123.76125,124.75723568489036L124.38160714285715,134.09477350135296L125.00196428571428,126.49925619120036L125.62232142857142,106.30259300664699L126.24267857142857,119.7655728508484L126.86303571428572,110.84629546868943L127.48339285714285,124.79305558279326L128.10375,117.2681061779823L128.72410714285715,124.64572433307826L129.34446428571428,126.70351382981491L129.96482142857144,138.3654526099437L130.58517857142857,135.76646646750072L131.2055357142857,139.88822401782846L131.82589285714286,139.55979552996746L132.44625,142.35144666938115L133.06660714285715,144.66520351406245L133.68696428571428,138.5061225070733L134.30732142857144,132.7038344844687L134.92767857142857,130.58514774298285L135.54803571428573,127.75882475817997L136.16839285714283,97.60739825513848L136.78875,109.04695856948264L137.40910714285715,119.23824709369211L138.02946428571428,133.8018547126177L138.64982142857144,140.9389780691663L139.27017857142857,134.96131788764507L139.89053571428573,147.50804168455852L140.51089285714284,133.08867654230883L141.13125,127.71815201656041L141.75160714285713,121.64695454079103L142.37196428571428,125.40432300317914L142.99232142857142,108.91078958429652L143.61267857142857,127.79599649959334L144.23303571428573,124.62995845996892L144.85339285714286,124.17030062033874L145.47375,129.2314983591685L146.09410714285713,104.34238379424596L146.71446428571429,124.2836333722561L147.33482142857142,119.04920954938294L147.95517857142858,133.2835374083255L148.5755357142857,124.84911084552262L149.19589285714287,120.18818771043634L149.81625000000003,130.80877518176572L150.43660714285713,136.0827196467237L151.0569642857143,115.52875265562722L151.67732142857142,130.67571366138924L152.29767857142858,136.68268094586784L152.9180357142857,130.70039531919988L153.53839285714287,134.77312822625936L154.15875,140.62581922701537L154.77910714285713,147.3372555380556L155.3994642857143,139.9192272513121L156.01982142857142,149.9541181583326L156.64017857142858,151.44958303327087L157.2605357142857,142.0330096139934L157.88089285714287,120.20238359298855L158.50125,136.86599718220378L159.12160714285716,132.6966159810437L159.74196428571426,125.83598186874988L160.36232142857142,127.65455402658009L160.98267857142858,92.805351412364L161.6030357142857,121.95010838785156L162.22339285714287,129.82660831140515L162.84375,106.32460531668094L163.46410714285716,104.60268644565652L164.0844642857143,96.62848717359154L164.70482142857142,78.25361750186529L165.32517857142855,113.44027939832839L165.9455357142857,114.80346404805914L166.56589285714287,130.36325986135523L167.18625,107.81045208031757L167.80660714285716,129.0772994974544L168.4269642857143,141.94177780947552L169.04732142857145,146.2739453731351L169.66767857142855,140.29076523379445L170.2880357142857,145.60119492290013L170.90839285714284,142.51245029087002L171.52875,146.64016176905452L172.14910714285713,131.2898134125331L172.7694642857143,136.42277394304463L173.38982142857145,141.90497869252172L174.01017857142855,127.53706861904101L174.6305357142857,131.77468954120005L175.25089285714284,118.93830644927496L175.87125,122.9389002432946L176.49160714285713,129.81638448045658L177.1119642857143,130.84557692003432L177.73232142857142,123.31142939545879L178.35267857142858,127.9246225356435L178.97303571428571,137.6372035196478L179.59339285714285,139.82537126334555L180.21375,150.27089856228173L180.83410714285714,147.1315137855722L181.4544642857143,130.9912612351995L182.07482142857143,122.77318599388039L182.69517857142858,131.0290395753342L183.3155357142857,132.46411934543767L183.93589285714285,119.5122493108203L184.55625,108.35091535875313L185.17660714285714,116.59671418190324L185.7969642857143,111.3146659512539L186.41732142857143,126.17018749249425L187.0376785714286,134.54111624404965L187.65803571428572,133.0018234836343L188.27839285714285,142.12043710190056L188.89874999999998,152.57667912029024L189.51910714285714,137.3296602699412L190.1394642857143,135.31646660168494L190.75982142857143,141.94473004885805L191.3801785714286,139.3215565969587L192.00053571428572,146.9406403765532L192.62089285714288,137.5249089893117L193.24124999999998,132.82282446516345L193.86160714285714,130.64497438571243L194.48196428571427,138.45389791940784L195.10232142857143,94.70187742225266L195.7226785714286,108.80563011253174L196.34303571428572,123.98089848364268L196.96339285714288,118.19734078205835L197.58374999999998,114.9865859907869L198.20410714285714,105.38932506471059L198.82446428571427,128.82932277884174L199.44482142857143,135.52269916412035L200.06517857142856,129.30305585072512L200.68553571428572,111.04837315563013L201.30589285714285,121.14067231670933L201.92625,131.3748402198651L202.54660714285714,132.3512558460532L203.16696428571427,135.68286151581228L203.78732142857143,143.2836229156194L204.40767857142856,139.1565886791703L205.02803571428572,144.77965780150123L205.64839285714285,150.22548594164732L206.26875,139.01209781392572L206.88910714285714,133.70119665926626L207.50946428571427,118.23458092728805L208.12982142857143,133.6930569403827L208.75017857142856,143.8379541938153L209.37053571428572,130.3236673315297L209.99089285714285,129.55493399994307L210.61125,114.08583538402584L211.23160714285714,125.60649537587699L211.8519642857143,123.04583811147882L212.4723214285714,124.41194323274678L213.09267857142856,130.12210674031496L213.71303571428572,144.20870077321155L214.33339285714285,133.33139647753285L214.95375,130.47137266055074L215.57410714285714,120.73440262044103L216.1944642857143,131.00063491425544L216.8148214285714,122.22463261053514L217.43517857142857,128.36865408485187L218.0555357142857,96.99530880013143L218.67589285714286,100.12657588764021L219.29625000000001,103.60694253470898L219.91660714285715,116.56488799723982L220.5369642857143,112.30317271071762L221.15732142857144,113.19592541645832L221.77767857142857,105.1293150708813L222.3980357142857,101.32407996211873L223.01839285714286,117.2191168411127L223.63875,127.89512689288065L224.25910714285715,123.09099530801547L224.8794642857143,129.0866990833432L225.49982142857144,121.41794111424392L226.1201785714286,130.89659514653343L226.7405357142857,117.33335058722633L227.36089285714286,122.9897838523016L227.98125,126.87263733685164L228.60160714285715,137.93690113832375L229.22196428571428,140.79143023343485L229.84232142857144,147.55116523926705L230.46267857142857,129.82965057183748L231.0830357142857,131.26170939515828L231.70339285714286,109.1393793499262L232.32375,102.03570961893057L232.94410714285715,109.91914539471968L233.56446428571428,120.45786064910035L234.18482142857144,128.47527264044112L234.80517857142857,140.75310085279426L235.42553571428573,149.53979307961356L236.04589285714283,144.83947535911895L236.66625,133.52960656533745L237.28660714285715,129.39061048299132L237.90696428571428,133.27637422654502L238.52732142857144,138.87792486634788L239.14767857142857,144.522935040345L239.76803571428573,147.68921961042292L240.38839285714283,147.69639174050184L241.00875,137.825309129564L241.62910714285712,142.96691990955017L242.24946428571428,136.0444368187388L242.86982142857144,134.93504281253985L243.49017857142857,141.38645133451033L244.11053571428573,146.79507520839817L244.73089285714286,142.5385055859743L245.35125,135.48618509291768L245.97160714285712,136.08945347192818L246.59196428571428,89.70068699058511L247.2123214285714,95.86460964982544L247.83267857142857,115.15518005212192L248.45303571428573,131.69406127643617L249.07339285714286,109.8902707951275L249.69375000000002,119.2411867669569L250.31410714285713,103.10252663100985L250.93446428571428,101.1209220581707L251.55482142857142,105.54351608288462L252.17517857142857,125.71376405471159L252.7955357142857,133.92924700821743L253.41589285714286,125.67628413482834L254.03625000000002,135.40384487451L254.65660714285715,133.64579717686019L255.27696428571429,135.08601111224021L255.89732142857142,147.2861005683926L256.5176785714286,126.83680046917122L257.1380357142857,132.79468202867497L257.75839285714284,142.25534366535192L258.37874999999997,145.93484753095203L258.99910714285716,142.39651797844832L259.6194642857143,140.48851462639834L260.2398214285714,111.02929948488497L260.8601785714286,108.34927041959526L261.48053571428574,128.96739905682833L262.10089285714287,138.28916913037074" style="fill: none;" fill="none"></path></g></g></g></g><g opacity="0.2"><g><g><g><path stroke="rgb(255, 112, 67)" stroke-width="2px" d="M47.457321428571426,-35.5791380192552L48.07767857142857,50.518367988722716L48.698035714285716,90.32454343353004L49.31839285714286,-1.2260052604334533L49.93875,100.83726369483135L50.559107142857144,70.74511531846869L51.17946428571429,114.38782514844627L51.79982142857143,112.06747965727538L52.42017857142857,125.16731025491447L53.04053571428571,115.49322255594394L53.660892857142855,121.55091338498256L54.28125,77.65359007460735L54.901607142857145,122.85026164565772L55.52196428571428,135.08254131674772L56.14232142857143,118.20118716359144L56.762678571428566,126.82328694207332L57.38303571428572,39.26620421239312L58.003392857142856,109.24478355901586L58.62375,15.714692767177354L59.24410714285714,79.0458162086351L59.86446428571429,128.98265039920813L60.48482142857143,108.77643793395593L61.105178571428574,136.97363278269773L61.72553571428571,15.294104831559366L62.34589285714286,78.47799894639428L62.96625,87.53820723295216L63.58660714285715,120.7469451810633L64.20696428571429,114.6821896050658L64.82732142857142,114.15044965062827L65.44767857142857,147.5011419142996L66.06803571428571,128.01317872319908L66.68839285714286,122.89067199826246L67.30875,122.45397643957824L67.92910714285713,85.31092800838611L68.54946428571428,135.28675960217208L69.16982142857142,122.73439979553228L69.79017857142857,117.1558872035572L70.41053571428571,139.99027973413473L71.03089285714286,133.8056118530887L71.65125,81.63650601676537L72.27160714285715,123.29581168719704L72.89196428571428,148.63018267495298L73.51232142857143,146.16835385135246L74.13267857142857,13.119858307497879L74.75303571428572,137.42747212733548L75.37339285714285,143.4130083407675L75.99375,142.6939112969808L76.61410714285715,138.66342605863304L77.2344642857143,114.02290741886416L77.85482142857143,151.285208778722L78.47517857142857,141.1802657118866L79.09553571428572,147.95130759051872L79.71589285714286,133.31371707149918L80.33624999999999,141.3517035714218L80.95660714285714,129.90370500939238L81.57696428571428,133.00738964336264L82.19732142857143,132.512197979859L82.81767857142857,131.56015267968183L83.43803571428572,115.54531329018734L84.05839285714286,140.7659889502185L84.67875,121.02407165510319L85.29910714285714,130.26071022238057L85.91946428571428,147.72994551914084L86.53982142857143,145.02141573173665L87.16017857142856,98.94052043131424L87.78053571428572,133.52603626676972L88.40089285714286,79.62145179084374L89.02125000000001,103.68077724746301L89.64160714285714,140.9616353426661L90.26196428571428,143.10498537336082L90.88232142857143,143.66959995031362L91.50267857142858,143.23516511065623L92.1230357142857,143.3500849945205L92.74339285714285,137.17879303438326L93.36375,136.32282829284674L93.98410714285716,105.5733758594309L94.60446428571429,95.53917445881031L95.22482142857143,136.6127655080387L95.84517857142858,130.7940515194621L96.4655357142857,120.71388216529579L97.08589285714285,123.95113761510173L97.70625,148.2246661995139L98.32660714285714,89.0495920990195L98.94696428571427,130.39494041459906L99.56732142857143,101.79731570822857L100.18767857142858,-12.818972430058864L100.80803571428572,94.36849878941268L101.42839285714285,142.41866875546324L102.04875,100.46773033056945L102.66910714285714,102.88274343098918L103.28946428571429,131.40962647114486L103.90982142857142,94.07253299014913L104.53017857142856,135.86305456076354L105.15053571428572,127.04502579995568L105.77089285714287,135.1840852797032L106.39125,123.61918870466101L107.01160714285714,134.192194806678L107.63196428571429,128.15550982526375L108.25232142857143,146.82481013877057L108.87267857142857,123.73872422320507L109.49303571428571,140.20033821037842L110.11339285714286,150.83523149575512L110.73374999999999,138.4032549772944L111.35410714285715,122.92251045789043L111.97446428571429,153.32400055442542L112.59482142857144,154.00636091402603L113.21517857142857,142.69551263962478L113.83553571428571,79.6615795535701L114.45589285714286,40.46560985275681L115.07625,99.25249965701789L115.69660714285713,151.74790260621484L116.31696428571428,138.65042692422873L116.93732142857144,140.10953266280043L117.55767857142858,119.70965193424911L118.17803571428571,154.9041489575591L118.79839285714286,150.19742614030844L119.41875,136.18388826932232L120.03910714285715,100.96734923550065L120.65946428571428,147.76649381007473L121.27982142857142,93.81104315604487L121.90017857142857,140.08174465809554L122.52053571428571,143.15453279869902L123.14089285714286,148.5694258511067L123.76125,102.79033654076717L124.38160714285715,148.10108022604675L125.00196428571428,115.10598022597182L125.62232142857142,76.00759822981703L126.24267857142857,139.96004261715075L126.86303571428572,97.4673793954509L127.48339285714285,145.7131957539491L128.10375,105.98068207076624L128.72410714285715,135.7121515657221L129.34446428571428,129.79019807491989L129.96482142857144,155.858360780137L130.58517857142857,131.86798725383628L131.2055357142857,146.07086034332008L131.82589285714286,139.06715279817587L132.44625,146.53892337850166L133.06660714285715,148.13583878108437L133.68696428571428,129.26750099658972L134.30732142857144,124.00040245056158L134.92767857142857,127.40711763075424L135.54803571428573,123.51934028097565L136.16839285714283,52.38025850057606L136.78875,126.20629904099877L137.40910714285715,134.52517988000602L138.02946428571428,155.64726614100599L138.64982142857144,151.64466310398925L139.27017857142857,125.9948276153633L139.89053571428573,166.32812737992836L140.51089285714284,111.4596288289343L141.13125,119.66236522793776L141.75160714285713,112.54015832713678L142.37196428571428,131.04037569676132L142.99232142857142,84.17048945597244L143.61267857142857,156.1238068725382L144.23303571428573,119.88090140053208L144.85339285714286,123.4808138608933L145.47375,136.823294967413L146.09410714285713,67.00871194686214L146.71446428571429,154.19550773927148L147.33482142857142,111.19757381507333L147.95517857142858,154.63502919673925L148.5755357142857,112.19747100131856L149.19589285714287,113.19680300780709L149.81625000000003,146.73965638875967L150.43660714285713,143.9936363441604L151.0569642857143,84.69780216898242L151.67732142857142,153.39615517003202L152.29767857142858,145.6931318725859L152.9180357142857,121.72696687919758L153.53839285714287,140.88222758684844L154.15875,149.40485572814947L154.77910714285713,157.40441000461584L155.3994642857143,128.792184821197L156.01982142857142,165.0064545188632L156.64017857142858,153.6927803456784L157.2605357142857,127.90814948507722L157.88089285714287,87.45644456148152L158.50125,161.861417566027L159.12160714285716,126.44254417930335L159.74196428571426,115.54503070030898L160.36232142857142,130.38241226332534L160.98267857142858,40.53154749103959L161.6030357142857,165.66724385108273L162.22339285714287,141.64135819673544L162.84375,71.07160082459454L163.46410714285716,102.01980813911987L164.0844642857143,84.66718826549399L164.70482142857142,50.69131299427582L165.32517857142855,166.22027224302298L165.9455357142857,116.84824102265499L166.56589285714287,153.70295358129914L167.18625,73.98124040876121L167.80660714285716,160.97757062315947L168.4269642857143,161.238495277507L169.04732142857145,152.7721967186247L169.66767857142855,131.31599502478332L170.2880357142857,153.56683945655828L170.90839285714284,137.8793333428247L171.52875,152.83172898633146L172.14910714285713,108.26429087775098L172.7694642857143,144.1222147388118L173.38982142857145,150.12828581673764L174.01017857142855,105.9852035088199L174.6305357142857,138.1311209244388L175.25089285714284,99.68373181138725L175.87125,128.93979093432432L176.49160714285713,140.1326108361994L177.1119642857143,132.3893655794008L177.73232142857142,112.01020810859548L178.35267857142858,134.84441224592078L178.97303571428571,152.20607499565403L179.59339285714285,143.10762287889213L180.21375,165.9391895106861L180.83410714285714,142.42243662050797L181.4544642857143,106.78088240964077L182.07482142857143,110.44607313190193L182.69517857142858,143.41281994751526L183.3155357142857,134.61673900059296L183.93589285714285,100.08444425889428L184.55625,91.60891443065239L185.17660714285714,128.96541241662848L185.7969642857143,103.39159360527997L186.41732142857143,148.45346980435514L187.0376785714286,147.0975093713829L187.65803571428572,130.6928843430111L188.27839285714285,155.79835752929966L188.89874999999998,168.2610421478749L189.51910714285714,114.45913199441779L190.1394642857143,132.29667609930044L190.75982142857143,151.88712521961762L191.3801785714286,135.38679641910966L192.00053571428572,158.3692660459451L192.62089285714288,123.40131190844949L193.24124999999998,125.76969767894069L193.86160714285714,127.37819926653594L194.48196428571427,150.1672832199506L195.10232142857143,29.073846676519963L195.7226785714286,129.96125914795064L196.34303571428572,146.74380104030888L196.96339285714288,109.52200422968188L197.58374999999998,110.17045380387992L198.20410714285714,90.99343367559574L198.82446428571427,163.9893193500383L199.44482142857143,145.56276374203824L200.06517857142856,119.97359088063246L200.68553571428572,83.66634911298756L201.30589285714285,136.27912105832786L201.92625,146.72609207459863L202.54660714285714,133.8158792853356L203.16696428571427,140.6802700204509L203.78732142857143,154.68476501532967L204.40767857142856,132.9660373244967L205.02803571428572,153.21426148499768L205.64839285714285,158.39422815186643L206.26875,122.19201562234338L206.88910714285714,125.73484492727692L207.50946428571427,95.03465732932095L208.12982142857143,156.88077096002448L208.75017857142856,159.0553000739643L209.37053571428572,110.05223703810151L209.99089285714285,128.40183400256296L210.61125,90.88218746015008L211.23160714285714,142.88748536365378L211.8519642857143,119.2048522148814L212.4723214285714,126.46110091464865L213.09267857142856,138.68735200166708L213.71303571428572,165.33859182255614L214.33339285714285,117.01544003401489L214.95375,126.18133693507744L215.57410714285714,106.12894756027634L216.1944642857143,146.39998335497725L216.8148214285714,109.0606291549547L217.43517857142857,137.58468629632682L218.0555357142857,49.93529087305073L218.67589285714286,104.82347651890352L219.29625000000001,108.82749250531201L219.91660714285715,136.0018061910357L220.5369642857143,105.91059978093425L221.15732142857144,114.5350544750691L221.77767857142857,93.02939955251561L222.3980357142857,95.61622729897503L223.01839285714286,141.06167215960372L223.63875,143.90914197053235L224.25910714285715,115.88479793071753L224.8794642857143,138.08025474633496L225.49982142857144,109.91480416059498L226.1201785714286,145.11457619496758L226.7405357142857,96.98848374826572L227.36089285714286,131.47443374991423L227.98125,132.6969175636769L228.60160714285715,154.53329684053153L229.22196428571428,145.07322387610168L229.84232142857144,157.69076774801533L230.46267857142857,103.24737857069293L231.0830357142857,133.4097976301398L231.70339285714286,75.9558842820781L232.32375,91.38020502243728L232.94410714285715,121.74429905840333L233.56446428571428,136.2659335306713L234.18482142857144,140.50139062745234L234.80517857142857,159.1698431713241L235.42553571428573,162.71983141984265L236.04589285714283,137.7889987783773L236.66625,116.56480337466517L237.28660714285715,123.18211635947233L237.90696428571428,139.1050198418754L238.52732142857144,147.2802508260523L239.14767857142857,152.9904503013407L239.76803571428573,152.43864646554L240.38839285714283,147.70714993562024L241.00875,123.01868521315716L241.62910714285712,150.6793360795294L242.24946428571428,125.66071218252188L242.86982142857144,133.2709518032415L243.49017857142857,151.06356411746575L244.11053571428573,154.90801101922995L244.73089285714286,136.15365115233834L245.35125,124.90770435333258L245.97160714285712,136.99435604044373L246.59196428571428,20.117537268570516L247.2123214285714,105.11049363868581L247.83267857142857,144.09103565556666L248.45303571428573,156.50238311290747L249.07339285714286,77.18458507316458L249.69375000000002,133.26756072470124L250.31410714285713,78.8945364270892L250.93446428571428,98.14851519891198L251.55482142857142,112.17740711995538L252.17517857142857,155.96913601245205L252.7955357142857,146.25247143847608L253.41589285714286,113.29683982474468L254.03625000000002,149.99518598403256L254.65660714285715,131.00872563038558L255.27696428571429,137.24633201531006L255.89732142857142,165.586234752621L256.5176785714286,96.16285032033925L257.1380357142857,141.7315043679306L257.75839285714284,156.4463361203671L258.37874999999997,151.45410332935202L258.99910714285716,137.0890236496926L259.6194642857143,137.6265095983233L260.2398214285714,66.84047677261493L260.8601785714286,104.32922682166104L261.48053571428574,159.89459201267792L262.10089285714287,152.27182424068457" style="fill: none;" fill="none"></path></g></g></g></g></g></g><g transform="translate(58, 177)" clip-path="url(#clip_1)"><clipPath id="clip_1"><rect width="271" height="23"></rect></clipPath><g><g><line x1="0" y1="0" x2="0" y2="5" style="visibility: inherit;" fill="rgb(0, 0, 0)" stroke="rgb(204, 204, 204)" stroke-width="1px"></line><line x1="38.77232142857142" y1="0" x2="38.77232142857142" y2="5" style="visibility: inherit;" fill="rgb(0, 0, 0)" stroke="rgb(204, 204, 204)" stroke-width="1px"></line><line x1="77.54464285714285" y1="0" x2="77.54464285714285" y2="5" style="visibility: inherit;" fill="rgb(0, 0, 0)" stroke="rgb(204, 204, 204)" stroke-width="1px"></line><line x1="116.31696428571428" y1="0" x2="116.31696428571428" y2="5" style="visibility: inherit;" fill="rgb(0, 0, 0)" stroke="rgb(204, 204, 204)" stroke-width="1px"></line><line x1="155.0892857142857" y1="0" x2="155.0892857142857" y2="5" style="visibility: inherit;" fill="rgb(0, 0, 0)" stroke="rgb(204, 204, 204)" stroke-width="1px"></line><line x1="193.86160714285714" y1="0" x2="193.86160714285714" y2="5" style="visibility: inherit;" fill="rgb(0, 0, 0)" stroke="rgb(204, 204, 204)" stroke-width="1px"></line><line x1="232.63392857142856" y1="0" x2="232.63392857142856" y2="5" style="visibility: inherit;" fill="rgb(0, 0, 0)" stroke="rgb(204, 204, 204)" stroke-width="1px"></line><line x1="271.40625" y1="0" x2="271.40625" y2="5" style="visibility: inherit;" fill="rgb(0, 0, 0)" stroke="rgb(204, 204, 204)" stroke-width="1px"></line></g><g transform="translate(0, 8)"><text x="0" y="0" dx="0em" dy="0.95em" style="text-anchor: middle; visibility: hidden; font-family: &quot;Helvetica Neue&quot;, sans-serif; font-size: 12px; font-weight: 200;" fill="rgb(50, 49, 63)" stroke="none" stroke-width="1px">-50k</text><text x="38.77232142857142" y="0" dx="0em" dy="0.95em" style="text-anchor: middle; visibility: inherit; font-family: &quot;Helvetica Neue&quot;, sans-serif; font-size: 12px; font-weight: 200;" fill="rgb(50, 49, 63)" stroke="none" stroke-width="1px">0</text><text x="77.54464285714285" y="0" dx="0em" dy="0.95em" style="text-anchor: middle; visibility: inherit; font-family: &quot;Helvetica Neue&quot;, sans-serif; font-size: 12px; font-weight: 200;" fill="rgb(50, 49, 63)" stroke="none" stroke-width="1px">50k</text><text x="116.31696428571428" y="0" dx="0em" dy="0.95em" style="text-anchor: middle; visibility: inherit; font-family: &quot;Helvetica Neue&quot;, sans-serif; font-size: 12px; font-weight: 200;" fill="rgb(50, 49, 63)" stroke="none" stroke-width="1px">100k</text><text x="155.0892857142857" y="0" dx="0em" dy="0.95em" style="text-anchor: middle; visibility: inherit; font-family: &quot;Helvetica Neue&quot;, sans-serif; font-size: 12px; font-weight: 200;" fill="rgb(50, 49, 63)" stroke="none" stroke-width="1px">150k</text><text x="193.86160714285714" y="0" dx="0em" dy="0.95em" style="text-anchor: middle; visibility: inherit; font-family: &quot;Helvetica Neue&quot;, sans-serif; font-size: 12px; font-weight: 200;" fill="rgb(50, 49, 63)" stroke="none" stroke-width="1px">200k</text><text x="232.63392857142856" y="0" dx="0em" dy="0.95em" style="text-anchor: middle; visibility: inherit; font-family: &quot;Helvetica Neue&quot;, sans-serif; font-size: 12px; font-weight: 200;" fill="rgb(50, 49, 63)" stroke="none" stroke-width="1px">250k</text><text x="271.40625" y="0" dx="0em" dy="0.95em" style="text-anchor: middle; visibility: hidden; font-family: &quot;Helvetica Neue&quot;, sans-serif; font-size: 12px; font-weight: 200;" fill="rgb(50, 49, 63)" stroke="none" stroke-width="1px">300k</text></g><line x1="0" y1="0" x2="271.40625" y2="0" fill="rgb(0, 0, 0)" stroke="rgb(204, 204, 204)" stroke-width="1px"></line></g></g></g></g></svg>