<svg viewBox="0 0 330 200" xmlns="http://www.w3.org/2000/svg"><g><g><g><g><g><line x1="58.59375" y1="159.3" x2="53.59375" y2="159.3" style="visibility: inherit;" fill="rgb(0, 0, 0)" stroke="rgb(204, 204, 204)" stroke-width="1px"></line><line x1="58.59375" y1="141.60000000000002" x2="53.59375" y2="141.60000000000002" style="visibility: inherit;" fill="rgb(0, 0, 0)" stroke="rgb(204, 204, 204)" stroke-width="1px"></line><line x1="58.59375" y1="123.9" x2="53.59375" y2="123.9" style="visibility: inherit;" fill="rgb(0, 0, 0)" stroke="rgb(204, 204, 204)" stroke-width="1px"></line><line x1="58.59375" y1="106.20000000000002" x2="53.59375" y2="106.20000000000002" style="visibility: inherit;" fill="rgb(0, 0, 0)" stroke="rgb(204, 204, 204)" stroke-width="1px"></line><line x1="58.59375" y1="88.50000000000001" x2="53.59375" y2="88.50000000000001" style="visibility: inherit;" fill="rgb(0, 0, 0)" stroke="rgb(204, 204, 204)" stroke-width="1px"></line><line x1="58.59375" y1="70.8" x2="53.59375" y2="70.8" style="visibility: inherit;" fill="rgb(0, 0, 0)" stroke="rgb(204, 204, 204)" stroke-width="1px"></line><line x1="58.59375" y1="53.099999999999994" x2="53.59375" y2="53.099999999999994" style="visibility: inherit;" fill="rgb(0, 0, 0)" stroke="rgb(204, 204, 204)" stroke-width="1px"></line><line x1="58.59375" y1="35.400000000000034" x2="53.59375" y2="35.400000000000034" style="visibility: inherit;" fill="rgb(0, 0, 0)" stroke="rgb(204, 204, 204)" stroke-width="1px"></line><line x1="58.59375" y1="17.700000000000017" x2="53.59375" y2="17.700000000000017" style="visibility: inherit;" fill="rgb(0, 0, 0)" stroke="rgb(204, 204, 204)" stroke-width="1px"></line><line x1="58.59375" y1="0" x2="53.59375" y2="0" style="visibility: inherit;" fill="rgb(0, 0, 0)" stroke="rgb(204, 204, 204)" stroke-width="1px"></line></g><g transform="translate(48.59375, 0)"><text x="0" y="159.3" dx="0em" dy="0.3em" style="text-anchor: end; visibility: inherit; font-family: &quot;Helvetica Neue&quot;, sans-serif; font-size: 12px; font-weight: 200;" fill="rgb(50, 49, 63)" stroke="none" stroke-width="1px">0.04</text><text x="0" y="141.60000000000002" dx="0em" dy="0.3em" style="text-anchor: end; visibility: hidden; font-family: &quot;Helvetica Neue&quot;, sans-serif; font-size: 12px; font-weight: 200;" fill="rgb(50, 49, 63)" stroke="none" stroke-width="1px">0.045</text><text x="0" y="123.9" dx="0em" dy="0.3em" style="text-anchor: end; visibility: inherit; font-family: &quot;Helvetica Neue&quot;, sans-serif; font-size: 12px; font-weight: 200;" fill="rgb(50, 49, 63)" stroke="none" stroke-width="1px">0.05</text><text x="0" y="106.20000000000002" dx="0em" dy="0.3em" style="text-anchor: end; visibility: hidden; font-family: &quot;Helvetica Neue&quot;, sans-serif; font-size: 12px; font-weight: 200;" fill="rgb(50, 49, 63)" stroke="none" stroke-width="1px">0.055</text><text x="0" y="88.50000000000001" dx="0em" dy="0.3em" style="text-anchor: end; visibility: inherit; font-family: &quot;Helvetica Neue&quot;, sans-serif; font-size: 12px; font-weight: 200;" fill="rgb(50, 49, 63)" stroke="none" stroke-width="1px">0.06</text><text x="0" y="70.8" dx="0em" dy="0.3em" style="text-anchor: end; visibility: hidden; font-family: &quot;Helvetica Neue&quot;, sans-serif; font-size: 12px; font-weight: 200;" fill="rgb(50, 49, 63)" stroke="none" stroke-width="1px">0.065</text><text x="0" y="53.099999999999994" dx="0em" dy="0.3em" style="text-anchor: end; visibility: inherit; font-family: &quot;Helvetica Neue&quot;, sans-serif; font-size: 12px; font-weight: 200;" fill="rgb(50, 49, 63)" stroke="none" stroke-width="1px">0.07</text><text x="0" y="35.400000000000034" dx="0em" dy="0.3em" style="text-anchor: end; visibility: hidden; font-family: &quot;Helvetica Neue&quot;, sans-serif; font-size: 12px; font-weight: 200;" fill="rgb(50, 49, 63)" stroke="none" stroke-width="1px">0.075</text><text x="0" y="17.700000000000017" dx="0em" dy="0.3em" style="text-anchor: end; visibility: inherit; font-family: &quot;Helvetica Neue&quot;, sans-serif; font-size: 12px; font-weight: 200;" fill="rgb(50, 49, 63)" stroke="none" stroke-width="1px">0.08</text><text x="0" y="0" dx="0em" dy="0.3em" style="text-anchor: end; visibility: hidden; font-family: &quot;Helvetica Neue&quot;, sans-serif; font-size: 12px; font-weight: 200;" fill="rgb(50, 49, 63)" stroke="none" stroke-width="1px">0.085</text></g><line x1="58.59375" y1="0" x2="58.59375" y2="177" fill="rgb(0, 0, 0)" stroke="rgb(204, 204, 204)" stroke-width="1px"></line></g></g><g transform="translate(58, 0)" clip-path="url(#clip_0)"><clipPath id="clip_0"><rect width="271" height="177"></rect></clipPath><g><g><g><line x1="0" y1="0" x2="0" y2="177" fill="rgb(0, 0, 0)" stroke="rgb(60, 60, 60)" stroke-width="1px" opacity="0.25"></line><line x1="38.77232142857142" y1="0" x2="38.77232142857142" y2="177" fill="rgb(0, 0, 0)" stroke="rgb(60, 60, 60)" stroke-width="1px" opacity="0.25"></line><line x1="77.54464285714285" y1="0" x2="77.54464285714285" y2="177" fill="rgb(0, 0, 0)" stroke="rgb(60, 60, 60)" stroke-width="1px" opacity="0.25"></line><line x1="116.31696428571428" y1="0" x2="116.31696428571428" y2="177" fill="rgb(0, 0, 0)" stroke="rgb(60, 60, 60)" stroke-width="1px" opacity="0.25"></line><line x1="155.0892857142857" y1="0" x2="155.0892857142857" y2="177" fill="rgb(0, 0, 0)" stroke="rgb(60, 60, 60)" stroke-width="1px" opacity="0.25"></line><line x1="193.86160714285714" y1="0" x2="193.86160714285714" y2="177" fill="rgb(0, 0, 0)" stroke="rgb(60, 60, 60)" stroke-width="1px" opacity="0.25"></line><line x1="232.63392857142856" y1="0" x2="232.63392857142856" y2="177" fill="rgb(0, 0, 0)" stroke="rgb(60, 60, 60)" stroke-width="1px" opacity="0.25"></line><line x1="271.40625" y1="0" x2="271.40625" y2="177" fill="rgb(0, 0, 0)" stroke="rgb(60, 60, 60)" stroke-width="1px" opacity="0.25"></line></g><g><line x1="0" y1="159.3" x2="271.40625" y2="159.3" fill="rgb(0, 0, 0)" stroke="rgb(60, 60, 60)" stroke-width="1px" opacity="0.25"></line><line x1="0" y1="141.60000000000002" x2="271.40625" y2="141.60000000000002" fill="rgb(0, 0, 0)" stroke="rgb(60, 60, 60)" stroke-width="1px" opacity="0.25"></line><line x1="0" y1="123.9" x2="271.40625" y2="123.9" fill="rgb(0, 0, 0)" stroke="rgb(60, 60, 60)" stroke-width="1px" opacity="0.25"></line><line x1="0" y1="106.20000000000002" x2="271.40625" y2="106.20000000000002" fill="rgb(0, 0, 0)" stroke="rgb(60, 60, 60)" stroke-width="1px" opacity="0.25"></line><line x1="0" y1="88.50000000000001" x2="271.40625" y2="88.50000000000001" fill="rgb(0, 0, 0)" stroke="rgb(60, 60, 60)" stroke-width="1px" opacity="0.25"></line><line x1="0" y1="70.8" x2="271.40625" y2="70.8" fill="rgb(0, 0, 0)" stroke="rgb(60, 60, 60)" stroke-width="1px" opacity="0.25"></line><line x1="0" y1="53.099999999999994" x2="271.40625" y2="53.099999999999994" fill="rgb(0, 0, 0)" stroke="rgb(60, 60, 60)" stroke-width="1px" opacity="0.25"></line><line x1="0" y1="35.400000000000034" x2="271.40625" y2="35.400000000000034" fill="rgb(0, 0, 0)" stroke="rgb(60, 60, 60)" stroke-width="1px" opacity="0.25"></line><line x1="0" y1="17.700000000000017" x2="271.40625" y2="17.700000000000017" fill="rgb(0, 0, 0)" stroke="rgb(60, 60, 60)" stroke-width="1px" opacity="0.25"></line><line x1="0" y1="0" x2="271.40625" y2="0" fill="rgb(0, 0, 0)" stroke="rgb(60, 60, 60)" stroke-width="1px" opacity="0.25"></line></g></g></g><g><g><line x1="0" y1="300.9" x2="271.40625" y2="300.9" fill="rgb(0, 0, 0)" stroke="rgb(153, 153, 153)" stroke-width="1.5px"></line></g></g><g><g><line x1="38.77232142857142" y1="0" x2="38.77232142857142" y2="177" fill="rgb(0, 0, 0)" stroke="rgb(153, 153, 153)" stroke-width="1.5px"></line></g></g><g><g><g><g><g><path stroke="rgb(255, 112, 67)" stroke-width="2px" d="M46.09253571428572,-16.552883779594225L46.595025,17.215089756857424L46.93622142857143,25.906613939259444L46.95483214285714,38.94731330752242L47.04168214285714,46.20706407492165L47.066496428571426,59.47515122681962L47.364267857142856,33.54690592346631L47.40769285714286,26.713972497743583L47.68065,-2.4593288443785752L47.866757142857146,-21.41709214540495L48.22036071428571,13.921395193800919L48.400264285714286,65.51103057295347L48.49952142857143,82.36204334791746L48.59877857142857,44.71148232347463L48.94617857142857,49.567566319306394L49.26256071428572,87.72253699917206L49.374225,82.38578602919581L49.430057142857144,68.6912320425844L49.529314285714285,38.61033839763442L49.547925,26.627463581442697L49.82088214285714,77.2371743072938L50.211707142857136,76.96328888594336L50.267539285714285,69.48365669166476L50.34818571428572,45.88976620623535L50.366796428571426,85.03922803157205L50.416425000000004,77.30908447834014L50.664567857142856,93.80684937198286L50.77002857142857,84.92933853125162L50.850675,119.38121569905056L51.18566785714286,121.33618602367267L51.402792857142856,129.4239164698841L51.77500714285714,123.28681296519767L52.339532142857145,136.5422896087905L52.413975,119.53229786758065L52.61248928571428,110.95615464093946L52.64971071428571,126.75790688540137L52.773782142857144,145.05464639512059L52.8048,142.1099841525993L53.08396071428571,107.92546389644393L53.15840357142857,123.24395618286759L53.37552857142857,62.396651321929895L53.59265357142857,91.06725459711684L53.59885714285714,69.38318451057036L53.88422142857143,88.45717962032654L53.98968214285714,74.99867673543751L54.002089285714284,86.44827412621771L54.03310714285714,98.63130327854513L54.18819642857143,115.42581748601175L54.1944,91.42598092100845L54.26884285714286,52.18243323053018L54.299860714285714,53.797284483224715L54.47976428571428,93.64848640281592L54.57281785714285,115.98354592513223L54.61003928571429,114.40228421802033L55.42891071428571,87.38619492599194L55.77010714285715,107.62989564984338L56.074082142857144,89.82591147332964L56.73786428571429,110.60398234551896L57.17831785714285,87.99304575458616L57.451275,89.05013849339159L57.61877142857143,66.34478591442868L57.63738214285715,58.38894075251082L57.997189285714285,66.26084842500961L58.38181071428571,65.1046133984201L58.598935714285716,52.14252595359524L58.80985714285714,55.50627620133426L58.89670714285714,54.56264983840383L58.90911428571428,56.180244200394114L58.91531785714286,75.75884016690588L59.275125,82.4241681393262L60.360749999999996,78.40751613713954L61.105178571428574,50.06914700947796L61.21684285714286,59.53808279921172L61.22925,84.79709923082326L61.539428571428566,106.4073344016894L61.88682857142857,88.04306952386047L61.97988214285714,117.51237270730105L62.30246785714286,114.23990157304624L62.432742857142856,36.75250300561436L62.476167857142855,49.743989863366195L63.139950000000006,59.75684477947375L63.313649999999996,78.29477680720221L63.48735,77.3855733907064L63.809935714285714,94.855875748148L64.19455714285714,98.28823170289421L64.80250714285714,83.76465629830972L64.83972857142857,90.98476862248789L64.99481785714286,98.56751410923609L65.02583571428572,87.2801592133177L65.47249285714285,95.3165644074519L65.55313928571428,120.55410348922251L65.56554642857142,104.92874286264323L66.06803571428571,114.07833143645611L66.63876428571429,124.26191074951942L66.744225,120.88404891433987L66.8745,60.40281894888089L67.48245,71.66403294018275L67.70577857142857,86.6662999273024L67.73059285714285,69.38163644317878L67.78022142857142,84.82626774218139L68.23928571428571,109.86853153053795L68.47502142857142,140.14954357232972L68.56187142857144,152.84110153607327L68.79760714285713,121.79217280442595L68.87205,65.78214597162653L69.1326,81.85632121000918L69.55444285714286,64.406702631916L69.610275,71.93841313731993L69.6288857142857,102.40865816481308L70.10035714285715,105.59195111636754L70.11276428571428,131.88259546783235L70.44775714285714,106.57905723110832L70.62145714285714,88.48662628564837L71.27283214285714,101.56453118582728L71.83115357142857,70.74345435774427L71.93041071428571,79.72720148370328L72.01726071428571,103.88814934972326L72.39567857142858,129.7425448386872L72.99742499999999,125.66432382160451L73.19593928571429,111.0439738815667L73.90935,62.89313113365424L74.00240357142857,50.731626768552374L74.27536071428571,70.89238580801675L74.80266428571429,87.02685165011043L74.90812500000001,88.88998058559392L74.92673571428571,70.42889478636917L75.15006428571428,79.87528574724875L75.19348928571428,80.48717519557407L75.41681785714286,116.0421721846815L75.54709285714286,84.93072554295996L75.93171428571428,103.18750546828353L76.05578571428572,104.14619761142397L76.74438214285715,103.31653502603332L76.80641785714285,79.49018040072893L77.11659642857143,75.96552876455769L77.2344642857143,40.320172163386246L77.31511071428571,59.38668571623509L77.35233214285715,66.72016126103607L77.43297857142856,38.689172624274505L77.78658214285714,59.66387095136908L77.9292642857143,76.24965396334811L77.96028214285714,32.25264140611938L78.32629285714285,23.092790223634523L78.47517857142857,49.26633155553121L79.07072142857143,54.34223219042168L79.21960714285714,62.55049974849908L79.5546,68.19173293549471L79.73450357142856,56.515799312821954L80.06949642857143,60.0255516916704L80.31143571428571,73.29301002682396L80.33004642857144,72.68805921471807L80.40448928571428,120.41317095158514L80.5968,114.6050479853035L81.24197142857143,101.43609262131935L81.2916,116.76855837835839L81.38465357142857,128.54586188873034L81.9864,116.06619690346946L82.14769285714286,143.8397263114943L82.28417142857143,123.78625380309188L82.8549,106.86803832597592L82.90452857142857,61.74554754821693L83.158875,63.92000601964138L83.53729285714284,66.920259558421L83.72960357142857,85.58743890479901L84.12663214285715,73.27771850797953L84.30033214285713,62.54713890536679L84.30653571428572,94.52031394948993L84.42440357142857,46.187400631370735L84.56708571428571,35.93809091345224L84.68495357142858,67.33841813144538L84.98892857142857,47.544760490283124L85.05096428571429,50.93521807242915L85.069575,35.69489694386411L85.16262857142857,36.39324190825042L85.36734642857142,59.42666441327226L86.19242142857142,77.0993802709931L86.459175,93.91301128408635L86.49639642857143,84.03707707370118L86.91203571428571,78.89343143728254L87.08573571428572,93.64232548372077L87.14777142857143,101.80027148661688L87.36489642857144,73.10457044325878L87.78053571428572,44.81606209923396L87.97905,39.76787920146927L88.34506071428571,44.573415893016715L88.56218571428572,69.7205761991134L88.70486785714284,96.11437631739322L88.81032857142857,92.98797277029243L89.51753571428571,101.05116406092574L89.73466071428572,132.10976094966847L89.77188214285714,32.27038084605766L90.19992857142857,20.597761432763548L90.47288571428572,62.25930546905796L90.65278928571429,99.53909515015008L90.68380714285715,121.03365395231083L90.73963928571428,82.27863086082363L91.29796071428571,101.44712409626142L91.31657142857142,126.67123516709029L91.49027142857143,132.33484672254573L91.55230714285715,136.67537855712325L91.91211428571428,133.46667766694875L92.12923928571429,129.5980955822745L92.33395714285714,144.33236529967064L92.34016071428572,131.19870804632234L92.71237500000001,122.28738090684726L93.48161785714285,109.08987005883883L93.50022857142858,119.47356830796262L93.84762857142857,142.89855619287886L94.00892142857144,135.89468140969512L94.02753214285714,139.4097662995448L94.15780714285714,139.1365958625192L94.20123214285714,91.98978949392522L94.56103928571429,100.53146366122175L94.59826071428571,96.49074608947521L94.94566071428572,100.57441319504787L94.99528928571429,94.20741136717444L96.00647142857143,75.68282153277184L96.04989642857143,89.6622553090369L96.21739285714285,86.94169705391619L96.56479285714286,80.37089146900593L96.76330714285714,87.42657408314L97.16033571428572,106.13613848565251L97.17894642857142,119.79476497935195L97.30301785714286,131.07384949306808L97.50773571428572,109.1661026893864L97.99781785714286,129.77048480980457L98.04124285714286,109.9318301503233L98.12188928571429,81.88090536501241L98.25836785714286,96.74284905854601L98.49410357142857,111.56559588470304L98.68021071428572,131.0260722908869L98.82289285714286,115.0004740138945L98.93455714285714,103.59451781750302L99.36880714285714,97.02232759380688L99.834075,123.0770729707739L100.23110357142858,115.30020707768568L100.63433571428571,114.90947873307687L101.14923214285714,86.47087632723704L101.16784285714286,106.10055996005568L101.32913571428571,132.12592181935804L101.85023571428572,107.25039139375032L102.39615,119.64513613334263L102.52022142857143,135.8627136418281L102.56364642857143,143.2161080616151L103.26464999999999,122.44231954440086L103.2832607142857,101.23462064757712L103.41353571428571,79.56491185006362L103.77954642857144,107.27782163248578L103.84158214285713,101.44621092573477L103.86639642857142,104.17872057018086L104.04629999999999,102.64975931201818L104.25101785714287,127.48632641765145L104.57360357142858,64.83856719572944L104.67906428571429,28.295988556382696L104.76591428571429,43.104542310617944L104.86517142857143,65.36746659373202L104.97063214285714,91.79694650229787L105.21877500000001,62.88271430287942L105.50413928571429,67.53367192002642L105.51034285714286,102.76935198338337L105.64682142857143,85.59781662244504L105.86394642857144,93.23067152034584L105.92598214285715,105.537885315009L106.02523928571429,89.01400665210967L106.08107142857142,90.77146433214716L106.16792142857142,85.02176547062619L106.40365714285714,71.69470948941846L106.42226785714286,56.213973704381814L106.63318928571428,84.67264102065806L106.65800357142857,105.28240477302221L106.80068571428572,128.89369513308137L106.83790714285713,114.38931249567945L106.85031428571429,86.7036219274347L107.09845714285714,91.62170631261736L107.13567857142857,90.36482831938308L107.216325,55.63798975171591L107.24734285714287,69.47224497092928L107.64437142857142,88.35394279297095L107.76223928571429,117.78461032352388L107.81807142857143,121.95920163894618L108.09723214285715,71.8382938629682L108.23991428571429,49.00208322324127L108.25232142857143,65.9232519609795L108.258525,94.22281416076815L108.62453571428571,119.86377149473667L109.61090357142857,76.11669568569089L109.93969285714286,82.70319966048375L110.0637642857143,70.06719675761686L110.256075,77.14671811283962L110.31190714285715,39.13823740733463L110.41736785714285,55.711496917324084L110.52282857142858,86.98193727369119L110.71513928571429,97.94033429643515L111.03152142857144,85.93374514115456L111.17420357142856,52.37305117328529L111.26105357142858,58.258802415606766L111.72011785714287,77.2644822881683L112.427325,76.51563095128918L113.02286785714286,70.10633835003601L113.05388571428571,72.77605555299417L113.27721428571428,78.73065092827974L113.469525,76.55185786644284L114.07127142857144,79.59373370027345L114.23256428571429,51.94832189569355L114.25737857142857,81.7767411547272L114.3566357142857,94.47696258648448L114.61718571428571,83.39912770762571L115.01421428571429,107.03968877300339L115.032825,78.23513813200425L115.13208214285714,71.26564517606992L115.727625,80.31159879320681L116.0564142857143,74.84711712094439L116.64575357142857,93.39679314549143L117.377775,106.91043428454029L117.551475,113.83445810957687L117.91748571428572,116.6265796976324L118.01674285714286,74.04041642648197L118.20905357142857,64.93738455952536L118.65571071428572,38.88541430819831L118.77357857142857,58.396635432176595L119.04033214285714,49.32646575876046L119.16440357142856,87.95660663192258L119.52421071428572,95.22491491523256L119.62967142857143,98.10516207985206L119.79716785714287,113.34559409124925L119.92744285714286,94.8210804218249L120.00188571428572,82.375761229646L120.09493928571429,129.46520810416445L120.11975357142857,116.73168157154981L120.22521428571429,131.04200498589674L120.44854285714285,125.92970215635776L120.69668571428572,94.56672329281139L120.90140357142857,94.97874087795239L121.58379642857143,103.85794788184538L121.91258571428571,89.81699769009812L121.9374,59.05419052785436L122.06147142857142,71.73989724365353L122.36544642857143,75.53261943964652L122.54535,100.4781825000554L122.8059,90.80182387915313L123.12228214285713,120.21088535837569L123.26496428571429,94.17677249224327L123.63097499999999,80.37970729655828L123.64958571428572,71.72813454620129L124.05281785714286,84.50221167178206L124.23272142857142,70.68842705351861L124.44364285714286,68.02783348478528L124.66076785714286,100.07845718215498L124.80345000000001,120.73796904772875L124.90270714285714,122.7336806314609L125.35556785714286,87.24043053492434L125.47343571428571,89.29588362398464L125.6099142857143,72.4925053264065L126.11860714285714,50.863996082864034L126.99331071428573,89.09310565013995L127.40274642857143,89.82309131753033L127.44617142857143,56.29709581453551L127.50200357142857,88.72995074104637L127.60746428571429,114.3663957006417L127.68190714285714,63.15355319062964L127.71912857142857,105.85573187995014L128.0851392857143,80.48699920849837L128.39531785714286,68.68055911705997L128.68688571428572,118.43432472316093L128.9102142857143,140.46301209192077L129.0591,147.78369054711226L129.0777107142857,142.7941053695462L129.54297857142856,163.11295706611764L129.5802,164.8034433494919L129.76630714285713,139.2787904877015L129.8221392857143,96.15111786714483L129.84695357142857,109.61731392855222L129.884175,57.81419340559708L130.4549035714286,45.2970367752842L130.46110714285714,27.581474294861067L130.51073571428572,73.2609017709493L130.53555,125.29772469577786L130.6410107142857,130.23824424611092L131.0380392857143,105.9272831002865L131.15590714285713,97.90753603458369L131.36682857142858,90.46707593250252L131.9933892857143,118.02275529770839L132.38421428571428,107.79593157093996L132.6695785714286,117.50970527482792L132.94253571428573,103.56746013493994L133.06040357142857,85.60675187785422L133.47604285714286,109.3752929954469L133.83585,75.1315673678362L133.97853214285715,100.35385470087786L134.48102142857144,75.44046669063249L134.76018214285713,71.54272750888632L134.77258928571428,35.073760172571895L134.97110357142859,14.55339592507255L135.16341428571428,24.94110083228813L135.529425,71.93827076701204L136.41653571428571,61.803141185926705L136.56542142857143,62.08181722479303L136.62125357142858,77.29303789804722L136.65847499999998,85.85764402312245L136.9438392857143,91.2839802012575L136.96245,62.887405077560686L137.08031785714286,51.340356168713555L137.89918928571427,66.07455055330182L137.9860392857143,101.0871189714312L138.61880357142857,111.36481276993986L138.74907857142856,139.18197872903966L139.19573571428572,117.47532507936373L139.57415357142858,145.92649244523176L140.02081071428572,120.31387115035133L140.15728928571428,80.22532827921917L140.26275,106.45840299050933L140.54811428571426,119.9375627012308L140.75903571428572,120.66909252591464L141.16226785714287,98.29847751013955L141.49726071428572,82.61317095489814L141.65855357142857,84.5921812589855L141.68957142857144,87.30243566011734L142.13002500000002,90.3141279815158L142.35335357142858,99.6625101899219L142.65732857142856,140.1878690031238L143.04194999999999,142.6479301194589L143.04815357142857,134.61403969527726L143.259075,138.14621070743468L143.345925,142.13484008503477L143.60647500000002,151.66589893098188L144.64247142857144,160.22696867463299L144.83478214285714,144.70347581790273L145.04570357142856,151.095994568386L145.42412142857142,143.91748844535252L145.48615714285714,101.65502909750403L145.7156892857143,115.30356476623214L145.76531785714286,106.73128049086571L145.92040714285713,68.60839306182294L146.03207142857144,40.613278963962955L146.04447857142856,28.031703945874995L146.1871607142857,81.41311406664839L146.1933642857143,108.51399732931132L146.19956785714285,117.94487023892209L146.21817857142858,75.7191434630287L146.33604642857145,105.24345319798782L146.55317142857143,112.38078730661387L146.74548214285716,92.27705427979657L146.87575714285714,64.23626790389557L146.98742142857142,6.633924410016192L147.04945714285716,11.039267683786647L147.601575,62.828485715843755L147.688425,76.09880144861788L147.81249642857145,23.35781993310121L147.86832857142858,55.33916428351682L147.91175357142856,85.19395358719994L147.91795714285715,111.80418628429514L148.0978607142857,130.51701888784854L148.15989642857144,113.08222316470794L148.28396785714284,131.79734751800925L148.7120142857143,121.50412379396099L149.01598928571428,152.99512609119498L149.22070714285712,148.33012227341703L149.45644285714283,146.72239683106645L150.1450392857143,122.01769032856885L150.30012857142856,131.52486852634587L150.3187392857143,115.18149128215694L150.37457142857141,94.70894419108146L150.54827142857144,81.34581107231564L150.76539642857145,122.94725418646686L150.83983928571428,119.57163100337715L151.08177857142857,98.09795595702965L151.23686785714284,72.32595995126631L151.3423285714286,73.80332322513144L151.76417142857142,95.43043586131978L151.90064999999998,108.78039577673105L152.07435,77.86462501686951L152.40934285714283,93.74011158109988L153.23441785714286,98.39945373988917L153.24062142857142,112.2747555712269L153.8299607142857,147.79131577011384L154.10912142857146,150.25300963638088L154.85975357142857,164.15499801348366L154.90317857142855,125.56032420701217L155.678625,100.94868242208021L155.97639642857143,100.08902664222632L156.2245392857143,93.71515403889606L156.37962857142855,89.14470126213428L156.49749642857142,105.17522864092469L156.5285142857143,116.39005354135678L156.67119642857142,45.68542056494624L156.80767500000002,62.61074051745932L156.93795,99.63278235845684L157.35979285714285,60.9657438364799L157.68858214285714,83.23732933564038L158.0483892857143,102.53855576373964L158.32134642857145,99.30931826149124L158.3461607142857,101.23392258474051L158.50125,70.89583523266805L159.6489107142857,112.95787420745665L159.74196428571426,117.42928331778035L159.76057500000002,81.31361534169665L159.8970535714286,117.16585753900618L159.934275,115.2051813074518L160.2320464285714,99.80490341356806L160.32510000000002,83.82054008347639L160.6104642857143,83.06066513003617L160.6973142857143,94.71190862382478L160.76555357142857,101.85747101977482L160.82138571428573,111.803180948943L161.10675,98.77677962306147L161.17498928571428,77.21567370130424L161.2122107142857,107.39899727841497L161.57822142857145,134.1773696287887L161.74571785714286,160.63264112498862L161.8884,84.51002781645357L162.32264999999998,96.32347764167726L162.45912857142858,72.89561908956492L162.66384642857145,108.81762927243784L162.76930714285714,101.04733901065396L162.81273214285713,82.94656249548083L163.060875,109.93039745250397L163.14152142857142,127.26942176079187L163.1725392857143,114.46228654417654L163.20976071428572,113.22327240606106L163.22837142857142,99.9386095219848L163.69984285714287,119.35874983513341L163.70604642857143,107.19391114976398L163.71845357142857,110.03774118463033L163.97900357142856,113.40695479297541L163.9976142857143,97.45205233325899L164.18992500000002,112.05710296291318L164.35742142857143,112.048871320833L164.37603214285713,110.9012066890891L164.40705,112.64230438054177L164.75445000000002,112.22657618272648L164.84750357142858,145.95399983196467L164.90333571428573,103.56719222705965L164.91574285714285,95.53701045895463L165.21971785714285,99.14110538592843L165.57332142857143,111.74931859869305L165.85248214285713,118.43200620113936L166.10682857142857,124.68021740734056L166.187475,117.22390233170674L166.1936785714286,127.45857433254533L166.31775,99.18573286160836L166.33015714285716,97.21291311755782L166.36117499999997,132.57727256879215L166.42941428571427,101.82434814611081L167.1180107142857,79.29229858540893L167.24828571428571,82.48364451899171L167.6701285714286,105.21159902795578L167.67633214285715,91.59739555826441L167.69494285714285,110.91732009953654L167.7011464285714,91.44966681186197L167.94308571428573,119.24599690427685L167.99891785714286,31.43430275196019L168.14780357142857,47.54270398661009L168.35252142857144,82.80602301147292L168.5076107142857,134.1754191224975L168.73093928571427,151.49100022704616L168.966675,121.46183207506667L169.21481785714286,57.15183635040961L169.26444642857143,44.27666483572031L169.4629607142857,74.04990646750275L169.54360714285716,104.92457128233042L169.9406357142857,97.31658029118972L170.34386785714284,91.66486439204097L170.48655000000002,49.72911801752976L171.00764999999998,48.58125075350722L171.0262607142857,58.50028224140718L171.05727857142855,99.17070564598033L171.47291785714287,131.96190473181125L171.58458214285713,124.96329336966349L172.04985000000002,88.33029375794693L172.2917892857143,105.41497349097232L172.29799285714284,45.04846445890607L173.27195357142858,68.12585514648164L173.53250357142858,91.73170357622746L173.53870714285713,138.85742218660144L173.94193928571428,62.38991796354547L173.9791607142857,90.52977908837855L174.10323214285717,103.41092241876161L174.14045357142857,65.22173959417842L174.27072857142858,105.45685378315271L174.30795,114.15304860593213L174.68016428571428,91.95530920458636L175.046175,97.37603158851148L175.2446892857143,100.17495649277974L175.28811428571427,103.30615273010616L176.6156785714286,111.355298837971L176.77076785714286,132.89526194748362L176.8514142857143,92.34535019407916L177.0189107142857,112.66373505240828L177.06233571428572,124.91842480090946L177.130575,124.91338419430072L177.16159285714286,149.37292295761478L177.21122142857143,161.28892395298223L177.29807142857143,168.5911306202444L177.47177142857143,139.39337472439007L177.89981785714284,82.59500013542295L177.91842857142856,94.78095048279835L178.1789785714286,108.37957427627607L178.3961035714286,129.84583960966327L178.62563571428572,89.23227604982887L179.1901607142857,104.65477543686413L179.28941785714284,69.35749921330562L179.95319999999998,93.54326856570694L179.996625,110.19589409254345L180.07106785714285,125.50615756286592L180.38745,131.6851426134909L180.4556892857143,109.2998180228713L180.46189285714286,101.34069291938799L181.02021428571427,136.22978261583722L181.038825,135.2293711845498L181.95075,80.57685611870411L181.97556428571428,71.41320828095985L181.98176785714287,68.37334353384917L182.08722857142857,100.90486488495795L182.18028214285715,107.68674653383808L182.24231785714284,113.72148707039784L182.31055714285714,115.98151568846484L182.341575,97.57982594893325L182.37259285714285,100.49987265900343L182.39740714285713,57.82065657994494L182.4346285714286,88.09032214177456L182.58351428571427,100.17593646104818L182.64555000000001,105.38992697987368L182.80684285714284,109.31752766724473L183.08600357142856,53.03916456196332L183.22868571428572,64.1163608699657L183.54506785714287,71.65848630843266L183.69395357142858,73.78673324452464L183.81182142857145,78.13519374767917L183.89867142857145,92.59015139245975L184.1033892857143,66.71178241910928L184.80439285714286,61.1290747400665L185.10836785714287,91.51822043875121L185.61085714285716,98.23883268844642L185.67909642857143,103.21676159627177L185.80316785714285,95.87921453909242L186.17538214285713,77.26215619442557L186.25602857142857,116.76558700917778L186.4855607142857,47.30230966400279L186.60963214285715,84.21985588545307L186.67787142857145,80.21807092234317L187.21137857142858,67.98353532197967L187.2734142857143,91.37228013183412L188.14811785714286,134.11074989262661L188.37765000000002,83.66343242420817L188.39005714285713,29.555979848468695L188.5699607142857,69.91482952628395L188.81189999999998,112.64449976082958L189.10967142857143,88.56252688048075L189.40744285714285,80.69602945731754L189.41985,78.8668265157144L189.46947857142857,90.61022198040489L189.6555857142857,121.0942147877169L189.79826785714283,116.65027284421636L189.88511785714286,133.50932947634527L190.2387214285714,114.76239800118725L190.83426428571428,86.95570508994655L191.113425,96.41839470242256L191.13823928571426,82.75785483941313L191.51045357142857,103.35353300347849L191.79581785714285,125.3689365564282L191.981925,105.58830170264815L192.11840357142856,139.30239385980948L192.16803214285713,118.73696255218141L192.92486785714286,139.9505457587907L193.11097500000002,125.2223316769522L193.2474535714286,138.313365739627L193.45217142857143,122.18626668336589L193.632075,112.6866568200743L193.9112357142857,137.60796086984612L194.153175,137.57490107177338L194.68668214285714,89.17538563226844L195.13954285714286,109.10881049880496L195.29463214285713,124.76929622917838L195.37527857142857,112.43468901890196L195.4311107142857,127.76434826241538L195.92119285714284,146.85624995819694L196.2872035714286,156.83269459958055L196.9944107142857,145.1216483208846L197.08746428571428,153.94857045133776L197.41005,115.11076869797625L197.57754642857142,71.99710839886615L197.96216785714284,67.21661294400181L198.11725714285714,96.98688746988469L198.669375,115.4930571860057L198.89890714285715,117.3216754142035L199.11603214285714,105.27613518855507L199.32075,135.59397659195383L199.57509642857144,94.18815504963946L200.24508214285714,69.86740517053457L200.34433928571428,101.47831821461591L200.4746142857143,104.61932117712543L200.53044642857142,116.39903663141754L200.6297035714286,111.96976301755446L201.02052857142857,75.5578567104694L201.02673214285713,71.55090584022743L201.11358214285713,108.45634985722864L201.795975,118.9129242083893L201.8766214285714,123.55996045717393L201.9448607142857,99.6340069821405L202.56521785714287,111.5282561725931L202.98085714285713,76.46244365612012L203.24140714285716,66.15674910688008L204.22157142857142,95.54695725645784L204.74267142857144,105.9689604211221L204.75507857142858,88.17012165357889L205.0032214285714,70.45154823047055L205.00942500000002,96.59116644133411L205.01562857142858,111.82641900223065L205.11488571428572,106.21363362217885L205.19553214285716,110.52934305754272L205.20793928571428,77.0014853744922L205.82209285714288,96.71682767446151L206.75262857142855,55.241228639932345L207.14965714285714,61.89989732256643L207.18687857142857,87.89431589335868L207.2241,99.76227271610897L207.2489142857143,64.22923878225328L207.25511785714286,84.29601054187204L207.7203857142857,100.35236152050247L207.96852857142858,109.87964853428215L208.309725,103.84373919595727L208.98591428571427,105.50874637978941L209.05415357142857,134.68012359748883L209.10378214285714,142.60129323369625L209.4015535714286,114.2365788123987L209.55043928571428,125.16071811091791L209.79858214285716,122.06580330355104L209.81719285714286,117.78477583541357L210.00950357142855,125.92668424137761L210.0715392857143,152.538769037654L210.1149642857143,126.21034557648301L210.22662857142856,124.98576803581597L210.58023214285714,87.75773537860324L210.70430357142857,86.51315301839118L210.72291428571427,59.260422514579346L210.85318928571428,91.88921368283131L211.3866964285714,74.8563924059993L211.95122142857144,101.44784211431302L211.96362857142856,113.21822501369928L212.16214285714284,97.98751422613036L212.27380714285715,95.93292648463947L214.02941785714285,71.54276449960172L214.19071071428573,99.58684588719429L214.46366785714287,60.89818681984558L214.8048642857143,17.434118409808974L215.18948571428572,69.41551261893304L215.27013214285714,98.28998024077053L215.84086071428572,88.21047194248936L216.0207642857143,101.09674397138656L216.26270357142857,73.04002583401143L216.66593571428572,16.99040220962013L217.99970357142857,35.8036380671623L218.48978571428572,95.82270675439614L218.6510785714286,109.56112060629712L218.78755714285717,141.3732348458969L218.905425,101.52684017044326L219.02949642857143,121.51286099327815L219.0605142857143,125.35951880558261L219.15977142857142,111.57858732666925L219.2342142857143,95.5741825158975L219.33347142857144,103.9627033600558L219.50096785714288,65.58163081940111L219.9228107142857,56.532410162306434L220.2267857142857,92.73814973450699L220.30743214285715,116.65724825749996L220.35706071428572,132.13188910180452L220.9464,134.24142421063254L221.39305714285715,148.27894931063935L221.59777499999998,113.720442131912L221.6412,112.21928888663965L221.69703214285715,98.80455632034132L222.00721071428572,58.89126340522286L222.02582142857142,100.57366709455202L222.15609642857143,99.29819338407725L222.2305392857143,118.14255178264743L222.34840714285713,60.14117627079469L222.466275,91.10711581310738L223.30996071428572,43.347470488554904L223.81245,111.29070054138104L223.81865357142857,117.79793416407347L224.029575,112.4962828311124L224.14744285714283,118.53222918586722L224.43280714285714,104.67665144608492L224.8794642857143,38.53896585944935L224.91048214285712,84.44606760408669L225.071775,109.82857109228488L225.35713928571428,125.17575868201087L225.45019285714287,132.3707313885202L225.7293535714286,105.61059923827112L225.9588857142857,76.21702372705613L226.2256392857143,78.95892135665223L226.34971071428572,93.35722735503555L226.38693214285712,115.01626228439358L226.46757857142856,152.4632743462774L226.64127857142856,157.94528131037072L226.90803214285714,173.36218957274627L227.15617500000002,135.87907032233161L227.57181428571428,105.0590753773551L227.72690357142855,80.23151582358484L227.77032857142856,85.14914017008667L227.79514285714285,117.53285225443199L228.40929642857145,113.83074756748766L228.42790714285715,87.80195667676504L228.67605,84.24957139451729L228.87456428571429,82.15729135727543L229.25918571428574,95.21609312925135L229.34603571428573,125.71778022786017L229.45149642857143,82.80140817844891L229.4577,123.26646198799625L229.71825,119.6830968413974L230.33240357142859,121.69765678728969L230.4999,82.58206126263947L231.40562142857144,100.85044300419814L231.7344107142857,103.90224178709224L232.40439642857143,66.00371013687631L232.47263571428573,97.03424536112892L233.23567500000001,118.22972062542408L233.6016857142857,141.35785201736908L233.83121785714286,163.61495893984213L233.96149285714287,164.67505812280876L234.191025,158.4353517129034L234.41435357142856,137.88046851122442L234.42055714285715,117.66325385549106L234.57564642857145,112.8170401381161L234.96026785714287,79.36154349367061L234.9974892857143,80.3323482651725L235.09054285714285,54.14054715271085L235.40072142857142,82.94730363032393L235.5620142857143,83.2224852463077L235.667475,111.84548764708464L235.81015714285715,82.33440200616616L236.09552142857143,105.47316353159964L236.49875357142858,114.25425039671553L236.5421785714286,113.8118379386824L236.59180714285716,131.1759680111743L236.88957857142856,139.86330347416026L236.9454107142857,162.91504838917984L237.31142142857144,128.62809852632483L237.39206785714288,143.67403238101366L238.29158571428573,121.43871213009096L238.36602857142856,100.86002017623268L238.57074642857143,125.41592784622956L238.58315357142857,147.20639807283672L238.83129642857145,136.73891773760195L239.23452857142857,130.87362565720008L239.69359285714285,125.4769737465616L239.98516071428574,101.19042245766138L240.2084892857143,111.4288257409371L240.38839285714283,121.93215493018846L240.56829642857144,99.8013786152328L240.64894285714286,108.16781824441702L240.66755357142858,70.93201072938413L241.0769892857143,111.4411911042164L241.0956,114.64781030605019L241.36235357142857,109.43607918733227L241.60429285714287,104.5772702092759L241.66632857142858,129.1824771377344L241.6849392857143,155.52387868898506L242.01372857142857,139.0335906036937L242.71473214285714,158.8960347323563L242.83259999999999,152.08477488213458L242.876025,114.74276672991323L242.88222857142856,112.19341032977226L242.92565357142857,107.46013457104758L243.32888571428572,90.20971454456566L243.3537,80.53567674681616L243.50258571428571,88.64727130249186L243.57702857142857,87.49701236674215L243.657675,86.68950910919327L243.70110000000003,41.425163943489906L244.2035892857143,56.68413405115632L244.40830714285713,103.2817661887123L244.43312142857144,43.26884882960999L244.60061785714288,102.21091246553829L244.613025,85.78126539914949L245.02866428571429,98.2196196182319L245.1713464285714,103.43970272086551L245.60559642857143,66.76906693424282L245.66763214285714,22.932633972439135L245.77309285714287,64.72736373083174L245.81651785714286,87.97457982383001L245.83512857142856,80.60571412373677L245.92197857142855,54.16919933396038L245.99021785714285,81.19419067643557L246.83390357142858,103.2544832655339L247.06343571428573,110.60443749955587L247.40463214285714,119.84127726275497L247.44805714285712,101.19582542013391L247.85128928571427,62.08732995886362L248.00637857142857,64.20922244250032L248.06221071428573,39.87843538677248L248.13665357142858,50.29157580706807L248.25452142857142,75.60098155959443L248.35998214285715,104.6355546547413L248.45303571428573,70.88085781296732L248.694975,58.678466191057225L248.76941785714286,75.0665232158684L248.92450714285712,113.53894334298272L249.1106142857143,85.1969297460431L249.1540392857143,77.91268077443326L249.51384642857144,102.63662898272445L249.5820857142857,39.90064675408706L249.79921071428572,76.00124336718386L249.9170785714286,91.31619030260363L249.96050357142857,101.94883404149604L250.24586785714285,106.654110673511L250.56845357142856,114.25638392534495L250.5870642857143,130.94709248880528L250.80418928571427,122.58717181766025L251.22603214285715,101.40690279057019L251.38112142857142,114.0568747797632L251.59204285714284,112.64372229212665L251.61065357142857,125.10541693707792L251.9332392857143,126.89327626788906L251.93944285714286,138.85526050307925L251.98907142857144,134.99719647633182L252.06971785714288,117.90123901168792L252.41091428571428,139.14038106203253L252.57841071428572,86.6484322071086L252.950625,49.01311836719579L252.9568285714286,51.430407939434474L253.1181214285714,78.48469367866544L253.1925642857143,92.5320495894243L253.28561785714285,100.81312680188951L253.4096892857143,113.74382207717977L253.46552142857144,103.51916210369158L253.52135357142856,79.81011816332276L253.7074607142857,79.95041427653753L254.0114357142857,89.63469535256459L254.35263214285715,105.475386308104L254.55114642857143,122.36693692354575L254.687625,113.55746158807405L255.14048571428572,61.877204814248884L255.62436428571428,33.64440287035322L256.08342857142856,70.62452910829553L256.3874035714286,95.9566485946713L256.61073214285716,134.68858863862383L256.99535357142855,120.23915957541485L257.3117357142857,134.26077985007296L257.4730285714286,87.15639168523987L257.49163928571426,52.73863322796369L257.96311071428573,51.054227679145015L258.0933857142857,64.04838002036315L258.1430142857143,104.22597520893994L258.2236607142857,113.62537420359959L258.23606785714287,126.88689290981121L258.27328928571427,145.01071275532618L258.6703178571429,140.52096524155365L258.8812392857143,143.59559453079834L258.89364642857146,135.55608275025926L258.89985,109.65268242412714L259.4333571428572,97.13762292655653L259.45196785714285,86.03358278866021L259.6194642857143,105.288580434295L260.680275,112.57038146422651L260.7237,141.83878557542772L260.95323214285713,109.14620080149061L261.13313571428574,128.83783797118596L261.1641535714286,106.48457966621835L261.42470357142855,99.04561465964387L261.461925,84.43141581765218L261.809325,74.26210677475572L261.9147857142857,107.93682139188552L261.92098928571426,112.88697754544322L262.32422142857143,83.96551485539855" style="fill: none;" fill="none"></path></g></g></g></g><g opacity="0.2"><g><g><g><path stroke="rgb(255, 112, 67)" stroke-width="2px" d="M45.62106428571428,-67.54989582896229L46.09253571428572,92.6588234692812L46.595025,67.86704953908921L46.93622142857143,38.943900132179266L46.95483214285714,58.50836228728295L47.04168214285714,57.096690201759344L47.066496428571426,79.37728192806244L47.364267857142856,-5.3454620003699915L47.40769285714286,16.46457236409188L47.68065,-46.2192808449268L47.866757142857146,-49.85373709201809L48.22036071428571,66.92912619709969L48.400264285714286,142.89548363685608L48.49952142857143,107.63856250941754L48.59877857142857,-11.764359211921658L48.94617857142857,56.85169231295586L49.26256071428572,144.95499301850796L49.374225,74.38065957427025L49.430057142857144,48.14940106272698L49.529314285714285,-6.511002069711651L49.547925,8.653151357173925L49.82088214285714,153.1517403960228L50.211707142857136,76.5524607539177L50.267539285714285,58.26420840024949L50.34818571428572,10.498930478096014L50.366796428571426,143.76342076957226L50.416425000000004,65.71386914849282L50.664567857142856,118.55349671244622L50.77002857142857,71.61307227015496L50.850675,171.05903145074845L51.18566785714286,124.26864151060582L51.402792857142856,141.55551213920117L51.77500714285714,114.08115770816804L52.339532142857145,156.42550457417966L52.413975,94.01731025576592L52.61248928571428,98.09193980097771L52.64971071428571,150.46053525209427L52.773782142857144,172.49975565969945L52.8048,137.6929907888174L53.08396071428571,56.64868351221085L53.15840357142857,146.22169461250306L53.37552857142857,-28.874305969476666L53.59265357142857,134.07315950989724L53.59885714285714,36.85707938075066L53.88422142857143,117.06817228496075L53.98968214285714,54.81092240810395L54.002089285714284,103.62267021238804L54.03310714285714,116.90584700703621L54.18819642857143,140.61758879721165L54.1944,55.4262260735035L54.26884285714286,-6.682888305187191L54.299860714285714,56.219561362266546L54.47976428571428,153.42528928220273L54.57281785714285,149.48613520860673L54.61003928571429,112.03039165735245L55.42891071428571,46.86206098794938L55.77010714285715,137.9954467356205L56.074082142857144,63.11993520855904L56.73786428571429,141.77108865380288L57.17831785714285,54.076640868186956L57.451275,90.6357776015997L57.61877142857143,32.286757045984274L57.63738214285715,46.455173009634024L57.997189285714285,78.06870993375779L58.38181071428571,63.37026085853577L58.598935714285716,32.699394786357885L58.80985714285714,60.55190157294274L58.89670714285714,53.14721029400826L58.90911428571428,58.6066357433796L58.91531785714286,105.12673411667348L59.275125,92.42216009795666L60.360749999999996,72.38253813385964L61.105178571428574,7.56159331798554L61.21684285714286,73.74148648381234L61.22925,122.68562387824059L61.539428571428566,138.82268715798855L61.88682857142857,60.496672207117086L61.97988214285714,161.71632748246194L62.30246785714286,109.33119487166405L62.432742857142856,-79.47859484553334L62.476167857142855,69.2312201499939L63.139950000000006,74.77612715363503L63.313649999999996,106.10167484879494L63.48735,76.0217682659626L63.809935714285714,121.06132928431035L64.19455714285714,103.43676563501359L64.80250714285714,61.97929319143296L64.83972857142857,101.81493710875512L64.99481785714286,109.94163233935834L65.02583571428572,70.34912686944008L65.47249285714285,107.37117219865323L65.55313928571428,158.4104121118784L65.56554642857142,81.49070192277432L66.06803571428571,127.80271429717541L66.63876428571429,139.5372797191143L66.744225,115.81725616157055L66.8745,-30.3190259993076L67.48245,88.55585392713547L67.70577857142857,109.16970040798188L67.73059285714285,43.45464121699334L67.78022142857142,107.99321469068528L68.23928571428571,147.43192721307278L68.47502142857142,185.5710616350174L68.56187142857144,171.8784384816885L68.79760714285713,75.21877970695496L68.87205,-18.232894277572598L69.1326,105.96758406758309L69.55444285714286,38.232274764776236L69.610275,83.2359788954258L69.6288857142857,148.1140257060528L70.10035714285715,110.36689054369927L70.11276428571428,171.31856199502946L70.44775714285714,68.62374987602234L70.62145714285714,61.34797986745835L71.27283214285714,121.18138853609562L71.83115357142857,24.511839115619665L71.93041071428571,93.20282217264176L72.01726071428571,140.12957114875317L72.39567857142858,168.52413807213307L72.99742499999999,119.54699229598046L73.19593928571429,89.11344897150994L73.90935,-9.333132988214459L74.00240357142857,32.48937022089959L74.27536071428571,101.13352436721325L74.80266428571429,111.22855041325093L74.90812500000001,91.68467398881913L74.92673571428571,42.73726608753205L75.15006428571428,94.04487218856812L75.19348928571428,81.40500936806203L75.41681785714286,169.3746676683426L75.54709285714286,38.263555580377584L75.93171428571428,130.5726753562689L76.05578571428572,105.58423582613469L76.74438214285715,102.07204114794732L76.80641785714285,43.750648462772375L77.11659642857143,70.67855131030083L77.2344642857143,-13.147862738370861L77.31511071428571,87.98645604550839L77.35233214285715,77.72037457823754L77.43297857142856,-3.3573103308677332L77.78658214285714,91.12591844201089L77.9292642857143,101.12832848131657L77.96028214285714,-33.742877429723706L78.32629285714285,9.353013449907309L78.47517857142857,88.5266435533762L79.07072142857143,61.95608314275742L79.21960714285714,74.86290108561516L79.5546,76.65358271598816L79.73450357142856,39.001898878812796L80.06949642857143,65.29018025994301L80.31143571428571,93.19419752955437L80.33004642857144,71.78063299655915L80.40448928571428,192.00083855688572L80.5968,105.89286353588105L81.24197142857143,81.68265957534314L81.2916,139.76725701391697L81.38465357142857,146.2118171542883L81.9864,97.34669942557812L82.14769285714286,185.50002042353154L82.28417142857143,93.70604504048825L82.8549,81.49071511030198L82.90452857142857,-5.9381886184215205L83.158875,67.18169372677804L83.53729285714284,71.4206398665905L83.72960357142857,113.588207924366L84.12663214285715,54.81313791275025L84.30033214285713,46.45126950144768L84.30653571428572,142.4800765156746L84.42440357142857,-26.311969345807995L84.56708571428571,20.56412633657456L84.68495357142858,114.43890895843506L84.98892857142857,17.854274028539663L85.05096428571429,56.0209044456482L85.069575,12.834415251016623L85.16262857142857,37.440759354829794L85.36734642857142,93.97679817080498L86.19242142857142,103.60845405757428L86.459175,119.1334578037262L86.49639642857143,69.2231757581234L86.91203571428571,71.17796298265458L87.08573571428572,115.76566655337811L87.14777142857143,114.03719049096108L87.36489642857144,30.061018878221518L87.78053571428572,2.3832995831966457L87.97905,32.195604854822164L88.34506071428571,51.78172093033791L88.56218571428572,107.44131665825844L88.70486785714284,135.70507649481297L88.81032857142857,88.29836744964123L89.51753571428571,113.14595099687577L89.73466071428572,178.69765628278256L89.77188214285714,-117.48868930935856L90.19992857142857,3.0888323128223476L90.47288571428572,124.7516215234995L90.65278928571429,155.45877967178822L90.68380714285715,153.27549215555192L90.73963928571428,24.146096223592764L91.29796071428571,130.19986394941807L91.31657142857142,164.50740177333356L91.49027142857143,140.83026405572892L91.55230714285715,143.18617630898953L91.91211428571428,128.65362633168698L92.12923928571429,123.79522245526314L92.33395714285714,166.43376987576485L92.34016071428572,111.49822216629983L92.71237500000001,108.9203901976347L93.48161785714285,89.29360378682614L93.50022857142858,135.04911568164826L93.84762857142857,178.0360380202532L94.00892142857144,125.38886923491955L94.02753214285714,144.6823936343193L94.15780714285714,138.7268402069807L94.20123214285714,21.269579941034323L94.56103928571429,113.3439749121666L94.59826071428571,90.4296697318554L94.94566071428572,106.69991385340691L94.99528928571429,84.65690862536431L96.00647142857143,47.89593678116799L96.04989642857143,110.63140597343445L96.21739285714285,82.86085967123509L96.56479285714286,70.51468309164048L96.76330714285714,98.01009800434113L97.16033571428572,134.20048508942128L97.17894642857142,140.2827047199011L97.30301785714286,147.99247626364232L97.50773571428572,76.30448248386384L97.99781785714286,160.6770579904318L98.04124285714286,80.17384816110135L98.12188928571429,39.80451818704606L98.25836785714286,119.03576459884644L98.49410357142857,133.79971612393857L98.68021071428572,160.2167869001627L98.82289285714286,90.96207659840584L98.93455714285714,86.48558352291585L99.36880714285714,87.16404225826264L99.834075,162.15919103622437L100.23110357142858,103.63490823805333L100.63433571428571,114.32338621616364L101.14923214285714,43.812972718477255L101.16784285714286,135.54508540928364L101.32913571428571,171.16396460831166L101.85023571428572,69.93709575533867L102.39615,138.2372532427311L102.52022142857143,160.18907990455628L102.56364642857143,154.24619969129563L103.26464999999999,91.28163676857949L103.2832607142857,69.42307230234147L103.41353571428571,47.06034865379334L103.77954642857144,148.84718630611897L103.84158214285713,92.69879486560822L103.86639642857142,108.27748503684998L104.04629999999999,100.35631742477418L104.25101785714287,164.7411770761013L104.57360357142858,-29.13307163715359L104.67906428571429,-26.517879402637448L104.76591428571429,65.31737294197083L104.86517142857143,98.76185301840306L104.97063214285714,131.44116636514664L105.21877500000001,19.51136600375176L105.50413928571429,74.510108345747L105.51034285714286,155.62287207841874L105.64682142857143,59.84051358103753L105.86394642857144,104.67995386719704L105.92598214285715,123.99870600700379L106.02523928571429,64.22818865776063L106.08107142857142,93.40765085220337L106.16792142857142,76.39721717834473L106.40365714285714,51.70412551760674L106.42226785714286,32.992870026826864L106.63318928571428,127.36064199507237L106.65800357142857,136.19705040156842L106.80068571428572,164.3106306731701L106.83790714285713,92.63273853957654L106.85031428571429,45.175086075067526L107.09845714285714,98.99883289039136L107.13567857142857,88.47951132953168L107.216325,3.5477319002151546L107.24734285714287,90.22362779974938L107.64437142857142,116.67648952603341L107.76223928571429,161.9306116193533L107.81807142857143,128.22108861207963L108.09723214285715,-3.3430678009986536L108.23991428571429,14.7477672636509L108.25232142857143,91.3050050675869L108.258525,136.67215746045113L108.62453571428571,158.3252074956894L109.61090357142857,10.496081972122198L109.93969285714286,92.58295562267304L110.0637642857143,51.1131924033165L110.256075,87.76600014567376L110.31190714285715,-17.87448365092274L110.41736785714285,80.5713861823082L110.52282857142858,133.88759780824185L110.71513928571429,114.37792983055115L111.03152142857144,67.92386140823365L111.17420357142856,2.032010221481329L111.26105357142858,67.08742927908898L111.72011785714287,105.77300209701062L112.427325,75.39235394597054L113.02286785714286,60.49239944815636L113.05388571428571,76.78063135743142L113.27721428571428,87.66254399120808L113.469525,73.28366827368737L114.07127142857144,84.15654745101929L114.23256428571429,10.480204188823706L114.25737857142857,126.51937004327775L114.3566357142857,113.52729473412037L114.61718571428571,66.78237538933755L115.01421428571429,142.5005303710699L115.032825,35.02831217050553L115.13208214285714,60.81140574216843L115.727625,93.88052921891213L116.0564142857143,66.65039461255074L116.64575357142857,121.22130718231202L117.377775,127.18089599311352L117.551475,124.22049384713173L117.91748571428572,120.81476207971573L118.01674285714286,10.161171519756323L118.20905357142857,51.28283675909043L118.65571071428572,-0.19254106879230903L118.77357857142857,87.66346711814404L119.04033214285714,35.72121124863625L119.16440357142856,145.90181794166566L119.52421071428572,106.12737734019757L119.62967142857143,102.42553282678128L119.79716785714287,136.20624210834504L119.92744285714286,67.03430991768838L120.00188571428572,63.707782441377645L120.09493928571429,200.0993784159422L120.11975357142857,97.63139177262784L120.22521428571429,152.5074901074171L120.44854285714285,118.2612479120493L120.69668571428572,47.52225499749184L120.90140357142857,95.59676725566388L121.58379642857143,117.17675838768483L121.91258571428571,68.75557240247727L121.9374,12.909979784488684L122.06147142857142,90.7684573173523L122.36544642857143,81.22170273363591L122.54535,137.89652709066868L122.8059,76.28728594779969L123.12228214285713,164.32447757720948L123.26496428571429,55.12560319304467L123.63097499999999,59.68410950303078L123.64958571428572,58.75077542066575L124.05281785714286,103.6633273601532L124.23272142857142,49.967750126123434L124.44364285714286,64.03694313168526L124.66076785714286,148.1543927282095L124.80345000000001,151.72723684608937L124.90270714285714,125.7272480070591L125.35556785714286,34.00055539011956L125.47343571428571,92.37906325757504L125.6099142857143,47.28743788003922L126.11860714285714,18.421232217550283L126.99331071428573,146.43677000105382L127.40274642857143,90.91806981861592L127.44617142857143,6.008102560043341L127.50200357142857,137.37923313081265L127.60746428571429,152.82106314003468L127.68190714285714,-13.66571057438847L127.71912857142857,169.9089999139309L128.0851392857143,42.433900201320654L128.39531785714286,50.97089897990227L128.68688571428572,193.0649731323123L128.9102142857143,173.50604314506054L129.0591,158.7647082298994L129.0777107142857,135.3097276031971L129.54297857142856,193.5912346109748L129.5802,167.3391727745533L129.76630714285713,100.99181119501591L129.8221392857143,31.45960893630982L129.84695357142857,129.81660802066327L129.884175,-19.890487378835644L130.4549035714286,26.521301829814917L130.46110714285714,1.008130574226385L130.51073571428572,141.78004298508168L130.53555,203.3529590830207L130.6410107142857,137.64902357161046L131.0380392857143,69.46084138154984L131.15590714285713,85.87791543602944L131.36682857142858,79.3063857793808L131.9933892857143,159.35627434551716L132.38421428571428,92.45569598078728L132.6695785714286,132.08036583065987L132.94253571428573,82.65409242510796L133.06040357142857,58.66568949222565L133.47604285714286,145.0281046718359L133.83585,23.765978926420217L133.97853214285715,138.1872857004404L134.48102142857144,38.070384675264364L134.76018214285713,65.6961187362671L134.77258928571428,-19.62969083189961L134.97110357142859,-16.227150446176495L135.16341428571428,40.522658193111425L135.529425,142.4340256690979L136.41653571428571,46.600446814298635L136.56542142857143,62.499831283092504L136.62125357142858,100.10986890792847L136.65847499999998,98.70455321073533L136.9438392857143,99.42348446846009L136.96245,20.292542392015463L137.08031785714286,34.019782805442816L137.89918928571427,88.17584213018418L137.9860392857143,153.6059715986252L138.61880357142857,126.78135346770287L138.74907857142856,180.90772766768933L139.19573571428572,84.91534460484982L139.57415357142858,188.60324349403382L140.02081071428572,81.8949392080307L140.15728928571428,20.092513972520834L140.26275,145.80801505744458L140.54811428571426,140.156302267313L140.75903571428572,121.76638726294041L141.16226785714287,64.7425549864769L141.49726071428572,59.085211122035986L141.65855357142857,87.5606967151165L141.68957142857144,91.36781726181508L142.13002500000002,94.83166646361352L142.35335357142858,113.68508350253106L142.65732857142856,200.97590722292662L143.04194999999999,146.33802179396153L143.04815357142857,122.56320405900479L143.259075,143.44446722567082L143.345925,148.1177841514349L143.60647500000002,165.96248719990254L144.64247142857144,173.06857329010964L144.83478214285714,121.41823653280736L145.04570357142856,160.68477269411088L145.42412142857142,133.14972926080227L145.48615714285714,38.26134007573128L145.7156892857143,135.7763682693243L145.76531785714286,93.87285407781602L145.92040714285713,11.424061918258673L146.03207142857144,-1.3793921828269617L146.04447857142856,9.15934141874314L146.1871607142857,161.48522924780846L146.1933642857143,149.1653222233057L146.19956785714285,132.09117960333825L146.21817857142858,12.38055329918862L146.33604642857145,149.5299178004265L146.55317142857143,123.086788469553L146.74548214285716,62.12145473957062L146.87575714285714,22.175088340044027L146.98742142857142,-79.76959083080288L147.04945714285716,17.647282594442373L147.601575,140.51231276392937L147.688425,96.00427504777909L147.81249642857145,-55.75365234017369L147.86832857142858,103.31118080914021L147.91175357142856,129.97613754272462L147.91795714285715,151.71953532993794L148.0978607142857,158.58626779317856L148.15989642857144,86.93002957999707L148.28396785714284,159.87003404796124L148.7120142857143,106.06428820788861L149.01598928571428,200.23162953704596L149.22070714285712,141.33261654675007L149.45644285714283,144.31080866754056L150.1450392857143,84.96063057482243L150.30012857142856,145.7856358230114L150.3187392857143,90.66642541587353L150.37457142857141,64.00012355446816L150.54827142857144,61.30111139416695L150.76539642857145,185.34941885769368L150.83983928571428,114.5081962287426L151.08177857142857,65.8874433875084L151.23686785714284,33.66796594262124L151.3423285714286,76.01936813592911L151.76417142857142,127.87110481560231L151.90064999999998,128.805335649848L152.07435,31.49096887707711L152.40934285714283,117.55334142744542L153.23441785714286,105.38846697807313L153.24062142857142,133.0877083182335L153.8299607142857,201.06615606844426L154.10912142857146,153.94555043578148L154.85975357142857,185.0079805791378L154.90317857142855,67.66831349730492L155.678625,64.03121974468232L155.97639642857143,98.7995429724455L156.2245392857143,84.15434513390065L156.37962857142855,82.28902209699154L156.49749642857142,129.22101970911027L156.5285142857143,133.21229089200497L156.67119642857142,-60.37152889966961L156.80767500000002,87.99872044622899L156.93795,155.16584511995316L157.35979285714285,2.9651860535144863L157.68858214285714,116.64470758438111L158.0483892857143,131.49039540588856L158.32134642857145,94.46546200811864L158.3461607142857,104.12082906961442L158.50125,25.388704204559332L159.6489107142857,176.0509326696396L159.74196428571426,124.13639698326588L159.76057500000002,27.14011337757111L159.8970535714286,170.94422083497048L159.934275,112.2641669601202L160.2320464285714,76.70448657274247L160.32510000000002,59.84399508833886L160.6104642857143,81.92085269987584L160.6973142857143,112.18877386450768L160.76555357142857,112.57581461369992L160.82138571428573,126.72174584269524L161.10675,79.2371776342392L161.17498928571428,44.87401481866837L161.2122107142857,152.67398264408112L161.57822142857145,174.34492815434933L161.74571785714286,200.31554836928845L161.8884,-29.67389214634892L162.32264999999998,114.04365237951279L162.45912857142858,37.753831261396414L162.66384642857145,162.7006445467472L162.76930714285714,89.3919036179781L162.81273214285713,55.795397722721106L163.060875,150.40614988803864L163.14152142857142,153.2779582232237L163.1725392857143,95.25158371925355L163.20976071428572,111.36475119888783L163.22837142857142,80.0116151958704L163.69984285714287,148.4889603048563L163.70604642857143,88.94665312170983L163.71845357142857,114.3034862369299L163.97900357142856,118.46077520549298L163.9976142857143,73.51969864368439L164.18992500000002,133.96467890739441L164.35742142857143,112.03652385771275L164.37603214285713,109.1797097414732L164.40705,115.2539509177208L164.75445000000002,111.6029838860035L164.84750357142858,196.5451353058219L164.90333571428573,39.986980819702154L164.91574285714285,83.49173780679703L165.21971785714285,104.54724777638913L165.57332142857143,130.66163841784L165.85248214285713,128.4560376048088L166.10682857142857,134.05253421664239L166.187475,106.039429718256L166.1936785714286,142.81058233380318L166.31775,56.77647065520287L166.33015714285716,94.25368350148202L166.36117499999997,185.62381174564362L166.42941428571427,55.69496151208878L167.1180107142857,45.49422424435616L167.24828571428571,87.27066341936589L167.6701285714286,139.30353079140187L167.67633214285715,71.17609035372735L167.69494285714285,139.89720691144467L167.7011464285714,62.24818688035012L167.94308571428573,160.94049204289914L167.99891785714286,-100.28323847651478L168.14780357142857,71.7053058385849L168.35252142857144,135.7010015487671L168.5076107142857,211.22951328903437L168.73093928571427,177.46437188386918L168.966675,76.4180798470974L169.21481785714286,-39.313157236576046L169.26444642857143,24.963907563686377L169.4629607142857,118.7097689151764L169.54360714285716,151.23656850457192L169.9406357142857,85.90459380447865L170.34386785714284,83.1872905433178L170.48655000000002,-13.174501544237103L171.00764999999998,46.85944985747338L171.0262607142857,73.37882947325707L171.05727857142855,160.17634075284005L171.47291785714287,181.14870336055756L171.58458214285713,114.46537632644177L172.04985000000002,33.38079434037209L172.2917892857143,131.04199309051037L172.29799285714284,-45.50129908919331L173.27195357142858,102.741941177845L173.53250357142858,127.14047622084618L173.53870714285713,209.54600010216237L173.94193928571428,-52.3113383710384L173.9791607142857,132.7395707756281L174.10323214285717,122.73263741433621L174.14045357142857,7.937965357303625L174.27072857142858,165.80952506661416L174.30795,127.19734084010125L174.68016428571428,58.65870010256768L175.046175,105.50711516439915L175.2446892857143,104.37334384918213L175.28811428571427,108.00294708609582L176.6156785714286,123.42901799976826L176.77076785714286,165.20520661175252L176.8514142857143,31.52048256397248L177.0189107142857,143.14131233990193L177.06233571428572,143.30045942366124L177.130575,124.9058232843876L177.16159285714286,186.0622311025858L177.29807142857143,179.54444062113762L177.47177142857143,95.59674088060856L177.89981785714284,-2.6025617480277674L177.91842857142856,113.05987600386143L178.1789785714286,128.77750996649266L178.3961035714286,162.04523760974408L178.62563571428572,28.31193071007729L179.1901607142857,127.78852451741696L179.28941785714284,16.41158487796784L179.95319999999998,129.82192259430886L179.996625,135.1748323827982L180.07106785714285,148.47155276834965L180.38745,140.95362018942834L180.4556892857143,75.72183113694192L180.46189285714286,89.40200526416302L181.02021428571427,188.56341716051102L181.038825,133.72875403761864L181.95075,-1.401916480064358L181.97556428571428,57.667736524343496L181.98176785714287,63.81354641318322L182.08722857142857,149.7021469116211L182.18028214285715,117.85956900715829L182.24231785714284,122.77359787523747L182.31055714285714,119.3715586155653L182.341575,69.97729133963585L182.37259285714285,104.8799427241087L182.39740714285713,-6.198167538642849L182.4346285714286,133.494820484519L182.58351428571427,118.30435793995858L182.64555000000001,113.21091275811196L182.80684285714284,115.20892869830132L183.08600357142856,-31.378380095958676L183.22868571428572,80.73215533196927L183.54506785714287,82.97167446613312L183.69395357142858,76.97910364866257L183.81182142857145,84.6578845024109L183.89867142857145,114.27258785963059L184.1033892857143,27.894228959083563L184.80439285714286,52.75501322150231L185.10836785714287,137.10193898677826L185.61085714285716,108.31975106298924L185.67909642857143,110.68365495800973L185.80316785714285,84.87289395332337L186.17538214285713,49.33656867742539L186.25602857142857,176.02073323130608L186.4855607142857,-56.89260635375973L186.60963214285715,139.59617521762848L186.67787142857145,74.2153934776783L187.21137857142858,49.63173192143441L187.2734142857143,126.4553973466158L188.14811785714286,198.2184545338154L188.37765000000002,7.992456221580511L188.39005714285713,-51.6051990151405L188.5699607142857,130.4531040430069L188.81189999999998,176.73900511264802L189.10967142857143,52.43956755995751L189.40744285714285,68.89628332257271L189.41985,76.12302210330964L189.46947857142857,108.22531517744065L189.6555857142857,166.8202039986849L189.79826785714283,109.98435992896557L189.88511785714286,158.79791442453862L190.2387214285714,86.64200078845025L190.83426428571428,45.24566572308541L191.113425,110.61242912113667L191.13823928571426,62.26704504489899L191.51045357142857,134.24705024957657L191.79581785714285,158.39204188585282L191.981925,75.917349421978L192.11840357142856,189.8735320955515L192.16803214285713,87.88881559073926L192.92486785714286,171.7709205687046L193.11097500000002,103.13001055419446L193.2474535714286,157.94991683363915L193.45217142857143,97.99561809897423L193.632075,98.43724202513695L193.9112357142857,174.9899169445038L194.153175,137.5253113746643L194.68668214285714,16.576112473011023L195.13954285714286,139.00894779860974L195.29463214285713,148.2600248247385L195.37527857142857,93.9327782034874L195.4311107142857,150.75883712768555L195.92119285714284,175.4941025018692L196.2872035714286,171.797361561656L196.9944107142857,127.55507890284062L197.08746428571428,167.18895364701748L197.41005,56.85406606793404L197.57754642857142,7.32661795020104L197.96216785714284,60.045869761705404L198.11725714285714,141.64229925870896L198.669375,143.25231176018715L198.89890714285715,120.06460275650025L199.11603214285714,87.2078248500824L199.32075,181.070738697052L199.57509642857144,32.07942273616791L200.24508214285714,33.38628035187722L200.34433928571428,148.89468778073788L200.4746142857143,109.33082562088967L200.53044642857142,134.06860981285573L200.6297035714286,105.3258525967598L201.02052857142857,20.939997249841696L201.02673214285713,65.54047953486443L201.11358214285713,163.8145158827305L201.795975,134.59778573513032L201.8766214285714,130.53051483035088L201.9448607142857,63.74507676959038L202.56521785714287,129.369629958272L202.98085714285713,23.863724881410604L203.24140714285716,50.698207283020025L204.22157142857142,139.63226948082448L204.74267142857144,121.60196516811848L204.75507857142858,61.47186350226403L205.0032214285714,43.873688095808035L205.00942500000002,135.8005937576294L205.01562857142858,134.67929784357548L205.11488571428572,97.79445555210114L205.19553214285716,117.00290721058846L205.20793928571428,26.709698849916464L205.82209285714288,126.2898411244154L206.75262857142855,-6.972169911861386L207.14965714285714,71.88790034651757L207.18687857142857,126.88594374954701L207.2241,117.56420795023442L207.2489142857143,10.929687881469732L207.25511785714286,114.39616818130017L207.7203857142857,124.43688798844815L207.96852857142858,124.17057905495167L208.309725,94.78987518846989L208.98591428571427,108.00625715553761L209.05415357142857,178.43718942403794L209.10378214285714,154.48304768800736L209.4015535714286,71.68950718045235L209.55043928571428,141.54692705869675L209.79858214285716,117.42343109250069L209.81719285714286,111.36323463320733L210.00950357142855,138.13954685032368L210.0715392857143,192.45689623206854L210.1149642857143,86.71771038472653L210.22662857142856,123.14890172481537L210.58023214285714,31.915686392784124L210.70430357142857,84.64627947807313L210.72291428571427,18.381326758861547L210.85318928571428,140.83240043520928L211.3866964285714,49.30716049075127L211.95122142857144,141.33501667678357L211.96362857142856,130.87379936277867L212.16214285714284,75.14144804477692L212.27380714285715,92.85104487240315L214.02941785714285,34.95752152204514L214.19071071428573,141.6529679685831L214.46366785714287,2.865198218822485L214.8048642857143,-47.76198420524594L215.18948571428572,147.3876039326191L215.27013214285714,141.60168167352677L215.84086071428572,73.0912094950676L216.0207642857143,120.42615201473237L216.26270357142857,30.954948627948767L216.66593571428572,-67.08403322696682L217.99970357142857,64.02349185347558L218.48978571428572,185.85130978524685L218.6510785714286,130.1687413841486L218.78755714285717,189.09140620529652L218.905425,41.75724815726281L219.02949642857143,151.49189222753049L219.0605142857143,131.12950552403927L219.15977142857142,90.90719010829926L219.2342142857143,71.56757529973984L219.33347142857144,116.54548462629319L219.50096785714288,8.010022008419043L219.9228107142857,42.95857917666436L220.2267857142857,147.04675909280778L220.30743214285715,152.53589604198933L220.35706071428572,155.34385036826134L220.9464,137.40572687387467L221.39305714285715,169.3352369606495L221.59777499999998,61.882681363821035L221.6412,109.96755901873112L221.69703214285715,78.68245747089387L222.00721071428572,-0.9786759674548762L222.02582142857142,163.09727262854577L222.15609642857143,97.3849828183651L222.2305392857143,146.4090893805027L222.34840714285713,-26.860886996984448L222.466275,137.55602512657643L223.30996071428572,-28.291997498273815L223.81245,213.20554562062026L223.81865357142857,127.55878459811211L224.029575,104.54380583167077L224.14744285714283,127.58614871799946L224.43280714285714,83.89328483641148L224.8794642857143,-60.667562520503964L224.91048214285712,153.30672022104264L225.071775,147.9023263245821L225.35713928571428,148.19654006659985L225.45019285714287,143.16319044828415L225.7293535714286,65.4704010128975L225.9588857142857,32.126660460233694L226.2256392857143,83.07176780104638L226.34971071428572,114.9546863526106L226.38693214285712,147.50481467843056L226.46757857142856,208.63379243910313L226.64127857142856,166.16829175651074L226.90803214285714,196.48755196630955L227.15617500000002,79.65439144670964L227.57181428571428,58.82908295989037L227.72690357142855,42.990176492929464L227.77032857142856,92.52557668983937L227.79514285714285,166.10842038094998L228.40929642857145,108.27759053707123L228.42790714285715,48.75877034068108L228.67605,78.92099347114564L228.87456428571429,79.01887130141259L229.25918571428574,114.80429578721524L229.34603571428573,171.47031087577344L229.45149642857143,18.426850104331976L229.4577,183.96404270231724L229.71825,114.30804912149907L230.33240357142859,124.71949670612813L230.4999,23.908667975664144L231.40562142857144,128.25301561653615L231.7344107142857,108.47993996143342L232.40439642857143,9.155912661552435L232.47263571428573,143.58004819750786L233.23567500000001,150.0229335218668L233.6016857142857,176.0500491052866L233.83121785714286,197.00061932355166L233.96149285714287,166.26520689725876L234.191025,149.07579209804535L234.41435357142856,107.04814370870591L234.42055714285715,87.33743187189103L234.57564642857145,105.54771956205369L234.96026785714287,29.17829852700234L234.9974892857143,81.78855542242528L235.09054285714285,14.852845484018331L235.40072142857142,126.15743834674359L235.5620142857143,83.63525767028332L235.667475,154.77999124825L235.81015714285715,38.067773544788366L236.09552142857143,140.18130581974984L236.49875357142858,127.42588069438935L236.5421785714286,113.1482192516327L236.59180714285716,157.22216311991215L236.88957857142856,152.8943066686392L236.9454107142857,197.49266576170922L237.31142142857144,77.19767373204232L237.39206785714288,166.24293316304684L238.29158571428573,88.08573175370694L238.36602857142856,69.99198224544526L238.57074642857143,162.2497893512249L238.58315357142857,179.8921034127474L238.83129642857145,121.0376972347498L239.23452857142857,122.07568753659726L239.69359285714285,117.3819958806038L239.98516071428574,64.76059552431107L240.2084892857143,126.78643066585065L240.38839285714283,137.68714871406556L240.56829642857144,66.60521414279938L240.64894285714286,120.71747768819333L240.66755357142858,15.078299456834799L241.0769892857143,172.2049616664648L241.0956,119.4577391088009L241.36235357142857,101.61848250925541L241.60429285714287,97.28905674219132L241.66632857142858,166.09028753042222L241.6849392857143,195.03598101586104L242.01372857142857,114.29815847575665L242.71473214285714,188.6897009253502L242.83259999999999,141.867885106802L242.876025,58.7297545015812L242.88222857142856,108.36937572956086L242.92565357142857,100.36022093296052L243.32888571428572,64.33408450484276L243.3537,66.02462005019188L243.50258571428571,100.81466313600541L243.57702857142857,85.7716239631176L243.657675,85.47825422286988L243.70110000000003,-26.47135380506512L244.2035892857143,79.57258921265603L244.40830714285713,173.17821439504624L244.43312142857144,-46.75052720904347L244.60061785714288,190.62400791943074L244.613025,61.136794799566275L245.02866428571429,116.87715094685555L245.1713464285714,111.26982737481595L245.60559642857143,11.763113254308706L245.66763214285714,-42.82201547026631L245.77309285714287,127.4194583684206L245.81651785714286,122.84540396332741L245.83512857142856,69.55241557359696L245.92197857142855,14.514427149295813L245.99021785714285,121.73167769014836L246.83390357142858,136.34492214918137L247.06343571428573,121.6293688505888L247.40463214285714,133.69653690755368L247.44805714285712,73.22764765620232L247.85128928571427,3.4245867669582424L248.00637857142857,67.3920611679554L248.06221071428573,3.3822548031807003L248.13665357142858,65.91128643751145L248.25452142857142,113.56509018838406L248.35998214285715,148.18741429746152L248.45303571428573,20.248812550306326L248.694975,40.37487875819207L248.76941785714286,99.64860875308514L248.92450714285712,171.24757353365422L249.1106142857143,42.68390935063363L249.1540392857143,66.98630731701851L249.51384642857144,139.72255129516125L249.5820857142857,-54.20332658886906L249.79921071428572,130.152138286829L249.9170785714286,114.2886107057333L249.96050357142857,117.89779964983464L250.24586785714285,113.7120256215334L250.56845357142856,125.65979380309582L250.5870642857143,155.98315533399582L250.80418928571427,110.04729081094266L251.22603214285715,69.63649924993516L251.38112142857142,133.03183276355267L251.59204285714284,110.52399356067181L251.61065357142857,143.79795890450478L251.9332392857143,129.5750652641058L251.93944285714286,156.79823685586453L251.98907142857144,129.21010043621064L252.06971785714288,92.25730281472207L252.41091428571428,170.9990941375494L252.57841071428572,7.910508924722677L252.950625,-7.439852392673458L252.9568285714286,55.05634229779244L253.1181214285714,119.06612228751183L253.1925642857143,113.6030834555626L253.28561785714285,113.23474262058735L253.4096892857143,133.13986499011517L253.46552142857144,88.18217214345933L253.52135357142856,44.246552252769476L253.7074607142857,80.16085844635964L254.0114357142857,104.16111696660519L254.35263214285715,129.23642274141312L254.55114642857143,147.7042628467083L254.687625,100.34324858486653L255.14048571428572,-15.643180346488919L255.62436428571428,-8.70480004549023L256.08342857142856,126.09471846520901L256.3874035714286,133.95482782423497L256.61073214285716,192.78649870455266L256.99535357142855,98.56501598060132L257.3117357142857,155.29321026206017L257.4730285714286,16.499809437990194L257.49163928571426,1.1119955420494136L257.96311071428573,48.52761935591698L258.0933857142857,83.53960853219033L258.1430142857143,164.49236799180508L258.2236607142857,127.72447269558907L258.23606785714287,146.77917096912861L258.27328928571427,172.19644252359868L258.6703178571429,133.78634397089482L258.8812392857143,148.20753846466542L258.89364642857146,123.49681507945061L258.89985,70.7975819349289L259.4333571428572,78.36503368020058L259.45196785714285,69.37752258181573L259.6194642857143,134.17107690274716L260.680275,123.49308300912381L260.7237,185.74139174222947L260.95323214285713,60.10732364058495L261.13313571428574,158.375293725729L261.1641535714286,72.95469220876694L261.42470357142855,87.88716714978219L261.461925,62.51011755466462L261.809325,59.00814321041108L261.9147857142857,158.44889331758023L261.92098928571426,120.31221177577973L262.32422142857143,40.58332082033158" style="fill: none;" fill="none"></path></g></g></g></g></g></g><g transform="translate(58, 177)" clip-path="url(#clip_1)"><clipPath id="clip_1"><rect width="271" height="23"></rect></clipPath><g><g><line x1="0" y1="0" x2="0" y2="5" style="visibility: inherit;" fill="rgb(0, 0, 0)" stroke="rgb(204, 204, 204)" stroke-width="1px"></line><line x1="38.77232142857142" y1="0" x2="38.77232142857142" y2="5" style="visibility: inherit;" fill="rgb(0, 0, 0)" stroke="rgb(204, 204, 204)" stroke-width="1px"></line><line x1="77.54464285714285" y1="0" x2="77.54464285714285" y2="5" style="visibility: inherit;" fill="rgb(0, 0, 0)" stroke="rgb(204, 204, 204)" stroke-width="1px"></line><line x1="116.31696428571428" y1="0" x2="116.31696428571428" y2="5" style="visibility: inherit;" fill="rgb(0, 0, 0)" stroke="rgb(204, 204, 204)" stroke-width="1px"></line><line x1="155.0892857142857" y1="0" x2="155.0892857142857" y2="5" style="visibility: inherit;" fill="rgb(0, 0, 0)" stroke="rgb(204, 204, 204)" stroke-width="1px"></line><line x1="193.86160714285714" y1="0" x2="193.86160714285714" y2="5" style="visibility: inherit;" fill="rgb(0, 0, 0)" stroke="rgb(204, 204, 204)" stroke-width="1px"></line><line x1="232.63392857142856" y1="0" x2="232.63392857142856" y2="5" style="visibility: inherit;" fill="rgb(0, 0, 0)" stroke="rgb(204, 204, 204)" stroke-width="1px"></line><line x1="271.40625" y1="0" x2="271.40625" y2="5" style="visibility: inherit;" fill="rgb(0, 0, 0)" stroke="rgb(204, 204, 204)" stroke-width="1px"></line></g><g transform="translate(0, 8)"><text x="0" y="0" dx="0em" dy="0.95em" style="text-anchor: middle; visibility: hidden; font-family: &quot;Helvetica Neue&quot;, sans-serif; font-size: 12px; font-weight: 200;" fill="rgb(50, 49, 63)" stroke="none" stroke-width="1px">-50k</text><text x="38.77232142857142" y="0" dx="0em" dy="0.95em" style="text-anchor: middle; visibility: inherit; font-family: &quot;Helvetica Neue&quot;, sans-serif; font-size: 12px; font-weight: 200;" fill="rgb(50, 49, 63)" stroke="none" stroke-width="1px">0</text><text x="77.54464285714285" y="0" dx="0em" dy="0.95em" style="text-anchor: middle; visibility: inherit; font-family: &quot;Helvetica Neue&quot;, sans-serif; font-size: 12px; font-weight: 200;" fill="rgb(50, 49, 63)" stroke="none" stroke-width="1px">50k</text><text x="116.31696428571428" y="0" dx="0em" dy="0.95em" style="text-anchor: middle; visibility: inherit; font-family: &quot;Helvetica Neue&quot;, sans-serif; font-size: 12px; font-weight: 200;" fill="rgb(50, 49, 63)" stroke="none" stroke-width="1px">100k</text><text x="155.0892857142857" y="0" dx="0em" dy="0.95em" style="text-anchor: middle; visibility: inherit; font-family: &quot;Helvetica Neue&quot;, sans-serif; font-size: 12px; font-weight: 200;" fill="rgb(50, 49, 63)" stroke="none" stroke-width="1px">150k</text><text x="193.86160714285714" y="0" dx="0em" dy="0.95em" style="text-anchor: middle; visibility: inherit; font-family: &quot;Helvetica Neue&quot;, sans-serif; font-size: 12px; font-weight: 200;" fill="rgb(50, 49, 63)" stroke="none" stroke-width="1px">200k</text><text x="232.63392857142856" y="0" dx="0em" dy="0.95em" style="text-anchor: middle; visibility: inherit; font-family: &quot;Helvetica Neue&quot;, sans-serif; font-size: 12px; font-weight: 200;" fill="rgb(50, 49, 63)" stroke="none" stroke-width="1px">250k</text><text x="271.40625" y="0" dx="0em" dy="0.95em" style="text-anchor: middle; visibility: hidden; font-family: &quot;Helvetica Neue&quot;, sans-serif; font-size: 12px; font-weight: 200;" fill="rgb(50, 49, 63)" stroke="none" stroke-width="1px">300k</text></g><line x1="0" y1="0" x2="271.40625" y2="0" fill="rgb(0, 0, 0)" stroke="rgb(204, 204, 204)" stroke-width="1px"></line></g></g></g></g></svg>