<svg viewBox="0 0 330 200" xmlns="http://www.w3.org/2000/svg"><g><g><g><g><g><line x1="48.875" y1="160.9090909090909" x2="43.875" y2="160.9090909090909" style="visibility: inherit;" fill="rgb(0, 0, 0)" stroke="rgb(204, 204, 204)" stroke-width="1px"></line><line x1="48.875" y1="144.81818181818184" x2="43.875" y2="144.81818181818184" style="visibility: inherit;" fill="rgb(0, 0, 0)" stroke="rgb(204, 204, 204)" stroke-width="1px"></line><line x1="48.875" y1="128.72727272727272" x2="43.875" y2="128.72727272727272" style="visibility: inherit;" fill="rgb(0, 0, 0)" stroke="rgb(204, 204, 204)" stroke-width="1px"></line><line x1="48.875" y1="112.63636363636364" x2="43.875" y2="112.63636363636364" style="visibility: inherit;" fill="rgb(0, 0, 0)" stroke="rgb(204, 204, 204)" stroke-width="1px"></line><line x1="48.875" y1="96.54545454545456" x2="43.875" y2="96.54545454545456" style="visibility: inherit;" fill="rgb(0, 0, 0)" stroke="rgb(204, 204, 204)" stroke-width="1px"></line><line x1="48.875" y1="80.45454545454544" x2="43.875" y2="80.45454545454544" style="visibility: inherit;" fill="rgb(0, 0, 0)" stroke="rgb(204, 204, 204)" stroke-width="1px"></line><line x1="48.875" y1="64.36363636363635" x2="43.875" y2="64.36363636363635" style="visibility: inherit;" fill="rgb(0, 0, 0)" stroke="rgb(204, 204, 204)" stroke-width="1px"></line><line x1="48.875" y1="48.27272727272728" x2="43.875" y2="48.27272727272728" style="visibility: inherit;" fill="rgb(0, 0, 0)" stroke="rgb(204, 204, 204)" stroke-width="1px"></line><line x1="48.875" y1="32.18181818181819" x2="43.875" y2="32.18181818181819" style="visibility: inherit;" fill="rgb(0, 0, 0)" stroke="rgb(204, 204, 204)" stroke-width="1px"></line><line x1="48.875" y1="16.090909090909065" x2="43.875" y2="16.090909090909065" style="visibility: inherit;" fill="rgb(0, 0, 0)" stroke="rgb(204, 204, 204)" stroke-width="1px"></line><line x1="48.875" y1="0" x2="43.875" y2="0" style="visibility: inherit;" fill="rgb(0, 0, 0)" stroke="rgb(204, 204, 204)" stroke-width="1px"></line></g><g transform="translate(38.875, 0)"><text x="0" y="160.9090909090909" dx="0em" dy="0.3em" style="text-anchor: end; visibility: inherit; font-family: &quot;Helvetica Neue&quot;, sans-serif; font-size: 12px; font-weight: 200;" fill="rgb(50, 49, 63)" stroke="none" stroke-width="1px">0.08</text><text x="0" y="144.81818181818184" dx="0em" dy="0.3em" style="text-anchor: end; visibility: hidden; font-family: &quot;Helvetica Neue&quot;, sans-serif; font-size: 12px; font-weight: 200;" fill="rgb(50, 49, 63)" stroke="none" stroke-width="1px">0.09</text><text x="0" y="128.72727272727272" dx="0em" dy="0.3em" style="text-anchor: end; visibility: inherit; font-family: &quot;Helvetica Neue&quot;, sans-serif; font-size: 12px; font-weight: 200;" fill="rgb(50, 49, 63)" stroke="none" stroke-width="1px">0.1</text><text x="0" y="112.63636363636364" dx="0em" dy="0.3em" style="text-anchor: end; visibility: hidden; font-family: &quot;Helvetica Neue&quot;, sans-serif; font-size: 12px; font-weight: 200;" fill="rgb(50, 49, 63)" stroke="none" stroke-width="1px">0.11</text><text x="0" y="96.54545454545456" dx="0em" dy="0.3em" style="text-anchor: end; visibility: inherit; font-family: &quot;Helvetica Neue&quot;, sans-serif; font-size: 12px; font-weight: 200;" fill="rgb(50, 49, 63)" stroke="none" stroke-width="1px">0.12</text><text x="0" y="80.45454545454544" dx="0em" dy="0.3em" style="text-anchor: end; visibility: hidden; font-family: &quot;Helvetica Neue&quot;, sans-serif; font-size: 12px; font-weight: 200;" fill="rgb(50, 49, 63)" stroke="none" stroke-width="1px">0.13</text><text x="0" y="64.36363636363635" dx="0em" dy="0.3em" style="text-anchor: end; visibility: inherit; font-family: &quot;Helvetica Neue&quot;, sans-serif; font-size: 12px; font-weight: 200;" fill="rgb(50, 49, 63)" stroke="none" stroke-width="1px">0.14</text><text x="0" y="48.27272727272728" dx="0em" dy="0.3em" style="text-anchor: end; visibility: hidden; font-family: &quot;Helvetica Neue&quot;, sans-serif; font-size: 12px; font-weight: 200;" fill="rgb(50, 49, 63)" stroke="none" stroke-width="1px">0.15</text><text x="0" y="32.18181818181819" dx="0em" dy="0.3em" style="text-anchor: end; visibility: inherit; font-family: &quot;Helvetica Neue&quot;, sans-serif; font-size: 12px; font-weight: 200;" fill="rgb(50, 49, 63)" stroke="none" stroke-width="1px">0.16</text><text x="0" y="16.090909090909065" dx="0em" dy="0.3em" style="text-anchor: end; visibility: hidden; font-family: &quot;Helvetica Neue&quot;, sans-serif; font-size: 12px; font-weight: 200;" fill="rgb(50, 49, 63)" stroke="none" stroke-width="1px">0.17</text><text x="0" y="0" dx="0em" dy="0.3em" style="text-anchor: end; visibility: hidden; font-family: &quot;Helvetica Neue&quot;, sans-serif; font-size: 12px; font-weight: 200;" fill="rgb(50, 49, 63)" stroke="none" stroke-width="1px">0.18</text></g><line x1="48.875" y1="0" x2="48.875" y2="177" fill="rgb(0, 0, 0)" stroke="rgb(204, 204, 204)" stroke-width="1px"></line></g></g><g transform="translate(48, 0)" clip-path="url(#clip_0)"><clipPath id="clip_0"><rect width="281" height="177"></rect></clipPath><g><g><g><line x1="0" y1="0" x2="0" y2="177" fill="rgb(0, 0, 0)" stroke="rgb(60, 60, 60)" stroke-width="1px" opacity="0.25"></line><line x1="28.1125" y1="0" x2="28.1125" y2="177" fill="rgb(0, 0, 0)" stroke="rgb(60, 60, 60)" stroke-width="1px" opacity="0.25"></line><line x1="56.225" y1="0" x2="56.225" y2="177" fill="rgb(0, 0, 0)" stroke="rgb(60, 60, 60)" stroke-width="1px" opacity="0.25"></line><line x1="84.33749999999999" y1="0" x2="84.33749999999999" y2="177" fill="rgb(0, 0, 0)" stroke="rgb(60, 60, 60)" stroke-width="1px" opacity="0.25"></line><line x1="112.45" y1="0" x2="112.45" y2="177" fill="rgb(0, 0, 0)" stroke="rgb(60, 60, 60)" stroke-width="1px" opacity="0.25"></line><line x1="140.5625" y1="0" x2="140.5625" y2="177" fill="rgb(0, 0, 0)" stroke="rgb(60, 60, 60)" stroke-width="1px" opacity="0.25"></line><line x1="168.67499999999998" y1="0" x2="168.67499999999998" y2="177" fill="rgb(0, 0, 0)" stroke="rgb(60, 60, 60)" stroke-width="1px" opacity="0.25"></line><line x1="196.7875" y1="0" x2="196.7875" y2="177" fill="rgb(0, 0, 0)" stroke="rgb(60, 60, 60)" stroke-width="1px" opacity="0.25"></line><line x1="224.9" y1="0" x2="224.9" y2="177" fill="rgb(0, 0, 0)" stroke="rgb(60, 60, 60)" stroke-width="1px" opacity="0.25"></line><line x1="253.01250000000002" y1="0" x2="253.01250000000002" y2="177" fill="rgb(0, 0, 0)" stroke="rgb(60, 60, 60)" stroke-width="1px" opacity="0.25"></line><line x1="281.125" y1="0" x2="281.125" y2="177" fill="rgb(0, 0, 0)" stroke="rgb(60, 60, 60)" stroke-width="1px" opacity="0.25"></line></g><g><line x1="0" y1="160.9090909090909" x2="281.125" y2="160.9090909090909" fill="rgb(0, 0, 0)" stroke="rgb(60, 60, 60)" stroke-width="1px" opacity="0.25"></line><line x1="0" y1="144.81818181818184" x2="281.125" y2="144.81818181818184" fill="rgb(0, 0, 0)" stroke="rgb(60, 60, 60)" stroke-width="1px" opacity="0.25"></line><line x1="0" y1="128.72727272727272" x2="281.125" y2="128.72727272727272" fill="rgb(0, 0, 0)" stroke="rgb(60, 60, 60)" stroke-width="1px" opacity="0.25"></line><line x1="0" y1="112.63636363636364" x2="281.125" y2="112.63636363636364" fill="rgb(0, 0, 0)" stroke="rgb(60, 60, 60)" stroke-width="1px" opacity="0.25"></line><line x1="0" y1="96.54545454545456" x2="281.125" y2="96.54545454545456" fill="rgb(0, 0, 0)" stroke="rgb(60, 60, 60)" stroke-width="1px" opacity="0.25"></line><line x1="0" y1="80.45454545454544" x2="281.125" y2="80.45454545454544" fill="rgb(0, 0, 0)" stroke="rgb(60, 60, 60)" stroke-width="1px" opacity="0.25"></line><line x1="0" y1="64.36363636363635" x2="281.125" y2="64.36363636363635" fill="rgb(0, 0, 0)" stroke="rgb(60, 60, 60)" stroke-width="1px" opacity="0.25"></line><line x1="0" y1="48.27272727272728" x2="281.125" y2="48.27272727272728" fill="rgb(0, 0, 0)" stroke="rgb(60, 60, 60)" stroke-width="1px" opacity="0.25"></line><line x1="0" y1="32.18181818181819" x2="281.125" y2="32.18181818181819" fill="rgb(0, 0, 0)" stroke="rgb(60, 60, 60)" stroke-width="1px" opacity="0.25"></line><line x1="0" y1="16.090909090909065" x2="281.125" y2="16.090909090909065" fill="rgb(0, 0, 0)" stroke="rgb(60, 60, 60)" stroke-width="1px" opacity="0.25"></line><line x1="0" y1="0" x2="281.125" y2="0" fill="rgb(0, 0, 0)" stroke="rgb(60, 60, 60)" stroke-width="1px" opacity="0.25"></line></g></g></g><g><g><line x1="0" y1="289.6363636363636" x2="281.125" y2="289.6363636363636" fill="rgb(0, 0, 0)" stroke="rgb(153, 153, 153)" stroke-width="1.5px"></line></g></g><g><g><line x1="28.1125" y1="0" x2="28.1125" y2="177" fill="rgb(0, 0, 0)" stroke="rgb(153, 153, 153)" stroke-width="1.5px"></line></g></g><g><g><g><g><g><path stroke="rgb(255, 112, 67)" stroke-width="2px" d="M36.2089,-1.2872548513558684L36.658699999999996,4.15311922340652L37.1085,9.06265309228175L37.558299999999996,13.637287705379464L38.0081,17.809909980795254L38.4579,21.694572197012178L38.9077,25.483528404419047L39.3575,29.029489028905402L39.8073,32.258724743033525L40.2571,35.270314513743756L40.706900000000005,38.1749590354201L41.1567,40.82879722097513L41.6065,43.24727209903861L42.0563,45.43866152294257L42.5061,47.41432930128852L42.9559,49.27089356196734L43.4057,50.97673629037868L43.8555,52.521959689990624L44.305299999999995,53.95431510040365L44.7551,55.25221603491916L45.2049,56.39116312149011L45.6547,57.45566530798638L46.1045,58.41638206728176L46.5543,59.46461870296305L47.004099999999994,60.427775794144L47.453900000000004,61.23125829453895L47.9037,61.85997392038462L48.3535,62.444856504075574L48.8033,63.09698918595372L49.253099999999996,63.74584278979411L49.70290000000001,64.3784288713712L50.1527,64.94895510263883L50.6025,65.289937702237L51.0523,65.60301026223028L51.5021,66.0529834843216L51.951899999999995,66.41633511338452L52.401700000000005,66.75154724570426L52.8515,67.0694920428101L53.3013,67.29252280691836L53.7511,67.52703643110411L54.2009,67.73955189257165L54.6507,67.97407675751903L55.100500000000004,68.27414496522461L55.5503,68.53724333676128L56.000099999999996,68.73544180791849L56.4499,68.86239808928643L56.899699999999996,69.03284110126081L57.3495,69.25576079784139L57.7993,69.41375848481945L58.2491,69.63976100852747L58.6989,69.73558893934016L59.1487,69.96151200559264L59.5985,70.24233005907958L60.048300000000005,70.447276013079L60.4981,70.61287526579393L60.9479,70.73113853888549L61.3977,70.88501008571559L61.847500000000004,71.01884255541192L62.2973,71.07328489209362L62.7471,71.17226197862445L63.1969,71.26997358364517L63.646699999999996,71.41574372941211L64.0965,71.59545137396377L64.5463,71.6077215330276L64.9961,71.6558163047986L65.44590000000001,71.77685158844818L65.8957,71.89303475908598L66.3455,71.96504648447784L66.7953,72.05331170511694L67.2451,72.10300033064158L67.69489999999999,72.09662693006679L68.1447,72.1368732094178L68.5945,72.25076330159739L69.0443,72.36076994429993L69.4941,72.39980423699762L69.9439,72.47174532346313L70.39370000000001,72.56037097977304L70.8435,72.66179833838817L71.2933,72.73529559824914L71.7431,72.79989936080551L72.1929,72.93639318693587L72.6427,73.14641470586064L73.0925,73.24242719066297L73.5423,73.24601856826312L73.9921,73.182168620036L74.44189999999999,73.07995428980836L74.8917,73.01210385981253L75.34150000000001,73.08863312041412L75.7913,73.25499356572853L76.2411,73.37478773845072L76.6909,73.39828759517515L77.1407,73.33292666074834L77.5905,73.2453526350418L78.0403,73.28190795193017L78.4901,73.26778883918249L78.9399,73.27408740250921L79.38969999999999,73.28562560223187L79.83949999999999,73.30598541388137L80.28930000000001,73.37293673384272L80.73910000000001,73.42007054042216L81.1889,73.50910936088201L81.6387,73.62651374188292L82.0885,73.75968104748263L82.5383,73.77605111579011L82.9881,73.73436027601576L83.4379,73.73202831972046L83.8877,73.69810630500992L84.33749999999999,73.76378373115037L84.78729999999999,73.82066485984569L85.23710000000001,73.88493782755347L85.68690000000001,73.95260048738541L86.1367,73.99492445054142L86.5865,74.03013993994074L87.0363,74.07449846411426L87.4861,74.056458212241L87.9359,74.0645377825796L88.3857,74.10623387478748L88.8355,74.14543651440604L89.28529999999999,74.22018325105985L89.73509999999999,74.2673331160613L90.1849,74.2641072416953L90.63470000000001,74.21329634184818L91.0845,74.25610368292276L91.5343,74.32424713115705L91.9841,74.33472995451848L92.4339,74.30655943990261L92.8837,74.23626442825017L93.3335,74.3191915018057L93.7833,74.39855494439408L94.2331,74.47592407234035L94.6829,74.49679531370656L95.1327,74.4589752711305L95.58250000000001,74.41451183629005L96.0323,74.46928953712187L96.4821,74.46330330341242L96.9319,74.4296248182714L97.3817,74.53667017587566L97.83149999999999,74.55513906720225L98.2813,74.59494523496649L98.7311,74.68304979758013L99.1809,74.72681074333302L99.6307,74.74954743976659L100.0805,74.78526777665608L100.5303,74.80177024117857L100.98010000000001,74.82150242232694L101.4299,74.87505268212749L101.8797,74.93877535880833L102.3295,74.98022192610044L102.77929999999999,74.99549893727092L103.2291,75.0090673804782L103.6789,75.00802033622442L104.1287,75.11891543446518L104.5785,75.10387204959386L105.0283,74.94542893259L105.4781,74.91351933120107L105.92790000000001,74.85219266372519L106.3777,74.85059537342111L106.8275,74.81851443396923L107.2773,74.75776591962904L107.7271,74.80199570749544L108.17689999999999,74.84131828884523L108.6267,74.87702518124074L109.07650000000001,74.89298248703135L109.5263,74.91533198820645L109.9761,74.97092259555404L110.4259,75.03050815133766L110.8757,75.09088899100568L111.3255,75.11199259945059L111.7753,75.19503300302209L112.2251,75.28003677348808L112.6749,75.26182129969686L113.12469999999999,75.27624084131031L113.5745,75.38365036429992L114.02430000000001,75.42366798140915L114.4741,75.44809096163046L114.9239,75.41573001480145L115.3737,75.37489690178985L115.8235,75.41069520589323L116.2733,75.4398565226483L116.7231,75.48871565120095L117.1729,75.55563716174441L117.6227,75.63824911165999L118.07249999999999,75.68492941191869L118.52229999999999,75.66734231463445L118.97210000000001,75.57887334740438L119.42190000000001,75.56372409207118L119.8717,75.46724199195747L120.3215,75.39486083786079L120.7713,75.41898105979195L121.2211,75.44267007591645L121.6709,75.46851728271656L122.1207,75.47332212980409L122.5705,75.52257718076164L123.02029999999999,75.58927588014627L123.47009999999999,75.57775344623059L123.91990000000001,75.55779632216272L124.36970000000001,75.55496220325412L124.8195,75.56707266996384L125.2693,75.62961147499672L125.7191,75.69026807925835L126.1689,75.73676129026795L126.6187,75.7521026905447L127.0685,75.70066408534896L127.5183,75.655395346566L127.96809999999999,75.6531513373702L128.4179,75.68878755486632L128.86769999999999,75.68442723137838L129.3175,75.71043996096184L129.7673,75.7074987416299L130.2171,75.75656593481601L130.6669,75.80646370272143L131.1167,75.86521351479578L131.56650000000002,75.96966195625285L132.0163,76.04259331537614L132.4661,76.03437888548953L132.9159,76.02324489636206L133.3657,75.9913019953602L133.8155,75.97475457843201L134.2653,75.90494995724973L134.7151,75.89648198188975L135.1649,75.87958517189348L135.6147,75.85075436487566L136.0645,75.8593034348718L136.5143,75.92509550408964L136.9641,75.97353826442681L137.4139,76.03330448501357L137.8637,76.03461769037007L138.3135,76.04667495539954L138.7633,76.17247238124652L139.2131,76.22797293122122L139.6629,76.23731512005253L140.1127,76.21214314153325L140.5625,76.16625307167436L141.0123,76.14147162644079L141.4621,76.17688800112121L141.9119,76.10771454538693L142.36169999999998,76.08300418898392L142.8115,76.0983510384203L143.2613,76.10748242064854L143.7111,76.1147067991007L144.1609,76.1019216175415L144.61069999999998,76.06804809001859L145.0605,76.08061126974795L145.51029999999997,76.1787450948538L145.9601,76.2025417708863L146.40990000000002,76.25643031412147L146.8597,76.29150644581514L147.3095,76.27558868367616L147.7593,76.28912339298863L148.2091,76.33166606349205L148.65890000000002,76.34746646358046L149.1087,76.39326755253198L149.5585,76.38265303510155L150.0083,76.38578893548518L150.4581,76.43299720713712L150.9079,76.45664179667631L151.3577,76.40748046300236L151.8075,76.4331698694422L152.2573,76.3977707703793L152.7071,76.30406224987031L153.15689999999998,76.33005058270817L153.6067,76.39635082511651L154.0565,76.5475679769917L154.50629999999998,76.6194712740879L154.95610000000002,76.6757528253561L155.40589999999997,76.73436226275741L155.8557,76.80051621745878L156.30550000000002,76.82732797235757L156.7553,76.84897776423564L157.20510000000002,76.7988497342659L157.6549,76.82579099040642L158.1047,76.81689464607864L158.5545,76.77082416314937L159.0043,76.71325817427288L159.4541,76.71696720661559L159.9039,76.7635698554517L160.3537,76.78075124032722L160.80349999999999,76.9077529068869L161.2533,76.93408107495796L161.7031,77.03453710789107L162.1529,77.09899237278421L162.6027,77.0743462171102L163.05249999999998,77.06183157392735L163.5023,77.08018952408285L163.9521,77.11969894484355L164.40189999999998,77.13405344132534L164.85170000000002,77.16297013634087L165.3015,77.11930266174947L165.75130000000001,77.12139541814868L166.2011,77.17096058239262L166.6509,77.22222172607451L167.10070000000002,77.29518809171381L167.5505,77.33569740423857L168.0003,77.37112846963093L168.4501,77.35675680687069L168.8999,77.40222664992939L169.3497,77.39177784027306L169.7995,77.41915353412959L170.2493,77.35390259733572L170.6991,77.28189351180384L171.1489,77.3461640131534L171.5987,77.3918236015746L172.0485,77.43215751812454L172.4983,77.46803002889675L172.94809999999998,77.49177863093557L173.3979,77.55186284282844L173.84769999999997,77.51360285048563L174.29749999999999,77.49127026547822L174.74730000000002,77.48734655252811L175.1971,77.48457032387303L175.64690000000002,77.4963798422127L176.0967,77.54878269370901L176.5465,77.54440228402699L176.99630000000002,77.58876000039191L177.4461,77.6384408149484L177.8959,77.6703880808949L178.3457,77.65399327497153L178.7955,77.64935467504645L179.2453,77.53842419737853L179.6951,77.55260235282347L180.1449,77.60999421224714L180.5947,77.78260584495443L181.0445,77.87882617280793L181.49429999999998,77.96669306908143L181.9441,78.0297618194575L182.3939,78.1156919887158L182.84369999999998,78.12486777411493L183.2935,78.06107878184999L183.74329999999998,78.11718972079512L184.19310000000002,78.16641277133235L184.64290000000003,78.22808580541984L185.0927,78.32855280442028L185.54250000000002,78.3677713232869L185.9923,78.34860361778723L186.4421,78.39195351860948L186.8919,78.49668580601558L187.3417,78.57332652558489L187.7915,78.61133130422812L188.2413,78.61782000083676L188.6911,78.78529610731842L189.1409,78.92423180638933L189.5907,79.06133120216619L190.0405,79.17082907857386L190.4903,79.27635893340582L190.9401,79.34813604586363L191.38989999999998,79.287159913325L191.8397,79.32191156522688L192.2895,79.35740790526371L192.7393,79.35503529600845L193.1891,79.42378855944656L193.63889999999998,79.53817135269578L194.08870000000002,79.59797737377691L194.5385,79.76260962007038L194.9883,79.83111040434703L195.43810000000002,79.90776444947508L195.8879,79.93520801946994L196.3377,79.97441425461129L196.7875,80.06714614083774L197.2373,79.97098004512054L197.68710000000002,79.91479575450455L198.1369,79.92886718943312L198.5867,79.9552738607908L199.0365,80.02062624016041L199.4863,80.1007142080529L199.9361,80.31178401248185L200.3859,80.42115263164143L200.8357,80.53662745314354L201.28549999999998,80.7312082451759L201.7353,80.7821533551214L202.18509999999998,80.78433127064257L202.6349,80.72600162216004L203.0847,80.84066069238173L203.53449999999998,80.91815510730346L203.98430000000002,80.97218063568222L204.4341,81.08728894431299L204.8839,81.18279612130901L205.33370000000002,81.25013253945482L205.7835,81.37003360252064L206.2333,81.49275821049936L206.6831,81.67148078658322L207.1329,81.8249234291421L207.5827,82.09994558018757L208.0325,82.32737663807947L208.4823,82.56283284406621L208.9321,82.56654387007428L209.3819,82.6922728810489L209.83169999999998,83.07836048457612L210.2815,83.2564189342962L210.7313,83.2420438408384L211.1811,83.36460351442652L211.6309,83.60987449691997L212.08069999999998,83.86204817027904L212.5305,83.88210050812725L212.98030000000003,83.94161660132896L213.4301,84.16380269377825L213.87990000000002,84.14256611604223L214.3297,84.35899942274852L214.7795,84.5257748932815L215.2293,84.6570970138796L215.6791,84.68939346145375L216.12890000000002,84.90117496077504L216.5787,85.40889824957586L217.0285,85.83636325318182L217.4783,86.1804937573477L217.9281,86.39633280675113L218.3779,86.50873560962107L218.8277,86.83680120155343L219.2775,86.97264224697051L219.72729999999999,87.15242512578199L220.1771,87.49994340110838L220.6269,87.70020616718813L221.0767,88.14531409922272L221.5265,88.56411215392748L221.97629999999998,88.96854373975667L222.4261,89.49482085423298L222.87589999999997,90.01566516663968L223.3257,90.76903320137464L223.77550000000002,91.53483086207879L224.2253,92.09299532455374L224.67510000000001,93.16313943034078L225.1249,94.03979604483858L225.5747,94.3650614562107L226.02450000000002,94.25197303385734L226.4743,94.76853366060863L226.9241,94.98888596242227L227.3739,95.0127486162842L227.8237,95.68298506145078L228.2735,96.25253180235536L228.7233,97.03525077173335L229.1731,97.81596394211674L229.6229,97.43294751326434L230.0727,97.74819016265982L230.52249999999998,98.7719527980898L230.9723,99.93603437333408L231.4221,101.03192662926162L231.87189999999998,102.15399863885105L232.3217,103.74970700644845L232.77149999999997,104.42850594267917L233.2213,105.05999245643744L233.67110000000002,106.65666862314474L234.1209,108.23312141561553L234.57070000000002,110.25364711756299L235.0205,112.3176034838626L235.4703,114.63460197479813L235.9201,116.766299783503L236.3699,118.67884250188227L236.8197,121.13378921570991L237.2695,123.23198512340068L237.7193,125.07970899375422L238.1691,126.98873513089178L238.6189,126.86539556146326L239.0687,128.33534439865423L239.5185,129.99524355969666L239.9683,132.83920165921353L240.41809999999998,135.92294424841413L240.8679,138.49340144870806L241.3177,139.63867843631147L241.76749999999998,142.44589555226435L242.21730000000002,144.92786504007978L242.6671,145.401405693701L243.11690000000002,146.96888752729905L243.5667,149.27088575550823L244.0165,150.06048740629606L244.46630000000002,154.10287490353087L244.9161,157.29356284765552L245.3659,159.12843324277057L245.8157,160.58712111650044L246.2655,158.27947848391506L246.7153,155.64854685873968L247.1651,157.79878290811615L247.6149,161.46366258616547L248.0647,163.51791122594113L248.5145,164.92893801137805L248.9643,166.52619774778051L249.4141,162.70668834232904L249.8639,166.6445070134617L250.31369999999998,167.46992092401973L250.7635,167.57108758025987L251.21329999999998,167.32867584741652L251.6631,167.84000125325917L252.11290000000002,166.16958807748512L252.5627,168.88917697736434" style="fill: none;" fill="none"></path></g></g></g></g><g opacity="0.2"><g><g><g><path stroke="rgb(255, 112, 67)" stroke-width="2px" d="M35.3093,-3.401074891740649L35.759100000000004,2.1985411698167923L36.2089,7.8713120438835915L36.658699999999996,12.313183063810527L37.1085,16.42668464508921L37.558299999999996,20.49908909472552L38.0081,24.06876101277092L38.4579,27.521519503810197L38.9077,31.166935785250217L39.3575,34.348414843732655L39.8073,37.102570051496684L40.2571,39.78769454630938L40.706900000000005,42.53192314234644L41.1567,44.809553032571614L41.6065,46.874983614141286L42.0563,48.725745222785264L42.5061,50.37783073295246L42.9559,52.05573982000351L43.4057,53.53550030968405L43.8555,54.83979474956338L44.305299999999995,56.102848193862215L44.7551,57.19906742464413L45.2049,58.09958374500275L45.6547,59.05241858417337L46.1045,59.85745720429853L46.5543,61.036973655223846L47.004099999999994,61.87251143022016L47.453900000000004,62.4364820447835L47.9037,62.803047358989716L48.3535,63.32218037952076L48.8033,64.07518820871006L49.253099999999996,64.71912319551815L49.70290000000001,65.32730799371545L50.1527,65.80474444952878L50.6025,65.80141160163012L51.0523,66.07261910221793L51.5021,66.72794331745669L51.951899999999995,66.96136255697772L52.401700000000005,67.25436544418335L52.8515,67.54640923846851L53.3013,67.62706895308062L53.7511,67.87880686738275L54.2009,68.05832508477297L54.6507,68.32586405493997L55.100500000000004,68.72424727678299L55.5503,68.9318908940662L56.000099999999996,69.03273951465432L56.4499,69.05283251133832L56.899699999999996,69.28850561922246L57.3495,69.5901403427124L57.7993,69.65075501528653L58.2491,69.97876479408957L58.6989,69.87933083555914L59.1487,70.30039660497144L59.5985,70.66355713930997L60.048300000000005,70.75469494407827L60.4981,70.86127414486624L60.9479,70.90853344852273L61.3977,71.11581740596078L61.847500000000004,71.21959125995636L62.2973,71.15494839711621L62.7471,71.32072760842063L63.1969,71.41654099117626L63.646699999999996,71.63439894806255L64.0965,71.8650128407912L64.5463,71.62612677162343L64.9961,71.72795846245505L65.44590000000001,71.9584045139226L65.8957,72.06730951504275L66.3455,72.07306407256559L66.7953,72.18570953607559L67.2451,72.17753326892853L67.69489999999999,72.08706682920456L68.1447,72.19724262844433L68.5945,72.42159843986684L69.0443,72.52577990835363L69.4941,72.45835567604412L69.9439,72.5796569531614L70.39370000000001,72.69330946423791L70.8435,72.81393937631086L71.2933,72.84554148804058L71.7431,72.89680500464007L72.1929,73.1411339261315L72.6427,73.46144698424771L73.0925,73.38644591786645L73.5423,73.25140563466333L73.9921,73.08639369769529L74.44189999999999,72.92663279446688L74.8917,72.91032821481878L75.34150000000001,73.20342701131646L75.7913,73.50453423370014L76.2411,73.55447899753396L76.6909,73.43353738026187L77.1407,73.2348852591081L77.5905,73.11399159648202L78.0403,73.33674092726275L78.4901,73.24661017006093L78.9399,73.28353524749929L79.38969999999999,73.30293290181592L79.83949999999999,73.33652513135563L80.28930000000001,73.47336371378466L80.73910000000001,73.49077125029132L81.1889,73.64266759157181L81.6387,73.80262031338431L82.0885,73.95943200588226L82.5383,73.80060621825132L82.9881,73.67182401635431L83.4379,73.7285303852775L83.8877,73.64722328294407L84.33749999999999,73.86229987036099L84.78729999999999,73.90598655288869L85.23710000000001,73.98134727911517L85.68690000000001,74.0540944771333L86.1367,74.05841039527546L86.5865,74.08296317403966L87.0363,74.14103625037454L87.4861,74.02939783443104L87.9359,74.07665713808753L88.3857,74.16877801309933L88.8355,74.20424047383395L89.28529999999999,74.33230335604061L89.73509999999999,74.33805791356347L90.1849,74.2592684301463L90.63470000000001,74.13707999207757L91.0845,74.32031469453464L91.5343,74.42646230350842L91.9841,74.35045418956064L92.4339,74.2643036679788L92.8837,74.13082191077146L93.3335,74.44358211213891L93.7833,74.51760010827671L94.2331,74.59197776425968L94.6829,74.52810217575595L95.1327,74.40224520726636L95.58250000000001,74.34781668402933L96.0323,74.55145608836953L96.4821,74.45432395284826L96.9319,74.37910709055987L97.3817,74.697238212282L97.83149999999999,74.58284240419214L98.2813,74.65465448661283L98.7311,74.81520664150064L99.1809,74.79245216196233L99.6307,74.78365248441696L100.0805,74.8388482819904L100.5303,74.82652393796228L100.98010000000001,74.85110069404949L101.4299,74.95537807182833L101.8797,75.03435937382959L102.3295,75.04239177703857L102.77929999999999,75.01841445402667L103.2291,75.02942004528913L103.6789,75.00644976984371L104.1287,75.2852580818263L104.5785,75.08130697228692L105.0283,74.70776425708424L105.4781,74.86565492911771L105.92790000000001,74.76020266251132L106.3777,74.84819943796505L106.8275,74.77039302479137L107.2773,74.6666431481188L107.7271,74.86834038929507L108.17689999999999,74.90030216086994L108.6267,74.93058551983401L109.07650000000001,74.9169184457172L109.5263,74.94885623996907L109.9761,75.0543085065755L110.4259,75.1198864850131L110.8757,75.1814602505077L111.3255,75.1436480121179L111.7753,75.31959360837936L112.2251,75.40754242918707L112.6749,75.23449808901006L113.12469999999999,75.29787015373056L113.5745,75.5447646487843L114.02430000000001,75.48369440707293L114.4741,75.48472543196246L114.9239,75.36718859455802L115.3737,75.3136472322724L115.8235,75.46439266204834L116.2733,75.48359849778089L116.7231,75.56200434402987L117.1729,75.6560194275596L117.6227,75.76216703653336L118.07249999999999,75.75494986230676L118.52229999999999,75.6409616687081L118.97210000000001,75.44616989655927L119.42190000000001,75.54100020907141L119.8717,75.32251884178683L120.3215,75.28628910671581L120.7713,75.45516139268875L121.2211,75.4782036001032L121.6709,75.50728809291665L122.1207,75.48052940043536L122.5705,75.59645975719799L123.02029999999999,75.68932392922315L123.47009999999999,75.5604697953571L123.91990000000001,75.52786063606088L124.36970000000001,75.55071102489124L124.8195,75.5852383700284L125.2693,75.72341968254611L125.7191,75.78125298565084L126.1689,75.8065011067824L126.6187,75.7751147909598L127.0685,75.62350617755543L127.5183,75.58749223839153L127.96809999999999,75.64978532357648L128.4179,75.74224188111044L128.86769999999999,75.67788674614646L129.3175,75.74945905533704L129.7673,75.70308691263199L130.2171,75.83016672459516L130.6669,75.88131035457958L131.1167,75.95333823290738L131.56650000000002,76.12633461843838L132.0163,76.15199035406113L132.4661,76.02205724065954L132.9159,76.00654391267084L133.3657,75.94338764385745L133.8155,75.94993345303968L134.2653,75.80024302547628L134.7151,75.88378001884982L135.1649,75.85423995689914L135.6147,75.80750815434888L136.0645,75.872127039866L136.5143,76.02378360791639L136.9641,76.04620240493253L137.4139,76.12295381589368L137.8637,76.03658749840476L138.3135,76.06476085294376L138.7633,76.36116852001712L139.2131,76.31122375618328L139.6629,76.2513284032995L140.1127,76.17438517375425L140.5625,76.09741796688601L141.0123,76.10429945859042L141.4621,76.23001256314191L141.9119,76.00395436178555L142.36169999999998,76.0459386543794L142.8115,76.1213713125749L143.2613,76.12117949399081L143.7111,76.12554336677898L144.1609,76.0827438452027L144.61069999999998,76.01723779873416L145.0605,76.09945603934202L145.51029999999997,76.3259458325126L145.9601,76.238236784935L146.40990000000002,76.33726312897421L146.8597,76.34412064335562L147.3095,76.25171204046771L147.7593,76.30942545695737L148.2091,76.39548006924716L148.65890000000002,76.37116706371307L149.1087,76.4619691859592L149.5585,76.36673125895587L150.0083,76.39049278606068L150.4581,76.503809614615L150.9079,76.4921086809852L151.3577,76.33373846249148L151.8075,76.47170397910205L152.2573,76.34467212178491L152.7071,76.16349946910684L153.15689999999998,76.369033081965L153.6067,76.49580118872903L154.0565,76.77439370480451L154.50629999999998,76.7273262197321L154.95610000000002,76.76017515225843L155.40589999999997,76.8222764188593L155.8557,76.89974714951083L156.30550000000002,76.86754560470581L156.7553,76.88145245205273L157.20510000000002,76.72365768931128L157.6549,76.86620287461713L158.1047,76.803550129587L158.5545,76.70171843875538L159.0043,76.62690919095819L159.4541,76.72253075512972L159.9039,76.83347382870588L160.3537,76.80652331764047L160.80349999999999,77.0982554067265L161.2533,76.97357332706451L161.7031,77.18522115729071L162.1529,77.19567527012393L162.6027,77.03737698359922L163.05249999999998,77.04305960915305L163.5023,77.10772644931619L163.9521,77.17896307598461L164.40189999999998,77.155585186048L164.85170000000002,77.20634517886423L165.3015,77.05380144986239L165.75130000000001,77.12453455274755L166.2011,77.24530832875858L166.6509,77.29911344159733L167.10070000000002,77.40463764017278L167.5505,77.39646137302572L168.0003,77.42427506771955L168.4501,77.33519931273028L168.8999,77.47043141451749L169.3497,77.3761046257886L169.7995,77.46021707491442L170.2493,77.2560261921449L170.6991,77.17387988350607L171.1489,77.44256976517764L171.5987,77.46031298420645L172.0485,77.49265839294955L172.4983,77.52183879505505L172.94809999999998,77.52740153399381L173.3979,77.64198916066776L173.84769999999997,77.45621286197141L174.29749999999999,77.4577713879672L174.74730000000002,77.48146098310296L175.1971,77.48040598089044L175.64690000000002,77.51409411972219L176.0967,77.6273869709535L176.5465,77.53783166950399L176.99630000000002,77.65529657493938L177.4461,77.71296203678304L177.8959,77.7183089798147L178.3457,77.62940106608652L178.7955,77.64239677515897L179.2453,77.37202848087658L179.6951,77.5738695859909L180.1449,77.69608200138265L180.5947,78.04152329401538L181.0445,78.02315666458823L181.49429999999998,78.0984934134917L181.9441,78.12436494502154L182.3939,78.2445872426033L182.84369999999998,78.13863145221363L183.2935,77.96539529345252L183.74329999999998,78.20135612921283L184.19310000000002,78.24024734713815L184.64290000000003,78.32059535655108L185.0927,78.47925330292095L185.54250000000002,78.42659910158679L185.9923,78.31985205953771L186.4421,78.45697836984287L186.8919,78.6537842371247L187.3417,78.68828760493885L187.7915,78.66833847219293L188.2413,78.62755304574966L188.6911,79.03651026704095L189.1409,79.13263535499573L189.5907,79.2669802958315L190.0405,79.33507589318536L190.4903,79.43465371565387L190.9401,79.45580171455036L191.38989999999998,79.19569571451709L191.8397,79.37403904307972L192.2895,79.41065241531894L192.7393,79.35147638212551L193.1891,79.5269184546037L193.63889999999998,79.7097455425696L194.08870000000002,79.68768640539862L194.5385,80.00955798951063L194.9883,79.933861580762L195.43810000000002,80.02274551716718L195.8879,79.97637337446213L196.3377,80.0332236073234L196.7875,80.2062439701774L197.2373,79.82673090154474L197.68710000000002,79.83051931858063L198.1369,79.94997434182599L198.5867,79.99488386782733L199.0365,80.11865480921485L199.4863,80.22084615989164L199.9361,80.62838871912524L200.3859,80.58520556038076L200.8357,80.7098396853967L201.28549999999998,81.02307943322442L201.7353,80.85857102003965L202.18509999999998,80.78759814392437L202.6349,80.63850714943625L203.0847,81.01264929771423L203.53449999999998,81.03439672968604L203.98430000000002,81.0532189282504L204.4341,81.25995140725915L204.8839,81.32605688680302L205.33370000000002,81.3511371666735L205.7835,81.54988519711927L206.2333,81.67684512246738L206.6831,81.93956465070899L207.1329,82.05508739298041L207.5827,82.51247880675577L208.0325,82.66852322491732L208.4823,82.91601715304635L208.9321,82.57211040908639L209.3819,82.88086639751087L209.83169999999998,83.65749188986692L210.2815,83.52350660887632L210.7313,83.22048120065168L211.1811,83.54844302480872L211.6309,83.97778097066012L212.08069999999998,84.24030868031763L212.5305,83.91217901489951L212.98030000000003,84.03089074113153L213.4301,84.49708183245227L213.87990000000002,84.1107112494382L214.3297,84.68364938280799L214.7795,84.77593809908088L215.2293,84.8540801947767L215.6791,84.73783813281491L216.12890000000002,85.21884720975702L216.5787,86.17048318277706L217.0285,86.4775607585907L217.4783,86.69668951359662L217.9281,86.72009138085626L218.3779,86.677339813926L218.8277,87.32889958945188L219.2775,87.17640381509607L219.72729999999999,87.4220994439992L220.1771,88.02122081409802L220.6269,88.00060031630777L221.0767,88.81297599727458L221.5265,89.19230923598462L221.97629999999998,89.57519111850046L222.4261,90.28423652594739L222.87589999999997,90.79693163524975L223.3257,91.8990852534771L223.77550000000002,92.68352735313502L224.2253,92.93024201826616L224.67510000000001,94.76835558902134L225.1249,95.35478096658534L225.5747,94.85295957326889L226.02450000000002,94.08234040032734L226.4743,95.54337460073558L226.9241,95.31941441514276L227.3739,95.04854259707712L227.8237,96.6883397292007L228.2735,97.10685191371225L228.7233,98.20932922580026L229.1731,98.98703369769183L229.6229,96.85842286998576L230.0727,98.22105413675308L230.52249999999998,100.30759675123475L230.9723,101.68215673620051L231.4221,102.6757650131529L231.87189999999998,103.83710665323518L232.3217,106.1432695578445L232.77149999999997,105.44670434702526L233.2213,106.00722222707489L233.67110000000002,109.0516828732057L234.1209,110.59780060432175L234.57070000000002,113.28443567048419L235.0205,115.41353803331202L235.4703,118.11009971120141L235.9201,119.96384649656036L236.3699,121.54765657945113L236.8197,124.81620928645134L237.2695,126.3792789849368L237.7193,127.8512947992845L238.1691,129.85227433659816L238.6189,126.68038620732048L239.0687,130.54026765444064L239.5185,132.48509230126035L239.9683,137.10513880848885L240.41809999999998,140.548558132215L240.8679,142.349087249149L241.3177,141.35659391771665L241.76749999999998,146.6567212261937L242.21730000000002,148.6508192718029L242.6671,146.1117166741328L243.11690000000002,149.3201102776961L243.5667,152.723883097822L244.0165,151.24488988247785L244.46630000000002,160.16645614938304L244.9161,162.0795947638425L245.3659,161.88073883544317L245.8157,162.77515292709523L246.2655,154.81801453503695L246.7153,151.70214942097664L247.1651,161.02413698218086L247.6149,166.96098210323942L248.0647,166.59928418560463L248.5145,167.0454781895334L248.9643,168.92208735238424L249.4141,156.97742423415184L249.8639,172.55123502016068L250.31369999999998,168.70804178985682L250.7635,167.7228375646201L251.21329999999998,166.96505824815145L251.6631,168.6069893620231L252.11290000000002,163.66396831382406L252.5627,172.96856032718313" style="fill: none;" fill="none"></path></g></g></g></g></g></g><g transform="translate(48, 177)" clip-path="url(#clip_1)"><clipPath id="clip_1"><rect width="281" height="23"></rect></clipPath><g><g><line x1="0" y1="0" x2="0" y2="5" style="visibility: inherit;" fill="rgb(0, 0, 0)" stroke="rgb(204, 204, 204)" stroke-width="1px"></line><line x1="28.1125" y1="0" x2="28.1125" y2="5" style="visibility: inherit;" fill="rgb(0, 0, 0)" stroke="rgb(204, 204, 204)" stroke-width="1px"></line><line x1="56.225" y1="0" x2="56.225" y2="5" style="visibility: inherit;" fill="rgb(0, 0, 0)" stroke="rgb(204, 204, 204)" stroke-width="1px"></line><line x1="84.33749999999999" y1="0" x2="84.33749999999999" y2="5" style="visibility: inherit;" fill="rgb(0, 0, 0)" stroke="rgb(204, 204, 204)" stroke-width="1px"></line><line x1="112.45" y1="0" x2="112.45" y2="5" style="visibility: inherit;" fill="rgb(0, 0, 0)" stroke="rgb(204, 204, 204)" stroke-width="1px"></line><line x1="140.5625" y1="0" x2="140.5625" y2="5" style="visibility: inherit;" fill="rgb(0, 0, 0)" stroke="rgb(204, 204, 204)" stroke-width="1px"></line><line x1="168.67499999999998" y1="0" x2="168.67499999999998" y2="5" style="visibility: inherit;" fill="rgb(0, 0, 0)" stroke="rgb(204, 204, 204)" stroke-width="1px"></line><line x1="196.7875" y1="0" x2="196.7875" y2="5" style="visibility: inherit;" fill="rgb(0, 0, 0)" stroke="rgb(204, 204, 204)" stroke-width="1px"></line><line x1="224.9" y1="0" x2="224.9" y2="5" style="visibility: inherit;" fill="rgb(0, 0, 0)" stroke="rgb(204, 204, 204)" stroke-width="1px"></line><line x1="253.01250000000002" y1="0" x2="253.01250000000002" y2="5" style="visibility: inherit;" fill="rgb(0, 0, 0)" stroke="rgb(204, 204, 204)" stroke-width="1px"></line><line x1="281.125" y1="0" x2="281.125" y2="5" style="visibility: inherit;" fill="rgb(0, 0, 0)" stroke="rgb(204, 204, 204)" stroke-width="1px"></line></g><g transform="translate(0, 8)"><text x="0" y="0" dx="0em" dy="0.95em" style="text-anchor: middle; visibility: hidden; font-family: &quot;Helvetica Neue&quot;, sans-serif; font-size: 12px; font-weight: 200;" fill="rgb(50, 49, 63)" stroke="none" stroke-width="1px">-50k</text><text x="28.1125" y="0" dx="0em" dy="0.95em" style="text-anchor: middle; visibility: inherit; font-family: &quot;Helvetica Neue&quot;, sans-serif; font-size: 12px; font-weight: 200;" fill="rgb(50, 49, 63)" stroke="none" stroke-width="1px">0</text><text x="56.225" y="0" dx="0em" dy="0.95em" style="text-anchor: middle; visibility: hidden; font-family: &quot;Helvetica Neue&quot;, sans-serif; font-size: 12px; font-weight: 200;" fill="rgb(50, 49, 63)" stroke="none" stroke-width="1px">50k</text><text x="84.33749999999999" y="0" dx="0em" dy="0.95em" style="text-anchor: middle; visibility: inherit; font-family: &quot;Helvetica Neue&quot;, sans-serif; font-size: 12px; font-weight: 200;" fill="rgb(50, 49, 63)" stroke="none" stroke-width="1px">100k</text><text x="112.45" y="0" dx="0em" dy="0.95em" style="text-anchor: middle; visibility: hidden; font-family: &quot;Helvetica Neue&quot;, sans-serif; font-size: 12px; font-weight: 200;" fill="rgb(50, 49, 63)" stroke="none" stroke-width="1px">150k</text><text x="140.5625" y="0" dx="0em" dy="0.95em" style="text-anchor: middle; visibility: inherit; font-family: &quot;Helvetica Neue&quot;, sans-serif; font-size: 12px; font-weight: 200;" fill="rgb(50, 49, 63)" stroke="none" stroke-width="1px">200k</text><text x="168.67499999999998" y="0" dx="0em" dy="0.95em" style="text-anchor: middle; visibility: hidden; font-family: &quot;Helvetica Neue&quot;, sans-serif; font-size: 12px; font-weight: 200;" fill="rgb(50, 49, 63)" stroke="none" stroke-width="1px">250k</text><text x="196.7875" y="0" dx="0em" dy="0.95em" style="text-anchor: middle; visibility: inherit; font-family: &quot;Helvetica Neue&quot;, sans-serif; font-size: 12px; font-weight: 200;" fill="rgb(50, 49, 63)" stroke="none" stroke-width="1px">300k</text><text x="224.9" y="0" dx="0em" dy="0.95em" style="text-anchor: middle; visibility: hidden; font-family: &quot;Helvetica Neue&quot;, sans-serif; font-size: 12px; font-weight: 200;" fill="rgb(50, 49, 63)" stroke="none" stroke-width="1px">350k</text><text x="253.01250000000002" y="0" dx="0em" dy="0.95em" style="text-anchor: middle; visibility: inherit; font-family: &quot;Helvetica Neue&quot;, sans-serif; font-size: 12px; font-weight: 200;" fill="rgb(50, 49, 63)" stroke="none" stroke-width="1px">400k</text><text x="281.125" y="0" dx="0em" dy="0.95em" style="text-anchor: middle; visibility: hidden; font-family: &quot;Helvetica Neue&quot;, sans-serif; font-size: 12px; font-weight: 200;" fill="rgb(50, 49, 63)" stroke="none" stroke-width="1px">450k</text></g><line x1="0" y1="0" x2="281.125" y2="0" fill="rgb(0, 0, 0)" stroke="rgb(204, 204, 204)" stroke-width="1px"></line></g></g></g></g></svg>