<svg viewBox="0 0 330 200" xmlns="http://www.w3.org/2000/svg"><g><g><g><g><g><line x1="48.875" y1="177" x2="43.875" y2="177" style="visibility: inherit;" fill="rgb(0, 0, 0)" stroke="rgb(204, 204, 204)" stroke-width="1px"></line><line x1="48.875" y1="163.3846153846154" x2="43.875" y2="163.3846153846154" style="visibility: inherit;" fill="rgb(0, 0, 0)" stroke="rgb(204, 204, 204)" stroke-width="1px"></line><line x1="48.875" y1="149.76923076923077" x2="43.875" y2="149.76923076923077" style="visibility: inherit;" fill="rgb(0, 0, 0)" stroke="rgb(204, 204, 204)" stroke-width="1px"></line><line x1="48.875" y1="136.15384615384616" x2="43.875" y2="136.15384615384616" style="visibility: inherit;" fill="rgb(0, 0, 0)" stroke="rgb(204, 204, 204)" stroke-width="1px"></line><line x1="48.875" y1="122.53846153846152" x2="43.875" y2="122.53846153846152" style="visibility: inherit;" fill="rgb(0, 0, 0)" stroke="rgb(204, 204, 204)" stroke-width="1px"></line><line x1="48.875" y1="108.92307692307693" x2="43.875" y2="108.92307692307693" style="visibility: inherit;" fill="rgb(0, 0, 0)" stroke="rgb(204, 204, 204)" stroke-width="1px"></line><line x1="48.875" y1="95.3076923076923" x2="43.875" y2="95.3076923076923" style="visibility: inherit;" fill="rgb(0, 0, 0)" stroke="rgb(204, 204, 204)" stroke-width="1px"></line><line x1="48.875" y1="81.69230769230768" x2="43.875" y2="81.69230769230768" style="visibility: inherit;" fill="rgb(0, 0, 0)" stroke="rgb(204, 204, 204)" stroke-width="1px"></line><line x1="48.875" y1="68.07692307692305" x2="43.875" y2="68.07692307692305" style="visibility: inherit;" fill="rgb(0, 0, 0)" stroke="rgb(204, 204, 204)" stroke-width="1px"></line><line x1="48.875" y1="54.461538461538424" x2="43.875" y2="54.461538461538424" style="visibility: inherit;" fill="rgb(0, 0, 0)" stroke="rgb(204, 204, 204)" stroke-width="1px"></line><line x1="48.875" y1="40.84615384615387" x2="43.875" y2="40.84615384615387" style="visibility: inherit;" fill="rgb(0, 0, 0)" stroke="rgb(204, 204, 204)" stroke-width="1px"></line><line x1="48.875" y1="27.230769230769255" x2="43.875" y2="27.230769230769255" style="visibility: inherit;" fill="rgb(0, 0, 0)" stroke="rgb(204, 204, 204)" stroke-width="1px"></line><line x1="48.875" y1="13.615384615384613" x2="43.875" y2="13.615384615384613" style="visibility: inherit;" fill="rgb(0, 0, 0)" stroke="rgb(204, 204, 204)" stroke-width="1px"></line><line x1="48.875" y1="0" x2="43.875" y2="0" style="visibility: inherit;" fill="rgb(0, 0, 0)" stroke="rgb(204, 204, 204)" stroke-width="1px"></line></g><g transform="translate(38.875, 0)"><text x="0" y="177" dx="0em" dy="0.3em" style="text-anchor: end; visibility: hidden; font-family: &quot;Helvetica Neue&quot;, sans-serif; font-size: 12px; font-weight: 200;" fill="rgb(50, 49, 63)" stroke="none" stroke-width="1px">0.38</text><text x="0" y="163.3846153846154" dx="0em" dy="0.3em" style="text-anchor: end; visibility: inherit; font-family: &quot;Helvetica Neue&quot;, sans-serif; font-size: 12px; font-weight: 200;" fill="rgb(50, 49, 63)" stroke="none" stroke-width="1px">0.4</text><text x="0" y="149.76923076923077" dx="0em" dy="0.3em" style="text-anchor: end; visibility: hidden; font-family: &quot;Helvetica Neue&quot;, sans-serif; font-size: 12px; font-weight: 200;" fill="rgb(50, 49, 63)" stroke="none" stroke-width="1px">0.42</text><text x="0" y="136.15384615384616" dx="0em" dy="0.3em" style="text-anchor: end; visibility: inherit; font-family: &quot;Helvetica Neue&quot;, sans-serif; font-size: 12px; font-weight: 200;" fill="rgb(50, 49, 63)" stroke="none" stroke-width="1px">0.44</text><text x="0" y="122.53846153846152" dx="0em" dy="0.3em" style="text-anchor: end; visibility: hidden; font-family: &quot;Helvetica Neue&quot;, sans-serif; font-size: 12px; font-weight: 200;" fill="rgb(50, 49, 63)" stroke="none" stroke-width="1px">0.46</text><text x="0" y="108.92307692307693" dx="0em" dy="0.3em" style="text-anchor: end; visibility: inherit; font-family: &quot;Helvetica Neue&quot;, sans-serif; font-size: 12px; font-weight: 200;" fill="rgb(50, 49, 63)" stroke="none" stroke-width="1px">0.48</text><text x="0" y="95.3076923076923" dx="0em" dy="0.3em" style="text-anchor: end; visibility: hidden; font-family: &quot;Helvetica Neue&quot;, sans-serif; font-size: 12px; font-weight: 200;" fill="rgb(50, 49, 63)" stroke="none" stroke-width="1px">0.5</text><text x="0" y="81.69230769230768" dx="0em" dy="0.3em" style="text-anchor: end; visibility: inherit; font-family: &quot;Helvetica Neue&quot;, sans-serif; font-size: 12px; font-weight: 200;" fill="rgb(50, 49, 63)" stroke="none" stroke-width="1px">0.52</text><text x="0" y="68.07692307692305" dx="0em" dy="0.3em" style="text-anchor: end; visibility: hidden; font-family: &quot;Helvetica Neue&quot;, sans-serif; font-size: 12px; font-weight: 200;" fill="rgb(50, 49, 63)" stroke="none" stroke-width="1px">0.54</text><text x="0" y="54.461538461538424" dx="0em" dy="0.3em" style="text-anchor: end; visibility: inherit; font-family: &quot;Helvetica Neue&quot;, sans-serif; font-size: 12px; font-weight: 200;" fill="rgb(50, 49, 63)" stroke="none" stroke-width="1px">0.56</text><text x="0" y="40.84615384615387" dx="0em" dy="0.3em" style="text-anchor: end; visibility: hidden; font-family: &quot;Helvetica Neue&quot;, sans-serif; font-size: 12px; font-weight: 200;" fill="rgb(50, 49, 63)" stroke="none" stroke-width="1px">0.58</text><text x="0" y="27.230769230769255" dx="0em" dy="0.3em" style="text-anchor: end; visibility: inherit; font-family: &quot;Helvetica Neue&quot;, sans-serif; font-size: 12px; font-weight: 200;" fill="rgb(50, 49, 63)" stroke="none" stroke-width="1px">0.6</text><text x="0" y="13.615384615384613" dx="0em" dy="0.3em" style="text-anchor: end; visibility: hidden; font-family: &quot;Helvetica Neue&quot;, sans-serif; font-size: 12px; font-weight: 200;" fill="rgb(50, 49, 63)" stroke="none" stroke-width="1px">0.62</text><text x="0" y="0" dx="0em" dy="0.3em" style="text-anchor: end; visibility: hidden; font-family: &quot;Helvetica Neue&quot;, sans-serif; font-size: 12px; font-weight: 200;" fill="rgb(50, 49, 63)" stroke="none" stroke-width="1px">0.64</text></g><line x1="48.875" y1="0" x2="48.875" y2="177" fill="rgb(0, 0, 0)" stroke="rgb(204, 204, 204)" stroke-width="1px"></line></g></g><g transform="translate(48, 0)" clip-path="url(#clip_0)"><clipPath id="clip_0"><rect width="281" height="177"></rect></clipPath><g><g><g><line x1="0" y1="0" x2="0" y2="177" fill="rgb(0, 0, 0)" stroke="rgb(60, 60, 60)" stroke-width="1px" opacity="0.25"></line><line x1="28.1125" y1="0" x2="28.1125" y2="177" fill="rgb(0, 0, 0)" stroke="rgb(60, 60, 60)" stroke-width="1px" opacity="0.25"></line><line x1="56.225" y1="0" x2="56.225" y2="177" fill="rgb(0, 0, 0)" stroke="rgb(60, 60, 60)" stroke-width="1px" opacity="0.25"></line><line x1="84.33749999999999" y1="0" x2="84.33749999999999" y2="177" fill="rgb(0, 0, 0)" stroke="rgb(60, 60, 60)" stroke-width="1px" opacity="0.25"></line><line x1="112.45" y1="0" x2="112.45" y2="177" fill="rgb(0, 0, 0)" stroke="rgb(60, 60, 60)" stroke-width="1px" opacity="0.25"></line><line x1="140.5625" y1="0" x2="140.5625" y2="177" fill="rgb(0, 0, 0)" stroke="rgb(60, 60, 60)" stroke-width="1px" opacity="0.25"></line><line x1="168.67499999999998" y1="0" x2="168.67499999999998" y2="177" fill="rgb(0, 0, 0)" stroke="rgb(60, 60, 60)" stroke-width="1px" opacity="0.25"></line><line x1="196.7875" y1="0" x2="196.7875" y2="177" fill="rgb(0, 0, 0)" stroke="rgb(60, 60, 60)" stroke-width="1px" opacity="0.25"></line><line x1="224.9" y1="0" x2="224.9" y2="177" fill="rgb(0, 0, 0)" stroke="rgb(60, 60, 60)" stroke-width="1px" opacity="0.25"></line><line x1="253.01250000000002" y1="0" x2="253.01250000000002" y2="177" fill="rgb(0, 0, 0)" stroke="rgb(60, 60, 60)" stroke-width="1px" opacity="0.25"></line><line x1="281.125" y1="0" x2="281.125" y2="177" fill="rgb(0, 0, 0)" stroke="rgb(60, 60, 60)" stroke-width="1px" opacity="0.25"></line></g><g><line x1="0" y1="177" x2="281.125" y2="177" fill="rgb(0, 0, 0)" stroke="rgb(60, 60, 60)" stroke-width="1px" opacity="0.25"></line><line x1="0" y1="163.3846153846154" x2="281.125" y2="163.3846153846154" fill="rgb(0, 0, 0)" stroke="rgb(60, 60, 60)" stroke-width="1px" opacity="0.25"></line><line x1="0" y1="149.76923076923077" x2="281.125" y2="149.76923076923077" fill="rgb(0, 0, 0)" stroke="rgb(60, 60, 60)" stroke-width="1px" opacity="0.25"></line><line x1="0" y1="136.15384615384616" x2="281.125" y2="136.15384615384616" fill="rgb(0, 0, 0)" stroke="rgb(60, 60, 60)" stroke-width="1px" opacity="0.25"></line><line x1="0" y1="122.53846153846152" x2="281.125" y2="122.53846153846152" fill="rgb(0, 0, 0)" stroke="rgb(60, 60, 60)" stroke-width="1px" opacity="0.25"></line><line x1="0" y1="108.92307692307693" x2="281.125" y2="108.92307692307693" fill="rgb(0, 0, 0)" stroke="rgb(60, 60, 60)" stroke-width="1px" opacity="0.25"></line><line x1="0" y1="95.3076923076923" x2="281.125" y2="95.3076923076923" fill="rgb(0, 0, 0)" stroke="rgb(60, 60, 60)" stroke-width="1px" opacity="0.25"></line><line x1="0" y1="81.69230769230768" x2="281.125" y2="81.69230769230768" fill="rgb(0, 0, 0)" stroke="rgb(60, 60, 60)" stroke-width="1px" opacity="0.25"></line><line x1="0" y1="68.07692307692305" x2="281.125" y2="68.07692307692305" fill="rgb(0, 0, 0)" stroke="rgb(60, 60, 60)" stroke-width="1px" opacity="0.25"></line><line x1="0" y1="54.461538461538424" x2="281.125" y2="54.461538461538424" fill="rgb(0, 0, 0)" stroke="rgb(60, 60, 60)" stroke-width="1px" opacity="0.25"></line><line x1="0" y1="40.84615384615387" x2="281.125" y2="40.84615384615387" fill="rgb(0, 0, 0)" stroke="rgb(60, 60, 60)" stroke-width="1px" opacity="0.25"></line><line x1="0" y1="27.230769230769255" x2="281.125" y2="27.230769230769255" fill="rgb(0, 0, 0)" stroke="rgb(60, 60, 60)" stroke-width="1px" opacity="0.25"></line><line x1="0" y1="13.615384615384613" x2="281.125" y2="13.615384615384613" fill="rgb(0, 0, 0)" stroke="rgb(60, 60, 60)" stroke-width="1px" opacity="0.25"></line><line x1="0" y1="0" x2="281.125" y2="0" fill="rgb(0, 0, 0)" stroke="rgb(60, 60, 60)" stroke-width="1px" opacity="0.25"></line></g></g></g><g><g><line x1="0" y1="435.6923076923077" x2="281.125" y2="435.6923076923077" fill="rgb(0, 0, 0)" stroke="rgb(153, 153, 153)" stroke-width="1.5px"></line></g></g><g><g><line x1="28.1125" y1="0" x2="28.1125" y2="177" fill="rgb(0, 0, 0)" stroke="rgb(153, 153, 153)" stroke-width="1.5px"></line></g></g><g><g><g><g><g><path stroke="rgb(255, 112, 67)" stroke-width="2px" d="M28.301416,20.322720243380616L28.31491,48.717090368270874L28.431858000000002,87.64941509898453L28.535311999999998,31.041475218598492L28.863666,9.648149863756487L29.142542000000002,35.432440555767045L29.165032,12.930542487360583L29.259490000000003,28.64249150323033L29.340454,20.547217073020676L29.497884,54.407867284568795L29.50688,72.39002452694565L29.542864,52.74540933134773L30.244552,40.36510242478926L30.523428000000003,37.80730730278037L30.716842,20.22924859088718L30.748328,54.7752313265043L30.964232000000003,14.194294475758738L31.022706000000003,44.183748871679086L31.130658,43.89433480940397L31.324071999999997,5.490288414358162L31.360056,9.776090939573294L31.64343,-5.6912178990459665L31.719896000000002,31.52300408707876L31.746884,37.40888325530628L31.872828000000002,41.475556473777345L32.480058,44.78255530257928L32.673472,54.61592679185749L32.907368,63.70093195651067L33.078292000000005,14.070554058978956L33.420139999999996,28.95602987314109L33.784478,57.61236762345281L34.031867999999996,38.56711488023345L34.045362000000004,81.06844183856649L34.108334,52.621526608136534L34.126326,93.32715856948617L34.34223,32.63317702988826L34.373716,40.45293416687588L34.571628000000004,28.659096552729523L34.706568,17.185220164604573L34.962954,5.908335822561156L35.093396,70.0210438137847L35.165364000000004,91.82978597715156L35.237332,72.852881019253L35.718618,58.841373157100335L35.912031999999996,31.779351239452126L35.925526,41.0407949520185L36.406812,45.813502380794745L36.505768,13.88794195507441L36.555246000000004,40.21349138978894L36.735166,12.7004933018153L36.811632,16.5448070542937L36.870106,52.23779243837262L37.270428,51.79608840664274L37.540307999999996,67.35887464284718L37.949626,61.86353989252221L38.003602,54.54176529439967L38.147538000000004,49.96725638577695L38.174526,78.21965220080432L38.286976,95.98465870370731L38.489386,96.66617395013738L38.858222000000005,99.52411654173977L39.069627999999994,80.96134191730151L39.146094000000005,92.30932883745025L39.155089999999994,25.55458586776797L39.177580000000006,18.427531367879226L39.29003,25.168978927797212L39.294528,63.274171894213865L39.348504000000005,25.078466546098895L39.370994,51.109088297545355L39.501436,109.57573509336308L39.568906,23.869923823416343L40.18963,71.97095535871715L40.43702,103.8421367089589L41.458065999999995,80.78590575478772L41.777423999999996,73.36411355233652L41.790918000000005,45.88749771569968L42.051801999999995,64.29437923629122L42.330678,63.972644697055216L42.641040000000004,95.51958088395801L42.704012000000006,72.16368403440785L42.713007999999995,101.30178149813823L42.717506,92.38126191156063L42.97839,68.98357554607227L43.76554,76.5491204960183L44.386264,97.67210028327182L44.39526,69.67783329066721L44.62016,33.78375289041358L44.939518,12.626391291426359L45.173414,42.98236215469868L45.267872,103.5557199316067L45.299358,99.73736663946259L45.780643999999995,48.363107112624874L45.906588,61.44290670241401L46.032532,91.69910648892076L46.266428,133.73221713239724L46.545304,125.44478313242112L46.986108,81.53110360434022L47.125546,61.310981739160965L47.148036,54.63643506544227L47.530366,59.386066728328814L47.539362000000004,107.17322673684987L47.9037,82.73619197777887L48.317516,101.96311738611902L48.393981999999994,109.10780969068702L48.48844,129.46001211151196L49.091172,111.39672226515242L49.109164,61.91370892730535L49.145148,43.577899658997836L49.648923999999994,15.905885906226843L49.711895999999996,21.256770542295953L49.882819999999995,43.13011192465825L49.936796,53.607732973376216L50.125712,44.8538045215804L50.472058,63.70802077544006L50.8274,77.6744735165741L50.836396,104.61861855532561L51.079288,87.83304474156446L51.205232,44.33393911866841L51.677521999999996,46.13866749567728L52.154309999999995,62.60131054526033L52.217282,82.71415453244676L52.491659999999996,113.83969681545523L53.071902,87.9569388160786L53.656642000000005,87.22688751535168L53.854554,84.3358792059766L54.236883999999996,68.70311330424323L54.326844,8.619203427509802L54.488772,18.17004590437932L54.520258,36.28155420178612L54.682185999999994,74.84774515509956L54.776644,54.09866164612987L55.055519999999994,109.17453076855348L55.14548,91.85762262317223L55.644758,122.00586471357937L55.689738,101.73641463893513L56.000099999999996,79.9185365741584L56.058574,27.248444115046L56.085561999999996,43.37892497383649L56.144036,63.06757763644377L56.400422,72.88933082684376L56.503876,77.63280363790732L56.791748,79.0700860623502L57.439460000000004,119.61732947391627L57.682352,76.89553740497306L57.812794,105.09167774520762L58.055686,72.87992153169182L58.231108,145.38195650064904L58.244602,153.85851610609728L58.298578,137.8966626900044L58.438016,115.07724402275865L58.941792,120.59609564866167L59.445568,81.38721422114374L59.562516,76.0987023027398L60.075288,91.37297430062087L60.111272,119.69858506803754L60.29569,108.21603334376701L60.709506000000005,89.38179972060979L60.997378,63.37443131930557L61.213282,69.12265452029612L61.316736,67.83115511475617L61.6226,64.30000538340076L61.66758,20.729937767634596L61.681073999999995,29.261291529740163L61.748544,34.62531876280076L61.896978000000004,76.4195907337318L62.715614,101.9656136700605L63.01698,131.37357911466742L63.142924,56.29904258663349L63.187903999999996,47.54181969413102L63.345334,45.78040351465856L64.056018,25.035508286926245L64.39336800000001,67.10555890503522L64.90614,60.25322900686761L65.090558,41.75341873910031L65.598832,70.87458300595011L65.72927399999999,56.562174907124486L65.75176400000001,66.84703162635077L65.79224599999999,90.98947011655169L66.19706599999999,106.2116899480878L66.21056,97.13280269125772L66.336504,140.21619699920865L66.381484,130.62725660839146L66.799798,69.23124160459413L66.95273,29.444382032605404L67.22261,-15.394961297920986L67.780362,4.503862856656269L68.045744,41.3888145109685L68.162692,66.00455106069825L68.176186,35.08683813810919L68.270644,66.40239942422625L68.30213,136.72573765633862L68.563014,121.64195001250906L68.590002,107.40247862047565L68.84188999999999,128.07086566346698L69.76398,62.87072322293044L70.015868,77.77787725549986L70.15980400000001,49.62278152497299L70.55113,66.30671142655697L70.699564,80.56537662310558L71.05490599999999,103.12399341634651L71.08639199999999,112.29670499729768L71.14486600000001,146.02332101903488L71.414746,136.87156288548053L71.54968600000001,129.12641462427317L71.65314,122.08207660163603L71.734104,171.28115913876528L72.386314,168.4157007826806L72.674186,136.03284326981918L73.35338399999999,115.4692610764909L73.470332,146.87213649308364L74.33394799999999,108.24729068711348L74.365434,58.77947198576854L74.87370800000001,60.590742886044694L74.887202,49.97462557552943L74.98166,58.847464847740255L75.24704200000001,79.3665032398837L75.440456,112.40333923999064L75.82278600000001,86.24659410666813L75.962224,113.90933995346293L76.03419199999999,73.72353845362522L76.11065799999999,102.11405600576241L76.290578,36.03396942390489L76.49748600000001,63.721222688718626L76.501984,117.58247284199332L76.60094,157.9379015617059L76.75837,136.10367199311952L76.875318,104.3937229940038L76.9158,139.3409039395297L77.149696,108.31217869072778L77.16319,64.5269730674969L77.316122,49.98822091378024L77.334114,71.4420337927544L77.437568,85.54568764099088L77.464556,74.61581124290679L77.473552,116.28108703655604L77.68046,114.39333447232332L78.049296,110.58395566637166L78.134758,101.08965245725238L78.17524,83.52101701862067L78.481104,41.203656038304416L78.4901,90.07284068550439L78.75998,55.088972037258074L79.475162,73.17548645312472L79.71355600000001,62.72884001276742L79.803516,60.67362206039245L79.942954,64.73867993865859L79.983436,125.10359310786899L80.059902,94.63657342647254L80.13636799999999,141.0278673989551L80.505204,112.8711443584639L80.60865799999999,110.08694547111814L80.67163,102.20857400437284L81.00448200000001,144.57839993312777L81.517254,91.98074752357033L81.949062,78.71160951094606L81.971552,75.04828687121231L82.13347999999999,98.13931309210653L82.272918,111.12307319061395L82.709224,114.23593636348323L82.826172,47.754207887983426L82.844164,88.2925503191384L82.91613199999999,78.50847040314595L83.105048,79.1288180658856L83.39292,89.90240709243056L83.406414,64.28082691126227L83.478382,99.54176049067932L83.91019,70.33633736658405L84.148584,88.31300713399192L85.106658,60.85690737097484L85.232602,68.47615450174865L85.70939,98.32708960320693L86.033246,83.4670826692305L86.312122,77.62425126151852L86.662966,107.53792242624023L86.739432,57.39251678238905L86.86087799999999,89.15506214437931L86.95533599999999,110.45424183194208L87.009312,126.62942034271899L87.07678200000001,97.34466460369096L87.333168,83.42554712629631L87.66152199999999,121.42015341262271L88.156302,115.83036219130261L88.394696,104.14111786239604L88.412688,60.16394566893233L88.853492,2.5719916014466833L89.04240800000001,-11.674161016703891L89.271806,44.6273399125202L89.37526,41.420893554956336L89.640642,15.773304603004362L89.654136,55.28227828463913L90.07694799999999,50.44925210511363L90.22988000000001,40.84038517349671L90.38730999999999,31.366943237945804L90.562732,43.906953834155416L90.97654800000001,105.23373579495549L91.075504,85.22519099605738L91.44434,84.54483117443075L92.078558,110.49752544951563L92.375426,87.58469826748632L92.406912,90.09047966004269L92.44739399999999,78.16357556050151L92.52386000000001,72.3903786933636L92.604824,76.95655310589898L92.870206,113.93113635764891L93.095106,94.61074399591536L93.306512,116.71096996863699L93.58988599999999,115.68130346866764L93.92723600000001,112.25352952183218L93.954224,133.3179122195391L94.089164,80.33968103580624L94.12964600000001,74.38596473312765L94.174626,57.287567815548215L94.588442,84.86577013170529L94.62892400000001,74.03180521427007L94.646916,71.54183052048286L94.723382,52.4440950168314L95.011254,-16.110892718705543L95.096716,37.17177660769002L95.703946,17.07842297993031L95.98732000000001,-30.64382176429254L96.194228,11.852784791912967L96.39214000000001,49.174596753085694L96.778968,68.34773602314843L97.039852,124.66565460652785L97.710054,69.39854817893817L97.71905000000001,113.89157609801444L97.86298599999999,108.76254506871898L98.00242399999999,120.34580238945455L98.267806,113.06084727495139L98.91102,97.38808185056534L99.01897199999999,45.13997120515381L99.059454,98.61572544076185L99.306844,92.26821834301761L99.986042,111.65331284079438L100.049014,116.08456374789901L100.50781,85.28301831236855L100.602268,79.28508823008166L101.20050200000001,56.40592128477681L101.524358,79.88188117822702L101.623314,85.5262626808648L101.69978,75.95220563238831L101.906688,74.99806575708094L102.05962,94.08851829928732L102.35199,38.51064355415261L102.71183,68.33715092317327L103.053678,40.11745597825089L103.215606,-8.289361920369032L103.714884,61.175268930501204L103.719382,82.56577058526112L103.87231399999999,57.12426669166595L103.93528599999999,39.636409770506816L104.124202,86.41075763994715L104.875368,71.35861078437723L105.014806,87.30445136014094L105.167738,109.05366859893851L105.653522,122.17196074026873L105.801956,86.98347518337447L105.88292,91.2394215140915L105.891916,102.05067016878625L105.999868,64.51295611151629L106.004366,96.19621962563414L106.01786,100.0840275972306L106.10332199999999,131.37764303940924L106.260752,112.74521923696034L106.40019,58.87677219842739L106.57561199999999,76.77182913347083L106.620592,104.89388767701477L107.020914,74.45942774446522L107.08388599999999,115.692753054276L107.214328,126.64622278894247L107.25031200000001,84.71245978910575L107.380754,50.140835636535584L107.826056,87.9583315334793L108.865094,93.31948445974402L108.99103799999999,111.50522118513491L109.03152,101.83369178504266L109.157464,108.51136916513475L109.31489400000001,47.38757631102797L109.36887,114.83783954288171L109.65674200000001,82.82902898090299L110.26397200000001,98.52800392098787L110.506864,128.09975710962294L111.105098,122.95414648280831L111.10959600000001,104.30212958030602L111.739316,104.17948326690616L112.283574,124.92039932283393L112.31506,105.21673488210908L112.87731,89.61116843713543L113.38558400000001,73.1575969314629L113.471046,72.96951410646031L113.59699,86.35114090404707L113.695946,98.71034110229904L113.79040400000001,157.83179558072734L114.096268,130.1118535875381L114.33466200000001,134.56676946066122L114.595546,122.2060673024883L114.79345799999999,62.747312019541596L115.75603000000001,58.65984763336051L115.836994,71.62492787343463L115.93594999999999,123.53820007467661L115.962938,123.97892815081758L116.45322,104.67920108240855L116.516192,68.52513338181889L116.56567,55.98259710426322L116.81306000000001,27.2477003964174L116.862538,58.36916748845144L116.889526,67.5008511956501L117.15490799999999,91.81059591131756L117.276354,83.97933372811424L117.37980800000001,103.87706842442078L117.694668,77.38938800163287L117.793624,104.13182131495559L117.942058,114.0471909470761L118.05001,121.64095829063312L118.22993,104.72516443533966L118.310894,125.96085155773275L118.337882,87.2576778659387L118.35137599999999,84.68961688866581L118.693224,104.84769250102903L118.697722,128.33892334558638L118.90912800000001,88.89235637451816L119.04856600000001,89.7274431174778L119.170012,114.11728356991902L119.183506,126.82088275473441L119.205996,123.49400207279947L119.525354,123.28180125100096L119.574832,166.1968749099763L119.79523400000001,142.1088724729616L120.05162,152.43115054535676L120.25402999999999,115.28036825775254L120.43844800000001,76.23782713777693L120.496922,43.395807179290244L120.50142000000001,63.34679744712288L120.600376,104.84467991633281L120.67234400000001,115.56600562689849L121.171622,125.29454681114782L121.26608,134.75553108310402L121.576442,131.31708918430445L121.58993600000001,148.57345179201752L121.594434,118.73403041053766L121.810338,116.20402401518655L121.91829,131.2734791186286L122.512026,126.09366554805332L122.87186600000001,102.08207718237227L122.93034,120.92374612191632L123.21821200000001,80.91657241348635L123.510582,77.07180231265598L123.614036,85.91615133050813L123.991868,41.14636656840429L124.005362,73.23995081259523L124.02785200000001,85.12988114162513L124.329218,65.96964588782188L124.41018199999999,47.20544841622984L124.747532,53.83686214390339L124.92295399999999,23.74236884581964L125.633638,14.653646135918478L125.82255400000001,53.06769666120174L125.827052,74.2179507647945L126.119422,102.02303065636944L126.14641,160.9717476529018L126.263358,101.7506805553242L126.357816,83.4559162168533L126.384804,72.03334352518408L127.095488,106.06701119628721L128.17051,134.50856404420654L128.228984,71.89223814740545L128.38191600000002,61.66052017283073L128.489868,104.30129395711016L128.55284,71.50152190109341L128.678784,61.59084930903326L129.191556,43.02301605367933L129.348986,33.54722320745336L129.515412,26.09603087362379L129.92473,55.147686160224026L130.50947,104.72061208560031L130.84682,53.57107480111557L131.25164,48.277381921115705L131.265134,75.58840101480219L131.92633999999998,94.28472881489374L131.944332,94.50237450262854L132.137746,81.340307345937L132.18722400000001,101.97587781330044L132.232204,124.38167257828952L132.385136,147.37602765945508L132.430116,162.20245271400438L132.547064,109.63404926849596L132.749474,65.44862714524974L132.852928,39.363497380342324L133.082326,60.0470690292139L133.190278,82.54059854977982L133.27574,89.80878662413708L133.487146,38.643658905534835L133.99542,95.49007794953386L134.215822,141.34021761695283L134.58016,142.39370254866736L134.629638,124.49409533578702L134.719598,115.82310919280289L135.04795199999998,115.28278328460028L135.304338,115.45443066416357L135.78562399999998,111.625693654077L136.419842,105.24609604045693L136.595264,119.16939893013893L136.725706,121.52727558906562L137.117032,114.13853562201166L137.332936,129.32385309303098L137.34193199999999,163.5431305009291L137.512856,88.58328979884729L137.61631,93.02747078940357L137.935668,103.44537279361307L138.569886,92.04417405385222L138.857758,107.52508612236602L139.298562,80.49290176946192L139.33454600000002,96.4307484046026L140.01824200000001,123.78569539143605L140.117198,99.78861356735297L140.265632,103.62268547850431L140.598484,72.31361475554269L140.77390599999998,81.39589345756548L141.16073400000002,78.4117677614982L141.48908799999998,76.28476286886576L141.601538,82.98491227647882L141.660012,106.76739263547196L141.70049400000002,89.58845785955542L142.055836,95.58661065106185L142.32121800000002,85.8691020914498L142.83399,113.7559239360533L142.90146,128.51490321254246L143.25680200000002,119.83202326684807L143.64812799999999,102.65654135899587L144.04845,122.56807373809767L144.214876,87.09265994338962L144.372306,79.11894266009975L144.70515799999998,88.05812426283197L145.26290999999998,77.7570983347366L145.35736799999998,84.53226702535112L145.39785,117.95320245789172L145.469818,101.78835741701806L145.753192,87.44878781405785L145.75769000000003,117.83901529100311L145.82066200000003,62.47637597030307L146.373916,87.79891745447044L146.423394,64.427745391124L146.873194,62.84846863377625L147.17455999999999,52.18847105685151L148.07415999999998,108.28841765256232L148.645406,118.96801091611826L148.649904,142.88190551076752L148.780346,111.96252383322324L148.78934199999998,113.45142470135163L149.234644,79.92294834134223L149.909344,30.560892808897762L150.197216,89.85971665428346L150.224204,111.19914294417151L150.251192,53.2167111134349L150.269184,113.17218017323952L150.273682,145.32550959801392L150.790952,126.42196368859564L151.038342,121.98973544190602L151.578102,98.71834145910627L151.82999,80.17718500634896L152.270794,64.02297097152534L152.31577399999998,86.37181736239047L152.34725999999998,107.94568181941474L152.428224,97.71441792883523L152.68461000000002,73.6694965805891L152.882522,52.25867258677887L153.26935,48.20927356261936L153.67866800000002,86.6038861483455L153.68766399999998,85.22470503372216L153.8316,71.12358052785095L153.912564,80.67364390369275L155.185498,60.951915860079026L155.302446,54.917820426075735L155.50035799999998,96.40871404130817L155.74774799999997,55.03478758002903L156.026624,70.41500786545303L156.08509800000002,113.93097975200487L156.49891399999998,61.513915930573276L156.629356,80.14783013449242L156.80477800000003,118.72704869399604L158.06421799999998,148.28816551087994L158.41956000000002,110.57249911544096L158.536508,100.92196372789869L158.635464,113.74852803824291L158.720926,88.9224409200656L158.83337600000002,85.68673802519211L158.90534399999999,78.37593933543644L158.95932000000002,138.98973705393263L159.15273399999998,97.26201251941848L159.45859800000002,113.05435296268331L159.73747400000002,100.71658017489722L160.67305800000003,73.92506960964857L160.704544,99.65602179086049L160.745026,111.85073721973068L160.969926,146.62925783826L160.98342000000002,128.71778373004383L161.077878,119.39102962799166L161.21731599999998,147.39708167472014L161.302778,95.18106419492732L161.91450600000002,43.7842241610181L162.278844,68.68061291028073L162.283342,109.43223218048402L162.436274,107.68482072308531L163.05249999999998,132.21419645135828L163.07499,110.48414918193815L163.191938,70.40284333656601L163.398846,102.47958511132225L163.466316,77.69812365047608L163.835152,100.22200669313493L164.02856599999998,73.26874830495636L164.145514,95.66477696355817L164.32993199999999,58.673150438224496L164.523346,98.2355045005L165.11708199999998,98.62106784956322L165.14856799999998,115.00035087791619L165.16656,88.86934701427042L165.625356,23.317008332892016L165.805276,45.998894869102344L166.228088,52.3228956664788L166.29106000000002,59.62808381533365L166.372024,52.458224552963614L166.56094,108.55145257781228L167.78439600000002,81.37472827751532L168.02279,36.43203825663974L168.558052,25.159501001398752L169.376688,85.36747040689418L169.54311399999997,84.4754705733637L169.965926,93.39348003674257L170.681108,69.1713239258588L170.798056,82.4177074027923L170.97797599999998,87.51841924881603L171.184884,74.58585681633014L171.477254,97.375953501695L171.50874,97.48485798748813L171.544724,73.0323874915849L171.760628,88.23743169650542L171.80111,111.22256240610268L172.066492,101.23493784837163L172.124966,102.63812339316836L172.777176,96.23924615022923L172.831152,96.32983550772578L172.97958599999998,116.36099686324212L173.168502,107.5245235549922L173.460872,141.44328009182536L173.793724,103.66448829734611L174.00512999999998,61.071256586283766L174.29749999999999,81.90959981812027L174.427942,66.64834787686463L174.486416,103.70224366239276L174.796778,50.93295626524338L174.81027200000003,60.633946648415346L175.003686,129.78061856880984L175.224088,134.09144744630854L175.475976,106.68079905584709L176.06971199999998,93.83047433237768L176.105696,64.58278263808538L176.137182,114.18232355833803L176.555496,134.4922066386708L176.609472,156.36131198649312L176.699432,131.42640265353882L177.212204,132.02330687360978L177.230196,105.90544661160668L177.351642,122.09697400587918L177.360638,112.12056630013336L177.765458,106.54830689020032L178.080318,119.46153714484066L178.201764,135.49142120477748L178.23325,140.4306440594396L178.24674399999998,135.09372874935687L178.359194,95.09944051913247L178.970922,139.1850169765737L179.384738,116.05208663335776L179.416224,108.11444173523434L179.821044,132.8017708656845L179.861526,114.17773976036928L179.915502,94.9675640140209L180.00096399999998,63.32099198545417L180.07743,75.74569095381874L180.320322,100.0516954824164L180.37429799999998,107.15277616126193L180.486748,174.8104633309553L180.65317399999998,169.16453965826875L180.914058,147.35981183061813L181.12096599999998,130.09665871332592L181.20642800000002,83.11142725977378L181.23791400000002,79.976996705179L181.444822,80.10066403738251L181.678718,78.22970004966204L181.69221199999998,93.79807631473102L181.849642,109.01904328965439L182.434382,89.94292562372078L182.66827800000002,111.68531174071278L182.672776,116.37192841947049L182.767234,177.47538382802543L183.014624,207.00998385636797L183.40595,137.66993244545012L183.410448,155.45898784891114L183.58137200000002,146.61065203503438L183.73880200000002,90.80571445557877L183.779284,130.0956602562089L183.95470600000002,91.39459194262238L184.17510800000002,90.84080333698364L184.42249800000002,82.41762082093099L184.566434,66.44934011425919L184.993744,88.76431850471982L185.67744,83.61727374261415L185.897842,52.28178464589456L186.05977,30.342038144438646L186.33864599999998,83.57369137117493L186.684992,67.0427247726092L186.698486,84.576836194264L187.040334,49.549700641341985L187.134792,71.53105702162726L187.17077600000002,47.849880757740976L187.22925,39.73525731822869L187.23824599999998,71.5618785958076L187.26523400000002,72.97096650062895L187.70603799999998,39.32044382249654L187.715034,66.11660956218581L188.10636000000002,81.6323742506007L188.119854,83.8324815387097L188.2413,86.68895374907612L189.010458,88.89032925149857L189.041944,62.36492300068127L189.338812,73.81070716952006L189.361302,44.252213663812455L189.829094,25.473655448988183L189.90556,55.72673313371294L190.20692599999998,78.8787221537991L190.296886,96.63329309110702L190.778172,113.42475268130266L191.012068,130.22514580923865L191.07953799999999,126.4018727202146L191.147008,136.1382208272405L191.218976,107.86846461506825L191.27745,119.19877564446648L191.43488,145.18526134948303L191.520342,130.7020505074285L191.551828,80.00185474545718L192.599862,72.98561421645717L192.869742,55.5949968718425L193.004682,60.06110440629338L193.090144,33.85325019093156L193.490466,82.12735780152605L193.665888,91.46993360196078L193.68388000000002,107.00853591358148L193.724362,137.85891194689336L193.75135,152.43663305049898L193.8638,165.8919678184046L194.12018600000002,187.5255665792158L194.776894,169.2115035908529L195.298662,178.53492601074814L195.447096,170.95731741632613L195.93737800000002,118.05351665377285L195.964366,153.08650565875297L196.00484799999998,101.26738003653998L196.58509,65.18124826546598L196.738022,98.06334772355238L197.88951,105.4701490945126L197.97497199999998,122.87171839890374L198.168386,121.59439332935781L198.478748,162.8436805172592L199.445818,173.46765778307633L199.900116,179.37798924628527L200.14750600000002,142.2582838406871L200.214976,92.67855609710054L200.525338,62.00234996553364L200.67827,90.31293579733803L201.011122,97.15596852410464L201.08309,124.3083196081621L201.132568,50.07276586923574L201.28549999999998,60.609771827109284L201.64534,97.45174486867367L201.919718,105.81586572235048L201.924216,57.17827286223631L202.18509999999998,83.29141826478373L202.27506000000002,53.4530997641364L202.468474,18.338948645854146L202.49096400000002,2.7362945915476473L202.81482,33.579051089909484L203.449038,80.56797933872612L203.552492,88.991341442259L203.55698999999998,69.48834812710345L204.168718,78.25344898375441L204.600526,64.37028966084964L204.86590800000002,118.67490969188671L204.915386,102.65105981237134L206.192818,120.31906652353533L206.37723599999998,98.47055884449772L206.692096,109.35054089254517L206.81804,96.33368086317087L207.047438,111.36338889850367L207.483744,115.64698056041802L207.62318199999999,102.88964141312694L207.645672,123.22833390040809L207.722138,96.54972688924673L207.951536,89.31711346893503L208.12246,85.88638924582965L209.040052,57.07056659703724L209.36390799999998,41.700592725638444L209.836198,71.97457204044466L210.22752400000002,72.7404880263016L210.2815,41.5436249980049L210.425436,37.68943335328336L210.55138,31.102114324514645L210.94270600000002,57.335162172944706L210.987686,64.18509589218216L211.014674,92.60712764885814L211.032666,69.26267267417373L211.172104,101.23966697132086L211.1811,94.21459327229238L211.244072,106.18389976352404L211.27105999999998,129.2331632817201L211.599414,128.99621458501704L212.71042,148.32129515476603L213.106244,174.85875371808206L213.223192,107.33096773087388L213.628012,137.4192723249345L213.749458,159.78441431703172L214.06431800000001,138.16931877024632L214.370182,106.12774478992111L214.44215,106.05440975831276L214.739018,81.94284615006914L214.95492199999998,100.55941398241396L215.02689,77.02025258306242L215.157332,85.92915827720277L215.269782,73.49703271891325L215.355244,97.58239657703432L216.002956,74.86496990428708L216.03894000000003,94.8430133450868L216.326812,18.22753178731736L216.44825799999998,48.74053086479344L217.055488,98.1019552438616L217.086974,114.97991784792255L217.167938,127.90337642933517L217.631232,78.6795981241064L217.739184,92.16743678893657L217.784164,104.59055887717383L217.847136,116.62073957358828L218.126012,99.7366732141859L218.553322,58.92099089237051L218.85019,68.64447548048126L218.90866400000002,86.1068006197918L219.0526,100.87557139545223L219.13356399999998,95.26953982809141L219.178544,65.3599389853323L219.273002,89.3711052014699L219.763284,134.7543497790076L220.078144,102.19555198421529L220.518948,78.57455812349495L221.045214,64.68338770495443L221.216138,25.380864662732364L221.364572,92.17428940793522L221.441038,143.6464132315326L221.61646000000002,133.1825601981388L222.704976,128.06970120687663L222.77694400000001,155.06034600361122L223.424656,123.14363740733549L223.658552,129.17474590497142L223.856464,111.30845325352594L224.013894,108.56560619936721L224.14883400000002,66.56190013677448L224.256786,46.662896697923486L224.36473800000002,69.4175913557486L224.400722,107.85117658159362L224.4502,74.65327792642479L224.454698,107.76486606259235L224.72457799999998,63.57074555854072L224.846024,80.48003086599063L224.86401600000002,40.930079907169926L224.931486,48.29607231478889L225.04843400000001,86.45057269967201L225.09791199999998,129.23048663757203L225.14739,151.56418166164502L225.295824,176.526476308406L225.678154,149.92319697146726L225.916548,104.63129139774875L225.93454,83.07940723109242L225.99301400000002,118.80127003417746L226.352854,64.87730825595781L226.37084599999997,74.40304563434556L226.49229200000002,91.04075554420918L226.532774,116.39021910169252L226.9241,92.52298047735178L226.955586,102.98515866065046L227.15349799999998,151.6722803960545L227.391892,125.6686835245625L227.54932200000002,92.14744266836631L227.56731399999998,78.28354118264377L227.841692,121.82557885919927L228.277998,117.56736263035535L228.448922,68.33760931546159L228.65582999999998,43.05721063976594L228.660328,74.27200574615662L228.673822,103.41874561961241L228.92571,72.92178306456927L229.303542,79.02462185859441L229.411494,92.543835692551L229.631896,102.71999520743357L229.694868,83.71637856542979L230.36057200000002,97.50920334162109L230.495512,80.99265459827429L230.760894,83.09882724444405L230.99029199999998,47.288259850137194L231.91688000000002,86.74581833896755L231.957362,88.34898487550957L232.047322,101.65083179184944L232.18676,110.72492223382864L232.19575600000002,63.156870591737416L232.80298599999998,45.06216835999797L232.964914,51.502254372521534L233.162826,58.37311097814012L233.42820799999998,84.82395957563193L233.48218400000002,111.58649011506498L233.990458,70.35702310557558L234.156884,65.54138791066873L234.296322,67.81135715224752L234.45375199999998,111.27028044339298L235.128452,84.68390051566254L235.168934,129.50287808297003L235.29038,139.74062458236997L235.42532,99.01196691544231L235.578252,109.03574600906L235.780662,150.13034649637146L235.81664600000002,121.0278053922417L235.94259,103.64623366666994L236.450864,119.5757824097006L236.522832,79.84185247458439L236.626286,66.50397661598205L236.801708,79.48357333519452L236.878174,61.79283316461817L237.26500199999998,36.65336206228528L237.305484,22.963126323187794L237.458416,34.65841855637558L237.97568600000002,47.00069321780029L238.151108,44.89910846153225L238.385004,96.91678376545872L239.680428,100.29893012512404L239.774886,94.1948244606957L240.409104,51.40862655117678L240.60251799999998,72.28621046596739L240.840912,104.54124538123685L240.872398,66.76831491188862L240.962358,79.97761832391137L241.079306,145.56549056827743L241.484126,100.24030352279607L241.71802200000002,54.42979087113682L241.987902,121.40710727152066L242.019388,112.23616810078751L242.14983,76.16986588544994L242.38822399999998,46.9878250465006L242.406216,89.33863077240596L242.46469000000002,26.5942167932283L242.52766200000002,60.44032895394642L242.635614,53.36124250786588L242.68959,104.45406966001347L242.833526,112.13044625964406L242.865012,88.07624442201687L242.927984,92.40018565502707L243.436258,114.11800742314884L243.485736,56.28660402764092L243.512724,57.81187972788615L243.69714199999999,48.84970866429802L243.715134,85.44687013087088L243.778106,119.0759017556201L243.88155999999998,118.19504645219573L244.358348,113.28600989110868L244.551762,86.92217634194579L244.74967400000003,117.66311212455093L244.830638,139.23416453552852L244.90260600000002,106.72962978683246L245.037546,95.88039416241205L245.347908,109.10977376065722L245.910158,136.69029294495715L246.10357199999999,129.90645144700278L246.112568,144.2397106437273L246.278994,107.99131110690662L246.283492,89.27113404456207L246.328472,135.03182983104296L246.36445600000002,168.0509493535073L246.47690599999999,152.2718078118519L246.85023999999999,149.47242379411102L246.87273000000002,99.19107318791633L246.94019999999998,64.27890795347673L247.81281199999998,99.28295322950467L248.433536,110.89790578486608L249.387112,69.36795491504081L249.737956,103.04719320483223L249.980848,109.50596357589214L250.09329799999998,88.01746314473715L250.660046,84.87561848998115L251.02438400000003,98.39619773631858L251.24478599999998,54.15007582539435L251.298762,63.21121066443901L251.384224,93.24436734329105L251.64960599999998,66.80902446633841L252.17137400000001,69.73648298944025L252.526716,82.745205932005L252.715632,115.69307388758976L253.008002,110.18859177399239" style="fill: none;" fill="none"></path></g></g></g></g><g opacity="0.2"><g><g><g><path stroke="rgb(255, 112, 67)" stroke-width="2px" d="M28.301416,20.322720243380616L28.31491,65.75371244320503L28.431858000000002,125.02444684046966L28.535311999999998,-35.529462080735414L28.863666,-18.28297571952524L29.142542000000002,71.10139692746677L29.165032,-19.247531780829775L29.259490000000003,51.550664003078765L29.340454,8.608259714566742L29.497884,104.68698659309975L29.50688,99.20016354780931L29.542864,23.38539166633899L30.244552,21.835065915034363L30.523428000000003,33.97562560668359L30.716842,-6.117177128791809L30.748328,106.56984092639043L30.964232000000003,-46.659938307908874L31.022706000000003,89.16031614633708L31.130658,43.46025780531076L31.324071999999997,-52.112270896251374L31.360056,16.204559683799744L31.64343,-28.89167219858902L31.719896000000002,87.34360233637004L31.746884,46.23763228379764L31.872828000000002,47.57553739731128L32.480058,49.74303944294269L32.673472,69.36595886487228L32.907368,77.3284257558676L33.078292000000005,-60.37496707072626L33.420139999999996,51.28423536740817L33.784478,100.59686474616711L34.031867999999996,9.999239554772032L34.045362000000004,144.8204272022614L34.108334,9.951155800085814L34.126326,154.385604762114L34.34223,-58.40779371444995L34.373716,52.18256975137271L34.571628000000004,10.968340240992035L34.706568,-0.025594353675842285L34.962954,-11.006990652817933L35.093396,166.19010567206604L35.165364000000004,124.54289919596452L35.237332,44.38752359610339L35.718618,37.82411136993994L35.912031999999996,-8.813681629987855L35.925526,54.93296051942386L36.406812,52.97256352351263L36.505768,-34.00039868171396L36.555246000000004,79.70181554097397L36.735166,-28.569003829589235L36.811632,22.31127768296463L36.870106,105.77727051423146L37.270428,51.133532359049866L37.540307999999996,90.70305399711316L37.949626,53.62053776704349L38.003602,43.55910339722266L38.147538000000004,43.10549302284534L38.174526,120.59824592333574L38.286976,122.63216845805829L38.489386,97.68844681978227L38.858222000000005,103.81103042914317L39.069627999999994,53.11717998064482L39.146094000000005,109.33130921767308L39.155089999999994,-74.5775285867544L39.177580000000006,7.736949618046111L39.29003,35.28115026767438L39.294528,120.43196134383862L39.348504000000005,-32.21509147607361L39.370994,90.1550209247149L39.501436,197.27570528708972L39.568906,-104.6887930815036L40.18963,144.12250266166834L40.43702,151.6489087343216L41.458065999999995,46.201559323530944L41.777423999999996,62.231425248659576L41.790918000000005,4.6725739607444154L42.051801999999995,91.90470151717847L42.330678,63.4900428882012L42.641040000000004,142.83998516431222L42.704012000000006,37.12983876008255L42.713007999999995,145.0089276937338L42.717506,79.00048253169426L42.97839,33.88704599783972L43.76554,87.89743792093718L44.386264,129.35656996415213L44.39526,27.686432801760162L44.62016,-20.057367709966798L44.939518,-19.109651107054475L45.173414,88.51631844960727L45.267872,194.41575659696872L45.299358,94.00983670124641L45.780643999999995,-28.698282177631683L45.906588,81.06260608709776L46.032532,137.08340616868094L46.266428,196.78188309761194L46.545304,113.01363213245685L46.986108,15.660584312218901L47.125546,30.98079894139218L47.148036,44.624615054864165L47.530366,66.5105142226586L47.539362000000004,178.85396674963144L47.9037,46.08063983917236L48.317516,130.80350549862936L48.393981999999994,119.824848147539L48.48844,159.98831574274945L49.091172,84.3017874956131L49.109164,-12.310811079465424L49.145148,16.07418575653662L49.648923999999994,-25.60213472292972L49.711895999999996,29.283097496399535L49.882819999999995,75.94012399820181L49.936796,69.32416454645305L50.125712,31.72291184388675L50.472058,91.98934515622946L50.8274,98.62415262827507L50.836396,145.0348361134529L51.079288,62.65468402092273L51.205232,-20.914719315675597L51.677521999999996,48.845760061190674L52.154309999999995,87.29527511963478L52.217282,112.88342051322644L52.491659999999996,160.52801023996793L53.071902,49.13280181701367L53.656642000000005,86.13181056426123L53.854554,79.99936674191402L54.236883999999996,45.25396445164313L54.326844,-81.50666138759027L54.488772,32.4963096196835L54.520258,63.44881664789641L54.682185999999994,132.6970315850698L54.776644,22.97503638267517L55.055519999999994,191.78833445218893L55.14548,65.88226040510031L55.644758,167.22822784919006L55.689738,71.33223952696875L56.000099999999996,47.191719476993285L56.058574,-51.75669457362247L56.085561999999996,67.57464626202217L56.144036,92.60055663035466L56.400422,87.62196061244377L56.503876,84.74801285450275L56.791748,81.22600969901451L57.439460000000004,180.43819459126547L57.682352,12.812849301558288L57.812794,147.38588825555948L58.055686,24.562287211418152L58.231108,254.13500895408484L58.244602,166.57335551426962L58.298578,113.95388256586514L58.438016,80.84811602188991L58.941792,128.8743730875162L59.445568,22.57389207986685L59.562516,68.16593442513393L60.075288,114.2843822974425L60.111272,162.18700121916257L60.29569,90.99220575736119L60.709506000000005,61.13044928587401L60.997378,24.36337871734912L61.213282,77.74498932178204L61.316736,65.89390600644626L61.6226,59.00328078636757L61.66758,-44.62516365601465L61.681073999999995,42.05832217289853L61.748544,42.67135961239154L61.896978000000004,139.11099869012833L62.715614,140.28464807455356L63.01698,175.48552728157776L63.142924,-56.31276220541733L63.187903999999996,34.4059853553772L63.345334,43.13827924544995L64.056018,-6.081834554672241L64.39336800000001,130.21063483219882L64.90614,49.97473415961635L65.090558,14.00370333744931L65.598832,114.55632940622476L65.72927399999999,35.093562758885895L65.75176400000001,82.27431670519023L65.79224599999999,127.203127851853L66.19706599999999,129.04501969539203L66.21056,83.51447180601268L66.336504,204.84128846113498L66.381484,116.24384602216574L66.799798,-22.862780901101928L67.22261,-82.65397629371057L67.780362,34.352099088522095L68.045744,96.71624199243693L68.162692,102.92815588529294L68.176186,-11.289731245774476L68.270644,113.37574135340176L68.30213,242.2107450045072L68.563014,99.01626854676468L68.590002,86.04327153242552L68.84188999999999,159.07344622795398L69.76398,-34.92949043787439L70.015868,100.13860830435387L70.15980400000001,7.390137929182799L70.55113,91.33260627893301L70.699564,101.95337441792856L71.05490599999999,136.96191860620792L71.08639199999999,126.05577236872453L71.14486600000001,196.61324505164072L71.414746,123.14392568514899L71.54968600000001,117.50869223246208L71.65314,111.51556956768037L71.734104,245.07978294445917L72.386314,164.11751324855365L72.674186,87.45855700052702L73.35338399999999,84.62388778649844L73.470332,193.97644961797275L74.33394799999999,50.31002197815822L74.365434,-15.422256066248963L74.87370800000001,63.307649236459L74.887202,34.05044960975647L74.98166,72.15672375605658L75.24704200000001,110.14506082809889L75.440456,161.95859324015103L75.82278600000001,47.011476406684295L75.962224,155.40345872365512L76.03419199999999,13.44483620386859L76.11065799999999,144.69983233396823L76.290578,-63.08616044888129L76.49748600000001,105.25210258593927L76.501984,198.37434807190527L76.60094,218.47104464127466L76.75837,103.35232764024002L76.875318,56.82879949533023L76.9158,191.7616753578186L77.149696,61.76909081752484L77.16319,-1.1508353673494867L77.316122,28.18009268320526L77.334114,103.62275311121574L77.437568,106.70116841334564L77.464556,58.220996645780716L77.473552,178.77900072702994L77.68046,111.56170562597421L78.049296,104.86988745744412L78.134758,86.84819764357349L78.17524,57.16806386067317L78.481104,-22.272385432169983L78.4901,163.3766176563043L78.75998,2.6131690648886092L79.475162,100.30525807692455L79.71355600000001,47.05887035223154L79.803516,57.59079513183009L79.942954,70.83626675605774L79.983436,215.65096286168466L80.059902,48.93604390437787L80.13636799999999,210.61480835767892L80.505204,70.63605979772716L80.60865799999999,105.91064714009946L80.67163,90.39101680425497L81.00448200000001,208.1331388262602L81.517254,13.084268909234282L81.949062,58.80790249200969L81.971552,69.55330291161171L82.13347999999999,132.77585242344782L82.272918,130.5987133383751L82.709224,118.90523112278719L82.826172,-51.9683848252663L82.844164,149.1000639658708L82.91613199999999,63.83235052915721L83.105048,80.05933955999522L83.39292,106.06279063224794L83.406414,25.848456639509948L83.478382,152.4331608598049L83.91019,26.52820268044104L84.148584,115.27801178510373L85.106658,19.672757726449248L85.232602,79.90502519790942L85.70939,143.1034922553943L86.033246,61.177072268265945L86.312122,68.86000414995047L86.662966,152.40842917332282L86.739432,-17.825591683387756L86.86087799999999,136.79888018736472L86.95533599999999,142.40301136328623L87.009312,150.89218810888437L87.07678200000001,53.41753099514888L87.333168,62.546870910204376L87.66152199999999,178.41206284211233L88.156302,107.44567535932248L88.394696,86.60725136903616L88.412688,-5.801812621263366L89.04240800000001,-33.04338994392981L89.271806,129.0795913063563L89.37526,36.61122401861044L89.640642,-22.698078824923584L89.654136,114.54573880709134L90.07694799999999,43.19971283582541L90.22988000000001,26.42708477607141L90.38730999999999,17.156780334619384L90.562732,62.71696972846985L90.97654800000001,197.22390873615558L91.075504,55.21237379771014L91.44434,83.52429144199078L92.078558,149.426566862143L92.375426,53.21545749444229L92.406912,93.8491517488773L92.44739399999999,60.27321941118976L92.52386000000001,63.73058339265677L92.604824,83.8058147247021L92.870206,169.3930112352738L93.095106,65.63015545331515L93.306512,149.86130892771942L93.58988599999999,114.13680371871362L93.92723600000001,107.11186860157893L93.954224,164.9144862660995L94.089164,0.8723342602069692L94.12964600000001,65.45539027910968L94.174626,31.639972439179076L94.588442,126.23307360594089L94.62892400000001,57.78085783811717L94.646916,67.80686847980206L94.723382,23.79749176135431L95.011254,-118.94337432201092L95.096716,117.0957805972833L95.703946,-13.06160746170923L95.98732000000001,-102.22718888062695L96.194228,75.5976946262213L96.39214000000001,105.15731469484476L96.778968,97.10744492824261L97.039852,209.14253248159702L97.71905000000001,180.63111797662881L97.86298599999999,101.06899852477588L98.00242399999999,137.72068837055792L98.267806,102.13341460319666L98.91102,73.87893371398633L99.01897199999999,-33.2321947629635L99.059454,178.8293567941739L99.306844,82.74695769640117L99.986042,140.73095458745956L100.049014,122.73144010855601L100.50781,39.080700159072876L100.602268,70.2881931066513L101.20050200000001,22.08717086681952L101.524358,115.0958210184024L101.623314,93.9928349348215L101.69978,61.591120059673614L101.906688,73.56685594411998L102.05962,122.72419711259695L102.35199,-44.856168563549346L102.71183,113.07691197670422L103.053678,-2.2120864391326904L103.215606,-80.89958876829883L103.714884,165.3722152068065L103.719382,114.651523067401L103.87231399999999,18.96201085127319L103.93528599999999,13.404624388768127L104.124202,156.57227944410764L104.875368,48.78039050102234L105.014806,111.22321222378658L105.167738,141.67749445713483L105.653522,141.84939895226404L105.801956,34.20074684803302L105.88292,97.62334101016705L105.891916,118.26754315082843L105.999868,8.206385025611297L106.004366,143.72111489681097L106.01786,105.91573955462529L106.10332199999999,178.31806620267722L106.260752,84.79658353328705L106.40019,-21.92589835937204L106.57561199999999,103.61441453603598L106.620592,147.0769754923307L107.020914,28.80773784564093L107.08388599999999,177.54274101899222L107.214328,143.0764273909422L107.25031200000001,21.811815289350648L107.380754,-1.716600592319793L107.826056,144.6845753788948L108.865094,101.36121384914105L108.99103799999999,138.78382627322122L109.03152,87.32639768490425L109.157464,118.52788523527292L109.31489400000001,-44.29811297013208L109.36887,216.01323439066226L109.65674200000001,34.815813137934754L110.26397200000001,122.07646633111514L110.506864,172.4573868925755L111.105098,115.2357305425864L111.10959600000001,76.32410422655254L111.739316,103.99551379680635L112.283574,156.03177340672568L112.31506,75.6612382210218L112.87731,66.20281876967505L113.38558400000001,48.47723967295428L113.471046,72.68738986895636L113.59699,106.42358110042719L113.695946,117.24914139967699L113.79040400000001,246.51397729836975L114.096268,88.53194059775426L114.33466200000001,141.24914327034583L114.595546,103.66501406522897L114.79345799999999,-26.44082090487848L115.75603000000001,52.5286510540889L115.836994,91.07254823354575L115.93594999999999,201.40810837653967L115.962938,124.64002026502902L116.45322,75.72961047979503L116.516192,14.294031830934387L116.56567,37.168792687929596L116.81306000000001,-15.854644665351259L116.862538,105.05136812650241L116.889526,81.19837675644801L117.15490799999999,128.27521298481867L117.276354,72.23244045330928L117.37980800000001,133.72367046888058L117.694668,37.65786736745102L117.793624,144.2454712849397L117.942058,128.92024539525693L118.05001,133.03160930596866L118.22993,79.3514736523995L118.310894,157.81438224132245L118.337882,29.20291732824768L118.35137599999999,80.8375254227565L118.693224,135.08480591957385L118.697722,163.57576961242236L118.90912800000001,29.722505917915953L119.04856600000001,90.98007323191716L119.170012,150.70204424858093L119.183506,145.8762815319575L119.205996,118.50368104989712L119.525354,122.96350001830322L119.574832,230.56948539843927L119.79523400000001,105.97686881743945L120.05162,167.91456765394946L120.25402999999999,59.55419482634619L120.43844800000001,17.674015457813567L120.496922,-5.86722275843988L120.50142000000001,93.27328284887167L120.600376,167.0915036201477L120.67234400000001,131.64799419274698L121.171622,139.88735858752176L121.26608,148.9470074910384L121.576442,126.15942633610506L121.58993600000001,174.45799570358716L121.594434,73.97489833831787L121.810338,112.40901442215993L121.91829,153.8776617737917L122.512026,118.32394519219032L122.87186600000001,66.06469463385069L122.93034,149.1862495312324L123.21821200000001,20.905811850841246L123.510582,71.3046471614104L123.614036,99.18267485728632L123.991868,-26.00831057475162L124.005362,121.38032717888171L124.02785200000001,102.96477663517L124.329218,37.229293007117064L124.41018199999999,19.059152208841766L124.747532,63.78398273541377L124.92295399999999,-21.39937110130603L125.633638,1.0205620710666494L125.82255400000001,110.68877244912662L125.827052,105.94333192018362L126.119422,143.73065049373187L126.14641,249.39482314770038L126.263358,12.919079908957855L126.357816,56.01376970914694L126.384804,54.89948448768031L127.095488,157.1175127029419L128.17051,177.1708933160855L128.228984,-22.032250697796172L128.38191600000002,46.312943210968626L128.489868,168.2624546335294L128.55284,22.301863817068238L128.678784,46.72484042094305L129.191556,15.171266170648437L129.348986,19.33353393811447L129.515412,14.919242372879637L129.92473,98.72516909012428L130.50947,179.0800009736648L130.84682,-23.153231125611512L131.25164,40.336842601115904L131.265134,116.55492965533183L131.92633999999998,122.32922051503108L131.944332,94.82884303423076L132.137746,61.59720661089972L132.18722400000001,132.9292335143456L132.232204,157.99036472577316L132.385136,181.86756028120334L132.430116,184.4420902958283L132.547064,30.781444100233216L132.749474,-0.8295060396194458L132.852928,0.2358027329811705L133.082326,91.07242650252122L133.190278,116.28089283062862L133.27574,100.71106873567288L133.487146,-38.10403267236856L134.215822,210.1154271180813L134.58016,143.9739299462392L134.629638,97.64468451646658L134.719598,102.81662997832666L135.04795199999998,114.47229442229639L135.304338,115.71190173350848L135.78562399999998,105.88258813894713L136.419842,95.67669962002681L136.595264,140.05435326466193L136.725706,125.06409057745567L137.117032,103.05542567143074L137.332936,152.10182929955997L137.34193199999999,214.87204661277624L137.512856,-23.85647125427539L137.61631,99.69374227523805L137.935668,119.07222579992734L138.569886,74.94237594421094L138.857758,130.7464542251367L139.298562,39.944625240105864L139.33454600000002,120.3375183573136L140.01824200000001,164.81811587168622L140.117198,63.79299083122841L140.265632,109.37379334523128L140.598484,25.35000867110034L140.77390599999998,95.01931151059958L141.16073400000002,73.93557921739726L141.48908799999998,73.0942555299172L141.601538,93.03513638789838L141.660012,142.44111317396164L141.70049400000002,63.820055695680495L142.055836,104.5838398383214L142.32121800000002,71.29283925203177L142.83399,155.58615670295862L142.90146,150.6533721272762L143.25680200000002,106.80770334830652L143.64812799999999,76.89331849721762L144.04845,152.43537230675037L144.214876,33.879539251327515L144.372306,67.15836673516495L144.70515799999998,101.46689666693027L145.26290999999998,62.305559442593506L145.35736799999998,94.69502006127284L145.39785,168.08460560670267L145.469818,77.54108985570761L145.753192,65.9394334096175L145.75769000000003,163.42435650642102L145.82066200000003,-20.56758301074686L146.373916,125.78272968072159L146.423394,29.37098729610443L146.873194,60.47955349775462L147.17455999999999,36.198474691464355L148.07415999999998,192.4383375461285L148.645406,134.98740081145212L148.649904,178.75274740274136L148.780346,65.58345131690686L148.78934199999998,115.68477600354416L149.234644,29.630233801328217L149.909344,-43.48219048976898L150.197216,178.80795242236212L150.224204,143.20828237900366L150.251192,-33.75693663266989L150.273682,193.5555037351755L150.790952,98.06664482446818L151.038342,115.34139307187155L151.578102,63.81125048490672L151.82999,52.36545032721301L152.270794,39.791649919289824L152.31577399999998,119.89508694868822L152.34725999999998,140.3064785049512L152.428224,82.36752209296593L152.68461000000002,37.60211455821991L152.882522,20.142436596063476L153.26935,42.1351750263801L153.67866800000002,144.1958050269347L153.68766399999998,83.15593336178706L153.8316,49.971893769044144L153.912564,94.99873896745535L155.185498,31.369323794658385L155.302446,45.8666772750708L155.50035799999998,158.64505446415683L155.74774799999997,-7.026102111889742L156.026624,93.48533829358908L156.08509800000002,179.20493758183258L156.49891399999998,-17.1116798015741L156.629356,108.098701440371L156.80477800000003,176.59587653325156L158.06421799999998,192.62984073620575L158.41956000000002,53.99899952228253L158.536508,86.44616064658531L158.635464,132.98837450375925L158.720926,51.683310242799635L158.83337600000002,80.83318368288188L158.90534399999999,67.40974130080298L158.95932000000002,229.91043363167688L159.15273399999998,34.67042571764728L159.45859800000002,136.7428636275805L159.73747400000002,82.20992099321806L160.67305800000003,33.737803761775695L160.704544,138.2524500626784L160.745026,130.14281036303595L160.969926,198.79703876605402L160.98342000000002,101.85057256771968L161.077878,105.40089847491338L161.21731599999998,189.4061597448129L161.302778,16.857037975237915L161.91450600000002,-33.31103588984561L162.278844,106.0251960341747L162.283342,170.55966108578903L162.436274,105.06370353698732L163.05249999999998,169.0082600437678L163.07499,77.88907827780798L163.191938,10.280884568507872L163.398846,150.59469777345657L163.466316,40.52593145920682L163.835152,134.0078312571232L164.02856599999998,32.83886072268854L164.145514,129.2588199514609L164.32993199999999,3.1857106502239674L164.523346,157.57903559391315L165.11708199999998,99.1994128731581L165.14856799999998,139.56927542044565L165.16656,49.67284121880165L165.625356,-75.01149968917551L165.805276,80.02172467341789L166.228088,61.80889686254355L166.29106000000002,70.5858660386159L166.372024,41.70343565940857L166.56094,192.6912946150853L167.78439600000002,40.609641827069794L168.02279,-30.981996774673462L168.558052,8.250695118537323L169.376688,175.6794245151373L169.54311399999997,83.13747082306789L169.965926,106.77049423181094L170.681108,32.83808975953323L170.798056,102.28728261819253L170.97797599999998,95.16948701785161L171.184884,55.18701316760138L171.477254,131.5610985297423L171.50874,97.64821471617772L171.544724,36.35368174772998L171.760628,111.04499800388629L171.80111,145.7002584704986L172.066492,86.25350101177509L172.124966,104.74290171036354L172.777176,86.6409302858206L172.831152,96.46571954397055L172.97958599999998,146.40773889651666L173.168502,94.26981359261734L173.460872,192.32141489707507L173.793724,46.9963006056272L174.00512999999998,-2.8185909803096934L174.29749999999999,113.16711466587506L174.427942,43.75646996498108L174.486416,159.28308734068503L174.796778,-28.220974830480714L174.81027200000003,75.1854322231733L175.003686,233.50062644940158L175.224088,140.55769076255652L175.475976,65.56482647015498L176.06971199999998,74.55498724717361L176.105696,20.71124509664682L176.137182,188.5816349387169L176.555496,164.95703125916995L176.609472,189.16497000822653L176.699432,94.02403865410731L177.212204,132.91866320371628L177.230196,66.72865621860211L177.351642,146.384265097288L177.360638,97.15595474151465L177.765458,98.18991777530084L178.080318,138.83138252680118L178.201764,159.53624729468274L178.23325,147.8394783414327L178.24674399999998,127.0883557842328L178.359194,35.10800817379584L178.970922,205.31338166273557L179.384738,81.35269111853381L179.416224,96.2079743880492L179.821044,169.8327645613597L179.861526,86.24169310239645L179.915502,66.1523003944984L180.00096399999998,15.851133942604065L180.07743,94.38273940636562L180.320322,136.51070227531287L180.37429799999998,117.80439717953021L180.486748,276.29699408549527L180.65317399999998,160.6956541492389L180.914058,114.65272008914215L181.12096599999998,104.20192903738756L181.20642800000002,12.633580079445494L181.23791400000002,75.27535087328692L181.444822,80.28616503568797L181.678718,75.4232540680812L181.69221199999998,117.15064071233456L181.849642,131.8504937520394L182.434382,61.32874912482043L182.66827800000002,144.29889091620078L182.672776,123.40185343760712L182.767234,269.1305669408578L183.014624,251.31188389888177L183.40595,33.659855329073395L183.410448,182.14257095410275L183.58137200000002,133.33814831421927L183.73880200000002,7.098308086395264L183.779284,189.0305789571542L183.95470600000002,33.34298947224249L184.17510800000002,90.0101204285255L184.42249800000002,69.78284704685211L184.566434,42.496919054251464L184.993744,122.23678609041067L185.67744,75.89670659945563L185.897842,5.278551000815185L186.05977,-2.5675816077452396L186.33864599999998,163.42117121127936L186.684992,42.24627487476056L186.698486,110.87800332674614L187.040334,-2.9910026880410783L187.134792,104.5030915920551L187.17077600000002,12.328116361911498L187.22925,27.563322158960204L187.23824599999998,119.30181051217593L187.26523400000002,75.08459835786087L187.70603799999998,-11.155340194702148L187.715034,106.31085817171977L188.10636000000002,104.90602128322308L188.119854,87.13264247087332L188.2413,90.97366206462567L189.010458,92.19239250513225L189.041944,22.576813624455383L189.338812,90.9793834227782L189.361302,-0.08552659474884194L189.829094,-2.6941818732481693L189.90556,101.10634966080005L190.20692599999998,113.60670568392828L190.296886,123.26514949706885L190.778172,138.6119420665961L191.012068,155.42573550114264L191.07953799999999,120.66696308667844L191.147008,150.74274298777948L191.218976,65.46383029680987L191.27745,136.19424218856372L191.43488,184.16498990700796L191.520342,108.97723424434663L191.551828,3.951561102500335L192.599862,62.46125342295721L192.869742,29.509070854920623L193.004682,66.76026570796967L193.090144,-5.458531132111148L193.490466,154.5385192174178L193.665888,105.4837973026129L193.68388000000002,130.31643938101254L193.724362,184.13447599686108L193.75135,174.30321470590738L193.8638,186.07496997026297L194.12018600000002,219.9759647204326L194.776894,141.74040910830865L195.298662,192.52005964059097L195.447096,159.59090452469312L195.93737800000002,38.69781550994287L195.964366,205.63598916622308L196.00484799999998,23.53869160322043L196.58509,11.05205060885504L196.738022,147.3864969106821L197.88951,116.58035115095285L197.97497199999998,148.97407235549048L198.168386,119.67840572503897L198.478748,224.7176112991113L199.900116,188.24348644109872L200.14750600000002,86.57872573228984L200.214976,18.30896448172058L200.525338,15.988040768183197L200.67827,132.77881454504453L201.011122,107.42051761425459L201.08309,165.03684623424823L201.132568,-61.28056473915393L201.28549999999998,76.41528076391955L201.64534,152.7147044310203L201.919718,118.36204700286572L201.924216,-15.778116427935089L202.18509999999998,122.46113636860481L202.27506000000002,8.695622013165405L202.468474,-34.332278031569246L202.49096400000002,-20.66768648991217L202.81482,79.84318583745224L203.449038,151.05137171195105L203.552492,101.62638459755824L203.55698999999998,40.23385815437024L204.168718,91.40110026873076L204.600526,43.54555067649255L204.86590800000002,200.13183973844235L204.915386,78.61528499309833L206.192818,146.82107659028128L206.37723599999998,65.69779732594124L206.692096,125.67051396461633L206.81804,76.8083908191094L207.047438,133.90795095150287L207.483744,122.07236805328957L207.62318199999999,83.75363269219032L207.645672,153.73637263132977L207.722138,56.53181637250461L207.951536,78.46819333846753L208.12246,80.74030291117155L209.040052,13.84683262384857L209.36390799999998,18.645631918540374L209.836198,117.38554101265393L210.22752400000002,73.88936200508705L210.2815,-5.251669544440034L210.425436,31.90814588620114L210.55138,21.22113578136151L210.94270600000002,96.6847339455898L210.987686,74.45999647103824L211.014674,135.24017528387216L211.032666,34.24599021214706L211.172104,149.2051584170415L211.1811,83.6769827237496L211.244072,124.13785950037149L211.27105999999998,163.80705855901425L211.599414,128.6407915399625L212.71042,177.30891600938943L213.106244,214.66494156305606L213.223192,6.039288750061644L213.628012,182.55172921602542L213.749458,193.33212730517755L214.06431800000001,105.74667545006825L214.370182,58.065383819433364L214.44215,105.94440721090024L214.739018,45.775500737703766L214.95492199999998,128.4842657309312L215.02689,41.711510484035216L215.157332,99.29251681841338L215.269782,54.84884438147914L215.355244,133.71044236421585L216.002956,40.78882989516626L216.03894000000003,124.81007850628633L216.326812,-96.69569054933692L216.44825799999998,94.5100294810075L217.055488,172.1440918124639L217.086974,140.29686175401395L217.167938,147.2885643014541L217.631232,4.843930666263304L217.739184,112.39919478618182L217.784164,123.2252420095297L217.847136,134.66601061820984L218.126012,74.41057367508228L218.553322,-2.3025325903525697L218.85019,83.22970236264743L218.90866400000002,112.30028832875766L219.0526,123.02872755894295L219.13356399999998,86.8604924770502L219.178544,20.495537721193756L219.273002,125.38785452567615L219.763284,202.82921664531415L220.078144,53.357355292026824L220.518948,43.14306733241449L221.045214,43.84663207714374L221.216138,-33.57291990060074L221.441038,220.85459896692862L221.61646000000002,117.48678064804811L222.704976,120.40041271998332L222.77694400000001,195.54631319871316L223.424656,75.26857451292186L223.658552,138.2214086514253L223.856464,84.5090142763578L224.013894,104.45133561812915L224.14883400000002,3.5563410428854354L224.256786,16.814391539647033L224.36473800000002,103.54963334248616L224.400722,165.50155442036115L224.4502,24.8564299436716L224.454698,157.43224826684366L224.72457799999998,-2.720435197536773L224.846024,105.84395882716547L224.86401600000002,-18.394846531061035L224.931486,59.3450609262173L225.04843400000001,143.6823232769966L225.09791199999998,193.40035754442215L225.295824,213.96991827854742L225.678154,110.01827796605917L225.916548,36.69343303717102L225.93454,50.751580981107864L225.99301400000002,172.38406423880505L226.352854,-16.008634411371673L226.37084599999997,88.6916517019272L226.49229200000002,115.99732040900452L226.532774,154.41441443791757L226.9241,56.72212254084074L226.955586,118.67842593559853L227.15349799999998,224.7029629991605L227.391892,86.66328821732448L227.54932200000002,41.86558138407196L227.56731399999998,57.487688954059905L227.841692,187.13863537403253L228.277998,111.18003828708942L228.448922,-5.507020656879121L228.65582999999998,5.1366126262224725L228.660328,121.09419840574265L228.673822,147.13885542979608L228.92571,27.176339232004608L229.303542,88.17888004963214L229.411494,112.82265644348585L229.631896,117.98423447975746L229.694868,55.21095360242404L230.36057200000002,118.19844050590808L230.495512,56.21783148325407L230.760894,86.25808621369876L230.99029199999998,-6.427591241323029L231.91688000000002,145.9321560722131L231.957362,90.75373468032251L232.047322,121.60360216635925L232.18676,124.33605789679748L232.19575600000002,-8.195206871399478L232.80298599999998,17.920115012388976L232.964914,61.162383391306946L233.162826,68.67939588656792L233.42820799999998,124.50023247186954L233.48218400000002,151.7302859242146L233.990458,8.512822591341461L234.156884,58.31793511830844L234.296322,71.21631101461558L234.45375199999998,176.4586653801111L235.128452,44.804330624066864L235.168934,196.7313444339312L235.29038,155.0972443314699L235.42532,37.91898041505081L235.578252,124.07141464948654L235.780662,211.77224722733865L235.81664600000002,77.37399373604701L235.94259,77.57387607831222L236.450864,143.47010552424652L236.522832,20.240957571909973L236.626286,46.49716282807864L236.801708,98.95296841401321L236.878174,35.25672290875363L237.26500199999998,-1.0558445912140826L237.305484,2.4277727145415042L237.458416,52.20135690615729L237.97568600000002,65.51410520993747L238.151108,41.74673132713025L238.385004,174.9432967213484L239.680428,105.37214966462209L239.774886,85.03866596405322L240.409104,-12.770670313101533L240.60251799999998,103.60258633815326L240.840912,152.923797754141L240.872398,10.108919207866393L240.962358,99.79157344194559L241.079306,243.9472989348265L241.484126,32.252522954574005L241.71802200000002,-14.28597810635199L241.987902,221.87308187209644L242.019388,98.47975934468784L242.14983,22.070412562443664L242.38822399999998,3.2147637880765387L242.406216,152.86483936126416L242.46469000000002,-67.52240417553827L242.52766200000002,111.20949719502376L242.635614,42.74261283874512L242.68959,181.09331038823495L242.833526,123.6450111590899L242.865012,51.99494166557605L242.927984,98.88609750454242L243.436258,146.69474007533148L243.485736,-30.460501065620974L243.512724,60.099793278254L243.69714199999999,35.40645206891574L243.715134,140.34261233073016L243.778106,169.51944919274405L243.88155999999998,116.87376349705917L244.358348,105.92245504947809L244.551762,47.376426018201386L244.74967400000003,163.77451579845868L244.830638,171.59074315199484L244.90260600000002,57.972827663788436L245.037546,79.60654072578137L245.347908,128.953843158025L245.910158,178.06107172140707L246.10357199999999,119.7306892000712L246.112568,165.73959943881403L246.278994,53.61871180167567L246.283492,61.190868451045105L246.328472,203.6728735107642L246.36445600000002,217.5796286372038L246.47690599999999,128.6030954993688L246.85023999999999,145.27334776749979L246.87273000000002,23.769047278624328L246.94019999999998,11.9106601018172L247.81281199999998,151.78902114354648L248.433536,128.3203346179082L249.387112,7.073028610302856L249.737956,153.56605063951932L249.980848,119.19411913248209L250.09329799999998,55.78471249800464L250.660046,80.16285150784714L251.02438400000003,118.67706660582469L251.24478599999998,-12.219107040992128L251.298762,76.8029129230059L251.384224,138.29410236156903L251.64960599999998,27.156010150909424L252.17137400000001,74.12767077409305L252.526716,102.2582903458522L252.715632,165.11487582096686L253.008002,101.93186860359633" style="fill: none;" fill="none"></path></g></g></g></g></g></g><g transform="translate(48, 177)" clip-path="url(#clip_1)"><clipPath id="clip_1"><rect width="281" height="23"></rect></clipPath><g><g><line x1="0" y1="0" x2="0" y2="5" style="visibility: inherit;" fill="rgb(0, 0, 0)" stroke="rgb(204, 204, 204)" stroke-width="1px"></line><line x1="28.1125" y1="0" x2="28.1125" y2="5" style="visibility: inherit;" fill="rgb(0, 0, 0)" stroke="rgb(204, 204, 204)" stroke-width="1px"></line><line x1="56.225" y1="0" x2="56.225" y2="5" style="visibility: inherit;" fill="rgb(0, 0, 0)" stroke="rgb(204, 204, 204)" stroke-width="1px"></line><line x1="84.33749999999999" y1="0" x2="84.33749999999999" y2="5" style="visibility: inherit;" fill="rgb(0, 0, 0)" stroke="rgb(204, 204, 204)" stroke-width="1px"></line><line x1="112.45" y1="0" x2="112.45" y2="5" style="visibility: inherit;" fill="rgb(0, 0, 0)" stroke="rgb(204, 204, 204)" stroke-width="1px"></line><line x1="140.5625" y1="0" x2="140.5625" y2="5" style="visibility: inherit;" fill="rgb(0, 0, 0)" stroke="rgb(204, 204, 204)" stroke-width="1px"></line><line x1="168.67499999999998" y1="0" x2="168.67499999999998" y2="5" style="visibility: inherit;" fill="rgb(0, 0, 0)" stroke="rgb(204, 204, 204)" stroke-width="1px"></line><line x1="196.7875" y1="0" x2="196.7875" y2="5" style="visibility: inherit;" fill="rgb(0, 0, 0)" stroke="rgb(204, 204, 204)" stroke-width="1px"></line><line x1="224.9" y1="0" x2="224.9" y2="5" style="visibility: inherit;" fill="rgb(0, 0, 0)" stroke="rgb(204, 204, 204)" stroke-width="1px"></line><line x1="253.01250000000002" y1="0" x2="253.01250000000002" y2="5" style="visibility: inherit;" fill="rgb(0, 0, 0)" stroke="rgb(204, 204, 204)" stroke-width="1px"></line><line x1="281.125" y1="0" x2="281.125" y2="5" style="visibility: inherit;" fill="rgb(0, 0, 0)" stroke="rgb(204, 204, 204)" stroke-width="1px"></line></g><g transform="translate(0, 8)"><text x="0" y="0" dx="0em" dy="0.95em" style="text-anchor: middle; visibility: hidden; font-family: &quot;Helvetica Neue&quot;, sans-serif; font-size: 12px; font-weight: 200;" fill="rgb(50, 49, 63)" stroke="none" stroke-width="1px">-50k</text><text x="28.1125" y="0" dx="0em" dy="0.95em" style="text-anchor: middle; visibility: inherit; font-family: &quot;Helvetica Neue&quot;, sans-serif; font-size: 12px; font-weight: 200;" fill="rgb(50, 49, 63)" stroke="none" stroke-width="1px">0</text><text x="56.225" y="0" dx="0em" dy="0.95em" style="text-anchor: middle; visibility: hidden; font-family: &quot;Helvetica Neue&quot;, sans-serif; font-size: 12px; font-weight: 200;" fill="rgb(50, 49, 63)" stroke="none" stroke-width="1px">50k</text><text x="84.33749999999999" y="0" dx="0em" dy="0.95em" style="text-anchor: middle; visibility: inherit; font-family: &quot;Helvetica Neue&quot;, sans-serif; font-size: 12px; font-weight: 200;" fill="rgb(50, 49, 63)" stroke="none" stroke-width="1px">100k</text><text x="112.45" y="0" dx="0em" dy="0.95em" style="text-anchor: middle; visibility: hidden; font-family: &quot;Helvetica Neue&quot;, sans-serif; font-size: 12px; font-weight: 200;" fill="rgb(50, 49, 63)" stroke="none" stroke-width="1px">150k</text><text x="140.5625" y="0" dx="0em" dy="0.95em" style="text-anchor: middle; visibility: inherit; font-family: &quot;Helvetica Neue&quot;, sans-serif; font-size: 12px; font-weight: 200;" fill="rgb(50, 49, 63)" stroke="none" stroke-width="1px">200k</text><text x="168.67499999999998" y="0" dx="0em" dy="0.95em" style="text-anchor: middle; visibility: hidden; font-family: &quot;Helvetica Neue&quot;, sans-serif; font-size: 12px; font-weight: 200;" fill="rgb(50, 49, 63)" stroke="none" stroke-width="1px">250k</text><text x="196.7875" y="0" dx="0em" dy="0.95em" style="text-anchor: middle; visibility: inherit; font-family: &quot;Helvetica Neue&quot;, sans-serif; font-size: 12px; font-weight: 200;" fill="rgb(50, 49, 63)" stroke="none" stroke-width="1px">300k</text><text x="224.9" y="0" dx="0em" dy="0.95em" style="text-anchor: middle; visibility: hidden; font-family: &quot;Helvetica Neue&quot;, sans-serif; font-size: 12px; font-weight: 200;" fill="rgb(50, 49, 63)" stroke="none" stroke-width="1px">350k</text><text x="253.01250000000002" y="0" dx="0em" dy="0.95em" style="text-anchor: middle; visibility: inherit; font-family: &quot;Helvetica Neue&quot;, sans-serif; font-size: 12px; font-weight: 200;" fill="rgb(50, 49, 63)" stroke="none" stroke-width="1px">400k</text><text x="281.125" y="0" dx="0em" dy="0.95em" style="text-anchor: middle; visibility: hidden; font-family: &quot;Helvetica Neue&quot;, sans-serif; font-size: 12px; font-weight: 200;" fill="rgb(50, 49, 63)" stroke="none" stroke-width="1px">450k</text></g><line x1="0" y1="0" x2="281.125" y2="0" fill="rgb(0, 0, 0)" stroke="rgb(204, 204, 204)" stroke-width="1px"></line></g></g></g></g></svg>