<svg viewBox="0 0 330 200" xmlns="http://www.w3.org/2000/svg"><g><g><g><g><g><line x1="48.875" y1="177" x2="43.875" y2="177" style="visibility: inherit;" fill="rgb(0, 0, 0)" stroke="rgb(204, 204, 204)" stroke-width="1px"></line><line x1="48.875" y1="154.87500000000009" x2="43.875" y2="154.87500000000009" style="visibility: inherit;" fill="rgb(0, 0, 0)" stroke="rgb(204, 204, 204)" stroke-width="1px"></line><line x1="48.875" y1="132.75000000000014" x2="43.875" y2="132.75000000000014" style="visibility: inherit;" fill="rgb(0, 0, 0)" stroke="rgb(204, 204, 204)" stroke-width="1px"></line><line x1="48.875" y1="110.62500000000003" x2="43.875" y2="110.62500000000003" style="visibility: inherit;" fill="rgb(0, 0, 0)" stroke="rgb(204, 204, 204)" stroke-width="1px"></line><line x1="48.875" y1="88.5000000000001" x2="43.875" y2="88.5000000000001" style="visibility: inherit;" fill="rgb(0, 0, 0)" stroke="rgb(204, 204, 204)" stroke-width="1px"></line><line x1="48.875" y1="66.37499999999999" x2="43.875" y2="66.37499999999999" style="visibility: inherit;" fill="rgb(0, 0, 0)" stroke="rgb(204, 204, 204)" stroke-width="1px"></line><line x1="48.875" y1="44.25000000000006" x2="43.875" y2="44.25000000000006" style="visibility: inherit;" fill="rgb(0, 0, 0)" stroke="rgb(204, 204, 204)" stroke-width="1px"></line><line x1="48.875" y1="22.125000000000114" x2="43.875" y2="22.125000000000114" style="visibility: inherit;" fill="rgb(0, 0, 0)" stroke="rgb(204, 204, 204)" stroke-width="1px"></line><line x1="48.875" y1="0" x2="43.875" y2="0" style="visibility: inherit;" fill="rgb(0, 0, 0)" stroke="rgb(204, 204, 204)" stroke-width="1px"></line></g><g transform="translate(38.875, 0)"><text x="0" y="177" dx="0em" dy="0.3em" style="text-anchor: end; visibility: hidden; font-family: &quot;Helvetica Neue&quot;, sans-serif; font-size: 12px; font-weight: 200;" fill="rgb(50, 49, 63)" stroke="none" stroke-width="1px">9.8</text><text x="0" y="154.87500000000009" dx="0em" dy="0.3em" style="text-anchor: end; visibility: inherit; font-family: &quot;Helvetica Neue&quot;, sans-serif; font-size: 12px; font-weight: 200;" fill="rgb(50, 49, 63)" stroke="none" stroke-width="1px">10</text><text x="0" y="132.75000000000014" dx="0em" dy="0.3em" style="text-anchor: end; visibility: hidden; font-family: &quot;Helvetica Neue&quot;, sans-serif; font-size: 12px; font-weight: 200;" fill="rgb(50, 49, 63)" stroke="none" stroke-width="1px">10.2</text><text x="0" y="110.62500000000003" dx="0em" dy="0.3em" style="text-anchor: end; visibility: inherit; font-family: &quot;Helvetica Neue&quot;, sans-serif; font-size: 12px; font-weight: 200;" fill="rgb(50, 49, 63)" stroke="none" stroke-width="1px">10.4</text><text x="0" y="88.5000000000001" dx="0em" dy="0.3em" style="text-anchor: end; visibility: hidden; font-family: &quot;Helvetica Neue&quot;, sans-serif; font-size: 12px; font-weight: 200;" fill="rgb(50, 49, 63)" stroke="none" stroke-width="1px">10.6</text><text x="0" y="66.37499999999999" dx="0em" dy="0.3em" style="text-anchor: end; visibility: inherit; font-family: &quot;Helvetica Neue&quot;, sans-serif; font-size: 12px; font-weight: 200;" fill="rgb(50, 49, 63)" stroke="none" stroke-width="1px">10.8</text><text x="0" y="44.25000000000006" dx="0em" dy="0.3em" style="text-anchor: end; visibility: hidden; font-family: &quot;Helvetica Neue&quot;, sans-serif; font-size: 12px; font-weight: 200;" fill="rgb(50, 49, 63)" stroke="none" stroke-width="1px">11</text><text x="0" y="22.125000000000114" dx="0em" dy="0.3em" style="text-anchor: end; visibility: inherit; font-family: &quot;Helvetica Neue&quot;, sans-serif; font-size: 12px; font-weight: 200;" fill="rgb(50, 49, 63)" stroke="none" stroke-width="1px">11.2</text><text x="0" y="0" dx="0em" dy="0.3em" style="text-anchor: end; visibility: hidden; font-family: &quot;Helvetica Neue&quot;, sans-serif; font-size: 12px; font-weight: 200;" fill="rgb(50, 49, 63)" stroke="none" stroke-width="1px">11.4</text></g><line x1="48.875" y1="0" x2="48.875" y2="177" fill="rgb(0, 0, 0)" stroke="rgb(204, 204, 204)" stroke-width="1px"></line></g></g><g transform="translate(48, 0)" clip-path="url(#clip_0)"><clipPath id="clip_0"><rect width="281" height="177"></rect></clipPath><g><g><g><line x1="0" y1="0" x2="0" y2="177" fill="rgb(0, 0, 0)" stroke="rgb(60, 60, 60)" stroke-width="1px" opacity="0.25"></line><line x1="28.1125" y1="0" x2="28.1125" y2="177" fill="rgb(0, 0, 0)" stroke="rgb(60, 60, 60)" stroke-width="1px" opacity="0.25"></line><line x1="56.225" y1="0" x2="56.225" y2="177" fill="rgb(0, 0, 0)" stroke="rgb(60, 60, 60)" stroke-width="1px" opacity="0.25"></line><line x1="84.33749999999999" y1="0" x2="84.33749999999999" y2="177" fill="rgb(0, 0, 0)" stroke="rgb(60, 60, 60)" stroke-width="1px" opacity="0.25"></line><line x1="112.45" y1="0" x2="112.45" y2="177" fill="rgb(0, 0, 0)" stroke="rgb(60, 60, 60)" stroke-width="1px" opacity="0.25"></line><line x1="140.5625" y1="0" x2="140.5625" y2="177" fill="rgb(0, 0, 0)" stroke="rgb(60, 60, 60)" stroke-width="1px" opacity="0.25"></line><line x1="168.67499999999998" y1="0" x2="168.67499999999998" y2="177" fill="rgb(0, 0, 0)" stroke="rgb(60, 60, 60)" stroke-width="1px" opacity="0.25"></line><line x1="196.7875" y1="0" x2="196.7875" y2="177" fill="rgb(0, 0, 0)" stroke="rgb(60, 60, 60)" stroke-width="1px" opacity="0.25"></line><line x1="224.9" y1="0" x2="224.9" y2="177" fill="rgb(0, 0, 0)" stroke="rgb(60, 60, 60)" stroke-width="1px" opacity="0.25"></line><line x1="253.01250000000002" y1="0" x2="253.01250000000002" y2="177" fill="rgb(0, 0, 0)" stroke="rgb(60, 60, 60)" stroke-width="1px" opacity="0.25"></line><line x1="281.125" y1="0" x2="281.125" y2="177" fill="rgb(0, 0, 0)" stroke="rgb(60, 60, 60)" stroke-width="1px" opacity="0.25"></line></g><g><line x1="0" y1="177" x2="281.125" y2="177" fill="rgb(0, 0, 0)" stroke="rgb(60, 60, 60)" stroke-width="1px" opacity="0.25"></line><line x1="0" y1="154.87500000000009" x2="281.125" y2="154.87500000000009" fill="rgb(0, 0, 0)" stroke="rgb(60, 60, 60)" stroke-width="1px" opacity="0.25"></line><line x1="0" y1="132.75000000000014" x2="281.125" y2="132.75000000000014" fill="rgb(0, 0, 0)" stroke="rgb(60, 60, 60)" stroke-width="1px" opacity="0.25"></line><line x1="0" y1="110.62500000000003" x2="281.125" y2="110.62500000000003" fill="rgb(0, 0, 0)" stroke="rgb(60, 60, 60)" stroke-width="1px" opacity="0.25"></line><line x1="0" y1="88.5000000000001" x2="281.125" y2="88.5000000000001" fill="rgb(0, 0, 0)" stroke="rgb(60, 60, 60)" stroke-width="1px" opacity="0.25"></line><line x1="0" y1="66.37499999999999" x2="281.125" y2="66.37499999999999" fill="rgb(0, 0, 0)" stroke="rgb(60, 60, 60)" stroke-width="1px" opacity="0.25"></line><line x1="0" y1="44.25000000000006" x2="281.125" y2="44.25000000000006" fill="rgb(0, 0, 0)" stroke="rgb(60, 60, 60)" stroke-width="1px" opacity="0.25"></line><line x1="0" y1="22.125000000000114" x2="281.125" y2="22.125000000000114" fill="rgb(0, 0, 0)" stroke="rgb(60, 60, 60)" stroke-width="1px" opacity="0.25"></line><line x1="0" y1="0" x2="281.125" y2="0" fill="rgb(0, 0, 0)" stroke="rgb(60, 60, 60)" stroke-width="1px" opacity="0.25"></line></g></g></g><g><g><line x1="0" y1="1261.1250000000002" x2="281.125" y2="1261.1250000000002" fill="rgb(0, 0, 0)" stroke="rgb(153, 153, 153)" stroke-width="1.5px"></line></g></g><g><g><line x1="28.1125" y1="0" x2="28.1125" y2="177" fill="rgb(0, 0, 0)" stroke="rgb(153, 153, 153)" stroke-width="1.5px"></line></g></g><g><g><g><g><g><path stroke="rgb(255, 112, 67)" stroke-width="2px" d="M32.673472,-1.0585367724194725L32.907368,5.763614025253048L33.078292000000005,11.74569407967661L33.420139999999996,8.976905162175854L33.784478,18.855796535904176L34.031867999999996,22.38430849983513L34.045362000000004,15.55723291384831L34.108334,7.5740641079758575L34.126326,7.38743310383515L34.34223,10.487472072697301L34.373716,19.388073842447966L34.571628000000004,12.65359690115929L34.706568,18.65383103232918L34.962954,37.25576538391826L35.093396,29.121610697826185L35.165364000000004,30.778671203886518L35.237332,29.753169070683924L35.718618,31.22010455812793L35.912031999999996,39.2041865493357L35.925526,32.31571905006729L36.406812,36.15419306882521L36.505768,46.443559828800346L36.555246000000004,49.135925783790995L36.735166,46.414611061835785L36.811632,38.897610688426255L36.870106,38.468665423522026L37.270428,40.52445391567679L37.540307999999996,39.707846711588076L37.949626,42.59131526381702L38.003602,39.32676272052947L38.147538000000004,38.26727288042542L38.174526,48.28499131843614L38.286976,52.99923566249147L38.489386,61.20955955545436L38.858222000000005,54.80148532128514L39.069627999999994,58.59409719786774L39.146094000000005,60.79328216363025L39.155089999999994,54.500445778661984L39.177580000000006,56.11213384598143L39.29003,52.69303828793565L39.294528,51.30597914646751L39.348504000000005,59.36243270272416L39.370994,67.31928018590457L39.501436,64.6700977078715L39.568906,64.08819973418964L40.18963,63.704541277586515L40.43702,67.35388473969643L41.458065999999995,65.17443125427947L41.777423999999996,67.23356662381393L41.790918000000005,71.07811051719617L42.051801999999995,67.91903919049038L42.330678,68.88742100040875L42.641040000000004,64.27927400374854L42.704012000000006,67.50283156457206L42.713007999999995,75.041559854881L42.717506,65.77169790252216L42.97839,60.120400943661764L43.76554,63.873675750675915L44.386264,66.48231578289459L44.39526,77.06388631116744L44.62016,76.75221985966817L44.939518,74.16449915403636L45.173414,82.07329537293022L45.267872,76.83323036325409L45.299358,75.62195541079289L45.780643999999995,76.3964585877385L45.906588,75.43382690053733L46.032532,78.62551759303544L46.266428,73.8746482290087L46.545304,78.45792540057037L46.986108,77.5207011708232L47.125546,75.842427492655L47.148036,83.5813050273162L47.530366,88.51648736018552L47.539362000000004,89.25993990909221L47.9037,87.09939637190803L48.317516,96.72301835064118L48.393981999999994,85.29120265390878L48.48844,88.64824826089404L49.091172,88.89994672875308L49.109164,87.3123221632284L49.145148,92.7429328105713L49.648923999999994,89.97006255041744L49.711895999999996,90.97178238422396L49.882819999999995,93.89998036498271L49.936796,91.88986605330965L50.125712,99.25455104067706L50.472058,99.31911470147844L50.8274,104.62041493447363L50.836396,100.41453378314827L51.079288,101.0482047135535L51.205232,104.08511384337577L51.677521999999996,91.26893482213869L52.154309999999995,91.97206541064782L52.217282,95.56739041902661L52.491659999999996,99.02156294404287L53.071902,100.65552313935059L53.656642000000005,98.35737438089416L53.854554,96.66856767586928L54.236883999999996,97.61303015859158L54.326844,98.96960890478633L54.488772,105.31020634285656L54.520258,98.80352178163542L54.682185999999994,92.63606709806457L54.776644,92.01337334256382L55.055519999999994,95.60702960932856L55.14548,102.84892483499405L55.644758,105.8673333880113L55.689738,107.90157478790316L56.000099999999996,106.952444277649L56.058574,105.85107605603034L56.085561999999996,101.7479517039459L56.144036,98.91011650424028L56.400422,99.65071610844622L56.503876,96.59056952140634L56.791748,100.21006681050004L57.439460000000004,105.66147166207519L57.682352,108.2677475793069L57.812794,110.59752913611554L58.055686,100.21228935895813L58.231108,97.70707570659191L58.244602,100.74543663947026L58.298578,101.78969276600033L58.438016,100.80032065303887L58.941792,96.61825505966995L59.445568,97.05681848570742L59.562516,101.26714181926876L60.075288,109.13506522194763L60.111272,107.31071213731896L60.29569,113.50565917402336L60.709506000000005,110.09748005336415L60.997378,116.80364713350477L61.213282,114.75057683753685L61.316736,114.57947608451693L61.6226,115.62626164329441L61.66758,115.57575555546521L61.681073999999995,118.99260833205844L61.748544,117.92236105407514L61.896978000000004,119.61438398245119L62.715614,116.53445895125364L63.01698,113.05677871471576L63.142924,115.72873695234007L63.187903999999996,117.46121296608189L63.345334,116.00051213099788L64.056018,113.8864474343909L64.39336800000001,115.33653831765965L64.90614,117.57463531664554L65.090558,115.61964099986292L65.598832,116.00045166839931L65.72927399999999,117.89685436743366L65.75176400000001,118.6767548361889L65.79224599999999,118.72915084597292L66.19706599999999,114.43832878730807L66.21056,115.36209628857449L66.336504,116.92856811211864L66.381484,118.02218612865423L66.799798,115.0085106422652L66.95273,115.1460670310348L67.22261,116.87554371822418L67.780362,114.74725249092904L68.045744,119.50016400027957L68.162692,120.69365842824391L68.176186,120.62989744952438L68.270644,117.14802924043593L68.30213,120.4537676289477L68.563014,121.98702011792648L68.590002,122.99858800344944L68.84188999999999,123.50302471979421L69.76398,121.17708543696375L70.015868,122.04391081189158L70.15980400000001,121.0859901371899L70.55113,121.81332146306661L70.699564,121.53041975009333L71.05490599999999,119.53375249092517L71.08639199999999,118.10162604442078L71.14486600000001,119.54381640309613L71.414746,119.68425969811987L71.54968600000001,118.19910438378272L71.65314,118.21868910503147L71.734104,119.99339083499774L72.386314,120.64823801319041L72.674186,124.59578637480885L73.35338399999999,126.2210030329235L73.470332,126.24658883643215L74.33394799999999,122.9204951109413L74.365434,121.38448223959944L74.87370800000001,121.04177533085073L74.887202,122.11726147231428L74.98166,122.5285114663659L75.24704200000001,118.33328014718398L75.440456,122.76455472771464L75.82278600000001,120.69716276445482L75.962224,120.89617260526711L76.03419199999999,118.06942153114724L76.11065799999999,121.04525828444154L76.290578,114.94466099788656L76.49748600000001,112.8855427840347L76.501984,114.64513873690339L76.60094,118.43052463313323L76.75837,126.84946506369344L76.875318,125.23072553365373L76.9158,127.92877951078991L77.149696,126.56436104067194L77.16319,125.53673512034447L77.316122,124.73802398617765L77.334114,125.35561980590653L77.437568,126.17421563735864L77.464556,125.56741123361142L77.473552,122.68284390546518L77.68046,124.82096542225864L78.049296,123.59002126041986L78.134758,124.97146060934033L78.17524,124.93007399362554L78.481104,123.49023085667035L78.4901,126.82574018140645L78.75998,121.35480270564562L79.475162,124.23999415504954L79.71355600000001,124.48199450175774L79.803516,128.0723255348253L79.942954,126.30140952301305L79.983436,122.81129982490714L80.059902,123.54476653587437L80.13636799999999,124.62797591120979L80.505204,127.96722877640127L80.60865799999999,129.61739695440886L80.67163,125.75828569156624L81.00448200000001,124.5141947807235L81.517254,126.35055445083151L81.949062,127.73013123540986L81.971552,123.2372901479537L82.13347999999999,126.14466004610873L82.272918,126.61945012236126L82.709224,126.50004732027344L82.826172,127.65693461546137L82.844164,127.90547625809211L82.91613199999999,126.31810980194388L83.105048,127.99281423779478L83.39292,128.61783610279653L83.406414,126.95171534118225L83.478382,128.08432895599097L83.91019,125.51292890702669L84.148584,125.73865238663555L85.106658,128.1814185132801L85.232602,127.46297040881038L85.70939,127.28079766810725L86.033246,127.88948632944116L86.312122,129.70106535952377L86.662966,131.04999092698748L86.739432,129.19977008986874L86.86087799999999,131.37605387978783L86.95533599999999,133.5525807798686L87.009312,132.77191354398633L87.07678200000001,129.66064825990617L87.333168,127.43936614596143L87.66152199999999,128.32741873504702L88.156302,130.82293420459024L88.394696,129.5627209033084L88.412688,130.6857628634877L88.853492,134.30836142368946L89.04240800000001,133.51069672863395L89.271806,130.69189200377886L89.37526,133.79567862496637L89.640642,133.43020792571218L89.654136,132.7313637004346L90.07694799999999,136.38858571446252L90.22988000000001,131.48908404586507L90.38730999999999,129.70916807697904L90.562732,129.80117232827365L90.97654800000001,130.06539191739571L91.075504,128.02340005598555L91.44434,136.16721538759518L92.078558,132.22119486366066L92.375426,130.26579301377757L92.406912,128.4621669818201L92.44739399999999,132.41087491328963L92.52386000000001,130.25966839203508L92.604824,126.60953753119267L92.870206,131.5670568044517L93.095106,130.56437882754415L93.306512,133.37768760307546L93.58988599999999,130.9090907513136L93.92723600000001,133.89004339808417L93.954224,135.19791377803222L94.089164,134.79947212469895L94.12964600000001,131.88517472226818L94.174626,134.28748138594256L94.588442,130.74714493660701L94.62892400000001,134.3094893926893L94.646916,130.67358635869704L94.723382,128.5799895227377L95.011254,127.95193753841068L95.096716,135.71322461487395L95.703946,130.94304569078417L95.98732000000001,132.69796561904508L96.194228,126.46823730294571L96.39214000000001,133.27721523180412L96.778968,130.28644894918682L97.039852,132.4710355243735L97.710054,130.76540954361292L97.71905000000001,130.38419270187586L97.86298599999999,135.70350823205686L98.00242399999999,126.02592736126167L98.267806,133.40952290082686L98.91102,127.32793357959221L99.01897199999999,131.94120871419204L99.059454,133.8952184879451L99.306844,135.75392439148834L99.986042,133.3397435318352L100.049014,131.63064946954964L100.50781,131.68289889231627L100.602268,133.02190268835625L101.20050200000001,134.16780088425395L101.524358,136.97585204887835L101.623314,133.20340950279507L101.69978,132.4126848637407L101.906688,135.8622253095714L102.05962,132.77957197163147L102.35199,132.2789901979782L102.71183,131.69016132879366L103.053678,135.86328769998624L103.215606,132.1185964183622L103.714884,133.01695424536558L103.719382,131.54256051909738L103.87231399999999,132.986567366909L103.93528599999999,133.55626265334556L104.124202,138.61917252616553L104.875368,136.830325527647L105.014806,141.12512178639105L105.167738,140.61122285973758L105.653522,136.10819470674838L105.801956,138.41122391099367L105.88292,142.57588406964916L105.891916,139.78397066929818L105.999868,137.04200439178288L106.004366,136.48237970187273L106.01786,136.15922271438853L106.10332199999999,138.49197442071696L106.260752,136.63225940905255L106.40019,139.18302729154968L106.57561199999999,137.20729366794436L106.620592,138.7061589232397L107.020914,132.29591634698576L107.08388599999999,133.37152492301396L107.214328,129.72184946117835L107.25031200000001,133.0909774421338L107.380754,135.11418443433564L107.826056,136.6180654377468L108.865094,136.29680247370777L108.99103799999999,138.51586415329206L109.03152,140.58622471069467L109.157464,141.6209854100656L109.31489400000001,139.27150420036992L109.36887,142.10579397491867L109.65674200000001,143.66343613989508L110.26397200000001,144.06579392270658L110.506864,140.21911721895006L111.105098,141.98734434527088L111.10959600000001,133.59752860118115L111.739316,140.8246638682435L112.283574,138.68622764986455L112.31506,137.6105371537311L112.87731,137.73746887579574L113.38558400000001,134.72466583094018L113.471046,130.0475045862258L113.59699,141.62455940380457L113.695946,137.2588475712225L113.79040400000001,137.34440394449757L114.096268,130.34313237791378L114.33466200000001,135.3361229188748L114.595546,134.789599614591L114.79345799999999,136.66271564796597L115.75603000000001,140.0085465278329L115.836994,138.07320638692985L115.93594999999999,139.54144761679538L115.962938,144.2369005544065L116.45322,137.41748670715572L116.516192,142.94961078154134L116.56567,148.54815420619906L116.81306000000001,148.39830070204877L116.862538,144.13627684990968L116.889526,135.94703872728604L117.15490799999999,135.04039425687955L117.276354,141.04860431573968L117.37980800000001,148.52737187517994L117.694668,144.15320462687816L117.793624,137.10875140848162L117.942058,144.23618208898546L118.05001,142.06716778000265L118.22993,139.402232135058L118.310894,139.05150716586155L118.337882,142.19597922017132L118.35137599999999,141.24989711195207L118.693224,141.93580147594201L118.697722,145.6871856985689L118.90912800000001,140.23333507407895L119.04856600000001,139.9107264854265L119.170012,139.87693086729962L119.183506,140.87110142389844L119.205996,145.7291796951289L119.525354,147.8911348789212L119.574832,141.59271405990577L119.79523400000001,141.36838602337627L120.05162,138.48293423243416L120.25402999999999,133.85732788794058L120.43844800000001,136.44614393086923L120.496922,139.8854821120006L120.50142000000001,139.45923759903317L120.600376,142.94511953810343L120.67234400000001,140.0686010826796L121.171622,138.92910243923495L121.26608,136.4235410324038L121.576442,139.0035269517482L121.58993600000001,139.52765995614416L121.594434,138.41552356691764L121.810338,137.67667038328415L121.91829,135.89510926656118L122.512026,131.47257376344322L122.87186600000001,134.7380368747194L122.93034,130.28366089092972L123.21821200000001,137.48944301740693L123.510582,133.32664329610094L123.614036,136.02168435336242L123.991868,136.44904629278835L124.005362,142.3109434121172L124.02785200000001,143.06287868459953L124.329218,142.4603036382194L124.41018199999999,138.47014180054637L124.747532,140.6278306438349L124.92295399999999,140.5100913878573L125.633638,131.9466378233608L125.82255400000001,135.5227573598489L125.827052,133.7785093238987L126.119422,135.3267595440767L126.14641,133.33204534474746L126.263358,133.47696863903852L126.357816,142.16645285662557L126.384804,135.2874970267806L127.095488,136.4934551138041L128.17051,134.8735324512933L128.228984,138.24671096628995L128.38191600000002,135.80559551135366L128.489868,134.00370533118053L128.55284,137.52803568154212L128.678784,139.38639495438107L129.191556,138.6263339857208L129.348986,138.9557254517048L129.515412,139.80611130022817L129.92473,142.3102125908363L130.50947,139.07997563990523L130.84682,140.2123119086777L131.25164,143.15368061368213L131.265134,139.2923016375574L131.92633999999998,139.9878009692593L131.944332,140.00335572575108L132.137746,135.89210313805688L132.18722400000001,138.50328823476272L132.232204,137.999367550309L132.385136,138.6563919516179L132.430116,137.94424687217315L132.547064,140.09184042448203L132.749474,137.58373899361132L132.852928,139.04579755723856L133.082326,138.74725382960074L133.190278,138.8872868623509L133.27574,140.91010534800134L133.487146,140.18267676852372L133.99542,137.5627448417083L134.215822,138.13864359005322L134.58016,137.44990086998956L134.629638,142.2469735649016L134.719598,145.04803321998043L135.04795199999998,143.68870123768284L135.304338,142.27685699787406L135.78562399999998,139.60227562145408L136.419842,139.52550760004533L136.595264,141.15512790139684L136.725706,141.57476171169378L137.117032,140.10967359729818L137.332936,140.26148449056285L137.34193199999999,141.19323898954968L137.512856,140.8994279003369L137.61631,144.21591597176956L137.935668,142.40016263352257L138.569886,141.02801223770643L138.857758,145.85219104394835L139.298562,142.65064234319647L139.33454600000002,138.341356913944L140.01824200000001,137.26511402171863L140.117198,136.66553518320342L140.265632,140.65054019180076L140.598484,140.04993672303652L140.77390599999998,140.7877475448387L141.16073400000002,141.68594179319962L141.48908799999998,138.82268720726734L141.601538,141.81493953383307L141.660012,144.7204908580563L141.70049400000002,147.73016190832746L142.055836,138.99868683997346L142.32121800000002,145.25459950556484L142.83399,144.65073476666294L142.90146,143.7620120193606L143.25680200000002,144.64830494797496L143.64812799999999,143.2625930838363L144.04845,143.76308515862092L144.214876,141.60286204335375L144.372306,138.0562396545249L144.70515799999998,142.45113390082363L145.26290999999998,141.7051003539221L145.35736799999998,139.65961607478013L145.39785,140.41889467347835L145.469818,140.7745742232153L145.753192,140.7389170307249L145.75769000000003,140.06359014381937L145.82066200000003,139.11582747381908L146.373916,140.6808063464282L146.423394,143.0526976750444L146.873194,142.24783659971672L147.17455999999999,141.25543828604765L148.07415999999998,140.00129811643444L148.645406,142.0490430872374L148.649904,142.01489462141595L148.780346,142.64876011421916L148.78934199999998,144.8843641007581L149.234644,143.61480701712617L149.909344,138.0028899952642L150.197216,136.1609775808378L150.224204,135.55033076923638L150.251192,133.06448543740245L150.269184,139.31652567787728L150.273682,136.6054392695653L150.790952,141.54296899081643L151.038342,138.7055066599929L151.578102,141.14678255167502L151.82999,140.76867022184686L152.270794,140.83893364708504L152.31577399999998,140.06477319026524L152.34725999999998,138.31764742627473L152.428224,142.35562203463766L152.68461000000002,144.4261626609377L152.882522,139.6079635267384L153.26935,140.14141242771925L153.67866800000002,139.45176025074466L153.68766399999998,141.43873197938058L153.8316,142.82524642410908L153.912564,142.6325369421425L155.185498,142.99318145178455L155.302446,142.51613630332182L155.50035799999998,139.70549992011567L155.74774799999997,138.77542807630647L156.026624,141.64719716293794L156.08509800000002,144.04372982730374L156.49891399999998,142.1158969673509L156.629356,138.32684013086535L156.80477800000003,141.53194811843616L158.06421799999998,142.8816825086045L158.41956000000002,141.6577320774894L158.536508,140.53343300107116L158.635464,144.4611108069597L158.720926,143.35165542155377L158.83337600000002,146.64654489630396L158.90534399999999,144.63565461798862L158.95932000000002,140.40210810282446L159.15273399999998,141.1746449409641L159.45859800000002,141.53781523339256L159.73747400000002,141.98642529268457L160.67305800000003,144.85174077283975L160.704544,141.00828319508804L160.745026,140.27179874014246L160.969926,142.0162946524107L160.98342000000002,142.94356594931403L161.077878,143.3980155137261L161.21731599999998,143.89286871833093L161.302778,147.1450950389057L161.91450600000002,153.70387869387565L162.278844,145.32166045492718L162.283342,144.90239377967023L162.436274,148.97533004374205L163.05249999999998,149.32225380474864L163.07499,147.04743925413212L163.191938,147.51715717125373L163.398846,147.46425681953704L163.466316,145.88525036361855L163.835152,146.28424031369119L164.02856599999998,150.10819420118463L164.145514,152.75130806505288L164.32993199999999,147.1984828122831L164.523346,149.7287597542034L165.11708199999998,149.74000295907422L165.14856799999998,147.4383618409046L165.16656,145.06575949040712L165.625356,143.8959050121765L165.805276,143.21488136904605L166.228088,143.81455389772165L166.29106000000002,143.27068471976693L166.372024,141.13288221400137L166.56094,143.72712284112677L167.78439600000002,143.50358308425365L168.02279,139.10509808701758L168.558052,144.2049969186933L169.376688,140.78414202633815L169.54311399999997,140.59484739842003L169.965926,142.50442726458311L170.681108,141.36305698779347L170.798056,142.53862572328524L170.97797599999998,143.91317596802887L171.184884,143.8342756198036L171.477254,146.34109576739002L171.50874,145.21477193949886L171.544724,144.0057373244659L171.760628,144.5998289226946L171.80111,149.71907027002914L172.066492,149.22698640487656L172.124966,146.85836133755495L172.777176,147.19431358216548L172.831152,146.4521221496961L172.97958599999998,143.801979266304L173.168502,141.9673862234939L173.460872,144.6175852642172L173.793724,143.46166052971563L174.00512999999998,143.56952756973675L174.29749999999999,143.8949177404199L174.427942,146.0079770648452L174.486416,146.03264025235018L174.796778,142.48262788882167L174.81027200000003,143.98634349125817L175.003686,142.92745033990263L175.224088,148.0154592519458L175.475976,143.88572513612831L176.06971199999998,144.03741438122216L176.105696,143.65971154529825L176.137182,143.13608562087398L176.555496,143.00362364730464L176.609472,142.46213989425436L176.699432,142.9080764589832L177.212204,141.88077088225626L177.230196,143.97160761373496L177.351642,143.9381629515724L177.360638,143.22133049303514L177.765458,142.66070614417922L178.080318,144.36301781034803L178.201764,149.44637432871062L178.23325,146.6804142426122L178.24674399999998,148.21572249118495L178.359194,146.25953660597816L178.970922,143.70512257927908L179.384738,144.65662457295818L179.416224,149.0135911092075L179.821044,146.07073677688317L179.861526,146.6369166678755L179.915502,140.3239072505575L180.00096399999998,140.3398487772907L180.07743,145.3700004223803L180.320322,144.45656236432896L180.37429799999998,146.88605337395026L180.486748,145.70915425451847L180.65317399999998,146.81192157645376L180.914058,144.59633773552986L181.12096599999998,145.43117676965971L181.20642800000002,143.67142144914024L181.23791400000002,143.54401240393855L181.444822,143.18102837589595L181.678718,139.62521095864307L181.69221199999998,139.81656558389872L181.849642,144.89896177694456L182.434382,148.164885946782L182.66827800000002,144.46988179008468L182.672776,143.74254242015076L182.767234,142.37845425267338L183.014624,142.18030045306276L183.40595,142.6471876017785L183.410448,148.80731142238008L183.58137200000002,149.199836186619L183.73880200000002,146.61300912621712L183.779284,143.87631420566504L183.95470600000002,142.9725878016582L184.17510800000002,140.63693259813965L184.42249800000002,144.92495540773032L184.566434,149.34621737000452L184.993744,147.56927345751L185.67744,154.24458674525172L185.897842,156.49150803050358L186.05977,150.114850201374L186.33864599999998,145.11235923657753L186.684992,143.44480945521573L186.698486,143.8688701740145L187.040334,148.19198593802687L187.134792,149.47883425538208L187.17077600000002,145.8505712174442L187.22925,148.48805269140422L187.23824599999998,145.918896869054L187.26523400000002,145.36623584939863L187.70603799999998,145.2594813091389L187.715034,144.6524822463293L188.10636000000002,147.1223141521036L188.119854,146.01688366948474L188.2413,144.65280851017783L189.010458,144.4771551626406L189.041944,144.76582758054036L189.338812,141.64067211404387L189.361302,145.38186201247544L189.829094,145.7423419999658L189.90556,144.5566586522805L190.20692599999998,143.2504805963365L190.296886,145.2794096613602L190.778172,145.97990041641447L191.012068,144.37214301626722L191.07953799999999,146.4528579628518L191.147008,148.99269403910952L191.218976,149.12082775769434L191.27745,148.93809304438713L191.43488,147.87211381079354L191.520342,148.18734547306062L191.551828,147.25953252797703L192.599862,148.85298147014018L192.869742,150.72551015741385L193.004682,148.57809851006726L193.090144,145.55923689267678L193.490466,146.19632685698053L193.665888,147.94442889998544L193.68388000000002,144.98381751722206L193.724362,145.85377603737194L193.75135,146.64692891816895L193.8638,146.53628161657218L194.12018600000002,145.17557432120063L194.776894,140.52670670667302L195.298662,142.15514460276964L195.447096,143.33109635753289L195.93737800000002,140.87896138812823L195.964366,143.5928319834813L196.00484799999998,145.0371197547403L196.58509,144.58742945706175L196.738022,146.9572308141907L197.88951,145.80777583592663L197.97497199999998,146.08532887741043L198.168386,143.9928899648434L198.478748,145.03315363184493L199.445818,146.8619977584832L199.900116,144.627691647491L200.14750600000002,146.31703213517721L200.214976,146.13114111223737L200.525338,144.52276935934378L200.67827,145.58499635910601L201.011122,144.35708864722017L201.08309,143.95743832703437L201.132568,144.8681913478136L201.28549999999998,145.48883091586592L201.64534,145.05654336916086L201.919718,152.04022523109134L201.924216,150.0303973456859L202.18509999999998,148.44090180996892L202.27506000000002,147.5317677819959L202.468474,145.23080588365968L202.49096400000002,147.44833489051697L202.81482,150.32514793748413L203.449038,150.5900155012296L203.552492,144.92823563244843L203.55698999999998,141.42423268691843L204.168718,140.1121119769582L204.600526,143.77133627606446L204.86590800000002,143.05704815312043L204.915386,144.85735735371006L206.192818,145.20693274184646L206.37723599999998,147.00230410006395L206.692096,146.06578089181633L206.81804,144.91066032280946L207.047438,145.06395295638097L207.483744,144.74506847487845L207.62318199999999,142.80505051867348L207.645672,141.98252286110036L207.722138,141.5025946950537L207.951536,143.98228839967388L208.12246,144.4621977086886L209.040052,145.3489625499263L209.36390799999998,147.0045988110073L209.836198,149.79532453700105L210.22752400000002,151.03138545324924L210.2815,150.79414875012952L210.425436,150.73717750729497L210.55138,149.4758583880746L210.94270600000002,151.2438560114673L210.987686,149.14720176377145L211.014674,148.4012650890247L211.032666,150.539935507959L211.172104,146.36805891906383L211.1811,144.75594563433629L211.244072,147.87592503517337L211.27105999999998,150.00305441075253L211.599414,152.68678938778456L212.71042,150.59612481255667L213.106244,150.4818880585393L213.223192,150.12140579387906L213.628012,150.62939655402533L213.749458,151.02762200605406L214.06431800000001,147.50192958218776L214.370182,147.14621561827028L214.44215,147.57971459663977L214.739018,147.88944128773858L214.95492199999998,146.84506032241745L215.02689,146.69246533735623L215.157332,145.31473404898668L215.269782,143.65797733506216L215.355244,147.21790365720187L216.002956,147.98969938960323L216.03894000000003,146.57141248349348L216.326812,148.41483159043793L216.44825799999998,145.30285760866656L217.055488,144.50523446266092L217.086974,147.36949838557385L217.167938,147.20753639554115L217.631232,145.04909587869142L217.739184,142.2578274307794L217.784164,140.68595017779768L217.847136,144.86988137834612L218.126012,143.7901941697201L218.553322,146.5994130945445L218.85019,147.29750457860484L218.90866400000002,149.80918845806988L219.0526,146.96840806767034L219.13356399999998,147.41998455503403L219.178544,145.01042302595883L219.273002,149.43522482006148L219.763284,149.24016511969802L220.078144,146.7727109702412L220.518948,149.70155692768006L221.045214,148.78333669109304L221.216138,146.89326914073916L221.364572,149.17612757636238L221.441038,149.74163555117346L221.61646000000002,142.45892915136756L222.704976,145.1904408038089L222.77694400000001,148.45118159654322L223.424656,152.06250254274963L223.658552,152.88543329215975L223.856464,156.87930928216542L224.013894,155.23016559211118L224.14883400000002,152.40138852076367L224.256786,153.08323666737462L224.36473800000002,155.58238933852914L224.400722,159.36760653478873L224.4502,157.32652080907204L224.454698,159.80564454110723L224.72457799999998,163.22643143482367L224.846024,158.3304479989252L224.86401600000002,151.6554492993858L224.931486,148.98975428841766L225.04843400000001,147.0031092697516L225.09791199999998,147.13970764482832L225.14739,149.13527188303965L225.295824,147.54115897180372L225.678154,148.19445580102058L225.916548,145.76797438774753L225.93454,145.5413741178171L225.99301400000002,145.3751564924035L226.352854,146.31207109118188L226.37084599999997,148.62425752058437L226.49229200000002,146.8436087344575L226.532774,145.841558001905L226.9241,145.78534170536378L226.955586,146.40094468920333L227.15349799999998,149.51153982835356L227.391892,148.58028424475998L227.54932200000002,145.55755212720888L227.56731399999998,146.83616654167562L227.841692,150.60717968994368L228.277998,157.09819424661399L228.448922,150.45029247112527L228.65582999999998,149.06031725589912L228.660328,146.83043759932818L228.673822,147.68944641274643L228.92571,146.4865484972146L229.303542,144.0568877660839L229.411494,146.51770714542917L229.631896,152.4938254095414L229.694868,152.66618440969577L230.36057200000002,154.0322264577376L230.495512,151.55581377419412L230.760894,148.55937179608708L230.99029199999998,144.30837326457237L231.91688000000002,146.06572798019732L231.957362,148.62930037454436L232.047322,149.4859967820388L232.18676,150.28461202338588L232.19575600000002,149.21824512693428L232.80298599999998,149.24273878224588L232.964914,141.03267992668097L233.162826,147.71550915916416L233.42820799999998,155.70366224217216L233.48218400000002,154.69788213114626L233.990458,149.8633065911573L234.156884,147.5193070347572L234.296322,147.07561791988988L234.45375199999998,150.43730385931008L235.128452,146.77236890692532L235.168934,147.8807132714929L235.29038,148.96670797311913L235.42532,153.3708210637789L235.578252,151.71795291010278L235.780662,151.805879082106L235.81664600000002,153.85161836494348L235.94259,154.12175292700147L236.450864,151.6957444365599L236.522832,150.78106007670053L236.626286,153.23086114939855L236.801708,150.95290973315716L236.878174,148.94267193394958L237.26500199999998,147.38310351322932L237.305484,143.69258288354175L237.458416,145.8493556726604L237.97568600000002,145.35405119351321L238.151108,146.46854586655974L238.385004,147.22003924402628L239.680428,145.17994844647075L239.774886,147.87315938312906L240.409104,149.19275692367023L240.60251799999998,148.85946108855885L240.840912,149.99359718536178L240.872398,148.96809806570334L240.962358,148.74627221909122L241.079306,147.68367756180137L241.484126,145.76437747938743L241.71802200000002,147.01778047360983L241.987902,150.63364687608478L242.019388,150.59787449268583L242.14983,151.9231846870665L242.38822399999998,146.98055137048277L242.406216,142.55472171813324L242.46469000000002,147.66479981249623L242.52766200000002,146.12799861613533L242.635614,150.65378052344107L242.68959,141.071384277047L242.833526,144.21704998380028L242.865012,145.74093784550485L242.927984,146.04214547669693L243.436258,140.59481305239095L243.485736,139.33716341470165L243.512724,139.4433288372427L243.69714199999999,140.50451158266475L243.715134,142.27188820112482L243.778106,146.80120364706943L243.88155999999998,151.29022602964176L244.358348,150.62489221530407L244.551762,150.94524563573162L244.74967400000003,149.89196427597034L244.830638,148.56470680197123L244.90260600000002,150.50131444907223L245.037546,149.59441969857244L245.347908,149.2715801123716L245.910158,150.18529108309377L246.10357199999999,149.3685558029631L246.112568,148.03084145716537L246.278994,146.80836416919078L246.283492,147.1434684374275L246.328472,146.2740413533655L246.36445600000002,148.37938281220252L246.47690599999999,147.25009587003044L246.85023999999999,147.21506225224297L246.87273000000002,147.9731401154754L246.94019999999998,147.84841081794244L247.81281199999998,148.5768097239504L248.433536,150.02487878786135L249.387112,150.6534329222834L249.737956,148.79024710459686L249.980848,145.6106502902697L250.09329799999998,145.79521478964037L250.660046,143.80236347766603L251.02438400000003,146.48260421903058L251.24478599999998,145.46700036138975L251.298762,146.02299349075957L251.384224,149.94882970193865L251.64960599999998,152.08214796268854L252.17137400000001,147.91798990180428L252.526716,146.82648821598497L252.715632,148.91387555555244L253.008002,143.00220993492468" style="fill: none;" fill="none"></path></g></g></g></g><g opacity="0.2"><g><g><g><path stroke="rgb(255, 112, 67)" stroke-width="2px" d="M29.165032,-83.29354298114771L29.259490000000003,40.49967813491824L29.340454,-100.2864636182785L30.716842,-48.72755599021909L30.748328,3.5777657032013224L30.964232000000003,-1.7917735576629354L31.324071999999997,-0.014411330223055074L31.360056,21.340204954147367L31.64343,-14.14437246322629L32.480058,-12.908753871917696L32.673472,31.294256329536466L32.907368,15.996829748153715L33.078292000000005,20.718808650970487L33.420139999999996,4.823723316192655L33.784478,33.67413032054904L34.031867999999996,27.67707574367526L34.045362000000004,5.316620349884062L34.108334,-4.400688529014559L34.126326,7.1074866056442545L34.34223,15.13753044605258L34.373716,32.7389763593674L34.571628000000004,2.551881551742582L34.706568,27.65418219566348L34.962954,65.15866684913641L35.093396,16.920378684997587L35.165364000000004,33.264261960983305L35.237332,28.214915871620207L35.718618,33.42050778865817L35.912031999999996,51.18030953407293L35.925526,21.983017802238493L36.406812,41.91190409660342L36.505768,61.87760996818548L36.555246000000004,53.17447471618658L36.735166,42.33263897895816L36.811632,27.62211012840274L36.870106,37.82524752616885L37.270428,43.608136653900175L37.540307999999996,38.48293590545657L37.949626,46.91651809215551L38.003602,34.42993390560153L38.147538000000004,36.678038120269804L38.174526,63.311568975448665L38.286976,60.070602178573665L38.489386,73.52504539489752L38.858222000000005,45.189373970031795L39.069627999999994,64.28301501274115L39.146094000000005,64.09205961227423L39.155089999999994,45.06119120121008L39.177580000000006,58.529665946960506L39.29003,47.564394950866756L39.294528,49.225390434265194L39.348504000000005,71.44711303710943L39.370994,79.2545514106751L39.501436,60.696323990821895L39.568906,63.21535277366644L40.18963,63.12905359268194L40.43702,72.82789993286138L41.458065999999995,61.90525102615362L41.777423999999996,70.3222696781159L41.790918000000005,76.84492635726934L42.051801999999995,63.18043220043188L42.330678,70.33999371528631L42.641040000000004,57.3670535087586L42.704012000000006,72.33816790580755L42.713007999999995,86.3496522903443L42.717506,51.86690497398382L42.97839,51.64345550537115L43.76554,69.50358796119696L44.386264,70.39527583122259L44.39526,92.93624210357672L44.62016,76.28472018241888L44.939518,70.28291809558874L45.173414,93.93648970127111L45.267872,68.97313284873968L45.299358,73.8050429821015L45.780643999999995,77.5582133531571L45.906588,73.98987936973577L46.032532,83.41305363178259L46.266428,66.7483441829682L46.545304,85.33284115791326L46.986108,76.11486482620245L47.125546,73.32501697540289L47.148036,95.18962132930761L47.530366,95.9192608594895L47.539362000000004,90.37511873245245L47.9037,83.85858106613165L48.317516,111.15845131874092L48.393981999999994,68.14347910881048L48.48844,93.68381667137152L49.091172,89.27749443054205L49.109164,84.93088531494146L49.145148,100.88884878158575L49.648923999999994,85.81075716018682L49.711895999999996,92.47436213493353L49.882819999999995,98.29227733612066L49.936796,88.87469458580023L50.125712,110.30157852172857L50.472058,99.41596019268042L50.8274,112.57236528396614L50.836396,94.10571205616003L51.079288,101.99871110916143L51.205232,108.64047753810888L51.677521999999996,72.04466629028326L52.154309999999995,93.02676129341131L52.217282,100.9603779315949L52.491659999999996,104.20282173156744L53.071902,103.10646343231207L53.656642000000005,94.9101512432099L53.854554,94.13535761833197L54.236883999999996,99.02972388267523L54.326844,101.00447702407843L54.488772,114.82110249996192L54.520258,89.04349493980413L54.682185999999994,83.38488507270819L54.776644,91.0793327093125L55.055519999999994,100.99751400947576L55.14548,113.7117676734925L55.644758,110.39494621753698L55.689738,110.95293688774116L56.000099999999996,105.52874851226812L56.058574,104.19902372360235L56.085561999999996,95.59326517581945L56.144036,94.65336370468145L56.400422,100.7616155147553L56.503876,92.00034964084631L56.791748,105.63931274414068L57.439460000000004,113.83857893943794L57.682352,112.17716145515449L57.812794,114.0922014713288L58.055686,84.6344296932221L58.231108,93.94925522804266L58.244602,105.3029780387879L58.298578,103.35607695579534L58.438016,99.31626248359686L58.941792,90.34515666961676L59.445568,97.71466362476355L59.562516,107.58262681961065L60.075288,120.93695032596595L60.111272,104.57418251037603L60.29569,122.79807972908027L60.709506000000005,104.98521137237555L60.997378,126.86289775371559L61.213282,111.67097139358528L61.316736,114.32282495498664L61.6226,117.19643998146064L61.66758,115.49999642372138L61.681073999999995,124.11788749694831L61.748544,116.31699013710029L61.896978000000004,122.15241837501533L62.715614,111.91457140445716L63.01698,107.84025835990911L63.142924,119.73667430877693L63.187903999999996,120.0599269866944L63.345334,113.80946087837226L64.056018,110.71535038948066L64.39336800000001,117.51167464256294L64.90614,120.93178081512458L65.090558,112.68714952468879L65.598832,116.57166767120368L65.72927399999999,120.74145841598518L65.75176400000001,119.84660553932197L65.79224599999999,118.80774486064918L66.19706599999999,108.00209569931036L66.21056,116.74774754047401L66.336504,119.27827584743507L66.381484,119.66261315345771L66.799798,110.48799741268164L66.95273,115.35240161418922L67.22261,119.46975874900825L67.780362,111.55481564998634L68.045744,126.62953126430519L68.162692,122.4839000701905L68.176186,120.53425598144538L68.270644,111.92522692680366L68.30213,125.41237521171577L68.563014,124.28689885139472L68.590002,124.51593983173377L68.84188999999999,124.2596797943116L69.76398,117.68817651271827L70.015868,123.34414887428291L70.15980400000001,119.6491091251374L70.55113,122.90431845188148L70.699564,121.10606718063362L71.05490599999999,116.53875160217292L71.08639199999999,115.95343637466438L71.14486600000001,121.70710194110877L71.414746,119.89492464065559L71.54968600000001,115.97137141227729L71.65314,118.24806618690498L71.734104,122.65544342994697L72.386314,121.6305087804795L72.674186,130.51710891723638L73.35338399999999,128.65882802009588L73.470332,126.28496754169471L74.33394799999999,117.93135452270515L74.365434,119.08046293258674L74.87370800000001,120.52771496772773L74.887202,123.73049068450935L74.98166,123.14538645744331L75.24704200000001,112.04043316841133L75.440456,129.4114665985108L75.82278600000001,117.59607481956489L75.962224,121.19468736648567L76.03419199999999,113.82929491996772L76.11065799999999,125.509013414383L76.290578,105.79376506805426L76.49748600000001,109.79686546325689L76.501984,117.28453266620643L76.60094,124.1086034774781L76.75837,139.47787570953375L76.875318,122.80261623859413L76.9158,131.9758604764939L77.149696,124.51773333549507L77.16319,123.99529623985298L77.316122,123.53995728492744L77.334114,126.28201353549964L77.437568,127.40210938453681L77.464556,124.6572046279908L77.473552,118.35599291324623L77.68046,128.0281476974488L78.049296,121.74360501766212L78.134758,127.04361963272102L78.17524,124.86799407005317L78.481104,121.33046615123756L78.4901,131.8290041685105L78.75998,113.14839649200447L79.475162,128.56778132915503L79.71355600000001,124.84499502182014L79.803516,133.45782208442694L79.942954,123.64503550529487L79.983436,117.57613527774818L80.059902,124.64496660232551L80.13636799999999,126.25278997421272L80.505204,132.9761080741883L80.60865799999999,132.09264922142034L80.67163,119.96961879730232L81.00448200000001,122.6480584144593L81.517254,129.1050939559937L81.949062,129.79949641227728L81.971552,116.49802851676948L82.13347999999999,130.50571489334112L82.272918,127.33163523674018L82.709224,126.3209431171418L82.826172,129.39226555824285L82.844164,128.27828872203833L82.91613199999999,123.93706011772163L83.105048,130.5048708915711L83.39292,129.55536890029913L83.406414,124.45253419876106L83.478382,129.7832493782044L83.91019,121.65582883358009L84.148584,126.07723760604866L85.106658,131.84556770324713L85.232602,126.38529825210578L85.70939,127.00753855705268L86.033246,128.8025193214417L86.312122,132.41843390464788L86.662966,133.07337927818304L86.739432,126.42443883419044L86.86087799999999,134.6404795646668L86.95533599999999,136.81737112998968L87.009312,131.60091269016272L87.07678200000001,124.99375033378608L87.333168,124.10744297504432L87.66152199999999,129.6594976186753L88.156302,134.5662074089051L88.394696,127.67240095138557L88.412688,132.37032580375677L88.853492,139.74225926399237L89.04240800000001,132.31419968605047L89.271806,126.46368491649635L89.37526,138.4513585567475L89.640642,132.8820018768311L89.654136,131.68309736251837L90.07694799999999,141.8744187355042L90.22988000000001,124.13983154296882L90.38730999999999,127.03929412364967L90.562732,129.9391787052155L90.97654800000001,130.46172130107885L91.075504,124.96041226387031L91.44434,148.38293838500985L92.078558,126.30216407775886L92.375426,127.33269023895271L92.406912,125.75672793388374L92.44739399999999,138.33393681049353L92.52386000000001,127.03285861015327L92.604824,121.13434123992927L92.870206,139.00333571434027L93.095106,129.06036186218267L93.306512,137.59765076637274L93.58988599999999,127.20619547367103L93.92723600000001,138.3614723682404L93.954224,137.15971934795385L94.089164,134.20180964469915L94.12964600000001,127.5137286186219L94.174626,137.89094138145452L94.588442,125.43664026260383L94.62892400000001,139.6530060768128L94.646916,125.21973180770881L94.723382,125.4395942687989L95.011254,127.00985956192024L95.096716,147.35515522956857L95.703946,123.78777730464942L95.98732000000001,135.33034551143652L96.194228,117.12364482879646L96.39214000000001,143.4906821250916L96.778968,125.800299525261L97.039852,135.74791538715368L97.710054,128.20697057247168L97.71905000000001,129.81236743927008L97.86298599999999,143.68248152732855L98.00242399999999,111.50955605506904L98.267806,144.48491621017462L98.91102,118.20554959774024L99.01897199999999,138.86112141609198L99.059454,136.8262331485749L99.306844,138.54198324680334L99.986042,129.7184722423554L100.049014,129.06700837612158L100.50781,131.76127302646643L100.602268,135.03040838241583L101.20050200000001,135.88664817810064L101.524358,141.18792879581457L101.623314,127.54474568367011L101.69978,131.22659790515905L101.906688,141.03653597831732L102.05962,128.15559196472174L102.35199,131.52811753749853L102.71183,130.80691802501684L103.053678,142.12297725677496L103.215606,126.50155949592597L103.714884,134.36449098587042L103.719382,129.3309699296952L103.87231399999999,135.15257763862616L103.93528599999999,134.41080558300024L104.124202,146.2135373353959L104.875368,134.14705502986914L105.014806,147.56731617450723L105.167738,139.84037446975714L105.653522,129.35365247726446L105.801956,141.8657677173615L105.88292,148.82287430763253L105.891916,135.59610056877142L105.999868,132.9290549755097L106.004366,135.6429426670075L106.01786,135.67448723316198L106.10332199999999,141.9911019802094L106.260752,133.84268689155584L106.40019,143.00917911529547L106.57561199999999,134.24369323253637L106.620592,140.95445680618292L107.020914,122.68055248260505L107.08388599999999,134.98493778705603L107.214328,124.24733626842506L107.25031200000001,138.14466941356665L107.380754,138.148994922638L107.826056,138.87388694286352L108.865094,135.81490802764898L108.99103799999999,141.8444566726685L109.03152,143.69176554679876L109.157464,143.17312645912176L109.31489400000001,135.74728238582617L109.36887,146.35722863674172L109.65674200000001,145.9998993873597L110.26397200000001,144.66933059692388L110.506864,134.44910216331488L111.105098,144.63968503475195L111.10959600000001,121.01280498504646L111.739316,151.66536676883706L112.283574,135.4785733222962L112.31506,135.9970014095307L112.87731,137.92786645889288L113.38558400000001,130.20546126365667L113.471046,123.03176271915443L113.59699,158.99014163017281L113.695946,130.7102798223496L113.79040400000001,137.47273850440985L114.096268,119.8412250280381L114.33466200000001,142.82560873031622L114.595546,133.96981465816503L114.79345799999999,139.47238969802862L115.75603000000001,145.02729284763345L115.836994,135.1701961755753L115.93594999999999,141.74380946159368L115.962938,151.28007996082314L116.45322,127.18836593627937L116.516192,151.2477968931199L116.56567,156.9459693431855L116.81306000000001,148.17352044582375L116.862538,137.7432410717011L116.889526,123.66318154335029L117.15490799999999,133.6804275512696L117.276354,150.06091940402993L117.37980800000001,159.7455232143403L117.694668,137.5919537544251L117.793624,126.54207158088691L117.942058,154.9273281097413L118.05001,138.81364631652838L118.22993,135.40482866764074L118.310894,138.5254197120667L118.337882,146.91268730163583L118.35137599999999,139.83077394962316L118.693224,142.96465802192694L118.697722,151.31426203250894L118.90912800000001,132.05255913734442L119.04856600000001,139.42681360244757L119.170012,139.8262374401093L119.183506,142.36235725879675L119.205996,153.01629710197457L119.525354,151.13406765460977L119.574832,132.1450828313828L119.79523400000001,141.0318939685822L120.05162,134.15475654602056L120.25402999999999,126.91891837120063L120.43844800000001,140.3293679952622L120.496922,145.0444893836976L120.50142000000001,138.81987082958227L120.600376,148.17394244670876L120.67234400000001,135.75382339954382L121.171622,137.21985447406774L121.26608,132.66519892215734L121.576442,142.87350583076483L121.58993600000001,140.3138594627381L121.594434,136.74731898307806L121.810338,136.56839060783392L121.91829,133.2227675914765L122.512026,124.83877050876625L122.87186600000001,139.63623154163366L122.93034,123.60209691524513L123.21821200000001,148.2981162071229L123.510582,127.08244371414192L123.614036,140.06424593925482L123.991868,137.09008920192724L124.005362,151.10378909111031L124.02785200000001,144.1907815933228L124.329218,141.55644106864935L124.41018199999999,132.48489904403692L124.747532,143.86436390876776L124.92295399999999,140.33348250389105L125.633638,119.10145747661598L125.82255400000001,140.88693666458136L125.827052,131.1621372699738L126.119422,137.64913487434393L126.14641,130.33997404575354L126.263358,133.6943535804749L126.357816,155.20067918300637L126.384804,124.96906328201301L127.095488,138.30239224433905L128.17051,132.44364845752722L128.228984,143.30647873878485L128.38191600000002,132.14392232894903L128.489868,131.30087006092077L128.55284,142.8145312070847L128.678784,142.1739338636399L129.191556,137.48624253273016L129.348986,139.4498126506806L129.515412,141.08169007301336L129.92473,146.06636452674874L130.50947,134.23462021350866L130.84682,141.9108163118363L131.25164,147.56573367118844L131.265134,133.50023317337042L131.92633999999998,141.0310499668122L131.944332,140.02668786048895L132.137746,129.72522425651556L132.18722400000001,142.42006587982183L132.232204,137.2434865236283L132.385136,139.6419285535813L132.430116,136.87602925300604L132.547064,143.313230752945L132.749474,133.82158684730535L132.852928,141.2388854026795L133.082326,138.29943823814398L133.190278,139.0973364114762L133.27574,143.9443330764771L133.487146,139.0915338993073L133.99542,133.63284695148474L134.215822,139.00249171257025L134.58016,136.41678678989416L134.629638,149.44258260726937L134.719598,149.24962270259866L135.04795199999998,141.6497032642365L135.304338,140.15909063816076L135.78562399999998,135.5904035568238L136.419842,139.41035556793219L136.595264,143.59955835342413L136.725706,142.20421242713934L137.117032,137.912041425705L137.332936,140.48920083045965L137.34193199999999,142.59087073802954L137.512856,140.4587112665177L137.61631,149.19064807891854L137.935668,139.6765326261521L138.569886,138.969786643982L138.857758,153.08845925331124L139.298562,137.84831929206854L139.33454600000002,131.87742877006536L140.01824200000001,135.65074968338018L140.117198,135.76616692543035L140.265632,146.62804770469674L140.598484,139.1490315198899L140.77390599999998,141.89446377754217L141.16073400000002,143.03323316574102L141.48908799999998,134.5278053283692L141.601538,146.30331802368173L141.660012,149.07881784439095L141.70049400000002,152.24466848373422L142.055836,125.90147423744209L142.32121800000002,154.6384685039521L142.83399,143.74493765831L142.90146,142.42892789840704L143.25680200000002,145.9777443408967L143.64812799999999,141.18402528762823L144.04845,144.5138232707978L144.214876,138.36252737045294L144.372306,132.7363060712815L144.70515799999998,149.0434752702714L145.26290999999998,140.5860500335694L145.35736799999998,136.59138965606695L145.39785,141.55781257152563L145.469818,141.3080935478211L145.753192,140.6854312419892L145.75769000000003,139.05059981346136L145.82066200000003,137.69418346881872L146.373916,143.02827465534216L146.423394,146.61053466796884L146.873194,141.0405449867249L147.17455999999999,139.76684081554419L148.07415999999998,138.12008786201483L148.645406,145.12066054344186L148.649904,141.96367192268377L148.780346,143.59955835342413L148.78934199999998,148.2377700805665L149.234644,141.7104713916779L149.909344,129.58501446247107L150.197216,133.39810895919805L150.224204,134.63436055183416L150.251192,129.33571743965155L150.269184,148.69458603858956L150.273682,132.53880965709692L150.790952,148.94926357269296L151.038342,134.44931316375738L151.578102,144.80869638919836L151.82999,140.20150172710424L152.270794,140.94432878494268L152.31577399999998,138.90353250503546L152.34725999999998,135.69695878028875L152.428224,148.4125839471818L152.68461000000002,147.53197360038766L152.882522,132.3806648254395L153.26935,140.94158577919012L153.67866800000002,138.41728198528295L153.68766399999998,144.41918957233435L153.8316,144.90501809120184L153.912564,142.34347271919256L155.185498,143.53414821624762L155.302446,141.8005685806275L155.50035799999998,135.48954534530645L155.74774799999997,137.3803203105927L156.026624,145.9548507928849L156.08509800000002,147.63852882385262L156.49891399999998,139.22414767742163L156.629356,132.64325487613684L156.80477800000003,146.33961009979257L158.06421799999998,144.90628409385687L158.41956000000002,139.8218064308167L158.536508,138.84698438644415L158.635464,150.35262751579293L158.720926,141.68747234344488L158.83337600000002,151.58887910842904L158.90534399999999,141.6193192005158L158.95932000000002,134.05178833007818L159.15273399999998,142.33345019817358L159.45859800000002,142.08257067203527L159.73747400000002,142.65934038162237L160.67305800000003,149.1497139930726L160.704544,135.24309682846075L160.745026,139.16707205772406L160.969926,144.63303852081305L160.98342000000002,144.33447289466864L161.077878,144.079689860344L161.21731599999998,144.6351485252381L161.302778,152.02343451976785L161.91450600000002,163.54205417633065L162.278844,132.74833309650427L162.283342,144.27349376678472L162.436274,155.08473443984994L163.05249999999998,149.84263944625863L163.07499,143.63521742820745L163.191938,148.22173404693612L163.398846,147.38490629196176L163.466316,143.51674067974096L163.835152,146.88272523880013L164.02856599999998,155.844125032425L164.145514,156.7159788608552L164.32993199999999,138.8692449331284L164.523346,153.52417516708383L165.11708199999998,149.7568677663804L165.14856799999998,143.98590016365057L165.16656,141.5068559646607L165.625356,142.14112329483038L165.805276,142.19334590435034L166.228088,144.71406269073492L166.29106000000002,142.45488095283514L166.372024,137.92617845535284L166.56094,147.61848378181466L167.78439600000002,143.16827344894415L168.02279,132.5073705911637L168.558052,151.85484516620645L169.376688,135.65285968780523L169.54311399999997,140.31090545654303L169.965926,145.3687970638276L170.681108,139.651001572609L170.798056,144.30197882652288L170.97797599999998,145.97500133514413L171.184884,143.71592509746557L171.477254,150.10132598876962L171.50874,143.5252861976624L171.544724,142.19218540191656L171.760628,145.49096632003793L171.80111,157.39793229103097L172.066492,148.4888606071473L172.124966,143.30542373657232L172.777176,147.6982419490815L172.831152,145.3388350009919L172.97958599999998,139.82676494121557L173.168502,139.21549665927893L173.460872,148.5928838253022L173.793724,141.7277734279633L174.00512999999998,143.73132812976843L174.29749999999999,144.38300299644476L174.427942,149.17756605148324L174.486416,146.06963503360757L174.796778,137.1576093435288L174.81027200000003,146.2419168949128L175.003686,141.33911061286932L175.224088,155.64747262001046L175.475976,137.6911239624024L176.06971199999998,144.26494824886328L176.105696,143.0931572914124L176.137182,142.35064673423773L176.555496,142.80493068695074L176.609472,141.649914264679L176.699432,143.5769813060761L177.212204,140.3398125171662L177.230196,147.10786271095284L177.351642,143.8879959583283L177.360638,142.14608180522924L177.765458,141.81976962089544L178.080318,146.91648530960092L178.201764,157.07140910625466L178.23325,142.5314741134644L178.24674399999998,150.51868486404427L178.359194,143.32525777816778L178.970922,139.8735015392304L179.384738,146.08387756347665L179.416224,155.54904091358193L179.821044,141.65645527839666L179.861526,147.4861865043641L179.915502,130.85439312458044L180.00096399999998,140.3637610673905L180.07743,152.91522789001473L180.320322,143.08640527725225L180.37429799999998,150.53028988838204L180.486748,143.94380557537085L180.65317399999998,148.46607255935677L180.914058,141.27296197414404L181.12096599999998,146.68343532085427L181.20642800000002,141.03178846836096L181.23791400000002,143.35289883613592L181.444822,142.63655233383184L181.678718,134.29148483276373L181.69221199999998,140.10359752178198L181.849642,152.52255606651315L182.434382,153.06377220153817L182.66827800000002,138.9273755550385L182.672776,142.6515333652497L182.767234,140.33232200145727L183.014624,141.8830697536469L183.40595,143.34751832485205L183.410448,158.04749715328225L183.58137200000002,149.78862333297738L183.73880200000002,142.73276853561407L183.779284,139.7712718248368L183.95470600000002,141.61699819564825L184.17510800000002,137.133449792862L184.42249800000002,151.35698962211617L184.566434,155.9781103134156L184.993744,144.90385758876806L185.67744,164.2575566768647L185.897842,159.86188995838174L186.05977,140.5498634576798L186.33864599999998,137.608622789383L186.684992,140.94348478317266L186.698486,144.50496125221258L187.040334,154.6766595840455L187.134792,151.40910673141488L187.17077600000002,140.40817666053778L187.22925,152.44427490234384L187.23824599999998,142.06516313552862L187.26523400000002,144.53724431991583L187.70603799999998,145.09934949874886L187.715034,143.74198365211493L188.10636000000002,150.82706201076516L188.119854,144.3587379455567L188.2413,142.6066957712174L189.010458,144.2136751413346L189.041944,145.19883620738992L189.338812,136.95293891429907L189.361302,150.99364686012277L189.829094,146.28306198120126L189.90556,142.77813363075262L190.20692599999998,141.2912135124207L190.296886,148.32280325889596L190.778172,147.03063654899606L191.012068,141.9605069160462L191.07953799999999,149.57393038272866L191.147008,152.80244815349587L191.218976,149.31302833557137L191.27745,148.66399097442635L191.43488,146.27314496040353L191.520342,148.66019296646127L191.551828,145.86781311035165L192.599862,151.2431548833848L192.869742,153.53430318832406L193.004682,145.35698103904733L193.090144,141.03094446659094L193.490466,147.15196180343636L193.665888,150.56658196449288L193.68388000000002,140.54290044307714L193.724362,147.15871381759652L193.75135,147.8366582393647L193.8638,146.37031066417703L194.12018600000002,143.13451337814337L194.776894,133.55340528488165L195.298662,144.59780144691473L195.447096,145.09502398967751L195.93737800000002,137.20075893402105L195.964366,147.6636378765107L196.00484799999998,147.2035514116288L196.58509,143.91289401054388L196.738022,150.51193284988412L197.88951,144.08359336853033L197.97497199999998,146.50165843963632L198.168386,140.8542315959931L198.478748,146.5935491323472L199.445818,149.60526394844064L199.900116,141.27623248100286L200.14750600000002,148.85104286670693L200.214976,145.85230457782754L200.525338,142.1102117300034L200.67827,147.17833685874947L201.011122,142.51522707939154L201.08309,143.35796284675604L201.132568,146.23432087898263L201.28549999999998,146.41979026794442L201.64534,144.40811204910284L201.919718,162.5157480239869L201.924216,147.0156555175782L202.18509999999998,146.05665850639352L202.27506000000002,146.1680667400361L202.468474,141.77936303615576L202.49096400000002,150.7746284008027L202.81482,154.64036750793466L203.449038,150.98731684684762L203.552492,136.4355658292771L203.55698999999998,136.1682282686234L204.168718,138.14393091201788L204.600526,149.2601727247239L204.86590800000002,141.98561596870428L204.915386,147.5578211545945L206.192818,145.731295824051L206.37723599999998,149.69536113739022L206.692096,144.66099607944494L206.81804,143.17797946929937L207.047438,145.29389190673837L207.483744,144.26674175262457L207.62318199999999,139.8950235843659L207.645672,140.74873137474066L207.722138,140.78270244598394L207.951536,147.7018289566041L208.12246,145.18206167221078L209.040052,146.67910981178292L209.36390799999998,149.48805320262917L209.836198,153.9814131259919L210.22752400000002,152.88547682762155L210.2815,150.43829369544991L210.425436,150.6517206430436L210.55138,147.58387970924386L210.94270600000002,153.89585244655618L210.987686,146.00222039222726L211.014674,147.28236007690438L211.032666,153.74794113636025L211.172104,140.11024403572088L211.1811,142.33777570724493L211.244072,152.55589413642892L211.27105999999998,153.19374847412118L211.599414,156.7123918533326L212.71042,147.46012794971475L213.106244,150.3105329275132L213.223192,149.58068239688882L213.628012,151.39138269424447L213.749458,151.62496018409738L214.06431800000001,142.2133909463883L214.370182,146.61264467239388L214.44215,148.2299630641938L214.739018,148.35403132438668L214.95492199999998,145.2784888744355L215.02689,146.46357285976418L215.157332,143.24813711643225L215.269782,141.17284226417547L215.355244,152.55779314041146L216.002956,149.14739298820504L216.03894000000003,144.44398212432867L216.326812,151.17996025085458L216.44825799999998,140.63489663600927L217.055488,143.3087997436524L217.086974,151.66589426994332L217.167938,146.96459341049203L217.631232,141.8114351034165L217.739184,138.0709247589112L217.784164,138.32813429832464L217.847136,151.1457781791688L218.126012,142.17066335678106L218.553322,150.8132414817811L218.85019,148.34464180469521L218.90866400000002,153.57671427726754L219.0526,142.70723748207098L219.13356399999998,148.0973492860795L219.178544,141.39608073234564L219.273002,156.0724275112153L219.763284,148.94757556915292L220.078144,143.07152974605566L220.518948,154.09482586383828L221.045214,147.40600633621224L221.216138,144.0581678152085L221.364572,152.60041522979745L221.441038,150.58989751338967L221.61646000000002,131.5348695516587L222.704976,149.2877082824708L222.77694400000001,153.34229278564462L223.424656,157.4794839620591L223.658552,154.1198294162751L223.856464,162.87012326717385L224.013894,152.7564500570298L224.14883400000002,148.15822291374215L224.256786,154.10600888729104L224.36473800000002,159.3311183452607L224.400722,165.04543232917794L224.4502,154.26489222049722L224.454698,163.52433013916024L224.72457799999998,168.35761177539834L224.846024,150.9864728450776L224.86401600000002,141.64295125007635L224.931486,144.99121177196508L225.04843400000001,144.02314174175268L225.09791199999998,147.34460520744332L225.14739,152.12861824035653L225.295824,145.14998960495004L225.678154,149.17440104484567L225.916548,142.12825226783758L225.93454,145.20147371292123L225.99301400000002,145.12583005428323L226.352854,147.71744298934945L226.37084599999997,152.0925371646882L226.49229200000002,144.1726355552674L226.532774,144.33848190307623L226.9241,145.70101726055154L226.955586,147.32434916496285L227.15349799999998,154.17743253707894L227.391892,147.1834008693696L227.54932200000002,141.02345395088201L227.56731399999998,148.75408816337594L227.841692,156.26369941234597L228.277998,166.83471608161935L228.448922,140.4784398078919L228.65582999999998,146.97535443305978L228.660328,143.4856181144715L228.673822,148.97795963287362L228.92571,144.68220162391668L229.303542,140.41239666938787L229.411494,150.2089362144471L229.631896,161.45800280570992L229.694868,152.92472290992745L230.36057200000002,156.0812895298005L230.495512,147.84119474887856L230.760894,144.06470882892614L230.99029199999998,137.93187546730047L231.91688000000002,148.70176005363473L231.957362,152.47465896606454L232.047322,150.77104139328011L232.18676,151.48253488540658L232.19575600000002,147.61869478225717L232.80298599999998,149.2794792652131L232.964914,128.7175916433335L233.162826,157.73975300788888L233.42820799999998,167.68589186668405L233.48218400000002,153.18921196460732L233.990458,142.61144328117376L234.156884,144.00330770015722L234.296322,146.4100842475892L234.45375199999998,155.47983276844033L235.128452,141.27496647834784L235.168934,149.5432298183442L235.29038,150.59570002555856L235.42532,159.97699069976815L235.578252,149.2386506795884L235.780662,151.93776834011086L235.81664600000002,156.92022728919991L235.94259,154.52695477008828L236.450864,148.0567317008973L236.522832,149.4090335369111L236.626286,156.90556275844583L236.801708,147.53598260879525L236.878174,145.92731523513802L237.26500199999998,145.04375088214883L237.305484,138.15680193901068L237.458416,149.0845148563386L237.97568600000002,144.61109447479254L238.151108,148.14028787612924L238.385004,148.34727931022653L239.680428,142.1198122501374L239.774886,151.91297578811654L240.409104,151.1721532344819L240.60251799999998,148.3595173358918L240.840912,151.6948013305665L240.872398,147.4298493862153L240.962358,148.41353344917306L241.079306,146.08978557586678L241.484126,142.88542735576635L241.71802200000002,148.89788496494302L241.987902,156.05744647979745L242.019388,150.54421591758737L242.14983,153.91114997863778L242.38822399999998,139.56660139560705L242.406216,135.91597723960882L242.46469000000002,155.3299169540406L242.52766200000002,143.8227968215943L242.635614,157.4424533843995L242.68959,126.69778990745552L242.833526,148.93554854393014L242.865012,148.0267696380616L242.927984,146.4939569234849L243.436258,132.42381441593176L243.485736,137.4506889581681L243.512724,139.60257697105413L243.69714199999999,142.0962857007981L243.715134,144.92295312881475L243.778106,153.59517681598672L243.88155999999998,158.02375960350045L244.358348,149.6268914937974L244.551762,151.42577576637277L244.74967400000003,148.3120422363282L244.830638,146.57382059097299L244.90260600000002,153.4062259197236L245.037546,148.23407757282266L245.347908,148.78732073307046L245.910158,151.55585753917703L246.10357199999999,148.1434528827668L246.112568,146.02426993846902L246.278994,144.97464823722845L246.283492,147.6461248397828L246.328472,144.9699007272721L246.36445600000002,151.53739500045785L246.47690599999999,145.55616545677194L246.85023999999999,147.1625118255616L246.87273000000002,149.11025691032418L246.94019999999998,147.66131687164315L247.81281199999998,149.66940808296212L248.433536,152.1969823837281L249.387112,151.5962641239167L249.737956,145.9954683780671L249.980848,140.84125506877905L250.09329799999998,146.07206153869637L250.660046,140.81308650970465L251.02438400000003,150.50296533107766L251.24478599999998,143.94359457492834L251.298762,146.85698318481454L251.384224,155.83758401870736L251.64960599999998,155.28212535381326L252.17137400000001,141.67175281047827L252.526716,145.18923568725594L252.715632,152.04495656490334L253.008002,134.1347115039826" style="fill: none;" fill="none"></path></g></g></g></g></g></g><g transform="translate(48, 177)" clip-path="url(#clip_1)"><clipPath id="clip_1"><rect width="281" height="23"></rect></clipPath><g><g><line x1="0" y1="0" x2="0" y2="5" style="visibility: inherit;" fill="rgb(0, 0, 0)" stroke="rgb(204, 204, 204)" stroke-width="1px"></line><line x1="28.1125" y1="0" x2="28.1125" y2="5" style="visibility: inherit;" fill="rgb(0, 0, 0)" stroke="rgb(204, 204, 204)" stroke-width="1px"></line><line x1="56.225" y1="0" x2="56.225" y2="5" style="visibility: inherit;" fill="rgb(0, 0, 0)" stroke="rgb(204, 204, 204)" stroke-width="1px"></line><line x1="84.33749999999999" y1="0" x2="84.33749999999999" y2="5" style="visibility: inherit;" fill="rgb(0, 0, 0)" stroke="rgb(204, 204, 204)" stroke-width="1px"></line><line x1="112.45" y1="0" x2="112.45" y2="5" style="visibility: inherit;" fill="rgb(0, 0, 0)" stroke="rgb(204, 204, 204)" stroke-width="1px"></line><line x1="140.5625" y1="0" x2="140.5625" y2="5" style="visibility: inherit;" fill="rgb(0, 0, 0)" stroke="rgb(204, 204, 204)" stroke-width="1px"></line><line x1="168.67499999999998" y1="0" x2="168.67499999999998" y2="5" style="visibility: inherit;" fill="rgb(0, 0, 0)" stroke="rgb(204, 204, 204)" stroke-width="1px"></line><line x1="196.7875" y1="0" x2="196.7875" y2="5" style="visibility: inherit;" fill="rgb(0, 0, 0)" stroke="rgb(204, 204, 204)" stroke-width="1px"></line><line x1="224.9" y1="0" x2="224.9" y2="5" style="visibility: inherit;" fill="rgb(0, 0, 0)" stroke="rgb(204, 204, 204)" stroke-width="1px"></line><line x1="253.01250000000002" y1="0" x2="253.01250000000002" y2="5" style="visibility: inherit;" fill="rgb(0, 0, 0)" stroke="rgb(204, 204, 204)" stroke-width="1px"></line><line x1="281.125" y1="0" x2="281.125" y2="5" style="visibility: inherit;" fill="rgb(0, 0, 0)" stroke="rgb(204, 204, 204)" stroke-width="1px"></line></g><g transform="translate(0, 8)"><text x="0" y="0" dx="0em" dy="0.95em" style="text-anchor: middle; visibility: hidden; font-family: &quot;Helvetica Neue&quot;, sans-serif; font-size: 12px; font-weight: 200;" fill="rgb(50, 49, 63)" stroke="none" stroke-width="1px">-50k</text><text x="28.1125" y="0" dx="0em" dy="0.95em" style="text-anchor: middle; visibility: inherit; font-family: &quot;Helvetica Neue&quot;, sans-serif; font-size: 12px; font-weight: 200;" fill="rgb(50, 49, 63)" stroke="none" stroke-width="1px">0</text><text x="56.225" y="0" dx="0em" dy="0.95em" style="text-anchor: middle; visibility: hidden; font-family: &quot;Helvetica Neue&quot;, sans-serif; font-size: 12px; font-weight: 200;" fill="rgb(50, 49, 63)" stroke="none" stroke-width="1px">50k</text><text x="84.33749999999999" y="0" dx="0em" dy="0.95em" style="text-anchor: middle; visibility: inherit; font-family: &quot;Helvetica Neue&quot;, sans-serif; font-size: 12px; font-weight: 200;" fill="rgb(50, 49, 63)" stroke="none" stroke-width="1px">100k</text><text x="112.45" y="0" dx="0em" dy="0.95em" style="text-anchor: middle; visibility: hidden; font-family: &quot;Helvetica Neue&quot;, sans-serif; font-size: 12px; font-weight: 200;" fill="rgb(50, 49, 63)" stroke="none" stroke-width="1px">150k</text><text x="140.5625" y="0" dx="0em" dy="0.95em" style="text-anchor: middle; visibility: inherit; font-family: &quot;Helvetica Neue&quot;, sans-serif; font-size: 12px; font-weight: 200;" fill="rgb(50, 49, 63)" stroke="none" stroke-width="1px">200k</text><text x="168.67499999999998" y="0" dx="0em" dy="0.95em" style="text-anchor: middle; visibility: hidden; font-family: &quot;Helvetica Neue&quot;, sans-serif; font-size: 12px; font-weight: 200;" fill="rgb(50, 49, 63)" stroke="none" stroke-width="1px">250k</text><text x="196.7875" y="0" dx="0em" dy="0.95em" style="text-anchor: middle; visibility: inherit; font-family: &quot;Helvetica Neue&quot;, sans-serif; font-size: 12px; font-weight: 200;" fill="rgb(50, 49, 63)" stroke="none" stroke-width="1px">300k</text><text x="224.9" y="0" dx="0em" dy="0.95em" style="text-anchor: middle; visibility: hidden; font-family: &quot;Helvetica Neue&quot;, sans-serif; font-size: 12px; font-weight: 200;" fill="rgb(50, 49, 63)" stroke="none" stroke-width="1px">350k</text><text x="253.01250000000002" y="0" dx="0em" dy="0.95em" style="text-anchor: middle; visibility: inherit; font-family: &quot;Helvetica Neue&quot;, sans-serif; font-size: 12px; font-weight: 200;" fill="rgb(50, 49, 63)" stroke="none" stroke-width="1px">400k</text><text x="281.125" y="0" dx="0em" dy="0.95em" style="text-anchor: middle; visibility: hidden; font-family: &quot;Helvetica Neue&quot;, sans-serif; font-size: 12px; font-weight: 200;" fill="rgb(50, 49, 63)" stroke="none" stroke-width="1px">450k</text></g><line x1="0" y1="0" x2="281.125" y2="0" fill="rgb(0, 0, 0)" stroke="rgb(204, 204, 204)" stroke-width="1px"></line></g></g></g></g></svg>