<svg viewBox="0 0 330 200" xmlns="http://www.w3.org/2000/svg"><g><g><g><g><g><line x1="58.59375" y1="177" x2="53.59375" y2="177" style="visibility: inherit;" fill="rgb(0, 0, 0)" stroke="rgb(204, 204, 204)" stroke-width="1px"></line><line x1="58.59375" y1="163.3846153846154" x2="53.59375" y2="163.3846153846154" style="visibility: inherit;" fill="rgb(0, 0, 0)" stroke="rgb(204, 204, 204)" stroke-width="1px"></line><line x1="58.59375" y1="149.76923076923077" x2="53.59375" y2="149.76923076923077" style="visibility: inherit;" fill="rgb(0, 0, 0)" stroke="rgb(204, 204, 204)" stroke-width="1px"></line><line x1="58.59375" y1="136.15384615384616" x2="53.59375" y2="136.15384615384616" style="visibility: inherit;" fill="rgb(0, 0, 0)" stroke="rgb(204, 204, 204)" stroke-width="1px"></line><line x1="58.59375" y1="122.53846153846153" x2="53.59375" y2="122.53846153846153" style="visibility: inherit;" fill="rgb(0, 0, 0)" stroke="rgb(204, 204, 204)" stroke-width="1px"></line><line x1="58.59375" y1="108.92307692307692" x2="53.59375" y2="108.92307692307692" style="visibility: inherit;" fill="rgb(0, 0, 0)" stroke="rgb(204, 204, 204)" stroke-width="1px"></line><line x1="58.59375" y1="95.3076923076923" x2="53.59375" y2="95.3076923076923" style="visibility: inherit;" fill="rgb(0, 0, 0)" stroke="rgb(204, 204, 204)" stroke-width="1px"></line><line x1="58.59375" y1="81.6923076923077" x2="53.59375" y2="81.6923076923077" style="visibility: inherit;" fill="rgb(0, 0, 0)" stroke="rgb(204, 204, 204)" stroke-width="1px"></line><line x1="58.59375" y1="68.07692307692307" x2="53.59375" y2="68.07692307692307" style="visibility: inherit;" fill="rgb(0, 0, 0)" stroke="rgb(204, 204, 204)" stroke-width="1px"></line><line x1="58.59375" y1="54.46153846153847" x2="53.59375" y2="54.46153846153847" style="visibility: inherit;" fill="rgb(0, 0, 0)" stroke="rgb(204, 204, 204)" stroke-width="1px"></line><line x1="58.59375" y1="40.84615384615387" x2="53.59375" y2="40.84615384615387" style="visibility: inherit;" fill="rgb(0, 0, 0)" stroke="rgb(204, 204, 204)" stroke-width="1px"></line><line x1="58.59375" y1="27.230769230769226" x2="53.59375" y2="27.230769230769226" style="visibility: inherit;" fill="rgb(0, 0, 0)" stroke="rgb(204, 204, 204)" stroke-width="1px"></line><line x1="58.59375" y1="13.615384615384613" x2="53.59375" y2="13.615384615384613" style="visibility: inherit;" fill="rgb(0, 0, 0)" stroke="rgb(204, 204, 204)" stroke-width="1px"></line><line x1="58.59375" y1="0" x2="53.59375" y2="0" style="visibility: inherit;" fill="rgb(0, 0, 0)" stroke="rgb(204, 204, 204)" stroke-width="1px"></line></g><g transform="translate(48.59375, 0)"><text x="0" y="177" dx="0em" dy="0.3em" style="text-anchor: end; visibility: hidden; font-family: &quot;Helvetica Neue&quot;, sans-serif; font-size: 12px; font-weight: 200;" fill="rgb(50, 49, 63)" stroke="none" stroke-width="1px">-0.01</text><text x="0" y="163.3846153846154" dx="0em" dy="0.3em" style="text-anchor: end; visibility: inherit; font-family: &quot;Helvetica Neue&quot;, sans-serif; font-size: 12px; font-weight: 200;" fill="rgb(50, 49, 63)" stroke="none" stroke-width="1px">0</text><text x="0" y="149.76923076923077" dx="0em" dy="0.3em" style="text-anchor: end; visibility: hidden; font-family: &quot;Helvetica Neue&quot;, sans-serif; font-size: 12px; font-weight: 200;" fill="rgb(50, 49, 63)" stroke="none" stroke-width="1px">0.01</text><text x="0" y="136.15384615384616" dx="0em" dy="0.3em" style="text-anchor: end; visibility: inherit; font-family: &quot;Helvetica Neue&quot;, sans-serif; font-size: 12px; font-weight: 200;" fill="rgb(50, 49, 63)" stroke="none" stroke-width="1px">0.02</text><text x="0" y="122.53846153846153" dx="0em" dy="0.3em" style="text-anchor: end; visibility: hidden; font-family: &quot;Helvetica Neue&quot;, sans-serif; font-size: 12px; font-weight: 200;" fill="rgb(50, 49, 63)" stroke="none" stroke-width="1px">0.03</text><text x="0" y="108.92307692307692" dx="0em" dy="0.3em" style="text-anchor: end; visibility: inherit; font-family: &quot;Helvetica Neue&quot;, sans-serif; font-size: 12px; font-weight: 200;" fill="rgb(50, 49, 63)" stroke="none" stroke-width="1px">0.04</text><text x="0" y="95.3076923076923" dx="0em" dy="0.3em" style="text-anchor: end; visibility: hidden; font-family: &quot;Helvetica Neue&quot;, sans-serif; font-size: 12px; font-weight: 200;" fill="rgb(50, 49, 63)" stroke="none" stroke-width="1px">0.05</text><text x="0" y="81.6923076923077" dx="0em" dy="0.3em" style="text-anchor: end; visibility: inherit; font-family: &quot;Helvetica Neue&quot;, sans-serif; font-size: 12px; font-weight: 200;" fill="rgb(50, 49, 63)" stroke="none" stroke-width="1px">0.06</text><text x="0" y="68.07692307692307" dx="0em" dy="0.3em" style="text-anchor: end; visibility: hidden; font-family: &quot;Helvetica Neue&quot;, sans-serif; font-size: 12px; font-weight: 200;" fill="rgb(50, 49, 63)" stroke="none" stroke-width="1px">0.07</text><text x="0" y="54.46153846153847" dx="0em" dy="0.3em" style="text-anchor: end; visibility: inherit; font-family: &quot;Helvetica Neue&quot;, sans-serif; font-size: 12px; font-weight: 200;" fill="rgb(50, 49, 63)" stroke="none" stroke-width="1px">0.08</text><text x="0" y="40.84615384615387" dx="0em" dy="0.3em" style="text-anchor: end; visibility: hidden; font-family: &quot;Helvetica Neue&quot;, sans-serif; font-size: 12px; font-weight: 200;" fill="rgb(50, 49, 63)" stroke="none" stroke-width="1px">0.09</text><text x="0" y="27.230769230769226" dx="0em" dy="0.3em" style="text-anchor: end; visibility: inherit; font-family: &quot;Helvetica Neue&quot;, sans-serif; font-size: 12px; font-weight: 200;" fill="rgb(50, 49, 63)" stroke="none" stroke-width="1px">0.1</text><text x="0" y="13.615384615384613" dx="0em" dy="0.3em" style="text-anchor: end; visibility: hidden; font-family: &quot;Helvetica Neue&quot;, sans-serif; font-size: 12px; font-weight: 200;" fill="rgb(50, 49, 63)" stroke="none" stroke-width="1px">0.11</text><text x="0" y="0" dx="0em" dy="0.3em" style="text-anchor: end; visibility: hidden; font-family: &quot;Helvetica Neue&quot;, sans-serif; font-size: 12px; font-weight: 200;" fill="rgb(50, 49, 63)" stroke="none" stroke-width="1px">0.12</text></g><line x1="58.59375" y1="0" x2="58.59375" y2="177" fill="rgb(0, 0, 0)" stroke="rgb(204, 204, 204)" stroke-width="1px"></line></g></g><g transform="translate(58, 0)" clip-path="url(#clip_0)"><clipPath id="clip_0"><rect width="271" height="177"></rect></clipPath><g><g><g><line x1="0" y1="0" x2="0" y2="177" fill="rgb(0, 0, 0)" stroke="rgb(60, 60, 60)" stroke-width="1px" opacity="0.25"></line><line x1="27.140625" y1="0" x2="27.140625" y2="177" fill="rgb(0, 0, 0)" stroke="rgb(60, 60, 60)" stroke-width="1px" opacity="0.25"></line><line x1="54.28125" y1="0" x2="54.28125" y2="177" fill="rgb(0, 0, 0)" stroke="rgb(60, 60, 60)" stroke-width="1px" opacity="0.25"></line><line x1="81.421875" y1="0" x2="81.421875" y2="177" fill="rgb(0, 0, 0)" stroke="rgb(60, 60, 60)" stroke-width="1px" opacity="0.25"></line><line x1="108.5625" y1="0" x2="108.5625" y2="177" fill="rgb(0, 0, 0)" stroke="rgb(60, 60, 60)" stroke-width="1px" opacity="0.25"></line><line x1="135.703125" y1="0" x2="135.703125" y2="177" fill="rgb(0, 0, 0)" stroke="rgb(60, 60, 60)" stroke-width="1px" opacity="0.25"></line><line x1="162.84375" y1="0" x2="162.84375" y2="177" fill="rgb(0, 0, 0)" stroke="rgb(60, 60, 60)" stroke-width="1px" opacity="0.25"></line><line x1="189.984375" y1="0" x2="189.984375" y2="177" fill="rgb(0, 0, 0)" stroke="rgb(60, 60, 60)" stroke-width="1px" opacity="0.25"></line><line x1="217.125" y1="0" x2="217.125" y2="177" fill="rgb(0, 0, 0)" stroke="rgb(60, 60, 60)" stroke-width="1px" opacity="0.25"></line><line x1="244.265625" y1="0" x2="244.265625" y2="177" fill="rgb(0, 0, 0)" stroke="rgb(60, 60, 60)" stroke-width="1px" opacity="0.25"></line><line x1="271.40625" y1="0" x2="271.40625" y2="177" fill="rgb(0, 0, 0)" stroke="rgb(60, 60, 60)" stroke-width="1px" opacity="0.25"></line></g><g><line x1="0" y1="177" x2="271.40625" y2="177" fill="rgb(0, 0, 0)" stroke="rgb(60, 60, 60)" stroke-width="1px" opacity="0.25"></line><line x1="0" y1="163.3846153846154" x2="271.40625" y2="163.3846153846154" fill="rgb(0, 0, 0)" stroke="rgb(60, 60, 60)" stroke-width="1px" opacity="0.25"></line><line x1="0" y1="149.76923076923077" x2="271.40625" y2="149.76923076923077" fill="rgb(0, 0, 0)" stroke="rgb(60, 60, 60)" stroke-width="1px" opacity="0.25"></line><line x1="0" y1="136.15384615384616" x2="271.40625" y2="136.15384615384616" fill="rgb(0, 0, 0)" stroke="rgb(60, 60, 60)" stroke-width="1px" opacity="0.25"></line><line x1="0" y1="122.53846153846153" x2="271.40625" y2="122.53846153846153" fill="rgb(0, 0, 0)" stroke="rgb(60, 60, 60)" stroke-width="1px" opacity="0.25"></line><line x1="0" y1="108.92307692307692" x2="271.40625" y2="108.92307692307692" fill="rgb(0, 0, 0)" stroke="rgb(60, 60, 60)" stroke-width="1px" opacity="0.25"></line><line x1="0" y1="95.3076923076923" x2="271.40625" y2="95.3076923076923" fill="rgb(0, 0, 0)" stroke="rgb(60, 60, 60)" stroke-width="1px" opacity="0.25"></line><line x1="0" y1="81.6923076923077" x2="271.40625" y2="81.6923076923077" fill="rgb(0, 0, 0)" stroke="rgb(60, 60, 60)" stroke-width="1px" opacity="0.25"></line><line x1="0" y1="68.07692307692307" x2="271.40625" y2="68.07692307692307" fill="rgb(0, 0, 0)" stroke="rgb(60, 60, 60)" stroke-width="1px" opacity="0.25"></line><line x1="0" y1="54.46153846153847" x2="271.40625" y2="54.46153846153847" fill="rgb(0, 0, 0)" stroke="rgb(60, 60, 60)" stroke-width="1px" opacity="0.25"></line><line x1="0" y1="40.84615384615387" x2="271.40625" y2="40.84615384615387" fill="rgb(0, 0, 0)" stroke="rgb(60, 60, 60)" stroke-width="1px" opacity="0.25"></line><line x1="0" y1="27.230769230769226" x2="271.40625" y2="27.230769230769226" fill="rgb(0, 0, 0)" stroke="rgb(60, 60, 60)" stroke-width="1px" opacity="0.25"></line><line x1="0" y1="13.615384615384613" x2="271.40625" y2="13.615384615384613" fill="rgb(0, 0, 0)" stroke="rgb(60, 60, 60)" stroke-width="1px" opacity="0.25"></line><line x1="0" y1="0" x2="271.40625" y2="0" fill="rgb(0, 0, 0)" stroke="rgb(60, 60, 60)" stroke-width="1px" opacity="0.25"></line></g></g></g><g><g><line x1="0" y1="163.3846153846154" x2="271.40625" y2="163.3846153846154" fill="rgb(0, 0, 0)" stroke="rgb(153, 153, 153)" stroke-width="1.5px"></line></g></g><g><g><line x1="27.140625" y1="0" x2="27.140625" y2="177" fill="rgb(0, 0, 0)" stroke="rgb(153, 153, 153)" stroke-width="1.5px"></line></g></g><g><g><g><g><g><path stroke="rgb(255, 112, 67)" stroke-width="2px" d="M32.8683825,-1.166662257319814L32.9291775,3.6688739072090755L32.9465475,7.385448491001398L33.154987500000004,6.561401167976669L33.185385000000004,7.736728849398332L33.376455,7.252580877992955L33.50673,5.269385677242667L33.7542525,9.624308618609945L33.880185,10.920136751020436L33.949665,12.13915205595552L34.019145,13.394313029399285L34.4837925,18.42026190181653L34.670519999999996,18.423641657307428L34.683547499999996,19.35235910793611L35.148195,23.362279088530784L35.24373,25.992325719839243L35.291497500000006,27.848354896992106L35.4651975,31.20104417593464L35.53902,27.915617422897384L35.5954725,28.317032943153833L35.981955,27.13192909175399L36.242504999999994,28.75716512285237L36.6376725,33.81721850059597L36.6897825,34.002638606698866L36.828742500000004,35.047044185039425L36.8547975,39.25728252823967L36.96336,38.02858339036675L37.158772500000005,37.61694164812897L37.514857500000005,39.25747729201706L37.718954999999994,42.424456236534326L37.7927775,40.26042611833023L37.8014625,37.69637464315289L37.823175000000006,39.98352785788947L37.9317375,44.20052369488141L37.936080000000004,43.72920744083811L37.98819,42.57537540014539L38.0099025,40.9206747535593L38.135835,38.95884294880557L38.2009725,43.45048175428954L38.8002375,43.57486693504703L39.039075,48.15706397742596L40.0248225,48.60821813320075L40.33314,48.74534734656007L40.3461675,52.170813270442636L40.598032499999995,54.57369982299568L40.8672675,51.191981927369966L41.166900000000005,53.0065149621594L41.227695000000004,53.91990153071316L41.23638,55.562238574487154L41.240722500000004,56.066588195746164L41.4925875,56.98290087092866L42.252525000000006,60.35733111134692L42.85179,61.131539767801684L42.860475,60.91634326694832L43.0776,61.54152760218636L43.3859175,57.915574773936896L43.6117275,61.131328133540094L43.70292,63.36565955791829L43.7333175,63.46780348836528L44.197964999999996,67.24650375808609L44.319555,65.1381022434736L44.441145,64.79201289652384L44.666955,67.98047227598235L44.936189999999996,68.36807962756022L45.361755,66.0624263884969L45.4963725,68.14987405094054L45.518085,67.99804137641793L45.8871975,69.73244050394108L45.8958825,67.23398578912384L46.247625,68.25033850475218L46.647135,67.91790736961954L46.7209575,70.42315380308797L46.812149999999995,70.34773025647449L47.394045,70.03759753454807L47.411415000000005,72.1167374981083L47.446155,74.12776309675569L47.932514999999995,72.60729512138812L47.993309999999994,73.03527291615532L48.158325,74.48845644822325L48.210435000000004,74.62247367381954L48.39282,74.26667305590497L48.7271925,73.95070733561114L49.070249999999994,74.30727008725219L49.078935,73.70512700754182L49.31343,74.47964031091612L49.43502,75.36099707057231L49.8909825,76.71134134925879L50.3512875,76.75374571010111L50.4120825,77.85493147685911L50.676975,78.97373707069444L51.2371575,79.48819840580471L51.8016825,79.73263165867932L51.992752499999995,79.59355034769311L52.361864999999995,80.76069306842616L52.448715,80.67148199707624L52.605045,80.27417476791356L52.635442499999996,79.7910299171103L52.7917725,77.676058159875L52.882965,78.08474165274055L53.15219999999999,77.93645012514112L53.23905,79.51987486012725L53.721067500000004,78.04722870682905L53.764492499999996,81.54822412355038L54.064125,81.7277049504348L54.1205775,82.71887258783748L54.146632499999996,85.33290218401186L54.203085,83.65109752927697L54.4506075,83.03072827279027L54.550485,82.3761658094722L54.828405000000004,82.89069371494502L55.453725,82.3926989587211L55.68822,85.89516028842937L55.8141525,84.40692916377736L56.0486475,83.60177073076899L56.218005,81.29966520233427L56.231032500000005,84.62571219963533L56.283142500000004,83.6458385328674L56.41776,83.7733194485211L56.90412,86.54633887416468L57.390480000000004,82.32927604248088L57.503385,86.03027906531989L57.99843,86.76800628840635L58.03317,84.93938719557624L58.2112125,85.97539166544482L58.6107225,86.15810328270373L58.8886425,88.16388978733004L59.0970825,88.0599441116837L59.19696,87.8889784304694L59.49225,86.49851927275448L59.535675,86.4856603853954L59.5487025,89.30131154138168L59.61384,89.01089116950133L59.7571425,88.01396445184987L60.5474775,88.9445634350183L60.838425,89.49427992217831L60.960015,87.66754733024659L61.00344,89.88702468023031L61.1554275,90.47413313447937L61.8415425,90.98690056286114L62.16723,90.2375360435083L62.662275,89.94637257766655L62.8403175,89.82345076059154L63.33102,88.37249372441634L63.4569525,90.35854696471318L63.47866500000001,89.89861352219248L63.5177475,91.0991797743682L63.9085725,91.48323148388023L63.921600000000005,89.60093333843976L64.04319000000001,90.7764725638386L64.086615,92.29549901709387L64.4904675,93.46397023582944L64.6381125,93.02188503118586L64.8986625,92.10353681758687L65.4371325,91.35710698921105L65.69334,91.9257700990081L65.806245,91.18000121417286L65.8192725,93.74016859464201L65.910465,93.80757406781296L65.94086250000001,94.2871559361276L66.1927275,95.34274581164371L66.2187825,95.23412073858574L66.4619625,95.36781969836306L67.352175,94.46942307959262L67.595355,95.85061289499973L67.73431500000001,95.5368425709468L68.11211250000001,95.56349852915912L68.255415,95.64082830964236L68.5984725,95.26761122100318L68.62886999999999,92.70845588775137L68.68532250000001,93.54017056571132L68.9458725,93.71085833774481L69.0761475,94.3098727155026L69.176025,93.52167631042853L69.25419000000001,92.97250412477307L69.8838525,92.90378315836296L70.16177250000001,94.53990265391027L70.81748999999999,94.98299775059536L70.930395,94.02431576937974L71.764155,93.76545102292621L71.7945525,94.62671201853853L72.285255,95.81827440609186L72.2982825,98.9681549162798L72.389475,99.28797212190227L72.6456825,99.04841320391269L72.83241,98.49020197427502L73.2015225,101.28174791825322L73.33614,100.68739818710667L73.40562,97.7576440386229L73.47944249999999,98.630001334774L73.6531425,99.08567036846773L73.85289750000001,99.88780440714427L73.85723999999999,96.89416114859584L73.952775,96.45522539562742L74.1047625,97.67159990288104L74.21766749999999,97.42737352601597L74.25675,95.9514720177535L74.48256,98.69772753700151L74.4955875,98.69939538680542L74.6432325,97.8276353721249L74.6606025,96.43485582781554L74.76048,95.26758670388064L74.786535,97.29738430129528L74.79522,97.44487790342089L74.994975,97.96460013251439L75.35106,98.66328857935032L75.43356750000001,98.57874011982189L75.47265,99.07405381425215L75.76794000000001,100.06894542680882L75.776625,97.83930223574416L76.037175,99.10179650511753L76.7276325,99.75937218411306L76.957785,100.84079504162808L77.044635,100.80291941209923L77.1792525,101.10662592088983L77.218335,99.129653894106L77.2921575,100.64005227554728L77.36598,97.57019693699964L77.722065,99.69964682213039L77.82194249999999,99.48112681735957L77.8827375,98.3228646603833L78.2040825,99.54346473922608L78.6991275,99.76683694024895L79.1160075,101.5849176868568L79.13772,100.83900525396609L79.29405,99.9135417919581L79.4286675,100.43604991736744L79.84989,100.7134940054488L79.962795,100.0711288101129L79.980165,103.10218422324144L80.049645,103.71371234345384L80.23203,101.28849079267032L80.50995,100.97133599873965L80.5229775,100.44325373128542L80.5924575,102.4128031369454L81.0093375,103.45078670003451L81.23948999999999,102.73131781139728L82.1644425,101.68071334368625L82.2860325,100.96580237997784L82.7463375,102.48382586565924L83.0589975,100.45461457016609L83.3282325,99.66440020824993L83.66694749999999,99.6296414644589L83.74077,102.25960506587721L83.85801749999999,102.9108388504906L83.94921,102.89802860186562L84.00132,102.79026737743105L84.0664575,103.63996280071154L84.31398,103.94873720998083L84.6309825,103.64864605882016L85.10865749999999,103.76774130318587L85.33881,104.09211494175393L85.35618,104.66847138699266L85.781745,103.96354971402097L85.96413000000001,102.47795587592478L86.1855975,102.1411797457342L86.28547499999999,104.53752973810646L86.5416825,102.55652999637933L86.55470999999999,104.14807401063779L86.96290499999999,102.89458051851878L87.11055,103.20263788695948L87.2625375,104.01420854547648L87.431895,103.34028534258667L87.831405,103.08651472703697L87.92693999999999,102.51160021171619L88.28302500000001,103.78438783750782L88.8953175,104.5450029354169L89.1819225,105.82152056992679L89.21232,106.22694298116436L89.2514025,103.00163116333343L89.325225,103.80415858333247L89.40338999999999,104.74885752593745L89.65959749999999,103.39840513987657L89.8767225,104.18038159553964L90.08081999999999,102.67392163335445L90.35439749999999,103.52254837942542L90.680085,103.60977223446802L90.70614,103.19529038580605L90.836415,103.31975555917874L90.87549750000001,101.42148314096208L90.91892250000001,102.97549602036742L91.3184325,103.24396650946409L91.357515,103.27295441051243L91.374885,105.92141716895604L91.44870750000001,104.46001882087054L91.72662749999999,105.4681238612309L91.809135,105.31234449216987L92.39537250000001,105.37444100467079L92.66895000000001,105.03928313115021L92.86870499999999,107.74249791134511L93.059775,105.90937568746094L93.43323,104.24670736515847L93.685095,104.98559132118237L94.3321275,106.14051054289237L94.3408125,106.38497454882302L94.4797725,106.2027965896351L94.61438999999999,104.7251803483839L94.87059749999999,105.74297075125611L95.491575,105.69778663676036L95.595795,107.05431359863908L95.6348775,105.93684534069952L95.873715,104.27439246905845L96.5294325,105.01866447573856L96.5902275,104.39135310072047L97.0331625,104.34877100460277L97.12435500000001,106.42903253818616L97.7019075,107.15934568001941L98.0145675,105.95774159734226L98.1101025,106.27680032884254L98.183925,107.18879396349524L98.38368,110.60752559909194L98.531325,110.88209419099947L98.8135875,111.08012472364993L99.1609875,109.22351023695009L99.4910175,107.97608579389626L99.6473475,107.06649374205374L100.12936499999999,106.73061699917707L100.1337075,106.90605135938769L100.2813525,108.61206277487653L100.3421475,108.02831491672704L100.52453249999999,108.05317426735081L101.24973,109.00188856683371L101.3843475,107.6186225229541L101.5319925,107.3101586056788L102.00098249999999,108.50955560110857L102.14428500000001,106.63072943547004L102.22245,107.55924350901853L102.231135,107.56973704718504L102.335355,107.415756016648L102.3396975,107.57664705449757L102.352725,107.94606408602797L102.4352325,106.24133504383768L102.58722,107.60748114787114L102.72183749999999,107.68605004449691L102.891195,107.84021121268091L102.93462,109.10208048135502L103.32110250000001,110.27986388629951L103.3818975,109.85842412111467L103.50783,109.32610843555972L103.54257,108.50633959022805L103.66850249999999,107.39517778232437L104.09841,108.73432597149869L105.10152749999999,107.73352981263994L105.2231175,107.05686472677716L105.2622,106.12573426627465L105.38379,106.28036124551457L105.53577750000001,105.955153671858L105.5878875,107.58578755275308L105.8658075,107.22383829153807L106.452045,108.30893100434267L106.68654,109.83280213554934L107.2640925,108.47625892686983L107.26843500000001,107.640102887734L107.876385,109.78510751676536L108.4018275,110.13688532323825L108.432225,112.07990653356471L108.9750375,110.0304762572175L109.46574000000001,108.87729154986434L109.5482475,108.91883855210351L109.6698375,108.06147448966408L109.7653725,109.30046972941598L109.856565,108.67785406619133L110.151855,109.50696690203029L110.3820075,112.26567156689745L110.6338725,109.87203730734768L110.82494249999999,112.76617014073572L111.7542375,114.90155835042648L111.8324025,112.94968627469966L111.9279375,112.63465674771894L111.9539925,110.97467582166304L112.427325,109.84791568408627L112.48812,108.99294339939854L112.5358875,108.26142037796227L112.774725,110.79755802545833L112.8224925,111.264250574534L112.8485475,111.1969695198684L113.104755,111.03031103567866L113.2220025,110.09405018175364L113.32188000000001,109.27684314328954L113.62585499999999,109.24533938243793L113.72139,111.03808286757308L113.8646925,110.74404393233863L113.9689125,108.7075279106425L114.1426125,111.19946954775978L114.2207775,109.3623633782124L114.2468325,109.52609827381244L114.25985999999999,109.86732853807135L114.58989000000001,110.09282995170932L114.59423249999999,110.82015543570223L114.79833,111.06110953737742L114.9329475,111.24577208245846L115.050195,113.27470159370426L115.0632225,114.72470554796705L115.084935,112.56345121729468L115.3932525,111.98527279894408L115.44102,113.13500000202251L115.6538025,114.01235890944494L115.901325,113.97846257882668L116.09673749999999,115.09841986416194L116.27478,111.87553300946463L116.3312325,111.13019393699152L116.335575,111.1456312810541L116.43110999999999,113.68146979385656L116.50059,114.0388165081751L116.9826075,110.88829295106922L117.0738,111.31198617929978L117.3734325,111.91141912868018L117.38646,112.80762056199181L117.3908025,112.65666438154857L117.5992425,111.3127886218118L117.7034625,110.69934800317533L118.2766725,112.78594307792115L118.62407250000001,111.23554643804984L118.680525,111.39162597270976L118.95844500000001,111.71612035070851L119.2407075,113.62271834651091L119.340585,111.78350622429892L119.705355,109.69664790798507L119.7183825,112.74665543088575L119.74009500000001,113.81078920384572L120.0310425,111.7863809888474L120.1092075,110.56333256145558L120.43489500000001,111.87546929576908L120.6042525,112.69814463173697L121.2903675,111.87807730908555L121.47275250000001,113.69069330645513L121.47709499999999,111.78096104208683L121.75935750000001,111.57983761662369L121.7854125,112.00266012423022L121.89831749999999,112.22246979811841L121.98951,113.02775134160322L122.01556500000001,112.98410491287004L122.70168,113.56825003752834L123.7395375,113.36436996894915L123.79598999999999,112.7300250078586L123.943635,112.16610936792775L124.047855,113.19635145991448L124.10865000000001,115.72125496391251L124.23024000000001,115.94379298091363L124.725285,113.32830869904188L124.8772725,111.92890594774181L125.03794500000001,111.78587008478918L125.43311250000001,110.06669414158729L125.9976375,113.63095675225848L126.32332500000001,112.91939135106954L126.71415,112.12838099106605L126.7271775,113.22395282761771L127.36552499999999,112.03097421256155L127.38289499999999,111.88617858715097L127.56962250000001,111.79016732736464L127.61739,111.45983438415365L127.660815,113.10060491717755L127.80846,111.86136603503947L127.851885,111.3749470334529L127.96479000000001,110.90454665228326L128.1602025,113.17684211742868L128.26008,114.66937804238424L128.4815475,115.32280702233933L128.5857675,114.51137875177682L128.668275,116.88327751551998L128.87237249999998,114.32885554750796L129.363075,113.86842951919503L129.5758575,114.51763807383696L129.92759999999998,111.09213115775484L129.9753675,110.42212809601686L130.0622175,111.54731905791868L130.37922,112.90734512913146L130.6267425,111.92338092006304L131.09139,113.1326860342584L131.70368249999999,112.21021159843347L131.87304,112.69907115176304L131.9989725,112.71447089707613L132.37677,113.122872860223L132.58521,113.8669138538319L132.593895,114.21240517101478L132.75891,113.8333682797612L132.8587875,114.19485649544183L133.167105,114.58986017337963L133.77939750000002,113.83294276687266L134.05731749999998,115.04706123508211L134.4828825,114.37521164852086L134.51762250000002,114.16149102453551L135.1776825,114.65757649790969L135.27321750000002,114.17134896492612L135.41652,110.77579999358996L135.737865,113.04293441684894L135.9072225,111.89476674284113L136.2806775,114.34696074509274L136.59768,114.05974467964698L136.7062425,114.31221168125248L136.762695,115.6999941961121L136.80177750000001,114.11583420382082L137.144835,116.31024299616988L137.40104250000002,114.81223975338379L137.8960875,114.09961526546658L137.96122499999998,113.19722262501679L138.3042825,113.57653007747554L138.68207999999998,114.3103248990241L139.06856249999998,113.37603940925516L139.229235,114.13218391523898L139.3812225,113.83119507460404L139.7025675,112.5768428356702L140.24103749999998,112.63578991544391L140.33222999999998,112.48599918845886L140.3713125,112.66648124232968L140.44079250000001,112.38570188947644L140.71437,114.7431144884392L140.7187125,113.52956776722183L140.77950750000002,114.76334822395711L141.313635,115.50651572523232L141.3614025,116.24070166712096L141.79565250000002,114.06968713042652L142.0866,114.77176723759345L142.9551,114.09164574212873L143.5065975,114.47035900449367L143.51094,115.93795103432717L143.6368725,117.87434637997048L143.6455575,117.13534349519264L144.075465,115.53873304776837L144.72684,114.17690787465864L145.00476,114.3590134816763L145.030815,115.45242348673786L145.05687,116.94267799887152L145.07424,116.66211414641151L145.0785825,115.91116912272255L145.57797,114.5708801945296L145.81680749999998,116.1586849501647L146.3379075,116.03253674297116L146.5810875,115.64184647534974L147.0066525,114.79098032004602L147.0500775,114.81895404464032L147.08047499999998,117.09033481537303L147.15864000000002,117.23458297223632L147.40616250000002,116.81348914789245L147.5972325,116.81096373362364L147.9706875,114.76325546306796L148.365855,117.38534799944051L148.37454,116.119911096875L148.5135,116.82896248656941L148.591665,115.8489599498692L149.82059249999998,116.03790060530983L149.93349750000002,115.52741378640279L150.12456749999998,113.95505614566659L150.363405,112.7799082963935L150.63263999999998,113.32814395565495L150.68909250000002,115.24041441211479L151.08860249999998,116.14276662408476L151.21453499999998,116.34782295740987L151.3838925,115.0982339556976L152.5997925,115.85339657612732L152.94285,117.60980533358006L153.055755,119.43213144488294L153.15129000000002,119.56439879312563L153.2337975,117.82765201837643L153.34236,119.22196418319331L153.41183999999998,117.76568575527321L153.46395,115.27280680295993L153.6506775,113.8808287549217L153.94596750000002,115.75148522572604L154.2152025,114.05849817501561L155.11844250000001,116.46010360185537L155.14884,115.91736242855285L155.18792249999998,116.28035013029256L155.4050475,116.3945881976259L155.41807500000002,116.82436176674383L155.50926750000002,116.20110023341664L155.64388499999998,115.90499639015343L155.72639249999997,116.21884744190817L156.3169725,117.91900261856381L156.668715,117.98662755398769L156.6730575,117.67239106921721L156.8207025,117.75318312781077L157.41562499999998,117.0417199807815L157.4373375,116.39426750498038L157.5502425,114.68757481265126L157.7499975,115.57068263913337L157.815135,115.57339519103073L158.17122,115.94135195196415L158.3579475,114.93006804968289L158.47085249999998,114.4509144278718L158.64889499999998,116.85557690070496L158.8356225,116.30760752672577L159.4088325,114.67856205045723L159.43922999999998,116.13439389651285L159.4566,115.95398028429125L159.89953500000001,115.51070399126873L160.07323499999998,117.52721115604686L160.48143000000002,115.70917795095234L160.542225,114.18985873502677L160.62039,117.292258469668L160.802775,116.47785765066929L161.983935,117.82899899838404L162.2140875,119.51468844012777L162.730845,118.15995328717631L163.52118000000002,116.26887558800055L163.6818525,115.99621446853737L164.0900475,113.55751769865302L164.780505,115.4415274737531L164.89341,116.97846018175576L165.06710999999999,116.69936791232175L165.266865,117.21458419388179L165.5491275,117.19165201642576L165.579525,116.85032669606576L165.614265,116.36397981723273L165.82270499999998,116.16348213142689L165.8617875,118.00678001294914L166.117995,116.93503331902163L166.1744475,116.6769799562202L166.80411,118.62639347170307L166.85622,117.76944218182044L166.99952249999998,118.07769026726265L167.1819075,118.29802835620694L167.46417,119.8070628614537L167.785515,122.15302111931516L167.9896125,121.30575201830604L168.271875,119.68280709522386L168.3978075,119.9744747182894L168.45426,119.16773486786249L168.7538925,117.90896631364231L168.76692,118.28053478465387L168.9536475,118.5051111206902L169.16643,118.80857409344915L169.40961,118.79782384771038L169.98282,120.46488617626201L170.01756,118.61134360293968L170.0479575,119.59215782320751L170.45181000000002,118.5951809149849L170.50392,118.28037445088661L170.59077,118.33475176528127L171.085815,118.95938453007452L171.103185,117.13923208579341L171.2204325,118.10088705129071L171.2291175,119.31468545262005L171.6199425,117.87853818500584L171.92391750000002,119.01283285651715L172.041165,118.31515476898205L172.0715625,116.0792416821746L172.08459,117.7477084695411L172.1931525,116.1145859791153L172.78373249999999,118.49085711943678L173.1832425,119.11083345990843L173.21364,119.37801696747958L173.604465,117.39746586110749L173.6435475,118.6299513895444L173.6956575,117.90970918375123L173.778165,117.40826238801492L173.8519875,118.06895781752485L174.0864825,116.3103058249039L174.1385925,118.18576875619556L174.24715500000002,117.80775966039164L174.4078275,116.82988392586032L174.6596925,120.2503764322486L174.8594475,120.2149919665049L174.941955,117.81720852416514L174.9723525,118.87197126484966L175.1721075,117.34870262787054L175.3979175,119.24998238819794L175.410945,117.85591468801563L175.5629325,117.25039173487336L176.1274575,119.01739726717913L176.35326750000002,116.69390619228591L176.35761000000002,118.24707587251022L176.4488025,117.3400966511123L176.68764000000002,118.11936881687726L177.0654375,116.4048953863769L177.06978,117.1303127855808L177.23479500000002,118.55089471459277L177.3867825,119.1757874238301L177.425865,119.41556915054647L177.5952225,120.53936989070318L177.808005,120.52599482054777L178.04684250000003,120.08918847537888L178.1858025,121.09997092423947L178.59833999999998,120.33598440408497L179.2584,120.84864188902986L179.4711825,120.13189516927388L179.6275125,119.61831530839325L179.8967475,119.93543474162155L180.23112,121.20518365098832L180.2441475,119.95365561554954L180.57417750000002,121.4228529887161L180.66537,118.73676984419225L180.70011000000002,118.39053424588872L180.7565625,118.63750492705586L180.7652475,118.22546290125199L180.7913025,121.11147861249387L181.21686749999998,120.15882967910989L181.2255525,117.96904952160381L181.60335,119.97507760585006L181.6163775,120.77824909255528L181.733625,120.60502198565608L182.47619250000002,122.4987506705852L182.50659000000002,122.51035653741687L182.793195,120.37638479356119L182.81490749999998,121.31167783140856L183.2665275,120.09188514507568L183.34035,119.80307394322881L183.6312975,119.54202523999155L183.7181475,119.90364150874689L184.182795,119.92765136532938L184.408605,119.15520822527245L184.4737425,120.17130584798824L184.53888,118.74384644750148L184.60836,119.85065587167742L184.6648125,121.06273402157308L184.8168,121.65272208038544L184.8993075,122.43796228642027L184.92970499999998,120.66726018445854L185.9415075,121.76195122596994L186.2020575,120.0764519674805L186.3323325,119.53331775959617L186.41484,120.12222052351865L186.8013225,118.78213248141502L186.97068,119.14956628604239L186.98805000000002,120.08684579326813L187.02713250000002,120.53555831213335L187.0531875,120.977222891814L187.16174999999998,121.92231867167419L187.40927250000001,120.53970770464028L188.04327750000002,119.90814678005708L188.5470075,120.15627107882514L188.69030999999998,120.31794567531449L189.1636425,118.22143243878591L189.1896975,119.83833248738307L189.22877999999997,122.17487993502166L189.7889625,120.97386738228161L189.9366075,122.19827105947442L191.0482875,122.17836655356581L191.13079499999998,123.79246325530237L191.3175225,123.3093072128246L191.617155,124.5239684734223L192.5507925,123.0953151234994L192.989385,121.73933226941699L193.22822250000002,118.8637488479902L193.29336,122.23002206931373L193.5929925,121.14441742229837L193.74063750000002,121.67464291016364L194.0619825,122.12466058042479L194.1314625,121.78373867538747L194.17923,120.75668754782735L194.326875,121.88896580264384L194.674275,121.77206070580408L194.9391675,122.03834568017183L194.94351,121.4921984535891L195.19537499999998,121.29005132322906L195.282225,119.54996765011558L195.4689525,121.56201437945646L195.490665,121.95203060226316L195.803325,123.62200993396537L196.4156175,122.8483791024731L196.51549500000002,122.01199277972351L196.5198375,121.53426372892912L197.1104175,120.86778492493553L197.5272975,119.41309222850461L197.78350500000002,119.39355631358455L197.8312725,121.70506122338378L199.0645425,122.00882890254664L199.242585,121.68840530198139L199.54656,122.57267337045174L199.66815,122.16648151623025L199.8896175,122.70934663502463L200.31084,122.10161192176211L200.4454575,121.6976347276555L200.46716999999998,120.79789986434727L200.5409925,121.81513468297672L200.76246,122.16178385768512L200.927475,123.2582373892364L201.813345,121.54438135154551L202.126005,122.07287971499221L202.5819675,119.88996839394687L202.959765,119.83351350853843L203.011875,120.47942820965787L203.150835,122.37662940306572L203.272425,122.78926583280031L203.6502225,123.65339098364035L203.6936475,121.49855234754494L203.7197025,120.83481799498034L203.7370725,119.75010773225601L203.87168999999997,119.45035993589423L203.880375,119.6237402007832L203.94117,121.06367911327848L203.96722499999998,123.27009321362999L204.28422750000001,123.08457942671316L205.356825,122.95852648421783L205.738965,122.15303302941898L205.85187000000002,123.58186861565312L206.242695,122.20648197255582L206.35994250000002,121.87918364152847L206.6639175,121.09972825182952L206.9592075,122.7535609960259L207.02868750000002,124.73177238325025L207.3152925,122.91931575227548L207.5237325,121.93268172555429L207.5932125,121.49513537378147L207.719145,121.26567376667877L207.8277075,122.58304469525359L207.910215,121.92443084332302L208.535535,122.54091531243161L208.570275,122.80144791359217L208.848195,124.03099992216029L208.9654425,124.69647361999529L209.55168,125.57196757777612L209.5820775,124.86456589129938L209.66024249999998,125.60062934204058L210.10752000000002,122.89995549558378L210.21174,123.41637092861033L210.255165,122.72414256766322L210.31596000000002,122.79179672266588L210.585195,123.17686062558434L210.9977325,124.01070998634341L211.2843375,122.74239461964405L211.34079000000003,123.77548028230595L211.47975,125.90510274038823L211.55791499999998,125.96968555077197L211.60134,127.60884113179522L211.6925325,125.87194939547751L212.165865,126.65571175502889L212.46984,123.65154052850512L212.895405,125.7838622994147L213.4034775,126.9964189429466L213.56849250000002,126.3314413068019L213.711795,128.3221534242318L213.7856175,125.48804663076362L213.95497500000002,124.2694426421508L215.00586,125.55508740165786L215.07534,125.43251610372911L215.70066,125.33101982404078L215.92647,125.63024503262258L216.11754,125.53228617197203L216.2695275,126.52481345938584L216.39980250000002,127.39074820183342L216.5040225,127.88095158188807L216.60824250000002,128.69261610395196L216.64298250000002,127.25209331330166L216.69075,128.3392659238277L216.69509250000002,127.83221741454818L216.95564249999998,127.14461369247677L217.07289,128.6937885108401L217.09026,128.69188266968052L217.15539750000002,128.3653521364373L217.2683025,128.26789392682565L217.31607,127.3326523113638L217.36383750000002,128.34977340679475L217.50714,126.33583153176968L217.87625250000002,125.43310054772297L218.106405,125.70065676970279L218.123775,126.90361891500719L218.1802275,127.53197778512119L218.5276275,125.26031469667782L218.5449975,126.29814581607067L218.662245,126.70104187770335L218.7013275,125.83752166310981L219.079125,127.5691104542936L219.1095225,128.15263144695953L219.3005925,128.10798148871135L219.530745,127.75387200520072L219.68273250000001,126.34986044121396L219.70010249999999,124.9130987323174L219.964995,125.81414213047135L220.3862175,130.12025974895138L220.5512325,129.43118462478773L220.75098749999998,129.02959412322755L220.75533,127.7672759495433L220.7683575,126.52340019335806L221.0115375,127.83764926776334L221.3763075,128.299485830117L221.4805275,127.47115847809653L221.69331,127.33880735084003L221.754105,127.66825060884752L222.396795,128.34923438013874L222.52706999999998,127.02230339745222L222.7832775,127.28932531636221L223.00474499999999,128.75292979249423L223.8993,128.8509812363743L223.9383825,128.82845723016385L224.02523250000002,129.43372901356366L224.15985,129.78535401132928L224.168535,129.34799768878585L224.7547725,128.84320119463314L224.9111025,129.24519969466L225.1021725,129.06211443853135L225.35837999999998,129.10800900090328L225.41049,129.3457681166996L225.90119249999998,129.6218073130218L226.061865,129.55545410393466L226.1964825,130.71057927582092L226.34847,132.23005688610195L226.999845,132.96617688215363L227.0389275,134.85851547016347L227.15617500000002,135.69677826423708L227.28645,134.80042564069785L227.43409499999999,135.40861224877938L227.6295075,135.60198389714742L227.66424750000002,136.0147810374018L227.7858375,135.97826708613044L228.27653999999998,135.46504824269584L228.34601999999998,135.44672620265027L228.4458975,135.36851209245663L228.615255,134.82938958931567L228.6890775,135.17587495399064L229.06253249999997,135.58834226048134L229.101615,135.62736840913382L229.24926,135.01729381786214L229.7486475,135.6037101326922L229.918005,135.66284651444974L230.14381500000002,136.12982932055274L231.394455,136.04319473491984L231.4856475,136.77015457865338L232.09794000000002,137.21624547684084L232.28466749999998,137.38204766753572L232.51482000000001,137.78160204395073L232.5452175,138.30244305260246L232.6320675,138.42605559819222L232.7449725,138.45559856080672L233.1357975,139.19423068197307L233.36160750000002,140.01168314824315L233.6221575,139.1351436265283L233.652555,138.63259937118409L233.7784875,138.8902838417025L234.00863999999999,139.14680469446785L234.02601,139.5792428623595L234.08246250000002,139.28866717206725L234.1432575,139.16068910513235L234.2474775,138.52666937039487L234.2995875,139.25066326395387L234.4385475,141.02422361528153L234.468945,140.4779669151483L234.52974,140.05294371992403L235.0204425,139.26451561201108L235.06821,138.83837591296452L235.094265,138.98710284550293L235.27230749999998,138.92745384663385L235.2896775,140.47251070252776L235.3504725,140.96897457414056L235.45035,141.25906921251527L235.910655,141.83222978204986L236.0973825,142.51487921881056L236.2884525,143.9218497129339L236.3666175,144.29660167396872L236.43609750000002,144.1313830277372L236.5663725,144.71393238979408L236.866005,143.9849494759678L237.4088175,143.42222800088712L237.595545,142.75044243910048L237.60423,140.64985631127345L237.7649025,141.4266444188354L237.76924499999998,140.40843517778455L237.81267,138.84021178418664L237.84741,138.93171102860592L237.9559725,138.68127974742526L238.3164,140.57590285613463L238.33811250000002,140.9949632810933L238.40324999999999,142.20564761749128L239.24569499999998,143.72821665343682L239.84496000000001,144.6460004012087L240.76557,143.78980541817907L241.104285,143.69415131472778L241.33878,144.5997719732257L241.4473425,145.7085900493554L241.9944975,144.82739322148925L242.34624000000002,145.50558801885805L242.5590225,145.1538238951347L242.6111325,145.29588125519643L242.69364,146.28573543376416L242.94984749999998,145.62421711814267L243.4535775,144.44353179755768L243.79663499999998,145.35372579537835L243.97902,145.27974283351764L244.2612825,145.1994566061201" style="fill: none;" fill="none"></path></g></g></g></g><g opacity="0.2"><g><g><g><path stroke="rgb(255, 112, 67)" stroke-width="2px" d="M31.934745000000003,-11.304740681098082L32.264775,2.0593781150304267L32.6165175,1.3428693046936644L32.855354999999996,-0.6019055430705862L32.8683825,0.7011540646736307L32.9291775,10.922177807642868L32.9465475,12.96031020696347L33.154987500000004,5.3253302046885835L33.185385000000004,9.499720353346618L33.376455,6.526358925379242L33.50673,2.2945928871631622L33.7542525,16.156693016107283L33.880185,12.863878947037932L33.949665,13.9676750118916L34.019145,15.277054488658933L34.4837925,25.95918520826561L34.670519999999996,18.428711290542907L34.683547499999996,20.745435283734253L35.148195,29.377159059047727L35.24373,29.93739566665431L35.291497500000006,30.63239866265883L35.4651975,36.230078094280685L35.53902,22.987477293381346L35.5954725,28.919156223535566L35.981955,25.354273314659423L36.242504999999994,31.19501916949568L36.6376725,41.407298567203384L36.6897825,34.280768765853026L36.828742500000004,36.61365255254967L36.8547975,45.572640043038604L36.96336,36.18553468355765L37.158772500000005,36.99947903477229L37.514857500000005,41.718280757849044L37.718954999999994,47.17492465331006L37.7927775,37.0143809410242L37.8014625,33.85029743038692L37.823175000000006,43.41425767999431L37.9317375,50.526017450369324L37.936080000000004,43.0222330597731L37.98819,40.84462733910635L38.0099025,38.4386237836801L38.135835,36.01609524167503L38.2009725,50.18793996251547L38.8002375,43.76144470618323L39.039075,55.03035954099437L40.0248225,49.284949366862975L40.33314,48.951041166599L40.3461675,57.309012156266434L40.598032499999995,58.178029651825256L40.8672675,46.11940508393141L41.166900000000005,55.728314514343566L41.227695000000004,55.28998138354376L41.23638,58.02574414014818L41.240722500000004,56.82311262763464L41.4925875,58.35736988370235L42.252525000000006,65.41897647197432L42.85179,62.29285275248381L42.860475,60.59354851566829L43.0776,62.479304105043425L43.3859175,52.47664553156268L43.6117275,65.9549581729449L43.70292,66.71715669448561L43.7333175,63.621019384035705L44.197964999999996,72.91455416266734L44.319555,61.975499971554825L44.441145,64.27287887609923L44.666955,72.76316134517009L44.936189999999996,68.94949065492705L45.361755,62.60394652990195L45.4963725,71.281045544606L45.518085,67.770292364634L45.8871975,72.33403919522578L45.8958825,63.48630371689798L46.247625,69.77486757819469L46.647135,67.41926066692061L46.7209575,74.18102345329066L46.812149999999995,70.23459493655426L47.394045,69.5723984516584L47.411415000000005,75.23544744344859L47.446155,77.14430149472678L47.932514999999995,70.32659315833679L47.993309999999994,73.67723960830615L48.158325,76.66823174632513L48.210435000000004,74.82349951221393L48.39282,73.73297212903316L48.7271925,73.4767587551704L49.070249999999994,74.84211421471377L49.078935,72.80191238797629L49.31343,75.64141026597758L49.43502,76.68303221005661L49.8909825,78.73685776728851L50.3512875,76.81735225136465L50.4120825,79.50671012699605L50.676975,80.65194546144744L51.2371575,80.2598904084701L51.8016825,80.09928153799132L51.992752499999995,79.38492838121378L52.361864999999995,82.5114071495258L52.448715,80.53766539005133L52.605045,79.67821392416955L52.635442499999996,79.0663126409054L52.7917725,74.50360052402205L52.882965,78.69776689203887L53.15219999999999,77.71401283374202L53.23905,81.89501196260638L53.721067500000004,75.83825947688177L53.764492499999996,86.79971724863238L54.064125,81.99692619076144L54.1205775,84.20562404394151L54.146632499999996,89.25394657827341L54.203085,81.12839054717467L54.4506075,82.10017438806021L54.550485,81.39432211449515L54.828405000000004,83.66248557315424L55.453725,81.64570682438521L55.68822,91.14885228299178L55.8141525,82.17458247679932L56.0486475,82.39403308125644L56.218005,77.84650690968222L56.231032500000005,89.61478269558688L56.283142500000004,82.17602803271552L56.41776,83.96454082200161L56.90412,90.70586801263003L57.390480000000004,76.0036817949552L57.503385,91.58178359957843L57.99843,87.87459712303603L58.03317,82.19645855633112L58.2112125,87.52939837024763L58.6107225,86.43217070859214L58.8886425,91.17256954426949L59.0970825,87.90402559821422L59.19696,87.63252990864791L59.49225,84.41283053618213L59.535675,86.4663720543568L59.5487025,93.52478827536106L59.61384,88.57526061168085L59.7571425,86.51857437537268L60.5474775,90.34046190977098L60.838425,90.3188546529183L60.960015,84.92744844234907L61.00344,93.21624070520585L61.1554275,91.35479581585298L61.8415425,91.75605170543378L62.16723,89.11348926447906L62.662275,89.50962737890391L62.8403175,89.63906803497903L63.33102,86.19605817015356L63.4569525,93.33762682515841L63.47866500000001,89.20871335841143L63.5177475,92.90002915263176L63.9085725,92.05930904814831L63.921600000000005,86.77748612027904L64.04319000000001,92.53978140193682L64.086615,94.57403869697681L64.4904675,95.21667706393278L64.6381125,92.3587572242205L64.8986625,90.72601449718843L65.4371325,90.23746224664725L65.69334,92.7787647637037L65.806245,90.06134788691999L65.8192725,97.58041966534579L65.910465,93.90868227756941L65.94086250000001,95.00652873859956L66.1927275,96.92613062491783L66.2187825,95.07118312899883L66.4619625,95.56836813802903L67.352175,93.12182815143696L67.595355,97.92239761811037L67.73431500000001,95.06618708486741L68.11211250000001,95.60348246647762L68.255415,95.75682298036722L68.5984725,94.70778558804439L68.62886999999999,88.86972288787366L68.68532250000001,94.78774258265129L68.9458725,93.96688999579503L69.0761475,95.20839428213927L69.176025,92.3393817028174L69.25419000000001,92.14874584628986L69.8838525,92.8007017087478L70.16177250000001,96.99408189723125L70.81748999999999,95.64764039562299L70.930395,92.58629279755628L71.764155,93.37715390324593L71.7945525,95.91860351195702L72.285255,97.60561798742184L72.2982825,103.69297568156169L72.389475,99.767697930336L72.6456825,98.68907482692829L72.83241,97.65288512981856L73.2015225,105.46906683422053L73.33614,99.79587359038683L73.40562,93.36301281589728L73.47944249999999,99.93853727900064L73.6531425,99.76917391900832L73.85289750000001,101.09100546515906L73.85723999999999,92.40369626077322L73.952775,95.79682176617476L74.1047625,99.4961616637615L74.21766749999999,97.06103396071838L74.25675,93.7376197553598L74.48256,102.8171108158735L74.4955875,98.70189716151127L74.6432325,96.51999535010411L74.6606025,94.34568651135152L74.76048,93.51668301797831L74.786535,100.34208069741726L74.79522,97.6661183066093L74.994975,98.74418347615462L75.35106,99.71132124960423L75.43356750000001,98.45191743052924L75.47265,99.81702435589754L75.76794000000001,101.56128284564385L75.776625,94.49483744914716L76.037175,100.99553790917763L76.7276325,100.74573570260635L76.957785,102.4629293279006L77.044635,100.74610596780593L77.1792525,101.56218568407571L77.218335,96.16419585393025L77.2921575,102.90564984770921L77.36598,92.96541392917817L77.722065,102.89382164982649L77.82194249999999,99.15334681020333L77.8827375,96.58547142491891L78.2040825,101.37436485749025L78.6991275,100.10189524178321L79.1160075,104.31203880676857L79.13772,99.72013660463003L79.29405,98.52534659894613L79.4286675,101.21981210548144L79.84989,101.12966013757082L79.962795,99.10758101710907L79.980165,107.64876734293425L80.049645,104.63100452377246L80.23203,97.650658466495L80.50995,100.49560380784365L80.5229775,99.6511303301041L80.5924575,105.36712724543536L81.0093375,105.0077620446682L81.23948999999999,101.65211447844139L82.1644425,100.1048066421197L82.2860325,99.89343593441522L82.7463375,104.76086109418135L83.0589975,97.41079762692635L83.3282325,98.47907866537571L83.66694749999999,99.57750334877234L83.74077,106.20455046800467L83.85801749999999,103.88768952741073L83.94921,102.87881322892812L84.00132,102.62862554077918L84.0664575,104.91450593563226L84.31398,104.41189882388481L84.6309825,103.19850933207915L85.10865749999999,103.94638416973444L85.33881,104.57867539960604L85.35618,105.53300605485073L85.781745,102.90616720456343L85.96413000000001,100.2495651187805L86.1855975,101.63601555044835L86.28547499999999,108.13205472666483L86.5416825,99.58503038378862L86.55470999999999,106.53539003202549L86.96290499999999,101.01434028034026L87.11055,103.66472393962053L87.2625375,105.23156453325198L87.431895,102.32940053825195L87.831405,102.7058588037124L87.92693999999999,101.64922843873501L88.28302500000001,105.6935692761953L88.8953175,105.68592558228052L89.1819225,107.73629702169161L89.21232,106.8350765980207L89.2514025,98.16366343658704L89.325225,105.007949713331L89.40338999999999,106.16590593984493L89.65959749999999,101.37272656078522L89.8767225,105.35334627903426L90.08081999999999,100.41423169007668L90.35439749999999,104.79548849853185L90.680085,103.74060801703196L90.70614,102.57356761281306L90.836415,103.50645331923778L90.87549750000001,98.5740745136371L90.91892250000001,105.30651533947541L91.3184325,103.64667224310911L91.357515,103.31643626208489L91.374885,109.89411130662148L91.44870750000001,102.2679212987423L91.72662749999999,106.98028142177141L91.809135,105.07867543857832L92.39537250000001,105.46758577342217L92.66895000000001,104.53654632086938L92.86870499999999,111.79732008163745L93.059775,103.15969235163469L93.43323,101.75270488170477L93.685095,106.09391725521822L94.3321275,107.8728893754574L94.3408125,106.75167055771901L94.4797725,105.92952965085323L94.61438999999999,102.50875598650713L94.87059749999999,107.26965635556441L95.491575,105.63001046501672L95.595795,109.08910404145718L95.6348775,104.26064295379015L95.873715,101.78071316159689L96.5294325,106.13507248575871L96.5902275,103.45038603819334L97.0331625,104.28489786042617L97.12435500000001,109.54942483856128L97.7019075,108.2548153927693L98.0145675,104.15533547332653L98.1101025,106.75538842609295L98.183925,108.5567844154743L98.38368,115.735623052487L98.531325,111.29394707886073L98.8135875,111.37717052262563L99.1609875,106.43858850690035L99.4910175,106.10494912931553L99.6473475,105.70210566428992L100.12936499999999,106.2268018848621L100.1337075,107.16920289970362L100.2813525,111.1710798981098L100.3421475,107.15269312950281L100.52453249999999,108.09046329328648L101.24973,110.42496001605804L101.3843475,105.54372345713469L101.5319925,106.84746272976582L102.00098249999999,110.30865109425325L102.14428500000001,103.81249018701223L102.22245,108.95201461934126L102.231135,107.58547735443481L102.335355,107.18478447084243L102.3396975,107.81798361127193L102.352725,108.5001896333236L102.4352325,103.68424148055223L102.58722,109.65670030392134L102.72183749999999,107.80390338943555L102.891195,108.07145296495695L102.93462,110.99488438436619L103.32110250000001,112.04653899371624L103.3818975,109.2262644733374L103.50783,108.5276349072273L103.54257,107.27668632223056L103.66850249999999,105.72843507046883L104.09841,110.74304825526018L105.10152749999999,106.23233557435182L105.2231175,106.041867097983L105.2622,104.72903857552087L105.38379,106.51230171437447L105.53577750000001,105.46734231137312L105.5878875,110.0317383740957L105.8658075,106.68091439971558L106.452045,109.93657007354956L106.68654,112.11860883235931L107.2640925,106.4414441138506L107.26843500000001,106.38586882903026L107.876385,113.0026144603124L108.4018275,110.66455203294754L108.432225,114.9944383490544L108.9750375,106.9563308426967L109.46574000000001,107.1475144888346L109.5482475,108.98115905546224L109.6698375,106.7754283960049L109.7653725,111.15896258904384L109.856565,107.74393057135435L110.151855,110.75063615578871L110.3820075,116.4037285641982L110.6338725,106.28158591802304L110.82494249999999,117.1073693908178L111.7542375,118.10464066496262L111.8324025,110.02187816110941L111.9279375,112.16211245724789L111.9539925,108.48470443257919L112.427325,108.15777547772115L112.48812,107.71048497236693L112.5358875,107.16413584580788L112.774725,114.6017644967024L112.8224925,111.96428939814751L112.8485475,111.09604793787003L113.104755,110.78032330939403L113.2220025,108.68965890086615L113.32188000000001,108.05103258559338L113.62585499999999,109.19808374116054L113.72139,113.72719809527581L113.8646925,110.30298552948695L113.9689125,105.65275387809827L114.1426125,114.93738200343572L114.2207775,106.60670412389132L114.2468325,109.77170061721252L114.25985999999999,110.37917393445969L114.58989000000001,110.43108207216629L114.59423249999999,111.9111436616916L114.79833,111.4225406898902L114.9329475,111.52276590008002L115.050195,116.31809586057297L115.0632225,116.89971147936124L115.084935,109.32156972128611L115.3932525,111.11800517141819L115.44102,114.85959080664011L115.6538025,115.32839727057859L115.901325,113.9276180828993L116.09673749999999,116.7783557921648L116.27478,107.04120272741868L116.3312325,110.01218532828184L116.335575,111.16878729714797L116.43110999999999,117.48522756306025L116.50059,114.57483657965294L116.9826075,106.16250761541036L117.0738,111.94752602164561L117.3734325,112.81056855275081L117.38646,114.15192271195926L117.3908025,112.43023011088371L117.5992425,109.29697498220663L117.7034625,109.77918707522062L118.2766725,115.91583569003984L118.62407250000001,108.90995147824287L118.680525,111.62574527469965L118.95844500000001,112.20286191770664L119.2407075,116.48261534021451L119.340585,109.02468804098093L119.705355,106.5663604335143L119.7183825,117.32166671523682L119.74009500000001,115.40698986328565L120.0310425,108.74976866634992L120.1092075,108.72875992036784L120.43489500000001,113.84367439723931L120.6042525,113.93215763568878L121.2903675,110.64797632510846L121.47275250000001,116.40961730250946L121.47709499999999,108.91636264553436L121.75935750000001,111.27815247842899L121.7854125,112.63689388563999L121.89831749999999,112.55218430895071L121.98951,114.23567365683041L122.01556500000001,112.91863526977026L122.70168,114.44446772451585L123.7395375,113.05854986608028L123.79598999999999,111.77850756622279L123.943635,111.32023590803146L124.047855,114.7417145978946L124.10865000000001,119.5086102199096L124.23024000000001,116.2776000064153L124.725285,109.40508227623427L124.8772725,109.82980182079169L125.03794500000001,111.57131629036023L125.43311250000001,107.48793022678448L125.9976375,118.97735066826527L126.32332500000001,111.85204324928614L126.71415,110.9418654510608L126.7271775,114.86731058244521L127.36552499999999,110.2415062899773L127.38289499999999,111.6689851490351L127.56962250000001,111.64615043768517L127.61739,110.96433496933717L127.660815,115.5617607167134L127.80846,110.00250771183234L127.851885,110.64531853107306L127.96479000000001,110.19894608052877L128.1602025,116.58528531514682L128.26008,116.90818192981757L128.4815475,116.302950492272L128.5857675,113.29423634593303L128.668275,120.44112566113472L128.87237249999998,110.49722259548994L129.363075,113.17779047672565L129.5758575,115.49145090579987L129.92759999999998,105.95387078363161L129.9753675,109.4171235034099L130.0622175,113.23510550077145L130.37922,114.94738423595062L130.6267425,110.44743460646042L131.09139,114.94664370555144L131.70368249999999,110.82649994469607L131.87304,113.43236048175737L131.9989725,112.73757051504576L132.37677,113.73547580494329L132.58521,114.98297534424525L132.593895,114.73064214678911L132.75891,113.26481294288084L132.8587875,114.73708881896276L133.167105,115.18236569028635L133.77939750000002,112.69756665711219L134.05731749999998,116.86823893739626L134.4828825,113.36743726867896L134.51762250000002,113.84091008855745L135.1776825,115.40170470797099L135.27321750000002,113.44200766545076L135.41652,105.68247653658574L135.737865,116.44363605173734L135.9072225,110.17251523182942L136.2806775,118.02525174847015L136.59768,113.62892058147833L136.7062425,114.69091218366071L136.762695,117.78166796840154L136.80177750000001,111.73959421538389L137.144835,119.60185618469349L137.40104250000002,112.56523488920469L137.8960875,113.03067853359076L137.96122499999998,111.84363366434208L138.3042825,114.14549125616367L138.68207999999998,115.41101713134691L139.06856249999998,111.97461117460178L139.229235,115.26640067421474L139.3812225,113.3797118136516L139.7025675,110.69531447726946L140.24103749999998,112.72421053510446L140.33222999999998,112.2613130979813L140.3713125,112.93720432313589L140.44079250000001,111.96453286019656L140.71437,118.27923338688336L140.7187125,111.70924768539575L140.77950750000002,116.61401890906004L141.313635,116.62126697714513L141.3614025,117.34198057995393L141.79565250000002,110.81316532538487L142.0866,115.82488739834382L142.9551,113.07146349893166L143.5065975,115.03842889804106L143.51094,118.13933907907743L143.6368725,120.77893939843544L143.6455575,116.0268391680259L144.075465,113.14381737663194L144.72684,112.13417011499405L145.00476,114.63217189220282L145.030815,117.09253849433019L145.05687,119.17805976707201L145.07424,116.24126836772149L145.0785825,114.78475158718916L145.57797,112.56044680224015L145.81680749999998,118.54039208361736L146.3379075,115.84331443218085L146.5810875,115.0558110739176L147.0066525,113.51468108709042L147.0500775,114.86091463153178L147.08047499999998,120.49740597147208L147.15864000000002,117.45095520753127L147.40616250000002,116.18184841137666L147.5972325,116.80717561222039L147.9706875,111.69169305723447L148.365855,121.31848680399932L148.37454,114.22175574302673L148.5135,117.89253957111102L148.591665,114.37895614481889L149.82059249999998,116.32131158847075L149.93349750000002,114.76168355804224L150.12456749999998,111.59651968456232L150.363405,111.01718652248383L150.63263999999998,114.15049744454714L150.68909250000002,118.10882009680455L151.08860249999998,117.4962949420397L151.21453499999998,116.65540745739753L151.3838925,113.22385045312919L152.5997925,116.98614050677189L152.94285,120.24441846975914L153.055755,122.16562061183728L153.15129000000002,119.7627998154897L153.2337975,115.2225318562526L153.34236,121.31343243041864L153.41183999999998,115.58126811339304L153.46395,111.53348837449L153.6506775,111.79286168286434L153.94596750000002,118.5574699319326L154.2152025,111.51901759894994L155.11844250000001,120.06251174211502L155.14884,115.10325066859906L155.18792249999998,116.82483168290211L155.4050475,116.56594529862588L155.41807500000002,117.46902212042075L155.50926750000002,115.2662079334259L155.64388499999998,115.4608406252586L155.72639249999997,116.68962401954028L156.3169725,120.46923538354727L156.668715,118.08806495712354L156.6730575,117.20103634206149L156.8207025,117.8743712157011L157.41562499999998,115.97452526023754L157.4373375,115.42308879127869L157.5502425,112.1275357741576L157.7499975,116.8953443788565L157.815135,115.57746401887674L158.17122,116.49328709336427L158.3579475,113.41314219626096L158.47085249999998,113.73218399515518L158.64889499999998,120.46257060995468L158.8356225,115.485653465757L159.4088325,112.23499383605444L159.43922999999998,118.31814166559622L159.4566,115.68335986595888L159.89953500000001,114.84578955173492L160.07323499999998,120.55197190321408L160.48143000000002,112.98212814331055L160.542225,111.91087991113847L160.62039,121.94585807162981L160.802775,115.25625642217122L161.983935,119.85571101995615L162.2140875,122.04322260274336L162.730845,116.12785055774908L163.52118000000002,113.43225903923695L163.6818525,115.58722278934259L164.0900475,109.89947254382646L164.780505,118.26754213640324L164.89341,119.28385924375974L165.06710999999999,116.28072950817071L165.266865,117.98740861622187L165.5491275,117.15725375024172L165.579525,116.33833871552578L165.614265,115.63445949898316L165.82270499999998,115.86273560271813L165.8617875,120.77172683523251L166.117995,115.32741327813038L166.1744475,116.28989991201803L166.80411,121.55051374492737L166.85622,116.4840152469965L166.99952249999998,118.54006239542595L167.1819075,118.62853548962336L167.46417,122.07061461932383L167.785515,125.67195850610733L167.9896125,120.03484836679239L168.271875,117.24838971060056L168.3978075,120.41197615288772L168.45426,117.95762509222214L168.7538925,116.02081348231205L168.76692,118.83788749117117L168.9536475,118.8419756247447L169.16643,119.26376855258758L169.40961,118.7816984791022L169.98282,122.9654796690895L170.01756,115.83102974295616L170.0479575,121.06337915360928L170.45181000000002,117.09971555265096L170.50392,117.80816475473918L170.59077,118.41631773687325L171.085815,119.89633367726437L171.103185,114.40900341937176L171.2204325,119.54336949953667L171.2291175,121.13538305461407L171.6199425,115.72431728358453L171.92391750000002,120.71427486378413L172.041165,117.26863763767939L172.0715625,112.72537205196345L172.08459,120.25040865059083L172.1931525,113.66490224347665L172.78373249999999,122.05526382991901L173.1832425,120.0407979706159L173.21364,119.77879222883627L173.604465,114.42663920154938L173.6435475,120.47867968219977L173.6956575,116.82934587506148L173.778165,116.65609219441048L173.8519875,119.06000096178971L174.0864825,113.6723278359725L174.1385925,120.99896315313302L174.24715500000002,117.24074601668578L174.4078275,115.3630703240633L174.6596925,125.38111519183104L174.8594475,120.16191526788931L174.941955,114.2205333606555L174.9723525,120.45411537587643L175.1721075,115.06379967240187L175.3979175,122.10190202868901L175.410945,115.7648131377422L175.5629325,116.34210730515994L176.1274575,121.6679055656378L176.35326750000002,113.20866957994608L176.35761000000002,120.57683039284669L176.4488025,115.97962781901543L176.68764000000002,119.28827706552468L177.0654375,113.83318524062634L177.06978,118.21843888438664L177.23479500000002,120.68176760811072L177.3867825,120.11312648768609L177.425865,119.77524174062106L177.5952225,122.22507100093823L177.808005,120.50593221531464L178.04684250000003,119.43397895762554L178.1858025,122.61614459753036L178.59833999999998,119.19000462385324L179.2584,121.61762811644718L179.4711825,119.05677508963987L179.6275125,118.8479455170723L179.8967475,120.41111389146401L180.23112,123.10980701503846L180.2441475,118.07636356239135L180.57417750000002,123.62664904846594L180.66537,114.7076451274065L180.70011000000002,117.87118084843343L180.7565625,119.00796094880654L180.7652475,117.60739986254617L180.7913025,125.44050217935673L181.21686749999998,118.72985627903387L181.2255525,114.6843792853447L181.60335,122.98411973221943L181.6163775,121.98300632261314L181.733625,120.34518132530727L182.47619250000002,125.3393436979789L182.50659000000002,122.52776533766433L182.793195,117.17542717777766L182.81490749999998,122.71461738817968L183.2665275,118.2621961155763L183.34035,119.36985714045855L183.6312975,119.15045218513562L183.7181475,120.44606591187991L184.182795,119.96366615020312L184.408605,117.99654351518704L184.4737425,121.69545228206195L184.53888,116.60265734677131L184.60836,121.51087000794135L184.6648125,122.88085124641657L184.8168,122.53770416860397L184.8993075,123.61582259547252L184.92970499999998,118.01120703151592L185.9415075,123.40398778823706L186.2020575,117.54820307974632L186.3323325,118.71861644776968L186.41484,121.00557466940238L186.8013225,116.77200041825955L186.97068,119.70071699298344L186.98805000000002,121.49276505410671L187.02713250000002,121.20862709043118L187.0531875,121.63971976133493L187.16174999999998,123.33996234146449L187.40927250000001,118.46579125408942L188.04327750000002,118.96080539318231L188.5470075,120.52845752697725L188.69030999999998,120.56045757004848L189.1636425,115.07666258399303L189.1896975,122.26368256027882L189.22877999999997,125.67970110647954L189.7889625,119.17234855317153L189.9366075,124.03487657526365L191.0482875,122.1485097947029L191.13079499999998,126.21360830790721L191.3175225,122.58457314910797L191.617155,126.34596036431881L192.5507925,120.95233509861507L192.989385,119.70535798829336L193.22822250000002,114.55037371585003L193.29336,127.27943190129903L193.5929925,119.51601045177533L193.74063750000002,122.46998114196154L194.0619825,122.79968708581649L194.1314625,121.27235581783148L194.17923,119.2161108564872L194.326875,123.58738318486854L194.674275,121.59670306054446L194.9391675,122.43777314172341L194.94351,120.67297761371502L195.19537499999998,120.98683062768899L195.282225,116.93984214044534L195.4689525,124.58008447346779L195.490665,122.53705493647318L195.803325,126.1269789315187L196.4156175,121.68793285523469L196.51549500000002,120.75741329559914L196.5198375,120.81767015273755L197.1104175,119.86806671894513L197.5272975,117.23105318385821L197.78350500000002,119.36425244120451L197.8312725,125.1723185880826L199.0645425,122.46448042129094L199.242585,121.2077699011335L199.54656,123.89907547315725L199.66815,121.55719373489802L199.8896175,123.52364431321621L200.31084,121.19000985186834L200.4454575,121.0916689364956L200.46716999999998,119.44829756938495L200.5409925,123.34098691092088L200.76246,122.68175761974774L200.927475,124.90291768656327L201.813345,118.97359729500917L202.126005,122.86562726016228L202.5819675,116.61560141237882L202.959765,119.7488311804258L203.011875,121.44830026133701L203.150835,125.22243119317751L203.272425,123.40822047740221L203.6502225,124.94957870990038L203.6936475,118.26629439340188L203.7197025,119.83921646613341L203.7370725,118.12304233816954L203.87168999999997,119.00073824135157L203.880375,119.88381059811665L203.94117,123.2235874820214L203.96722499999998,126.57971436415727L204.28422750000001,122.80630874633789L205.356825,122.76944707047481L205.738965,120.94479284722071L205.85187000000002,125.72512199500433L206.242695,120.14340200790993L206.35994250000002,121.38823614498743L206.6639175,119.93054516728108L206.9592075,125.23431011232046L207.02868750000002,127.69908946408674L207.3152925,120.20063080581335L207.5237325,120.45273068547249L207.5932125,120.83881584612223L207.719145,120.92148135602474L207.8277075,124.5591010881158L207.910215,120.9365100654272L208.535535,123.46564201609446L208.570275,123.192246815333L208.848195,125.87532793501249L208.9654425,125.69468416674778L209.55168,126.8852085144474L209.5820775,123.80346336158422L209.66024249999998,126.70472451815239L210.10752000000002,118.84894472589859L210.21174,124.19099407815017L210.255165,121.68580002624255L210.31596000000002,122.89327795516986L210.585195,123.75445647996206L210.9977325,125.261484027482L211.2843375,120.83992156959496L211.34079000000003,125.32510877629885L211.47975,129.09953642751162L211.55791499999998,126.0665597663476L211.60134,130.0675745033301L211.6925325,123.26661179100091L212.165865,127.83135529435597L212.46984,119.14528368871946L212.895405,128.98234495577904L213.4034775,128.81525390824447L213.56849250000002,125.33397485258487L213.711795,131.30822160037664L213.7856175,121.23688644056136L213.95497500000002,122.44153665923156L215.00586,127.48355454091842L215.07534,125.248659156836L215.70066,125.1787754045083L215.92647,126.0790828454953L216.11754,125.38534788099619L216.2695275,128.01360439050654L216.39980250000002,128.68965031550482L216.5040225,128.61625665197005L216.60824250000002,129.9101128870478L216.64298250000002,125.0913091273262L216.69075,129.97002483961674L216.69509250000002,127.07164465062894L216.95564249999998,126.11320810936965L217.07289,131.0175507383851L217.09026,128.68902390794113L217.15539750000002,127.87555633657254L217.2683025,128.12170661240816L217.31607,125.92978988817104L217.36383750000002,129.87545504994117L217.50714,123.31491871923208L217.87625250000002,124.07900407165289L218.106405,126.10199110267254L218.123775,128.70806213296376L218.1802275,128.47451609029218L218.5276275,121.85282006401282L218.5449975,127.85489249515992L218.662245,127.30538597015234L218.7013275,124.5422413412195L219.079125,130.1664936410693L219.1095225,129.02791293595845L219.3005925,128.04100655133908L219.530745,127.22270777993478L219.68273250000001,124.24384309523381L219.70010249999999,122.75795616897253L219.964995,127.16570722770233L220.3862175,136.57943617667144L220.5512325,128.39757193854223L220.75098749999998,128.4272083708873L220.75533,125.87379868901692L220.7683575,124.65758655908016L221.0115375,129.80902287937127L221.3763075,128.99224067364747L221.4805275,126.2286674500658L221.69331,127.14028065995528L221.754105,128.16241549585874L222.396795,129.37071003707555L222.52706999999998,125.03190692342244L222.7832775,127.68985819472715L223.00474499999999,130.94833650669227L223.8993,128.99805840219443L223.9383825,128.7946712208482L224.02523250000002,130.3416366886634L224.15985,130.3127915079777L224.168535,128.69196320497073L224.7547725,128.08600645340405L224.9111025,129.84819744470028L225.1021725,128.7874865543384L225.35837999999998,129.17685084446117L225.41049,129.70240679039404L225.90119249999998,130.03586610750511L226.061865,129.45592429030398L226.1964825,132.44326703365033L226.34847,134.50927330152348L226.999845,134.07035687623116L227.0389275,137.69702335217823L227.15617500000002,136.9541724553475L227.28645,133.45589670538902L227.43409499999999,136.32089216090165L227.6295075,135.8920413696995L227.66424750000002,136.63397674778332L227.7858375,135.92349615922342L228.27653999999998,134.6952199775439L228.34601999999998,135.4192431425819L228.4458975,135.2511909271662L228.615255,134.02070583460423L228.6890775,135.6956030010031L229.06253249999997,136.2070432202174L229.101615,135.6859076321125L229.24926,134.10218193095463L229.7486475,136.48333460493728L229.918005,135.75155108708603L230.14381500000002,136.8303035297073L231.394455,135.91324285647045L231.4856475,137.8605943442537L232.09794000000002,137.88538182412202L232.28466749999998,137.63075095357803L232.51482000000001,138.38093360857323L232.5452175,139.08370456558006L232.6320675,138.6114744165769L232.7449725,138.49991300472846L233.1357975,140.30217886372253L233.36160750000002,141.23786184764825L233.6221575,137.82033434395606L233.652555,137.87878298816773L233.7784875,139.2768105474802L234.00863999999999,139.53158597361582L234.02601,140.22790011419698L234.08246250000002,138.85280363662883L234.1432575,138.96872200472995L234.2474775,137.57563976828868L234.2995875,140.3366541042924L234.4385475,143.68456414227302L234.468945,139.65858186494845L234.52974,139.41540892708758L235.0204425,138.0818734501417L235.06821,138.1991663643947L235.094265,139.21019324431052L235.27230749999998,138.8379803483303L235.2896775,142.79009598636856L235.3504725,141.71367038155978L235.45035,141.69421117007732L235.910655,142.69197063635175L236.0973825,143.53885337395164L236.2884525,146.0323054541189L236.3666175,144.85872961552099L236.43609750000002,143.8835550583899L236.5663725,145.58775643287942L236.866005,142.89147510522832L237.4088175,142.5781457882661L237.595545,141.74276409642056L237.60423,137.49897711953292L237.7649025,142.5918265801783L237.76924499999998,138.8811213162083L237.81267,136.4878766937898L237.84741,139.06895989523485L237.9559725,138.3056328256543L238.3164,143.41783751919866L238.33811250000002,141.62355391853131L238.40324999999999,144.02167412208823L239.24569499999998,146.01207020735512L239.84496000000001,146.0226760228666L240.76557,142.5055129436346L241.104285,143.5506701595508L241.33878,145.95820296097259L241.4473425,147.37181716354993L241.9944975,143.50559797969L242.34624000000002,146.52288021491125L242.5590225,144.62617770954967L242.6111325,145.50896729528904L242.69364,147.77051670161578L242.94984749999998,144.63193964471037L243.4535775,142.67250381668026L243.79663499999998,146.7190167921094L243.97902,145.1687683907266L244.2612825,145.07902726502374" style="fill: none;" fill="none"></path></g></g></g></g></g><g><g><span fill="rgb(0, 0, 0)" stroke="none" stroke-width="1px">Alt + Scroll to Zoom</span></g></g></g><g transform="translate(58, 177)" clip-path="url(#clip_1)"><clipPath id="clip_1"><rect width="271" height="23"></rect></clipPath><g><g><line x1="0" y1="0" x2="0" y2="5" style="visibility: inherit;" fill="rgb(0, 0, 0)" stroke="rgb(204, 204, 204)" stroke-width="1px"></line><line x1="27.140625" y1="0" x2="27.140625" y2="5" style="visibility: inherit;" fill="rgb(0, 0, 0)" stroke="rgb(204, 204, 204)" stroke-width="1px"></line><line x1="54.28125" y1="0" x2="54.28125" y2="5" style="visibility: inherit;" fill="rgb(0, 0, 0)" stroke="rgb(204, 204, 204)" stroke-width="1px"></line><line x1="81.421875" y1="0" x2="81.421875" y2="5" style="visibility: inherit;" fill="rgb(0, 0, 0)" stroke="rgb(204, 204, 204)" stroke-width="1px"></line><line x1="108.5625" y1="0" x2="108.5625" y2="5" style="visibility: inherit;" fill="rgb(0, 0, 0)" stroke="rgb(204, 204, 204)" stroke-width="1px"></line><line x1="135.703125" y1="0" x2="135.703125" y2="5" style="visibility: inherit;" fill="rgb(0, 0, 0)" stroke="rgb(204, 204, 204)" stroke-width="1px"></line><line x1="162.84375" y1="0" x2="162.84375" y2="5" style="visibility: inherit;" fill="rgb(0, 0, 0)" stroke="rgb(204, 204, 204)" stroke-width="1px"></line><line x1="189.984375" y1="0" x2="189.984375" y2="5" style="visibility: inherit;" fill="rgb(0, 0, 0)" stroke="rgb(204, 204, 204)" stroke-width="1px"></line><line x1="217.125" y1="0" x2="217.125" y2="5" style="visibility: inherit;" fill="rgb(0, 0, 0)" stroke="rgb(204, 204, 204)" stroke-width="1px"></line><line x1="244.265625" y1="0" x2="244.265625" y2="5" style="visibility: inherit;" fill="rgb(0, 0, 0)" stroke="rgb(204, 204, 204)" stroke-width="1px"></line><line x1="271.40625" y1="0" x2="271.40625" y2="5" style="visibility: inherit;" fill="rgb(0, 0, 0)" stroke="rgb(204, 204, 204)" stroke-width="1px"></line></g><g transform="translate(0, 8)"><text x="0" y="0" dx="0em" dy="0.95em" style="text-anchor: middle; visibility: hidden; font-family: &quot;Helvetica Neue&quot;, sans-serif; font-size: 12px; font-weight: 200;" fill="rgb(50, 49, 63)" stroke="none" stroke-width="1px">-50k</text><text x="27.140625" y="0" dx="0em" dy="0.95em" style="text-anchor: middle; visibility: inherit; font-family: &quot;Helvetica Neue&quot;, sans-serif; font-size: 12px; font-weight: 200;" fill="rgb(50, 49, 63)" stroke="none" stroke-width="1px">0</text><text x="54.28125" y="0" dx="0em" dy="0.95em" style="text-anchor: middle; visibility: hidden; font-family: &quot;Helvetica Neue&quot;, sans-serif; font-size: 12px; font-weight: 200;" fill="rgb(50, 49, 63)" stroke="none" stroke-width="1px">50k</text><text x="81.421875" y="0" dx="0em" dy="0.95em" style="text-anchor: middle; visibility: inherit; font-family: &quot;Helvetica Neue&quot;, sans-serif; font-size: 12px; font-weight: 200;" fill="rgb(50, 49, 63)" stroke="none" stroke-width="1px">100k</text><text x="108.5625" y="0" dx="0em" dy="0.95em" style="text-anchor: middle; visibility: hidden; font-family: &quot;Helvetica Neue&quot;, sans-serif; font-size: 12px; font-weight: 200;" fill="rgb(50, 49, 63)" stroke="none" stroke-width="1px">150k</text><text x="135.703125" y="0" dx="0em" dy="0.95em" style="text-anchor: middle; visibility: inherit; font-family: &quot;Helvetica Neue&quot;, sans-serif; font-size: 12px; font-weight: 200;" fill="rgb(50, 49, 63)" stroke="none" stroke-width="1px">200k</text><text x="162.84375" y="0" dx="0em" dy="0.95em" style="text-anchor: middle; visibility: hidden; font-family: &quot;Helvetica Neue&quot;, sans-serif; font-size: 12px; font-weight: 200;" fill="rgb(50, 49, 63)" stroke="none" stroke-width="1px">250k</text><text x="189.984375" y="0" dx="0em" dy="0.95em" style="text-anchor: middle; visibility: inherit; font-family: &quot;Helvetica Neue&quot;, sans-serif; font-size: 12px; font-weight: 200;" fill="rgb(50, 49, 63)" stroke="none" stroke-width="1px">300k</text><text x="217.125" y="0" dx="0em" dy="0.95em" style="text-anchor: middle; visibility: hidden; font-family: &quot;Helvetica Neue&quot;, sans-serif; font-size: 12px; font-weight: 200;" fill="rgb(50, 49, 63)" stroke="none" stroke-width="1px">350k</text><text x="244.265625" y="0" dx="0em" dy="0.95em" style="text-anchor: middle; visibility: inherit; font-family: &quot;Helvetica Neue&quot;, sans-serif; font-size: 12px; font-weight: 200;" fill="rgb(50, 49, 63)" stroke="none" stroke-width="1px">400k</text><text x="271.40625" y="0" dx="0em" dy="0.95em" style="text-anchor: middle; visibility: hidden; font-family: &quot;Helvetica Neue&quot;, sans-serif; font-size: 12px; font-weight: 200;" fill="rgb(50, 49, 63)" stroke="none" stroke-width="1px">450k</text></g><line x1="0" y1="0" x2="271.40625" y2="0" fill="rgb(0, 0, 0)" stroke="rgb(204, 204, 204)" stroke-width="1px"></line></g></g></g></g></svg>