<svg viewBox="0 0 330 200" xmlns="http://www.w3.org/2000/svg"><g><g><g><g><g><line x1="48.875" y1="177" x2="43.875" y2="177" style="visibility: inherit;" fill="rgb(0, 0, 0)" stroke="rgb(204, 204, 204)" stroke-width="1px"></line><line x1="48.875" y1="163.3846153846154" x2="43.875" y2="163.3846153846154" style="visibility: inherit;" fill="rgb(0, 0, 0)" stroke="rgb(204, 204, 204)" stroke-width="1px"></line><line x1="48.875" y1="149.76923076923077" x2="43.875" y2="149.76923076923077" style="visibility: inherit;" fill="rgb(0, 0, 0)" stroke="rgb(204, 204, 204)" stroke-width="1px"></line><line x1="48.875" y1="136.15384615384616" x2="43.875" y2="136.15384615384616" style="visibility: inherit;" fill="rgb(0, 0, 0)" stroke="rgb(204, 204, 204)" stroke-width="1px"></line><line x1="48.875" y1="122.53846153846152" x2="43.875" y2="122.53846153846152" style="visibility: inherit;" fill="rgb(0, 0, 0)" stroke="rgb(204, 204, 204)" stroke-width="1px"></line><line x1="48.875" y1="108.92307692307693" x2="43.875" y2="108.92307692307693" style="visibility: inherit;" fill="rgb(0, 0, 0)" stroke="rgb(204, 204, 204)" stroke-width="1px"></line><line x1="48.875" y1="95.3076923076923" x2="43.875" y2="95.3076923076923" style="visibility: inherit;" fill="rgb(0, 0, 0)" stroke="rgb(204, 204, 204)" stroke-width="1px"></line><line x1="48.875" y1="81.69230769230768" x2="43.875" y2="81.69230769230768" style="visibility: inherit;" fill="rgb(0, 0, 0)" stroke="rgb(204, 204, 204)" stroke-width="1px"></line><line x1="48.875" y1="68.07692307692305" x2="43.875" y2="68.07692307692305" style="visibility: inherit;" fill="rgb(0, 0, 0)" stroke="rgb(204, 204, 204)" stroke-width="1px"></line><line x1="48.875" y1="54.461538461538424" x2="43.875" y2="54.461538461538424" style="visibility: inherit;" fill="rgb(0, 0, 0)" stroke="rgb(204, 204, 204)" stroke-width="1px"></line><line x1="48.875" y1="40.84615384615387" x2="43.875" y2="40.84615384615387" style="visibility: inherit;" fill="rgb(0, 0, 0)" stroke="rgb(204, 204, 204)" stroke-width="1px"></line><line x1="48.875" y1="27.230769230769255" x2="43.875" y2="27.230769230769255" style="visibility: inherit;" fill="rgb(0, 0, 0)" stroke="rgb(204, 204, 204)" stroke-width="1px"></line><line x1="48.875" y1="13.615384615384613" x2="43.875" y2="13.615384615384613" style="visibility: inherit;" fill="rgb(0, 0, 0)" stroke="rgb(204, 204, 204)" stroke-width="1px"></line><line x1="48.875" y1="0" x2="43.875" y2="0" style="visibility: inherit;" fill="rgb(0, 0, 0)" stroke="rgb(204, 204, 204)" stroke-width="1px"></line></g><g transform="translate(38.875, 0)"><text x="0" y="177" dx="0em" dy="0.3em" style="text-anchor: end; visibility: hidden; font-family: &quot;Helvetica Neue&quot;, sans-serif; font-size: 12px; font-weight: 200;" fill="rgb(50, 49, 63)" stroke="none" stroke-width="1px">0.38</text><text x="0" y="163.3846153846154" dx="0em" dy="0.3em" style="text-anchor: end; visibility: inherit; font-family: &quot;Helvetica Neue&quot;, sans-serif; font-size: 12px; font-weight: 200;" fill="rgb(50, 49, 63)" stroke="none" stroke-width="1px">0.4</text><text x="0" y="149.76923076923077" dx="0em" dy="0.3em" style="text-anchor: end; visibility: hidden; font-family: &quot;Helvetica Neue&quot;, sans-serif; font-size: 12px; font-weight: 200;" fill="rgb(50, 49, 63)" stroke="none" stroke-width="1px">0.42</text><text x="0" y="136.15384615384616" dx="0em" dy="0.3em" style="text-anchor: end; visibility: inherit; font-family: &quot;Helvetica Neue&quot;, sans-serif; font-size: 12px; font-weight: 200;" fill="rgb(50, 49, 63)" stroke="none" stroke-width="1px">0.44</text><text x="0" y="122.53846153846152" dx="0em" dy="0.3em" style="text-anchor: end; visibility: hidden; font-family: &quot;Helvetica Neue&quot;, sans-serif; font-size: 12px; font-weight: 200;" fill="rgb(50, 49, 63)" stroke="none" stroke-width="1px">0.46</text><text x="0" y="108.92307692307693" dx="0em" dy="0.3em" style="text-anchor: end; visibility: inherit; font-family: &quot;Helvetica Neue&quot;, sans-serif; font-size: 12px; font-weight: 200;" fill="rgb(50, 49, 63)" stroke="none" stroke-width="1px">0.48</text><text x="0" y="95.3076923076923" dx="0em" dy="0.3em" style="text-anchor: end; visibility: hidden; font-family: &quot;Helvetica Neue&quot;, sans-serif; font-size: 12px; font-weight: 200;" fill="rgb(50, 49, 63)" stroke="none" stroke-width="1px">0.5</text><text x="0" y="81.69230769230768" dx="0em" dy="0.3em" style="text-anchor: end; visibility: inherit; font-family: &quot;Helvetica Neue&quot;, sans-serif; font-size: 12px; font-weight: 200;" fill="rgb(50, 49, 63)" stroke="none" stroke-width="1px">0.52</text><text x="0" y="68.07692307692305" dx="0em" dy="0.3em" style="text-anchor: end; visibility: hidden; font-family: &quot;Helvetica Neue&quot;, sans-serif; font-size: 12px; font-weight: 200;" fill="rgb(50, 49, 63)" stroke="none" stroke-width="1px">0.54</text><text x="0" y="54.461538461538424" dx="0em" dy="0.3em" style="text-anchor: end; visibility: inherit; font-family: &quot;Helvetica Neue&quot;, sans-serif; font-size: 12px; font-weight: 200;" fill="rgb(50, 49, 63)" stroke="none" stroke-width="1px">0.56</text><text x="0" y="40.84615384615387" dx="0em" dy="0.3em" style="text-anchor: end; visibility: hidden; font-family: &quot;Helvetica Neue&quot;, sans-serif; font-size: 12px; font-weight: 200;" fill="rgb(50, 49, 63)" stroke="none" stroke-width="1px">0.58</text><text x="0" y="27.230769230769255" dx="0em" dy="0.3em" style="text-anchor: end; visibility: inherit; font-family: &quot;Helvetica Neue&quot;, sans-serif; font-size: 12px; font-weight: 200;" fill="rgb(50, 49, 63)" stroke="none" stroke-width="1px">0.6</text><text x="0" y="13.615384615384613" dx="0em" dy="0.3em" style="text-anchor: end; visibility: hidden; font-family: &quot;Helvetica Neue&quot;, sans-serif; font-size: 12px; font-weight: 200;" fill="rgb(50, 49, 63)" stroke="none" stroke-width="1px">0.62</text><text x="0" y="0" dx="0em" dy="0.3em" style="text-anchor: end; visibility: hidden; font-family: &quot;Helvetica Neue&quot;, sans-serif; font-size: 12px; font-weight: 200;" fill="rgb(50, 49, 63)" stroke="none" stroke-width="1px">0.64</text></g><line x1="48.875" y1="0" x2="48.875" y2="177" fill="rgb(0, 0, 0)" stroke="rgb(204, 204, 204)" stroke-width="1px"></line></g></g><g transform="translate(48, 0)" clip-path="url(#clip_0)"><clipPath id="clip_0"><rect width="281" height="177"></rect></clipPath><g><g><g><line x1="0" y1="0" x2="0" y2="177" fill="rgb(0, 0, 0)" stroke="rgb(60, 60, 60)" stroke-width="1px" opacity="0.25"></line><line x1="28.1125" y1="0" x2="28.1125" y2="177" fill="rgb(0, 0, 0)" stroke="rgb(60, 60, 60)" stroke-width="1px" opacity="0.25"></line><line x1="56.225" y1="0" x2="56.225" y2="177" fill="rgb(0, 0, 0)" stroke="rgb(60, 60, 60)" stroke-width="1px" opacity="0.25"></line><line x1="84.33749999999999" y1="0" x2="84.33749999999999" y2="177" fill="rgb(0, 0, 0)" stroke="rgb(60, 60, 60)" stroke-width="1px" opacity="0.25"></line><line x1="112.45" y1="0" x2="112.45" y2="177" fill="rgb(0, 0, 0)" stroke="rgb(60, 60, 60)" stroke-width="1px" opacity="0.25"></line><line x1="140.5625" y1="0" x2="140.5625" y2="177" fill="rgb(0, 0, 0)" stroke="rgb(60, 60, 60)" stroke-width="1px" opacity="0.25"></line><line x1="168.67499999999998" y1="0" x2="168.67499999999998" y2="177" fill="rgb(0, 0, 0)" stroke="rgb(60, 60, 60)" stroke-width="1px" opacity="0.25"></line><line x1="196.7875" y1="0" x2="196.7875" y2="177" fill="rgb(0, 0, 0)" stroke="rgb(60, 60, 60)" stroke-width="1px" opacity="0.25"></line><line x1="224.9" y1="0" x2="224.9" y2="177" fill="rgb(0, 0, 0)" stroke="rgb(60, 60, 60)" stroke-width="1px" opacity="0.25"></line><line x1="253.01250000000002" y1="0" x2="253.01250000000002" y2="177" fill="rgb(0, 0, 0)" stroke="rgb(60, 60, 60)" stroke-width="1px" opacity="0.25"></line><line x1="281.125" y1="0" x2="281.125" y2="177" fill="rgb(0, 0, 0)" stroke="rgb(60, 60, 60)" stroke-width="1px" opacity="0.25"></line></g><g><line x1="0" y1="177" x2="281.125" y2="177" fill="rgb(0, 0, 0)" stroke="rgb(60, 60, 60)" stroke-width="1px" opacity="0.25"></line><line x1="0" y1="163.3846153846154" x2="281.125" y2="163.3846153846154" fill="rgb(0, 0, 0)" stroke="rgb(60, 60, 60)" stroke-width="1px" opacity="0.25"></line><line x1="0" y1="149.76923076923077" x2="281.125" y2="149.76923076923077" fill="rgb(0, 0, 0)" stroke="rgb(60, 60, 60)" stroke-width="1px" opacity="0.25"></line><line x1="0" y1="136.15384615384616" x2="281.125" y2="136.15384615384616" fill="rgb(0, 0, 0)" stroke="rgb(60, 60, 60)" stroke-width="1px" opacity="0.25"></line><line x1="0" y1="122.53846153846152" x2="281.125" y2="122.53846153846152" fill="rgb(0, 0, 0)" stroke="rgb(60, 60, 60)" stroke-width="1px" opacity="0.25"></line><line x1="0" y1="108.92307692307693" x2="281.125" y2="108.92307692307693" fill="rgb(0, 0, 0)" stroke="rgb(60, 60, 60)" stroke-width="1px" opacity="0.25"></line><line x1="0" y1="95.3076923076923" x2="281.125" y2="95.3076923076923" fill="rgb(0, 0, 0)" stroke="rgb(60, 60, 60)" stroke-width="1px" opacity="0.25"></line><line x1="0" y1="81.69230769230768" x2="281.125" y2="81.69230769230768" fill="rgb(0, 0, 0)" stroke="rgb(60, 60, 60)" stroke-width="1px" opacity="0.25"></line><line x1="0" y1="68.07692307692305" x2="281.125" y2="68.07692307692305" fill="rgb(0, 0, 0)" stroke="rgb(60, 60, 60)" stroke-width="1px" opacity="0.25"></line><line x1="0" y1="54.461538461538424" x2="281.125" y2="54.461538461538424" fill="rgb(0, 0, 0)" stroke="rgb(60, 60, 60)" stroke-width="1px" opacity="0.25"></line><line x1="0" y1="40.84615384615387" x2="281.125" y2="40.84615384615387" fill="rgb(0, 0, 0)" stroke="rgb(60, 60, 60)" stroke-width="1px" opacity="0.25"></line><line x1="0" y1="27.230769230769255" x2="281.125" y2="27.230769230769255" fill="rgb(0, 0, 0)" stroke="rgb(60, 60, 60)" stroke-width="1px" opacity="0.25"></line><line x1="0" y1="13.615384615384613" x2="281.125" y2="13.615384615384613" fill="rgb(0, 0, 0)" stroke="rgb(60, 60, 60)" stroke-width="1px" opacity="0.25"></line><line x1="0" y1="0" x2="281.125" y2="0" fill="rgb(0, 0, 0)" stroke="rgb(60, 60, 60)" stroke-width="1px" opacity="0.25"></line></g></g></g><g><g><line x1="0" y1="435.6923076923077" x2="281.125" y2="435.6923076923077" fill="rgb(0, 0, 0)" stroke="rgb(153, 153, 153)" stroke-width="1.5px"></line></g></g><g><g><line x1="28.1125" y1="0" x2="28.1125" y2="177" fill="rgb(0, 0, 0)" stroke="rgb(153, 153, 153)" stroke-width="1.5px"></line></g></g><g><g><g><g><g><path stroke="rgb(255, 112, 67)" stroke-width="2px" d="M29.142542000000002,-20.492566315917543L29.165032,19.009112321541522L29.259490000000003,43.997307170002955L29.340454,40.89699170923501L29.497884,-19.684033964063758L30.244552,-5.705139720004041L30.523428000000003,5.358777608631698L30.716842,35.787822482446444L30.748328,21.807603891402636L30.964232000000003,73.49609554039698L31.022706000000003,37.34913375984448L31.130658,27.950334893825527L31.324071999999997,79.51721874772669L31.360056,88.32326049374427L31.64343,103.09564162290671L31.719896000000002,57.99319257831594L31.746884,55.01388657209594L31.872828000000002,45.37273958973873L32.480058,45.75859263999382L32.673472,48.893440647699435L32.907368,44.02424432832032L33.078292000000005,97.2822012759231L33.420139999999996,80.39333611547622L33.784478,57.65093967741555L34.031867999999996,78.80725403881036L34.045362000000004,32.04239627435612L34.108334,55.33480828579545L34.126326,14.328489198601119L34.34223,76.97138568430447L34.373716,74.57015313198467L34.571628000000004,82.24390237401109L34.706568,97.50938751399059L34.962954,120.01586866237183L35.093396,50.83274154898061L35.165364000000004,29.98279511543018L35.237332,48.265858541299934L35.718618,62.92880487763945L35.912031999999996,94.9039244025771L35.925526,81.35699250708844L36.406812,78.74591063312731L36.505768,116.87190190596928L36.555246000000004,92.11038122664901L36.735166,117.781094774666L36.811632,109.47519668271609L36.870106,73.4981761364147L37.270428,75.26424301333029L37.540307999999996,59.11767351656306L37.949626,66.13444208199637L38.003602,71.43798866833058L38.147538000000004,75.30827021715477L38.174526,53.01011220561546L38.286976,38.2076136439164L38.489386,42.599178496684516L38.858222000000005,35.7157738313268L39.069627999999994,56.45412957011534L39.146094000000005,46.56771280004662L39.155089999999994,109.57813920664962L39.177580000000006,117.58264385881168L39.29003,108.52627762367534L39.294528,69.59108985512655L39.348504000000005,112.80228857702461L39.370994,91.75092790428671L39.501436,31.75210277701811L39.568906,116.87524202330764L40.18963,68.53188476802299L40.43702,38.6773564815237L41.458065999999995,60.36981210706918L41.777423999999996,69.05192070226379L41.790918000000005,98.72314885270896L42.051801999999995,78.25207724532709L42.330678,79.33879562648256L42.641040000000004,44.86533952933894L42.704012000000006,70.15930106427602L42.713007999999995,45.578309145534206L42.717506,48.769117693283675L42.97839,68.64326256340836L43.76554,63.21869256301075L44.386264,43.66233229850047L44.39526,78.1790908661192L44.62016,113.85010803629419L44.939518,133.59632428772773L45.173414,107.94650805351269L45.267872,44.036790635330306L45.299358,47.104617574575144L45.780643999999995,98.76655156813742L45.906588,85.19977739051438L46.032532,56.92501188871542L46.266428,11.808879318716265L46.545304,22.897412493479578L46.986108,66.34960199550851L47.125546,85.4325566947592L47.148036,96.87710319565684L47.530366,95.07778322966755L47.539362000000004,47.87307251762158L47.9037,70.92972218830795L48.317516,57.641625841724135L48.393981999999994,43.336725908218625L48.48844,25.05417676018226L49.091172,43.287871361789854L49.109164,91.68992634063639L49.145148,113.26709171294885L49.648923999999994,139.30873574572175L49.711895999999996,134.5529053847816L49.882819999999995,114.4088785223353L49.936796,102.68755809361406L50.125712,115.99138613968204L50.472058,97.19270337984126L50.8274,86.4707458925921L50.836396,56.968471020298836L51.079288,74.10525931247791L51.205232,119.42916585357071L51.677521999999996,109.67006089575662L52.154309999999995,93.63799788664787L52.217282,75.68260329110949L52.491659999999996,46.62674626885277L53.071902,73.48928533669596L53.656642000000005,72.79286520792506L53.854554,74.65156182806082L54.236883999999996,90.80718349634917L54.326844,151.73037647368864L54.488772,146.10131914116357L54.520258,124.00982537960383L54.682185999999994,81.7540219949941L54.776644,102.09947837982907L55.055519999999994,49.24250156729329L55.14548,70.93681240982085L55.644758,42.71967621022986L55.689738,64.0659216476719L56.000099999999996,85.2907362545093L56.058574,137.23351624442654L56.085561999999996,118.44733713445102L56.144036,97.09643068446633L56.400422,87.7614536418094L56.503876,81.16753179539377L56.791748,81.93190781850942L57.439460000000004,44.76428529277726L57.682352,88.91481152154786L57.812794,62.22678311912426L58.055686,88.08784789453411L58.231108,14.15925671592862L58.244602,7.386150059865827L58.298578,24.039607975619077L58.438016,46.24380402833597L58.941792,38.01274007371518L59.445568,77.70236706346222L59.562516,85.39681314455976L60.075288,74.92745230902047L60.111272,45.570600184117154L60.29569,60.813607662461706L60.709506000000005,77.54135597320943L60.997378,107.57532032060769L61.213282,100.56884717412447L61.316736,101.76360437736125L61.6226,106.00846725200125L61.66758,149.54808836874074L61.681073999999995,142.97863282151275L61.748544,136.9705185441028L61.896978000000004,96.26734117600577L62.715614,68.77943601751896L63.01698,37.20387813727646L63.142924,114.01401760974647L63.187903999999996,123.72640858814745L63.345334,124.559584432122L64.056018,143.97790322911735L64.39336800000001,102.83765502560868L64.90614,111.08185373693865L65.090558,128.3847211848553L65.598832,99.57045572198874L65.72927399999999,114.95056745619354L65.75176400000001,105.16863889865697L65.79224599999999,80.9984233066871L66.19706599999999,63.116505094265264L66.21056,72.8579840973083L66.336504,30.679787555547108L66.381484,40.86575721913812L66.799798,100.34878102347713L66.95273,140.24239769911352L67.22261,186.19196794737422L67.780362,165.02074583953046L68.045744,131.03223924252183L68.162692,107.18825550875586L68.176186,137.93871310675135L68.270644,104.47707629717858L68.30213,36.16404589814732L68.563014,52.13860504188739L68.590002,67.0060125298967L68.84188999999999,46.641364760580956L69.76398,110.45508420632356L70.015868,96.01230078759512L70.15980400000001,123.59360956031327L70.55113,107.35593687269191L70.699564,92.9193038005326L71.05490599999999,69.1506174296738L71.08639199999999,59.224555775650714L71.14486600000001,26.343850239729363L71.414746,35.573517186825114L71.54968600000001,42.37477177399859L71.65314,49.470574772468L71.734104,1.3910685809502183L72.386314,4.662939687951933L72.674186,39.39327868612912L73.35338399999999,60.93481148311726L73.470332,29.595620100947514L74.33394799999999,66.18659517436211L74.365434,114.66611076891272L74.87370800000001,112.58434783472374L74.887202,123.70480959218226L74.98166,115.0690451199363L75.24704200000001,91.98031161266633L75.440456,61.69834982362839L75.82278600000001,86.44327051781546L75.962224,58.93271187243927L76.03419199999999,97.52544973761984L76.11065799999999,70.92260291215315L76.290578,133.2256658748824L76.49748600000001,104.23114675736659L76.501984,51.60240916835852L76.60094,13.59841775232033L76.75837,40.552702712707855L76.875318,71.27871271005094L76.9158,38.065670969119765L77.149696,68.11744770207791L77.16319,111.27016961867272L77.316122,125.36100248182302L77.334114,104.35688641983651L77.437568,90.8153674286783L77.464556,101.27035157620149L77.473552,57.82257290693887L77.68046,61.000092732065454L78.049296,64.01703503283153L78.134758,74.36567416611992L78.17524,91.8840674788713L78.481104,133.26564493822352L78.4901,86.56055593289541L78.75998,118.11455681936965L79.475162,101.77067794764103L79.71355600000001,112.31217018216059L79.803516,116.57869939842578L79.942954,111.40867252482994L79.983436,48.9948621288365L80.059902,79.8377374559207L80.13636799999999,34.266531771624614L80.505204,64.37170587781115L80.60865799999999,68.18230664383428L80.67163,73.7437348179926L81.00448200000001,30.5472682878046L81.517254,84.26382010781163L81.949062,98.29104329478012L81.971552,99.22685155745035L82.13347999999999,77.97125595312112L82.272918,65.25354143450363L82.709224,62.053337707017945L82.826172,129.27909925078595L82.844164,88.7421442657426L82.91613199999999,97.51882349649894L83.105048,98.05032195201187L83.39292,87.67721994847459L83.406414,112.29991109082117L83.478382,77.63749360021136L83.91019,105.20860781242772L84.148584,87.4068235826558L85.106658,116.41870182631959L85.232602,108.39308520483107L85.70939,78.3541217951833L86.033246,93.69016528686731L86.312122,100.68733991260298L86.662966,71.60551062454383L86.739432,120.48079891479239L86.86087799999999,90.02495320998293L86.95533599999999,70.06581194433548L87.009312,53.41559615044811L87.07678200000001,80.74322405137337L87.333168,93.27996158178512L87.66152199999999,55.84685035966277L88.156302,62.966389044198465L88.394696,73.86389945804846L88.412688,118.50337237998937L88.853492,178.3598619733894L89.04240800000001,192.18943904936486L89.271806,134.17012763954227L89.37526,139.16676885539812L89.640642,164.68849085959505L89.654136,124.66988794505838L90.07694799999999,131.81620392363953L90.22988000000001,138.39458185301467L90.38730999999999,146.732113933683L90.562732,134.2824132740299L90.97654800000001,73.13090718295666L91.075504,91.91158163115809L91.44434,97.539887664112L92.078558,69.12084940975002L92.375426,90.76654241945475L92.406912,87.13055617078436L92.44739399999999,101.64869994385232L92.52386000000001,106.05792830174768L92.604824,99.19826869011516L92.870206,65.34199301367892L93.095106,84.00625008232625L93.306512,63.71262308658727L93.58988599999999,63.180733540021635L93.92723600000001,68.43856873873207L93.954224,48.19976441306491L94.089164,100.92657147698863L94.12964600000001,105.1818018698199L94.174626,123.68085220073529L94.588442,93.91056791910452L94.62892400000001,106.93531570232646L94.646916,107.05538400418828L94.723382,124.93779379830656L95.011254,193.05589475960764L95.096716,144.55717706657646L95.703946,161.71192153036756L95.98732000000001,210.5308723700148L96.194228,164.06541901770612L96.39214000000001,131.0253845679136L96.778968,110.09492626995232L97.039852,55.084417261405676L97.710054,109.24416381260117L97.71905000000001,64.50433853581538L97.86298599999999,72.91590676816378L98.00242399999999,55.45108065030071L98.267806,67.22886873266984L98.91102,79.16138220968821L99.01897199999999,134.18060308917612L99.059454,81.96321379996961L99.306844,89.53765858602026L99.986042,68.62971538676182L100.049014,63.178070188877L100.50781,94.0139087519793L100.602268,100.7318162544999L101.20050200000001,124.27962287901747L101.524358,102.59176893248276L101.623314,94.60994011520584L101.69978,103.65180821541188L101.906688,106.55781102327299L102.05962,85.55663623897908L102.35199,140.81655464555337L102.71183,110.72050538512913L103.053678,141.57066028167975L103.215606,187.71851633468603L103.714884,118.82352222123114L103.719382,96.51691535552594L103.87231399999999,122.76174776770668L103.93528599999999,140.6293639702219L104.124202,96.96941453087345L104.875368,110.87328365595717L105.014806,97.63956011303137L105.167738,75.5895316273352L105.653522,59.64017329452109L105.801956,96.3398552527289L105.88292,94.60034913866974L105.891916,82.07049553561228L105.999868,117.92852053302262L106.004366,85.89282718821241L106.01786,81.7876776520153L106.10332199999999,52.014865580103134L106.260752,69.43451813999125L106.40019,124.86875551199135L106.57561199999999,105.75014231769758L106.620592,78.48734420638392L107.020914,104.9181610361037L107.08388599999999,64.36781718088508L107.214328,51.195005882149985L107.25031200000001,95.2430608625026L107.380754,131.11529169363493L107.826056,94.15630300616999L108.865094,88.64751013108635L108.99103799999999,71.86118890315342L109.03152,82.85335122581203L109.157464,76.80471491055602L109.31489400000001,136.49893272935424L109.36887,70.71130853123297L109.65674200000001,103.69677289263502L110.26397200000001,88.19115087030907L110.506864,56.17599841095006L111.105098,62.47757458951884L111.10959600000001,76.00842062852412L111.739316,80.47128877771875L112.283574,58.396823680643266L112.31506,77.34139828274675L112.87731,93.1275310814703L113.38558400000001,107.78474140490117L113.471046,105.09249566345277L113.59699,98.87805272732112L113.695946,83.7703116401898L113.79040400000001,24.732630570316644L114.096268,48.10264961144543L114.33466200000001,46.582433364426066L114.595546,58.72650784351525L114.79345799999999,119.1932362516455L115.75603000000001,125.2328927617647L115.836994,111.17442758504204L115.93594999999999,60.1804293793474L115.962938,62.71220362381952L116.45322,77.87170827689471L116.516192,117.47291365950619L116.56567,133.49727320302503L116.81306000000001,162.013146260691L116.862538,128.24556982017754L116.889526,114.07772665641104L117.15490799999999,89.21836745119012L117.276354,100.79380067673415L117.37980800000001,85.53925770903196L117.694668,109.33670999224339L117.793624,78.16957332400156L117.942058,72.65503359125196L118.05001,63.82832356403419L118.22993,78.97954700608986L118.310894,57.619890173058906L118.337882,98.24994819701432L118.35137599999999,100.21872970756627L118.693224,80.47145714615749L118.697722,59.25240164963769L118.90912800000001,95.33069440657762L119.04856600000001,94.28786732240519L119.170012,69.77576859331678L119.183506,57.6114866889326L119.205996,64.03601301834446L119.525354,65.60755795085936L119.574832,18.75904699104501L119.79523400000001,42.665136500132604L120.05162,30.568892833412747L120.25402999999999,64.8171572941392L120.43844800000001,105.61397001079433L120.496922,140.60975612132012L120.50142000000001,120.39569259059766L120.600376,80.91617603523933L120.67234400000001,68.40681508344151L121.171622,58.13457694104207L121.26608,47.110530477240275L121.576442,52.10666164064271L121.58993600000001,35.12803575256703L121.594434,64.2906248969161L121.810338,66.43315679674056L121.91829,50.29800871013731L122.512026,52.651930636162376L122.87186600000001,78.75056460169334L122.93034,57.159945977044046L123.21821200000001,101.58522990667154L123.510582,102.77295523937086L123.614036,95.67904475960458L123.991868,140.81615725078638L124.005362,112.17740354260116L124.02785200000001,100.69700635449884L124.329218,119.58764160445028L124.41018199999999,135.95748339158706L124.747532,130.5882898747056L124.92295399999999,160.56918662662088L125.633638,164.42909447063488L125.82255400000001,128.12510068426832L125.827052,105.99695584119927L126.119422,79.15468817868617L126.14641,18.957311727883337L126.263358,78.25657269577171L126.357816,101.85844569566608L126.384804,109.04997330221578L127.095488,75.72924409145098L128.17051,46.30101285340314L128.228984,111.02486326213298L128.38191600000002,119.78255366220067L128.489868,75.98139910062545L128.55284,110.82375278018309L128.678784,121.86690692041984L129.191556,140.0977831653222L129.348986,149.84625830113447L129.515412,157.8279086242154L129.92473,130.40320156799123L130.50947,78.66421787565619L130.84682,130.54614403070565L131.25164,137.6894754597225L131.265134,107.94744106977174L131.92633999999998,89.73874782738173L131.944332,89.53790529591406L132.137746,100.17476229864513L132.18722400000001,81.16260805174753L132.232204,58.36466761542542L132.385136,35.836609718190374L132.430116,20.596258442256442L132.547064,74.50975715052606L132.749474,117.03811645604546L132.852928,143.94835173041358L133.082326,123.04839047210012L133.190278,100.68161995475829L133.27574,94.53966083088724L133.487146,145.38484729320714L133.99542,86.94919421896655L134.215822,41.420995577541305L134.58016,40.114944942033105L134.629638,61.000102388586726L134.719598,71.3385451812212L135.04795199999998,70.9743519302636L135.304338,69.98308743602307L135.78562399999998,72.10546259163047L136.419842,78.48392977577768L136.595264,65.53902314324112L136.725706,63.43860966281072L137.117032,69.90532762550743L137.332936,54.77623115304097L137.34193199999999,21.113066632105216L137.512856,95.9110486425433L137.61631,93.4897306906588L137.935668,81.93469319488581L138.569886,92.5293557252782L138.857758,79.9564676600322L139.298562,105.05206865589953L139.33454600000002,86.4730209427498L140.01824200000001,58.430932960723425L140.117198,82.08337206031679L140.265632,80.87139744713464L140.598484,111.69751100586436L140.77390599999998,103.1266916087066L141.16073400000002,106.54092526151737L141.48908799999998,106.9202977603591L141.601538,102.04891702769771L141.660012,79.98506983064762L141.70049400000002,99.09532050685743L142.055836,87.6142151727844L142.32121800000002,101.25642252917191L142.83399,73.03359624258208L142.90146,57.77284182523299L143.25680200000002,66.9821760757107L143.64812799999999,83.26820676942691L144.04845,63.711388563403844L144.214876,97.8196108560728L144.372306,103.62585656676187L144.70515799999998,97.45394782049628L145.26290999999998,107.2929245883232L145.35736799999998,99.266483435732L145.39785,66.30377648455018L145.469818,82.70152894917246L145.753192,96.90129176626778L145.75769000000003,66.15615014940603L145.82066200000003,120.87386627253721L146.373916,96.47723996929886L146.423394,121.27134338333212L146.873194,122.46384242639269L147.17455999999999,132.47802585319798L148.07415999999998,75.64029757125084L148.645406,66.20192432736326L148.649904,42.19364544627973L148.780346,73.4062758626446L148.78934199999998,73.3300789853461L149.234644,106.15713422200707L149.909344,152.13378897865056L150.197216,91.69236114679512L150.224204,69.92250446162019L150.251192,126.30067377083951L150.269184,70.20662046868748L150.273682,36.422484527270996L150.790952,58.431525014599174L151.038342,61.038251002746335L151.578102,85.81828386057012L151.82999,104.14627260065618L152.270794,120.38628076372468L152.31577399999998,97.55963247058618L152.34725999999998,74.79701940348136L152.428224,87.50598570461231L152.68461000000002,112.84612675163247L152.882522,131.29202217848956L153.26935,135.77209315799482L153.67866800000002,96.82198200012009L153.68766399999998,99.48717063665477L153.8316,114.40610063717968L153.912564,104.78646569086985L155.185498,124.72068197921627L155.302446,130.48674191518208L155.50035799999998,87.34482826053478L155.74774799999997,128.20516600625882L156.026624,114.5647709018557L156.08509800000002,72.42794948085177L156.49891399999998,123.61355314824777L156.629356,102.6376626437716L156.80477800000003,66.09330401831201L158.06421799999998,37.32501572561873L158.41956000000002,74.1996634357269L158.536508,83.06719687439035L158.635464,72.65107670432852L158.720926,96.88125440849012L158.83337600000002,102.07486558778967L158.90534399999999,108.22099053433791L158.95932000000002,45.12658721778317L159.15273399999998,87.39932719627521L159.45859800000002,71.73693783690084L159.73747400000002,84.43542186797774L160.67305800000003,112.87012794061553L160.704544,84.80110570823813L160.745026,72.13501781750813L160.969926,38.42432001594315L160.98342000000002,56.88494608389729L161.077878,66.52252593803232L161.21731599999998,38.8357941211103L161.302778,93.0374918089963L161.91450600000002,148.38548779389743L162.278844,118.32744201087917L162.283342,77.33352654568579L162.436274,81.58332368506788L163.05249999999998,57.303002470300484L163.07499,77.66553534344325L163.191938,118.1212199415525L163.398846,85.96777244033669L163.466316,109.77740544680879L163.835152,87.48066703074423L164.02856599999998,116.83767164244662L164.145514,96.09211569310486L164.32993199999999,129.54640269492975L164.523346,91.56853315408134L165.11708199999998,91.271342286365L165.14856799999998,73.40286428174872L165.16656,98.08282306732555L165.625356,162.93741710288873L165.805276,139.73562791299184L166.228088,133.87158194989777L166.29106000000002,126.30765100329685L166.372024,132.00679855902578L166.56094,77.5507484865531L167.78439600000002,104.52238268348106L168.02279,146.67402354708213L168.558052,161.15268804376015L169.376688,98.93414565539406L169.54311399999997,99.7232934364945L169.965926,92.10235878357756L170.681108,115.52791740109515L170.798056,102.92810228647173L170.97797599999998,98.68721771669294L171.184884,111.54545958482977L171.477254,90.29916566122901L171.50874,89.5142217029156L171.544724,113.24699435663814L171.760628,98.41754087045727L171.80111,78.49056726375645L172.066492,88.2289616739899L172.124966,85.38105240138651L172.777176,91.88919968547256L172.831152,91.38471442408002L172.97958599999998,69.70728890222144L173.168502,77.4037587759971L173.460872,45.040453375004915L173.793724,81.99058911745837L174.00512999999998,124.69257177576938L174.29749999999999,104.13560037321851L174.427942,120.68262248524843L174.486416,83.68425618536412L174.796778,134.33186506218766L174.81027200000003,125.53767256132993L175.003686,55.72814872379442L175.224088,54.533220526208964L175.475976,79.40302126756986L176.06971199999998,92.26333811969566L176.105696,121.37126436241913L176.137182,71.40045722232864L176.555496,51.05892400319114L176.609472,28.872335984556287L176.699432,54.07895218433001L177.212204,52.81862392806717L177.230196,80.3141770308697L177.351642,64.05395800192214L177.360638,73.52855299167803L177.765458,78.82763363823918L178.080318,66.90527720120005L178.201764,54.038490741649L178.23325,47.50891582413749L178.24674399999998,53.707230011855216L178.359194,92.57938728529903L178.970922,46.8030313122195L179.384738,70.49048512111715L179.416224,81.09597788044944L179.821044,54.696682981004514L179.861526,73.60752364981872L179.915502,88.96877404765584L180.00096399999998,120.65023012955001L180.07743,111.28800051028321L180.320322,86.5078216662738L180.37429799999998,80.8080406643773L180.486748,12.44499509679224L180.65317399999998,18.818435220952352L180.914058,39.08868532444245L181.12096599999998,56.86735878075433L181.20642800000002,102.8895535386106L181.23791400000002,105.8928337817674L181.444822,105.62197415750167L181.678718,105.20967443602464L181.69221199999998,89.82874232696727L181.849642,77.76566804013525L182.434382,98.76324533650708L182.66827800000002,74.86318674728624L182.672776,69.65130666017056L182.767234,7.75375466372131L183.014624,-21.941735924788446L183.40595,47.771354519421976L183.410448,33.73689032519033L183.58137200000002,42.75575545935183L183.73880200000002,96.93756262779628L183.779284,55.95150029666844L183.95470600000002,94.04023865740989L184.17510800000002,93.1573439719399L184.42249800000002,104.24114455474138L184.566434,122.87967473818951L184.993744,99.50938472986368L185.67744,108.73867229494768L185.897842,141.4927212194081L186.05977,159.5340566953383L186.33864599999998,103.20808076934041L186.684992,118.6493916644446L186.698486,101.43884087039552L187.040334,139.05289027949289L187.134792,117.99773316941881L187.17077600000002,139.46344656839233L187.22925,149.18877507000033L187.23824599999998,115.8017166842567L187.26523400000002,113.90823207756242L187.70603799999998,147.54070496008245L187.715034,120.48050881201983L188.10636000000002,106.38434138026349L188.119854,103.46379568743917L188.2413,99.776545521565L189.010458,97.37239601980357L189.041944,124.07487392059618L189.338812,110.81260744022016L189.361302,142.62661545951863L189.829094,161.68799598365388L189.90556,130.71970017485515L190.20692599999998,106.77695798347776L190.296886,90.25285929584271L190.778172,73.8912977933283L191.012068,56.14011125230857L191.07953799999999,61.19302610710629L191.147008,53.09102828595263L191.218976,81.38430477784776L191.27745,69.88094852378147L191.43488,43.208972387191096L191.520342,57.846913888124035L191.551828,108.06467156973599L192.599862,116.00675499153715L192.869742,134.63399561563983L193.004682,128.8735617014803L193.090144,153.19420302908918L193.490466,105.37914925401803L193.665888,97.09397339482042L193.68388000000002,79.68658295208039L193.724362,49.349124351895625L193.75135,35.23742838624986L193.8638,21.666748334357465L194.12018600000002,-0.7350858320612019L194.776894,14.749685792246055L195.298662,6.415973958856455L195.447096,14.709164275908762L195.93737800000002,66.20879326528753L195.964366,32.76504071926328L196.00484799999998,85.35613422067269L196.58509,121.22559517811214L196.738022,89.74063328067902L197.88951,81.62744512974565L197.97497199999998,64.31597591209936L198.168386,64.32980934747862L198.478748,23.65995086871405L199.445818,14.23281834004328L199.900116,7.0153465487471465L200.14750600000002,45.31841180706411L200.214976,94.61543895730472L200.525338,124.35615804978437L200.67827,96.67273998693639L201.011122,89.05156769278791L201.08309,61.67033325204528L201.132568,136.51769781727086L201.28549999999998,126.30600026756085L201.64534,89.20383273896081L201.919718,85.1240345823648L201.924216,132.55212378704763L202.18509999999998,105.47092595222124L202.27506000000002,134.836794182334L202.468474,168.43437232149373L202.49096400000002,185.3821660484009L202.81482,156.22627592942678L203.449038,109.43900669317996L203.552492,97.57329698577303L203.55698999999998,114.94388098270716L204.168718,105.40461567170955L204.600526,121.6123450942489L204.86590800000002,66.86914108587905L204.915386,83.88530132730048L206.192818,66.41722542701781L206.37723599999998,89.38658842240946L206.692096,77.8860845062995L206.81804,90.21239405512914L207.047438,75.24988308747062L207.483744,70.80046223383358L207.62318199999999,82.38413307490525L207.645672,61.58423907504333L207.722138,87.91665734066241L207.951536,96.65792438240129L208.12246,100.32914880746446L209.040052,129.7763417527492L209.36390799999998,146.13875143505243L209.836198,117.69128322697713L210.22752400000002,117.68883459259065L210.2815,148.70742504337974L210.425436,152.43169467037185L210.55138,158.22219821169213L210.94270600000002,133.03393241836704L210.987686,125.00149856070512L211.014674,96.15361623891401L211.032666,120.86841666884914L211.172104,86.33909956787186L211.1811,92.36342946669873L211.244072,82.2421258301728L211.27105999999998,60.39155832870884L211.599414,62.2892897639243L212.71042,41.68394348564698L213.106244,15.116461852907378L213.223192,82.35097580581218L213.628012,52.64402508303799L213.749458,30.540311212882898L214.06431800000001,50.02473479702344L214.370182,81.7647240329364L214.44215,82.00590818016126L214.739018,106.3986840209361L214.95492199999998,87.18875050679054L215.02689,110.65589097727155L215.157332,100.91063017783468L215.269782,112.25733167978102L215.355244,90.39561876318812L216.002956,113.55720367276002L216.03894000000003,92.69333306512618L216.326812,170.3817656876023L216.44825799999998,137.92042115898263L217.055488,88.02439480122568L217.086974,72.94442383796269L217.167938,59.88449507702033L217.631232,107.91501948225144L217.739184,92.68367255322723L217.784164,79.32784201351662L217.847136,69.86899065853183L218.126012,86.06938606888208L218.553322,128.57212095034674L218.85019,119.3416445014308L218.90866400000002,103.37333083540932L219.0526,86.74987825113057L219.13356399999998,92.63057472001945L219.178544,120.97542822268773L219.273002,99.77406369484073L219.763284,54.2316067607934L220.078144,85.42217116490032L220.518948,110.7389165383831L221.045214,124.00438003397589L221.216138,162.17703872485157L221.364572,96.68892098955081L221.441038,45.70651221797695L221.61646000000002,51.74961662605898L222.704976,58.479133472122385L222.77694400000001,33.50123134432431L223.424656,67.645375026793L223.658552,62.10571950105059L223.856464,82.43467002032081L224.013894,84.11303527168702L224.14883400000002,124.33267692747464L224.256786,144.6267696418651L224.36473800000002,123.3694341924454L224.400722,87.33723687440916L224.4502,119.22472538904043L224.454698,87.66410249316874L224.72457799999998,133.99769671512308L224.846024,113.99802400368208L224.86401600000002,149.4403795251804L224.931486,140.45027707927153L225.04843400000001,101.07809208441945L225.09791199999998,58.429001033269145L225.14739,37.27251962237713L225.295824,11.429927200707596L225.678154,38.48036930277834L225.916548,82.26566115942994L225.93454,103.61796961154214L225.99301400000002,67.76239477351706L226.352854,122.37650817716133L226.37084599999997,114.22177312699289L226.49229200000002,96.46811427935056L226.532774,70.5451839453593L226.9241,94.29124012509675L226.955586,84.1787347839227L227.15349799999998,37.40804514058448L227.391892,62.8562768450078L227.54932200000002,94.58758400751562L227.56731399999998,109.31015948394369L227.841692,68.04368666282646L228.277998,76.08104629018104L228.448922,121.25425342003956L228.65582999999998,145.69935300654902L228.660328,113.17544963689382L228.673822,84.61954388412721L228.92571,114.31053693941351L229.303542,106.68941896790015L229.411494,94.72598699296378L229.631896,88.23403632381473L229.694868,107.32726674841268L230.36057200000002,94.3410273590287L230.495512,109.3999824165464L230.760894,105.43648653630608L230.99029199999998,138.55786630293704L231.91688000000002,100.17685610979919L231.957362,100.15241092997863L232.047322,87.34749753716129L232.18676,78.74728188549228L232.19575600000002,125.68097870590677L232.80298599999998,143.8159652350275L232.964914,132.30345584325178L233.162826,129.55428200585948L233.42820799999998,108.01691476432312L233.48218400000002,80.6235484559086L233.990458,118.86407333715016L234.156884,122.24056430566417L234.296322,119.63978726075493L234.45375199999998,78.17363511382764L235.128452,102.46787287508981L235.168934,58.236336124081774L235.29038,48.62497326584102L235.42532,92.10866964554268L235.578252,81.03733534677271L235.780662,39.987179532337535L235.81664600000002,70.32799255806432L235.94259,87.8776242693832L236.450864,70.48082115231759L236.522832,109.65278189994946L236.626286,124.502148507666L236.801708,110.14767933727265L236.878174,126.58402898262673L237.26500199999998,150.74313948455202L237.305484,162.1603365608067L237.458416,151.82280222216082L237.97568600000002,139.1464147344483L238.151108,141.93089326289203L238.385004,90.35231574538565L239.680428,85.71905065046909L239.774886,93.44416250910812L240.409104,137.02009979011643L240.60251799999998,115.92913917238272L240.840912,84.35204311790457L240.872398,121.46785644181466L240.962358,108.11587642401116L241.079306,41.87262398279887L241.484126,85.97977406501927L241.71802200000002,132.52073187248624L241.987902,67.81240355877567L242.019388,76.98645269449413L242.14983,113.85544872214527L242.38822399999998,139.98303870196145L242.406216,94.88702612375067L242.46469000000002,160.79063014815085L242.52766200000002,126.00519237710324L242.635614,135.9010485077421L242.68959,78.87516179469345L242.833526,73.04589260552137L242.865012,98.06517885838086L242.927984,93.94786437808726L243.436258,68.91727591568244L243.485736,125.99604546160982L243.512724,124.52865002004424L243.69714199999999,134.1468481571975L243.715134,98.56005722820544L243.778106,67.69346956336369L243.88155999999998,71.32229833740934L244.358348,75.79325156588104L244.551762,102.32007458545783L244.74967400000003,70.86062858086102L244.830638,48.4540471116197L244.90260600000002,82.15862591648738L245.037546,92.4206509638751L245.347908,79.02904830270553L245.910158,52.03894310759402L246.10357199999999,58.35374173401394L246.112568,43.30231024458857L246.278994,78.75957995802305L246.283492,97.73688546875434L246.328472,51.51957177784401L246.36445600000002,19.79147179478076L246.47690599999999,34.88816961976093L246.85023999999999,37.57126440695552L246.87273000000002,88.2981775940341L246.94019999999998,123.07307891309932L247.81281199999998,88.4411377793958L248.433536,77.6714283215235L249.387112,119.63100673342669L249.737956,84.80996280294384L249.980848,76.3492390549928L250.09329799999998,97.89586679329207L250.660046,99.85539931813868L251.02438400000003,87.95028436178416L251.24478599999998,131.58900027088382L251.298762,122.86292887465623L251.384224,95.19619418729917L251.64960599999998,122.9774183732475L252.17137400000001,117.54642911474826L252.526716,103.82050126166158L252.715632,72.16087650235949L253.008002,74.03140609938085" style="fill: none;" fill="none"></path></g></g></g></g><g opacity="0.2"><g><g><g><path stroke="rgb(255, 112, 67)" stroke-width="2px" d="M28.431858000000002,-162.69488415351282L28.535311999999998,42.587892706577605L28.863666,-22.769291474268982L29.142542000000002,-0.4768512615790712L29.165032,75.49714479996608L29.259490000000003,80.43033514573024L29.340454,36.32462860987738L29.497884,-109.6397967338562L29.542864,-40.71276910488422L30.244552,71.62147244123312L30.523428000000003,21.93297823575827L30.716842,81.39562159318191L30.748328,0.84713593813089L30.964232000000003,151.00696017650458L31.022706000000003,-16.862131201303924L31.130658,13.853568407205444L31.324071999999997,156.8628311111377L31.360056,101.53184016851279L31.64343,125.25372722515694L31.719896000000002,-9.659590519391571L31.746884,50.54496285548579L31.872828000000002,30.911087641349212L32.480058,46.33737056988937L32.673472,53.595704638040985L32.907368,36.7204573246149L33.078292000000005,177.16908763922177L33.420139999999996,55.06004770902487L33.784478,23.537352561950684L34.031867999999996,110.54172137150398L34.045362000000004,-38.10488478954019L34.108334,90.27342463456668L34.126326,-47.1809876698714L34.34223,170.9357287975458L34.373716,70.968304340656L34.571628000000004,93.7545261658155L34.706568,120.4076151389342L34.962954,153.77559030972995L35.093396,-52.9419489823855L35.165364000000004,-1.2921245098114014L35.237332,75.6904536669071L35.718618,84.92322437579816L35.912031999999996,142.86660368167438L35.925526,61.03659466596751L36.406812,74.82928782242996L36.505768,174.06088881309216L36.555246000000004,54.96810020850256L36.735166,156.2871650961729L36.811632,97.01634954489195L36.870106,19.532645317224365L37.270428,77.91334332869604L37.540307999999996,34.897819271454466L37.949626,76.6595949301353L38.003602,79.39330854782692L38.147538000000004,81.11369254038885L38.174526,19.562875188313996L38.286976,16.003865801371063L38.489386,49.18652577583606L38.858222000000005,25.39066683329071L39.069627999999994,87.5616631782972L39.146094000000005,31.738087644943846L39.155089999999994,204.09377881655325L39.177580000000006,129.58940083705463L39.29003,94.94172827097087L39.294528,11.188308202303375L39.348504000000005,177.6190866598716L39.370994,60.17388689517975L39.501436,-58.246134913884674L40.43702,-6.104435948225159L41.458065999999995,92.90849554538728L41.777423999999996,82.0750835950558L41.790918000000005,143.22999107837677L42.051801999999995,47.545469834254334L42.330678,80.96887319821579L42.641040000000004,-6.8448446163764345L42.704012000000006,108.10024336668161L42.713007999999995,8.706821267421446L42.717506,53.55533051490784L42.97839,98.45447986859543L43.76554,55.08183756241432L44.386264,14.327791901735168L44.39526,129.9542287175472L44.62016,167.35663379155673L44.939518,163.21564866487796L45.173414,69.47178370219012L45.267872,-51.82778549194336L45.299358,51.70635798344246L45.780643999999995,176.25945255848077L45.906588,64.84961612407977L46.032532,14.512863636016846L46.266428,-55.86531953628244L46.545304,39.53021225562463L46.986108,131.52788624855188L47.125546,114.05698874363533L47.148036,114.0439229470033L47.530366,92.37880328068367L47.539362000000004,-22.933993550447326L47.9037,105.5146966943374L48.317516,37.70948132184836L48.393981999999994,21.87937600796039L48.48844,-2.369646961872405L49.091172,70.63841326420123L49.109164,164.29300880890628L49.145148,145.63283977141748L49.648923999999994,178.3712017948811L49.711895999999996,127.41915984337146L49.882819999999995,84.19283822866588L49.936796,85.10557745053218L50.125712,135.94712820878397L50.472058,68.99467924008003L50.8274,70.38780966171852L50.836396,12.715058711858887L51.079288,99.8104417507465L51.205232,187.41502566520984L51.677521999999996,95.03140345903545L52.154309999999995,69.58990337298468L52.217282,48.74951139780191L52.491659999999996,3.042960735467773L53.071902,113.78309393846072L53.656642000000005,71.74823501476875L53.854554,77.43960675826439L54.236883999999996,115.04061599878165L54.326844,243.11516593969787L54.488772,137.65773314237595L54.520258,90.8725847372642L54.682185999999994,18.37031691807968L54.776644,132.61766295708142L55.055519999999994,-30.042963651510377L55.14548,103.47827867361215L55.644758,0.39397191084350425L55.689738,96.08528980383507L56.000099999999996,117.12795816476529L56.058574,215.14768622930234L56.085561999999996,90.26806846948772L56.144036,65.07007100948921L56.400422,73.75898807782394L56.503876,71.27664902577034L56.791748,83.07847185318286L57.439460000000004,-10.987148495820861L57.682352,155.14060086470386L57.812794,22.19474051548886L58.055686,126.87944505764888L58.231108,-96.73363005197962L58.244602,-2.773509924228364L58.298578,49.01979484924904L58.438016,79.55009810741132L58.941792,25.666144141784088L59.445568,137.2368075480828L59.562516,96.93848226620601L60.075288,59.22341105571162L60.111272,1.5353219967622067L60.29569,83.67811887997848L60.709506000000005,102.63297843933107L60.997378,152.62626684170505L61.213282,90.0591374543997L61.316736,103.55574018221635L61.6226,112.37576156396133L61.66758,214.85752004384995L61.681073999999995,133.1244495006708L61.748544,127.95834712798779L61.896978000000004,35.21257512386029L62.715614,27.547578279788695L63.01698,-10.159458683087252L63.142924,229.2292268184515L63.187903999999996,138.29499505574887L63.345334,125.80934819808374L64.056018,173.10538142461044L64.39336800000001,41.12728272034573L64.90614,123.44815180393365L65.090558,154.33902235673025L65.598832,56.349057527688856L65.72927399999999,138.0207350575007L65.75176400000001,90.49574606235211L65.79224599999999,44.7430999187323L66.19706599999999,36.293627775632416L66.21056,87.47020260187297L66.336504,-32.58750725709473L66.381484,56.14471171452449L66.799798,189.57331672998575L67.22261,255.11632331976523L67.780362,133.2639126777649L68.045744,80.04947934700893L68.162692,71.42227990810687L68.176186,184.06439950374457L68.270644,54.28462108281943L68.30213,-66.30549970039954L68.563014,76.10044375749736L68.590002,89.30712376191066L68.84188999999999,16.0943931066073L69.76398,206.1756633749375L70.015868,74.34812565950247L70.15980400000001,164.9655727193906L70.55113,82.99942784125989L70.699564,71.26435419229361L71.05490599999999,33.4975878733855L71.08639199999999,44.33546329461612L71.14486600000001,-22.97720806415262L71.414746,49.418017607468826L71.54968600000001,52.57665365475876L71.65314,60.11427927017212L71.734104,-70.72819070632639L72.386314,9.570746348454406L72.674186,91.4887871833948L73.35338399999999,93.24711067859943L73.470332,-17.413166972307067L74.33394799999999,121.07305778448398L74.365434,187.38538416073874L74.87370800000001,109.46170343344028L74.887202,140.3855022283701L74.98166,102.1153984115674L75.24704200000001,57.34721135176146L75.440456,16.275407140071593L75.82278600000001,123.56065155909613L75.962224,17.66687390437494L76.03419199999999,155.41455653539072L76.11065799999999,31.018332673953125L76.290578,226.6802603189762L76.49748600000001,60.739368081092834L76.501984,-27.340697215153597L76.60094,-43.40756937173697L76.75837,80.98413015328921L76.875318,117.36772770606555L76.9158,-11.753891642277068L77.149696,113.19511280151514L77.16319,175.9992524935649L77.316122,146.49725177654852L77.334114,72.85071232685677L77.437568,70.5030889419409L77.464556,116.95282779748624L77.473552,-7.349095096954898L77.68046,65.76637246975532L78.049296,68.54244848398062L78.134758,89.88863286605249L78.17524,118.16165744799835L78.481104,195.33801112725183L78.4901,16.50292242490329L78.75998,165.44555814908102L79.475162,77.2548596400481L79.71355600000001,128.12440853393994L79.803516,122.97849322282352L79.942954,103.65363221443617L79.983436,-44.6258534651536L80.059902,126.102050446547L80.13636799999999,-34.09027675481943L80.505204,109.5294670370909L80.60865799999999,73.89820779286899L80.67163,82.0858770792301L81.00448200000001,-34.24743150747736L81.517254,164.83864783782226L81.949062,119.33187807523288L81.971552,100.63056395145563L82.13347999999999,46.08786254662735L82.272918,46.176969656577484L82.709224,57.253032115789566L82.826172,230.11774156643793L82.844164,27.93671178817749L82.91613199999999,110.68384234263347L83.105048,98.8475696352812L83.39292,72.11756694316864L83.406414,149.23394780434094L83.478382,25.643867364296568L83.91019,146.5652791307523L84.148584,60.7041472379978L85.106658,159.9365191918153L85.232602,96.35466027259828L85.70939,33.29567668071161L86.033246,116.69423052439323L86.312122,111.18310185120656L86.662966,27.982766692455016L86.739432,193.79373135016516L86.86087799999999,44.341184652768646L86.95533599999999,40.12710004586441L87.009312,28.440272459617034L87.07678200000001,121.73466590276132L87.333168,112.08506787740268L87.66152199999999,-0.3028164735207213L88.156302,73.64569707100208L88.394696,90.2101650788234L88.412688,185.46258176290073L89.04240800000001,212.93380466332803L89.271806,47.14116052480844L89.37526,146.66173067918191L89.640642,202.9710738658905L89.654136,64.64198357325336L90.07694799999999,142.53567789151117L90.22988000000001,148.26214874707736L90.38730999999999,159.23841205468545L90.562732,115.6078622845503L90.97654800000001,-18.596351953653198L91.075504,120.08259330346034L91.44434,105.98234671354295L92.078558,26.49229202820706L92.375426,123.2350819340119L92.406912,81.67657679777881L92.44739399999999,123.4259156034543L92.52386000000001,112.67177083859077L92.604824,88.90877927266635L92.870206,14.557579499024627L93.095106,112.00263568529716L93.306512,33.27218259297885L93.58988599999999,62.38289922017319L93.92723600000001,76.32532153679774L93.954224,17.841557924564086L94.089164,180.0167820728742L94.12964600000001,111.56464745906683L94.174626,151.42942769710834L94.588442,49.255141496658325L94.62892400000001,126.47243737715942L94.646916,107.23548645698108L94.723382,151.76140848948407L95.011254,295.2330462015592L95.096716,71.80910052702978L95.703946,187.44403822605426L95.98732000000001,283.75929862948567L96.194228,94.36723898924315L96.39214000000001,81.46533289322487L96.778968,78.69923882301038L97.039852,-27.431346251414368L97.71905000000001,-2.605399379363405L97.86298599999999,85.53325911668631L98.00242399999999,29.253841473506043L98.267806,84.89555085622348L98.91102,97.06015242521579L99.01897199999999,216.70943440840796L99.059454,3.6371298661598814L99.306844,100.89932576509622L99.986042,37.267800587874206L100.049014,55.00060239204994L100.50781,140.26766659663275L100.602268,110.80867750828082L101.20050200000001,159.60133281579385L101.524358,70.05998801268065L101.623314,82.63719688929045L101.69978,117.2146103657209L101.906688,110.91681523506458L102.05962,54.05487406253815L102.35199,223.70643225541482L102.71183,65.57643149449275L103.053678,187.84589262650564L103.215606,256.9403004141954L103.714884,15.481031051048888L103.719382,63.05700505696811L103.87231399999999,162.1289963859778L103.93528599999999,167.43078827399475L104.124202,31.47949037185083L104.875368,131.72908734358273L105.014806,77.78897479864268L105.167738,42.5144888987908L105.653522,35.716135795299834L105.801956,151.3893781900406L105.88292,91.99108996758095L105.891916,63.27571513102606L105.999868,171.71555802913812L106.004366,37.83928717099704L106.01786,75.62995334771963L106.10332199999999,7.355647472234864L106.260752,95.56399697982349L106.40019,208.02011156999149L106.57561199999999,77.07222252625687L106.620592,37.59314703941345L107.020914,144.56438628068338L107.08388599999999,3.5423013980572193L107.214328,31.435788934047423L107.25031200000001,161.31514333303159L107.380754,184.92363794033344L107.826056,38.717819974972656L108.865094,80.3843208184609L108.99103799999999,46.68170706125406L109.03152,99.34159470979984L109.157464,67.73176043767197L109.31489400000001,226.0402594575515L109.36887,-27.970127765948945L109.65674200000001,153.17496943473816L110.26397200000001,64.93271783682017L110.506864,8.1532697219115L111.105098,71.92993885737201L111.10959600000001,96.30468968703197L111.739316,87.16559100151062L112.283574,25.28512603503009L112.31506,105.75826018590195L112.87731,116.8067302795557L113.38558400000001,129.77055689004752L113.471046,101.05412705128009L113.59699,89.55638832312364L113.695946,61.10870000949275L113.79040400000001,-63.823891034493045L114.096268,83.15767817313855L114.33466200000001,44.30210899389709L114.595546,76.94261956214905L114.79345799999999,209.89332886384085L115.75603000000001,134.2923775269435L115.836994,90.08672981995804L115.93594999999999,-16.31056792919452L115.962938,66.50986499052783L116.45322,100.61096525650758L116.516192,176.87472173342337L116.56567,157.53381251830322L116.81306000000001,204.78695584718997L116.862538,77.59420515940741L116.889526,92.82596191076132L117.15490799999999,51.92932864335867L117.276354,118.15695051505016L117.37980800000001,62.65744325747859L117.694668,145.03288841706058L117.793624,31.418868321638854L117.942058,64.38322399212764L118.05001,50.58825852320746L118.22993,101.70638216917331L118.310894,25.58040492351239L118.337882,159.19503523294742L118.35137599999999,103.17190197339426L118.693224,50.850548304044295L118.697722,27.42381840485794L118.90912800000001,149.4481335419875L119.04856600000001,92.72362669614645L119.170012,33.007620499684265L119.183506,39.365063832356384L119.205996,73.67280251246234L119.525354,67.96487534963168L119.574832,-51.513719448676454L119.79523400000001,78.52427076376402L120.05162,12.424527333332946L120.25402999999999,116.18955398522891L120.43844800000001,166.809189085777L120.496922,193.1034352871088L120.50142000000001,90.074597294514L120.600376,21.696901202201843L120.67234400000001,49.642773655744705L121.171622,42.72621972744281L121.26608,30.574460781537567L121.576442,59.60085838574631L121.58993600000001,9.660096920453583L121.594434,108.03450861343971L121.810338,69.64695464647734L121.91829,26.095286580232482L122.512026,56.18281352519989L122.87186600000001,117.89851554998985L122.93034,24.77401804007019L123.21821200000001,168.22315580111285L123.510582,104.55454323841975L123.614036,85.03817903995514L123.991868,208.5218259875591L124.005362,69.21927298032321L124.02785200000001,83.47641057234546L124.329218,147.92359447937747L124.41018199999999,160.51224607229233L124.747532,122.53449959938342L124.92295399999999,205.5405317544937L125.633638,170.2189562366559L125.82255400000001,73.6691100047185L125.827052,72.80473857659561L126.119422,38.891286684916565L126.14641,-71.3387529483208L126.263358,167.20546414760443L126.357816,137.26125519550763L126.384804,119.83726471204025L127.095488,25.74815027530377L128.17051,2.1586659963314503L128.228984,208.11063887522772L128.38191600000002,132.91908926230212L128.489868,10.279667258262634L128.55284,163.08728329951947L128.678784,138.43163813077487L129.191556,167.4440975326758L129.348986,164.46897100485288L129.515412,169.80038410883685L129.92473,89.2661409836549L130.50947,1.0557423371535037L130.84682,208.36903326327985L131.25164,148.4044726032477L131.265134,63.33438948484569L131.92633999999998,62.42570796379677L131.944332,89.2366414987124L132.137746,116.13004780274171L132.18722400000001,52.644376681401184L132.232204,24.1677569609422L132.385136,2.04452287233795L132.430116,-2.2642684716444705L132.547064,155.38000521293054L132.749474,180.83065541432455L132.852928,184.31370464196573L133.082326,91.69844858462994L133.190278,67.13146417874557L133.27574,85.32672214508057L133.487146,221.652626986687L134.215822,-26.87130238459659L134.58016,38.15586898877072L134.629638,92.3278385584171L134.719598,86.84620937017294L135.04795199999998,70.42806205382713L135.304338,68.49619069466225L135.78562399999998,75.28902532504156L136.419842,88.05163055199844L136.595264,46.12166319443631L136.725706,60.2879894421651L137.117032,79.60540456955249L137.332936,32.08258644434122L137.34193199999999,-29.381680149298433L137.512856,208.10802165820047L137.61631,89.85775376283206L137.935668,64.60213695122646L138.569886,108.4213495208667L138.857758,61.097135562163146L139.298562,142.69547014970047L139.33454600000002,58.60444937302516L140.01824200000001,16.367800987683808L140.117198,117.56203070970682L140.265632,79.05343552736136L140.598484,157.93668134395892L140.77390599999998,90.27046251296998L141.16073400000002,111.66227574073352L141.48908799999998,107.48935650862181L141.601538,94.74184592870566L141.660012,46.88929903507233L141.70049400000002,127.76069652117215L142.055836,70.39255717167488L142.32121800000002,121.71973356375328L142.83399,30.699356812697204L142.90146,34.88171019920935L143.25680200000002,80.79617745142718L143.64812799999999,107.69725281000139L144.04845,34.37616125436929L144.214876,148.98194429507623L144.372306,112.33522513279549L144.70515799999998,88.19608470109793L145.26290999999998,122.0513897400636L145.35736799999998,87.22682170684521L145.39785,16.859716057777405L145.469818,107.29815764610584L145.753192,118.2009359919108L145.75769000000003,20.038437724113464L145.82066200000003,202.950440457234L146.373916,59.88230051444128L146.423394,158.46249850438193L146.873194,124.25259099098352L147.17455999999999,147.49930099340585L148.07415999999998,-9.616294851669863L148.645406,52.04436446153201L148.649904,6.1812271246543276L148.780346,120.22522148719202L148.78934199999998,73.21578366939838L149.234644,155.3977170769985L149.909344,221.09877111361578L150.197216,1.0302193990120543L150.224204,37.26771943385785L150.251192,210.86792773466846L150.273682,-14.253719384853667L150.790952,91.44508574559138L151.038342,64.94833998496716L151.578102,122.98833314730571L151.82999,131.63825571078522L152.270794,144.74629300832748L152.31577399999998,63.31966003087851L152.34725999999998,40.65309980282416L152.428224,106.56943515630869L152.68461000000002,150.85633832216263L152.882522,158.96086531877518L153.26935,142.49219962725272L153.67866800000002,38.396815263308014L153.68766399999998,103.48495359145679L153.8316,136.78449563796704L153.912564,90.35701327140515L155.185498,154.62200641173584L155.302446,139.13583181913083L155.50035799999998,22.631957778563873L155.74774799999997,189.4956726248448L156.026624,94.104178245251L156.08509800000002,9.222717349345885L156.49891399999998,200.3919586493419L156.629356,71.17382688705737L156.80477800000003,11.27676608012274L158.06421799999998,-5.827416713421172L158.41956000000002,129.51163500088913L158.536508,96.3684970323856L158.635464,57.02689644923579L158.720926,133.22652096473254L158.83337600000002,109.86528235673906L158.90534399999999,117.44017795416025L158.95932000000002,-49.51501775704895L159.15273399999998,150.8084371640132L159.45859800000002,48.243353797839234L159.73747400000002,103.48314791459305L160.67305800000003,155.5221870495723L160.704544,42.697572359671966L160.745026,53.13588598141304L160.969926,-12.141726686404297L160.98342000000002,84.57588518582858L161.077878,80.97889571923477L161.21731599999998,-2.6943036042727044L161.302778,174.34003834082532L161.91450600000002,231.40748177124902L162.278844,73.24037333635184L162.283342,15.842653347895691L162.436274,87.95801939414099L163.05249999999998,20.882520648149352L163.07499,108.20933465315746L163.191938,178.80474683871637L163.398846,37.73760118851294L163.466316,145.49185495651685L163.835152,54.03555940664732L164.02856599999998,160.8731785600002L164.145514,64.97378176909228L164.32993199999999,179.72783319766705L164.523346,34.601728842808654L165.11708199999998,90.82555598479051L165.14856799999998,46.60014727482428L165.16656,135.10276124569086L165.625356,260.2193081562336L165.805276,104.93294412814654L166.228088,125.07551300525665L166.29106000000002,114.96175458339545L166.372024,140.5555198926192L166.56094,-4.133326622156005L167.78439600000002,144.97983397887305L168.02279,209.90148484248382L168.558052,182.87068478877728L169.376688,5.606332072844879L169.54311399999997,100.9070151081452L169.965926,80.67095680420215L170.681108,150.66625532737146L170.798056,84.02837961453659L170.97797599999998,92.32589086202475L171.184884,130.8328223870351L171.477254,58.42972477582785L171.50874,88.33680576544543L171.544724,148.8461533372219L171.760628,76.17336064118606L171.80111,48.6001068537052L172.066492,102.83655328934009L172.124966,81.10918849248154L172.777176,101.65142061160161L172.831152,90.62798653199123L172.97958599999998,37.19115061943347L173.168502,88.94846358666054L173.460872,-3.5045047264832476L173.793724,137.41579273113837L174.00512999999998,188.74554576323584L174.29749999999999,73.30014326939217L174.427942,145.50315565329333L174.486416,28.186706735537598L174.796778,210.3032783774229L174.81027200000003,112.34638381004335L175.003686,-48.98613703250885L175.224088,52.74082822983081L175.475976,116.70772237961108L176.06971199999998,111.55381339788438L176.105696,165.0331537265044L176.137182,-3.5557534878070385L176.555496,20.54662417448486L176.609472,-4.407546043395996L176.699432,91.8888764839906L177.212204,50.928131543673004L177.230196,121.55750668507356L177.351642,39.66362945850079L177.360638,87.7404454763119L177.765458,86.77625460808093L178.080318,49.02174254564139L178.201764,34.73831105232239L178.23325,37.71455344787012L178.24674399999998,63.00470129343181L178.359194,150.8876231954648L178.970922,-21.861502647399902L179.384738,106.02166583446356L179.416224,97.00421701944792L179.821044,15.097740631837127L179.861526,101.97378465304008L179.915502,112.01064964441153L180.00096399999998,168.17241425239123L180.07743,97.24465608138306L180.320322,49.337553400259765L180.37429799999998,72.25836916153247L180.486748,-90.09957325458527L180.65317399999998,28.378595407192535L180.914058,69.49406047967764L181.12096599999998,83.53536896522229L181.20642800000002,171.92284567539508L181.23791400000002,110.39775414650256L181.444822,105.21568472110309L181.678718,104.59122485380907L181.69221199999998,66.75734416338115L181.849642,59.671056609887344L182.434382,130.25961128106485L182.66827800000002,39.01309886345496L182.672776,61.83348652949702L182.767234,-85.09257333095258L183.014624,-66.4849718075532L183.40595,152.3409901857376L183.410448,12.685194033842834L183.58137200000002,56.284053160594055L183.73880200000002,178.21027338046295L183.779284,-5.527593200023347L183.95470600000002,151.17334619852213L184.17510800000002,91.83300194373498L184.42249800000002,120.86684542894363L184.566434,150.83747001336172L184.993744,64.45394971737495L185.67744,122.58260364257373L185.897842,190.62379460609876L186.05977,186.59605990923367L186.33864599999998,18.719116880343506L186.684992,141.81135800710092L186.698486,75.62301467932188L187.040334,195.47396439313889L187.134792,86.41499750430768L187.17077600000002,171.6620166668525L187.22925,163.77676782241235L187.23824599999998,65.7211291056413L187.26523400000002,111.06800516752097L187.70603799999998,197.9894142838625L187.715034,79.89021458992592L188.10636000000002,85.24009023262904L188.119854,99.08297714820276L188.2413,94.24567027275378L189.010458,93.76617176716144L189.041944,164.12859077178516L189.338812,90.91920771965614L189.361302,190.3476274884664L189.829094,190.2800667698567L189.90556,84.26725646165701L190.20692599999998,70.86284469641173L190.296886,65.46671126439021L190.778172,49.348955539556655L191.012068,29.51333144077887L191.07953799999999,68.77239838930278L191.147008,40.93803155422211L191.218976,123.82421951569043L191.27745,52.62591414268201L191.43488,3.2010081823055714L191.520342,79.80382613952344L191.551828,183.391308092154L192.599862,127.91988012423883L192.869742,162.5748565517939L193.004682,120.232910830241L193.090144,189.67516502050253L193.490466,33.656568591411315L193.665888,84.66620960602394L193.68388000000002,53.575497287970336L193.724362,3.842936451618499L193.75135,14.069884437781127L193.8638,1.3107282565190417L194.12018600000002,-34.33783708168909L194.776894,37.97684322870697L195.298662,-6.084593791228059L195.447096,27.14894975148715L195.93737800000002,143.45823674935562L195.964366,-17.400588099773103L196.00484799999998,164.24277447278683L196.58509,175.0297866142713L196.738022,42.513190434529236L197.88951,69.45766290334555L197.97497199999998,38.348772085629975L198.168386,64.35055950054756L198.478748,-37.34483684943271L199.445818,0.09211954703698666L199.900116,-3.810861138197083L200.14750600000002,102.77300969453958L200.214976,168.56097968266562L200.525338,168.96723668850385L200.67827,55.1476128926644L201.011122,77.6198092515652L201.08309,20.598481590931243L201.132568,248.7887446651092L201.28549999999998,110.9884539429958L201.64534,33.55058144606079L201.919718,79.00433734747081L201.924216,203.6942575940719L202.18509999999998,64.84912919998169L202.27506000000002,178.88559652750308L202.49096400000002,210.80385663876166L202.81482,112.49244075096571L203.449038,39.25810283880969L203.552492,79.77473242466266L203.55698999999998,140.99975697810834L204.168718,91.09571770521312L204.600526,145.92393922805786L204.86590800000002,-15.245664926675659L204.915386,109.40954168943259L206.192818,40.21511157659384L206.37723599999998,123.84063291549683L206.692096,60.63532863213466L206.81804,108.70185837837366L207.047438,52.80611663598282L207.483744,64.12633095337794L207.62318199999999,99.75963933651263L207.645672,30.384398075250488L207.722138,127.41528473909085L207.951536,109.76982494500967L208.12246,105.83598544505926L209.040052,173.9471311706763L209.36390799999998,170.68236595850726L209.836198,75.02008091486418L210.22752400000002,117.68516164101086L210.2815,195.23531071956342L210.425436,158.0180991108601L210.55138,166.90795352367255L210.94270600000002,95.25153372837947L210.987686,112.95284777421219L211.014674,52.88179275622737L211.032666,157.9406173137518L211.172104,34.54512391640591L211.1811,101.39992431493906L211.244072,67.06017037538382L211.27105999999998,27.615707076512848L211.599414,65.13588691674747L212.71042,10.775924068230864L213.106244,-24.734760596201966L213.223192,183.20274673516934L213.628012,8.08359899887671L213.749458,-2.6152595923497017L214.06431800000001,79.2513701732342L214.370182,129.3747078868059L214.44215,82.36768440099864L214.739018,142.98784778209833L214.95492199999998,58.373850235572235L215.02689,145.85660168299307L215.157332,86.29273897867938L215.269782,129.27738393270053L215.355244,57.60304938829863L216.002956,148.2995810371179L216.03894000000003,61.397527153675384L216.326812,286.9144146213165L216.44825799999998,89.22840436605307L217.055488,13.180355264590332L217.086974,50.32446739306819L217.167938,40.29460193560675L217.631232,179.96080609009817L217.739184,69.83665215969086L217.784164,59.29409620395076L217.847136,55.68071362605464L218.126012,110.36997918440746L218.553322,192.3262232725437L218.85019,105.49592982805693L218.90866400000002,79.42086033637707L219.0526,61.81469937471243L219.13356399999998,101.45161942335275L219.178544,163.49270847669015L219.273002,67.9720169030703L219.763284,-14.082078640277558L220.078144,132.20801777106067L220.518948,148.7140345986073L221.045214,143.90257527736517L221.216138,219.43602676116504L221.441038,-30.76710093938385L221.61646000000002,60.81427323818207L222.704976,68.5734087412174L222.77694400000001,-3.9656218473727733L223.424656,118.86159055049603L223.658552,53.79623621243698L223.856464,112.92809579922603L224.013894,86.63058314873622L224.14883400000002,184.662139411156L224.256786,175.0679087134508L224.36473800000002,91.48343101831584L224.400722,33.288940897354735L224.4502,167.05595816098727L224.454698,40.323168149361265L224.72457799999998,203.49808804805463L224.846024,83.99851493652051L224.86401600000002,202.60391280742792L224.931486,126.96512341040832L225.04843400000001,42.01981459214139L225.09791199999998,-5.5446355434564225L225.14739,5.53779750603897L225.295824,-27.333961431796723L225.678154,79.0560324558845L225.916548,147.94359894440726L225.93454,135.64643228971042L225.99301400000002,13.979032516479492L226.352854,204.2976782826277L226.37084599999997,101.9896705517402L226.49229200000002,69.83762600788704L226.532774,31.660788444372315L226.9241,129.9103243947029L226.955586,69.00997677216164L227.15349799999998,-32.747989324422974L227.391892,101.02862440164273L227.54932200000002,142.18454475127734L227.56731399999998,131.39402269858581L227.841692,6.143977431150574L228.277998,88.13708573121292L228.448922,189.0140641148274L228.65582999999998,182.36700238631323L228.660328,64.38959458241096L228.673822,41.785685254977295L228.92571,158.847026522343L229.303542,95.2577420106301L229.411494,76.78083903055926L229.631896,78.49611032009125L229.694868,135.96711238530966L230.36057200000002,74.86166827495282L230.495512,131.98841500282288L230.760894,99.49124271594562L230.99029199999998,188.2399359528835L231.91688000000002,42.60534082009244L231.957362,100.11574316024782L232.047322,68.14012744793526L232.18676,65.84695840798892L232.19575600000002,196.0815239365284L232.80298599999998,171.01844502870853L232.964914,115.03469175558824L233.162826,125.43052124977112L233.42820799999998,75.71086390201862L233.48218400000002,39.53349899328674L233.990458,176.22486065901242L234.156884,127.30530075843518L234.296322,115.73862169339107L234.45375199999998,15.974406893436736L235.128452,138.90922951698303L235.168934,-8.110969002430267L235.29038,34.20792897847983L235.42532,157.33421421509524L235.578252,64.43033389861768L235.780662,-21.588054189315187L235.81664600000002,115.83921209665445L235.94259,114.20207183636151L236.450864,44.38561647671921L236.522832,168.41072302139722L236.626286,146.7761984192408L236.801708,88.61597558168265L236.878174,151.23855345065778L237.26500199999998,186.98180523743997L237.305484,179.2861321751888L237.458416,136.31650071419202L237.97568600000002,120.13183350287952L238.151108,146.10761105555756L238.385004,12.98444946912619L239.680428,78.76915300809421L239.774886,105.03183029706662L240.409104,202.38400571162884L240.60251799999998,84.29269824578212L240.840912,36.98639903618741L240.872398,177.1415764276798L240.962358,88.08790639730601L241.079306,-57.492254679019624L241.484126,152.1404991883498L241.71802200000002,202.33216858368655L241.987902,-29.2500889117901L242.019388,90.74752639807188L242.14983,169.158942763622L242.38822399999998,179.17442367168573L242.406216,27.24300725643451L242.46469000000002,259.6460361847511L242.52766200000002,73.82703572053177L242.635614,150.74483270370044L242.68959,-6.663668274879456L242.833526,64.30198882176326L242.865012,135.59410823767L242.927984,87.77189265764677L243.436258,31.371393222075255L243.485736,211.61419978050085L243.512724,122.32755685769595L243.69714199999999,148.57414536292737L243.715134,45.179870834717406L243.778106,21.393588066101074L243.88155999999998,76.76554149847766L244.358348,82.49968140858871L244.551762,142.11030911482297L244.74967400000003,23.67145957396582L244.830638,14.84417490775769L244.90260600000002,132.71549412378897L245.037546,107.81368853495671L245.347908,58.94164431095123L245.910158,11.553785314926756L246.10357199999999,67.82593967364386L246.112568,20.7251630104505L246.278994,131.94548452817477L246.283492,126.20284373485126L246.328472,-17.806398758521425L246.36445600000002,-27.80067817981424L246.47690599999999,57.53321635723114L246.85023999999999,41.595906587747436L246.87273000000002,164.38854737465198L246.94019999999998,175.23543089169723L247.81281199999998,36.493226078840394L248.433536,61.51686413471515L249.387112,182.5703743512814L249.737956,32.57839690721954L249.980848,63.65815343306616L250.09329799999998,130.215808400741L250.660046,102.7946981054086L251.02438400000003,70.09261192725256L251.24478599999998,197.04707413453323L251.298762,109.77382178031482L251.384224,53.696092156263504L251.64960599999998,164.64925465217004L252.17137400000001,109.39994522699944L252.526716,83.23160948203162L252.715632,24.67143936340625L253.008002,76.83720049491295" style="fill: none;" fill="none"></path></g></g></g></g></g></g><g transform="translate(48, 177)" clip-path="url(#clip_1)"><clipPath id="clip_1"><rect width="281" height="23"></rect></clipPath><g><g><line x1="0" y1="0" x2="0" y2="5" style="visibility: inherit;" fill="rgb(0, 0, 0)" stroke="rgb(204, 204, 204)" stroke-width="1px"></line><line x1="28.1125" y1="0" x2="28.1125" y2="5" style="visibility: inherit;" fill="rgb(0, 0, 0)" stroke="rgb(204, 204, 204)" stroke-width="1px"></line><line x1="56.225" y1="0" x2="56.225" y2="5" style="visibility: inherit;" fill="rgb(0, 0, 0)" stroke="rgb(204, 204, 204)" stroke-width="1px"></line><line x1="84.33749999999999" y1="0" x2="84.33749999999999" y2="5" style="visibility: inherit;" fill="rgb(0, 0, 0)" stroke="rgb(204, 204, 204)" stroke-width="1px"></line><line x1="112.45" y1="0" x2="112.45" y2="5" style="visibility: inherit;" fill="rgb(0, 0, 0)" stroke="rgb(204, 204, 204)" stroke-width="1px"></line><line x1="140.5625" y1="0" x2="140.5625" y2="5" style="visibility: inherit;" fill="rgb(0, 0, 0)" stroke="rgb(204, 204, 204)" stroke-width="1px"></line><line x1="168.67499999999998" y1="0" x2="168.67499999999998" y2="5" style="visibility: inherit;" fill="rgb(0, 0, 0)" stroke="rgb(204, 204, 204)" stroke-width="1px"></line><line x1="196.7875" y1="0" x2="196.7875" y2="5" style="visibility: inherit;" fill="rgb(0, 0, 0)" stroke="rgb(204, 204, 204)" stroke-width="1px"></line><line x1="224.9" y1="0" x2="224.9" y2="5" style="visibility: inherit;" fill="rgb(0, 0, 0)" stroke="rgb(204, 204, 204)" stroke-width="1px"></line><line x1="253.01250000000002" y1="0" x2="253.01250000000002" y2="5" style="visibility: inherit;" fill="rgb(0, 0, 0)" stroke="rgb(204, 204, 204)" stroke-width="1px"></line><line x1="281.125" y1="0" x2="281.125" y2="5" style="visibility: inherit;" fill="rgb(0, 0, 0)" stroke="rgb(204, 204, 204)" stroke-width="1px"></line></g><g transform="translate(0, 8)"><text x="0" y="0" dx="0em" dy="0.95em" style="text-anchor: middle; visibility: hidden; font-family: &quot;Helvetica Neue&quot;, sans-serif; font-size: 12px; font-weight: 200;" fill="rgb(50, 49, 63)" stroke="none" stroke-width="1px">-50k</text><text x="28.1125" y="0" dx="0em" dy="0.95em" style="text-anchor: middle; visibility: inherit; font-family: &quot;Helvetica Neue&quot;, sans-serif; font-size: 12px; font-weight: 200;" fill="rgb(50, 49, 63)" stroke="none" stroke-width="1px">0</text><text x="56.225" y="0" dx="0em" dy="0.95em" style="text-anchor: middle; visibility: hidden; font-family: &quot;Helvetica Neue&quot;, sans-serif; font-size: 12px; font-weight: 200;" fill="rgb(50, 49, 63)" stroke="none" stroke-width="1px">50k</text><text x="84.33749999999999" y="0" dx="0em" dy="0.95em" style="text-anchor: middle; visibility: inherit; font-family: &quot;Helvetica Neue&quot;, sans-serif; font-size: 12px; font-weight: 200;" fill="rgb(50, 49, 63)" stroke="none" stroke-width="1px">100k</text><text x="112.45" y="0" dx="0em" dy="0.95em" style="text-anchor: middle; visibility: hidden; font-family: &quot;Helvetica Neue&quot;, sans-serif; font-size: 12px; font-weight: 200;" fill="rgb(50, 49, 63)" stroke="none" stroke-width="1px">150k</text><text x="140.5625" y="0" dx="0em" dy="0.95em" style="text-anchor: middle; visibility: inherit; font-family: &quot;Helvetica Neue&quot;, sans-serif; font-size: 12px; font-weight: 200;" fill="rgb(50, 49, 63)" stroke="none" stroke-width="1px">200k</text><text x="168.67499999999998" y="0" dx="0em" dy="0.95em" style="text-anchor: middle; visibility: hidden; font-family: &quot;Helvetica Neue&quot;, sans-serif; font-size: 12px; font-weight: 200;" fill="rgb(50, 49, 63)" stroke="none" stroke-width="1px">250k</text><text x="196.7875" y="0" dx="0em" dy="0.95em" style="text-anchor: middle; visibility: inherit; font-family: &quot;Helvetica Neue&quot;, sans-serif; font-size: 12px; font-weight: 200;" fill="rgb(50, 49, 63)" stroke="none" stroke-width="1px">300k</text><text x="224.9" y="0" dx="0em" dy="0.95em" style="text-anchor: middle; visibility: hidden; font-family: &quot;Helvetica Neue&quot;, sans-serif; font-size: 12px; font-weight: 200;" fill="rgb(50, 49, 63)" stroke="none" stroke-width="1px">350k</text><text x="253.01250000000002" y="0" dx="0em" dy="0.95em" style="text-anchor: middle; visibility: inherit; font-family: &quot;Helvetica Neue&quot;, sans-serif; font-size: 12px; font-weight: 200;" fill="rgb(50, 49, 63)" stroke="none" stroke-width="1px">400k</text><text x="281.125" y="0" dx="0em" dy="0.95em" style="text-anchor: middle; visibility: hidden; font-family: &quot;Helvetica Neue&quot;, sans-serif; font-size: 12px; font-weight: 200;" fill="rgb(50, 49, 63)" stroke="none" stroke-width="1px">450k</text></g><line x1="0" y1="0" x2="281.125" y2="0" fill="rgb(0, 0, 0)" stroke="rgb(204, 204, 204)" stroke-width="1px"></line></g></g></g></g></svg>