<svg viewBox="0 0 330 200" xmlns="http://www.w3.org/2000/svg"><g><g><g><g><g><line x1="58.59375" y1="177" x2="53.59375" y2="177" style="visibility: inherit;" fill="rgb(0, 0, 0)" stroke="rgb(204, 204, 204)" stroke-width="1px"></line><line x1="58.59375" y1="163.3846153846154" x2="53.59375" y2="163.3846153846154" style="visibility: inherit;" fill="rgb(0, 0, 0)" stroke="rgb(204, 204, 204)" stroke-width="1px"></line><line x1="58.59375" y1="149.76923076923077" x2="53.59375" y2="149.76923076923077" style="visibility: inherit;" fill="rgb(0, 0, 0)" stroke="rgb(204, 204, 204)" stroke-width="1px"></line><line x1="58.59375" y1="136.15384615384616" x2="53.59375" y2="136.15384615384616" style="visibility: inherit;" fill="rgb(0, 0, 0)" stroke="rgb(204, 204, 204)" stroke-width="1px"></line><line x1="58.59375" y1="122.53846153846153" x2="53.59375" y2="122.53846153846153" style="visibility: inherit;" fill="rgb(0, 0, 0)" stroke="rgb(204, 204, 204)" stroke-width="1px"></line><line x1="58.59375" y1="108.92307692307692" x2="53.59375" y2="108.92307692307692" style="visibility: inherit;" fill="rgb(0, 0, 0)" stroke="rgb(204, 204, 204)" stroke-width="1px"></line><line x1="58.59375" y1="95.3076923076923" x2="53.59375" y2="95.3076923076923" style="visibility: inherit;" fill="rgb(0, 0, 0)" stroke="rgb(204, 204, 204)" stroke-width="1px"></line><line x1="58.59375" y1="81.6923076923077" x2="53.59375" y2="81.6923076923077" style="visibility: inherit;" fill="rgb(0, 0, 0)" stroke="rgb(204, 204, 204)" stroke-width="1px"></line><line x1="58.59375" y1="68.07692307692307" x2="53.59375" y2="68.07692307692307" style="visibility: inherit;" fill="rgb(0, 0, 0)" stroke="rgb(204, 204, 204)" stroke-width="1px"></line><line x1="58.59375" y1="54.46153846153847" x2="53.59375" y2="54.46153846153847" style="visibility: inherit;" fill="rgb(0, 0, 0)" stroke="rgb(204, 204, 204)" stroke-width="1px"></line><line x1="58.59375" y1="40.84615384615387" x2="53.59375" y2="40.84615384615387" style="visibility: inherit;" fill="rgb(0, 0, 0)" stroke="rgb(204, 204, 204)" stroke-width="1px"></line><line x1="58.59375" y1="27.230769230769226" x2="53.59375" y2="27.230769230769226" style="visibility: inherit;" fill="rgb(0, 0, 0)" stroke="rgb(204, 204, 204)" stroke-width="1px"></line><line x1="58.59375" y1="13.615384615384613" x2="53.59375" y2="13.615384615384613" style="visibility: inherit;" fill="rgb(0, 0, 0)" stroke="rgb(204, 204, 204)" stroke-width="1px"></line><line x1="58.59375" y1="0" x2="53.59375" y2="0" style="visibility: inherit;" fill="rgb(0, 0, 0)" stroke="rgb(204, 204, 204)" stroke-width="1px"></line></g><g transform="translate(48.59375, 0)"><text x="0" y="177" dx="0em" dy="0.3em" style="text-anchor: end; visibility: hidden; font-family: &quot;Helvetica Neue&quot;, sans-serif; font-size: 12px; font-weight: 200;" fill="rgb(50, 49, 63)" stroke="none" stroke-width="1px">-0.01</text><text x="0" y="163.3846153846154" dx="0em" dy="0.3em" style="text-anchor: end; visibility: inherit; font-family: &quot;Helvetica Neue&quot;, sans-serif; font-size: 12px; font-weight: 200;" fill="rgb(50, 49, 63)" stroke="none" stroke-width="1px">0</text><text x="0" y="149.76923076923077" dx="0em" dy="0.3em" style="text-anchor: end; visibility: hidden; font-family: &quot;Helvetica Neue&quot;, sans-serif; font-size: 12px; font-weight: 200;" fill="rgb(50, 49, 63)" stroke="none" stroke-width="1px">0.01</text><text x="0" y="136.15384615384616" dx="0em" dy="0.3em" style="text-anchor: end; visibility: inherit; font-family: &quot;Helvetica Neue&quot;, sans-serif; font-size: 12px; font-weight: 200;" fill="rgb(50, 49, 63)" stroke="none" stroke-width="1px">0.02</text><text x="0" y="122.53846153846153" dx="0em" dy="0.3em" style="text-anchor: end; visibility: hidden; font-family: &quot;Helvetica Neue&quot;, sans-serif; font-size: 12px; font-weight: 200;" fill="rgb(50, 49, 63)" stroke="none" stroke-width="1px">0.03</text><text x="0" y="108.92307692307692" dx="0em" dy="0.3em" style="text-anchor: end; visibility: inherit; font-family: &quot;Helvetica Neue&quot;, sans-serif; font-size: 12px; font-weight: 200;" fill="rgb(50, 49, 63)" stroke="none" stroke-width="1px">0.04</text><text x="0" y="95.3076923076923" dx="0em" dy="0.3em" style="text-anchor: end; visibility: hidden; font-family: &quot;Helvetica Neue&quot;, sans-serif; font-size: 12px; font-weight: 200;" fill="rgb(50, 49, 63)" stroke="none" stroke-width="1px">0.05</text><text x="0" y="81.6923076923077" dx="0em" dy="0.3em" style="text-anchor: end; visibility: inherit; font-family: &quot;Helvetica Neue&quot;, sans-serif; font-size: 12px; font-weight: 200;" fill="rgb(50, 49, 63)" stroke="none" stroke-width="1px">0.06</text><text x="0" y="68.07692307692307" dx="0em" dy="0.3em" style="text-anchor: end; visibility: hidden; font-family: &quot;Helvetica Neue&quot;, sans-serif; font-size: 12px; font-weight: 200;" fill="rgb(50, 49, 63)" stroke="none" stroke-width="1px">0.07</text><text x="0" y="54.46153846153847" dx="0em" dy="0.3em" style="text-anchor: end; visibility: inherit; font-family: &quot;Helvetica Neue&quot;, sans-serif; font-size: 12px; font-weight: 200;" fill="rgb(50, 49, 63)" stroke="none" stroke-width="1px">0.08</text><text x="0" y="40.84615384615387" dx="0em" dy="0.3em" style="text-anchor: end; visibility: hidden; font-family: &quot;Helvetica Neue&quot;, sans-serif; font-size: 12px; font-weight: 200;" fill="rgb(50, 49, 63)" stroke="none" stroke-width="1px">0.09</text><text x="0" y="27.230769230769226" dx="0em" dy="0.3em" style="text-anchor: end; visibility: inherit; font-family: &quot;Helvetica Neue&quot;, sans-serif; font-size: 12px; font-weight: 200;" fill="rgb(50, 49, 63)" stroke="none" stroke-width="1px">0.1</text><text x="0" y="13.615384615384613" dx="0em" dy="0.3em" style="text-anchor: end; visibility: hidden; font-family: &quot;Helvetica Neue&quot;, sans-serif; font-size: 12px; font-weight: 200;" fill="rgb(50, 49, 63)" stroke="none" stroke-width="1px">0.11</text><text x="0" y="0" dx="0em" dy="0.3em" style="text-anchor: end; visibility: hidden; font-family: &quot;Helvetica Neue&quot;, sans-serif; font-size: 12px; font-weight: 200;" fill="rgb(50, 49, 63)" stroke="none" stroke-width="1px">0.12</text></g><line x1="58.59375" y1="0" x2="58.59375" y2="177" fill="rgb(0, 0, 0)" stroke="rgb(204, 204, 204)" stroke-width="1px"></line></g></g><g transform="translate(58, 0)" clip-path="url(#clip_0)"><clipPath id="clip_0"><rect width="271" height="177"></rect></clipPath><g><g><g><line x1="0" y1="0" x2="0" y2="177" fill="rgb(0, 0, 0)" stroke="rgb(60, 60, 60)" stroke-width="1px" opacity="0.25"></line><line x1="27.140625" y1="0" x2="27.140625" y2="177" fill="rgb(0, 0, 0)" stroke="rgb(60, 60, 60)" stroke-width="1px" opacity="0.25"></line><line x1="54.28125" y1="0" x2="54.28125" y2="177" fill="rgb(0, 0, 0)" stroke="rgb(60, 60, 60)" stroke-width="1px" opacity="0.25"></line><line x1="81.421875" y1="0" x2="81.421875" y2="177" fill="rgb(0, 0, 0)" stroke="rgb(60, 60, 60)" stroke-width="1px" opacity="0.25"></line><line x1="108.5625" y1="0" x2="108.5625" y2="177" fill="rgb(0, 0, 0)" stroke="rgb(60, 60, 60)" stroke-width="1px" opacity="0.25"></line><line x1="135.703125" y1="0" x2="135.703125" y2="177" fill="rgb(0, 0, 0)" stroke="rgb(60, 60, 60)" stroke-width="1px" opacity="0.25"></line><line x1="162.84375" y1="0" x2="162.84375" y2="177" fill="rgb(0, 0, 0)" stroke="rgb(60, 60, 60)" stroke-width="1px" opacity="0.25"></line><line x1="189.984375" y1="0" x2="189.984375" y2="177" fill="rgb(0, 0, 0)" stroke="rgb(60, 60, 60)" stroke-width="1px" opacity="0.25"></line><line x1="217.125" y1="0" x2="217.125" y2="177" fill="rgb(0, 0, 0)" stroke="rgb(60, 60, 60)" stroke-width="1px" opacity="0.25"></line><line x1="244.265625" y1="0" x2="244.265625" y2="177" fill="rgb(0, 0, 0)" stroke="rgb(60, 60, 60)" stroke-width="1px" opacity="0.25"></line><line x1="271.40625" y1="0" x2="271.40625" y2="177" fill="rgb(0, 0, 0)" stroke="rgb(60, 60, 60)" stroke-width="1px" opacity="0.25"></line></g><g><line x1="0" y1="177" x2="271.40625" y2="177" fill="rgb(0, 0, 0)" stroke="rgb(60, 60, 60)" stroke-width="1px" opacity="0.25"></line><line x1="0" y1="163.3846153846154" x2="271.40625" y2="163.3846153846154" fill="rgb(0, 0, 0)" stroke="rgb(60, 60, 60)" stroke-width="1px" opacity="0.25"></line><line x1="0" y1="149.76923076923077" x2="271.40625" y2="149.76923076923077" fill="rgb(0, 0, 0)" stroke="rgb(60, 60, 60)" stroke-width="1px" opacity="0.25"></line><line x1="0" y1="136.15384615384616" x2="271.40625" y2="136.15384615384616" fill="rgb(0, 0, 0)" stroke="rgb(60, 60, 60)" stroke-width="1px" opacity="0.25"></line><line x1="0" y1="122.53846153846153" x2="271.40625" y2="122.53846153846153" fill="rgb(0, 0, 0)" stroke="rgb(60, 60, 60)" stroke-width="1px" opacity="0.25"></line><line x1="0" y1="108.92307692307692" x2="271.40625" y2="108.92307692307692" fill="rgb(0, 0, 0)" stroke="rgb(60, 60, 60)" stroke-width="1px" opacity="0.25"></line><line x1="0" y1="95.3076923076923" x2="271.40625" y2="95.3076923076923" fill="rgb(0, 0, 0)" stroke="rgb(60, 60, 60)" stroke-width="1px" opacity="0.25"></line><line x1="0" y1="81.6923076923077" x2="271.40625" y2="81.6923076923077" fill="rgb(0, 0, 0)" stroke="rgb(60, 60, 60)" stroke-width="1px" opacity="0.25"></line><line x1="0" y1="68.07692307692307" x2="271.40625" y2="68.07692307692307" fill="rgb(0, 0, 0)" stroke="rgb(60, 60, 60)" stroke-width="1px" opacity="0.25"></line><line x1="0" y1="54.46153846153847" x2="271.40625" y2="54.46153846153847" fill="rgb(0, 0, 0)" stroke="rgb(60, 60, 60)" stroke-width="1px" opacity="0.25"></line><line x1="0" y1="40.84615384615387" x2="271.40625" y2="40.84615384615387" fill="rgb(0, 0, 0)" stroke="rgb(60, 60, 60)" stroke-width="1px" opacity="0.25"></line><line x1="0" y1="27.230769230769226" x2="271.40625" y2="27.230769230769226" fill="rgb(0, 0, 0)" stroke="rgb(60, 60, 60)" stroke-width="1px" opacity="0.25"></line><line x1="0" y1="13.615384615384613" x2="271.40625" y2="13.615384615384613" fill="rgb(0, 0, 0)" stroke="rgb(60, 60, 60)" stroke-width="1px" opacity="0.25"></line><line x1="0" y1="0" x2="271.40625" y2="0" fill="rgb(0, 0, 0)" stroke="rgb(60, 60, 60)" stroke-width="1px" opacity="0.25"></line></g></g></g><g><g><line x1="0" y1="163.3846153846154" x2="271.40625" y2="163.3846153846154" fill="rgb(0, 0, 0)" stroke="rgb(153, 153, 153)" stroke-width="1.5px"></line></g></g><g><g><line x1="27.140625" y1="0" x2="27.140625" y2="177" fill="rgb(0, 0, 0)" stroke="rgb(153, 153, 153)" stroke-width="1.5px"></line></g></g><g><g><g><g><g><path stroke="rgb(255, 112, 67)" stroke-width="2px" d="M33.220124999999996,-2.48066135315608L33.654375,2.694732319389118L34.088625,8.070708377777919L34.522875,11.66736572997695L34.957125,14.894257702294368L35.391375,17.128157801512742L35.825625,18.9317599732787L36.259875,21.96564733261323L36.694125,23.861854084378933L37.128375,25.832939036449773L37.562625,27.470818779183702L37.996875,29.462533251040867L38.431125,31.388754137717626L38.865375,34.016530899093L39.299625000000006,35.37195376226214L39.733875,38.05586040102369L40.168124999999996,40.00216138828148L40.602375,42.48414194534112L41.036625,45.00063049125578L41.470875,47.749822503354864L41.905125000000005,49.87304989257328L42.339375,53.43904761400893L42.773624999999996,58.66131807269524L43.207875,62.124697193628506L43.642125,68.38375118561781L44.076375,70.86672917085687L44.510625000000005,75.21498562034176L44.944874999999996,81.40147228069668L45.379124999999995,87.34819169324328L45.813375,90.39281036689299L46.247625,94.85931680892982L46.681875,97.34972807452073L47.116125000000004,99.6638474859154L47.550374999999995,99.53708437802702L47.984625,98.28385910224604L48.418875,97.79220312687215L48.853125,100.75379442898735L49.287375000000004,101.4140009643812L49.721625,97.65168961656504L50.155874999999995,99.35310528326276L50.590125,102.16479050628543L51.024375,102.73696051361885L51.458625,101.99127300344756L51.892875000000004,102.6162459001712L52.327125,103.08359305306142L52.761374999999994,101.16482082888257L53.195625,103.31559471740272L53.629875,101.82098508472683L54.064125,102.89396321486545L54.498375,103.57854013041555L54.932625,101.32179028169315L55.36687499999999,100.64417735837422L55.801125,102.24591993154598L56.235375,101.90089302484792L56.669625,102.8028181103192L57.103875,102.83264402194752L57.538125,101.580897156262L57.97237500000001,103.88072472353288L58.406625,104.96506848060791L58.840875,105.39783503762033L59.275125,105.53383653941745L59.709375,106.5498955059872L60.143625,106.09274916793171L60.577875000000006,105.54656294872596L61.012125,106.29309301815265L61.446374999999996,105.87409139557244L61.880625,104.41744169248356L62.314875,105.69268208948088L62.749125,105.1958387676088L63.183375000000005,105.9405943461643L63.617625,106.91479054922793L64.051875,107.02018510279937L64.486125,106.61403714863727L64.92037499999999,106.72518416836972L65.354625,107.67766441094714L65.788875,108.3085633830116L66.223125,108.34958929881002L66.657375,108.28165072149456L67.09162500000001,108.02968627640993L67.525875,106.81208702673457L67.960125,106.9300759007148L68.394375,107.89126674626863L68.828625,108.35932211226213L69.262875,106.61876906381104L69.69712499999999,106.77145086047223L70.131375,107.73933666079009L70.565625,107.51353720915957L70.999875,108.08608981151048L71.434125,107.25599227699986L71.868375,107.82399726124616L72.302625,106.18738728750492L72.736875,106.53860122417196L73.171125,107.60807704096216L73.605375,106.41979221249879L74.039625,106.51713605325423L74.47387499999999,106.79726933232318L74.90812500000001,104.91131477094056L75.342375,105.1750717295925L75.776625,106.94382938806076L76.210875,107.14326281998258L76.645125,107.61565272464117L77.079375,108.50263720241824L77.513625,107.47954565623142L77.947875,107.82520712540864L78.382125,107.60745434607091L78.816375,108.46465805786633L79.250625,108.08659043267652L79.684875,110.29948710873434L80.11912500000001,109.97435314800704L80.553375,107.67393064476101L80.987625,108.79759707666435L81.421875,110.11114653624983L81.85612499999999,107.32890323391904L82.29037500000001,108.43606541188292L82.724625,109.16763128281214L83.158875,106.88190586050084L83.593125,105.76527798764363L84.02737499999999,106.12147351214607L84.461625,107.15186803956267L84.895875,108.76765398266346L85.33012500000001,109.50788574084484L85.764375,108.34125147537222L86.19862499999999,109.69687171742814L86.632875,111.12368504338608L87.06712499999999,110.15750017887395L87.50137500000001,110.51962219689375L87.935625,110.69306412347606L88.369875,111.20715994702388L88.804125,109.38293249738489L89.23837499999999,108.75346534908714L89.67262500000001,109.89425380229571L90.106875,108.80844736355775L90.54112500000001,109.50572499236557L90.975375,108.87307807702936L91.40962499999999,108.52366907765706L91.843875,109.87595445367607L92.278125,111.07109490719569L92.71237500000001,111.86209425739725L93.146625,112.04105384366311L93.58087499999999,110.80632476156296L94.015125,110.36519721007781L94.44937499999999,109.35699772565809L94.88362500000001,108.2124626629537L95.317875,109.89585684587779L95.752125,110.48871504804396L96.186375,110.38306938640511L96.62062499999999,110.54743870745212L97.054875,109.93455869255223L97.489125,110.73357791894713L97.92337500000001,109.13456205749627L98.357625,111.2447200261233L98.79187499999999,109.41842681240489L99.226125,111.0139310955675L99.660375,111.25869531537813L100.09462500000001,110.42654628449878L100.528875,110.52922895533517L100.963125,111.48859674828547L101.397375,111.4547446747307L101.83162499999999,111.33314104509304L102.26587500000001,111.54293771992067L102.700125,111.85834687229726L103.134375,112.37037434834588L103.568625,112.71438403613682L104.00287499999999,112.23846716786123L104.437125,112.2244604144468L104.871375,110.82891713601654L105.305625,112.21502050495606L105.739875,112.03282337123338L106.174125,112.36406184184753L106.608375,112.0599279753642L107.04262499999999,111.87519360267015L107.476875,111.78053508991351L107.911125,111.94421921387386L108.345375,111.26714102387243L108.779625,111.93780993566034L109.213875,112.18250468276398L109.64812500000001,112.48340866186616L110.082375,111.61751667207899L110.516625,109.39695677624461L110.950875,110.11707895080039L111.385125,111.56845278741638L111.819375,111.58895342149293L112.253625,113.15212734285383L112.687875,113.35856822897107L113.122125,112.2308390012147L113.556375,112.40560245202094L113.990625,111.87529035390315L114.424875,113.06644606808133L114.859125,111.89897497243652L115.293375,113.42912204114776L115.727625,112.22835804069334L116.161875,112.27437497862294L116.596125,111.73614079124445L117.030375,111.84046400178731L117.464625,112.19387740339701L117.898875,113.41865452977154L118.333125,113.90694650002521L118.767375,114.54092071461983L119.20162499999999,114.35450327584743L119.63587500000001,113.2712514100005L120.070125,112.51146441591652L120.504375,112.67216797407193L120.938625,112.41248831408042L121.372875,111.9502794716627L121.807125,112.6757053653108L122.241375,111.787833934363L122.675625,112.5985975567823L123.109875,112.77720202691845L123.544125,113.9038924721284L123.978375,114.08558748142647L124.41262499999999,114.31695836860283L124.84687500000001,114.1092613665042L125.281125,113.44499938928672L125.715375,114.2631863989127L126.149625,113.32928362621712L126.58387499999999,113.39962634294767L127.01812500000001,113.4672250647013L127.452375,113.09734786007331L127.886625,113.82512641360935L128.320875,113.2203460827871L128.755125,110.97539045645755L129.18937499999998,112.90767437129823L129.623625,113.05842202802111L130.057875,112.79723229806926L130.492125,112.69684340514446L130.926375,112.99674319003645L131.360625,113.87756160775979L131.794875,114.08865727160622L132.229125,114.32925490886672L132.663375,113.02488242413408L133.097625,112.63322652245279L133.53187499999999,111.5248818614122L133.966125,112.47866437313408L134.400375,113.01750451198305L134.83462500000002,113.48674583404069L135.268875,114.99119441307255L135.703125,115.12693781749866L136.13737500000002,115.28074686768147L136.57162499999998,114.39513654504941L137.005875,113.06238458428541L137.440125,112.15977533613666L137.87437500000001,111.8139106688203L138.308625,112.30757677163031L138.742875,111.45711887472845L139.17712500000002,113.14323701203864L139.61137499999998,112.93440220981059L140.045625,112.03376194283588L140.479875,114.16699482238654L140.914125,113.76917873349223L141.348375,113.17284333010987L141.782625,113.24762951452283L142.21687500000002,113.39623026001624L142.65112499999998,114.2685959459847L143.085375,113.3538180817988L143.51962500000002,114.19428174811026L143.95387499999998,114.0081502692179L144.388125,114.62892492758122L144.822375,112.84122805774649L145.256625,114.04654839577387L145.690875,114.00716065317275L146.125125,113.17045200437236L146.55937500000002,111.74332986538643L146.99362499999998,113.1807368922442L147.427875,113.10575077701864L147.862125,114.13792042457158L148.296375,115.27676819691301L148.730625,115.84479149354426L149.164875,115.57104842307388L149.59912500000002,114.27867857068723L150.03337499999998,111.93435678245898L150.467625,112.89331807434998L150.90187500000002,114.4577066736156L151.336125,114.34885045371398L151.770375,115.6529295936297L152.204625,114.35477272380277L152.638875,114.11103861846166L153.07312499999998,115.29748100781867L153.507375,116.01817599841152L153.94162500000002,116.05917702766865L154.37587499999998,115.2478222959243L154.810125,114.79762817790433L155.244375,113.85892840110989L155.678625,115.32874040442638L156.112875,114.83409520997135L156.547125,114.18298154252119L156.981375,114.22683426293295L157.41562499999998,113.88295373420684L157.849875,113.73695125502346L158.28412500000002,113.66702308342364L158.718375,115.9322748652383L159.152625,116.33280426046801L159.586875,115.94970688827229L160.021125,116.16436350294998L160.45537499999998,115.81795201362905L160.889625,114.586748916187L161.32387500000002,115.31861087256283L161.758125,115.70372410620952L162.192375,116.48222660792523L162.626625,115.81362837142417L163.060875,116.4103534164918L163.495125,115.45518052604383L163.929375,116.36873518840424L164.363625,115.53267667908273L164.79787499999998,116.31632845165382L165.232125,116.2150714802314L165.66637500000002,116.02945169897447L166.100625,116.05521794474602L166.534875,116.63883493181112L166.969125,115.94889061582481L167.403375,114.12704994867451L167.83762499999997,114.76669132648647L168.271875,115.71981418371367L168.70612500000001,115.44528599799696L169.140375,115.2119594522959L169.574625,116.24334465454358L170.008875,116.1911355320648L170.443125,117.16995438856557L170.877375,116.89522774081725L171.311625,116.15165608653513L171.745875,115.27662223296814L172.180125,114.55765599485859L172.614375,114.14802552837415L173.048625,113.56429960705577L173.482875,113.3690256196309L173.917125,114.45119585777537L174.351375,115.04465795086338L174.785625,114.51451711739242L175.21987499999997,113.30379524529293L175.654125,114.13474421505931L176.088375,114.98542464305L176.522625,115.80928014373663L176.956875,116.13701468134224L177.391125,116.59340912173155L177.825375,117.32569902626804L178.259625,117.11883745025933L178.693875,115.95411095692901L179.128125,117.00750388950772L179.562375,116.98746104114728L179.996625,116.76406563885175L180.430875,116.66256507147878L180.865125,116.56047906775835L181.299375,116.11791923316365L181.733625,116.15463335089345L182.167875,116.61720031272537L182.602125,116.19801702867343L183.036375,115.50800959055933L183.470625,114.76235706678219L183.904875,115.34089028098282L184.339125,116.38749087835974L184.773375,117.03684140664484L185.207625,116.92192126168099L185.64187500000003,115.81061887332693L186.076125,115.84650137546228L186.510375,116.48152886527932L186.944625,116.00551836952614L187.378875,115.72691363483466L187.81312499999999,116.1700817470676L188.247375,115.3630615950733L188.681625,113.54814478046356L189.115875,114.83249926508691L189.550125,115.6482538774545L189.984375,115.99245312871454L190.418625,113.5899582944489L190.852875,114.82826439852116L191.287125,115.34931820130797L191.721375,115.5807944377816L192.155625,115.70061913007603L192.589875,115.04630925901276L193.02412500000003,115.44880546533972L193.458375,115.68766568360456L193.892625,116.97377847082362L194.326875,116.70474935486237L194.761125,116.4997420342547L195.19537499999998,115.18480831528245L195.629625,115.06976523760602L196.06387500000002,115.5374088722593L196.498125,115.73007887829104L196.932375,116.40121664311971L197.366625,117.00067953200721L197.800875,117.68276594148719L198.235125,117.16559194045175L198.669375,117.19299577690995L199.10362500000002,116.28156160401926L199.53787499999999,115.60106275271411L199.972125,116.37175276063198L200.406375,115.5400868495474L200.840625,115.7019589484756L201.274875,117.217668615549L201.709125,118.4098674703561L202.143375,118.7368059783532L202.57762499999998,118.58388102412957L203.011875,118.73056466702754L203.44612500000002,118.64675354050388L203.880375,118.08449457935565L204.314625,117.5431991595841L204.748875,117.10187053829256L205.183125,116.81459776069005L205.617375,116.28838432319743L206.051625,116.08831899365148L206.48587500000002,115.59997040813002L206.92012499999998,115.99073456580953L207.354375,116.17964333989147L207.788625,116.60494058548167L208.222875,116.797770330926L208.657125,116.5810694426327L209.091375,117.00294897093396L209.52562500000002,117.02332494017816L209.95987499999998,115.4608034980505L210.394125,115.97290424979064L210.82837500000002,116.86704214315795L211.26262499999999,116.26907491349962L211.696875,117.248461410921L212.131125,117.27997121039607L212.565375,117.71470621214763L212.999625,117.37837741275197L213.433875,117.27969239743598L213.86812500000002,116.22428134711734L214.30237499999998,116.80974486892865L214.736625,117.45107555184492L215.170875,117.05942276593285L215.605125,116.27066246188194L216.039375,116.74393600487463L216.473625,116.43850894269062L216.90787500000002,116.48738971144294L217.34212499999998,115.49381237363556L217.776375,116.45293197300096L218.21062500000002,117.8176062531007L218.64487499999998,116.85633804957465L219.079125,117.17707156735437L219.513375,117.12985575234481L219.94762500000002,117.96174057697453L220.381875,117.44914666729596L220.816125,117.81054693594646L221.25037500000002,117.9055810051496L221.68462499999998,116.32380158674422L222.118875,116.5875746234711L222.553125,116.85229628415259L222.987375,117.64665652683496L223.421625,117.9261739129399L223.855875,116.95927409974186L224.29012500000002,118.19762935244891L224.72437499999998,118.35161448031668L225.158625,117.97915940909662L225.59287500000002,117.80956451781806L226.02712499999998,116.13487638049256L226.461375,116.59195774663783L226.895625,116.38879980550402L227.32987500000002,117.0006205314767L227.76412499999998,118.004924159173L228.198375,117.79172993265709L228.63262500000002,117.17053493917933L229.06687499999998,118.39633497815515L229.501125,117.30966995902952L229.935375,118.2603775587106L230.369625,117.82738342763605L230.803875,117.2157396534136L231.238125,116.9050763050761L231.67237500000002,117.2222369386627L232.10662499999998,117.75945253674965L232.540875,117.85576187352132L232.97512500000002,118.00466720513991L233.40937499999998,118.02886604633807L233.843625,117.27557705813621L234.277875,116.27891008058953L234.71212500000001,116.62473313303956L235.14637499999998,115.33583617246984L235.580625,116.66724769861831L236.01487500000002,116.36582672031446L236.44912499999998,116.91288711181625L236.883375,117.09764507466437L237.317625,117.31344213976332L237.751875,117.07699083255818L238.186125,117.67205126678584L238.620375,116.87863804732072L239.05462500000002,117.34491403416762L239.48887499999998,117.0044336812806L239.923125,117.05718458552752L240.35737500000002,116.02296639276227L240.791625,116.91067881323045L241.225875,117.26806431145985L241.660125,117.59825572816672L242.094375,117.85205643535845L242.52862499999998,118.43998176368177L242.962875,118.79348154877576L243.39712500000002,117.77380750004804L243.83137499999998,118.56817697172744L244.265625,118.03388944814296" style="fill: none;" fill="none"></path></g></g></g></g><g opacity="0.2"><g><g><g><path stroke="rgb(255, 112, 67)" stroke-width="2px" d="M32.351625,-5.1552849480738985L32.785875000000004,2.231485495200502L33.220124999999996,7.489403493129288L33.654375,10.454172739615814L34.088625,16.132397532463102L34.522875,17.061438567363297L34.957125,19.734104076257125L35.391375,20.478803763022796L35.825625,21.637064317098037L36.259875,26.516378540259154L36.694125,26.706126774732894L37.128375,28.78954311517569L37.562625,29.9276267519364L37.996875,32.4500964650741L38.431125,34.27808053906148L38.865375,37.958192006899765L39.299625000000006,37.40508680847975L39.733875,42.081718875811674L40.168124999999996,42.921612223753584L40.602375,46.20711228709956L41.036625,48.775363009709594L41.470875,51.87361032458453L41.905125000000005,53.05789088515135L42.339375,58.78804410420932L42.773624999999996,66.4947236799277L43.207875,67.31976584287791L43.642125,77.77233213874011L44.076375,74.5911961404177L44.510625000000005,81.73737028585032L44.944874999999996,90.68120226378625L45.379124999999995,96.26827080777058L45.813375,94.95973837604889L46.247625,101.5590764708244L46.681875,101.08534497251877L47.116125000000004,103.1350266027909L47.550374999999995,99.34693971620156L47.984625,96.40402118861675L48.418875,97.05471916382129L48.853125,105.19618138212424L49.287375000000004,102.40431076746721L49.721625,92.00822259485722L50.155874999999995,101.90522878330488L50.590125,106.38231834081503L51.024375,103.59521552461844L51.458625,100.87274173819101L51.892875000000004,103.55370524525642L52.327125,103.78461378239668L52.761374999999994,98.28666249261452L53.195625,106.54175555018278L53.629875,99.57907063571307L54.064125,104.50343041007335L54.498375,104.60540550374067L54.932625,97.93666550860955L55.36687499999999,99.62775797339586L55.801125,104.64853379130363L56.235375,101.3833526648008L56.669625,104.15570573852612L57.103875,102.87738288938999L57.538125,99.70327685773373L57.97237500000001,107.3304660744392L58.406625,106.59158411622047L58.840875,106.04698487313894L59.275125,105.73783879211315L59.709375,108.0739839558418L60.143625,105.40702966084847L60.577875000000006,104.72728361991736L61.012125,107.41288812229267L61.446374999999996,105.24558896170213L61.880625,102.23246713785025L62.314875,107.60554268497687L62.749125,104.45057378480068L63.183375000000005,107.05772771399755L63.617625,108.37608485382337L64.051875,107.17827693315652L64.486125,106.0048152173941L64.92037499999999,106.89190469796841L65.354625,109.10638477481329L65.788875,109.25491184110825L66.223125,108.41112817250765L66.657375,108.17974285552135L67.09162500000001,107.65173960878299L67.525875,104.98568815222153L67.960125,107.10705921168511L68.394375,109.33305301459936L68.828625,109.06140516125238L69.262875,104.00793949113442L69.69712499999999,107.00047355546401L70.131375,109.19116536126687L70.565625,107.17483803171378L70.999875,108.94491871503683L71.434125,106.01084597523396L71.868375,108.67600473761559L72.302625,103.73247232689307L72.736875,107.06542212917255L73.171125,109.21229076614746L73.605375,104.63736496980374L74.039625,106.66315181438739L74.47387499999999,107.21746925092661L74.90812500000001,102.08238292886661L75.342375,105.5707071675704L75.776625,109.59696587576316L76.210875,107.44241296786528L76.645125,108.32423758162902L77.079375,109.83311391908389L77.513625,105.94490833695119L77.947875,108.34369932917448L78.382125,107.2808251770643L78.816375,109.75046362555945L79.250625,107.51948899489183L79.684875,113.61883212282106L80.11912500000001,109.48665220691608L80.553375,104.22329688989198L80.987625,110.48309672451937L81.421875,112.08147072562805L81.85612499999999,103.15553828042287L82.29037500000001,110.09680867882875L82.724625,110.26498008920596L83.158875,103.4533177270339L83.593125,104.09033617835779L84.02737499999999,106.65576679889972L84.461625,108.69745983068759L84.895875,111.19133289731467L85.33012500000001,110.6182333781169L85.764375,106.59130007716325L86.19862499999999,111.73030208051205L86.632875,113.26390503232295L87.06712499999999,108.70822288210576L87.50137500000001,111.06280522392346L87.935625,110.95322701334953L88.369875,111.97830368234561L88.804125,106.64659132292637L89.23837499999999,107.80926462664054L89.67262500000001,111.60543648210856L90.106875,107.17973770545079L90.54112500000001,110.55164143557732L90.975375,107.92410770402505L91.40962499999999,107.99955557859862L91.843875,111.9043825177046L92.278125,112.86380558747511L92.71237500000001,113.04859328269958L93.146625,112.30949322306192L93.58087499999999,108.95423113841277L94.015125,109.70350588285005L94.44937499999999,107.8446984990285L94.88362500000001,106.4956600688971L95.317875,112.4209481202639L95.752125,111.3780023512932L96.186375,110.2246008939468L96.62062499999999,110.79399268902266L97.054875,109.01523867020241L97.489125,111.93210675853949L97.92337500000001,106.73603826531998L98.357625,114.40995697906384L98.79187499999999,106.6789869918273L99.226125,113.40718752031142L99.660375,111.62584164509407L100.09462500000001,109.1783227381798L100.528875,110.68325296158974L100.963125,112.92764843771091L101.397375,111.40396656439854L101.83162499999999,111.15073560063655L102.26587500000001,111.85763273216212L102.700125,112.33146060086214L103.134375,113.13841556241879L103.568625,113.23039856782326L104.00287499999999,111.52459186544785L104.437125,112.20345028432516L104.871375,108.73560221837117L105.305625,114.29417555836531L105.739875,111.75952767064938L106.174125,112.86091954776875L106.608375,111.60372717563922L107.04262499999999,111.59809204362905L107.476875,111.63854732077856L107.911125,112.18974539981438L108.345375,110.25152373887026L108.779625,112.94381330334222L109.213875,112.5495468034194L109.64812500000001,112.93476463051942L110.082375,110.31867868739825L110.516625,106.06611693249299L110.950875,111.19726221263409L111.385125,113.74551354234035L111.819375,111.61970437260774L112.253625,115.49688822489519L112.687875,113.66822955814692L113.122125,110.53924515958016L113.556375,112.66774762823032L113.990625,111.07982220672643L114.424875,114.85317963934861L114.859125,110.14776832896929L115.293375,115.72434264421463L115.727625,110.4272120400117L116.161875,112.34340038551734L116.596125,110.92878951017673L117.030375,111.99694881760156L117.464625,112.72399750581154L117.898875,115.25582021933336L118.333125,114.63938445540575L118.767375,115.49188203651171L119.20162499999999,114.07487711768884L119.63587500000001,111.64637361123012L120.070125,111.37178392479053L120.504375,112.91322331130505L120.938625,112.02296882409316L121.372875,111.25696620803613L121.807125,113.76384420578296L122.241375,110.45602678794127L122.675625,113.81474299041125L123.109875,113.04510873212263L123.544125,115.59392813994333L123.978375,114.35812999537357L124.41262499999999,114.66401469936737L124.84687500000001,113.79771586335622L125.281125,112.44860642346052L125.715375,115.49046691335164L126.149625,111.92842946717373L126.58387499999999,113.50514041804351L127.01812500000001,113.56862314733175L127.452375,112.54253205313132L127.886625,114.91679424391343L128.320875,112.31317558655373L128.755125,107.60795701696323L129.18937499999998,115.80610024355926L129.623625,113.28454351310546L130.057875,112.40544770314143L130.492125,112.54626006575731L130.926375,113.44659286737442L131.360625,115.19878923434477L131.794875,114.40530076737588L132.229125,114.69015136475747L132.663375,111.06832369703513L133.097625,112.04574266993082L133.53187499999999,109.86236486985133L133.966125,113.90933814071693L134.400375,113.82576472025652L134.83462500000002,114.19060781712716L135.268875,117.24786728162032L135.703125,115.33055292413785L136.13737500000002,115.51146044295568L136.57162499999998,113.06672106110133L137.005875,111.0632566431394L137.440125,110.80586146391356L137.87437500000001,111.29511366784573L138.308625,113.04807592584535L138.742875,110.18143202937567L139.17712500000002,115.67241421800394L139.61137499999998,112.62115000646848L140.045625,110.68280154237381L140.479875,117.36684414171256L140.914125,113.17245460015077L141.348375,112.27834022503633L141.782625,113.35980879114224L142.21687500000002,113.61913137825636L142.65112499999998,115.57714447493737L143.085375,111.98165128551996L143.51962500000002,115.45497724757745L143.95387499999998,113.72895305087933L144.388125,115.56008691512622L144.822375,110.15968275299439L145.256625,115.85452890281493L145.690875,113.94807903927106L146.125125,111.9153890311718L146.55937500000002,109.60264665690752L146.99362499999998,115.33684743253085L147.427875,112.99327160418034L147.862125,115.68617489590093L148.296375,116.98503985542517L148.730625,116.69682643849116L149.164875,115.16043381736829L149.59912500000002,112.34012379210729L150.03337499999998,108.41787410011658L150.467625,114.33176001218649L150.90187500000002,116.80428957251402L151.336125,114.18556612386152L151.770375,117.60904830350324L152.204625,112.4075374190624L152.638875,113.74543746045002L153.07312499999998,117.07714459185416L153.507375,117.09921848430082L153.94162500000002,116.12067857155434L154.37587499999998,114.03079019830777L154.810125,114.12233700087437L155.244375,112.45087873591827L155.678625,117.53345840940109L156.112875,114.09212741828881L156.547125,113.20631104134597L156.981375,114.29261334355061L157.41562499999998,113.36713294111766L157.849875,113.51794753624841L158.28412500000002,113.5621308260239L158.718375,119.33015253796026L159.152625,116.93359835331256L159.586875,115.37506082997872L160.021125,116.48634842496652L160.45537499999998,115.29833477964767L160.889625,112.73994427002394L161.32387500000002,116.41640380712656L161.758125,116.28139395667955L162.192375,117.6499803604988L162.626625,114.81073101667258L163.060875,117.30544098409322L163.495125,114.02242119037189L163.929375,117.73906718194485L164.363625,114.27858891510047L164.79787499999998,117.49180611051045L165.232125,116.06318602309777L165.66637500000002,115.75102202708905L166.100625,116.09386731340334L166.534875,117.51426041240876L166.969125,114.91397414184533L167.403375,111.39428894794905L167.83762499999997,115.7261533932044L168.271875,117.14949846955446L168.70612500000001,115.0334937194219L169.140375,114.86196963374431L169.574625,117.79042245791508L170.008875,116.11282184834664L170.443125,118.63818267331673L170.877375,116.48313776919476L171.311625,115.03629860511192L171.745875,113.96407145261765L172.180125,113.47920663769429L172.614375,113.53357982864746L173.048625,112.68871072507822L173.482875,113.0761146384936L173.917125,116.07445121499208L174.351375,115.9348510904954L174.785625,113.71930586718597L175.21987499999997,111.48771243714368L175.654125,115.38116766970892L176.088375,116.26144528503602L176.522625,117.04506339476659L176.956875,116.62861648775063L177.391125,117.27800078231554L177.825375,118.42413388307278L178.259625,116.80854508624627L178.693875,114.20702121693354L179.128125,118.58759328837579L179.562375,116.95739676860663L179.996625,116.42897253540846L180.430875,116.5103142204193L180.865125,116.40735006217773L181.299375,115.45407948127159L181.733625,116.20970452748813L182.167875,117.31105075547329L182.602125,115.56924210259548L183.036375,114.4729984333882L183.470625,113.64387828111649L183.904875,116.20869010228377L184.339125,117.95739177442513L184.773375,118.01086719907246L185.207625,116.74954104423523L185.64187500000003,114.14366529079584L186.076125,115.90032512866534L186.510375,117.43407010000486L186.944625,115.29150262589638L187.378875,115.30900653279744L187.81312499999999,116.83483391541701L188.247375,114.15253136708185L188.681625,110.82576955854893L189.115875,116.75903099202193L189.550125,116.87188579600591L189.984375,116.50875200560459L190.418625,109.98621604305048L190.852875,116.68572355462953L191.287125,116.13089890548817L191.721375,115.92800879249207L192.155625,115.8803561685177L192.589875,114.06484445241782L193.02412500000003,116.05254977483015L193.458375,116.04595601100188L193.892625,118.90294765165218L194.326875,116.30120568092053L194.761125,116.19223105334319L195.19537499999998,113.2124077368241L195.629625,114.8972006210914L196.06387500000002,116.23887432423922L196.498125,116.01908388733864L196.932375,117.40792329036273L197.366625,117.89987386533848L197.800875,118.70589555570713L198.235125,116.3898309388986L198.669375,117.23410153159729L199.10362500000002,114.9144103446832L199.53787499999999,114.58031447575642L199.972125,117.52778777250877L200.406375,114.2925879829205L200.840625,115.94476709686793L201.274875,119.49123311615907L201.709125,120.19816575256678L202.143375,119.22721374034882L202.57762499999998,118.35449359279413L203.011875,118.95059013137451L203.44612500000002,118.52103685071835L203.880375,117.24110613763332L204.314625,116.73125602992681L204.748875,116.43987760635522L205.183125,116.38368859428626L205.617375,115.49906416695852L206.051625,115.78822099933258L206.48587500000002,114.86744752984781L206.92012499999998,116.57688080232877L207.354375,116.46300650101442L207.788625,117.24288645386696L208.222875,117.08701494909249L208.657125,116.25601811019274L209.091375,117.63576826338584L209.52562500000002,117.05388889404443L209.95987499999998,113.11702133485905L210.394125,116.74105537740084L210.82837500000002,118.20824898320895L211.26262499999999,115.37212406901213L211.696875,118.71754115705306L212.131125,117.32723590960869L212.565375,118.36680871477493L212.999625,116.87388421365849L213.433875,117.13166487446198L213.86812500000002,114.64116477163938L214.30237499999998,117.68794015164559L214.736625,118.41307157621934L215.170875,116.47194358706474L215.605125,115.0875220058056L216.039375,117.45384631936366L216.473625,115.9803683494146L216.90787500000002,116.56071086457142L217.34212499999998,114.00344636692449L217.776375,117.89161137204904L218.21062500000002,119.86461767325035L218.64487499999998,115.41443574428558L219.079125,117.65817184402391L219.513375,117.05903202983049L219.94762500000002,119.20956781391914L220.381875,116.68025580277809L220.816125,118.35264733892221L221.25037500000002,118.04813210895428L221.68462499999998,113.95113245913616L222.118875,116.98323417856142L222.553125,117.2493787751748L222.987375,118.8381968908585L223.421625,118.34544999209734L223.855875,115.5089243799448L224.29012500000002,120.0551622315095L224.72437499999998,118.58259217211834L225.158625,117.42047680226656L225.59287500000002,117.5551721809002L226.02712499999998,113.62284417450428L226.461375,117.27757979585573L226.895625,116.0840628938033L227.32987500000002,117.91835162043571L227.76412499999998,119.51137960071748L228.198375,117.47193859288326L228.63262500000002,116.23874244896265L229.06687499999998,120.2350350366189L229.501125,115.67967243034106L229.935375,119.68643895823222L230.369625,117.17789223102423L230.803875,116.29827399207994L231.238125,116.43908128256982L231.67237500000002,117.69797788904263L232.10662499999998,118.56527593388006L232.540875,118.00022587867883L232.97512500000002,118.22802520256776L233.40937499999998,118.06516430813532L233.843625,116.14564357583339L234.277875,114.78390961426955L234.71212500000001,117.14346771171459L235.14637499999998,113.40249073161527L235.580625,118.66436498784103L236.01487500000002,115.91369525285867L236.44912499999998,117.73347769906887L236.883375,117.3747820189366L237.317625,117.6371377374117L237.751875,116.72231387175046L238.186125,118.56464191812735L238.620375,115.688518218123L239.05462500000002,118.04432801443797L239.48887499999998,116.49371315195009L239.923125,117.1363109418979L240.35737500000002,114.47163910361436L240.791625,118.24224744393274L241.225875,117.80414255880393L241.660125,118.09354285322704L242.094375,118.23275749614605L242.52862499999998,119.32186975616675L242.962875,119.32373122641674L243.39712500000002,116.24429642695647L243.83137499999998,119.75973117924653L244.265625,117.23245816276624" style="fill: none;" fill="none"></path></g></g></g></g></g></g><g transform="translate(58, 177)" clip-path="url(#clip_1)"><clipPath id="clip_1"><rect width="271" height="23"></rect></clipPath><g><g><line x1="0" y1="0" x2="0" y2="5" style="visibility: inherit;" fill="rgb(0, 0, 0)" stroke="rgb(204, 204, 204)" stroke-width="1px"></line><line x1="27.140625" y1="0" x2="27.140625" y2="5" style="visibility: inherit;" fill="rgb(0, 0, 0)" stroke="rgb(204, 204, 204)" stroke-width="1px"></line><line x1="54.28125" y1="0" x2="54.28125" y2="5" style="visibility: inherit;" fill="rgb(0, 0, 0)" stroke="rgb(204, 204, 204)" stroke-width="1px"></line><line x1="81.421875" y1="0" x2="81.421875" y2="5" style="visibility: inherit;" fill="rgb(0, 0, 0)" stroke="rgb(204, 204, 204)" stroke-width="1px"></line><line x1="108.5625" y1="0" x2="108.5625" y2="5" style="visibility: inherit;" fill="rgb(0, 0, 0)" stroke="rgb(204, 204, 204)" stroke-width="1px"></line><line x1="135.703125" y1="0" x2="135.703125" y2="5" style="visibility: inherit;" fill="rgb(0, 0, 0)" stroke="rgb(204, 204, 204)" stroke-width="1px"></line><line x1="162.84375" y1="0" x2="162.84375" y2="5" style="visibility: inherit;" fill="rgb(0, 0, 0)" stroke="rgb(204, 204, 204)" stroke-width="1px"></line><line x1="189.984375" y1="0" x2="189.984375" y2="5" style="visibility: inherit;" fill="rgb(0, 0, 0)" stroke="rgb(204, 204, 204)" stroke-width="1px"></line><line x1="217.125" y1="0" x2="217.125" y2="5" style="visibility: inherit;" fill="rgb(0, 0, 0)" stroke="rgb(204, 204, 204)" stroke-width="1px"></line><line x1="244.265625" y1="0" x2="244.265625" y2="5" style="visibility: inherit;" fill="rgb(0, 0, 0)" stroke="rgb(204, 204, 204)" stroke-width="1px"></line><line x1="271.40625" y1="0" x2="271.40625" y2="5" style="visibility: inherit;" fill="rgb(0, 0, 0)" stroke="rgb(204, 204, 204)" stroke-width="1px"></line></g><g transform="translate(0, 8)"><text x="0" y="0" dx="0em" dy="0.95em" style="text-anchor: middle; visibility: hidden; font-family: &quot;Helvetica Neue&quot;, sans-serif; font-size: 12px; font-weight: 200;" fill="rgb(50, 49, 63)" stroke="none" stroke-width="1px">-50k</text><text x="27.140625" y="0" dx="0em" dy="0.95em" style="text-anchor: middle; visibility: inherit; font-family: &quot;Helvetica Neue&quot;, sans-serif; font-size: 12px; font-weight: 200;" fill="rgb(50, 49, 63)" stroke="none" stroke-width="1px">0</text><text x="54.28125" y="0" dx="0em" dy="0.95em" style="text-anchor: middle; visibility: hidden; font-family: &quot;Helvetica Neue&quot;, sans-serif; font-size: 12px; font-weight: 200;" fill="rgb(50, 49, 63)" stroke="none" stroke-width="1px">50k</text><text x="81.421875" y="0" dx="0em" dy="0.95em" style="text-anchor: middle; visibility: inherit; font-family: &quot;Helvetica Neue&quot;, sans-serif; font-size: 12px; font-weight: 200;" fill="rgb(50, 49, 63)" stroke="none" stroke-width="1px">100k</text><text x="108.5625" y="0" dx="0em" dy="0.95em" style="text-anchor: middle; visibility: hidden; font-family: &quot;Helvetica Neue&quot;, sans-serif; font-size: 12px; font-weight: 200;" fill="rgb(50, 49, 63)" stroke="none" stroke-width="1px">150k</text><text x="135.703125" y="0" dx="0em" dy="0.95em" style="text-anchor: middle; visibility: inherit; font-family: &quot;Helvetica Neue&quot;, sans-serif; font-size: 12px; font-weight: 200;" fill="rgb(50, 49, 63)" stroke="none" stroke-width="1px">200k</text><text x="162.84375" y="0" dx="0em" dy="0.95em" style="text-anchor: middle; visibility: hidden; font-family: &quot;Helvetica Neue&quot;, sans-serif; font-size: 12px; font-weight: 200;" fill="rgb(50, 49, 63)" stroke="none" stroke-width="1px">250k</text><text x="189.984375" y="0" dx="0em" dy="0.95em" style="text-anchor: middle; visibility: inherit; font-family: &quot;Helvetica Neue&quot;, sans-serif; font-size: 12px; font-weight: 200;" fill="rgb(50, 49, 63)" stroke="none" stroke-width="1px">300k</text><text x="217.125" y="0" dx="0em" dy="0.95em" style="text-anchor: middle; visibility: hidden; font-family: &quot;Helvetica Neue&quot;, sans-serif; font-size: 12px; font-weight: 200;" fill="rgb(50, 49, 63)" stroke="none" stroke-width="1px">350k</text><text x="244.265625" y="0" dx="0em" dy="0.95em" style="text-anchor: middle; visibility: inherit; font-family: &quot;Helvetica Neue&quot;, sans-serif; font-size: 12px; font-weight: 200;" fill="rgb(50, 49, 63)" stroke="none" stroke-width="1px">400k</text><text x="271.40625" y="0" dx="0em" dy="0.95em" style="text-anchor: middle; visibility: hidden; font-family: &quot;Helvetica Neue&quot;, sans-serif; font-size: 12px; font-weight: 200;" fill="rgb(50, 49, 63)" stroke="none" stroke-width="1px">450k</text></g><line x1="0" y1="0" x2="271.40625" y2="0" fill="rgb(0, 0, 0)" stroke="rgb(204, 204, 204)" stroke-width="1px"></line></g></g></g></g></svg>