<svg viewBox="0 0 330 200" xmlns="http://www.w3.org/2000/svg"><g><g><g><g><g><line x1="48.875" y1="177" x2="43.875" y2="177" style="visibility: inherit;" fill="rgb(0, 0, 0)" stroke="rgb(204, 204, 204)" stroke-width="1px"></line><line x1="48.875" y1="164.35714285714286" x2="43.875" y2="164.35714285714286" style="visibility: inherit;" fill="rgb(0, 0, 0)" stroke="rgb(204, 204, 204)" stroke-width="1px"></line><line x1="48.875" y1="151.71428571428572" x2="43.875" y2="151.71428571428572" style="visibility: inherit;" fill="rgb(0, 0, 0)" stroke="rgb(204, 204, 204)" stroke-width="1px"></line><line x1="48.875" y1="139.07142857142858" x2="43.875" y2="139.07142857142858" style="visibility: inherit;" fill="rgb(0, 0, 0)" stroke="rgb(204, 204, 204)" stroke-width="1px"></line><line x1="48.875" y1="126.42857142857142" x2="43.875" y2="126.42857142857142" style="visibility: inherit;" fill="rgb(0, 0, 0)" stroke="rgb(204, 204, 204)" stroke-width="1px"></line><line x1="48.875" y1="113.7857142857143" x2="43.875" y2="113.7857142857143" style="visibility: inherit;" fill="rgb(0, 0, 0)" stroke="rgb(204, 204, 204)" stroke-width="1px"></line><line x1="48.875" y1="101.14285714285715" x2="43.875" y2="101.14285714285715" style="visibility: inherit;" fill="rgb(0, 0, 0)" stroke="rgb(204, 204, 204)" stroke-width="1px"></line><line x1="48.875" y1="88.5" x2="43.875" y2="88.5" style="visibility: inherit;" fill="rgb(0, 0, 0)" stroke="rgb(204, 204, 204)" stroke-width="1px"></line><line x1="48.875" y1="75.85714285714285" x2="43.875" y2="75.85714285714285" style="visibility: inherit;" fill="rgb(0, 0, 0)" stroke="rgb(204, 204, 204)" stroke-width="1px"></line><line x1="48.875" y1="63.21428571428568" x2="43.875" y2="63.21428571428568" style="visibility: inherit;" fill="rgb(0, 0, 0)" stroke="rgb(204, 204, 204)" stroke-width="1px"></line><line x1="48.875" y1="50.57142857142861" x2="43.875" y2="50.57142857142861" style="visibility: inherit;" fill="rgb(0, 0, 0)" stroke="rgb(204, 204, 204)" stroke-width="1px"></line><line x1="48.875" y1="37.928571428571445" x2="43.875" y2="37.928571428571445" style="visibility: inherit;" fill="rgb(0, 0, 0)" stroke="rgb(204, 204, 204)" stroke-width="1px"></line><line x1="48.875" y1="25.285714285714306" x2="43.875" y2="25.285714285714306" style="visibility: inherit;" fill="rgb(0, 0, 0)" stroke="rgb(204, 204, 204)" stroke-width="1px"></line><line x1="48.875" y1="12.642857142857167" x2="43.875" y2="12.642857142857167" style="visibility: inherit;" fill="rgb(0, 0, 0)" stroke="rgb(204, 204, 204)" stroke-width="1px"></line><line x1="48.875" y1="0" x2="43.875" y2="0" style="visibility: inherit;" fill="rgb(0, 0, 0)" stroke="rgb(204, 204, 204)" stroke-width="1px"></line></g><g transform="translate(38.875, 0)"><text x="0" y="177" dx="0em" dy="0.3em" style="text-anchor: end; visibility: hidden; font-family: &quot;Helvetica Neue&quot;, sans-serif; font-size: 12px; font-weight: 200;" fill="rgb(50, 49, 63)" stroke="none" stroke-width="1px">0.38</text><text x="0" y="164.35714285714286" dx="0em" dy="0.3em" style="text-anchor: end; visibility: inherit; font-family: &quot;Helvetica Neue&quot;, sans-serif; font-size: 12px; font-weight: 200;" fill="rgb(50, 49, 63)" stroke="none" stroke-width="1px">0.4</text><text x="0" y="151.71428571428572" dx="0em" dy="0.3em" style="text-anchor: end; visibility: hidden; font-family: &quot;Helvetica Neue&quot;, sans-serif; font-size: 12px; font-weight: 200;" fill="rgb(50, 49, 63)" stroke="none" stroke-width="1px">0.42</text><text x="0" y="139.07142857142858" dx="0em" dy="0.3em" style="text-anchor: end; visibility: inherit; font-family: &quot;Helvetica Neue&quot;, sans-serif; font-size: 12px; font-weight: 200;" fill="rgb(50, 49, 63)" stroke="none" stroke-width="1px">0.44</text><text x="0" y="126.42857142857142" dx="0em" dy="0.3em" style="text-anchor: end; visibility: hidden; font-family: &quot;Helvetica Neue&quot;, sans-serif; font-size: 12px; font-weight: 200;" fill="rgb(50, 49, 63)" stroke="none" stroke-width="1px">0.46</text><text x="0" y="113.7857142857143" dx="0em" dy="0.3em" style="text-anchor: end; visibility: inherit; font-family: &quot;Helvetica Neue&quot;, sans-serif; font-size: 12px; font-weight: 200;" fill="rgb(50, 49, 63)" stroke="none" stroke-width="1px">0.48</text><text x="0" y="101.14285714285715" dx="0em" dy="0.3em" style="text-anchor: end; visibility: hidden; font-family: &quot;Helvetica Neue&quot;, sans-serif; font-size: 12px; font-weight: 200;" fill="rgb(50, 49, 63)" stroke="none" stroke-width="1px">0.5</text><text x="0" y="88.5" dx="0em" dy="0.3em" style="text-anchor: end; visibility: inherit; font-family: &quot;Helvetica Neue&quot;, sans-serif; font-size: 12px; font-weight: 200;" fill="rgb(50, 49, 63)" stroke="none" stroke-width="1px">0.52</text><text x="0" y="75.85714285714285" dx="0em" dy="0.3em" style="text-anchor: end; visibility: hidden; font-family: &quot;Helvetica Neue&quot;, sans-serif; font-size: 12px; font-weight: 200;" fill="rgb(50, 49, 63)" stroke="none" stroke-width="1px">0.54</text><text x="0" y="63.21428571428568" dx="0em" dy="0.3em" style="text-anchor: end; visibility: inherit; font-family: &quot;Helvetica Neue&quot;, sans-serif; font-size: 12px; font-weight: 200;" fill="rgb(50, 49, 63)" stroke="none" stroke-width="1px">0.56</text><text x="0" y="50.57142857142861" dx="0em" dy="0.3em" style="text-anchor: end; visibility: hidden; font-family: &quot;Helvetica Neue&quot;, sans-serif; font-size: 12px; font-weight: 200;" fill="rgb(50, 49, 63)" stroke="none" stroke-width="1px">0.58</text><text x="0" y="37.928571428571445" dx="0em" dy="0.3em" style="text-anchor: end; visibility: inherit; font-family: &quot;Helvetica Neue&quot;, sans-serif; font-size: 12px; font-weight: 200;" fill="rgb(50, 49, 63)" stroke="none" stroke-width="1px">0.6</text><text x="0" y="25.285714285714306" dx="0em" dy="0.3em" style="text-anchor: end; visibility: hidden; font-family: &quot;Helvetica Neue&quot;, sans-serif; font-size: 12px; font-weight: 200;" fill="rgb(50, 49, 63)" stroke="none" stroke-width="1px">0.62</text><text x="0" y="12.642857142857167" dx="0em" dy="0.3em" style="text-anchor: end; visibility: inherit; font-family: &quot;Helvetica Neue&quot;, sans-serif; font-size: 12px; font-weight: 200;" fill="rgb(50, 49, 63)" stroke="none" stroke-width="1px">0.64</text><text x="0" y="0" dx="0em" dy="0.3em" style="text-anchor: end; visibility: hidden; font-family: &quot;Helvetica Neue&quot;, sans-serif; font-size: 12px; font-weight: 200;" fill="rgb(50, 49, 63)" stroke="none" stroke-width="1px">0.66</text></g><line x1="48.875" y1="0" x2="48.875" y2="177" fill="rgb(0, 0, 0)" stroke="rgb(204, 204, 204)" stroke-width="1px"></line></g></g><g transform="translate(48, 0)" clip-path="url(#clip_0)"><clipPath id="clip_0"><rect width="281" height="177"></rect></clipPath><g><g><g><line x1="0" y1="0" x2="0" y2="177" fill="rgb(0, 0, 0)" stroke="rgb(60, 60, 60)" stroke-width="1px" opacity="0.25"></line><line x1="28.1125" y1="0" x2="28.1125" y2="177" fill="rgb(0, 0, 0)" stroke="rgb(60, 60, 60)" stroke-width="1px" opacity="0.25"></line><line x1="56.225" y1="0" x2="56.225" y2="177" fill="rgb(0, 0, 0)" stroke="rgb(60, 60, 60)" stroke-width="1px" opacity="0.25"></line><line x1="84.33749999999999" y1="0" x2="84.33749999999999" y2="177" fill="rgb(0, 0, 0)" stroke="rgb(60, 60, 60)" stroke-width="1px" opacity="0.25"></line><line x1="112.45" y1="0" x2="112.45" y2="177" fill="rgb(0, 0, 0)" stroke="rgb(60, 60, 60)" stroke-width="1px" opacity="0.25"></line><line x1="140.5625" y1="0" x2="140.5625" y2="177" fill="rgb(0, 0, 0)" stroke="rgb(60, 60, 60)" stroke-width="1px" opacity="0.25"></line><line x1="168.67499999999998" y1="0" x2="168.67499999999998" y2="177" fill="rgb(0, 0, 0)" stroke="rgb(60, 60, 60)" stroke-width="1px" opacity="0.25"></line><line x1="196.7875" y1="0" x2="196.7875" y2="177" fill="rgb(0, 0, 0)" stroke="rgb(60, 60, 60)" stroke-width="1px" opacity="0.25"></line><line x1="224.9" y1="0" x2="224.9" y2="177" fill="rgb(0, 0, 0)" stroke="rgb(60, 60, 60)" stroke-width="1px" opacity="0.25"></line><line x1="253.01250000000002" y1="0" x2="253.01250000000002" y2="177" fill="rgb(0, 0, 0)" stroke="rgb(60, 60, 60)" stroke-width="1px" opacity="0.25"></line><line x1="281.125" y1="0" x2="281.125" y2="177" fill="rgb(0, 0, 0)" stroke="rgb(60, 60, 60)" stroke-width="1px" opacity="0.25"></line></g><g><line x1="0" y1="177" x2="281.125" y2="177" fill="rgb(0, 0, 0)" stroke="rgb(60, 60, 60)" stroke-width="1px" opacity="0.25"></line><line x1="0" y1="164.35714285714286" x2="281.125" y2="164.35714285714286" fill="rgb(0, 0, 0)" stroke="rgb(60, 60, 60)" stroke-width="1px" opacity="0.25"></line><line x1="0" y1="151.71428571428572" x2="281.125" y2="151.71428571428572" fill="rgb(0, 0, 0)" stroke="rgb(60, 60, 60)" stroke-width="1px" opacity="0.25"></line><line x1="0" y1="139.07142857142858" x2="281.125" y2="139.07142857142858" fill="rgb(0, 0, 0)" stroke="rgb(60, 60, 60)" stroke-width="1px" opacity="0.25"></line><line x1="0" y1="126.42857142857142" x2="281.125" y2="126.42857142857142" fill="rgb(0, 0, 0)" stroke="rgb(60, 60, 60)" stroke-width="1px" opacity="0.25"></line><line x1="0" y1="113.7857142857143" x2="281.125" y2="113.7857142857143" fill="rgb(0, 0, 0)" stroke="rgb(60, 60, 60)" stroke-width="1px" opacity="0.25"></line><line x1="0" y1="101.14285714285715" x2="281.125" y2="101.14285714285715" fill="rgb(0, 0, 0)" stroke="rgb(60, 60, 60)" stroke-width="1px" opacity="0.25"></line><line x1="0" y1="88.5" x2="281.125" y2="88.5" fill="rgb(0, 0, 0)" stroke="rgb(60, 60, 60)" stroke-width="1px" opacity="0.25"></line><line x1="0" y1="75.85714285714285" x2="281.125" y2="75.85714285714285" fill="rgb(0, 0, 0)" stroke="rgb(60, 60, 60)" stroke-width="1px" opacity="0.25"></line><line x1="0" y1="63.21428571428568" x2="281.125" y2="63.21428571428568" fill="rgb(0, 0, 0)" stroke="rgb(60, 60, 60)" stroke-width="1px" opacity="0.25"></line><line x1="0" y1="50.57142857142861" x2="281.125" y2="50.57142857142861" fill="rgb(0, 0, 0)" stroke="rgb(60, 60, 60)" stroke-width="1px" opacity="0.25"></line><line x1="0" y1="37.928571428571445" x2="281.125" y2="37.928571428571445" fill="rgb(0, 0, 0)" stroke="rgb(60, 60, 60)" stroke-width="1px" opacity="0.25"></line><line x1="0" y1="25.285714285714306" x2="281.125" y2="25.285714285714306" fill="rgb(0, 0, 0)" stroke="rgb(60, 60, 60)" stroke-width="1px" opacity="0.25"></line><line x1="0" y1="12.642857142857167" x2="281.125" y2="12.642857142857167" fill="rgb(0, 0, 0)" stroke="rgb(60, 60, 60)" stroke-width="1px" opacity="0.25"></line><line x1="0" y1="0" x2="281.125" y2="0" fill="rgb(0, 0, 0)" stroke="rgb(60, 60, 60)" stroke-width="1px" opacity="0.25"></line></g></g></g><g><g><line x1="0" y1="417.21428571428567" x2="281.125" y2="417.21428571428567" fill="rgb(0, 0, 0)" stroke="rgb(153, 153, 153)" stroke-width="1.5px"></line></g></g><g><g><line x1="28.1125" y1="0" x2="28.1125" y2="177" fill="rgb(0, 0, 0)" stroke="rgb(153, 153, 153)" stroke-width="1.5px"></line></g></g><g><g><g><g><g><path stroke="rgb(255, 112, 67)" stroke-width="2px" d="M32.673472,-117.87693772544725L32.907368,18.03662331225439L33.078292000000005,-5.699285609111769L33.784478,-6.661412403042249L34.031867999999996,37.43088588853635L34.045362000000004,71.39358336313538L34.108334,45.2933935062087L34.126326,13.349622069607136L34.34223,14.815676327199384L34.373716,43.570034931337574L34.571628000000004,26.26570573679419L34.706568,32.78777046517604L34.962954,75.36662189743893L35.093396,93.12725527695518L35.165364000000004,75.0291581213931L35.237332,78.02068538431314L35.718618,66.20842434537803L35.912031999999996,68.76109015542987L35.925526,102.63305150242536L36.406812,86.14806772187669L36.505768,41.86192546336946L36.555246000000004,5.201600593978782L36.735166,2.660008186812206L36.811632,12.896548979928525L36.870106,46.74822713948228L37.270428,37.999363877177785L37.540307999999996,44.954401943061214L37.949626,30.84654237293438L38.003602,61.01888630241665L38.147538000000004,51.60418766409255L38.174526,68.16119069345793L38.286976,59.0050219752236L38.489386,56.177492192855055L38.858222000000005,70.9743061985543L39.069627999999994,59.83208483016301L39.146094000000005,84.89743545301556L39.155089999999994,110.7007731152729L39.177580000000006,79.28049713604858L39.29003,49.70723327877894L39.294528,46.92775791898745L39.348504000000005,45.29399855997531L39.370994,68.1294081044747L39.501436,83.10203699748745L39.568906,40.7720399340283L40.18963,93.44480828116656L40.43702,104.52660393007505L41.458065999999995,115.01475147776551L41.777423999999996,87.05266766770333L41.790918000000005,38.66554659023075L42.051801999999995,45.40134552708639L42.330678,57.85483981638262L42.641040000000004,77.97288619644621L42.704012000000006,58.84656009858868L42.713007999999995,88.43817242256418L42.717506,76.97904340701552L42.97839,87.53951974250657L43.76554,115.1593448219678L44.386264,81.77430035119289L44.39526,78.98901805036006L44.62016,22.15105954687013L44.939518,62.36948273791715L45.173414,75.16345273383762L45.267872,98.54053590851015L45.299358,79.45274561737173L45.780643999999995,78.22763967740485L45.906588,53.430356936451034L46.032532,52.28169565691043L46.266428,28.341395556121626L46.545304,-0.07282168402610978L46.986108,18.698640735540778L47.125546,71.94762963236722L47.148036,27.698907919670432L47.530366,73.60771667068492L47.539362000000004,57.484282518912195L47.9037,53.81992155981254L48.317516,82.977636136928L48.393981999999994,116.17908507315022L48.48844,152.59722749684022L49.091172,146.70704077316725L49.109164,129.84115213703583L49.145148,104.2759268844641L49.648923999999994,93.99474362604629L49.711895999999996,105.78705448125915L49.882819999999995,98.59335521247205L49.936796,67.51194051989789L50.125712,58.75880145738991L50.472058,95.17729744568328L50.8274,74.89839636324473L50.836396,83.48148730249946L51.079288,118.640435193234L51.205232,94.10949777703401L51.677521999999996,97.13409818069115L52.154309999999995,79.26051263297609L52.217282,41.0069376417527L52.491659999999996,75.70870427165463L53.071902,74.43966070849406L53.656642000000005,99.96523487761273L53.854554,137.75724326658474L54.236883999999996,119.18562965530803L54.326844,126.25740279518755L54.488772,91.71979859926218L54.520258,67.79304364766855L54.682185999999994,67.9836324692822L54.776644,69.3051042223607L55.055519999999994,108.0039756268471L55.14548,81.31819723837262L55.644758,52.60837693175998L55.689738,99.12326931623842L56.000099999999996,74.63005645758561L56.058574,75.16860183460929L56.085561999999996,114.73521907558094L56.144036,62.25678064824031L56.400422,67.1580701902987L56.503876,98.53483097935033L56.791748,81.88975377788724L57.439460000000004,94.07615617290062L57.682352,102.0545254005913L57.812794,109.1085884415888L58.055686,108.81635538430284L58.231108,80.36545664398912L58.244602,97.89563657071193L58.298578,102.63206865155868L58.438016,115.1086301057247L58.941792,90.38984072498724L59.445568,97.69789402659086L59.562516,84.93642312018144L60.075288,75.1756400926594L60.111272,93.81187557021033L60.29569,88.52863439821749L60.709506000000005,93.97927855962078L60.997378,77.35481011918178L61.213282,81.9573960545718L61.316736,101.04657632198857L61.6226,123.45909328682805L61.66758,117.83827494039286L61.681073999999995,109.83505518536826L61.748544,104.84690037038278L61.896978000000004,69.78077971821553L62.715614,62.87096295969715L63.01698,70.55419478375508L63.142924,66.67986637090918L63.187903999999996,86.13104249081182L63.345334,78.39471117708355L64.056018,102.72274564366077L64.39336800000001,81.12441477317788L64.90614,35.72932801244454L65.090558,69.93516020535108L65.598832,153.06173723928478L65.72927399999999,122.10214039763932L65.75176400000001,113.79135035580212L65.79224599999999,106.73186480466016L66.19706599999999,122.10014169407265L66.21056,163.54954902354876L66.336504,127.15412979480877L66.381484,146.34448251392223L66.799798,121.2826415818593L66.95273,90.69712541487924L67.22261,99.83600083070971L68.045744,90.52401273041609L68.162692,149.68171033018618L68.176186,110.46716860471159L68.270644,107.97124650032686L68.30213,90.30665093971967L68.563014,58.580585081403385L68.590002,92.32888408500588L68.84188999999999,81.71061628885823L69.76398,87.58770379747176L70.015868,48.94031821427734L70.15980400000001,58.12283625191108L70.55113,79.84466403884515L70.699564,76.59402009686386L71.05490599999999,67.52034922147129L71.08639199999999,19.728433242806688L71.14486600000001,50.19358789746953L71.414746,88.0453982376839L71.54968600000001,84.04833478728787L71.65314,82.35592334014943L71.734104,110.26471102390917L72.386314,67.95783989861998L72.674186,88.22316560119202L73.35338399999999,137.30446184770437L73.470332,103.4556162422667L74.33394799999999,118.17382165926175L74.365434,97.9647615432419L74.87370800000001,126.80272530962523L74.887202,83.4798315696601L74.98166,84.71829472208692L75.24704200000001,97.79340651169224L75.440456,132.76320593505554L75.82278600000001,115.72518714040191L75.962224,133.98537834745449L76.03419199999999,81.9084341303218L76.11065799999999,63.16172281358891L76.290578,89.24031483972055L76.49748600000001,101.48957921514159L76.501984,131.7824442779547L76.60094,119.8642854892244L76.75837,145.18995286074033L76.875318,107.38248673449861L76.9158,82.52415992838687L77.149696,104.0896106006059L77.16319,77.99908168732668L77.316122,72.15355698154387L77.334114,91.37553386109398L77.437568,68.08593792363685L77.464556,27.147228096649314L77.473552,64.9625377691709L77.68046,82.93509503823061L78.049296,41.88897052522282L78.134758,49.88998224548821L78.17524,59.89131311304766L78.481104,37.197166740972506L78.4901,74.07875921390324L78.75998,93.34293154685247L79.475162,44.7203333434546L79.71355600000001,4.141175644734801L79.803516,9.299545833040554L79.942954,26.1615631035383L79.983436,33.06270472117751L80.059902,46.50875034958929L80.13636799999999,66.52085656201474L80.505204,64.0377704006684L80.60865799999999,66.49626448423321L80.67163,100.34974808752074L81.00448200000001,102.16476327931605L81.517254,72.59378038073446L81.949062,94.0913347921832L81.971552,60.63677779993368L82.13347999999999,92.54248039818377L82.272918,67.5215048366581L82.709224,63.04073530109069L82.826172,73.28990135507874L82.844164,69.37876424569716L82.91613199999999,64.20093832837837L83.105048,101.9713358972678L83.39292,103.95751297013643L83.406414,130.39313883334978L83.478382,105.19951771604511L83.91019,87.97596305468463L84.148584,61.95367607134705L85.106658,69.1215243004108L85.232602,82.6270371133635L85.70939,95.20121057018078L86.033246,87.56921392363398L86.312122,86.28285869851675L86.662966,83.26262484811437L86.739432,132.87967964390248L86.86087799999999,117.25129091965752L86.95533599999999,137.23276882647892L87.009312,128.88223023666308L87.07678200000001,111.6721403191546L87.333168,72.64915204329509L87.66152199999999,64.64033559899886L88.156302,89.34688637391966L88.394696,71.51933482728145L88.412688,47.659737222613785L88.853492,77.71171992102292L89.04240800000001,82.60101826493505L89.271806,67.83725165684899L89.37526,50.328154406819266L89.640642,73.2626415076524L89.654136,95.21886224132518L90.07694799999999,113.62227832766276L90.22988000000001,85.60568942380232L90.38730999999999,92.91225019375422L90.562732,62.67267943702389L90.97654800000001,83.85783696257711L91.075504,109.63921071000226L91.44434,86.19109073566645L92.078558,79.22580486281495L92.375426,114.13178259322171L92.406912,114.78965858163484L92.44739399999999,103.51858417374267L92.52386000000001,70.95257484340377L92.604824,96.21257566210707L92.870206,78.16532798458809L93.095106,83.4210909664186L93.306512,100.7499428052295L93.58988599999999,100.39796447251629L93.92723600000001,108.25124452834535L93.954224,117.97900958084762L94.089164,100.41155981554805L94.12964600000001,93.1994260079005L94.174626,109.71987112321487L94.588442,111.8887158459478L94.62892400000001,112.08805026141553L94.646916,63.188276787054775L94.723382,81.46529702767016L95.011254,112.53676922914808L95.096716,106.50388930063758L95.703946,109.7230474001588L95.98732000000001,96.93787932502327L96.194228,79.78728217120656L96.39214000000001,81.35445546052273L96.778968,94.4339087848918L97.039852,96.51915115897482L97.710054,91.67919609503438L97.71905000000001,99.99786184250922L97.86298599999999,103.89096223808805L98.00242399999999,147.24652175092896L98.267806,127.04409142893505L98.91102,88.58861750869552L99.01897199999999,142.21113796537279L99.059454,127.53956785417975L99.306844,92.50636952802257L99.986042,105.51825222440536L100.049014,84.92888953981728L100.50781,107.00599256488725L100.602268,119.68090286027646L101.20050200000001,113.76648550646541L101.524358,103.47961132008629L101.623314,125.26024518008877L101.69978,126.43166697465605L101.906688,77.22906464091594L102.05962,107.94353278046131L102.35199,127.58942246688855L102.71183,87.89163505500912L103.053678,137.82670535382587L103.215606,142.14875219222367L103.714884,90.349894368389L103.719382,75.0665550867295L103.87231399999999,85.80886674163199L103.93528599999999,81.81151779861298L104.124202,130.38887865934828L104.875368,117.34698502094268L105.014806,148.1323450608722L105.167738,95.86535377013426L105.653522,124.69754912253293L105.801956,104.25855551155338L105.88292,92.70935062846414L105.891916,65.3584211570588L105.999868,109.39383845429737L106.004366,93.79502892350114L106.01786,74.72351340820505L106.10332199999999,15.472485551315401L106.260752,33.165735570323875L106.40019,57.60091842022338L106.57561199999999,71.07970222204716L106.620592,55.19687009078146L107.020914,53.53812031878165L107.08388599999999,28.96571115300648L107.214328,65.07944609567024L107.25031200000001,67.1725279373028L107.380754,110.21124984685596L107.826056,126.51806160641408L108.865094,96.24892184208875L108.99103799999999,100.14623056607357L109.03152,122.94713728538443L109.157464,84.21749993935568L109.31489400000001,89.49261425684807L109.36887,77.67264242108926L109.65674200000001,107.3211867280976L110.26397200000001,111.69427217651464L110.506864,135.8205078612595L111.105098,149.58098791493526L111.10959600000001,108.7485429637559L111.739316,104.57509526312772L112.283574,133.3619250509594L112.31506,152.25881675970706L112.87731,125.52314272322407L113.38558400000001,123.3150554193659L113.471046,124.82666691418399L113.59699,95.72975520911504L113.695946,99.43760514630489L113.79040400000001,84.84413298080246L114.096268,108.25903093539748L114.33466200000001,88.81858233218661L114.595546,68.32965673483855L114.79345799999999,87.61434877969714L115.75603000000001,133.07649215409185L115.836994,137.62805841177124L115.93594999999999,131.51343761568913L115.962938,73.4202961434633L116.45322,78.25354928091573L116.516192,96.46389673625387L116.56567,61.10971275851102L116.81306000000001,58.085636444768596L116.862538,68.60552295234956L116.889526,92.23833800325234L117.15490799999999,98.88216130119231L117.276354,73.40826453249089L117.37980800000001,110.28989744387611L117.694668,123.1957765625356L117.793624,97.32907369004884L117.942058,130.83642903555324L118.05001,132.49935081781848L118.22993,74.16358352582228L118.310894,76.49467258637632L118.337882,84.77536166982853L118.35137599999999,65.14430360192826L118.693224,78.63490089805076L118.697722,77.38774218492686L118.90912800000001,59.96448891531644L119.04856600000001,56.741145331688045L119.170012,40.79242950449597L119.183506,82.73910122461956L119.205996,78.29894191319164L119.525354,120.1451485293771L119.574832,147.19988661803225L119.79523400000001,150.67713479193787L120.05162,132.61934680764097L120.25402999999999,115.97710537328852L120.43844800000001,134.99912923906678L120.496922,130.4566935610269L120.50142000000001,130.1624018599345L120.600376,91.98878425996882L120.67234400000001,127.32646298620502L121.171622,127.92522365492906L121.26608,178.46672283282984L121.576442,119.84605119798677L121.58993600000001,122.57110612325894L121.594434,111.86286940670968L121.810338,60.8800445739531L121.91829,68.82920371131154L122.512026,70.93924961639503L122.87186600000001,67.726204980332L122.93034,61.136006920885094L123.21821200000001,38.666463612271826L123.510582,41.530565121452696L123.614036,51.54162977514652L123.991868,83.30341211612381L124.005362,88.44538665974778L124.02785200000001,80.2953403951036L124.329218,100.94078965297041L124.41018199999999,72.68374479087325L124.747532,125.16184344964789L124.92295399999999,130.57455657000452L125.633638,91.37570771023695L125.82255400000001,106.68961312014329L125.827052,85.45199398608658L126.119422,62.48964621584891L126.14641,63.77561942997059L126.263358,90.61417541830657L126.357816,104.93005990599087L126.384804,89.75930551912226L127.095488,114.23222294328967L128.17051,125.849195001933L128.228984,109.43016757870497L128.38191600000002,134.0795917290734L128.489868,99.54250473676417L128.55284,157.3120629738808L128.678784,160.69818196856366L129.191556,105.43957839620427L129.348986,83.89167116666371L129.515412,63.14028135205312L129.92473,37.89869106740187L130.50947,80.67145936021895L130.84682,87.87672626828112L131.25164,137.4878759613929L131.265134,102.1927451169413L131.92633999999998,90.85993746971617L131.944332,60.987761422896995L132.137746,90.31200645262278L132.18722400000001,72.86384112261018L132.232204,41.53176074228625L132.385136,84.98270706365247L132.430116,103.23203102538258L132.547064,92.72753748086937L132.749474,104.63567915262063L132.852928,60.75808747403019L133.082326,49.81284679561455L133.190278,87.47592411137241L133.27574,77.58129239412403L133.487146,54.439793496749914L133.99542,125.9038798643823L134.215822,118.59192017687842L134.58016,105.75948933176858L134.629638,58.780309019675116L134.719598,85.5032244177658L135.04795199999998,116.09289946866029L135.304338,93.85691108957695L135.78562399999998,166.82214027693473L136.419842,164.01889095506854L136.595264,153.96571734174023L136.725706,145.4293584928917L137.117032,133.63052460927665L137.332936,125.46493371525177L137.34193199999999,115.59388878804566L137.512856,111.78275833132851L137.61631,134.20890402727548L137.935668,133.32417997763207L138.569886,155.57389528693437L138.857758,159.024457854877L139.298562,124.58291710955335L139.33454600000002,129.66586423158395L140.01824200000001,133.3727481686032L140.117198,92.11482669847948L140.265632,87.951546714616L140.598484,117.32652938888626L140.77390599999998,67.02349092933378L141.16073400000002,90.01948391251044L141.48908799999998,55.98256349220098L141.601538,87.83250789947132L141.660012,71.57820505733811L141.70049400000002,93.1053914869246L142.055836,94.64664688204799L142.32121800000002,111.46481252181997L142.83399,131.88703207227104L142.90146,135.5529547575266L143.25680200000002,106.57298051546351L143.64812799999999,99.77694689768751L144.04845,105.02642796615821L144.214876,90.10704096322439L144.372306,46.34455575700852L144.70515799999998,87.31796230681768L145.26290999999998,112.2319280357499L145.35736799999998,67.02497053111766L145.39785,86.48873669569508L145.469818,57.288546843744726L145.753192,89.516866335181L145.75769000000003,38.422633752001474L145.82066200000003,43.630623130578016L146.373916,101.50341521672246L146.423394,88.09493552685028L146.873194,98.46660687181074L147.17455999999999,71.03917621507736L148.07415999999998,119.7142138417631L148.645406,135.84908529309274L148.649904,160.58927553152606L148.780346,147.1079969855623L148.78934199999998,125.97848315211138L149.234644,123.99351616944926L149.909344,90.62955775748185L150.197216,106.32646650436389L150.224204,105.33374441908096L150.251192,110.60980133901668L150.269184,129.44347681389064L150.273682,150.66893944953222L150.790952,107.93889996043305L151.038342,58.06581758466808L151.578102,50.585180940842775L151.82999,103.09214051947532L152.270794,68.81357491586782L152.31577399999998,99.80798068729402L152.34725999999998,91.22808365618464L152.428224,85.83134577288536L152.68461000000002,42.387907225149206L152.882522,44.69516402890014L153.26935,43.34294787208367L153.67866800000002,83.51702234585018L153.68766399999998,95.60753890622732L153.8316,119.43289670198607L153.912564,121.02902714009463L155.185498,123.56030902451079L155.302446,110.42606953237788L155.50035799999998,76.13454016292125L155.74774799999997,99.39553718712351L156.026624,130.77507494060055L156.08509800000002,108.87713496955375L156.49891399999998,102.2634843140883L156.629356,77.31848900020381L156.80477800000003,134.33813599475948L158.06421799999998,99.00375634099848L158.41956000000002,110.49152810204086L158.536508,112.85783227324181L158.635464,87.26719945181941L158.720926,90.76655329854724L158.83337600000002,76.73709585252834L158.90534399999999,54.77540848074983L158.95932000000002,61.52612184961387L159.15273399999998,69.4406160459844L159.45859800000002,60.63441806539038L159.73747400000002,73.06355342399134L160.67305800000003,94.22817349256562L160.704544,130.3864645538589L160.745026,157.26269823521397L160.969926,153.89444666885493L160.98342000000002,159.08326781348L161.077878,92.34796119408037L161.21731599999998,101.88275544194971L161.302778,100.81684043615216L161.91450600000002,113.9055755447184L162.278844,107.76452122565549L162.283342,92.73659527391632L162.436274,122.14003613389652L163.05249999999998,94.29955362216056L163.07499,87.13387069067608L163.191938,121.18566021811006L163.398846,133.58990785091032L163.466316,109.11555738812034L163.835152,91.21787758636255L164.02856599999998,59.983410150472096L164.145514,81.90096259923035L164.32993199999999,86.7678276961861L164.523346,104.42854316797194L165.11708199999998,132.822580954317L165.14856799999998,89.49030755810958L165.16656,77.3299953290149L165.625356,59.04983331338228L165.805276,83.50243313740802L166.228088,66.11979298712335L166.29106000000002,77.31514689109213L166.372024,63.046767651583835L166.56094,115.28551761566085L167.78439600000002,73.26927917498298L168.02279,112.04207443602223L168.558052,112.96593656356966L169.376688,135.45368201690985L169.54311399999997,116.43925447302757L169.965926,102.7549431028229L170.681108,88.71590612884785L170.798056,56.60584555514794L170.97797599999998,79.32605629915592L171.184884,97.95502740339055L171.477254,157.26763958536668L171.50874,127.25595303571359L171.544724,137.99702796712342L171.760628,118.76545107843515L171.80111,125.68676033818234L172.066492,63.780363820641924L172.124966,59.872109896672484L172.777176,97.82204015485976L172.831152,112.9615365573574L172.97958599999998,101.06105953422326L173.168502,103.1234596557021L173.460872,72.1876803628564L173.793724,130.0519294938336L174.00512999999998,66.95612969574108L174.29749999999999,102.26466590169278L174.427942,92.14326011284965L174.486416,71.69881478549193L174.796778,95.87496844462673L174.81027200000003,63.9099382542924L175.003686,84.35996071341624L175.224088,54.54546118029606L175.475976,49.268061979958446L176.06971199999998,52.225036158769754L176.105696,53.12653790731652L176.137182,81.52080858412462L176.555496,91.50544230822284L176.609472,95.34646714141108L176.699432,84.78141147994225L177.212204,80.04635823260254L177.230196,55.033791643750305L177.351642,63.65123273616186L177.360638,64.7139407769238L177.765458,38.46837600833831L178.080318,85.41287069437045L178.201764,145.28154752630843L178.23325,145.60318096693246L178.359194,142.6700613681855L178.970922,96.74481284354994L179.384738,75.47177990346641L179.416224,121.74928256655289L179.821044,154.9064385409797L179.861526,147.91161191301273L179.915502,158.8226565845158L180.00096399999998,140.63956431057989L180.07743,90.33029714017988L180.320322,77.52017113441164L180.37429799999998,94.37399710256499L180.486748,106.05313675511779L180.65317399999998,131.8313103406449L180.914058,124.76536420091338L181.12096599999998,84.92433992601333L181.20642800000002,33.83171548591193L181.23791400000002,52.019683755315185L181.444822,96.51454910875539L181.678718,111.59774775052774L181.69221199999998,89.58768590451395L181.849642,90.31798688099026L182.434382,125.88801243022228L182.66827800000002,101.28572133507556L182.672776,105.66146134758301L182.767234,118.13321086165749L183.014624,56.66937165497215L183.40595,83.03940780952087L183.410448,80.10557756080081L183.58137200000002,87.62598316054424L183.73880200000002,72.83831747367229L183.779284,56.79586273939242L183.95470600000002,88.59034947801987L184.17510800000002,129.0393969141973L184.42249800000002,106.70380120843421L184.566434,95.47220654963462L184.993744,103.33270947912172L185.67744,115.34044802823396L185.897842,166.2558071838712L186.05977,107.77847258012866L186.33864599999998,130.14726624006L186.684992,105.99762278607722L186.698486,102.1888298278865L187.040334,88.17245695080686L187.134792,44.87322776965095L187.17077600000002,95.77665246228027L187.22925,126.12604126666062L187.23824599999998,104.01487656094223L187.26523400000002,151.3703908371952L187.70603799999998,161.31777714095955L187.715034,118.43690869196578L188.10636000000002,109.35202717005382L188.119854,76.44989547264083L188.2413,138.19582684714499L189.010458,94.96820703502405L189.041944,159.77126015892316L189.338812,126.8921731094759L189.361302,136.18599302821235L189.829094,119.30070008786251L189.90556,78.63572564607189L190.20692599999998,65.29310388241265L190.296886,78.12218173241476L190.778172,72.73130113675855L191.012068,106.6839429102307L191.07953799999999,85.22796075457981L191.147008,125.89805475167081L191.218976,117.32525588873582L191.27745,112.09171298965806L191.43488,103.68426263228059L191.520342,74.02014021470292L191.551828,84.21318139583641L192.599862,131.98231710166203L192.869742,126.78524326783698L193.004682,105.88725014458042L193.090144,79.9408682239989L193.490466,64.86084195180092L193.665888,123.78844992384185L193.68388000000002,106.1075742282647L193.724362,99.11695282686819L193.75135,75.85430421080206L193.8638,76.21846050494231L194.12018600000002,86.78452901781735L194.776894,96.29247741289475L195.298662,83.80042510944845L195.447096,72.07647357329957L195.93737800000002,76.89137507303833L195.964366,119.03586315578218L196.00484799999998,116.19233872572181L196.58509,110.24500967311621L196.738022,87.07115948262754L197.88951,119.17315978019629L197.97497199999998,104.53961058979745L198.168386,122.86275166586347L198.478748,112.14358302542753L199.445818,102.6410306863481L199.900116,68.39935335778728L200.14750600000002,78.63135379113874L200.214976,58.04166606741872L200.525338,93.64922612372817L200.67827,104.47042422485904L201.011122,110.50711084344377L201.08309,125.5207729548801L201.132568,106.3115720806303L201.28549999999998,97.95639349055693L201.64534,119.21885494098225L201.919718,98.26212346378065L201.924216,115.27678213014065L202.18509999999998,76.83045779164942L202.27506000000002,60.548075704467465L202.468474,109.3516684686154L202.49096400000002,120.4655179892699L202.81482,59.5351788640281L203.449038,73.65280095067897L203.552492,118.14148131037692L203.55698999999998,118.5107641417423L204.168718,111.10081708593434L204.600526,132.184357570872L204.86590800000002,123.3299346916043L204.915386,85.28403628098239L206.192818,90.19476612090291L206.37723599999998,94.81926040117618L206.692096,146.11900980630327L206.81804,115.31859130477194L207.047438,108.10386482963135L207.483744,102.16196070451755L207.62318199999999,90.51813878704351L207.645672,71.64997364676401L207.722138,55.40949374537371L207.951536,98.38915991161971L208.12246,97.43844850031223L209.040052,113.18682601977571L209.36390799999998,77.95997526688602L209.836198,73.21014410862122L210.22752400000002,86.32322767654622L210.2815,68.69031790917002L210.425436,49.830658470029675L210.55138,19.334545796347157L210.94270600000002,41.95238092768426L210.987686,93.80749965275832L211.014674,130.45704164160878L211.032666,140.00291023797237L211.172104,124.64300949320207L211.1811,89.43037520529121L211.244072,87.85275427509129L211.27105999999998,51.68026069918825L211.599414,50.378156196080724L212.71042,85.02894687286631L213.106244,53.49153760962945L213.223192,90.65845046660968L213.628012,95.72096978047209L213.749458,126.80603168941485L214.06431800000001,88.36365727846852L214.370182,97.89541217246669L214.44215,133.45221100527314L214.739018,160.33872927082254L214.95492199999998,155.69152011698375L215.02689,130.62417033023598L215.157332,104.16559208371702L215.269782,115.94502973945585L215.355244,148.05107491420128L216.002956,114.14131696943295L216.03894000000003,112.1505564821337L216.326812,114.98751985863292L216.44825799999998,125.1388790325166L217.055488,110.62191431872239L217.086974,119.71250146462688L217.167938,126.46721180067675L217.631232,74.28577503349406L217.739184,90.61109933470163L217.784164,129.26454561480568L217.847136,98.86153641317641L218.126012,115.6753971600707L218.553322,139.36429723815604L218.85019,171.10490900705148L218.90866400000002,117.99311563713995L219.0526,171.82265608600682L219.13356399999998,165.2590046062157L219.178544,146.21305392757995L219.273002,111.86130276580505L219.763284,118.65015913828694L220.078144,121.59110894415328L220.518948,85.63763911919497L221.045214,99.78894192812865L221.216138,134.62920265867555L221.364572,121.18694820942176L221.441038,162.39675494993742L221.61646000000002,112.90018890819815L222.704976,80.76263202399278L222.77694400000001,157.54879152706L223.424656,109.90949746839927L223.658552,90.10040457768876L223.856464,68.33220054597979L224.013894,106.92763028080063L224.14883400000002,101.92759496377498L224.256786,102.88567832439811L224.36473800000002,125.44177826073144L224.400722,96.1811423325408L224.4502,107.83661153799365L224.454698,73.3844325714473L224.72457799999998,101.00579871971391L224.846024,67.04579839678568L224.86401600000002,84.10573785560786L224.931486,54.60860006077138L225.04843400000001,56.23470248191808L225.09791199999998,49.02836963267393L225.14739,37.017266158647914L225.295824,106.02889981020458L225.678154,127.35491513783828L225.916548,147.32316034097812L225.93454,141.6785999633716L225.99301400000002,133.19235982796914L226.352854,92.86060291367731L226.37084599999997,86.97813546390684L226.49229200000002,84.69761182761144L226.532774,128.07673420333148L226.9241,126.96973158015774L226.955586,122.71790455380318L227.15349799999998,82.95596094318348L227.391892,74.48616783254218L227.54932200000002,104.44383177163782L227.56731399999998,90.82935042297673L227.841692,113.70474979009869L228.277998,101.76360922633454L228.448922,153.16018362986352L228.65582999999998,116.0014572424813L228.660328,155.51005959495365L228.673822,119.69718075811116L228.92571,130.6401536474353L229.303542,124.79872703950818L229.411494,138.8958821678234L229.631896,130.70584847321265L229.694868,87.4462129461178L230.36057200000002,92.36163508646712L230.495512,100.84695973078792L230.760894,103.53422647592231L230.99029199999998,122.3001312469905L231.91688000000002,169.97673030400497L231.957362,164.41167296846385L232.047322,103.77069075206155L232.18676,98.24473528103717L232.19575600000002,94.74357203777924L232.80298599999998,134.1917700128505L232.964914,101.83532380289047L233.162826,113.84494565604706L233.42820799999998,85.49153008695166L233.48218400000002,104.70635771960023L233.990458,89.78481154226404L234.156884,55.576005012718326L234.296322,66.24947259566554L234.45375199999998,87.4444128787429L235.128452,84.82138866366131L235.168934,59.774151692448584L235.29038,73.97943853204671L235.42532,63.47668566368016L235.578252,67.80202601503815L235.780662,79.01881380682367L235.81664600000002,95.94903219481559L235.94259,123.20556901453372L236.450864,140.32110473931607L236.522832,96.09709017783013L236.626286,91.0019691885942L236.801708,12.174547262788167L236.878174,56.59092098087943L237.26500199999998,42.58047011858744L237.305484,65.83588607274262L237.458416,110.33792288996442L237.97568600000002,145.17240571574115L238.151108,136.42805320464728L238.385004,146.75821025805993L239.680428,164.43906914290469L239.774886,84.16126894071851L240.409104,42.078304292309355L240.60251799999998,19.833443090816587L240.840912,29.342425874173756L240.872398,34.66169980586437L240.962358,59.47163100238022L241.079306,91.23403057742769L241.484126,82.87807429604919L241.71802200000002,46.35376980084382L241.987902,79.43805755312736L242.019388,77.60267540382361L242.14983,44.354910768755076L242.38822399999998,100.0347638082346L242.406216,71.53394008417546L242.46469000000002,79.65514260119824L242.52766200000002,60.312187326896535L242.635614,86.592033436523L242.68959,106.4633043863418L242.833526,75.2895882896551L242.865012,105.5417114445463L242.927984,155.33670662847814L243.436258,119.69667976673466L243.485736,104.30813572324361L243.512724,62.482283373065755L243.69714199999999,13.733486715020064L243.715134,42.12234052602136L243.778106,61.21669006354966L243.88155999999998,51.706517386480314L244.358348,70.46829637938815L244.551762,49.11479324219785L244.74967400000003,84.30396574124873L244.830638,78.50698523325265L244.90260600000002,44.326619897755364L245.037546,52.85376466012907L245.347908,39.41064852380612L245.910158,73.67359268437713L246.10357199999999,122.61863528523804L246.112568,114.18994283151436L246.278994,124.7054643037512L246.283492,147.45420598488326L246.328472,131.97863037799848L246.36445600000002,121.32319131911262L246.47690599999999,98.23448772766184L246.85023999999999,141.45370519226447L246.87273000000002,126.70682207555396L246.94019999999998,102.88714073613347L247.81281199999998,79.91447229862673L248.433536,91.56447271769665L249.387112,75.26541969934357L249.737956,105.46469387353727L249.980848,78.47697563732426L250.09329799999998,80.78647614066375L250.660046,58.81166938016415L251.02438400000003,86.05639171897275L251.24478599999998,60.54582394709958L251.298762,54.06460693466275L251.384224,67.86965040557153L251.64960599999998,71.6345089412996L252.17137400000001,60.688458726754234L252.526716,70.31900099700292L252.715632,61.85666535113474L253.039488,111.72160890161953L253.264388,79.04149125066807L253.399328,115.97393569974545" style="fill: none;" fill="none"></path></g></g></g></g><g opacity="0.2"><g><g><g><path stroke="rgb(255, 112, 67)" stroke-width="2px" d="M31.872828000000002,-406.6404084818703L32.480058,155.50139399937223L32.673472,-100.61286472422734L33.420139999999996,-204.67722796542301L33.784478,111.2821631389005L34.031867999999996,103.56932455301286L34.045362000000004,122.33762552056994L34.108334,6.143110590321697L34.126326,-34.56603371245518L34.34223,17.014757675783983L34.373716,86.70157239266806L34.571628000000004,0.3092121056148187L34.706568,42.57086752142226L34.962954,139.2348989035402L35.093396,119.76820531061719L35.165364000000004,47.88201240982329L35.237332,82.50797627653395L35.718618,48.4900327920914L35.912031999999996,72.59008886984418L35.925526,153.44099351763725L36.406812,61.420592052595964L36.505768,-24.56728792190549L36.735166,-1.1523804238864273L36.811632,28.251360169478858L36.870106,97.52574437856676L37.270428,24.87606898375921L37.540307999999996,55.386959041867954L37.949626,9.684753017766155L38.003602,106.27740219661169L38.147538000000004,37.48213970661166L38.174526,92.99669523750033L38.286976,45.270768897874035L38.489386,51.93619751930238L38.858222000000005,93.1695272071021L39.069627999999994,43.118752777576475L39.146094000000005,122.49546138729369L39.155089999999994,149.40577960865838L39.177580000000006,32.15008316721236L39.29003,5.347337492874715L39.294528,42.758544879300274L39.348504000000005,42.84335952145716L39.370994,102.38252242122378L39.501436,105.56098033700671L39.568906,-22.722955661160597L40.18963,172.4539608018739L40.43702,121.14929740343776L41.458065999999995,130.74697279930115L41.777423999999996,45.109541952610044L41.790918000000005,-33.91513502597806L42.051801999999995,55.50504393236979L42.330678,76.53508125032698L42.641040000000004,108.14995576654162L42.704012000000006,30.15707095180241L42.713007999999995,132.82559090852737L42.717506,59.79034988369261L42.97839,103.38023424574308L43.76554,156.58908244115966L44.386264,31.696733645030463L44.39526,74.81109459911075L44.62016,-63.10587820836474L44.939518,122.69711752448764L45.173414,94.35440772771837L45.267872,133.60616067051888L45.299358,50.82106018066408L45.780643999999995,76.38998076745443L45.906588,16.234432825020406L46.032532,50.558703737599515L46.266428,-7.5690545950616865L46.545304,-42.694147544247755L46.986108,46.85583436489108L47.125546,151.8211129776069L47.148036,-38.674174649374805L47.530366,142.47092979720662L47.539362000000004,33.299131291253246L47.9037,48.323380121162984L48.317516,126.71420800260135L48.393981999999994,165.9812584774835L48.48844,207.22444113237518L49.091172,137.87176068765777L49.109164,104.54231918283872L49.145148,65.92808900560652L49.648923999999994,78.57296873841968L49.711895999999996,123.47552076407842L49.882819999999995,87.8028063092913L49.936796,20.889818481036627L50.125712,45.62909286362785L50.472058,149.80504142812322L50.8274,44.48004473958699L50.836396,96.35612371138166L51.079288,171.37885702933585L51.205232,57.313091652733945L51.677521999999996,101.67099878617697L52.154309999999995,52.45013431140356L52.217282,-16.37342484508241L52.491659999999996,127.7613542165075L53.071902,72.53609536375319L53.656642000000005,138.25359613129072L53.854554,194.44525585004263L54.236883999999996,91.32820923839297L54.326844,136.8650625050068L54.488772,39.913392305374174L54.520258,31.90291122027807L54.682185999999994,68.26951570170267L54.776644,71.28731185197832L55.055519999999994,166.05228273357665L55.14548,41.289529655660914L55.644758,9.543646471841015L55.689738,168.89560789295606L56.000099999999996,37.890237169606365L56.058574,75.97641990014486L56.085561999999996,174.08514493703842L56.144036,-16.46087699277058L56.400422,74.51000450338637L56.503876,145.5999721629279L56.791748,56.92213797569276L57.439460000000004,112.35575976542066L57.682352,114.02207924212729L57.812794,119.68968300308501L58.055686,108.37800579837392L58.231108,37.68910853351866L58.244602,124.1909064607961L58.298578,109.7367167728288L58.438016,133.8234722869737L58.941792,53.31165665388109L59.445568,108.65997397899629L59.562516,65.79421676056727L60.075288,60.53446555137636L60.111272,121.76622878653663L60.29569,80.60377264022829L60.709506000000005,102.15524480172567L60.997378,52.41810745852335L61.213282,88.86127495765687L61.316736,129.68034672311376L61.6226,157.07786873408728L61.66758,109.40704742074014L61.681073999999995,97.8302255528314L61.748544,97.36466814790454L61.896978000000004,17.18159873996464L62.715614,52.50623782191958L63.01698,82.07904251984188L63.142924,60.868373751640334L63.187903999999996,115.30780667066574L63.345334,66.79021420649121L64.056018,139.21479734352658L64.39336800000001,48.72691846745357L64.90614,-32.36330212865556L65.090558,121.24390849471092L65.598832,277.75160279018536L65.72927399999999,75.66274513517108L65.75176400000001,101.32516529304641L65.79224599999999,96.14263647794725L66.19706599999999,145.15255702819144L66.21056,225.72366001776288L66.336504,72.56100095169886L66.381484,175.13001159259252L66.799798,83.68988018376487L66.95273,44.8188511644091L67.22261,113.54431395445552L68.045744,76.55603057997568L68.162692,238.41825672984123L68.176186,51.64535601649966L68.270644,104.22736334374974L68.30213,63.809757598808844L68.563014,10.991486293928972L68.590002,142.9513325904097L68.84188999999999,65.78321459463666L69.76398,96.40333506039212L70.015868,-9.030760160514262L70.15980400000001,71.89661330836161L70.55113,112.4274057192462L70.699564,71.71805418389185L71.05490599999999,53.90984290838243L71.08639199999999,-51.95944072519029L71.14486600000001,95.89131987946375L71.414746,144.82311374800545L71.54968600000001,78.0527396116938L71.65314,79.81730616944178L71.734104,152.12789254954885L72.386314,4.497533210686299L72.674186,118.62115415505002L73.35338399999999,210.9264062174729L73.470332,52.682347834110274L74.33394799999999,140.25112978475434L74.365434,67.65117136921202L74.87370800000001,170.0596709592002L74.887202,18.49549095971247L74.98166,86.57598945072719L75.24704200000001,117.40607419610023L75.440456,185.21790507010053L75.82278600000001,90.16815894842149L75.962224,161.37566515803337L76.03419199999999,3.7930178046226786L76.11065799999999,35.04165583848956L76.290578,128.35820287891798L76.49748600000001,119.86347577827317L76.501984,177.2217418721744L76.60094,101.98704730612891L76.75837,183.17845391801427L76.875318,50.67128754513605L76.9158,45.236669719219236L77.149696,136.4377866089344L77.16319,38.86328831740789L77.316122,63.385269922869554L77.334114,120.20849918041911L77.437568,33.15154401745116L77.464556,-34.26083664383205L77.473552,121.68550227795329L77.68046,109.89393094182016L78.049296,-19.68021624428883L78.134758,61.89149982588633L78.17524,74.89330941438676L78.481104,3.1559471828597054L78.4901,129.40114792329925L78.75998,122.23919004627638L79.475162,-28.21356396164211L79.71355600000001,-56.72756090334482L79.803516,17.03710111549924L79.942954,51.45458900928499L79.983436,43.41441714763644L80.059902,66.6778187922069L80.13636799999999,96.53901588065284L80.505204,60.313141158648904L80.60865799999999,70.18400560958045L80.67163,151.12997349245208L81.00448200000001,104.88728606700899L81.517254,28.237306032861994L81.949062,126.33766640935626L81.971552,10.45494231155942L82.13347999999999,140.40103429555893L82.272918,29.990041494369535L82.709224,56.319580997739536L82.826172,88.66365043606078L82.844164,63.51205858162473L82.91613199999999,56.43419945240022L83.105048,158.6269322506019L83.39292,106.93677857943945L83.406414,170.04657762816976L83.478382,67.40908604008811L83.91019,62.14063106264388L84.148584,22.92024559634075L85.106658,79.87329664400646L85.232602,102.88530633279257L85.70939,114.06247075540679L86.033246,76.12121895381384L86.312122,84.35332586084094L86.662966,78.73227407251086L86.739432,207.30526183758462L86.86087799999999,93.80870783329011L86.95533599999999,167.2049856867109L87.009312,116.35642235193934L87.07678200000001,85.8570054428918L87.333168,14.114669629505727L87.66152199999999,52.62711093255453L88.156302,126.40671253630094L88.394696,44.77800750732425L88.412688,11.87034081561228L88.853492,122.78969396863666L89.04240800000001,89.93496578080315L89.271806,45.69160174471992L89.37526,24.064508531774806L89.640642,107.66437215890204L89.654136,128.1531933418342L90.07694799999999,141.22740245716912L90.22988000000001,43.580806068011725L90.38730999999999,103.87209134868215L90.562732,17.313323301928392L90.97654800000001,115.63557325090682L91.075504,148.31127133113998L91.44434,51.01891077416285L92.078558,68.77787605353765L92.375426,166.49074918883187L92.406912,115.7764725642545L92.44739399999999,86.61197256190437L92.52386000000001,22.103560847895494L92.604824,134.10257689016208L92.870206,51.09445646830969L93.095106,91.3047354391643L93.306512,126.74322056344577L93.58988599999999,99.86999697344645L93.92723600000001,120.0311646120889L93.954224,132.57065715960096L94.089164,74.06038516759874L94.12964600000001,82.38122529642924L94.174626,134.50053879618645L94.588442,115.14198293004718L94.62892400000001,112.38705188461714L94.646916,-10.161383424486417L94.723382,108.88082738859313L95.011254,159.14397753136498L95.096716,97.4545694078718L95.703946,114.55178454944067L95.98732000000001,77.76012721232006L96.194228,54.06138644048147L96.39214000000001,83.70521539449693L96.778968,114.05308877144542L97.039852,99.64701472009932L97.710054,84.41926349912372L97.71905000000001,112.47586046372142L97.86298599999999,109.73061283145633L98.00242399999999,212.27986102019037L98.267806,96.74044594594412L98.91102,30.905406628336237L99.01897199999999,222.64491865038872L99.059454,105.5322126873902L99.306844,39.95657203878676L99.986042,125.03607626897949L100.049014,54.0448455129351L100.50781,140.1216471024922L100.602268,138.69326830336027L101.20050200000001,104.89485947574889L101.524358,88.04930004051754L101.623314,157.93119597009252L101.69978,128.1887996665069L101.906688,3.4251611403056756L102.05962,154.01523498977934L102.35199,157.05825699652945L102.71183,28.344953937189928L103.053678,212.729310802051L103.215606,148.6318224498204L103.714884,12.651607632637052L103.719382,52.14154616424017L103.87231399999999,101.92233422398569L103.93528599999999,75.81549438408443L104.124202,203.25491995045118L104.875368,97.78414456333434L105.014806,194.3103851207665L105.167738,17.464866834027447L105.653522,167.94584215113096L105.801956,73.60006509508406L105.88292,75.38554330383029L105.891916,24.33202694995066L105.999868,175.4469644001552L106.004366,70.39681462730681L106.01786,46.116240135260995L106.10332199999999,-73.40405623401912L106.260752,59.70561059883664L106.40019,94.25369269507273L106.57561199999999,91.2978779247829L106.620592,31.37262189388278L107.020914,51.049995660781875L107.08388599999999,-7.892902595656238L107.214328,119.2500485096659L107.25031200000001,70.31215069975173L107.380754,174.76933271118574L107.826056,150.97827924575125L108.865094,50.845212195600794L108.99103799999999,105.99219365205084L109.03152,157.14849736435073L109.157464,26.123043920312625L109.31489400000001,97.40528573308673L109.36887,59.94268466745105L109.65674200000001,151.79400318861008L110.26397200000001,118.25390034914017L110.506864,172.00986138837678L111.105098,170.2217079954488L111.10959600000001,47.499875536986764L111.739316,98.31492371218546L112.283574,176.5421697327069L112.31506,180.60415432282858L112.87731,85.41963166849955L113.38558400000001,120.00292446357864L113.471046,127.09408415641104L113.59699,52.084387651511605L113.695946,104.9993800520897L113.79040400000001,62.953924732548856L114.096268,143.38137786728996L114.33466200000001,59.657909427370356L114.595546,37.596268338816515L114.79345799999999,116.54138684698515L115.75603000000001,201.2697072156838L115.836994,144.45540779829025L115.93594999999999,122.34150642156601L115.962938,-13.719416064875446L116.45322,85.50342898709434L116.516192,123.77941791926112L116.56567,8.078436791896848L116.81306000000001,53.549521974154885L116.862538,84.38535271372115L116.889526,127.68756057960647L117.15490799999999,108.8478962481022L117.276354,35.197419379438685L117.37980800000001,165.61234681095397L117.694668,142.55459524052483L117.793624,58.52901938131879L117.942058,181.09746205380986L118.05001,134.9937334912164L118.22993,-13.340067412172033L118.310894,79.9913061772074L118.337882,97.1963952950069L118.35137599999999,35.697716500077945L118.693224,98.87079684223448L118.697722,75.51700411524092L118.90912800000001,33.82960901090078L119.04856600000001,51.90612995624544L119.170012,16.86935576370786L119.183506,145.65910880480493L119.205996,71.63870294604983L119.525354,182.91445845365524L119.574832,187.781993751015L119.79523400000001,155.89300705279624L120.05162,105.53266483119558L120.25402999999999,91.01374322175981L120.43844800000001,163.53216503773416L120.496922,123.64304004396712L120.50142000000001,129.72096430829595L120.600376,34.72835786002025L120.67234400000001,180.33298107555936L121.171622,128.82336465801512L121.26608,254.27897159968103L121.576442,31.9150437457221L121.58993600000001,126.65868851116726L121.594434,95.80051433188576L121.810338,-15.594192675181773L121.91829,80.75294241734915L122.512026,74.10431847402029L122.87186600000001,62.9066380262375L122.93034,51.250709831714644L123.21821200000001,4.9621486493519456L123.510582,45.82671738522396L123.614036,66.55822675568717L123.991868,130.94608562758992L124.005362,96.15834847518377L124.02785200000001,68.07027099813735L124.329218,131.90896353977067L124.41018199999999,30.29817749772755L124.747532,203.87899143780982L124.92295399999999,138.69362625053952L125.633638,32.57743442058566L125.82255400000001,129.6604712350028L125.827052,53.5955652850015L126.119422,28.046124560492387L126.14641,65.70457925115313L126.263358,130.87200940081053L126.357816,126.40388663751739L126.384804,67.00317393881934L127.095488,150.9415990795408L128.17051,143.27465308989798L128.228984,84.80162644386293L128.38191600000002,171.05372795462608L128.489868,47.736874248300296L128.55284,243.96640032955577L128.678784,165.77736046058791L129.191556,22.55167303766524L129.348986,51.56981032235282L129.515412,32.013196630137315L129.92473,0.03630564042501305L130.50947,144.83061179944448L130.84682,98.68462663037437L131.25164,211.9046005010605L131.265134,49.25004885026388L131.92633999999998,73.8607259988785L131.944332,16.17949735266825L132.137746,134.29837399721146L132.18722400000001,46.69159312759129L132.232204,-5.466359828199643L132.385136,150.15912654570172L132.430116,130.6060169679778L132.547064,76.97079716409957L132.749474,122.49789166024755L132.852928,-5.0583000438553825L133.082326,33.39498577799117L133.190278,143.97054008500916L133.27574,62.73934481825148L133.487146,19.72754515068874L133.99542,233.10000941583087L134.215822,107.62398064562254L134.58016,86.51084306410381L134.629638,-11.688461448465063L134.719598,125.58759751490184L135.04795199999998,161.97741204500198L135.304338,60.50292852095197L135.78562399999998,276.2699840579714L136.419842,159.81401697226934L136.595264,138.88595692174775L136.725706,132.62482021961893L137.117032,115.93227378385407L137.332936,113.21654737421446L137.34193199999999,100.78732139723643L137.512856,106.06606264625277L137.61631,167.8481225711959L137.935668,131.9970939031669L138.569886,188.94846825088774L138.857758,164.20030170679092L139.298562,72.9206059915679L139.33454600000002,137.2902849146298L140.01824200000001,138.9330740741321L140.117198,30.22794449329379L140.265632,81.70662673882076L140.598484,161.38900340029173L140.77390599999998,-8.431066759995048L141.16073400000002,124.51347338727544L141.48908799999998,4.927182861736867L141.601538,135.6074245103768L141.660012,47.19675079413824L141.70049400000002,125.39617113130433L142.055836,96.9585299747331L142.32121800000002,136.69206098147802L142.83399,162.5203613979476L142.90146,141.05183878540993L143.25680200000002,63.10301915236883L143.64812799999999,89.58289647102357L144.04845,112.90064956886428L144.214876,67.72796045882362L144.372306,-19.2991720523153L144.70515799999998,148.7780721315316L145.26290999999998,149.60287662914823L145.35736799999998,-0.785465725830619L145.39785,115.68438594256129L145.469818,13.488262065819356L145.753192,137.85934557233537L145.75769000000003,-38.21871512276783L145.82066200000003,51.442607198442744L146.373916,188.3126033459391L146.423394,67.982215992042L146.873194,114.02411388925145L147.17455999999999,29.898030229977223L148.07415999999998,192.7267702817917L148.645406,160.05139247008734L148.649904,197.69956088917596L148.780346,126.88607916661672L148.78934199999998,94.28421240193505L149.234644,121.01606569545609L149.909344,40.58362013953075L150.197216,129.87182962468694L150.224204,103.84466129115651L150.251192,118.5238867189203L150.269184,157.69399002620153L150.273682,182.5071334029947L150.790952,43.84384072678432L151.038342,-16.743805978979367L151.578102,39.36422597510477L151.82999,181.8525798874242L152.270794,17.395726510456655L152.31577399999998,146.29958934443337L152.34725999999998,78.35823810952051L152.428224,77.73623894793647L152.68461000000002,-22.77725059645516L152.882522,48.156049234526506L153.26935,41.31462363685881L153.67866800000002,143.77813405650002L153.68766399999998,113.74331374679294L153.8316,155.17093339562416L153.912564,123.42322279725757L155.185498,127.35723185113498L155.302446,90.72471029417856L155.50035799999998,24.697246108736323L155.74774799999997,134.28703272342682L156.026624,177.84438157081604L156.08509800000002,76.0302250129836L156.49891399999998,92.34300833089013L156.629356,39.90099602937701L156.80477800000003,219.86760648659296L158.06421799999998,46.00218686035703L158.41956000000002,127.72318574360439L158.536508,116.40728853004319L158.635464,48.88125021968571L158.720926,96.01558406863894L158.83337600000002,55.692909683500034L158.90534399999999,21.832877423082095L158.95932000000002,71.65219190290998L159.15273399999998,81.31235734054022L159.45859800000002,47.42512109449933L159.73747400000002,91.70725646189283L160.67305800000003,125.9751035954271L160.704544,184.6239011457988L160.745026,197.57704875724656L160.969926,148.84206931931632L160.98342000000002,166.86649953041757L161.077878,-7.7549987350191145L161.21731599999998,116.18494681375367L161.302778,99.21796792745592L161.91450600000002,133.53867820756778L162.278844,98.55293974706106L162.283342,70.1947063463075L162.436274,166.2451974238668L163.05249999999998,52.5388298545565L163.07499,76.38534629344942L163.191938,172.263344509261L163.398846,152.1962793001107L163.466316,72.40403169393541L163.835152,64.37135788372586L164.02856599999998,13.131708996636547L164.145514,114.77729127236776L164.32993199999999,94.06812534161978L164.523346,130.9196163756507L165.11708199999998,175.41363763383458L165.14856799999998,24.49189746379855L165.16656,59.08952698537283L165.625356,31.62959028993336L165.805276,120.1813328734466L166.228088,40.04583276169643L166.29106000000002,94.10817774704526L166.372024,41.64419879232136L166.56094,193.6436425617763L167.78439600000002,10.244921513966176L168.02279,170.20126732758115L168.558052,114.35172975489073L169.376688,169.18530019692014L169.54311399999997,87.91761315720423L169.965926,82.22847604751588L170.681108,67.65735066788538L170.798056,8.44075469459807L170.97797599999998,113.40637241516795L171.184884,125.89848405974251L171.477254,246.23655785833085L171.50874,82.23842321123396L171.544724,154.1086403642382L171.760628,89.91808574540276L171.80111,136.0687242278031L172.066492,-29.079230955668834L172.124966,54.00972901071822L172.777176,154.7469355421407L172.831152,135.67078116110395L172.97958599999998,83.21034399952208L173.168502,106.21705983792033L173.460872,25.784011423587827L173.793724,216.84830319029945L174.00512999999998,-27.687570001397802L174.29749999999999,155.22747021062034L174.427942,76.96115142958506L174.486416,41.0321467944554L174.796778,132.1391989333289L174.81027200000003,15.96239296879088L175.003686,115.03499440210206L175.224088,9.823711880615804L175.475976,41.3519631794521L176.06971199999998,56.66049742698671L176.105696,54.47879053013666L176.137182,124.11221459933691L176.555496,106.48239289437022L176.609472,101.1080043911934L176.699432,68.93382798773902L177.212204,72.94377836159299L177.230196,17.514941760471913L177.351642,76.5773943747793L177.360638,66.30800283806666L177.765458,-0.8999711445399612L178.080318,155.82961272341865L178.201764,235.0845627742154L178.23325,146.0856311278684L178.359194,138.270381970065L178.970922,27.8569400565965L179.384738,43.56223049334119L179.416224,191.16553656118256L179.821044,204.64217250261987L179.861526,137.41937197106225L179.915502,175.18922359177046L180.00096399999998,113.36492589967591L180.07743,14.866396384579815L180.320322,58.30498212575914L180.37429799999998,119.65473605479514L180.486748,123.57184623394694L180.65317399999998,170.49857071893555L180.914058,114.16644499131613L181.12096599999998,25.162803513663164L181.20642800000002,-42.807221174240084L181.23791400000002,79.30163615942003L181.444822,163.25684713891576L181.678718,134.22254571318626L181.69221199999998,56.57259313549315L181.849642,91.41343834570478L182.434382,179.24305075407028L182.66827800000002,64.38228469235557L182.672776,112.2250713663442L182.767234,136.84083513276917L183.014624,-35.52638715505597L183.40595,122.59446204134397L183.410448,75.70483218772071L183.58137200000002,98.90659156015943L183.73880200000002,50.656818943364286L183.779284,32.732180637972704L183.95470600000002,136.28207958596096L184.17510800000002,189.71296806846345L184.42249800000002,73.20040764978955L184.566434,78.62481456143516L184.993744,115.12346387335234L185.67744,133.3520558519023L185.897842,242.62884591732706L186.05977,20.0624706745148L186.33864599999998,163.70045672995704L186.684992,69.7731576051031L186.698486,96.47564039060049L187.040334,67.14789763518743L187.134792,-20.075616002082796L187.17077600000002,172.13178950122426L187.22925,171.6501244732312L187.23824599999998,70.84812950236457L187.26523400000002,222.40366225157464L187.70603799999998,176.23885659660613L187.715034,54.115606018475134L188.10636000000002,95.7247048871858L188.119854,27.09669792652133L188.2413,230.81472390890121L189.010458,30.126777316842777L189.041944,256.97583984477177L189.338812,77.57354253530504L189.361302,150.12672290631704L189.829094,93.97276067733766L189.90556,17.63826398338591L190.20692599999998,45.27917123692379L190.296886,97.36579850741796L190.778172,64.64498024327415L191.012068,157.61290557043893L191.07953799999999,53.04398752110346L191.147008,186.90319574730736L191.218976,104.46605759433339L191.27745,104.24139864104136L191.43488,91.07308709621431L191.520342,29.523956588336432L191.551828,99.50274316753661L192.599862,203.6360206604004L192.869742,118.98963251709938L193.004682,74.54026045969555L193.090144,41.02129534312658L193.490466,42.24080254350392L193.665888,212.17986188190324L193.68388000000002,79.58626068489893L193.724362,88.63102072477342L193.75135,40.96033128670285L193.8638,76.76469494615283L194.12018600000002,102.63363178712981L194.776894,110.55440000551089L195.298662,65.0623466542789L195.447096,54.49054626907622L195.93737800000002,84.11372732264655L195.964366,182.25259527989797L196.00484799999998,111.92705208063127L196.58509,101.32401609420778L196.738022,52.31038419689452L197.88951,167.32616022654943L197.97497199999998,82.58928680419923L198.168386,150.34746327996254L198.478748,96.06483006477357L199.445818,88.38720217772894L199.900116,17.03683736494611L200.14750600000002,93.97935444116594L200.214976,27.157134481838796L200.525338,147.06056620819228L200.67827,120.70222137655531L201.011122,119.56214077132088L201.08309,148.0412661220346L201.132568,77.49777076925551L201.28549999999998,85.42362560544696L201.64534,151.1125471166202L201.919718,66.82702624797822L201.924216,140.79877012968063L202.18509999999998,19.160971283912687L202.27506000000002,36.124502573694514L202.468474,182.5570576148374L202.49096400000002,137.1362922702517L202.81482,-31.860329823834547L203.449038,94.82923408065524L203.552492,184.8745018499238L203.55698999999998,119.06468838879042L204.168718,99.98589650222235L204.600526,163.80966829827855L204.86590800000002,110.04830037270274L204.915386,28.215188665049425L206.192818,97.56086088078364L206.37723599999998,101.75600182158607L206.692096,223.06863391399384L206.81804,69.11796355247499L207.047438,97.28177511692049L207.483744,93.2491045168468L207.62318199999999,73.05240591083255L207.645672,43.347725936344716L207.722138,31.048773893288228L207.951536,162.85865916098868L208.12246,96.01238138335093L209.040052,136.80939229897092L209.36390799999998,25.119699137551464L209.836198,66.085397371224L210.22752400000002,105.99285302843367L210.2815,42.24095325810572L210.425436,21.541169311319095L210.55138,-26.40962321417672L210.94270600000002,75.87913362468993L210.987686,171.59017774036954L211.014674,185.43135462488448L211.032666,154.3217131325177L211.172104,101.6031583760466L211.1811,36.611423773424974L211.244072,85.48632287979127L211.27105999999998,-2.578479664666304L211.599414,48.424999441419345L212.71042,137.00513288804464L213.106244,6.185423714774004L213.223192,146.4088197520801L213.628012,103.31474875126567L213.749458,173.43362455282892L214.06431800000001,30.70009566204891L214.370182,112.19304451346399L214.44215,186.7874092544828L214.739018,200.66850666914667L214.95492199999998,148.72070638622557L215.02689,93.02314565011434L215.157332,64.47772471393858L215.269782,133.61418622306417L215.355244,196.2101426763194L216.002956,63.27668005228044L216.03894000000003,109.16441575118475L216.326812,119.2429649233818L216.44825799999998,140.36591779334205L217.055488,88.84646724803109L217.086974,133.3483821834837L217.167938,136.59927730475152L217.631232,-3.9863801172801345L217.739184,115.09908578651292L217.784164,187.2447150349617L217.847136,53.25702261073249L218.126012,140.89618828041213L218.553322,174.89764735528402L218.85019,218.71582666039467L218.90866400000002,38.325425582272686L219.0526,252.56696675930704L219.13356399999998,155.4135273865291L219.178544,117.64412790962629L219.273002,60.33367602314269L219.763284,128.83344369700978L220.078144,126.00253365295274L220.518948,31.70743438175748L221.045214,121.01589614152908L221.216138,186.8895937544959L221.364572,101.023566535541L221.441038,224.2114650607109L221.61646000000002,38.65533984558925L222.704976,32.55629669768473L222.77694400000001,272.7280307816608L223.424656,38.45055638040816L223.658552,60.38676524162294L223.856464,35.67989449841639L224.013894,164.82077488303185L224.14883400000002,94.42754198823657L224.256786,104.32280336533275L224.36473800000002,159.27592816523145L224.400722,52.29018844025477L224.4502,125.31981534617287L224.454698,21.706164121627836L224.72457799999998,142.43784794211388L224.846024,16.105797912393314L224.86401600000002,109.69564704384123L224.931486,10.362893368516666L225.04843400000001,58.67385611363821L225.09791199999998,38.21887035880772L225.14739,19.000610947608976L225.295824,209.5463502875396L225.678154,159.3439381292888L225.916548,177.27552814568793L225.93454,133.21175939696178L225.99301400000002,120.4629996248654L226.352854,32.36296754223963L226.37084599999997,78.15443428925106L226.49229200000002,81.2768263731684L226.532774,193.14541776691163L226.9241,125.30922764539719L226.955586,116.34016401427132L227.15349799999998,23.31304552725385L227.391892,61.781478166580214L227.54932200000002,149.38032768028123L227.56731399999998,70.40762839998519L227.841692,148.01784884078162L228.277998,83.85189838068827L228.448922,230.255045235157L228.65582999999998,60.263367661408026L228.660328,214.77296312366212L228.673822,65.97786250284742L228.92571,147.0546129814216L229.303542,116.03658712761742L229.411494,160.04161486029625L229.631896,118.42079793129649L229.694868,22.556759655475645L230.36057200000002,99.73476829699109L230.495512,113.57494669726918L230.760894,107.56512659362386L230.99029199999998,150.4489884035928L231.91688000000002,241.49162888952662L231.957362,156.0640869651522L232.047322,12.809217427458094L232.18676,89.95580207450051L232.19575600000002,89.49182717289244L232.80298599999998,193.36406697545732L232.964914,53.30065448795047L233.162826,131.85937843578202L233.42820799999998,42.961406733308536L233.48218400000002,133.52859916857312L233.990458,67.40249227625984L234.156884,4.262795218399617L234.296322,82.25967397008624L234.45375199999998,119.2368233033589L235.128452,80.88685234103885L235.168934,22.203296235629523L235.29038,95.28736879144397L235.42532,47.72255636113033L235.578252,74.29003654207503L235.780662,95.84399549450194L235.81664600000002,121.34435977680343L235.94259,164.09037424411093L236.450864,165.99440832648958L236.522832,29.761068335601294L236.626286,83.35928770474025L236.801708,-106.06658562592094L236.878174,123.21548155801636L237.26500199999998,21.564793825149565L237.305484,100.71901000397547L237.458416,177.09097811579704L237.97568600000002,197.4241299544062L238.151108,123.31152443800654L238.385004,162.25344583817892L239.680428,190.9603574701718L240.60251799999998,-13.533848711422507L240.840912,43.60590004920962L240.872398,42.64061070340023L240.962358,96.68652779715403L241.079306,138.8776299399989L241.484126,70.34413987398149L241.71802200000002,-8.432686941964278L241.987902,129.06448918155263L242.019388,74.84960217986789L242.14983,-5.516736183847684L242.38822399999998,183.554543367454L242.406216,28.782704498086673L242.46469000000002,91.83694637673243L242.52766200000002,31.29775441544399L242.635614,126.01180260096278L242.68959,136.27021081107006L242.833526,28.529014144624995L242.865012,150.91989617688316L242.927984,230.0291994043759L243.436258,66.23663947411947L243.485736,81.22531965800695L243.512724,-0.2564951522009551L243.69714199999999,-59.38970827204838L243.715134,84.70562124252321L243.778106,89.858214369842L243.88155999999998,37.44125837087634L244.358348,98.6109648687499L244.551762,17.084538536412396L244.74967400000003,137.08772448982512L244.830638,69.81151447125845L244.90260600000002,-6.943928105490528L245.037546,65.6444818036897L245.347908,19.24597431932179L245.910158,125.06800892523358L246.10357199999999,196.03619918652944L246.112568,101.54690415092878L246.278994,140.47874651210648L246.283492,181.57731850658143L246.328472,108.76526696767127L246.36445600000002,105.34003273078375L246.47690599999999,63.601432340485715L246.85023999999999,206.28253138916833L246.87273000000002,104.58649740048818L246.94019999999998,67.15761872700284L247.81281199999998,45.455469642366694L248.433536,109.03947334630149L249.387112,50.81684017181398L249.737956,150.76360513482774L249.980848,37.99539828300479L250.09329799999998,84.25072689567294L250.660046,25.849459239414784L251.02438400000003,126.92347522718566L251.24478599999998,22.27997228928976L251.298762,44.342781416007455L251.384224,88.57721561193468L251.64960599999998,77.28179674489158L252.17137400000001,44.26938340493612L252.526716,84.7648144023759L252.715632,49.1631618823324L253.039488,186.5190242273467L253.264388,30.02131477424078L253.399328,171.3726023733616" style="fill: none;" fill="none"></path></g></g></g></g></g></g><g transform="translate(48, 177)" clip-path="url(#clip_1)"><clipPath id="clip_1"><rect width="281" height="23"></rect></clipPath><g><g><line x1="0" y1="0" x2="0" y2="5" style="visibility: inherit;" fill="rgb(0, 0, 0)" stroke="rgb(204, 204, 204)" stroke-width="1px"></line><line x1="28.1125" y1="0" x2="28.1125" y2="5" style="visibility: inherit;" fill="rgb(0, 0, 0)" stroke="rgb(204, 204, 204)" stroke-width="1px"></line><line x1="56.225" y1="0" x2="56.225" y2="5" style="visibility: inherit;" fill="rgb(0, 0, 0)" stroke="rgb(204, 204, 204)" stroke-width="1px"></line><line x1="84.33749999999999" y1="0" x2="84.33749999999999" y2="5" style="visibility: inherit;" fill="rgb(0, 0, 0)" stroke="rgb(204, 204, 204)" stroke-width="1px"></line><line x1="112.45" y1="0" x2="112.45" y2="5" style="visibility: inherit;" fill="rgb(0, 0, 0)" stroke="rgb(204, 204, 204)" stroke-width="1px"></line><line x1="140.5625" y1="0" x2="140.5625" y2="5" style="visibility: inherit;" fill="rgb(0, 0, 0)" stroke="rgb(204, 204, 204)" stroke-width="1px"></line><line x1="168.67499999999998" y1="0" x2="168.67499999999998" y2="5" style="visibility: inherit;" fill="rgb(0, 0, 0)" stroke="rgb(204, 204, 204)" stroke-width="1px"></line><line x1="196.7875" y1="0" x2="196.7875" y2="5" style="visibility: inherit;" fill="rgb(0, 0, 0)" stroke="rgb(204, 204, 204)" stroke-width="1px"></line><line x1="224.9" y1="0" x2="224.9" y2="5" style="visibility: inherit;" fill="rgb(0, 0, 0)" stroke="rgb(204, 204, 204)" stroke-width="1px"></line><line x1="253.01250000000002" y1="0" x2="253.01250000000002" y2="5" style="visibility: inherit;" fill="rgb(0, 0, 0)" stroke="rgb(204, 204, 204)" stroke-width="1px"></line><line x1="281.125" y1="0" x2="281.125" y2="5" style="visibility: inherit;" fill="rgb(0, 0, 0)" stroke="rgb(204, 204, 204)" stroke-width="1px"></line></g><g transform="translate(0, 8)"><text x="0" y="0" dx="0em" dy="0.95em" style="text-anchor: middle; visibility: hidden; font-family: &quot;Helvetica Neue&quot;, sans-serif; font-size: 12px; font-weight: 200;" fill="rgb(50, 49, 63)" stroke="none" stroke-width="1px">-50k</text><text x="28.1125" y="0" dx="0em" dy="0.95em" style="text-anchor: middle; visibility: inherit; font-family: &quot;Helvetica Neue&quot;, sans-serif; font-size: 12px; font-weight: 200;" fill="rgb(50, 49, 63)" stroke="none" stroke-width="1px">0</text><text x="56.225" y="0" dx="0em" dy="0.95em" style="text-anchor: middle; visibility: hidden; font-family: &quot;Helvetica Neue&quot;, sans-serif; font-size: 12px; font-weight: 200;" fill="rgb(50, 49, 63)" stroke="none" stroke-width="1px">50k</text><text x="84.33749999999999" y="0" dx="0em" dy="0.95em" style="text-anchor: middle; visibility: inherit; font-family: &quot;Helvetica Neue&quot;, sans-serif; font-size: 12px; font-weight: 200;" fill="rgb(50, 49, 63)" stroke="none" stroke-width="1px">100k</text><text x="112.45" y="0" dx="0em" dy="0.95em" style="text-anchor: middle; visibility: hidden; font-family: &quot;Helvetica Neue&quot;, sans-serif; font-size: 12px; font-weight: 200;" fill="rgb(50, 49, 63)" stroke="none" stroke-width="1px">150k</text><text x="140.5625" y="0" dx="0em" dy="0.95em" style="text-anchor: middle; visibility: inherit; font-family: &quot;Helvetica Neue&quot;, sans-serif; font-size: 12px; font-weight: 200;" fill="rgb(50, 49, 63)" stroke="none" stroke-width="1px">200k</text><text x="168.67499999999998" y="0" dx="0em" dy="0.95em" style="text-anchor: middle; visibility: hidden; font-family: &quot;Helvetica Neue&quot;, sans-serif; font-size: 12px; font-weight: 200;" fill="rgb(50, 49, 63)" stroke="none" stroke-width="1px">250k</text><text x="196.7875" y="0" dx="0em" dy="0.95em" style="text-anchor: middle; visibility: inherit; font-family: &quot;Helvetica Neue&quot;, sans-serif; font-size: 12px; font-weight: 200;" fill="rgb(50, 49, 63)" stroke="none" stroke-width="1px">300k</text><text x="224.9" y="0" dx="0em" dy="0.95em" style="text-anchor: middle; visibility: hidden; font-family: &quot;Helvetica Neue&quot;, sans-serif; font-size: 12px; font-weight: 200;" fill="rgb(50, 49, 63)" stroke="none" stroke-width="1px">350k</text><text x="253.01250000000002" y="0" dx="0em" dy="0.95em" style="text-anchor: middle; visibility: inherit; font-family: &quot;Helvetica Neue&quot;, sans-serif; font-size: 12px; font-weight: 200;" fill="rgb(50, 49, 63)" stroke="none" stroke-width="1px">400k</text><text x="281.125" y="0" dx="0em" dy="0.95em" style="text-anchor: middle; visibility: hidden; font-family: &quot;Helvetica Neue&quot;, sans-serif; font-size: 12px; font-weight: 200;" fill="rgb(50, 49, 63)" stroke="none" stroke-width="1px">450k</text></g><line x1="0" y1="0" x2="281.125" y2="0" fill="rgb(0, 0, 0)" stroke="rgb(204, 204, 204)" stroke-width="1px"></line></g></g></g></g></svg>