<svg viewBox="0 0 330 200" xmlns="http://www.w3.org/2000/svg"><g><g><g><g><g><line x1="48.875" y1="177" x2="43.875" y2="177" style="visibility: inherit;" fill="rgb(0, 0, 0)" stroke="rgb(204, 204, 204)" stroke-width="1px"></line><line x1="48.875" y1="160.9090909090909" x2="43.875" y2="160.9090909090909" style="visibility: inherit;" fill="rgb(0, 0, 0)" stroke="rgb(204, 204, 204)" stroke-width="1px"></line><line x1="48.875" y1="144.8181818181818" x2="43.875" y2="144.8181818181818" style="visibility: inherit;" fill="rgb(0, 0, 0)" stroke="rgb(204, 204, 204)" stroke-width="1px"></line><line x1="48.875" y1="128.72727272727275" x2="43.875" y2="128.72727272727275" style="visibility: inherit;" fill="rgb(0, 0, 0)" stroke="rgb(204, 204, 204)" stroke-width="1px"></line><line x1="48.875" y1="112.63636363636364" x2="43.875" y2="112.63636363636364" style="visibility: inherit;" fill="rgb(0, 0, 0)" stroke="rgb(204, 204, 204)" stroke-width="1px"></line><line x1="48.875" y1="96.54545454545453" x2="43.875" y2="96.54545454545453" style="visibility: inherit;" fill="rgb(0, 0, 0)" stroke="rgb(204, 204, 204)" stroke-width="1px"></line><line x1="48.875" y1="80.45454545454544" x2="43.875" y2="80.45454545454544" style="visibility: inherit;" fill="rgb(0, 0, 0)" stroke="rgb(204, 204, 204)" stroke-width="1px"></line><line x1="48.875" y1="64.36363636363639" x2="43.875" y2="64.36363636363639" style="visibility: inherit;" fill="rgb(0, 0, 0)" stroke="rgb(204, 204, 204)" stroke-width="1px"></line><line x1="48.875" y1="48.27272727272728" x2="43.875" y2="48.27272727272728" style="visibility: inherit;" fill="rgb(0, 0, 0)" stroke="rgb(204, 204, 204)" stroke-width="1px"></line><line x1="48.875" y1="32.18181818181819" x2="43.875" y2="32.18181818181819" style="visibility: inherit;" fill="rgb(0, 0, 0)" stroke="rgb(204, 204, 204)" stroke-width="1px"></line><line x1="48.875" y1="16.090909090909093" x2="43.875" y2="16.090909090909093" style="visibility: inherit;" fill="rgb(0, 0, 0)" stroke="rgb(204, 204, 204)" stroke-width="1px"></line><line x1="48.875" y1="0" x2="43.875" y2="0" style="visibility: inherit;" fill="rgb(0, 0, 0)" stroke="rgb(204, 204, 204)" stroke-width="1px"></line></g><g transform="translate(38.875, 0)"><text x="0" y="177" dx="0em" dy="0.3em" style="text-anchor: end; visibility: hidden; font-family: &quot;Helvetica Neue&quot;, sans-serif; font-size: 12px; font-weight: 200;" fill="rgb(50, 49, 63)" stroke="none" stroke-width="1px">0.08</text><text x="0" y="160.9090909090909" dx="0em" dy="0.3em" style="text-anchor: end; visibility: inherit; font-family: &quot;Helvetica Neue&quot;, sans-serif; font-size: 12px; font-weight: 200;" fill="rgb(50, 49, 63)" stroke="none" stroke-width="1px">0.09</text><text x="0" y="144.8181818181818" dx="0em" dy="0.3em" style="text-anchor: end; visibility: hidden; font-family: &quot;Helvetica Neue&quot;, sans-serif; font-size: 12px; font-weight: 200;" fill="rgb(50, 49, 63)" stroke="none" stroke-width="1px">0.1</text><text x="0" y="128.72727272727275" dx="0em" dy="0.3em" style="text-anchor: end; visibility: inherit; font-family: &quot;Helvetica Neue&quot;, sans-serif; font-size: 12px; font-weight: 200;" fill="rgb(50, 49, 63)" stroke="none" stroke-width="1px">0.11</text><text x="0" y="112.63636363636364" dx="0em" dy="0.3em" style="text-anchor: end; visibility: hidden; font-family: &quot;Helvetica Neue&quot;, sans-serif; font-size: 12px; font-weight: 200;" fill="rgb(50, 49, 63)" stroke="none" stroke-width="1px">0.12</text><text x="0" y="96.54545454545453" dx="0em" dy="0.3em" style="text-anchor: end; visibility: inherit; font-family: &quot;Helvetica Neue&quot;, sans-serif; font-size: 12px; font-weight: 200;" fill="rgb(50, 49, 63)" stroke="none" stroke-width="1px">0.13</text><text x="0" y="80.45454545454544" dx="0em" dy="0.3em" style="text-anchor: end; visibility: hidden; font-family: &quot;Helvetica Neue&quot;, sans-serif; font-size: 12px; font-weight: 200;" fill="rgb(50, 49, 63)" stroke="none" stroke-width="1px">0.14</text><text x="0" y="64.36363636363639" dx="0em" dy="0.3em" style="text-anchor: end; visibility: inherit; font-family: &quot;Helvetica Neue&quot;, sans-serif; font-size: 12px; font-weight: 200;" fill="rgb(50, 49, 63)" stroke="none" stroke-width="1px">0.15</text><text x="0" y="48.27272727272728" dx="0em" dy="0.3em" style="text-anchor: end; visibility: hidden; font-family: &quot;Helvetica Neue&quot;, sans-serif; font-size: 12px; font-weight: 200;" fill="rgb(50, 49, 63)" stroke="none" stroke-width="1px">0.16</text><text x="0" y="32.18181818181819" dx="0em" dy="0.3em" style="text-anchor: end; visibility: inherit; font-family: &quot;Helvetica Neue&quot;, sans-serif; font-size: 12px; font-weight: 200;" fill="rgb(50, 49, 63)" stroke="none" stroke-width="1px">0.17</text><text x="0" y="16.090909090909093" dx="0em" dy="0.3em" style="text-anchor: end; visibility: hidden; font-family: &quot;Helvetica Neue&quot;, sans-serif; font-size: 12px; font-weight: 200;" fill="rgb(50, 49, 63)" stroke="none" stroke-width="1px">0.18</text><text x="0" y="0" dx="0em" dy="0.3em" style="text-anchor: end; visibility: hidden; font-family: &quot;Helvetica Neue&quot;, sans-serif; font-size: 12px; font-weight: 200;" fill="rgb(50, 49, 63)" stroke="none" stroke-width="1px">0.19</text></g><line x1="48.875" y1="0" x2="48.875" y2="177" fill="rgb(0, 0, 0)" stroke="rgb(204, 204, 204)" stroke-width="1px"></line></g></g><g transform="translate(48, 0)" clip-path="url(#clip_0)"><clipPath id="clip_0"><rect width="281" height="177"></rect></clipPath><g><g><g><line x1="0" y1="0" x2="0" y2="177" fill="rgb(0, 0, 0)" stroke="rgb(60, 60, 60)" stroke-width="1px" opacity="0.25"></line><line x1="28.1125" y1="0" x2="28.1125" y2="177" fill="rgb(0, 0, 0)" stroke="rgb(60, 60, 60)" stroke-width="1px" opacity="0.25"></line><line x1="56.225" y1="0" x2="56.225" y2="177" fill="rgb(0, 0, 0)" stroke="rgb(60, 60, 60)" stroke-width="1px" opacity="0.25"></line><line x1="84.33749999999999" y1="0" x2="84.33749999999999" y2="177" fill="rgb(0, 0, 0)" stroke="rgb(60, 60, 60)" stroke-width="1px" opacity="0.25"></line><line x1="112.45" y1="0" x2="112.45" y2="177" fill="rgb(0, 0, 0)" stroke="rgb(60, 60, 60)" stroke-width="1px" opacity="0.25"></line><line x1="140.5625" y1="0" x2="140.5625" y2="177" fill="rgb(0, 0, 0)" stroke="rgb(60, 60, 60)" stroke-width="1px" opacity="0.25"></line><line x1="168.67499999999998" y1="0" x2="168.67499999999998" y2="177" fill="rgb(0, 0, 0)" stroke="rgb(60, 60, 60)" stroke-width="1px" opacity="0.25"></line><line x1="196.7875" y1="0" x2="196.7875" y2="177" fill="rgb(0, 0, 0)" stroke="rgb(60, 60, 60)" stroke-width="1px" opacity="0.25"></line><line x1="224.9" y1="0" x2="224.9" y2="177" fill="rgb(0, 0, 0)" stroke="rgb(60, 60, 60)" stroke-width="1px" opacity="0.25"></line><line x1="253.01250000000002" y1="0" x2="253.01250000000002" y2="177" fill="rgb(0, 0, 0)" stroke="rgb(60, 60, 60)" stroke-width="1px" opacity="0.25"></line><line x1="281.125" y1="0" x2="281.125" y2="177" fill="rgb(0, 0, 0)" stroke="rgb(60, 60, 60)" stroke-width="1px" opacity="0.25"></line></g><g><line x1="0" y1="177" x2="281.125" y2="177" fill="rgb(0, 0, 0)" stroke="rgb(60, 60, 60)" stroke-width="1px" opacity="0.25"></line><line x1="0" y1="160.9090909090909" x2="281.125" y2="160.9090909090909" fill="rgb(0, 0, 0)" stroke="rgb(60, 60, 60)" stroke-width="1px" opacity="0.25"></line><line x1="0" y1="144.8181818181818" x2="281.125" y2="144.8181818181818" fill="rgb(0, 0, 0)" stroke="rgb(60, 60, 60)" stroke-width="1px" opacity="0.25"></line><line x1="0" y1="128.72727272727275" x2="281.125" y2="128.72727272727275" fill="rgb(0, 0, 0)" stroke="rgb(60, 60, 60)" stroke-width="1px" opacity="0.25"></line><line x1="0" y1="112.63636363636364" x2="281.125" y2="112.63636363636364" fill="rgb(0, 0, 0)" stroke="rgb(60, 60, 60)" stroke-width="1px" opacity="0.25"></line><line x1="0" y1="96.54545454545453" x2="281.125" y2="96.54545454545453" fill="rgb(0, 0, 0)" stroke="rgb(60, 60, 60)" stroke-width="1px" opacity="0.25"></line><line x1="0" y1="80.45454545454544" x2="281.125" y2="80.45454545454544" fill="rgb(0, 0, 0)" stroke="rgb(60, 60, 60)" stroke-width="1px" opacity="0.25"></line><line x1="0" y1="64.36363636363639" x2="281.125" y2="64.36363636363639" fill="rgb(0, 0, 0)" stroke="rgb(60, 60, 60)" stroke-width="1px" opacity="0.25"></line><line x1="0" y1="48.27272727272728" x2="281.125" y2="48.27272727272728" fill="rgb(0, 0, 0)" stroke="rgb(60, 60, 60)" stroke-width="1px" opacity="0.25"></line><line x1="0" y1="32.18181818181819" x2="281.125" y2="32.18181818181819" fill="rgb(0, 0, 0)" stroke="rgb(60, 60, 60)" stroke-width="1px" opacity="0.25"></line><line x1="0" y1="16.090909090909093" x2="281.125" y2="16.090909090909093" fill="rgb(0, 0, 0)" stroke="rgb(60, 60, 60)" stroke-width="1px" opacity="0.25"></line><line x1="0" y1="0" x2="281.125" y2="0" fill="rgb(0, 0, 0)" stroke="rgb(60, 60, 60)" stroke-width="1px" opacity="0.25"></line></g></g></g><g><g><line x1="0" y1="305.72727272727275" x2="281.125" y2="305.72727272727275" fill="rgb(0, 0, 0)" stroke="rgb(153, 153, 153)" stroke-width="1.5px"></line></g></g><g><g><line x1="28.1125" y1="0" x2="28.1125" y2="177" fill="rgb(0, 0, 0)" stroke="rgb(153, 153, 153)" stroke-width="1.5px"></line></g></g><g><g><g><g><g><path stroke="rgb(255, 112, 67)" stroke-width="2px" d="M34.373716,-4.183270482998552L34.571628000000004,1.6426334750995863L34.706568,2.8007800653413994L34.962954,5.734699216468641L35.093396,-1.1154745418686787L35.165364000000004,4.857499357478247L35.237332,15.925833848365812L35.718618,18.72703889655483L35.912031999999996,12.266041304242634L35.925526,14.762826206693148L36.406812,17.29447322478339L36.505768,22.781324756970292L36.555246000000004,20.96357082348962L36.735166,22.139111170583675L36.811632,32.97410625894071L36.870106,28.297805643865274L37.270428,25.034144723663076L37.540307999999996,29.542210186981578L37.949626,38.516918023077096L38.003602,43.64578959704298L38.147538000000004,43.71361322997345L38.174526,41.274035571803324L38.286976,41.41498570586808L38.489386,41.7305820889913L38.858222000000005,47.58042960808555L39.069627999999994,45.29563296703026L39.146094000000005,48.58499707392281L39.155089999999994,48.57986297917674L39.177580000000006,52.88427982863267L39.29003,49.991823319685054L39.294528,48.32562469596252L39.348504000000005,47.5973959547284L39.370994,51.395218409202414L39.501436,57.56166217154377L39.568906,53.42276608060017L40.18963,57.41449491447335L40.43702,59.04596956801811L41.458065999999995,66.95188379642988L41.777423999999996,68.99519253423748L41.790918000000005,69.62925439919141L42.051801999999995,66.52593034847013L42.330678,70.2203832072441L42.641040000000004,73.57077948194559L42.704012000000006,73.30231796793502L42.713007999999995,73.13723205112109L42.717506,75.61018957680442L42.97839,77.25419015550925L43.76554,80.16963327554542L44.386264,79.74523972538627L44.39526,82.21280662240912L44.62016,78.94600944098865L44.939518,82.3417745460962L45.173414,90.59722483119555L45.267872,90.50699937970697L45.299358,86.27475802841177L45.780643999999995,90.44690570190076L45.906588,88.83218498798924L46.032532,93.1541023370894L46.266428,94.84791131501844L46.545304,89.44025945692711L46.986108,96.5896652310133L47.125546,100.08470021085003L47.148036,96.2370139134779L47.530366,98.81048241908658L47.539362000000004,97.4600882249574L47.9037,99.83637080025943L48.317516,101.5544622766728L48.393981999999994,98.14335502876641L48.48844,104.52905002324786L49.091172,105.00734869240581L49.109164,106.58244723167607L49.145148,107.47653056651488L49.648923999999994,107.59272523152367L49.711895999999996,102.81044849141233L49.882819999999995,99.58368606145909L49.936796,101.6908190827657L50.125712,103.89241561126701L50.472058,104.35939239651069L50.8274,105.61427582994978L50.836396,107.56770249857398L51.079288,107.4171789533403L51.205232,105.43771072794942L51.677521999999996,108.21016282508018L52.154309999999995,107.91401542824055L52.217282,109.41485948758613L52.491659999999996,109.47615482231173L53.071902,112.37438575138944L53.656642000000005,113.9584979386835L53.854554,114.70254927271492L54.236883999999996,117.40307861855504L54.326844,115.29020376053705L54.488772,112.72059652454192L54.520258,113.50169769076429L54.682185999999994,116.2617560595963L54.776644,114.72038628446853L55.055519999999994,114.71742535269571L55.14548,114.85869270725652L55.644758,113.24261691667796L55.689738,116.22264556639833L56.000099999999996,116.02036271858643L56.058574,117.59312515370019L56.085561999999996,116.19907993946923L56.144036,116.58135300312205L56.400422,118.67470434133108L56.503876,117.88052454919318L56.791748,119.93938360465532L57.439460000000004,121.35664376041164L57.682352,118.95947765687899L57.812794,118.90037759172796L58.055686,119.14533234526169L58.231108,118.38125324129192L58.244602,117.20153912992392L58.298578,117.9896846186043L58.438016,120.87369315017426L58.941792,116.7296637221254L59.445568,117.85060553965161L59.562516,119.09396519085985L60.075288,118.91067748721807L60.111272,115.15654499531877L60.29569,115.86364882058015L60.709506000000005,117.11149859294417L60.997378,118.1590186512017L61.213282,118.92163585376187L61.316736,118.93001500599269L61.6226,121.1218702653102L61.66758,120.52547286667374L61.681073999999995,121.98061736599826L61.748544,121.69233844818768L61.896978000000004,122.13182865465939L62.715614,122.68018635280448L63.01698,121.65905229928424L63.142924,121.52849828736655L63.187903999999996,120.3374454557372L63.345334,120.28056447708718L64.056018,122.13773835628965L64.39336800000001,124.8108995666434L64.90614,122.82055720965226L65.090558,124.83173624498289L65.598832,126.17517674838903L65.72927399999999,125.21123986115748L65.75176400000001,125.8604974851704L65.79224599999999,124.93409984525042L66.19706599999999,124.93520652021925L66.21056,125.57791130349071L66.336504,126.2104094866489L66.381484,123.54007922779061L66.799798,123.82832515070433L66.95273,122.69502651048009L67.22261,123.76879189061867L68.045744,123.83430088223395L68.162692,124.73316453439274L68.176186,125.15709905189007L68.270644,125.95402821843138L68.30213,126.82069028311827L68.563014,125.4708831233504L68.590002,125.799931261485L68.84188999999999,124.2604620472408L69.76398,125.66752977032003L70.015868,125.35529136519212L70.15980400000001,126.19212049271104L70.55113,126.83036120928408L70.699564,126.9169746995882L71.05490599999999,127.5002946581086L71.08639199999999,126.17954197028573L71.14486600000001,127.62170972579841L71.414746,127.74358868365687L71.54968600000001,127.59178479119713L71.65314,125.9317655062948L71.734104,128.19291501619065L72.386314,127.6684110951175L72.674186,127.64367610058594L73.35338399999999,127.98653839948798L73.470332,126.68050474478619L74.33394799999999,126.33790424958791L74.365434,127.51693844711522L74.87370800000001,125.2600377262035L74.887202,128.5783054788784L74.98166,126.7136550445916L75.24704200000001,126.28860067072338L75.440456,126.03838748832781L75.82278600000001,125.90021946760885L75.962224,125.9515724821858L76.03419199999999,124.46919461750818L76.11065799999999,126.41183501986058L76.290578,128.03792772703895L76.49748600000001,129.10212201429977L76.501984,129.63437588653198L76.60094,128.5465470769479L76.75837,128.17089337220634L76.875318,128.5800562074072L76.9158,130.41408033085497L77.149696,128.6368132244668L77.16319,125.6717223195723L77.316122,126.07777397282233L77.334114,125.91809680078269L77.437568,126.31775790027717L77.464556,128.63969733568283L77.473552,128.03941513450295L77.68046,128.83126986615488L78.049296,127.06855517112066L78.134758,128.22469024675073L78.17524,129.89782575530725L78.481104,129.38245591975996L78.4901,127.47222020627979L78.75998,127.57332157569641L79.475162,127.43882616988782L79.71355600000001,127.56175394434906L79.803516,129.465368787468L79.942954,129.64073846124657L79.983436,129.10259593899332L80.059902,128.18662175001236L80.13636799999999,129.5974998935119L80.505204,130.3133551646613L80.60865799999999,129.05750708830774L80.67163,129.50126270791432L81.00448200000001,128.8658392568859L81.517254,127.38472140238912L81.949062,127.48961340972971L81.971552,126.86808236050666L82.13347999999999,128.86249278658556L82.272918,129.56230972756754L82.709224,128.541915667083L82.826172,127.88435729483516L82.844164,128.95903753450634L82.91613199999999,129.2156048641001L83.105048,129.9002353520791L83.39292,130.82339465123744L83.406414,129.44566749796306L83.478382,127.1379040089062L83.91019,127.68767399503386L84.148584,127.04144314421823L85.106658,130.21164204989225L85.232602,127.2769694769696L85.70939,127.57056215073561L86.033246,126.49634831456967L86.312122,127.23819842034845L86.662966,128.48288506975874L86.739432,127.9089445850102L86.86087799999999,128.56740305634696L86.95533599999999,129.93020289591007L87.009312,130.37536631387016L87.07678200000001,130.5809145764746L87.333168,130.3027192828797L87.66152199999999,128.6566602319759L88.156302,129.13568887728508L88.394696,129.2670520553798L88.412688,130.3090773913422L88.853492,130.52196416001294L89.04240800000001,130.78474129988308L89.271806,131.35868268407967L89.37526,131.19299230855893L89.640642,131.48448038030978L89.654136,131.71242544825645L90.07694799999999,131.25104459823993L90.22988000000001,131.96608121379944L90.38730999999999,130.82965733193925L90.562732,131.6976731849905L90.97654800000001,129.8411215292603L91.075504,131.0499457479558L91.44434,132.0149415773232L92.078558,129.95558954186265L92.375426,129.67216097657098L92.406912,130.19144707852405L92.44739399999999,127.92085286989635L92.52386000000001,129.22930637769431L92.604824,129.21540132950537L92.870206,129.52280128094213L93.095106,128.08359764219372L93.306512,129.62065626611036L93.58988599999999,130.8882560056594L93.92723600000001,131.80071698613392L93.954224,132.52949090917636L94.089164,131.59972655519414L94.12964600000001,131.713467964904L94.174626,130.9123574193576L94.588442,131.78077517129535L94.62892400000001,131.5937083374116L94.646916,132.4379140610976L94.723382,131.8356109880876L95.011254,132.05415906504172L95.096716,130.5208924434126L95.703946,130.64325547455087L95.98732000000001,131.49588833647516L96.194228,129.3973542161275L96.39214000000001,129.02813770111248L96.778968,130.04612509613378L97.039852,129.60925238146382L97.710054,131.35530148687903L97.71905000000001,132.77549059508735L97.86298599999999,132.19410541735098L98.00242399999999,133.16575344362153L98.267806,133.37109942194616L98.91102,133.84857675190662L99.01897199999999,134.6002519891017L99.059454,134.21281810033804L99.306844,133.14162141719373L99.986042,132.43375222521914L100.049014,131.74021135081858L100.50781,132.70476342624434L100.602268,131.43052714913873L101.20050200000001,131.12600471125282L101.524358,132.35532539162236L101.623314,131.92584557956195L101.69978,132.81434086879986L101.906688,129.47979034029888L102.05962,130.59465419350855L102.35199,131.2437192819805L102.71183,130.47938873358856L103.053678,131.94355111873756L103.215606,131.0034836905234L103.714884,132.91379267273908L103.719382,133.25205257225264L103.87231399999999,132.09070842351184L103.93528599999999,130.27945034706718L104.124202,131.13776951217943L104.875368,131.60538661643983L105.014806,132.0243491919563L105.167738,133.17366309766868L105.653522,132.15953316355504L105.801956,131.61820129844943L105.88292,128.75098112021112L105.891916,130.6751445655045L105.999868,131.60364197689938L106.004366,128.79084276556165L106.01786,128.1684517228555L106.10332199999999,128.9535102313403L106.260752,130.31778693698794L106.40019,130.58037638530539L106.57561199999999,132.1597373542566L106.620592,134.14225356053856L107.020914,134.4236173797667L107.08388599999999,134.3210507385255L107.214328,131.4358261047468L107.25031200000001,133.00034559968014L107.380754,132.24019682474128L107.826056,132.53944118929945L108.865094,133.16737333928643L108.99103799999999,133.48658705405L109.03152,130.5810411968923L109.157464,132.26279754741657L109.31489400000001,133.045428701065L109.36887,133.94415352052135L109.65674200000001,133.06136052086273L110.26397200000001,130.36045180397548L110.506864,132.4866797951192L111.105098,131.35701154524972L111.10959600000001,131.6106049122614L111.739316,132.5917337164241L112.283574,133.07142927036793L112.31506,133.4325596655755L112.87731,133.59441135590095L113.38558400000001,131.53322282103682L113.471046,133.18618473754572L113.59699,132.5924038577127L113.695946,132.50847456004686L113.79040400000001,132.46672484040866L114.096268,133.15212308946886L114.33466200000001,132.71694335472583L114.595546,133.59835015993335L114.79345799999999,133.65161363204567L115.75603000000001,133.12310658537405L115.836994,132.93550867442306L115.93594999999999,132.45919475590327L115.962938,132.95710520743592L116.45322,131.3657143098614L116.516192,131.95328341509816L116.56567,133.13976576352394L116.81306000000001,134.1193763704013L116.862538,133.03547734238896L116.889526,131.7889417888902L117.15490799999999,132.8518837999431L117.276354,131.94066118989426L117.37980800000001,133.133007657384L117.694668,132.68029311084786L117.793624,131.55803048536148L117.942058,132.3470306587082L118.05001,133.5734050236533L118.22993,130.29213608170795L118.310894,132.25845624182315L118.337882,132.19499536693672L118.35137599999999,132.60676219449604L118.693224,133.10142171938193L118.697722,133.38595063586055L118.90912800000001,133.27364925584425L119.04856600000001,132.13877882548545L119.170012,132.04085078991116L119.183506,132.25483122236255L119.205996,134.23414893173845L119.525354,134.77637072663978L119.574832,134.1618119233718L119.79523400000001,135.2371348971268L120.05162,135.00439420383378L120.25402999999999,134.08977393532516L120.43844800000001,133.79518058000474L120.496922,134.4142894631533L120.50142000000001,132.4162054373188L120.600376,133.75030503840338L120.67234400000001,134.23687286804048L121.171622,134.34481158902926L121.26608,134.7462356185683L121.576442,134.4599869535915L121.58993600000001,134.442714055842L121.594434,134.0513218817453L121.810338,131.87723905580015L121.91829,133.0166923946166L122.512026,132.90331981727354L122.87186600000001,132.5536682256989L122.93034,132.78874772645267L123.21821200000001,132.76897952146396L123.510582,133.29523686336265L123.614036,132.98116933401857L123.991868,134.64999787052153L124.005362,135.26176899370088L124.02785200000001,133.9475657553358L124.329218,131.91522018107347L124.41018199999999,132.91903338536258L124.747532,131.87920556867718L124.92295399999999,132.1370125913894L125.633638,135.26171026092788L125.82255400000001,135.14882796682133L125.827052,134.999115327515L126.119422,134.17999348720073L126.14641,134.3237372151731L126.263358,134.22092705547217L126.357816,134.62173474776387L126.384804,135.07753572378596L127.095488,135.52184034946532L128.17051,135.08156205155237L128.228984,135.07495947659862L128.38191600000002,134.99772802796656L128.489868,134.70259086428644L128.55284,136.03558118751056L128.678784,134.9918453334215L129.191556,134.46034301965278L129.348986,133.03222189607254L129.515412,133.81181590388167L129.92473,134.5192975840403L130.50947,135.69658342088226L130.84682,134.48766074718918L131.25164,134.87357933714213L131.265134,134.9045314113316L131.92633999999998,134.61203045801784L131.944332,135.2544011694307L132.137746,135.05419666357076L132.18722400000001,133.72503662903722L132.232204,132.0689270576541L132.385136,134.68207890167966L132.430116,135.12186093770728L132.547064,133.92781780637173L132.749474,134.35612687373464L132.852928,135.9596835699663L133.082326,135.30154998517492L133.190278,133.68157249232914L133.27574,132.86930853613325L133.487146,133.45747216797372L133.99542,133.3142028065278L134.215822,134.3612080656902L134.58016,132.69326604213268L134.629638,133.7730850777114L134.719598,134.11689129315684L135.04795199999998,131.80843338493412L135.304338,133.16729471269682L135.78562399999998,132.91984064417414L136.419842,133.4789485960715L136.595264,133.50713438188296L136.725706,134.33992222349636L137.117032,135.1608622840365L137.332936,132.8683643432342L137.34193199999999,134.25850112877495L137.512856,134.8905886401178L137.61631,132.670042353781L137.935668,132.30831661750142L138.569886,133.05586969864473L138.857758,134.86416512626582L139.298562,134.06569009200004L139.33454600000002,133.92016320278856L140.01824200000001,131.6001650687547L140.117198,132.00660927816634L140.265632,132.90120116849835L140.598484,134.91938081859516L140.77390599999998,135.9690363159335L141.16073400000002,135.1020500207821L141.48908799999998,134.22994307384528L141.601538,135.61261233457762L141.660012,135.72813084800526L141.70049400000002,134.3444497497918L142.055836,135.29352629960917L142.32121800000002,134.21093467397841L142.83399,133.82588313967364L142.90146,134.26559864849077L143.25680200000002,134.12790849808803L143.64812799999999,135.48960682318616L144.04845,134.81734633132876L144.214876,134.71845408381964L144.372306,134.16249083016214L144.70515799999998,134.14532242789747L145.26290999999998,134.4279427508461L145.35736799999998,134.83096775238852L145.39785,134.2956873054269L145.469818,134.79838465140404L145.753192,135.73212681648272L145.75769000000003,135.765820511259L145.82066200000003,132.12610457533333L146.373916,133.68604147874825L146.423394,135.95893119729575L146.873194,135.87678449615953L147.17455999999999,135.143011039992L148.07415999999998,135.1564890315044L148.645406,135.37023891681426L148.649904,134.38868406599974L148.780346,134.33409059429624L148.78934199999998,133.83925313311764L149.234644,132.87475005178962L149.909344,134.43928519773615L150.197216,135.6476552598961L150.224204,131.84969578898045L150.251192,132.13639775941425L150.269184,133.6026477013535L150.273682,133.87031415559798L150.790952,134.40404912885617L151.038342,133.3816751152941L151.578102,134.13189861241983L151.82999,135.211125734559L152.270794,135.9259951263246L152.31577399999998,133.07181701251238L152.34725999999998,134.60650145415394L152.428224,134.70725889934369L152.68461000000002,135.30166437260993L152.882522,134.04319997395146L153.26935,134.0882398081995L153.67866800000002,134.70683222209837L153.68766399999998,134.92788003745386L153.8316,136.47845567762297L153.912564,136.85889074937532L155.185498,137.24310030129624L155.302446,137.18908714026637L155.50035799999998,136.48465242519956L155.74774799999997,136.07140988863858L156.026624,136.94029929980954L156.08509800000002,136.4555061092152L156.49891399999998,138.4079389449245L156.629356,137.42533349253455L156.80477800000003,137.80298665861372L158.06421799999998,137.96081159586305L158.41956000000002,137.41128384352842L158.536508,135.94730554065504L158.635464,136.512118426483L158.720926,135.85470522765314L158.83337600000002,136.714338438383L158.90534399999999,136.3907202408197L158.95932000000002,133.9676077841645L159.15273399999998,135.41885194815387L159.45859800000002,135.9071601445074L159.73747400000002,135.708226303407L160.67305800000003,134.80639963050498L160.704544,136.01490011415586L160.745026,136.10275029519403L160.969926,136.84022397624972L160.98342000000002,133.97903109740275L161.077878,135.15522255066395L161.21731599999998,136.2600687369417L161.302778,136.32718313104357L161.91450600000002,136.00277586635184L162.278844,136.91450273688193L162.283342,135.80435097469586L162.436274,135.45944095459345L163.05249999999998,137.47405146516152L163.07499,135.2635268279231L163.191938,135.67726555841338L163.398846,135.90863835223638L163.466316,136.343284648922L163.835152,134.05691344873125L164.02856599999998,134.41361594454602L164.145514,133.29943281564806L164.32993199999999,131.65579877966675L164.523346,135.1426359205974L165.11708199999998,135.0411392411582L165.14856799999998,134.81661998126137L165.16656,132.65142239431117L165.625356,131.7842409298069L165.805276,133.63894344101016L166.228088,134.9181867512932L166.29106000000002,135.163343596467L166.372024,136.9633863973669L166.56094,136.82942582741958L167.78439600000002,136.63206412647602L168.02279,136.3868550218229L168.558052,136.93014218876542L169.376688,134.91750547082185L169.54311399999997,135.80082273412864L169.965926,137.69492615744218L170.681108,136.18101644859107L170.798056,134.04051435741474L170.97797599999998,135.13583293409758L171.184884,135.2541001771622L171.477254,135.84666320780227L171.50874,136.53571599835286L171.544724,137.03574417247307L171.760628,135.133654958743L171.80111,135.38219420878016L172.066492,136.95538851805554L172.124966,134.8603952077672L172.777176,136.32321890280517L172.831152,134.96312874498398L172.97958599999998,135.90567222474203L173.168502,135.63258664479042L173.460872,136.25406455742882L173.793724,136.25923507930108L174.00512999999998,137.1485104781573L174.29749999999999,137.05847350057707L174.427942,137.43309871297762L174.486416,136.68926192270547L174.796778,135.54724823042216L174.81027200000003,134.37073507560876L175.003686,135.7451860455976L175.224088,136.14080640961564L175.475976,136.50649087439245L176.06971199999998,136.52293351396264L176.105696,135.63504016949253L176.137182,134.6204558795629L176.555496,135.0464610665783L176.609472,136.1889086295648L176.699432,137.26844926652214L177.212204,137.67078972499257L177.230196,137.28100535817987L177.351642,135.95893831959015L177.360638,136.7641751078135L177.765458,135.72954304316383L178.080318,136.47550478430563L178.201764,135.192777495694L178.23325,135.46920938449722L178.359194,136.63270738272982L178.970922,132.98389015633427L179.384738,134.21286933011584L179.416224,135.62801423303353L179.821044,136.51530664127128L179.861526,136.46101933315217L179.915502,136.53506930825006L180.00096399999998,136.9615539581807L180.07743,137.59981591367477L180.320322,138.18595692217423L180.37429799999998,137.34944528541826L180.486748,137.94390139808462L180.65317399999998,136.74260534380363L180.914058,137.4184492311041L181.12096599999998,137.33689940567865L181.20642800000002,137.69269713193535L181.23791400000002,138.3184610414147L181.444822,138.3929032785461L181.678718,138.02470309588273L181.69221199999998,138.09467586906527L181.849642,136.77382685669417L182.434382,136.9786829727399L182.66827800000002,136.81580133845907L182.672776,137.92576695881948L182.767234,137.33268750875067L183.014624,137.845178591586L183.40595,137.33072101750943L183.410448,136.9336948332292L183.58137200000002,136.70931403803894L183.73880200000002,138.3599890777462L183.779284,135.41116449940705L183.95470600000002,137.54359882137643L184.17510800000002,135.93475588000697L184.42249800000002,136.1180310239606L184.566434,136.6671743495483L184.993744,137.10231402102062L185.67744,137.48587398984887L185.897842,137.5744286742251L186.05977,137.66925804956853L186.33864599999998,136.959245793703L186.684992,137.24041121870334L186.698486,133.91335105157475L187.040334,134.60436863239374L187.134792,135.98947092072174L187.17077600000002,136.79298234957787L187.22925,137.37248509296595L187.23824599999998,136.5510332870792L187.26523400000002,137.44041171600287L187.70603799999998,137.88847329845672L187.715034,137.42468793876446L188.10636000000002,137.31708730814796L188.119854,137.16583931616077L188.2413,136.8977446490431L189.010458,137.212693846621L189.041944,135.9885070833497L189.338812,136.52104788716417L189.361302,136.8576634052957L189.829094,138.22319945183241L189.90556,136.7611267498164L190.20692599999998,136.92891557022287L190.296886,136.74705926995273L190.778172,136.76743262498417L191.012068,137.84671464853787L191.07953799999999,137.6627982552628L191.147008,136.70222213622432L191.218976,136.11983417940223L191.27745,136.67449993772556L191.43488,136.88135610586716L191.520342,137.84346285962488L191.551828,137.60142658002684L192.599862,137.75415661894334L192.869742,138.3707109931347L193.004682,138.32640658983107L193.090144,138.45679389067868L193.490466,138.55069784950788L193.665888,138.1089544984142L193.68388000000002,139.3660417026652L193.724362,138.68059484682357L193.75135,139.01038906018334L193.8638,138.1651273551011L194.12018600000002,138.6666147882649L194.776894,139.16087476732514L195.298662,139.53490628087738L195.447096,138.8543874502867L195.93737800000002,137.9783696937972L195.964366,136.5567360698773L196.00484799999998,137.09891000322608L196.58509,138.05870228477676L196.738022,137.691952358675L197.88951,135.80650468311052L197.97497199999998,135.01862970701927L198.168386,135.1329846798468L198.478748,137.34970685032266L199.445818,137.6312453855492L199.900116,137.48000410797158L200.14750600000002,138.5484717952238L200.214976,138.85758157501056L200.525338,134.39700951750916L200.67827,136.23156801588658L201.011122,137.09783366864409L201.08309,137.2917316496374L201.132568,136.84746144435633L201.28549999999998,137.238942564856L201.64534,137.87570076176473L201.919718,138.11907084360905L201.924216,135.7395902326579L202.18509999999998,137.8040359169766L202.27506000000002,137.5769695718493L202.468474,137.4552120678721L202.49096400000002,137.213596984712L202.81482,136.18702972231372L203.449038,137.08881554781237L203.552492,137.4617916224042L203.55698999999998,134.96054012046093L204.168718,135.4866402881385L204.600526,136.6360015007986L204.86590800000002,134.47275797271982L204.915386,135.56967167376757L206.192818,136.11522238553223L206.37723599999998,137.80531355690266L206.692096,137.90559247974068L206.81804,138.2444386678818L207.047438,138.36399359148587L207.483744,136.44358504959686L207.62318199999999,137.72230479534983L207.645672,138.51557601559256L207.722138,137.39728174521113L207.951536,137.88217999341782L208.12246,135.60011240993288L209.040052,136.808990357517L209.36390799999998,135.83833393293006L209.836198,135.8790627486116L210.22752400000002,132.6718076696866L210.2815,135.3542944200451L210.425436,135.4312375062366L210.55138,136.09787413646015L210.94270600000002,136.68570405399885L210.987686,135.22387013094908L211.014674,136.33755415668819L211.032666,136.87804216791176L211.172104,138.67898320779955L211.1811,139.20902369991393L211.244072,138.79647814486785L211.27105999999998,134.5181230403066L211.599414,136.02307803992727L212.71042,136.85682850816428L213.106244,137.60143168792092L213.223192,136.8805171469529L213.628012,137.2320892259017L213.749458,137.6443412818144L214.06431800000001,137.45999040546164L214.370182,137.2039957792995L214.44215,137.9200181455277L214.739018,137.23186631202418L214.95492199999998,136.69045196511362L215.02689,137.54473617072438L215.157332,137.7618964836548L215.269782,136.32719279842513L215.355244,137.39140435169298L216.002956,138.1215246575593L216.03894000000003,138.87047722032239L216.326812,138.865133213453L216.44825799999998,137.87432964725804L217.055488,138.515691485686L217.086974,137.60253457120936L217.167938,136.2069077810432L217.631232,137.21042904490037L217.739184,136.91402998705985L217.784164,137.9089501936561L217.847136,136.50344098173807L218.126012,136.372626403351L218.553322,137.09647642987278L218.85019,137.4184383010812L218.90866400000002,137.74299197205318L219.0526,138.57583267195255L219.13356399999998,135.82457175132117L219.178544,137.50236156585072L219.273002,136.8205571635337L219.763284,136.904937420658L220.078144,137.12703220725544L220.518948,136.53789070058158L221.045214,136.6793073344725L221.216138,136.7525858587215L221.364572,135.5515400668062L221.441038,137.06538330046075L221.61646000000002,137.491888912052L222.704976,136.13391703079134L222.77694400000001,137.70690122778302L223.424656,138.3655965799017L223.658552,137.9219096000257L223.856464,138.1716654259936L224.013894,137.76453529893666L224.14883400000002,138.64678378977146L224.256786,137.16459852936887L224.36473800000002,136.92043561247982L224.400722,136.8431364165588L224.4502,136.36260430669395L224.454698,136.7599981151991L224.72457799999998,138.32906553177781L224.846024,138.9398826747137L224.86401600000002,137.8367452874995L224.931486,136.45132315596334L225.04843400000001,135.50447040733658L225.09791199999998,137.25986685823668L225.14739,137.6857620494929L225.295824,138.42815391253902L225.678154,138.66504386573826L225.916548,136.4007561546064L225.93454,137.57024217061814L225.99301400000002,135.72362868598307L226.352854,137.32051363138896L226.37084599999997,138.04975707316072L226.49229200000002,138.22001353221611L226.532774,138.24316692378966L226.9241,137.65325241971846L226.955586,137.951654744461L227.15349799999998,138.096969636758L227.391892,138.76100500915692L227.54932200000002,138.53901299966284L227.56731399999998,138.81097221182802L227.841692,138.82238087539088L228.277998,138.86996834079042L228.448922,139.226473053258L228.65582999999998,139.12306957892798L228.660328,139.2917372963507L228.673822,139.37130558598295L228.92571,135.30380422483296L229.303542,136.7687010075366L229.411494,137.08750003881272L229.631896,136.8662687970168L229.694868,137.68831184973843L230.36057200000002,136.3566284223989L230.495512,138.0849001434204L230.760894,137.5377341947465L230.99029199999998,138.04666999500773L231.91688000000002,138.42442380880203L231.957362,138.7781750909002L232.047322,139.9965670838498L232.18676,138.93797325372682L232.19575600000002,138.581198471286L232.80298599999998,138.85415139591038L232.964914,138.22198152691058L233.162826,137.5208511805801L233.42820799999998,137.37175931507323L233.48218400000002,137.51052994712575L233.990458,135.57022615076642L234.156884,137.2279781774049L234.296322,138.3274438632023L234.45375199999998,138.24723104117896L235.128452,138.6808173582036L235.168934,138.21732394898947L235.29038,139.27531147818956L235.42532,138.42349078711223L235.578252,138.63769321171796L235.780662,138.73750421990692L235.81664600000002,138.4182949616081L235.94259,137.19774902132008L236.450864,138.2253857390097L236.522832,138.5542782571973L236.626286,138.292069190728L236.801708,138.53331879127353L236.878174,138.48231768653153L237.26500199999998,137.17977758347934L237.305484,137.57709381206436L237.458416,136.8917044300706L237.97568600000002,136.6304153880617L238.151108,136.84342503381072L238.385004,138.0371714885426L239.680428,138.23013826396962L239.774886,139.0964277213573L240.409104,139.57349298804107L240.60251799999998,139.6346042668278L240.840912,139.34553430551836L240.872398,137.97138471972946L240.962358,138.08712253098707L241.079306,137.3576456104491L241.484126,137.98716133259921L241.71802200000002,138.09618567968232L241.987902,137.11817912242253L242.019388,137.2140767107204L242.14983,137.37361479579184L242.38822399999998,138.06371150697714L242.406216,137.3114741786718L242.46469000000002,138.31484076428626L242.52766200000002,137.7816831304433L242.635614,137.7413977047087L242.68959,136.48881544125675L242.833526,136.76990704426905L242.865012,138.26599935812686L242.927984,138.69860497569618L243.436258,135.41895721934674L243.485736,135.0843695361001L243.512724,135.9936758677765L243.69714199999999,137.83647120544396L243.715134,138.07888325671712L243.778106,138.0759300398956L243.88155999999998,138.0284189684252L244.358348,136.83371287981845L244.551762,136.73938848668985L244.74967400000003,136.81076561919193L244.830638,137.62781965874797L244.90260600000002,136.67523105663324L245.037546,137.20423702161145L245.347908,137.68451376035375L245.910158,137.8757490775911L246.10357199999999,138.05507078973383L246.112568,138.34318428651162L246.278994,139.6028916865979L246.283492,136.74720857541308L246.328472,138.64956942797033L246.36445600000002,138.5052643340304L246.47690599999999,138.26985882919604L246.85023999999999,138.52928618475377L246.87273000000002,138.11095905343532L246.94019999999998,138.37759001929015L247.81281199999998,137.86808337659346L248.433536,137.28323539647067L249.387112,138.36075644497367L249.737956,138.31154306956165L249.980848,136.71565325937942L250.09329799999998,137.42278338708934L250.660046,138.15785552459576L251.02438400000003,138.01535790149396L251.24478599999998,137.2399262443587L251.298762,138.60330258504615L251.384224,138.7823758903724L251.64960599999998,137.53975751952368L252.17137400000001,136.56672801999417L252.526716,138.0774589629118L252.715632,138.82258289490284L253.039488,137.0250537285889L253.264388,136.608195252779L253.399328,137.51007544686536" style="fill: none;" fill="none"></path></g></g></g></g><g opacity="0.2"><g><g><g><path stroke="rgb(255, 112, 67)" stroke-width="2px" d="M33.784478,-35.55496141043574L34.031867999999996,14.126795167272746L34.045362000000004,-19.727914127436577L34.126326,-61.43689909848297L34.34223,9.52391642332077L34.373716,17.319759363477885L34.571628000000004,10.381489358165055L34.706568,4.537999944253414L34.962954,10.135577933354824L35.093396,-11.39073516563937L35.165364000000004,13.816960199312746L35.237332,32.52833557670766L35.718618,22.92884646762502L35.912031999999996,2.5745449174534087L35.925526,18.508003559979528L36.406812,21.091943751681924L36.505768,31.011602054942728L36.555246000000004,18.2369399233298L36.735166,23.902421691200942L36.811632,49.226598891344935L36.870106,21.283354721286088L37.270428,20.138653343374074L37.540307999999996,36.30430838194761L37.949626,51.97897977720608L38.003602,51.33909695798701L38.147538000000004,43.81534867936915L38.174526,37.61466908454895L38.286976,41.62641090696508L38.489386,42.20397666367617L38.858222000000005,56.35520088672638L39.069627999999994,41.86843800544739L39.146094000000005,53.5190432342616L39.155089999999994,48.57216183705765L39.177580000000006,59.34090510281649L39.29003,45.653138556263656L39.294528,45.82632676037875L39.348504000000005,46.50505284287712L39.370994,57.09195209091361L39.501436,66.81132781505585L39.568906,47.21442194418475L40.18963,63.4020881652832L40.43702,61.49318154833533L41.458065999999995,78.81075513904746L41.777423999999996,72.0601556409489L41.790918000000005,70.58034719662234L42.051801999999995,61.870944272388115L42.330678,75.76206249540503L42.641040000000004,78.59637389399789L42.704012000000006,72.89962569691919L42.713007999999995,72.8896031759002L42.717506,79.3196258653294L42.97839,79.7201910235665L43.76554,84.5427979555997L44.386264,79.10864940014753L44.39526,85.91415696794337L44.62016,74.04581366885792L44.939518,87.43542220375754L45.173414,102.98040025884455L45.267872,90.37166120247409L45.299358,79.926396001469L45.780643999999995,96.70512721213427L45.906588,86.41010391712189L46.032532,99.63697836073962L46.266428,97.38862478191203L46.545304,81.3287816697901L46.986108,107.31377389214256L47.125546,105.32725268060511L47.148036,90.46548446741971L47.530366,102.67068517749959L47.539362000000004,95.43449693376368L47.9037,103.40079466321252L48.317516,104.13159949129277L48.393981999999994,93.02669415690683L48.48844,114.1075925149701L49.091172,105.72479669614272L49.109164,108.94509504058145L49.145148,108.81765556877309L49.648923999999994,107.76701722903685L49.711895999999996,95.63703338124536L49.882819999999995,94.74354241652922L49.936796,104.85151861472563L50.125712,107.19481040401892L50.472058,105.0598575743762L50.8274,107.49660098010844L50.836396,110.49784250151028L51.079288,107.19139363548973L51.205232,102.4685083898631L51.677521999999996,112.3688409707763L52.154309999999995,107.46979433298111L52.217282,111.6661255766045L52.491659999999996,109.56809782440013L53.071902,116.721732145006L53.656642000000005,116.33466621962461L53.854554,115.8186262737621L54.236883999999996,121.45387263731524L54.326844,112.12089147351006L54.488772,108.86618567054921L54.520258,114.67334944009781L54.682185999999994,120.40184361284429L54.776644,112.40833162177692L55.055519999999994,114.71298395503652L55.14548,115.07059373909777L55.644758,110.81850323081017L55.689738,120.69268854097888L56.000099999999996,115.71693844686854L56.058574,119.95226880637082L56.085561999999996,114.1080121181228L56.144036,117.15476259860125L56.400422,121.81473134864461L56.503876,116.68925486098635L56.791748,123.02767218784854L57.439460000000004,123.48253399404612L57.682352,115.36372850157998L57.812794,118.81172749400139L58.055686,119.51276447556236L58.231108,117.2351345853372L58.244602,115.43196796287191L58.298578,119.17190285162494L58.438016,125.1997059475292L58.941792,110.51361958005212L59.445568,119.53201826594093L59.562516,120.95900466767225L60.075288,118.63574593175542L60.111272,109.52534625746988L60.29569,116.9243045584722L60.709506000000005,118.98327325149016L60.997378,119.73029873858798L61.213282,120.06556165760213L61.316736,118.94258373433894L61.6226,124.40965315428647L61.66758,119.63087676871908L61.681073999999995,124.16333411498503L61.748544,121.25992007147181L61.896978000000004,122.79106396436691L62.715614,123.50272290002215L63.01698,120.12735121900386L63.142924,121.33266726948999L63.187903999999996,118.55086620829323L63.345334,120.1952430091121L64.056018,124.9234991750934L64.39336800000001,128.82064138217407L64.90614,119.83504367416555L65.090558,127.84850479797885L65.598832,128.19033750349826L65.72927399999999,123.7653345303102L65.75176400000001,126.83438392118975L65.79224599999999,123.54450338537043L66.19706599999999,124.93686653267252L66.21056,126.54196847839789L66.336504,127.15915676138619L66.381484,119.5345838395032L66.799798,124.26069403507493L66.95273,120.99507855014369L67.22261,125.37943996082652L68.045744,123.93256436965683L68.162692,126.08146001263098L68.176186,125.79300082813609L68.270644,127.14942196824335L68.30213,128.12068338014865L68.563014,123.44617238369855L68.590002,126.29350346868688L68.84188999999999,121.95125822587447L69.76398,127.77813135493886L70.015868,124.88693375750022L70.15980400000001,127.44736418398944L70.55113,127.78772228414363L70.699564,127.04689493504438L71.05490599999999,128.37527459588918L71.08639199999999,124.19841293855147L71.14486600000001,129.7849613590674L71.414746,127.92640712044457L71.54968600000001,127.36407895250754L71.65314,123.44173657894135L71.734104,131.58463928103447L72.386314,126.88165521350774L72.674186,127.60657360878858L73.35338399999999,128.50083184784108L73.470332,124.72145426273346L74.33394799999999,125.82400350679052L74.365434,129.28548974340612L74.87370800000001,121.87468664483592L74.887202,133.55570710789073L74.98166,123.91667939316142L75.24704200000001,125.65101910992102L75.440456,125.66306771473452L75.82278600000001,125.69296743653038L75.962224,126.02860200405121L76.03419199999999,122.24562782049179L76.11065799999999,129.32579562338915L76.290578,130.47706678780642L76.49748600000001,130.69841344519097L76.501984,130.4327566948804L76.60094,126.91480386257172L76.75837,127.607412815094L76.875318,129.19380046020854L76.9158,133.1651165160266L77.149696,125.97091256488454L77.16319,121.2240859622305L77.316122,126.6868514526974L77.334114,125.67858104272322L77.437568,126.91724954951894L77.464556,132.12260648879138L77.473552,127.13899183273315L77.68046,130.01905196363276L78.049296,124.42448312856935L78.134758,129.95889286019587L78.17524,132.40752901814201L78.481104,128.60940116643906L78.4901,124.60686663605951L78.75998,127.72497362982142L79.475162,127.23708306117491L79.71355600000001,127.74614560604095L79.803516,132.3207910521464L79.942954,129.90379297191447L79.983436,128.29538215561348L80.059902,126.81266046654093L80.13636799999999,131.7138171087612L80.505204,131.3871380713853L80.60865799999999,127.17373497377741L80.67163,130.16689613732424L81.00448200000001,127.91270408034325L81.517254,125.16304462064397L81.949062,127.64695142074065L81.971552,125.93578578667208L82.13347999999999,131.8541084257039L82.272918,130.61203513904053L82.709224,127.0113245763562L82.826172,126.89801973646337L82.844164,130.57105789401317L82.91613199999999,129.6004558584907L83.105048,130.92718108404767L83.39292,132.2081335999749L83.406414,127.3790767680515L83.478382,123.67625877532092L83.91019,128.5123289742253L84.148584,126.07209686799483L85.106658,134.96694040840322L85.232602,122.87496061758563L85.70939,128.01095116138458L86.033246,124.88502756032076L86.312122,128.3509735790166L86.662966,130.34991504387423L86.739432,127.04803385788745L86.86087799999999,129.55509076335215L86.95533599999999,131.97440265525472L87.009312,131.0431114408103L87.07678200000001,130.88923697038132L87.333168,129.88542634248734L87.66152199999999,126.18757165562022L88.156302,129.85423184524882L88.394696,129.46409682252192L88.412688,131.87211539528587L88.853492,130.84129431301898L89.04240800000001,131.1789070096883L89.271806,132.2195947603746L89.37526,130.94445674527776L89.640642,131.92171248793602L89.654136,132.05434305017644L90.07694799999999,130.55897332321513L90.22988000000001,133.03863613713872L90.38730999999999,129.12502150914887L90.562732,132.99969696456736L90.97654800000001,127.05629404566506L91.075504,132.86318207599902L91.44434,133.46243532137436L92.078558,126.86656148867175L92.375426,129.2470181286335L92.406912,130.97037623145366L92.44739399999999,124.51496155695483L92.52386000000001,131.1919866393913L92.604824,129.19454375722194L92.870206,129.98390120809728L93.095106,125.92479218407111L93.306512,131.92624420198527L93.58988599999999,132.78965561498296L93.92723600000001,133.1694084568457L93.954224,133.62265179374003L94.089164,130.20508002422073L94.12964600000001,131.88408007946882L94.174626,129.71069160103798L94.588442,133.08340179920197L94.62892400000001,131.313108086586L94.646916,133.70422264662656L94.723382,130.93215637857264L95.011254,132.38198118047282L95.096716,128.22099251096898L95.703946,130.82680002125826L95.98732000000001,132.77483762936157L96.194228,126.24955303560603L96.39214000000001,128.4743129285899L96.778968,131.57310618866575L97.039852,128.95394330945882L97.710054,133.97437514500183L97.71905000000001,134.90577425739983L97.86298599999999,131.32202765074643L98.00242399999999,134.62322548302737L98.267806,133.67911838943309L98.91102,134.56479274684733L99.01897199999999,135.7277648448944L99.059454,133.63166726719248L99.306844,131.5348263924772L99.986042,131.37194843725726L100.049014,130.6999000392177L100.50781,134.15159153938293L100.602268,129.51917273348027L101.20050200000001,130.66922105442393L101.524358,134.19930641217667L101.623314,131.28162586147135L101.69978,134.1470838026567L101.906688,124.47796454754743L102.05962,132.26694997332314L102.35199,132.21731691468847L102.71183,129.3328929110007L103.053678,134.13979469646108L103.215606,129.59338254820216L103.714884,135.7792561460625L103.719382,133.759442421523L103.87231399999999,130.34869220040062L103.93528599999999,127.56256323240021L104.124202,132.42524825984782L104.875368,132.30681227283046L105.014806,132.65279305523092L105.167738,134.89763395623726L105.653522,130.6383382623846L105.801956,130.80620350079104L105.88292,124.4501508528536L105.891916,133.56138973344457L105.999868,132.9963880939917L106.004366,124.57164394855499L106.01786,127.23486515879631L106.10332199999999,130.13109799406746L106.260752,132.36420199545947L106.40019,130.97426055778158L106.57561199999999,134.5287788076834L106.620592,137.1160278699615L107.020914,134.84566310860896L107.08388599999999,134.1672007766637L107.214328,127.10798915407875L107.25031200000001,135.3471248420802L107.380754,131.09997366233307L107.826056,132.9883077361367L108.865094,134.10927156426692L108.99103799999999,133.96540762619537L109.03152,126.2227224111557L109.157464,134.785432073203L109.31489400000001,134.21937543153763L109.36887,135.2922407497059L109.65674200000001,131.7371710213748L110.26397200000001,126.30908872864464L110.506864,135.6760217818347L111.105098,129.66250917044553L111.10959600000001,131.99099496277896L111.739316,134.0634269226681L112.283574,133.79097260128367L112.31506,133.9742552583868L112.87731,133.83718889138916L113.38558400000001,128.44144001874056L113.471046,135.66562761230904L113.59699,131.70173253796318L113.695946,132.3825806135481L113.79040400000001,132.4041002609513L114.096268,134.1802204630592L114.33466200000001,132.06417375261134L114.595546,134.92046036774462L114.79345799999999,133.73150884021413L115.75603000000001,132.33034601536664L115.836994,132.65411180799657L115.93594999999999,131.74472387812355L115.962938,133.70397088473493L116.45322,128.9786279634996L116.516192,132.8346370729533L116.56567,134.91948928616264L116.81306000000001,135.5887922807173L116.862538,131.40962880037048L116.889526,129.9191384586421L117.15490799999999,134.44629681652242L117.276354,130.57382727482104L117.37980800000001,134.92152735861865L117.694668,132.00122129104355L117.793624,129.87463654713198L117.942058,133.53053091872823L118.05001,135.41296657107094L118.22993,125.37023266878995L118.310894,135.207936481996L118.337882,132.09980405460703L118.35137599999999,133.22441243583506L118.693224,133.84341100671077L118.697722,133.8127440105785L118.90912800000001,133.1051971858198L119.04856600000001,130.43647317994726L119.170012,131.89395873654973L119.183506,132.57580187103966L119.205996,137.20312549580228L119.525354,135.5897034189918L119.574832,133.2399737184698L119.79523400000001,136.8501193577593L120.05162,134.6552831638943L120.25402999999999,132.71784353256226L120.43844800000001,133.35329054702413L120.496922,135.34295278787613L120.50142000000001,129.41907939856702L120.600376,135.7514544400302L120.67234400000001,134.96672461249614L121.171622,134.50671967051247L121.26608,135.34837166287684L121.576442,134.0306139561263L121.58993600000001,134.41680470921779L121.594434,133.46423362060028L121.810338,128.6161148168824L121.91829,134.7258724028414L122.512026,132.73326095125893L122.87186600000001,132.02919083833694L122.93034,133.1413669775833L123.21821200000001,132.73932721398094L123.510582,134.08462287621063L123.614036,132.51006804000247L123.991868,137.15324067527598L124.005362,136.17942567846993L124.02785200000001,131.97626089778814L124.329218,128.86670181967997L124.41018199999999,134.4247531917962L124.747532,130.3194638436491L124.92295399999999,132.52372312545776L125.633638,139.94875676523554L125.82255400000001,134.97950452566147L125.827052,134.7745463685556L126.119422,132.9513107267293L126.14641,134.53935280713168L126.263358,134.06671181592074L126.357816,135.22294628620148L126.384804,135.76123718781906L127.095488,136.1882972879843L128.17051,134.42114460468292L128.228984,135.065055614168L128.38191600000002,134.88188085501844L128.489868,134.25988511876625L128.55284,138.03506667234683L128.678784,133.42624155228788L129.191556,133.6630895489996L129.348986,130.8900402107022L129.515412,134.98120691559532L129.92473,135.5805201042782L130.50947,137.4625121761452L130.84682,132.6742767366496L131.25164,135.45245722207156L131.265134,134.9509595226158L131.92633999999998,134.1732790280472L131.944332,136.2179572365501L132.137746,134.7538899047808L132.18722400000001,131.7312965772369L132.232204,129.5847627005794L132.385136,138.60180666771802L132.430116,135.78153399174863L132.547064,132.1367531093684L132.749474,134.99859047477895L132.852928,138.36501861431384L133.082326,134.31434960798782L133.190278,131.25160625306043L133.27574,131.65091260183942L133.487146,134.33971761573446L133.99542,133.09929876435888L134.215822,135.9317159544338L134.58016,130.19135300679642L134.629638,135.39281363107943L134.719598,134.63260061632502L135.04795199999998,128.3457465226L135.304338,135.20558670434085L135.78562399999998,132.54865954139018L136.419842,134.31761052391747L136.595264,133.5494130606001L136.725706,135.5891039859165L137.117032,136.39227237484673L137.332936,129.42961743203077L137.34193199999999,136.34370630708608L137.512856,135.83871990713206L137.61631,129.33922292427584L137.935668,131.765728013082L138.569886,134.17719932035965L138.857758,137.57660826769742L139.298562,132.86797754060137L139.33454600000002,133.7018728689714L140.01824200000001,128.12016786770388L140.117198,132.61627559228378L140.265632,134.24308900399643L140.598484,137.94665029374036L140.77390599999998,137.54351956194097L141.16073400000002,133.80157057805496L141.48908799999998,132.92178265344012L141.601538,137.68661622567612L141.660012,135.90140861814672L141.70049400000002,132.26892810247162L142.055836,136.7171411243352L142.32121800000002,132.58704723553225L142.83399,133.24830583821642L142.90146,134.92517191171646L143.25680200000002,133.921373272484L143.64812799999999,137.53215431083333L144.04845,133.80895559354263L144.214876,134.57011571255597L144.372306,133.32854594967583L144.70515799999998,134.1195698245005L145.26290999999998,134.851873235269L145.35736799999998,135.43550525470215L145.39785,133.49276663498443L145.469818,135.55243067036974L145.753192,137.1327400641008L145.75769000000003,135.81636105342346L145.82066200000003,126.6665306714448L146.373916,136.02594683387065L146.423394,139.368265775117L146.873194,135.75356444445524L147.17455999999999,134.04235085574064L148.07415999999998,135.176706018773L148.645406,135.69086374477905L148.649904,132.91635178977793L148.780346,134.25220038674095L148.78934199999998,133.09699694134974L149.234644,131.42799542979762L149.909344,136.78608791665596L150.197216,137.46021035313606L150.224204,126.15275658260691L150.251192,132.566450715065L150.269184,135.80202261426234L150.273682,134.2718138369647L150.790952,135.2046515887434L151.038342,131.84811409495094L151.578102,135.25723385810852L151.82999,136.8299664177678L152.270794,136.99829921397296L152.31577399999998,128.7905498417941L152.34725999999998,136.90852811661634L152.428224,134.85839506712827L152.68461000000002,136.1932725825093L152.882522,132.15550337596375L153.26935,134.15579955957153L153.67866800000002,135.63472084294665L153.68766399999998,135.25945176048714L153.8316,138.8043191378767L153.912564,137.4295433570038L155.185498,137.81941462917763L155.302446,137.10806739872152L155.50035799999998,135.4280003525994L155.74774799999997,135.4515460837971L156.026624,138.24363341656598L156.08509800000002,135.72831632332367L156.49891399999998,141.3365881984884L156.629356,135.95142531394958L156.80477800000003,138.36946640773255L158.06421799999998,138.19754900173706L158.41956000000002,136.5869922150265L158.536508,133.751338086345L158.635464,137.35933775522494L158.720926,134.86858542940834L158.83337600000002,138.00378825447777L158.90534399999999,135.90529294447464L158.95932000000002,130.33293909918177L159.15273399999998,137.59571819413793L159.45859800000002,136.63962243903768L159.73747400000002,135.4098255417564L160.67305800000003,133.453659621152L160.704544,137.8276508396322L160.745026,136.2345255667513L160.969926,137.94643449783325L160.98342000000002,129.68724177913234L161.077878,136.9195097305558L161.21731599999998,137.9173380163583L161.302778,136.4278547221964L161.91450600000002,135.51616496931422L162.278844,138.2820930426771L162.283342,134.13912333141673L162.436274,134.94207592443985L163.05249999999998,140.49596723101357L163.07499,131.94773987206545L163.191938,136.29787365414882L163.398846,136.25569754297084L163.466316,136.99525409395045L163.835152,130.62735664844513L164.02856599999998,134.94866968826813L164.145514,131.6281581223011L164.32993199999999,129.19034772569483L164.523346,140.37289163199338L165.11708199999998,134.88889422199944L165.14856799999998,134.47984109141612L165.16656,129.40362601388586L165.625356,130.48346873305061L165.805276,136.420997207815L166.228088,136.8370517167178L166.29106000000002,135.53107886422765L166.372024,139.66345059871674L166.56094,136.62848497249865L167.78439600000002,136.33602157506076L168.02279,136.0190413648432L168.558052,137.74507293917918L169.376688,131.8985503939065L169.54311399999997,137.12579862908882L169.965926,140.53608129241252L170.681108,133.9101518853144L170.798056,130.82976122065025L170.97797599999998,136.77881079912186L171.184884,135.43150104175913L171.477254,136.73550775376233L171.50874,137.56929518417877L171.544724,137.7857864336534L171.760628,132.2805211381479L171.80111,135.75500308383596L172.066492,139.31517998196864L172.124966,131.71790524233472L172.777176,138.5174544453621L172.831152,132.92299350825223L172.97958599999998,137.31948744437912L173.168502,135.222958274863L173.460872,137.18628142638642L173.793724,136.26699086210945L174.00512999999998,138.48242357644168L174.29749999999999,136.92341803420675L174.427942,137.99503653157842L174.486416,135.57350673729724L174.796778,133.83422769199717L174.81027200000003,132.60596534338865L175.003686,137.80686250058088L175.224088,136.7342369556427L175.475976,137.05501757155764L176.06971199999998,136.54759747331792L176.105696,134.3032001527873L176.137182,133.09857944466853L176.555496,135.6854688471014L176.609472,137.90257997404444L176.699432,138.88776022195816L177.212204,138.2743004126982L177.230196,136.69632880796087L177.351642,133.97583776170558L177.360638,137.9720302901485L177.765458,134.17759494618934L178.080318,137.5944473960183L178.201764,133.26868656277657L178.23325,135.883857217702L178.359194,138.37795438007873L178.970922,127.5106643167409L179.384738,136.05633809078824L179.416224,137.75073158740997L179.821044,137.84624525362796L179.861526,136.3795883709734L179.915502,136.6461442708969L180.00096399999998,137.60128093307668L180.07743,138.55720884691584L180.320322,139.06516843492335L180.37429799999998,136.0946778302843L180.486748,138.83558556708422L180.65317399999998,134.94066126238215L180.914058,138.43221506205472L181.12096599999998,137.21457466754046L181.20642800000002,138.22639372132042L181.23791400000002,139.25710690563375L181.444822,138.5045666342432L181.678718,137.4724028218876L181.69221199999998,138.1996350288391L181.849642,134.79255333813754L182.434382,137.28596714680845L182.66827800000002,136.5714788870378L182.672776,139.59071538936007L182.767234,136.4430683336475L183.014624,138.61391521583903L183.40595,136.5590346563946L183.410448,136.33815555680883L183.58137200000002,136.37274284525353L183.73880200000002,140.83600163730708L183.779284,130.98792763189837L183.95470600000002,140.74225030433047L184.17510800000002,133.52149146795273L184.42249800000002,136.39294373989105L184.566434,137.49088933792981L184.993744,137.75502352822912L185.67744,138.0612139430913L185.897842,137.70726070078936L186.05977,137.8115021125837L186.33864599999998,135.89422740990466L186.684992,137.66215935620394L186.698486,128.92276080088183L187.040334,135.64089500362223L187.134792,138.06712435321373L187.17077600000002,137.99824949286202L187.22925,138.24173920804805L187.23824599999998,135.31885557824916L187.26523400000002,138.77447935938835L187.70603799999998,138.56056567213753L187.715034,136.7290098992261L188.10636000000002,137.1556863622232L188.119854,136.93896732817996L188.2413,136.49560264836657L189.010458,137.68511764298785L189.041944,134.15222693844277L189.338812,137.3198590928858L189.361302,137.36258668249303L189.829094,140.2715035216375L189.90556,134.56801769679242L190.20692599999998,137.18059880083257L190.296886,136.47427481954747L190.778172,136.79799265753138L191.012068,139.4656376838684L191.07953799999999,137.38692366535014L191.147008,135.26135795766658L191.218976,135.24625224416906L191.27745,137.50649857521057L191.43488,137.19164035807955L191.520342,139.28662299026144L191.551828,137.2383721606298L192.599862,137.98325167731804L192.869742,139.29554255442184L193.004682,138.2599499848756L193.090144,138.65237484195018L193.490466,138.69155378775162L193.665888,137.44633947177368L193.68388000000002,141.2516725090417L193.724362,137.65242456306112L193.75135,139.50508038022303L193.8638,136.89723479747772L194.12018600000002,139.41884593801063L194.776894,139.90226473591545L195.298662,140.09595355120572L195.447096,137.83360920440066L195.93737800000002,136.66434305906296L195.964366,134.4242856339975L196.00484799999998,137.9121709032492L196.58509,139.4983907071027L196.738022,137.1418274695223L197.88951,132.97833316976374L197.97497199999998,133.8368172428825L198.168386,135.30451713908803L198.478748,140.67479010603645L199.445818,138.053553188389L199.900116,137.25314219160515L200.14750600000002,140.15117332610217L200.214976,139.32124624469066L200.525338,127.70615143125707L200.67827,138.9834057634527L201.011122,138.39723214778033L201.08309,137.5825786211274L201.132568,136.18105613643473L201.28549999999998,137.82616424560547L201.64534,138.83083805712786L201.919718,138.48412596637553L201.924216,132.17036931623113L202.18509999999998,140.90070444345474L202.27506000000002,137.2363700541583L202.468474,137.27257581190628L202.49096400000002,136.85117435997182L202.81482,134.64717882871628L203.449038,138.44149428606033L203.552492,138.02125573429194L203.55698999999998,131.20866286754608L204.168718,136.27579053965482L204.600526,138.36004331978884L204.86590800000002,131.22789268060166L204.915386,137.2150422253392L206.192818,136.93354845317927L206.37723599999998,140.34045031395826L206.692096,138.05601086399773L206.81804,138.75270795009354L207.047438,138.54332597689194L207.483744,133.56297223676336L207.62318199999999,139.6403844139793L207.645672,139.70548284595662L207.722138,135.71984033963898L207.951536,138.60952736572784L208.12246,132.17701103470543L209.040052,138.62230727889323L209.36390799999998,134.38234929604965L209.836198,135.940155972134L210.22752400000002,127.860925051299L210.2815,139.37802454558286L210.425436,135.54665213552389L210.55138,137.09782908179545L210.94270600000002,137.56744893030685L210.987686,133.0311192463745L211.014674,138.00808019529688L211.032666,137.68877418474716L211.172104,141.38039476763117L211.1811,140.00408443808556L211.244072,138.17765981229869L211.27105999999998,128.10059038346463L211.599414,138.28051053935832L212.71042,138.1074542105198L213.106244,138.71833645755595L213.223192,135.7991453355009L213.628012,137.75944734432483L213.749458,138.26271936568347L214.06431800000001,137.1834640909325L214.370182,136.82000384005633L214.44215,138.99405169487L214.739018,136.19963856176895L214.95492199999998,135.87833044474775L215.02689,138.82616247914055L215.157332,138.08763695305043L215.269782,134.17513727058065L215.355244,138.98772168159485L216.002956,139.21670511635867L216.03894000000003,139.993906064467L216.326812,138.85711720314893L216.44825799999998,136.38812429796565L217.055488,139.47773424332792L217.086974,136.23279919949445L217.167938,134.113467595794L217.631232,138.71571094068614L217.739184,136.46943140029907L217.784164,139.40133050355044L217.847136,134.39517716386104L218.126012,136.17640453577042L218.553322,138.18225146965545L218.85019,137.90138110789385L218.90866400000002,138.22982247851112L219.0526,139.82509372180158L219.13356399999998,131.69768037037417L219.178544,140.01904628764498L219.273002,135.79785056005824L219.763284,137.03150780634445L220.078144,137.46017438715154L220.518948,135.65417844057083L221.045214,136.89143228530884L221.216138,136.86250364509496L221.364572,133.7499713789333L221.441038,139.33614815094256L221.61646000000002,138.1316473294388L222.704976,134.09695920890027L222.77694400000001,140.06637752327052L223.424656,139.35363960807973L223.658552,137.25637913021174L223.856464,138.54629916494542L224.013894,137.1538401083513L224.14883400000002,139.9701565260237L224.256786,134.94132063876498L224.36473800000002,136.5541912371462L224.400722,136.7271876226772L224.4502,135.64180614189667L224.454698,137.3560888279568L224.72457799999998,140.68266665664586L224.846024,139.8561083891175L224.86401600000002,136.1820392066782L224.931486,134.37318995865908L225.04843400000001,134.08419128439644L225.09791199999998,139.89296153458682L225.14739,138.32460483637723L225.295824,139.54174170710826L225.678154,139.02037879553708L225.916548,133.00432458790866L225.93454,139.32447119463575L225.99301400000002,132.9537084590305L226.352854,139.71584104949778L226.37084599999997,139.14362223581833L226.49229200000002,138.4753982207992L226.532774,138.27789701115L226.9241,136.76838066361168L226.955586,138.39925823157483L227.15349799999998,138.31494197520342L227.391892,139.75705806775528L227.54932200000002,138.20602498542178L227.56731399999998,139.2189110300758L227.841692,138.83949387073517L228.277998,138.9413495388898L228.448922,139.76123012195933L228.65582999999998,138.967964367433L228.660328,139.54473887248474L228.673822,139.49065802043134L228.92571,129.2025521831079L229.303542,138.96604618159208L229.411494,137.565698585727L229.631896,136.5344219343229L229.694868,138.92137642882088L230.36057200000002,134.3591032813896L230.495512,140.6773077249527L230.760894,136.7169852717356L230.99029199999998,138.81007369539955L231.91688000000002,138.9910545294935L231.957362,139.30880201404744L232.047322,141.82415507327426L232.18676,137.35008250854233L232.19575600000002,138.04603629762477L232.80298599999998,139.263580782847L232.964914,137.27372672341087L233.162826,136.46915566108444L233.42820799999998,137.14812151681292L233.48218400000002,137.71868589520454L233.990458,132.6597704562274L234.156884,139.71460621736267L234.296322,139.97664239189842L234.45375199999998,138.12691180814397L235.128452,139.3311968337406L235.168934,137.5220838351683L235.29038,140.86229277198964L235.42532,137.14575975049627L235.578252,138.95899684862655L235.780662,138.8872207321904L235.81664600000002,137.9394810741598L235.94259,135.36693011088806L236.450864,139.76684081554413L236.522832,139.0476170344786L236.626286,137.89875559102404L236.801708,138.89519319209185L236.878174,138.4058160294186L237.26500199999998,135.225967428901L237.305484,138.17306815494192L237.458416,135.86362035707992L237.97568600000002,136.23848182504827L238.151108,137.1629395024343L238.385004,139.8277911706404L239.680428,138.51958842711014L239.774886,140.3958619074388L240.409104,140.2890908880667L240.60251799999998,139.72627118500796L240.840912,138.91192936355418L240.872398,135.9101603410461L240.962358,138.26072924787348L241.079306,136.26343022964218L241.484126,138.93143491582435L241.71802200000002,138.25972220030698L241.987902,135.65116928653282L242.019388,137.35792309316722L242.14983,137.61292192339897L242.38822399999998,139.09885657375509L242.406216,136.18311818621376L242.46469000000002,139.819890642708L242.52766200000002,136.98194667967883L242.635614,137.6809695661068L242.68959,134.60994204607877L242.833526,137.1915444487875L242.865012,140.5101378289136L242.927984,139.3475134020502L243.436258,130.49948558482257L243.485736,134.5824880112301L243.512724,137.35763536529106L243.69714199999999,140.60066421194512L243.715134,138.44250133362684L243.778106,138.07150021466342L243.88155999999998,137.95715236121958L244.358348,135.04165374690837L244.551762,136.59790189699692L244.74967400000003,136.91783131794494L244.830638,138.85340071808207L244.90260600000002,135.2463481534611L245.037546,137.99774596907878L245.347908,138.40492886846715L245.910158,138.1626020534472L246.10357199999999,138.32405335794795L246.112568,138.7753545316783L246.278994,141.49245278672737L246.283492,132.46368390863591L246.328472,141.50311070680618L246.36445600000002,138.28880669312042L246.47690599999999,137.9167505719445L246.85023999999999,138.91842721809041L246.87273000000002,137.48346835645762L246.94019999999998,138.77753646807236L247.81281199999998,137.10382341254842L248.433536,136.40596342628652L249.387112,139.97703801772812L249.737956,138.23772300644356L249.980848,134.32181854410607L250.09329799999998,138.4834785786542L250.660046,139.2604637308554L251.02438400000003,137.80161146684128L251.24478599999998,136.0767787586559L251.298762,140.64836709607732L251.384224,139.0509858483618L251.64960599999998,135.67582996325058L252.17137400000001,135.10718377069992L252.526716,140.34355537728828L252.715632,139.94026879288936L253.039488,134.328759979118L253.264388,135.98290753906423L253.399328,138.8628957379948" style="fill: none;" fill="none"></path></g></g></g></g></g><g><g><span fill="rgb(0, 0, 0)" stroke="none" stroke-width="1px">Alt + Scroll to Zoom</span></g></g></g><g transform="translate(48, 177)" clip-path="url(#clip_1)"><clipPath id="clip_1"><rect width="281" height="23"></rect></clipPath><g><g><line x1="0" y1="0" x2="0" y2="5" style="visibility: inherit;" fill="rgb(0, 0, 0)" stroke="rgb(204, 204, 204)" stroke-width="1px"></line><line x1="28.1125" y1="0" x2="28.1125" y2="5" style="visibility: inherit;" fill="rgb(0, 0, 0)" stroke="rgb(204, 204, 204)" stroke-width="1px"></line><line x1="56.225" y1="0" x2="56.225" y2="5" style="visibility: inherit;" fill="rgb(0, 0, 0)" stroke="rgb(204, 204, 204)" stroke-width="1px"></line><line x1="84.33749999999999" y1="0" x2="84.33749999999999" y2="5" style="visibility: inherit;" fill="rgb(0, 0, 0)" stroke="rgb(204, 204, 204)" stroke-width="1px"></line><line x1="112.45" y1="0" x2="112.45" y2="5" style="visibility: inherit;" fill="rgb(0, 0, 0)" stroke="rgb(204, 204, 204)" stroke-width="1px"></line><line x1="140.5625" y1="0" x2="140.5625" y2="5" style="visibility: inherit;" fill="rgb(0, 0, 0)" stroke="rgb(204, 204, 204)" stroke-width="1px"></line><line x1="168.67499999999998" y1="0" x2="168.67499999999998" y2="5" style="visibility: inherit;" fill="rgb(0, 0, 0)" stroke="rgb(204, 204, 204)" stroke-width="1px"></line><line x1="196.7875" y1="0" x2="196.7875" y2="5" style="visibility: inherit;" fill="rgb(0, 0, 0)" stroke="rgb(204, 204, 204)" stroke-width="1px"></line><line x1="224.9" y1="0" x2="224.9" y2="5" style="visibility: inherit;" fill="rgb(0, 0, 0)" stroke="rgb(204, 204, 204)" stroke-width="1px"></line><line x1="253.01250000000002" y1="0" x2="253.01250000000002" y2="5" style="visibility: inherit;" fill="rgb(0, 0, 0)" stroke="rgb(204, 204, 204)" stroke-width="1px"></line><line x1="281.125" y1="0" x2="281.125" y2="5" style="visibility: inherit;" fill="rgb(0, 0, 0)" stroke="rgb(204, 204, 204)" stroke-width="1px"></line></g><g transform="translate(0, 8)"><text x="0" y="0" dx="0em" dy="0.95em" style="text-anchor: middle; visibility: hidden; font-family: &quot;Helvetica Neue&quot;, sans-serif; font-size: 12px; font-weight: 200;" fill="rgb(50, 49, 63)" stroke="none" stroke-width="1px">-50k</text><text x="28.1125" y="0" dx="0em" dy="0.95em" style="text-anchor: middle; visibility: inherit; font-family: &quot;Helvetica Neue&quot;, sans-serif; font-size: 12px; font-weight: 200;" fill="rgb(50, 49, 63)" stroke="none" stroke-width="1px">0</text><text x="56.225" y="0" dx="0em" dy="0.95em" style="text-anchor: middle; visibility: hidden; font-family: &quot;Helvetica Neue&quot;, sans-serif; font-size: 12px; font-weight: 200;" fill="rgb(50, 49, 63)" stroke="none" stroke-width="1px">50k</text><text x="84.33749999999999" y="0" dx="0em" dy="0.95em" style="text-anchor: middle; visibility: inherit; font-family: &quot;Helvetica Neue&quot;, sans-serif; font-size: 12px; font-weight: 200;" fill="rgb(50, 49, 63)" stroke="none" stroke-width="1px">100k</text><text x="112.45" y="0" dx="0em" dy="0.95em" style="text-anchor: middle; visibility: hidden; font-family: &quot;Helvetica Neue&quot;, sans-serif; font-size: 12px; font-weight: 200;" fill="rgb(50, 49, 63)" stroke="none" stroke-width="1px">150k</text><text x="140.5625" y="0" dx="0em" dy="0.95em" style="text-anchor: middle; visibility: inherit; font-family: &quot;Helvetica Neue&quot;, sans-serif; font-size: 12px; font-weight: 200;" fill="rgb(50, 49, 63)" stroke="none" stroke-width="1px">200k</text><text x="168.67499999999998" y="0" dx="0em" dy="0.95em" style="text-anchor: middle; visibility: hidden; font-family: &quot;Helvetica Neue&quot;, sans-serif; font-size: 12px; font-weight: 200;" fill="rgb(50, 49, 63)" stroke="none" stroke-width="1px">250k</text><text x="196.7875" y="0" dx="0em" dy="0.95em" style="text-anchor: middle; visibility: inherit; font-family: &quot;Helvetica Neue&quot;, sans-serif; font-size: 12px; font-weight: 200;" fill="rgb(50, 49, 63)" stroke="none" stroke-width="1px">300k</text><text x="224.9" y="0" dx="0em" dy="0.95em" style="text-anchor: middle; visibility: hidden; font-family: &quot;Helvetica Neue&quot;, sans-serif; font-size: 12px; font-weight: 200;" fill="rgb(50, 49, 63)" stroke="none" stroke-width="1px">350k</text><text x="253.01250000000002" y="0" dx="0em" dy="0.95em" style="text-anchor: middle; visibility: inherit; font-family: &quot;Helvetica Neue&quot;, sans-serif; font-size: 12px; font-weight: 200;" fill="rgb(50, 49, 63)" stroke="none" stroke-width="1px">400k</text><text x="281.125" y="0" dx="0em" dy="0.95em" style="text-anchor: middle; visibility: hidden; font-family: &quot;Helvetica Neue&quot;, sans-serif; font-size: 12px; font-weight: 200;" fill="rgb(50, 49, 63)" stroke="none" stroke-width="1px">450k</text></g><line x1="0" y1="0" x2="281.125" y2="0" fill="rgb(0, 0, 0)" stroke="rgb(204, 204, 204)" stroke-width="1px"></line></g></g></g></g></svg>