<svg viewBox="0 0 330 200" xmlns="http://www.w3.org/2000/svg"><g><g><g><g><g><line x1="58.59375" y1="177" x2="53.59375" y2="177" style="visibility: inherit;" fill="rgb(0, 0, 0)" stroke="rgb(204, 204, 204)" stroke-width="1px"></line><line x1="58.59375" y1="154.875" x2="53.59375" y2="154.875" style="visibility: inherit;" fill="rgb(0, 0, 0)" stroke="rgb(204, 204, 204)" stroke-width="1px"></line><line x1="58.59375" y1="132.75" x2="53.59375" y2="132.75" style="visibility: inherit;" fill="rgb(0, 0, 0)" stroke="rgb(204, 204, 204)" stroke-width="1px"></line><line x1="58.59375" y1="110.625" x2="53.59375" y2="110.625" style="visibility: inherit;" fill="rgb(0, 0, 0)" stroke="rgb(204, 204, 204)" stroke-width="1px"></line><line x1="58.59375" y1="88.5" x2="53.59375" y2="88.5" style="visibility: inherit;" fill="rgb(0, 0, 0)" stroke="rgb(204, 204, 204)" stroke-width="1px"></line><line x1="58.59375" y1="66.375" x2="53.59375" y2="66.375" style="visibility: inherit;" fill="rgb(0, 0, 0)" stroke="rgb(204, 204, 204)" stroke-width="1px"></line><line x1="58.59375" y1="44.25" x2="53.59375" y2="44.25" style="visibility: inherit;" fill="rgb(0, 0, 0)" stroke="rgb(204, 204, 204)" stroke-width="1px"></line><line x1="58.59375" y1="22.12500000000003" x2="53.59375" y2="22.12500000000003" style="visibility: inherit;" fill="rgb(0, 0, 0)" stroke="rgb(204, 204, 204)" stroke-width="1px"></line><line x1="58.59375" y1="0" x2="53.59375" y2="0" style="visibility: inherit;" fill="rgb(0, 0, 0)" stroke="rgb(204, 204, 204)" stroke-width="1px"></line></g><g transform="translate(48.59375, 0)"><text x="0" y="177" dx="0em" dy="0.3em" style="text-anchor: end; visibility: hidden; font-family: &quot;Helvetica Neue&quot;, sans-serif; font-size: 12px; font-weight: 200;" fill="rgb(50, 49, 63)" stroke="none" stroke-width="1px">-0.01</text><text x="0" y="154.875" dx="0em" dy="0.3em" style="text-anchor: end; visibility: inherit; font-family: &quot;Helvetica Neue&quot;, sans-serif; font-size: 12px; font-weight: 200;" fill="rgb(50, 49, 63)" stroke="none" stroke-width="1px">0</text><text x="0" y="132.75" dx="0em" dy="0.3em" style="text-anchor: end; visibility: hidden; font-family: &quot;Helvetica Neue&quot;, sans-serif; font-size: 12px; font-weight: 200;" fill="rgb(50, 49, 63)" stroke="none" stroke-width="1px">0.01</text><text x="0" y="110.625" dx="0em" dy="0.3em" style="text-anchor: end; visibility: inherit; font-family: &quot;Helvetica Neue&quot;, sans-serif; font-size: 12px; font-weight: 200;" fill="rgb(50, 49, 63)" stroke="none" stroke-width="1px">0.02</text><text x="0" y="88.5" dx="0em" dy="0.3em" style="text-anchor: end; visibility: hidden; font-family: &quot;Helvetica Neue&quot;, sans-serif; font-size: 12px; font-weight: 200;" fill="rgb(50, 49, 63)" stroke="none" stroke-width="1px">0.03</text><text x="0" y="66.375" dx="0em" dy="0.3em" style="text-anchor: end; visibility: inherit; font-family: &quot;Helvetica Neue&quot;, sans-serif; font-size: 12px; font-weight: 200;" fill="rgb(50, 49, 63)" stroke="none" stroke-width="1px">0.04</text><text x="0" y="44.25" dx="0em" dy="0.3em" style="text-anchor: end; visibility: hidden; font-family: &quot;Helvetica Neue&quot;, sans-serif; font-size: 12px; font-weight: 200;" fill="rgb(50, 49, 63)" stroke="none" stroke-width="1px">0.05</text><text x="0" y="22.12500000000003" dx="0em" dy="0.3em" style="text-anchor: end; visibility: inherit; font-family: &quot;Helvetica Neue&quot;, sans-serif; font-size: 12px; font-weight: 200;" fill="rgb(50, 49, 63)" stroke="none" stroke-width="1px">0.06</text><text x="0" y="0" dx="0em" dy="0.3em" style="text-anchor: end; visibility: hidden; font-family: &quot;Helvetica Neue&quot;, sans-serif; font-size: 12px; font-weight: 200;" fill="rgb(50, 49, 63)" stroke="none" stroke-width="1px">0.07</text></g><line x1="58.59375" y1="0" x2="58.59375" y2="177" fill="rgb(0, 0, 0)" stroke="rgb(204, 204, 204)" stroke-width="1px"></line></g></g><g transform="translate(58, 0)" clip-path="url(#clip_0)"><clipPath id="clip_0"><rect width="271" height="177"></rect></clipPath><g><g><g><line x1="0" y1="0" x2="0" y2="177" fill="rgb(0, 0, 0)" stroke="rgb(60, 60, 60)" stroke-width="1px" opacity="0.25"></line><line x1="27.140625" y1="0" x2="27.140625" y2="177" fill="rgb(0, 0, 0)" stroke="rgb(60, 60, 60)" stroke-width="1px" opacity="0.25"></line><line x1="54.28125" y1="0" x2="54.28125" y2="177" fill="rgb(0, 0, 0)" stroke="rgb(60, 60, 60)" stroke-width="1px" opacity="0.25"></line><line x1="81.421875" y1="0" x2="81.421875" y2="177" fill="rgb(0, 0, 0)" stroke="rgb(60, 60, 60)" stroke-width="1px" opacity="0.25"></line><line x1="108.5625" y1="0" x2="108.5625" y2="177" fill="rgb(0, 0, 0)" stroke="rgb(60, 60, 60)" stroke-width="1px" opacity="0.25"></line><line x1="135.703125" y1="0" x2="135.703125" y2="177" fill="rgb(0, 0, 0)" stroke="rgb(60, 60, 60)" stroke-width="1px" opacity="0.25"></line><line x1="162.84375" y1="0" x2="162.84375" y2="177" fill="rgb(0, 0, 0)" stroke="rgb(60, 60, 60)" stroke-width="1px" opacity="0.25"></line><line x1="189.984375" y1="0" x2="189.984375" y2="177" fill="rgb(0, 0, 0)" stroke="rgb(60, 60, 60)" stroke-width="1px" opacity="0.25"></line><line x1="217.125" y1="0" x2="217.125" y2="177" fill="rgb(0, 0, 0)" stroke="rgb(60, 60, 60)" stroke-width="1px" opacity="0.25"></line><line x1="244.265625" y1="0" x2="244.265625" y2="177" fill="rgb(0, 0, 0)" stroke="rgb(60, 60, 60)" stroke-width="1px" opacity="0.25"></line><line x1="271.40625" y1="0" x2="271.40625" y2="177" fill="rgb(0, 0, 0)" stroke="rgb(60, 60, 60)" stroke-width="1px" opacity="0.25"></line></g><g><line x1="0" y1="177" x2="271.40625" y2="177" fill="rgb(0, 0, 0)" stroke="rgb(60, 60, 60)" stroke-width="1px" opacity="0.25"></line><line x1="0" y1="154.875" x2="271.40625" y2="154.875" fill="rgb(0, 0, 0)" stroke="rgb(60, 60, 60)" stroke-width="1px" opacity="0.25"></line><line x1="0" y1="132.75" x2="271.40625" y2="132.75" fill="rgb(0, 0, 0)" stroke="rgb(60, 60, 60)" stroke-width="1px" opacity="0.25"></line><line x1="0" y1="110.625" x2="271.40625" y2="110.625" fill="rgb(0, 0, 0)" stroke="rgb(60, 60, 60)" stroke-width="1px" opacity="0.25"></line><line x1="0" y1="88.5" x2="271.40625" y2="88.5" fill="rgb(0, 0, 0)" stroke="rgb(60, 60, 60)" stroke-width="1px" opacity="0.25"></line><line x1="0" y1="66.375" x2="271.40625" y2="66.375" fill="rgb(0, 0, 0)" stroke="rgb(60, 60, 60)" stroke-width="1px" opacity="0.25"></line><line x1="0" y1="44.25" x2="271.40625" y2="44.25" fill="rgb(0, 0, 0)" stroke="rgb(60, 60, 60)" stroke-width="1px" opacity="0.25"></line><line x1="0" y1="22.12500000000003" x2="271.40625" y2="22.12500000000003" fill="rgb(0, 0, 0)" stroke="rgb(60, 60, 60)" stroke-width="1px" opacity="0.25"></line><line x1="0" y1="0" x2="271.40625" y2="0" fill="rgb(0, 0, 0)" stroke="rgb(60, 60, 60)" stroke-width="1px" opacity="0.25"></line></g></g></g><g><g><line x1="0" y1="154.875" x2="271.40625" y2="154.875" fill="rgb(0, 0, 0)" stroke="rgb(153, 153, 153)" stroke-width="1.5px"></line></g></g><g><g><line x1="27.140625" y1="0" x2="27.140625" y2="177" fill="rgb(0, 0, 0)" stroke="rgb(153, 153, 153)" stroke-width="1.5px"></line></g></g><g><g><g><g><g><path stroke="rgb(255, 112, 67)" stroke-width="2px" d="M32.8683825,-1.7867506278120118L32.9291775,3.4239205626928424L32.9465475,0.17764155101878032L33.154987500000004,-1.6749184633714265L33.185385000000004,1.5923981880436884L33.376455,7.0526986751229686L33.50673,9.940367795002885L33.7542525,13.35452080719432L33.880185,15.845022273289516L33.949665,12.386166886648397L34.019145,21.183432819946063L34.4837925,22.02405744582282L34.670519999999996,22.05468347767234L34.683547499999996,22.68419880036015L35.148195,24.890424641235768L35.24373,29.55741270404451L35.291497500000006,33.92077594492588L35.4651975,38.5825903318827L35.53902,40.55090549157049L35.5954725,41.04469252119199L35.981955,42.087935977369796L36.242504999999994,41.14374203946505L36.6376725,46.40353473926706L36.6897825,50.31545131969672L36.828742500000004,51.98181493397526L36.8547975,53.26646721551417L36.96336,53.766393360135595L37.158772500000005,56.972870251767574L37.514857500000005,56.59577348305743L37.718954999999994,56.87231628879289L37.7927775,58.88744985034694L37.8014625,59.924851455364404L37.823175000000006,62.06314267550337L37.9317375,58.03578025525465L37.936080000000004,58.46290367275867L37.98819,59.99811404603953L38.0099025,61.36139169727704L38.135835,62.34462108772958L38.2009725,62.19023158289174L38.8002375,65.83623229868519L39.039075,67.29296675790731L40.0248225,75.05439980719618L40.33314,78.43910664852935L40.3461675,80.3242448384254L40.598032499999995,80.88321983380251L40.8672675,84.72315404005725L41.166900000000005,87.12340659387637L41.227695000000004,87.69357033290106L41.23638,87.68010315875792L41.240722500000004,92.12128038826931L41.4925875,91.13889682738989L42.252525000000006,94.3439123750419L42.85179,95.70249387149158L42.860475,98.83271324946966L43.0776,100.56391768531195L43.3859175,102.0471342086863L43.6117275,105.761488022585L43.70292,105.57881362903375L43.7333175,103.91426431003664L44.197964999999996,107.68453045443269L44.319555,107.1012140017335L44.441145,110.91829000199344L44.666955,109.89550885727708L44.936189999999996,110.83179502253654L45.361755,113.4361696928884L45.4963725,115.14564420931907L45.518085,114.21864510530753L45.8871975,116.15113486993029L45.8958825,116.8791344722224L46.247625,116.58161313109773L46.647135,118.5024319204952L46.7209575,119.84801167719905L46.812149999999995,121.92282270493862L47.394045,123.68622807306949L47.411415000000005,124.69123105771337L47.446155,125.57833587790725L47.932514999999995,124.41924559795973L47.993309999999994,121.6271492673404L48.158325,119.06437250612362L48.210435000000004,122.04980836872419L48.39282,125.0285729587177L48.7271925,125.24175769676117L49.070249999999994,126.12501468227416L49.078935,127.7718280087999L49.31343,126.36835127043524L49.43502,126.16557513847381L49.8909825,127.586250986826L50.3512875,128.41932770139522L50.4120825,128.37219711818722L50.676975,129.04243243629293L51.2371575,130.76310055640076L51.8016825,131.63851627502132L51.992752499999995,131.71401743877405L52.361864999999995,133.32073047798707L52.448715,133.90427175356797L52.605045,131.8961039169139L52.635442499999996,131.63382296519762L52.7917725,133.0127651004555L52.882965,133.24905302873623L53.15219999999999,131.75483797584548L53.23905,132.7490476436962L53.721067500000004,133.36622264005538L53.764492499999996,133.9123206784147L54.064125,134.45990460327673L54.1205775,134.51399118728284L54.146632499999996,132.04494222753848L54.203085,134.07624986695413L54.4506075,134.24402641051807L54.550485,134.7508920908722L54.828405000000004,135.39351308007554L55.453725,137.13558237973686L55.68822,137.0819925867324L55.8141525,136.3213192963782L56.0486475,135.5979684420188L56.218005,136.6254895843348L56.231032500000005,135.1029745689649L56.283142500000004,136.15408820724448L56.41776,136.44291094673997L56.90412,133.12298017078385L57.390480000000004,133.29909658407416L57.503385,136.18292271535992L57.99843,136.3010810522595L58.03317,132.23403978267214L58.2112125,132.7292943880716L58.6107225,135.04963190014342L58.8886425,136.06418771109838L59.0970825,138.42317110458006L59.19696,138.88810058098056L59.49225,139.31180621882018L59.535675,139.45943728813745L59.5487025,140.2655002684025L59.61384,138.66404487125592L59.7571425,139.55857311586675L60.5474775,140.3485264472299L60.838425,139.8934791578879L60.960015,139.8038138778116L61.00344,138.22538279554877L61.1554275,136.54218646175642L61.8415425,138.38630350626696L62.16723,139.83418151537143L62.662275,137.47385645519682L62.8403175,138.76228610874185L63.33102,140.52796704702655L63.4569525,141.18137449291694L63.47866500000001,141.5113530978663L63.5177475,141.89738739934435L63.9085725,142.22842174535987L63.921600000000005,142.18021593103407L64.04319000000001,142.19914998030424L64.086615,140.80748934248544L64.4904675,141.19532377037825L64.6381125,140.59919202289163L64.8986625,139.98521048962283L65.69334,139.96952117261563L65.806245,140.57767084825275L65.8192725,142.0109675759121L65.910465,142.74157596619693L65.94086250000001,143.342806554816L66.1927275,143.8762528912801L66.2187825,144.1026311392533L66.4619625,142.01378398891222L67.352175,142.48417169445935L67.595355,141.69432137217632L67.73431500000001,142.5831513550707L68.11211250000001,142.8762179230312L68.255415,143.04256696499715L68.5984725,143.5963582660844L68.62886999999999,143.33666471152543L68.68532250000001,143.5171136375124L68.9458725,143.8886538499172L69.0761475,143.59919389889467L69.176025,143.09687608476477L69.25419000000001,144.3447788114421L69.8838525,144.19927419705746L70.16177250000001,143.30088160633554L70.81748999999999,144.02452709840318L70.930395,141.56144877264848L71.764155,141.06635282257167L71.7945525,142.2727278039245L72.285255,140.30152409000772L72.2982825,142.80245212012056L72.389475,142.97526021811976L72.6456825,142.50635498937882L72.83241,143.7839412289041L73.2015225,142.9117930652754L73.33614,141.58630809608067L73.40562,141.41855880562866L73.47944249999999,141.7190239573309L73.6531425,143.2044590608836L73.85289750000001,141.56951856145628L73.85723999999999,143.30246709202225L73.952775,144.21441280166877L74.1047625,142.13213928141786L74.21766749999999,142.98509126569238L74.25675,144.4340996346982L74.48256,142.22191160361763L74.4955875,139.38988827971843L74.6432325,141.82253234318705L74.6606025,141.54363091269843L74.76048,141.94906765210456L74.786535,143.4906492115204L74.79522,143.469329160725L74.994975,144.26039482975003L75.35106,144.84563143185673L75.43356750000001,144.87813923465472L75.47265,145.72923581071802L75.76794000000001,144.15391741880765L75.776625,142.49387872629757L76.037175,144.17690669954357L76.7276325,143.29796744626708L76.957785,144.36688199783532L77.044635,145.4283340521893L77.1792525,145.3130095188389L77.218335,144.59364907984852L77.2921575,144.57827816986244L77.36598,144.7210146808368L77.722065,145.4243387470669L77.82194249999999,145.17123912550667L77.8827375,144.16286055825373L78.2040825,143.6498473315744L78.6991275,143.50645901772728L79.1160075,143.3684980787201L79.13772,142.27802090394428L79.29405,143.5776502104539L79.4286675,144.10607186878477L79.84989,143.6118248654701L79.962795,143.49593260484846L79.980165,144.4838597591283L80.049645,144.54024386042354L80.23203,144.68751590676382L80.50995,145.5227677448695L80.5229775,143.74407987803474L80.5924575,142.05821798161196L81.0093375,141.93924755152258L81.23948999999999,142.17022933968866L82.1644425,143.89459635933616L82.2860325,141.74863051806616L82.7463375,142.89407197710335L83.0589975,141.11614615133902L83.3282325,142.84044681390154L83.66694749999999,144.35915021208132L83.74077,142.1370088799727L83.85801749999999,143.0709506225881L83.94921,144.29968718117755L84.00132,144.1545932639653L84.0664575,145.43667386503603L84.31398,145.8032981459537L84.6309825,144.3416978881427L85.10865749999999,145.40491668028085L85.33881,145.61582324068218L85.35618,145.43052212253866L85.781745,144.60723927270266L85.96413000000001,145.82054688056533L86.1855975,146.19764574554696L86.28547499999999,145.71106026293492L86.5416825,145.14415025805926L86.55470999999999,145.63708798858445L86.96290499999999,145.66511826463667L87.11055,145.93181123164297L87.2625375,144.55359710817487L87.431895,145.49426281858766L87.831405,145.00891093492453L87.92693999999999,145.50309702606094L88.28302500000001,145.3521006445838L88.8953175,144.37488555005584L89.1819225,143.35809910621953L89.21232,145.20010624173185L89.2514025,142.81588328713045L89.325225,143.33063100412184L89.40338999999999,142.87436647895913L89.65959749999999,144.07327587378884L89.8767225,143.2431096771046L90.08081999999999,145.05513861926812L90.35439749999999,146.2765914164721L90.680085,146.13693484795772L90.70614,146.497081716777L90.836415,146.50374633539423L90.87549750000001,146.47000013580518L90.91892250000001,145.7376135592906L91.3184325,146.22487330291037L91.357515,146.09821606330718L91.374885,146.75710246775012L91.44870750000001,145.69149073679574L91.72662749999999,145.60512907086283L91.809135,144.47908079501448L92.39537250000001,145.11157256309812L92.66895000000001,145.96569951972515L92.86870499999999,142.34292184752167L93.059775,143.611832963888L93.43323,145.42664302659878L93.685095,143.54478130279688L94.3321275,145.1382641765268L94.3408125,146.58713327698283L94.4797725,146.52811872787325L94.61438999999999,146.80844557950562L94.87059749999999,147.06941429910796L95.491575,147.69374807042212L95.595795,147.65546476907926L95.6348775,147.6765551423946L95.873715,147.9706083344564L96.5294325,146.24540762198836L96.5902275,146.105764006073L97.0331625,146.89602532775757L97.12435500000001,145.99772685772365L97.7019075,146.02385971084198L98.0145675,146.91443853975622L98.1101025,147.10463607922964L98.183925,147.28112728157168L98.38368,145.20358386044816L98.531325,146.08216648520226L98.8135875,146.1509905422252L99.1609875,145.5424023771932L99.4910175,146.22238783212157L99.6473475,143.49279098594428L100.12936499999999,145.15372416238222L100.1337075,145.01081512291495L100.2813525,144.67713758552753L100.3421475,143.70103009800425L100.52453249999999,145.23335693303122L101.24973,145.230362333031L101.3843475,146.01891038384267L101.5319925,146.40515401258492L102.00098249999999,146.71389021261996L102.14428500000001,146.16399011259952L102.22245,142.00361642965333L102.231135,143.6397027747365L102.335355,145.23176072910246L102.3396975,140.89624388851115L102.352725,141.23925044327908L102.4352325,143.26978105154407L102.58722,144.67387294282145L102.72183749999999,144.09471815969945L102.891195,144.94917612302766L102.93462,146.53300453804636L103.32110250000001,146.7808807018486L103.3818975,147.66282407746425L103.50783,145.54180414551547L103.54257,146.5535338725186L103.66850249999999,146.3205906922504L104.09841,146.57608569016924L105.10152749999999,146.84704861049127L105.2231175,147.0648750976914L105.2622,142.95448311328553L105.38379,145.11256349857138L105.53577750000001,145.90693846141278L105.5878875,147.0155147097426L105.8658075,146.74717183503574L106.452045,143.39296309612286L106.68654,144.73548830296602L107.2640925,143.75310024393204L107.26843500000001,145.9399461175731L107.876385,145.9363673883926L108.4018275,146.97129000451235L108.432225,147.63718563816215L108.9750375,147.99616415887894L109.46574000000001,145.1168257078853L109.5482475,146.1319963717879L109.6698375,147.10054193898378L109.7653725,145.55362040137106L109.856565,146.338313848286L110.151855,146.53468942975238L110.3820075,146.81224190755327L110.6338725,147.07570563755678L110.82494249999999,147.22374796095713L111.7542375,147.17308702047788L111.8324025,146.57255180640814L111.9279375,146.7283938073258L111.9539925,146.93539251932967L112.427325,144.33991802727485L112.48812,144.19574491863136L112.5358875,145.27084382156093L112.774725,146.61857976293115L112.8224925,145.71468630755646L112.8485475,143.7718549906072L113.104755,145.30990227105735L113.2220025,144.44189817660686L113.32188000000001,145.75826894878713L113.62585499999999,145.21043041049685L113.72139,143.9805060713321L113.8646925,144.46025768759205L113.9689125,146.0021549640606L114.1426125,141.464766957075L114.2207775,144.3237232154559L114.2468325,145.7273007511635L114.25985999999999,147.11056408904543L114.58989000000001,147.5818615202646L114.59423249999999,147.60270538963434L114.79833,146.2966136929955L114.9329475,144.75605228295942L115.050195,144.89470310956847L115.0632225,145.67592984385223L115.084935,147.59895614428478L115.3932525,147.9080353619682L115.44102,147.86273536373835L115.6538025,148.39754391643575L115.901325,147.35065288466615L116.09673749999999,146.12047795614544L116.27478,146.68789352307098L116.3312325,147.9150532657821L116.335575,145.5650746926617L116.43110999999999,146.59815205122985L116.50059,147.69377602861275L116.9826075,148.47306354473912L117.0738,148.22954045472449L117.3734325,146.41179620048274L117.38646,146.63975961739527L117.3908025,146.72947859326575L117.5992425,144.46451402211682L117.7034625,145.82736907450368L118.2766725,146.54000944905658L118.62407250000001,145.31099087343026L118.680525,145.0487679726543L118.95844500000001,146.3430507208187L119.2407075,146.33550975655004L119.340585,147.0917946661177L119.705355,147.85370084986874L119.7183825,147.78786883639455L119.74009500000001,147.71851904129406L120.0310425,145.07545586087434L120.1092075,146.26789745689558L120.43489500000001,144.61078895638437L120.6042525,145.81644228707472L121.2903675,146.79775100607293L121.47275250000001,146.489122713837L121.47709499999999,145.93151429728522L121.75935750000001,145.40695365163447L121.7854125,145.65757358075462L121.89831749999999,146.6966816686636L121.98951,147.92775588258627L122.01556500000001,147.7939617980802L122.70168,147.84533087248371L123.7395375,145.727447649783L123.79598999999999,146.3000089275702L123.943635,146.6324032636483L124.047855,147.38936423276363L124.10865000000001,147.72220566914677L124.23024000000001,148.50304634249366L124.725285,147.95704928590675L124.8772725,145.9093461848278L125.03794500000001,146.76917744426677L125.43311250000001,147.46467693302966L125.9976375,148.43607306078562L126.32332500000001,147.93734637155302L126.71415,147.99904412960325L126.7271775,148.43445428594575L127.36552499999999,147.99780673157574L127.38289499999999,148.64305107325964L127.56962250000001,148.84605157528648L127.61739,146.85581430558832L127.660815,143.89950751773327L127.80846,146.03995659428236L127.851885,146.6490643928343L127.96479000000001,146.97367390523033L128.1602025,147.88412941730576L128.26008,148.73163284944738L128.4815475,148.69530930617674L128.5857675,147.15162050220653L128.668275,145.98043694240695L128.87237249999998,145.0399251867218L129.363075,145.66607603615944L129.5758575,147.05432634902476L129.92759999999998,145.65178248328704L129.9753675,146.258497881725L130.0622175,147.56742810729344L130.37922,147.01808275016813L130.6267425,147.45198970352214L131.09139,147.86759785056435L131.70368249999999,148.3153350932878L131.87304,148.02105525153954L131.9989725,148.21742176824782L132.37677,148.1245612393687L132.58521,145.8550820596662L132.593895,146.479581073671L132.75891,146.70940807278234L132.8587875,144.5811869250776L133.167105,142.87458274356152L133.77939750000002,144.32336944973693L134.05731749999998,145.95831551083535L134.4828825,145.16234374516L134.51762250000002,146.17611387393052L135.1776825,142.9630153472866L135.27321750000002,144.5311953638879L135.41652,144.55851967470048L135.737865,146.48360901600836L135.9072225,147.2887818518756L136.2806775,146.7266709590541L136.59768,146.20180772134435L136.7062425,147.68604151083915L136.762695,147.28688732396148L136.80177750000001,146.96841635714074L137.144835,147.85655344172812L137.40104250000002,147.04131904200165L137.8960875,147.14911431420117L137.96122499999998,147.690039463601L138.3042825,147.04789664407014L138.68207999999998,147.45394235507624L139.06856249999998,147.73969362978661L139.229235,148.02900957148424L139.3812225,147.05239513155016L139.7025675,146.73940458108822L140.24103749999998,146.53229093490447L140.33222999999998,145.84255351247805L140.3713125,145.55333978914047L140.44079250000001,147.0064710436762L140.71437,147.7443428796195L140.7187125,147.75061156586412L140.77950750000002,144.13237297461168L141.313635,145.74002656845815L141.3614025,147.3416063946251L141.79565250000002,148.68294048942894L142.0866,148.10364872038525L142.9551,147.5135519345282L143.5065975,147.33391251590982L143.51094,147.21922931511295L143.6368725,146.75006192122603L143.6455575,146.39107486926588L144.075465,143.3776189575602L144.72684,145.42680576160606L145.00476,146.68085880272685L145.030815,142.0146774852982L145.05687,142.06936454819655L145.07424,144.22953270049848L145.0785825,145.0711812921339L145.57797,145.98937277851655L145.81680749999998,144.13671054075675L146.3379075,145.11696993665333L146.5810875,146.87094319977908L147.0066525,147.72845011615075L147.0500775,145.72842016345376L147.08047499999998,147.2176372427653L147.15864000000002,147.49573483444777L147.40616250000002,147.70456702338174L147.5972325,145.54123643747505L147.9706875,146.08369768788464L148.365855,146.8654167387004L148.37454,147.31939151554312L148.5135,148.0533128564075L148.591665,147.7653825915968L149.82059249999998,148.27326426149847L149.93349750000002,146.95509407477942L150.12456749999998,147.16640512022855L150.363405,146.96739820390036L150.63263999999998,148.36307160453327L150.68909250000002,148.11537022179598L151.08860249999998,148.7223055050074L151.21453499999998,148.46915129340175L151.3838925,148.6606259269691L152.5997925,149.06898780207456L152.94285,149.59276659573425L153.055755,149.28348449880815L153.15129000000002,149.35159443770124L153.2337975,147.4333519945921L153.34236,148.18033572776653L153.41183999999998,148.77261062824041L153.46395,145.3388974141564L153.6506775,146.58868081995763L153.94596750000002,147.5212933189469L154.2152025,148.0292382413289L155.11844250000001,145.36433551371564L155.14884,147.18147950221507L155.18792249999998,147.25045513723623L155.4050475,147.3321041007356L155.41807500000002,143.77123052843757L155.50926750000002,146.14587544635629L155.64388499999998,147.4085732583501L155.72639249999997,148.49984772828878L156.3169725,148.55653577707432L156.668715,148.97129498979842L156.6730575,147.7089305248977L156.8207025,146.88763681942203L157.41562499999998,148.04685229502755L157.4373375,145.61137939499028L157.5502425,146.48105628168184L157.7499975,147.349547679819L157.815135,148.09197827389679L158.17122,144.83744620089362L158.3579475,145.651892260322L158.47085249999998,145.26909839649664L158.64889499999998,142.6676287447604L158.8356225,145.30909502556764L159.4088325,146.90293056771662L159.43922999999998,147.60992704009192L159.4566,144.95705601723972L159.89953500000001,144.4089811547405L160.07323499999998,146.27612210627981L160.48143000000002,147.80280445038915L160.542225,147.9571587185149L160.62039,148.9502309158588L160.802775,148.62828989544815L161.983935,147.70812737965355L162.2140875,148.157994319128L162.730845,149.11065751620689L163.52118000000002,145.62583106511715L163.6818525,145.57099261872924L164.0900475,146.75357738123733L164.780505,147.0825967707792L164.89341,144.11208237799607L165.06710999999999,145.70398422781625L165.266865,146.66615470205954L165.5491275,148.23527878440296L165.579525,147.66875367673862L165.614265,148.5780296420686L165.82270499999998,147.18819201394962L165.8617875,147.90925513756676L166.117995,147.89238582880736L166.1744475,146.39101202238464L166.80411,147.37924131934787L166.85622,145.7554997370426L166.99952249999998,146.72399602989682L167.1819075,147.15686846741113L167.46417,148.12183762476377L167.785515,148.22424350545498L167.9896125,148.93310459571933L168.271875,148.79279088005822L168.3978075,148.73180528135276L168.45426,147.97527690936582L168.7538925,147.88633522287992L168.76692,147.13719192467101L168.9536475,148.13475851953083L169.16643,148.44843098254535L169.40961,149.30434154864105L169.98282,147.3449743442555L170.01756,146.49780011277687L170.0479575,145.01440689419235L170.45181000000002,146.03027944053426L170.50392,147.6581553930653L170.59077,148.63817764044296L171.085815,148.84137604707956L171.103185,148.44485670107107L171.2204325,146.90680920181424L171.2291175,147.39714236024358L171.6199425,147.57717226489015L171.92391750000002,147.7835355770115L172.041165,145.2712432321883L172.0715625,146.54017909106474L172.1931525,147.86827769825786L172.78373249999999,143.35242451287763L173.1832425,144.10217460437465L173.21364,146.60915534062372L173.604465,148.0127186191961L173.6435475,148.5309797674647L173.6956575,148.0518830075532L173.778165,148.31650596097938L173.8519875,148.8369812660006L174.0864825,149.67251158980707L174.1385925,148.05748390970786L174.24715500000002,149.3188578849297L174.4078275,148.29680296180464L174.6596925,149.00493617066743L174.8594475,149.03171039292369L174.941955,149.94329315492192L174.9723525,149.97934336079243L175.1721075,149.5608271794149L175.3979175,148.34366657449328L175.410945,149.27064042443087L175.5629325,147.8176465823184L176.1274575,148.19125586837674L176.35326750000002,148.2313882552338L176.35761000000002,148.29306800741344L176.4488025,148.6687319810518L176.68764000000002,149.3262875010362L177.0654375,148.43210470216033L177.06978,147.92005294131485L177.23479500000002,148.2404604217786L177.3867825,147.42359467561192L177.425865,146.65644895553305L177.5952225,147.8103519985696L177.808005,145.93209645097676L178.04684250000003,147.24386563138052L178.1858025,146.61628250294333L178.59833999999998,147.71788592309298L179.2584,148.49171157613534L179.4711825,148.08861752975255L179.6275125,148.88653439872053L179.8967475,148.41991022498587L180.23112,148.98424987032593L180.2441475,143.46821654925247L180.57417750000002,143.97743587007074L180.66537,145.97314302961684L180.70011000000002,147.50231565584448L180.7565625,148.31588399896225L180.7652475,148.228230554127L180.7913025,148.58903121355783L181.21686749999998,149.42154347340866L181.2255525,149.32181204526674L181.60335,149.58012600208812L181.6163775,149.53811599722053L181.733625,149.2119916307996L182.47619250000002,149.37325805248366L182.50659000000002,147.0580615444648L182.793195,148.2430876337874L182.81490749999998,148.08485605621416L183.2665275,148.70584635035704L183.34035,147.64736072776623L183.6312975,148.7644969781587L183.7181475,148.50125074816157L184.182795,148.40077858284806L184.408605,149.15559782315086L184.4737425,148.48061967679698L184.53888,147.88967649177513L184.60836,146.6201982382025L184.6648125,148.02055554973657L184.8168,148.29240645173053L184.8993075,149.06456770966602L184.92970499999998,149.40207399554455L185.9415075,149.39190415699537L186.2020575,149.51975291759635L186.3323325,149.09594913698876L186.41484,149.69425804630566L186.8013225,149.21644613307916L186.97068,148.72040677754032L186.98805000000002,149.2001969859962L187.02713250000002,148.9912287400027L187.0531875,149.6190609555226L187.16174999999998,148.63079749502242L187.40927250000001,148.80358619357273L188.04327750000002,149.54406647524965L188.5470075,149.9717668980426L188.69030999999998,149.6598781918774L189.1636425,149.7388268289329L189.1896975,147.2591842408768L189.22877999999997,147.5792135955586L189.7889625,148.2700154428821L189.9366075,148.2680259796223L191.0482875,145.889232128899L191.13079499999998,144.12414493423518L191.3175225,146.03991099775362L191.617155,147.48774504285808L192.5507925,147.90107437039654L192.989385,148.37621332511077L193.22822250000002,149.34628274433828L193.29336,149.52432252859262L193.5929925,144.14634526179097L193.74063750000002,146.65990733182758L194.0619825,147.60398331376584L194.1314625,148.2335244229465L194.17923,147.99555185777683L194.326875,148.6060910000871L194.674275,149.11349506845335L194.9391675,148.4107139157035L194.94351,144.67546006980706L195.19537499999998,146.55856011955652L195.282225,147.48818794139825L195.4689525,147.9129826358902L195.490665,148.2288672221309L195.803325,147.04194153251757L196.4156175,148.3028452810143L196.51549500000002,148.20167279188115L196.5198375,144.89341141641455L197.1104175,145.56763650286572L197.5272975,146.80954205889591L197.78350500000002,143.80939024207572L197.8312725,145.5901577837416L199.0645425,147.140208685908L199.242585,148.44188642263273L199.54656,148.39230486477084L199.66815,147.70575503016624L199.8896175,147.89908401983112L200.31084,146.80091996009426L200.4454575,147.70375057193243L200.46716999999998,147.96651377202818L200.5409925,147.28441218486913L200.76246,147.96811209501655L200.927475,146.7255810290982L201.813345,148.18193030803113L202.126005,146.44430196515447L202.5819675,146.94305310787917L202.959765,143.57153404057942L203.011875,145.4669278107359L203.150835,146.43372063530194L203.272425,147.17100175640854L203.6502225,147.4470132706221L203.6936475,148.17029723346232L203.7197025,149.2660738989925L203.7370725,149.99444181653558L203.87168999999997,149.7910860116773L203.880375,149.09205122587417L203.94117,148.65663347123464L203.96722499999998,143.9970151294598L204.28422750000001,145.59827740043127L205.356825,146.49447728192268L205.738965,147.94457981467335L205.85187000000002,148.28114155141876L206.242695,148.07336704184632L206.35994250000002,147.5996241518763L206.6639175,148.6494029587415L206.9592075,147.9762518461403L207.02868750000002,148.83230684336723L207.3152925,148.541742563364L207.5237325,148.8568287942325L207.5932125,149.4071472894167L207.719145,149.1993198148487L207.8277075,146.91002521927746L207.910215,147.8784765151793L208.535535,148.84616336231107L208.570275,149.63164443392765L208.848195,149.9084187954319L208.9654425,149.99841260143347L209.55168,149.75504394207212L209.5820775,149.45303510584534L209.66024249999998,147.80190779076128L210.10752000000002,148.72614304554565L210.21174,147.94465474125508L210.255165,148.5600658334375L210.31596000000002,147.17350321471054L210.585195,148.36601330413475L210.9977325,148.40453000150058L211.2843375,148.84304178366844L211.34079000000003,149.52588910726143L211.47975,149.73721422599775L211.55791499999998,145.8322616769196L211.60134,147.71320827530005L211.6925325,147.56234249449105L212.165865,147.93706128098864L212.46984,148.50718880144797L212.895405,147.84948360665464L213.4034775,148.02803103459112L213.56849250000002,147.4836463779456L213.711795,146.0074835247507L213.7856175,147.5767825551419L213.95497500000002,148.43203744761243L215.00586,146.66326489925515L215.07534,148.2860826735458L215.70066,149.19440163022347L215.92647,148.7444845007405L216.11754,148.98765247590737L216.2695275,148.6613385978391L216.39980250000002,149.64106155363396L216.5040225,148.07972435703232L216.60824250000002,147.95653500610243L216.64298250000002,148.17203467144012L216.69075,146.8695345089231L216.69509250000002,146.60664918458573L216.95564249999998,148.03121216282352L217.07289,148.47071859360176L217.09026,148.56829689957277L217.15539750000002,145.78475343548925L217.2683025,145.22435986988944L217.31607,146.6743966055629L217.36383750000002,148.42504073890288L217.50714,148.99668637798945L217.87625250000002,149.1846943485318L218.106405,145.4961361763114L218.123775,147.59855942746438L218.1802275,144.75164488279336L218.5276275,146.5689533658982L218.5449975,147.91809072985527L218.662245,148.01972662566544L218.7013275,148.71165429690296L219.079125,148.18701163184681L219.1095225,148.95738152732426L219.3005925,148.56777530903724L219.530745,148.45950718207163L219.68273250000001,148.82436904324334L219.70010249999999,149.08637887922555L219.964995,149.44061324382278L220.3862175,149.62566466723615L220.5512325,149.63588655694045L220.75098749999998,149.42623815131725L220.75533,149.23233120043975L220.7683575,148.26081604213394L221.0115375,143.5430942649819L221.3763075,145.49991576421203L221.4805275,146.92529267608825L221.69331,148.2258993402627L221.754105,149.04143323869673L222.396795,147.23943095018666L222.52706999999998,148.29840624118717L222.7832775,147.3406362836465L223.00474499999999,148.7236123062334L223.8993,148.56636010370062L223.9383825,148.70965977569392L224.02523250000002,149.19070493866113L224.15985,148.81488546134L224.168535,149.05510389615424L224.7547725,149.3762581466508L224.9111025,148.85346385660378L225.1021725,148.6736899354632L225.35837999999998,147.92375638761447L225.41049,147.68650139541484L225.90119249999998,145.31566578419392L226.061865,146.50957938305743L226.1964825,148.20090721891458L226.34847,148.83244469479217L226.999845,149.34442315271977L227.0389275,148.26757487276336L227.15617500000002,148.99973563120002L227.28645,149.1164130278374L227.43409499999999,149.14688696689763L227.6295075,149.2658888062044L227.66424750000002,148.69092240482854L227.7858375,146.96048625318505L228.27653999999998,148.30343873570962L228.34601999999998,148.77062601613054L228.4458975,149.02692451468587L228.615255,149.6368571046325L228.6890775,149.71781419859573L229.06253249999997,147.66810485723985L229.101615,148.2514200666189L229.24926,147.50284569110065L229.7486475,145.57852320450522L229.918005,146.2906906020819L230.14381500000002,147.66192645284295L231.394455,148.31439143041862L231.4856475,149.0418777007317L232.09794000000002,148.8871157268632L232.28466749999998,148.3413207479256L232.51482000000001,148.59746109388584L232.5452175,147.838164725649L232.6320675,147.81702548279287L232.7449725,147.4848769643708L233.1357975,148.61918421162613L233.36160750000002,148.75891590618536L233.6221575,147.74065098270964L233.652555,148.35619700804654L233.7784875,148.03432261508325L234.00863999999999,148.84694168520565L234.02601,148.00637867202667L234.08246250000002,148.72067391980622L234.1432575,148.2019415036749L234.2474775,147.90161226047044L234.2995875,146.9776278519621L234.4385475,147.83572197377254L234.468945,149.18566060588716L234.52974,149.10306131417502L235.0204425,143.8559941886735L235.06821,143.23800404592214L235.094265,144.96278949667018L235.27230749999998,147.18381500273907L235.2896775,148.55067234010602L235.3504725,149.42879950090781L235.45035,149.46356074287652L235.910655,146.82615046105778L236.0973825,147.50257076553328L236.2884525,147.9383264914003L236.3666175,148.4690770717619L236.43609750000002,146.03877396590832L236.5663725,147.57267460485627L236.866005,148.7688162629177L237.4088175,148.2803551423174L237.595545,148.71182308125105L237.60423,149.00989099515294L237.7649025,150.20377317153012L237.76924499999998,146.8409674339263L237.81267,148.49913083941877L237.84741,148.50886688941094L237.9559725,149.0029979545675L238.3164,149.02930556905767L238.33811250000002,148.13116521132554L238.40324999999999,148.2274384849727L239.24569499999998,147.36014292223513L239.84496000000001,147.25025210951722L240.76557,148.3417007932623L241.104285,148.47159163007683L241.33878,146.58102820602906L241.4473425,148.17453931378412L241.9944975,149.14433226251077L242.34624000000002,149.11921116941255L242.5590225,148.84401926979584L242.6111325,148.95011099371595L242.69364,149.7041733846646L242.94984749999998,148.3058409402866L243.4535775,145.89424281236373L243.79663499999998,147.77473773271106L243.97902,149.0385281863582L244.29168,146.95697037499156L244.508805,145.52965665587638L244.63907999999998,147.40790318773563" style="fill: none;" fill="none"></path></g></g></g></g><g opacity="0.2"><g><g><g><path stroke="rgb(255, 112, 67)" stroke-width="2px" d="M32.855354999999996,-1.6489526331424713L32.8683825,12.091610480099945L32.9291775,11.23992697522047L32.9465475,-4.69177682697773L33.154987500000004,-4.45375843718648L33.185385000000004,6.493373114615707L33.376455,15.24314935505393L33.50673,14.27187145873907L33.7542525,18.475750314071803L33.880185,19.580774467438488L33.949665,7.197883810848026L34.019145,34.37933171354237L34.4837925,23.284994384273915L34.670519999999996,22.100622525438695L34.683547499999996,23.62847178429368L35.148195,28.199763402342825L35.24373,36.557894797995715L35.291497500000006,40.465820806100965L35.4651975,45.5753119122237L35.53902,43.503378231078386L35.5954725,41.78537306562066L35.981955,43.65280116163194L36.242504999999994,39.72745113261044L36.6376725,54.29322378896177L36.6897825,56.18332619033754L36.828742500000004,54.4813603553921L36.8547975,55.19344563782215L36.96336,54.516282577067614L37.158772500000005,61.78258558921516L37.514857500000005,56.030128329992294L37.718954999999994,57.28713049739599L37.7927775,61.910150192677975L37.8014625,61.4809538628906L37.823175000000006,65.2705795057118L37.9317375,51.994736624881625L37.936080000000004,59.10358879901469L37.98819,62.300929605960846L38.0099025,63.4063081741333L38.135835,63.81946517340839L38.2009725,61.958647325634956L38.8002375,71.30523337237537L39.039075,69.47806844674051L40.0248225,86.69654938112944L40.33314,83.51616691052914L40.3461675,83.15195212326944L40.598032499999995,81.72168232686818L40.8672675,90.48305534943938L41.166900000000005,90.72378542460501L41.227695000000004,88.54881594143808L41.23638,87.65990239754319L41.240722500000004,98.78304623253644L41.4925875,89.66532148607075L42.252525000000006,99.15143569651991L42.85179,97.74036611616611L42.860475,103.52804231643677L43.0776,103.16072433907539L43.3859175,104.27195899374783L43.6117275,111.33301874343306L43.70292,105.30480203870684L43.7333175,101.417440331541L44.197964999999996,113.33992967102677L44.319555,106.2262393226847L44.441145,116.64390400238335L44.666955,108.36133714020252L44.936189999999996,112.23622427042574L45.361755,117.34273169841617L45.4963725,117.7098559839651L45.518085,112.82814644929022L45.8871975,119.04986951686442L45.8958825,117.9711338756606L46.247625,116.1353311194107L46.647135,121.3836601045914L46.7209575,121.86638131225482L46.812149999999995,125.03503924654797L47.394045,126.3313361252658L47.411415000000005,126.19873553467914L47.446155,126.90899310819805L47.932514999999995,122.68061017803848L47.993309999999994,117.43900477141142L48.158325,115.2202073642984L48.210435000000004,126.52796216262504L48.39282,129.49671984370798L48.7271925,125.56153480382636L49.070249999999994,127.44990016054362L49.078935,130.24204799858853L49.31343,124.26313616288826L49.43502,125.86141094053164L49.8909825,129.7172647593543L50.3512875,129.668942773249L50.4120825,128.30150124337524L50.676975,130.0477854134515L51.2371575,133.3441027365625L51.8016825,132.9516398529522L51.992752499999995,131.82726918440312L52.361864999999995,135.7308000368066L52.448715,134.7795836669393L52.605045,128.88385216193274L52.635442499999996,131.24040153762326L52.7917725,135.0811783033423L52.882965,133.60348492115736L53.15219999999999,129.51351539650932L53.23905,134.24036214547232L53.721067500000004,134.29198513459414L53.764492499999996,134.73146773595363L54.064125,135.28128049056977L54.1205775,134.59512106329203L54.146632499999996,128.34136878792197L54.203085,137.12321132607758L54.4506075,134.495691225864L54.550485,135.51119061140344L54.828405000000004,136.35744456388056L55.453725,139.7486863292288L55.68822,137.00160789722577L55.8141525,135.18030936084688L56.0486475,134.51294216047972L56.218005,138.16677129780874L56.231032500000005,132.81920204591006L56.283142500000004,137.73075866466388L56.41776,136.87614505598322L56.90412,128.14308400684968L57.390480000000004,133.56327120400965L57.503385,140.50866191228852L57.99843,136.47831855760887L58.03317,126.13347787829116L58.2112125,133.4721762961708L58.6107225,138.53013816825114L58.8886425,137.5860214275308L59.0970825,141.9616461948026L59.19696,139.58549479558133L59.49225,139.9473646755796L59.535675,139.68088389211334L59.5487025,141.47459473880008L59.61384,136.2618617755361L59.7571425,140.90036548278295L60.5474775,141.53345644427463L60.838425,139.21090822387487L60.960015,139.6693159576971L61.00344,135.85773617215455L61.1554275,134.01739196106791L61.8415425,141.15247907303274L62.16723,142.00599852902815L62.662275,133.9333688649349L62.8403175,140.69493058905937L63.33102,143.17648845445365L63.4569525,142.16148566175252L63.47866500000001,142.00632100529037L63.5177475,142.4764388515614L63.9085725,142.72497326438315L63.921600000000005,142.10790720954537L64.04319000000001,142.22755105420947L64.086615,138.7199983857572L64.4904675,141.77707541221753L64.6381125,139.70499440166168L64.8986625,139.06423818971962L65.69334,139.94598719710484L65.806245,141.48989536170848L65.8192725,144.16091266740113L65.910465,143.83748855162412L65.94086250000001,144.24465243774466L66.1927275,144.67642239597626L66.2187825,144.44219851121306L66.4619625,138.88051326340064L67.352175,143.18975325278006L67.595355,140.50954588875175L67.73431500000001,143.91639632941224L68.11211250000001,143.31581777497195L68.255415,143.29209052794613L68.5984725,144.4270452177152L68.62886999999999,142.947124379687L68.68532250000001,143.78778702649288L68.9458725,144.44596416852437L69.0761475,143.16500397236086L69.176025,142.34339936356992L69.25419000000001,146.21663290145807L69.8838525,143.98101727548055L70.16177250000001,141.95329272025265L70.81748999999999,145.10999533650465L70.930395,137.86683128401637L71.764155,140.32370889745653L71.7945525,144.0822902759537L72.285255,137.34471851913258L72.2982825,146.55384416528977L72.389475,143.23447236511856L72.6456825,141.80299714626744L72.83241,145.70032058819197L73.2015225,141.60357081983238L73.33614,139.59808064228855L73.40562,141.16693486995064L73.47944249999999,142.16972168488428L73.6531425,145.4326117162127L73.85289750000001,139.11710781231523L73.85723999999999,145.90188988787122L73.952775,145.58233136613853L74.1047625,139.0087290010415L74.21766749999999,144.26451924210414L74.25675,146.60761218820699L74.48256,138.90362955699675L74.4955875,135.14185329386964L74.6432325,145.47149843838997L74.6606025,141.1252787669655L74.76048,142.55722276121378L74.786535,145.8030215506442L74.79522,143.4373490845319L74.994975,145.44699333328754L75.35106,145.7234863350168L75.43356750000001,144.92690093885176L75.47265,147.00588067481294L75.76794000000001,141.79093983094208L75.776625,140.00382068753242L76.037175,146.70144865941256L76.7276325,141.97955856635235L76.957785,145.97025382518768L77.044635,147.02051213372033L77.1792525,145.14002271881327L77.218335,143.51460842136294L77.2921575,144.55522180488333L77.36598,144.93511944729835L77.722065,146.47932484641206L77.82194249999999,144.79158969316632L77.8827375,142.65029270737432L78.2040825,142.88032749155536L78.6991275,143.2913765469566L79.1160075,143.1615566702094L79.13772,140.64230514178053L79.29405,145.52709417021833L79.4286675,144.8987043562811L79.84989,142.87045436049812L79.962795,143.322094213916L79.980165,145.9657504905481L80.049645,144.6248200123664L80.23203,144.9084239762742L80.50995,146.77564550202806L80.5229775,141.07604807778262L80.5924575,139.5294251369778L81.0093375,141.76079190638848L81.23948999999999,142.51670202193782L82.1644425,146.48114688880742L82.2860325,138.52968175616115L82.7463375,144.61223416565917L83.0589975,138.44925741269253L83.3282325,145.42689780774526L83.66694749999999,146.63720530935097L83.74077,138.80379688180983L83.85801749999999,144.47186323651113L83.94921,146.14279201906174L84.00132,143.9369523881469L84.0664575,147.35979476664215L84.31398,146.35323456733022L84.6309825,142.1492975014262L85.10865749999999,146.99974486848805L85.33881,145.93218308128417L85.35618,145.15257044532336L85.781745,143.3723149979487L85.96413000000001,147.6405082923593L86.1855975,146.7632940430194L86.28547499999999,144.98118203901686L86.5416825,144.2937852507457L86.55470999999999,146.37649458437227L86.96290499999999,145.707163678715L87.11055,146.33185068215244L87.2625375,142.4862759229727L87.431895,146.90526138420682L87.831405,144.28088310942985L87.92693999999999,146.24437616276555L88.28302500000001,145.1256060723681L88.8953175,142.90906290826388L89.1819225,141.83291944046505L89.21232,147.96311694500037L89.2514025,139.23954885522835L89.325225,144.10275257960893L89.40338999999999,142.18996969121508L89.65959749999999,145.8716399660334L89.8767225,141.99786038207822L90.08081999999999,147.77318203251343L90.35439749999999,148.10877061227802L90.680085,145.92744999518618L90.70614,147.03730202000588L90.836415,146.51374326332007L90.87549750000001,146.41938083642162L90.91892250000001,144.63903369451873L91.3184325,146.95576291834004L91.357515,145.90823020390235L91.374885,147.74543207441457L91.44870750000001,144.09307314036414L91.72662749999999,145.4755865719635L91.809135,142.79000838124193L92.39537250000001,146.06031021522358L92.66895000000001,147.24688995466568L92.86870499999999,136.90875533921644L93.059775,145.51519963843748L93.43323,148.14885812066495L93.685095,140.72198871709406L94.3321275,147.52848848712165L94.3408125,148.7604369276669L94.4797725,146.43959690420888L94.61438999999999,147.2289358569542L94.87059749999999,147.46086737851147L95.491575,148.63024872739334L95.595795,147.598039817065L95.6348775,147.70819070236757L95.873715,148.4116881225491L96.5294325,143.6576065532863L96.5902275,145.89629858219996L97.0331625,148.08141731028445L97.12435500000001,144.65027915267274L97.7019075,146.0630589905195L98.0145675,148.2503067831276L98.1101025,147.38993238843977L98.183925,147.54586408508476L98.38368,142.08726872876287L98.531325,147.4000404223334L98.8135875,146.25422662775964L99.1609875,144.62952012964524L99.4910175,147.24236601451412L99.6473475,139.39839571667835L100.12936499999999,147.6451239270391L100.1337075,144.79645156371407L100.2813525,144.1766212794464L100.3421475,142.2368688667193L100.52453249999999,147.53184718557168L101.24973,145.22587043303065L101.3843475,147.20173246006016L101.5319925,146.98451945569832L102.00098249999999,147.17699451267254L102.14428500000001,145.33913996256888L102.22245,135.76305590523407L102.231135,146.09383229236118L102.335355,147.61984766065143L102.3396975,134.3929686276242L102.352725,141.75376027543098L102.4352325,146.31557696394157L102.58722,146.7800107797375L102.72183749999999,143.22598598501645L102.891195,146.23086306801997L102.93462,148.90874716057442L103.32110250000001,147.15269494755194L103.3818975,148.98573914088774L103.50783,142.36027424759232L103.54257,148.07112846302334L103.66850249999999,145.97117592184804L104.09841,146.9593281870475L105.10152749999999,147.25349299097434L105.2231175,147.39161482849158L105.2622,136.78889513667673L105.38379,148.34968407650013L105.53577750000001,147.09850090567488L105.5878875,148.67837908223737L105.8658075,146.34465752297547L106.452045,138.36164998775348L106.68654,146.74927611323074L107.2640925,142.27951815538108L107.26843500000001,149.2202149280347L107.876385,145.93099929462187L108.4018275,148.523673928692L108.432225,148.63602908863686L108.9750375,148.53463193995412L109.46574000000001,140.79781803139485L109.5482475,147.65475236764178L109.6698375,148.55336028977763L109.7653725,143.23323809495196L109.856565,147.5153540186584L110.151855,146.82925280195195L110.3820075,147.22857062425464L110.6338725,147.47090123256203L110.82494249999999,147.44581144605763L111.7542375,147.09709560975898L111.8324025,145.67174898530357L111.9279375,146.96215680870228L111.9539925,147.24589058733545L112.427325,140.44670628919266L112.48812,143.97948525566608L112.5358875,146.88349217595533L112.774725,148.64018367498647L112.8224925,144.35884612449445L112.8485475,140.85760801518336L113.104755,147.61697319173254L113.2220025,143.1398920349311L113.32188000000001,147.73282510705758L113.62585499999999,144.38867260306142L113.72139,142.1356195625849L113.8646925,145.179885111982L113.9689125,148.31500087876339L114.1426125,134.65868494659662L114.2207775,148.6121576030273L114.2468325,147.83266705472488L114.25985999999999,149.18545909586828L114.58989000000001,148.28880766709335L114.59423249999999,147.63397119368892L114.79833,144.33747614803724L114.9329475,142.44521016790532L115.050195,145.10267934948206L115.0632225,146.84776994527783L115.084935,150.48349559493363L115.3932525,148.37165418849327L115.44102,147.79478536639363L115.6538025,149.19975674548186L115.901325,145.78031633701175L116.09673749999999,144.27521556336433L116.27478,147.53901687345933L116.3312325,149.75579287984874L116.335575,142.0401068329811L116.43110999999999,148.1477680890821L116.50059,149.3372119946871L116.9826075,149.64199481892865L117.0738,147.86425581970252L117.3734325,143.6851798191201L117.38646,146.98170474276412L117.3908025,146.86405705707148L117.5992425,141.06706716539338L117.7034625,147.87165165308397L118.2766725,147.60897001088597L118.62407250000001,143.46746300999075L118.680525,144.65543362149037L118.95844500000001,148.28447484306525L119.2407075,146.32419831014704L119.340585,148.22622203046922L119.705355,148.9965601254953L119.7183825,147.68912081618328L119.74009500000001,147.61449434864335L120.0310425,141.11086109024473L120.1092075,148.05655985092744L120.43489500000001,142.12512620561756L120.6042525,147.6249222831102L121.2903675,148.2697140845703L121.47275250000001,146.02618027548306L121.47709499999999,145.09510167245753L121.75935750000001,144.62011268315837L121.7854125,146.03350347443484L121.89831749999999,148.25534380052704L121.98951,149.77436720347032L122.01556500000001,147.59327067132108L122.70168,147.92238448408898L123.7395375,142.5506228157319L123.79598999999999,147.158850844251L123.943635,147.13099476776551L124.047855,148.5248056864366L124.10865000000001,148.22146782372147L124.23024000000001,149.674307352514L124.725285,147.13805370102637L124.8772725,142.83779153320938L125.03794500000001,148.05892433342524L125.43311250000001,148.507926166174L125.9976375,149.89316725241952L126.32332500000001,147.18925633770414L126.71415,148.09159076667856L126.7271775,149.0875695204595L127.36552499999999,147.3428354000207L127.38289499999999,149.6109175857855L127.56962250000001,149.15055232832674L127.61739,143.8704584010411L127.660815,139.46504733595066L127.80846,149.25063020910602L127.851885,147.56272609066218L127.96479000000001,147.46058817382436L128.1602025,149.24981268541887L128.26008,150.00288799765985L128.4815475,148.64082399127074L128.5857675,144.8360872962512L128.668275,144.22366160270758L128.87237249999998,143.6291575531941L129.363075,146.6053023103159L129.5758575,149.13670181832276L129.92759999999998,143.54796668468043L129.9753675,147.1685709793819L130.0622175,149.5308234456461L130.37922,146.1940647144802L130.6267425,148.10285013355315L131.09139,148.49101007112768L131.70368249999999,148.986940957373L131.87304,147.57963548891712L131.9989725,148.5119715433102L132.37677,147.98527044604998L132.58521,142.45086329011247L132.593895,147.41632959467825L132.75891,147.05414857144933L132.8587875,141.3888552035205L133.167105,140.31467647128738L133.77939750000002,146.49654950900003L134.05731749999998,148.410734602483L134.4828825,143.968386096647L134.51762250000002,147.69676906708628L135.1776825,138.14336755732074L135.27321750000002,146.88346538878977L135.41652,144.5995061409194L135.737865,149.3712430279702L135.9072225,148.49654110567644L136.2806775,145.8835046198219L136.59768,145.41451286477968L136.7062425,149.91239219508134L136.762695,146.688156043645L136.80177750000001,146.49070990690961L137.144835,149.18875906860922L137.40104250000002,145.81846744241193L137.8960875,147.31080722250044L137.96122499999998,148.50142718770076L138.3042825,146.08468241477385L138.68207999999998,148.06301092158537L139.06856249999998,148.16832054185215L139.229235,148.4629834840307L139.3812225,145.587473471649L139.7025675,146.26991875539534L140.24103749999998,146.2216204656288L140.33222999999998,144.80794737883843L140.3713125,145.11951920413412L140.44079250000001,149.18616792547982L140.71437,148.85115063353442L140.7187125,147.76001459523104L140.77950750000002,138.70501508773305L141.313635,148.15150695922785L141.3614025,149.74397613387555L141.79565250000002,150.69494163163472L142.0866,147.23471106681973L142.9551,146.62840675574262L143.5065975,147.0644533879822L143.51094,147.04720451391768L143.6368725,146.04631083039567L143.6455575,145.85259429132566L144.075465,138.85743509000167L144.72684,148.50058596767485L145.00476,148.56193836440798L145.030815,135.01540550915524L145.05687,142.15139514254406L145.07424,147.4697849289514L145.0785825,146.33365417958703L145.57797,147.36666000809055L145.81680749999998,141.35771718411706L146.3379075,146.5873590304982L146.5810875,149.5019030944677L147.0066525,149.01471049070824L147.0500775,142.7283752344083L147.08047499999998,149.45146286173258L147.15864000000002,147.91288122197147L147.40616250000002,148.01781530678272L147.5972325,142.29624055861495L147.9706875,146.89738956349902L148.365855,148.03799531492405L148.37454,148.00035368080717L148.5135,149.15419486770406L148.591665,147.33348719438072L149.82059249999998,149.03508676635101L149.93349750000002,144.9778387947008L150.12456749999998,147.48337168840226L150.363405,146.66888782940805L150.63263999999998,150.45658170548268L150.68909250000002,147.74381814769004L151.08860249999998,149.63270842982456L151.21453499999998,148.08941997599322L151.3838925,148.94783787732013L152.5997925,149.68153061473276L152.94285,150.3784347862238L153.055755,148.81956135341898L153.15129000000002,149.4537593460409L153.2337975,144.55598832992837L153.34236,149.3008113275282L153.41183999999998,149.66102297895122L153.46395,140.1883275930304L153.6506775,148.46335592865944L153.94596750000002,148.92021206743084L154.2152025,148.79115562490188L155.11844250000001,141.3669814222958L155.14884,149.90719548496418L155.18792249999998,147.353918589768L155.4050475,147.45457754598465L155.41807500000002,138.4299201699905L155.50926750000002,149.7078428232344L155.64388499999998,149.3026199763408L155.72639249999997,150.13675943319686L156.3169725,148.6415678502526L156.668715,149.59343380888458L156.6730575,145.8153838275466L156.8207025,145.6556962612085L157.41562499999998,149.78567550843582L157.4373375,141.95817004493438L157.5502425,147.7855716117192L157.7499975,148.65228477702476L157.815135,149.20562416501343L158.17122,139.95564809138887L158.3579475,146.87356134946458L158.47085249999998,144.6949076007586L158.64889499999998,138.76542426715605L158.8356225,149.27129444677848L159.4088325,149.29368388094008L159.43922999999998,148.67042174865492L159.4566,140.97774948296137L159.89953500000001,143.58686886099167L160.07323499999998,149.0768335335888L160.48143000000002,150.09282796655316L160.542225,148.18869012070354L160.62039,150.43983921187464L160.802775,148.14537836483214L161.983935,146.3278836059617L162.2140875,148.83279472833965L162.730845,150.5396523118252L163.52118000000002,140.3985913884826L163.6818525,145.48873494914733L164.0900475,148.52745452499948L164.780505,147.57612585509196L164.89341,139.65631078882143L165.06710999999999,148.09183700254653L165.266865,148.10941041342448L165.5491275,150.58896490791813L165.579525,146.81896601524204L165.614265,149.9419435900636L165.82270499999998,145.10343557177112L165.8617875,148.99084982299246L166.117995,147.8670818656683L166.1744475,144.13895131275058L166.80411,148.86158526479267L166.85622,143.3198873635847L166.99952249999998,148.17674046917818L167.1819075,147.80617712368257L167.46417,149.5692913607927L167.785515,148.37785232649185L167.9896125,149.9963962311158L168.271875,148.58232030656654L168.3978075,148.64032688329462L168.45426,146.84048435138538L168.7538925,147.75292269315105L168.76692,146.01347697735764L168.9536475,149.6311084118206L169.16643,148.9189396770671L169.40961,150.58820739778457L169.98282,144.40592353767715L170.01756,145.22703876555897L170.0479575,142.78931706631556L170.45181000000002,147.55408826004714L170.50392,150.09996932186186L170.59077,150.1082110115094L171.085815,149.14617365703452L171.103185,147.85007768205833L171.2204325,144.599737952929L171.2291175,148.13264209788758L171.6199425,147.84721712186L171.92391750000002,148.09308054519352L172.041165,141.50280471495353L172.0715625,148.4435828793794L172.1931525,149.86042560904752L172.78373249999999,136.5786447348073L173.1832425,145.2267997416202L173.21364,150.36962644499727L173.604465,150.1180635370547L173.6435475,149.30837148986757L173.6956575,147.33323786768597L173.778165,148.71344039111864L173.8519875,149.61769422353245L174.0864825,150.9258070755168L174.1385925,145.634942389559L174.24715500000002,151.2109188477625L174.4078275,146.76372057711706L174.6596925,150.06713598396163L174.8594475,149.07187172630802L174.941955,151.31066729791928L174.9723525,150.03341866959818L175.1721075,148.9330529073486L175.3979175,146.51792566711083L175.410945,150.66110119933728L175.5629325,145.6381558191497L176.1274575,148.75166979746427L176.35326750000002,148.2915868355194L176.35761000000002,148.3855876356829L176.4488025,149.23222794150934L176.68764000000002,150.3126207810128L177.0654375,147.09083050384652L177.06978,147.15197530004662L177.23479500000002,148.72107164247427L177.3867825,146.19829605636187L177.425865,145.50573037541471L177.5952225,149.54120656312443L177.808005,143.11471312958747L178.04684250000003,149.21151940198615L178.1858025,145.67490781028755L178.59833999999998,149.3702910533175L179.2584,149.65245005569886L179.4711825,147.48397646017838L179.6275125,150.0834097021725L179.8967475,147.71997396438383L180.23112,149.83075933833607L180.2441475,135.19416656764224L180.57417750000002,144.74126485129818L180.66537,148.966703768936L180.70011000000002,149.79607459518593L180.7565625,149.53623651363887L180.7652475,148.0967503868742L180.7913025,149.13023220270406L181.21686749999998,150.6703118631849L181.2255525,149.17221490305383L181.60335,149.9675969373202L181.6163775,149.47510098991916L181.733625,148.7228050811682L182.47619250000002,149.61515768500976L182.50659000000002,143.58526678243652L182.793195,150.02062676777132L182.81490749999998,147.8475086898543L183.2665275,149.63733179157134L183.34035,146.05963229388L183.6312975,150.4402013537474L183.7181475,148.10638140316587L184.182795,148.25007033487782L184.408605,150.2878266836051L184.4737425,147.46815245726611L184.53888,147.0032617142424L184.60836,144.71598085784353L184.6648125,150.1210915170377L184.8168,148.7001828047214L184.8993075,150.22280959656928L184.92970499999998,149.90833342436235L185.9415075,149.37664939917158L186.2020575,149.71152605849784L186.3323325,148.46024346607737L186.41484,150.59172141028102L186.8013225,148.49972826323938L186.97068,147.97634774423204L186.98805000000002,149.91988229868002L187.02713250000002,148.67777637101244L187.0531875,150.56080927880248L187.16174999999998,147.14840230427217L187.40927250000001,149.0627692413982L188.04327750000002,150.654786897765L188.5470075,150.61331753223203L188.69030999999998,149.19204513262957L189.1636425,149.85724978451617L189.1896975,143.5397203587927L189.22877999999997,148.05925762758125L189.7889625,149.3062182138674L189.9366075,148.2650417847326L191.0482875,142.32104135281406L191.13079499999998,141.47651414223947L191.3175225,148.91356009303126L191.617155,149.65949611051474L192.5507925,148.52106836170424L192.989385,149.0889217571821L193.22822250000002,150.80138687317958L193.29336,149.79138220497407L193.5929925,136.0793793615885L193.74063750000002,150.4302504368825L194.0619825,149.02009728667326L194.1314625,149.17783608671743L194.17923,147.6385930100223L194.326875,149.52189971355256L194.674275,149.87460117100272L194.9391675,147.35654218657874L194.94351,139.0725793009624L195.19537499999998,149.38321019418072L195.282225,148.88262967416085L195.4689525,148.5501746776281L195.490665,148.70269410149194L195.803325,145.2615529980976L196.4156175,150.19420090375934L196.51549500000002,148.04991405818146L196.5198375,139.93101935321465L197.1104175,146.5789741325425L197.5272975,148.6724003929412L197.78350500000002,139.3091625168454L197.8312725,148.26130909624044L199.0645425,149.4652850391576L199.242585,150.39440302771982L199.54656,148.31793252797797L199.66815,146.67593027825933L199.8896175,148.18907750432845L200.31084,145.153673870489L200.4454575,149.05799648968969L200.46716999999998,148.36065857217181L200.5409925,146.26125980413053L200.76246,148.99366196023766L200.927475,144.86178443022072L201.813345,150.3664542264305L202.126005,143.83785945083946L202.5819675,147.69117982196622L202.959765,138.51425543962978L203.011875,148.31001846597064L203.150835,147.88390987215098L203.272425,148.27692343806848L203.6502225,147.86103054194245L203.6936475,149.25522317772266L203.7197025,150.90973889728775L203.7370725,151.08699369285023L203.87168999999997,149.4860523043899L203.880375,148.04349904716946L203.94117,148.00350683927536L203.96722499999998,137.00758761679754L204.28422750000001,148.0001708068885L205.356825,147.83877710415982L205.738965,150.11973361379933L205.85187000000002,148.78598415653687L206.242695,147.76170527748764L206.35994250000002,146.88900981692132L206.6639175,150.22407116903923L206.9592075,146.9665251772385L207.02868750000002,150.11638933920767L207.3152925,148.10589614335913L207.5237325,149.32945814053528L207.5932125,150.23262503219303L207.719145,148.88757860299665L207.8277075,143.47608332592063L207.910215,149.33115345903207L208.535535,150.29769363300875L208.570275,150.8098660413525L208.848195,150.32358033768833L208.9654425,150.13340331043582L209.55168,149.38999095303006L209.5820775,149.00002185150515L209.66024249999998,145.32521681813523L210.10752000000002,150.1124959277222L210.21174,146.77242228481919L210.255165,149.4831824717112L210.31596000000002,145.0936592866201L210.585195,150.15477843827102L210.9977325,148.4623050475493L211.2843375,149.50080945692025L211.34079000000003,150.5501600926509L211.47975,150.05420190410223L211.55791499999998,139.97483285330236L211.60134,150.53462817287073L211.6925325,147.33604382327758L212.165865,148.49913946073502L212.46984,149.36238008213695L212.895405,146.8629258144647L213.4034775,148.29585217649583L213.56849250000002,146.66706939297728L213.711795,143.7932392449584L213.7856175,149.93073110072874L213.95497500000002,149.7149197863182L215.00586,144.01010607671924L215.07534,150.72030933498172L215.70066,150.55688006523997L215.92647,148.06960880651604L216.11754,149.3524044386577L216.2695275,148.17186778073665L216.39980250000002,151.11064598732628L216.5040225,145.73771856212988L216.60824250000002,147.77175097970758L216.64298250000002,148.49528416944668L216.69075,144.91578426514752L216.69509250000002,146.21232119807974L216.95564249999998,150.16805663018022L217.07289,149.12997823976912L217.09026,148.71466435852926L217.15539750000002,141.60943823936395L217.2683025,144.38376952148974L217.31607,148.84945170907304L217.36383750000002,151.0510069389129L217.50714,149.85415483661927L217.87625250000002,149.46670630434528L218.106405,139.96329891798086L218.123775,150.75219430419384L218.1802275,140.4812730657868L218.5276275,149.2949160905555L218.5449975,149.94179677579086L218.662245,148.1721804693807L218.7013275,149.74954580375925L219.079125,147.4000476342626L219.1095225,150.1129363705404L219.3005925,147.98336598160677L219.530745,148.2971049916232L219.68273250000001,149.37166183500085L219.70010249999999,149.47939363319892L219.964995,149.97196479071863L220.3862175,149.9032418023562L220.5512325,149.65121939149685L220.75098749999998,149.1117655428825L220.75533,148.94147077412345L220.7683575,146.80354330467526L221.0115375,136.46651159925386L221.3763075,148.4351480130572L221.4805275,149.06335804390255L221.69331,150.17680933652446L221.754105,150.26473408634774L222.396795,144.53642751742154L222.52706999999998,149.8868691776879L222.7832775,145.9039813473355L223.00474499999999,150.79807634011377L223.8993,148.33048179990146L223.9383825,148.92460928368382L224.02523250000002,149.91227268311195L224.15985,148.2511562453583L224.168535,149.41543154837564L224.7547725,149.85798952239566L224.9111025,148.06927242153324L225.1021725,148.4040290537523L225.35837999999998,146.7988560658414L225.41049,147.33061890711542L225.90119249999998,141.75941236736253L226.061865,148.30044978135265L226.1964825,150.73789897270035L226.34847,149.77975090860855L226.999845,150.11239083961118L227.0389275,146.65230245282874L227.15617500000002,150.097976768855L227.28645,149.2914291227935L227.43409499999999,149.192597875488L227.6295075,149.44439156516455L227.66424750000002,147.82847280276474L227.7858375,144.3648320257198L228.27653999999998,150.31786745949648L228.34601999999998,149.47140693676192L228.4458975,149.41137226251885L228.615255,150.55175598955248L228.6890775,149.83924983954057L229.06253249999997,144.593540845206L229.101615,149.1263928806875L229.24926,146.37998412782326L229.7486475,142.6920394746121L229.918005,147.35894169844687L230.14381500000002,149.71878022898454L231.394455,149.29308889678214L231.4856475,150.13310710620135L232.09794000000002,148.65497276606038L232.28466749999998,147.52262827951927L232.51482000000001,148.98167161282618L232.5452175,146.69922017329372L232.6320675,147.78531661850866L232.7449725,146.98665418673772L233.1357975,150.32064508250915L233.36160750000002,148.96851344802417L233.6221575,146.21325359749608L233.652555,149.27951604605187L233.7784875,147.55151102563832L234.00863999999999,150.06587029038928L234.02601,146.7455341522582L234.08246250000002,149.79211679147556L234.1432575,147.4238428794779L234.2474775,147.4511183956638L234.2995875,145.59165123919956L234.4385475,149.12286315648817L234.468945,151.21056855405914L234.52974,148.97916237660684L235.0204425,135.9853935004212L235.06821,142.31101883179508L235.094265,147.54996767279226L235.27230749999998,150.5153532618424L235.2896775,150.6009583461564L235.3504725,150.74599024211057L235.45035,149.51570260582957L235.910655,142.87003503832966L236.0973825,148.5172012222465L236.2884525,148.5919600802008L236.3666175,149.2652029423043L236.43609750000002,142.39331930712797L236.5663725,149.87352556327824L236.866005,150.56302875000983L237.4088175,147.54766346141696L237.595545,149.35902498965152L237.60423,149.45699286600575L237.7649025,151.9945964360959L237.76924499999998,141.79675882752053L237.81267,150.9863759476575L237.84741,148.52347096439917L237.9559725,149.74419455230236L238.3164,149.06876699079294L238.33811250000002,146.78395467472728L238.40324999999999,148.37184839544352L239.24569499999998,146.05919957812876L239.84496000000001,147.08541589044034L240.76557,149.97887381887995L241.104285,148.66642788529862L241.33878,143.74518306995742L241.4473425,150.56480597541668L241.9944975,150.59902168560075L242.34624000000002,149.08152952976525L242.5590225,148.43123142037075L242.6111325,149.10924857959617L242.69364,150.83526697108755L242.94984749999998,146.2083422737196L243.4535775,142.27684562047943L243.79663499999998,150.59548011323204L243.97902,150.93421386682894L244.29168,143.8346336579416L244.508805,143.3886860772036L244.63907999999998,150.2252729855245" style="fill: none;" fill="none"></path></g></g></g></g></g></g><g transform="translate(58, 177)" clip-path="url(#clip_1)"><clipPath id="clip_1"><rect width="271" height="23"></rect></clipPath><g><g><line x1="0" y1="0" x2="0" y2="5" style="visibility: inherit;" fill="rgb(0, 0, 0)" stroke="rgb(204, 204, 204)" stroke-width="1px"></line><line x1="27.140625" y1="0" x2="27.140625" y2="5" style="visibility: inherit;" fill="rgb(0, 0, 0)" stroke="rgb(204, 204, 204)" stroke-width="1px"></line><line x1="54.28125" y1="0" x2="54.28125" y2="5" style="visibility: inherit;" fill="rgb(0, 0, 0)" stroke="rgb(204, 204, 204)" stroke-width="1px"></line><line x1="81.421875" y1="0" x2="81.421875" y2="5" style="visibility: inherit;" fill="rgb(0, 0, 0)" stroke="rgb(204, 204, 204)" stroke-width="1px"></line><line x1="108.5625" y1="0" x2="108.5625" y2="5" style="visibility: inherit;" fill="rgb(0, 0, 0)" stroke="rgb(204, 204, 204)" stroke-width="1px"></line><line x1="135.703125" y1="0" x2="135.703125" y2="5" style="visibility: inherit;" fill="rgb(0, 0, 0)" stroke="rgb(204, 204, 204)" stroke-width="1px"></line><line x1="162.84375" y1="0" x2="162.84375" y2="5" style="visibility: inherit;" fill="rgb(0, 0, 0)" stroke="rgb(204, 204, 204)" stroke-width="1px"></line><line x1="189.984375" y1="0" x2="189.984375" y2="5" style="visibility: inherit;" fill="rgb(0, 0, 0)" stroke="rgb(204, 204, 204)" stroke-width="1px"></line><line x1="217.125" y1="0" x2="217.125" y2="5" style="visibility: inherit;" fill="rgb(0, 0, 0)" stroke="rgb(204, 204, 204)" stroke-width="1px"></line><line x1="244.265625" y1="0" x2="244.265625" y2="5" style="visibility: inherit;" fill="rgb(0, 0, 0)" stroke="rgb(204, 204, 204)" stroke-width="1px"></line><line x1="271.40625" y1="0" x2="271.40625" y2="5" style="visibility: inherit;" fill="rgb(0, 0, 0)" stroke="rgb(204, 204, 204)" stroke-width="1px"></line></g><g transform="translate(0, 8)"><text x="0" y="0" dx="0em" dy="0.95em" style="text-anchor: middle; visibility: hidden; font-family: &quot;Helvetica Neue&quot;, sans-serif; font-size: 12px; font-weight: 200;" fill="rgb(50, 49, 63)" stroke="none" stroke-width="1px">-50k</text><text x="27.140625" y="0" dx="0em" dy="0.95em" style="text-anchor: middle; visibility: inherit; font-family: &quot;Helvetica Neue&quot;, sans-serif; font-size: 12px; font-weight: 200;" fill="rgb(50, 49, 63)" stroke="none" stroke-width="1px">0</text><text x="54.28125" y="0" dx="0em" dy="0.95em" style="text-anchor: middle; visibility: hidden; font-family: &quot;Helvetica Neue&quot;, sans-serif; font-size: 12px; font-weight: 200;" fill="rgb(50, 49, 63)" stroke="none" stroke-width="1px">50k</text><text x="81.421875" y="0" dx="0em" dy="0.95em" style="text-anchor: middle; visibility: inherit; font-family: &quot;Helvetica Neue&quot;, sans-serif; font-size: 12px; font-weight: 200;" fill="rgb(50, 49, 63)" stroke="none" stroke-width="1px">100k</text><text x="108.5625" y="0" dx="0em" dy="0.95em" style="text-anchor: middle; visibility: hidden; font-family: &quot;Helvetica Neue&quot;, sans-serif; font-size: 12px; font-weight: 200;" fill="rgb(50, 49, 63)" stroke="none" stroke-width="1px">150k</text><text x="135.703125" y="0" dx="0em" dy="0.95em" style="text-anchor: middle; visibility: inherit; font-family: &quot;Helvetica Neue&quot;, sans-serif; font-size: 12px; font-weight: 200;" fill="rgb(50, 49, 63)" stroke="none" stroke-width="1px">200k</text><text x="162.84375" y="0" dx="0em" dy="0.95em" style="text-anchor: middle; visibility: hidden; font-family: &quot;Helvetica Neue&quot;, sans-serif; font-size: 12px; font-weight: 200;" fill="rgb(50, 49, 63)" stroke="none" stroke-width="1px">250k</text><text x="189.984375" y="0" dx="0em" dy="0.95em" style="text-anchor: middle; visibility: inherit; font-family: &quot;Helvetica Neue&quot;, sans-serif; font-size: 12px; font-weight: 200;" fill="rgb(50, 49, 63)" stroke="none" stroke-width="1px">300k</text><text x="217.125" y="0" dx="0em" dy="0.95em" style="text-anchor: middle; visibility: hidden; font-family: &quot;Helvetica Neue&quot;, sans-serif; font-size: 12px; font-weight: 200;" fill="rgb(50, 49, 63)" stroke="none" stroke-width="1px">350k</text><text x="244.265625" y="0" dx="0em" dy="0.95em" style="text-anchor: middle; visibility: inherit; font-family: &quot;Helvetica Neue&quot;, sans-serif; font-size: 12px; font-weight: 200;" fill="rgb(50, 49, 63)" stroke="none" stroke-width="1px">400k</text><text x="271.40625" y="0" dx="0em" dy="0.95em" style="text-anchor: middle; visibility: hidden; font-family: &quot;Helvetica Neue&quot;, sans-serif; font-size: 12px; font-weight: 200;" fill="rgb(50, 49, 63)" stroke="none" stroke-width="1px">450k</text></g><line x1="0" y1="0" x2="271.40625" y2="0" fill="rgb(0, 0, 0)" stroke="rgb(204, 204, 204)" stroke-width="1px"></line></g></g></g></g></svg>