<svg viewBox="0 0 330 200" xmlns="http://www.w3.org/2000/svg"><g><g><g><g><g><line x1="48.875" y1="177" x2="43.875" y2="177" style="visibility: inherit;" fill="rgb(0, 0, 0)" stroke="rgb(204, 204, 204)" stroke-width="1px"></line><line x1="48.875" y1="165.20000000000002" x2="43.875" y2="165.20000000000002" style="visibility: inherit;" fill="rgb(0, 0, 0)" stroke="rgb(204, 204, 204)" stroke-width="1px"></line><line x1="48.875" y1="153.4" x2="43.875" y2="153.4" style="visibility: inherit;" fill="rgb(0, 0, 0)" stroke="rgb(204, 204, 204)" stroke-width="1px"></line><line x1="48.875" y1="141.6" x2="43.875" y2="141.6" style="visibility: inherit;" fill="rgb(0, 0, 0)" stroke="rgb(204, 204, 204)" stroke-width="1px"></line><line x1="48.875" y1="129.8" x2="43.875" y2="129.8" style="visibility: inherit;" fill="rgb(0, 0, 0)" stroke="rgb(204, 204, 204)" stroke-width="1px"></line><line x1="48.875" y1="118" x2="43.875" y2="118" style="visibility: inherit;" fill="rgb(0, 0, 0)" stroke="rgb(204, 204, 204)" stroke-width="1px"></line><line x1="48.875" y1="106.19999999999999" x2="43.875" y2="106.19999999999999" style="visibility: inherit;" fill="rgb(0, 0, 0)" stroke="rgb(204, 204, 204)" stroke-width="1px"></line><line x1="48.875" y1="94.39999999999996" x2="43.875" y2="94.39999999999996" style="visibility: inherit;" fill="rgb(0, 0, 0)" stroke="rgb(204, 204, 204)" stroke-width="1px"></line><line x1="48.875" y1="82.59999999999997" x2="43.875" y2="82.59999999999997" style="visibility: inherit;" fill="rgb(0, 0, 0)" stroke="rgb(204, 204, 204)" stroke-width="1px"></line><line x1="48.875" y1="70.8" x2="43.875" y2="70.8" style="visibility: inherit;" fill="rgb(0, 0, 0)" stroke="rgb(204, 204, 204)" stroke-width="1px"></line><line x1="48.875" y1="59" x2="43.875" y2="59" style="visibility: inherit;" fill="rgb(0, 0, 0)" stroke="rgb(204, 204, 204)" stroke-width="1px"></line><line x1="48.875" y1="47.19999999999999" x2="43.875" y2="47.19999999999999" style="visibility: inherit;" fill="rgb(0, 0, 0)" stroke="rgb(204, 204, 204)" stroke-width="1px"></line><line x1="48.875" y1="35.39999999999998" x2="43.875" y2="35.39999999999998" style="visibility: inherit;" fill="rgb(0, 0, 0)" stroke="rgb(204, 204, 204)" stroke-width="1px"></line><line x1="48.875" y1="23.599999999999966" x2="43.875" y2="23.599999999999966" style="visibility: inherit;" fill="rgb(0, 0, 0)" stroke="rgb(204, 204, 204)" stroke-width="1px"></line><line x1="48.875" y1="11.799999999999926" x2="43.875" y2="11.799999999999926" style="visibility: inherit;" fill="rgb(0, 0, 0)" stroke="rgb(204, 204, 204)" stroke-width="1px"></line><line x1="48.875" y1="0" x2="43.875" y2="0" style="visibility: inherit;" fill="rgb(0, 0, 0)" stroke="rgb(204, 204, 204)" stroke-width="1px"></line></g><g transform="translate(38.875, 0)"><text x="0" y="177" dx="0em" dy="0.3em" style="text-anchor: end; visibility: hidden; font-family: &quot;Helvetica Neue&quot;, sans-serif; font-size: 12px; font-weight: 200;" fill="rgb(50, 49, 63)" stroke="none" stroke-width="1px">0.4</text><text x="0" y="165.20000000000002" dx="0em" dy="0.3em" style="text-anchor: end; visibility: inherit; font-family: &quot;Helvetica Neue&quot;, sans-serif; font-size: 12px; font-weight: 200;" fill="rgb(50, 49, 63)" stroke="none" stroke-width="1px">0.42</text><text x="0" y="153.4" dx="0em" dy="0.3em" style="text-anchor: end; visibility: hidden; font-family: &quot;Helvetica Neue&quot;, sans-serif; font-size: 12px; font-weight: 200;" fill="rgb(50, 49, 63)" stroke="none" stroke-width="1px">0.44</text><text x="0" y="141.6" dx="0em" dy="0.3em" style="text-anchor: end; visibility: hidden; font-family: &quot;Helvetica Neue&quot;, sans-serif; font-size: 12px; font-weight: 200;" fill="rgb(50, 49, 63)" stroke="none" stroke-width="1px">0.46</text><text x="0" y="129.8" dx="0em" dy="0.3em" style="text-anchor: end; visibility: inherit; font-family: &quot;Helvetica Neue&quot;, sans-serif; font-size: 12px; font-weight: 200;" fill="rgb(50, 49, 63)" stroke="none" stroke-width="1px">0.48</text><text x="0" y="118" dx="0em" dy="0.3em" style="text-anchor: end; visibility: hidden; font-family: &quot;Helvetica Neue&quot;, sans-serif; font-size: 12px; font-weight: 200;" fill="rgb(50, 49, 63)" stroke="none" stroke-width="1px">0.5</text><text x="0" y="106.19999999999999" dx="0em" dy="0.3em" style="text-anchor: end; visibility: hidden; font-family: &quot;Helvetica Neue&quot;, sans-serif; font-size: 12px; font-weight: 200;" fill="rgb(50, 49, 63)" stroke="none" stroke-width="1px">0.52</text><text x="0" y="94.39999999999996" dx="0em" dy="0.3em" style="text-anchor: end; visibility: inherit; font-family: &quot;Helvetica Neue&quot;, sans-serif; font-size: 12px; font-weight: 200;" fill="rgb(50, 49, 63)" stroke="none" stroke-width="1px">0.54</text><text x="0" y="82.59999999999997" dx="0em" dy="0.3em" style="text-anchor: end; visibility: hidden; font-family: &quot;Helvetica Neue&quot;, sans-serif; font-size: 12px; font-weight: 200;" fill="rgb(50, 49, 63)" stroke="none" stroke-width="1px">0.56</text><text x="0" y="70.8" dx="0em" dy="0.3em" style="text-anchor: end; visibility: hidden; font-family: &quot;Helvetica Neue&quot;, sans-serif; font-size: 12px; font-weight: 200;" fill="rgb(50, 49, 63)" stroke="none" stroke-width="1px">0.58</text><text x="0" y="59" dx="0em" dy="0.3em" style="text-anchor: end; visibility: inherit; font-family: &quot;Helvetica Neue&quot;, sans-serif; font-size: 12px; font-weight: 200;" fill="rgb(50, 49, 63)" stroke="none" stroke-width="1px">0.6</text><text x="0" y="47.19999999999999" dx="0em" dy="0.3em" style="text-anchor: end; visibility: hidden; font-family: &quot;Helvetica Neue&quot;, sans-serif; font-size: 12px; font-weight: 200;" fill="rgb(50, 49, 63)" stroke="none" stroke-width="1px">0.62</text><text x="0" y="35.39999999999998" dx="0em" dy="0.3em" style="text-anchor: end; visibility: hidden; font-family: &quot;Helvetica Neue&quot;, sans-serif; font-size: 12px; font-weight: 200;" fill="rgb(50, 49, 63)" stroke="none" stroke-width="1px">0.64</text><text x="0" y="23.599999999999966" dx="0em" dy="0.3em" style="text-anchor: end; visibility: inherit; font-family: &quot;Helvetica Neue&quot;, sans-serif; font-size: 12px; font-weight: 200;" fill="rgb(50, 49, 63)" stroke="none" stroke-width="1px">0.66</text><text x="0" y="11.799999999999926" dx="0em" dy="0.3em" style="text-anchor: end; visibility: hidden; font-family: &quot;Helvetica Neue&quot;, sans-serif; font-size: 12px; font-weight: 200;" fill="rgb(50, 49, 63)" stroke="none" stroke-width="1px">0.68</text><text x="0" y="0" dx="0em" dy="0.3em" style="text-anchor: end; visibility: hidden; font-family: &quot;Helvetica Neue&quot;, sans-serif; font-size: 12px; font-weight: 200;" fill="rgb(50, 49, 63)" stroke="none" stroke-width="1px">0.7</text></g><line x1="48.875" y1="0" x2="48.875" y2="177" fill="rgb(0, 0, 0)" stroke="rgb(204, 204, 204)" stroke-width="1px"></line></g></g><g transform="translate(48, 0)" clip-path="url(#clip_0)"><clipPath id="clip_0"><rect width="281" height="177"></rect></clipPath><g><g><g><line x1="0" y1="0" x2="0" y2="177" fill="rgb(0, 0, 0)" stroke="rgb(60, 60, 60)" stroke-width="1px" opacity="0.25"></line><line x1="28.1125" y1="0" x2="28.1125" y2="177" fill="rgb(0, 0, 0)" stroke="rgb(60, 60, 60)" stroke-width="1px" opacity="0.25"></line><line x1="56.225" y1="0" x2="56.225" y2="177" fill="rgb(0, 0, 0)" stroke="rgb(60, 60, 60)" stroke-width="1px" opacity="0.25"></line><line x1="84.33749999999999" y1="0" x2="84.33749999999999" y2="177" fill="rgb(0, 0, 0)" stroke="rgb(60, 60, 60)" stroke-width="1px" opacity="0.25"></line><line x1="112.45" y1="0" x2="112.45" y2="177" fill="rgb(0, 0, 0)" stroke="rgb(60, 60, 60)" stroke-width="1px" opacity="0.25"></line><line x1="140.5625" y1="0" x2="140.5625" y2="177" fill="rgb(0, 0, 0)" stroke="rgb(60, 60, 60)" stroke-width="1px" opacity="0.25"></line><line x1="168.67499999999998" y1="0" x2="168.67499999999998" y2="177" fill="rgb(0, 0, 0)" stroke="rgb(60, 60, 60)" stroke-width="1px" opacity="0.25"></line><line x1="196.7875" y1="0" x2="196.7875" y2="177" fill="rgb(0, 0, 0)" stroke="rgb(60, 60, 60)" stroke-width="1px" opacity="0.25"></line><line x1="224.9" y1="0" x2="224.9" y2="177" fill="rgb(0, 0, 0)" stroke="rgb(60, 60, 60)" stroke-width="1px" opacity="0.25"></line><line x1="253.01250000000002" y1="0" x2="253.01250000000002" y2="177" fill="rgb(0, 0, 0)" stroke="rgb(60, 60, 60)" stroke-width="1px" opacity="0.25"></line><line x1="281.125" y1="0" x2="281.125" y2="177" fill="rgb(0, 0, 0)" stroke="rgb(60, 60, 60)" stroke-width="1px" opacity="0.25"></line></g><g><line x1="0" y1="177" x2="281.125" y2="177" fill="rgb(0, 0, 0)" stroke="rgb(60, 60, 60)" stroke-width="1px" opacity="0.25"></line><line x1="0" y1="165.20000000000002" x2="281.125" y2="165.20000000000002" fill="rgb(0, 0, 0)" stroke="rgb(60, 60, 60)" stroke-width="1px" opacity="0.25"></line><line x1="0" y1="153.4" x2="281.125" y2="153.4" fill="rgb(0, 0, 0)" stroke="rgb(60, 60, 60)" stroke-width="1px" opacity="0.25"></line><line x1="0" y1="141.6" x2="281.125" y2="141.6" fill="rgb(0, 0, 0)" stroke="rgb(60, 60, 60)" stroke-width="1px" opacity="0.25"></line><line x1="0" y1="129.8" x2="281.125" y2="129.8" fill="rgb(0, 0, 0)" stroke="rgb(60, 60, 60)" stroke-width="1px" opacity="0.25"></line><line x1="0" y1="118" x2="281.125" y2="118" fill="rgb(0, 0, 0)" stroke="rgb(60, 60, 60)" stroke-width="1px" opacity="0.25"></line><line x1="0" y1="106.19999999999999" x2="281.125" y2="106.19999999999999" fill="rgb(0, 0, 0)" stroke="rgb(60, 60, 60)" stroke-width="1px" opacity="0.25"></line><line x1="0" y1="94.39999999999996" x2="281.125" y2="94.39999999999996" fill="rgb(0, 0, 0)" stroke="rgb(60, 60, 60)" stroke-width="1px" opacity="0.25"></line><line x1="0" y1="82.59999999999997" x2="281.125" y2="82.59999999999997" fill="rgb(0, 0, 0)" stroke="rgb(60, 60, 60)" stroke-width="1px" opacity="0.25"></line><line x1="0" y1="70.8" x2="281.125" y2="70.8" fill="rgb(0, 0, 0)" stroke="rgb(60, 60, 60)" stroke-width="1px" opacity="0.25"></line><line x1="0" y1="59" x2="281.125" y2="59" fill="rgb(0, 0, 0)" stroke="rgb(60, 60, 60)" stroke-width="1px" opacity="0.25"></line><line x1="0" y1="47.19999999999999" x2="281.125" y2="47.19999999999999" fill="rgb(0, 0, 0)" stroke="rgb(60, 60, 60)" stroke-width="1px" opacity="0.25"></line><line x1="0" y1="35.39999999999998" x2="281.125" y2="35.39999999999998" fill="rgb(0, 0, 0)" stroke="rgb(60, 60, 60)" stroke-width="1px" opacity="0.25"></line><line x1="0" y1="23.599999999999966" x2="281.125" y2="23.599999999999966" fill="rgb(0, 0, 0)" stroke="rgb(60, 60, 60)" stroke-width="1px" opacity="0.25"></line><line x1="0" y1="11.799999999999926" x2="281.125" y2="11.799999999999926" fill="rgb(0, 0, 0)" stroke="rgb(60, 60, 60)" stroke-width="1px" opacity="0.25"></line><line x1="0" y1="0" x2="281.125" y2="0" fill="rgb(0, 0, 0)" stroke="rgb(60, 60, 60)" stroke-width="1px" opacity="0.25"></line></g></g></g><g><g><line x1="0" y1="413.00000000000006" x2="281.125" y2="413.00000000000006" fill="rgb(0, 0, 0)" stroke="rgb(153, 153, 153)" stroke-width="1.5px"></line></g></g><g><g><line x1="28.1125" y1="0" x2="28.1125" y2="177" fill="rgb(0, 0, 0)" stroke="rgb(153, 153, 153)" stroke-width="1.5px"></line></g></g><g><g><g><g><g><path stroke="rgb(255, 112, 67)" stroke-width="2px" d="M34.126326,-54.82043978939123L34.34223,17.299814578488565L34.373716,34.312490256568765L34.571628000000004,57.26403003628383L34.706568,47.72283717470768L34.962954,9.635872292135076L35.093396,-38.699364601032045L35.165364000000004,9.316666376775885L35.237332,23.649066316562482L35.718618,42.70324060500607L35.912031999999996,16.54873121216795L35.925526,-7.588915466175479L36.406812,11.196458031102054L36.505768,60.20330370140674L36.555246000000004,76.11884911482674L36.735166,70.36978621254768L36.811632,95.29512531155758L36.870106,45.23702715975028L37.270428,38.653882784486115L37.540307999999996,51.20989964178938L37.949626,83.25832890138103L38.003602,63.47154783406155L38.147538000000004,68.0636045884995L38.174526,40.2395432443526L38.286976,47.96895625895962L38.489386,43.214566437641764L38.858222000000005,51.8592200566771L39.069627999999994,53.1435590439703L39.146094000000005,36.43650344930066L39.155089999999994,9.568161034118845L39.177580000000006,48.974496235568495L39.29003,76.71015860445455L39.294528,72.05592843179197L39.348504000000005,66.81668546369254L39.370994,55.793581358019L39.501436,61.8074764439007L39.568906,86.5512214200819L40.18963,42.30358727557203L40.43702,34.05800104011729L41.458065999999995,32.56019706648374L41.777423999999996,57.12434474898444L41.790918000000005,99.58348772688548L42.051801999999995,80.42725261309053L42.330678,72.11047487412876L42.641040000000004,59.21769612404697L42.704012000000006,74.5641268812L42.713007999999995,46.375870509289456L42.717506,54.29541809758112L42.97839,53.08666548371649L43.76554,29.451351602317914L44.386264,55.43170616593481L44.39526,58.73175953368255L44.62016,95.18571201884691L44.939518,66.14437303497759L45.173414,74.56833358737451L45.267872,52.906016755894555L45.299358,59.64183817434056L45.780643999999995,66.02909327821577L45.906588,84.80808468625926L46.032532,91.54832437018149L46.266428,122.83063487040754L46.545304,127.02574937240935L46.986108,128.77517033038532L47.125546,87.33259725819819L47.148036,116.99522960335491L47.530366,78.42974484056518L47.539362000000004,86.58551914745739L47.9037,99.51198157819611L48.317516,73.47557550163569L48.393981999999994,26.391948208162233L48.48844,10.283046761124666L49.091172,12.831846308093901L49.109164,31.668690533269398L49.145148,56.442246920364454L49.648923999999994,69.55493641286934L49.711895999999996,48.45934930080085L49.882819999999995,50.17606457849685L49.936796,78.9503660963794L50.125712,87.24910917084338L50.472058,54.40224942088676L50.8274,75.57508950543735L50.836396,70.33525965876775L51.079288,40.71091874997256L51.205232,56.88914094305302L51.677521999999996,60.44334355554737L52.154309999999995,73.81792649961568L52.217282,115.15002451739946L52.491659999999996,81.19913598538776L53.071902,88.42193253422583L53.656642000000005,68.07201909771447L53.854554,35.32631230205823L54.236883999999996,58.27717676073628L54.326844,42.37350753730723L54.488772,70.54181148878449L54.520258,96.43688465518782L54.682185999999994,102.70204864360701L54.776644,95.18687292586455L55.055519999999994,63.041646937434024L55.14548,85.81511448616033L55.644758,105.03952087637335L55.689738,71.09611400173037L56.000099999999996,91.75450611237243L56.058574,96.87442898823949L56.085561999999996,61.41822238012632L56.144036,106.38293189552121L56.400422,109.03659269062693L56.503876,75.4879596045495L56.791748,96.85886021917351L57.439460000000004,86.03596656599814L57.682352,69.94275117563703L57.812794,65.17070851711921L58.055686,68.27056642763907L58.231108,89.28304057355578L58.244602,72.65595658442889L58.298578,68.32218155754515L58.438016,66.48188386853278L58.941792,83.21112505493005L59.445568,80.0307158464041L59.562516,88.81019133531136L60.075288,96.93309241654326L60.111272,76.61956957651284L60.29569,82.82262017532054L60.709506000000005,76.12320901276983L60.997378,92.77479739977308L61.213282,84.98468687530392L61.316736,65.95903159616016L61.6226,51.947587450967006L61.66758,54.61319425143347L61.681073999999995,65.26888019107311L61.748544,73.13801478303984L61.896978000000004,105.09245051716279L62.715614,111.44569567307539L63.01698,101.74396469273988L63.142924,105.12039319323793L63.187903999999996,86.80791764049108L63.345334,98.30845153682455L64.056018,77.49427168579716L64.39336800000001,103.59327853329074L64.90614,144.95830388431006L65.090558,116.97134258487378L65.598832,39.60399123512829L65.72927399999999,63.22275784303619L65.75176400000001,72.48014103585407L65.79224599999999,74.64276697167112L66.19706599999999,59.420344221164854L66.21056,23.219359938842047L66.336504,59.457074251497914L66.381484,35.465961794093346L66.799798,58.87968994381136L66.95273,84.86041682483021L67.22261,81.90519863081728L68.045744,90.8784187180564L68.162692,37.33866259710578L68.176186,71.67119882855764L68.270644,74.97450789424153L68.30213,93.0359297550462L68.563014,116.27510754804266L68.590002,85.37952208841114L68.84188999999999,95.21544251635234L69.76398,93.63503161546332L70.015868,130.667307826738L70.15980400000001,122.79510567954807L70.55113,104.08009184820429L70.699564,106.9879865969597L71.05490599999999,116.11880800279246L71.08639199999999,156.57436593265695L71.14486600000001,132.94695696765996L71.414746,97.07471462210901L71.54968600000001,101.02057149482303L71.65314,97.85293914361318L71.734104,76.76787596633146L72.386314,114.71911188179315L72.674186,98.10980694421569L73.35338399999999,51.62802320080061L73.470332,84.9996960959259L74.33394799999999,71.32673096665282L74.365434,91.29464080338799L74.87370800000001,61.36043716910555L74.887202,107.29297305013586L74.98166,98.83919225255157L75.24704200000001,86.32763897251789L75.440456,49.364806096981184L75.82278600000001,67.08606624676597L75.962224,53.76613650365951L76.03419199999999,97.38321295764614L76.11065799999999,121.20192219845393L76.290578,98.86308408994641L76.49748600000001,95.69231801759699L76.501984,64.74938920457068L76.60094,69.45243718218144L76.75837,49.99046703571872L76.875318,84.50315268275023L76.9158,110.56499876640366L77.149696,89.81976431645226L77.16319,110.85097368977829L77.316122,111.30859737647985L77.334114,93.52633045347582L77.437568,115.64755033392935L77.464556,158.25991489254972L77.473552,120.82142692663398L77.68046,104.84098514233902L78.049296,135.12678189465328L78.134758,131.8116347514923L78.17524,126.34230516692017L78.481104,149.83468016588697L78.4901,112.83443494203095L78.75998,90.7371434900904L79.475162,137.9689311107245L79.71355600000001,173.44309617997686L79.803516,172.77798582268645L79.942954,157.99065173359446L79.983436,151.49468596393902L80.059902,135.62745933303262L80.13636799999999,121.74208686690939L80.505204,124.80889629090674L80.60865799999999,118.58446063259154L80.67163,91.30399259125535L81.00448200000001,88.64811005708779L81.517254,111.19929083894016L81.949062,91.88738656467392L81.971552,123.74062123552676L82.13347999999999,97.80911597404308L82.272918,122.31890144821067L82.709224,124.07749721334017L82.826172,112.40960228994871L82.844164,117.36601424548259L82.91613199999999,122.98903527458447L83.105048,89.85424312710724L83.39292,89.15806260561924L83.406414,64.1763157776354L83.478382,83.7241999108409L83.91019,102.13258546583741L84.148584,123.43459447618062L85.106658,123.77034671542486L85.232602,106.12727260254289L85.70939,92.41337470807116L86.033246,100.33890631555013L86.312122,99.66147028659876L86.662966,102.99433037790715L86.739432,60.50634740086231L86.86087799999999,75.01666730816267L86.95533599999999,58.087585557550796L87.009312,67.90061098876635L87.07678200000001,81.29815706338307L87.333168,115.72188914254798L87.66152199999999,121.05882556698019L88.156302,96.92056288398085L88.394696,113.47886503980624L88.412688,140.06270261553567L88.853492,114.99019362895274L89.04240800000001,108.1548727176701L89.271806,123.03323327434748L89.37526,140.06508607228216L89.640642,121.24010640716322L89.654136,100.26891964874129L90.07694799999999,81.32592278839027L90.22988000000001,109.3853533871226L90.38730999999999,102.07425473971682L90.562732,130.9721346547813L90.97654800000001,105.68623417917556L91.075504,84.7381347793559L91.44434,110.56403395999787L92.078558,112.11990660112691L92.375426,81.213168011198L92.406912,77.59117461805909L92.44739399999999,86.14327174166067L92.52386000000001,119.96320518099797L92.604824,97.55290975715835L92.870206,112.3270640524991L93.095106,104.35838442759322L93.306512,88.98858364651564L93.58988599999999,90.70775132316328L93.92723600000001,87.09611685835108L93.954224,79.72863640643826L94.089164,92.69801687155767L94.12964600000001,99.93638934466007L94.174626,83.53293498619054L94.588442,83.39352078594955L94.62892400000001,82.85931598757622L94.646916,129.83748926886867L94.723382,113.41212657790751L95.011254,85.44371664346083L95.096716,88.4552295912553L95.703946,84.21269840653237L95.98732000000001,96.99415337238011L96.194228,114.96750022884191L96.39214000000001,108.76722465703475L96.778968,95.45285512655722L97.039852,96.92305971175283L97.710054,103.59323406809479L97.71905000000001,97.17284522410577L97.86298599999999,91.56490536902156L98.00242399999999,53.91489055379516L98.267806,72.82751523628406L98.91102,108.80514356598003L99.01897199999999,61.61569026174989L99.059454,73.83231961168553L99.306844,101.81809410713737L99.986042,91.67869315899983L100.049014,108.72482263062938L100.50781,89.54885718235101L100.602268,75.4421910584493L101.20050200000001,79.77604342344542L101.524358,91.5097481301018L101.623314,69.0992043906801L101.69978,70.79304609861093L101.906688,110.02890220979528L102.05962,83.10702957927987L102.35199,66.9672130955446L102.71183,102.83884624321387L103.053678,59.78807360934688L103.215606,59.58617390994712L103.714884,110.50707503440668L103.719382,126.39290461708721L103.87231399999999,112.9982969866372L103.93528599999999,112.69081621802913L104.124202,66.41291535757216L104.875368,80.30791681326768L105.014806,51.00830455611555L105.167738,102.97500045293816L105.653522,71.5231658410683L105.801956,90.08108190248339L105.88292,101.44153871267989L105.891916,129.66143041926594L105.999868,87.72070421026929L106.004366,103.52736380843392L106.01786,118.13065933673423L106.10332199999999,170.8954355686238L106.260752,155.63984398659053L106.40019,135.34091112980832L106.57561199999999,126.27313274127002L106.620592,144.14279586065862L107.020914,146.06162010424765L107.08388599999999,166.26794261213206L107.214328,127.63869544551413L107.25031200000001,128.72377856186412L107.380754,86.38825688130486L107.826056,71.5844692311694L108.865094,101.41550986301961L108.99103799999999,98.36759281356377L109.03152,77.39412536739849L109.157464,113.95333506178582L109.31489400000001,109.7812204927905L109.36887,121.15230694834611L109.65674200000001,90.95900349273812L110.26397200000001,85.91866257461623L110.506864,67.61695691748088L111.105098,53.25143015863668L111.10959600000001,86.45996265698774L111.739316,93.96218493634049L112.283574,66.09357468517774L112.31506,48.00487246651741L112.87731,72.59435199820572L113.38558400000001,74.77577528431164L113.471046,76.71867151900618L113.59699,99.11580128577046L113.695946,99.4725229448479L113.79040400000001,110.84748764672285L114.096268,90.98304159544946L114.33466200000001,106.7916607803288L114.595546,128.4439196077694L114.79345799999999,110.24538642690833L115.75603000000001,66.01128005103018L115.836994,62.67670115897502L115.93594999999999,66.2216221873131L115.962938,121.71555929089587L116.45322,118.29069164219499L116.516192,103.83326350941061L116.56567,138.3140027004111L116.81306000000001,141.1344153092878L116.862538,129.75193605462175L116.889526,108.30488644623436L117.15490799999999,101.89996596922684L117.276354,124.64913218468554L117.37980800000001,91.08788777142837L117.694668,78.84334540814207L117.793624,102.15044777661588L117.942058,72.49055476826437L118.05001,71.32347943688636L118.22993,125.83858963433035L118.310894,123.24885015835244L118.337882,111.54465435236618L118.35137599999999,127.6880934851761L118.693224,115.65383471354218L118.697722,117.8055463391803L118.90912800000001,137.1383630846895L119.04856600000001,140.09377293675885L119.170012,154.25043788486568L119.183506,113.8015549119344L119.205996,120.0751229486484L119.525354,82.18259284267538L119.574832,54.798917897759125L119.79523400000001,54.0701983262409L120.05162,72.86244971092398L120.25402999999999,88.32205185017496L120.43844800000001,67.97488427592225L120.496922,71.21213965673988L120.50142000000001,70.42711523210852L120.600376,108.19265829942141L120.67234400000001,74.07324206484267L121.171622,71.83207275660575L121.26608,26.781274045656602L121.576442,85.29164021322157L121.58993600000001,82.07701454823628L121.594434,90.39700890937692L121.810338,136.0492409310296L121.91829,129.1737425471279L122.512026,124.88828011422949L122.87186600000001,129.88245165389534L122.93034,137.5945120337114L123.21821200000001,155.0421914149824L123.510582,154.3187518053951L123.614036,141.80674841008798L123.991868,116.2497034192217L124.005362,113.86922965765791L124.02785200000001,116.84211923075202L124.329218,97.16927424307158L124.41018199999999,124.04331986448463L124.747532,75.67002520764642L124.92295399999999,68.34837232711779L125.633638,113.7743434112243L125.82255400000001,99.890480518399L125.827052,120.65027332309384L126.119422,140.4771751642436L126.14641,139.13567600728334L126.263358,110.93841773319998L126.357816,95.76367195873712L126.384804,111.95110993641174L127.095488,90.60184591446846L128.17051,83.79266181847169L128.228984,97.56603891408864L128.38191600000002,73.39034370634809L128.489868,102.5242209676138L128.55284,52.60602637787048L128.678784,43.53637454902761L129.191556,94.61821895835179L129.348986,114.95370134113654L129.515412,134.8872918867971L129.92473,159.18552125596437L130.50947,120.99058960141798L130.84682,111.16290239251886L131.25164,66.10967194889331L131.265134,98.0041859618088L131.92633999999998,108.67335517831208L131.944332,137.18876511828637L132.137746,108.54404916153273L132.18722400000001,125.26270485988812L132.232204,156.3170750681851L132.385136,119.6365360584434L132.430116,102.59208246270272L132.547064,107.15249011635453L132.749474,95.18080819678109L132.852928,139.75293005127793L133.082326,147.65220377814225L133.190278,110.67660073024898L133.27574,120.05644089927003L133.487146,146.31978737681942L133.99542,77.42491709810399L134.215822,84.38641822112739L134.58016,93.98767607076849L134.629638,140.17634766497545L134.719598,113.00509315251307L135.04795199999998,77.45530208062526L135.304338,102.03430588311788L135.78562399999998,31.91780142347116L136.419842,35.39026239132937L136.595264,45.66131574282676L136.725706,56.15850171071072L137.117032,70.42848034275637L137.332936,75.69579407914324L137.34193199999999,88.34061001148133L137.512856,93.60244349483433L137.61631,70.20461742784842L137.935668,74.2549615902082L138.569886,52.36615735306596L138.857758,51.416209161366524L139.298562,82.75649126773207L139.33454600000002,74.77542739155965L140.01824200000001,71.37725384857107L140.117198,107.1931373108974L140.265632,114.28616346296971L140.598484,89.13594468460863L140.77390599999998,137.78705666080944L141.16073400000002,114.64413512716195L141.48908799999998,144.61382544618547L141.601538,115.99904744971815L141.660012,132.65771532743582L141.70049400000002,108.34143076353914L142.055836,108.01450220354587L142.32121800000002,90.52201986079326L142.83399,69.76196379521434L142.90146,66.51024772559965L143.25680200000002,94.76573899886225L143.64812799999999,105.01881317795048L144.04845,96.89232104123076L144.214876,109.68297234237458L144.372306,151.09371747410458L144.70515799999998,113.62356113097766L145.26290999999998,91.95907997311177L145.35736799999998,137.46929478181016L145.39785,118.11164893825419L145.469818,143.33337801766137L145.753192,114.7096922997936L145.75769000000003,162.50445832039742L145.82066200000003,153.94668174520626L146.373916,101.36477532825171L146.423394,117.94241997505006L146.873194,104.38409903588762L147.17455999999999,128.8373019155435L148.07415999999998,85.03026110271047L148.645406,71.23383053743494L148.649904,44.84977102639468L148.780346,58.48324017740599L148.78934199999998,77.34699147353955L149.234644,83.69899516946306L149.909344,115.11082767037294L150.197216,101.54692286603294L150.224204,100.9907542845764L150.251192,96.97184600717776L150.269184,79.00955742768616L150.273682,57.93616448743444L150.790952,97.32605461420594L151.038342,145.06600151146637L151.578102,152.18470324090237L151.82999,102.45811880237528L152.270794,134.78595800761383L152.31577399999998,100.72594558932781L152.34725999999998,110.38975612961288L152.428224,115.05455510999582L152.68461000000002,157.22437279931205L152.882522,156.2254521221608L153.26935,156.2060906988794L153.67866800000002,118.893871885682L153.68766399999998,107.20929890998892L153.8316,88.70062054472383L153.912564,89.37364109323751L155.185498,87.06552100161514L155.302446,102.64121618258832L155.50035799999998,131.500221481251L155.74774799999997,108.80541128535708L156.026624,78.98196097981717L156.08509800000002,98.30299537641874L156.49891399999998,110.01617463387889L156.629356,130.37036373590135L156.80477800000003,78.02614537700835L158.06421799999998,110.49461781874194L158.41956000000002,96.3610168212348L158.536508,89.60931558094579L158.635464,115.38325661827417L158.720926,114.8219899321156L158.83337600000002,129.07617778686028L158.90534399999999,146.8077724165162L158.95932000000002,140.77891100564244L159.15273399999998,135.3805253572383L159.45859800000002,142.90314953727236L159.73747400000002,129.21866031409922L160.67305800000003,113.26470067454358L160.704544,79.10241772146811L160.745026,54.1561176861035L160.969926,59.78615866212287L160.98342000000002,53.947880852867584L161.077878,114.21447366991609L161.21731599999998,105.99924279760702L161.302778,104.33011737770666L161.91450600000002,90.77331399504443L162.278844,98.74192766895356L162.283342,112.06373265117682L162.436274,85.54596306520865L163.05249999999998,115.82608338378765L163.07499,120.90338568796454L163.191938,88.31960638111674L163.398846,75.27469343987606L163.466316,97.73130988506976L163.835152,114.73120968001189L164.02856599999998,143.01941569123923L164.145514,119.4984777419225L164.32993199999999,115.8666586189542L164.523346,105.12447992021282L165.11708199999998,74.00099701317805L165.14856799999998,111.73589920182621L165.16656,122.22080258834121L165.625356,137.56416297142363L165.805276,116.5632503520528L166.228088,133.40645006245848L166.29106000000002,123.44475080339L166.372024,140.71386099915438L166.56094,92.32502504027329L167.78439600000002,133.27028748891618L168.02279,94.98359220923102L168.558052,93.57295065940095L169.376688,74.49757636678613L169.54311399999997,95.62944157774687L169.965926,112.19294521722458L170.681108,118.86765125699796L170.798056,148.90991541926837L170.97797599999998,127.47547629585728L171.184884,107.95628592438024L171.477254,50.58625934759691L171.50874,82.63441163444469L171.544724,72.01809924926731L171.760628,86.69947429946886L171.80111,79.2280678537597L172.066492,142.82074688596188L172.124966,142.7904577894369L172.777176,110.09894317646976L172.831152,95.31173859989737L172.97958599999998,107.29217461917459L173.168502,103.21162703140769L173.460872,131.79051968159794L173.793724,77.52974918307372L174.00512999999998,137.7895400692315L174.29749999999999,104.8789492231185L174.427942,115.86186219343988L174.486416,134.23334718399911L174.796778,107.71872492226167L174.81027200000003,135.23657860512859L175.003686,118.52935751769142L175.224088,146.97037740047693L175.475976,150.95436153111407L176.06971199999998,153.47979932604758L176.105696,151.64192033754904L176.137182,125.376159339828L176.555496,114.9101974425809L176.609472,111.17320376980881L176.699432,122.3788324019228L177.212204,127.73161400681224L177.230196,150.70486701324873L177.351642,141.91580157753998L177.360638,142.56891461179958L177.765458,162.79104711989345L178.080318,121.16109034049381L178.201764,67.27976925747318L178.23325,64.60933947310879L178.359194,68.07145795670765L178.970922,109.59829314617882L179.384738,131.96003696959355L179.416224,87.27126797223768L179.821044,55.835155678896214L179.861526,60.78259536809213L179.915502,52.14806044808917L180.00096399999998,69.97707841820653L180.07743,117.88474077002485L180.320322,129.76195577392744L180.37429799999998,115.27125427490336L180.486748,103.18674553254762L180.65317399999998,77.44785798084449L180.914058,84.63246610457728L181.12096599999998,121.44700514492409L181.20642800000002,168.00714492331159L181.23791400000002,153.23005051332837L181.444822,113.09050394843891L181.678718,100.90853730291649L181.69221199999998,119.23588997990205L181.849642,117.58582829755733L182.434382,84.1419820268285L182.66827800000002,106.39985212560481L182.672776,106.22122383639805L182.767234,91.40453081444257L183.014624,148.89643581578346L183.40595,124.7825345031572L183.410448,127.43047927809671L183.58137200000002,118.7342968403871L183.73880200000002,140.76690769312233L183.779284,146.97322039674194L183.95470600000002,122.04020798725172L184.17510800000002,83.39737327410151L184.42249800000002,101.41787149616106L184.566434,115.58778530423653L184.993744,106.90921949186806L185.67744,95.04483317636777L185.897842,48.92344479145606L186.05977,101.72221372355222L186.33864599999998,79.48562921183826L186.684992,101.55133219419434L186.698486,107.61640837108202L187.040334,121.87417091319028L187.134792,162.04360147350474L187.17077600000002,113.40216095467474L187.22925,85.03139261734526L187.23824599999998,102.89022360045931L187.26523400000002,60.99066988110074L187.70603799999998,51.12931089091023L187.715034,89.71684949688743L188.10636000000002,97.11268954928295L188.119854,127.37879291448338L188.2413,69.63591985269396L189.010458,110.70646693923479L189.041944,51.908796802868835L189.338812,81.38850933057691L189.361302,74.37047790135517L189.829094,93.48108781960948L189.90556,128.89674952976316L190.20692599999998,138.98605181784876L190.296886,127.04742852456239L190.778172,132.42154214147848L191.012068,102.67691686966492L191.07953799999999,123.82808749209923L191.147008,83.923075296468L191.218976,93.17419339298398L191.27745,96.35833955454343L191.43488,104.23883157162376L191.520342,133.39397280924624L191.551828,122.09298063226403L192.599862,78.09557867591298L192.869742,84.86594286289645L193.004682,105.33842539028427L193.090144,128.4376428558594L193.490466,144.13080234731234L193.665888,88.83475429657095L193.68388000000002,108.66678773667209L193.724362,113.23531086031076L193.75135,134.4821411775558L193.8638,133.6783491138821L194.12018600000002,125.19469796205789L194.776894,116.15829259506006L195.298662,128.04843784779993L195.447096,137.32726713067706L195.93737800000002,129.4107642891789L195.964366,91.47562732236293L196.00484799999998,95.26415408811991L196.58509,102.49209507204314L196.738022,122.78156218467484L197.88951,92.24982195817428L197.97497199999998,107.72581842972635L198.168386,85.9348210062611L198.478748,100.20647773540189L199.445818,109.00562346813781L199.900116,139.14293237231794L200.14750600000002,130.9239226561941L200.214976,150.7996067513321L200.525338,115.55171157773103L200.67827,105.4758134952531L201.011122,100.5003422898856L201.08309,85.51976881043954L201.132568,102.45396848688628L201.28549999999998,110.0594487677223L201.64534,91.19618070663255L201.919718,113.5222474607303L201.924216,98.87782067492448L202.18509999999998,137.3090897943666L202.27506000000002,149.1943720666224L202.468474,102.06513183639368L202.49096400000002,89.96392255619716L202.81482,146.23330615517824L203.449038,133.00098809336026L203.552492,93.11558165987968L203.55698999999998,92.42168993258859L204.168718,99.46875001492731L204.600526,80.69336615504403L204.86590800000002,89.02599760592923L204.915386,123.80879533708656L206.192818,117.09231832278113L206.37723599999998,115.50197703035082L206.692096,68.12211855883244L206.81804,99.94241176029949L207.047438,106.59896713483872L207.483744,108.03169258826107L207.62318199999999,121.18033826585491L207.645672,140.9985974564307L207.722138,153.8749039372297L207.951536,113.71529790165968L208.12246,109.54846980811921L209.040052,95.39894005442716L209.36390799999998,129.35192604532872L209.836198,132.604449937767L210.22752400000002,117.59633247257841L210.2815,138.83512601972564L210.425436,154.14148782325353L210.55138,183.0827744402442L210.94270600000002,163.3921339987489L210.987686,107.70520842544869L211.014674,74.66040485186954L211.032666,65.79039588620414L211.172104,87.27205101877539L211.1811,123.94474671024136L211.244072,125.06563626371654L211.27105999999998,155.5649745145013L211.599414,158.0284104870898L212.71042,126.35489137930527L213.106244,154.65307011582172L213.223192,116.4230926416976L213.628012,113.54124681846275L213.749458,87.30343919215183L214.06431800000001,119.70761628876673L214.370182,111.66772987801164L214.44215,78.82399426912262L214.739018,51.9815069378316L214.95492199999998,53.49349648600217L215.02689,78.55454386976598L215.157332,104.59967728678726L215.269782,94.44975464477739L215.355244,65.80368495544553L216.002956,97.54940193033671L216.03894000000003,100.05897613249103L216.326812,96.65347435403987L216.44825799999998,83.30593711333947L217.055488,99.8557492387144L217.086974,88.82831999610946L217.167938,81.80963934034762L217.631232,131.72726769787468L217.739184,117.48748047079086L217.784164,83.41787180260083L217.847136,110.33796222779313L218.126012,90.98534479006025L218.553322,71.4271319285863L218.85019,41.813728784074414L218.90866400000002,90.75381439599397L219.0526,43.003126106697295L219.13356399999998,49.45445134761211L219.178544,68.36670843674112L219.273002,98.33070206590513L219.763284,91.30457520453938L220.078144,87.85370535831933L220.518948,121.00397514808947L221.045214,107.83849119847285L221.216138,77.04129214111131L221.364572,89.12000052346686L221.441038,52.0234710229272L221.61646000000002,97.50343331413475L222.704976,127.23598444889194L222.77694400000001,57.009001472176294L223.424656,101.46538175259899L223.658552,119.52678375908657L223.856464,140.11109987180785L224.013894,103.46604342032288L224.14883400000002,108.75506488543046L224.256786,106.58974456823643L224.36473800000002,84.97061896346072L224.400722,111.42246627820765L224.4502,102.25541815765644L224.454698,136.56892608170475L224.72457799999998,112.74338592627505L224.846024,145.50703335725584L224.86401600000002,125.27936506821705L224.931486,155.1529240641236L225.04843400000001,151.65781374175785L225.09791199999998,160.95340697407386L225.14739,169.05700087809362L225.295824,105.84385938801644L225.678154,86.30682932948044L225.916548,69.20356547602991L225.93454,73.15347163539515L225.99301400000002,81.89479875958793L226.352854,120.54687309501668L226.37084599999997,125.11338293694318L226.49229200000002,127.59510166730202L226.532774,85.34767984918184L226.9241,85.61690301639696L226.955586,88.62510015334408L227.15349799999998,127.30802870849203L227.391892,137.93668049013274L227.54932200000002,108.1892524327973L227.56731399999998,121.19458850420352L227.841692,98.9414241802504L228.277998,109.76749659131823L228.448922,63.07730646461759L228.65582999999998,97.93868674952098L228.660328,62.19951180290168L228.673822,98.50733434957856L228.92571,85.96031467796915L229.303542,91.56540341783493L229.411494,75.77597462897859L229.631896,79.14054081300118L229.694868,120.35560892498025L230.36057200000002,115.69038914725502L230.495512,111.28381370952914L230.760894,109.32346768052096L230.99029199999998,89.98677551073263L231.91688000000002,47.293071337475965L231.957362,53.40207356687465L232.047322,113.18498379275849L232.18676,115.4632133143285L232.19575600000002,116.78220469338527L232.80298599999998,80.10830468286773L232.964914,109.38381718605577L233.162826,96.0834102571596L233.42820799999998,123.99975001457867L233.48218400000002,107.20742542531211L233.990458,120.34198088041612L234.156884,155.16485425586504L234.296322,144.7241123006046L234.45375199999998,122.96396343024371L235.128452,125.63664186067462L235.168934,150.18618130723883L235.29038,138.85476908707767L235.42532,145.22286280169578L235.578252,141.89001629456575L235.780662,131.46965349736627L235.81664600000002,116.03092668666136L235.94259,90.73064416774326L236.450864,74.94293404894003L236.522832,116.17877832220157L236.626286,119.28934242228362L236.801708,192.1196943396312L236.878174,150.2615304633368L237.26500199999998,164.02786654498513L237.305484,142.2241282121321L237.458416,100.17198865747335L237.97568600000002,71.83327327451632L238.151108,78.87659694124174L238.385004,69.95554743629047L239.680428,52.421046319135144L239.774886,128.58342083843237L240.409104,170.02279332012944L240.60251799999998,192.46419502932437L240.840912,181.84618404888278L240.872398,173.86778618921738L240.962358,151.19259415882766L241.079306,119.75865895043574L241.484126,126.84094993168571L241.71802200000002,160.95744419034992L241.987902,129.2081212993662L242.019388,129.63130826927426L242.14983,162.10586719022515L242.38822399999998,110.50136735621876L242.406216,136.58542932619923L242.46469000000002,130.77986451119347L242.52766200000002,148.26166322308876L242.635614,124.38697125004586L242.68959,103.71160541466983L242.833526,131.5495015769727L242.865012,105.20003251966995L242.927984,60.531187562567936L243.436258,95.76199211384237L243.485736,110.54580265107977L243.512724,148.3179519523575L243.69714199999999,194.6509968727466L243.715134,165.39863220987533L243.778106,145.2247311123479L243.88155999999998,153.83399442722018L244.358348,138.9754978888608L244.551762,156.75579615076646L244.74967400000003,123.01227843547025L244.830638,130.00332872738932L244.90260600000002,164.89299507540764L245.037546,154.78359391452256L245.347908,165.9018081555449L245.910158,135.92681988058584L246.10357199999999,89.75170359598455L246.112568,97.88005124084269L246.278994,89.50080229373047L246.283492,66.76529398877189L246.328472,83.76270212721086L246.36445600000002,93.15270584816486L246.47690599999999,112.52132471796723L246.85023999999999,73.06448655365024L246.87273000000002,87.68941157482934L246.94019999999998,110.64202788724226L247.81281199999998,132.5277884915693L248.433536,119.8030466625228L249.387112,136.05587112838833L249.737956,107.34305727442982L249.980848,131.72150528407624L250.09329799999998,127.90942828641252L250.660046,148.52838309279633L251.02438400000003,122.64448251528472L251.24478599999998,144.34492408158144L251.298762,155.11020619226554L251.384224,140.87127298446333L251.64960599999998,136.53002203900718L252.17137400000001,149.6094970309681L252.526716,141.14568028473533L252.715632,148.40588024630358L253.039488,100.8251486025704L253.264388,133.60426956429794L253.399328,97.43220523604579" style="fill: none;" fill="none"></path></g></g></g></g><g opacity="0.2"><g><g><g><path stroke="rgb(255, 112, 67)" stroke-width="2px" d="M32.480058,-106.65934514999395L32.673472,100.19936966896057L32.907368,-204.09681749343883L33.078292000000005,-75.98065447807318L33.420139999999996,88.67199349403381L33.784478,-84.11767554283148L34.031867999999996,54.09376847743988L34.045362000000004,-124.19879209995275L34.126326,-85.932666182518L34.34223,125.48019427061081L34.373716,59.83150351047516L34.571628000000004,91.69133949279784L34.706568,33.41104793548584L34.962954,-47.49457490444186L35.093396,-111.2022198438645L35.165364000000004,81.34071278572083L35.237332,45.147666215896606L35.718618,71.28450202941895L35.912031999999996,-22.683032870292692L35.925526,-43.79538547992712L36.406812,39.3745182752609L36.505768,133.713572204113L36.555246000000004,99.99216723442078L36.735166,61.746191859245286L36.811632,132.6831339597702L36.870106,-29.850120067596464L37.270428,28.779166221618652L37.540307999999996,70.04392492771149L37.949626,131.33097279071808L38.003602,33.79137623310089L38.147538000000004,74.95168972015381L38.174526,-1.4965487718582153L38.286976,59.563075780868516L38.489386,36.08298170566556L38.858222000000005,64.82620048522949L39.069627999999994,55.07006752490997L39.146094000000005,11.375920057296725L39.155089999999994,-30.73435258865362L39.177580000000006,108.08399903774261L39.29003,118.31365215778351L39.294528,65.07458317279814L39.348504000000005,58.95782101154326L39.370994,39.25892519950867L39.501436,70.82831907272339L39.568906,123.66683888435364L40.18963,-24.067863941192655L40.43702,21.689621686935396L41.458065999999995,30.313491106033297L41.777423999999996,93.97056627273558L41.790918000000005,163.27220219373703L42.051801999999995,51.69289994239807L42.330678,59.63530826568602L42.641040000000004,39.878527998924255L42.704012000000006,97.58377301692963L42.713007999999995,4.093485951423617L42.717506,66.1747394800186L42.97839,51.27353656291962L43.76554,-6.001619219779968L44.386264,94.40223801136017L44.39526,63.68183958530426L44.62016,149.86664074659348L44.939518,22.582364559173556L45.173414,87.20427441596985L45.267872,20.412541508674593L45.299358,69.74557030200958L45.780643999999995,75.60997593402861L45.906588,112.97657179832458L46.032532,101.65868389606476L46.266428,169.7541006207466L46.545304,133.318421125412L46.986108,131.39930176734924L47.125546,25.168737649917603L47.148036,161.48917812108994L47.530366,20.581517696380587L47.539362000000004,98.81918060779572L47.9037,118.9016752243042L48.317516,34.420966386795016L48.393981999999994,-44.23349273204806L48.48844,-13.880305409431486L49.091172,16.65504562854764L49.109164,59.9239568710327L49.145148,93.60258150100707L49.648923999999994,89.22397065162659L49.711895999999996,16.81596863269806L49.882819999999995,52.75113749504088L49.936796,122.11181837320328L50.125712,99.69722378253937L50.472058,5.131959795951815L50.8274,107.33434963226318L50.836396,62.47551488876341L51.079288,-3.7255926132202433L51.205232,81.15647423267365L51.677521999999996,65.77464747428894L52.154309999999995,93.87980091571808L52.217282,177.148171544075L52.491659999999996,30.272803187370272L53.071902,99.25612735748291L53.656642000000005,37.54714894294736L53.854554,-13.792247891426115L54.236883999999996,92.70347344875336L54.326844,18.518003702163696L54.488772,112.79426741600037L54.520258,135.27949440479279L54.682185999999994,112.09979462623596L54.776644,83.91410934925078L55.055519999999994,14.823807954788208L55.14548,119.97531580924988L55.644758,133.8761304616928L55.689738,20.18100368976593L56.000099999999996,122.74209427833557L56.058574,104.5543133020401L56.085561999999996,8.233912467956515L56.144036,173.82999616861343L56.400422,113.01708388328552L56.503876,25.16500997543332L56.791748,128.91521114110947L57.439460000000004,69.80162608623503L57.682352,45.80292809009552L57.812794,58.01264452934264L58.055686,72.92035329341887L58.231108,120.80175179243088L58.244602,47.715330600738525L58.298578,61.82151901721953L58.438016,63.72143733501433L58.941792,108.30498683452606L59.445568,75.26010203361511L59.562516,101.97940456867218L60.075288,109.11744403839111L60.111272,46.149285316467285L60.29569,92.1271960735321L60.709506000000005,66.07409226894377L60.997378,117.75217998027802L61.213282,73.29952108860014L61.316736,37.42054867744443L61.6226,30.930421233177185L61.66758,58.61160445213318L61.681073999999995,81.25240910053253L61.748544,84.94171667098999L61.896978000000004,153.02410411834717L62.715614,120.97556340694427L63.01698,87.19136822223662L63.142924,110.18503594398499L63.187903999999996,59.339204311370835L63.345334,115.55925238132477L64.056018,46.27300190925598L64.39336800000001,142.7417888045311L64.90614,207.0058419108391L65.090558,74.99090063571929L65.598832,-76.44703578948977L65.72927399999999,98.65090775489807L65.75176400000001,86.36621582508087L65.79224599999999,77.88670587539673L66.19706599999999,36.58671009540558L66.21056,-31.082116484642057L66.336504,113.81364572048187L66.381484,-0.5207068920135782L66.799798,94.00028216838837L66.95273,123.83150714635849L67.22261,77.47237133979796L68.045744,104.3382488489151L68.162692,-42.9709715843201L68.176186,123.17000317573547L68.270644,79.92947149276732L68.30213,120.1280625462532L68.563014,151.13387423753738L68.590002,39.0361438989639L68.84188999999999,109.96932315826416L69.76398,91.26441526412964L70.015868,186.21572214365008L70.15980400000001,110.98680245876312L70.55113,76.00757110118866L70.699564,111.34982872009277L71.05490599999999,129.81504011154175L71.08639199999999,217.25770282745364L71.14486600000001,97.50584352016449L71.414746,43.266351103782654L71.54968600000001,106.93935680389404L71.65314,93.1014906167984L71.734104,45.140281200408936L72.386314,171.6459657549858L72.674186,73.19584953784943L73.35338399999999,-18.094652414321928L73.470332,135.0572054386139L74.33394799999999,50.81728327274321L74.365434,121.24650555849075L74.87370800000001,16.459131717681856L74.887202,176.1917768716812L74.98166,86.15852105617522L75.24704200000001,67.56030905246733L75.440456,-6.079443216323881L75.82278600000001,93.66795647144318L75.962224,33.78624188899991L76.03419199999999,162.8088276386261L76.11065799999999,156.92998605966568L76.290578,65.35482692718504L76.49748600000001,90.93616890907286L76.501984,18.3349959850311L76.60094,76.50700914859772L76.75837,20.797511816024752L76.875318,136.27218115329742L76.9158,149.65776789188385L77.149696,58.70191264152527L77.16319,142.3977877497673L77.316122,111.99503290653229L77.334114,66.85293006896971L77.437568,148.82938015460968L77.464556,222.17846173048022L77.473552,64.6636949777603L77.68046,80.87032246589659L78.049296,180.5554770231247L78.134758,126.8389140367508L78.17524,118.13831079006195L78.481104,185.07324266433716L78.4901,57.334067106246934L78.75998,57.591206312179565L79.475162,208.8166125416756L79.71355600000001,226.65434378385547L79.803516,171.7803202867508L79.942954,135.8096505999565L79.983436,141.75073730945587L80.059902,111.82661938667297L80.13636799999999,100.91402816772461L80.505204,129.40911042690277L80.60865799999999,109.24780714511871L80.67163,50.383290529251084L81.00448200000001,84.66428625583649L81.517254,145.02606201171875L81.949062,62.91953015327452L81.971552,171.52047324180603L82.13347999999999,58.91185808181763L82.272918,159.08357965946198L82.709224,126.7153908610344L82.826172,94.90775990486145L82.844164,124.80063217878342L82.91613199999999,131.4235668182373L83.105048,40.15205490589139L83.39292,88.11379182338715L83.406414,26.70369553565976L83.478382,113.04602611064911L83.91019,129.74516379833221L84.148584,155.3876079916954L85.106658,124.27397507429123L85.232602,79.6626614332199L85.70939,71.84252786636351L86.033246,112.2272037267685L86.312122,98.64531624317169L86.662966,107.99362051486969L86.739432,-3.2256270647049234L86.86087799999999,96.78214716911316L86.95533599999999,32.693962931632996L87.009312,82.62014913558959L87.07678200000001,101.39447617530823L87.333168,167.35748726129532L87.66152199999999,129.06423020362854L88.156302,60.71316885948181L88.394696,138.3163182735443L88.412688,179.9384589791298L88.853492,77.38143014907835L89.04240800000001,97.90189135074615L89.271806,145.35077410936356L89.37526,165.6128652691841L89.640642,93.00263690948486L89.654136,68.81213951110838L90.07694799999999,52.91142749786377L90.22988000000001,151.4744992852211L90.38730999999999,91.10760676860808L90.562732,174.31895452737808L90.97654800000001,67.75738346576689L91.075504,53.31598567962645L91.44434,149.30288273096085L92.078558,114.45371556282043L92.375426,34.8530601263046L92.406912,72.15818452835082L92.44739399999999,98.97141742706299L92.52386000000001,170.69310534000397L92.604824,63.937466621398926L92.870206,134.4882954955101L93.095106,92.40536499023436L93.306512,65.93388247489928L93.58988599999999,93.28650283813475L93.92723600000001,81.6786651611328L93.954224,68.67741572856902L94.089164,112.15208756923676L94.12964600000001,110.79394805431366L94.174626,58.927753448486314L94.588442,83.18439948558807L94.62892400000001,82.05800879001617L94.646916,200.30474919080737L94.723382,88.77408254146576L95.011254,43.49110174179074L95.096716,92.97249901294708L95.703946,77.84890162944792L95.98732000000001,116.16633582115173L96.194228,141.92752051353455L96.39214000000001,99.46681129932404L96.778968,75.48130083084106L97.039852,99.1283665895462L97.710054,113.59849560260773L97.71905000000001,87.54226195812224L97.86298599999999,83.15299558639526L98.00242399999999,-2.560131669044523L98.267806,101.1964522600174L98.91102,162.771586060524L99.01897199999999,-9.168489694595365L99.059454,92.15726363658905L99.306844,143.7967558503151L99.986042,76.4695917367935L100.049014,134.29401683807373L100.50781,60.78490900993347L100.602268,54.28219187259674L101.20050200000001,86.27682197093964L101.524358,109.11030519008636L101.623314,35.483388781547546L101.69978,73.33380866050719L101.906688,168.88268637657166L102.05962,42.72422063350675L102.35199,42.75748836994168L102.71183,156.64629596471786L103.053678,-4.788085341453581L103.215606,59.28332436084747L103.714884,186.88842672109607L103.719382,150.22164899110794L103.87231399999999,92.9063855409622L103.93528599999999,112.22959506511688L104.124202,-3.003935933113098L104.875368,101.15041899681091L105.014806,7.05888617038724L105.167738,180.925044298172L105.653522,24.34541392326355L105.801956,117.91795599460602L105.88292,118.4822239279747L105.891916,171.99126797914505L105.999868,24.809614896774292L106.004366,127.23735320568085L106.01786,140.03560262918472L106.10332199999999,250.04259991645816L106.260752,132.75645661354065L106.40019,104.89251184463501L106.57561199999999,112.67146515846252L106.620592,170.94729053974152L107.020914,148.9398564696312L107.08388599999999,196.57742637395862L107.214328,69.69482469558716L107.25031200000001,130.35140323638916L107.380754,22.884974360466003L107.826056,49.37878775596617L108.865094,146.16207081079483L108.99103799999999,93.79571723937988L109.03152,45.933924198150635L109.157464,168.79214960336685L109.31489400000001,103.52304863929749L109.36887,138.20893663167953L109.65674200000001,45.66904830932617L110.26397200000001,78.35815119743346L110.506864,40.164398431777926L111.105098,31.703140020370455L111.10959600000001,136.2727614045143L111.739316,105.21551835536957L112.283574,24.290659308433533L112.31506,20.871819138526917L112.87731,109.47857129573822L113.38558400000001,78.04791021347046L113.471046,79.63301587104796L113.59699,132.7114959359169L113.695946,100.00760543346405L113.79040400000001,127.90993469953537L114.096268,61.186372518539415L114.33466200000001,130.5045895576477L114.595546,160.92230784893036L114.79345799999999,82.94758665561676L115.75603000000001,-0.33987951278689366L115.836994,57.67483282089232L115.93594999999999,71.53900372982024L115.962938,204.95646494627002L116.45322,113.15339016914368L116.516192,82.14712131023407L116.56567,190.0351114869118L116.81306000000001,145.36503422260284L116.862538,112.67821717262268L116.889526,76.13431203365325L117.15490799999999,92.2925852537155L117.276354,158.77288150787354L117.37980800000001,40.746021151542635L117.694668,60.476531863212585L117.793624,137.11110132932663L117.942058,28.000715255737276L118.05001,69.57286643981934L118.22993,207.61125493049624L118.310894,119.36424094438553L118.337882,93.98836064338684L118.35137599999999,151.90325218439102L118.693224,97.60244655609131L118.697722,121.03311377763748L118.90912800000001,166.13758820295334L119.04856600000001,144.52688771486282L119.170012,175.4854353070259L119.183506,53.12823045253754L119.205996,129.48547500371933L119.525354,25.343797683715792L119.574832,13.723405480384798L119.79523400000001,52.97711896896361L120.05162,101.05082678794861L120.25402999999999,111.51145505905151L120.43844800000001,37.45413291454315L120.496922,76.06802272796631L120.50142000000001,69.24957859516142L120.600376,164.84097290039062L120.67234400000001,22.89411771297452L121.171622,68.47031879425047L121.26608,-40.79492402076724L121.576442,173.0571894645691L121.58993600000001,77.25507605075836L121.594434,102.87700045108795L121.810338,204.52758896350863L121.91829,118.86049497127533L122.512026,118.4600864648819L122.87186600000001,137.37370896339417L122.93034,149.16260260343552L123.21821200000001,181.21371048688889L123.510582,153.2335923910141L123.614036,123.03874331712723L123.991868,77.91413593292236L124.005362,110.2985190153122L124.02785200000001,121.30145359039307L124.329218,67.66000676155089L124.41018199999999,164.35438829660416L124.747532,3.1100832223891928L124.92295399999999,57.365893006324754L125.633638,181.91330003738403L125.82255400000001,79.06468617916106L125.827052,151.7899625301361L126.119422,170.21752792596817L126.14641,137.12342727184296L126.263358,68.64253032207488L126.357816,73.00155329704283L126.384804,136.23226690292358L127.095488,58.57794988155365L128.17051,73.57888567447661L128.228984,118.22610455751419L128.38191600000002,37.126800894737215L128.489868,146.22503685951233L128.55284,-22.271265506744413L128.678784,29.931896805763216L129.191556,171.2409855723381L129.348986,145.45692491531372L129.515412,164.78767770528793L129.92473,195.6328653097153L130.50947,63.69819211959839L130.84682,96.42137157917023L131.25164,-1.470173716545105L131.265134,145.8459569811821L131.92633999999998,124.67710900306702L131.944332,179.96188002824783L132.137746,65.57697522640227L132.18722400000001,150.3406884074211L132.232204,202.89863038063052L132.385136,64.61572754383087L132.430116,77.0254020690918L132.547064,113.99310159683228L132.749474,77.22328531742095L132.852928,206.6111128330231L133.082326,159.50111436843872L133.190278,55.213196158409104L133.27574,134.1262011528015L133.487146,185.7148070931435L133.99542,-25.917388319969206L134.215822,94.82866990566254L134.58016,108.3895628452301L134.629638,209.4593550562859L134.719598,72.24821138381957L135.04795199999998,24.13061547279358L135.304338,138.90281158685684L135.78562399999998,-73.2569552659989L136.419842,40.59895384311673L136.595264,61.06789577007292L136.725706,71.9042806625366L137.117032,91.83344829082488L137.332936,83.59676468372344L137.34193199999999,107.3078339099884L137.512856,101.49519371986389L137.61631,35.10787832736966L137.935668,80.33047783374785L138.569886,19.53295099735257L138.857758,49.991286873817444L139.298562,129.76691442728043L139.33454600000002,62.80383157730101L140.01824200000001,66.27999353408813L140.117198,160.9169625043869L140.265632,124.92570269107819L140.598484,51.41061651706694L140.77390599999998,210.76372462511065L141.16073400000002,79.92975282669067L141.48908799999998,189.5683609247208L141.601538,73.07688045501708L141.660012,157.64571714401245L141.70049400000002,71.86700391769408L142.055836,107.52410936355591L142.32121800000002,64.28329634666443L142.83399,38.62187969684598L142.90146,61.63267362117766L143.25680200000002,137.14897590875626L143.64812799999999,120.3984244465828L144.04845,84.70258283615112L144.214876,128.86894929409027L144.372306,213.20983517169955L144.70515799999998,57.41832661628722L145.26290999999998,59.462358236312866L145.35736799999998,205.73461699485782L145.39785,89.07518017292023L145.469818,181.16597163677216L145.753192,71.77416372299193L145.75769000000003,234.19660735130313L145.82066200000003,141.1100168824196L146.373916,22.491915702819796L146.423394,142.80888694524765L146.873194,84.04661762714385L147.17455999999999,165.5171062350273L148.07415999999998,19.319699883461L148.645406,50.539184689521775L148.649904,5.273681759834261L148.780346,78.93344390392302L148.78934199999998,105.64261841773987L149.234644,93.22700071334837L149.909344,162.22857642173767L150.197216,81.201065659523L150.224204,100.15650141239166L150.251192,90.94348359107971L150.269184,52.06612455844878L150.273682,26.326075077056885L150.790952,156.41088980436325L151.038342,216.67592185735705L151.578102,162.8627558350563L151.82999,27.868242144584627L152.270794,183.27771681547168L152.31577399999998,49.63592696189879L152.34725999999998,124.88547194004059L152.428224,122.05175358057022L152.68461000000002,220.4790993332863L152.882522,154.72707110643387L153.26935,156.17704856395721L153.67866800000002,62.92554366588591L153.68766399999998,89.68243944644928L153.8316,60.93760299682616L153.912564,90.383171916008L155.185498,83.60334086418152L155.302446,126.00475895404816L155.50035799999998,174.788729429245L155.74774799999997,74.76319599151611L156.026624,34.246785521507235L156.08509800000002,127.2845469713211L156.49891399999998,127.58594352006912L156.629356,160.9016473889351L156.80477800000003,-0.49018216133117676L158.06421799999998,159.19732648134232L158.41956000000002,75.16061532497406L158.536508,79.48176372051239L158.635464,154.04416817426682L158.720926,113.98008990287781L158.83337600000002,150.45745956897736L158.90534399999999,173.40516436100006L158.95932000000002,131.73561888933182L159.15273399999998,127.28294688463211L159.45859800000002,154.18708580732346L159.73747400000002,108.6919264793396L160.67305800000003,89.33376121520996L160.704544,27.85899329185486L160.745026,16.736667633056612L160.969926,68.23122012615204L160.98342000000002,45.19046413898468L161.077878,204.61436289548877L161.21731599999998,93.67639648914337L161.302778,101.82642924785614L161.91450600000002,70.43810892105101L162.278844,110.6948481798172L162.283342,132.04644012451172L162.436274,45.76930868625638L163.05249999999998,161.2462638616562L163.07499,128.5193391442299L163.191938,39.443937420845L163.398846,55.70732402801512L163.466316,131.41623455286026L163.835152,140.23105937242508L164.02856599999998,185.45172470808032L164.145514,84.21707081794739L164.32993199999999,110.41892993450165L164.523346,89.01121187210082L165.11708199999998,27.315772652626038L165.14856799999998,168.33825248479843L165.16656,137.9481576681137L165.625356,160.5792035460472L165.805276,85.06188142299652L166.228088,158.67124962806702L166.29106000000002,108.50220191478729L166.372024,166.6175262928009L166.56094,19.74177110195157L167.78439600000002,194.68818116188052L168.02279,37.55354928970334L168.558052,91.45698833465576L169.376688,45.884514927864046L169.54311399999997,127.32723939418793L169.965926,137.0382006764412L170.681108,128.87971031665802L170.798056,193.97331166267398L170.97797599999998,95.32381761074065L171.184884,78.6775003671646L171.477254,-35.46878051757818L171.50874,130.70664006471634L171.544724,56.09363067150116L171.760628,108.72153687477112L171.80111,68.02095818519592L172.066492,238.20976543426517L172.124966,142.7450241446495L172.777176,61.06167125701903L172.831152,73.13093173503874L172.97958599999998,125.26282864809036L173.168502,97.09080564975739L173.460872,174.65885865688324L173.793724,-3.861406564712553L174.00512999999998,228.17922639846805L174.29749999999999,55.513062953948975L174.427942,132.33623164892197L174.486416,161.79057466983795L174.796778,67.94679152965546L174.81027200000003,176.51335912942886L175.003686,93.46852588653564L175.224088,189.63190722465518L175.475976,156.93033772706985L176.06971199999998,157.26795601844788L176.105696,148.88510185480118L176.137182,85.97751784324646L176.555496,99.2112545967102L176.609472,105.56771326065063L176.699432,139.18727535009384L177.212204,135.76078641414642L177.230196,185.16474652290344L177.351642,128.7322034239769L177.360638,143.54858416318893L177.765458,193.12424588203433L178.080318,58.71615517139435L178.201764,-13.542212367057829L178.23325,60.60369479656218L178.359194,73.26463568210602L178.970922,171.8885459303856L179.384738,165.50265270471573L179.416224,20.23811447620389L179.821044,8.680987238883944L179.861526,68.20375490188597L179.915502,39.19625806808472L180.00096399999998,96.72060537338257L180.07743,189.7462342977524L180.320322,147.57777827978134L180.37429799999998,93.53520202636719L180.486748,85.05998241901398L180.65317399999998,38.83952665328977L180.914058,95.40937829017638L181.12096599999998,176.66881370544434L181.20642800000002,237.84735459089282L181.23791400000002,131.06440889835358L181.444822,52.88118410110472L181.678718,82.63558733463287L181.69221199999998,146.7269189953804L181.849642,115.11073577404022L182.434382,33.97621262073517L182.66827800000002,139.78665727376938L182.672776,105.95328140258789L182.767234,69.17949128150939L183.014624,235.13429331779483L183.40595,88.61168253421782L183.410448,131.40239644050598L183.58137200000002,105.69002318382263L183.73880200000002,173.8158239722252L183.779284,156.28268945217133L183.95470600000002,84.64068937301634L184.17510800000002,25.43312120437622L184.42249800000002,128.44861882925034L184.566434,136.8426560163498L184.993744,93.89137077331543L185.67744,77.24825370311737L185.897842,-20.25863778591159L186.05977,180.92036712169647L186.33864599999998,46.130752444267245L186.684992,134.64988666772842L186.698486,116.71402263641357L187.040334,143.2608147263527L187.134792,222.29774731397632L187.17077600000002,40.44000017642975L187.22925,42.475240111350985L187.23824599999998,129.67847007513046L187.26523400000002,-1.8586606979370401L187.70603799999998,36.33727240562436L187.715034,147.59815740585327L188.10636000000002,108.20644962787628L188.119854,172.7779479622841L188.2413,-16.978389739990234L189.010458,172.31228756904602L189.041944,-36.28770840168002L189.338812,125.60807812213898L189.361302,63.84343075752257L189.829094,122.14700269699097L189.90556,182.0202420949936L190.20692599999998,154.1200052499771L190.296886,109.13949358463287L190.778172,140.48271256685257L191.012068,58.059978961944566L191.07953799999999,155.55484342575073L191.147008,24.065557003021212L191.218976,107.05087053775787L191.27745,101.13455879688263L191.43488,116.05956959724426L191.520342,177.12668466567993L191.551828,105.14149236679077L192.599862,12.099475741386385L192.869742,95.02148914337158L193.004682,136.04714918136597L193.090144,163.0864690542221L193.490466,167.67054158449173L193.665888,5.890682220458956L193.68388000000002,138.41483789682388L193.724362,120.08809554576874L193.75135,166.3523866534233L193.8638,132.47266101837158L194.12018600000002,112.4692212343216L194.776894,102.6036845445633L195.298662,145.88365572690964L195.447096,151.24551105499268L195.93737800000002,117.53601002693176L195.964366,34.57292187213898L196.00484799999998,100.94694423675537L196.58509,113.33400654792786L196.738022,153.21576285362244L197.88951,46.45221161842343L197.97497199999998,130.93981313705444L198.168386,53.24832487106322L198.478748,121.613962829113L199.445818,122.20434206724167L199.900116,184.34889572858813L200.14750600000002,118.59540808200836L200.214976,180.61313289403915L200.525338,62.67986881732939L200.67827,90.36196637153625L201.011122,93.03713548183441L201.08309,63.04890859127043L201.132568,127.8552680015564L201.28549999999998,121.46766918897629L201.64534,62.90127861499785L201.919718,147.01134759187698L201.924216,76.91118049621582L202.18509999999998,194.95599347352984L202.27506000000002,167.0222954750061L202.468474,31.371271491050692L202.49096400000002,71.8121086359024L202.81482,230.63738155364993L203.449038,113.15251100063324L203.552492,33.287472009658785L203.55698999999998,91.3808523416519L204.168718,110.03934013843536L204.600526,52.5302903652191L204.86590800000002,101.52494478225708L204.915386,175.98299193382263L206.192818,107.01760280132294L206.37723599999998,113.11646509170532L206.692096,-2.947669148445158L206.81804,147.6728515625L207.047438,116.58380019664764L207.483744,110.18078076839447L207.62318199999999,140.90330678224564L207.645672,170.7259862422943L207.722138,173.1893636584282L207.951536,53.475888848304734L208.12246,103.29822766780853L209.040052,74.17464542388915L209.36390799999998,180.28140503168106L209.836198,137.4832357764244L210.22752400000002,95.08415627479553L210.2815,170.69331634044647L210.425436,177.10103052854538L210.55138,226.4947043657303L210.94270600000002,133.8561733365059L210.987686,24.174820065498352L211.014674,25.093199491500854L211.032666,52.48538243770598L211.172104,119.4945337176323L211.1811,178.95379024744034L211.244072,126.74697059392929L211.27105999999998,201.31398189067843L211.599414,161.72356444597244L212.71042,78.84461271762846L213.106244,197.10033822059634L213.223192,59.078126430511475L213.628012,109.21847808361053L213.749458,47.94672775268552L214.06431800000001,168.31388193368912L214.370182,99.60790026187897L214.44215,29.558390855789185L214.739018,11.717775940895052L214.95492199999998,55.76148080825804L215.02689,116.14611494541168L215.157332,143.66737741231918L215.269782,79.2248706817627L215.355244,22.834580421447725L216.002956,145.1679773926735L216.03894000000003,103.82333743572235L216.326812,91.5452216863632L216.44825799999998,63.28463125228882L217.055488,124.68046742677689L217.086974,72.28717613220215L217.167938,71.2816183567047L217.631232,206.60371023416522L217.739184,96.1277996301651L217.784164,32.31345880031583L217.847136,150.7180978655815L218.126012,61.956418633460984L218.553322,42.08981263637543L218.85019,-2.60637593269351L218.90866400000002,164.1639428138733L219.0526,-28.622906327247648L219.13356399999998,59.13143920898436L219.178544,96.73509407043457L219.273002,143.27669250965118L219.763284,80.76538491249084L220.078144,82.67740058898926L220.518948,170.7293798327446L221.045214,88.09026527404785L221.216138,30.84549355506897L221.364572,107.23806309700012L221.441038,-3.6213232278823853L221.61646000000002,165.72337675094604L222.704976,171.83481115102768L222.77694400000001,-48.33147299289709L223.424656,168.14995217323303L223.658552,146.6188867688179L223.856464,170.98757404088974L224.013894,48.4984587430954L224.14883400000002,116.68859708309174L224.256786,103.34176409244537L224.36473800000002,52.54193055629729L224.400722,151.10023725032806L224.4502,88.50484597682953L224.454698,188.03918796777728L224.72457799999998,77.0050756931305L224.846024,194.652504503727L224.86401600000002,94.93786263465881L224.931486,199.96326255798343L225.04843400000001,146.41514825820923L225.09791199999998,174.8967968225479L225.14739,181.21239173412323L225.295824,11.024147152900667L225.678154,57.001284241676316L225.916548,43.54866969585419L225.93454,79.07833087444305L225.99301400000002,95.00678944587706L226.352854,178.5249845981598L226.37084599999997,131.96314769983292L226.49229200000002,131.31767976284027L226.532774,21.97654712200162L226.9241,86.02073776721953L226.955586,93.13739585876465L227.15349799999998,185.33242154121402L227.391892,153.87965816259384L227.54932200000002,63.56811034679413L227.56731399999998,140.70259261131287L227.841692,65.56167769432066L228.277998,126.00660520792007L228.448922,-6.95797872543335L228.65582999999998,150.23075717687607L228.660328,8.590749382972689L228.673822,152.9690681695938L228.92571,67.1397851705551L229.303542,99.97303652763367L229.411494,52.091831445693956L229.631896,84.18739008903503L229.694868,182.1782110929489L230.36057200000002,108.69255948066711L230.495512,104.67395055294037L230.760894,106.38294863700867L230.99029199999998,60.981737256050096L231.91688000000002,-16.747484922409086L231.957362,62.56557691097258L232.047322,202.8593491315842L232.18676,118.8805575966835L232.19575600000002,118.76069176197052L232.80298599999998,25.09745466709134L232.964914,153.29708594083786L233.162826,76.13279986381531L233.42820799999998,165.87425965070724L233.48218400000002,82.01893854141235L233.990458,140.0438140630722L234.156884,207.39916431903842L234.296322,129.06299936771393L234.45375199999998,90.32374012470244L235.128452,129.64565950632095L235.168934,187.01049047708514L235.29038,121.85765075683594L235.42532,154.7750033736229L235.578252,136.8907465338707L235.780662,115.83910930156708L235.81664600000002,92.87283647060393L235.94259,52.780220389366136L236.450864,51.261368870735154L236.522832,178.0325447320938L236.626286,123.95518857240677L236.801708,301.3652222156525L236.878174,87.47428464889526L237.26500199999998,184.6773706674576L237.305484,109.51852071285248L237.458416,37.0937793254852L237.97568600000002,29.325200200080843L238.151108,89.44158244132996L238.385004,56.573973178863525L239.680428,26.1192946434021L239.774886,242.82698261737826L240.60251799999998,226.1262975931168L240.840912,165.91916757822037L240.872398,161.90018939971924L240.962358,117.1798061132431L241.079306,72.60775613784789L241.484126,137.46438640356064L241.71802200000002,212.13218557834628L241.987902,81.58413696289061L242.019388,130.26608872413635L242.14983,210.8177055716515L242.38822399999998,33.09461760520932L242.406216,175.7115222811699L242.46469000000002,122.07151728868484L242.52766200000002,174.4843612909317L242.635614,88.57493329048157L242.68959,72.69855666160582L242.833526,173.30634582042694L242.865012,65.6758289337158L242.927984,-6.47207987308505L243.436258,148.60819894075394L243.485736,132.72151845693588L243.512724,204.97617590427402L243.69714199999999,264.15056425333023L243.715134,121.52008521556854L243.778106,114.96387946605682L243.88155999999998,166.7478893995285L244.358348,116.68775308132172L244.551762,183.42624354362488L244.74967400000003,72.39700186252594L244.830638,140.48990416526794L244.90260600000002,217.22749459743503L245.037546,139.61949217319489L245.347908,182.5791295170784L245.910158,90.96433746814726L246.10357199999999,20.489029169082613L246.112568,110.07257270812988L246.278994,76.93192887306213L246.283492,32.662031531333895L246.328472,109.25881433486938L246.36445600000002,107.23771142959595L246.47690599999999,141.57425302267075L246.85023999999999,13.879229307174654L246.87273000000002,109.6267991065979L246.94019999999998,145.07095235586166L247.81281199999998,165.35642939805984L248.433536,100.71593391895294L249.387112,160.43510782718658L249.737956,64.27383649349211L249.980848,168.28917729854584L250.09329799999998,122.19131278991699L250.660046,179.45681530237198L251.02438400000003,83.81863164901732L251.24478599999998,176.89558643102646L251.298762,171.25812935829163L251.384224,119.51287317276001L251.64960599999998,130.0181456208229L252.17137400000001,169.22870951890945L252.526716,128.4499551653862L252.715632,159.29618018865585L253.039488,29.45405113697052L253.264388,182.77295100688937L253.399328,43.174108743667574" style="fill: none;" fill="none"></path></g></g></g></g></g></g><g transform="translate(48, 177)" clip-path="url(#clip_1)"><clipPath id="clip_1"><rect width="281" height="23"></rect></clipPath><g><g><line x1="0" y1="0" x2="0" y2="5" style="visibility: inherit;" fill="rgb(0, 0, 0)" stroke="rgb(204, 204, 204)" stroke-width="1px"></line><line x1="28.1125" y1="0" x2="28.1125" y2="5" style="visibility: inherit;" fill="rgb(0, 0, 0)" stroke="rgb(204, 204, 204)" stroke-width="1px"></line><line x1="56.225" y1="0" x2="56.225" y2="5" style="visibility: inherit;" fill="rgb(0, 0, 0)" stroke="rgb(204, 204, 204)" stroke-width="1px"></line><line x1="84.33749999999999" y1="0" x2="84.33749999999999" y2="5" style="visibility: inherit;" fill="rgb(0, 0, 0)" stroke="rgb(204, 204, 204)" stroke-width="1px"></line><line x1="112.45" y1="0" x2="112.45" y2="5" style="visibility: inherit;" fill="rgb(0, 0, 0)" stroke="rgb(204, 204, 204)" stroke-width="1px"></line><line x1="140.5625" y1="0" x2="140.5625" y2="5" style="visibility: inherit;" fill="rgb(0, 0, 0)" stroke="rgb(204, 204, 204)" stroke-width="1px"></line><line x1="168.67499999999998" y1="0" x2="168.67499999999998" y2="5" style="visibility: inherit;" fill="rgb(0, 0, 0)" stroke="rgb(204, 204, 204)" stroke-width="1px"></line><line x1="196.7875" y1="0" x2="196.7875" y2="5" style="visibility: inherit;" fill="rgb(0, 0, 0)" stroke="rgb(204, 204, 204)" stroke-width="1px"></line><line x1="224.9" y1="0" x2="224.9" y2="5" style="visibility: inherit;" fill="rgb(0, 0, 0)" stroke="rgb(204, 204, 204)" stroke-width="1px"></line><line x1="253.01250000000002" y1="0" x2="253.01250000000002" y2="5" style="visibility: inherit;" fill="rgb(0, 0, 0)" stroke="rgb(204, 204, 204)" stroke-width="1px"></line><line x1="281.125" y1="0" x2="281.125" y2="5" style="visibility: inherit;" fill="rgb(0, 0, 0)" stroke="rgb(204, 204, 204)" stroke-width="1px"></line></g><g transform="translate(0, 8)"><text x="0" y="0" dx="0em" dy="0.95em" style="text-anchor: middle; visibility: hidden; font-family: &quot;Helvetica Neue&quot;, sans-serif; font-size: 12px; font-weight: 200;" fill="rgb(50, 49, 63)" stroke="none" stroke-width="1px">-50k</text><text x="28.1125" y="0" dx="0em" dy="0.95em" style="text-anchor: middle; visibility: inherit; font-family: &quot;Helvetica Neue&quot;, sans-serif; font-size: 12px; font-weight: 200;" fill="rgb(50, 49, 63)" stroke="none" stroke-width="1px">0</text><text x="56.225" y="0" dx="0em" dy="0.95em" style="text-anchor: middle; visibility: hidden; font-family: &quot;Helvetica Neue&quot;, sans-serif; font-size: 12px; font-weight: 200;" fill="rgb(50, 49, 63)" stroke="none" stroke-width="1px">50k</text><text x="84.33749999999999" y="0" dx="0em" dy="0.95em" style="text-anchor: middle; visibility: inherit; font-family: &quot;Helvetica Neue&quot;, sans-serif; font-size: 12px; font-weight: 200;" fill="rgb(50, 49, 63)" stroke="none" stroke-width="1px">100k</text><text x="112.45" y="0" dx="0em" dy="0.95em" style="text-anchor: middle; visibility: hidden; font-family: &quot;Helvetica Neue&quot;, sans-serif; font-size: 12px; font-weight: 200;" fill="rgb(50, 49, 63)" stroke="none" stroke-width="1px">150k</text><text x="140.5625" y="0" dx="0em" dy="0.95em" style="text-anchor: middle; visibility: inherit; font-family: &quot;Helvetica Neue&quot;, sans-serif; font-size: 12px; font-weight: 200;" fill="rgb(50, 49, 63)" stroke="none" stroke-width="1px">200k</text><text x="168.67499999999998" y="0" dx="0em" dy="0.95em" style="text-anchor: middle; visibility: hidden; font-family: &quot;Helvetica Neue&quot;, sans-serif; font-size: 12px; font-weight: 200;" fill="rgb(50, 49, 63)" stroke="none" stroke-width="1px">250k</text><text x="196.7875" y="0" dx="0em" dy="0.95em" style="text-anchor: middle; visibility: inherit; font-family: &quot;Helvetica Neue&quot;, sans-serif; font-size: 12px; font-weight: 200;" fill="rgb(50, 49, 63)" stroke="none" stroke-width="1px">300k</text><text x="224.9" y="0" dx="0em" dy="0.95em" style="text-anchor: middle; visibility: hidden; font-family: &quot;Helvetica Neue&quot;, sans-serif; font-size: 12px; font-weight: 200;" fill="rgb(50, 49, 63)" stroke="none" stroke-width="1px">350k</text><text x="253.01250000000002" y="0" dx="0em" dy="0.95em" style="text-anchor: middle; visibility: inherit; font-family: &quot;Helvetica Neue&quot;, sans-serif; font-size: 12px; font-weight: 200;" fill="rgb(50, 49, 63)" stroke="none" stroke-width="1px">400k</text><text x="281.125" y="0" dx="0em" dy="0.95em" style="text-anchor: middle; visibility: hidden; font-family: &quot;Helvetica Neue&quot;, sans-serif; font-size: 12px; font-weight: 200;" fill="rgb(50, 49, 63)" stroke="none" stroke-width="1px">450k</text></g><line x1="0" y1="0" x2="281.125" y2="0" fill="rgb(0, 0, 0)" stroke="rgb(204, 204, 204)" stroke-width="1px"></line></g></g></g></g></svg>