<svg viewBox="0 0 330 200" xmlns="http://www.w3.org/2000/svg"><g><g><g><g><g><line x1="58.59375" y1="177" x2="53.59375" y2="177" style="visibility: inherit;" fill="rgb(0, 0, 0)" stroke="rgb(204, 204, 204)" stroke-width="1px"></line><line x1="58.59375" y1="157.33333333333334" x2="53.59375" y2="157.33333333333334" style="visibility: inherit;" fill="rgb(0, 0, 0)" stroke="rgb(204, 204, 204)" stroke-width="1px"></line><line x1="58.59375" y1="137.66666666666666" x2="53.59375" y2="137.66666666666666" style="visibility: inherit;" fill="rgb(0, 0, 0)" stroke="rgb(204, 204, 204)" stroke-width="1px"></line><line x1="58.59375" y1="118" x2="53.59375" y2="118" style="visibility: inherit;" fill="rgb(0, 0, 0)" stroke="rgb(204, 204, 204)" stroke-width="1px"></line><line x1="58.59375" y1="98.33333333333333" x2="53.59375" y2="98.33333333333333" style="visibility: inherit;" fill="rgb(0, 0, 0)" stroke="rgb(204, 204, 204)" stroke-width="1px"></line><line x1="58.59375" y1="78.66666666666666" x2="53.59375" y2="78.66666666666666" style="visibility: inherit;" fill="rgb(0, 0, 0)" stroke="rgb(204, 204, 204)" stroke-width="1px"></line><line x1="58.59375" y1="59" x2="53.59375" y2="59" style="visibility: inherit;" fill="rgb(0, 0, 0)" stroke="rgb(204, 204, 204)" stroke-width="1px"></line><line x1="58.59375" y1="39.33333333333334" x2="53.59375" y2="39.33333333333334" style="visibility: inherit;" fill="rgb(0, 0, 0)" stroke="rgb(204, 204, 204)" stroke-width="1px"></line><line x1="58.59375" y1="19.666666666666686" x2="53.59375" y2="19.666666666666686" style="visibility: inherit;" fill="rgb(0, 0, 0)" stroke="rgb(204, 204, 204)" stroke-width="1px"></line><line x1="58.59375" y1="0" x2="53.59375" y2="0" style="visibility: inherit;" fill="rgb(0, 0, 0)" stroke="rgb(204, 204, 204)" stroke-width="1px"></line></g><g transform="translate(48.59375, 0)"><text x="0" y="177" dx="0em" dy="0.3em" style="text-anchor: end; visibility: hidden; font-family: &quot;Helvetica Neue&quot;, sans-serif; font-size: 12px; font-weight: 200;" fill="rgb(50, 49, 63)" stroke="none" stroke-width="1px">-0.05</text><text x="0" y="157.33333333333334" dx="0em" dy="0.3em" style="text-anchor: end; visibility: inherit; font-family: &quot;Helvetica Neue&quot;, sans-serif; font-size: 12px; font-weight: 200;" fill="rgb(50, 49, 63)" stroke="none" stroke-width="1px">0</text><text x="0" y="137.66666666666666" dx="0em" dy="0.3em" style="text-anchor: end; visibility: hidden; font-family: &quot;Helvetica Neue&quot;, sans-serif; font-size: 12px; font-weight: 200;" fill="rgb(50, 49, 63)" stroke="none" stroke-width="1px">0.05</text><text x="0" y="118" dx="0em" dy="0.3em" style="text-anchor: end; visibility: inherit; font-family: &quot;Helvetica Neue&quot;, sans-serif; font-size: 12px; font-weight: 200;" fill="rgb(50, 49, 63)" stroke="none" stroke-width="1px">0.1</text><text x="0" y="98.33333333333333" dx="0em" dy="0.3em" style="text-anchor: end; visibility: hidden; font-family: &quot;Helvetica Neue&quot;, sans-serif; font-size: 12px; font-weight: 200;" fill="rgb(50, 49, 63)" stroke="none" stroke-width="1px">0.15</text><text x="0" y="78.66666666666666" dx="0em" dy="0.3em" style="text-anchor: end; visibility: inherit; font-family: &quot;Helvetica Neue&quot;, sans-serif; font-size: 12px; font-weight: 200;" fill="rgb(50, 49, 63)" stroke="none" stroke-width="1px">0.2</text><text x="0" y="59" dx="0em" dy="0.3em" style="text-anchor: end; visibility: hidden; font-family: &quot;Helvetica Neue&quot;, sans-serif; font-size: 12px; font-weight: 200;" fill="rgb(50, 49, 63)" stroke="none" stroke-width="1px">0.25</text><text x="0" y="39.33333333333334" dx="0em" dy="0.3em" style="text-anchor: end; visibility: inherit; font-family: &quot;Helvetica Neue&quot;, sans-serif; font-size: 12px; font-weight: 200;" fill="rgb(50, 49, 63)" stroke="none" stroke-width="1px">0.3</text><text x="0" y="19.666666666666686" dx="0em" dy="0.3em" style="text-anchor: end; visibility: hidden; font-family: &quot;Helvetica Neue&quot;, sans-serif; font-size: 12px; font-weight: 200;" fill="rgb(50, 49, 63)" stroke="none" stroke-width="1px">0.35</text><text x="0" y="0" dx="0em" dy="0.3em" style="text-anchor: end; visibility: hidden; font-family: &quot;Helvetica Neue&quot;, sans-serif; font-size: 12px; font-weight: 200;" fill="rgb(50, 49, 63)" stroke="none" stroke-width="1px">0.4</text></g><line x1="58.59375" y1="0" x2="58.59375" y2="177" fill="rgb(0, 0, 0)" stroke="rgb(204, 204, 204)" stroke-width="1px"></line></g></g><g transform="translate(58, 0)" clip-path="url(#clip_0)"><clipPath id="clip_0"><rect width="271" height="177"></rect></clipPath><g><g><g><line x1="0" y1="0" x2="0" y2="177" fill="rgb(0, 0, 0)" stroke="rgb(60, 60, 60)" stroke-width="1px" opacity="0.25"></line><line x1="20.877403846153847" y1="0" x2="20.877403846153847" y2="177" fill="rgb(0, 0, 0)" stroke="rgb(60, 60, 60)" stroke-width="1px" opacity="0.25"></line><line x1="41.75480769230769" y1="0" x2="41.75480769230769" y2="177" fill="rgb(0, 0, 0)" stroke="rgb(60, 60, 60)" stroke-width="1px" opacity="0.25"></line><line x1="62.63221153846154" y1="0" x2="62.63221153846154" y2="177" fill="rgb(0, 0, 0)" stroke="rgb(60, 60, 60)" stroke-width="1px" opacity="0.25"></line><line x1="83.50961538461539" y1="0" x2="83.50961538461539" y2="177" fill="rgb(0, 0, 0)" stroke="rgb(60, 60, 60)" stroke-width="1px" opacity="0.25"></line><line x1="104.38701923076924" y1="0" x2="104.38701923076924" y2="177" fill="rgb(0, 0, 0)" stroke="rgb(60, 60, 60)" stroke-width="1px" opacity="0.25"></line><line x1="125.26442307692308" y1="0" x2="125.26442307692308" y2="177" fill="rgb(0, 0, 0)" stroke="rgb(60, 60, 60)" stroke-width="1px" opacity="0.25"></line><line x1="146.1418269230769" y1="0" x2="146.1418269230769" y2="177" fill="rgb(0, 0, 0)" stroke="rgb(60, 60, 60)" stroke-width="1px" opacity="0.25"></line><line x1="167.01923076923077" y1="0" x2="167.01923076923077" y2="177" fill="rgb(0, 0, 0)" stroke="rgb(60, 60, 60)" stroke-width="1px" opacity="0.25"></line><line x1="187.8966346153846" y1="0" x2="187.8966346153846" y2="177" fill="rgb(0, 0, 0)" stroke="rgb(60, 60, 60)" stroke-width="1px" opacity="0.25"></line><line x1="208.77403846153848" y1="0" x2="208.77403846153848" y2="177" fill="rgb(0, 0, 0)" stroke="rgb(60, 60, 60)" stroke-width="1px" opacity="0.25"></line><line x1="229.6514423076923" y1="0" x2="229.6514423076923" y2="177" fill="rgb(0, 0, 0)" stroke="rgb(60, 60, 60)" stroke-width="1px" opacity="0.25"></line><line x1="250.52884615384616" y1="0" x2="250.52884615384616" y2="177" fill="rgb(0, 0, 0)" stroke="rgb(60, 60, 60)" stroke-width="1px" opacity="0.25"></line><line x1="271.40625" y1="0" x2="271.40625" y2="177" fill="rgb(0, 0, 0)" stroke="rgb(60, 60, 60)" stroke-width="1px" opacity="0.25"></line></g><g><line x1="0" y1="177" x2="271.40625" y2="177" fill="rgb(0, 0, 0)" stroke="rgb(60, 60, 60)" stroke-width="1px" opacity="0.25"></line><line x1="0" y1="157.33333333333334" x2="271.40625" y2="157.33333333333334" fill="rgb(0, 0, 0)" stroke="rgb(60, 60, 60)" stroke-width="1px" opacity="0.25"></line><line x1="0" y1="137.66666666666666" x2="271.40625" y2="137.66666666666666" fill="rgb(0, 0, 0)" stroke="rgb(60, 60, 60)" stroke-width="1px" opacity="0.25"></line><line x1="0" y1="118" x2="271.40625" y2="118" fill="rgb(0, 0, 0)" stroke="rgb(60, 60, 60)" stroke-width="1px" opacity="0.25"></line><line x1="0" y1="98.33333333333333" x2="271.40625" y2="98.33333333333333" fill="rgb(0, 0, 0)" stroke="rgb(60, 60, 60)" stroke-width="1px" opacity="0.25"></line><line x1="0" y1="78.66666666666666" x2="271.40625" y2="78.66666666666666" fill="rgb(0, 0, 0)" stroke="rgb(60, 60, 60)" stroke-width="1px" opacity="0.25"></line><line x1="0" y1="59" x2="271.40625" y2="59" fill="rgb(0, 0, 0)" stroke="rgb(60, 60, 60)" stroke-width="1px" opacity="0.25"></line><line x1="0" y1="39.33333333333334" x2="271.40625" y2="39.33333333333334" fill="rgb(0, 0, 0)" stroke="rgb(60, 60, 60)" stroke-width="1px" opacity="0.25"></line><line x1="0" y1="19.666666666666686" x2="271.40625" y2="19.666666666666686" fill="rgb(0, 0, 0)" stroke="rgb(60, 60, 60)" stroke-width="1px" opacity="0.25"></line><line x1="0" y1="0" x2="271.40625" y2="0" fill="rgb(0, 0, 0)" stroke="rgb(60, 60, 60)" stroke-width="1px" opacity="0.25"></line></g></g></g><g><g><line x1="0" y1="157.33333333333334" x2="271.40625" y2="157.33333333333334" fill="rgb(0, 0, 0)" stroke="rgb(153, 153, 153)" stroke-width="1.5px"></line></g></g><g><g><line x1="20.877403846153847" y1="0" x2="20.877403846153847" y2="177" fill="rgb(0, 0, 0)" stroke="rgb(153, 153, 153)" stroke-width="1.5px"></line></g></g><g><g><g><g><g><path stroke="rgb(255, 112, 67)" stroke-width="2px" d="M24.21778846153846,-1.9166123444852587L25.052884615384617,27.7930115599504L25.88798076923077,18.67541618693818L26.723076923076924,23.316447673173855L27.558173076923076,17.03216297955848L28.393269230769228,32.976619874207046L29.228365384615387,55.29019639648416L30.06346153846154,67.73526034165721L30.898557692307694,68.76942996270961L31.733653846153846,72.38926978228005L32.56875,73.52590002139999L33.40384615384615,57.35532959958873L34.238942307692305,66.56960156919634L35.074038461538464,75.69847279542684L35.909134615384616,83.83792973966825L36.74423076923077,88.13882423540171L37.57932692307693,82.82740569653794L38.41442307692307,71.24690465102833L39.24951923076923,68.04195635467069L40.08461538461539,50.502367171817326L40.919711538461534,53.340908042078965L41.75480769230769,42.25885577752791L42.589903846153845,38.92678255792666L43.425000000000004,49.34593962284063L44.26009615384615,55.16478961122742L45.09519230769231,59.24911745131392L45.93028846153847,64.1322606349587L46.76538461538461,58.522071340897114L47.60048076923077,70.53841385557361L48.43557692307692,69.26590718744593L49.270673076923075,54.11079190299429L50.10576923076923,50.695144686389966L50.940865384615385,47.96136002832921L51.77596153846154,41.983051419476425L52.61105769230769,44.55617262314021L53.44615384615385,44.71703590607447L54.28125,46.16908167511937L55.11634615384615,40.129421016910214L55.95144230769231,49.37555910695646L56.786538461538456,43.41174708232708L57.621634615384615,30.791565749279698L58.456730769230774,40.400552472017694L59.29182692307692,43.260984190735485L60.12692307692308,44.77984527458179L60.96201923076923,35.41134696615691L61.79711538461539,32.72600967134622L62.63221153846154,43.995336340594804L63.46730769230769,49.96963107988698L64.30240384615385,59.270137232988205L65.1375,48.487063552397586L65.97259615384615,41.81482303070092L66.8076923076923,32.706904434719604L67.64278846153846,45.43517175330544L68.47788461538461,53.85247742542039L69.31298076923076,44.80355102663211L70.14807692307693,33.25134214666414L70.98317307692308,32.37904925886946L71.81826923076923,30.335326248869194L72.65336538461538,29.22249345846862L73.48846153846154,52.50191623887173L74.32355769230769,61.55353155287558L75.15865384615385,73.13872485887484L75.99375,71.20984033066914L76.82884615384614,73.5494832475119L77.66394230769231,69.92023324246009L78.49903846153846,73.98549003168819L79.33413461538461,82.09146423398383L80.16923076923078,86.27856492554501L81.00432692307692,53.872312876912076L81.83942307692307,43.16098376115093L82.67451923076923,49.94023275375328L83.50961538461539,57.189673511186996L84.34471153846152,55.96378021717058L85.17980769230769,64.40425727335604L86.01490384615384,66.29399964949285L86.85000000000001,52.82300634627023L87.68509615384616,48.49636359678394L88.5201923076923,60.28731886347147L89.35528846153846,63.29465218265858L90.19038461538462,70.46251696674034L91.02548076923077,61.33728236950242L91.86057692307693,78.18647138474468L92.69567307692307,76.15212393719803L93.53076923076922,60.92922367007843L94.36586538461539,74.03914312532333L95.20096153846154,24.313412563070386L96.0360576923077,45.98155753775322L96.87115384615385,66.86654873468807L97.70625,63.08170916902024L98.54134615384615,53.61575598478517L99.37644230769232,44.35841368214409L100.21153846153847,43.012979483064726L101.0466346153846,62.60051299062772L101.88173076923077,51.52437240835472L102.71682692307692,36.39331464145448L103.55192307692307,27.640985132300074L104.38701923076924,33.18658791445287L105.22211538461538,31.628567249353267L106.05721153846153,46.182596344217984L106.8923076923077,63.47088715541281L107.72740384615385,68.58217877412588L108.5625,73.26156682728579L109.39759615384615,21.746690290921038L110.2326923076923,26.821564144543657L111.06778846153846,31.919142961493236L111.90288461538462,37.07772138912944L112.73798076923077,8.480376914339075L113.57307692307691,28.547413831073158L114.40817307692308,41.08664499428954L115.24326923076923,43.21464683238915L116.07836538461538,66.08889056220204L116.91346153846155,69.03603825355302L117.74855769230768,74.34887875746526L118.58365384615384,59.819616748675756L119.41875,48.94652122286067L120.25384615384615,68.27338780975604L121.08894230769232,80.7310811798747L121.92403846153846,85.54281066185091L122.75913461538461,89.94003712927811L123.59423076923078,91.760940884325L124.42932692307693,94.80700728979096L125.26442307692308,90.2340706210517L126.09951923076923,75.07002546118795L126.93461538461538,82.45101425882439L127.76971153846154,61.35047175389286L128.6048076923077,74.9635978176301L129.43990384615384,80.54668052399785L130.275,81.68726642571666L131.11009615384614,83.88783197984762L131.9451923076923,88.13481778334977L132.78028846153848,88.44163362044931L133.6153846153846,89.9418477606307L134.45048076923075,86.06605625102104L135.28557692307692,92.82453488478572L136.12067307692305,89.65664553941993L136.95576923076922,86.71610878488447L137.7908653846154,91.03862668622152L138.62596153846152,92.18449386883944L139.4610576923077,88.69044257558885L140.29615384615386,93.30487852905692L141.13125,80.73935489822131L141.96634615384616,83.67853838385365L142.80144230769233,87.8410906842225L143.63653846153846,92.19107700492184L144.4716346153846,87.68124804360812L145.30673076923077,91.99930688617513L146.1418269230769,94.20184979962042L146.97692307692307,97.2630601294442L147.81201923076924,95.39117924973988L148.64711538461538,89.81632821920886L149.48221153846154,75.93324197826807L150.3173076923077,80.60189666051481L151.15240384615385,85.92900155603179L151.9875,89.86356676391337L152.82259615384615,93.42148488822525L153.6576923076923,92.70912473636633L154.49278846153845,88.29102679831446L155.32788461538462,83.91732128903863L156.16298076923076,82.64665644434452L156.99807692307692,88.01184167703406L157.8331730769231,91.70572725677737L158.66826923076923,95.89405467357784L159.5033653846154,97.80028652894428L160.33846153846156,96.38015457638858L161.17355769230767,95.44527883121624L162.00865384615383,90.43052556587807L162.84375,91.52987801118822L163.67884615384614,90.9375300750184L164.5139423076923,91.06630168428309L165.34903846153847,79.18757389825755L166.1841346153846,82.34365244811083L167.01923076923077,88.17821579836989L167.85432692307694,90.1023233353884L168.68942307692305,91.90511485058809L169.52451923076922,91.6301436590279L170.35961538461538,89.18475490612535L171.19471153846152,90.01987642726947L172.02980769230768,93.35460322706888L172.86490384615385,85.27811209525062L173.70000000000002,84.41850107609466L174.53509615384615,89.55968446154932L175.37019230769232,88.56681797476337L176.2052884615385,89.99924371384614L177.0403846153846,91.04187098588368L177.87548076923076,92.04710747865332L178.71057692307693,90.99069807172314L179.54567307692307,94.5376198842555L180.38076923076923,91.20877168304303L181.2158653846154,87.25728919740466L182.05096153846154,89.47209107857515L182.8860576923077,85.46630897510988L183.72115384615387,88.55552820993826L184.55625,91.42663517375807L185.39134615384614,95.65120896565925L186.2264423076923,97.09619222204694L187.06153846153845,92.19166597199923L187.8966346153846,86.31436310096076L188.73173076923078,91.25455231199757L189.56682692307692,89.65851255295732L190.40192307692308,92.02272961957091L191.23701923076925,94.08767143739959L192.0721153846154,94.41700189821145L192.90721153846155,89.23305029975705L193.7423076923077,91.69288471126953L194.57740384615383,86.98895282020808L195.4125,91.50422316275422L196.24759615384616,85.47545614331395L197.0826923076923,92.12776799096325L197.91778846153846,93.75074312146698L198.75288461538463,85.58449308707036L199.58798076923077,85.28439329048227L200.42307692307693,80.10871038027742L201.2581730769231,82.77198474320653L202.0932692307692,81.29318779734503L202.92836538461538,88.46766214784621L203.76346153846154,86.49832362264378L204.59855769230768,88.66512169637274L205.43365384615385,89.94181700268184L206.26875,90.74953256280499L207.10384615384615,84.86307387092478L207.93894230769232,88.86832905136804L208.77403846153848,92.65099367493347L209.60913461538462,94.90381088054552L210.44423076923076,95.97239018795713L211.27932692307692,97.89351100117659L212.11442307692306,93.65537303919014L212.94951923076923,93.24971139968088L213.7846153846154,90.86483341380348L214.61971153846153,91.82961971317366L215.4548076923077,91.90599628341973L216.28990384615386,94.25291802914607L217.125,93.9564618017177L217.96009615384614,89.28277115896742L218.7951923076923,87.34632188206157L219.63028846153844,87.33374124840044L220.4653846153846,92.31716451292323L221.30048076923077,93.32314145512434L222.1355769230769,92.3598477122012L222.97067307692308,91.18438151340622L223.80576923076924,86.96500899112785L224.64086538461538,75.68447719643451L225.47596153846155,84.6246370074944L226.31105769230768,88.60288198775825L227.14615384615382,86.45000909956362L227.98125,89.04883343691866L228.81634615384615,90.5420450451885L229.6514423076923,89.48845686612015L230.48653846153846,83.70865041870367L231.32163461538462,88.22561175142819L232.15673076923076,92.22288656144397L232.99182692307693,93.93987475182051L233.8269230769231,94.00825966007768L234.6620192307692,89.6863289551373L235.49711538461537,89.49060679335011L236.33221153846154,87.77084082479445L237.16730769230767,84.6990148988277L238.00240384615384,87.37008859914005L238.8375,86.80376080394663L239.67259615384617,91.58021845651196L240.5076923076923,94.85883335808433L241.34278846153848,93.67132061644106L242.17788461538464,94.22022050573653L243.01298076923075,95.04155017110243L243.84807692307692,95.23195620282014L244.68317307692308,83.65133618456238L245.51826923076922,88.41457890158165L246.3533653846154,92.62557424715321L247.18846153846155,91.64860054022766L248.0235576923077,92.4489189793668L248.85865384615386,89.00992452363185L249.69375000000002,82.9215209201575L250.52884615384616,86.15488847785795L251.3639423076923,90.43953655179503L252.19903846153846,90.10633333931067L253.0341346153846,93.97361608590502L253.86923076923077,94.63881151822699L254.70432692307693,95.64054369696473" style="fill: none;" fill="none"></path></g></g></g></g><g opacity="0.2"><g><g><g><path stroke="rgb(255, 112, 67)" stroke-width="2px" d="M20.877403846153847,-686.1098950703938L21.712500000000002,34.36211133003235L22.547596153846154,-38.51316289107007L23.382692307692306,51.440592646598816L24.21778846153846,60.079067985216795L25.052884615384617,68.89211688439052L25.88798076923077,5.6371089220047L26.723076923076924,30.08311613400778L27.558173076923076,7.764063715934753L28.393269230769228,56.652280131975814L29.228365384615387,88.55817868312201L30.06346153846154,86.33513077100119L30.898557692307694,70.31730765104295L31.733653846153846,77.81193786859514L32.56875,75.22950931390126L33.40384615384615,33.110878705978394L34.238942307692305,80.38711035251617L35.074038461538464,89.38946181535722L35.909134615384616,96.04587519168854L36.74423076923077,94.58977286020915L37.57932692307693,74.86056917905809L38.41442307692307,53.876534144083664L39.24951923076923,63.23459718624751L40.08461538461539,24.193191170692444L40.919711538461534,57.59869917233786L41.75480769230769,25.63582464059195L42.589903846153845,33.9286812543869L43.425000000000004,64.97465922435126L44.26009615384615,63.89305923382443L45.09519230769231,65.37560695409775L45.93028846153847,71.45697379112245L46.76538461538461,50.10678851604463L47.60048076923077,88.56292619307837L48.43557692307692,67.35714727640152L49.270673076923075,31.378119627634703L50.10576923076923,45.57167394955954L50.940865384615385,43.86068308353424L51.77596153846154,33.015588561693846L52.61105769230769,48.41585441430411L53.44615384615385,44.95833082993826L54.28125,48.34715032577515L55.11634615384615,31.0699300368627L55.95144230769231,63.24476623535156L56.786538461538456,34.466029047966L57.621634615384615,11.861293752988189L58.456730769230774,54.814032554626465L59.29182692307692,47.551631768544524L60.12692307692308,47.05813690026602L60.96201923076923,21.358599503835052L61.79711538461539,28.698003729184478L62.63221153846154,60.899326344331115L63.46730769230769,58.93107318878174L64.30240384615385,73.22089646259944L65.1375,32.31245303153992L65.97259615384615,31.80646224816641L66.8076923076923,19.045026540756226L67.64278846153846,64.52757273117702L68.47788461538461,66.47843593358994L69.31298076923076,31.230161428451538L70.14807692307693,15.923028826713562L70.98317307692308,31.07060992717743L71.81826923076923,27.269741733868926L72.65336538461538,27.553244272867857L73.48846153846154,87.42105040947597L74.32355769230769,75.13095452388129L75.15865384615385,90.51651481787364L75.99375,68.3165135383606L76.82884615384614,77.05894762277603L77.66394230769231,64.47635823488235L78.49903846153846,80.0833752155304L79.33413461538461,94.25042553742728L80.16923076923078,92.55921596288682L81.00432692307692,5.2629348039627075L81.83942307692307,27.093990087509155L82.67451923076923,60.10910624265672L83.50961538461539,68.0638346473376L84.34471153846152,54.124940276145935L85.17980769230769,77.06497285763425L86.01490384615384,69.12861321369809L86.85000000000001,32.61651639143628L87.68509615384616,42.006399472554534L88.5201923076923,77.97375176350278L89.35528846153846,67.80565216143927L90.19038461538462,81.21431414286296L91.02548076923077,47.64943047364554L91.86057692307693,103.46025490760803L92.69567307692307,73.10060276587805L93.53076923076922,38.09487326939902L94.36586538461539,93.70402230819067L95.20096153846154,-50.27518328030905L96.0360576923077,78.48377499977748L96.87115384615385,98.19403553009035L97.70625,57.40444982051851L98.54134615384615,39.416826208432525L99.37644230769232,30.472400228182494L100.21153846153847,40.99482818444571L101.0466346153846,91.98181325197221L101.88173076923077,34.91016153494519L102.71682692307692,13.696727991104126L103.55192307692307,14.51249086856842L104.38701923076924,41.5049920876821L105.22211538461538,29.291536251703917L106.05721153846153,68.01363998651505L106.8923076923077,89.40332337220511L107.72740384615385,76.24911620219548L108.5625,80.28064890702565L109.39759615384615,-55.52562451362613L110.2326923076923,34.43387492497763L111.06778846153846,39.56551118691763L111.90288461538462,44.81558903058371L112.73798076923077,-34.415639797846495L113.57307692307691,58.647969206174224L114.40817307692308,59.895491739114135L115.24326923076923,46.406649589538574L116.07836538461538,100.4002561569214L116.91346153846155,73.4567597905795L117.74855769230768,82.31813951333365L118.58365384615384,38.025723735491454L119.41875,32.636877934138L120.25384615384615,97.26368769009909L121.08894230769232,99.41762123505275L121.92403846153846,92.76040488481523L122.75913461538461,96.53587683041891L123.59423076923078,94.49229651689531L124.42932692307693,99.37610689798991L125.26442307692308,83.37466561794281L126.09951923076923,52.32395772139233L126.93461538461538,93.52249745527904L127.76971153846154,29.699657996495574L128.6048076923077,95.38328691323599L129.43990384615384,88.92130458354951L130.275,83.39814527829489L131.11009615384614,87.18868031104407L131.9451923076923,94.50529648860297L132.78028846153848,88.90185737609863L133.6153846153846,92.19216897090277L134.45048076923075,80.25236898660661L135.28557692307692,102.9622528354327L136.12067307692305,84.90481152137122L136.95576923076922,82.30530365308125L137.7908653846154,97.52240353822708L138.62596153846152,93.90329464276633L139.4610576923077,83.44936563571295L140.29615384615386,100.22653245925903L141.13125,61.89106945196788L141.96634615384616,88.08731361230215L142.80144230769233,94.0849191347758L143.63653846153846,98.71605648597082L144.4716346153846,80.91650460163753L145.30673076923077,98.4763951500257L146.1418269230769,97.50566416978836L146.97692307692307,101.85487562417984L147.81201923076924,92.58335793018341L148.64711538461538,81.45405167341232L149.48221153846154,55.10861261685689L150.3173076923077,87.60487868388495L151.15240384615385,93.91965889930725L151.9875,95.76541457573573L152.82259615384615,98.75836207469305L153.6576923076923,91.64058450857799L154.49278846153845,81.66387989123663L155.32788461538462,77.35676302512486L156.16298076923076,80.74065917730331L156.99807692307692,96.05961952606837L157.8331730769231,97.24655562639236L158.66826923076923,102.17654579877853L159.5033653846154,100.65963431199393L160.33846153846156,94.24995664755504L161.17355769230767,94.04296521345775L162.00865384615383,82.90839566787083L162.84375,93.17890667915344L163.67884615384614,90.04900817076366L164.5139423076923,91.25945909818014L165.34903846153847,61.36948221921921L166.1841346153846,87.07777027289073L167.01923076923077,96.93006082375845L167.85432692307694,92.9884846409162L168.68942307692305,94.60930212338766L169.52451923076922,91.21768687168758L170.35961538461538,85.51667177677156L171.19471153846152,91.27255870898566L172.02980769230768,98.35669342676799L172.86490384615385,73.16337539752325L173.70000000000002,83.12908454736075L174.53509615384615,97.27145953973135L175.37019230769232,87.07751824458441L176.2052884615385,92.14788232247035L177.0403846153846,92.60581189393997L177.87548076923076,93.55496221780777L178.71057692307693,89.40608396132788L179.54567307692307,99.85800260305405L180.38076923076923,86.21549938122432L181.2158653846154,81.3300654689471L182.05096153846154,92.79429390033087L182.8860576923077,79.45763581991197L183.72115384615387,93.18935706218085L184.55625,95.73329561948778L185.39134615384614,101.98806965351105L186.2264423076923,99.26366710662842L187.06153846153845,84.83487659692766L187.8966346153846,77.49840879440308L188.73173076923078,98.66483612855276L189.56682692307692,87.26445291439693L190.40192307692308,95.56905521949133L191.23701923076925,97.18508416414262L192.0721153846154,94.91099758942923L192.90721153846155,81.45712290207545L193.7423076923077,95.38263632853827L194.57740384615383,79.93305498361588L195.4125,98.27712867657344L196.24759615384616,76.43230561415355L197.0826923076923,102.1062357624372L197.91778846153846,96.18520581722261L198.75288461538463,73.33511803547543L199.58798076923077,84.83424359560014L200.42307692307693,72.34518601497014L201.2581730769231,86.7668962876002L202.0932692307692,79.07499237855275L202.92836538461538,99.22937367359798L203.76346153846154,83.54431583484015L204.59855769230768,91.91531880696616L205.43365384615385,91.85685996214549L206.26875,91.96110590298971L207.10384615384615,76.03338583310446L207.93894230769232,94.87621182203294L208.77403846153848,98.32499061028163L209.60913461538462,98.28303668896358L210.44423076923076,97.57525914907455L211.27932692307692,100.77519222100577L212.11442307692306,87.29816609621048L212.94951923076923,92.64121894041698L213.7846153846154,87.2875164349874L214.61971153846153,93.27679916222891L215.4548076923077,92.02056113878886L216.28990384615386,97.77330064773561L217.125,93.51177746057512L217.96009615384614,82.27223519484203L218.7951923076923,84.44164796670279L219.63028846153844,87.3148702979088L220.4653846153846,99.7922994097074L221.30048076923077,94.83210686842601L222.1355769230769,90.91490709781647L222.97067307692308,89.42118221521378L223.80576923076924,80.63595020771027L224.64086538461538,58.76367950439453L225.47596153846155,98.03487672408423L226.31105769230768,94.57024945815405L227.14615384615382,83.2206997672717L227.98125,92.9470699429512L228.81634615384615,92.78186245759329L229.6514423076923,87.90807459751767L230.48653846153846,75.03894074757895L231.32163461538462,95.00105375051498L232.15673076923076,98.21879877646765L232.99182692307693,96.51535703738531L233.8269230769231,94.11083702246349L234.6620192307692,83.2034328977267L235.49711538461537,89.19702355066936L236.33221153846154,85.19119187196097L237.16730769230767,80.09127600987752L238.00240384615384,91.37669914960861L238.8375,85.95426911115646L239.67259615384617,98.74490493535997L240.5076923076923,99.77675571044287L241.34278846153848,91.8900515039762L242.17788461538464,95.04357033967972L243.01298076923075,96.2735446691513L243.84807692307692,95.51756525039673L244.68317307692308,66.2804061571757L245.51826923076922,95.55944297711055L246.3533653846154,98.94206726551056L247.18846153846155,90.18313997983934L248.0235576923077,93.64939663807552L248.85865384615386,83.85143284002942L249.69375000000002,73.78891551494598L250.52884615384616,91.00493981440863L251.3639423076923,96.86650866270065L252.19903846153846,89.60652852058412L253.0341346153846,99.77454020579657L253.86923076923077,95.63660466670991L254.70432692307693,97.14314196507137" style="fill: none;" fill="none"></path></g></g></g></g></g></g><g transform="translate(58, 177)" clip-path="url(#clip_1)"><clipPath id="clip_1"><rect width="271" height="23"></rect></clipPath><g><g><line x1="0" y1="0" x2="0" y2="5" style="visibility: inherit;" fill="rgb(0, 0, 0)" stroke="rgb(204, 204, 204)" stroke-width="1px"></line><line x1="20.877403846153847" y1="0" x2="20.877403846153847" y2="5" style="visibility: inherit;" fill="rgb(0, 0, 0)" stroke="rgb(204, 204, 204)" stroke-width="1px"></line><line x1="41.75480769230769" y1="0" x2="41.75480769230769" y2="5" style="visibility: inherit;" fill="rgb(0, 0, 0)" stroke="rgb(204, 204, 204)" stroke-width="1px"></line><line x1="62.63221153846154" y1="0" x2="62.63221153846154" y2="5" style="visibility: inherit;" fill="rgb(0, 0, 0)" stroke="rgb(204, 204, 204)" stroke-width="1px"></line><line x1="83.50961538461539" y1="0" x2="83.50961538461539" y2="5" style="visibility: inherit;" fill="rgb(0, 0, 0)" stroke="rgb(204, 204, 204)" stroke-width="1px"></line><line x1="104.38701923076924" y1="0" x2="104.38701923076924" y2="5" style="visibility: inherit;" fill="rgb(0, 0, 0)" stroke="rgb(204, 204, 204)" stroke-width="1px"></line><line x1="125.26442307692308" y1="0" x2="125.26442307692308" y2="5" style="visibility: inherit;" fill="rgb(0, 0, 0)" stroke="rgb(204, 204, 204)" stroke-width="1px"></line><line x1="146.1418269230769" y1="0" x2="146.1418269230769" y2="5" style="visibility: inherit;" fill="rgb(0, 0, 0)" stroke="rgb(204, 204, 204)" stroke-width="1px"></line><line x1="167.01923076923077" y1="0" x2="167.01923076923077" y2="5" style="visibility: inherit;" fill="rgb(0, 0, 0)" stroke="rgb(204, 204, 204)" stroke-width="1px"></line><line x1="187.8966346153846" y1="0" x2="187.8966346153846" y2="5" style="visibility: inherit;" fill="rgb(0, 0, 0)" stroke="rgb(204, 204, 204)" stroke-width="1px"></line><line x1="208.77403846153848" y1="0" x2="208.77403846153848" y2="5" style="visibility: inherit;" fill="rgb(0, 0, 0)" stroke="rgb(204, 204, 204)" stroke-width="1px"></line><line x1="229.6514423076923" y1="0" x2="229.6514423076923" y2="5" style="visibility: inherit;" fill="rgb(0, 0, 0)" stroke="rgb(204, 204, 204)" stroke-width="1px"></line><line x1="250.52884615384616" y1="0" x2="250.52884615384616" y2="5" style="visibility: inherit;" fill="rgb(0, 0, 0)" stroke="rgb(204, 204, 204)" stroke-width="1px"></line><line x1="271.40625" y1="0" x2="271.40625" y2="5" style="visibility: inherit;" fill="rgb(0, 0, 0)" stroke="rgb(204, 204, 204)" stroke-width="1px"></line></g><g transform="translate(0, 8)"><text x="0" y="0" dx="0em" dy="0.95em" style="text-anchor: middle; visibility: hidden; font-family: &quot;Helvetica Neue&quot;, sans-serif; font-size: 12px; font-weight: 200;" fill="rgb(50, 49, 63)" stroke="none" stroke-width="1px">-20k</text><text x="20.877403846153847" y="0" dx="0em" dy="0.95em" style="text-anchor: middle; visibility: inherit; font-family: &quot;Helvetica Neue&quot;, sans-serif; font-size: 12px; font-weight: 200;" fill="rgb(50, 49, 63)" stroke="none" stroke-width="1px">0</text><text x="41.75480769230769" y="0" dx="0em" dy="0.95em" style="text-anchor: middle; visibility: hidden; font-family: &quot;Helvetica Neue&quot;, sans-serif; font-size: 12px; font-weight: 200;" fill="rgb(50, 49, 63)" stroke="none" stroke-width="1px">20k</text><text x="62.63221153846154" y="0" dx="0em" dy="0.95em" style="text-anchor: middle; visibility: inherit; font-family: &quot;Helvetica Neue&quot;, sans-serif; font-size: 12px; font-weight: 200;" fill="rgb(50, 49, 63)" stroke="none" stroke-width="1px">40k</text><text x="83.50961538461539" y="0" dx="0em" dy="0.95em" style="text-anchor: middle; visibility: hidden; font-family: &quot;Helvetica Neue&quot;, sans-serif; font-size: 12px; font-weight: 200;" fill="rgb(50, 49, 63)" stroke="none" stroke-width="1px">60k</text><text x="104.38701923076924" y="0" dx="0em" dy="0.95em" style="text-anchor: middle; visibility: inherit; font-family: &quot;Helvetica Neue&quot;, sans-serif; font-size: 12px; font-weight: 200;" fill="rgb(50, 49, 63)" stroke="none" stroke-width="1px">80k</text><text x="125.26442307692308" y="0" dx="0em" dy="0.95em" style="text-anchor: middle; visibility: hidden; font-family: &quot;Helvetica Neue&quot;, sans-serif; font-size: 12px; font-weight: 200;" fill="rgb(50, 49, 63)" stroke="none" stroke-width="1px">100k</text><text x="146.1418269230769" y="0" dx="0em" dy="0.95em" style="text-anchor: middle; visibility: inherit; font-family: &quot;Helvetica Neue&quot;, sans-serif; font-size: 12px; font-weight: 200;" fill="rgb(50, 49, 63)" stroke="none" stroke-width="1px">120k</text><text x="167.01923076923077" y="0" dx="0em" dy="0.95em" style="text-anchor: middle; visibility: hidden; font-family: &quot;Helvetica Neue&quot;, sans-serif; font-size: 12px; font-weight: 200;" fill="rgb(50, 49, 63)" stroke="none" stroke-width="1px">140k</text><text x="187.8966346153846" y="0" dx="0em" dy="0.95em" style="text-anchor: middle; visibility: inherit; font-family: &quot;Helvetica Neue&quot;, sans-serif; font-size: 12px; font-weight: 200;" fill="rgb(50, 49, 63)" stroke="none" stroke-width="1px">160k</text><text x="208.77403846153848" y="0" dx="0em" dy="0.95em" style="text-anchor: middle; visibility: hidden; font-family: &quot;Helvetica Neue&quot;, sans-serif; font-size: 12px; font-weight: 200;" fill="rgb(50, 49, 63)" stroke="none" stroke-width="1px">180k</text><text x="229.6514423076923" y="0" dx="0em" dy="0.95em" style="text-anchor: middle; visibility: inherit; font-family: &quot;Helvetica Neue&quot;, sans-serif; font-size: 12px; font-weight: 200;" fill="rgb(50, 49, 63)" stroke="none" stroke-width="1px">200k</text><text x="250.52884615384616" y="0" dx="0em" dy="0.95em" style="text-anchor: middle; visibility: hidden; font-family: &quot;Helvetica Neue&quot;, sans-serif; font-size: 12px; font-weight: 200;" fill="rgb(50, 49, 63)" stroke="none" stroke-width="1px">220k</text><text x="271.40625" y="0" dx="0em" dy="0.95em" style="text-anchor: middle; visibility: hidden; font-family: &quot;Helvetica Neue&quot;, sans-serif; font-size: 12px; font-weight: 200;" fill="rgb(50, 49, 63)" stroke="none" stroke-width="1px">240k</text></g><line x1="0" y1="0" x2="271.40625" y2="0" fill="rgb(0, 0, 0)" stroke="rgb(204, 204, 204)" stroke-width="1px"></line></g></g></g></g></svg>