<svg viewBox="0 0 330 200" xmlns="http://www.w3.org/2000/svg"><g><g><g><g><g><line x1="58.59375" y1="177" x2="53.59375" y2="177" style="visibility: inherit;" fill="rgb(0, 0, 0)" stroke="rgb(204, 204, 204)" stroke-width="1px"></line><line x1="58.59375" y1="160.9090909090909" x2="53.59375" y2="160.9090909090909" style="visibility: inherit;" fill="rgb(0, 0, 0)" stroke="rgb(204, 204, 204)" stroke-width="1px"></line><line x1="58.59375" y1="144.8181818181818" x2="53.59375" y2="144.8181818181818" style="visibility: inherit;" fill="rgb(0, 0, 0)" stroke="rgb(204, 204, 204)" stroke-width="1px"></line><line x1="58.59375" y1="128.72727272727275" x2="53.59375" y2="128.72727272727275" style="visibility: inherit;" fill="rgb(0, 0, 0)" stroke="rgb(204, 204, 204)" stroke-width="1px"></line><line x1="58.59375" y1="112.63636363636364" x2="53.59375" y2="112.63636363636364" style="visibility: inherit;" fill="rgb(0, 0, 0)" stroke="rgb(204, 204, 204)" stroke-width="1px"></line><line x1="58.59375" y1="96.54545454545453" x2="53.59375" y2="96.54545454545453" style="visibility: inherit;" fill="rgb(0, 0, 0)" stroke="rgb(204, 204, 204)" stroke-width="1px"></line><line x1="58.59375" y1="80.45454545454544" x2="53.59375" y2="80.45454545454544" style="visibility: inherit;" fill="rgb(0, 0, 0)" stroke="rgb(204, 204, 204)" stroke-width="1px"></line><line x1="58.59375" y1="64.36363636363639" x2="53.59375" y2="64.36363636363639" style="visibility: inherit;" fill="rgb(0, 0, 0)" stroke="rgb(204, 204, 204)" stroke-width="1px"></line><line x1="58.59375" y1="48.27272727272728" x2="53.59375" y2="48.27272727272728" style="visibility: inherit;" fill="rgb(0, 0, 0)" stroke="rgb(204, 204, 204)" stroke-width="1px"></line><line x1="58.59375" y1="32.18181818181819" x2="53.59375" y2="32.18181818181819" style="visibility: inherit;" fill="rgb(0, 0, 0)" stroke="rgb(204, 204, 204)" stroke-width="1px"></line><line x1="58.59375" y1="16.090909090909093" x2="53.59375" y2="16.090909090909093" style="visibility: inherit;" fill="rgb(0, 0, 0)" stroke="rgb(204, 204, 204)" stroke-width="1px"></line><line x1="58.59375" y1="0" x2="53.59375" y2="0" style="visibility: inherit;" fill="rgb(0, 0, 0)" stroke="rgb(204, 204, 204)" stroke-width="1px"></line></g><g transform="translate(48.59375, 0)"><text x="0" y="177" dx="0em" dy="0.3em" style="text-anchor: end; visibility: hidden; font-family: &quot;Helvetica Neue&quot;, sans-serif; font-size: 12px; font-weight: 200;" fill="rgb(50, 49, 63)" stroke="none" stroke-width="1px">-0.02</text><text x="0" y="160.9090909090909" dx="0em" dy="0.3em" style="text-anchor: end; visibility: inherit; font-family: &quot;Helvetica Neue&quot;, sans-serif; font-size: 12px; font-weight: 200;" fill="rgb(50, 49, 63)" stroke="none" stroke-width="1px">0</text><text x="0" y="144.8181818181818" dx="0em" dy="0.3em" style="text-anchor: end; visibility: hidden; font-family: &quot;Helvetica Neue&quot;, sans-serif; font-size: 12px; font-weight: 200;" fill="rgb(50, 49, 63)" stroke="none" stroke-width="1px">0.02</text><text x="0" y="128.72727272727275" dx="0em" dy="0.3em" style="text-anchor: end; visibility: inherit; font-family: &quot;Helvetica Neue&quot;, sans-serif; font-size: 12px; font-weight: 200;" fill="rgb(50, 49, 63)" stroke="none" stroke-width="1px">0.04</text><text x="0" y="112.63636363636364" dx="0em" dy="0.3em" style="text-anchor: end; visibility: hidden; font-family: &quot;Helvetica Neue&quot;, sans-serif; font-size: 12px; font-weight: 200;" fill="rgb(50, 49, 63)" stroke="none" stroke-width="1px">0.06</text><text x="0" y="96.54545454545453" dx="0em" dy="0.3em" style="text-anchor: end; visibility: inherit; font-family: &quot;Helvetica Neue&quot;, sans-serif; font-size: 12px; font-weight: 200;" fill="rgb(50, 49, 63)" stroke="none" stroke-width="1px">0.08</text><text x="0" y="80.45454545454544" dx="0em" dy="0.3em" style="text-anchor: end; visibility: hidden; font-family: &quot;Helvetica Neue&quot;, sans-serif; font-size: 12px; font-weight: 200;" fill="rgb(50, 49, 63)" stroke="none" stroke-width="1px">0.1</text><text x="0" y="64.36363636363639" dx="0em" dy="0.3em" style="text-anchor: end; visibility: inherit; font-family: &quot;Helvetica Neue&quot;, sans-serif; font-size: 12px; font-weight: 200;" fill="rgb(50, 49, 63)" stroke="none" stroke-width="1px">0.12</text><text x="0" y="48.27272727272728" dx="0em" dy="0.3em" style="text-anchor: end; visibility: hidden; font-family: &quot;Helvetica Neue&quot;, sans-serif; font-size: 12px; font-weight: 200;" fill="rgb(50, 49, 63)" stroke="none" stroke-width="1px">0.14</text><text x="0" y="32.18181818181819" dx="0em" dy="0.3em" style="text-anchor: end; visibility: inherit; font-family: &quot;Helvetica Neue&quot;, sans-serif; font-size: 12px; font-weight: 200;" fill="rgb(50, 49, 63)" stroke="none" stroke-width="1px">0.16</text><text x="0" y="16.090909090909093" dx="0em" dy="0.3em" style="text-anchor: end; visibility: hidden; font-family: &quot;Helvetica Neue&quot;, sans-serif; font-size: 12px; font-weight: 200;" fill="rgb(50, 49, 63)" stroke="none" stroke-width="1px">0.18</text><text x="0" y="0" dx="0em" dy="0.3em" style="text-anchor: end; visibility: hidden; font-family: &quot;Helvetica Neue&quot;, sans-serif; font-size: 12px; font-weight: 200;" fill="rgb(50, 49, 63)" stroke="none" stroke-width="1px">0.2</text></g><line x1="58.59375" y1="0" x2="58.59375" y2="177" fill="rgb(0, 0, 0)" stroke="rgb(204, 204, 204)" stroke-width="1px"></line></g></g><g transform="translate(58, 0)" clip-path="url(#clip_0)"><clipPath id="clip_0"><rect width="271" height="177"></rect></clipPath><g><g><g><line x1="0" y1="0" x2="0" y2="177" fill="rgb(0, 0, 0)" stroke="rgb(60, 60, 60)" stroke-width="1px" opacity="0.25"></line><line x1="20.877403846153847" y1="0" x2="20.877403846153847" y2="177" fill="rgb(0, 0, 0)" stroke="rgb(60, 60, 60)" stroke-width="1px" opacity="0.25"></line><line x1="41.75480769230769" y1="0" x2="41.75480769230769" y2="177" fill="rgb(0, 0, 0)" stroke="rgb(60, 60, 60)" stroke-width="1px" opacity="0.25"></line><line x1="62.63221153846154" y1="0" x2="62.63221153846154" y2="177" fill="rgb(0, 0, 0)" stroke="rgb(60, 60, 60)" stroke-width="1px" opacity="0.25"></line><line x1="83.50961538461539" y1="0" x2="83.50961538461539" y2="177" fill="rgb(0, 0, 0)" stroke="rgb(60, 60, 60)" stroke-width="1px" opacity="0.25"></line><line x1="104.38701923076924" y1="0" x2="104.38701923076924" y2="177" fill="rgb(0, 0, 0)" stroke="rgb(60, 60, 60)" stroke-width="1px" opacity="0.25"></line><line x1="125.26442307692308" y1="0" x2="125.26442307692308" y2="177" fill="rgb(0, 0, 0)" stroke="rgb(60, 60, 60)" stroke-width="1px" opacity="0.25"></line><line x1="146.1418269230769" y1="0" x2="146.1418269230769" y2="177" fill="rgb(0, 0, 0)" stroke="rgb(60, 60, 60)" stroke-width="1px" opacity="0.25"></line><line x1="167.01923076923077" y1="0" x2="167.01923076923077" y2="177" fill="rgb(0, 0, 0)" stroke="rgb(60, 60, 60)" stroke-width="1px" opacity="0.25"></line><line x1="187.8966346153846" y1="0" x2="187.8966346153846" y2="177" fill="rgb(0, 0, 0)" stroke="rgb(60, 60, 60)" stroke-width="1px" opacity="0.25"></line><line x1="208.77403846153848" y1="0" x2="208.77403846153848" y2="177" fill="rgb(0, 0, 0)" stroke="rgb(60, 60, 60)" stroke-width="1px" opacity="0.25"></line><line x1="229.6514423076923" y1="0" x2="229.6514423076923" y2="177" fill="rgb(0, 0, 0)" stroke="rgb(60, 60, 60)" stroke-width="1px" opacity="0.25"></line><line x1="250.52884615384616" y1="0" x2="250.52884615384616" y2="177" fill="rgb(0, 0, 0)" stroke="rgb(60, 60, 60)" stroke-width="1px" opacity="0.25"></line><line x1="271.40625" y1="0" x2="271.40625" y2="177" fill="rgb(0, 0, 0)" stroke="rgb(60, 60, 60)" stroke-width="1px" opacity="0.25"></line></g><g><line x1="0" y1="177" x2="271.40625" y2="177" fill="rgb(0, 0, 0)" stroke="rgb(60, 60, 60)" stroke-width="1px" opacity="0.25"></line><line x1="0" y1="160.9090909090909" x2="271.40625" y2="160.9090909090909" fill="rgb(0, 0, 0)" stroke="rgb(60, 60, 60)" stroke-width="1px" opacity="0.25"></line><line x1="0" y1="144.8181818181818" x2="271.40625" y2="144.8181818181818" fill="rgb(0, 0, 0)" stroke="rgb(60, 60, 60)" stroke-width="1px" opacity="0.25"></line><line x1="0" y1="128.72727272727275" x2="271.40625" y2="128.72727272727275" fill="rgb(0, 0, 0)" stroke="rgb(60, 60, 60)" stroke-width="1px" opacity="0.25"></line><line x1="0" y1="112.63636363636364" x2="271.40625" y2="112.63636363636364" fill="rgb(0, 0, 0)" stroke="rgb(60, 60, 60)" stroke-width="1px" opacity="0.25"></line><line x1="0" y1="96.54545454545453" x2="271.40625" y2="96.54545454545453" fill="rgb(0, 0, 0)" stroke="rgb(60, 60, 60)" stroke-width="1px" opacity="0.25"></line><line x1="0" y1="80.45454545454544" x2="271.40625" y2="80.45454545454544" fill="rgb(0, 0, 0)" stroke="rgb(60, 60, 60)" stroke-width="1px" opacity="0.25"></line><line x1="0" y1="64.36363636363639" x2="271.40625" y2="64.36363636363639" fill="rgb(0, 0, 0)" stroke="rgb(60, 60, 60)" stroke-width="1px" opacity="0.25"></line><line x1="0" y1="48.27272727272728" x2="271.40625" y2="48.27272727272728" fill="rgb(0, 0, 0)" stroke="rgb(60, 60, 60)" stroke-width="1px" opacity="0.25"></line><line x1="0" y1="32.18181818181819" x2="271.40625" y2="32.18181818181819" fill="rgb(0, 0, 0)" stroke="rgb(60, 60, 60)" stroke-width="1px" opacity="0.25"></line><line x1="0" y1="16.090909090909093" x2="271.40625" y2="16.090909090909093" fill="rgb(0, 0, 0)" stroke="rgb(60, 60, 60)" stroke-width="1px" opacity="0.25"></line><line x1="0" y1="0" x2="271.40625" y2="0" fill="rgb(0, 0, 0)" stroke="rgb(60, 60, 60)" stroke-width="1px" opacity="0.25"></line></g></g></g><g><g><line x1="0" y1="160.9090909090909" x2="271.40625" y2="160.9090909090909" fill="rgb(0, 0, 0)" stroke="rgb(153, 153, 153)" stroke-width="1.5px"></line></g></g><g><g><line x1="20.877403846153847" y1="0" x2="20.877403846153847" y2="177" fill="rgb(0, 0, 0)" stroke="rgb(153, 153, 153)" stroke-width="1.5px"></line></g></g><g><g><g><g><g><path stroke="rgb(255, 112, 67)" stroke-width="2px" d="M22.272014423076925,-9.936554203863892L22.789774038461537,4.195838040176568L22.831528846153848,29.467923885448556L23.006899038461537,29.81447754176392L23.157216346153845,35.49792298421346L23.4495,24.031842795638653L23.466201923076923,45.38826322251771L23.533009615384614,51.049790976630604L24.393158653846154,10.743911993196917L24.718846153846155,49.04787445764771L24.835759615384614,17.45166119802539L25.35351923076923,59.13912357625847L25.57899519230769,48.63582387835362L25.712610576923076,62.670692372951436L25.771067307692306,90.5024124527097L26.171913461538463,77.35156598662432L26.280475961538464,65.88691305140813L26.39738942307692,76.56229556893194L26.480899038461537,68.78577696327119L26.839990384615387,69.46674818138092L26.906798076923078,45.510333645225614L27.315995192307692,63.40252826810941L27.432908653846155,79.14171774528913L27.449610576923078,80.12602389365706L27.574875,91.7321867220704L27.62498076923077,89.92088504867318L27.858807692307693,97.47961989680363L28.7690625,101.00094107835164L28.986187500000003,93.71324664209689L28.99453846153846,95.51468050408857L29.04464423076923,90.90195518598284L29.27012019230769,99.39547601272947L29.345278846153846,97.86206486600548L29.75447596153846,103.9574747942221L29.779528846153845,105.33245004301271L30.00500480769231,106.04056732143266L30.096865384615384,90.00087174534329L30.57287019230769,89.77212724375815L30.731538461538463,87.59471726404065L31.40796634615385,96.78452665313186L31.86726923076923,89.1522311249744L31.892322115384616,90.4685562408975L32.009235576923075,78.28717103923906L32.04263942307693,84.94036388108962L32.443485576923074,64.144921079886L32.50194230769231,80.44410914630281L32.68566346153846,79.32513263006255L32.785875000000004,92.6498088907098L32.86938461538462,83.33897696776155L33.11991346153846,86.03820623607771L33.21177403846154,95.68287228625942L33.3286875,89.93948320144945L33.595918269230765,100.13586678723931L33.83809615384615,109.39811544788192L33.97171153846154,108.19357182702983L34.10532692307692,85.36437724792766L34.13873076923077,90.38542667703302L34.28069711538462,94.1278996719237L34.57298076923077,88.44193917613934L34.998879807692305,75.17335252497345L35.14919711538461,86.84453529762749L35.22435576923077,91.67004888389478L35.341269230769235,101.79920749039741L35.35797115384615,104.98655526360825L35.383024038461535,109.13271891324656L35.75046634615384,110.92620886306237L36.12625961538462,116.54605110062414L36.276576923076924,108.55301584184484L36.351735576923076,104.12951455830633L36.46029807692308,50.853928376062385L36.485350961538465,60.159476764476324L36.552158653846156,71.07698570014328L36.88619711538462,82.45031139175144L37.02816346153846,95.14763959571476L37.13672596153846,92.03527453085093L37.58767788461538,98.88214019913207L37.879961538461544,44.49006801722595L38.22235096153846,65.97657488132587L38.28915865384615,79.38191261063693L38.3225625,80.47053586779803L38.381019230769226,79.57962536797007L39.140956730769226,81.87968778547152L39.24116826923077,96.2528279734208L39.341379807692306,91.03861971301431L39.50839903846153,85.99650057317373L39.55015384615385,84.53718805517777L39.55850480769231,98.03290901875835L39.72552403846154,70.72952536087675L39.76727884615384,49.10450342067581L40.14307211538461,62.76797242893605L40.243283653846156,74.79762285799988L40.535567307692304,77.92474274113138L40.82785096153846,94.07348022787028L40.83620192307692,98.50709732294666L40.85290384615385,98.46069536974562L41.22034615384615,82.32439706329642L41.3623125,78.49558333139284L41.379014423076924,75.10442324139167L41.42076923076923,73.20869255837114L41.62954326923077,-15.252568962064942L41.637894230769234,-11.816377220411937L41.72140384615385,11.76896546339674L41.73810576923077,28.708215829791015L41.77986057692308,42.27940401422302L42.022038461538465,51.83395685166691L42.147302884615385,12.635873087707608L42.19740865384615,30.322963563588445L43.29973557692308,45.68984667267904L43.75903846153846,72.24495286988753L43.875951923076926,84.48805044061646L44.168235576923074,85.35909425650605L45.06178846153846,92.9356092029161L45.654706730769234,96.58831493392215L46.02214903846154,99.85919604500906L46.247625,100.92988338676828L46.27267788461538,104.88753834105898L46.75703365384616,108.41125530877497L47.27479326923077,96.59465362628299L47.567076923076925,94.75441959229381L47.85100961538461,96.81789214448494L47.96792307692308,98.76499231045896L47.984625,100.34085731031678L47.99297596153846,90.65589827762082L48.47733173076923,89.94192867231716L49.070249999999994,77.43715717373969L49.337480769230766,74.65335513719945L49.52120192307692,74.45933131806378L49.679870192307696,78.60736784488266L49.93875,53.92144996396702L50.940865384615385,58.54726719216434L51.09118269230769,55.258942891746884L51.10788461538462,29.52889537515918L51.525432692307696,30.525844786779146L51.99308653846154,41.67444896895111L52.11835096153846,54.63535746074949L52.55260096153846,53.97431375845433L52.72797115384615,54.202143346670425L52.76972596153846,49.55966189500606L52.786427884615385,57.85270570081259L53.14551923076923,65.31743086304428L53.679980769230774,61.132614166188134L53.91380769230769,26.08883671636619L54.14763461538461,44.673402783235446L54.55683173076923,35.24472977608798L54.58188461538462,37.93664084499207L55.099644230769236,44.76276471012093L55.19150480769231,48.507914544087015L55.801125,60.22569216979389L55.918038461538465,63.318306429614424L55.96814423076923,70.92875620222785L56.17691826923077,86.67042712756918L56.21867307692308,93.28380614209077L56.477552884615385,66.003507222136L56.50260576923077,8.496585981379951L56.8199423076923,34.499207857502654L56.928504807692306,49.069804048309805L56.945206730769236,44.32811614347972L57.621634615384615,73.56479036331625L57.89721634615385,48.55070069308985L58.389923076923075,57.91969387836619L58.531889423076926,70.90166279412455L58.707259615384615,59.148050295281735L59.525653846153844,61.49636252179208L59.82628846153846,82.3008606016631L59.859692307692306,79.8081267366623L59.9265,93.67346609255382L60.54447115384616,76.84334113967843L60.86180769230769,84.04796422746868L60.96201923076923,58.32895064543487L60.97872115384615,55.03713645506927L61.29605769230769,58.949847447687546L61.396269230769235,74.10706633903524L61.74700961538461,-42.16346503368436L62.314875,3.4195166328898097L62.39003365384616,25.221634043849946L62.41508653846154,49.96472631094521L63.049759615384616,60.123058181553716L63.06646153846154,30.092906520423355L63.51741346153846,37.41264541161212L63.751240384615386,44.06123918367172L64.30240384615385,71.32130696031193L64.62809134615384,8.834041113300827L65.37967788461538,19.6160700267597L65.51329326923077,5.108309132437739L65.63020673076923,2.3604732247043216L66.13961538461538,25.190158401892063L66.32333653846155,36.635865876058034L66.93295673076923,47.368207045510275L66.94965865384616,62.386148840149076L67.21688942307692,87.17738165338244L67.53422596153847,90.63415489016525L68.14384615384616,94.60910503463532L68.17725,80.80035462615838L68.30251442307691,82.71457085068522L68.64490384615384,91.04105030927359L68.66995673076924,102.96337518083305L69.37978846153845,71.73625716992929L69.52175480769232,67.15034740280882L69.5468076923077,64.02230002567414L69.8307403846154,49.99697246277208L69.8474423076923,54.448959352949885L69.90589903846154,44.3688408703249L70.20653365384615,50.622723784647505L70.38190384615385,63.627116027345636L70.58232692307692,42.84553101775725L70.6741875,44.69028416671236L70.89966346153845,48.68565059107905L71.0666826923077,51.67574332542095L71.10843750000001,57.86537696841394L71.99363942307691,56.00857523308741L72.07714903846154,46.4615593929139L72.49469711538462,55.46929709949018L72.65336538461538,57.4643092432982L72.76192788461539,51.69141084428826L72.81203365384616,43.163872185207595L72.92059615384616,57.851116817183325L73.39660096153847,68.42747285262331L73.58867307692309,52.16044817580497L73.63042788461537,50.35049506553243L73.83085096153846,64.55676828124876L74.01457211538462,73.7183433891894L74.12313461538461,80.34323927400966L74.32355769230769,84.08706178612223L75.12525,81.11272000389415L75.15865384615385,85.20180858226706L75.32567307692307,98.08336396248394L75.776625,105.29400457525459L75.86013461538461,109.97548230692813L76.01880288461538,103.10896283672928L76.4697548076923,107.39668148574691L76.54491346153847,87.80342486554497L76.79544230769231,89.24283194140696L76.82049519230769,97.75809073369997L76.92070673076924,96.1743143705532L77.1461826923077,95.44756515778225L77.17958653846154,94.12842363039383L78.04808653846153,86.68602493628426L78.11489423076924,82.966095840102L78.24015865384617,90.4881493496256L79.05020192307693,106.15865326318375L79.26732692307692,101.96362433396989L79.45104807692309,103.94435474991546L80.21933653846153,99.45945626059294L80.28614423076922,103.06584455541606L80.62853365384615,103.21566871767163L81.13794230769231,88.68332366326403L81.39682211538462,65.00215578727746L81.93128365384617,64.8471994780308L82.08160096153846,70.16017451834067L82.16511057692307,72.20036649945932L82.17346153846154,77.00275187420797L82.3321298076923,90.14023844871059L82.52420192307692,83.00977556770742L82.68287019230769,87.71163591066421L83.00855769230769,72.90946046412732L83.0920673076923,80.3550073796555L83.17557692307692,77.83993286292385L83.20062980769231,83.16387133512006L83.32589423076924,83.84353114466458L83.60147596153845,47.81388600105939L84.4198701923077,57.597882508572596L84.71215384615385,61.36410247752359L84.85412019230769,74.9207382072981L85.07124519230769,81.51866040105025L85.12135096153845,92.00978600773942L85.68086538461539,102.29164801767254L85.84788461538461,97.58755276151062L85.9146923076923,104.86096685448732L85.99820192307692,99.56959789639923L86.29048557692309,81.78057656619133L86.85000000000001,66.23166765693374L87.11723076923076,45.909808280879275L87.60993749999999,54.307120484707255L87.90222115384616,70.22916958649444L87.99408173076924,76.84610010554266L88.09429326923076,82.46300417730407L88.23625961538463,95.55483016184307L89.18826923076924,105.02655239859747L89.22167307692308,106.03074923512871L89.48055288461538,95.07258426272483L89.53065865384615,85.22543047360926L90.106875,86.3907218301382L90.47431730769232,98.91064016149775L90.52442307692309,98.15527972004071L90.71649519230769,81.96687569435824L90.75824999999999,85.01271833201987L90.83340865384616,82.71350123742936L91.58499519230769,86.09608312674918L91.61004807692308,92.34476593814878L91.843875,107.1107642973057L91.92738461538463,111.27636234933956L92.41174038461538,102.80226072979139L92.70402403846154,101.95342983410241L92.97960576923077,103.73641372900676L92.98795673076923,106.6641468828354L93.06311538461539,100.852332777759L93.44725961538462,101.73976782976422L93.48901442307692,97.086957725182L94.52453365384616,102.54558437955613L94.54958653846154,98.34357725371804L94.72495673076924,91.01759318584136L95.01724038461539,95.40074329203543L95.07569711538461,-1139.8832399482685L95.4932451923077,-29.067267921223362L95.68531730769232,21.992851611527755L95.82728365384615,42.27330694318263L95.97760096153847,55.256634090122844L96.02770673076924,74.93360645508496L96.11121634615385,87.17123063114175L96.49536057692308,75.77749574118084L96.56216826923077,92.72345276218408L97.92337500000001,104.27924564180552L97.98183173076923,96.6486136385937L98.2073076923077,90.86198116411153L98.59980288461539,103.25018082735929L98.67496153846153,95.44042865875521L98.94219230769231,104.20782290663219L99.1175625,107.93542636005708L99.47665384615384,84.28853058178582L99.50170673076923,71.02273359458715L99.66872596153847,77.23689842233429L99.7271826923077,80.57777991517189L99.94430769230769,88.42696112495217L100.528875,47.95967102761543L100.60403365384616,69.24635070176029L100.66249038461538,85.17514571749196L100.77105288461539,83.33368009449856L100.95477403846154,80.46933516715872L101.27211057692307,75.3193646850391L101.52263942307692,64.93071883919151L101.71471153846153,60.647031556490035L101.86502884615385,49.818199526188195L102.44959615384616,61.876375131178534L103.05086538461539,42.0596906258873L103.07591826923077,36.3086562744939L103.40995673076922,43.60239878737818L103.61037980769231,37.41486877738498L104.15319230769231,47.071087046606806L104.80456730769231,53.550065922497495L104.84632211538461,54.17831883351083L104.871375,65.41697872265945L105.0885,-62.58769550191681L105.4559423076923,-23.316495131872188L105.58955769230768,7.657078541103118L105.78998076923077,43.42810314105935L105.93194711538462,69.37667122931744L106.52486538461538,82.81041327442153L106.69188461538462,100.13662184860472L106.75034134615385,98.26870035932704L107.694,98.1897813324867L107.7190528846154,99.79101233965766L107.89442307692309,78.98647025290009L107.93617788461538,68.82379557094339L108.38712980769232,85.87459373984284L108.47063942307692,95.73791748483018L108.50404326923078,94.8000110242526L108.74622115384616,101.46741670284143L109.01345192307693,92.84839240044258L109.02180288461538,83.71598400074183L109.45605288461537,63.25499682609457L109.59801923076924,77.16208962626155L109.7149326923077,88.73081090953993L109.84854807692308,95.53207126096027L109.99051442307692,98.43564641214853L110.32455288461539,50.65506212229724L110.70869711538461,53.654981507749525L110.71704807692308,56.74467094609969L110.90076923076923,12.985288916158765L110.95922596153846,18.782219008933907L111.19305288461538,23.963687727648846L111.2765625,32.57324499475888L111.31831730769231,48.20540933905258L111.4101778846154,36.48699668866959L111.48533653846154,45.22196929890907L111.60225,51.48657115948686L111.91958653846154,58.864850650688396L111.94463942307692,-17.835626702142633L112.26197596153847,-28.235733224271485L112.45404807692307,10.410978060066412L112.50415384615386,26.732700362644238L112.52085576923076,37.83446398882748L112.85489423076923,18.507432072051813L112.905,26.820739925751525L113.01356249999999,46.53476681651546L113.0553173076923,56.979741765564484L113.58977884615385,77.28233230648061L113.74844711538461,82.7409905319397L113.82360576923078,80.58910302885461L114.19939903846154,71.42526588019945L114.39147115384615,70.20475778956272L114.40817307692308,75.70186695389837L114.41652403846153,86.061336590627L114.90923076923076,85.22185412220362L115.00944230769231,72.76065207551514L115.75267788461538,84.54359567021051L116.23703365384615,90.69447887724199L116.67963461538461,80.28393075175782L116.84665384615384,70.63718108609844L117.10553365384615,75.5350472878493L117.18069230769231,93.52235453433259L117.32265865384615,79.60449864006644L117.38946634615384,87.43620268859792L117.464625,93.2343096385986L117.72350480769231,110.80598148016223L118.04919230769231,42.049118072005285L118.14940384615385,54.21866003179193L118.34147596153846,61.10242929704624L118.45838942307692,62.264156801117565L118.47509134615385,58.17060808640959L118.77572596153846,36.89215081568449L119.07636057692308,41.749967393005306L119.30183653846154,51.72431254245848L119.6776298076923,72.63787470212749L120.02837019230769,93.1409504706008L120.6546923076923,105.15828701115613L120.8300625,115.36815733385444L120.87181730769231,118.96267724708859L120.98873076923077,109.05532859912655L121.1139951923077,108.03286678935319L121.17245192307692,115.21237934220787L121.3311201923077,121.57459458599227L121.43133173076923,117.64683598945743L122.241375,107.04231380136027L122.36663942307693,101.8102559505936L122.4585,103.78895206423998L122.49190384615385,109.80380710682891L122.62551923076923,106.11014827215554L122.90110096153846,110.71622907999574L122.97625961538462,114.59031055256324L123.51072115384616,112.7616772888631L123.53577403846154,110.36210908794313L123.66938942307692,105.60175829439976L124.39592307692307,115.79388231928013L124.47108173076923,117.62682842387042L124.72996153846154,119.7495250330221L124.9136826923077,105.86620554698796L125.09740384615385,104.81112068030303L125.70702403846154,114.64858907675944L126.30829326923077,101.305155087806L126.6924375,109.2195696165491L126.92626442307693,112.28280794123961L127.41897115384616,114.77968853387057L127.55258653846154,104.86647537264012L127.81146634615385,105.01362134924834L128.05364423076924,112.43505547887865L128.26241826923078,112.88645561034822L128.3041730769231,111.46179563915122L128.4127355769231,118.1309529411626L128.57140384615386,117.58174802875602L128.9304951923077,110.48681598965521L129.09751442307692,114.65345479559147L129.5818701923077,117.82604994428357L129.72383653846154,112.06905134297187L129.9493125,114.89089370209766L130.02447115384615,120.9776469454585L130.1246826923077,113.31566934010985L130.22489423076922,113.40324527780447L130.35015865384617,104.11816407028252L130.3835625,111.32762674533105L130.52552884615383,113.59841180225422L130.82616346153844,109.44249834861664L130.95142788461538,103.2263989468647L131.0599903846154,116.29286726319012L131.16020192307693,108.18173221568377L131.1685528846154,110.19078713521156L131.20195673076924,103.50710655912093L131.43578365384616,93.154927447334L132.05375480769231,99.87967347306804L132.35438942307692,107.62588819575893L132.79699038461538,104.96752889472704L132.83039423076923,94.23427836553783L132.99741346153846,95.88312592074104L133.40661057692307,100.13492569360577L133.64878846153846,104.60905759598334L133.99952884615385,106.70066985201875L134.42542788461537,104.19954639664154L134.55069230769232,108.29437507520993L134.6175,114.87749503235366L134.66760576923076,115.51759368478375L135.11020673076922,108.02922276978617L135.13525961538463,101.29909919964952L135.46929807692308,112.77137626162686L135.67807211538462,106.24637770298756L135.73652884615385,110.03079670346868L135.92025,109.53006518940926L136.20418269230768,103.7845584526218L136.49646634615385,97.92525080670079L136.68853846153846,105.18118845664412L136.82215384615384,108.37265531971913L137.2647548076923,113.46369752466867L137.43177403846155,114.92741907373454L137.4568269230769,115.01792261253121L137.54033653846153,113.37905048606262L137.5904423076923,105.4834965776596L137.77416346153845,114.84676992905752L138.45894230769233,122.29577659809523L139.6364278846154,123.16490282751391L139.68653365384614,116.81325614534181L139.87860576923075,112.0371161460367L140.18759134615385,111.7890724656493L140.1959423076923,117.0676883556226L140.2460480769231,115.76246133975317L140.32120673076923,118.31255067172562L140.46317307692306,118.00974293275965L140.56338461538462,111.5197444915594L140.6134903846154,110.05355727974953L141.10619711538462,99.52072096973559L141.5237451923077,100.91196321856376L141.91624038461538,107.76018401439913L142.21687500000002,102.8430846252307L142.41729807692306,97.90927457051338L142.44235096153847,107.10390160820998L143.0686730769231,106.61606320400848L143.11877884615384,106.81837199506866L143.36930769230767,115.93470013935718L143.44446634615383,116.67194412366524L143.4778701923077,117.70130693282633L143.52797596153846,119.34836700451667L144.0206826923077,121.8197527318192L144.2962644230769,106.53052944312809L144.30461538461537,107.698479623726L144.3714230769231,108.30655100358838L144.40482692307694,111.7598288880405L144.5467932692308,112.52318645955643L144.85577884615387,112.2462960521507L145.08125480769232,108.85200969111597L145.23992307692308,115.23476194606499L145.5155048076923,107.25219012332452L145.52385576923078,110.55284757579318L145.72427884615385,112.08973590125521L146.36730288461538,120.95519874826815L146.89341346153844,109.13663208359654L147.24415384615384,113.59902871799247L147.2775576923077,116.21587360564664L147.645,116.68605081672112L147.80366826923077,109.60060913550909L148.3631826923077,114.5729455384713L148.84753846153848,109.48775999309863L148.9895048076923,107.60750450772842L149.03961057692308,109.49477652333584L149.71603846153846,105.82832669715798L149.9498653846154,108.57918176353404L150.09183173076923,113.54474793174307L150.10853365384614,112.96616220516663L150.37576442307693,105.65725137941931L150.63464423076923,113.23494302369348L151.12735096153847,110.59503759227509L152.32153846153847,118.20209138128186L152.52196153846154,99.5041338925271L152.5971201923077,98.4356915385712L152.64722596153845,100.7672866785693L153.0313701923077,104.41262400771187L153.05642307692307,97.13368717804556L153.21509134615386,105.6406645402177L153.3737596153846,100.49493500142479L154.31741826923076,108.42675801246871L154.43433173076923,114.92511527913516L154.96044230769232,114.99622794658204L155.2861298076923,119.00282658738053L155.4615,116.35797677453198L155.95420673076924,113.79931393979584L156.06276923076922,122.94844134471879L156.14627884615385,106.34613429256066L156.1796826923077,112.56121527591924L156.5721778846154,115.94123916237754L157.17344711538462,115.48983285129137L157.35716826923075,117.47887453696984L157.4991346153846,116.23058444471816L157.88327884615384,115.9104963626798L158.16721153846154,117.68997290378101L158.71002403846154,111.89112657584829L159.16097596153844,84.49129804538538L159.37810096153845,95.32983185634578L159.41985576923076,100.7617328679785L160.01277403846152,97.63333380644144L160.0461778846154,93.92294509284649L160.31340865384615,102.64912022585354L160.72260576923077,109.73589622176858L161.2403653846154,118.22044607057838L161.24871634615386,115.9009243597233L161.4574903846154,115.33461269490329L161.53264903846153,112.94306938175531L161.6495625,120.7058193250493L162.0003028846154,119.10593706561193L162.20907692307694,114.25219715190136L163.39491346153847,116.20766987235668L163.65379326923076,122.1096208817008L163.93772596153846,122.18768198592376L164.1297980769231,111.29284613367213L164.4471346153846,105.76204028909814L164.53064423076924,109.74642716025197L164.8396298076923,101.66834066343509L164.9064375,109.74631967211542L165.02335096153848,118.06475250569936L165.11521153846155,117.99716531289032L165.26552884615384,116.16811090549366L165.28223076923075,121.16203325160303L165.47430288461538,119.61390108891376L165.48265384615385,107.87534683742767L165.49100480769232,102.64187157034067L165.5160576923077,111.15964477911378L165.67472596153846,114.101332053381L165.96700961538463,122.0235974841885L166.10897596153848,116.99236629653679L166.22588942307692,121.24135559837156L166.40125961538462,127.11143398159822L166.48476923076922,113.27211703637235L166.55157692307694,105.53068000271587L166.63508653846156,117.19239594049961L167.04428365384615,111.66907285375206L167.11109134615384,98.42763765939304L167.3783221153846,103.02710771407351L167.49523557692308,110.32676877937658L167.54534134615386,112.82103189608259L167.66225480769234,115.37541530841526L167.73741346153847,105.71624500396756L167.79587019230772,111.84263107926844L167.80422115384616,114.67530975166407L167.83762499999997,122.23250263721178L168.04639903846154,113.95353236615372L168.12990865384614,121.86968616573205L168.2969278846154,127.41332275824661L168.41384134615384,119.77379972811508L168.71447596153845,114.88609181796184L168.87314423076924,109.5439451209531L169.28234134615386,113.5719105221471L169.2906923076923,114.72872459776862L169.3324471153846,111.35256655257632L169.5579230769231,110.72770606098315L169.8752596153846,117.35207486520851L170.80221634615384,120.0650645586995L170.877375,118.23246670297398L171.01099038461538,118.28979104640688L171.03604326923076,116.92258284374186L171.11120192307692,103.17881770010709L171.34502884615384,100.85556642187458L171.62896153846154,96.54821985185202L171.63731249999998,87.25739542485401L171.73752403846154,97.08570768467534L172.06321153846153,110.969468205003L172.2719855769231,108.2226005081214L172.41395192307692,109.53890782850793L172.78139423076922,110.30530833647246L172.9818173076923,104.39083726184018L173.16553846153846,107.76348824026418L173.39936538461538,113.57685297968418L173.8503173076923,118.73409512512615L174.2177596153846,115.01214544697243L174.9609951923077,108.54574329634147L174.96934615384615,102.39485149317221L175.6958798076923,111.0045584343052L175.7626875,117.73906059332293L176.13848076923077,115.49176887216547L176.63953846153845,111.84177463757241L177.14894711538463,114.80408520892516L177.20740384615385,112.26842349515601L177.4495817307692,112.50383293531628L177.7585673076923,113.32039510657853L177.90053365384614,102.16757495834347L178.25127403846153,102.31790790014543L178.65212019230768,102.61227696840538L178.98615865384616,95.30731665099225L179.19493269230767,91.19624570123183L179.35360096153846,95.85761048914632L179.39535576923078,100.0965886136283L179.58742788461538,109.52525201317552L179.6709375,109.72927429277556L179.77114903846154,112.39102883256967L179.9465192307692,119.61152867934513L180.33901442307692,113.03275473338662L180.5143846153846,122.4000121154001L180.8233701923077,125.37465657279554L180.95698557692307,121.29674080439173L181.44134134615385,115.22872622051314L181.80878365384615,109.71877724345339L181.84218750000002,102.02783022933328L182.05096153846154,101.5909053389291L182.26808653846155,104.53708406494238L183.59588942307693,114.12436459729236L183.72115384615387,115.50723984401918L183.74620673076922,98.92399282627565L183.92992788461538,113.69822347508554L183.98003365384614,103.5911312281075L184.17210576923077,114.09892496395551L184.3808798076923,121.18257407774323L184.50614423076922,122.31157067078229L184.8401826923077,125.51137341653035L184.89028846153846,122.18575409165403L185.0072019230769,119.70265257614591L185.0990625,123.69175983333322L185.17422115384616,124.92520369806131L185.5583653846154,119.87059243830802L185.61682211538462,111.64863065775978L185.65022596153847,113.89848290918317L185.70033173076925,105.78008628401894L186.19303846153846,114.49752715861317L186.4185144230769,114.08419860302897L186.61058653846155,112.80938220262223L187.19515384615383,108.23152854206162L187.378875,101.13279075285628L187.65445673076925,106.27417886228409L187.72126442307692,112.39659807556409L187.79642307692308,114.6894065717182L187.8548798076923,119.47026116860201L188.18891826923075,116.28269317493395L188.29748076923076,115.57331646447892L188.33923557692307,111.84617250866276L188.38934134615386,110.78297666353117L188.4143942307692,115.74804403189282L189.04906730769233,103.9369412990256L189.05741826923077,102.54574746733516L189.07412019230767,107.78612234066927L189.42486057692307,101.64525361038393L189.44991346153847,107.46274407232275L189.70879326923077,112.55557451100195L189.93426923076922,112.49268023965656L189.95932211538462,115.85834125187012L190.00107692307694,113.2739899372871L190.34346634615386,108.28755584074133L190.46873076923075,110.10215238893238L190.5939951923077,115.71116920103067L190.66915384615385,119.29384020983295L190.68585576923076,115.60916788643613L191.01154326923077,112.0298467928313L191.09505288461537,115.47361120931436L191.21196634615384,112.37427571354856L191.5710576923077,112.39123802202617L191.75477884615384,114.80579542110965L191.94685096153844,110.9758802391706L192.28924038461537,114.70753012740502L192.3978028846154,108.1689663909147L192.40615384615384,104.91500166603093L192.5648221153846,107.31302515920174L192.57317307692307,114.39577500051686L192.589875,119.58249345573009L192.63162980769232,123.59146343262327L192.7234903846154,127.72724326361562L193.64209615384615,128.81375007196058L193.65044711538462,124.02906231230045L193.79241346153847,107.45619742090106L193.8258173076923,110.73563045028156L194.13480288461537,98.44050075975134L194.3936826923077,109.28694851563075L194.40203365384613,107.12597907999574L194.42708653846154,105.92341729760906L194.4354375,108.46896192641051L194.761125,103.1163974855818L194.83628365384615,102.57105561711167L195.03670673076925,111.97073591773919L195.31228846153846,111.54886464139403L195.51271153846153,99.4995427448459L195.5210625,103.14108323513368L195.8216971153846,112.78234476314236L196.13903365384616,114.0759824374203L196.47307211538464,111.36027076432772L196.5231778846154,115.90827014743542L196.5398798076923,119.24953452765497L196.54823076923077,99.62206023238738L196.80711057692307,97.9707651736135L196.88226923076923,111.17769599865643L196.9156730769231,106.9576892581953L197.45013461538463,114.68104402233854L197.99294711538462,116.35770944579441L198.18501923076923,112.80369661399666L198.3186346153846,114.08339984912135L198.8865,116.44348867491323L198.9115528846154,112.27986425178149L198.95330769230767,100.30036073662254L199.51282211538464,101.7959886107182L199.66313942307693,103.49781171542239L200.28946153846155,100.54137939576677L200.61514903846154,104.94969150316071L200.62349999999998,116.76570030765363L201.2581730769231,108.33226199035369L201.35003365384617,112.14289138177836L201.93460096153848,118.59418876824478L202.04316346153846,114.12595876858163L202.28534134615387,117.65210350771429L202.2936923076923,109.08458738414618L202.6360817307692,111.73664175124054L202.8365048076923,112.33763970389253L202.88661057692306,117.50534766478819L203.05362980769232,115.4188814267236L203.10373557692307,107.71081973504964L203.27910576923077,110.81572018065853L203.32921153846155,114.48556153854827L203.83026923076923,123.50962617190973L204.32297596153845,128.48059716962428L204.59020673076924,125.73536535261391L204.64866346153846,121.26200960806364L205.35014423076922,121.37972237795313L206.4357692307692,117.62544431384418L206.64454326923078,116.37126563167364L206.75310576923079,115.10984813350639L206.97858173076924,113.7110467712772L207.03703846153846,116.77117401804497L207.12889903846155,105.86974948856272L207.17065384615384,111.41881610851038L207.22911057692306,108.78866966740979L207.23746153846153,107.78182234164997L207.354375,115.53568364477492L207.58820192307692,111.33738066080467L208.16441826923077,103.93206261155595L208.18947115384617,108.75199981068127L208.47340384615384,110.21254232140025L208.54021153846153,117.69540917154228L208.81579326923077,107.4963478630439L208.8324951923077,113.37347431070268L209.14148076923078,113.54304963970904L209.90141826923076,106.12640429132199L209.9181201923077,111.64306494432319L210.03503365384617,100.33069350568483L210.92858653846153,113.13289819697269L210.98704326923075,116.26330951882329L211.0872548076923,114.28597399882955L211.49645192307693,111.63854807735427L211.51315384615384,110.54845399007492L211.60501442307694,112.60624236128452L211.61336538461538,116.59637855474458L211.6551201923077,115.70429861780045L212.36495192307692,119.20378193535393L212.39000480769232,117.62084164026535L212.3983557692308,114.01834393405626L213.61759615384616,110.06006384898359L213.651,111.50861563471257L213.65935096153845,109.23756618882325L213.8013173076923,113.52541447928613L213.92658173076924,114.19534184377937L214.01009134615384,122.13855238462418L214.10195192307694,118.2722635831368L214.14370673076922,109.09702598195321L214.18546153846154,122.28091553018933L214.21886538461538,120.71842515432343L214.26897115384617,111.3217997055696L214.46939423076924,115.70491041251698L214.55290384615384,122.2461339997137L214.77002884615385,119.63877759513925L214.78673076923076,111.73616581803797L214.86188942307692,114.364814236819L215.14582211538462,111.46944728903618L215.33789423076922,98.40109094789847L215.62182692307692,113.26226333890367L215.76379326923077,112.95546486770786L215.96421634615385,117.28466726717755L216.1228846153846,124.3788419155378L216.23979807692308,121.13099008592198L216.5153798076923,110.11538976307052L217.45903846153846,99.81507555605536L217.86823557692307,106.05412850898897L218.37764423076922,98.85284024820888L218.54466346153845,105.58443951027382L218.63652403846154,107.08500979520228L218.80354326923077,109.47352609848478L219.30460096153845,94.17648752167575L219.4131634615385,105.9871173872093L219.72214903846154,109.67493155982785L219.88916826923077,111.93540686816173L219.98102884615383,109.06478252950157L220.69921153846153,121.27696946202153L220.78272115384615,111.06806721433877L221.5092548076923,98.01266090035095L221.96020673076924,109.85945835604245L222.2691923076923,116.47045335516806L222.28589423076923,113.59053796789874L222.52807211538462,108.36069591418187L222.8537596153846,113.74528557784345L223.25460576923075,117.24575308940456L223.65545192307692,120.75126657176997L223.67215384615386,121.12041956981685L223.73896153846152,126.26442101587345L223.98949038461538,119.32156803222375L224.15650961538464,124.45051804706759L224.18156249999998,122.2291334492393L224.29847596153846,122.08413687482044L224.77448076923076,117.28163630229787L225.57617307692306,112.89656598735297L225.95196634615385,111.50905011082394L225.98537019230767,120.1404007675061L226.48642788461538,106.9455815549325L226.87057211538462,116.22725217533079L227.12110096153847,116.494378093379L227.3048221153846,115.68738685431643L227.37162980769233,111.91655930346153L227.8977403846154,103.39596228497945L228.3904471153846,107.70549674802204L228.64097596153846,103.499229471632L228.77459134615384,115.75863845528417L228.82469711538462,118.89770375256852L229.10027884615386,115.87013160896099L229.34245673076924,123.05213858069602L229.4593701923077,117.99811300808618L229.71825,115.76406699224967L230.0439375,113.28350928146799L230.7621201923077,114.5999352018458L231.37174038461538,115.87890776279104L231.58051442307695,112.72064245294867L231.68907692307693,111.15408387621137L231.73918269230768,115.23401230315665L231.74753365384615,108.21771474976067L231.76423557692308,108.0773530929121L232.42396153846153,111.38543337213537L232.91666826923077,111.5824616027978L233.86867788461538,118.32862204342635L233.99394230769232,121.2798748890514L234.41149038461538,120.64449024351892L234.4281923076923,117.16240054974612L234.65366826923076,109.98152502705088L234.89584615384615,109.3452610057179L235.17142788461538,105.26492379089606L235.38020192307692,108.25122967730032L235.88961057692308,114.9569269860716L236.1234375,103.49781025970115L236.1651923076923,113.44195756574408L236.43242307692307,120.24019290959795L236.72470673076924,120.33815759665076L236.85832211538462,115.68315055733885L237.00028846153847,113.50685507027973L237.34267788461537,119.92005661382208L237.7769278846154,113.82469677805534L238.12766826923078,113.65267349247279L238.24458173076926,100.0420911597152L238.37819711538464,108.94207376705697L238.55356730769233,109.2843643958666L238.62872596153846,101.11440229951404L238.76234134615385,102.28156983794389L238.78739423076925,105.49043544008396L239.28845192307693,111.32792839224483L239.29680288461537,118.67261514174332L239.41371634615385,120.5657921074094L240.19870673076923,124.56679057381845L240.3323221153846,112.0438870269197L240.44088461538462,120.83228964973316L240.5327451923077,101.34391498189464L241.16741826923078,110.00464504839844L241.28433173076925,109.6660043893622L241.36784134615382,109.87175084017642L241.41794711538464,108.80740289010362L241.92735576923076,108.36010678263975L242.27809615384615,103.00846230993335L242.72904807692308,108.60848965000365L243.59754807692306,103.5256686206643L243.9148846153846,99.85339522012703L244.29902884615385,104.23445344303681L244.31573076923075,113.26661012995297L244.64976923076924,114.95232803941238L244.6581201923077,116.17430006185725L244.66647115384615,115.4253106669486L244.80008653846153,108.89961500284294L244.90864903846156,118.12938610396029L244.92535096153847,122.24547503292217L245.75209615384614,123.32313689150388L246.01097596153846,121.78583386981364L246.79596634615385,120.05351007411839L246.9128798076923,118.69106093169862L247.00474038461536,123.06364605797299L247.53920192307692,119.12239071846153L247.58930769230767,117.8375893307391L247.63941346153848,113.25581272189885L247.6728173076923,117.10309893689143L247.6811682692308,118.67535006529496L248.3074903846154,119.8293151499415L248.64152884615385,113.26130684374368L249.10083173076922,107.67632646871944L249.34300961538463,111.19250109989359L250.01108653846154,107.35875020958511L250.10294711538464,104.29870386606608L250.1697548076923,105.64295865001878L250.57060096153845,113.1268782796798L250.77102403846155,109.85953144163281L251.1050625,113.25718345627692L251.1301153846154,106.3974172479676L251.38899519230768,116.88026093447444L251.4725048076923,99.25819813557462L251.53096153846155,105.9843352587808L251.647875,107.49893868874246L251.68127884615384,116.85832481574907L252.15728365384615,124.62643314811903L252.32430288461538,102.32405991908989L252.34935576923078,109.64115358327079L252.52472596153848,106.97049816699284L252.8420625,110.20955083194973L253.24290865384614,112.14397654840059L253.61035096153844,107.7758832926077L254.00284615384615,110.209276791051L254.01954807692306,112.4316095342411L254.28677884615385,117.0688864782827L254.43709615384617,110.4759934661017L254.62916826923077,105.14948129539862L254.8880480769231,101.56685334104675" style="fill: none;" fill="none"></path></g></g></g></g><g opacity="0.2"><g><g><g><path stroke="rgb(255, 112, 67)" stroke-width="2px" d="M21.027721153846155,-1886.8887591362L21.22814423076923,31.69777885079384L21.253197115384616,37.875452204184114L21.470322115384615,46.60497210242531L21.662394230769234,51.82083110917698L22.19685576923077,-65.50258414311847L22.272014423076925,67.09459566934544L22.789774038461537,24.801001602953136L22.831528846153848,66.7393416572701L23.006899038461537,30.329069332643L23.157216346153845,43.971542716026306L23.4495,6.89512041482061L23.466201923076923,77.35316144471818L23.533009615384614,59.53099108555101L24.393158653846154,-49.667528434233276L24.718846153846155,106.47680323232304L24.835759615384614,-29.929288232868373L25.35351923076923,121.65973270142621L25.57899519230769,32.88247440348974L25.712610576923076,83.72171227227558L25.771067307692306,132.24846621467307L26.171913461538463,57.62572902170095L26.280475961538464,48.690159998156815L26.39738942307692,92.57524288513443L26.480899038461537,57.121054326946094L26.839990384615387,70.4882021045143L26.906798076923078,9.575773138891577L27.315995192307692,90.2407927337018L27.432908653846155,102.75048746304078L27.449610576923078,81.60248257219791L27.574875,109.14142711596055L27.62498076923077,87.20393289896575L27.858807692307693,108.81772126663815L28.7690625,106.28292259844866L28.986187500000003,82.78170530091633L28.99453846153846,98.21683125062421L29.04464423076923,83.98286728019063L29.27012019230769,112.13575717400421L29.345278846153846,95.5619481544603L29.75447596153846,113.10058966617692L29.779528846153845,107.39491291344166L30.00500480769231,107.10274323821068L30.096865384615384,65.94132839278743L30.57287019230769,89.42901049147953L30.731538461538463,84.32860229503025L31.40796634615385,110.56924073533578L31.86726923076923,77.70378783345222L31.892322115384616,92.44304391470823L32.009235576923075,60.015093237161636L32.04263942307693,94.92015314373103L32.443485576923074,32.951756878332674L32.50194230769231,104.89289124580947L32.68566346153846,77.64666785570708L32.785875000000004,112.63682328164577L32.86938461538462,69.37272908335383L33.11991346153846,90.08705013854936L33.21177403846154,110.14987136152658L33.3286875,81.32439957423642L33.595918269230765,115.43044216592205L33.83809615384615,123.29148843884468L33.97171153846154,106.38675639575177L34.10532692307692,51.12058537927541L34.13873076923077,97.91700082069093L34.28069711538462,99.74160916425964L34.57298076923077,79.91299843246286L34.998879807692305,55.27047254822473L35.14919711538461,104.3513094566085L35.22435576923077,98.90831926329568L35.341269230769235,116.99294540015134L35.35797115384615,109.76757692342454L35.383024038461535,115.35196438770402L35.75046634615384,113.6164437877861L36.12625961538462,124.97581445696679L36.276576923076924,96.56346295367588L36.351735576923076,97.49426263299856L36.46029807692308,-29.05945089730352L36.485350961538465,74.11779934709723L36.552158653846156,87.45324910364367L36.88619711538462,99.51029992916366L37.02816346153846,114.19363190165974L37.13672596153846,87.36672693355516L37.58767788461538,109.15243870155378L37.879961538461544,-37.09804025563329L38.22235096153846,98.20633517747575L38.28915865384615,99.48991920460354L38.3225625,82.1034707535397L38.381019230769226,78.24325961822812L39.140956730769226,85.32978141172364L39.24116826923077,117.81253825534475L39.341379807692306,83.21730732240461L39.50839903846153,78.43332186341286L39.55015384615385,82.34821927818385L39.55850480769231,118.27649046412922L39.72552403846154,29.774449874054312L39.76727884615384,16.666970510374426L40.14307211538461,83.2631759413264L40.243283653846156,92.84209850159559L40.535567307692304,82.61542256582867L40.82785096153846,118.2965864579786L40.83620192307692,105.15752296556126L40.85290384615385,98.39109243994409L41.22034615384615,58.119949603622615L41.3623125,72.75236273353751L41.379014423076924,70.01768310638992L41.42076923076923,70.36509653384036L41.62954326923077,-147.94446124271911L41.637894230769234,-6.662089607932359L41.72140384615385,47.146979489109725L41.73810576923077,54.117091379382416L41.77986057692308,62.63618629087101L42.022038461538465,66.16578610783274L42.147302884615385,-46.161252558231354L42.19740865384615,56.85359927740964L43.29973557692308,68.7401713363149L43.75903846153846,112.0776121657003L43.875951923076926,102.85269679670984L44.168235576923074,86.66565998034045L45.06178846153846,104.30038162253119L45.654706730769234,102.06737353043123L46.02214903846154,104.7655177116394L46.247625,102.53591439940712L46.27267788461538,110.82402077249505L46.75703365384616,113.69683076034892L47.27479326923077,78.86975110254504L47.567076923076925,91.99406854131004L47.85100961538461,99.91310097277164L47.96792307692308,101.68564255941997L47.984625,102.7046548101035L47.99297596153846,76.12845972857694L48.47733173076923,88.87097426436164L49.070249999999994,58.6799999258735L49.337480769230766,70.47765208238906L49.52120192307692,74.16829558936033L49.679870192307696,84.82942263511094L49.93875,16.892573142593562L50.940865384615385,65.48599303446035L51.09118269230769,50.32645644112068L51.10788461538462,-9.066175899722367L51.525432692307696,32.02126890420914L51.99308653846154,58.39735524220902L52.11835096153846,74.07672019844706L52.55260096153846,52.982748205011546L52.72797115384615,54.54388772899455L52.76972596153846,42.59593971750954L52.786427884615385,70.2922714095224L53.14551923076923,76.51451860639182L53.679980769230774,54.855389120903894L53.91380769230769,-26.47682945836675L54.14763461538461,72.55025188353929L54.55683173076923,21.101720265366822L54.58188461538462,41.974507448348135L55.099644230769236,55.00195050781424L55.19150480769231,54.12563929503615L55.801125,77.80235860835423L55.918038461538465,67.95722781934522L55.96814423076923,82.34443086114797L56.17691826923077,110.28293351558122L56.21867307692308,103.20387466387315L56.477552884615385,25.083058842203826L56.50260576923077,-77.76379587975418L56.8199423076923,73.50314067168671L56.928504807692306,70.92569833452052L56.945206730769236,37.21558428623459L57.621634615384615,117.41980169307101L57.89721634615385,11.02956618775022L58.389923076923075,71.9731836562807L58.531889423076926,90.37461616776206L58.707259615384615,41.517631547017544L59.525653846153844,65.01883086155763L59.82628846153846,113.50760772146961L59.859692307692306,76.06902593916114L59.9265,114.47147512639111L60.54447115384616,51.598153710365295L60.86180769230769,94.85489885915409L60.96201923076923,19.750430272384136L60.97872115384615,50.099415169520825L61.29605769230769,64.81891393661499L61.396269230769235,96.84289467605677L61.74700961538461,-216.56926209276378L62.314875,71.79398913275114L62.39003365384616,57.92481016029011L62.41508653846154,87.07936471158807L63.049759615384616,75.36055598746648L63.06646153846154,-14.9523209712722L63.51741346153846,48.392253748395234L63.751240384615386,54.03412984176117L64.30240384615385,112.21140862527218L64.62809134615384,-84.89685765721583L65.37967788461538,35.78911339694804L65.51329326923077,-16.65333220904523L65.63020673076923,-1.7612806368957763L66.13961538461538,59.43468616767365L66.32333653846155,53.804427087306976L66.93295673076923,63.46671879968862L66.94965865384616,84.91306153210726L67.21688942307692,124.36423087323254L67.53422596153847,95.81931474533948L68.14384615384616,100.57153025134042L68.17725,60.08722901344299L68.30251442307691,85.58589518747546L68.64490384615384,103.53076949715614L68.66995673076924,120.84686248817226L69.37978846153845,24.89558015357366L69.52175480769232,60.271482752128094L69.5468076923077,59.33022895997222L69.8307403846154,28.95898111841896L69.8474423076923,61.12693968821655L69.90589903846154,29.248663146387457L70.20653365384615,60.003548156131416L70.38190384615385,83.1337043913928L70.58232692307692,11.673153503374635L70.6741875,47.457413890145034L70.89966346153845,54.67870022762905L71.0666826923077,56.160882426933824L71.10843750000001,67.14982743290338L71.99363942307691,53.22337263009767L72.07714903846154,32.14103563265368L72.49469711538462,68.98090365935455L72.65336538461538,60.45682745901021L72.76192788461539,43.032063245773315L72.81203365384616,30.37256419658661L72.92059615384616,79.88198376514696L73.39660096153847,84.29200690578331L73.58867307692309,27.759911160577445L73.63042788461537,47.635565400123596L73.83085096153846,85.86617810482328L74.01457211538462,87.46070605110039L74.12313461538461,90.28058310124007L74.32355769230769,89.70279555429111L75.12525,76.65120733055201L75.15865384615385,91.33544144982642L75.32567307692307,117.40569703280926L75.776625,116.10996549441055L75.86013461538461,116.99769890443845L76.01880288461538,92.80918363143097L76.4697548076923,113.82825945927337L76.54491346153847,58.41353993524204L76.79544230769231,91.40194255519997L76.82049519230769,110.53097892213951L76.92070673076924,93.79864982583305L77.1461826923077,94.35744133862582L77.17958653846154,92.14971133931115L78.04808653846153,75.52242689511995L78.11489423076924,77.3862021958286L78.24015865384617,101.77122961391102L79.05020192307693,129.664409133521L79.26732692307692,95.67108094014904L79.45104807692309,106.91545037383383L80.21933653846153,92.73210852660915L80.28614423076922,108.47542699765076L80.62853365384615,103.44040496105498L81.13794230769231,66.88480608165264L81.39682211538462,29.480403973297655L81.93128365384617,64.61476501416078L82.08160096153846,78.12963707880542L82.16511057692307,75.26065447113733L82.17346153846154,84.20632993633096L82.3321298076923,109.84646831046452L82.52420192307692,72.31408124620265L82.68287019230769,94.76442642509937L83.00855769230769,50.70619729432194L83.0920673076923,91.52332775294781L83.17557692307692,74.0673210878264L83.20062980769231,91.14977904341437L83.32589423076924,84.86302085898139L83.60147596153845,-6.230581714348347L84.4198701923077,72.27387726984243L84.71215384615385,67.01343243095009L84.85412019230769,95.25569180195981L85.07124519230769,91.41554369167848L85.12135096153845,107.74647441777316L85.68086538461539,117.71444103257222L85.84788461538461,90.53140987726775L85.9146923076923,115.77108799395236L85.99820192307692,91.6325444592671L86.29048557692309,55.09704457087952L86.85000000000001,42.90830429304731L87.11723076923076,15.42701921679756L87.60993749999999,66.90308879044923L87.90222115384616,94.11224323917519L87.99408173076924,86.77149588411504L88.09429326923076,90.88836028494617L88.23625961538463,115.19256913865155L89.18826923076924,119.23413575372912L89.22167307692308,107.53704448992556L89.48055288461538,78.63533680411902L89.53065865384615,70.4546997899359L90.106875,88.13865886493161L90.47431730769232,117.69051765853709L90.52442307692309,97.02223905785516L90.71649519230769,57.68426965583454L90.75824999999999,89.58148228851232L90.83340865384616,79.26467559554361L91.58499519230769,91.1699559607289L91.61004807692308,101.7177901552482L91.843875,129.2597618360411L91.92738461538463,117.52475942739031L92.41174038461538,90.09110830046913L92.70402403846154,100.68018349056894L92.97960576923077,106.41088957136327L92.98795673076923,111.05574661357835L93.06311538461539,92.1346116201444L93.44725961538462,103.07092040777206L93.48901442307692,90.10774256830865L94.52453365384616,110.73352436111732L94.54958653846154,92.04056656496091L94.72495673076924,80.02861708402634L95.01724038461539,101.97546845132655L95.07569711538461,-2992.809214808724L95.21766346153846,-56.387245140292436L95.23436538461537,31.15938005122274L95.25941826923078,1.922331520102233L95.43478846153846,105.0253539667888L95.4932451923077,85.79524119469252L95.68531730769232,98.5830309106545L95.82728365384615,72.69398994066499L95.97760096153847,74.7316248105331L96.02770673076924,104.4490650025281L96.11121634615385,105.52766689522699L96.49536057692308,58.686893406239435L96.56216826923077,118.14238829368895L97.92337500000001,121.61293496123768L97.98183173076923,85.20266563377596L98.2073076923077,82.18203245238826L98.59980288461539,121.83248032223094L98.67496153846153,83.72580040584911L98.94219230769231,117.35891427844763L99.1175625,113.52683154019442L99.47665384615384,48.81818691437894L99.50170673076923,51.12403811378914L99.66872596153847,86.55814566395499L99.7271826923077,85.5891021544283L99.94430769230769,100.20073293962261L100.528875,-12.741264118389637L100.60403365384616,101.17637021297759L100.66249038461538,109.06833824108948L100.77105288461539,80.57148166000843L100.95477403846154,76.17281777614897L101.27211057692307,67.59440896185963L101.52263942307692,49.34775007042019L101.71471153846153,54.221500632437795L101.86502884615385,33.57495148073545L102.44959615384616,79.96363853866403L103.05086538461539,12.33466386795044L103.07591826923077,27.68210474740377L103.40995673076922,54.54301255670461L103.61037980769231,28.133573762395173L104.15319230769231,61.55541445043954L104.80456730769231,63.26853423633359L104.84632211538461,55.12069820003077L104.871375,82.27496855638243L105.0885,-254.59470683878124L105.4559423076923,35.59030542319471L105.58955769230768,54.11743905056606L105.78998076923077,97.08464004099369L105.93194711538462,108.29952336170456L106.52486538461538,102.96102634207769L106.69188461538462,126.12593470987949L106.75034134615385,95.46681812541051L107.694,98.07140279222618L107.7190528846154,102.1928588504141L107.89442307692309,47.77965712276372L107.93617788461538,53.57978354800831L108.38712980769232,111.45079099319197L108.47063942307692,110.53290310231122L108.50404326923078,93.39315133338624L108.74622115384616,111.46852522072467L109.01345192307693,79.91985594684427L109.02180288461538,70.01737140119076L109.45605288461537,32.56351606412369L109.59801923076924,98.022728826512L109.7149326923077,106.08389283445749L109.84854807692308,105.7339617880908L109.99051442307692,102.79100913893093L110.32455288461539,-21.015814312479705L110.70869711538461,58.15486058592796L110.71704807692308,61.37920510362497L110.90076923076923,-52.65378412875265L110.95922596153846,27.47761414809662L111.19305288461538,31.735890805721283L111.2765625,45.48758089542389L111.31831730769231,71.65365585549313L111.4101778846154,18.90937771309507L111.48533653846154,58.324428214268266L111.60225,60.88347395035355L111.91958653846154,69.93226988749072L111.94463942307692,-132.88634273138916L112.26197596153847,-24.740391725843608L112.45404807692307,68.38104498657314L112.50415384615386,51.21528381651099L112.52085576923076,54.48710942810233L112.85489423076923,-10.483115803111673L112.905,39.29070170630109L113.01356249999999,76.10580715266141L113.0553173076923,72.647204189138L113.58977884615385,107.7362181178548L113.74844711538461,90.92897787012836L113.82360576923078,77.36127177422696L114.19939903846154,57.6795101572167L114.39147115384615,68.37399565360765L114.40817307692308,83.94753070040181L114.41652403846153,101.60054104571992L114.90923076923076,83.96263041956857L115.00944230769231,54.06884900548242L115.75267788461538,102.21801106225361L116.23703365384615,99.92080368778922L116.67963461538461,64.66810856353155L116.84665384615384,56.16705658760938L117.10553365384615,82.88184659047559L117.18069230769231,120.5033154040575L117.32265865384615,58.727714798667236L117.38946634615384,99.18375876139511L117.464625,101.93147006359968L117.72350480769231,137.16348924250764L118.04919230769231,-61.086177040230154L118.14940384615385,72.47297297147188L118.34147596153846,71.42808319492775L118.45838942307692,64.00674805722456L118.47509134615385,52.03028501434761L118.77572596153846,4.97446490959689L119.07636057692308,49.03669225898656L119.30183653846154,66.68583026663825L119.6776298076923,104.00821794163097L120.02837019230769,123.89556412331082L120.6546923076923,123.18429182198915L120.8300625,130.6829628179019L120.87181730769231,124.3544571169398L120.98873076923077,94.19430562718347L121.1139951923077,106.49917407469316L121.17245192307692,125.9816481714899L121.3311201923077,131.11791745166886L121.43133173076923,111.75519809465517L122.241375,91.13553051921454L122.36663942307693,93.96216917444359L122.4585,106.75699623470956L122.49190384615385,118.82608967071229L122.62551923076923,100.5696600201455L122.90110096153846,117.62535029175606L122.97625961538462,120.40143276141448L123.51072115384616,110.01872739331289L123.53577403846154,106.76275678656317L123.66938942307692,98.4612321040847L124.39592307692307,131.08206835660067L124.47108173076923,120.37624758075583L124.72996153846154,122.93356994674964L124.9136826923077,85.04122631793672L125.09740384615385,103.22849338027564L125.70702403846154,129.40479167144406L126.30829326923077,81.29000410437584L126.6924375,121.09119140966371L126.92626442307693,116.8776654282754L127.41897115384616,118.525009422817L127.55258653846154,89.99665563079444L127.81146634615385,105.23434031416069L128.05364423076924,123.56720667332411L128.26241826923078,113.56355580755255L128.3041730769231,109.3248056823557L128.4127355769231,128.13468889417973L128.57140384615386,116.75794066014615L128.9304951923077,99.844417931004L129.09751442307692,120.90341300449587L129.5818701923077,122.58494266732171L129.72383653846154,103.4335534410043L129.9493125,119.12365724078633L130.02447115384615,130.10777681049976L130.1246826923077,101.82270293208686L130.22489423076922,113.53460918434641L130.35015865384617,90.19054225899956L130.3835625,122.14182075790383L130.52552884615383,117.004589387639L130.82616346153844,103.20862816816026L130.95142788461538,93.9022498442368L131.0599903846154,135.89256973767823L131.16020192307693,96.01502964442426L131.1685528846154,113.20436951450326L131.20195673076924,93.48158569498494L131.43578365384616,77.62665877965364L132.05375480769231,109.96679251166907L132.35438942307692,119.24521027979526L132.79699038461538,100.97998994317922L132.83039423076923,78.13440257175401L132.99741346153846,98.35639725354585L133.40661057692307,106.51262535290284L133.64878846153846,111.3202554495497L133.99952884615385,109.83808823607184L134.42542788461537,100.4478612135757L134.55069230769232,114.43661809306252L134.6175,124.75217496806926L134.66760576923076,116.47774166342887L135.11020673076922,96.79666639728978L135.13525961538463,91.20391384444453L135.46929807692308,129.9797918545929L135.67807211538462,96.45887986502863L135.73652884615385,115.70742520419034L135.92025,108.77896791832013L136.20418269230768,95.16629834744063L136.49646634615385,89.13628933781928L136.68853846153846,116.06509493155912L136.82215384615384,113.15985561433163L137.2647548076923,121.10026083209297L137.43177403846155,117.12300139733335L137.4568269230769,115.15367792072621L137.54033653846153,110.92074229635975L137.5904423076923,93.64016571505502L137.77416346153845,128.89167995615438L138.45894230769233,133.4692866016518L139.6364278846154,124.46859217164192L139.68653365384614,107.28578612208366L139.87860576923075,104.87290614707902L140.18759134615385,111.41700694506818L140.1959423076923,124.98561219058253L140.2460480769231,113.804620815949L140.32120673076923,122.13768466968429L140.46317307692306,117.55553132431073L140.56338461538462,101.78474682975899L140.6134903846154,107.85427646203473L141.10619711538462,83.72146650471471L141.5237451923077,102.99882659180597L141.91624038461538,118.0325152081522L142.21687500000002,95.46743554147807L142.41729807692306,90.50855948843738L142.44235096153847,120.89584216475487L143.0686730769231,105.88430559770627L143.11877884615384,107.12183518165892L143.36930769230767,129.6091923557899L143.44446634615383,117.77781010012734L143.4778701923077,119.24535114656794L143.52797596153846,121.81895711205222L144.0206826923077,125.52683132277294L144.2962644230769,83.59669451009144L144.30461538461537,109.45040489462289L144.3714230769231,109.21865807338193L144.40482692307694,116.93974571471864L144.5467932692308,113.66822281683034L144.85577884615387,111.83096044104208L145.08125480769232,103.76058014956388L145.23992307692308,124.80889032848856L145.5155048076923,95.27833238921382L145.52385576923078,115.50383375449613L145.72427884615385,114.39506838944826L146.36730288461538,134.25339301878756L146.89341346153844,91.40878208658911L147.24415384615384,120.29262366958639L147.2775576923077,120.14114093712784L147.645,117.39131663333285L147.80366826923077,98.97244661369106L148.3631826923077,122.0314501429146L148.84753846153848,101.85998167503963L148.9895048076923,104.78712127967313L149.03961057692308,112.32568454674698L149.71603846153846,100.3286519578912L149.9498653846154,112.70546436309814L150.09183173076923,120.99309718405658L150.10853365384614,112.09828361530195L150.37576442307693,94.6938851407983L150.63464423076923,124.6014804901047L151.12735096153847,106.63517944514751L152.32153846153847,129.61267206479204L152.52196153846154,71.45719765939496L152.5971201923077,96.83302800763737L152.64722596153845,104.26467938856645L153.0313701923077,109.88063000142574L153.05642307692307,86.21528193354607L153.21509134615386,118.40113058347595L153.3737596153846,92.7763406932354L154.31741826923076,120.32449252903461L154.43433173076923,124.67265117913485L154.96044230769232,115.10289694775236L155.2861298076923,125.01272454857826L155.4615,112.39070205525918L155.95420673076924,109.9613196876916L156.06276923076922,136.67213245210323L156.14627884615385,81.44267371432349L156.1796826923077,121.8838367509571L156.5721778846154,121.01127499206498L157.17344711538462,114.8127233846621L157.35716826923075,120.46243706548756L157.4991346153846,114.35814930634065L157.88327884615384,115.43036423962224L158.16721153846154,120.35918771543285L158.71002403846154,103.19285708394918L159.16097596153844,43.39155524969101L159.37810096153845,111.58763257278636L159.41985576923076,108.90958438542756L160.01277403846152,92.94073521413586L160.0461778846154,88.35736202245408L160.31340865384615,115.7383829253641L160.72260576923077,120.36606021564114L161.2403653846154,130.94727084379304L161.24871634615386,112.42164179344068L161.4574903846154,114.48514519767328L161.53264903846153,109.35575441203333L161.6495625,132.34994423999026L162.0003028846154,116.70611367645589L162.20907692307694,106.97158728133549L163.39491346153847,119.14087895303965L163.65379326923076,130.96254739571702L163.93772596153846,122.3047736422582L164.1297980769231,94.95059235529466L164.4471346153846,97.46583152223717L164.53064423076924,115.72300746698272L164.8396298076923,89.55121091820976L164.9064375,121.86328818513587L165.02335096153848,130.5424017560753L165.11521153846155,117.89578452367675L165.26552884615384,113.4245292943987L165.28223076923075,128.6529167707671L165.47430288461538,117.29170284487984L165.48265384615385,90.26751546019858L165.49100480769232,94.79165866971016L165.5160576923077,123.93630459227344L165.67472596153846,118.51386296478185L165.96700961538463,133.90699563039976L166.10897596153848,109.4455195150592L166.22588942307692,127.61483955112371L166.40125961538462,135.9165515564382L166.48476923076922,92.51314161853357L166.55157692307694,93.91852445223114L166.63508653846156,134.6849698471752L167.04428365384615,103.38408822363073L167.11109134615384,78.56548486785456L167.3783221153846,109.9263127960942L167.49523557692308,121.27626037733121L167.54534134615386,116.5624265711416L167.66225480769234,119.20699042691425L167.73741346153847,91.227489547296L167.79587019230772,121.03221019221976L167.80422115384616,118.9243277602575L167.83762499999997,133.56829196553338L168.04639903846154,101.53507695956662L168.12990865384614,133.74391686509955L168.2969278846154,135.72877764701843L168.41384134615384,108.31451518291777L168.71447596153845,107.554529952732L168.87314423076924,101.53072507543996L169.28234134615386,119.61385862393811L169.2906923076923,116.46394571120089L169.3324471153846,106.28832948478785L169.5579230769231,109.7904153235934L169.8752596153846,127.28862807154655L170.80221634615384,124.13454909893599L170.877375,115.48356991938569L171.01099038461538,118.37577756155622L171.03604326923076,114.87177053974433L171.11120192307692,82.56316998465493L171.34502884615384,97.37068950452587L171.62896153846154,90.0871999968182L171.63731249999998,73.321158784357L171.73752403846154,111.82817607440731L172.06321153846153,131.7951089854945L172.2719855769231,104.10229896279898L172.41395192307692,111.51336880908771L172.78139423076922,111.45490909841928L172.9818173076923,95.51913064989176L173.16553846153846,112.82246470790018L173.39936538461538,122.29690008881417L173.8503173076923,126.46995834328911L174.2177596153846,109.42922092974186L174.9609951923077,98.84614007039502L174.96934615384615,93.16851378841832L175.6958798076923,123.91911884600466L175.7626875,127.84081383184953L176.13848076923077,112.1208312904293L176.63953846153845,106.36678328568286L177.14894711538463,119.2475510659543L177.20740384615385,108.46493092450228L177.4495817307692,112.85694709555669L177.7585673076923,114.5452383634719L177.90053365384614,85.43834473599087L178.25127403846153,102.54340731284834L178.65212019230768,103.05383057079531L178.98615865384616,84.34987617487256L179.19493269230767,85.02963927659121L179.35360096153846,102.84965767101808L179.39535576923078,106.45505580035123L179.58742788461538,123.66824711249633L179.6709375,110.03530771217562L179.77114903846154,116.38366064226085L179.9465192307692,130.44227844950828L180.33901442307692,103.16459381444886L180.5143846153846,136.4508981884203L180.8233701923077,129.83662325888872L180.95698557692307,115.17986715178597L181.44134134615385,106.12670434469527L181.80878365384615,101.45385377786376L181.84218750000002,90.49140970815311L182.05096153846154,100.93551800332285L182.26808653846155,108.95635215396231L183.59588942307693,128.5052853958173L183.72115384615387,117.58155271410942L183.74620673076922,74.04912229966035L183.92992788461538,135.85956944830036L183.98003365384614,88.43049285764043L184.17210576923077,129.8606155677275L184.3808798076923,131.80804774842477L184.50614423076922,124.00506556034088L184.8401826923077,130.31107753515244L184.89028846153846,117.19732510433955L185.0072019230769,115.97800030288371L185.0990625,129.67542071911421L185.17422115384616,126.77536949515343L185.5583653846154,112.2886755486781L185.61682211538462,99.31568798693743L185.65022596153847,117.2732612863183L185.70033173076925,93.60249134627256L186.19303846153846,127.5736884705045L186.4185144230769,113.46420576965266L186.61058653846155,110.89715760201216L187.19515384615383,101.36474805122072L187.378875,90.48468406904827L187.65445673076925,113.9862610264258L187.72126442307692,121.58022689548406L187.79642307692308,118.12861931594935L187.8548798076923,126.64154306392777L188.18891826923075,111.50134118443185L188.29748076923076,114.50925139879638L188.33923557692307,106.2554565749385L188.38934134615386,109.18818289583379L188.4143942307692,123.19564508443528L189.04906730769233,86.22028719972481L189.05741826923077,100.45895671979947L189.07412019230767,115.64668465067041L189.42486057692307,92.43395051495595L189.44991346153847,116.18897976523095L189.70879326923077,120.19482016902077L189.93426923076922,112.39833883263847L189.95932211538462,120.90683277019045L190.00107692307694,109.39746296541257L190.34346634615386,100.80790469592267L190.46873076923075,112.82404721121897L190.5939951923077,124.1246944191781L190.66915384615385,124.66784672303632L190.68585576923076,110.08215940134092L191.01154326923077,106.66086515242404L191.09505288461537,120.63925783403894L191.21196634615384,107.72527246989986L191.5710576923077,112.4166814847426L191.75477884615384,118.42763151973486L191.94685096153844,105.23100746626204L192.28924038461537,120.30500495975667L192.3978028846154,98.3611207861792L192.40615384615384,100.03405457870527L192.5648221153846,110.91006039895794L192.57317307692307,125.01989976248957L192.589875,127.36257113854992L192.63162980769232,129.60491839796305L192.7234903846154,133.93091301010412L193.64209615384615,130.443510284478L193.65044711538462,116.85203067281029L193.79241346153847,82.59690008380197L193.8258173076923,115.6547799943523L194.13480288461537,79.99780622395602L194.3936826923077,125.55662014944986L194.40203365384613,103.88452492654324L194.42708653846154,104.11957462402907L194.4354375,112.28727886961265L194.761125,95.08755082433873L194.83628365384615,101.75304281440648L195.03670673076925,126.07025636868043L195.31228846153846,110.91605772687629L195.51271153846153,81.42555990002371L195.5210625,108.60339397056535L195.8216971153846,127.24423705515537L196.13903365384616,116.01643894883719L196.47307211538464,107.28670325468887L196.5231778846154,122.73026922209695L196.5398798076923,124.26143109798431L196.54823076923077,70.18084878948602L196.80711057692307,95.49382258545269L196.88226923076923,130.98809223622084L196.9156730769231,100.62767914750358L197.45013461538463,126.26607616855338L197.99294711538462,118.87270758097821L198.18501923076923,107.47267736630006L198.3186346153846,116.00295470180836L198.8865,119.98362191360104L198.9115528846154,106.03442761708389L198.95330769230767,82.3311054638841L199.51282211538464,104.03943042186174L199.66313942307693,106.05054637247866L200.28946153846155,96.10673091628334L200.61514903846154,111.56215966425158L200.62349999999998,134.48971351439303L201.2581730769231,95.68210451440378L201.35003365384617,117.85883546891537L201.93460096153848,128.27113484794444L202.04316346153846,107.42361376908693L202.28534134615387,122.94132061641324L202.2936923076923,96.23331319879402L202.6360817307692,115.71472330188209L202.8365048076923,113.23913663287055L202.88661057692306,125.25690960613164L203.05362980769232,112.28918206962672L203.10373557692307,96.14872719753872L203.27910576923077,115.47307084907186L203.32921153846155,119.99032357538289L203.83026923076923,137.04572312195194L204.32297596153845,135.93705366619608L204.59020673076924,121.61751762709834L204.64866346153846,114.55197599123824L205.35014423076922,121.55629153278741L206.4357692307692,111.99402721768075L206.64454326923078,114.48999760841781L206.75310576923079,113.21772188625552L206.97858173076924,111.6128447279334L207.03703846153846,121.36136488819665L207.12889903846155,89.5176126943393L207.17065384615384,119.7424160384319L207.22911057692306,104.8434500057589L207.23746153846153,106.27155135301027L207.354375,127.16647559946233L207.58820192307692,105.03992618484929L208.16441826923077,92.82408553768288L208.18947115384617,115.98190560936928L208.47340384615384,112.40335608747873L208.54021153846153,128.91970944675532L208.81579326923077,92.1977559002963L208.8324951923077,122.18916398219086L209.14148076923078,113.79741263321854L209.90141826923076,95.00143626874143L209.9181201923077,119.91805592382497L210.03503365384617,83.36213634772733L210.92858653846153,132.33620523390445L210.98704326923075,120.95892650159922L211.0872548076923,111.31997071883895L211.49645192307693,107.66740919514135L211.51315384615384,108.91331285915591L211.60501442307694,115.69292491809888L211.61336538461538,122.58158284493467L211.6551201923077,114.36617871238425L212.36495192307692,124.45300691168416L212.39000480769232,115.24643119763243L212.3983557692308,108.61459737474269L213.61759615384616,104.1226437213746L213.651,113.68144331330603L213.65935096153845,105.83099201998927L213.8013173076923,119.95718691498041L213.92658173076924,115.20023289051923L214.01009134615384,134.05336819589138L214.10195192307694,112.47283038090576L214.14370673076922,95.33416958017781L214.18546153846154,142.05674985254353L214.21886538461538,118.37468959052455L214.26897115384617,97.22686153243889L214.46939423076924,122.27957647293806L214.55290384615384,132.05796938050878L214.77002884615385,115.72774298827756L214.78673076923076,99.88224815238605L214.86188942307692,118.30778686499053L215.14582211538462,107.12639686736193L215.33789423076922,78.7985564361919L215.62182692307692,135.55402192541143L215.76379326923077,112.49526716091415L215.96421634615385,123.77847086638212L216.1228846153846,135.02010388807815L216.23979807692308,116.25921234149826L216.5153798076923,93.59198927879333L217.45903846153846,84.36460424553265L217.86823557692307,115.41270793838933L218.37764423076922,88.05090785703875L218.54466346153845,115.68183840337124L218.63652403846154,109.33586522259495L218.80354326923077,113.05630055340853L219.30460096153845,71.23092965646225L219.4131634615385,123.70306218550964L219.72214903846154,115.20665281875566L219.88916826923077,115.32611983066255L219.98102884615383,104.75884602151133L220.69921153846153,139.59524986080146L220.78272115384615,95.75471384281462L221.5092548076923,78.42955142936923L221.96020673076924,127.62965453957969L222.2691923076923,126.38694585385647L222.28589423076923,109.2706648869948L222.52807211538462,100.51593283360654L222.8537596153846,121.82217007333583L223.25460576923075,122.49645435674623L223.65545192307692,126.00953679531813L223.67215384615386,121.67414906688711L223.73896153846152,133.98042318495837L223.98949038461538,108.90728855674917L224.15650961538464,132.14394306933337L224.18156249999998,118.89705655249682L224.29847596153846,121.86664201319218L224.77448076923076,110.07788544351405L225.57617307692306,106.31896051493558L225.95196634615385,109.42777629603039L225.98537019230767,133.08742675252935L226.48642788461538,87.1533527360721L226.87057211538462,130.14975810592824L227.12110096153847,116.89506697045131L227.3048221153846,114.47689999572255L227.37162980769233,106.26031797717918L227.8977403846154,90.61506675725633L228.3904471153846,114.1697984425859L228.64097596153846,97.18982855704698L228.77459134615384,134.1477519307624L228.82469711538462,123.60630169849503L229.10027884615386,111.3287733935497L229.34245673076924,133.82514903829855L229.4593701923077,110.41707464917138L229.71825,112.41299796849489L230.0439375,109.56267271529545L230.7621201923077,116.5745740824125L231.37174038461538,117.79736660420895L231.58051442307695,107.98324448818511L231.68907692307693,108.80424601110545L231.73918269230768,121.35390494357455L231.74753365384615,97.69326841966672L231.76423557692308,107.86681060763922L232.42396153846153,116.34755379097028L232.91666826923077,111.87800394879146L233.86867788461538,128.44786270436916L233.99394230769232,125.706754157489L234.41149038461538,119.69141327522017L234.4281923076923,111.93926600908691L234.65366826923076,99.210211743008L234.89584615384615,108.39086497371846L235.17142788461538,99.1444179686633L235.38020192307692,112.73068850690669L235.88961057692308,125.0154729492285L236.1234375,86.30913517014548L236.1651923076923,128.35817852480844L236.43242307692307,130.4375459253788L236.72470673076924,120.48510462722994L236.85832211538462,108.70063999837095L237.00028846153847,110.24241183969107L237.34267788461537,129.53985892913556L237.7769278846154,104.68165702440521L238.12766826923078,113.39463856409895L238.24458173076926,79.62621766057882L238.37819711538464,122.29204767806962L238.55356730769233,109.79780033908106L238.62872596153846,88.85945915498516L238.76234134615385,104.0323211455887L238.78739423076925,110.30373384329405L239.28845192307693,120.08416782048616L239.29680288461537,129.68964526599103L239.41371634615385,123.4055575559085L240.19870673076923,130.56828827343202L240.3323221153846,93.25953170657158L240.44088461538462,134.01489358395338L240.5327451923077,72.11135298013687L241.16741826923078,122.99574014815417L241.28433173076925,109.15804340080781L241.36784134615382,110.18037051639773L241.41794711538464,107.21088096499443L241.92735576923076,107.68916262144393L242.27809615384615,94.98099560087377L242.72904807692308,117.00853066010907L243.59754807692306,95.9014370766553L243.9148846153846,94.34498511932112L244.29902884615385,110.80604077740148L244.31573076923075,126.81484516032717L244.64976923076924,117.48090490360153L244.6581201923077,118.00725809552452L244.66647115384615,114.30182657458565L244.80008653846153,99.11107150668448L244.90864903846156,131.9740427556363L244.92535096153847,128.419608426365L245.75209615384614,124.93962967937642L246.01097596153846,119.47987933727828L246.79596634615385,117.45502438057554L246.9128798076923,116.64738721806896L247.00474038461536,129.62252374738455L247.53920192307692,113.2105077091943L247.58930769230767,115.91038724915548L247.63941346153848,106.38314780863848L247.6728173076923,122.8740282593803L247.6811682692308,121.03372675790027L248.3074903846154,121.56026277691126L248.64152884615385,103.40929438444701L249.10083173076922,99.29885590618306L249.34300961538463,116.46676304665479L250.01108653846154,101.60812387412244L250.10294711538464,99.7086343507875L250.1697548076923,107.65934082594785L250.57060096153845,124.35275772417134L250.77102403846155,104.95851118456234L251.1050625,118.35366147824308L251.1301153846154,96.10776793550362L251.38899519230768,132.6045264642347L251.4725048076923,72.82510393722492L251.53096153846155,116.07354094359007L251.647875,109.77084383368492L251.68127884615384,130.897404006259L252.15728365384615,136.27859564667398L252.32430288461538,68.87050007554619L252.34935576923078,120.61679407954216L252.52472596153848,102.96451504257593L252.8420625,115.06812982938506L253.24290865384614,115.04561512307687L253.61035096153844,101.22374340891838L254.00284615384615,113.85936703871596L254.01954807692306,115.76510864902627L254.28677884615385,124.02480189434506L254.43709615384617,100.5866539478302L254.62916826923077,97.15971303934401L254.8880480769231,96.19291140951893" style="fill: none;" fill="none"></path></g></g></g></g></g></g><g transform="translate(58, 177)" clip-path="url(#clip_1)"><clipPath id="clip_1"><rect width="271" height="23"></rect></clipPath><g><g><line x1="0" y1="0" x2="0" y2="5" style="visibility: inherit;" fill="rgb(0, 0, 0)" stroke="rgb(204, 204, 204)" stroke-width="1px"></line><line x1="20.877403846153847" y1="0" x2="20.877403846153847" y2="5" style="visibility: inherit;" fill="rgb(0, 0, 0)" stroke="rgb(204, 204, 204)" stroke-width="1px"></line><line x1="41.75480769230769" y1="0" x2="41.75480769230769" y2="5" style="visibility: inherit;" fill="rgb(0, 0, 0)" stroke="rgb(204, 204, 204)" stroke-width="1px"></line><line x1="62.63221153846154" y1="0" x2="62.63221153846154" y2="5" style="visibility: inherit;" fill="rgb(0, 0, 0)" stroke="rgb(204, 204, 204)" stroke-width="1px"></line><line x1="83.50961538461539" y1="0" x2="83.50961538461539" y2="5" style="visibility: inherit;" fill="rgb(0, 0, 0)" stroke="rgb(204, 204, 204)" stroke-width="1px"></line><line x1="104.38701923076924" y1="0" x2="104.38701923076924" y2="5" style="visibility: inherit;" fill="rgb(0, 0, 0)" stroke="rgb(204, 204, 204)" stroke-width="1px"></line><line x1="125.26442307692308" y1="0" x2="125.26442307692308" y2="5" style="visibility: inherit;" fill="rgb(0, 0, 0)" stroke="rgb(204, 204, 204)" stroke-width="1px"></line><line x1="146.1418269230769" y1="0" x2="146.1418269230769" y2="5" style="visibility: inherit;" fill="rgb(0, 0, 0)" stroke="rgb(204, 204, 204)" stroke-width="1px"></line><line x1="167.01923076923077" y1="0" x2="167.01923076923077" y2="5" style="visibility: inherit;" fill="rgb(0, 0, 0)" stroke="rgb(204, 204, 204)" stroke-width="1px"></line><line x1="187.8966346153846" y1="0" x2="187.8966346153846" y2="5" style="visibility: inherit;" fill="rgb(0, 0, 0)" stroke="rgb(204, 204, 204)" stroke-width="1px"></line><line x1="208.77403846153848" y1="0" x2="208.77403846153848" y2="5" style="visibility: inherit;" fill="rgb(0, 0, 0)" stroke="rgb(204, 204, 204)" stroke-width="1px"></line><line x1="229.6514423076923" y1="0" x2="229.6514423076923" y2="5" style="visibility: inherit;" fill="rgb(0, 0, 0)" stroke="rgb(204, 204, 204)" stroke-width="1px"></line><line x1="250.52884615384616" y1="0" x2="250.52884615384616" y2="5" style="visibility: inherit;" fill="rgb(0, 0, 0)" stroke="rgb(204, 204, 204)" stroke-width="1px"></line><line x1="271.40625" y1="0" x2="271.40625" y2="5" style="visibility: inherit;" fill="rgb(0, 0, 0)" stroke="rgb(204, 204, 204)" stroke-width="1px"></line></g><g transform="translate(0, 8)"><text x="0" y="0" dx="0em" dy="0.95em" style="text-anchor: middle; visibility: hidden; font-family: &quot;Helvetica Neue&quot;, sans-serif; font-size: 12px; font-weight: 200;" fill="rgb(50, 49, 63)" stroke="none" stroke-width="1px">-20k</text><text x="20.877403846153847" y="0" dx="0em" dy="0.95em" style="text-anchor: middle; visibility: inherit; font-family: &quot;Helvetica Neue&quot;, sans-serif; font-size: 12px; font-weight: 200;" fill="rgb(50, 49, 63)" stroke="none" stroke-width="1px">0</text><text x="41.75480769230769" y="0" dx="0em" dy="0.95em" style="text-anchor: middle; visibility: hidden; font-family: &quot;Helvetica Neue&quot;, sans-serif; font-size: 12px; font-weight: 200;" fill="rgb(50, 49, 63)" stroke="none" stroke-width="1px">20k</text><text x="62.63221153846154" y="0" dx="0em" dy="0.95em" style="text-anchor: middle; visibility: inherit; font-family: &quot;Helvetica Neue&quot;, sans-serif; font-size: 12px; font-weight: 200;" fill="rgb(50, 49, 63)" stroke="none" stroke-width="1px">40k</text><text x="83.50961538461539" y="0" dx="0em" dy="0.95em" style="text-anchor: middle; visibility: hidden; font-family: &quot;Helvetica Neue&quot;, sans-serif; font-size: 12px; font-weight: 200;" fill="rgb(50, 49, 63)" stroke="none" stroke-width="1px">60k</text><text x="104.38701923076924" y="0" dx="0em" dy="0.95em" style="text-anchor: middle; visibility: inherit; font-family: &quot;Helvetica Neue&quot;, sans-serif; font-size: 12px; font-weight: 200;" fill="rgb(50, 49, 63)" stroke="none" stroke-width="1px">80k</text><text x="125.26442307692308" y="0" dx="0em" dy="0.95em" style="text-anchor: middle; visibility: hidden; font-family: &quot;Helvetica Neue&quot;, sans-serif; font-size: 12px; font-weight: 200;" fill="rgb(50, 49, 63)" stroke="none" stroke-width="1px">100k</text><text x="146.1418269230769" y="0" dx="0em" dy="0.95em" style="text-anchor: middle; visibility: inherit; font-family: &quot;Helvetica Neue&quot;, sans-serif; font-size: 12px; font-weight: 200;" fill="rgb(50, 49, 63)" stroke="none" stroke-width="1px">120k</text><text x="167.01923076923077" y="0" dx="0em" dy="0.95em" style="text-anchor: middle; visibility: hidden; font-family: &quot;Helvetica Neue&quot;, sans-serif; font-size: 12px; font-weight: 200;" fill="rgb(50, 49, 63)" stroke="none" stroke-width="1px">140k</text><text x="187.8966346153846" y="0" dx="0em" dy="0.95em" style="text-anchor: middle; visibility: inherit; font-family: &quot;Helvetica Neue&quot;, sans-serif; font-size: 12px; font-weight: 200;" fill="rgb(50, 49, 63)" stroke="none" stroke-width="1px">160k</text><text x="208.77403846153848" y="0" dx="0em" dy="0.95em" style="text-anchor: middle; visibility: hidden; font-family: &quot;Helvetica Neue&quot;, sans-serif; font-size: 12px; font-weight: 200;" fill="rgb(50, 49, 63)" stroke="none" stroke-width="1px">180k</text><text x="229.6514423076923" y="0" dx="0em" dy="0.95em" style="text-anchor: middle; visibility: inherit; font-family: &quot;Helvetica Neue&quot;, sans-serif; font-size: 12px; font-weight: 200;" fill="rgb(50, 49, 63)" stroke="none" stroke-width="1px">200k</text><text x="250.52884615384616" y="0" dx="0em" dy="0.95em" style="text-anchor: middle; visibility: hidden; font-family: &quot;Helvetica Neue&quot;, sans-serif; font-size: 12px; font-weight: 200;" fill="rgb(50, 49, 63)" stroke="none" stroke-width="1px">220k</text><text x="271.40625" y="0" dx="0em" dy="0.95em" style="text-anchor: middle; visibility: hidden; font-family: &quot;Helvetica Neue&quot;, sans-serif; font-size: 12px; font-weight: 200;" fill="rgb(50, 49, 63)" stroke="none" stroke-width="1px">240k</text></g><line x1="0" y1="0" x2="271.40625" y2="0" fill="rgb(0, 0, 0)" stroke="rgb(204, 204, 204)" stroke-width="1px"></line></g></g></g></g></svg>