<svg viewBox="0 0 330 200" xmlns="http://www.w3.org/2000/svg"><g><g><g><g><g><line x1="50" y1="178" x2="45" y2="178" style="visibility: inherit;" fill="rgb(0, 0, 0)" stroke="rgb(204, 204, 204)" stroke-width="1px"></line><line x1="50" y1="160.20000000000002" x2="45" y2="160.20000000000002" style="visibility: inherit;" fill="rgb(0, 0, 0)" stroke="rgb(204, 204, 204)" stroke-width="1px"></line><line x1="50" y1="142.39999999999998" x2="45" y2="142.39999999999998" style="visibility: inherit;" fill="rgb(0, 0, 0)" stroke="rgb(204, 204, 204)" stroke-width="1px"></line><line x1="50" y1="124.6" x2="45" y2="124.6" style="visibility: inherit;" fill="rgb(0, 0, 0)" stroke="rgb(204, 204, 204)" stroke-width="1px"></line><line x1="50" y1="106.80000000000001" x2="45" y2="106.80000000000001" style="visibility: inherit;" fill="rgb(0, 0, 0)" stroke="rgb(204, 204, 204)" stroke-width="1px"></line><line x1="50" y1="88.99999999999999" x2="45" y2="88.99999999999999" style="visibility: inherit;" fill="rgb(0, 0, 0)" stroke="rgb(204, 204, 204)" stroke-width="1px"></line><line x1="50" y1="71.2" x2="45" y2="71.2" style="visibility: inherit;" fill="rgb(0, 0, 0)" stroke="rgb(204, 204, 204)" stroke-width="1px"></line><line x1="50" y1="53.400000000000006" x2="45" y2="53.400000000000006" style="visibility: inherit;" fill="rgb(0, 0, 0)" stroke="rgb(204, 204, 204)" stroke-width="1px"></line><line x1="50" y1="35.599999999999994" x2="45" y2="35.599999999999994" style="visibility: inherit;" fill="rgb(0, 0, 0)" stroke="rgb(204, 204, 204)" stroke-width="1px"></line><line x1="50" y1="17.799999999999976" x2="45" y2="17.799999999999976" style="visibility: inherit;" fill="rgb(0, 0, 0)" stroke="rgb(204, 204, 204)" stroke-width="1px"></line><line x1="50" y1="0" x2="45" y2="0" style="visibility: inherit;" fill="rgb(0, 0, 0)" stroke="rgb(204, 204, 204)" stroke-width="1px"></line></g><g transform="translate(40, 0)"><text x="0" y="178" dx="0em" dy="0.3em" style="text-anchor: end; visibility: hidden; font-family: Roboto, sans-serif; font-size: 12px; font-weight: 200;" fill="rgb(50, 49, 63)" stroke="none" stroke-width="1px">0.1</text><text x="0" y="160.20000000000002" dx="0em" dy="0.3em" style="text-anchor: end; visibility: inherit; font-family: Roboto, sans-serif; font-size: 12px; font-weight: 200;" fill="rgb(50, 49, 63)" stroke="none" stroke-width="1px">0.12</text><text x="0" y="142.39999999999998" dx="0em" dy="0.3em" style="text-anchor: end; visibility: hidden; font-family: Roboto, sans-serif; font-size: 12px; font-weight: 200;" fill="rgb(50, 49, 63)" stroke="none" stroke-width="1px">0.14</text><text x="0" y="124.6" dx="0em" dy="0.3em" style="text-anchor: end; visibility: inherit; font-family: Roboto, sans-serif; font-size: 12px; font-weight: 200;" fill="rgb(50, 49, 63)" stroke="none" stroke-width="1px">0.16</text><text x="0" y="106.80000000000001" dx="0em" dy="0.3em" style="text-anchor: end; visibility: hidden; font-family: Roboto, sans-serif; font-size: 12px; font-weight: 200;" fill="rgb(50, 49, 63)" stroke="none" stroke-width="1px">0.18</text><text x="0" y="88.99999999999999" dx="0em" dy="0.3em" style="text-anchor: end; visibility: inherit; font-family: Roboto, sans-serif; font-size: 12px; font-weight: 200;" fill="rgb(50, 49, 63)" stroke="none" stroke-width="1px">0.2</text><text x="0" y="71.2" dx="0em" dy="0.3em" style="text-anchor: end; visibility: hidden; font-family: Roboto, sans-serif; font-size: 12px; font-weight: 200;" fill="rgb(50, 49, 63)" stroke="none" stroke-width="1px">0.22</text><text x="0" y="53.400000000000006" dx="0em" dy="0.3em" style="text-anchor: end; visibility: inherit; font-family: Roboto, sans-serif; font-size: 12px; font-weight: 200;" fill="rgb(50, 49, 63)" stroke="none" stroke-width="1px">0.24</text><text x="0" y="35.599999999999994" dx="0em" dy="0.3em" style="text-anchor: end; visibility: hidden; font-family: Roboto, sans-serif; font-size: 12px; font-weight: 200;" fill="rgb(50, 49, 63)" stroke="none" stroke-width="1px">0.26</text><text x="0" y="17.799999999999976" dx="0em" dy="0.3em" style="text-anchor: end; visibility: inherit; font-family: Roboto, sans-serif; font-size: 12px; font-weight: 200;" fill="rgb(50, 49, 63)" stroke="none" stroke-width="1px">0.28</text><text x="0" y="0" dx="0em" dy="0.3em" style="text-anchor: end; visibility: hidden; font-family: Roboto, sans-serif; font-size: 12px; font-weight: 200;" fill="rgb(50, 49, 63)" stroke="none" stroke-width="1px">0.3</text></g><line x1="50" y1="0" x2="50" y2="178" fill="rgb(0, 0, 0)" stroke="rgb(204, 204, 204)" stroke-width="1px"></line></g></g><g transform="translate(50, 0)" clip-path="url(#clip_0)"><clipPath id="clip_0"><rect width="280" height="178"></rect></clipPath><g><g><g><line x1="0" y1="0" x2="0" y2="178" fill="rgb(0, 0, 0)" stroke="rgb(60, 60, 60)" stroke-width="1px" opacity="0.25"></line><line x1="35" y1="0" x2="35" y2="178" fill="rgb(0, 0, 0)" stroke="rgb(60, 60, 60)" stroke-width="1px" opacity="0.25"></line><line x1="70" y1="0" x2="70" y2="178" fill="rgb(0, 0, 0)" stroke="rgb(60, 60, 60)" stroke-width="1px" opacity="0.25"></line><line x1="105" y1="0" x2="105" y2="178" fill="rgb(0, 0, 0)" stroke="rgb(60, 60, 60)" stroke-width="1px" opacity="0.25"></line><line x1="140" y1="0" x2="140" y2="178" fill="rgb(0, 0, 0)" stroke="rgb(60, 60, 60)" stroke-width="1px" opacity="0.25"></line><line x1="175" y1="0" x2="175" y2="178" fill="rgb(0, 0, 0)" stroke="rgb(60, 60, 60)" stroke-width="1px" opacity="0.25"></line><line x1="210" y1="0" x2="210" y2="178" fill="rgb(0, 0, 0)" stroke="rgb(60, 60, 60)" stroke-width="1px" opacity="0.25"></line><line x1="245" y1="0" x2="245" y2="178" fill="rgb(0, 0, 0)" stroke="rgb(60, 60, 60)" stroke-width="1px" opacity="0.25"></line><line x1="280" y1="0" x2="280" y2="178" fill="rgb(0, 0, 0)" stroke="rgb(60, 60, 60)" stroke-width="1px" opacity="0.25"></line></g><g><line x1="0" y1="178" x2="280" y2="178" fill="rgb(0, 0, 0)" stroke="rgb(60, 60, 60)" stroke-width="1px" opacity="0.25"></line><line x1="0" y1="160.20000000000002" x2="280" y2="160.20000000000002" fill="rgb(0, 0, 0)" stroke="rgb(60, 60, 60)" stroke-width="1px" opacity="0.25"></line><line x1="0" y1="142.39999999999998" x2="280" y2="142.39999999999998" fill="rgb(0, 0, 0)" stroke="rgb(60, 60, 60)" stroke-width="1px" opacity="0.25"></line><line x1="0" y1="124.6" x2="280" y2="124.6" fill="rgb(0, 0, 0)" stroke="rgb(60, 60, 60)" stroke-width="1px" opacity="0.25"></line><line x1="0" y1="106.80000000000001" x2="280" y2="106.80000000000001" fill="rgb(0, 0, 0)" stroke="rgb(60, 60, 60)" stroke-width="1px" opacity="0.25"></line><line x1="0" y1="88.99999999999999" x2="280" y2="88.99999999999999" fill="rgb(0, 0, 0)" stroke="rgb(60, 60, 60)" stroke-width="1px" opacity="0.25"></line><line x1="0" y1="71.2" x2="280" y2="71.2" fill="rgb(0, 0, 0)" stroke="rgb(60, 60, 60)" stroke-width="1px" opacity="0.25"></line><line x1="0" y1="53.400000000000006" x2="280" y2="53.400000000000006" fill="rgb(0, 0, 0)" stroke="rgb(60, 60, 60)" stroke-width="1px" opacity="0.25"></line><line x1="0" y1="35.599999999999994" x2="280" y2="35.599999999999994" fill="rgb(0, 0, 0)" stroke="rgb(60, 60, 60)" stroke-width="1px" opacity="0.25"></line><line x1="0" y1="17.799999999999976" x2="280" y2="17.799999999999976" fill="rgb(0, 0, 0)" stroke="rgb(60, 60, 60)" stroke-width="1px" opacity="0.25"></line><line x1="0" y1="0" x2="280" y2="0" fill="rgb(0, 0, 0)" stroke="rgb(60, 60, 60)" stroke-width="1px" opacity="0.25"></line></g></g></g><g><g><line x1="0" y1="267" x2="280" y2="267" fill="rgb(0, 0, 0)" stroke="rgb(153, 153, 153)" stroke-width="1.5px"></line></g></g><g><g><line x1="35" y1="0" x2="35" y2="178" fill="rgb(0, 0, 0)" stroke="rgb(153, 153, 153)" stroke-width="1.5px"></line></g></g><g><g><g><g><g><path stroke="rgb(255, 112, 67)" stroke-width="2px" d="M43.96,-8.925518591829857L44.52,4.742649787941513L45.08,11.687933871550765L45.64,19.347056127302075L46.2,26.33482052985648L46.760000000000005,31.380501772213037L47.32,35.307178909574L47.88,37.24000898622503L48.44,37.28076431192486L49,41.731614320399025L49.559999999999995,42.40161924326926L50.12,42.3130004861015L50.68,46.030423047420726L51.24,45.66732004141942L51.8,50.573213768196325L52.36,51.24730780255802L52.92,53.64665527197276L53.480000000000004,52.446392186183L54.04,57.4127026384668L54.6,58.88272303581117L55.160000000000004,58.852413452913794L55.720000000000006,59.53094067661611L56.28,61.00417596721245L56.84,59.7889494320813L57.4,61.11857975953548L57.959999999999994,64.4825455171187L58.519999999999996,65.65978315043581L59.08,68.66699835452758L59.64,68.88512992141916L60.199999999999996,67.5654925183324L60.76,68.88059628466927L61.32,69.84762972869756L61.88,69.77965995239096L62.44,74.14353360279078L63,71.4755263778061L63.56,73.28708038643472L64.12,75.84304823825491L64.68,76.17266441792127L65.24000000000001,75.15939297324282L65.8,76.81836783913353L66.36,79.51312320248894L66.92,79.14774271736503L67.48,78.86101067596647L68.03999999999999,82.3284447701812L68.6,81.55958916616676L69.16,82.07374080343389L69.72,83.2980070252618L70.28,86.04742506381278L70.84,86.7442040874744L71.4,88.85423112119344L71.96000000000001,90.8295221102542L72.52,91.40361403061786L73.08,92.77234907528064L73.64,92.73802979934393L74.2,94.1823465356122L74.76,97.00942585044449L75.32000000000001,98.92066691621149L75.88000000000001,99.04121662559514L76.44000000000001,101.0996632777596L77,102.6036640884247L77.56,104.48812345753709L78.12,107.09915499741199L78.68,105.75316613229727L79.24,108.63390346355806L79.8,108.1764497637008L80.36,111.81908888097132L80.91999999999999,112.31554550215915L81.47999999999999,114.58762169054336L82.03999999999999,116.05592923266404L82.6,120.40077653469272L83.16,122.96498647297398L83.72,122.10772078612432L84.28,123.7105866633593L84.84,122.41945273654096L85.39999999999999,125.98754724846144L85.96,127.40497594467318L86.52,130.16423763866135L87.08,131.3037477137739L87.64,131.2790171505269L88.2,129.29193937785962L88.76,127.396619272277L89.32000000000001,128.34090336087064L89.88,127.32890458060932L90.44,129.47506790848752L91,130.0964442103635L91.56,133.0014536982495L92.12,134.09986621175517L92.68,135.6063576581139L93.24000000000001,136.6833591963088L93.80000000000001,138.635355848386L94.36,137.00810563463816L94.92,138.58133900105264L95.48,138.08358988725726L96.04,137.21583473422282L96.6,139.21760979734748L97.16,137.5987845745259L97.72,137.05902009526332L98.28,138.909917398211L98.83999999999999,137.6476074480514L99.39999999999999,137.93319553276896L99.96,137.8423579820454L100.52,140.703895454911L101.08,139.19197430927014L101.64,138.5281268877891L102.2,139.1494353963797L102.75999999999999,138.59360761367466L103.32,136.38182505919448L103.88,134.36308743330187L104.44,138.01040673120227L105,135.4096393100226L105.56,136.18859625529075L106.12,136.38328179520857L106.68,137.3398981261402L107.24000000000001,138.68206325579584L107.8,138.96597875004352L108.36,140.57927442100845L108.92,141.72518056933404L109.48,141.81811303081705L110.04,141.67269276489372L110.60000000000001,141.85128602331613L111.16000000000001,140.1356656607731L111.72,141.09253228048945L112.28,142.07662944996633L112.84,143.24305256011652L113.4,138.76034246565445L113.96,140.65153416801417L114.52,141.3912952232893L115.08,139.22042525342317L115.64,141.10010698158274L116.19999999999999,137.73471255730826L116.75999999999999,141.43329553384325L117.32,142.85281896936144L117.88,143.35344987122562L118.44,144.40796598797053L119,144.5501395643056L119.56,146.36085017802122L120.12,143.48453850914123L120.67999999999999,143.65072911601712L121.24,143.14424123538404L121.8,142.10176994903608L122.36,144.05527525248363L122.92,144.60949499071978L123.48,144.40114275611248L124.04,146.0132084727097L124.60000000000001,145.34404028891376L125.16,144.83100037240297L125.72,144.305153897186L126.28,144.56798207210295L126.84,145.7284213271546L127.4,144.99761050741714L127.96000000000001,145.93287440419698L128.52,146.45054388213458L129.08,149.274624503662L129.64000000000001,144.96785950482476L130.20000000000002,147.19049721849314L130.76000000000002,148.65262077982638L131.32,146.02227273425706L131.88,145.50860202813894L132.44,148.3489920169398L133,149.08935202779085L133.56,149.99732012523242L134.12,149.17389412506236L134.68,147.49430291523822L135.24,148.70748788517884L135.79999999999998,148.44951521397934L136.35999999999999,148.24654799128353L136.92,147.97987728968133L137.48,148.4252230385236L138.04,151.69310613627982L138.6,149.442485226129L139.16,148.86154933746727L139.72,149.4972534893517L140.28,149.47380731812504L140.84,147.46298133320443L141.4,149.19242940537234L141.96,147.0299218308455L142.52,146.70815283128775L143.08,146.75817920010778L143.64000000000001,147.4848496391862L144.20000000000002,148.18166305270728L144.76,147.98856763629283L145.32,148.52973804824452L145.88,151.315390968042L146.44,153.20508374793374L147,151.2382969976845L147.56,151.58492902048724L148.12,150.07441393809492L148.68,152.18231576846227L149.24,150.81525937417857L149.8,150.31030120670624L150.36,152.25767588746444L150.92000000000002,151.54780420143544L151.48000000000002,152.17785734223807L152.04000000000002,150.5187719243019L152.60000000000002,152.39893799884612L153.16000000000003,152.40169575133024L153.72,152.230546106804L154.28,151.36736357802667L154.84,149.93318547364782L155.4,148.47269360754913L155.96,151.19306196292655L156.52,151.6139235348726L157.08,150.4676036269203L157.64,149.3867144006929L158.2,150.81771015038734L158.76,150.53722624129443L159.32,149.8915398248815L159.88,146.9094164329042L160.44,151.35886287434522L161,151.35143544521108L161.56,150.32577588704928L162.11999999999998,153.57641144125284L162.67999999999998,154.85227779465092L163.23999999999998,152.73388620565635L163.79999999999998,155.5368550977129L164.35999999999999,153.09611476427423L164.92,153.2031843958265L165.48,153.4000146805028L166.04,152.5153439771402L166.6,153.26008393354823L167.16,151.10037071697477L167.72,154.02548996324876L168.28,152.89453348943914L168.84,150.95219391244248L169.4,152.43825790678022L169.96,153.7417567097816L170.51999999999998,153.5437333657547L171.07999999999998,154.72238387907768L171.64,154.08340617564454L172.2,151.9628204855152L172.76,155.35694099979568L173.32,156.11562168906312L173.88,154.1369419354807L174.44,152.8747717653877L175,153.18536573142805L175.56,154.4955839603603L176.12,153.79923705395817L176.68,156.53480361185527L177.24,154.17041795421872L177.8,154.2265883384301L178.36,151.03511256564582L178.92000000000002,150.80520028226925L179.48000000000002,153.96464268775793L180.04,155.72222118623262L180.6,155.01548536448004L181.16,155.08149192230894L181.72,156.4720488101065L182.28,157.41674958526013L182.84,154.7972418478663L183.4,157.00810786554428L183.96,156.2041242389036L184.52,157.66132237125353L185.08,156.08343291049547L185.64000000000001,156.53837946513502L186.20000000000002,156.20433351671224L186.76000000000002,154.4766660885544L187.32000000000002,157.545450100692L187.88000000000002,158.9484925266456L188.44,159.37053218462177L189,157.75994958268467L189.56,156.29468762747567L190.12,154.76232225818706L190.68,155.82138888909384L191.24,154.48800308033205L191.8,154.76712978198753L192.36,152.88062449881213L192.92,154.43212935083375L193.48,156.4224034950332L194.04,155.61159254343485L194.6,154.93256777066694L195.16,158.1437119992894L195.72,157.17504465295804L196.28,154.7099511725541L196.83999999999997,155.93940283076978L197.39999999999998,155.57064624558103L197.95999999999998,154.42767035919553L198.51999999999998,154.13762921069934L199.07999999999998,155.34931195959376L199.64,157.49817604532794L200.2,157.0428633851466L200.76,157.35399037376985L201.32,156.7220277653691L201.88,156.97110455432872L202.44,157.19730332016553L203,155.82297296833758L203.56,156.91588708467344L204.12,156.25821415607368L204.68,155.07079542889733L205.24,159.18752005228126L205.79999999999998,157.30051796751454L206.35999999999999,156.00212221811555L206.92,156.67641796750036L207.48,158.18491912533167L208.04,159.37539490848377L208.6,158.01290163868424L209.16,158.6936122922525L209.72,156.86476812055264L210.28,155.96289094263645L210.84,156.18272420152624L211.4,157.3189632557905L211.96,156.38655807155823L212.52,157.08661558376824L213.08,157.7124795028393L213.64000000000001,156.9318005149856L214.20000000000002,155.35658094318478L214.76,157.18989295382363L215.32,156.4348240531627L215.88,158.86364115101955L216.44,158.02057865752496L217,155.78869546350074L217.56,157.1409599655642L218.12,159.02825417958343L218.68,158.72900215293552L219.24,159.79243767562858L219.8,160.1139448601207L220.36,156.82043297995335L220.92000000000002,156.60614190643554L221.48000000000002,158.71698892799333L222.04000000000002,160.12467679194998L222.60000000000002,159.94620320089095L223.16000000000003,160.56092908911367L223.72,159.69661300738133L224.28,161.8431616029708L224.84,160.3094631732445L225.4,159.95696524387247L225.96,159.99848486546068L226.52,159.35744893290632L227.08,161.02327567182797L227.64,162.34479510690466L228.2,159.6103241557222L228.76,159.20453052606234L229.32,159.7595905595186L229.88,161.59716183740872L230.44,158.02881641864167L231,159.78817055630319L231.56,161.09738759999055L232.11999999999998,159.95526004317153L232.67999999999998,159.70669431378096L233.23999999999998,158.33893049293548L233.79999999999998,157.53037513216606L234.35999999999999,157.8498521382825L234.92,157.75978113622764L235.48,159.42752181536736L236.04,161.08864731816521L236.6,161.96490335600419L237.16,160.48715097389723L237.72,161.7617919187671L238.28,159.54537480717457L238.84,158.25391547468638L239.4,157.67753538243375L239.96,158.86497610659836L240.51999999999998,160.9804124942508L241.07999999999998,162.52427533931055L241.64,161.55925466815543L242.2,160.53188209056805L242.76,162.06420768690077L243.32,162.48404081101398L243.88,163.1420692410182L244.44,164.25989522970383L245,162.97438783905903" style="fill: none;" fill="none"></path></g></g></g></g><g opacity="0.2"><g><g><g><path stroke="rgb(255, 112, 67)" stroke-width="2px" d="M40.599999999999994,-49.85480594635014L41.16,1.9949175119400024L41.72,-12.224210381507874L42.839999999999996,-1.2844650745391846L43.4,4.710159718990326L43.96,14.145459949970245L44.52,25.241432011127472L45.08,22.104801952838898L45.64,30.83503943681717L46.2,36.816083908081055L46.760000000000005,38.948857605457306L47.32,41.19711709022522L47.88,40.13923120498657L48.44,37.34189701080322L49,48.40787035226822L49.559999999999995,43.40662491321564L50.12,42.180072486400604L50.68,51.606553465127945L51.24,45.122665733098984L51.8,57.93205273151398L52.36,52.25844871997833L52.92,57.245676189661026L53.480000000000004,50.645997643470764L54.04,64.8621681034565L54.6,61.08775359392166L55.160000000000004,58.80694907903671L55.720000000000006,60.54873150587082L56.28,63.214028894901276L56.84,57.96610963344574L57.4,63.11302524805069L57.959999999999994,69.52849414944649L58.519999999999996,67.42563959956169L59.08,73.1778211593628L59.64,69.2123272716999L60.199999999999996,65.586036413908L60.76,70.85325193405151L61.32,71.29817989468575L61.88,69.67770528793335L62.44,80.68934407830238L63,67.4735155403614L63.56,76.00441139936447L64.12,79.67700001597404L64.68,76.66708868741989L65.24000000000001,73.63948580622673L65.8,79.30683013796806L66.36,83.55525624752045L66.92,78.59967198967934L67.48,78.43091261386871L68.03999999999999,87.52959591150284L68.6,80.40630576014519L69.16,82.84496825933456L69.72,85.13440635800362L70.28,90.17155212163925L70.84,87.78937262296677L71.4,92.019271671772L71.96000000000001,93.79245859384537L72.52,92.26475191116333L73.08,94.82545164227486L73.64,92.68655088543892L74.2,96.34882164001465L74.76,101.25004482269287L75.32000000000001,101.78752851486206L75.88000000000001,99.22204118967056L76.44000000000001,104.18733325600624L77,104.85966530442238L77.56,107.31481251120567L78.12,111.01570230722427L78.68,103.73418283462524L79.24,112.95500946044922L79.8,107.49026921391487L80.36,117.28304755687714L80.91999999999999,113.06023043394089L81.47999999999999,117.99573597311974L82.03999999999999,118.25839054584503L82.6,126.91804748773575L83.16,126.81130138039589L83.72,120.82182225584984L84.28,126.11488547921181L84.84,120.48275184631348L85.39999999999999,131.33968901634216L85.96,129.53111898899078L86.52,134.30313017964363L87.08,133.01301282644272L87.64,131.24192130565643L88.2,126.31132271885872L88.76,124.55363911390305L89.32000000000001,129.75732949376106L89.88,125.81090641021729L90.44,132.6943129003048L91,131.0285086631775L91.56,137.3589679300785L92.12,135.7474849820137L92.68,137.86609482765198L93.24000000000001,138.29886150360107L93.80000000000001,141.56335082650185L94.36,134.56723031401634L94.92,140.94118905067444L95.48,137.33696621656418L96.04,135.9142020046711L96.6,142.22027239203453L97.16,135.1705467402935L97.72,136.24937337636948L98.28,141.68626335263252L98.83999999999999,135.7541425228119L99.39999999999999,138.36157765984535L99.96,137.70610165596008L100.52,144.99620166420937L101.08,136.92409259080887L101.64,137.53235575556755L102.2,140.08139815926552L102.75999999999999,137.75986593961716L103.32,133.0641512274742L103.88,131.33498099446297L104.44,143.4813856780529L105,131.50848817825317L105.56,137.35703167319298L106.12,136.67531010508537L106.68,138.7748226225376L107.24000000000001,140.69531095027924L107.8,139.39185199141502L108.36,142.9992179274559L108.92,143.44403979182243L109.48,141.95751172304153L110.04,141.45456236600876L110.60000000000001,142.1191759109497L111.16000000000001,137.56223511695862L111.72,142.52783221006393L112.28,143.55277520418167L112.84,144.9926872253418L113.4,132.03627732396126L113.96,143.4883217215538L114.52,142.50093680620193L115.08,135.96412029862404L115.64,143.91962957382202L116.19999999999999,132.68662092089653L116.75999999999999,146.98116999864578L117.32,144.9821041226387L117.88,144.1043962240219L118.44,145.98974016308784L119,144.7633999288082L119.56,149.07691609859467L120.12,139.17007100582123L120.67999999999999,143.90001502633095L121.24,142.38450941443443L121.8,140.53806301951408L122.36,146.98553320765495L122.92,145.44082459807396L123.48,144.0886144042015L124.04,148.43130704760551L124.60000000000001,144.34028801321983L125.16,144.0614404976368L125.72,143.5163841843605L126.28,144.96222433447838L126.84,147.46908020973206L127.4,143.90139427781105L127.96000000000001,147.33577024936676L128.52,147.22704809904099L129.08,153.51074543595314L129.64000000000001,138.5077120065689L130.20000000000002,150.52445378899574L130.76000000000002,150.84580612182617L131.32,142.0767506659031L131.88,144.73809596896172L132.44,152.60957700014114L133,150.19989204406738L133.56,151.35927227139473L134.12,147.93875512480736L134.68,144.974916100502L135.24,150.5272653400898L135.79999999999998,148.06255620718002L136.35999999999999,147.9420971572399L136.92,147.57987123727798L137.48,149.09324166178703L138.04,156.59493078291416L138.6,146.0665538609028L139.16,147.99014550447464L139.72,150.45080971717834L140.28,149.43863806128502L140.84,144.44674235582352L141.4,151.7866015136242L141.96,143.78616046905518L142.52,146.22549933195114L143.08,146.83321875333786L143.64000000000001,148.57485529780388L144.20000000000002,149.2268831729889L144.76,147.69892451167107L145.32,149.34149366617203L145.88,155.49387034773827L146.44,156.03962291777134L147,148.28811687231064L147.56,152.10487705469131L148.12,147.80864131450653L148.68,155.3441685140133L149.24,148.764674782753L149.8,149.55286395549774L150.36,155.17873790860176L150.92000000000002,150.4829966723919L151.48000000000002,153.122937053442L152.04000000000002,148.0301437973976L152.60000000000002,155.21918711066246L153.16000000000003,152.40583238005638L153.72,151.97382164001465L154.28,150.0725897848606L154.84,147.78191831707954L155.4,146.2819558084011L155.96,155.27361449599266L156.52,152.24521589279175L157.08,148.74812376499176L157.64,147.76538056135178L158.2,152.96420377492905L158.76,150.11650037765503L159.32,148.92301020026207L159.88,142.43623134493828L160.44,158.03303253650665L161,151.34029430150986L161.56,148.7872865498066L162.11999999999998,158.4523647725582L162.67999999999998,156.76607732474804L163.23999999999998,149.55629882216454L163.79999999999998,159.7413084357977L164.35999999999999,149.4350042641163L164.92,153.3637888431549L165.48,153.69526010751724L166.04,151.18833792209625L166.6,154.37719386816025L167.16,147.86080089211464L167.72,158.41316883265972L168.28,151.19809877872467L168.84,148.03868454694748L169.4,154.66735389828682L169.96,155.69700491428375L170.51999999999998,153.24669834971428L171.07999999999998,156.49035964906216L171.64,153.12493962049484L172.2,148.7819419503212L172.76,160.4481217712164L173.32,157.2536427229643L173.88,151.16892230510712L174.44,150.98151651024818L175,153.6512566804886L175.56,156.46091130375862L176.12,152.754716694355L176.68,160.6381534487009L177.24,150.6238394677639L177.8,154.31084391474724L178.36,146.24789890646935L178.92000000000002,150.46033185720444L179.48000000000002,158.70380629599094L180.04,158.3585889339447L180.6,153.9553816318512L181.16,155.18050175905228L181.72,158.5578841418028L182.28,158.8338007479906L182.84,150.8679802417755L183.4,160.32440689206123L183.96,154.99814879894257L184.52,159.84711956977844L185.08,153.71659871935844L185.64000000000001,157.22079929709435L186.20000000000002,155.70326459407806L186.76000000000002,151.88516494631767L187.32000000000002,162.1486261188984L187.88000000000002,161.05305616557598L188.44,160.00359167158604L189,155.34407567977905L189.56,154.0967946946621L190.12,152.46377420425415L190.68,157.409988835454L191.24,152.4879243671894L191.8,155.18581983447075L192.36,150.050866574049L192.92,156.7593866288662L193.48,159.40781471133232L194.04,154.39537611603737L194.6,153.91403061151505L195.16,162.96042834222317L195.72,155.722043633461L196.28,151.01231095194817L196.83999999999997,157.7835803180933L197.39999999999998,155.01751136779785L197.95999999999998,152.7132065296173L198.51999999999998,153.7025674879551L199.07999999999998,157.16683608293533L199.64,160.72147217392921L200.2,156.35989439487457L200.76,157.8206808567047L201.32,155.77408385276794L201.88,157.34471973776817L202.44,157.5366014689207L203,153.76147744059563L203.56,158.5552582591772L204.12,155.27170476317406L204.68,153.28966733813286L205.24,165.36260698735714L205.79999999999998,154.47001484036446L206.35999999999999,154.05452859401703L206.92,157.68786159157753L207.48,160.44767086207867L208.04,161.1611085832119L208.6,155.96916173398495L209.16,159.71467827260494L209.72,154.12150186300278L210.28,154.61007517576218L210.84,156.51247408986092L211.4,159.0233218371868L211.96,154.98795029520988L212.52,158.1367018520832L213.08,158.65127538144588L213.64000000000001,155.76078203320503L214.20000000000002,152.99375158548355L214.76,159.93986096978188L215.32,155.30222070217133L215.88,162.50686679780483L216.44,156.75598491728306L217,152.44087067246437L217.56,159.1693567186594L218.12,161.85919550061226L218.68,158.28012411296368L219.24,161.38759095966816L219.8,160.59620563685894L220.36,151.8801651597023L220.92000000000002,156.2847052961588L221.48000000000002,161.88325946033L222.04000000000002,162.2362085878849L222.60000000000002,159.67849281430244L223.16000000000003,161.48301792144775L223.72,158.4001388847828L224.28,165.06298449635506L224.84,158.00891552865505L225.4,159.42821834981441L225.96,160.06076429784298L226.52,158.39589503407478L227.08,163.5220157802105L227.64,164.32707425951958L228.2,155.5086177289486L228.76,158.59584008157253L229.32,160.59218060970306L229.88,164.35351875424385L230.44,152.6762982904911L231,162.42720176279545L231.56,163.06121316552162L232.11999999999998,158.24206870794296L232.67999999999998,159.3338457196951L233.23999999999998,156.28728476166725L233.79999999999998,156.317542091012L234.35999999999999,158.32906764745712L234.92,157.62467463314533L235.48,161.92913283407688L236.04,163.58033557236195L236.6,163.27928741276264L237.16,158.2705224007368L237.72,163.67375333607197L238.28,156.22074913978577L238.84,156.31672647595406L239.4,156.8129652440548L239.96,160.64613719284534L240.51999999999998,164.15356707572937L241.07999999999998,164.84006960690022L241.64,160.11172366142273L242.2,158.9908232241869L242.76,164.36269608139992L243.32,163.1137904971838L243.88,164.12911188602448L244.44,165.93663421273232L245,161.0461267530918" style="fill: none;" fill="none"></path></g></g></g></g></g></g><g transform="translate(50, 178)" clip-path="url(#clip_1)"><clipPath id="clip_1"><rect width="280" height="22"></rect></clipPath><g><g><line x1="0" y1="0" x2="0" y2="5" style="visibility: inherit;" fill="rgb(0, 0, 0)" stroke="rgb(204, 204, 204)" stroke-width="1px"></line><line x1="35" y1="0" x2="35" y2="5" style="visibility: inherit;" fill="rgb(0, 0, 0)" stroke="rgb(204, 204, 204)" stroke-width="1px"></line><line x1="70" y1="0" x2="70" y2="5" style="visibility: inherit;" fill="rgb(0, 0, 0)" stroke="rgb(204, 204, 204)" stroke-width="1px"></line><line x1="105" y1="0" x2="105" y2="5" style="visibility: inherit;" fill="rgb(0, 0, 0)" stroke="rgb(204, 204, 204)" stroke-width="1px"></line><line x1="140" y1="0" x2="140" y2="5" style="visibility: inherit;" fill="rgb(0, 0, 0)" stroke="rgb(204, 204, 204)" stroke-width="1px"></line><line x1="175" y1="0" x2="175" y2="5" style="visibility: inherit;" fill="rgb(0, 0, 0)" stroke="rgb(204, 204, 204)" stroke-width="1px"></line><line x1="210" y1="0" x2="210" y2="5" style="visibility: inherit;" fill="rgb(0, 0, 0)" stroke="rgb(204, 204, 204)" stroke-width="1px"></line><line x1="245" y1="0" x2="245" y2="5" style="visibility: inherit;" fill="rgb(0, 0, 0)" stroke="rgb(204, 204, 204)" stroke-width="1px"></line><line x1="280" y1="0" x2="280" y2="5" style="visibility: inherit;" fill="rgb(0, 0, 0)" stroke="rgb(204, 204, 204)" stroke-width="1px"></line></g><g transform="translate(0, 8)"><text x="0" y="0" dx="0em" dy="0.95em" style="text-anchor: middle; visibility: hidden; font-family: Roboto, sans-serif; font-size: 12px; font-weight: 200;" fill="rgb(50, 49, 63)" stroke="none" stroke-width="1px">-50k</text><text x="35" y="0" dx="0em" dy="0.95em" style="text-anchor: middle; visibility: inherit; font-family: Roboto, sans-serif; font-size: 12px; font-weight: 200;" fill="rgb(50, 49, 63)" stroke="none" stroke-width="1px">0</text><text x="70" y="0" dx="0em" dy="0.95em" style="text-anchor: middle; visibility: inherit; font-family: Roboto, sans-serif; font-size: 12px; font-weight: 200;" fill="rgb(50, 49, 63)" stroke="none" stroke-width="1px">50k</text><text x="105" y="0" dx="0em" dy="0.95em" style="text-anchor: middle; visibility: inherit; font-family: Roboto, sans-serif; font-size: 12px; font-weight: 200;" fill="rgb(50, 49, 63)" stroke="none" stroke-width="1px">100k</text><text x="140" y="0" dx="0em" dy="0.95em" style="text-anchor: middle; visibility: inherit; font-family: Roboto, sans-serif; font-size: 12px; font-weight: 200;" fill="rgb(50, 49, 63)" stroke="none" stroke-width="1px">150k</text><text x="175" y="0" dx="0em" dy="0.95em" style="text-anchor: middle; visibility: inherit; font-family: Roboto, sans-serif; font-size: 12px; font-weight: 200;" fill="rgb(50, 49, 63)" stroke="none" stroke-width="1px">200k</text><text x="210" y="0" dx="0em" dy="0.95em" style="text-anchor: middle; visibility: inherit; font-family: Roboto, sans-serif; font-size: 12px; font-weight: 200;" fill="rgb(50, 49, 63)" stroke="none" stroke-width="1px">250k</text><text x="245" y="0" dx="0em" dy="0.95em" style="text-anchor: middle; visibility: inherit; font-family: Roboto, sans-serif; font-size: 12px; font-weight: 200;" fill="rgb(50, 49, 63)" stroke="none" stroke-width="1px">300k</text><text x="280" y="0" dx="0em" dy="0.95em" style="text-anchor: middle; visibility: hidden; font-family: Roboto, sans-serif; font-size: 12px; font-weight: 200;" fill="rgb(50, 49, 63)" stroke="none" stroke-width="1px">350k</text></g><line x1="0" y1="0" x2="280" y2="0" fill="rgb(0, 0, 0)" stroke="rgb(204, 204, 204)" stroke-width="1px"></line></g></g></g></g></svg>