<svg viewBox="0 0 330 200" xmlns="http://www.w3.org/2000/svg"><g><g><g><g><g><line x1="50" y1="178" x2="45" y2="178" style="visibility: inherit;" fill="rgb(0, 0, 0)" stroke="rgb(204, 204, 204)" stroke-width="1px"></line><line x1="50" y1="158.2222222222222" x2="45" y2="158.2222222222222" style="visibility: inherit;" fill="rgb(0, 0, 0)" stroke="rgb(204, 204, 204)" stroke-width="1px"></line><line x1="50" y1="138.44444444444446" x2="45" y2="138.44444444444446" style="visibility: inherit;" fill="rgb(0, 0, 0)" stroke="rgb(204, 204, 204)" stroke-width="1px"></line><line x1="50" y1="118.66666666666669" x2="45" y2="118.66666666666669" style="visibility: inherit;" fill="rgb(0, 0, 0)" stroke="rgb(204, 204, 204)" stroke-width="1px"></line><line x1="50" y1="98.8888888888889" x2="45" y2="98.8888888888889" style="visibility: inherit;" fill="rgb(0, 0, 0)" stroke="rgb(204, 204, 204)" stroke-width="1px"></line><line x1="50" y1="79.1111111111111" x2="45" y2="79.1111111111111" style="visibility: inherit;" fill="rgb(0, 0, 0)" stroke="rgb(204, 204, 204)" stroke-width="1px"></line><line x1="50" y1="59.33333333333334" x2="45" y2="59.33333333333334" style="visibility: inherit;" fill="rgb(0, 0, 0)" stroke="rgb(204, 204, 204)" stroke-width="1px"></line><line x1="50" y1="39.555555555555536" x2="45" y2="39.555555555555536" style="visibility: inherit;" fill="rgb(0, 0, 0)" stroke="rgb(204, 204, 204)" stroke-width="1px"></line><line x1="50" y1="19.777777777777768" x2="45" y2="19.777777777777768" style="visibility: inherit;" fill="rgb(0, 0, 0)" stroke="rgb(204, 204, 204)" stroke-width="1px"></line><line x1="50" y1="0" x2="45" y2="0" style="visibility: inherit;" fill="rgb(0, 0, 0)" stroke="rgb(204, 204, 204)" stroke-width="1px"></line></g><g transform="translate(40, 0)"><text x="0" y="178" dx="0em" dy="0.3em" style="text-anchor: end; visibility: hidden; font-family: Roboto, sans-serif; font-size: 12px; font-weight: 200;" fill="rgb(50, 49, 63)" stroke="none" stroke-width="1px">0</text><text x="0" y="158.2222222222222" dx="0em" dy="0.3em" style="text-anchor: end; visibility: inherit; font-family: Roboto, sans-serif; font-size: 12px; font-weight: 200;" fill="rgb(50, 49, 63)" stroke="none" stroke-width="1px">0.02</text><text x="0" y="138.44444444444446" dx="0em" dy="0.3em" style="text-anchor: end; visibility: hidden; font-family: Roboto, sans-serif; font-size: 12px; font-weight: 200;" fill="rgb(50, 49, 63)" stroke="none" stroke-width="1px">0.04</text><text x="0" y="118.66666666666669" dx="0em" dy="0.3em" style="text-anchor: end; visibility: inherit; font-family: Roboto, sans-serif; font-size: 12px; font-weight: 200;" fill="rgb(50, 49, 63)" stroke="none" stroke-width="1px">0.06</text><text x="0" y="98.8888888888889" dx="0em" dy="0.3em" style="text-anchor: end; visibility: hidden; font-family: Roboto, sans-serif; font-size: 12px; font-weight: 200;" fill="rgb(50, 49, 63)" stroke="none" stroke-width="1px">0.08</text><text x="0" y="79.1111111111111" dx="0em" dy="0.3em" style="text-anchor: end; visibility: inherit; font-family: Roboto, sans-serif; font-size: 12px; font-weight: 200;" fill="rgb(50, 49, 63)" stroke="none" stroke-width="1px">0.1</text><text x="0" y="59.33333333333334" dx="0em" dy="0.3em" style="text-anchor: end; visibility: hidden; font-family: Roboto, sans-serif; font-size: 12px; font-weight: 200;" fill="rgb(50, 49, 63)" stroke="none" stroke-width="1px">0.12</text><text x="0" y="39.555555555555536" dx="0em" dy="0.3em" style="text-anchor: end; visibility: inherit; font-family: Roboto, sans-serif; font-size: 12px; font-weight: 200;" fill="rgb(50, 49, 63)" stroke="none" stroke-width="1px">0.14</text><text x="0" y="19.777777777777768" dx="0em" dy="0.3em" style="text-anchor: end; visibility: hidden; font-family: Roboto, sans-serif; font-size: 12px; font-weight: 200;" fill="rgb(50, 49, 63)" stroke="none" stroke-width="1px">0.16</text><text x="0" y="0" dx="0em" dy="0.3em" style="text-anchor: end; visibility: hidden; font-family: Roboto, sans-serif; font-size: 12px; font-weight: 200;" fill="rgb(50, 49, 63)" stroke="none" stroke-width="1px">0.18</text></g><line x1="50" y1="0" x2="50" y2="178" fill="rgb(0, 0, 0)" stroke="rgb(204, 204, 204)" stroke-width="1px"></line></g></g><g transform="translate(50, 0)" clip-path="url(#clip_0)"><clipPath id="clip_0"><rect width="280" height="178"></rect></clipPath><g><g><g><line x1="0" y1="0" x2="0" y2="178" fill="rgb(0, 0, 0)" stroke="rgb(60, 60, 60)" stroke-width="1px" opacity="0.25"></line><line x1="35" y1="0" x2="35" y2="178" fill="rgb(0, 0, 0)" stroke="rgb(60, 60, 60)" stroke-width="1px" opacity="0.25"></line><line x1="70" y1="0" x2="70" y2="178" fill="rgb(0, 0, 0)" stroke="rgb(60, 60, 60)" stroke-width="1px" opacity="0.25"></line><line x1="105" y1="0" x2="105" y2="178" fill="rgb(0, 0, 0)" stroke="rgb(60, 60, 60)" stroke-width="1px" opacity="0.25"></line><line x1="140" y1="0" x2="140" y2="178" fill="rgb(0, 0, 0)" stroke="rgb(60, 60, 60)" stroke-width="1px" opacity="0.25"></line><line x1="175" y1="0" x2="175" y2="178" fill="rgb(0, 0, 0)" stroke="rgb(60, 60, 60)" stroke-width="1px" opacity="0.25"></line><line x1="210" y1="0" x2="210" y2="178" fill="rgb(0, 0, 0)" stroke="rgb(60, 60, 60)" stroke-width="1px" opacity="0.25"></line><line x1="245" y1="0" x2="245" y2="178" fill="rgb(0, 0, 0)" stroke="rgb(60, 60, 60)" stroke-width="1px" opacity="0.25"></line><line x1="280" y1="0" x2="280" y2="178" fill="rgb(0, 0, 0)" stroke="rgb(60, 60, 60)" stroke-width="1px" opacity="0.25"></line></g><g><line x1="0" y1="178" x2="280" y2="178" fill="rgb(0, 0, 0)" stroke="rgb(60, 60, 60)" stroke-width="1px" opacity="0.25"></line><line x1="0" y1="158.2222222222222" x2="280" y2="158.2222222222222" fill="rgb(0, 0, 0)" stroke="rgb(60, 60, 60)" stroke-width="1px" opacity="0.25"></line><line x1="0" y1="138.44444444444446" x2="280" y2="138.44444444444446" fill="rgb(0, 0, 0)" stroke="rgb(60, 60, 60)" stroke-width="1px" opacity="0.25"></line><line x1="0" y1="118.66666666666669" x2="280" y2="118.66666666666669" fill="rgb(0, 0, 0)" stroke="rgb(60, 60, 60)" stroke-width="1px" opacity="0.25"></line><line x1="0" y1="98.8888888888889" x2="280" y2="98.8888888888889" fill="rgb(0, 0, 0)" stroke="rgb(60, 60, 60)" stroke-width="1px" opacity="0.25"></line><line x1="0" y1="79.1111111111111" x2="280" y2="79.1111111111111" fill="rgb(0, 0, 0)" stroke="rgb(60, 60, 60)" stroke-width="1px" opacity="0.25"></line><line x1="0" y1="59.33333333333334" x2="280" y2="59.33333333333334" fill="rgb(0, 0, 0)" stroke="rgb(60, 60, 60)" stroke-width="1px" opacity="0.25"></line><line x1="0" y1="39.555555555555536" x2="280" y2="39.555555555555536" fill="rgb(0, 0, 0)" stroke="rgb(60, 60, 60)" stroke-width="1px" opacity="0.25"></line><line x1="0" y1="19.777777777777768" x2="280" y2="19.777777777777768" fill="rgb(0, 0, 0)" stroke="rgb(60, 60, 60)" stroke-width="1px" opacity="0.25"></line><line x1="0" y1="0" x2="280" y2="0" fill="rgb(0, 0, 0)" stroke="rgb(60, 60, 60)" stroke-width="1px" opacity="0.25"></line></g></g></g><g><g><line x1="0" y1="178" x2="280" y2="178" fill="rgb(0, 0, 0)" stroke="rgb(153, 153, 153)" stroke-width="1.5px"></line></g></g><g><g><line x1="35" y1="0" x2="35" y2="178" fill="rgb(0, 0, 0)" stroke="rgb(153, 153, 153)" stroke-width="1.5px"></line></g></g><g><g><g><g><g><path stroke="rgb(255, 112, 67)" stroke-width="2px" d="M44.352000000000004,-0.06540023807683282L44.5816,7.178138359738447L45.3432,10.13017424343546L45.63440000000001,11.172414212491363L45.6904,7.745676489760181L45.864,5.43619934378108L45.976000000000006,9.082947850844572L45.9816,15.582985043902855L46.6424,27.569264075724995L48.2104,42.77277031833627L48.641600000000004,49.93408241646469L48.6696,47.349229982821356L48.7872,50.20811852891958L48.804,53.33357125634464L49.016799999999996,53.86552857626187L49.431200000000004,47.16653211475623L49.4368,52.82543618152605L49.5544,50.6800012429758L49.756,51.37926321931574L49.800799999999995,50.46867381425104L50.0304,57.65435386765178L50.080799999999996,58.45799236139561L50.16480000000001,64.04894062265299L50.2152,62.545317274637284L50.422399999999996,65.20731770599983L50.5008,59.85905842015869L50.596,60.13254779727428L50.74720000000001,57.67170777013602L50.926399999999994,56.52592055586731L51.0216,63.930053963455755L51.6488,70.30513057230174L52.2648,68.99476647381273L52.2704,65.9500207689329L52.3824,62.60158782854553L52.388,57.951226114494176L52.612,62.65108140265698L52.9144,67.25180864042825L53.0152,69.68336128881315L53.1496,70.90267740436174L53.284,75.75932532729706L53.3008,75.68104567768705L53.793600000000005,80.4180912188575L54.062400000000004,77.8590872281589L54.5048,71.94889070156006L54.6,74.37130084439455L54.7456,73.79159468097093L54.9696,80.07390652573334L55.160000000000004,81.06812471700115L55.2496,79.92495976485918L55.4624,78.79147895268798L55.5016,74.76867724844469L55.540800000000004,80.94377791384716L55.5576,83.60354841252084L55.664,79.46174518432831L55.7872,79.74247800873354L56.1792,79.74255471501067L56.5488,75.93569277369964L56.924,81.2912259802526L57.0248,76.33723163967497L57.26,70.98785425377325L57.4672,72.75250712657764L57.528800000000004,77.24750940311164L57.870400000000004,83.50529602287469L58.010400000000004,82.60637939510364L58.0776,80.91102216829101L58.0944,80.38643932720234L58.2176,81.29801806835458L58.4136,86.03412634217285L58.4752,83.85859606183361L58.6712,85.79266513430483L58.8392,85.1117881691394L59.1808,87.34801501567789L59.2368,82.398811242859L59.9424,79.34821669505197L60.396,81.2591120244499L60.4184,87.47316356879423L60.5584,91.6040146916691L60.8272,92.02612329805062L61.034400000000005,95.17498842978311L61.263999999999996,88.36083575549026L61.3088,92.6273928140009L61.3592,92.94527714311839L61.488,95.11444968100244L61.751200000000004,92.91471448013696L62.059200000000004,95.61907237518206L62.0816,100.05773256204883L62.1264,90.61170483817077L62.3392,99.44542627513721L62.496,90.85354057075106L63.4424,93.80979594395805L63.492799999999995,93.8482003008367L63.504,96.07155572808699L63.739200000000004,96.27211308541048L63.7616,96.63146470822183L63.868,96.22427880203433L64.0472,93.37087731422409L64.12,92.2448797860098L64.26,89.68897837629034L64.33279999999999,96.19146061080762L64.4168,97.00892301217888L64.4672,96.97745396981345L64.652,92.0238435709525L64.7864,91.39531146682926L65.0272,93.29449646921861L65.2568,92.47765418375013L65.492,97.9341886218126L65.5424,105.88468982962515L65.8504,100.33263563824342L66.73519999999999,96.8506521154866L67.08800000000001,93.92130334062595L67.2448,95.15533474283018L67.6592,97.09437616849566L67.8496,99.79700441602972L67.9224,105.65362608233886L68.3536,105.16051103684518L68.4936,100.00709512374064L68.58319999999999,106.02342784065097L68.8968,104.47353904440854L69.2216,110.18902359270633L69.3728,113.36081720641734L69.3952,108.11357667264893L69.86,109.833156042601L69.9608,106.58729371360594L70.1624,111.14360719944693L70.4592,107.77429001081713L70.4704,102.90766049553193L70.6048,101.83108480782188L70.6104,100.4184671349644L70.6384,106.72152562781092L70.6664,100.65261697941041L71.55680000000001,100.72800971637642L71.68560000000001,100.6204578917121L71.75840000000001,101.68051481623158L71.7864,106.40783029887962L71.87599999999999,102.08929654018415L71.904,105.83213525514272L71.95439999999999,110.04035566946148L72.044,109.0956703029093L72.36880000000001,103.09314353345601L72.688,102.39178073784306L72.8,105.63419310213814L73.0912,111.57787394831922L73.3152,112.32612285269177L73.36,113.52126492876205L73.7296,115.84980365128354L73.7464,116.25937987792447L74.1496,112.2639169976788L74.1776,114.74205011441374L74.18879999999999,111.22761234099771L74.5024,110.22833056456244L74.85520000000001,112.39040903439626L74.87200000000001,107.63604583853784L74.90559999999999,108.92426210021225L75.11840000000001,112.82448986462568L75.3592,114.25740617952502L75.61680000000001,118.73563548854709L75.7344,123.2853361907174L75.9248,116.5925039402851L76.0928,116.18347942676728L76.1768,113.83925361541857L76.2552,117.44896734818587L76.64160000000001,121.02886874714356L76.7984,116.62188598258612L76.82079999999999,119.37272542826987L76.832,116.85144575106696L77.03359999999999,113.18217404882667L77.10079999999999,109.97761522518594L77.2408,113.38187038307917L77.5208,109.67673774735782L77.58239999999999,107.43090051650331L77.80640000000001,112.9771475806196L77.896,118.89293007472644L78.27120000000001,123.91158384732101L78.28800000000001,123.23859352990338L78.4336,120.9359001286289L78.6464,125.06208910416994L78.652,124.13260446511565L78.7976,117.17781711731074L78.988,116.60588150555785L79.21199999999999,116.87278399269718L79.7216,120.18248897301385L80.4832,122.05609600184034L80.60640000000001,124.43726080122194L81.0096,122.12422134820845L81.3512,126.47073148627948L81.42960000000001,128.94839850628298L81.4576,126.02979032269802L81.91120000000001,126.08357343120386L82.02319999999999,126.18520962555348L82.54960000000001,123.19156338389203L82.8688,123.67570861481254L82.9024,129.24555487548218L83.2608,125.92958586218236L83.4904,125.855386899061L83.51280000000001,128.7485435005905L83.68639999999999,133.7826919216046L83.85440000000001,135.52933908318917L84.01119999999999,133.26223750534257L84.1456,133.30954100662032L84.1568,133.69162006627323L84.4088,132.33261816306722L84.4648,131.8089876515563L84.672,131.83381933825586L84.71119999999999,129.58566138328206L84.9352,134.45783325740354L85.316,133.90050538472195L85.4336,133.3290822312744L85.5848,135.45605661703217L85.7248,135.9469387783591L86.0776,136.0138105351783L86.2512,139.10263636570184L86.58720000000001,138.53904267665354L86.8112,132.5156604896979L87.0296,133.41555877631882L87.0968,134.65214647184067L87.1472,133.04481680126474L87.2312,135.23207788823933L87.33200000000001,129.44281160462566L87.41040000000001,129.77408208095895L87.4832,129.83144161886293L87.5672,133.09683203238706L87.95360000000001,133.36501113166156L88.41279999999999,131.45787393206206L88.4632,133.44543997074803L88.5696,133.3674929974018L89.15759999999999,132.74540748687483L89.1632,129.9458833677418L89.3872,131.93265992459737L89.6168,132.16541519463973L89.6224,125.5509298538554L89.7232,131.6358885583513L89.9528,124.59159669316541L90.08720000000001,125.52858546133211L90.16,129.8644785555193L90.2552,126.43126312592227L90.4064,131.04915231551556L90.5352,134.52477616983813L90.70880000000001,140.2360412688808L90.7144,137.27963258296788L90.72,134.80502004970103L90.776,130.32998964054116L90.84880000000001,129.83237877604998L90.88239999999999,134.56529365914315L90.96079999999999,131.69055614897624L91.3528,132.41164226284369L91.50399999999999,131.63571008613152L91.6776,127.6223667397327L91.7728,132.65170320343998L92.0696,129.42747156371559L92.1648,123.06024230384095L92.204,120.23249427462243L92.5064,119.29776843578392L92.568,119.96589315514893L92.91520000000001,127.8018176000848L92.93199999999999,132.4222071486964L92.9376,130.66854650420802L93.21199999999999,131.8056657577791L93.49199999999999,130.50456926085647L93.5256,132.8505742660647L93.5312,132.14328963427656L93.5648,135.06732590517748L93.8056,137.98597148437776L93.9008,138.24951527874688L94.14160000000001,131.8740506690404L94.3376,133.20381861789326L94.54480000000001,134.3910025886494L94.60079999999999,136.08874836753594L94.612,136.58961805086471L94.9592,135.5651124149099L95.0152,134.5426619202946L95.0544,135.49117771558954L96.72879999999999,134.6716771377172L96.7568,132.80167723018204L96.80160000000001,135.25378204177784L96.9024,138.616974204195L97.1264,139.29957513840412L97.2608,140.30831879144426L97.2944,141.77650781796353L97.55199999999999,141.51819929741077L97.7872,130.69804601891855L97.8208,136.50679953576204L97.8656,137.05755855449684L98.4536,138.26473605320044L98.80640000000001,142.11377804025457L98.8904,136.98106874618264L99.0808,137.43431773738064L99.18159999999999,133.39653358896837L99.8368,137.86440014333354L100.02159999999999,132.33768816021907L100.4976,138.48436793026028L100.7216,131.80157761509568L100.8336,130.13902252887235L100.884,132.45603118788594L101.0016,133.1708142810812L101.18639999999999,134.83967247727017L101.3432,137.2814475801935L101.4552,138.45688161960013L101.5056,136.0339068521373L101.948,132.76253378155374L102.0432,129.68168810000876L102.35119999999999,134.750670607168L102.6256,136.35360249330643L103.17999999999999,132.5386571480502L103.20240000000001,136.73281878989948L103.51599999999999,139.44471268180882L103.7176,141.593835286243L103.8912,143.35571132219428L103.9696,141.21330506076373L104.1824,138.92031809769048L104.40639999999999,139.8605013474741L104.42880000000001,140.8484570454509L104.44,137.4914977665647L104.5576,141.086630398983L104.5632,139.9847789211133L104.6472,137.11750666451144L104.7144,135.880009528243L104.8656,133.40447881461455L104.8768,134.53502133539746L104.88799999999999,134.70660896994198L105.3024,137.8593709701152L105.5656,138.93108821580586L105.8288,132.07803707190882L106.1648,136.48515020530542L107.24560000000001,141.06190855336857L107.268,140.36640104207333L107.4864,143.5940080248491L107.64320000000001,136.29744210553557L107.6656,133.28315198846096L107.9344,133.87052488118204L108.06880000000001,134.5518087341442L108.3152,135.87986194588402L108.8528,134.23673022089994L109.2616,137.58585037634595L109.5024,139.13895084766045L109.7544,137.51982362851L109.9728,143.5622264090912L110.1408,145.68549670341034L110.348,137.9402792626366L110.7232,142.02438093466034L110.88000000000001,143.64986683142334L110.9248,140.979930801464L111.2888,138.47903171641667L111.3952,133.12675420652982L111.42320000000001,129.48177225450704L112.2912,133.82122426002573L112.5544,135.98205848331196L112.92960000000001,140.93567231440178L113.2376,139.47244635574864L113.28800000000001,136.95191657554813L113.4336,137.0917828361891L113.6576,135.03613431338684L114.3912,134.25400799165695L114.4528,141.92081953178166L114.55359999999999,143.6447655749406L114.8448,142.9144148239081L114.884,141.7250265888192L115.3824,138.2519328740329L115.4216,137.33041430595063L115.6344,136.8716577084481L115.668,138.8106800107464L115.74640000000001,136.3865144100106L115.79679999999999,137.8233195921901L116.396,142.0593524279204L116.6312,146.31954747119258L116.8888,142.22010858331018L117.012,139.5388956137929L117.572,138.38087656574714L117.98639999999999,141.89803244292432L118.1656,144.8158327672728L118.2384,138.83889331224648L118.2608,138.4893613240638L118.55760000000001,137.60128911954607L118.58,135.90647799942363L118.664,141.74193887184808L119.1064,142.17818779245795L119.364,140.16863708725376L119.36959999999999,142.51631528025018L119.392,146.66131439935256L119.61600000000001,143.31781116206102L119.6944,142.33939598117132L119.77279999999999,141.59757304789272L119.85679999999999,140.33583126492954L120.036,139.35993611895302L120.11439999999999,133.5994754756486L120.8704,140.6319372672171L121.02720000000001,144.47457071420203L121.0776,145.95875495141735L121.3464,142.1247758528881L121.4696,138.63924003542553L121.5536,141.59196498666194L121.58720000000001,147.1402417517807L121.744,145.9404304184778L122.416,144.2617516472894L122.5728,145.36997870998002L122.9872,145.16742470898083L123.0432,140.3385865789921L123.256,137.9771685813562L123.4408,134.24595148187387L123.592,139.4529209851514L123.8888,141.3517460536534L124.1632,136.59935473140192L124.77919999999999,136.2642213282486L125.0256,132.8543156650166L125.2552,135.1660981621908L125.636,135.47391369222998L125.6416,136.73493343692L125.9384,141.88286022570978L125.9496,140.73263054691768L126.3528,145.6895999450996L126.5376,139.4651607596585L126.79520000000001,144.1782909953818L126.9016,143.1012363249595L126.9912,143.52628995597902L128.6936,145.7443381197485L128.716,146.51423457711996L129.2704,142.39046409663263L129.4496,148.53905071313534L129.528,147.88343968885354L129.5448,141.94400414432084L129.6792,144.78892430295213L129.9032,147.9010838880585L130.2112,144.00454001512804L130.2896,143.17061817313572L130.5024,142.24022152952887L130.6256,146.67457329524413L130.87199999999999,146.90119451194056L130.9056,144.13404622752233L130.9112,135.10251423366125L131.0008,142.98498874162655L131.068,137.04434380617087L131.4824,140.8382472820925L131.6,145.73928209411187L131.6728,144.15160154859475L131.7288,143.36916426687918L132.40640000000002,144.88978643008426L132.6136,147.70371429264227L133.3528,144.93978681647584L133.7392,139.30702877730414L133.7448,132.02544351896483L133.9576,136.18578056979678L134.05280000000002,134.1568782544113L134.1032,139.19055802519978L134.2936,134.76424903608876L134.5008,137.4724581151788L135.0888,141.76834457673138L135.1336,150.17809991125768L135.156,147.71704501228896L135.436,149.4967658750589L135.828,145.91390091638684L136.2928,143.62091072012868L136.4104,147.05483470127913L136.4776,151.67291517846675L136.5224,148.33059819548396L136.5448,149.75142930022983L136.5672,146.41158994015652L136.9592,139.62138455562416L137.3456,141.8792560405689L137.6592,143.39821890105418L138.06799999999998,141.13666247923274L138.2024,136.68241754994915L138.2864,141.17030106844842L138.4208,140.1949656531288L138.49360000000001,144.9856976537285L138.544,145.22584462573394L138.7232,141.9798092959274L139.2496,143.28253861971393L139.3504,143.4053773339386L139.412,144.62993772296215L140.0448,142.2636111982749L140.0504,145.52903972713668L140.084,141.23116188700772L140.10080000000002,138.38530983136891L140.168,143.47264196539007L140.252,146.22456630076087L140.86239999999998,145.46963069375755L141.3496,146.4078765328246L141.6184,143.5195794949244L141.9544,134.7624787128223L142.0104,141.38036407514596L142.0328,149.43203665505362L142.0384,149.04557867494862L142.57039999999998,149.69734580869724L142.95680000000002,150.03666352861276L143.1864,151.01425885173902L143.5112,150.6032422046655L143.6736,149.33940846255845L143.75199999999998,150.8910081600367L144.1888,142.44160424760295L144.2056,145.15870295817442L144.4576,145.21838376832878L144.8552,138.1966994717491L144.94480000000001,135.04091020380756L145.0624,139.19993252992478L146.1096,135.09633342819652L146.2216,141.47261711893822L146.412,142.47936603059046L146.5016,142.88808478094938L146.5632,139.58645591245772L146.8992,143.88805381288802L146.92159999999998,141.54839217296978L146.9944,138.42987467824463L147.0784,145.3848309088491L147.7504,143.1651059204915L148.7416,144.93912422677684L149.02720000000002,142.1975953739135L149.2064,142.47061271171594L149.2568,146.31018430412308L149.3632,145.12897136594484L149.46400000000003,145.67827125593732L149.7608,142.3585639661169L149.87279999999998,142.15304708607027L149.99599999999998,141.06290819455734L150.1248,141.64090166018138L150.22,142.83177901554873L150.23680000000002,144.67128099417616L150.2536,148.19072346604094L150.46079999999998,140.68742058306668L150.61759999999998,147.27667047425615L150.7184,147.5175576111347L150.7296,145.9934571591088L151.256,146.90469704180043L151.4072,136.4695990231181L151.5528,134.29642940639724L151.6928,139.32520903065034L151.7096,146.76010509512693L152.3032,143.98924630856303L152.32559999999998,145.6363156939759L152.4096,145.76368336774857L152.42079999999999,141.89413032404684L152.4488,142.47916362434555L152.48239999999998,144.11920168250757L152.60000000000002,145.8292331727012L152.8016,150.94130225933245L152.8912,148.71123884758012L153.3224,145.71099204802906L153.524,147.92669084989996L153.56879999999998,150.93094065548033L153.6024,146.65204879035517L153.74800000000002,146.2931988441346L153.7704,145.61532388482212L153.90480000000002,133.8011650450915L153.96640000000002,136.39939307617485L154.0952,136.31135627165506L154.3416,139.53508017382066L154.784,140.77494096708918L154.94639999999998,137.61956173219525L155.204,144.5682438912287L155.85920000000002,146.6211479877144L155.8704,144.7563397260003L155.9208,144.6041155466996L155.9432,140.96822704067534L155.9488,144.0642877351684L155.988,142.56923935931908L156.07760000000002,139.21368278205253L156.3856,141.6115148314229L156.39679999999998,145.3312447672786L156.632,136.9433937592726L156.7104,139.62544084198467L157.1472,141.06285944810492L157.332,142.59801252357087L158.5528,139.29992693732004L158.68720000000002,145.37615841834307L158.8384,143.30282883437278L158.9616,146.13736096675277L159.0176,145.70191809925484L159.10719999999998,146.97104978067176L159.48239999999998,147.02959386211134L159.72879999999998,146.8967301331053L159.796,151.51789143309864L159.9192,152.64755046674466L160.3168,148.8993956710098L160.328,146.1969353549135L160.53519999999997,145.64228955528517L160.804,144.53464861418962L161.07840000000002,145.11218463007307L161.1792,137.72335556123872L161.37519999999998,140.36962629408833L161.5824,143.43073360453764L162.1312,138.71812327635055L162.43359999999998,137.69574528825672L162.5736,140.97713900674154L163.35760000000002,142.1345686651726L163.5088,146.09617113694307L164.0968,142.5393820336281L164.1248,144.6706511416526L164.19760000000002,140.44840953976856L164.32639999999998,141.11968466181128L164.3936,148.48970837880975L165.2672,149.7239283624015L165.46880000000002,152.82207709169714L165.648,150.44117969774337L166.0736,151.88913211261445L166.07920000000001,152.21102445543931L166.6,152.74704899952818L167.0984,148.64283360513983L167.1096,139.43324042376972L167.412,140.4510322412874L167.42880000000002,143.26124873664136L167.8208,143.0583780574503L168.3752,143.83546344379135L169.1312,142.10448749559185L169.54559999999998,146.24189749676225L169.792,140.17253414847065L169.82559999999998,140.7496588710404L170.632,142.65874793695812L171.3936,144.02642295632538L171.5168,138.640238636642L171.58960000000002,140.2465222726387L171.836,148.22691091299785L172.02640000000002,146.86472798626068L172.0488,147.50415314082568L172.1552,147.86208651966413L172.7936,148.45722966429858L172.9616,147.29680442501135L173.3424,139.40770271168898L173.4208,148.03782695712033L173.6448,140.97720338280496L173.98080000000002,143.89273738422622L174.0368,149.2617286778342L174.0984,147.29847367029495L174.1208,149.82567346876857L174.3,148.76358511817057L174.3392,141.97273458238732L174.4568,144.26135307369407L174.65279999999998,142.7384091916084L174.7648,140.2860347881688L174.77599999999998,148.72735979088785L174.8712,147.62463286873881L174.9496,141.8518193339074L175.2968,140.41870768052257L175.308,136.61991660438463L175.62720000000002,136.36030229911697L176.0472,141.1833287426958L176.3944,139.32603364614755L177.22879999999998,136.41889637831383L177.4864,141.45380008095623L177.61520000000002,140.5775523078886L178.4272,144.9920643590028L178.6344,143.10388888451268L178.7016,147.96360729985454L178.8472,142.96883726628434L178.93679999999998,146.45586813562863L178.948,147.22722422656997L178.99280000000002,150.55327627705088L179.004,155.24209495274158L179.2392,153.47170689436552L179.55839999999998,155.29003046061914L179.6424,153.63290728592665L179.648,153.52114508295995L180.07920000000001,149.38319017867545L180.1352,147.32327127882022L180.2024,151.4303817652024L180.544,156.51601017114996L180.9136,153.38066297165372L180.964,148.87346077265101L181.14319999999998,145.58096237494934L181.1936,147.784899611029L181.23839999999998,143.70217212231802L181.2832,144.2842129016761L181.4568,149.250216458265L181.468,152.99652474431304L182.07279999999997,150.5949472843097L182.22400000000002,150.22178680152612L182.2968,150.43674372438477L182.308,152.05384844259086L182.3584,142.55798781013556L182.7112,147.27881326103514L182.9576,149.2405580430685L182.9856,141.5893418447516L183.68,143.96698330678592L183.8872,146.69557716054547L183.9152,146.02028648285432L183.9432,141.92657954828957L184.128,143.6044480330634L184.21759999999998,144.22306602956183L184.4136,144.42082689858273L184.46959999999999,149.96170042979134L184.4808,146.70157409657816L184.5032,139.74766120019754L184.52560000000003,141.1528694068914L184.8168,147.86203265832353L185.1584,146.41662130674945L185.164,148.17010113748645L185.1696,144.25640774791415L185.7184,144.3157267472643L186.032,144.314053306404L186.2784,144.4719696624285L186.36239999999998,144.83297542763322L186.4688,141.53354857517158L186.5304,145.23299432488008L186.7824,143.32975049696068L186.8888,143.05817524720254L186.98399999999998,146.24590348148425L187.9248,150.71496904161023L188.2552,144.58017471127908L188.6752,145.72943237572167L188.692,148.69672206530524L188.7424,149.64343561424545L189.1176,151.8171202383065L189.2072,151.1229702348485L189.2408,153.62491226484227L189.7056,152.03230884314155L189.728,152.951300591406L189.8456,147.66387542629184L190.14800000000002,148.0509869475467L190.5568,145.06657122091272L190.6352,145.75326816217262L190.82,149.27843300785318L190.8648,148.96946649423657L191.2064,148.69811324380686L191.2176,146.96076858104973L191.3352,141.6619887686805L191.6488,141.09883675597325L191.8336,139.1638548537095L192.052,143.8101989118655L192.3712,148.29528259963195L192.9368,147.48348054129124L193.0432,145.53427190551767L193.8328,143.05387428848377L194.3312,139.88110696344634L194.376,147.1395076504161L194.684,145.01190990883305L194.79039999999998,148.7778408902246L195.076,147.97744386723454L195.244,152.50070932207993L195.3168,152.0885545924547L196.2352,148.99236330083465L196.2464,147.5995830007547L196.5824,151.46734066852852L196.7392,145.659174793588L197.2432,145.14992634406633L197.2544,149.57551929855248L197.3104,147.23274768361458L197.7192,147.45483207319913L198.06640000000002,146.88216161167134L198.1056,147.0992361131109L198.29600000000002,150.16780515945734L198.8504,146.77874613929527L199.13600000000002,146.89498320232406L199.3768,143.6905459914573L199.66240000000002,146.54542659710322L199.8136,150.25389166203755L199.9872,150.9674518037164L200.0152,143.01701606217298L200.144,143.86791907491252L200.56400000000002,141.62610855875923L200.872,144.33122811225164L200.9616,144.87579444419276L201.15759999999997,141.87911728510485L201.19119999999998,148.26433822075728L201.2584,148.31062420973635L201.7904,145.13982689110776L201.8296,143.78646152188716L201.9248,146.66662409784598L202.05360000000002,147.3784394939342L202.14880000000002,141.67997524947847L202.2944,144.63114207009363L202.7928,141.96187545072968L202.8544,144.1979427343656L202.99439999999998,150.12753642701074L203.308,151.19472328121574L203.3752,148.02370601406096L203.448,145.45587942308424L204.12,147.55970004416582L204.36079999999998,145.64402238988458L204.42239999999998,145.11726532126283L204.43359999999998,148.77421790970917L204.456,150.15310890278684L204.68,150.65578744591156L204.8648,145.8857196304718L204.9544,147.2882279995526L205.3688,144.9312097893225L206.4384,148.1003333141049L206.864,150.6066313063884L206.9368,149.7875907280846L207.0152,152.93520647372958L207.2056,150.72203526945603L207.7656,153.0239577366016L207.99519999999998,153.40557827888537L208.1464,151.50614969402386L208.2864,147.6150685616523L208.3368,152.65780617405116L208.3704,150.89945898750244L208.4152,144.92011913636617L208.45440000000002,148.00034736183855L208.6336,148.3422164283118L208.79600000000002,151.70613909931507L209.26080000000002,151.15327396793083L209.7816,140.32994179740632L209.9664,147.983607184447L210.3584,143.73623083459103L210.4872,142.35798202080255L210.7056,147.49496475994886L210.896,142.23391779148758L211.2264,145.7998519483259L211.2768,148.05851950173547L211.78640000000001,148.0572343076764L211.9992,144.47353697253257L212.1224,148.70811017910435L212.296,151.35741710897165L212.4976,152.5319136183281L212.52,153.0829340272968L212.5648,153.2102754018997L212.9176,150.37173905651207L212.9344,147.84295988488458L213.5224,144.5207075242694L213.58960000000002,149.64741695410981L213.65120000000002,147.2108743153564L213.7408,147.42270724219063L213.8192,148.7962414236054L213.93679999999998,150.2769379483373L214.0656,146.99763659503992L214.1664,152.41053212868002L214.27839999999998,144.6822686895274L215.1688,141.77736608810483L215.36479999999997,148.18911333590435L215.6224,150.7436689538341L217.03920000000002,151.63429592399618L217.1176,153.50090599367314L217.38639999999998,154.1931559839405L217.6496,147.97299341749493L218.0752,149.74501404863074L218.37759999999997,141.1766171563422L218.7416,143.7615821760813L218.74720000000002,147.4960923712603L218.81439999999998,145.54920974698572L218.82,150.4784400449476L219.25119999999998,145.8145867253445L219.2848,149.36811755588266L219.6096,150.60146509933176L219.7216,147.14754784236305L219.86720000000003,148.49586199069657L220.0632,145.77342736794003L220.83599999999998,150.345542449528L221.06,140.1665284930975L221.312,141.9122641788178L221.36239999999998,143.0552275966027L221.76559999999998,150.53127950737058L222.0008,151.29142052251936L222.0848,154.55749204249486L222.1128,150.5186840642967L222.1856,148.22135765052704L222.2696,149.69997441025035L223.7256,149.05854480648247L223.7704,152.04823503570944L224,149.73768190217993L224.0056,151.29208511051658L224.19039999999998,153.7135737498165L224.2968,150.6545765302979L224.448,141.8732485885198L224.6104,145.19535101607758L224.6384,146.29813544610994L224.64960000000002,147.04054610062886L224.7616,148.85286091808692L225.45600000000002,153.07021053757796L225.51760000000002,148.4598058542535L225.8872,146.9691216318364L225.8984,150.0994597515596L225.9992,148.9487232239392L226.1952,150.66821897885612L226.5032,150.7695847844102L226.9456,146.94256474346028L226.9736,152.14819361662268L227.4384,151.47494473527442L227.9984,156.34525159281833L228.06,152.8092660053181L228.1944,148.39252061772655L228.70399999999998,141.9041034560434L228.7152,148.39958120140292L228.88320000000002,148.99119401757963L228.8888,145.59644110405804L229.14079999999998,149.12946363597396L229.5496,152.086855614042L229.9416,148.7190743668014L230.18800000000002,149.61970593365172L230.3112,151.41976291304778L230.4904,154.23229020985863L230.61360000000002,149.94396378091713L230.6528,146.96058461296934L230.7032,151.45227324866946L230.7144,151.33556366637896L230.7256,150.64248169069816L230.81519999999998,152.6570504403432L231.112,141.86635686137197L231.2576,143.9499898497272L231.42000000000002,143.62701102426368L231.6384,145.09231148294373L231.784,149.7874628495414L231.9688,151.09792625222704L232.21519999999998,153.5267962885081L232.3216,151.17156071894445L233.1112,150.00251005020252L233.4752,148.5249338761559L233.5984,142.72326637798096L233.66,142.7178779333445L233.6712,142.24071873298297L233.6824,149.7503334933778L233.9456,147.29274127012056L234.0856,146.06538581922987L234.2424,146.85718245186942L234.2928,146.891837878298L234.556,145.40318921866952L234.6568,145.65173143079974L234.81920000000002,147.88423085436548L234.94240000000002,148.47962875566742L235.2784,147.71347600726074L235.75439999999998,143.2503949467143L235.8944,146.65865334752004L236.1128,146.1177866816158L236.30880000000002,150.89024263611577L236.6,152.37553821664403L236.6448,149.1087099995561L237.2888,150.52838924909386L237.3504,148.0024924433647L237.39520000000002,145.65199441583798L237.6416,144.42470429330837L238.06719999999999,150.53128750781744L238.11759999999998,154.71415133472598L239.0864,157.03409066880204L239.1144,156.4577172615529L239.4056,155.941829004656L239.5568,151.44147505686922L239.9264,153.36473173627337L239.9376,150.575768257884L239.9936,149.4645265096671L240.0272,150.19280518252467L240.1336,152.53136157951707L240.16160000000002,152.83334067474314L240.16719999999998,153.47301504816912L240.32399999999998,155.27778761536328L240.44160000000002,151.64297598968218L240.4864,145.00449116583164L240.68800000000002,149.81985839241045L241.3264,146.2838187623684L241.4384,140.63853605639923L241.5616,141.71668720541257L241.5728,141.69151845487008L241.58960000000002,146.92112631712254L241.6568,143.56000025870077L241.7352,147.43631729729643L241.8472,146.08466720993587L241.8752,151.0363313030782L241.892,152.59836469288828L242.1776,149.9727180704577L242.564,148.02080033716842L242.6424,143.9907339874079L242.6872,138.26395681678278L242.84959999999998,141.51167392969873L243.1632,147.44241393948045L243.2192,145.25408876876037L243.3424,146.4572955912749L244.2552,144.49958972147834L244.9888,138.66796778381243L245.0504,134.60906714774725" style="fill: none;" fill="none"></path></g></g></g></g><g opacity="0.2"><g><g><g><path stroke="rgb(255, 112, 67)" stroke-width="2px" d="M43.6688,-148.3150152232912L43.6856,9.687510510285682L43.763999999999996,-19.833437058660735L44.111200000000004,12.733755389849339L44.156,8.17344309224022L44.352000000000004,8.979804197947178L44.5816,18.043446256054764L45.3432,14.558228068881549L45.63440000000001,12.735774166054192L45.6904,2.6055699057049178L45.864,1.9719836248291776L45.976000000000006,14.553070611423912L45.9816,25.333040833473206L46.6424,45.54868262343937L48.2104,65.57802968223888L48.641600000000004,60.6760505636533L48.6696,43.4719513323572L48.7872,54.49645134806633L48.804,58.02175034748182L49.016799999999996,54.66346455613771L49.431200000000004,37.118037422498055L49.4368,61.31379228168064L49.5544,47.46184883515039L49.756,52.428156183825585L49.800799999999995,49.102789706654015L50.0304,68.43287394775284L50.080799999999996,59.66345010201135L50.16480000000001,72.43536301453906L50.2152,60.289882252613694L50.422399999999996,69.20031835304366L50.5008,51.836669491397L50.596,60.54278186294767L50.74720000000001,53.9804477294286L50.926399999999994,54.807239734464225L51.0216,75.03625407483842L51.6488,79.8677454855707L52.2648,67.02922032607925L52.2704,61.38290221161312L52.3824,57.578938417964515L52.388,50.97568354341718L52.612,69.70086433490115L52.9144,74.15289949708516L53.0152,73.33069026139047L53.1496,72.73165157768462L53.284,83.04429721170003L53.3008,75.56362620327208L53.793600000000005,87.52365953061316L54.062400000000004,74.02058124211099L54.5048,63.083595911661774L54.6,78.0049160586463L54.7456,72.92203543583551L54.9696,89.49737429287697L55.160000000000004,82.55945200390285L55.2496,78.21021233664618L55.4624,77.09125773443115L55.5016,68.73447469207976L55.540800000000004,90.20642891195084L55.5576,87.59320416053134L55.664,73.24904034203952L55.7872,80.1635772453414L56.1792,79.74266977442635L56.5488,70.22539986173311L56.924,89.32452579008209L57.0248,68.90624012880856L57.26,62.963788174920616L57.4672,75.39948643578423L57.528800000000004,83.99001281791264L57.870400000000004,92.8919759525193L58.010400000000004,81.25800445344713L58.0776,78.367986328072L58.0944,79.59956506556934L58.2176,82.66538618008295L58.4136,93.13828875290024L58.4752,80.59530064132478L58.6712,88.69376874301169L58.8392,84.09047272139127L59.1808,90.70235528548557L59.2368,74.97500558363066L59.9424,74.77232487334145L60.396,84.12545501854684L60.4184,96.79424088531071L60.5584,97.80029137598144L60.8272,92.65928620762294L61.034400000000005,99.89828612738187L61.263999999999996,78.13960674405098L61.3088,99.02722840176689L61.3592,93.42210363679463L61.488,98.36820848782855L61.751200000000004,89.61511167883873L62.059200000000004,99.67560921774971L62.0816,106.71572284234894L62.1264,76.44266325235367L62.3392,112.69600843058693L62.496,77.96571201417181L63.4424,98.24417900376851L63.492799999999995,93.90580683615471L63.504,99.4065888689624L63.739200000000004,96.57294912139574L63.7616,97.17049214243889L63.868,95.61349994275305L64.0472,89.09077508250871L64.12,90.55588349368836L64.26,85.85512626171112L64.33279999999999,105.94518396258354L64.4168,98.23511661423576L64.4672,96.93025040626526L64.652,84.59342797266112L64.7864,90.45251331064436L65.0272,96.1432739728027L65.2568,91.25239075554741L65.492,106.11899027890628L65.5424,117.81044164134396L65.8504,92.00455435117084L66.73519999999999,91.6276768313514L67.08800000000001,89.52728017833496L67.2448,97.0063818461365L67.6592,100.0029383069939L67.8496,103.85094678733084L67.9224,114.43855858180258L68.3536,104.42083846860463L68.4936,92.27697125408385L68.58319999999999,115.04792691601646L68.8968,102.14870585004488L69.2216,118.76225041515296L69.3728,118.11850762698386L69.3952,100.24271587199634L69.86,112.41252509752908L69.9608,101.71850022011334L70.1624,117.97807742820846L70.4592,102.72031422787244L70.4704,95.6077162226041L70.6048,100.21622127625677L70.6104,98.29954062567818L70.6384,116.17611336708069L70.6664,91.54925400680965L71.55680000000001,100.84109882182544L71.68560000000001,100.45913015471565L71.75840000000001,103.27060020301077L71.7864,113.49880352285173L71.87599999999999,95.61149590214092L71.904,111.44639332758057L71.95439999999999,116.35268629093963L72.044,107.678642253081L72.36880000000001,94.08935337927605L72.688,101.33973654442364L72.8,110.49781164858076L73.0912,120.49339521759087L73.3152,113.44849620925056L73.36,115.31397804286745L73.7296,119.34261173506576L73.7464,116.87374421788586L74.1496,106.27072267731029L74.1776,118.45924978951612L74.18879999999999,105.95595568087366L74.5024,108.72940789990956L74.85520000000001,115.63352673914697L74.87200000000001,100.50450104475021L74.90559999999999,110.85658649272388L75.11840000000001,118.67483151124584L75.3592,116.406780651874L75.61680000000001,125.45297945208019L75.7344,130.1098872439729L75.9248,106.55325556463664L76.0928,115.56994265649054L76.1768,110.32291489839554L76.2552,122.86353794733682L76.64160000000001,126.3987208455801L76.7984,110.01141183574993L76.82079999999999,123.4989845967955L76.832,113.06952623526254L77.03359999999999,107.67826649546623L77.10079999999999,105.1707769897249L77.2408,118.48825311991904L77.5208,104.11903879377577L77.58239999999999,104.06214467022154L77.80640000000001,121.29651817679405L77.896,127.76660381588671L78.27120000000001,131.43956450621286L78.28800000000001,122.22910805377695L78.4336,117.48186002671719L78.6464,131.25137256748147L78.652,122.73837750653425L78.7976,106.74563609560329L78.988,115.74797808792856L79.21199999999999,117.27313772340614L79.7216,125.14704644348886L80.4832,124.86650654508007L80.60640000000001,128.00900800029436L81.0096,118.65466216868823L81.3512,132.99049669338595L81.42960000000001,132.66489903628826L81.4576,121.65187804732058L81.91120000000001,126.16424809396267L82.02319999999999,126.3376639170779L82.54960000000001,118.7010940213998L82.8688,124.4019264611933L82.9024,137.6003242664867L83.2608,120.95563234223259L83.4904,125.74408845437897L83.51280000000001,133.08827840288478L83.68639999999999,141.33391455312568L83.85440000000001,138.1493098255661L84.01119999999999,129.86158513857256L84.1456,133.38049625853697L84.1568,134.2647386557526L84.4088,130.29411530825826L84.4648,131.02354188428987L84.672,131.8710668683052L84.71119999999999,126.21342445082134L84.9352,141.7660910685857L85.316,133.0645135756996L85.4336,132.47194750110307L85.5848,138.64651819566885L85.7248,136.6832620203495L86.0776,136.1141181704071L86.2512,143.7358751114872L86.58720000000001,137.693652143081L86.8112,123.48058720926443L87.0296,134.7654062062502L87.0968,136.5070280151235L87.1472,130.63382229540082L87.2312,138.51296951870123L87.33200000000001,120.75891217920515L87.41040000000001,130.27098779545892L87.4832,129.91748092571893L87.5672,137.9949176526732L87.95360000000001,133.76727978057332L88.41279999999999,128.59716813266277L88.4632,136.426789028777L88.5696,133.25057253738242L89.15759999999999,131.8122792210844L89.1632,125.7465971890423L89.3872,134.9128247598807L89.6168,132.51454809970326L89.6224,115.62920184267891L89.7232,140.76332661509514L89.9528,114.02515889538658L90.08720000000001,126.9340686135822L90.16,136.36831819680003L90.2552,121.28143998152679L90.4064,137.97598609990544L90.5352,139.73821195132203L90.70880000000001,148.80293891744483L90.7144,132.84501955409843L90.72,131.0931012498008L90.776,123.61744402680132L90.84880000000001,129.0859624793132L90.88239999999999,141.6646659837829L90.96079999999999,127.3784498837259L91.3528,133.49327143364482L91.50399999999999,130.47181182106334L91.6776,121.60235172013441L91.7728,140.19570789900092L92.0696,124.59112410412895L92.1648,113.50939841402901L92.204,115.9908722307947L92.5064,117.89567967752615L92.568,120.96808023419645L92.91520000000001,139.5557042674886L92.93199999999999,139.35279147161376L92.9376,128.03805553747546L93.21199999999999,133.5113446381357L93.49199999999999,128.55292451547254L93.5256,136.36958177387714L93.5312,131.0823626865943L93.5648,139.45338031152883L93.8056,142.36393985317815L93.9008,138.64483097030055L94.14160000000001,122.31085375448066L94.3376,135.19847054117255L94.54480000000001,136.1717785447836L94.60079999999999,138.63536703586578L94.612,137.34092257585792L94.9592,134.02835396097768L95.0152,133.00898617837163L95.0544,136.91395140853194L96.72879999999999,133.44242627090878L96.7568,129.99667736887932L96.80160000000001,138.9319392591715L96.9024,143.6617624478208L97.1264,140.3234765397178L97.2608,141.82143427100448L97.2944,143.97879135774244L97.55199999999999,141.13073651658166L97.7872,114.46781610118019L97.8208,145.21992981102733L97.8656,137.88369708259899L98.4536,140.07550230125585L98.80640000000001,147.88734102083575L98.8904,129.28200480507482L99.0808,138.11419122417766L99.18159999999999,127.33985736634996L99.8368,144.5661999748813L100.02159999999999,124.04762018554742L100.4976,147.70438758532205L100.7216,121.77739214234883L100.8336,127.6451898995373L100.884,135.93154417640633L101.0016,134.24298892087407L101.18639999999999,137.34295977155367L101.3432,140.94411023457843L101.4552,140.2200326787101L101.5056,132.39944470094312L101.948,127.85547417567837L102.0432,125.06041957769129L102.35119999999999,142.35414436790677L102.6256,138.7580003225141L103.17999999999999,126.81623913016584L103.20240000000001,143.02406125267345L103.51599999999999,143.51255351967282L103.7176,144.81751919289428L103.8912,145.9985253761212L103.9696,137.99969566861787L104.1824,135.4808376530806L104.40639999999999,141.27077622214952L104.42880000000001,142.3303905924161L104.44,132.45605884823533L104.5576,146.47932934761047L104.5632,138.3320017043087L104.6472,132.8165982796086L104.7144,134.02376382384034L104.8656,129.6911827441719L104.8768,136.23083511657185L104.88799999999999,134.96399042175878L105.3024,142.58851397037506L105.5656,140.5386640843418L105.8288,121.7984603560633L106.1648,143.09581990540028L107.24560000000001,147.9270460754633L107.268,139.32313977513047L107.4864,148.43541849901277L107.64320000000001,125.35259322656525L107.6656,128.76171681284904L107.9344,134.75158422026368L108.06880000000001,135.57373451358742L108.3152,137.87194176349374L108.8528,131.7720326334238L109.2616,142.609530609515L109.5024,141.4686015546322L109.7544,135.09113279978433L109.9728,152.625830579963L110.1408,148.87040214488903L110.348,126.32245310147601L110.7232,148.15053344269592L110.88000000000001,146.08809567656783L110.9248,136.97502675652504L111.2888,134.72768308884568L111.3952,125.09833794169957L111.42320000000001,124.01429932647282L112.2912,140.33040226830374L112.5544,139.22330981824132L112.92960000000001,148.36609306103654L113.2376,137.2776074177689L113.28800000000001,133.17112190524736L113.4336,137.3015822271506L113.6576,131.9526615291834L114.3912,133.0808185090621L114.4528,153.4210368419687L114.55359999999999,146.23068463967908L114.8448,141.81888869735928L114.884,139.94094423618583L115.3824,133.04229230185348L115.4216,135.9481364538272L115.6344,136.1835228121943L115.668,141.71921346419387L115.74640000000001,132.7502660089069L115.79679999999999,139.9785273654593L116.396,148.4134016815159L116.6312,152.70984003610081L116.8888,136.07095025148658L117.012,135.51707615951696L117.572,136.64384799367852L117.98639999999999,147.17376625869008L118.1656,149.19253325379557L118.2384,129.873484129707L118.2608,137.96506334178977L118.55760000000001,136.26918081276946L118.58,133.36426131923992L118.664,150.49513018048472L119.1064,142.8325611733728L119.364,137.15431102944743L119.36959999999999,146.03783256974486L119.392,152.8788130780061L119.61600000000001,138.30255630612373L119.6944,140.87177320983676L119.77279999999999,140.48483864797484L119.85679999999999,138.44321859048475L120.036,137.8960933999883L120.11439999999999,124.95878451069194L120.8704,151.18062995456987L121.02720000000001,150.23852088467945L121.0776,148.1850313072403L121.3464,136.3738072050942L121.4696,133.41093630923163L121.5536,146.02105241351657L121.58720000000001,155.46265689945884L121.744,144.14071341852346L122.416,141.7437334905068L122.5728,147.0323193040159L122.9872,144.863593707482L123.0432,133.09532938400903L123.256,134.43504158490234L123.4408,128.64912583265038L123.592,147.26337524006763L123.8888,144.1999836564064L124.1632,129.47076774802474L124.77919999999999,135.76152122351857L125.0256,127.73945717016855L125.2552,138.6337719079521L125.636,135.93563698728877L125.6416,138.62646305395495L125.9384,149.6047504088945L125.9496,139.00728602872957L126.3528,153.12505404237243L126.5376,130.1285019814968L126.79520000000001,151.24798634896675L126.9016,141.48565431932607L126.9912,144.1638704025083L128.6936,149.0714103654027L128.716,147.6690792631772L129.2704,136.20480837590165L129.4496,157.76193063788944L129.528,146.90002315243083L129.5448,133.03485082752175L129.6792,149.05630454089908L129.9032,152.5693232657181L130.2112,138.15972420573235L130.2896,141.91973541014724L130.5024,140.84462656411858L130.6256,153.326100943817L130.87199999999999,147.24112633698516L130.9056,139.98332380089494L130.9112,121.55521624286968L131.0008,154.8087005035745L131.068,128.13337640298735L131.4824,146.52910249597497L131.6,153.09083431214094L131.6728,141.77008073031902L131.7288,142.19550834430586L132.40640000000002,147.1707196748919L132.6136,151.92460608647932L133.3528,140.79389560222626L133.7392,130.85789171854654L133.7448,121.10306563145583L133.9576,142.42628614604473L134.05280000000002,131.1135247813331L134.1032,146.74107768138248L134.2936,128.1247855524222L134.5008,141.5347717338138L135.0888,148.21217426906028L135.1336,162.79273291304708L135.156,144.02546266383595L135.436,152.16634716921382L135.828,140.53960347837872L136.2928,140.1814254257414L136.4104,152.20572067300478L136.4776,158.6000358942482L136.5224,143.31712272100978L136.5448,151.88267595734862L136.5672,141.40183090004655L136.9592,129.4360764788257L137.3456,145.26606326798597L137.6592,145.67666319178213L138.06799999999998,137.7443278465006L138.2024,130.00105015602378L138.2864,147.9021263461974L138.4208,138.73196253014933L138.49360000000001,152.171795654628L138.544,145.58606508374214L138.7232,137.1107563012176L139.2496,145.2366326053937L139.3504,143.58963540527554L139.412,146.46677830649745L140.0448,138.71412141124407L140.0504,150.42718252042928L140.084,134.78434512681432L140.10080000000002,134.1165317479107L140.168,151.1036401664217L140.252,150.35245280381707L140.86239999999998,144.3372272832526L141.3496,147.8152452914251L141.6184,139.1871339380741L141.9544,121.62682753966915L142.0104,151.3071921186315L142.0328,161.50954552491507L142.0384,148.46589170479112L142.57039999999998,150.6749965093202L142.95680000000002,150.545640108486L143.1864,152.48065183642836L143.5112,149.9867172340552L143.6736,147.44365784939794L143.75199999999998,153.21840770625406L144.1888,129.76749837895233L144.2056,149.23435102403164L144.4576,145.30790498356023L144.8552,127.66417302687961L144.94480000000001,130.30722630189527L145.0624,145.43846601910062L146.1096,128.94093477560412L146.2216,151.03704265505075L146.412,143.98948939806886L146.5016,143.50116290648776L146.5632,134.63401260972023L146.8992,150.3404506635335L146.92159999999998,138.03889971309238L146.9944,133.7520984361569L147.0784,155.81726525475582L147.7504,139.8355184379551L148.7416,147.60015168620478L149.02720000000002,138.08530209461847L149.2064,142.8801387184196L149.2568,152.06954169273376L149.3632,143.3571519586775L149.46400000000003,146.50222109092604L149.7608,137.37900303138625L149.87279999999998,141.84477176600032L149.99599999999998,139.42769985728793L150.1248,142.50789185861746L150.22,144.61809504859977L150.23680000000002,147.43053396211732L150.2536,153.4698871738381L150.46079999999998,129.4324662586053L150.61759999999998,157.16054531104035L150.7184,147.8788883164525L150.7296,143.70730648107L151.256,148.27155686583785L151.4072,120.8169519950946L151.5528,131.0366749813159L151.6928,146.86837846703L151.7096,157.9124491918418L152.3032,139.83295812871722L152.32559999999998,148.10691977209515L152.4096,145.9547348784076L152.42079999999999,136.08980075849425L152.4488,143.35671357479362L152.48239999999998,146.5792587697506L152.60000000000002,148.3942804079917L152.8016,158.60940588927932L152.8912,145.36614372995166L153.3224,141.21062184870243L153.524,151.2502390527063L153.56879999999998,155.43731536385087L153.6024,140.2337109926674L153.74800000000002,145.75492392480373L153.7704,144.59851144585343L153.90480000000002,116.07992678549554L153.96640000000002,140.29673512279987L154.0952,136.1793010648754L154.3416,144.3706660270691L154.784,142.63473215699196L154.94639999999998,132.88649287985433L155.204,154.99126712977886L155.85920000000002,149.700504132443L155.8704,141.95912733342914L155.9208,144.37577927774853L155.9432,135.51439428163897L155.9488,148.70837877690792L155.988,140.32666679554515L156.07760000000002,134.18034791615275L156.3856,145.20826290547848L156.39679999999998,150.91083967106212L156.632,124.36161724726358L156.7104,143.6485114660528L157.1472,143.2189873572853L157.332,144.90074213676982L158.5528,134.35279855794377L158.68720000000002,154.4905056398776L158.8384,140.19283445841737L158.9616,150.38915916532278L159.0176,145.04875379800797L159.10719999999998,148.87474730279712L159.48239999999998,147.11740998427072L159.72879999999998,146.69743453959623L159.796,158.44963338308864L159.9192,154.3420390172137L160.3168,143.27716347740758L160.328,142.14324488076898L160.53519999999997,144.81032085584272L160.804,142.87318720254632L161.07840000000002,145.97848865389824L161.1792,126.64011195798713L161.37519999999998,144.3390323933628L161.5824,148.02239457021156L162.1312,131.6492077840699L162.43359999999998,136.16217830611598L162.5736,145.8992295844687L163.35760000000002,143.8707131528192L163.5088,152.03857484459877L164.0968,137.20419837865563L164.1248,147.8675548036893L164.19760000000002,134.11504713694254L164.32639999999998,142.12659734487534L164.3936,159.5447439543075L165.2672,151.5752583377891L165.46880000000002,157.46930018564066L165.648,146.86983360681268L166.0736,154.06106073492103L166.07920000000001,152.69386296967664L166.6,153.55108581566148L167.0984,142.4865105135573L167.1096,125.61885065171454L167.412,141.97771996756393L167.42880000000002,147.47657347967225L167.8208,142.75407203866374L168.3752,145.0010915233029L169.1312,139.5080235732926L169.54559999999998,152.4480124985178L169.792,131.06848912603326L169.82559999999998,141.61534595489502L170.632,145.52238153583474L171.3936,146.07793548537623L171.5168,130.56096215711702L171.58960000000002,142.65594772663383L171.836,160.1974938735366L172.02640000000002,144.82145359615484L172.0488,148.46329087267318L172.1552,148.39898658792177L172.7936,149.34994438125025L172.9616,145.55616656608052L173.3424,127.5740501417054L173.4208,160.98301332526736L173.6448,130.38626802133192L173.98080000000002,148.26603838635813L174.0368,157.31521561824613L174.0984,144.3535911589861L174.1208,153.61647316647898L174.3,147.17045259227353L174.3392,131.78645877871247L174.4568,147.69428081065416L174.65279999999998,140.45399336847993L174.7648,136.60747318300935L174.77599999999998,161.38934729496637L174.8712,145.97054248551527L174.9496,133.19259903166028L175.2968,138.26904020044537L175.308,130.92172999017768L175.62720000000002,135.97088084121543L176.0472,148.41786840806404L176.3944,136.54009100132518L177.22879999999998,132.05819047656325L177.4864,149.0061556349198L177.61520000000002,139.26318064828712L178.4272,151.61383243567414L178.6344,140.27162567277747L178.7016,155.25318492286735L178.8472,135.47668221592903L178.93679999999998,151.6864144396451L178.948,148.384258362982L178.99280000000002,155.54235435277224L179.004,162.2753229662776L179.2392,150.81612480680147L179.55839999999998,158.0175158099996L179.6424,151.14722252388793L179.648,153.3535017785099L180.07920000000001,143.17625782224866L180.1352,144.2333929290374L180.2024,157.59104749477572L180.544,164.14445278007122L180.9136,148.6776421724094L180.964,142.11265747414697L181.14319999999998,140.6422147783968L181.1936,151.09080546514858L181.23839999999998,137.5780808892515L181.2832,145.15727407071324L181.4568,156.69922179314824L181.468,158.6159871733851L182.07279999999997,146.9925810943047L182.22400000000002,149.66204607735077L182.2968,150.75917910867267L182.308,154.47950551990004L182.3584,128.31419686145253L182.7112,154.36005143738456L182.9576,152.18317521611849L182.9856,130.1125175472763L183.68,147.5334454998374L183.8872,150.78846794118482L183.9152,145.0073504663176L183.9432,135.7860191464424L184.128,146.12125076022414L184.21759999999998,145.15099302430946L184.4136,144.7174682021141L184.46959999999999,158.27301072660418L184.4808,141.81138459675842L184.5032,129.31679185562663L184.52560000000003,143.26068171693217L184.8168,157.92577753547164L185.1584,144.2485042793883L185.164,150.80032088359195L185.1696,138.38586766355567L185.7184,144.40470524628955L186.032,144.31154314511352L186.2784,144.7088441964653L186.36239999999998,145.37448407544028L186.4688,136.5844082964791L186.5304,150.78216294944286L186.7824,140.4748847550816L186.8888,142.65081237256527L186.98399999999998,151.02749583290685L187.9248,157.41856738179922L188.2552,135.37798321578236L188.6752,147.45331887238555L188.692,153.14765659968057L188.7424,151.06350593765575L189.1176,155.0776471743981L189.2072,150.08174522966146L189.2408,157.3778253098329L189.7056,149.6434037105905L189.728,154.3297882138027L189.8456,139.73273767862054L190.14800000000002,148.63165422942905L190.5568,140.58994763096172L190.6352,146.78331357406248L190.82,154.566180276374L190.8648,148.50601672381163L191.2064,148.2910833681623L191.2176,144.35475158691406L191.3352,133.7138190501266L191.6488,140.2541087369124L191.8336,136.2613820003139L192.052,150.77971499909955L192.3712,155.02290813128153L192.9368,146.26577745378017L193.0432,142.61045895185737L193.8328,139.33327786293296L194.3312,135.12195597589016L194.376,158.0271086808708L194.684,141.82051329645844L194.79039999999998,154.42673736231197L195.076,146.7768483327495L195.244,159.28560750434795L195.3168,151.47032249801688L196.2352,144.34807636340457L196.2464,145.5104125506348L196.5824,157.26897717018923L196.7392,136.9469259811772L197.2432,144.3860536697838L197.2544,156.2139087302817L197.3104,143.7185902612077L197.7192,147.78795865757596L198.06640000000002,146.02315591937966L198.1056,147.42484786527027L198.29600000000002,154.77065872897703L198.8504,141.69515760905213L199.13600000000002,147.06933879686724L199.3768,138.88389017515712L199.66240000000002,150.82774750557212L199.8136,155.81658925943904L199.9872,152.03779201623468L200.0152,131.0913624498579L200.144,145.1442735940218L200.56400000000002,138.26339278452926L200.872,148.38890744249025L200.9616,145.69264394210447L201.15759999999997,137.38410154647298L201.19119999999998,157.8421696242359L201.2584,148.38005319320493L201.7904,140.3836309131649L201.8296,141.75641346805625L201.9248,150.98686796178418L202.05360000000002,148.44616258806653L202.14880000000002,133.1322788827949L202.2944,149.05789230101638L202.7928,137.9579755216837L202.8544,147.55204365981947L202.99439999999998,159.02192696597842L203.308,152.79550356252324L203.3752,143.2671801133288L203.448,141.6041395366192L204.12,150.71543097578817L204.36079999999998,142.77050590846272L204.42239999999998,144.32712971833018L204.43359999999998,154.2596467923787L204.456,152.22144539240333L204.68,151.40980526059866L204.8648,138.7306179073122L204.9544,149.39199055317374L205.3688,141.3956824739774L206.4384,152.85401860127845L206.864,154.36607829481363L206.9368,148.55902986062895L207.0152,157.656630092197L207.2056,147.40227846304575L207.7656,156.4768414373199L207.99519999999998,153.97800909231105L208.1464,148.65700681673158L208.2864,141.77844686309496L208.3368,160.22191259264946L208.3704,148.26193820767932L208.4152,135.95110935966173L208.45440000000002,152.62068970004717L208.6336,148.8550200280216L208.79600000000002,156.75202310582003L209.26080000000002,150.32397627085447L209.7816,124.09494354161951L209.9664,159.4641052650081L210.3584,137.36516630980702L210.4872,140.29060880011983L210.7056,155.20043886866836L210.896,134.34234733879566L211.2264,151.1487531835834L211.2768,151.44652083184985L211.78640000000001,148.05530651658773L211.9992,139.09799096981683L212.1224,155.059969988962L212.296,155.33137750377256L212.4976,154.2936583823628L212.52,153.9094646407498L212.5648,153.40128746380407L212.9176,146.11393453843064L212.9344,144.0497911274433L213.5224,139.5373289833466L213.58960000000002,157.33748109887043L213.65120000000002,143.55606035722624L213.7408,147.74045663244195L213.8192,150.85654269572763L213.93679999999998,152.49798273543516L214.0656,142.0786845650938L214.1664,160.52987542914022L214.27839999999998,133.08987353079849L215.1688,137.42001218597093L215.36479999999997,157.80673420760365L215.6224,154.57550238072872L217.03920000000002,152.97023637923928L217.1176,156.30082109818855L217.38639999999998,155.23153096934158L217.6496,138.64274956782657L218.0752,152.40304499533443L218.37759999999997,128.32402181790937L218.7416,147.63902970569004L218.74720000000002,153.0978576640288L218.81439999999998,142.62888581057388L218.82,157.87228549189038L219.25119999999998,138.81880674593978L219.2848,154.69841380168992L219.6096,152.45148641450535L219.7216,141.96667195691L219.86720000000003,150.51833321319688L220.0632,141.68977543380527L220.83599999999998,157.20371507190995L221.06,124.89800755845177L221.312,144.53086770739822L221.36239999999998,144.76967272328008L221.76559999999998,161.7453573735224L222.0008,152.4316320452425L222.0848,159.45659932245812L222.1128,144.46047209699947L222.1856,144.77536802987257L222.2696,151.91789954983525L223.7256,148.09640040083062L223.7704,156.53277037954993L224,146.27185220188565L224.0056,153.62368992302152L224.19039999999998,157.34580670876633L224.2968,146.06608070102004L224.448,128.70125667585265L224.6104,150.17850465741424L224.6384,147.95231209115852L224.64960000000002,148.1541620824072L224.7616,151.57133314427404L225.45600000000002,159.39623496681452L225.51760000000002,141.54419882926675L225.8872,144.73309529821077L225.8984,154.7949669311444L225.9992,147.2226184325086L226.1952,153.24746261123153L226.5032,150.9216334927413L226.9456,141.20203468203545L226.9736,159.9566369263662L227.4384,150.46507141325208L227.9984,163.65071187913418L228.06,147.50528762406773L228.1944,141.76740253633923L228.70399999999998,132.17147771351867L228.7152,158.14279781944222L228.88320000000002,149.8786132418447L228.8888,140.50431173377567L229.14079999999998,154.42899743384785L229.5496,156.522943581144L229.9416,143.6674024959405L230.18800000000002,150.97065328392716L230.3112,154.11984838214187L230.4904,158.45108115507495L230.61360000000002,143.51147413750488L230.6528,142.48551586104762L230.7032,158.18980620221961L230.7144,151.1604992929432L230.7256,149.60285872717697L230.81519999999998,155.67890356481075L231.112,125.68031649291515L231.2576,147.07543933226L231.42000000000002,143.1425427860684L231.6384,147.2902621709638L231.784,156.83018989943795L231.9688,153.06362135625548L232.21519999999998,157.1701013429297L232.3216,147.6387073645989L233.1112,148.2489340470897L233.4752,146.3085696150859L233.5984,134.02076513071853L233.66,142.70979526638985L233.6712,141.52497993244063L233.6824,161.0147556339701L233.9456,143.6063529352347L234.0856,144.2243526428938L234.2424,148.0448774008287L234.2928,146.94382101794082L234.556,143.17021622922687L234.6568,146.02454474899503L234.81920000000002,151.2329799897141L234.94240000000002,149.37272560762037L235.2784,146.56424688465066L235.75439999999998,136.55577335589462L235.8944,151.7710409487287L236.1128,145.3064866827594L236.30880000000002,158.04892656786572L236.6,154.60348158743648L236.6448,144.20846767392425L237.2888,152.6579081234005L237.3504,144.21364723477097L237.39520000000002,142.12624737454783L237.6416,142.58376910951404L238.06719999999999,159.69116232958106L238.11759999999998,160.98844707508883L239.0864,160.5139996699161L239.1144,155.59315715067916L239.4056,155.16799661931066L239.5568,144.69094413518906L239.9264,156.24961675537955L239.9376,146.39232304029994L239.9936,147.7976638873418L240.0272,151.28522319181096L240.1336,156.0391961750057L240.16160000000002,153.28630931758218L240.16719999999998,154.43252660830814L240.32399999999998,157.98494646615453L240.44160000000002,146.19075855116049L240.4864,135.04676393005582L240.68800000000002,157.04290923227867L241.3264,140.97975931730537L241.4384,132.1706119974454L241.5616,143.33391392893262L241.5728,141.6537653290563L241.58960000000002,154.76553811050124L241.6568,138.51831117106806L241.7352,153.25079285518993L241.8472,144.05719207889504L241.8752,158.46382744279174L241.892,154.94141477760343L242.1776,146.03424813681178L242.564,145.09292373723454L242.6424,137.94563446276717L242.6872,129.67379106084505L242.84959999999998,146.38324959907266L243.1632,156.33852395415306L243.2192,141.97160101268025L243.3424,148.2621058250467L244.2552,141.56303091678353L244.9888,129.9205348773135L245.0504,128.5207161936495" style="fill: none;" fill="none"></path></g></g></g></g></g></g><g transform="translate(50, 178)" clip-path="url(#clip_1)"><clipPath id="clip_1"><rect width="280" height="22"></rect></clipPath><g><g><line x1="0" y1="0" x2="0" y2="5" style="visibility: inherit;" fill="rgb(0, 0, 0)" stroke="rgb(204, 204, 204)" stroke-width="1px"></line><line x1="35" y1="0" x2="35" y2="5" style="visibility: inherit;" fill="rgb(0, 0, 0)" stroke="rgb(204, 204, 204)" stroke-width="1px"></line><line x1="70" y1="0" x2="70" y2="5" style="visibility: inherit;" fill="rgb(0, 0, 0)" stroke="rgb(204, 204, 204)" stroke-width="1px"></line><line x1="105" y1="0" x2="105" y2="5" style="visibility: inherit;" fill="rgb(0, 0, 0)" stroke="rgb(204, 204, 204)" stroke-width="1px"></line><line x1="140" y1="0" x2="140" y2="5" style="visibility: inherit;" fill="rgb(0, 0, 0)" stroke="rgb(204, 204, 204)" stroke-width="1px"></line><line x1="175" y1="0" x2="175" y2="5" style="visibility: inherit;" fill="rgb(0, 0, 0)" stroke="rgb(204, 204, 204)" stroke-width="1px"></line><line x1="210" y1="0" x2="210" y2="5" style="visibility: inherit;" fill="rgb(0, 0, 0)" stroke="rgb(204, 204, 204)" stroke-width="1px"></line><line x1="245" y1="0" x2="245" y2="5" style="visibility: inherit;" fill="rgb(0, 0, 0)" stroke="rgb(204, 204, 204)" stroke-width="1px"></line><line x1="280" y1="0" x2="280" y2="5" style="visibility: inherit;" fill="rgb(0, 0, 0)" stroke="rgb(204, 204, 204)" stroke-width="1px"></line></g><g transform="translate(0, 8)"><text x="0" y="0" dx="0em" dy="0.95em" style="text-anchor: middle; visibility: hidden; font-family: Roboto, sans-serif; font-size: 12px; font-weight: 200;" fill="rgb(50, 49, 63)" stroke="none" stroke-width="1px">-50k</text><text x="35" y="0" dx="0em" dy="0.95em" style="text-anchor: middle; visibility: inherit; font-family: Roboto, sans-serif; font-size: 12px; font-weight: 200;" fill="rgb(50, 49, 63)" stroke="none" stroke-width="1px">0</text><text x="70" y="0" dx="0em" dy="0.95em" style="text-anchor: middle; visibility: inherit; font-family: Roboto, sans-serif; font-size: 12px; font-weight: 200;" fill="rgb(50, 49, 63)" stroke="none" stroke-width="1px">50k</text><text x="105" y="0" dx="0em" dy="0.95em" style="text-anchor: middle; visibility: inherit; font-family: Roboto, sans-serif; font-size: 12px; font-weight: 200;" fill="rgb(50, 49, 63)" stroke="none" stroke-width="1px">100k</text><text x="140" y="0" dx="0em" dy="0.95em" style="text-anchor: middle; visibility: inherit; font-family: Roboto, sans-serif; font-size: 12px; font-weight: 200;" fill="rgb(50, 49, 63)" stroke="none" stroke-width="1px">150k</text><text x="175" y="0" dx="0em" dy="0.95em" style="text-anchor: middle; visibility: inherit; font-family: Roboto, sans-serif; font-size: 12px; font-weight: 200;" fill="rgb(50, 49, 63)" stroke="none" stroke-width="1px">200k</text><text x="210" y="0" dx="0em" dy="0.95em" style="text-anchor: middle; visibility: inherit; font-family: Roboto, sans-serif; font-size: 12px; font-weight: 200;" fill="rgb(50, 49, 63)" stroke="none" stroke-width="1px">250k</text><text x="245" y="0" dx="0em" dy="0.95em" style="text-anchor: middle; visibility: inherit; font-family: Roboto, sans-serif; font-size: 12px; font-weight: 200;" fill="rgb(50, 49, 63)" stroke="none" stroke-width="1px">300k</text><text x="280" y="0" dx="0em" dy="0.95em" style="text-anchor: middle; visibility: hidden; font-family: Roboto, sans-serif; font-size: 12px; font-weight: 200;" fill="rgb(50, 49, 63)" stroke="none" stroke-width="1px">350k</text></g><line x1="0" y1="0" x2="280" y2="0" fill="rgb(0, 0, 0)" stroke="rgb(204, 204, 204)" stroke-width="1px"></line></g></g></g></g></svg>