<svg viewBox="0 0 690 400" xmlns="http://www.w3.org/2000/svg"><g><g><g><g><g><line x1="60" y1="377.984375" x2="55" y2="377.984375" style="visibility: inherit;" fill="rgb(0, 0, 0)" stroke="rgb(204, 204, 204)" stroke-width="1px"></line><line x1="60" y1="348.9086538461538" x2="55" y2="348.9086538461538" style="visibility: inherit;" fill="rgb(0, 0, 0)" stroke="rgb(204, 204, 204)" stroke-width="1px"></line><line x1="60" y1="319.832932692308" x2="55" y2="319.832932692308" style="visibility: inherit;" fill="rgb(0, 0, 0)" stroke="rgb(204, 204, 204)" stroke-width="1px"></line><line x1="60" y1="290.75721153846183" x2="55" y2="290.75721153846183" style="visibility: inherit;" fill="rgb(0, 0, 0)" stroke="rgb(204, 204, 204)" stroke-width="1px"></line><line x1="60" y1="261.6814903846157" x2="55" y2="261.6814903846157" style="visibility: inherit;" fill="rgb(0, 0, 0)" stroke="rgb(204, 204, 204)" stroke-width="1px"></line><line x1="60" y1="232.60576923076948" x2="55" y2="232.60576923076948" style="visibility: inherit;" fill="rgb(0, 0, 0)" stroke="rgb(204, 204, 204)" stroke-width="1px"></line><line x1="60" y1="203.53004807692326" x2="55" y2="203.53004807692326" style="visibility: inherit;" fill="rgb(0, 0, 0)" stroke="rgb(204, 204, 204)" stroke-width="1px"></line><line x1="60" y1="174.4543269230771" x2="55" y2="174.4543269230771" style="visibility: inherit;" fill="rgb(0, 0, 0)" stroke="rgb(204, 204, 204)" stroke-width="1px"></line><line x1="60" y1="145.37860576923092" x2="55" y2="145.37860576923092" style="visibility: inherit;" fill="rgb(0, 0, 0)" stroke="rgb(204, 204, 204)" stroke-width="1px"></line><line x1="60" y1="116.30288461538474" x2="55" y2="116.30288461538474" style="visibility: inherit;" fill="rgb(0, 0, 0)" stroke="rgb(204, 204, 204)" stroke-width="1px"></line><line x1="60" y1="87.22716346153857" x2="55" y2="87.22716346153857" style="visibility: inherit;" fill="rgb(0, 0, 0)" stroke="rgb(204, 204, 204)" stroke-width="1px"></line><line x1="60" y1="58.151442307692356" x2="55" y2="58.151442307692356" style="visibility: inherit;" fill="rgb(0, 0, 0)" stroke="rgb(204, 204, 204)" stroke-width="1px"></line><line x1="60" y1="29.075721153846178" x2="55" y2="29.075721153846178" style="visibility: inherit;" fill="rgb(0, 0, 0)" stroke="rgb(204, 204, 204)" stroke-width="1px"></line><line x1="60" y1="0" x2="55" y2="0" style="visibility: inherit;" fill="rgb(0, 0, 0)" stroke="rgb(204, 204, 204)" stroke-width="1px"></line></g><g transform="translate(50, 0)"><text x="0" y="377.984375" dx="0em" dy="0.3em" style="text-anchor: end; visibility: hidden; font-family: Roboto, sans-serif; font-size: 12px; font-weight: 200;" fill="rgb(50, 49, 63)" stroke="none" stroke-width="1px">0.2</text><text x="0" y="348.9086538461538" dx="0em" dy="0.3em" style="text-anchor: end; visibility: inherit; font-family: Roboto, sans-serif; font-size: 12px; font-weight: 200;" fill="rgb(50, 49, 63)" stroke="none" stroke-width="1px">0.202</text><text x="0" y="319.832932692308" dx="0em" dy="0.3em" style="text-anchor: end; visibility: inherit; font-family: Roboto, sans-serif; font-size: 12px; font-weight: 200;" fill="rgb(50, 49, 63)" stroke="none" stroke-width="1px">0.204</text><text x="0" y="290.75721153846183" dx="0em" dy="0.3em" style="text-anchor: end; visibility: inherit; font-family: Roboto, sans-serif; font-size: 12px; font-weight: 200;" fill="rgb(50, 49, 63)" stroke="none" stroke-width="1px">0.206</text><text x="0" y="261.6814903846157" dx="0em" dy="0.3em" style="text-anchor: end; visibility: inherit; font-family: Roboto, sans-serif; font-size: 12px; font-weight: 200;" fill="rgb(50, 49, 63)" stroke="none" stroke-width="1px">0.208</text><text x="0" y="232.60576923076948" dx="0em" dy="0.3em" style="text-anchor: end; visibility: inherit; font-family: Roboto, sans-serif; font-size: 12px; font-weight: 200;" fill="rgb(50, 49, 63)" stroke="none" stroke-width="1px">0.21</text><text x="0" y="203.53004807692326" dx="0em" dy="0.3em" style="text-anchor: end; visibility: inherit; font-family: Roboto, sans-serif; font-size: 12px; font-weight: 200;" fill="rgb(50, 49, 63)" stroke="none" stroke-width="1px">0.212</text><text x="0" y="174.4543269230771" dx="0em" dy="0.3em" style="text-anchor: end; visibility: inherit; font-family: Roboto, sans-serif; font-size: 12px; font-weight: 200;" fill="rgb(50, 49, 63)" stroke="none" stroke-width="1px">0.214</text><text x="0" y="145.37860576923092" dx="0em" dy="0.3em" style="text-anchor: end; visibility: inherit; font-family: Roboto, sans-serif; font-size: 12px; font-weight: 200;" fill="rgb(50, 49, 63)" stroke="none" stroke-width="1px">0.216</text><text x="0" y="116.30288461538474" dx="0em" dy="0.3em" style="text-anchor: end; visibility: inherit; font-family: Roboto, sans-serif; font-size: 12px; font-weight: 200;" fill="rgb(50, 49, 63)" stroke="none" stroke-width="1px">0.218</text><text x="0" y="87.22716346153857" dx="0em" dy="0.3em" style="text-anchor: end; visibility: inherit; font-family: Roboto, sans-serif; font-size: 12px; font-weight: 200;" fill="rgb(50, 49, 63)" stroke="none" stroke-width="1px">0.22</text><text x="0" y="58.151442307692356" dx="0em" dy="0.3em" style="text-anchor: end; visibility: inherit; font-family: Roboto, sans-serif; font-size: 12px; font-weight: 200;" fill="rgb(50, 49, 63)" stroke="none" stroke-width="1px">0.222</text><text x="0" y="29.075721153846178" dx="0em" dy="0.3em" style="text-anchor: end; visibility: inherit; font-family: Roboto, sans-serif; font-size: 12px; font-weight: 200;" fill="rgb(50, 49, 63)" stroke="none" stroke-width="1px">0.224</text><text x="0" y="0" dx="0em" dy="0.3em" style="text-anchor: end; visibility: hidden; font-family: Roboto, sans-serif; font-size: 12px; font-weight: 200;" fill="rgb(50, 49, 63)" stroke="none" stroke-width="1px">0.226</text></g><line x1="60" y1="0" x2="60" y2="377.984375" fill="rgb(0, 0, 0)" stroke="rgb(204, 204, 204)" stroke-width="1px"></line></g></g><g transform="translate(60, 0)" clip-path="url(#clip_0)"><clipPath id="clip_0"><rect width="630" height="377"></rect></clipPath><g><g><g><line x1="0" y1="0" x2="0" y2="377.984375" fill="rgb(0, 0, 0)" stroke="rgb(60, 60, 60)" stroke-width="1px" opacity="0.25"></line><line x1="78.75" y1="0" x2="78.75" y2="377.984375" fill="rgb(0, 0, 0)" stroke="rgb(60, 60, 60)" stroke-width="1px" opacity="0.25"></line><line x1="157.5" y1="0" x2="157.5" y2="377.984375" fill="rgb(0, 0, 0)" stroke="rgb(60, 60, 60)" stroke-width="1px" opacity="0.25"></line><line x1="236.25" y1="0" x2="236.25" y2="377.984375" fill="rgb(0, 0, 0)" stroke="rgb(60, 60, 60)" stroke-width="1px" opacity="0.25"></line><line x1="315" y1="0" x2="315" y2="377.984375" fill="rgb(0, 0, 0)" stroke="rgb(60, 60, 60)" stroke-width="1px" opacity="0.25"></line><line x1="393.75" y1="0" x2="393.75" y2="377.984375" fill="rgb(0, 0, 0)" stroke="rgb(60, 60, 60)" stroke-width="1px" opacity="0.25"></line><line x1="472.5" y1="0" x2="472.5" y2="377.984375" fill="rgb(0, 0, 0)" stroke="rgb(60, 60, 60)" stroke-width="1px" opacity="0.25"></line><line x1="551.25" y1="0" x2="551.25" y2="377.984375" fill="rgb(0, 0, 0)" stroke="rgb(60, 60, 60)" stroke-width="1px" opacity="0.25"></line><line x1="630" y1="0" x2="630" y2="377.984375" fill="rgb(0, 0, 0)" stroke="rgb(60, 60, 60)" stroke-width="1px" opacity="0.25"></line></g><g><line x1="0" y1="377.984375" x2="630" y2="377.984375" fill="rgb(0, 0, 0)" stroke="rgb(60, 60, 60)" stroke-width="1px" opacity="0.25"></line><line x1="0" y1="348.9086538461538" x2="630" y2="348.9086538461538" fill="rgb(0, 0, 0)" stroke="rgb(60, 60, 60)" stroke-width="1px" opacity="0.25"></line><line x1="0" y1="319.832932692308" x2="630" y2="319.832932692308" fill="rgb(0, 0, 0)" stroke="rgb(60, 60, 60)" stroke-width="1px" opacity="0.25"></line><line x1="0" y1="290.75721153846183" x2="630" y2="290.75721153846183" fill="rgb(0, 0, 0)" stroke="rgb(60, 60, 60)" stroke-width="1px" opacity="0.25"></line><line x1="0" y1="261.6814903846157" x2="630" y2="261.6814903846157" fill="rgb(0, 0, 0)" stroke="rgb(60, 60, 60)" stroke-width="1px" opacity="0.25"></line><line x1="0" y1="232.60576923076948" x2="630" y2="232.60576923076948" fill="rgb(0, 0, 0)" stroke="rgb(60, 60, 60)" stroke-width="1px" opacity="0.25"></line><line x1="0" y1="203.53004807692326" x2="630" y2="203.53004807692326" fill="rgb(0, 0, 0)" stroke="rgb(60, 60, 60)" stroke-width="1px" opacity="0.25"></line><line x1="0" y1="174.4543269230771" x2="630" y2="174.4543269230771" fill="rgb(0, 0, 0)" stroke="rgb(60, 60, 60)" stroke-width="1px" opacity="0.25"></line><line x1="0" y1="145.37860576923092" x2="630" y2="145.37860576923092" fill="rgb(0, 0, 0)" stroke="rgb(60, 60, 60)" stroke-width="1px" opacity="0.25"></line><line x1="0" y1="116.30288461538474" x2="630" y2="116.30288461538474" fill="rgb(0, 0, 0)" stroke="rgb(60, 60, 60)" stroke-width="1px" opacity="0.25"></line><line x1="0" y1="87.22716346153857" x2="630" y2="87.22716346153857" fill="rgb(0, 0, 0)" stroke="rgb(60, 60, 60)" stroke-width="1px" opacity="0.25"></line><line x1="0" y1="58.151442307692356" x2="630" y2="58.151442307692356" fill="rgb(0, 0, 0)" stroke="rgb(60, 60, 60)" stroke-width="1px" opacity="0.25"></line><line x1="0" y1="29.075721153846178" x2="630" y2="29.075721153846178" fill="rgb(0, 0, 0)" stroke="rgb(60, 60, 60)" stroke-width="1px" opacity="0.25"></line><line x1="0" y1="0" x2="630" y2="0" fill="rgb(0, 0, 0)" stroke="rgb(60, 60, 60)" stroke-width="1px" opacity="0.25"></line></g></g></g><g><g><line x1="0" y1="3285.5564903846157" x2="630" y2="3285.5564903846157" fill="rgb(0, 0, 0)" stroke="rgb(153, 153, 153)" stroke-width="1.5px"></line></g></g><g><g><line x1="78.75" y1="0" x2="78.75" y2="377.984375" fill="rgb(0, 0, 0)" stroke="rgb(153, 153, 153)" stroke-width="1.5px"></line></g></g><g><g><g><g><g><path stroke="rgb(255, 112, 67)" stroke-width="2px" d="M100.17,-26.876305410683848L101.43,11.375883500326166L102.69,32.09900347246114L103.95,52.14367119451206L105.21000000000001,71.93772726397086L106.47000000000001,85.92832945869702L107.73,98.63212436913824L108.99,121.55609392566976L110.25,127.98682043408128L111.50999999999999,150.0117705915774L112.77,165.32579532310803L114.03,178.59674689408106L115.28999999999999,186.4424205916816L116.55,187.20462598678412L117.81,188.61261273218486L119.07000000000001,192.7469033323601L120.33,200.70434276288668L121.59,215.98965611136927L122.85000000000001,224.74569229218977L124.11,230.20242717336674L125.37,230.4561119608823L126.63000000000001,231.00891688603895L127.89000000000001,235.29394236146118L129.15,239.69488306041026L130.41,238.97385421024345L131.67,240.38892605911087L132.93,237.53773831661852L134.19,240.50894157997487L135.45,248.77473626482495L136.71,253.32244086323234L137.97,256.1975928331892L139.23,261.5623448373986L140.49,262.5784919925056L141.75,259.1640427576482L143.01,262.34137955412984L144.27,264.97566180501843L145.53,267.1506666301696L146.79000000000002,259.97534559534074L148.04999999999998,263.79173596195295L149.31,266.17168867952955L150.57,264.9417711973883L151.82999999999998,266.85070496579317L153.09,266.3711593930052L154.35,265.0256661836342L155.60999999999999,266.54256097233656L156.87,268.2219112141008L158.13,269.35187455014517L159.39000000000001,271.620530686992L160.65,271.58228808409694L161.91,276.88725208395033L163.17000000000002,279.3420037012516L164.43,277.50897890016853L165.69,274.94213886130797L166.95000000000002,277.31274437226193L168.21,277.9217882379033L169.47,282.4310190517229L170.73000000000002,288.18732864132124L171.99,287.96194007774665L173.25,284.67619892411335L174.51000000000002,283.66850224195196L175.77,282.103082404289L177.03000000000003,284.8630215237823L178.29,285.5874716788358L179.54999999999998,284.0533992086936L180.80999999999997,281.7008514862216L182.07,280.81746924017466L183.32999999999998,282.2389386278128L184.58999999999997,281.69117084177094L185.85,282.6714813479327L187.10999999999999,283.8081773534296L188.37,282.752554348482L189.63,280.9983317314882L190.89,285.8514192840039L192.15,289.2019062721504L193.41,289.01720648142117L194.67,290.5385712425453L195.93,287.50316007507934L197.19,286.75709637300884L198.45,284.9755310823345L199.71,286.7615285817372L200.97,285.4023539131499L202.23000000000002,280.2459104040404L203.49,280.7545312405385L204.75,283.3880537720363L206.01000000000002,286.4499233574085L207.27,289.81827969638914L208.53,288.76010041076347L209.79000000000002,288.0388870474465L211.05,289.0282982436647L212.31,293.58499254620125L213.57000000000002,293.6686587739707L214.83,293.18958564197624L216.09,294.22636376323874L217.35,293.7630226542038L218.60999999999999,293.7564133104317L219.86999999999998,293.2736931856146L221.13,290.61203827074496L222.39,291.28871768604563L223.64999999999998,294.87374199082353L224.91,294.0667035420404L226.17,292.6613654443135L227.42999999999998,291.0769379428345L228.69,294.15925751480205L229.95,296.797532721677L231.21,294.49942343286097L232.47,294.64295390237123L233.73,290.51213306273576L234.99,290.72203131698654L236.25,290.19547768587927L237.51,291.2340958482158L238.77,294.27079608593885L240.03,293.4659486756402L241.29,292.27768968085877L242.55,292.8361849719059L243.81,292.66297915905284L245.07000000000002,290.8224548919142L246.33,289.1962329171064L247.59,289.2228080609291L248.85000000000002,292.31586657859975L250.11,293.26202477774956L251.37,293.45191522648946L252.63000000000002,293.8333454593126L253.89000000000001,295.6495889429675L255.15,294.934105551707L256.40999999999997,294.16955737536125L257.66999999999996,295.23591073680143L258.93,294.4070511998257L260.19,294.40018807040275L261.45,295.0835703466323L262.71,294.4147773130953L263.96999999999997,298.2397990736818L265.23,302.16751668000427L266.49,301.12538009787386L267.75,299.9638930878156L269.01,300.1235598710843L270.27,297.4758582556295L271.53,297.68787419052717L272.79,296.2910413130366L274.05,294.2115592819632L275.31,293.2718326984213L276.57,289.97827279472557L277.83,293.8819355595593L279.09,293.9548801267159L280.35,298.92180306096947L281.61,301.83974039721L282.87,301.39091823805546L284.13,299.9233955339545L285.39,302.02849040683634L286.65000000000003,301.76048604761064L287.91,301.8664861764423L289.17,300.4290933541234L290.43,300.4005137208303L291.69,302.15038171322436L292.95,301.96975175427565L294.21000000000004,302.4769524395042L295.46999999999997,303.3972847732479L296.72999999999996,303.74853725430336L297.99,308.2264862571762L299.25,309.8294074203355L300.51,307.6934234152859L301.77,311.211509534009L303.03,312.02959402654557L304.28999999999996,308.82264013840137L305.55,312.9526111444804L306.81,318.2075432605416L308.07,326.88286008084305L309.33,332.5054547912817L310.59,336.564345461389L311.85,340.0426281684871L313.11,337.6525281619572L314.37,342.51367847811196L315.63,347.686710551717L316.89,351.6599133406128L318.15,350.0043600109796L319.41,349.81134959389885L320.67,347.5246407276639L321.93,348.6380662415289L323.19,348.6678399600445L324.45,346.08396583466987L325.71000000000004,349.56580627455196L326.97,343.06124526734305L328.23,346.2070749621501L329.49,348.74758527710196L330.75,342.92368116238663L332.01,348.0290696328038L333.27000000000004,353.5723810997639L334.53000000000003,351.53839702977706L335.79,346.1291428445447L337.05,343.9255854620221L338.31,345.88792366079L339.57000000000005,349.4429818261311L340.83000000000004,345.09658339957156L342.09000000000003,345.67711945860043L343.35,348.49130848487414L344.61,351.08421301559645L345.87,350.8035313880195L347.13000000000005,357.57364016063997L348.39000000000004,349.93598481958037L349.65000000000003,350.86855701628053L350.91,353.0159189402693L352.17,340.58804080120166L353.43,339.2628378513098L354.68999999999994,343.71105289905415L355.95,346.4019049852925L357.21,349.9412260326245L358.46999999999997,348.7709875733749L359.72999999999996,348.8754050514357L360.98999999999995,355.1496462908508L362.25,351.71857560994005L363.51,357.01360260637694L364.77,357.8571562829485L366.03,353.7882149919514L367.28999999999996,348.4582924117453L368.54999999999995,355.4101946141625L369.81,359.39260700504155L371.07,351.78427365374426L372.33,352.587216614072L373.59,348.5752754983818L374.84999999999997,349.16671718454234L376.10999999999996,356.98244062193737L377.37,355.0292748864948L378.63,350.7516667213413L379.89,351.24202524406587L381.15,351.9361411908454L382.40999999999997,350.9997068135416L383.67,346.57444886413407L384.93,345.81628846918227L386.19,348.64317863604487L387.45,344.98393436328104L388.71,345.4346654905023L389.96999999999997,345.4713159874576L391.23,339.5439257001371L392.49,346.58014105019726L393.75,349.7800651411773L395.01,347.50690988484956L396.27,344.63777786376L397.53000000000003,350.33201117559815L398.79,353.5494239439435L400.05,347.47552931674204L401.31,343.7433270052511L402.57,347.9343070324428L403.83,341.3864402852446L405.09000000000003,344.4098424131349L406.35,346.55862191705L407.61,352.2413396826938L408.87,349.86882889157414L410.13,351.23362339391923L411.39000000000004,350.1224045032425L412.65000000000003,353.40866907506245L413.91,356.4868923335224L415.17,343.8980561050836L416.43,344.1812509544302L417.69,346.69190918705834L418.95000000000005,345.1665099012682L420.21000000000004,346.3940109152771L421.47,349.5925662088707L422.73,350.3094839659475L423.99,351.5311176559348L425.25,348.25625099352106L426.51000000000005,353.6456936202688L427.77000000000004,353.11509222066354L429.03000000000003,346.470412848672L430.29,342.4957365616937L431.55,344.7429349142642L432.81000000000006,346.63612422674123L434.07,344.4225758847844L435.33,343.79884425179546L436.59,348.3104142808942L437.84999999999997,349.8764041271686L439.10999999999996,346.85052418288427L440.36999999999995,345.10986389125117L441.63,338.23150812963996L442.89,346.9781820134797L444.15,346.8215894068225L445.40999999999997,345.9368440263001L446.66999999999996,339.36797080570875L447.92999999999995,345.8675680406955L449.19,351.0093152530774L450.45,353.9984393719927L451.71,355.3349090775766L452.96999999999997,350.2244108908945L454.22999999999996,354.82788934471625L455.49,356.8475386405443L456.75,352.37415080486807L458.01,349.3703707417493L459.27,351.0823775010653L460.53,350.7651695466351L461.78999999999996,349.60841053951077L463.05,355.53052595064287L464.31,350.408936625934L465.57,344.1130336079262L466.83,341.3187365974885L468.09,343.377570117164L469.35,336.8362504520292L470.61,339.74772656828804L471.87,339.4278658087178L473.13,335.49256560609473L474.39,337.4616659470877L475.65,328.0886903383136L476.91,331.4397541585972L478.17,329.9336913863368L479.43,332.92221964331975L480.69,342.7062477634778L481.95,345.8089002777227L483.21000000000004,349.05398402938795L484.47,348.6533607652425L485.73,348.2907202681709L486.99,348.0348356084434L488.25,355.04130610013044L489.51,354.9668127211034L490.77000000000004,352.04491035268217L492.03000000000003,349.5832988965712L493.29,353.5898692976757L494.55,355.43516350555734L495.81,353.67873811632444L497.07000000000005,351.46815997451773L498.33000000000004,345.1299248362897L499.59000000000003,347.34230681642487L500.85,342.9336069792222L502.11,345.1215980780523L503.37,351.3333729112776L504.63000000000005,350.44723725759167L505.89000000000004,353.0923195585375L507.15000000000003,349.1078794767629L508.41,342.4241088453956L509.67,347.20750548048574L510.93,349.5042511728974L512.1899999999999,350.5740759960378L513.4499999999999,350.4647812209005L514.7099999999999,353.6156548488851L515.9699999999999,356.1916861743231L517.23,349.76043149266815L518.49,349.1996690865983L519.75,352.36310214148665L521.01,343.04218889357713L522.27,350.66924467261794L523.53,351.4768785443112L524.79,356.81174039158424L526.05,354.7366527268849L527.31,355.50713498807545L528.5699999999999,344.87384428375196L529.8299999999999,352.491438850044L531.09,351.72802036012035L532.35,353.15223273259545L533.61,347.26165056716957L534.87,344.3654962053163L536.13,341.31172691349093L537.39,345.1258224756756L538.65,350.1588213272213L539.91,353.8675072304568L541.17,354.34008729868486L542.43,351.55371405757353L543.6899999999999,344.7933144843921L544.95,345.6029536970187L546.21,349.48880415654185L547.47,348.42293372475694L548.73,354.46231861981374L549.99,353.3627871056618" style="fill: none;" fill="none"></path></g></g></g></g><g opacity="0.20000000298023224"><g><g><g><path stroke="rgb(255, 112, 67)" stroke-width="2px" d="M97.65,-13.777891286577118L98.91,18.835039822098242L100.17,16.97677907089786L101.43,68.7483395308687L102.69,63.18178925541453L103.95,82.20957348037234L105.21000000000001,101.62816003631238L106.47000000000001,106.9139565307505L107.73,117.68766624623777L108.99,155.94188532670256L110.25,137.63288277258678L111.50999999999999,183.04913947201132L112.77,188.29680890976823L114.03,198.5031620261189L115.28999999999999,198.2109268018977L116.55,188.34793382668164L117.81,190.72459257014393L119.07000000000001,198.94833873907263L120.33,212.6405013387021L121.59,238.91762547717948L122.85000000000001,237.8797463376363L124.11,238.38752941070854L125.37,230.83663913980138L126.63000000000001,231.83812427069432L127.89000000000001,241.72148056027422L129.15,246.29629410000962L130.41,237.8923109358608L131.67,242.5115338313896L132.93,233.26095670411522L134.19,244.96574647423753L135.45,261.17342829081025L136.71,260.1439977604181L137.97,260.51032078796294L139.23,269.60947284353193L140.49,264.10271272514603L141.75,254.042368905404L143.01,267.1073847488287L144.27,268.92708518134015L145.53,270.4131738678912L146.79000000000002,249.2123640431093L148.04999999999998,269.51632151186766L149.31,269.7416177558929L150.57,263.09689497417565L151.82999999999998,269.7141056184014L153.09,265.65184103382336L154.35,263.0074263695772L155.60999999999999,268.81790315538944L156.87,270.7409365767471L158.13,271.04681955421216L159.39000000000001,275.0235148922613L160.65,271.5249241797542L161.91,284.8446980837304L163.17000000000002,283.0241311272035L164.43,274.7594416985433L165.69,271.0918788030172L166.95000000000002,280.8686526386928L168.21,278.8353540363651L169.47,289.1948652724522L170.73000000000002,296.82179302571785L171.99,287.62385723238395L173.25,279.74758719366343L174.51000000000002,282.15695721871015L175.77,279.75495264779505L177.03000000000003,289.002930203023L178.29,286.674146911416L179.54999999999998,281.7522905034803L180.80999999999997,278.1720299025139L182.07,279.4923958711041L183.32999999999998,284.3711427092697L184.58999999999997,280.86951916270834L185.85,284.1419471071748L187.10999999999999,285.51322136167454L188.37,281.1691198410611L189.63,278.3669978059973L190.89,293.13105061277764L192.15,294.22763675436966L193.41,288.7401567953282L194.67,292.8206183842313L195.93,282.95004332387975L197.19,285.6380008199039L198.45,282.30318314632274L199.71,289.44052483084124L200.97,283.3635919102684L202.23000000000002,272.51124514037616L203.49,281.51746249528475L204.75,287.33833756928277L206.01000000000002,291.0427277354668L207.27,294.8708142048609L208.53,287.17283148232576L209.79000000000002,286.9570670024708L211.05,290.51241503799207L212.31,300.4200340000054L213.57000000000002,293.79415811562495L214.83,292.47097594398446L216.09,295.78153094513215L217.35,293.0680109906513L218.60999999999999,293.74649929477346L219.86999999999998,292.5496129983894L221.13,286.6195558984407L222.39,292.30373680899646L223.64999999999998,300.2512784479904L224.91,292.85614586886607L226.17,290.55335829772355L227.42999999999998,288.700296690616L228.69,298.7827368727528L229.95,300.7549455319891L231.21,291.0522594996371L232.47,294.85824960663643L233.73,284.3159018032827L234.99,291.03687869836233L236.25,289.4056472392181L237.51,292.7920230917204L238.77,298.8258464425231L240.03,292.2586775601914L241.29,290.4953011886863L242.55,293.67392790847686L243.81,292.403170439773L245.07000000000002,288.0616684912061L246.33,286.75689995489455L247.59,289.26267077666364L248.85000000000002,296.9554543551059L250.11,294.6812620764743L251.37,293.7367508995993L252.63000000000002,294.40549080854726L253.89000000000001,298.37395416844936L255.15,293.86088046481706L256.40999999999997,293.0227351108424L257.66999999999996,296.8354407789617L258.93,293.16376189436204L260.19,294.3898933762686L261.45,296.10864376097646L262.71,293.4115877627898L263.96999999999997,303.9773317145615L265.23,308.0590930894878L266.49,299.5621752246786L267.75,298.22166257272846L269.01,300.36306004598754L270.27,293.50430583244633L271.53,298.00589809287357L272.79,294.1957919968007L274.05,291.0923362353532L275.31,291.8622428231086L276.57,285.0379329391828L277.83,299.73742970680973L279.09,294.06429697745136L280.35,306.3721874623489L281.61,306.21664640157L282.87,300.7176849993234L284.13,297.72211147780325L285.39,305.1861327161584L286.65000000000003,301.35847950877206L287.91,302.0254863696891L289.17,298.27300412064574L290.43,300.3576442708908L291.69,304.7751837018162L292.95,301.6988068158525L294.21000000000004,303.2377534673479L295.46999999999997,304.77778327386267L296.72999999999996,304.27541597588714L297.99,314.9434097614857L299.25,312.2337891650746L300.51,304.4894474077111L301.77,316.4886387120934L303.03,313.2567207653507L304.28999999999996,304.0122093061846L305.55,319.14756765359886L306.81,326.089941434634L308.07,339.89583531129546L309.33,340.93934685693927L310.59,342.6526814665504L311.85,345.26005222913466L313.11,334.067378152162L314.37,349.8054039523437L315.63,355.4462586621254L316.89,357.61971752395726L318.15,347.5210300165302L319.41,349.5218339682773L320.67,344.0945774283119L321.93,350.30820451232694L323.19,348.71250053781745L324.45,342.20815464660825L325.71000000000004,354.7885669343748L326.97,333.3044037565304L328.23,350.92581950436147L329.49,352.5583507495289L330.75,334.18782499031397L332.01,355.6871523384293L333.27000000000004,361.88734830020445L334.53000000000003,348.4874209247961L335.79,338.0152615666964L337.05,340.6202493882381L338.31,348.83143095894235L339.57000000000005,354.7755690741426L340.83000000000004,338.5769857597324L342.09000000000003,346.54792354714425L343.35,352.7125920242846L344.61,354.9735698116802L345.87,350.38250894665447L347.13000000000005,367.72880331957015L348.39000000000004,338.4795018079907L349.65000000000003,352.2674153113309L350.91,356.2369618262524L352.17,321.94622359260075L353.43,337.2750334264712L354.68999999999994,350.38337547066993L355.95,350.4381831146492L357.21,355.2502076036227L358.46999999999997,347.0156298845005L359.72999999999996,349.03203126852634L360.98999999999995,364.5610081499731L362.25,346.5719695885739L363.51,364.9561431010327L364.77,359.12248679780635L366.03,347.6848030554562L367.28999999999996,340.46340854143597L368.54999999999995,365.83804791778914L369.81,365.36622559135935L371.07,340.37177362679876L372.33,353.79163105456314L373.59,342.55736382484736L374.84999999999997,350.05387971378303L376.10999999999996,368.7060257780296L377.37,352.0995262833314L378.63,344.3352544736119L379.89,351.9775630281523L381.15,352.97731511101426L382.40999999999997,349.5950552475855L383.67,339.9365619400231L384.93,344.6790478767542L386.19,352.8835138863384L387.45,339.4950679541352L388.71,346.11076218133377L389.96999999999997,345.5262917328914L391.23,330.65284026915657L392.49,357.1344640752875L393.75,354.57995127764764L395.01,344.0971770003583L396.27,340.3340798321253L397.53000000000003,358.87336114335534L398.79,358.3755430964612L400.05,338.3646873759394L401.31,338.1450235380148L402.57,354.22077707323047L403.83,331.5646401644471L405.09000000000003,348.94494560497037L406.35,349.7817911729218L407.61,360.76541633115954L408.87,346.31006270489456L410.13,353.2808151474367L411.39000000000004,348.45557616722715L412.65000000000003,358.33806593279155L413.91,361.10422722121285L415.17,325.0148017624252L416.43,344.6060432284499L417.69,350.4578965360014L418.95000000000005,342.8784109725833L420.21000000000004,348.2352624362909L421.47,354.390399149261L422.73,351.3848606015629L423.99,353.3635681909152L425.25,343.34395099990087L426.51000000000005,361.7298575603906L427.77000000000004,352.319190121256L429.03000000000003,336.5033937906848L430.29,336.5337221312267L431.55,348.1137324431196L432.81000000000006,349.4759081954568L434.07,341.1022533718498L435.33,342.8632468023124L436.59,355.07776932454186L437.84999999999997,352.22538889658006L439.10999999999996,342.3117042664583L440.36999999999995,342.4988734538024L441.63,327.9139744872229L442.89,360.09819283923866L444.15,346.58670049683707L445.40999999999997,344.60972595551567L446.66999999999996,329.51466097482137L447.92999999999995,355.6169638931753L449.19,358.72193607164996L450.45,358.48212555036537L451.71,357.3396136359528L452.96999999999997,342.5586636108706L454.22999999999996,361.7331070254487L455.49,359.87701258428694L456.75,345.66406905135295L458.01,344.8647006470712L459.27,353.65038764003964L460.53,350.2893576149902L461.78999999999996,347.87327202882346L463.05,364.41369906734116L464.31,342.7265526388702L465.57,334.669179080914L466.83,337.12729108183163L468.09,346.46582039667743L469.35,327.0242709543271L470.61,344.1149407426757L471.87,338.9480746693624L473.13,329.58961530216055L474.39,340.41531645857674L475.65,314.02922692515256L476.91,336.4663498890229L478.17,327.6745972279461L479.43,337.40501202879346L480.69,357.38228994371525L481.95,350.46287904909036L483.21000000000004,353.92160965688544L484.47,348.0524258690243L485.73,347.74675952256314L486.99,347.6510086188524L488.25,365.55101183766084L489.51,354.855072652563L490.77000000000004,347.6620568000498L492.03000000000003,345.8908817124053L493.29,359.59972489933284L494.55,358.2031048173803L495.81,351.0441000324747L497.07000000000005,348.15229276180855L498.33000000000004,335.6225721289477L499.59000000000003,350.66087978662796L500.85,336.3205572234182L502.11,348.4035847262982L503.37,360.651035161116L504.63000000000005,349.11803377706286L505.89000000000004,357.0599430099561L507.15000000000003,343.1312193541001L508.41,332.3984528983443L509.67,354.38260043312164L510.93,352.94936971151503L512.1899999999999,352.17881323074795L513.4499999999999,350.3008390581953L514.7099999999999,358.3419652908612L515.9699999999999,360.05573316248007L517.23,340.11354947018526L518.49,348.3585254774932L519.75,357.10825172381925L521.01,329.06081902171286L522.27,362.10982834117937L523.53,352.68832935185117L524.79,364.81403316249373L526.05,351.6240212298358L527.31,356.66285837986163L528.5699999999999,328.92390822726674L529.8299999999999,363.91783069948184L531.09,350.5828926252346L532.35,355.2885512913077L533.61,338.42577731903083L534.87,340.02126466253645L536.13,336.73107297575257L537.39,350.84696581895264L538.65,357.70831960454024L539.91,359.43053608531005L541.17,355.04895740102705L542.43,347.37415419590604L543.6899999999999,334.6527151246198L544.95,346.81741251595906L546.21,355.31757984582634L547.47,346.8241280770791L548.73,363.52139596239897L549.99,351.7134898344343" style="fill: none;" fill="none"></path></g></g></g></g></g><g><g opacity="0.13713787496089935"><span fill="rgb(0, 0, 0)" stroke="none" stroke-width="1px">Alt + Scroll to Zoom</span></g></g></g><g transform="translate(60, 377)" clip-path="url(#clip_1)"><clipPath id="clip_1"><rect width="630" height="22"></rect></clipPath><g><g><line x1="0" y1="0" x2="0" y2="5" style="visibility: inherit;" fill="rgb(0, 0, 0)" stroke="rgb(204, 204, 204)" stroke-width="1px"></line><line x1="78.75" y1="0" x2="78.75" y2="5" style="visibility: inherit;" fill="rgb(0, 0, 0)" stroke="rgb(204, 204, 204)" stroke-width="1px"></line><line x1="157.5" y1="0" x2="157.5" y2="5" style="visibility: inherit;" fill="rgb(0, 0, 0)" stroke="rgb(204, 204, 204)" stroke-width="1px"></line><line x1="236.25" y1="0" x2="236.25" y2="5" style="visibility: inherit;" fill="rgb(0, 0, 0)" stroke="rgb(204, 204, 204)" stroke-width="1px"></line><line x1="315" y1="0" x2="315" y2="5" style="visibility: inherit;" fill="rgb(0, 0, 0)" stroke="rgb(204, 204, 204)" stroke-width="1px"></line><line x1="393.75" y1="0" x2="393.75" y2="5" style="visibility: inherit;" fill="rgb(0, 0, 0)" stroke="rgb(204, 204, 204)" stroke-width="1px"></line><line x1="472.5" y1="0" x2="472.5" y2="5" style="visibility: inherit;" fill="rgb(0, 0, 0)" stroke="rgb(204, 204, 204)" stroke-width="1px"></line><line x1="551.25" y1="0" x2="551.25" y2="5" style="visibility: inherit;" fill="rgb(0, 0, 0)" stroke="rgb(204, 204, 204)" stroke-width="1px"></line><line x1="630" y1="0" x2="630" y2="5" style="visibility: inherit;" fill="rgb(0, 0, 0)" stroke="rgb(204, 204, 204)" stroke-width="1px"></line></g><g transform="translate(0, 8)"><text x="0" y="0" dx="0em" dy="0.95em" style="text-anchor: middle; visibility: hidden; font-family: Roboto, sans-serif; font-size: 12px; font-weight: 200;" fill="rgb(50, 49, 63)" stroke="none" stroke-width="1px">-50k</text><text x="78.75" y="0" dx="0em" dy="0.95em" style="text-anchor: middle; visibility: inherit; font-family: Roboto, sans-serif; font-size: 12px; font-weight: 200;" fill="rgb(50, 49, 63)" stroke="none" stroke-width="1px">0</text><text x="157.5" y="0" dx="0em" dy="0.95em" style="text-anchor: middle; visibility: inherit; font-family: Roboto, sans-serif; font-size: 12px; font-weight: 200;" fill="rgb(50, 49, 63)" stroke="none" stroke-width="1px">50k</text><text x="236.25" y="0" dx="0em" dy="0.95em" style="text-anchor: middle; visibility: inherit; font-family: Roboto, sans-serif; font-size: 12px; font-weight: 200;" fill="rgb(50, 49, 63)" stroke="none" stroke-width="1px">100k</text><text x="315" y="0" dx="0em" dy="0.95em" style="text-anchor: middle; visibility: inherit; font-family: Roboto, sans-serif; font-size: 12px; font-weight: 200;" fill="rgb(50, 49, 63)" stroke="none" stroke-width="1px">150k</text><text x="393.75" y="0" dx="0em" dy="0.95em" style="text-anchor: middle; visibility: inherit; font-family: Roboto, sans-serif; font-size: 12px; font-weight: 200;" fill="rgb(50, 49, 63)" stroke="none" stroke-width="1px">200k</text><text x="472.5" y="0" dx="0em" dy="0.95em" style="text-anchor: middle; visibility: inherit; font-family: Roboto, sans-serif; font-size: 12px; font-weight: 200;" fill="rgb(50, 49, 63)" stroke="none" stroke-width="1px">250k</text><text x="551.25" y="0" dx="0em" dy="0.95em" style="text-anchor: middle; visibility: inherit; font-family: Roboto, sans-serif; font-size: 12px; font-weight: 200;" fill="rgb(50, 49, 63)" stroke="none" stroke-width="1px">300k</text><text x="630" y="0" dx="0em" dy="0.95em" style="text-anchor: middle; visibility: hidden; font-family: Roboto, sans-serif; font-size: 12px; font-weight: 200;" fill="rgb(50, 49, 63)" stroke="none" stroke-width="1px">350k</text></g><line x1="0" y1="0" x2="630" y2="0" fill="rgb(0, 0, 0)" stroke="rgb(204, 204, 204)" stroke-width="1px"></line></g></g></g></g></svg>