<svg viewBox="0 0 690 400" xmlns="http://www.w3.org/2000/svg"><g><g><g><g><g><line x1="50" y1="377.984375" x2="45" y2="377.984375" style="visibility: inherit;" fill="rgb(0, 0, 0)" stroke="rgb(204, 204, 204)" stroke-width="1px"></line><line x1="50" y1="350.98549107142856" x2="45" y2="350.98549107142856" style="visibility: inherit;" fill="rgb(0, 0, 0)" stroke="rgb(204, 204, 204)" stroke-width="1px"></line><line x1="50" y1="323.9866071428571" x2="45" y2="323.9866071428571" style="visibility: inherit;" fill="rgb(0, 0, 0)" stroke="rgb(204, 204, 204)" stroke-width="1px"></line><line x1="50" y1="296.9877232142856" x2="45" y2="296.9877232142856" style="visibility: inherit;" fill="rgb(0, 0, 0)" stroke="rgb(204, 204, 204)" stroke-width="1px"></line><line x1="50" y1="269.9888392857141" x2="45" y2="269.9888392857141" style="visibility: inherit;" fill="rgb(0, 0, 0)" stroke="rgb(204, 204, 204)" stroke-width="1px"></line><line x1="50" y1="242.98995535714266" x2="45" y2="242.98995535714266" style="visibility: inherit;" fill="rgb(0, 0, 0)" stroke="rgb(204, 204, 204)" stroke-width="1px"></line><line x1="50" y1="215.99107142857116" x2="45" y2="215.99107142857116" style="visibility: inherit;" fill="rgb(0, 0, 0)" stroke="rgb(204, 204, 204)" stroke-width="1px"></line><line x1="50" y1="188.99218750000028" x2="45" y2="188.99218750000028" style="visibility: inherit;" fill="rgb(0, 0, 0)" stroke="rgb(204, 204, 204)" stroke-width="1px"></line><line x1="50" y1="161.99330357142884" x2="45" y2="161.99330357142884" style="visibility: inherit;" fill="rgb(0, 0, 0)" stroke="rgb(204, 204, 204)" stroke-width="1px"></line><line x1="50" y1="134.99441964285737" x2="45" y2="134.99441964285737" style="visibility: inherit;" fill="rgb(0, 0, 0)" stroke="rgb(204, 204, 204)" stroke-width="1px"></line><line x1="50" y1="107.99553571428588" x2="45" y2="107.99553571428588" style="visibility: inherit;" fill="rgb(0, 0, 0)" stroke="rgb(204, 204, 204)" stroke-width="1px"></line><line x1="50" y1="80.99665178571442" x2="45" y2="80.99665178571442" style="visibility: inherit;" fill="rgb(0, 0, 0)" stroke="rgb(204, 204, 204)" stroke-width="1px"></line><line x1="50" y1="53.99776785714296" x2="45" y2="53.99776785714296" style="visibility: inherit;" fill="rgb(0, 0, 0)" stroke="rgb(204, 204, 204)" stroke-width="1px"></line><line x1="50" y1="26.99888392857146" x2="45" y2="26.99888392857146" style="visibility: inherit;" fill="rgb(0, 0, 0)" stroke="rgb(204, 204, 204)" stroke-width="1px"></line><line x1="50" y1="0" x2="45" y2="0" style="visibility: inherit;" fill="rgb(0, 0, 0)" stroke="rgb(204, 204, 204)" stroke-width="1px"></line></g><g transform="translate(40, 0)"><text x="0" y="377.984375" dx="0em" dy="0.3em" style="text-anchor: end; visibility: hidden; font-family: Roboto, sans-serif; font-size: 12px; font-weight: 200;" fill="rgb(50, 49, 63)" stroke="none" stroke-width="1px">1.06</text><text x="0" y="350.98549107142856" dx="0em" dy="0.3em" style="text-anchor: end; visibility: inherit; font-family: Roboto, sans-serif; font-size: 12px; font-weight: 200;" fill="rgb(50, 49, 63)" stroke="none" stroke-width="1px">1.07</text><text x="0" y="323.9866071428571" dx="0em" dy="0.3em" style="text-anchor: end; visibility: inherit; font-family: Roboto, sans-serif; font-size: 12px; font-weight: 200;" fill="rgb(50, 49, 63)" stroke="none" stroke-width="1px">1.08</text><text x="0" y="296.9877232142856" dx="0em" dy="0.3em" style="text-anchor: end; visibility: inherit; font-family: Roboto, sans-serif; font-size: 12px; font-weight: 200;" fill="rgb(50, 49, 63)" stroke="none" stroke-width="1px">1.09</text><text x="0" y="269.9888392857141" dx="0em" dy="0.3em" style="text-anchor: end; visibility: inherit; font-family: Roboto, sans-serif; font-size: 12px; font-weight: 200;" fill="rgb(50, 49, 63)" stroke="none" stroke-width="1px">1.1</text><text x="0" y="242.98995535714266" dx="0em" dy="0.3em" style="text-anchor: end; visibility: inherit; font-family: Roboto, sans-serif; font-size: 12px; font-weight: 200;" fill="rgb(50, 49, 63)" stroke="none" stroke-width="1px">1.11</text><text x="0" y="215.99107142857116" dx="0em" dy="0.3em" style="text-anchor: end; visibility: inherit; font-family: Roboto, sans-serif; font-size: 12px; font-weight: 200;" fill="rgb(50, 49, 63)" stroke="none" stroke-width="1px">1.12</text><text x="0" y="188.99218750000028" dx="0em" dy="0.3em" style="text-anchor: end; visibility: inherit; font-family: Roboto, sans-serif; font-size: 12px; font-weight: 200;" fill="rgb(50, 49, 63)" stroke="none" stroke-width="1px">1.13</text><text x="0" y="161.99330357142884" dx="0em" dy="0.3em" style="text-anchor: end; visibility: inherit; font-family: Roboto, sans-serif; font-size: 12px; font-weight: 200;" fill="rgb(50, 49, 63)" stroke="none" stroke-width="1px">1.14</text><text x="0" y="134.99441964285737" dx="0em" dy="0.3em" style="text-anchor: end; visibility: inherit; font-family: Roboto, sans-serif; font-size: 12px; font-weight: 200;" fill="rgb(50, 49, 63)" stroke="none" stroke-width="1px">1.15</text><text x="0" y="107.99553571428588" dx="0em" dy="0.3em" style="text-anchor: end; visibility: inherit; font-family: Roboto, sans-serif; font-size: 12px; font-weight: 200;" fill="rgb(50, 49, 63)" stroke="none" stroke-width="1px">1.16</text><text x="0" y="80.99665178571442" dx="0em" dy="0.3em" style="text-anchor: end; visibility: inherit; font-family: Roboto, sans-serif; font-size: 12px; font-weight: 200;" fill="rgb(50, 49, 63)" stroke="none" stroke-width="1px">1.17</text><text x="0" y="53.99776785714296" dx="0em" dy="0.3em" style="text-anchor: end; visibility: inherit; font-family: Roboto, sans-serif; font-size: 12px; font-weight: 200;" fill="rgb(50, 49, 63)" stroke="none" stroke-width="1px">1.18</text><text x="0" y="26.99888392857146" dx="0em" dy="0.3em" style="text-anchor: end; visibility: inherit; font-family: Roboto, sans-serif; font-size: 12px; font-weight: 200;" fill="rgb(50, 49, 63)" stroke="none" stroke-width="1px">1.19</text><text x="0" y="0" dx="0em" dy="0.3em" style="text-anchor: end; visibility: hidden; font-family: Roboto, sans-serif; font-size: 12px; font-weight: 200;" fill="rgb(50, 49, 63)" stroke="none" stroke-width="1px">1.2</text></g><line x1="50" y1="0" x2="50" y2="377.984375" fill="rgb(0, 0, 0)" stroke="rgb(204, 204, 204)" stroke-width="1px"></line></g></g><g transform="translate(50, 0)" clip-path="url(#clip_0)"><clipPath id="clip_0"><rect width="640" height="377"></rect></clipPath><g><g><g><line x1="0" y1="0" x2="0" y2="377.984375" fill="rgb(0, 0, 0)" stroke="rgb(60, 60, 60)" stroke-width="1px" opacity="0.25"></line><line x1="80" y1="0" x2="80" y2="377.984375" fill="rgb(0, 0, 0)" stroke="rgb(60, 60, 60)" stroke-width="1px" opacity="0.25"></line><line x1="160" y1="0" x2="160" y2="377.984375" fill="rgb(0, 0, 0)" stroke="rgb(60, 60, 60)" stroke-width="1px" opacity="0.25"></line><line x1="240" y1="0" x2="240" y2="377.984375" fill="rgb(0, 0, 0)" stroke="rgb(60, 60, 60)" stroke-width="1px" opacity="0.25"></line><line x1="320" y1="0" x2="320" y2="377.984375" fill="rgb(0, 0, 0)" stroke="rgb(60, 60, 60)" stroke-width="1px" opacity="0.25"></line><line x1="400" y1="0" x2="400" y2="377.984375" fill="rgb(0, 0, 0)" stroke="rgb(60, 60, 60)" stroke-width="1px" opacity="0.25"></line><line x1="480" y1="0" x2="480" y2="377.984375" fill="rgb(0, 0, 0)" stroke="rgb(60, 60, 60)" stroke-width="1px" opacity="0.25"></line><line x1="560" y1="0" x2="560" y2="377.984375" fill="rgb(0, 0, 0)" stroke="rgb(60, 60, 60)" stroke-width="1px" opacity="0.25"></line><line x1="640" y1="0" x2="640" y2="377.984375" fill="rgb(0, 0, 0)" stroke="rgb(60, 60, 60)" stroke-width="1px" opacity="0.25"></line></g><g><line x1="0" y1="377.984375" x2="640" y2="377.984375" fill="rgb(0, 0, 0)" stroke="rgb(60, 60, 60)" stroke-width="1px" opacity="0.25"></line><line x1="0" y1="350.98549107142856" x2="640" y2="350.98549107142856" fill="rgb(0, 0, 0)" stroke="rgb(60, 60, 60)" stroke-width="1px" opacity="0.25"></line><line x1="0" y1="323.9866071428571" x2="640" y2="323.9866071428571" fill="rgb(0, 0, 0)" stroke="rgb(60, 60, 60)" stroke-width="1px" opacity="0.25"></line><line x1="0" y1="296.9877232142856" x2="640" y2="296.9877232142856" fill="rgb(0, 0, 0)" stroke="rgb(60, 60, 60)" stroke-width="1px" opacity="0.25"></line><line x1="0" y1="269.9888392857141" x2="640" y2="269.9888392857141" fill="rgb(0, 0, 0)" stroke="rgb(60, 60, 60)" stroke-width="1px" opacity="0.25"></line><line x1="0" y1="242.98995535714266" x2="640" y2="242.98995535714266" fill="rgb(0, 0, 0)" stroke="rgb(60, 60, 60)" stroke-width="1px" opacity="0.25"></line><line x1="0" y1="215.99107142857116" x2="640" y2="215.99107142857116" fill="rgb(0, 0, 0)" stroke="rgb(60, 60, 60)" stroke-width="1px" opacity="0.25"></line><line x1="0" y1="188.99218750000028" x2="640" y2="188.99218750000028" fill="rgb(0, 0, 0)" stroke="rgb(60, 60, 60)" stroke-width="1px" opacity="0.25"></line><line x1="0" y1="161.99330357142884" x2="640" y2="161.99330357142884" fill="rgb(0, 0, 0)" stroke="rgb(60, 60, 60)" stroke-width="1px" opacity="0.25"></line><line x1="0" y1="134.99441964285737" x2="640" y2="134.99441964285737" fill="rgb(0, 0, 0)" stroke="rgb(60, 60, 60)" stroke-width="1px" opacity="0.25"></line><line x1="0" y1="107.99553571428588" x2="640" y2="107.99553571428588" fill="rgb(0, 0, 0)" stroke="rgb(60, 60, 60)" stroke-width="1px" opacity="0.25"></line><line x1="0" y1="80.99665178571442" x2="640" y2="80.99665178571442" fill="rgb(0, 0, 0)" stroke="rgb(60, 60, 60)" stroke-width="1px" opacity="0.25"></line><line x1="0" y1="53.99776785714296" x2="640" y2="53.99776785714296" fill="rgb(0, 0, 0)" stroke="rgb(60, 60, 60)" stroke-width="1px" opacity="0.25"></line><line x1="0" y1="26.99888392857146" x2="640" y2="26.99888392857146" fill="rgb(0, 0, 0)" stroke="rgb(60, 60, 60)" stroke-width="1px" opacity="0.25"></line><line x1="0" y1="0" x2="640" y2="0" fill="rgb(0, 0, 0)" stroke="rgb(60, 60, 60)" stroke-width="1px" opacity="0.25"></line></g></g></g><g><g><line x1="0" y1="3239.8660714285734" x2="640" y2="3239.8660714285734" fill="rgb(0, 0, 0)" stroke="rgb(153, 153, 153)" stroke-width="1.5px"></line></g></g><g><g><line x1="80" y1="0" x2="80" y2="377.984375" fill="rgb(0, 0, 0)" stroke="rgb(153, 153, 153)" stroke-width="1.5px"></line></g></g><g><g><g><g><g><path stroke="rgb(255, 112, 67)" stroke-width="2px" d="M101.376,-19.498878168697406L101.9008,27.236318495987337L103.6416,14.394407608491532L104.30720000000001,-6.144385427941014L104.4352,20.87150903080864L104.832,15.369568520976552L105.08800000000001,50.58299024233471L105.1008,32.55275369353209L106.6112,41.45009296785626L110.1952,36.0203659937233L111.1808,27.723747126442724L111.2448,42.01864644568273L111.5136,39.40093752338875L111.552,40.458038819611865L112.0384,59.7629211914943L112.9856,46.98038367507136L112.9984,62.132212018575764L113.2672,94.09770105091587L113.728,78.31861309954506L113.8304,85.08369034038505L114.3552,87.06099939009636L114.4704,85.66819341832193L114.6624,88.89273437472492L114.7776,101.95142881213394L115.2512,123.46586096752632L115.43039999999999,122.43705090180711L115.648,89.83130295069702L115.99360000000001,100.84763523335292L116.4032,103.13715382751855L116.6208,110.537732622759L118.05440000000002,99.24828236419455L119.4624,134.84305141617514L119.4752,149.8168196616408L119.7312,157.548562232851L119.744,101.38594484515639L120.256,100.61368247723041L120.94720000000001,98.44953152515029L121.17760000000001,126.67669306660797L121.48479999999999,151.13350735775552L121.792,170.59546296975748L121.8304,151.28706456296965L122.95680000000002,145.27495341110517L123.5712,138.7914904984049L124.5824,157.62157340539727L124.80000000000001,156.001265257897L125.1328,158.77466261149414L125.6448,176.6372434876445L126.08000000000001,162.42711438940748L126.28479999999999,148.63940407714472L126.77120000000001,162.41310966369804L126.86080000000001,165.1924637696582L126.9504,138.15475993020246L126.98880000000001,153.8389779275148L127.232,167.53734684219037L127.5136,139.0078472355521L128.4096,135.77174336200576L129.2544,150.94384121545693L130.112,161.35690791993463L130.3424,190.11647738633314L130.88,186.79726487681202L131.3536,200.11635515221028L131.4944,181.2107850393196L132.2752,207.1725100201261L132.5952,183.05517910700416L132.7488,182.10744734765817L132.78719999999998,187.20172594115743L133.0688,194.4327106472671L133.5168,187.44096024783778L133.6576,192.47018194212745L134.1056,186.1349597953046L134.4896,205.1318752919007L135.2704,194.28530338049407L135.3984,184.37448576389335L137.0112,182.6823607253945L138.048,194.40288926597518L138.0992,218.72186534260237L138.4192,214.73197544777545L139.03359999999998,209.9061294825151L139.5072,228.60507378211136L140.03199999999998,194.8437233904547L140.1344,200.3296482199163L140.2496,195.79866004361475L140.54399999999998,226.38155555969166L141.1456,204.28546743837433L141.8496,214.60216983682972L141.9008,205.5749105101731L142.0032,197.83324019441756L142.4896,188.54533300809214L142.848,205.6767855027613L145.0112,214.83059192725685L145.1264,235.3068783795838L145.152,253.2639360462944L145.6896,256.2671238566916L145.7408,236.14835570282887L145.984,254.06492607524572L146.3936,228.14526539901692L146.56,211.80145613999773L146.88,210.0717190811135L147.0464,224.21922991521626L147.23839999999998,231.22052372368938L147.3536,215.04898369832472L147.776,228.12518358329808L148.0832,232.57060385874288L148.6336,218.2999556574819L149.1584,206.993587225209L149.696,203.28744159994073L149.8112,229.03202995807152L150.5152,261.88761685984576L152.5376,250.46644422444336L153.344,222.7753829593986L153.7024,229.38917518150546L154.6496,222.0778331317577L155.0848,231.35556695381646L155.25119999999998,244.4131142498247L156.23680000000002,247.9688163609021L156.5568,257.70527778949037L156.7616,271.79286843725595L157.4784,259.468216979776L158.2208,247.2616132957526L158.56640000000002,249.7789772464934L158.6176,236.10417128821555L159.68,235.71938471371996L159.9104,250.05320687134372L160.37120000000002,252.4136953913954L161.0496,280.0641268612784L161.0752,270.47380352107905L161.3824,244.43123214999883L161.39520000000002,218.8130928309221L161.4592,220.58133133709617L161.5232,217.80708866393678L163.5584,232.37005218397957L163.8528,265.17654989699747L164.0192,255.63514849056662L164.0832,267.6877261888293L164.28799999999998,276.44343408379495L164.35199999999998,255.76629105915728L164.4672,250.63849007420927L164.67199999999997,259.1367580569921L165.4144,245.7392834343225L166.144,250.32086432532734L166.4,240.9639375945444L167.0656,265.70696992029985L167.57760000000002,259.164837537239L167.68,260.26598168196074L168.5248,258.06012750052787L168.5632,286.2950959856461L169.4848,293.31621908193L169.5488,302.0403536707732L169.57439999999997,284.9616231565305L170.2912,276.0808387531761L171.0976,256.4245569168452L171.13600000000002,265.202008523792L171.2128,257.1973720484759L171.69920000000002,274.594252123845L172.2496,272.1065553161406L172.8384,272.9441440982934L173.1072,284.4004720113806L173.54240000000001,281.532330426871L173.9264,256.45942541259495L174.1184,261.41400694939574L174.29760000000002,260.8716195018388L175.1808,262.4469148886126L175.53920000000002,282.5586229331019L175.5904,277.4816335151624L175.61599999999999,264.10605766833044L176.0768,244.54799053964584L176.2304,242.98083412564895L176.5504,257.63992347284693L177.1904,279.1644861278805L177.3312,280.46784152597286L177.84320000000002,268.482638467696L178.048,289.79290764974127L178.9056,285.24735095788384L178.94400000000002,282.9527144720089L179.27679999999998,265.0139550897016L179.7632,272.02953415025775L179.77599999999998,235.20355244054684L180.1088,249.8411642255696L180.544,268.8248877446242L181.05599999999998,236.54562902486907L182.2208,257.2609791600335L183.96159999999998,258.6909691263983L184.2432,285.29877890977036L185.1648,265.07779821228047L185.9456,267.0734728862537L186.12480000000002,253.8073737870611L186.18880000000001,259.4082308850686L187.22560000000001,254.66451739450886L187.4816,246.59115895736562L188.68480000000002,254.61271809531817L189.4144,263.563380025502L189.4912,273.914755287233L190.31040000000002,259.136596128748L190.8352,249.3833208393068L190.8864,252.7190652377021L191.2832,254.80934296724038L191.6672,260.0983722243887L192.0256,264.75140676872456L192.33280000000002,260.97899612940694L192.3584,274.5135798582872L192.9344,256.7618243946018L193.0624,253.67235676943116L193.536,266.05199170686683L193.6256,279.7252420351291L194.1376,276.1626774805589L195.008,288.01152957690306L195.2768,285.75353797098364L195.6224,294.7962290395519L195.9424,288.48081958991736L196.74880000000002,277.9827667359089L197.1456,299.19904345452824L197.9136,274.2009579426564L198.42559999999997,256.1449009744664L198.9248,258.97232984626606L199.0784,255.92623686225923L199.1936,254.16810105572574L199.38559999999998,253.1187554223735L199.616,246.19321231789925L199.79520000000002,263.3624978039797L199.9616,282.14228861007507L200.1536,288.10578832440166L201.0368,297.5163573183229L202.0864,284.6186292393146L202.20159999999998,284.48728099731034L202.4448,280.27872752876965L203.78879999999998,277.8112712861156L203.8016,282.33693792481415L204.3136,293.2752645928217L204.8384,290.88395793037637L204.85119999999998,308.8567073560858L205.0816,276.7677691806193L205.6064,280.14174487741406L205.91360000000003,274.39431106159657L206.08,276.6767435165531L206.29760000000002,287.8002429487111L206.6432,295.7164329864945L206.9376,309.33972924669774L207.33440000000002,284.73825312558324L207.3472,281.99505533135374L207.36,273.971064356817L207.488,267.63740064309917L207.6544,294.72094028655823L207.7312,267.4251623238826L207.91039999999998,271.4044342307102L208.8064,272.32280838234055L209.152,270.53358423109535L209.5488,274.5307601194463L209.7664,293.38161353899903L210.4448,307.3826777072352L210.6624,268.1168105265606L210.75199999999998,286.5837940971999L211.4432,294.95682457137633L211.584,290.4100584096908L212.37760000000003,279.1659294292364L212.416,283.1259157791754L212.4288,292.72503391329843L213.05599999999998,280.05140981118217L213.69599999999997,281.22567820211145L213.7728,295.952548724089L213.7856,296.78910948584934L213.8624,280.3952437888331L214.4128,299.3425150258649L214.6304,284.63766529882116L215.1808,288.9775919642359L215.6288,314.632186022905L216.10240000000002,246.7262265250132L216.2304,266.4915573801763L216.25599999999997,299.1078781885174L217.0496,296.3157954172652L217.17759999999998,305.9711444590307L217.2672,292.3548893502499L221.0944,288.3332907299742L221.15839999999997,293.0318396856431L221.26080000000002,302.98835406976303L221.4912,312.2378126069406L222.00320000000002,316.96779562312764L222.31040000000002,309.67904111568316L222.3872,291.3410260215568L222.976,284.6015943463034L223.5136,287.9461072566484L223.5904,274.218125320133L223.6928,291.7041164124947L225.0368,313.52296251394597L225.84320000000002,320.9342300111635L226.0352,312.0151299068084L226.4704,302.13341296933584L226.7008,275.76409140106426L228.1984,279.98330744005517L228.62079999999997,259.40175975925683L229.7088,263.1700094854995L230.2208,254.0891601748818L230.4768,301.43747359836L230.592,279.6281863406449L230.86079999999998,277.4914964827986L231.2832,289.1461216407304L231.64159999999998,296.9870405387113L231.8976,277.91163769099194L232.0128,298.7407910128845L233.024,294.39037239639134L233.2416,278.79971031215985L233.94559999999998,268.5013861695106L234.5728,268.6458779205104L235.84,285.1963212994981L235.89120000000003,300.46379097749303L236.60799999999998,294.29176908233023L237.0688,288.224876493631L237.4656,300.16790280643767L237.64479999999998,316.98708331740414L238.1312,320.92890534707084L238.64319999999998,317.44620925495195L238.6944,277.1990035637484L238.72,295.2038648875681L238.98879999999997,312.0770349401655L239.0016,302.8321545025192L239.1936,306.65986732417696L239.3472,286.0130979699068L239.6928,301.3302948183263L239.7184,290.3976673738882L239.744,299.8824019995931L240.6912,290.8951281064171L241.2928,310.23411181036045L241.89440000000002,310.64787440661377L242.6624,300.7243283984033L245.13280000000003,300.6585434273208L245.184,280.5498117676147L245.6832,294.3124054461323L246.04160000000002,304.78880780511423L246.09279999999998,297.2236936192541L246.7072,290.1777859856467L247.01440000000002,297.3848626043841L247.57760000000002,282.3519127704L248.8064,292.75937362194963L249.7408,300.69588929586433L250.2912,307.62257375351834L250.8672,308.54809377021087L251.3664,310.3048140940801L251.75039999999998,315.7266323861405L252.224,311.7081905299294L253.0816,326.76929973284723L253.44,312.8429996192818L253.54240000000001,336.2650616598348L254.37439999999998,315.10179238809474L254.6176,303.49207605404786L254.6816,314.01374071485776L256.6656,323.94950311526986L257.2672,320.62360567324265L258.1248,317.6945683134969L258.8288,325.17210331059886L258.944,316.8977163065601L259.2768,299.6545675454729L259.7888,286.8606736715978L261.4656,295.1015813580104L261.6064,291.6730876161939L261.8368,315.06133539344614L262.5024,317.37115492783323L262.592,309.98748690531625L263.7312,330.109555802832L263.82079999999996,338.04404076824227L264.3072,342.45159597756845L264.384,328.72159808741L264.5632,304.397061307781L264.6784,292.98262102066354L266.048,291.34254852883515L266.5856,279.452364452965L267.1744,297.8377526792461L267.456,295.19466226908133L268.736,310.922888746677L269.6832,313.2478015425567L270.0928,310.3262019252719L270.25919999999996,315.30895614770156L270.3104,306.9168999144264L270.9888,309.89049705707004L271.03999999999996,295.08976200533834L271.232,317.2496075504085L272.2432,319.7155887975136L272.832,321.4948859206856L272.84479999999996,310.2719747498132L272.896,296.29321580228174L273.408,295.6900100351906L273.5872,310.9167842915298L273.7664,313.3182935189304L273.9584,305.2416557820583L274.368,321.5043863165687L274.5472,315.16711844553413L276.2752,299.88082883174826L276.6336,312.1784997119723L276.7488,285.1125250464214L277.3632,273.0906146759541L277.6448,329.13614785107785L277.8368,319.2538708878668L277.91360000000003,282.1562498672247L278.272,280.7298553845207L279.808,298.6917909215723L280.1664,285.6094362979776L281.1136,308.754993369703L281.2416,304.7603716133892L281.728,308.6286365134545L282.1504,314.6207655647076L282.496,299.915679685778L283.1744,292.47453094891546L283.8016,298.0069441281071L285.20959999999997,300.7352146913001L285.77279999999996,306.3261904822139L286.2976,321.5309721703565L287.168,305.3194716536717L287.1808,339.37883199960874L287.8592,327.14559163853636L287.8848,329.3140501047334L288.8064,316.3782049320098L289.2288,333.24891552085285L289.8176,323.3325927455787L290.06080000000003,322.5579181760289L290.2656,319.2939041578187L294.1568,338.3394139848766L294.20799999999997,366.02229448002L295.4752,347.4945630775092L295.8848,333.44559706448143L296.064,345.2200121765819L296.1024,338.77036260152215L296.4096,301.77455802354734L296.9216,302.38349220765883L297.6256,274.98913693644585L297.8048,293.40005939243184L298.2912,307.85141844644386L298.5728,279.8902232667459L299.13599999999997,311.3267736396161L299.2128,299.53760045619356L299.2256,300.3475339763597L299.4304,314.3256493285099L299.584,340.2413387692282L300.5312,335.3850922790948L300.79999999999995,320.6206332085772L300.9664,309.00961010854337L301.0944,313.23828846591385L302.64320000000004,330.9366452961258L303.1168,314.9011826154051L304.8064,325.54639645308436L305.6896,317.9897471019042L305.7024,298.831713921163L306.1888,315.5545405029685L306.4064,318.47119247365066L306.5216,318.9928685336338L306.9568,296.16666250112377L307.4304,307.47058256292314L308.7744,297.16582374957454L308.8768,289.5432610918888L308.928,319.0257612255523L309.568,310.89759914756814L310.464,292.0086916702284L311.5264,291.70829736480596L311.7952,313.6910316395131L311.9488,322.4064175387074L312.0512,302.5070072046254L312.1024,298.84513123179624L312.1536,314.70878249484866L313.0496,339.1055372081056L313.9328,328.4163012455866L314.6496,314.0702720270136L315.584,301.42804935786637L315.8912,316.3765886023592L316.0832,311.52810039192167L316.3904,311.71290422932395L316.5568,309.18228462610324L316.672,322.97478812670363L317.0816,331.069667009711L318.2848,300.52096773917316L318.5152,317.23187989902857L318.656,296.3055555615144L320.10240000000005,322.3781537745955L320.11519999999996,319.27976875447274L320.192,320.8239984342892L320.23040000000003,317.6990660710513L320.384,302.79657663859376L320.576,311.2110044338468L321.97119999999995,313.15881234894596L323.08480000000003,321.09745611989706L323.6992,311.66942508238463L324.4672,306.78466450297435L324.5952,307.5305141171091L324.6464,307.8030652595157L324.65919999999994,320.6927439553238L325.87519999999995,335.787945020445L326.7584,348.6398268531674L327.28319999999997,350.5744889967049L328.0256,347.98197959807817L328.3968,344.3939156156617L328.57599999999996,337.6685933981867L329.57439999999997,344.43294333987365L329.6128,329.2459756959852L330.1888,319.8161917759317L331.0976,315.13816697434333L331.30240000000003,291.713269765888L331.5712,280.61331697745004L333.96479999999997,304.33203336732754L334.2208,314.6070611561709L334.656,325.681604838564L334.86080000000004,309.05065422597625L335.0016,320.3105676716156L335.76959999999997,336.38901683534147L335.82079999999996,345.7443598827421L335.98720000000003,325.61277079535296L336.1792,318.4826102688224L337.71520000000004,317.8978274663877L339.98080000000004,306.721280148448L340.6336,312.61082794651406L341.0432,306.9599368303551L341.1584,297.5089331963804L341.40160000000003,312.89632035254635L341.63200000000006,317.01169561123396L342.3104,312.50034194156905L342.5664,326.19071912063686L342.84799999999996,337.33521274822493L343.14239999999995,334.2896261457314L343.36,353.9058419498463L343.39840000000004,354.05118642558904L343.4368,322.19705029953553L343.9104,314.23647522173036L344.26879999999994,325.29472264940597L344.4992,315.93247911382184L344.5248,342.20755433383925L345.728,342.03449945995055L346.0736,307.79635445513213L346.40639999999996,278.4863537825987L346.7264,297.8727544307274L346.7648,305.75669524471215L348.1216,297.292810498009L348.17279999999994,316.8120660912401L348.3648,319.34080202213266L348.3904,328.23565875787324L348.4544,323.87595119718253L348.53119999999996,330.14053215597744L348.8,337.9928491148375L349.2608,334.7971135691331L349.4656,310.16144269776066L350.4512,312.782308285579L350.91200000000003,308.70594272664727L351.01439999999997,316.82947827242197L351.09119999999996,299.7167460343981L351.42400000000004,312.2929871693442L351.4752,314.2497113692446L351.78240000000005,328.61117186660226L351.9232,306.6922964348134L352.21760000000006,311.9860390444407L352.7808,328.9142386048066L353.792,346.1714660270147L354.16319999999996,311.1978718117044L354.752,307.3184636103355L356.2496,300.4648102581136L356.2752,298.10632421027253L356.3904,297.8675364568016L356.4416,306.40499245736635L356.4544,307.9888988786898L356.54400000000004,311.42612704338933L357.19679999999994,314.9497997513128L357.9008,318.2682439855591L357.9264,305.50395143098444L358.46400000000006,317.9808093006848L358.6432,305.15060992128565L359.6416,322.17456900231196L360.06399999999996,335.8449888342748L362.8544,351.498366856566L363.1616,347.2785095687798L363.5072,328.77038793979057L363.78880000000004,326.82271298598016L363.9168,329.5983371726662L364.1216,332.6188364073115L364.9792,346.5679089840934L365.5424,349.4680609102063L365.696,351.95059974547L365.9776,337.22960769652497L366.8864,338.4054440710238L366.91200000000003,338.7498282017288L367.3856,334.72346410669456L368,318.3507364433775L368.6272,336.5890988161936L368.8576,325.9357332504681L369.3056,323.89321882782895L369.77919999999995,339.38688007300203L371.03360000000004,341.95495852924773L371.7248,324.9440116849815L372.04479999999995,338.8044895501731L373.8368,330.39928903773523L374.1824,336.8174392563237L375.52639999999997,336.4352060733094L375.59040000000005,327.7563558275786L375.7568,340.6662109582513L376.0512,339.6999826505543L376.2048,335.9818046163095L378.2016,341.6577660353612L378.6624,340.678820496639L379.072,327.4439657373839L380.0448,308.8834891234579L380.05760000000004,313.688907900906L381.248,315.5448082946189L382.3872,325.0114320743269L382.41280000000006,326.4212057032526L383.10400000000004,329.16084573752886L383.14239999999995,339.2170627692856L384.0384,317.1656206895761L385.3056,311.84896190186885L387.03360000000004,303.8226930846431L387.9808,322.2747554329687L388.544,324.97861907957787L388.6208,343.05271270981984L390.464,347.2518308741968L392.20480000000003,340.6729382541079L392.4864,335.9753018190952L392.65279999999996,341.6259276227734L393.21599999999995,328.4726067951415L393.65119999999996,316.752123038664L393.7024,319.0640910612571L393.9456,328.08649721447216L395.4048,297.86940428416654L395.7888,285.9855190767606L396.6592,281.13904816317813L396.8384,307.6074785031234L397.3504,302.33399183738624L398.11839999999995,304.98550397014503L398.2464,316.88596737639466L398.3872,313.1408320938217L398.4384,329.29839420976515L398.84799999999996,326.59520102240026L398.9376,335.75763697826983L399.2064,335.0550746569287L399.6544,340.5796844771482L399.9104,340.55259899647604L399.93600000000004,315.9925748839645L400.1536,309.36761142349803L400.33279999999996,302.3654242717844L401.1264,307.7874801184054L401.15200000000004,305.6636003554061L401.88160000000005,320.00346087495234L402.84159999999997,313.36061479816146L403.6352,315.57119756633506L405.5424,338.8983047895016L406.13120000000004,330.959855545816L406.42560000000003,309.9423700670945L408.28159999999997,325.1026662626766L408.7552,335.17778834549273L408.90880000000004,348.0766308198517L409.2416,347.69664589193104L409.4464,331.98861437856016L409.47200000000004,336.7328693683504L409.57439999999997,318.65403595787205L409.6,312.56267525260233L410.13759999999996,322.65801045407716L410.8672,329.3437237254371L411.0592,322.509004278746L411.072,347.5062768226323L412.0576,345.0986387577072L412.18559999999997,362.9507435898687L412.3392,346.7212103693392L413.12,330.4372827706242L413.96479999999997,325.75694769712476L414.08000000000004,317.7220025323508L414.4896,337.09579219042206L414.60479999999995,309.95610920112665L414.7072,305.4961037754153L414.80960000000005,322.37311094645065L415.20640000000003,304.4144004317298L415.232,306.8849196423397L416.6144,319.53548783681316L416.96,333.0376021967196L417.1264,341.18212769151614L417.15200000000004,349.7407855438728L417.2672,330.25328937541366L418.07360000000006,292.7910210605995L418.6368,320.6906726800188L418.7008,324.1906402049276L420.28799999999995,331.71240701751765L420.76160000000004,328.86948036729257L420.8256,318.43407425437914L420.8896,293.3613666547891L421.312,293.64020402154665L421.5168,289.4130710167111L421.9648,315.2218910078232L422.0928,317.88216212617664L422.1184,321.45449470906715L422.1696,303.99364502941273L422.2208,323.7197059920882L422.8864,326.2255032528317L423.6672,330.40498602545387L423.68,323.6541587259882L423.69280000000003,345.5316552937087L424.9472,327.2774762186868L425.664,338.84532384501404L426.22720000000004,343.0012421039478L426.4192,346.73572477139845L426.66240000000005,352.51794258723515L426.8032,346.779737635203L427.3792,337.8905676312733L427.62239999999997,338.4020226431949L427.84,345.7011898799154L429.9904,352.1450475207724L430.74559999999997,358.9929969690724L431.7056,358.6616282608029L431.74399999999997,357.71353609856874L431.85920000000004,348.21471013233383L432.71680000000003,350.0560154697616L432.9216,355.0679505064589L432.99840000000006,359.23892755475646L434.06080000000003,356.360409550726L434.112,362.31190970753073L434.3808,351.68940390944624L435.072,333.30349092130217L436.0064,316.8851743041284L436.1856,326.6873550333435L436.608,335.2426080356748L436.7104,342.27172428607923L437.4912,329.84829848977495L437.5168,319.65438320322374L437.7856,327.0787245193424L438.50239999999997,348.2055088483016L438.9248,350.15541837870285L439.424,343.5046233929181L440.1536,322.6307033556179L441.44640000000004,347.45866622266874L441.6896,337.57298584083503L443.49440000000004,346.09259366635655L444.6336,346.81533004663623L444.736,336.4978351099202L445.43999999999994,349.7075333505474L445.6832,331.33690343300964L446.336,325.7132671928863L446.71999999999997,321.52866267387503L446.8864,342.86557176289483L448.98560000000003,340.8631791696314L449.0112,332.06694285722745L449.77919999999995,336.2045242186657L450.13759999999996,303.02164768064824L451.2896,305.79461886558653L451.3152,333.975383276187L451.4432,326.0265854674663L452.37760000000003,320.20871369218514L453.1712,313.54697817753845L453.26079999999996,315.8479324445873L453.69599999999997,328.99656464487555L454.9632,345.8132685604364L455.616,334.5054260965221L456.16639999999995,338.1557989378679L456.81919999999997,343.6850417198397L457.16479999999996,347.66045242157685L457.5616,329.21390693507004L457.6256,344.31935238548715L457.92,317.7101135617577L458.88,330.9298319406816L459.58399999999995,319.6659080142426L459.7888,317.6808729953646L460.2368,309.71345592660174L460.3136,332.60620770931854L460.4672,333.5648581877901L461.6832,320.69218003936214L461.7728,337.57542892274125L461.99039999999997,338.86501111864044L462.28479999999996,341.1963942970147L462.50239999999997,343.03577491664214L462.83520000000004,341.80069953472565L463.97440000000006,315.21778889374934L464.1152,331.1000844571328L464.4352,331.5268498329896L465.152,339.4895854926967L465.3056,348.6915301583327L465.472,360.31024324672444L467.00800000000004,332.32038617405635L467.5584,322.14863661626737L467.6992,321.6701397988611L467.7248,328.39812304380854L467.776,333.30738878835376L468.288,356.06755978603354L468.7104,333.690682300222L468.9152,317.932417831297L469.86240000000004,332.25367985583415L472.30719999999997,329.9947538104817L473.28000000000003,330.05142630011005L473.4464,320.276031329028L473.6256,312.98911067622413L474.06080000000003,325.9179074557276L475.34080000000006,323.2018712126063L475.8656,316.6067202484177L476.21119999999996,316.46962404288524L476.5312,319.2945890524675L476.64639999999997,324.6029335902488L476.7232,328.3253040400957L476.8256,312.8196724997223L476.91519999999997,318.04712887086055L477.32480000000004,335.3221650428799L477.69599999999997,336.539386794402L478.75839999999994,348.4469883631839L479.9488,329.07727115974404L480.37120000000004,332.4121504046058L481.2672,360.6864822261911L481.5616,344.69242941033536L482.0608,359.4339141482472L482.496,339.69347503049465L483.2512,323.6066901737815L483.3664,324.04454373360113L483.86560000000003,322.8168246597336L484.5312,322.66853826409584L485.01759999999996,332.9576126114912L485.2992,343.7934020641424L485.696,344.25461906306094L486.1568,318.3252763795296L486.208,312.9105076754266L486.31039999999996,322.96210677452797L487.1168,318.4145707623831L487.1552,324.90233916497033L488.4992,334.5264079138129L488.65279999999996,313.5102934528796L488.79359999999997,342.2827813974523L488.99839999999995,331.69077529362744L489.1776,352.5689953869697L489.4464,335.74574891918763L489.74080000000004,353.57965218859715L489.9712,337.8550620588786L490.2272,334.6544481642917L492.26239999999996,341.08999566665807L492.7104,322.85285240626405L493.29920000000004,347.2056047797314L496.5376,359.4123797247307L496.71680000000003,350.4672235774691L497.33119999999997,357.53892863281123L497.93280000000004,356.99846181287324L498.9056,331.1235277970751L499.5968,317.5438395288656L500.42879999999997,342.442865863694L500.4416,323.6923825180337L500.5952,331.6217548755717L500.608,330.14459440329614L501.5936,332.39622420671395L501.6704,334.92054492764777L502.41280000000006,321.22905703632495L502.66880000000003,343.7534550956224L503.0016,348.65276555967677L503.44960000000003,341.1226422671901L505.216,323.83439095821547L505.728,332.5137779747131L506.30400000000003,341.68919889367294L506.4192,339.18394693319874L507.3408,353.0272034556479L507.87840000000006,336.3114990262534L508.0704,330.20313219963197L508.1344,337.10128743067L508.30080000000004,329.6482382217069L508.4928,322.8097682083771L511.82079999999996,325.40570909058084L511.9232,341.20482853793703L512.448,351.56746148292956L512.4608,340.0658135091179L512.8832,353.75278172598894L513.1264,362.3874896691923L513.472,355.70563037256466L513.8432,350.2883488990754L513.9072,341.86234595652337L513.9327999999999,332.5868811700439L514.1888,348.3257438738931L515.776,356.81625149504197L515.9168,373.09979747171116L516.7616,363.0710198734871L516.7872,355.0948346579303L517.0176,349.6027232480441L517.4656,343.7788600998839L518.1696000000001,323.1858446965815L519.1808000000001,328.3110928802954L519.2448,355.78453761134745L520.3072,341.8212975881436L521.5872,341.29846804804936L521.7280000000001,346.52873155625525L522.0352,342.05007424317336L523.2,339.18573263716513L523.2256,349.46756429674144L523.6096,358.72193442852466L523.6224,353.4438579833922L524.1984,347.2733625909682L525.1328,326.7069334163153L526.0288,325.67102528889023L526.592,333.61086642610474L526.8736,343.049861283023L527.2832,338.6520429018511L527.5648,334.2586159839681L527.6544,345.7552001098751L527.7696000000001,356.8324602824423L527.7952,350.77210822296L527.8208,346.38495242075703L528.0255999999999,360.39806041086223L528.704,339.1879660025248L529.0368,345.26757995737483L529.408,347.4610932602801L529.9072,351.75046795960185L530.24,348.4018913383923L530.6624,362.4433647528674L531.2256,347.0404030706006L531.4688,327.5224137787619L533.2736,341.69506886509635L534.1056,334.01698448602855L534.3872,347.346547178636L534.528,345.8191458189459L534.5536,341.7414768476809L534.5792,330.3412165052265L535.1808,320.27945275090383L535.5008,322.83429206045685L535.8592,321.04130812153255L535.9744,309.82873166557306L536.576,327.56784293029403L536.8063999999999,343.1528931352207L537.1776,334.0594990930297L537.4592,345.26856146790607L538.2271999999999,328.2445562548009L539.3152,338.18451141388067L539.6352,348.2634238509159L540.1344,361.3308735362523L540.5824,329.82586477230967L541.248,344.75630455312324L541.3503999999999,346.08783996886876L542.8224,345.58648003851346L542.9632,346.38073256697396L543.0656,338.8303007612084L543.6288,334.2522788740156L544.6016,327.0402229258308L544.7168,325.83276300347046L546.9312,329.7573716010479L546.9952,315.51321068479166L547.6608,309.7433937871159L548.0064,306.7550119830961L548.8512000000001,318.88902426205846L548.8768,327.27776040932946L549.0048,327.3683887259105L549.0816,330.17820315064324L549.3248,334.17550252847155L549.3888,339.4025730544379L549.4016,339.2651965739754L549.76,339.707517823211L550.0287999999999,340.77702505285583L550.1312,331.53466131347864L550.592,328.64696630508456L552.0512,324.5477088120967L552.3072,326.5465738744967L552.5888,322.153782653809L552.6144,330.97255518977124L552.6528,323.32808082368547L552.8063999999999,346.30259380955044L552.9856,346.7836227617347L553.2416,345.67591838293197L553.3056,327.11453457455156L553.344,347.394686185643L553.9968,335.00909129345183L554.88,342.4631215712402L555.0592,336.71635959035007L555.1616,345.1912371170527L555.5328,343.47517809986243L556.2496,362.97724000005576L556.3776,346.87267218399916L556.6592,353.0212219000564L558.7456,335.5121637590013L559.9872,326.975689306438" style="fill: none;" fill="none"></path></g></g></g></g><g opacity="0.20000000298023224"><g><g><g><path stroke="rgb(255, 112, 67)" stroke-width="2px" d="M96.2176,-77.60824777185934L96.2688,19.767363710062753L97.6128,-122.58799918794224L98.1376,-140.66190758720066L98.66239999999999,0.9313103024447588L99.1232,-74.92690061618188L100.928,-56.21669125344084L101.376,58.47744250670067L101.9008,97.33911349038988L103.6416,-4.868458722319017L104.30720000000001,-36.95257498217495L104.4352,61.395350718604575L104.832,7.116657756268852L105.08800000000001,103.40312282421756L105.1008,5.507398870374361L106.6112,54.796101879328404L110.1952,27.875775532530795L111.1808,15.278818825525777L111.2448,63.460995424538766L111.5136,35.47437413994747L111.552,42.04369076394602L112.0384,88.72024474931608L112.9856,27.80657740043732L112.9984,84.85995453383237L113.2672,142.0459345994251L113.728,54.64998117248918L113.8304,95.23130620164524L114.3552,90.02696296466242L114.4704,83.57898446066032L114.6624,93.72954580932851L114.7776,121.53947046824861L115.2512,155.73750920061553L115.43039999999999,120.89383580322772L115.648,40.92268102403189L115.99360000000001,117.37213365733619L116.4032,106.57143171876665L116.6208,121.63860081561971L118.05440000000002,82.31410697634726L119.4624,188.23520499414633L119.4752,172.27747202983923L119.7312,169.14617608966572L119.744,17.142018763614434L120.256,99.45528892534114L120.94720000000001,95.2033050970307L121.17760000000001,169.01743537879415L121.48479999999999,187.81872879447684L121.792,199.78839638776014L121.8304,122.32446695278793L122.95680000000002,136.25678668330823L123.5712,129.06629612935438L124.5824,185.86669776588678L124.80000000000001,153.5708030366472L125.1328,162.9347586418901L125.6448,203.43111480187096L126.08000000000001,141.11192074205195L126.28479999999999,127.95783860875025L126.77120000000001,183.07366804352827L126.86080000000001,169.3614949285984L126.9504,97.59820417101889L126.98880000000001,177.3653049234833L127.232,188.08490021420377L127.5136,96.21359782559524L128.4096,130.91758755168743L129.2544,173.70198799563306L130.112,176.9765079766512L130.3424,233.25583158593096L130.88,181.81844611253058L131.3536,220.09499056530856L131.4944,152.85242986998387L132.2752,246.11509749133677L132.5952,146.87918273732066L132.7488,180.68584970863805L132.78719999999998,194.8431438314063L133.0688,205.2791877064322L133.5168,176.95333464869432L133.6576,200.01401448356256L134.1056,176.63212657506978L134.4896,233.6272485367954L135.2704,178.0154455133847L135.3984,169.508259338992L137.0112,180.14417316764593L138.048,211.98368207684587L138.0992,255.20032945754278L138.4192,208.74714060553484L139.03359999999998,202.66736053462543L139.5072,256.65349023150554L140.03199999999998,144.20169780296936L140.1344,208.558535464108L140.2496,189.00217777916365L140.54399999999998,272.2558988338071L141.1456,171.14133525639772L141.8496,230.07722343451218L141.9008,192.0340215201889L142.0032,186.22073472078358L142.4896,174.6134722286037L142.848,231.37396424476594L145.0112,228.5613015639995L145.1264,266.0213080580746L145.152,280.1995225463595L145.6896,260.77190557228676L145.7408,205.9702034720353L145.984,280.939781633871L146.3936,189.26577438467316L146.56,187.28574225146855L146.88,207.47711349278688L147.0464,245.44049616636977L147.23839999999998,241.72246443639912L147.3536,190.79167366027832L147.776,247.73948341075868L148.0832,239.23873427190955L148.6336,196.89398335559028L149.1584,190.0340345767992L149.696,197.72822316203803L149.8112,267.6489124952683L150.5152,311.170997212508L152.5376,233.3346852713398L153.344,181.23879106183136L153.7024,239.30986351466612L154.6496,211.11082005713672L155.0848,245.27216768690522L155.25119999999998,263.99943519383675L156.23680000000002,253.30236952751883L156.5568,272.3099699323732L156.7616,292.9242544089045L157.4784,240.9812397935561L158.2208,228.9517077697175L158.56640000000002,253.55502317260422L158.6176,215.59196235079855L159.68,235.1422048519765L159.9104,271.5539401077799L160.37120000000002,255.95442817147293L161.0496,321.53977406610346L161.0752,256.08831851077935L161.3824,205.3673750933792L161.39520000000002,180.38588385230727L161.4592,223.23368909635715L161.5232,213.6457246541977L163.5584,254.2144974640438L163.8528,314.3862964665252L164.0192,241.32304638092012L164.0832,285.76659273622295L164.28799999999998,289.576995926244L164.35199999999998,224.75057652220133L164.4672,242.94678859678768L164.67199999999997,271.8841600311655L165.4144,225.64307150031843L166.144,257.19323566183454L166.4,226.92854749837093L167.0656,302.82151840893295L167.57760000000002,249.35163896264777L167.68,261.9176978990436L168.5248,254.7513462283782L168.5632,328.6475487133223L169.4848,303.84790372635644L169.5488,315.1265555540367L169.57439999999997,259.3435273851668L170.2912,262.7596621481436L171.0976,226.9401341623494L171.13600000000002,278.3681859342116L171.2128,245.19041733550176L171.69920000000002,300.6895722368999L172.2496,268.37501010458385L172.8384,274.200527271522L173.1072,301.5849638810116L173.54240000000001,277.23011805010697L173.9264,218.85006789118054L174.1184,268.84587925459664L174.29760000000002,260.0580383305039L175.1808,264.80985796877326L175.53920000000002,312.72618499983645L175.5904,269.86614938825375L175.61599999999999,244.0426938980818L176.0768,215.2108898466187L176.2304,240.63009950465397L176.5504,279.62855749364417L177.1904,311.4513301104308L177.3312,282.4228746231114L177.84320000000002,250.50483388027982L178.048,321.75831142280794L178.9056,278.42901592009844L178.94400000000002,279.5107597431967L179.27679999999998,238.10581601623983L179.7632,282.55290274109166L179.77599999999998,179.9645798759801L180.1088,271.79758190310434L180.544,297.30047302320605L181.05599999999998,188.12674094523703L182.2208,288.33400436277907L183.96159999999998,260.8359540759453L184.2432,325.21049358482884L185.1648,234.74632716604646L185.9456,270.0669848972134L186.12480000000002,233.90822513827257L186.18880000000001,267.8095165320805L187.22560000000001,247.5489471586688L187.4816,234.48112130165103L188.68480000000002,266.6450568022473L189.4144,276.9893729207772L189.4912,289.4418181798289L190.31040000000002,236.9693573910211L190.8352,234.7534079051444L190.8864,257.7226818352938L191.2832,257.94475956154724L191.6672,268.0319161101112L192.0256,271.73095858522834L192.33280000000002,255.3203801704305L192.3584,294.81545545160776L192.9344,230.13419119907283L193.0624,249.03815533167557L193.536,284.62144411302046L193.6256,300.2351175275233L194.1376,270.8188306487033L195.008,305.7848077214191L195.2768,282.3665505621051L195.6224,308.3602656424046L195.9424,279.00770541546603L196.74880000000002,262.2356874548963L197.1456,331.02345853245697L197.9136,236.70382967484855L198.42559999999997,229.06081552218117L198.9248,263.2134731539658L199.0784,251.35709738624954L199.1936,251.53089734592612L199.38559999999998,251.54473697234482L199.616,235.80489766118788L199.79520000000002,289.116426033101L199.9616,310.3119748192175L200.1536,297.0510378958924L201.0368,311.63221080920533L202.0864,265.2720371208021L202.20159999999998,284.29025863430337L202.4448,273.9658973259586L203.78879999999998,274.11008692213477L203.8016,289.125437882862L204.3136,309.6827545948327L204.8384,287.2969979367087L204.85119999999998,335.81583149465075L205.0816,228.63436191741914L205.6064,285.20270842260555L205.91360000000003,265.7731603378697L206.08,280.1003921989884L206.29760000000002,304.48549209694784L206.6432,307.5907180431699L206.9376,329.7746736370028L207.33440000000002,247.83603894391234L207.3472,277.8802586400084L207.36,261.93507789501126L207.488,258.13690507252306L207.6544,335.34624975174677L207.7312,226.48149537986944L207.91039999999998,277.3733420909516L208.8064,273.700369609786L209.152,267.84974800422793L209.5488,280.52652395197333L209.7664,321.65789366832814L210.4448,328.38427395958996L210.6624,209.21800975554757L210.75199999999998,314.2842694531595L211.4432,307.51637028264156L211.584,283.5899091671621L212.37760000000003,262.29973595855495L212.416,289.0658953040839L212.4288,307.12371111448334L213.05599999999998,261.0409736580083L213.69599999999997,282.987080788506L213.7728,318.0428545070547L213.7856,298.0439506284893L213.8624,255.80444524330758L214.4128,327.7634218814119L214.6304,262.5803907082549L215.1808,295.4874819623573L215.6288,353.11407711090794L216.10240000000002,144.86728727817535L216.2304,296.1395536629218L216.25599999999997,348.0323594010303L217.0496,292.12767126038676L217.17759999999998,320.454168021679L217.2672,271.93050668707923L221.0944,282.3008927995606L221.15839999999997,300.0796631191459L221.26080000000002,317.92312564594414L221.4912,326.11200041270695L222.00320000000002,324.06277014740886L222.31040000000002,298.7459093545165L222.3872,263.83400338036677L222.976,274.4924468334233L223.5136,292.96287662216605L223.5904,253.62615241536076L223.6928,317.93310305103665L225.0368,346.2512316661223L225.84320000000002,332.05113125698915L226.0352,298.63647975027567L226.4704,287.31083756312734L226.7008,236.21010904865608L228.1984,286.31213149854125L228.62079999999997,228.5294382380588L229.7088,268.8223840748626L230.2208,240.4678862089558L230.4768,372.45994373357735L230.592,246.914255454072L230.86079999999998,274.28646169602877L231.2832,306.62805937762784L231.64159999999998,308.7484188856824L231.8976,249.29853341941327L232.0128,329.98452099572347L233.024,287.8647444716523L233.2416,255.41371718581237L233.94559999999998,253.05389995553668L234.5728,268.8626155470099L235.84,310.0219863679793L235.89120000000003,323.36499549448496L236.60799999999998,285.03373623958663L237.0688,279.124537610582L237.4656,318.08244227564774L237.64479999999998,342.21585408385323L238.1312,326.8416383915715L238.64319999999998,312.2221651167743L238.6944,216.82819502694272L238.72,322.21115687329865L238.98879999999997,337.386790019061L239.0016,288.9648338460497L239.1936,312.40143655666293L239.3472,255.0429439385023L239.6928,324.3060900909561L239.7184,273.99872620723085L239.744,314.10950393815136L240.6912,277.41421726665334L241.2928,339.2425873662745L241.89440000000002,311.2685183009932L242.6624,285.83900938608826L245.13280000000003,300.5598659706968L245.184,250.38671427805514L245.6832,314.95629596390904L246.04160000000002,320.5034113435874L246.09279999999998,285.8760223404638L246.7072,279.60892453523627L247.01440000000002,308.19547753248906L247.57760000000002,259.80248801942383L248.8064,308.37056489927437L249.7408,312.6006628067367L250.2912,318.0126004399999L250.8672,309.9363737952497L251.3664,312.93989457988323L251.75039999999998,323.8593598242318L252.224,305.6805277456131L253.0816,349.36096353722485L253.44,291.953549448933L253.54240000000001,371.39815472066414L254.37439999999998,283.35688848048454L254.6176,286.07750155297776L254.6816,329.7962377060738L256.6656,338.85314671588804L257.2672,315.6347595102022L258.1248,313.3010122738779L258.8288,336.388405806252L258.944,304.4861358005022L259.2768,273.7898444038417L259.7888,267.6698328607849L261.4656,307.4629428876299L261.6064,286.5303470034685L261.8368,350.1437070593239L262.5024,320.8358842294132L262.592,298.9119848715408L263.7312,360.2926591491062L263.82079999999996,349.9457682163589L264.3072,349.06292879155717L264.384,308.12660125217275L264.5632,267.91025613833756L264.6784,275.86096058998794L266.048,288.8824397910919L266.5856,261.6170883391585L267.1744,325.415835018669L267.456,291.2300266538348L268.736,334.51522846307086L269.6832,316.73517073637686L270.0928,305.94380249934545L270.25919999999996,322.78308748134555L270.3104,294.32881556451326L270.9888,314.3508927710355L271.03999999999996,272.8886594277408L271.232,350.489375868014L272.2432,323.4145606681705L272.832,324.163831605443L272.84479999999996,293.4376079935049L272.896,275.3250773809851L273.408,294.7852013845529L273.5872,333.75694567603733L273.7664,316.92055736003186L273.9584,293.1266991767501L274.368,345.89848211833424L274.5472,305.66121663898235L276.2752,276.95139441107005L276.6336,330.62500603230944L276.7488,244.51356304809454L277.3632,255.0577491202525L277.6448,413.20444761376314L277.8368,304.4304554430503L277.91360000000003,226.50981833626122L278.272,278.59026366046504L279.808,325.6346942271506L280.1664,265.98590436258496L281.1136,343.4733289772912L281.2416,298.76843897891905L281.728,314.43103386355307L282.1504,323.60895914158664L282.496,277.85805086738304L283.1744,281.3128078436214L283.8016,306.3055638968945L285.20959999999997,304.827620536089L285.77279999999996,314.7126541685846L286.2976,344.3381447025709L287.168,281.0022208786437L287.1808,390.467872518514L287.8592,308.7957310969277L287.8848,332.5667378040298L288.8064,296.97443717292384L289.2288,358.5549814041173L289.8176,308.458108582667L290.06080000000003,321.39590632170444L290.2656,314.39788313050366L294.1568,366.9076787254641L294.20799999999997,407.54661522273517L295.4752,319.70296597374346L295.8848,312.37214804493965L296.064,362.88163484473324L296.1024,329.0958882389325L296.4096,246.28085115658388L296.9216,303.2968934838262L297.6256,233.89760402962568L297.8048,321.01644307641055L298.2912,329.52845702746095L298.5728,237.94843049719933L299.13599999999997,358.4815991989205L299.2128,281.85384068105907L299.2256,301.5624342566091L299.4304,335.2928223567351L299.584,379.11487293030547L300.5312,328.1007225438953L300.79999999999995,298.4739446028004L300.9664,291.59307545849265L301.0944,319.58130600196984L302.64320000000004,357.4841805414431L303.1168,290.84798859432345L304.8064,341.5142172096032L305.6896,306.6547730751336L305.7024,270.0946641500508L306.1888,340.6387803756766L306.4064,322.8461704296726L306.5216,319.7753826236087L306.9568,261.927353452359L307.4304,324.42646265562104L308.7744,281.7086855295514L308.8768,278.10941710535974L308.928,363.24951142604874L309.568,298.705356030592L310.464,263.67533045421754L311.5264,291.25770590667224L311.7952,346.66513305157434L311.9488,335.47949638749884L312.0512,272.65789170350354L312.1024,293.35231727255245L312.1536,338.5042593894261L313.0496,375.7006692779917L313.9328,312.38244730180935L314.6496,292.5512281991542L315.584,282.46471535414463L315.8912,338.7993974690992L316.0832,304.2553680762649L316.3904,311.9901099854283L316.5568,305.3863552212716L316.672,343.66354337760396L317.0816,343.21198533422194L318.2848,254.69791883336651L318.5152,342.298248138811L318.656,264.91606905524225L320.10240000000005,361.48705109421707L320.11519999999996,314.6321912242899L320.192,323.14034295401416L320.23040000000003,313.0116675261941L320.384,280.44284248990675L320.576,323.83264612672593L321.97119999999995,316.08052422159494L323.08480000000003,333.0054217763246L323.6992,297.5273785261172L324.4672,299.45752363385907L324.5952,308.6492885383113L324.6464,308.2118919731252L324.65919999999994,340.0272619990367L325.87519999999995,358.43074661812625L326.7584,367.9176496022515L327.28319999999997,353.47648221201143L328.0256,344.0932155001377L328.3968,339.01181964203727L328.57599999999996,327.58061007197426L329.57439999999997,354.5794682524035L329.6128,306.4655242301524L330.1888,305.6715158958521L331.0976,308.12112977196074L331.30240000000003,256.5759239532054L331.5712,263.9633877947927L333.96479999999997,339.91010795214356L334.2208,330.01960283943595L334.656,342.2934203621533L334.86080000000004,284.104228307094L335.0016,337.2004378400744L335.76959999999997,360.5066905809302L335.82079999999996,359.77737445384275L335.98720000000003,295.41538716426925L336.1792,307.7873694790262L337.71520000000004,317.02065326273447L339.98080000000004,289.9564591715379L340.6336,321.44514964361287L341.0432,298.4836001561157L341.1584,283.33242774541895L341.40160000000003,335.9774010867946L341.63200000000006,323.1847584992648L342.3104,305.7333114370704L342.5664,346.72628488923834L342.84799999999996,354.05195318960733L343.14239999999995,329.72124624199114L343.36,383.3301656560175L343.39840000000004,354.26920313920306L343.4368,274.4158461104547L343.9104,302.2956126050226L344.26879999999994,341.8820937909187L344.4992,301.8891138104457L344.5248,381.62016716386603L345.728,341.7749171491181L346.0736,256.4391369479044L346.40639999999996,234.5213527737984L346.7264,326.95235540292106L346.7648,317.58260646568885L348.1216,284.59698337795487L348.17279999999994,346.0909494810872L348.3648,323.13390591847053L348.3904,341.57794386148464L348.4544,317.33638985614704L348.53119999999996,339.5374035941704L348.8,349.77132455312795L349.2608,330.003510250577L349.4656,273.2079363907023L350.4512,316.71360666730584L350.91200000000003,302.59139438825L351.01439999999997,329.0147815910834L351.09119999999996,274.047647677362L351.42400000000004,331.15734887176336L351.4752,317.18479766909576L351.78240000000005,350.1533626126393L351.9232,273.81398328713016L352.21760000000006,319.9266529588828L352.7808,354.30653794535584L353.792,372.05730716032656L354.16319999999996,258.7374804887389L354.752,301.49935130828203L356.2496,290.1843302297806L356.2752,294.56859513851157L356.3904,297.5093548265952L356.4416,319.21117645821414L356.4544,310.36475851067485L356.54400000000004,316.5819692904397L357.19679999999994,320.2353088131974L357.9008,323.24591033692883L357.9264,286.3575125991235L358.46400000000006,336.6960961052351L358.6432,285.9053108521871L359.6416,347.7105076238514L360.06399999999996,356.350618582219L362.8544,374.9784338900023L363.1616,340.9487236370999L363.5072,301.008205496307L363.78880000000004,323.901200555265L363.9168,333.761773452695L364.1216,337.1495852592801L364.9792,367.49151784926664L365.5424,353.8182887993754L365.696,355.6744079983661L365.9776,315.1481196231077L366.8864,340.1691986327726L366.91200000000003,339.2664043977858L367.3856,328.6839179641435L368,293.79164494840165L368.6272,363.94664237541826L368.8576,309.9556849018805L369.3056,320.8294471938696L369.77919999999995,362.6273719407619L371.03360000000004,345.8070762136154L371.7248,299.4275914185814L372.04479999999995,359.5952063479595L373.8368,317.791488269078L374.1824,346.4446645842068L375.52639999999997,335.86185629878736L375.59040000000005,314.73808045898176L375.7568,360.03099365425976L376.0512,338.2506401890092L376.2048,330.4045375649419L378.2016,350.17170816393843L378.6624,339.21040218855666L379.072,307.59168359850145L380.0448,281.04277420256824L380.05760000000004,320.8970360670772L381.248,318.32865888518955L382.3872,339.21136774388816L382.41280000000006,328.53586614664124L383.10400000000004,333.27030578894284L383.14239999999995,354.3013883169209L384.0384,284.0884575700122L385.3056,303.87397372030796L387.03360000000004,291.78328985880535L387.9808,349.95284895545683L388.544,329.0344145494913L388.6208,370.16385315518306L390.464,353.5505081207626L392.20480000000003,330.8045993239753L392.4864,328.92884716657665L392.65279999999996,350.1018663282906L393.21599999999995,308.7426255536932L393.65119999999996,299.171397403947L393.7024,322.53204309514604L393.9456,341.62010644429506L395.4048,252.54376488870815L395.7888,268.1596912656512L396.6592,273.8693417928049L396.8384,347.3101240130409L397.3504,294.42376183878105L398.11839999999995,308.96277216928354L398.2464,334.7366624857699L398.3872,307.5231291699623L398.4384,353.5347373836808L398.84799999999996,322.5404112413526L398.9376,349.5012909120748L399.2064,334.00123117491614L399.6544,348.86659920747803L399.9104,340.5119707754681L399.93600000000004,279.15253871519656L400.1536,299.43016623279885L400.33279999999996,291.8621435442142L401.1264,315.920563888337L401.15200000000004,302.47778071090585L401.88160000000005,341.5132516542717L402.84159999999997,303.39634568297447L403.6352,318.88707171859494L405.5424,373.8889656242517L406.13120000000004,319.05218168028773L406.42560000000003,278.41614184901124L408.28159999999997,347.8431105560491L408.7552,350.2904714697175L408.90880000000004,367.42489453139063L409.2416,347.1266685000489L409.4464,308.4265671085035L409.47200000000004,343.84925185303615L409.57439999999997,291.5357858421548L409.6,303.42563419469775L410.13759999999996,337.8010132562902L410.8672,339.37229363247764L411.0592,312.2569251087096L411.072,385.0021856384619L412.0576,341.4871816603202L412.18559999999997,389.72890083811126L412.3392,322.37691053854576L413.12,306.011391372553L413.96479999999997,318.7364450868752L414.08000000000004,305.66958478518904L414.4896,366.1564766775286L414.60479999999995,269.24658471718436L414.7072,298.80609563684897L414.80960000000005,347.68862170300326L415.20640000000003,277.47633465964884L415.232,310.5906984582544L416.6144,338.51134012852407L416.96,353.2907737365792L417.1264,353.3989159337113L417.15200000000004,362.57877232240793L417.2672,301.02204512272573L418.07360000000006,236.59761858837948L418.6368,362.54015010914645L418.7008,329.4405914922911L420.28799999999995,342.99505723640334L420.76160000000004,324.6050903919553L420.8256,302.7809650850084L420.8896,255.7523052554046L421.312,294.058460071683L421.5168,283.07237150945843L421.9648,353.93512099449134L422.0928,321.87256880370643L422.1184,326.81299358340254L422.1696,277.80237050993105L422.2208,353.3087974361012L422.8864,329.9841991439463L423.6672,336.6742101843869L423.68,313.5279177767891L423.69280000000003,378.3479001452882L424.9472,299.8962076061539L425.664,356.19709528450466L426.22720000000004,349.2351194923479L426.4192,352.3374487725753L426.66240000000005,361.1912693109897L426.8032,338.17243020715466L427.3792,324.5568126253784L427.62239999999997,339.16920516107774L427.84,356.64994073499537L429.9904,361.8108339820591L430.74559999999997,369.2649211415224L431.7056,358.1645751983993L431.74399999999997,356.2913978552181L431.85920000000004,333.9664711829808L432.71680000000003,352.8179734759034L432.9216,362.5858530615059L432.99840000000006,365.4953931272031L434.06080000000003,352.0426325446794L434.112,371.2391599427378L434.3808,335.7556452123183L435.072,305.7246214390866L436.0064,292.2576993783671L436.1856,341.3906261271665L436.608,348.0754875391723L436.7104,352.81539866168595L437.4912,311.2131597953184L437.5168,304.363510273397L437.7856,338.21523649351946L438.50239999999997,379.8956853417415L438.9248,353.08028267430416L439.424,333.52843091424035L440.1536,291.31982329966775L441.44640000000004,384.70061052324525L441.6896,322.74446526808407L443.49440000000004,358.8720054046385L444.6336,347.8994346170554L444.736,321.02159270484543L445.43999999999994,369.52208071148834L445.6832,303.78095855670324L446.336,317.2778128327005L446.71999999999997,315.2517558953593L446.8864,374.8709353964245L448.98560000000003,337.8595902797368L449.0112,318.87258838862186L449.77919999999995,342.4108962608236L450.13759999999996,253.24733287362122L451.2896,309.95407564299455L451.3152,376.2465298920871L451.4432,314.103388754385L452.37760000000003,311.4819060292628L453.1712,303.5543749055693L453.26079999999996,319.2993638451611L453.69599999999997,348.71951294530726L454.9632,371.03832443377814L455.616,317.54366240065025L456.16639999999995,343.631358199886L456.81919999999997,351.978905892798L457.16479999999996,353.6235684741822L457.5616,301.5440887053099L457.6256,366.97752056111193L457.92,277.79625532616467L458.88,350.75940950906715L459.58399999999995,302.77002212458433L459.7888,314.7033204670464L460.2368,297.7623303234578L460.3136,366.9453353833941L460.4672,335.00283390549686L461.6832,301.3831628167204L461.7728,362.90030224780963L461.99039999999997,340.79938441248885L462.28479999999996,344.6934690645764L462.50239999999997,345.79484584608264L462.83520000000004,339.94808646185066L463.97440000000006,275.3434229322843L464.1152,354.9235278022078L464.4352,332.1669978967736L465.152,351.43368898225697L465.3056,362.49444715678703L465.472,377.73831287931137L467.00800000000004,290.3356005650546L467.5584,306.891012279583L467.6992,320.952394572752L467.7248,338.49009791123024L467.776,340.67128740517165L468.288,390.20781628255344L468.7104,300.1253660715053L468.9152,294.2950211279095L469.86240000000004,353.73557289264045L472.30719999999997,326.6063647424537L473.28000000000003,330.1364350345519L473.4464,305.61293887240555L473.6256,302.0587296970189L474.06080000000003,345.3111026249827L475.34080000000006,319.1278168479248L475.8656,306.71399380213455L476.21119999999996,316.26397973458694L476.5312,323.5320365668409L476.64639999999997,332.56545039692105L476.7232,333.9088597148658L476.8256,289.56122518916226L476.91519999999997,325.88831342756754L477.32480000000004,361.2347193009088L477.69599999999997,338.36521942168486L478.75839999999994,366.308390716357L479.9488,300.0226953545852L480.37120000000004,337.4144692718984L481.2672,403.09797995856843L481.5616,320.7013501865524L482.0608,381.5461412551149L482.496,310.0828163538661L483.2512,299.47651288871265L483.3664,324.7013240733318L483.86560000000003,320.9752460489317L484.5312,322.44610867063926L485.01759999999996,348.3912241325848L485.2992,360.0470862431187L485.696,344.946444561439L486.1568,279.43126235423347L486.208,304.7883546192732L486.31039999999996,338.0395054231798L487.1168,311.59326674416667L487.1552,334.63399176884985L488.4992,348.9625110370774L488.65279999999996,281.9861217614796L488.79359999999997,385.4415133143111L488.99839999999995,315.80276613788953L489.1776,383.8863255269827L489.4464,310.51087921751406L489.74080000000004,380.3305070927102L489.9712,314.2681768643006L490.2272,329.85352732241165L492.26239999999996,350.7433169202082L492.7104,295.4971375156727L493.29920000000004,383.73473333993144L496.5376,377.7225421422296L496.71680000000003,337.0494893565775L497.33119999999997,368.14648621582575L497.93280000000004,356.1877615829665L498.9056,292.31112677337876L499.5968,297.1743071265519L500.42879999999997,379.7914053659355L500.4416,295.56665749954334L500.5952,343.5158134118788L500.608,327.9288536948818L501.5936,335.77366891184033L501.6704,338.70702600904883L502.41280000000006,300.69182519934014L502.66880000000003,377.54005218456916L503.0016,356.0017312557571L503.44960000000003,329.8274573284601L505.216,297.9020139947534L505.728,345.53285849945894L506.30400000000003,355.4523302721127L506.4192,335.4260689924871L507.3408,373.79208823932083L507.87840000000006,311.2379423821612L508.0704,321.040581959699L508.1344,347.44852027722783L508.30080000000004,318.4686644082624L508.4928,312.55206318838265L511.82079999999996,329.29962041388677L511.9232,364.9035077089711L512.448,367.1114109004184L512.4608,322.8133415484004L512.8832,374.28323405129584L513.1264,375.339551583997L513.472,345.68284142762434L513.8432,342.1624266888415L513.9072,329.2233415426954L513.9327999999999,318.67368399032534L514.1888,371.934037929667L515.776,369.552012926766L515.9168,397.5251164367158L516.7616,348.0278534761498L516.7872,343.13055683459567L517.0176,341.36455613321505L517.4656,335.0430653776442L518.1696000000001,292.29632159162855L519.1808000000001,335.99896515586556L519.2448,396.99470470792494L520.3072,320.8764375533377L521.5872,340.51422373790837L521.7280000000001,354.3741268185634L522.0352,335.3320882735509L523.2,334.88922022815274L523.2256,364.8903117861068L523.6096,372.6034896261991L523.6224,345.5267433156926L524.1984,338.0176195023316L525.1328,295.8572896543359L526.0288,324.1171630977521L526.592,345.5206281319262L526.8736,357.2083535684008L527.2832,332.0553153300925L527.5648,327.6684756071441L527.6544,363.0000762987351L527.7696000000001,373.44835054129373L527.7952,341.68158013373625L527.8208,339.8042187174517L528.0255999999999,381.4177223960205L528.704,307.3728243900198L529.0368,354.3870008896505L529.408,350.7513632146377L529.9072,358.1845300085844L530.24,343.37902640657774L530.6624,383.5055748745801L531.2256,323.93596054720035L531.4688,298.24542984100333L533.2736,362.9540514945985L534.1056,322.4998579174281L534.3872,367.3408912175469L534.528,343.5280437794116L534.5536,335.6249733907837L534.5792,313.24082599154553L535.1808,305.1868071194207L535.5008,326.66655102478614L535.8592,318.35183221314645L535.9744,293.0098669816341L536.576,354.1765098273755L536.8063999999999,366.53046844261047L537.1776,320.4194080297437L537.4592,362.08215503022086L538.2271999999999,302.70854843514314L539.3152,353.0944441525001L539.6352,363.38179250646925L540.1344,380.9320480642576L540.5824,282.56835162639624L541.248,367.1519642243429L541.3503999999999,348.08514309248767L542.8224,344.8344401429807L542.9632,347.5721113596645L543.0656,327.50465305256L543.6288,327.38524604322663L544.6016,316.22213900355365L544.7168,324.02157311992994L546.9312,335.64428449741445L546.9952,294.1469693104072L547.6608,301.08866844060174L548.0064,302.27243927706576L548.8512000000001,337.09004268050205L548.8768,339.8608646302352L549.0048,327.5043312007829L549.0816,334.39292478774286L549.3248,340.17145159521283L549.3888,347.2431788433877L549.4016,339.05913185328257L549.76,340.3709996970638L550.0287999999999,342.38128589732315L550.1312,317.67111570441307L550.592,324.3154237924943L552.0512,318.39882257261456L552.3072,329.544871468097L552.5888,315.56459582277716L552.6144,344.2007139937155L552.6528,311.8613692745567L552.8063999999999,380.76436328834734L552.9856,347.50516619001127L553.2416,344.0143618147289L553.3056,299.2724588619812L553.344,377.81491360227994L553.9968,316.4306989551656L554.88,353.64416698792166L555.0592,328.0962166190148L555.1616,357.9035534071072L555.5328,340.9010895740774L556.2496,392.2303328503457L556.3776,322.71582045991516L556.6592,362.24404647414184L558.7456,309.2485765474184L559.9872,314.17097762759255" style="fill: none;" fill="none"></path></g></g></g></g></g></g><g transform="translate(50, 377)" clip-path="url(#clip_1)"><clipPath id="clip_1"><rect width="640" height="22"></rect></clipPath><g><g><line x1="0" y1="0" x2="0" y2="5" style="visibility: inherit;" fill="rgb(0, 0, 0)" stroke="rgb(204, 204, 204)" stroke-width="1px"></line><line x1="80" y1="0" x2="80" y2="5" style="visibility: inherit;" fill="rgb(0, 0, 0)" stroke="rgb(204, 204, 204)" stroke-width="1px"></line><line x1="160" y1="0" x2="160" y2="5" style="visibility: inherit;" fill="rgb(0, 0, 0)" stroke="rgb(204, 204, 204)" stroke-width="1px"></line><line x1="240" y1="0" x2="240" y2="5" style="visibility: inherit;" fill="rgb(0, 0, 0)" stroke="rgb(204, 204, 204)" stroke-width="1px"></line><line x1="320" y1="0" x2="320" y2="5" style="visibility: inherit;" fill="rgb(0, 0, 0)" stroke="rgb(204, 204, 204)" stroke-width="1px"></line><line x1="400" y1="0" x2="400" y2="5" style="visibility: inherit;" fill="rgb(0, 0, 0)" stroke="rgb(204, 204, 204)" stroke-width="1px"></line><line x1="480" y1="0" x2="480" y2="5" style="visibility: inherit;" fill="rgb(0, 0, 0)" stroke="rgb(204, 204, 204)" stroke-width="1px"></line><line x1="560" y1="0" x2="560" y2="5" style="visibility: inherit;" fill="rgb(0, 0, 0)" stroke="rgb(204, 204, 204)" stroke-width="1px"></line><line x1="640" y1="0" x2="640" y2="5" style="visibility: inherit;" fill="rgb(0, 0, 0)" stroke="rgb(204, 204, 204)" stroke-width="1px"></line></g><g transform="translate(0, 8)"><text x="0" y="0" dx="0em" dy="0.95em" style="text-anchor: middle; visibility: hidden; font-family: Roboto, sans-serif; font-size: 12px; font-weight: 200;" fill="rgb(50, 49, 63)" stroke="none" stroke-width="1px">-50k</text><text x="80" y="0" dx="0em" dy="0.95em" style="text-anchor: middle; visibility: inherit; font-family: Roboto, sans-serif; font-size: 12px; font-weight: 200;" fill="rgb(50, 49, 63)" stroke="none" stroke-width="1px">0</text><text x="160" y="0" dx="0em" dy="0.95em" style="text-anchor: middle; visibility: inherit; font-family: Roboto, sans-serif; font-size: 12px; font-weight: 200;" fill="rgb(50, 49, 63)" stroke="none" stroke-width="1px">50k</text><text x="240" y="0" dx="0em" dy="0.95em" style="text-anchor: middle; visibility: inherit; font-family: Roboto, sans-serif; font-size: 12px; font-weight: 200;" fill="rgb(50, 49, 63)" stroke="none" stroke-width="1px">100k</text><text x="320" y="0" dx="0em" dy="0.95em" style="text-anchor: middle; visibility: inherit; font-family: Roboto, sans-serif; font-size: 12px; font-weight: 200;" fill="rgb(50, 49, 63)" stroke="none" stroke-width="1px">150k</text><text x="400" y="0" dx="0em" dy="0.95em" style="text-anchor: middle; visibility: inherit; font-family: Roboto, sans-serif; font-size: 12px; font-weight: 200;" fill="rgb(50, 49, 63)" stroke="none" stroke-width="1px">200k</text><text x="480" y="0" dx="0em" dy="0.95em" style="text-anchor: middle; visibility: inherit; font-family: Roboto, sans-serif; font-size: 12px; font-weight: 200;" fill="rgb(50, 49, 63)" stroke="none" stroke-width="1px">250k</text><text x="560" y="0" dx="0em" dy="0.95em" style="text-anchor: middle; visibility: inherit; font-family: Roboto, sans-serif; font-size: 12px; font-weight: 200;" fill="rgb(50, 49, 63)" stroke="none" stroke-width="1px">300k</text><text x="640" y="0" dx="0em" dy="0.95em" style="text-anchor: middle; visibility: hidden; font-family: Roboto, sans-serif; font-size: 12px; font-weight: 200;" fill="rgb(50, 49, 63)" stroke="none" stroke-width="1px">350k</text></g><line x1="0" y1="0" x2="640" y2="0" fill="rgb(0, 0, 0)" stroke="rgb(204, 204, 204)" stroke-width="1px"></line></g></g></g></g></svg>