<svg viewBox="0 0 330 200" xmlns="http://www.w3.org/2000/svg"><g><g><g><g><g><line x1="51.5625" y1="177.921875" x2="46.5625" y2="177.921875" style="visibility: inherit;" fill="rgb(0, 0, 0)" stroke="rgb(204, 204, 204)" stroke-width="1px"></line><line x1="51.5625" y1="165.21316964285714" x2="46.5625" y2="165.21316964285714" style="visibility: inherit;" fill="rgb(0, 0, 0)" stroke="rgb(204, 204, 204)" stroke-width="1px"></line><line x1="51.5625" y1="152.50446428571425" x2="46.5625" y2="152.50446428571425" style="visibility: inherit;" fill="rgb(0, 0, 0)" stroke="rgb(204, 204, 204)" stroke-width="1px"></line><line x1="51.5625" y1="139.79575892857136" x2="46.5625" y2="139.79575892857136" style="visibility: inherit;" fill="rgb(0, 0, 0)" stroke="rgb(204, 204, 204)" stroke-width="1px"></line><line x1="51.5625" y1="127.0870535714285" x2="46.5625" y2="127.0870535714285" style="visibility: inherit;" fill="rgb(0, 0, 0)" stroke="rgb(204, 204, 204)" stroke-width="1px"></line><line x1="51.5625" y1="114.37834821428562" x2="46.5625" y2="114.37834821428562" style="visibility: inherit;" fill="rgb(0, 0, 0)" stroke="rgb(204, 204, 204)" stroke-width="1px"></line><line x1="51.5625" y1="101.66964285714273" x2="46.5625" y2="101.66964285714273" style="visibility: inherit;" fill="rgb(0, 0, 0)" stroke="rgb(204, 204, 204)" stroke-width="1px"></line><line x1="51.5625" y1="88.96093750000014" x2="46.5625" y2="88.96093750000014" style="visibility: inherit;" fill="rgb(0, 0, 0)" stroke="rgb(204, 204, 204)" stroke-width="1px"></line><line x1="51.5625" y1="76.25223214285727" x2="46.5625" y2="76.25223214285727" style="visibility: inherit;" fill="rgb(0, 0, 0)" stroke="rgb(204, 204, 204)" stroke-width="1px"></line><line x1="51.5625" y1="63.5435267857144" x2="46.5625" y2="63.5435267857144" style="visibility: inherit;" fill="rgb(0, 0, 0)" stroke="rgb(204, 204, 204)" stroke-width="1px"></line><line x1="51.5625" y1="50.8348214285715" x2="46.5625" y2="50.8348214285715" style="visibility: inherit;" fill="rgb(0, 0, 0)" stroke="rgb(204, 204, 204)" stroke-width="1px"></line><line x1="51.5625" y1="38.12611607142863" x2="46.5625" y2="38.12611607142863" style="visibility: inherit;" fill="rgb(0, 0, 0)" stroke="rgb(204, 204, 204)" stroke-width="1px"></line><line x1="51.5625" y1="25.41741071428576" x2="46.5625" y2="25.41741071428576" style="visibility: inherit;" fill="rgb(0, 0, 0)" stroke="rgb(204, 204, 204)" stroke-width="1px"></line><line x1="51.5625" y1="12.708705357142872" x2="46.5625" y2="12.708705357142872" style="visibility: inherit;" fill="rgb(0, 0, 0)" stroke="rgb(204, 204, 204)" stroke-width="1px"></line><line x1="51.5625" y1="0" x2="46.5625" y2="0" style="visibility: inherit;" fill="rgb(0, 0, 0)" stroke="rgb(204, 204, 204)" stroke-width="1px"></line></g><g transform="translate(41.5625, 0)"><text x="0" y="177.921875" dx="0em" dy="0.3em" style="text-anchor: end; visibility: hidden; font-family: Roboto, sans-serif; font-size: 12px; font-weight: 200;" fill="rgb(50, 49, 63)" stroke="none" stroke-width="1px">1.06</text><text x="0" y="165.21316964285714" dx="0em" dy="0.3em" style="text-anchor: end; visibility: inherit; font-family: Roboto, sans-serif; font-size: 12px; font-weight: 200;" fill="rgb(50, 49, 63)" stroke="none" stroke-width="1px">1.07</text><text x="0" y="152.50446428571425" dx="0em" dy="0.3em" style="text-anchor: end; visibility: hidden; font-family: Roboto, sans-serif; font-size: 12px; font-weight: 200;" fill="rgb(50, 49, 63)" stroke="none" stroke-width="1px">1.08</text><text x="0" y="139.79575892857136" dx="0em" dy="0.3em" style="text-anchor: end; visibility: inherit; font-family: Roboto, sans-serif; font-size: 12px; font-weight: 200;" fill="rgb(50, 49, 63)" stroke="none" stroke-width="1px">1.09</text><text x="0" y="127.0870535714285" dx="0em" dy="0.3em" style="text-anchor: end; visibility: hidden; font-family: Roboto, sans-serif; font-size: 12px; font-weight: 200;" fill="rgb(50, 49, 63)" stroke="none" stroke-width="1px">1.1</text><text x="0" y="114.37834821428562" dx="0em" dy="0.3em" style="text-anchor: end; visibility: inherit; font-family: Roboto, sans-serif; font-size: 12px; font-weight: 200;" fill="rgb(50, 49, 63)" stroke="none" stroke-width="1px">1.11</text><text x="0" y="101.66964285714273" dx="0em" dy="0.3em" style="text-anchor: end; visibility: hidden; font-family: Roboto, sans-serif; font-size: 12px; font-weight: 200;" fill="rgb(50, 49, 63)" stroke="none" stroke-width="1px">1.12</text><text x="0" y="88.96093750000014" dx="0em" dy="0.3em" style="text-anchor: end; visibility: inherit; font-family: Roboto, sans-serif; font-size: 12px; font-weight: 200;" fill="rgb(50, 49, 63)" stroke="none" stroke-width="1px">1.13</text><text x="0" y="76.25223214285727" dx="0em" dy="0.3em" style="text-anchor: end; visibility: hidden; font-family: Roboto, sans-serif; font-size: 12px; font-weight: 200;" fill="rgb(50, 49, 63)" stroke="none" stroke-width="1px">1.14</text><text x="0" y="63.5435267857144" dx="0em" dy="0.3em" style="text-anchor: end; visibility: inherit; font-family: Roboto, sans-serif; font-size: 12px; font-weight: 200;" fill="rgb(50, 49, 63)" stroke="none" stroke-width="1px">1.15</text><text x="0" y="50.8348214285715" dx="0em" dy="0.3em" style="text-anchor: end; visibility: hidden; font-family: Roboto, sans-serif; font-size: 12px; font-weight: 200;" fill="rgb(50, 49, 63)" stroke="none" stroke-width="1px">1.16</text><text x="0" y="38.12611607142863" dx="0em" dy="0.3em" style="text-anchor: end; visibility: inherit; font-family: Roboto, sans-serif; font-size: 12px; font-weight: 200;" fill="rgb(50, 49, 63)" stroke="none" stroke-width="1px">1.17</text><text x="0" y="25.41741071428576" dx="0em" dy="0.3em" style="text-anchor: end; visibility: hidden; font-family: Roboto, sans-serif; font-size: 12px; font-weight: 200;" fill="rgb(50, 49, 63)" stroke="none" stroke-width="1px">1.18</text><text x="0" y="12.708705357142872" dx="0em" dy="0.3em" style="text-anchor: end; visibility: inherit; font-family: Roboto, sans-serif; font-size: 12px; font-weight: 200;" fill="rgb(50, 49, 63)" stroke="none" stroke-width="1px">1.19</text><text x="0" y="0" dx="0em" dy="0.3em" style="text-anchor: end; visibility: hidden; font-family: Roboto, sans-serif; font-size: 12px; font-weight: 200;" fill="rgb(50, 49, 63)" stroke="none" stroke-width="1px">1.2</text></g><line x1="51.5625" y1="0" x2="51.5625" y2="177.921875" fill="rgb(0, 0, 0)" stroke="rgb(204, 204, 204)" stroke-width="1px"></line></g></g><g transform="translate(51, 0)" clip-path="url(#clip_0)"><clipPath id="clip_0"><rect width="278" height="177"></rect></clipPath><g><g><g><line x1="0" y1="0" x2="0" y2="177.921875" fill="rgb(0, 0, 0)" stroke="rgb(60, 60, 60)" stroke-width="1px" opacity="0.25"></line><line x1="34.8046875" y1="0" x2="34.8046875" y2="177.921875" fill="rgb(0, 0, 0)" stroke="rgb(60, 60, 60)" stroke-width="1px" opacity="0.25"></line><line x1="69.609375" y1="0" x2="69.609375" y2="177.921875" fill="rgb(0, 0, 0)" stroke="rgb(60, 60, 60)" stroke-width="1px" opacity="0.25"></line><line x1="104.4140625" y1="0" x2="104.4140625" y2="177.921875" fill="rgb(0, 0, 0)" stroke="rgb(60, 60, 60)" stroke-width="1px" opacity="0.25"></line><line x1="139.21875" y1="0" x2="139.21875" y2="177.921875" fill="rgb(0, 0, 0)" stroke="rgb(60, 60, 60)" stroke-width="1px" opacity="0.25"></line><line x1="174.0234375" y1="0" x2="174.0234375" y2="177.921875" fill="rgb(0, 0, 0)" stroke="rgb(60, 60, 60)" stroke-width="1px" opacity="0.25"></line><line x1="208.828125" y1="0" x2="208.828125" y2="177.921875" fill="rgb(0, 0, 0)" stroke="rgb(60, 60, 60)" stroke-width="1px" opacity="0.25"></line><line x1="243.6328125" y1="0" x2="243.6328125" y2="177.921875" fill="rgb(0, 0, 0)" stroke="rgb(60, 60, 60)" stroke-width="1px" opacity="0.25"></line><line x1="278.4375" y1="0" x2="278.4375" y2="177.921875" fill="rgb(0, 0, 0)" stroke="rgb(60, 60, 60)" stroke-width="1px" opacity="0.25"></line></g><g><line x1="0" y1="177.921875" x2="278.4375" y2="177.921875" fill="rgb(0, 0, 0)" stroke="rgb(60, 60, 60)" stroke-width="1px" opacity="0.25"></line><line x1="0" y1="165.21316964285714" x2="278.4375" y2="165.21316964285714" fill="rgb(0, 0, 0)" stroke="rgb(60, 60, 60)" stroke-width="1px" opacity="0.25"></line><line x1="0" y1="152.50446428571425" x2="278.4375" y2="152.50446428571425" fill="rgb(0, 0, 0)" stroke="rgb(60, 60, 60)" stroke-width="1px" opacity="0.25"></line><line x1="0" y1="139.79575892857136" x2="278.4375" y2="139.79575892857136" fill="rgb(0, 0, 0)" stroke="rgb(60, 60, 60)" stroke-width="1px" opacity="0.25"></line><line x1="0" y1="127.0870535714285" x2="278.4375" y2="127.0870535714285" fill="rgb(0, 0, 0)" stroke="rgb(60, 60, 60)" stroke-width="1px" opacity="0.25"></line><line x1="0" y1="114.37834821428562" x2="278.4375" y2="114.37834821428562" fill="rgb(0, 0, 0)" stroke="rgb(60, 60, 60)" stroke-width="1px" opacity="0.25"></line><line x1="0" y1="101.66964285714273" x2="278.4375" y2="101.66964285714273" fill="rgb(0, 0, 0)" stroke="rgb(60, 60, 60)" stroke-width="1px" opacity="0.25"></line><line x1="0" y1="88.96093750000014" x2="278.4375" y2="88.96093750000014" fill="rgb(0, 0, 0)" stroke="rgb(60, 60, 60)" stroke-width="1px" opacity="0.25"></line><line x1="0" y1="76.25223214285727" x2="278.4375" y2="76.25223214285727" fill="rgb(0, 0, 0)" stroke="rgb(60, 60, 60)" stroke-width="1px" opacity="0.25"></line><line x1="0" y1="63.5435267857144" x2="278.4375" y2="63.5435267857144" fill="rgb(0, 0, 0)" stroke="rgb(60, 60, 60)" stroke-width="1px" opacity="0.25"></line><line x1="0" y1="50.8348214285715" x2="278.4375" y2="50.8348214285715" fill="rgb(0, 0, 0)" stroke="rgb(60, 60, 60)" stroke-width="1px" opacity="0.25"></line><line x1="0" y1="38.12611607142863" x2="278.4375" y2="38.12611607142863" fill="rgb(0, 0, 0)" stroke="rgb(60, 60, 60)" stroke-width="1px" opacity="0.25"></line><line x1="0" y1="25.41741071428576" x2="278.4375" y2="25.41741071428576" fill="rgb(0, 0, 0)" stroke="rgb(60, 60, 60)" stroke-width="1px" opacity="0.25"></line><line x1="0" y1="12.708705357142872" x2="278.4375" y2="12.708705357142872" fill="rgb(0, 0, 0)" stroke="rgb(60, 60, 60)" stroke-width="1px" opacity="0.25"></line><line x1="0" y1="0" x2="278.4375" y2="0" fill="rgb(0, 0, 0)" stroke="rgb(60, 60, 60)" stroke-width="1px" opacity="0.25"></line></g></g></g><g><g><line x1="0" y1="1525.0446428571438" x2="278.4375" y2="1525.0446428571438" fill="rgb(0, 0, 0)" stroke="rgb(153, 153, 153)" stroke-width="1.5px"></line></g></g><g><g><line x1="34.8046875" y1="0" x2="34.8046875" y2="177.921875" fill="rgb(0, 0, 0)" stroke="rgb(153, 153, 153)" stroke-width="1.5px"></line></g></g><g><g><g><g><g><path stroke="rgb(255, 112, 67)" stroke-width="2px" d="M43.441818749999996,-5.669149364221411L43.51978125,5.244688012633026L43.865043750000005,11.106091370428397L43.90959375,5.2233544349587175L44.1045,8.170682647674289L44.33281875,2.6269223518014484L45.090168750000004,2.8037605165425226L45.37974375,12.481848879474075L45.43543125,18.552068756058638L45.6080625,11.76393983317376L45.719437500000005,24.43128057177296L45.72500625,25.587802148282062L46.382118750000004,32.67027031651465L47.94136875,33.15122962223582L48.370162500000006,50.32685668476521L48.39800625,42.6066924469432L48.51495,38.20960004293291L48.531656250000005,35.09345434533146L48.74326875,45.14338978442659L49.155356250000004,48.55071162810663L49.160925,46.040542751052854L49.277868749999996,32.91351512661946L49.47834375,40.69084050220211L49.522893749999994,43.643775549304245L49.7512125,45.13253537394338L49.80133125,38.27107349084454L49.884862500000004,55.55563213640162L49.93498125,46.62701843295416L50.141025,37.411398468739165L50.2189875,45.06854938275323L50.31365625,50.09315932022396L50.4640125,51.11940247849769L50.6422125,70.0217529141503L50.736881249999996,61.01689163084707L51.36058125,69.16803571914028L51.97314375,80.7853032432206L51.9787125,68.52424727572246L52.090087499999996,69.3755575977076L52.09565625,70.74413437703832L52.31840625,74.99317039840304L52.619118750000005,68.12865090246731L52.719356250000004,71.00643191646706L52.85300625,63.98206095067802L52.986656249999996,69.83731203413606L53.0033625,72.26311994404116L53.493412500000005,77.80115460150891L53.760712500000004,72.16847199717083L54.20064375,71.95883951411284L54.2953125,69.50366317930352L54.4401,74.2454940893119L54.66285,74.27124616908215L54.8521875,71.36578563651885L54.9412875,74.50552237596688L55.1529,84.74850489664604L55.19188125,82.44679938067695L55.2308625,81.16885638102278L55.247568750000006,76.17713107045256L55.353375,76.7405178705543L55.4758875,81.86757267409418L55.865700000000004,78.80249763812921L56.2332375,70.8579591976778L56.60634375,62.6678305670213L56.70658125,75.41599788629276L56.940468749999994,72.22892157077192L57.1465125,81.92620931172006L57.20776875,88.83580308554471L57.5474625,84.54176049980546L57.68668125,86.8031405345638L57.75350625,89.76762143141283L57.7702125,85.61134447077676L57.892725,86.0764255680682L58.08763125,87.11521428850128L58.1488875,99.86814938735783L58.34379375,84.69983266337668L58.510856249999996,96.19242207774725L58.85055,82.97864951490033L58.906237499999996,85.26897162164173L59.6079,83.85217913964344L60.05896875,95.43621906029554L60.08124375,99.21206034610238L60.220462500000004,111.73723744641626L60.487762499999995,99.28560889387653L60.69380625,94.3264946938595L60.922125,98.54513492931025L60.966674999999995,101.25224037553046L61.01679375,117.59856561473127L61.144875,98.73858123064707L61.40660625,83.80599277746241L61.7128875,83.27611838406409L61.7351625,81.26303471827723L61.779712499999995,83.64566381503792L61.991325,88.90666549129777L62.14725,89.16495845302042L63.08836875,100.3169246840382L63.1384875,97.46569167541891L63.149625,100.05360077365974L63.3835125,99.55267861171552L63.4057875,100.51841935114172L63.511593749999996,101.02538639875199L63.68979375,102.40812239221479L63.7621875,96.71904033226814L63.90140625,99.32327536227146L63.9738,99.99505948690252L64.05733124999999,100.20342270959593L64.10745,114.53679786026836L64.29121875,112.88205920802912L64.42486875,118.26801466646485L64.664325,109.21357851489859L64.89264374999999,98.94892882138605L65.12653125,94.82471767988422L65.17665000000001,97.60468100861675L65.48293125000001,100.93903311660605L66.36279375,104.47875885026366L66.71362500000001,112.02821822251319L66.86955,97.59802519976928L67.2816375,108.22447191851379L67.470975,108.06495134063228L67.54336875,110.50685685293469L67.9721625,108.22159791411333L68.11138125000001,106.98242897940503L68.20048125,110.76615907875134L68.51233125,115.08467137442479L68.83531875,112.14955910285457L68.985675,109.2453971566311L69.00795000000001,116.63396109368855L69.47015625,110.25572627960373L69.57039375,98.28713770210838L69.77086875,92.20805305434187L70.0660125,103.14849621470525L70.07715,110.63969710248728L70.21079999999999,110.76304893638071L70.21636875,101.58522347179282L70.2442125,102.51386648371452L70.27205624999999,108.45401394297588L71.1574875,115.88915892520924L71.28556875000001,109.96458654025258L71.3579625,115.42703713449716L71.38580625,120.59600996827243L71.47490624999999,123.20520185358698L71.50274999999999,119.28182683075478L71.55286875,122.95087946784945L71.64196874999999,113.10894334067383L71.96495625,114.72361450322721L72.282375,99.81168648983557L72.39375,102.77881975446306L72.683325,102.9425386623138L72.906075,103.69003657995931L72.950625,107.15822483300735L73.3181625,117.55743397678387L73.33486875,119.76488920947328L73.73581874999999,114.23976362415965L73.7636625,116.8564419807552L73.7748,117.58647475843674L74.08664999999999,120.22045044552888L74.43748125,117.4581914781769L74.4541875,106.15334324623583L74.4876,115.26631497536201L74.6992125,117.46849440239046L74.93866874999999,110.23104574332507L75.19483125000001,112.46729403508479L75.311775,114.5356955653083L75.5011125,115.62402491317961L75.668175,113.76425059295339L75.75170625000001,114.46728988234187L75.82966875000001,111.07199079752625L76.2139125,114.43371075389616L76.3698375,103.51431533139487L76.3921125,116.7781557162665L76.40325,118.73362263943822L76.603725,117.34825679348398L76.67054999999999,120.41239432420501L76.80976875,121.45847347249564L77.08820625,115.50710047512395L77.1494625,124.05569717211719L77.3722125,132.65389242828945L77.4613125,129.78102938377646L77.83441875,126.20786536149194L77.85112500000001,136.28810394886048L77.99591249999999,129.4041222928511L78.207525,116.3655583672422L78.21309375,119.82259346897142L78.35788125,118.8675502544925L78.54721875,125.15975780673527L78.76996874999999,124.66479415486029L79.276725,122.61248130332449L80.03407499999999,123.68109952008498L80.1565875,118.72163421057849L80.55753750000001,119.72718202152627L80.89723125,128.8998113937048L80.97519375,116.10381611281694L81.0030375,105.71976996035107L81.45410625000001,121.60185644328179L81.56548124999999,122.82432610869171L82.08894375000001,125.01062821963714L82.4063625,131.4096439705024L82.439775,123.95433600485431L82.796175,126.39589476707215L83.02449375,133.3322674275367L83.04676875000001,117.9860363203416L83.2194,128.75006225459853L83.38646250000001,115.60352398435684L83.54238749999999,116.77745712174939L83.6760375,122.6479524664519L83.687175,127.32322202875845L83.93776875,122.09308877781669L83.99345625,117.36408150419132L84.1995,128.5245711493252L84.23848124999999,130.9510009519911L84.46123125,136.72647527799938L84.83990625000001,124.52015917417964L84.95685,137.65117535116244L85.10720624999999,135.71933926437916L85.246425,128.5721866629486L85.59725625,121.95431645762712L85.7698875,125.96980346088965L86.10401250000001,122.56030003719461L86.3267625,125.81538626632566L86.54394375,129.42414654456758L86.61076875,125.92568204947224L86.6608875,126.0619492620531L86.74441875,130.26983077851457L86.84465625,134.04643096557064L86.92261875,128.20619428899928L86.9950125,123.7195472478691L87.07854375000001,113.82532989058122L87.4627875,124.11670661016225L87.91942499999999,132.78400362798803L87.96954375,141.87973887697706L88.07535,136.0216768686951L88.66006875,134.95058838690917L88.6656375,135.16305949148034L88.88838750000001,132.5413702905139L89.11670625000001,129.7275146617185L89.12227499999999,134.5433203815632L89.22251250000001,128.40409582065251L89.45083125,133.05061364297086L89.58448125000001,139.9101056787526L89.656875,129.6700648978955L89.75154375000001,134.4746116196193L89.9019,131.16052229077079L90.02998125,126.12559406637571L90.2026125,135.2747796844209L90.20818125,129.16845308644739L90.21375,118.46465373854306L90.2694375,122.6272857433927L90.34183125000001,133.09016713159085L90.37524375,133.0991466050467L90.45320625,126.1553094445455L90.84301875,127.15793020266739L90.993375,136.0825256361871L91.16600625,136.10601289872756L91.26067499999999,141.54142660041447L91.55581875,130.3336171379929L91.6504875,130.81837197285654L91.68946874999999,141.9557459511862L91.99018125,140.38120117365915L92.0514375,127.2113071093024L92.39670000000001,132.02339669285882L92.41340625,128.40101676138846L92.418975,137.85930187035302L92.69184374999999,144.29074060699838L92.97028125,145.36340548947064L93.00369375,135.64388818122006L93.0092625,129.7563653533284L93.042675,126.52297241485451L93.28213124999999,132.51012154432226L93.3768,124.24993277539942L93.61625625,130.05501603156404L93.8111625,129.64434514236504L94.01720625,129.18129821849243L94.07289374999999,120.65080348753642L94.08403125,128.4065768207617L94.42929375,127.0958662041474L94.48498124999999,123.1480679304186L94.5239625,116.40995946194847L96.18901875,132.50859910178417L96.21686249999999,138.01808836310892L96.2614125,136.1334065258491L96.36165,138.66985670366387L96.5844,139.40798921582476L96.71805,137.63182416761052L96.7514625,138.94091125592936L97.00762499999999,145.0524219211574L97.2415125,143.3646667885478L97.274925,139.42928393367245L97.319475,130.0320504203721L97.90419374999999,133.995147293525L98.255025,139.55910205160052L98.33855625,135.43945389364538L98.52789375,133.8543011038395L98.62813125,130.14622018824522L99.324225,132.81541386683784L99.50799375,140.9727408256531L99.98133750000001,144.4380718223948L100.2040875,133.0756222458301L100.3154625,130.63697497769198L100.36558125,141.64559512059006L100.482525,129.39094887868936L100.66629375,136.61648030951585L100.82221874999999,133.32888601922548L100.93359375,145.1364276672473L100.9837125,139.2386511888291L101.42364375,142.8014975178097L101.5183125,144.957385264039L101.82459375,136.83388621171886L102.0974625,136.36666697917155L102.64876875,145.22775911527407L102.67104375000001,144.74919210494656L102.98289375,141.61337511505204L103.18336875,143.0711173243681L103.356,144.56648670321286L103.43396249999999,149.46008528453902L103.64557500000001,144.78951143901648L103.868325,136.83187903891104L103.8906,137.4388674548785L103.9017375,138.06194297595226L104.01868125,134.27985198358454L104.02425,130.37755318362213L104.10778125,132.43984231152768L104.17460625,134.17183159640024L104.3249625,133.3457624162555L104.3361,137.491643646719L104.34723749999999,137.81345567941955L104.759325,139.60619659754383L105.02105625,137.1111173965924L105.2827875,143.98308812523518L105.6169125,141.0250592892616L106.69168125,135.42051456469932L106.71395625,138.91532503254956L106.93113749999999,144.09347024246134L107.0870625,134.6520112800076L107.10933750000001,137.82871162195153L107.3766375,129.87029158608752L107.5102875,142.36388816983055L107.7553125,136.43233590624484L108.2899125,138.9187223363027L108.69643125,139.2214643404888L108.93588749999999,143.9850020493529L109.18648125,140.04297541059108L109.4036625,142.9700031347269L109.570725,136.59299545646022L109.77676875,126.41544392247067L110.14987500000001,136.22939720113234L110.3058,144.05193392550456L110.35035,141.52801627032127L110.71231875,145.10289995588155L110.81812500000001,142.65793848337555L110.84596875,144.1444154887222L111.709125,144.39836728710583L111.97085625,140.56569358022784L112.3439625,145.51607115433256L112.65024375,146.71217709124886L112.7003625,142.03203204307036L112.84514999999999,140.76081728933667L113.0679,130.3481109925585L113.79740625000001,135.18898341097452L113.85866250000001,144.31789714631532L113.9589,149.27311725681153L114.248475,144.64115252418696L114.28745624999999,146.05614848201952L114.783075,139.86920285617316L114.82205625,140.06117949423188L115.03366875,136.94984875662743L115.06708125,140.79331164513783L115.14504375,147.91453062822438L115.1951625,153.2557582112807L115.79101875,153.3578440921103L116.02490625,145.19145677354655L116.28106875,148.493326502457L116.40358125,150.6415826694799L116.96045625,153.04405823619385L117.37254375,154.64189113625335L117.55074375,155.4372137360395L117.6231375,149.8875118558608L117.6454125,152.24340912789123L117.94055625,141.84810112172363L117.96283125,136.09062456810307L118.0463625,142.19267114342702L118.48629374999999,138.84365021577062L118.74245625,139.36652273321508L118.74802500000001,144.60919397340558L118.77029999999999,146.35633445285424L118.99305000000001,149.74377215804265L119.07101250000001,148.5222057381367L119.14897500000001,141.53475748665562L119.23250625,143.05436786172388L119.41070625,143.67483070650553L119.48866875,147.169454026956L120.24045,131.11112510848642L120.396375,138.675025958947L120.44649375,132.7152944112609L120.71379375,133.0290555371431L120.83630624999999,138.72329151860407L120.9198375,138.11885262269698L120.95325,142.759068806829L121.10917500000001,149.08968233734663L121.77742500000001,137.40400622844024L121.93334999999999,146.93853560210576L122.3454375,134.60820022276394L122.401125,137.95150056810002L122.6127375,135.94825665743494L122.79650625000001,134.4772470681919L122.94686250000001,138.13720453167275L123.24200625,128.97240777947235L123.514875,138.84607026914546L124.1274375,138.24263593199302L124.37246250000001,137.4714658809536L124.60078125,140.0461485029955L124.97945625,145.59460700977607L124.98502500000001,152.2131620571029L125.28016875,155.16179416286155L125.29130624999999,157.34893045016736L125.69225625,141.40171419153907L125.876025,142.67457272878048L126.1321875,140.51264928400101L126.23799375,137.06826145954406L126.32709375,133.42421520378096L128.01999375,123.608450719613L128.04226875,133.76940226255024L128.593575,132.2808743331154L128.771775,128.03101182148478L128.8497375,137.25182339115614L128.86644375,140.48581940101363L129.00009375,152.27714348598653L129.22284375,162.00015048478338L129.529125,165.6037597599287L129.6070875,157.1813773104006L129.8187,153.59858450224735L129.9412125,143.74248910355996L130.1862375,150.94390755794637L130.21965,149.12720790191642L130.22521875,148.9221274180404L130.31431874999998,151.1525341049889L130.38114375,156.16949076509826L130.79323125,142.2967946703047L130.910175,142.98485645416523L130.98256875,139.98101453916684L131.03825625,145.60140070238728L131.712075,144.42513040000472L131.91811875,146.55313744422352L132.65319375,132.46988469463233L133.0374375,137.72937186591227L133.04300625000002,142.66924434791872L133.25461875,145.722007187125L133.3492875,142.94153306939089L133.39940625,146.57833946999074L133.58874375,147.17779816392735L133.7947875,148.2192214618203L134.37950625,140.53365722643937L134.42405625,149.8387059238835L134.44633125000001,153.78160075776051L134.72476875,143.28066066548288L135.11458125000001,145.3507510547261L135.5767875,149.93985506952603L135.69373124999998,146.08466367544938L135.76055625,143.78045701393523L135.80510625,142.71868791440846L135.82738125,147.9653850975363L135.84965625,150.77671075488053L136.23946875000001,149.12300114961576L136.6237125,153.8105550033064L136.9355625,149.74167368012226L137.34208125,148.1720128332998L137.47573125,151.14399571165848L137.5592625,161.40237458911778L137.6929125,158.62728984532245L137.76530625,145.45354358502172L137.815425,158.12293793370532L137.993625,146.1668279792764L138.5170875,148.48315590135778L138.617325,152.75132335474476L138.67858125,150.32685765581692L139.30785,146.29044370157516L139.31341875,147.22540168282896L139.34683125,141.5135063237143L139.36353749999998,132.44016179692196L139.4303625,139.6370371088472L139.51389375,141.5505004628266L140.1208875,142.87286358476828L140.60536875,144.36863348148393L140.87266874999997,148.5795122954121L141.20679375,154.87959096482916L141.26248125,143.79292440206726L141.28475625,148.40812955799845L141.290325,151.00714893023638L141.81935625,143.61348114793938L142.2036,144.9309918873634L142.43191875,144.52689389268727L142.75490625,147.37642019489925L142.91639999999998,146.1414690626492L142.9943625,155.59587429306174L143.42872500000001,148.45850127925937L143.44543124999998,143.09697630761616L143.696025,142.14037436400992L144.09140624999998,142.20513540045363L144.18050624999998,145.13339189142144L144.29745,149.471171323445L145.33880625,144.63211932398622L145.45018124999999,150.0907373931358L145.63951874999998,147.36961570845716L145.72861874999998,154.30387998991077L145.789875,160.39975471271782L146.12400000000002,153.16439959944648L146.146275,143.8615754936759L146.21866875,134.6782513653583L146.3022,136.9809081032227L146.97045,135.01630076229947L147.95611875,143.0947663074926L148.240125,153.00035579973758L148.41832499999998,153.68315949850432L148.46844375,155.8162402680449L148.57424999999998,153.5797230249774L148.6744875,144.76900489669129L148.96963125000002,147.58501361909742L149.08100625,142.69329557267505L149.20351875,151.05989054154819L149.3316,148.26562071245075L149.42626875000002,141.39068424344768L149.442975,145.27029323683047L149.45968125000002,152.82061253636303L149.665725,148.3313678971739L149.82165,146.5626957110223L149.9218875,149.28722434611484L149.933025,146.91477780350593L150.45648749999998,147.72974637888134L150.60684375000002,141.59031817674295L150.75163125,154.7919553394978L150.89085,166.14276678546045L150.90755625,150.57603942350528L151.49784375000002,153.0201246452945L151.52011875,160.09066620821048L151.60365,152.51311560761087L151.6147875,162.18257804282055L151.64263125,151.28979028290763L151.67604375,143.18015825615083L151.79298749999998,139.81567921537186L151.99346250000002,141.41183221858407L152.0825625,145.66615474364727L152.51135625,156.5470434224956L152.71183125,156.75871100574295L152.75638125,149.20662236498674L152.78979375,150.69365944479867L152.93458124999998,144.44400999022784L152.95685625000002,153.2945610595711L153.09050625,149.1862238057236L153.1517625,155.0085511325043L153.27984375,158.41256278010516L153.52486875,156.8003152530246L153.9648,154.284156295197L154.12629375,147.52784888469836L154.38245625,150.0541757216757L155.034,148.68245054947428L155.0451375,146.7019587032875L155.09525624999998,151.2237431271602L155.11753125,140.83119166128208L155.1231,140.57892434458796L155.16208125,145.46140998910667L155.25118125,141.9927713804377L155.55746249999999,152.49126441547304L155.5686,154.1408989202834L155.80248749999998,148.50639106420954L155.88045,148.51976159948796L156.31481250000002,151.08230913210835L156.49858125,151.14350460614696L157.71256875,141.44364728972033L157.84621875,146.18379858337397L157.996575,151.11525048563996L158.1190875,146.45139027770153L158.174775,157.16998731574876L158.263875,147.19949869353462L158.63698125000002,147.16441218450436L158.88200625000002,163.79958700772968L158.94883125,154.20840137895354L159.07134375,144.72480069494662L159.466725,156.4183679659663L159.47786250000001,155.9287952499856L159.68390625,158.4125842042983L159.95120624999998,158.81751463108856L160.224075,160.3275547215387L160.3243125,153.17131686336916L160.51921875,151.7140703664422L160.72526249999999,151.35591181570635L161.27100000000002,156.7458949128903L161.57171250000002,150.6408450516703L161.71093125,144.0871426694181L162.49055625,147.60136768543825L162.64091249999998,158.39131306517865L163.22563125,151.8074108384432L163.25347499999998,148.92502029714146L163.32586874999998,148.64816388474196L163.45395,151.1974071961676L163.52077500000001,147.66032264074457L164.3895,142.68678933112565L164.58997499999998,140.76577215373632L164.76817499999999,147.60440075960378L165.19140000000002,157.264036887004L165.19696875000002,146.36874693285543L165.7148625,150.41042459101152L166.21048125000002,153.8309651844287L166.22161874999998,151.68232756217125L166.52233125,147.71899571399047L166.5390375,151.52236101045025L166.92885,148.33342758382796L167.48015625000002,154.98761081841005L168.2319375,153.68521065926979L168.644025,147.09103492107982L168.88905,135.43301835055775L168.9224625,129.37186998087978L169.72436249999998,131.77292376859847L170.48171250000001,130.95051600952408L170.604225,132.44086737158995L170.67661875,139.57807262076804L170.92164375,140.84058506815532L171.11098124999998,139.17167536463253L171.13325625000002,141.87606971440255L171.2390625,137.92079502075285L171.87390000000002,132.4605536917325L172.0409625,138.01889443368873L172.4196375,140.693118338328L172.49759999999998,148.6681491542534L172.72035,150.82168064892923L173.054475,151.65760402948897L173.1101625,157.8846905459241L173.17141875000002,150.828052227454L173.19369375,154.1857734729814L173.37189375,157.16673110101723L173.410875,154.46897910255944L173.52781875,145.7523304775625L173.722725,150.14723041770205L173.8341,148.4279516403773L173.8452375,148.934165646598L173.93990625,155.51464258728353L174.01786875,146.2955554052638L174.36313125,147.71320674096813L174.37426875,149.12380056651728L174.6916875,152.66539487732828L175.10934375,141.64867244507897L175.45460625,147.38658143807504L176.28435000000002,145.90904487976312L176.5405125,150.57989090609738L176.66859374999999,162.47903892355086L177.47606249999998,150.5779401150758L177.68210625,146.72797276983863L177.74893125,154.33127606627906L177.89371875,149.6994155160213L177.98281875,155.1568462078604L177.99395625000002,138.32585680058042L178.03850624999998,141.1683567394044L178.04964375,149.073037457931L178.28353124999998,151.79865936549882L178.60095,148.61301307660057L178.68448125,153.24101350113503L178.69004999999999,150.62297453717096L179.11884375,149.93539367330933L179.17453125,154.42003857407423L179.24135625,156.318422144391L179.58105,145.71429613234008L179.9485875,139.68136239776436L179.99870625,157.3335966966886L180.17690625,150.94425906042002L180.227025,153.31529121854325L180.271575,144.6668248538962L180.316125,148.2372685854225L180.48875625,147.9535418511896L180.49989374999998,148.06448901938793L181.10131875,146.10871981125385L181.251675,141.686077229712L181.32406875,146.53002378240092L181.33520625,148.8936596412863L181.385325,167.46474408759272L181.73615625,161.45315862815335L181.98118125000002,147.5803538410539L182.009025,156.4321170363317L182.69955,155.12912776571875L182.90559375,161.2574721579182L182.9334375,157.64516770568062L182.96128125,152.07177161901004L183.14505,152.8759134938476L183.23415,162.73761602521893L183.42905625,163.3111263809176L183.48474375,161.3732248160072L183.49588125000002,158.89764917143592L183.51815625,153.77243562744263L183.54043124999998,148.5015938798815L183.83000625,148.4465268868772L184.1697,150.0674378367832L184.17526875000001,147.06578699029342L184.1808375,144.27368627142718L184.726575,140.80624648337925L185.03842500000002,147.67007504091725L185.28345000000002,144.62032134665108L185.36698125,142.13744536772916L185.4727875,152.51122719594304L185.53404375000002,139.18314311405535L185.7846375,149.06142436351422L185.89044375,150.34117399066906L185.98511249999999,156.48041085164184L186.95407500000002,157.98344990425716L187.28263125,160.8022883412614L187.7002875,159.8591350169406L187.71699375,159.33584470246498L187.7671125,155.17075135099856L188.14021875,158.6634428790772L188.22931874999998,161.82912958469518L188.26273125,157.69564678489786L188.72493749999998,154.06809933401632L188.74721250000002,155.37981824740572L188.86415625,150.04287322857854L189.16486874999998,136.1416851247995L189.57138750000001,132.46164454719468L189.64935,133.98111571129496L189.83311875,141.43933738750601L189.87766875,146.10194806509935L190.2173625,143.11429115152885L190.2285,143.43784304845815L190.34544375000002,148.87064764475767L190.65729375,149.5285979239272L190.8410625,152.69877968129848L191.05824375,153.77206486806827L191.3756625,161.83533370189906L191.93810624999998,152.39433898380946L192.0439125,162.47860763495373L192.82910625000002,163.75450826174563L193.324725,150.71395308878226L193.369275,154.96122721496954L193.67555625,155.30181870345257L193.7813625,146.33384400788182L194.06536875,149.95177026777006L194.23243125,146.9831150862318L194.304825,151.02992877704062L195.2181,148.59288088223357L195.2292375,152.89715011816992L195.56336249999998,153.38271516077228L195.7192875,148.6122716304128L196.220475,147.4468007373407L196.2316125,140.33217785454787L196.28730000000002,152.64715345747038L196.69381875000002,158.73578767846948L197.03908124999998,141.97318866197259L197.0780625,142.71276146846841L197.2674,150.83650334051237L197.81870625,158.55760725255263L198.1027125,155.33186551367243L198.34216874999998,147.28189767688082L198.626175,155.3282293402951L198.77653125,147.48248300225902L198.9491625,145.0556491816893L198.97700625000002,152.1844843309607L199.10508750000002,161.6133769237178L199.52274375,149.86601725695175L199.829025,153.0697594068675L199.918125,153.41465173555787L200.11303125,156.15132701397246L200.14644375,161.21813154348496L200.21326875,158.69999790225813L200.7423,148.32033267467418L200.78128124999998,152.10701895692054L200.87595,155.8551819723137L201.00403125,163.03914809404952L201.0987,158.84579609696704L201.2434875,161.07463034651303L201.73910625,147.87560740209585L201.80036249999998,145.63003446900734L201.93958125,147.82875033038636L202.25143125,139.04156448711194L202.31825625000002,143.81397771484907L202.39065,148.64952590191453L203.05890000000002,147.51339117575432L203.29835625,158.70127773857223L203.3596125,165.4170396677364L203.37075000000002,160.32191990219656L203.393025,158.38903547935976L203.615775,167.42692292911065L203.79954375,162.17887382701105L203.88864375,162.11348488881376L204.30073124999998,152.69321612454266L205.3643625,165.095865058948L205.7875875,171.79734870228128L205.85998125,162.42834296803878L205.93794375000002,162.62997714120868L206.12728124999998,161.24577908074966L206.68415625,163.92217237586863L206.912475,160.98247574426932L207.06283125,165.13926110447093L207.20205,162.31830307731838L207.25216875,161.71840378618998L207.28558125,164.75853884355277L207.33013125,158.8523238313644L207.3691125,163.04282985957303L207.54731249999998,162.1411210893076L207.70880624999998,156.18083487718758L208.1710125,146.85186073855513L208.68890625,155.35345078023988L208.87267500000002,154.87503910583183L209.2624875,153.59542749430747L209.39056875,156.34614722621632L209.60775,154.49578751674315L209.7970875,158.44947524101153L210.12564375,160.9008312528596L210.1757625,167.08146360633074L210.39294375,158.28724980126202L210.68251874999999,149.5945879313713L210.89413125,158.54001955967783L211.01664375,158.3469411836961L211.189275,153.85711966666406L211.38975,162.67670955699666L211.412025,154.18315368366592L211.45657500000002,163.72739356101118L211.80740625,160.46625557915138L211.82411249999998,161.92116138967475L212.40883125,158.23869449511452L212.47565625000001,160.21684437420288L212.5369125,160.01466501055785L212.6260125,140.67612127052075L212.703975,146.362429373268L212.82091875,152.58707651939793L212.949,147.30818557196653L213.04923749999998,152.7728725126186L213.1606125,150.2295560607366L214.04604375,149.25338844238314L214.24095,159.5207537303653L214.49711250000001,156.45333387070045L215.90600625,154.85649326936874L215.98396874999997,150.2839120798666L216.25126875,152.1251646643327L216.51299999999998,161.2290937049739L216.936225,159.73137891530882L217.2369375,165.834030139599L217.59890625,154.9389964371558L217.604475,162.04311902891274L217.6713,161.11642918650136L217.67686875,154.7797975479679L218.1056625,151.33602415684123L218.13907500000002,154.0127875750769L218.4620625,145.84118434078835L218.5734375,146.1233256091062L218.718225,149.8978760247206L218.91313125000002,157.54120473847598L219.68161875,163.5452985761427L219.90436875,166.2716631441037L220.1549625,163.76087795360627L220.20508125,160.60427348285586L220.60603125,158.3388338457582L220.83991874999998,161.73174809066114L220.92345,162.44132996949435L220.95129375000002,150.69336115417343L221.0236875,153.3473397609866L221.10721875000002,159.3730892493975L222.55509375,164.4170587225266L222.59964374999998,153.84544467176335L222.82796249999998,159.34640991195374L222.83353125,160.8519615073549L223.0173,160.69703764257113L223.12310625,157.17510257300398L223.27346250000002,157.92201108290195L223.43495625,161.39336048141044L223.46280000000002,153.81158811707536L223.4739375,158.54247958427194L223.58531250000001,159.0860383227542L224.2758375,157.75319263428884L224.33709374999998,159.22846341932072L224.70463124999998,157.22525621833964L224.71576875,151.52518835572513L224.81600625000002,154.08713860457019L225.0109125,158.1741677784615L225.31719375,164.94636532618196L225.757125,155.95757138403414L225.78496875,143.71184810183325L226.247175,152.31338025141883L226.80405,158.08872121216075L226.86530624999997,152.38462619141885L226.99895625,159.55962495726612L227.50571250000002,163.44830338831957L227.51684999999998,158.88858284395394L227.6839125,163.19554149861014L227.68948125,166.7945820355281L227.940075,158.86886153772102L228.34659375,160.75486754973662L228.73640625000002,153.046471033096L228.98143124999999,146.46672502374648L229.10394374999998,160.26068949189522L229.28214375,150.9766919884574L229.40465625,157.8917975516357L229.4436375,154.85426651293625L229.49375625,161.10909915969395L229.50489375,160.2519273206926L229.51603125,160.86920483297428L229.60513125,151.7121873508218L229.900275,156.08078090716486L230.0450625,155.67624815539253L230.20655624999998,153.0526824041352L230.4237375,158.0865907580427L230.56852500000002,166.22925755594807L230.75229375,167.69411846080203L230.99731875,149.4921484981703L231.10312499999998,152.80659366090893L231.88831875,156.22450773658784L232.25028749999998,164.1322297002135L232.37279999999998,168.06234057049085L232.43405625,170.7226790420505L232.44519375000002,158.76803305767322L232.45633125,160.50723818830636L232.7180625,168.40538977745953L232.85728125,165.6692311660704L233.01320625000002,164.74661357572086L233.063325,159.11574690924604L233.32505625,147.8907609896622L233.42529374999998,151.75649760699545L233.58678749999999,162.05530092312094L233.70929999999998,156.25763261646236L234.04342499999998,160.34292054735047L234.51676875,153.23295521134727L234.65598749999998,152.80815680049332L234.87316875,160.86708955854812L235.068075,154.76927037982819L235.35765,153.50409033714945L235.4022,149.7698942835709L236.04260625,143.02383993020294L236.10386250000002,152.9993714563801L236.1484125,145.19022999030585L236.3934375,152.65810151058065L236.8166625,146.14165216927293L236.86678125,155.1265172781365L237.830175,161.55090583522582L237.85801875,158.23985153403999L238.14759375,163.02840108766722L238.29795000000001,164.1636489103196L238.6654875,167.32878461386218L238.676625,161.64840296493094L238.7323125,161.1283012482548L238.76572499999997,165.87202339105247L238.87153125,171.87902258219643L238.899375,170.5010677168849L238.90494375,170.60698677306175L239.06086875,174.5932863679814L239.1778125,174.26528517851668L239.2223625,175.76861268060216L239.42283749999999,171.65142830604987L240.05767500000002,158.1758856505264L240.16905,160.79612593127808L240.2915625,157.5536742482139L240.30270000000002,153.2111163838834L240.31940625,150.86682753012784L240.38623125,149.06368893382668L240.46419375000002,153.58947159582746L240.57556875,156.39420474183603L240.6034125,153.55496415477495L240.62011875,150.41005285860845L240.904125,155.73218299424835L241.28836875000002,157.8217563815062L241.36633125,161.15189297080047L241.41088125000002,150.3695920889377L241.57237500000002,147.8361098840287L241.88422500000001,157.37858003055325L241.93991250000002,160.08655420986827L242.06242500000002,162.2802499165164L242.97013124999998,163.72627217522853L243.62724375,149.46707729796108" style="fill: none;" fill="none"></path></g></g></g></g><g opacity="0.20000000298023224"><g><g><g><path stroke="rgb(255, 112, 67)" stroke-width="2px" d="M41.7879,-44.15764133845066L41.860293750000004,3.4221632698816293L41.88256875,-43.1859230729087L43.124399999999994,-30.46223137793804L43.2135,6.293837688863218L43.23020625,-13.508974585150026L43.4251125,1.6405282834810249L43.441818749999996,-3.069138963307715L43.51978125,21.6154440731874L43.865043750000005,19.89819640559805L43.90959375,-3.600750967328094L44.1045,12.591674966471485L44.33281875,-5.68871809169658L45.090168750000004,3.0690177636486524L45.37974375,26.998981423675975L45.43543125,27.657398570861098L45.6080625,1.5817464488957074L45.719437500000005,43.43229167961647L45.72500625,27.322584513042614L46.382118750000004,43.29397256885253L47.94136875,33.87266858081729L48.370162500000006,76.09029727854899L48.39800625,31.026446090212858L48.51495,31.61396143691877L48.531656250000005,30.41923579892938L48.74326875,60.21829294306891L49.155356250000004,53.66169439362627L49.160925,42.27528943547177L49.277868749999996,13.22297368996904L49.47834375,52.35682856557622L49.522893749999994,48.073178119957426L49.7512125,47.36567511090209L49.80133125,27.978880666196307L49.884862500000004,81.48247010473693L49.93498125,33.234097877783405L50.141025,23.587968522416663L50.2189875,56.55427575377479L50.31365625,57.63007422643047L50.4640125,52.65876721590755L50.6422125,98.37527856762921L50.736881249999996,47.509599705891915L51.36058125,81.39475185157998L51.97314375,98.2112045293408L51.9787125,50.13266332447527L52.090087499999996,70.6525230806853L52.09565625,72.79699954603399L52.31840625,81.36672443045036L52.619118750000005,57.83187165856359L52.719356250000004,75.32310343746627L52.85300625,53.44550450199415L52.986656249999996,78.6201886593231L53.0033625,75.90183180889913L53.493412500000005,86.10820658771054L53.760712500000004,63.71944809066397L54.20064375,71.64439078952584L54.2953125,65.82089867708937L54.4401,81.35824045432464L54.66285,74.30987428873777L54.8521875,67.00759483767406L54.9412875,79.21512748513902L55.1529,100.1129786776645L55.19188125,78.99424110672304L55.2308625,79.2519418815417L55.247568750000006,68.68954310459749L55.353375,77.58559807070664L55.4758875,89.55815487940397L55.865700000000004,74.20488508418202L56.2332375,58.94115153700111L56.60634375,50.38263762103659L56.70658125,94.53824886519995L56.940468749999994,67.44830709749033L57.1465125,96.47214092314243L57.20776875,99.20019374628153L57.5474625,78.1006966211966L57.68668125,90.19521058670114L57.75350625,94.21434277668595L57.7702125,79.37692902982235L57.892725,86.77404721400568L58.08763125,88.6733973691506L58.1488875,118.99755203564256L58.34379375,61.947357577404794L58.510856249999996,113.43130619930372L58.85055,63.15799067062991L58.906237499999996,88.70445478175368L59.6079,81.726990416646L60.05896875,112.8122789412737L60.08124375,104.87582227481265L60.220462500000004,130.52500309688708L60.487762499999995,80.60816606506705L60.69380625,86.8878233938345L60.922125,104.87309528248652L60.966674999999995,105.31289854486074L61.01679375,142.11805347353223L61.144875,70.44860465452075L61.40660625,61.40711009768503L61.7128875,82.48130679396645L61.7351625,78.24340921959707L61.779712499999995,87.21960746017952L61.991325,96.79816800568786L62.14725,89.55239789560437L63.08836875,117.04487403056453L63.1384875,93.18884216248989L63.149625,103.93546442102111L63.3835125,98.80129536879916L63.4057875,101.96703046028104L63.511593749999996,101.78583697016752L63.68979375,104.48222638240884L63.7621875,88.1854172423482L63.90140625,103.22962790727617L63.9738,101.00273567384909L64.05733124999999,100.51596754363607L64.10745,136.03686058627713L64.29121875,110.39995122967025L64.42486875,126.34694785411871L64.664325,95.6319242875491L64.89264374999999,83.55195428111723L65.12653125,88.63840096763202L65.17665000000001,101.77462600171566L65.48293125000001,105.94056127859015L66.36279375,109.78834745075024L66.71362500000001,123.3524072808879L66.86955,75.95273566565344L67.2816375,124.16414199663063L67.470975,107.82567047380978L67.54336875,114.16971512138845L67.9721625,104.79370950588161L68.11138125000001,105.12367557734252L68.20048125,116.44175422777023L68.51233125,121.56243981793527L68.83531875,107.74689069549954L68.985675,104.88915423729593L69.00795000000001,127.7168069992747L69.47015625,100.68837405847653L69.57039375,80.33425483586534L69.77086875,83.08942608269199L70.0660125,119.5591609552503L70.07715,121.87649843416045L70.21079999999999,110.94807668722103L70.21636875,87.81848527491093L70.2442125,103.90683100159681L70.27205624999999,117.36423513186833L71.1574875,127.04187639855915L71.28556875000001,101.07772796281749L71.3579625,123.62071302586371L71.38580625,128.3494692189353L71.47490624999999,127.11898968155897L71.50274999999999,113.39676429650615L71.55286875,128.45445842349105L71.64196874999999,98.34603914991021L71.96495625,117.14562124705742L72.282375,77.44379446974823L72.39375,107.22951965140446L72.683325,103.18811702408964L72.906075,104.81128345642772L72.950625,112.36050721257926L73.3181625,133.1562476924488L73.33486875,123.0760720585074L73.73581874999999,105.95207524618934L73.7636625,120.78145951564825L73.7748,118.68152392495959L74.08664999999999,124.17141397616695L74.43748125,113.31480302714878L74.4541875,89.19607089832425L74.4876,128.93577256905186L74.6992125,120.77176354293316L74.93866874999999,99.37487275472711L75.19483125000001,115.82166647272453L75.311775,117.63829786064372L75.5011125,117.25651893498645L75.668175,110.9745891126139L75.75170625000001,115.52184881642462L75.82966875000001,105.97904217030323L76.2139125,119.47629068845087L76.3698375,87.13522219764336L76.3921125,136.67391629357428L76.40325,121.66682302419632L76.603725,115.27020802455291L76.67054999999999,125.00860062028683L76.80976875,123.02759219493187L77.08820625,106.58004097906608L77.1494625,136.8785922176072L77.3722125,145.5511853125479L77.4613125,125.47173481700679L77.83441875,120.84811932806461L77.85112500000001,151.40846182991356L77.99591249999999,119.07814980883687L78.207525,96.80771247882929L78.21309375,125.0081461215658L78.35788125,117.43498543277387L78.54721875,134.59806913509968L78.76996874999999,123.9223486770477L79.276725,119.53401202602049L80.03407499999999,125.2840268452253L80.1565875,111.28243624631848L80.55753750000001,121.2355037379478L80.89723125,142.65875545197304L80.97519375,96.90982319148524L81.0030375,90.14370073165213L81.45410625000001,145.42498616767784L81.56548124999999,124.65803060680632L82.08894375000001,128.29008138605528L82.4063625,141.00816759680004L82.439775,112.77137405638184L82.796175,130.05823291039897L83.02449375,143.73682641823382L83.04676875000001,94.96668965954866L83.2194,144.8961011559836L83.38646250000001,95.8837165789945L83.54238749999999,118.53835682783811L83.6760375,131.45369548350575L83.687175,134.33612637221816L83.93776875,114.247888901404L83.99345625,110.27057059375306L84.1995,145.26530561702597L84.23848124999999,134.59064565598968L84.46123125,145.3896867670119L84.83990625000001,106.21068501845004L84.95685,157.34769961663662L85.10720624999999,132.82158513420396L85.246425,117.85145776080236L85.59725625,112.02751114964487L85.7698875,131.9930339657835L86.10401250000001,117.446044901652L86.3267625,130.69801561002222L86.54394375,134.83728696193018L86.61076875,120.67798530682926L86.6608875,126.2663500809244L86.74441875,136.5816530532071L86.84465625,139.71133124615469L86.92261875,119.44583927414249L86.9950125,116.98957668617372L87.07854375000001,98.98400385464942L87.4627875,139.55377168953422L87.91942499999999,145.78494915472615L87.96954375,155.52334175046005L88.07535,127.23458385627187L88.66006875,133.3439556642303L88.6656375,135.48176614833733L88.88838750000001,128.60883648906437L89.11670625000001,125.50673121852537L89.12227499999999,141.76702896133068L89.22251250000001,119.19525897928649L89.45083125,140.02039037644866L89.58448125000001,150.1993437324252L89.656875,114.31000372661015L89.75154375000001,141.68143170220515L89.9019,126.18938829749827L90.02998125,118.57320172978302L90.2026125,148.99855811148885L90.20818125,120.00896318948696L90.21375,102.40895471668671L90.2694375,128.8712337506669L90.34183125000001,148.78448921388818L90.37524375,133.1126158152308L90.45320625,115.73955370379349L90.84301875,128.6618613398501L90.993375,149.46941878646615L91.16600625,136.14124379253818L91.26067499999999,149.69454715294503L91.55581875,113.52190294436048L91.6504875,131.54550422515192L91.68946874999999,158.66180691868072L91.99018125,138.0193840073688L92.0514375,107.4564660127674L92.39670000000001,139.2415310681931L92.41340625,122.96744686418349L92.418975,152.04672953380012L92.69184374999999,153.93789871196665L92.97028125,146.9724028131792L93.00369375,121.06461221884406L93.0092625,120.92508111149077L93.042675,121.67288300714324L93.28213124999999,141.49084523852386L93.3768,111.85964962201462L93.61625625,138.7626409158111L93.8111625,129.02833880856636L94.01720625,128.48672783268353L94.07289374999999,107.85506139110244L94.08403125,140.04023682059992L94.42929375,125.12980027922565L94.48498124999999,117.22637051982542L94.5239625,106.30279675924355L96.18901875,156.656558561538L96.21686249999999,146.28232225509632L96.2614125,133.30638376995924L96.36165,142.47453197038604L96.5844,140.5151879840664L96.71805,134.9675765952894L96.7514625,140.90454188840735L97.00762499999999,154.21968791899943L97.2415125,140.83303408963343L97.274925,133.52620965135952L97.319475,115.93620015042171L97.90419374999999,139.93979260325435L98.255025,147.9050341887134L98.33855625,129.25998165671317L98.52789375,131.47657191913046L98.62813125,124.58409881485363L99.324225,136.8192043847272L99.50799375,153.208731263876L99.98133750000001,149.63606831750704L100.2040875,116.03194788098337L100.3154625,126.97900407548464L100.36558125,158.15852533493728L100.482525,111.0089795158378L100.66629375,147.4547774557557L100.82221874999999,128.39749458378984L100.93359375,162.8477401392801L100.9837125,130.3919864712017L101.42364375,148.1457670112806L101.5183125,148.19121688338268L101.82459375,124.64863763323854L102.0974625,135.66583813035066L102.64876875,158.5193973194276L102.67104375000001,144.03134158945514L102.98289375,136.90964963021028L103.18336875,145.25773063834228L103.356,146.80954077148016L103.43396249999999,156.80048315652786L103.64557500000001,137.7836506707328L103.868325,124.89543043875271L103.8906,138.34935007882973L103.9017375,138.99655625756301L104.01868125,128.60671549503294L104.02425,124.52410498367892L104.10778125,135.53327600338633L104.17460625,136.7698155237096L104.3249625,132.10665864603865L104.3361,143.7104654924146L104.34723749999999,138.29617372847034L104.759325,142.29530797473026L105.02105625,133.3684985951654L105.2827875,154.29104421819963L105.6169125,136.5880160353014L106.69168125,127.01369747785589L106.71395625,144.15754073432518L106.93113749999999,151.860688057329L107.0870625,120.48982283632672L107.10933750000001,142.5937621348671L107.3766375,117.93266153229138L107.5102875,161.10428304544521L107.7553125,127.53500751086646L108.2899125,142.64830198138955L108.69643125,139.67557734676774L108.93588749999999,151.13030861264897L109.18648125,134.1299354524485L109.4036625,147.36054472093076L109.570725,127.02748393906018L109.77676875,111.1491166214858L110.14987500000001,150.95032711912484L110.3058,155.7857390120626L110.35035,137.74213978754628L110.71231875,150.4652254842222L110.81812500000001,138.99049627461608L110.84596875,146.37413099674245L111.709125,144.77929498468131L111.97085625,134.81668301991058L112.3439625,152.9416375154896L112.65024375,148.5063359966236L112.7003625,135.01181447080208L112.84514999999999,138.85399515873624L113.0679,114.72905154739108L113.79740625000001,142.45029203859826L113.85866250000001,158.0112677493266L113.9589,156.70594742255557L114.248475,137.69320542524972L114.28745624999999,148.17864241876777L114.783075,130.58878441740362L114.82205625,140.3491444513202L115.03366875,132.28285265022092L115.06708125,146.55850597790314L115.14504375,158.59635910285377L115.1951625,161.26759958586527L115.79101875,153.51097291335466L116.02490625,132.94187579570075L116.28106875,153.44613109582244L116.40358125,153.863966920014L116.96045625,156.64777158626495L117.37254375,157.03864048634262L117.55074375,156.63019763571882L117.6231375,141.56295903559246L117.6454125,155.7772550359369L117.94055625,126.25513911247258L117.96283125,127.45440973767215L118.0463625,151.34574100641274L118.48629374999999,133.82011882428614L118.74245625,140.15083150938156L118.74802500000001,152.47320083369107L118.77029999999999,148.97704517202723L118.99305000000001,154.8249287158251L119.07101250000001,146.68985610827806L119.14897500000001,131.053585109434L119.23250625,145.33378342432638L119.41070625,144.60552497367777L119.48866875,152.41138900763227L120.24045,107.02363173078216L120.396375,150.02087723463777L120.44649375,123.77569708973174L120.71379375,133.49969722596666L120.83630624999999,147.2646454907954L120.9198375,137.21219427883628L120.95325,149.71939308302748L121.10917500000001,158.58560263312293L121.77742500000001,119.8754920650806L121.93334999999999,161.24032966260404L122.3454375,116.11269715375136L122.401125,142.96645108610394L122.6127375,132.9433907914375L122.79650625000001,132.27073268432704L122.94686250000001,143.62714072689417L123.24200625,115.22521265117189L123.514875,153.65656400365495L124.1274375,137.3374844262643L124.37246250000001,136.31471080439437L124.60078125,143.90817243605855L124.97945625,153.91729476994706L124.98502500000001,162.14099462809313L125.28016875,159.58474232149982L125.29130624999999,160.62963488112607L125.69225625,117.48088980359694L125.876025,144.58386053464247L126.1321875,137.26976411683222L126.23799375,131.90167972285835L126.32709375,127.95814582013661L128.01999375,108.88480399336136L128.04226875,149.0108295769564L128.593575,130.04808243896284L128.771775,121.65621805403917L128.8497375,151.08304074566283L128.86644375,145.33681341579987L129.00009375,169.9641296134464L129.22284375,176.58466098297927L129.529125,171.00917367264634L129.6070875,144.54780363610817L129.8187,148.22439529001716L129.9412125,128.9583460055292L130.1862375,161.74603523952626L130.21965,146.40215841787207L130.22521875,148.61450669222648L130.31431874999998,154.49814413541137L130.38114375,163.69492575526243L130.79323125,121.4877505281142L130.910175,144.01694912995615L130.98256875,135.47525166666938L131.03825625,154.03197994721793L131.712075,142.6607249464308L131.91811875,149.74514801055196L132.65319375,111.34500557024565L133.0374375,145.6186026228326L133.04300625000002,150.0790530709284L133.25461875,150.3011514459338L133.3492875,138.77082189278948L133.39940625,152.0335490708905L133.58874375,148.07698620483282L133.7947875,149.78135640865995L134.37950625,129.005310873368L134.42405625,163.79627897005003L134.44633125000001,159.69594300857617L134.72476875,127.52925052706688L135.11458125000001,148.45588663859033L135.5767875,156.8235110917262L135.69373124999998,140.30187658433408L135.76055625,140.3241470216641L135.80510625,141.12603426511802L135.82738125,155.83543087222753L135.84965625,154.99369924089743L136.23946875000001,146.64243674171826L136.6237125,160.84188578384268L136.9355625,143.63835169534602L137.34208125,145.81752156306595L137.47573125,155.60197002919662L137.5592625,176.78994290530687L137.6929125,154.4646627296295L137.76530625,125.69292419457012L137.815425,177.12702945673047L137.993625,128.23266304763305L138.5170875,151.9576477844801L138.617325,159.15357453482497L138.67858125,146.69015910742542L139.30785,140.23582277021242L139.31341875,148.62783865470976L139.34683125,132.94566328504257L139.36353749999998,118.8301450067333L139.4303625,150.43235007673505L139.51389375,144.42069549379607L140.1208875,144.85640826768113L140.60536875,146.61228832655723L140.87266874999997,154.89583051630436L141.20679375,164.3297089689545L141.26248125,127.16292455792431L141.28475625,155.33093729189468L141.290325,154.9056779885931L141.81935625,132.52297947449347L142.2036,146.90725799649957L142.43191875,143.92074690067346L142.75490625,151.65070964821751L142.91639999999998,144.2890423642738L142.9943625,169.77748213868063L143.42872500000001,137.75244175855607L143.44543124999998,135.05468885015168L143.696025,140.70547144860032L144.09140624999998,142.30227695511925L144.18050624999998,149.52577662787272L144.29745,155.97784047148062L145.33880625,137.3735413247986L145.45018124999999,158.2786644968604L145.63951874999998,143.28793318143917L145.72861874999998,164.70527641209114L145.789875,169.5435667969287L146.12400000000002,142.31136692953964L146.146275,129.9073393350201L146.21866875,120.90326517288177L146.3022,140.43489321001942L146.97045,132.06938975091495L147.95611875,155.212464625282L148.240125,167.85874003810548L148.41832499999998,154.70736504665447L148.46844375,159.01586142235575L148.57424999999998,150.22494716037602L148.6744875,131.55292770426192L148.96963125000002,151.80902670270635L149.08100625,135.35571850304095L149.20351875,163.6097829948579L149.3316,144.07421596880474L149.42626875000002,131.07827953994277L149.442975,151.08970672690447L149.45968125000002,164.14609148566217L149.665725,141.59750093839003L149.82165,143.9096874317953L149.9218875,153.37401729875384L149.933025,143.35610798959226L150.45648749999998,148.95219924194478L150.60684375000002,132.38117587353506L150.75163125,174.5944110836302L150.89085,183.16898395440413L150.90755625,127.22594838057249L151.49784375000002,156.686252477978L151.52011875,170.69647855258418L151.60365,141.1467897067113L151.6147875,176.6867716956352L151.64263125,134.95060864303795L151.67604375,131.0157102160156L151.79298749999998,134.76896065420343L151.99346250000002,143.80606172340262L152.0825625,152.04763853124214L152.51135625,172.86837644076778L152.71183125,157.07621238061367L152.75638125,137.87848940385243L152.78979375,152.92421506451714L152.93458124999998,135.06953580837168L152.95685625000002,166.57038766358585L153.09050625,143.02371792495254L153.1517625,163.7420421226749L153.27984375,163.51858025150645L153.52486875,154.38194396240377L153.9648,150.5099178584559L154.12629375,137.39338776894982L154.38245625,153.84366597714174L155.034,146.62486279117215L155.0451375,143.7312209340079L155.09525624999998,158.00641976296907L155.11753125,125.24236446246509L155.1231,140.2005233695465L155.16208125,152.78513845588483L155.25118125,136.78981346743453L155.55746249999999,168.23900396802603L155.5686,156.6153506774988L155.80248749999998,140.05462928009888L155.88045,148.53981740240545L156.31481250000002,154.92613043103904L156.49858125,151.23529781720472L157.71256875,126.89386131508013L157.84621875,153.2940255238542L157.996575,158.51242833903862L158.1190875,139.4555999657938L158.174775,173.24788287281996L158.263875,132.24376576021317L158.63698125000002,147.11178242095883L158.88200625000002,188.7523492425681L158.94883125,139.821622935789L159.07134375,130.49939966893626L159.466725,173.95871887249612L159.47786250000001,155.19443617601485L159.68390625,162.138267635767L159.95120624999998,159.42491027127423L160.224075,162.5926148572139L160.3243125,142.436960076115L160.51921875,149.5282006210515L160.72526249999999,150.81867398960256L161.27100000000002,164.83086955866648L161.57171250000002,141.4832702598402L161.71093125,134.25658909603956L162.49055625,152.87270520946814L162.64091249999998,174.5762311347894L163.22563125,141.93155749834014L163.25347499999998,144.6014344851886L163.32586874999998,148.23287926614287L163.45395,155.021272163306L163.52077500000001,142.35469580761028L164.3895,135.22648936669745L164.58997499999998,137.88424638765204L164.76817499999999,157.86234366840554L165.19140000000002,171.75349107810436L165.19696875000002,130.02581200163283L165.7148625,156.4729410782457L166.21048125000002,158.9617760745543L166.22161874999998,148.4593711287848L166.52233125,141.77399794171967L166.5390375,157.22740895513982L166.92885,143.55002744389435L167.48015625000002,164.96888567028307L168.2319375,151.73161042055918L168.644025,137.19977131379505L168.88905,117.94599349477464L168.9224625,120.28014742636257L169.72436249999998,135.3745044501765L170.48171250000001,129.71690437091252L170.604225,134.6763944146889L170.67661875,150.283880494535L170.92164375,142.73435373923613L171.11098124999998,136.66831080934836L171.13325625000002,145.9326612390578L171.2390625,131.9878829802786L171.87390000000002,124.2701916982021L172.0409625,146.35640554662265L172.4196375,144.7044541952866L172.49759999999998,160.63069537814178L172.72035,154.05197789094282L173.054475,152.91148910032857L173.1101625,167.2253203205765L173.17141875000002,140.24309474974874L173.19369375,159.22235534127273L173.37189375,161.6381675430707L173.410875,150.4223511048726L173.52781875,132.67735754006677L173.722725,156.73958032791109L173.8341,145.84903347439004L173.8452375,149.69348665592932L173.93990625,165.38535799831158L174.01786875,132.46692463223428L174.36313125,149.83968374452425L174.37426875,151.23969130484127L174.6916875,157.97778634354478L175.10934375,125.12358879670505L175.45460625,155.99344492756902L176.28435000000002,143.69274004229482L176.5405125,157.58615994559872L176.66859374999999,180.32776094973096L177.47606249999998,132.72629190236333L177.68210625,140.95302175198287L177.74893125,165.73623101093946L177.89371875,142.7516246906349L177.98281875,163.34299224561883L177.99395625000002,113.07937268966013L178.03850624999998,145.4321066476405L178.04964375,160.9300585357207L178.28353124999998,155.88709222685017L178.60095,143.83454364325323L178.68448125,160.18301413793654L178.69004999999999,146.69591609122503L179.11884375,148.90402237751658L179.17453125,161.14700592522115L179.24135625,159.1659974998662L179.58105,129.80810711426398L179.9485875,130.6319617959006L179.99870625,183.81194814507458L180.17690625,141.3602526060173L180.227025,156.87183945572806L180.271575,131.69412530692566L180.316125,153.59293418271207L180.48875625,147.52795174984L180.49989374999998,148.23090977168513L181.10131875,143.1750659990524L181.251675,135.05211335739924L181.32406875,153.79594361143458L181.33520625,152.43911342961454L181.385325,195.32137075705194L181.73615625,152.4357804389937L181.98118125000002,126.77114666040457L182.009025,169.70976182924855L182.69955,153.1746438597995L182.90559375,170.44998874621737L182.9334375,152.22671102732423L182.96128125,143.71167748900402L183.14505,154.08212630610385L183.23415,177.5301698222757L183.42905625,164.17139191446566L183.48474375,158.46637246864188L183.49588125000002,155.18428570457874L183.51815625,146.08461531145235L183.54043124999998,140.5953312585397L183.83000625,148.36392639737048L184.1697,152.49880426164188L184.17526875000001,142.56331072055872L184.1808375,140.0855351931283L184.726575,135.60508680130758L185.03842500000002,157.96581787722457L185.28345000000002,140.04569080525215L185.36698125,138.4131313993463L185.4727875,168.07189993826412L185.53404375000002,119.19101699122363L185.7846375,163.87884623770208L185.89044375,152.2607984314008L185.98511249999999,165.68926614310067L186.95407500000002,160.23800848318004L187.28263125,165.03054599676818L187.7002875,158.44440503045922L187.71699375,158.5509092307517L187.7671125,148.92311132379945L188.14021875,163.90248017119515L188.22931874999998,166.5776596431222L188.26273125,151.49542258520216L188.72493749999998,148.62677815769405L188.74721250000002,157.34739661748924L188.86415625,142.03745570033792L189.16486874999998,115.28990296913048L189.57138750000001,126.94158368078729L189.64935,136.26032245744557L189.83311875,152.62666990182234L189.87766875,153.09586408148922L190.2173625,138.6328057811729L190.2285,143.92317089385224L190.34544375000002,157.0198545392071L190.65729375,150.51552334268183L190.8410625,157.4540523173554L191.05824375,155.38199264822268L191.3756625,173.93023695264552L191.93810624999998,138.2328469066748L192.0439125,177.60501061167042L192.82910625000002,165.66835920193373L193.324725,131.1531203293375L193.369275,161.3321384042502L193.67555625,155.81270593617649L193.7813625,132.88188196452606L194.06536875,155.37865965760184L194.23243125,142.5301323139242L194.304825,157.10014931325406L195.2181,144.9373090400228L195.2292375,159.35355397207402L195.56336249999998,154.11106272467552L195.7192875,141.45660633487364L196.220475,145.69859439773222L196.2316125,129.6602435303586L196.28730000000002,171.11961686185433L196.69381875000002,167.86873900996792L197.03908124999998,116.82929013722712L197.0780625,143.822120678212L197.2674,163.02211614857833L197.81870625,170.13926312061298L198.1027125,150.49325290535182L198.34216874999998,135.20694592169357L198.626175,167.39772683541696L198.77653125,135.71386349520517L198.9491625,141.41539845083446L198.97700625000002,162.87773705486745L199.10508750000002,175.75671581285346L199.52274375,132.24497775680257L199.829025,157.87537263174147L199.918125,153.93199022859338L200.11303125,160.2563399315945L200.14644375,168.81833833775354L200.21326875,154.92279744041824L200.7423,132.75083483329846L200.78128124999998,157.7870483802898L200.87595,161.4774264954031L201.00403125,173.81509727665363L201.0987,152.55576810134315L201.2434875,164.41788172083247L201.73910625,128.07707298547032L201.80036249999998,142.26167506937475L201.93958125,151.12682412245448L202.25143125,125.86078572220038L202.31825625000002,150.97259755645484L202.39065,155.90284818251223L203.05890000000002,145.8091890865139L203.29835625,175.48310758279908L203.3596125,175.49068256148277L203.37075000000002,152.67924025388706L203.393025,155.48970884510456L203.615775,180.98375410373728L203.79954375,154.3068001738617L203.88864375,162.01540148151778L204.30073124999998,138.56281297813572L205.3643625,183.69983846055618L205.7875875,181.84957416728147L205.85998125,148.37483436667497L205.93794375000002,162.9324284009636L206.12728124999998,159.1694819900607L206.68415625,167.93676231854735L206.912475,156.57293079687022L207.06283125,171.37443914477322L207.20205,158.08686603658973L207.25216875,160.81855484949696L207.28558125,169.3187414295972L207.33013125,149.99300131308186L207.3691125,169.32858890188598L207.54731249999998,160.7885579339096L207.70880624999998,147.24040555900766L208.1710125,132.85839953060665L208.68890625,168.105835842767L208.87267500000002,154.15742159421958L209.2624875,151.676010077021L209.39056875,160.47222682407929L209.60775,151.72024795253367L209.7970875,164.3800068274141L210.12564375,164.57786527063172L210.1757625,176.35241213653777L210.39294375,145.09592909365895L210.68251874999999,136.55559512653525L210.89413125,171.9581670021373L211.01664375,158.05732361972338L211.189275,147.12238739111598L211.38975,175.90609439249556L211.412025,141.44281987366935L211.45657500000002,178.04375337702893L211.80740625,155.57454860636173L211.82411249999998,164.10352010545992L212.40883125,152.714994153274L212.47565625000001,163.18406919283532L212.5369125,159.71139596509087L212.6260125,111.66830566046497L212.703975,154.89189152738882L212.82091875,161.92404723859264L212.949,139.3898491508195L213.04923749999998,160.9699029235968L213.1606125,146.4145813829133L214.04604375,147.78913701485314L214.24095,174.9218016623387L214.49711250000001,151.8522040812033L215.90600625,152.46123236737085L215.98396874999997,143.4250402956137L216.25126875,154.88704354103126L216.51299999999998,174.88498726593602L216.936225,157.48480673081113L217.2369375,174.98800697603403L217.59890625,138.59644588349124L217.604475,172.69930291654813L217.6713,159.72639442288457L217.67686875,145.2748500901674L218.1056625,146.17036407015158L218.13907500000002,158.02793270243072L218.4620625,133.58377948935546L218.5734375,146.54653751158293L218.718225,155.55970164814173L218.91313125000002,169.00619780910873L219.68161875,172.5514393326428L219.90436875,170.3612099960447L220.1549625,159.99470016786037L220.20508125,155.8693667767304L220.60603125,154.9406743901117L220.83991874999998,166.82111945801554L220.92345,163.5057027877442L220.95129375000002,133.07140793119163L221.0236875,157.32830767120637L221.10721875000002,168.41171348201382L222.55509375,171.98301293221974L222.59964374999998,137.9880235956184L222.82796249999998,167.59785777223968L222.83353125,163.1102889004563L223.0173,160.46465184539562L223.12310625,151.8921999686531L223.27346250000002,159.04237384774862L223.43495625,166.6003845791732L223.46280000000002,142.43892957057275L223.4739375,165.63881678506738L223.58531250000001,159.90137643047748L224.2758375,155.75392410159117L224.33709374999998,161.4413695968688L224.70463124999998,154.22044541686776L224.71576875,142.97508656180335L224.81600625000002,157.93006397783762L225.0109125,164.30471153929835L225.31719375,175.10466164776264L225.757125,142.47438047081235L225.78496875,125.34326317853163L226.247175,165.21567847579723L226.80405,166.75173265327305L226.86530624999997,143.8284836603063L226.99895625,170.3221231060369L227.50571250000002,169.28132103489983L227.51684999999998,152.0490020274052L227.6839125,169.65597948059445L227.68948125,172.19314284090493L227.940075,146.98028079101022L228.34659375,163.58387656775975L228.73640625000002,141.48387625813487L228.98143124999999,136.59710600972178L229.10394374999998,180.9516361941185L229.28214375,137.05069573330033L229.40465625,168.26445589640318L229.4436375,150.29796995488667L229.49375625,170.49134812983024L229.50489375,158.96616956219083L229.51603125,161.79512110139646L229.60513125,137.97666112759288L229.900275,162.63367124167942L230.0450625,155.06944902773418L230.20655624999998,149.1173337772489L230.4237375,165.6374532889043L230.56852500000002,178.44325775280603L230.75229375,169.8914098180831L230.99731875,122.18919355422263L231.10312499999998,157.77826140501676L231.88831875,161.35137885010673L232.25028749999998,175.99381264565253L232.37279999999998,173.95750687590672L232.43405625,174.71318674939025L232.44519375000002,140.8360640811069L232.45633125,163.1160458842559L232.7180625,180.25261716118885L232.85728125,161.56499324898638L233.01320625000002,163.3626871901964L233.063325,150.66944690953412L233.32505625,131.05328211028663L233.42529374999998,157.55510253299565L233.58678749999999,177.50350589730917L233.70929999999998,147.5611301564745L234.04342499999998,166.47085244368236L234.51676875,142.5680072073426L234.65598749999998,152.1709591842124L234.87316875,172.95548869563007L235.068075,145.62254161174812L235.35765,151.60632027313116L235.4022,144.16860020320334L236.04260625,132.90475840015074L236.10386250000002,167.96266874564552L236.1484125,133.4765177911946L236.3934375,163.8599087909929L236.8166625,136.3669781573117L236.86678125,168.60381494143186L237.830175,171.18748867086006L237.85801875,153.27327008226095L238.14759375,170.21122541810792L238.29795000000001,165.86652064429867L238.6654875,172.07648816917632L238.676625,153.12783049153435L238.7323125,160.34814867324067L238.76572499999997,172.98760660524886L238.87153125,180.88952136891237L238.899375,168.43413541891752L238.90494375,170.76586535732667L239.06086875,180.57273576036104L239.1778125,173.77328339431975L239.2223625,178.02360393373036L239.42283749999999,165.47565174422098L240.05767500000002,137.96257166724124L240.16905,164.72648635240543L240.2915625,152.6899967236179L240.30270000000002,146.69727958738807L240.31940625,147.35039424949463L240.38623125,146.3589810393751L240.46419375000002,160.37814558882803L240.57556875,160.60130446084915L240.6034125,149.29610327418365L240.62011875,145.69268591435898L240.904125,163.71537819770836L241.28836875000002,160.95611646239252L241.36633125,166.14709785474204L241.41088125000002,134.19614076614383L241.57237500000002,144.03588657666535L241.88422500000001,171.69228525034023L241.93991250000002,164.14851547884095L242.06242500000002,165.57079347648798L242.97013124999998,165.89530556329666L243.62724375,128.07828498205973" style="fill: none;" fill="none"></path></g></g></g></g></g><g><g opacity="0.006534109357744455"><span fill="rgb(0, 0, 0)" stroke="none" stroke-width="1px">Alt + Scroll to Zoom</span></g></g></g><g transform="translate(51, 177)" clip-path="url(#clip_1)"><clipPath id="clip_1"><rect width="278" height="22"></rect></clipPath><g><g><line x1="0" y1="0" x2="0" y2="5" style="visibility: inherit;" fill="rgb(0, 0, 0)" stroke="rgb(204, 204, 204)" stroke-width="1px"></line><line x1="34.8046875" y1="0" x2="34.8046875" y2="5" style="visibility: inherit;" fill="rgb(0, 0, 0)" stroke="rgb(204, 204, 204)" stroke-width="1px"></line><line x1="69.609375" y1="0" x2="69.609375" y2="5" style="visibility: inherit;" fill="rgb(0, 0, 0)" stroke="rgb(204, 204, 204)" stroke-width="1px"></line><line x1="104.4140625" y1="0" x2="104.4140625" y2="5" style="visibility: inherit;" fill="rgb(0, 0, 0)" stroke="rgb(204, 204, 204)" stroke-width="1px"></line><line x1="139.21875" y1="0" x2="139.21875" y2="5" style="visibility: inherit;" fill="rgb(0, 0, 0)" stroke="rgb(204, 204, 204)" stroke-width="1px"></line><line x1="174.0234375" y1="0" x2="174.0234375" y2="5" style="visibility: inherit;" fill="rgb(0, 0, 0)" stroke="rgb(204, 204, 204)" stroke-width="1px"></line><line x1="208.828125" y1="0" x2="208.828125" y2="5" style="visibility: inherit;" fill="rgb(0, 0, 0)" stroke="rgb(204, 204, 204)" stroke-width="1px"></line><line x1="243.6328125" y1="0" x2="243.6328125" y2="5" style="visibility: inherit;" fill="rgb(0, 0, 0)" stroke="rgb(204, 204, 204)" stroke-width="1px"></line><line x1="278.4375" y1="0" x2="278.4375" y2="5" style="visibility: inherit;" fill="rgb(0, 0, 0)" stroke="rgb(204, 204, 204)" stroke-width="1px"></line></g><g transform="translate(0, 8)"><text x="0" y="0" dx="0em" dy="0.95em" style="text-anchor: middle; visibility: hidden; font-family: Roboto, sans-serif; font-size: 12px; font-weight: 200;" fill="rgb(50, 49, 63)" stroke="none" stroke-width="1px">-50k</text><text x="34.8046875" y="0" dx="0em" dy="0.95em" style="text-anchor: middle; visibility: inherit; font-family: Roboto, sans-serif; font-size: 12px; font-weight: 200;" fill="rgb(50, 49, 63)" stroke="none" stroke-width="1px">0</text><text x="69.609375" y="0" dx="0em" dy="0.95em" style="text-anchor: middle; visibility: inherit; font-family: Roboto, sans-serif; font-size: 12px; font-weight: 200;" fill="rgb(50, 49, 63)" stroke="none" stroke-width="1px">50k</text><text x="104.4140625" y="0" dx="0em" dy="0.95em" style="text-anchor: middle; visibility: inherit; font-family: Roboto, sans-serif; font-size: 12px; font-weight: 200;" fill="rgb(50, 49, 63)" stroke="none" stroke-width="1px">100k</text><text x="139.21875" y="0" dx="0em" dy="0.95em" style="text-anchor: middle; visibility: inherit; font-family: Roboto, sans-serif; font-size: 12px; font-weight: 200;" fill="rgb(50, 49, 63)" stroke="none" stroke-width="1px">150k</text><text x="174.0234375" y="0" dx="0em" dy="0.95em" style="text-anchor: middle; visibility: inherit; font-family: Roboto, sans-serif; font-size: 12px; font-weight: 200;" fill="rgb(50, 49, 63)" stroke="none" stroke-width="1px">200k</text><text x="208.828125" y="0" dx="0em" dy="0.95em" style="text-anchor: middle; visibility: inherit; font-family: Roboto, sans-serif; font-size: 12px; font-weight: 200;" fill="rgb(50, 49, 63)" stroke="none" stroke-width="1px">250k</text><text x="243.6328125" y="0" dx="0em" dy="0.95em" style="text-anchor: middle; visibility: inherit; font-family: Roboto, sans-serif; font-size: 12px; font-weight: 200;" fill="rgb(50, 49, 63)" stroke="none" stroke-width="1px">300k</text><text x="278.4375" y="0" dx="0em" dy="0.95em" style="text-anchor: middle; visibility: hidden; font-family: Roboto, sans-serif; font-size: 12px; font-weight: 200;" fill="rgb(50, 49, 63)" stroke="none" stroke-width="1px">350k</text></g><line x1="0" y1="0" x2="278.4375" y2="0" fill="rgb(0, 0, 0)" stroke="rgb(204, 204, 204)" stroke-width="1px"></line></g></g></g></g></svg>