<svg viewBox="0 0 330 200" xmlns="http://www.w3.org/2000/svg"><g><g><g><g><g><line x1="51.5625" y1="177.921875" x2="46.5625" y2="177.921875" style="visibility: inherit;" fill="rgb(0, 0, 0)" stroke="rgb(204, 204, 204)" stroke-width="1px"></line><line x1="51.5625" y1="158.15277777777777" x2="46.5625" y2="158.15277777777777" style="visibility: inherit;" fill="rgb(0, 0, 0)" stroke="rgb(204, 204, 204)" stroke-width="1px"></line><line x1="51.5625" y1="138.38368055555551" x2="46.5625" y2="138.38368055555551" style="visibility: inherit;" fill="rgb(0, 0, 0)" stroke="rgb(204, 204, 204)" stroke-width="1px"></line><line x1="51.5625" y1="118.61458333333334" x2="46.5625" y2="118.61458333333334" style="visibility: inherit;" fill="rgb(0, 0, 0)" stroke="rgb(204, 204, 204)" stroke-width="1px"></line><line x1="51.5625" y1="98.8454861111111" x2="46.5625" y2="98.8454861111111" style="visibility: inherit;" fill="rgb(0, 0, 0)" stroke="rgb(204, 204, 204)" stroke-width="1px"></line><line x1="51.5625" y1="79.07638888888884" x2="46.5625" y2="79.07638888888884" style="visibility: inherit;" fill="rgb(0, 0, 0)" stroke="rgb(204, 204, 204)" stroke-width="1px"></line><line x1="51.5625" y1="59.307291666666615" x2="46.5625" y2="59.307291666666615" style="visibility: inherit;" fill="rgb(0, 0, 0)" stroke="rgb(204, 204, 204)" stroke-width="1px"></line><line x1="51.5625" y1="39.538194444444365" x2="46.5625" y2="39.538194444444365" style="visibility: inherit;" fill="rgb(0, 0, 0)" stroke="rgb(204, 204, 204)" stroke-width="1px"></line><line x1="51.5625" y1="19.769097222222232" x2="46.5625" y2="19.769097222222232" style="visibility: inherit;" fill="rgb(0, 0, 0)" stroke="rgb(204, 204, 204)" stroke-width="1px"></line><line x1="51.5625" y1="0" x2="46.5625" y2="0" style="visibility: inherit;" fill="rgb(0, 0, 0)" stroke="rgb(204, 204, 204)" stroke-width="1px"></line></g><g transform="translate(41.5625, 0)"><text x="0" y="177.921875" dx="0em" dy="0.3em" style="text-anchor: end; visibility: hidden; font-family: Roboto, sans-serif; font-size: 12px; font-weight: 200;" fill="rgb(50, 49, 63)" stroke="none" stroke-width="1px">0.42</text><text x="0" y="158.15277777777777" dx="0em" dy="0.3em" style="text-anchor: end; visibility: inherit; font-family: Roboto, sans-serif; font-size: 12px; font-weight: 200;" fill="rgb(50, 49, 63)" stroke="none" stroke-width="1px">0.44</text><text x="0" y="138.38368055555551" dx="0em" dy="0.3em" style="text-anchor: end; visibility: hidden; font-family: Roboto, sans-serif; font-size: 12px; font-weight: 200;" fill="rgb(50, 49, 63)" stroke="none" stroke-width="1px">0.46</text><text x="0" y="118.61458333333334" dx="0em" dy="0.3em" style="text-anchor: end; visibility: inherit; font-family: Roboto, sans-serif; font-size: 12px; font-weight: 200;" fill="rgb(50, 49, 63)" stroke="none" stroke-width="1px">0.48</text><text x="0" y="98.8454861111111" dx="0em" dy="0.3em" style="text-anchor: end; visibility: hidden; font-family: Roboto, sans-serif; font-size: 12px; font-weight: 200;" fill="rgb(50, 49, 63)" stroke="none" stroke-width="1px">0.5</text><text x="0" y="79.07638888888884" dx="0em" dy="0.3em" style="text-anchor: end; visibility: inherit; font-family: Roboto, sans-serif; font-size: 12px; font-weight: 200;" fill="rgb(50, 49, 63)" stroke="none" stroke-width="1px">0.52</text><text x="0" y="59.307291666666615" dx="0em" dy="0.3em" style="text-anchor: end; visibility: hidden; font-family: Roboto, sans-serif; font-size: 12px; font-weight: 200;" fill="rgb(50, 49, 63)" stroke="none" stroke-width="1px">0.54</text><text x="0" y="39.538194444444365" dx="0em" dy="0.3em" style="text-anchor: end; visibility: inherit; font-family: Roboto, sans-serif; font-size: 12px; font-weight: 200;" fill="rgb(50, 49, 63)" stroke="none" stroke-width="1px">0.56</text><text x="0" y="19.769097222222232" dx="0em" dy="0.3em" style="text-anchor: end; visibility: hidden; font-family: Roboto, sans-serif; font-size: 12px; font-weight: 200;" fill="rgb(50, 49, 63)" stroke="none" stroke-width="1px">0.58</text><text x="0" y="0" dx="0em" dy="0.3em" style="text-anchor: end; visibility: hidden; font-family: Roboto, sans-serif; font-size: 12px; font-weight: 200;" fill="rgb(50, 49, 63)" stroke="none" stroke-width="1px">0.6</text></g><line x1="51.5625" y1="0" x2="51.5625" y2="177.921875" fill="rgb(0, 0, 0)" stroke="rgb(204, 204, 204)" stroke-width="1px"></line></g></g><g transform="translate(51, 0)" clip-path="url(#clip_0)"><clipPath id="clip_0"><rect width="278" height="177"></rect></clipPath><g><g><g><line x1="0" y1="0" x2="0" y2="177.921875" fill="rgb(0, 0, 0)" stroke="rgb(60, 60, 60)" stroke-width="1px" opacity="0.25"></line><line x1="34.8046875" y1="0" x2="34.8046875" y2="177.921875" fill="rgb(0, 0, 0)" stroke="rgb(60, 60, 60)" stroke-width="1px" opacity="0.25"></line><line x1="69.609375" y1="0" x2="69.609375" y2="177.921875" fill="rgb(0, 0, 0)" stroke="rgb(60, 60, 60)" stroke-width="1px" opacity="0.25"></line><line x1="104.4140625" y1="0" x2="104.4140625" y2="177.921875" fill="rgb(0, 0, 0)" stroke="rgb(60, 60, 60)" stroke-width="1px" opacity="0.25"></line><line x1="139.21875" y1="0" x2="139.21875" y2="177.921875" fill="rgb(0, 0, 0)" stroke="rgb(60, 60, 60)" stroke-width="1px" opacity="0.25"></line><line x1="174.0234375" y1="0" x2="174.0234375" y2="177.921875" fill="rgb(0, 0, 0)" stroke="rgb(60, 60, 60)" stroke-width="1px" opacity="0.25"></line><line x1="208.828125" y1="0" x2="208.828125" y2="177.921875" fill="rgb(0, 0, 0)" stroke="rgb(60, 60, 60)" stroke-width="1px" opacity="0.25"></line><line x1="243.6328125" y1="0" x2="243.6328125" y2="177.921875" fill="rgb(0, 0, 0)" stroke="rgb(60, 60, 60)" stroke-width="1px" opacity="0.25"></line><line x1="278.4375" y1="0" x2="278.4375" y2="177.921875" fill="rgb(0, 0, 0)" stroke="rgb(60, 60, 60)" stroke-width="1px" opacity="0.25"></line></g><g><line x1="0" y1="177.921875" x2="278.4375" y2="177.921875" fill="rgb(0, 0, 0)" stroke="rgb(60, 60, 60)" stroke-width="1px" opacity="0.25"></line><line x1="0" y1="158.15277777777777" x2="278.4375" y2="158.15277777777777" fill="rgb(0, 0, 0)" stroke="rgb(60, 60, 60)" stroke-width="1px" opacity="0.25"></line><line x1="0" y1="138.38368055555551" x2="278.4375" y2="138.38368055555551" fill="rgb(0, 0, 0)" stroke="rgb(60, 60, 60)" stroke-width="1px" opacity="0.25"></line><line x1="0" y1="118.61458333333334" x2="278.4375" y2="118.61458333333334" fill="rgb(0, 0, 0)" stroke="rgb(60, 60, 60)" stroke-width="1px" opacity="0.25"></line><line x1="0" y1="98.8454861111111" x2="278.4375" y2="98.8454861111111" fill="rgb(0, 0, 0)" stroke="rgb(60, 60, 60)" stroke-width="1px" opacity="0.25"></line><line x1="0" y1="79.07638888888884" x2="278.4375" y2="79.07638888888884" fill="rgb(0, 0, 0)" stroke="rgb(60, 60, 60)" stroke-width="1px" opacity="0.25"></line><line x1="0" y1="59.307291666666615" x2="278.4375" y2="59.307291666666615" fill="rgb(0, 0, 0)" stroke="rgb(60, 60, 60)" stroke-width="1px" opacity="0.25"></line><line x1="0" y1="39.538194444444365" x2="278.4375" y2="39.538194444444365" fill="rgb(0, 0, 0)" stroke="rgb(60, 60, 60)" stroke-width="1px" opacity="0.25"></line><line x1="0" y1="19.769097222222232" x2="278.4375" y2="19.769097222222232" fill="rgb(0, 0, 0)" stroke="rgb(60, 60, 60)" stroke-width="1px" opacity="0.25"></line><line x1="0" y1="0" x2="278.4375" y2="0" fill="rgb(0, 0, 0)" stroke="rgb(60, 60, 60)" stroke-width="1px" opacity="0.25"></line></g></g></g><g><g><line x1="0" y1="593.0729166666667" x2="278.4375" y2="593.0729166666667" fill="rgb(0, 0, 0)" stroke="rgb(153, 153, 153)" stroke-width="1.5px"></line></g></g><g><g><line x1="34.8046875" y1="0" x2="34.8046875" y2="177.921875" fill="rgb(0, 0, 0)" stroke="rgb(153, 153, 153)" stroke-width="1.5px"></line></g></g><g><g><g><g><g><path stroke="rgb(255, 112, 67)" stroke-width="2px" d="M35.400543750000004,-97.61070230251379L35.7625125,7.660249377053898L36.1634625,10.217535723935976L36.246993749999994,-108.24716273653225L36.375075,-39.11268993110916L37.043324999999996,28.099250026951523L37.11571875,43.85926017473926L37.23823125,27.41759426663352L37.39415625,50.35888290378456L37.644749999999995,-3.866904790438561L37.77283125,9.6625372793354L37.800675,23.800593614237666L37.9009125,52.32533572024099L38.123662499999995,17.18733524700404L38.35198125,26.637143618628027L38.385393750000006,54.19964258931488L38.468925,21.17697552268241L39.059212499999994,87.67975529774125L39.281962500000006,75.46259245764689L39.627225,57.736630266217205L39.738600000000005,71.65394552901272L40.45696875,14.690047105663126L40.518225,5.958648165749154L40.57948125,-10.485902944482229L41.06953125,29.992480584059322L41.108512499999996,88.51015351816903L41.2198875,123.71579845505217L41.2867125,162.1473023021128L41.3535375,100.18917109428538L41.3980875,82.82650901143786L41.776762500000004,81.24445660860484L41.7879,64.34900219272998L41.860293750000004,22.927467831844353L41.88256875,36.96238504460638L42.4672875,23.012174007204795L42.695606250000004,92.00014416650181L42.923925,82.51829163005947L43.124399999999994,84.31247128908812L43.2135,70.90643118378235L43.23020625,121.51029530915577L43.4251125,141.20896276125663L43.441818749999996,163.66294513610904L43.51978125,127.49980865816363L43.865043750000005,98.14497335494788L43.90959375,138.3555187775163L44.1045,108.15575362010517L44.33281875,108.44586348699748L45.090168750000004,60.0689855976375L45.37974375,56.79278690321414L45.43543125,64.42605037466312L45.6080625,91.91431117593508L45.719437500000005,136.58760740597782L45.72500625,140.52774081712892L46.382118750000004,151.13101071171195L47.94136875,151.42577495515027L48.370162500000006,103.7837154324126L48.39800625,94.81814584150756L48.51495,76.83724798163205L48.531656250000005,52.4778353214112L48.74326875,44.57454466974469L49.155356250000004,85.22921889724172L49.160925,-3.471405049701391L49.277868749999996,-20.20882031585513L49.47834375,12.0731192884236L49.522893749999994,78.4950038092271L49.7512125,66.24947469630123L49.80133125,93.39595386148125L49.884862500000004,133.23858770982804L49.93498125,61.635641817372544L50.141025,72.44043668042247L50.2189875,79.59364197858537L50.31365625,102.57795625627057L50.4640125,111.12892365074L50.6422125,77.84454330548151L50.736881249999996,100.96371169173915L51.36058125,91.95693385397905L51.97314375,51.42489330299003L51.9787125,32.42172841277105L52.090087499999996,46.908022761455776L52.09565625,45.79962861544583L52.31840625,19.516047886219425L52.619118750000005,76.28390710686546L52.719356250000004,30.92036009262934L52.85300625,11.524528571800088L52.986656249999996,-1.2109618175678563L53.0033625,58.45409594576977L53.493412500000005,155.0575518307837L53.760712500000004,136.2280937898806L54.20064375,120.513566727889L54.2953125,145.59068965640807L54.4401,51.38731814683764L54.66285,45.78336265540883L54.8521875,9.48242338446168L54.9412875,16.6809541401111L55.1529,85.38391869785282L55.19188125,108.28397360730304L55.2308625,109.71719791820853L55.247568750000006,87.67046766511649L55.353375,136.4014020579811L55.4758875,133.77061337545385L55.865700000000004,81.1584314437104L56.2332375,96.53300932145807L56.60634375,32.61251958202678L56.70658125,52.49060860883678L56.940468749999994,11.45393153329903L57.1465125,84.69682872515713L57.20776875,64.50971701293929L57.5474625,47.500004067237334L57.68668125,63.948496193384926L57.75350625,68.50744724538669L57.7702125,70.69614344828699L57.892725,47.27171288286007L58.08763125,89.53225050349315L58.1488875,124.80532780302136L58.34379375,127.9154379534146L58.510856249999996,88.17990291239016L58.85055,184.7282534059324L58.906237499999996,140.3327110811932L59.6079,115.22052179454933L60.05896875,115.25027877207438L60.08124375,97.458782374887L60.220462500000004,86.11320265723634L60.487762499999995,74.38922569559038L60.69380625,96.77690344028456L60.922125,141.60061060116024L60.966674999999995,117.74793170170851L61.01679375,49.6050716455558L61.144875,97.06977440655741L61.40660625,39.446548774781974L61.7128875,54.99097179377994L61.7351625,121.59327836230024L61.779712499999995,114.44392057511648L61.991325,94.25231811836757L62.14725,74.972968738555L63.08836875,78.80132485240776L63.1384875,75.99131482544259L63.149625,106.4734119201365L63.3835125,104.5789610414668L63.4057875,122.16847611795318L63.511593749999996,105.24779471132425L63.68979375,158.09946643775325L63.7621875,138.2071795875434L63.90140625,162.90613485347188L63.9738,81.01897368281325L64.05733124999999,51.361691310202566L64.10745,61.401904258894255L64.29121875,60.84319711916354L64.42486875,69.99960965877402L64.664325,89.33552378035466L64.89264374999999,95.61572211115018L65.12653125,71.7183019616743L65.17665000000001,121.27480685209636L65.48293125000001,35.59846060587874L66.36279375,69.26724350449955L66.71362500000001,124.59583901049535L66.86955,102.22731251171005L67.2816375,173.05898455471262L67.470975,134.39011495715326L67.54336875,78.7886533407062L67.9721625,86.54828892256953L68.11138125000001,122.16654145859525L68.20048125,96.83095379780436L68.51233125,61.20421657926263L68.83531875,133.64040012306492L68.985675,116.38354214740708L69.00795000000001,72.13207781731498L69.47015625,116.22817573222001L69.57039375,63.06844364467745L69.77086875,25.380688157526162L70.0660125,57.81467607822695L70.07715,28.457150789754305L70.21079999999999,98.03538051910927L70.21636875,97.76705268953212L70.2442125,20.368785740869413L70.27205624999999,67.36204001596805L71.1574875,105.66339794397099L71.28556875000001,56.78590114656265L71.3579625,52.00210843719618L71.38580625,109.26315658271363L71.47490624999999,121.12136484823816L71.50274999999999,79.74175265665171L71.55286875,48.88720436799385L71.64196874999999,94.70902017122057L71.96495625,64.16491398905049L72.282375,96.62037344384457L72.39375,119.92939612275984L72.683325,119.87400599154974L72.906075,78.91332873445302L72.950625,53.868324098851254L73.3181625,82.65823001477737L73.33486875,56.228360982121735L73.73581874999999,69.37034318885443L73.7636625,50.22303938352146L73.7748,18.569047113903828L74.08664999999999,39.000911110529394L74.43748125,43.369059747374834L74.4541875,66.72404423282383L74.4876,101.73448698633746L74.6992125,122.85050229627193L74.93866874999999,126.1194063862312L75.19483125000001,80.66299322586144L75.311775,56.868895270803186L75.5011125,125.69529217600208L75.668175,87.76224667269287L75.75170625000001,73.3979264787135L75.82966875000001,93.1419617653087L76.2139125,136.99273352561235L76.3698375,34.72252891346187L76.3921125,13.951306488255213L76.40325,62.66985954962711L76.603725,32.32718267977432L76.67054999999999,20.163628688594855L76.80976875,10.341230597282102L77.08820625,89.79361039226491L77.1494625,139.5749206486193L77.3722125,119.12451383619258L77.4613125,87.72370484965626L77.83441875,173.0348081205724L77.85112500000001,157.49676534938274L77.99591249999999,54.08675050216723L78.207525,30.85563936700448L78.21309375,15.003459003951917L78.35788125,10.651728000175984L78.54721875,37.33717868963133L78.76996874999999,66.84902387875859L79.276725,135.0387347652958L80.03407499999999,79.79324342711116L80.1565875,87.6107566474247L80.55753750000001,122.54421210795846L80.89723125,165.96605994252155L80.97519375,53.29569541722878L81.0030375,27.319987729882552L81.45410625000001,98.14096126606118L81.56548124999999,157.42458317038117L82.08894375000001,106.18025534613943L82.4063625,90.90183245680468L82.439775,87.47374080684494L82.796175,60.24422165385582L83.02449375,95.67355257065607L83.04676875000001,93.83259523775746L83.2194,30.89300861113533L83.38646250000001,63.71070621585143L83.54238749999999,29.291326313268883L83.6760375,104.33487204794855L83.687175,48.07691227330948L83.93776875,74.91733335763725L83.99345625,88.41348213088659L84.1995,101.54281731889597L84.23848124999999,73.4547697739559L84.46123125,66.95941496727076L84.83990625000001,41.212452136086085L84.95685,81.48178606250777L85.10720624999999,126.32344350710186L85.246425,66.25599365148412L85.59725625,101.84906884149291L85.7698875,77.16500319717002L86.10401250000001,57.85699596693064L86.3267625,117.7873734819124L86.54394375,108.68366779716521L86.61076875,150.45640566505352L86.6608875,123.62955234126336L86.74441875,98.15452257301062L86.84465625,141.71892325720077L86.92261875,93.65568332507736L86.9950125,114.26221082688092L87.07854375000001,-0.4317373256044963L87.4627875,14.889228950067201L87.91942499999999,53.04435928024282L87.96954375,107.37785110363818L88.07535,106.47583210743473L88.66006875,105.55867451764188L88.6656375,78.51484320107986L88.88838750000001,46.480351696093926L89.11670625000001,63.62087083770971L89.12227499999999,55.8382016639592L89.22251250000001,59.68010207463392L89.45083125,88.9049810510406L89.58448125000001,113.94557606560498L89.656875,79.50802232900763L89.75154375000001,131.0924737975187L89.9019,141.60172298502044L90.02998125,105.97797778840531L90.2026125,95.16672871236074L90.20818125,37.25692674013747L90.21375,94.32285591098831L90.2694375,59.184922528149976L90.34183125000001,62.627711382471205L90.37524375,54.77651213491387L90.45320625,110.97249285890645L90.84301875,131.3724069031582L90.993375,113.06247639841534L91.16600625,107.95739824651365L91.26067499999999,66.60095888133385L91.55581875,145.3810863775014L91.6504875,146.4488696181972L91.68946874999999,156.2837894562568L91.99018125,108.9257563988909L92.0514375,70.51827381759819L92.39670000000001,67.23923338131073L92.41340625,150.90889916632486L92.418975,125.4750852459505L92.69184374999999,107.97349536751385L92.97028125,61.68246395530763L93.00369375,-13.64986076253513L93.0092625,-41.17597855995487L93.042675,25.138917939392417L93.28213124999999,-0.5173945951792486L93.3768,-5.919579866064896L93.61625625,45.454587447706174L93.8111625,79.33238836051324L94.01720625,67.92684185408334L94.07289374999999,55.62831730138929L94.08403125,124.71212146641477L94.42929375,70.604906368441L94.48498124999999,69.05590351256596L94.5239625,144.6405602184407L96.18901875,178.6923241379344L96.21686249999999,166.2132142669615L96.2614125,136.20006116598785L96.36165,122.97068637511263L96.5844,149.46300442987692L96.71805,136.95260563121306L96.7514625,122.42835060102053L97.00762499999999,93.43615197842703L97.2415125,85.92103573487759L97.274925,61.76972306288549L97.319475,55.553027442697235L97.90419374999999,68.04522082056815L98.255025,118.61892720613439L98.33855625,86.5206979032901L98.52789375,112.83118747053989L98.62813125,120.28417814450528L99.324225,162.1617054541698L99.50799375,115.02437622694913L99.98133750000001,170.2628115926442L100.2040875,114.95236192414039L100.3154625,106.80164580521975L100.36558125,131.621640977422L100.482525,116.8495216068749L100.66629375,162.77213854797435L100.82221874999999,140.7098609338169L100.93359375,105.15079967955536L100.9837125,82.77541598678832L101.42364375,94.87651390558212L101.5183125,91.72853584722114L101.82459375,112.66268172079911L102.0974625,109.05069580499912L102.64876875,112.77595560723458L102.67104375000001,97.10333499851504L102.98289375,96.02028081897835L103.18336875,82.0069133168329L103.356,70.30178402708849L103.43396249999999,129.51786851998628L103.64557500000001,194.97796184013995L103.868325,152.21892946592064L103.8906,142.04746168553325L103.9017375,113.85686732310084L104.01868125,80.7194751246454L104.02425,63.27297788406831L104.10778125,97.7944737375834L104.17460625,57.32060549861541L104.3249625,89.095252652827L104.3361,114.56011686859148L104.34723749999999,114.20253714984557L104.759325,97.70740409954921L105.02105625,76.79201950870011L105.2827875,123.88858164163331L105.6169125,141.72256382152904L106.69168125,148.50322654308331L106.71395625,182.84985090508428L106.93113749999999,101.14188649384798L107.0870625,118.65081706831526L107.10933750000001,84.35657483104669L107.3766375,90.62765442161877L107.5102875,110.02505649574067L107.7553125,63.72972410174027L108.2899125,85.27822046065747L108.69643125,88.81897386188955L108.93588749999999,2.5270559768582515L109.18648125,82.76447087332673L109.4036625,135.84289712115006L109.570725,84.31406634326432L109.77676875,96.48017792125111L110.14987500000001,55.92075752895805L110.3058,28.903909605251762L110.35035,80.00246237482051L110.71231875,113.42133720385617L110.81812500000001,65.58897552896428L110.84596875,90.47564789707793L111.709125,103.0540785076704L111.97085625,112.97134770414812L112.3439625,119.20202214988848L112.65024375,162.40327648380068L112.7003625,158.14961322961778L112.84514999999999,152.05136070586195L113.0679,142.96108550892606L113.79740625000001,125.67944462380278L113.85866250000001,133.23217622689617L113.9589,209.25131806976756L114.28745624999999,206.39683311593848L114.783075,165.17337720693703L114.82205625,91.95706827601725L115.03366875,79.09687608626044L115.06708125,51.815816295689416L115.14504375,72.20826075737934L115.1951625,42.213663988320185L115.79101875,57.946319877493615L116.02490625,170.59831413341857L116.28106875,122.50274280130506L116.40358125,127.45140540378075L116.96045625,55.02242307240174L117.37254375,80.8170559786639L117.55074375,28.167872715217776L117.6231375,42.7812483401932L117.6454125,43.30998960088716L117.94055625,66.76251878692659L117.96283125,95.90178999722704L118.0463625,102.69541318870174L118.48629374999999,98.04333138194959L118.74245625,35.148673164874644L118.74802500000001,76.61387239005988L118.77029999999999,101.72228316326863L118.99305000000001,141.48306471563998L119.07101250000001,61.97647164860935L119.14897500000001,51.63222314319415L119.23250625,118.47662053802782L119.41070625,62.97780334622827L119.48866875,25.737116955744188L120.24045,53.81587392843384L120.396375,115.4584160061327L120.44649375,174.69906029253252L120.71379375,103.23273468056742L120.83630624999999,74.06521285977955L120.9198375,60.048408897329L120.95325,119.41211025144337L121.10917500000001,80.43269680161015L121.77742500000001,64.31958692750578L121.93334999999999,123.80134642961531L122.3454375,50.68148764063001L122.401125,42.00720908620402L122.6127375,-6.5137592855222035L122.79650625000001,4.735846177136539L122.94686250000001,15.337970914016916L123.24200625,-5.952813296408346L123.514875,39.183477030569115L124.1274375,96.03978900656031L124.37246250000001,127.10932524214473L124.60078125,103.34787507455715L124.97945625,108.10918075601951L124.98502500000001,149.18415561722136L125.28016875,180.7358158815869L125.29130624999999,111.16198488002495L125.69225625,93.60335765287563L125.876025,137.7539000452294L126.1321875,165.93821628034348L126.23799375,164.45948140311546L126.32709375,64.64164358850626L128.01999375,37.94181089916944L128.04226875,76.51273909790451L128.593575,90.66822010717341L128.771775,75.31217985913081L128.8497375,68.70082685406625L128.86644375,115.4279405294197L129.00009375,115.72297366635692L129.22284375,57.42232634058603L129.529125,63.92238318398868L129.6070875,4.308968219675873L129.8187,32.90377928782926L129.9412125,8.598154872722013L130.1862375,81.26130410809314L130.21965,42.65057262133291L130.22521875,49.13843471409983L130.31431874999998,93.94495008652834L130.38114375,62.8971241824421L130.79323125,34.85423166528896L130.910175,4.685652635680285L130.98256875,11.683500188236774L131.03825625,59.340952224950534L131.712075,90.90368389416301L131.91811875,49.44238859428769L132.65319375,154.26269964103852L133.0374375,135.387679448947L133.04300625000002,107.89839507066694L133.25461875,101.92408287537522L133.3492875,118.33716995052944L133.39940625,112.44142553213041L133.58874375,171.07270595221894L133.7947875,146.75122864058613L134.37950625,84.1991911294387L134.42405625,74.91779449316151L134.44633125000001,37.20449070067244L134.72476875,35.07047185426246L135.11458125000001,46.95735645973195L135.5767875,29.692211344690254L135.69373124999998,73.35342826014825L135.76055625,36.589157584455L135.80510625,33.516390452174214L135.82738125,59.95972057196764L135.84965625,89.45121996774895L136.23946875000001,77.05479958351884L136.6237125,131.02183377359006L136.9355625,140.10935675097718L137.34208125,120.69832947117682L137.47573125,98.61668170126835L137.5592625,104.12610596898895L137.6929125,36.4731628602434L137.76530625,10.100870914102867L137.815425,10.180166962267297L137.993625,53.554562267591045L138.5170875,29.32109111265104L138.617325,106.49547693112943L138.67858125,72.77644117901063L139.30785,48.11478166129124L139.31341875,44.556155625391895L139.34683125,58.02758401951397L139.36353749999998,50.20736920793248L139.4303625,100.25467911512287L139.51389375,49.33410238672004L140.1208875,56.37302909951291L140.60536875,133.2472178845425L140.87266874999997,53.84077010521875L141.20679375,48.15643209498874L141.26248125,75.8035448910698L141.28475625,43.23362816868326L141.290325,66.6759670589006L141.81935625,64.15591584856459L142.2036,142.19511272836814L142.43191875,162.8943945043364L142.75490625,159.566066001862L142.91639999999998,128.90587307654073L142.9943625,103.09850927692666L143.42872500000001,138.09867436464833L143.44543124999998,78.7983635861747L143.696025,87.1202083768391L144.09140624999998,52.680878282520396L144.18050624999998,102.82822136081914L144.29745,87.97502607544527L145.33880625,87.7293726836392L145.45018124999999,93.30029839029075L145.63951874999998,113.16121424755386L145.72861874999998,137.9862984033928L145.789875,142.9814442889975L146.12400000000002,126.90211118558233L146.146275,148.39415621186637L146.21866875,156.53205253164182L146.3022,114.87874371132708L146.97045,161.08419179975533L147.95611875,157.1775951273149L148.240125,140.48307399030125L148.41832499999998,90.7264626879198L148.46844375,98.60285873158652L148.57424999999998,108.79181138434005L148.6744875,49.33363913054072L148.96963125000002,41.084885399866934L149.08100625,55.12628315426969L149.20351875,61.87980207674547L149.3316,79.16480697561833L149.42626875000002,44.19314059454589L149.442975,108.95052322201958L149.45968125000002,112.8678566296993L149.665725,87.01984134255764L149.82165,39.15986370788694L149.9218875,12.94469405634215L149.933025,78.3413515739521L150.45648749999998,148.00458126656494L150.60684375000002,80.04543777673149L150.75163125,19.255474304453138L150.89085,-7.187262507269059L150.90755625,0.7408777822783127L151.49784375000002,28.25909157128842L151.52011875,75.60755269985093L151.60365,88.13622859846964L151.6147875,144.38903404351427L151.64263125,85.89785026936875L151.67604375,49.82062486972232L151.79298749999998,41.99372050811342L151.99346250000002,13.150720708135358L152.0825625,87.90499353371213L152.51135625,80.76009238554991L152.71183125,97.38447961792053L152.75638125,49.16888657386912L152.78979375,134.68004967343958L152.93458124999998,124.15319643552066L152.95685625000002,99.73784115817125L153.09050625,105.02678493490899L153.1517625,110.0276232250315L153.27984375,117.67097035060357L153.52486875,97.56891446591438L153.9648,85.59612638621138L154.12629375,58.48392355148486L154.38245625,62.41883433400953L155.034,67.2068814068895L155.0451375,87.30127387170987L155.09525624999998,121.09577686261797L155.11753125,176.07264800935647L155.1231,143.2799586018767L155.16208125,123.2111833637629L155.25118125,159.03671183829385L155.55746249999999,85.12039679888473L155.5686,125.83933033810378L155.80248749999998,80.90863569951512L155.88045,103.74822473257821L156.31481250000002,131.58491551504062L156.49858125,96.17308148518521L157.71256875,66.3566702816903L157.84621875,71.89011541208407L157.996575,70.2088314310094L158.1190875,101.45781150096606L158.174775,46.21316483208233L158.263875,77.30808098509789L158.63698125000002,77.51037944244274L158.88200625000002,156.48785389565415L158.94883125,137.93290514634842L159.07134375,85.40173809311864L159.466725,96.62482646723662L159.47786250000001,120.18287548101155L159.68390625,55.53737613059465L159.95120624999998,49.973209195651265L160.224075,18.077503995919077L160.3243125,148.3461408575071L160.51921875,141.76147461967986L160.72526249999999,103.08103549105313L161.27100000000002,74.02891499208177L161.57171250000002,154.17888674477632L161.71093125,70.74007934087457L162.49055625,82.85670432152718L162.64091249999998,99.37335310603765L163.22563125,51.792514775133945L163.25347499999998,110.14913810506836L163.32586874999998,157.06441024558472L163.45395,166.91123323348697L163.52077500000001,127.22847783755448L164.3895,104.03353580350391L164.58997499999998,156.23133634987465L164.76817499999999,157.63040290614262L165.19140000000002,182.92311296065662L165.19696875000002,164.24921786407637L165.7148625,143.4192325097936L166.21048125000002,80.63677371659914L166.22161874999998,39.21893638873856L166.52233125,43.18867795668898L166.5390375,64.03410587345604L166.92885,31.4445754278636L167.48015625000002,62.4020825696931L168.2319375,78.66372534661825L168.644025,79.29367306332722L168.88905,141.40333794430458L168.9224625,111.55037501471249L169.72436249999998,87.2626299658769L170.48171250000001,99.7457716503933L170.604225,134.20817279258705L170.67661875,93.03767497072884L170.92164375,128.77555212962793L171.11098124999998,122.35547504879105L171.13325625000002,127.84394479899846L171.2390625,85.81857201058548L171.87390000000002,39.07811047717259L172.0409625,60.11073675255576L172.4196375,90.44737629452041L172.49759999999998,122.78546709007071L172.72035,95.79229591119574L173.054475,109.04177627659809L173.1101625,121.31911715096744L173.17141875000002,162.17568749945272L173.19369375,117.49481532580198L173.37189375,78.20867266751577L173.410875,88.21211049066662L173.52781875,132.82617431201706L173.722725,99.14195823792848L173.8341,124.79512009769216L173.8452375,61.851189887355275L173.93990625,87.58643861483196L174.01786875,61.660226944228725L174.36313125,86.81445874891455L174.37426875,119.83748074122332L174.6916875,89.1903714358691L175.10934375,22.425766985806842L175.45460625,74.20364208342208L176.28435000000002,56.240573580658534L176.5405125,133.79106936916642L176.66859374999999,145.4366827926433L177.47606249999998,140.43200950952905L177.68210625,159.14225742150865L177.74893125,129.68943744110774L177.89371875,186.39616319872067L177.98281875,144.1006943030716L177.99395625000002,94.48304351248373L178.03850624999998,103.85473802334877L178.04964375,83.16866196481477L178.28353124999998,112.97680473801512L178.60095,131.61954513596538L178.68448125,107.80333218817141L178.69004999999999,63.90066281828484L179.11884375,123.65414455432614L179.17453125,128.67545257179458L179.24135625,122.41054994009713L179.58105,60.608037931578004L179.9485875,31.627785262512464L179.99870625,91.06997942375979L180.17690625,58.866621272617266L180.227025,132.05767627940796L180.271575,116.33061698450045L180.316125,145.63782524846366L180.48875625,85.92077880297524L180.49989374999998,27.272355113757865L181.10131875,108.28195891208115L181.251675,135.80499338546724L181.32406875,82.20600990335411L181.33520625,61.382460947862846L181.385325,112.75848470780812L181.73615625,140.28390295067234L181.98118125000002,119.00914400581136L182.009025,111.43967530218104L182.69955,112.20578164365465L182.90559375,123.9557912603413L182.9334375,120.30683148771396L182.96128125,127.15257204892158L183.14505,112.63559136226594L183.23415,157.14835457854028L183.42905625,123.51545267596707L183.48474375,137.42363239284438L183.49588125000002,97.0258703369927L183.51815625,149.10449040996556L183.54043124999998,95.8575760904999L183.83000625,51.87184370644522L184.1697,79.64650303355603L184.17526875000001,74.6855845688686L184.1808375,95.89307876841988L184.726575,160.65110881349338L185.03842500000002,142.35349205334182L185.28345000000002,122.17452122091771L185.36698125,136.18859421453584L185.4727875,119.0133016378021L185.53404375000002,96.74748724952681L185.7846375,57.75385328551001L185.89044375,22.14678033575664L185.98511249999999,54.06781006879593L186.95964375,63.97212801707642L187.28820000000002,40.21726735598226L187.70585624999998,68.13285844528671L187.7225625,92.47422875126934L187.77268125,100.46177343950282L188.14578749999998,123.47473482933674L188.23488749999999,162.1196581370786L188.26829999999998,153.67245747496284L188.73050625,149.96601556197396L188.75278125,150.5447612275103L188.86972500000002,104.84990617467142L189.1704375,77.38187718681063L189.57695625,94.71108330119753L189.65491874999998,111.91764589222728L189.8386875,161.39064382966336L189.8832375,166.7017702445661L190.22293125000002,126.94796747990766L190.23406875,160.3686519857942L190.3510125,112.44669183886901L190.66286250000002,111.4852776101375L190.84663125,98.0300596798645L191.0638125,131.41393717651852L191.38123124999998,112.76080861479217L191.94367499999998,90.00293892496927L192.04948125,70.90650055763918L192.83467499999998,75.58987344842498L193.33029374999998,102.46424769808657L193.37484375,141.8139572081372L193.681125,147.37571445222792L193.78693125,70.00819177158661L194.07093749999999,119.95342766906774L194.238,99.7455449189534L194.31039375,150.10930575685114L195.22366875,72.79514446055403L195.23480625000002,66.85296693171702L195.56893125,46.900671994789285L195.72485625000002,94.50891290629465L196.22604375,90.50868069304092L196.23718125,90.01500863353915L196.29286875000003,91.33969260325662L196.6993875,61.79693555633935L197.04465,88.37349702646758L197.08363125,87.77063721092136L197.27296875000002,116.57491056388075L197.824275,164.9491142990782L198.10828125,106.44058992871538L198.3477375,55.57451005854874L198.63174375,27.325456946894843L198.78209999999999,22.13853951300162L198.95473124999998,56.357462968044636L198.98257500000003,84.91309127707575L199.11065624999998,119.60443392027157L199.5283125,127.80349630744664L199.83459375,79.12356458740601L199.92369374999998,151.02777442128095L200.11860000000001,147.16701050760233L200.1520125,123.09328933529186L200.2188375,118.48090089799571L200.74786874999998,150.58633323517074L200.78685,138.13333195509827L200.88151875,47.117178817878774L201.0096,55.30038720022407L201.10426875000002,47.88648850941446L201.24905625,47.01402739891679L201.744675,39.674807112421234L201.80593125,88.70137698586124L201.94515,113.82939954298604L202.257,91.09624227618566L202.323825,109.82970433271996L202.39621875,69.62732194465643L203.06446874999997,23.69460325641452L203.30392500000002,77.50679022625228L203.36518125,140.19508755844254L203.37631875,119.66002478890803L203.39859375,96.85333466760889L203.62134375,91.11446997016213L203.8051125,158.5482555170644L203.8942125,140.52560428539485L204.3063,56.27809800933541L205.36993125,36.84907790543419L205.79315624999998,37.08426791012025L205.86555,57.536397823504366L205.9435125,109.64625953067052L206.13285,82.53652915994881L206.68972499999998,137.51825047707558L206.91804375,106.75736692909332L207.0684,76.09602441185075L207.20761875,38.32997147408803L207.25773750000002,75.70950629190216L207.29115000000002,53.488653158979595L207.3357,62.923009045589886L207.37468125,52.8244955244343L207.55288124999998,75.71405724890774L207.714375,6.329478915528886L208.17658125,70.73931321263102L208.69447499999998,112.8314402430591L208.87824375,104.99639336227727L209.26805625,105.59951175770605L209.3961375,85.07252562712827L209.61331875000002,108.91585324430017L209.80265624999998,86.75763794316983L210.1312125,90.52165165787423L210.18133125,93.50661817546312L210.39851249999998,61.9449669417909L210.6880875,72.04341826124023L210.8997,66.7078728178622L211.0222125,75.55786867221416L211.19484375,83.63958118509713L211.39531875,119.92852741950958L211.41759374999998,115.11510535988899L211.46214375,96.79438140233233L211.812975,102.59437523983179L211.82968125,69.99294017706993L212.4144,136.07601528360092L212.481225,159.76137393895473L212.54248125,140.68210311306228L212.63158125,162.16701462742648L212.70954375,175.1885794184805L212.8264875,128.06823242780106L212.95456875000002,89.54318621866483L213.05480624999998,59.82713016876795L213.16618125000002,131.23940447483324L214.0516125,111.70482317068497L214.24651875,94.10232227303908L214.50268125,86.60537531066268L215.911575,75.55244004530705L215.98953749999998,73.86469240675493L216.25683750000002,96.67787677667935L216.51856875,43.570547830049556L216.94179375000002,55.17794986384499L217.24250625000002,53.258890382684825L217.604475,45.213540660433445L217.61004375000002,98.3012040520762L217.67686875,94.30791889229079L217.68243750000002,122.8152078999499L218.11123125,123.59905069790467L218.14464375,157.06943117967887L218.46763124999998,105.50912370733074L218.57900625000002,157.23683162075102L218.72379375,148.22515343315987L218.9187,151.063876100092L219.68718750000002,114.50795949651994L219.90993749999998,90.44651048904511L220.16053125,121.19244637148759L220.21065000000002,95.1935174753366L220.6116,31.403691047750414L220.8454875,79.7494003731444L220.92901875,111.6789430120813L220.9568625,102.44127183467508L221.02925625,61.4824286244268L221.11278750000002,49.05108612462946L222.5606625,85.41274787869096L222.6052125,82.09697902250582L222.83353125,102.78020155686282L222.8391,81.24622971378983L223.02286875000001,38.56983217601573L223.128675,16.488496568578086L223.27903124999997,65.5101357223506L223.44052499999998,1.4569806491152626L223.46836875,21.612598737334785L223.47950625000001,58.4014807960093L223.59088125,18.49135178873137L224.28140625,43.28906368385934L224.3426625,68.31975805257129L224.7102,140.6258935302988L224.7213375,79.17475506007318L224.82157500000002,105.81294912782431L225.01648125,173.23876117256552L225.32276249999998,110.51097599502097L225.76269374999998,64.76187978388283L225.7905375,6.15631589852288L226.25274374999998,23.06637399714029L226.80961875,36.43327969263831L226.87087499999998,126.53100205667815L227.004525,145.16993068104622L227.51128125000002,97.41455189520174L227.52241874999999,125.93990655397803L227.68948125,84.46501589104454L227.69505,87.12816470509715L227.94564375000002,47.55616941406558L228.3521625,63.239258325472825L228.741975,57.80316681612714L228.987,108.45018090914866L229.1095125,53.92979006816985L229.2877125,48.5381503822243L229.410225,74.84425360740231L229.44920625,53.748589789224354L229.499325,61.8618268155008L229.51046250000002,98.53810442120857L229.5216,99.28759873405377L229.6107,155.0913510530078L229.90584375,126.95785386714644L230.05063124999998,123.8820095431836L230.212125,154.0464152548349L230.42930625,153.33060437652952L230.57409374999997,91.54634580457964L230.75786250000002,69.7910879301547L231.0028875,68.82314509718066L231.10869375,41.755947964715276L231.8938875,20.89306459333806L232.25585625,-6.3518817531189935L232.37836875,41.15838907525539L232.439625,42.32232261451777L232.4507625,110.5494445258291L232.46189999999999,86.07559325625627L232.72363125,56.01039937699578L232.86284999999998,63.67266389128744L233.01877499999998,101.55855259113814L233.06889375,69.63407278214544L233.330625,84.50398230003277L233.4308625,63.047413613910535L233.59235625,107.5675473261135L233.71486875,88.93671078373538L234.04899375,111.75139198332589L234.52233750000002,84.94810333296063L234.66155625,54.894506159507294L234.8787375,85.3628591395251L235.07364375,81.82570022482994L235.36321875000002,105.2640224139749L235.40776875,128.6595544319533L236.048175,118.50009061688777L236.10943125,80.10988618940212L236.15398125000002,40.76807672346022L236.39900624999999,34.221509740471525L236.82223125,55.36906862045174L236.87235,62.02273963081418L237.83574375,96.3872586179943L237.86358750000002,43.54728597627776L238.15316249999998,98.24668401498947L238.30351875,69.89020919049733L238.67105625000002,115.24427162298204L238.68219374999998,182.24017056339167L238.73788125,96.34885674722901L238.77129374999998,23.543538413740706L238.8771,76.99658335133081L238.90494375,127.05699667654314L238.9105125,102.6089614595121L239.0664375,115.9228387847464L239.18338125,116.04490499922322L239.22793125,120.52839831726132L239.42840625,86.41881188067948L240.06324375,72.1248462843851L240.17461875,39.75791317427558L240.29713125,27.412776665448856L240.30826875000002,60.645743247264704L240.324975,53.400448113020694L240.39180000000002,132.9306430311851L240.4697625,91.5126425150478L240.5811375,75.12993444244724L240.60898125,162.63448141290314L240.6256875,133.16242815915885L240.90969375,171.50004532843977L241.2939375,137.6748461125237L241.37189999999998,111.79274550498508L241.41645,101.92455960994883L241.57794374999997,88.46815691146476L241.88979375,91.9596951135523L241.94548125,82.42499566107487L242.06799375,96.46147105835577L242.9757,101.54822279860366L243.62724375,89.77750673800575" style="fill: none;" fill="none"></path></g></g></g></g><g opacity="0.20000000298023224"><g><g><g><path stroke="rgb(255, 112, 67)" stroke-width="2px" d="M34.904925,-348.434743139272L35.400543750000004,52.883722199540976L35.7625125,108.72036298943887L36.1634625,13.224904467869118L36.246993749999994,-262.9146730465194L36.375075,56.5251743690007L37.043324999999996,124.21339955801764L37.11571875,66.8375062663108L37.23823125,3.1693306813637285L37.39415625,84.42402286041113L37.644749999999995,-84.71376242840459L37.77283125,29.883073757713014L37.800675,44.96151490964821L37.9009125,95.05656593996616L38.123662499999995,-35.4783620623251L38.35198125,40.80519143905902L38.385393750000006,95.5317275195072L38.468925,-28.348640625675532L39.059212499999994,187.42379393118122L39.281962500000006,57.13796489458115L39.627225,31.14865911296671L39.738600000000005,92.52946046801904L40.45696875,-70.75467587655618L40.57948125,-35.15261272899811L41.06953125,90.7098832550562L41.108512499999996,176.2865131886469L41.2198875,176.52421181141915L41.2867125,219.7945226718568L41.3535375,7.252008525861603L41.3980875,56.78252164481414L41.776762500000004,78.87137831913097L41.7879,39.005822585895636L41.860293750000004,-39.2048307425446L41.88256875,58.014760260573674L42.4672875,2.0868578108234233L42.695606250000004,195.4820983380907L42.923925,68.29551291341582L43.124399999999994,87.00374076763788L43.2135,50.797371070625026L43.23020625,197.41609139574896L43.4251125,170.75696391570898L43.441818749999996,197.3439186821795L43.51978125,73.25510395690797L43.865043750000005,54.11272040775252L43.90959375,198.67133690509945L44.1045,62.856105886813644L44.33281875,108.88102828731964L45.090168750000004,-12.496331234773013L45.37974375,51.878488861645245L45.43543125,75.8759455817441L45.6080625,133.146702377643L45.719437500000005,203.59755175084703L45.72500625,146.43794093384508L46.382118750000004,167.03591555356977L47.94136875,151.86792132030757L48.370162500000006,32.320626148333126L48.39800625,81.36979145515295L48.51495,49.86590119182234L48.531656250000005,15.938716331082896L48.74326875,32.71960869224532L49.155356250000004,146.21123023848565L49.160925,-136.5223409701139L49.277868749999996,-45.31494321508541L49.47834375,60.49602869484158L49.522893749999994,178.12783059043187L49.7512125,47.88118102691238L49.80133125,134.1156726092514L49.884862500000004,193.00253848234811L49.93498125,-45.7687770213104L50.141025,88.64762897499732L50.2189875,90.32344992582993L50.31365625,137.05442767279843L50.4640125,123.95537474244418L50.6422125,27.917972787593776L50.736881249999996,135.64246427112568L51.36058125,78.44676709733902L51.97314375,-9.373167523493382L51.9787125,3.9169810774425535L52.090087499999996,68.63746428448292L52.09565625,44.13703739643095L52.31840625,-19.90932320762014L52.619118750000005,161.43569593783465L52.719356250000004,-37.12496042872471L52.986656249999996,-20.314197401619623L53.0033625,147.95168259077602L53.493412500000005,299.96273565830455L53.760712500000004,107.98390672852592L54.20064375,96.94177613490157L54.2953125,183.2063740491867L54.4401,-89.91773911751811L54.66285,37.3774294182658L54.8521875,-44.96898552195896L54.9412875,27.478750273585298L55.1529,188.43836553446533L55.19188125,142.6340559714784L55.2308625,111.86703438456686L55.247568750000006,54.60037228547862L55.353375,209.49780364727806L55.4758875,129.82443035166295L55.865700000000004,2.2401585460950666L56.2332375,119.59487613807948L56.60634375,-63.2682150271204L56.70658125,82.30774214905168L56.940468749999994,-50.10108408000736L57.1465125,194.56117451294426L57.20776875,34.22904944461251L57.5474625,21.985434648684315L57.68668125,88.6212343826062L57.75350625,75.3458738233894L57.7702125,73.97918775263759L57.892725,12.135067034719688L58.08763125,152.92305693444277L58.1488875,177.71494375231364L58.34379375,132.58060317900444L58.510856249999996,28.576600350853447L58.85055,329.55077914624576L58.906237499999996,73.73939759408431L59.6079,77.55223786458372L60.05896875,115.29491423836181L60.08124375,70.77153777910603L60.220462500000004,69.0948330807603L60.487762499999995,56.80326025312143L60.69380625,130.3584200573257L60.922125,208.83617134247388L60.966674999999995,81.96891335253085L61.01679375,-52.60921843867337L61.144875,168.26682854805966L61.40660625,-46.98828967288141L61.7128875,78.30760632227691L61.7351625,221.49673821508054L61.779712499999995,103.71988389434085L61.991325,63.96491443324418L62.14725,46.053944668836046L63.08836875,84.54385902318688L63.1384875,71.77629978499478L63.149625,152.19655756217736L63.3835125,101.73728472346232L63.4057875,148.55274873268272L63.511593749999996,79.86677260138093L63.68979375,237.3769740273969L63.7621875,108.36874931222862L63.90140625,199.9545677523646L63.9738,-41.81176807317471L64.05733124999999,6.875767751286414L64.10745,76.46222368193166L64.29121875,60.005136409567434L64.42486875,83.73422846818963L64.664325,118.3393949627255L64.89264374999999,105.0360196073436L65.12653125,35.87217173746062L65.17665000000001,195.60956418772952L65.48293125000001,-92.91605876344775L66.36279375,119.7704178524307L66.71362500000001,207.5887322694891L66.86955,68.67452276353205L67.2816375,279.30649261921644L67.470975,76.3868105608142L67.54336875,-4.613539083964299L67.9721625,98.18774229536453L68.11138125000001,175.5939202626339L68.20048125,58.82757230661807L68.51233125,7.764110751450042L68.83531875,242.2946754387683L68.985675,90.49825518392025L69.00795000000001,5.7548813221768915L69.47015625,182.37232260457756L69.77086875,-31.150945073200607L70.0660125,106.46565795927825L70.07715,-15.57913714295461L70.21079999999999,202.40272511314186L70.21636875,97.36456094516645L70.2442125,-95.72861468212476L70.27205624999999,137.85192142861584L71.1574875,163.11543483597535L71.28556875000001,-16.530344049549768L71.3579625,44.826419373146344L71.38580625,195.1547288009897L71.47490624999999,138.90867724652503L71.50274999999999,17.672334369271972L71.55286875,2.605381935007027L71.64196874999999,163.44174387606066L71.96495625,18.348754715795305L72.282375,145.30356262603567L72.39375,154.89293014113272L72.683325,119.79092079473452L72.906075,17.47231284880801L72.950625,16.30081714544857L73.3181625,125.84308888866668L73.33486875,16.583557433138278L73.73581874999999,89.08331649895342L73.7636625,21.502083675521927L73.7748,-28.91194129052264L74.08664999999999,69.64870710546771L74.43748125,49.92128270264299L74.4541875,101.75652096099736L74.4876,154.2501511166079L74.6992125,154.52452526117364L74.93866874999999,131.02276252117005L75.19483125000001,12.478373485306886L75.311775,21.177748338215856L75.5011125,228.93488753380046L75.668175,30.86267841772898L75.75170625000001,51.85144618774452L75.82966875000001,122.75801469520147L76.2139125,202.76889116606776L76.3921125,-17.205527149554772L76.40325,135.74768914168493L76.603725,-13.186832625005001L76.67054999999999,1.918297701825672L76.80976875,-4.392366539686957L77.1494625,214.24688603315087L77.3722125,88.44890361755257L77.4613125,40.62249136985174L77.83441875,301.0014630269466L77.85112500000001,134.18970119259836L77.99591249999999,-101.02827176865605L78.21309375,-8.774811540626853L78.35788125,4.124131494512135L78.54721875,77.36535472381445L78.76996874999999,111.11679166244963L79.276725,237.32330109510156L80.03407499999999,-3.0749935801658586L80.1565875,99.33702647789484L80.55753750000001,174.94439529875913L80.89723125,231.0988316943662L81.56548124999999,246.3500160268611L82.08894375000001,29.31376360977688L82.4063625,67.9841981228027L82.439775,82.33160333190526L82.796175,19.39994292437201L83.02449375,148.81754894585657L83.04676875000001,91.07115923840965L83.2194,-63.516371328797625L83.38646250000001,112.93725262292557L83.54238749999999,-22.337743540604922L83.687175,-36.310027388648884L83.93776875,115.17796498412886L83.99345625,108.65770529076042L84.1995,121.23682010091012L84.23848124999999,31.322698456545645L84.46123125,57.21638275724316L84.83990625000001,2.592007889308839L84.95685,141.88578695214042L85.10720624999999,193.58592967399292L85.246425,-23.845181131942415L85.59725625,155.23868162650612L85.7698875,40.13890473068586L86.10401250000001,28.89498512157133L86.3267625,207.68293975438507L86.54394375,95.0281092700445L86.61076875,213.11551246688597L86.6608875,83.389272355578L86.74441875,59.94197792063155L86.84465625,207.0655242834861L86.92261875,21.560823426892334L86.9950125,145.17200207958618L87.07854375000001,-172.47265955433252L87.4627875,37.87067836357487L87.91942499999999,110.27705477550624L87.96954375,188.87808883873123L88.07535,105.12280361312958L88.66006875,104.18293813295247L88.6656375,37.94909622623687L88.88838750000001,-1.5713855613851235L89.11670625000001,89.33164955013328L89.12227499999999,44.16419790333343L89.22251250000001,65.44295269064604L89.45083125,132.7422995156505L89.58448125000001,151.5064685874515L89.656875,27.85169172411161L89.75154375000001,208.4691510002853L89.9019,157.36559676627317L90.02998125,52.54235999348261L90.2026125,78.94985509829385L90.20818125,-49.607776218197415L90.21375,179.92174966726452L90.2694375,6.478022453892544L90.34183125000001,67.7918946639531L90.37524375,42.99971326357787L90.45320625,195.26646394489538L90.84301875,161.97227796953584L90.993375,85.59758064130111L91.16600625,100.29978101866112L91.26067499999999,4.566299833564264L91.55581875,263.55127762175266L91.6504875,148.05054447924095L91.68946874999999,171.03616921334628L91.99018125,37.88870681284202L92.0514375,12.907049945659093L92.39670000000001,62.3206727268795L92.41340625,276.413397843846L92.418975,87.32436436538892L92.69184374999999,81.72111054985886L92.97028125,-7.754083163001506L93.0092625,-82.46515525608432L93.042675,124.61126268841325L93.28213124999999,-39.001863397037006L93.3768,-14.022857772393367L93.61625625,122.51583841836283L93.8111625,130.1490897297238L94.01720625,50.81852209443846L94.07289374999999,37.18053047234812L94.08403125,228.33782771395312L94.42929375,-10.5559162785196L94.48498124999999,66.73239922875328L94.5239625,258.0175452772528L96.18901875,229.76997001717487L96.21686249999999,147.49454946050213L96.2614125,91.18033151452737L96.36165,103.12662418879981L96.5844,189.20148151202332L96.71805,118.18700743321742L96.7514625,100.64196805573171L97.00762499999999,49.94785404453673L97.2415125,74.64836136955353L97.274925,25.542754054897337L97.319475,46.227984012414986L97.90419374999999,86.78351088737445L98.255025,194.4794867844838L98.33855625,38.37335394902361L98.52789375,152.29692182141457L98.62813125,131.46366415545342L99.324225,224.9779964186665L99.50799375,44.31838238611815L99.98133750000001,253.1204646411869L100.2040875,31.98668742138477L100.3154625,94.5755716268387L100.36558125,168.85163373572544L100.482525,94.69134255105422L100.66629375,231.65606395962337L100.82221874999999,107.6164445125808L100.93359375,51.81220779816308L100.9837125,49.21234044763775L101.42364375,113.02816078377263L101.5183125,87.00656875967978L101.82459375,144.06390053116613L102.0974625,103.6327169312992L102.64876875,118.36384531058783L102.67104375000001,73.59440408543578L102.98289375,94.3956995496733L103.18336875,60.98686206361485L103.356,52.744090092471886L103.43396249999999,218.34199525933298L103.64557500000001,293.1681018203704L103.868325,88.08038090459173L103.8906,126.79026001495205L103.9017375,71.57097577945224L104.01868125,31.01338682696221L104.02425,37.103232023202686L104.10778125,149.57671751785608L104.17460625,-3.390196859836618L104.3249625,136.7572233841444L104.3361,152.75741319223823L104.34723749999999,113.66616757172676L104.759325,72.96470452410476L105.02105625,45.418942622426464L105.2827875,194.53342484103308L105.6169125,168.47353709137272L106.69168125,158.6742206254146L106.71395625,234.36978744808584L106.93113749999999,-21.42006012300653L107.0870625,144.9142129300162L107.10933750000001,32.91521147514381L107.3766375,100.03427380747678L107.5102875,139.12115960692364L107.7553125,-5.713274489260386L108.2899125,117.60096499903331L108.69643125,94.13010396373765L108.93588749999999,-126.91082085068857L109.4036625,215.46053649288498L109.570725,7.0208201764358105L109.77676875,114.72934528823113L110.14987500000001,-4.9183730594814214L110.3058,-11.621362280307553L110.35035,156.65029152917364L110.71231875,163.54964944740962L110.81812500000001,-6.15956698337366L110.84596875,127.80565644924836L111.709125,121.92172442355917L111.97085625,127.84725149886475L112.3439625,128.54803381849908L112.65024375,227.205157984669L112.7003625,151.76911834834348L112.84514999999999,142.90398192022823L113.0679,129.32567271352227L113.79740625000001,99.75698329611784L113.85866250000001,144.5612736315363L113.9589,323.28003083407464L114.28745624999999,218.32979954365226L114.783075,103.33819334343488L114.82205625,-17.867395120362467L115.03366875,59.806587801625305L115.06708125,10.894226609832696L115.14504375,102.7969274499143L115.1951625,-2.77823116526839L115.79101875,81.54530371125372L116.02490625,339.5763055173059L116.28106875,50.35938580313488L116.40358125,134.87439930749434L116.96045625,-53.6210504246669L117.37254375,119.50900533805704L117.55074375,-50.805902179951495L117.6231375,64.70131177765624L117.6454125,44.10310149192808L117.94055625,101.94131256598564L117.96283125,139.6106968126777L118.0463625,112.88584797591383L118.48629374999999,91.06520867182145L118.74245625,-59.19331416073775L118.74802500000001,138.8116712278376L118.77029999999999,139.38489932308178L118.99305000000001,201.12423704419697L119.07101250000001,-57.28341795193655L119.14897500000001,36.115850385071475L119.23250625,218.74321663027834L119.48866875,-30.12391262998185L120.24045,95.93400938746827L120.396375,207.9222291226809L120.71379375,-3.9667537373801203L120.83630624999999,30.313930128597526L120.9198375,39.023202953653175L120.95325,208.45766228261505L121.10917500000001,21.96357662686041L121.77742500000001,40.149922116349124L121.93334999999999,213.0239856827797L122.3454375,-58.99830054284801L122.401125,28.9957912545651L122.6127375,-79.29521184311149L122.79650625000001,21.61025437112482L122.94686250000001,31.241158019337373L123.24200625,-37.88898961204624L123.514875,106.8879125210353L124.1274375,181.32425697054714L124.37246250000001,173.7136295955214L124.60078125,67.70569982317583L124.97945625,115.25113927821317L124.98502500000001,210.79661790902415L125.28016875,228.0633062781352L125.29130624999999,6.801238377682021L125.69225625,67.26541681215166L125.876025,203.97971363375996L126.1321875,208.21469063301467L126.23799375,162.24137908727343L126.32709375,-85.08511313340735L128.01999375,-2.1079381348358566L128.04226875,134.3691313960072L128.593575,111.90144162107671L128.771775,52.27811948706704L128.8497375,58.783797346469406L128.86644375,185.51861104244986L129.00009375,116.16552337176269L129.22284375,-30.028644648070163L129.529125,73.67246844909256L129.6070875,-85.11115422679319L129.8187,75.79599589005939L129.9412125,-27.860281749938938L130.21965,-15.265524608807462L130.22521875,58.87022785325015L130.31431874999998,161.15472314517115L130.38114375,16.32538532631262L130.79323125,-7.21010711044077L130.910175,-40.5672159087327L130.98256875,22.180271517071443L131.03825625,130.82713028002115L131.712075,138.24778139798175L131.91811875,-12.749554355525344L132.65319375,311.49316621116463L133.0374375,107.0751491608098L133.04300625000002,66.6644685032467L133.25461875,92.9626145824376L133.3492875,142.95680056326088L133.39940625,103.59780890453192L133.58874375,259.0196265823518L133.7947875,110.26901267313706L134.37950625,-9.628865137282366L134.42405625,60.99569953874579L134.44633125000001,-19.36546498806116L134.72476875,31.86944358464742L135.11458125000001,64.78768336793614L135.5767875,3.794493672127512L135.69373124999998,138.8452536333352L135.76055625,-18.557248429084844L135.80510625,28.907239753752926L135.82738125,99.62471575165787L135.84965625,133.68846906142102L136.23946875000001,58.460169007173825L136.6237125,211.9723850586969L136.9355625,153.74064121705788L137.34208125,91.58178855147625L137.47573125,65.49421004640558L137.5592625,112.39024237056987L137.6929125,-65.00625180287494L137.76530625,-29.457567005107826L137.815425,10.299111034514146L137.993625,118.61615522557662L138.5170875,-7.029115619758791L138.617325,222.2570556588471L138.67858125,22.19788755083247L139.30785,11.122292384712201L139.31341875,39.21821657154293L139.34683125,78.23472661069697L139.36353749999998,38.47704699056013L139.4303625,175.32564397590855L139.51389375,-27.04676270588405L140.1208875,66.93141916870242L140.60536875,248.55850106208686L140.87266874999997,-65.26890156376695L141.20679375,39.629925079643705L141.26248125,117.27421408519147L141.28475625,-5.621246914896722L141.290325,101.8394753942266L141.81935625,60.37583903306058L142.2036,259.2539080480734L142.43191875,193.94331716828876L142.75490625,154.57357324815044L142.91639999999998,82.91558368855877L142.9943625,64.3874635775056L143.42872500000001,190.59892199623087L143.44543124999998,-10.15210258153579L143.696025,99.60297556283572L144.09140624999998,1.0218831410424292L144.18050624999998,178.04923597826723L144.29745,65.69523314738436L145.33880625,87.36089259593022L145.45018124999999,101.65668695026801L145.63951874999998,142.95258803344848L145.72861874999998,175.22392463715124L145.789875,150.4741631174046L146.12400000000002,102.78311153045958L146.146275,180.63222375129246L146.21866875,168.73889701130489L146.3022,52.39878048085502L146.97045,230.39236393239761L147.95611875,151.3177001186543L148.240125,115.4412922847809L148.41832499999998,16.09154573434754L148.46844375,110.4174527970867L148.57424999999998,124.07524036347037L148.6744875,-39.853619250158495L148.96963125000002,28.711754803856188L149.08100625,76.1883797858738L149.20351875,72.01008046045898L149.3316,105.09231432392778L149.42626875000002,-8.264358977062843L149.442975,206.08659716323018L149.45968125000002,118.74385674121892L149.665725,48.24781841184528L149.82165,-32.630102744119064L149.9218875,-26.378060420975128L149.933025,176.436337850367L150.45648749999998,252.49942580548424L150.89085,-46.85136772485246L150.90755625,12.63308821659947L151.49784375000002,69.5364122548037L151.52011875,146.6302443926947L151.60365,106.92924244639771L151.6147875,228.7682422110811L151.67604375,-4.295213229747313L151.79298749999998,30.253363965700057L151.99346250000002,-30.113778991831683L152.0825625,200.03640277207725L152.51135625,70.04274066330655L152.71183125,122.32106046647661L152.75638125,-23.15450299220783L152.78979375,262.9467943227953L152.93458124999998,108.36291657864219L152.95685625000002,63.11480824214714L153.09050625,112.96020060001561L153.1517625,117.52888066021518L153.27984375,129.13599103896152L153.52486875,67.41583063888052L153.9648,67.63694426665703L154.12629375,17.815619299395188L154.38245625,68.32120050779646L155.034,74.38895201620953L155.0451375,117.44286256894054L155.09525624999998,171.7875313489801L155.11753125,258.5379547294643L155.1231,94.0909244906571L155.16208125,93.10802050659225L155.25118125,212.77500455009024L155.5686,186.91773064693228L155.80248749999998,13.512593741632156L155.88045,138.00760828217284L156.31481250000002,173.33995168873417L156.49858125,43.05533044040201L157.71256875,21.632053476447847L157.84621875,80.19028310767477L157.996575,67.68690545939735L158.1190875,148.33128160590098L158.174775,-36.65380517124302L158.263875,123.95045521462129L158.63698125000002,77.81382712845998L158.88200625000002,274.95406557547136L158.94883125,110.10048202238976L159.07134375,6.604987513273935L159.466725,113.45945902841369L159.47786250000001,155.519949001674L159.68390625,-41.43087289503052L159.95120624999998,41.62695879323614L160.224075,-29.766053803679032L160.3243125,343.7490961498891L160.51921875,131.88447526293908L160.72526249999999,45.06037679811316L161.27100000000002,30.450734243624716L161.57171250000002,274.40384437381806L161.71093125,-54.41813176497821L162.49055625,101.03164179250597L162.64091249999998,124.14832628280337L163.22563125,-19.578742721221516L163.45395,181.68146771534035L163.52077500000001,67.70434474365575L164.3895,69.24112275242804L164.58997499999998,234.5280371694308L164.76817499999999,159.72900274054456L165.19140000000002,220.86217804242753L165.19696875000002,136.238375219206L165.7148625,112.1742544783693L166.21048125000002,-13.53691447319259L166.22161874999998,-22.90781960305242L166.52233125,49.143290308614546L166.5390375,95.30224774860673L166.92885,-17.439720240525077L167.48015625000002,108.83834328243712L168.2319375,103.0561895120061L168.644025,80.23859463839067L168.88905,234.56783526577055L168.9224625,66.77093062032426L169.72436249999998,50.83101239262355L170.48171250000001,118.47048417716803L170.604225,185.90177450587765L170.67661875,31.281928237941507L170.92164375,182.38236786797643L171.11098124999998,112.7253594275357L171.13325625000002,136.07664942430952L171.2390625,22.780512827965932L171.87390000000002,-31.032581822946707L172.0409625,91.65967616563039L172.4196375,135.9523356074674L172.49759999999998,171.29260328339618L172.72035,55.30253914288347L173.054475,128.9159968247016L173.1101625,139.73512846252154L173.17141875000002,223.4605430221806L173.19369375,50.473507065325954L173.37189375,19.27945868008664L173.410875,103.21726722539299L173.52781875,199.7472700440428L173.722725,48.615634126795655L173.8341,163.27486288733778L173.8452375,-32.564705428149985L173.93990625,126.18931170604708L174.01786875,22.77090943832362L174.36313125,124.5458064559433L174.37426875,169.37201372968653L174.6916875,43.21970747783778L175.10934375,-77.72113968928656L175.45460625,151.8704547298451L176.28435000000002,29.295970826513223L176.5405125,250.11681305192823L176.66859374999999,162.90510292785862L177.47606249999998,132.92499958485777L177.68210625,187.20762928947806L177.74893125,85.51020747050642L177.89371875,271.45625183514005L177.98281875,80.65749095959795L177.99395625000002,20.056567326601986L178.03850624999998,117.91227978964643L178.04964375,52.13954787701366L178.28353124999998,157.68901889781569L178.60095,159.58365573289078L178.68448125,72.07901276648043L178.69004999999999,-1.9533412365449887L179.11884375,213.28436715838808L179.17453125,136.20741459799723L179.24135625,113.0131959925509L179.58105,-32.09573008120064L179.99870625,180.2332706656307L180.17690625,10.56158404590352L180.227025,241.84425878959397L180.271575,92.74002804213927L180.316125,189.59863764440846L181.10131875,229.79636460956598L181.251675,177.08954509554636L181.32406875,1.8075346801843688L181.33520625,30.14713751462596L181.385325,189.822520347726L181.73615625,181.57203031496869L181.98118125000002,87.09700558851989L182.009025,100.08547224673545L182.69955,113.35494115586495L182.90559375,141.58080568537113L182.9334375,114.83339182877289L182.96128125,137.42118289073306L183.14505,90.86012033228243L183.23415,223.91749940295185L183.42905625,73.06609982210728L183.48474375,158.28590196816043L183.49588125000002,36.42922725321515L183.51815625,227.22242051942482L183.54043124999998,15.987204611301403L183.83000625,-14.10675486963658L184.1697,121.30849202422218L184.17526875000001,67.24420687183736L184.1808375,127.70432006774674L184.726575,257.7881538811036L185.03842500000002,114.90706691311465L185.28345000000002,91.90606497228144L185.36698125,157.20970370496312L185.4727875,93.25036277270148L185.53404375000002,63.34876566711397L185.7846375,-0.7365976605150654L185.89044375,-31.263829088873337L185.98511249999999,101.94935466835479L186.95964375,78.82860493949717L187.28820000000002,4.584976364341025L187.70585624999998,110.00624507924334L187.7225625,128.98628421024316L187.77268125,112.44309047185297L188.14578749999998,157.99417691408757L188.23488749999999,220.08704309869142L188.26829999999998,141.0016564817892L188.73050625,144.40635269249063L188.75278125,151.4128797258147L188.86972500000002,36.30762359541321L189.1704375,36.1798337050196L189.57695625,120.70489247277791L189.65491874999998,137.72748977877197L189.8386875,235.60014073581743L189.8832375,174.66845986692027L190.22293125000002,67.31726333291991L190.23406875,210.49967874462405L190.3510125,40.56375161848133L190.66286250000002,110.0431562670403L190.84663125,77.84723278445499L191.0638125,181.48975342149947L191.38123124999998,84.7811157722026L191.94367499999998,55.866134390234926L192.04948125,42.261843006643964L192.83467499999998,82.61493278460367L193.33029374999998,142.77580907257894L193.37484375,200.83852147321318L193.681125,155.71835031836395L193.78693125,-46.04309224937527L194.07093749999999,194.8712815152895L194.238,69.433720793782L194.31039375,225.65494701369767L195.22366875,-43.1760974838916L195.23480625000002,57.939700638461424L195.56893125,16.972229589397696L195.72485625000002,165.9212742735528L196.22604375,84.50833237316044L196.23718125,89.27450054428643L196.29286875000003,93.32671855783293L196.6993875,17.48279998596342L197.04465,128.23833923165995L197.08363125,86.86634748760196L197.27296875000002,159.7813205933198L197.824275,237.51041990187431L198.10828125,18.677803373171194L198.3477375,-20.72460974670119L198.63174375,-15.04812272058596L198.78209999999999,14.358163362161951L198.95473124999998,107.68584815060923L198.98257500000003,127.74653374062227L199.11065624999998,171.64144788506542L199.5283125,140.10208988820926L199.83459375,6.103667007345274L199.92369374999998,258.8840891720934L200.11860000000001,141.37586463708428L200.1520125,86.9827075768262L200.2188375,111.56231824205153L200.74786874999998,198.7444817409333L200.78685,119.45383003498944L200.88151875,-89.40705088795063L201.0096,67.57519977374209L201.10426875000002,36.76564047320021L201.24905625,45.705335733170294L201.744675,28.665976682677844L201.80593125,162.24123179602125L201.94515,151.52143337867324L202.257,56.996506375984985L202.323825,137.9298974175213L202.39621875,9.323748362561041L203.06446874999997,-45.20447477594849L203.30392500000002,158.22507068100902L203.36518125,234.2275335567279L203.37631875,88.8574306346062L203.39859375,62.64329948566024L203.62134375,82.50617292399207L203.8051125,259.6989338374179L203.8942125,113.4916274378904L204.3063,-70.09316140475376L205.36993125,7.705547749582246L205.79315624999998,37.43705291714931L205.86555,88.21459269358051L205.9435125,187.8110520914197L206.13285,41.871933603866225L206.68972499999998,219.99083245276574L206.91804375,60.616041607119946L207.0684,30.104010635986903L207.20761875,-18.31910793255603L207.25773750000002,131.7788085186233L207.29115000000002,20.157373459595757L207.3357,77.07454287550514L207.37468125,37.67672524270082L207.55288124999998,110.048399835618L207.714375,-97.74738858453934L208.17658125,167.35406465828416L208.69447499999998,175.96963078870127L208.87824375,93.2438230411046L209.26805625,106.50418935084919L209.3961375,54.28204643126161L209.61331875000002,144.68084467005812L209.80265624999998,53.52031499147413L210.1312125,96.16767222993074L210.18133125,97.98406795184644L210.39851249999998,14.602490091282442L210.6880875,87.19109524041413L210.8997,58.704554652795174L211.0222125,88.83286245374215L211.19484375,95.76214995442162L211.39531875,174.3619467711283L211.41759374999998,107.8949722704581L211.46214375,69.31329546599751L211.812975,111.29436599608096L211.82968125,21.090787582927256L212.4144,235.2006279433974L212.481225,195.28941192198545L212.54248125,112.06319687422364L212.63158125,194.3943818989727L212.70954375,194.72092660506152L212.8264875,57.38771194178195L212.95456875000002,31.75561690496071L213.05480624999998,15.253046093922501L213.16618125000002,238.3578159339312L214.0516125,82.4029512144625L214.24651875,67.69857092657021L214.50268125,75.35995486709805L215.911575,58.973037147273594L215.98953749999998,71.33307094892693L216.25683750000002,130.89765333156618L216.51856875,-36.090445589895076L216.94179375000002,72.5890529145383L217.24250625000002,50.380301160944825L217.604475,33.145516077056506L217.61004375000002,177.93269913954038L217.67686875,88.31799115261269L217.68243750000002,165.57614141143856L218.11123125,124.7748148948368L218.14464375,207.27500190234016L218.46763124999998,28.168662498808555L218.57900625000002,234.82839349088155L218.72379375,134.70763615177322L218.9187,155.32196010049017L219.68718750000002,59.67408459116185L219.90993749999998,54.35433697783282L220.16053125,167.31135019515122L220.21065000000002,56.19512413110996L220.6116,-64.28104859362875L220.8454875,152.26796436123547L220.92901875,159.57325697048668L220.9568625,88.58476506856577L221.02925625,0.044163809054403536L221.11278750000002,30.40407237493327L222.5606625,139.9552405097832L222.6052125,77.12332573822802L222.83353125,133.8050353583983L222.8391,48.945271949180274L223.02286875000001,-25.444764130645364L223.128675,-16.633506842578477L223.27903124999997,139.04259445300946L223.44052499999998,-94.62275196073784L223.46836875,51.846025869664196L223.47950625000001,113.5848038840211L223.59088125,-41.37384172218544L224.28140625,80.4856315265513L224.3426625,105.86579960563944L224.7102,249.0850967468901L224.7213375,-13.00195264526543L224.82157500000002,145.770240229451L225.01648125,274.37747923967737L225.32276249999998,16.419298228704243L225.76269374999998,-3.8617645328243704L225.7905375,-81.75202992951705L226.25274374999998,48.43146114506653L226.80961875,56.483638235885216L226.87087499999998,261.67758560273796L227.004525,173.12832361759823L227.51128125000002,25.781483716434888L227.52241874999999,168.72793854214248L227.68948125,22.252679896644405L227.69505,91.12288792617618L227.94564375000002,-11.801823522481675L228.3521625,86.76389169258373L228.741975,49.64902955210869L228.987,184.42070204868082L229.1095125,-27.850796193298383L229.2877125,40.450690853305964L229.410225,114.3034084451695L229.44920625,22.105094061957438L229.499325,74.03168235491546L229.51046250000002,153.5525208297703L229.5216,100.41184020332163L229.6107,238.7969795314388L229.90584375,84.75760808835426L230.05063124999998,119.26824305723937L230.212125,199.2930238223117L230.42930625,152.25688805907134L230.57409374999997,-1.130042053345199L230.75786250000002,37.15820111851723L231.0028875,67.37123084771963L231.10869375,1.1551522660172495L231.8938875,-10.401260463727853L232.25585625,-47.219301272804564L232.37836875,112.42379531781705L232.439625,44.068222923411255L232.4507625,212.89012739279616L232.46189999999999,49.36481635189717L232.72363125,10.912608558105068L232.86284999999998,75.16606066272489L233.01877499999998,158.38738564091423L233.06889375,21.747353068656377L233.330625,106.80884657686369L233.4308625,30.862560584727245L233.59235625,174.3477478944179L233.71486875,60.99045597016809L234.04899375,145.97341378271165L234.52233750000002,44.743170357412744L234.66155625,9.81411039932733L234.8787375,131.06538860955172L235.07364375,76.51996185278726L235.36321875000002,140.42150569769242L235.40776875,163.75285245892073L236.048175,103.26089489428946L236.10943125,22.524579548173456L236.15398125000002,-18.244637475452492L236.39900624999999,24.40165926598838L236.82223125,87.09040694042211L236.87235,72.00324614635771L237.83574375,147.93403709876452L237.86358750000002,-35.71267298629715L238.15316249999998,180.295781073057L238.30351875,27.355496953758912L238.67105625000002,183.275365271709L238.77129374999998,-85.6644390864919L238.8771,157.1761507577159L238.90494375,202.1476166643616L238.9105125,65.93690863396557L239.0664375,135.89365477259787L239.18338125,116.22800432093854L239.22793125,127.25363829431848L239.42840625,35.25443222580684L240.06324375,50.68389788994356L240.17461875,-8.792486490888736L240.29713125,8.895071902208834L240.30826875000002,110.49519311998867L240.324975,42.53250541165469L240.39180000000002,252.2259354084316L240.4697625,29.38564174084197L240.5811375,50.55587233354645L240.60898125,293.8913018685869L240.6256875,88.95434827854233L240.90969375,229.0064710823612L241.2939375,86.9370472886496L241.37189999999998,72.96959459367724L241.41645,87.12228076739443L241.57794374999997,68.28355286373859L241.88979375,97.19700241668353L241.94548125,68.1229464823587L242.06799375,117.51618415427701L242.9757,109.17835040897543L243.62724375,72.12143264710902" style="fill: none;" fill="none"></path></g></g></g></g></g></g><g transform="translate(51, 177)" clip-path="url(#clip_1)"><clipPath id="clip_1"><rect width="278" height="22"></rect></clipPath><g><g><line x1="0" y1="0" x2="0" y2="5" style="visibility: inherit;" fill="rgb(0, 0, 0)" stroke="rgb(204, 204, 204)" stroke-width="1px"></line><line x1="34.8046875" y1="0" x2="34.8046875" y2="5" style="visibility: inherit;" fill="rgb(0, 0, 0)" stroke="rgb(204, 204, 204)" stroke-width="1px"></line><line x1="69.609375" y1="0" x2="69.609375" y2="5" style="visibility: inherit;" fill="rgb(0, 0, 0)" stroke="rgb(204, 204, 204)" stroke-width="1px"></line><line x1="104.4140625" y1="0" x2="104.4140625" y2="5" style="visibility: inherit;" fill="rgb(0, 0, 0)" stroke="rgb(204, 204, 204)" stroke-width="1px"></line><line x1="139.21875" y1="0" x2="139.21875" y2="5" style="visibility: inherit;" fill="rgb(0, 0, 0)" stroke="rgb(204, 204, 204)" stroke-width="1px"></line><line x1="174.0234375" y1="0" x2="174.0234375" y2="5" style="visibility: inherit;" fill="rgb(0, 0, 0)" stroke="rgb(204, 204, 204)" stroke-width="1px"></line><line x1="208.828125" y1="0" x2="208.828125" y2="5" style="visibility: inherit;" fill="rgb(0, 0, 0)" stroke="rgb(204, 204, 204)" stroke-width="1px"></line><line x1="243.6328125" y1="0" x2="243.6328125" y2="5" style="visibility: inherit;" fill="rgb(0, 0, 0)" stroke="rgb(204, 204, 204)" stroke-width="1px"></line><line x1="278.4375" y1="0" x2="278.4375" y2="5" style="visibility: inherit;" fill="rgb(0, 0, 0)" stroke="rgb(204, 204, 204)" stroke-width="1px"></line></g><g transform="translate(0, 8)"><text x="0" y="0" dx="0em" dy="0.95em" style="text-anchor: middle; visibility: hidden; font-family: Roboto, sans-serif; font-size: 12px; font-weight: 200;" fill="rgb(50, 49, 63)" stroke="none" stroke-width="1px">-50k</text><text x="34.8046875" y="0" dx="0em" dy="0.95em" style="text-anchor: middle; visibility: inherit; font-family: Roboto, sans-serif; font-size: 12px; font-weight: 200;" fill="rgb(50, 49, 63)" stroke="none" stroke-width="1px">0</text><text x="69.609375" y="0" dx="0em" dy="0.95em" style="text-anchor: middle; visibility: inherit; font-family: Roboto, sans-serif; font-size: 12px; font-weight: 200;" fill="rgb(50, 49, 63)" stroke="none" stroke-width="1px">50k</text><text x="104.4140625" y="0" dx="0em" dy="0.95em" style="text-anchor: middle; visibility: inherit; font-family: Roboto, sans-serif; font-size: 12px; font-weight: 200;" fill="rgb(50, 49, 63)" stroke="none" stroke-width="1px">100k</text><text x="139.21875" y="0" dx="0em" dy="0.95em" style="text-anchor: middle; visibility: inherit; font-family: Roboto, sans-serif; font-size: 12px; font-weight: 200;" fill="rgb(50, 49, 63)" stroke="none" stroke-width="1px">150k</text><text x="174.0234375" y="0" dx="0em" dy="0.95em" style="text-anchor: middle; visibility: inherit; font-family: Roboto, sans-serif; font-size: 12px; font-weight: 200;" fill="rgb(50, 49, 63)" stroke="none" stroke-width="1px">200k</text><text x="208.828125" y="0" dx="0em" dy="0.95em" style="text-anchor: middle; visibility: inherit; font-family: Roboto, sans-serif; font-size: 12px; font-weight: 200;" fill="rgb(50, 49, 63)" stroke="none" stroke-width="1px">250k</text><text x="243.6328125" y="0" dx="0em" dy="0.95em" style="text-anchor: middle; visibility: inherit; font-family: Roboto, sans-serif; font-size: 12px; font-weight: 200;" fill="rgb(50, 49, 63)" stroke="none" stroke-width="1px">300k</text><text x="278.4375" y="0" dx="0em" dy="0.95em" style="text-anchor: middle; visibility: hidden; font-family: Roboto, sans-serif; font-size: 12px; font-weight: 200;" fill="rgb(50, 49, 63)" stroke="none" stroke-width="1px">350k</text></g><line x1="0" y1="0" x2="278.4375" y2="0" fill="rgb(0, 0, 0)" stroke="rgb(204, 204, 204)" stroke-width="1px"></line></g></g></g></g></svg>