<svg viewBox="0 0 330 200" xmlns="http://www.w3.org/2000/svg"><g><g><g><g><g><line x1="58.59375" y1="177" x2="53.59375" y2="177" style="visibility: inherit;" fill="rgb(0, 0, 0)" stroke="rgb(204, 204, 204)" stroke-width="1px"></line><line x1="58.59375" y1="164.35714285714283" x2="53.59375" y2="164.35714285714283" style="visibility: inherit;" fill="rgb(0, 0, 0)" stroke="rgb(204, 204, 204)" stroke-width="1px"></line><line x1="58.59375" y1="151.7142857142857" x2="53.59375" y2="151.7142857142857" style="visibility: inherit;" fill="rgb(0, 0, 0)" stroke="rgb(204, 204, 204)" stroke-width="1px"></line><line x1="58.59375" y1="139.07142857142853" x2="53.59375" y2="139.07142857142853" style="visibility: inherit;" fill="rgb(0, 0, 0)" stroke="rgb(204, 204, 204)" stroke-width="1px"></line><line x1="58.59375" y1="126.42857142857139" x2="53.59375" y2="126.42857142857139" style="visibility: inherit;" fill="rgb(0, 0, 0)" stroke="rgb(204, 204, 204)" stroke-width="1px"></line><line x1="58.59375" y1="113.78571428571422" x2="53.59375" y2="113.78571428571422" style="visibility: inherit;" fill="rgb(0, 0, 0)" stroke="rgb(204, 204, 204)" stroke-width="1px"></line><line x1="58.59375" y1="101.14285714285724" x2="53.59375" y2="101.14285714285724" style="visibility: inherit;" fill="rgb(0, 0, 0)" stroke="rgb(204, 204, 204)" stroke-width="1px"></line><line x1="58.59375" y1="88.50000000000009" x2="53.59375" y2="88.50000000000009" style="visibility: inherit;" fill="rgb(0, 0, 0)" stroke="rgb(204, 204, 204)" stroke-width="1px"></line><line x1="58.59375" y1="75.85714285714295" x2="53.59375" y2="75.85714285714295" style="visibility: inherit;" fill="rgb(0, 0, 0)" stroke="rgb(204, 204, 204)" stroke-width="1px"></line><line x1="58.59375" y1="63.21428571428578" x2="53.59375" y2="63.21428571428578" style="visibility: inherit;" fill="rgb(0, 0, 0)" stroke="rgb(204, 204, 204)" stroke-width="1px"></line><line x1="58.59375" y1="50.571428571428626" x2="53.59375" y2="50.571428571428626" style="visibility: inherit;" fill="rgb(0, 0, 0)" stroke="rgb(204, 204, 204)" stroke-width="1px"></line><line x1="58.59375" y1="37.92857142857147" x2="53.59375" y2="37.92857142857147" style="visibility: inherit;" fill="rgb(0, 0, 0)" stroke="rgb(204, 204, 204)" stroke-width="1px"></line><line x1="58.59375" y1="25.285714285714306" x2="53.59375" y2="25.285714285714306" style="visibility: inherit;" fill="rgb(0, 0, 0)" stroke="rgb(204, 204, 204)" stroke-width="1px"></line><line x1="58.59375" y1="12.642857142857167" x2="53.59375" y2="12.642857142857167" style="visibility: inherit;" fill="rgb(0, 0, 0)" stroke="rgb(204, 204, 204)" stroke-width="1px"></line><line x1="58.59375" y1="0" x2="53.59375" y2="0" style="visibility: inherit;" fill="rgb(0, 0, 0)" stroke="rgb(204, 204, 204)" stroke-width="1px"></line></g><g transform="translate(48.59375, 0)"><text x="0" y="177" dx="0em" dy="0.3em" style="text-anchor: end; visibility: hidden; font-family: &quot;Helvetica Neue&quot;, sans-serif; font-size: 12px; font-weight: 200;" fill="rgb(50, 49, 63)" stroke="none" stroke-width="1px">0.16</text><text x="0" y="164.35714285714283" dx="0em" dy="0.3em" style="text-anchor: end; visibility: inherit; font-family: &quot;Helvetica Neue&quot;, sans-serif; font-size: 12px; font-weight: 200;" fill="rgb(50, 49, 63)" stroke="none" stroke-width="1px">0.162</text><text x="0" y="151.7142857142857" dx="0em" dy="0.3em" style="text-anchor: end; visibility: hidden; font-family: &quot;Helvetica Neue&quot;, sans-serif; font-size: 12px; font-weight: 200;" fill="rgb(50, 49, 63)" stroke="none" stroke-width="1px">0.164</text><text x="0" y="139.07142857142853" dx="0em" dy="0.3em" style="text-anchor: end; visibility: inherit; font-family: &quot;Helvetica Neue&quot;, sans-serif; font-size: 12px; font-weight: 200;" fill="rgb(50, 49, 63)" stroke="none" stroke-width="1px">0.166</text><text x="0" y="126.42857142857139" dx="0em" dy="0.3em" style="text-anchor: end; visibility: hidden; font-family: &quot;Helvetica Neue&quot;, sans-serif; font-size: 12px; font-weight: 200;" fill="rgb(50, 49, 63)" stroke="none" stroke-width="1px">0.168</text><text x="0" y="113.78571428571422" dx="0em" dy="0.3em" style="text-anchor: end; visibility: inherit; font-family: &quot;Helvetica Neue&quot;, sans-serif; font-size: 12px; font-weight: 200;" fill="rgb(50, 49, 63)" stroke="none" stroke-width="1px">0.17</text><text x="0" y="101.14285714285724" dx="0em" dy="0.3em" style="text-anchor: end; visibility: hidden; font-family: &quot;Helvetica Neue&quot;, sans-serif; font-size: 12px; font-weight: 200;" fill="rgb(50, 49, 63)" stroke="none" stroke-width="1px">0.172</text><text x="0" y="88.50000000000009" dx="0em" dy="0.3em" style="text-anchor: end; visibility: inherit; font-family: &quot;Helvetica Neue&quot;, sans-serif; font-size: 12px; font-weight: 200;" fill="rgb(50, 49, 63)" stroke="none" stroke-width="1px">0.174</text><text x="0" y="75.85714285714295" dx="0em" dy="0.3em" style="text-anchor: end; visibility: hidden; font-family: &quot;Helvetica Neue&quot;, sans-serif; font-size: 12px; font-weight: 200;" fill="rgb(50, 49, 63)" stroke="none" stroke-width="1px">0.176</text><text x="0" y="63.21428571428578" dx="0em" dy="0.3em" style="text-anchor: end; visibility: inherit; font-family: &quot;Helvetica Neue&quot;, sans-serif; font-size: 12px; font-weight: 200;" fill="rgb(50, 49, 63)" stroke="none" stroke-width="1px">0.178</text><text x="0" y="50.571428571428626" dx="0em" dy="0.3em" style="text-anchor: end; visibility: hidden; font-family: &quot;Helvetica Neue&quot;, sans-serif; font-size: 12px; font-weight: 200;" fill="rgb(50, 49, 63)" stroke="none" stroke-width="1px">0.18</text><text x="0" y="37.92857142857147" dx="0em" dy="0.3em" style="text-anchor: end; visibility: inherit; font-family: &quot;Helvetica Neue&quot;, sans-serif; font-size: 12px; font-weight: 200;" fill="rgb(50, 49, 63)" stroke="none" stroke-width="1px">0.182</text><text x="0" y="25.285714285714306" dx="0em" dy="0.3em" style="text-anchor: end; visibility: hidden; font-family: &quot;Helvetica Neue&quot;, sans-serif; font-size: 12px; font-weight: 200;" fill="rgb(50, 49, 63)" stroke="none" stroke-width="1px">0.184</text><text x="0" y="12.642857142857167" dx="0em" dy="0.3em" style="text-anchor: end; visibility: inherit; font-family: &quot;Helvetica Neue&quot;, sans-serif; font-size: 12px; font-weight: 200;" fill="rgb(50, 49, 63)" stroke="none" stroke-width="1px">0.186</text><text x="0" y="0" dx="0em" dy="0.3em" style="text-anchor: end; visibility: hidden; font-family: &quot;Helvetica Neue&quot;, sans-serif; font-size: 12px; font-weight: 200;" fill="rgb(50, 49, 63)" stroke="none" stroke-width="1px">0.188</text></g><line x1="58.59375" y1="0" x2="58.59375" y2="177" fill="rgb(0, 0, 0)" stroke="rgb(204, 204, 204)" stroke-width="1px"></line></g></g><g transform="translate(58, 0)" clip-path="url(#clip_0)"><clipPath id="clip_0"><rect width="271" height="177"></rect></clipPath><g><g><g><line x1="0" y1="0" x2="0" y2="177" fill="rgb(0, 0, 0)" stroke="rgb(60, 60, 60)" stroke-width="1px" opacity="0.25"></line><line x1="33.92578125" y1="0" x2="33.92578125" y2="177" fill="rgb(0, 0, 0)" stroke="rgb(60, 60, 60)" stroke-width="1px" opacity="0.25"></line><line x1="67.8515625" y1="0" x2="67.8515625" y2="177" fill="rgb(0, 0, 0)" stroke="rgb(60, 60, 60)" stroke-width="1px" opacity="0.25"></line><line x1="101.77734375" y1="0" x2="101.77734375" y2="177" fill="rgb(0, 0, 0)" stroke="rgb(60, 60, 60)" stroke-width="1px" opacity="0.25"></line><line x1="135.703125" y1="0" x2="135.703125" y2="177" fill="rgb(0, 0, 0)" stroke="rgb(60, 60, 60)" stroke-width="1px" opacity="0.25"></line><line x1="169.62890625" y1="0" x2="169.62890625" y2="177" fill="rgb(0, 0, 0)" stroke="rgb(60, 60, 60)" stroke-width="1px" opacity="0.25"></line><line x1="203.5546875" y1="0" x2="203.5546875" y2="177" fill="rgb(0, 0, 0)" stroke="rgb(60, 60, 60)" stroke-width="1px" opacity="0.25"></line><line x1="237.48046875" y1="0" x2="237.48046875" y2="177" fill="rgb(0, 0, 0)" stroke="rgb(60, 60, 60)" stroke-width="1px" opacity="0.25"></line><line x1="271.40625" y1="0" x2="271.40625" y2="177" fill="rgb(0, 0, 0)" stroke="rgb(60, 60, 60)" stroke-width="1px" opacity="0.25"></line></g><g><line x1="0" y1="177" x2="271.40625" y2="177" fill="rgb(0, 0, 0)" stroke="rgb(60, 60, 60)" stroke-width="1px" opacity="0.25"></line><line x1="0" y1="164.35714285714283" x2="271.40625" y2="164.35714285714283" fill="rgb(0, 0, 0)" stroke="rgb(60, 60, 60)" stroke-width="1px" opacity="0.25"></line><line x1="0" y1="151.7142857142857" x2="271.40625" y2="151.7142857142857" fill="rgb(0, 0, 0)" stroke="rgb(60, 60, 60)" stroke-width="1px" opacity="0.25"></line><line x1="0" y1="139.07142857142853" x2="271.40625" y2="139.07142857142853" fill="rgb(0, 0, 0)" stroke="rgb(60, 60, 60)" stroke-width="1px" opacity="0.25"></line><line x1="0" y1="126.42857142857139" x2="271.40625" y2="126.42857142857139" fill="rgb(0, 0, 0)" stroke="rgb(60, 60, 60)" stroke-width="1px" opacity="0.25"></line><line x1="0" y1="113.78571428571422" x2="271.40625" y2="113.78571428571422" fill="rgb(0, 0, 0)" stroke="rgb(60, 60, 60)" stroke-width="1px" opacity="0.25"></line><line x1="0" y1="101.14285714285724" x2="271.40625" y2="101.14285714285724" fill="rgb(0, 0, 0)" stroke="rgb(60, 60, 60)" stroke-width="1px" opacity="0.25"></line><line x1="0" y1="88.50000000000009" x2="271.40625" y2="88.50000000000009" fill="rgb(0, 0, 0)" stroke="rgb(60, 60, 60)" stroke-width="1px" opacity="0.25"></line><line x1="0" y1="75.85714285714295" x2="271.40625" y2="75.85714285714295" fill="rgb(0, 0, 0)" stroke="rgb(60, 60, 60)" stroke-width="1px" opacity="0.25"></line><line x1="0" y1="63.21428571428578" x2="271.40625" y2="63.21428571428578" fill="rgb(0, 0, 0)" stroke="rgb(60, 60, 60)" stroke-width="1px" opacity="0.25"></line><line x1="0" y1="50.571428571428626" x2="271.40625" y2="50.571428571428626" fill="rgb(0, 0, 0)" stroke="rgb(60, 60, 60)" stroke-width="1px" opacity="0.25"></line><line x1="0" y1="37.92857142857147" x2="271.40625" y2="37.92857142857147" fill="rgb(0, 0, 0)" stroke="rgb(60, 60, 60)" stroke-width="1px" opacity="0.25"></line><line x1="0" y1="25.285714285714306" x2="271.40625" y2="25.285714285714306" fill="rgb(0, 0, 0)" stroke="rgb(60, 60, 60)" stroke-width="1px" opacity="0.25"></line><line x1="0" y1="12.642857142857167" x2="271.40625" y2="12.642857142857167" fill="rgb(0, 0, 0)" stroke="rgb(60, 60, 60)" stroke-width="1px" opacity="0.25"></line><line x1="0" y1="0" x2="271.40625" y2="0" fill="rgb(0, 0, 0)" stroke="rgb(60, 60, 60)" stroke-width="1px" opacity="0.25"></line></g></g></g><g><g><line x1="0" y1="1188.4285714285716" x2="271.40625" y2="1188.4285714285716" fill="rgb(0, 0, 0)" stroke="rgb(153, 153, 153)" stroke-width="1.5px"></line></g></g><g><g><line x1="33.92578125" y1="0" x2="33.92578125" y2="177" fill="rgb(0, 0, 0)" stroke="rgb(153, 153, 153)" stroke-width="1.5px"></line></g></g><g><g><g><g><g><path stroke="rgb(255, 112, 67)" stroke-width="2px" d="M38.268281249999994,-42.173546482192194L38.81109375,1.5586972166096018L39.353906249999994,42.29952847458654L39.89671875,61.74484579614676L40.43953125,-5.445816915885445L40.98234375,56.51594775678045L41.52515625,87.16434289363066L42.06796875,115.05116327845366L42.61078125,127.7824006397829L43.15359375,92.79809320261198L43.69640625,119.3282448198652L44.23921875,124.38165916401022L44.78203125,131.61522800348345L45.32484375,111.17037740568838L45.86765625,115.86195411783636L46.41046875000001,132.76909758196334L46.953281249999996,142.76303182435493L47.49609375,128.14218434989726L48.03890625,63.41800668506694L48.58171875,104.47299354872519L49.12453125,104.21288172573281L49.66734375,94.97833025423401L50.21015625,32.669958739184864L50.75296875,88.68576389527105L51.29578125,76.26639969293608L51.83859375,112.30984883547124L52.381406250000005,115.33502261669021L52.92421875,126.75565834569582L53.467031250000005,144.56035685155877L54.00984375,151.61355379484067L54.552656250000005,157.02311816640227L55.09546875,138.6427055060331L55.63828125,66.30492590667973L56.181093749999995,73.88226351558956L56.72390625,78.0527461829805L57.266718749999995,110.00926577271169L57.80953125,37.44659048292476L58.352343749999996,51.09153702498622L58.89515625,77.9789089898293L59.43796875,37.352401526255676L59.98078125,74.87890258400107L60.52359375,-55.72972505472438L61.06640625,21.52866312619949L61.609218750000004,61.31005260555608L62.15203125,65.02970046526029L62.694843750000004,-11.541222867806681L63.23765625,38.66091083614228L63.78046875,47.534107390388044L64.32328125,73.93617827751642L64.86609374999999,69.77838440401901L65.40890625,101.38269834147853L65.95171875,45.008106208686996L66.49453125,88.2783535035959L67.03734375,73.25272395770513L67.58015625,110.26422918517736L68.12296875,130.50566319972754L68.66578125,88.78369314027942L69.20859375,111.6786210825374L69.75140625,122.51360586909169L70.29421875,124.88701362047357L70.83703125000001,77.2574493258649L71.37984375,107.43937772841254L71.92265625,92.76162815291289L72.46546875,107.5791531302165L73.00828125000001,74.62993822849988L73.55109375,112.71729580206562L74.09390625,108.0459083382573L74.63671875,135.58527860002863L75.17953125000001,85.81244868610592L75.72234375000001,112.24072986332008L76.26515625,131.27306683609487L76.80796874999999,147.11213703857777L77.35078125,115.10806193296261L77.89359375,91.08587694032624L78.43640624999999,17.258270092560167L78.97921875,65.49711808258064L79.52203125,95.68736413449602L80.06484375,77.74895883569886L80.60765624999999,79.773522117128L81.15046875,82.66944379029371L81.69328125,91.00675152789175L82.23609375,106.63135058995174L82.77890624999999,94.88798002448479L83.32171875,101.63987947900611L83.86453125,99.9097954203374L84.40734375,116.28636507807296L84.95015625,121.5958047222467L85.49296875,132.97005657451152L86.03578125,141.78445489464283L86.57859375,88.12556115627847L87.12140625,42.565532242301515L87.66421875,34.17230569169391L88.20703125,87.25553736168845L88.74984375,25.273089759307965L89.29265625000001,49.9576170299144L89.83546875,62.42012453910132L90.37828125,75.72971895409911L90.92109375000001,114.29403651740972L91.46390625000001,123.90881744359896L92.00671875,125.17154547771788L92.54953125,101.75599195991826L93.09234375000001,28.896428121025195L93.63515625,64.62789518239369L94.17796874999999,91.57980251671233L94.72078124999999,115.66278529552862L95.26359375,134.26389563315058L95.80640625,124.9912789835509L96.34921874999999,82.3216986759888L96.89203125,31.916509367148365L97.43484375,75.55229946884432L97.97765625,77.84788290125175L98.52046874999999,45.903440221917975L99.06328125,85.19131988230835L99.60609375,86.87049104963415L100.14890625,81.2424066197554L100.69171874999999,114.51659657547964L101.23453125,128.9087018983114L101.77734375,76.88427680659166L102.32015625,100.49330154784685L102.86296875000001,85.08425383405785L103.40578125,65.525048218845L103.94859375,60.69025664318889L104.49140625,66.81982385049972L105.03421875000001,104.00032747176297L105.57703125,72.76583557018982L106.11984375,103.44087888413287L106.66265625,75.59219644179954L107.20546875000001,103.54217259881928L107.74828125,86.99993593146641L108.29109375,93.44796451888071L108.83390625000001,123.07857926975925L109.37671875000001,101.2994894470817L109.91953125,112.17071397136222L110.46234374999999,114.69031814780736L111.00515625,106.34719195053279L111.54796875,110.1710818925901L112.09078124999999,95.90101451223097L112.63359374999999,65.57273361496841L113.17640625,49.578270588507976L113.71921875,59.855912845418686L114.26203124999999,84.51325822792735L114.80484375,113.80136121039381L115.34765625,135.0434830163832L115.89046875,136.98606094483307L116.43328125,110.80093909276074L116.97609375,102.67789403779832L117.51890625,90.90069770581779L118.06171875,96.28593048399752L118.60453125,125.51816485832629L119.14734375,143.33602606702993L119.69015625,148.8728685908182L120.23296875,78.18453424937937L120.77578125000001,15.269826363130846L121.31859375,79.57437994090417L121.86140625,79.8167115024618L122.40421875,32.186033816024604L122.94703125000001,78.70023557937085L123.48984375,69.03673677084407L124.03265625,97.95638654492836L124.57546875,86.95668748705539L125.11828125000001,114.06377427733165L125.66109375,100.37896265020845L126.20390625,107.53384379149851L126.74671875000001,116.11855915547252L127.28953125,105.0364461162481L127.83234374999999,123.5793877323317L128.37515625,127.50660885537465L128.91796875,130.58203857298716L129.46078125,136.52601767786237L130.00359375,139.58864158430725L130.54640625,147.90581344559632L131.08921875,132.60137810789166L131.63203124999998,129.3030671029247L132.17484375,46.110500002270925L132.71765625,45.48006631566474L133.26046875,51.12372105413995L133.80328125,50.08662872796425L134.34609375,90.31624436292992L134.88890625,85.44864952172347L135.43171875,84.2619133959827L135.97453125,116.57313651182247L136.51734375,130.53192167653867L137.06015625,127.89462753723319L137.60296875,144.57302059968185L138.14578125,142.03623084483755L138.68859375,107.03068516408337L139.23140625,130.85975213415662L139.77421875000002,141.5080903776804L140.31703125,116.15629675778516L140.85984375,77.77665610445338L141.40265625,100.06035013141769L141.94546875,84.0165773613093L142.48828125,91.42125209467643L143.03109375,92.25157864441127L143.57390625,113.1964333473338L144.11671875000002,132.45597877613866L144.65953125000001,122.05586659532369L145.20234375,129.24722084773543L145.74515625,135.99422796420612L146.28796875,138.87326371070867L146.83078125,104.10555880051001L147.37359375,130.86739661988867L147.91640625000002,118.50006452192638L148.45921875000002,131.18096152623076L149.00203125000002,92.54558774723071L149.00203125000002,79.73812487828249L149.54484375,76.09317527136861L150.08765625,55.55429130575621L150.63046875,76.83044531896356L151.17328125,103.96835751080734L151.71609375000003,112.76315126522054L152.25890625000002,115.42064541742278L152.80171875,128.8685062316107L153.34453125,138.6255653680166L153.88734374999999,126.84830244494839L154.43015624999998,131.36952381371898L154.97296874999998,112.75290011787072L155.51578124999997,136.29004958013596L156.05859375,147.03037895064645L156.60140625,155.48002274301027L157.14421875,155.52897813172405L157.68703125,127.83545536804098L158.22984375,122.00677701154387L158.77265624999998,126.11918792063278L159.31546874999998,77.44947150821346L159.85828125,94.13251378223224L160.40109375,109.99074391177244L160.94390625,133.35816246914573L161.48671875,132.55831930853122L162.02953125,147.2288857210708L162.57234375,102.18866015130482L163.11515624999998,112.99924022689845L163.65796874999998,88.48559165268938L164.20078125,104.41361175766039L164.74359375,96.22441999702218L165.28640625,109.17009543020387L165.82921875,130.05072604798596L166.37203125,73.86805371240473L166.91484375,68.4706404009632L167.45765624999999,33.14094672027829L168.00046875,77.86746823103525L168.54328125,81.50738659856908L169.08609375,100.7324492501423L169.62890625,111.07446773197336L170.17171875,130.71030913031336L170.71453125,82.5120746098702L171.25734375,93.80303608195446L171.80015625000001,116.73892810831347L172.34296875,128.5965611170267L172.88578125,120.37999948445174L173.42859375,134.61229376289046L173.97140625,129.28845143492683L174.51421875,104.9962117920857L175.05703125,93.55256671695871L175.59984375000002,117.88505581525624L176.14265625000002,61.54631354004465L176.68546875,60.88389035559743L177.22828125,71.23076737052996L177.77109375,61.36898684236618L178.31390625,83.69640008052114L178.85671875,87.87796887677001L179.39953125,79.66846446177583L179.94234375000002,110.85522379693688L180.48515625000002,120.49053018392917L181.02796875,130.50717111290578L181.57078125,118.6205502808329L182.11359375,111.01465571626304L182.65640625,93.19207724241689L183.19921875,114.33710282202952L183.74203125000003,120.20722137357055L184.28484375000002,142.66458525083476L184.82765625000002,146.46041327949422L185.37046875000001,158.31672732800465L185.91328125,124.69081406882106L186.45609375,54.87797719379384L186.99890624999998,69.08692807042667L187.54171874999997,95.64560212968789L188.08453125,99.5719801306326L188.62734375,129.27109052485392L189.17015625,112.28301947817053L189.71296875,107.05946334305307L190.25578124999998,87.82377285848372L190.79859374999998,99.14508544345604L191.34140624999998,121.8420313482448L191.88421875,125.53726254526853L192.42703125,115.06709537026583L192.96984375,109.3594814486343L193.51265625,98.34835450674184L194.05546875,121.84190878849004L194.59828124999999,113.6253474210548L195.14109374999998,117.68994499942174L195.68390625,117.2890897341315L196.22671875,107.51516211743194L196.76953125,79.31606960041634L197.31234375,71.36255039334576L197.85515625,79.04492838120636L198.39796875,95.94377451841582L198.94078125,114.86205704036087L199.48359374999998,142.62629883217733L200.02640625,112.71233641513372L200.56921875,120.83449542510273L201.11203125,128.98523056159226L201.65484375,101.9051860243496L202.19765625,125.38507618983243L202.74046875,108.3335649842515L203.28328125,117.53828580653202L203.82609375,90.30812246827446L204.36890625,100.80521145769299L204.91171875,121.35639402794708L205.45453125,108.53362778314107L205.99734375,120.36655184406646L206.54015625,120.88264033066395L207.08296875,111.08085078858493L207.62578125000002,108.70901585139731L208.16859375,120.1932641009139L208.71140625,137.12539946673192L209.25421875,143.53550425211472L209.79703125,145.35272251135888L210.33984375,123.85236644742105L210.88265625,90.91166988779862L211.42546875,82.1518669949161L211.96828125000002,57.61875876003754L212.51109375000001,85.54826254802084L213.05390625,98.31805645746849L213.59671875,122.40153206353531L214.13953125,47.28490619723797L214.68234375,89.13780636281084L215.22515625,114.17611077243272L215.76796875000002,105.74948388312481L216.31078125000002,113.53103842209035L216.85359375000002,42.555709649061924L217.39640625,87.31207323436652L217.93921875,92.83378432695612L218.48203125,114.4948066043274L219.02484375,121.65959381181773L219.56765625000003,115.79001570414775L220.11046875000002,130.58906047574027L220.65328125,124.03919301647736L221.19609375,135.9613966784576L221.73890624999999,83.82649578785819L222.28171874999998,82.04217372021633L222.82453124999998,74.22273132611244L223.36734374999997,101.42826653366639L223.91015625,130.14624347339148L224.45296875,134.88787576671191L224.99578125,57.12672984754214L225.53859375,80.77783885094618L226.08140625,117.35855245884125L226.62421874999998,134.59613199410362L227.16703124999998,145.87717954060238L227.70984375,144.44991034455447L228.25265625,128.8392298488203L228.79546875,92.13063063858817L229.33828125,97.81468975924776L229.88109375,81.62227983532915L230.42390625,69.6815327855604L230.96671874999998,101.76881865917446L231.50953124999998,77.53769149083023L232.05234375,82.37273671276814L232.59515625,107.879409289643L233.13796875,91.54932220782507L233.68078125,109.98135826931647L234.22359375,114.99462597678709L234.76640625,117.05478014926757" style="fill: none;" fill="none"></path></g></g></g></g><g opacity="0.2"><g><g><g><path stroke="rgb(255, 112, 67)" stroke-width="2px" d="M36.639843750000004,-40.78879395553045L37.18265625,7.222001820802689L37.725468750000005,145.07264136416572L38.268281249999994,76.55957312669074L38.81109375,66.49598237872124L39.353906249999994,103.04125902056695L39.89671875,90.80700122032847L40.43953125,-106.01242181232999L40.98234375,149.33720521841732L41.52515625,133.1009095609188L42.06796875,156.86172590936934L42.61078125,146.87386924879894L43.15359375,40.33051455872402L43.69640625,159.1194306441716L44.23921875,131.96131877814022L44.78203125,142.46518455658642L45.32484375,80.50377425551416L45.86765625,122.89922655905997L46.41046875000001,158.12961249692103L46.953281249999996,157.7538621553353L47.49609375,106.21097548944611L48.03890625,-33.66809420074736L48.58171875,166.05541081513678L49.12453125,103.82271423084397L49.66734375,81.12650815078192L50.21015625,-60.79257787125451L50.75296875,172.70946048413006L51.29578125,57.63735487205642L51.83859375,166.37501996755603L52.381406250000005,119.87278315850668L52.92421875,143.88661164471083L53.467031250000005,171.26740433488575L54.00984375,162.1933491442885L54.552656250000005,165.13746469361445L55.09546875,111.07208657690458L55.63828125,-42.201743347304216L56.181093749999995,85.24826991983824L56.72390625,84.30847018105644L57.266718749999995,157.94404514346806L57.80953125,-71.39742243289948L58.352343749999996,71.55895683595114L58.89515625,118.30996693457877L59.43796875,-23.58735966682434L59.98078125,131.16865416935514L60.52359375,-251.64266651017329L61.06640625,137.41624539664815L61.609218750000004,120.98213682430134L62.15203125,70.60917225480081L62.694843750000004,-126.39760786720689L63.23765625,113.96411139198713L63.78046875,60.84390222174781L64.32328125,113.53928460819382L64.86609374999999,63.541693593774525L65.40890625,148.78916924766133L65.95171875,-39.55378199049406L66.49453125,153.1837244459561L67.03734375,50.71427963886943L67.58015625,165.78148702638492L68.12296875,160.86781422155246L68.66578125,26.200738051107976L69.20859375,146.02101299592428L69.75140625,138.7660830489227L70.29421875,128.44712524754664L70.83703125000001,5.813102883952013L71.37984375,152.71227033223425L71.92265625,70.74500378966333L72.46546875,129.80544059617182L73.00828125000001,25.20611587592532L73.55109375,169.8483321624143L74.09390625,101.03882714254517L74.63671875,176.8943339926856L75.17953125000001,11.153203815221786L75.72234375000001,151.88315162914142L76.26515625,159.82157229525706L76.80796874999999,170.8707423423018L77.35078125,67.10194927453995L77.89359375,55.052599451371606L78.43640624999999,-93.4831401790891L78.97921875,137.85539006761144L79.52203125,140.97273321236884L80.06484375,50.841350887502955L80.60765624999999,82.81036703927177L81.15046875,87.01332630004202L81.69328125,103.5127131342888L82.23609375,130.06824918304173L82.77890624999999,77.27292417628425L83.32171875,111.76772866078787L83.86453125,97.31466933233399L84.40734375,140.8512195646763L84.95015625,129.55996418850765L85.49296875,150.03143435290883L86.03578125,155.0060523748398L86.57859375,7.63722054873196L87.12140625,-25.774511128664017L87.66421875,21.582465865782353L88.20703125,166.88038486668043L88.74984375,-67.7005816442626L89.29265625000001,86.98440793582373L89.83546875,81.11388580288207L90.37828125,95.69411057659559L90.92109375000001,172.14051286237583L91.46390625000001,138.3309888328825L92.00671875,127.06563752889636L92.54953125,66.63266168321883L93.09234375000001,-80.39291763731416L93.63515625,118.22509577444623L94.17796874999999,132.0076635181904L94.72078124999999,151.78725946375303L95.26359375,162.16556113958362L95.80640625,111.08235400915147L96.34921874999999,18.317328214645386L96.89203125,-43.69127459611212L97.43484375,141.0059846213886L97.97765625,81.29125804986273L98.52046874999999,-2.013223797082901L99.06328125,144.12313937289377L99.60609375,89.38924780062268L100.14890625,72.80027997493745L100.69171874999999,164.42788150906566L101.23453125,150.4968598825591L101.77734375,-1.152360830988215L102.32015625,135.9068386597293L102.86296875000001,61.97068226337433L103.40578125,36.18623979602543L103.94859375,53.43806927970478L104.49140625,76.01417466146606L105.03421875000001,159.77108290365766L105.57703125,25.914097717830117L106.11984375,149.45344385504725L106.66265625,33.8191727782999L107.20546875000001,145.46713683434896L107.74828125,62.18658093043737L108.29109375,103.12000740000181L108.83390625000001,167.52450139607703L109.37671875000001,68.63085471306529L109.91953125,128.4775507577828L110.46234374999999,118.46972441247533L111.00515625,93.8325026546206L111.54796875,115.90691680567608L112.09078124999999,74.49591344169208L112.63359374999999,20.080312269074597L113.17640625,25.586576048816937L113.71921875,75.27237623078483L114.26203124999999,121.49927630169053L114.80484375,157.73351568409376L115.34765625,166.90666572536742L115.89046875,139.89992783750807L116.43328125,71.52325631465231L116.97609375,90.4933264553547L117.51890625,73.23490320784705L118.06171875,104.36377965126721L118.60453125,169.36651641981945L119.14734375,170.06281788008556L119.69015625,157.17813237650057L120.23296875,-27.84796726277895L120.77578125000001,-79.10223546624184L121.31859375,176.03121030756407L121.86140625,80.18020884479796L122.40421875,-39.25998271363122L122.94703125000001,148.4715382243906L123.48984375,54.54148855805397L124.03265625,141.33586120605472L124.57546875,70.45713890024595L125.11828125000001,154.72440446274624L125.66109375,79.85174520952361L126.20390625,118.2661655034338L126.74671875000001,128.9956322014332L127.28953125,88.41327655741148L127.83234374999999,151.3938001564571L128.37515625,133.39744053993908L128.91796875,135.19518314940592L129.46078125,145.4419863351754L130.00359375,144.18257744397437L130.54640625,160.38157123753004L131.08921875,109.64472510133473L131.63203124999998,124.35560059547427L132.17484375,-78.67835064870971L132.71765625,44.53441578575544L133.26046875,59.58920316185271L133.80328125,48.53099023870061L134.34609375,150.66066781537876L134.88890625,78.14725725991386L135.43171875,82.48180920737131L135.97453125,165.03997118558203L136.51734375,151.47009942361288L137.06015625,123.93868632827488L137.60296875,169.59061019335476L138.14578125,138.23104621257102L138.68859375,54.522366642951965L139.23140625,166.60335258926665L139.77421875000002,157.48059774296627L140.31703125,78.12860632794245L140.85984375,20.207195124455865L141.40265625,133.48589117186413L141.94546875,59.950918206146795L142.48828125,102.52826419472696L143.03109375,93.4970684690135L143.57390625,144.61371540171763L144.11671875000002,161.34529691934588L144.65953125000001,106.45569832410132L145.20234375,140.03425222635272L145.74515625,146.11473863891194L146.28796875,143.1918173304626L146.83078125,51.95400143521174L147.37359375,171.0101533489568L147.91640625000002,99.94906637498312L148.45921875000002,150.20230703268734L149.00203125000002,34.59252707873074L149.00203125000002,60.526930574859904L149.54484375,70.62575086099761L150.08765625,24.745965357337695L150.63046875,108.74467633877484L151.17328125,144.67522579857282L151.71609375000003,125.95534189684052L152.25890625000002,119.40688664572582L152.80171875,149.0402974528926L153.34453125,153.26115407262532L153.88734374999999,109.18240806034635L154.43015624999998,138.15135586687498L154.97296874999998,84.8279645740986L155.51578124999997,171.59577377353398L156.05859375,163.140873006412L156.60140625,168.1544884315559L157.14421875,155.60241121479444L157.68703125,86.29517122251647L158.22984375,113.26375947679793L158.77265624999998,132.2878042842661L159.31546874999998,4.444896889584413L159.85828125,119.15707719326022L160.40109375,133.77808910608292L160.94390625,168.4092903052058L161.48671875,131.35855456760953L162.02953125,169.23473533988002L162.57234375,34.628321796655655L163.11515624999998,129.21511034028873L163.65796874999998,51.71511879137584L164.20078125,128.305641915117L164.74359375,83.94063235606467L165.28640625,128.58860857997624L165.82921875,161.371671974659L166.37203125,-10.40595479096686L166.91484375,60.37452043380057L167.45765624999999,-19.85359380074911L168.00046875,144.9572504971709L168.54328125,86.9672641498702L169.08609375,129.5700432275023L169.62890625,126.58749545472011L170.17171875,160.164071227823L170.71453125,10.21472282920567L171.25734375,110.73947829008104L171.80015625000001,151.14276614785197L172.34296875,146.38301063009672L172.88578125,108.05515703558923L173.42859375,155.96073518054828L173.97140625,121.30268794298175L174.51421875,68.55785232782365L175.05703125,76.38709910426822L175.59984375000002,154.38378946270262L176.14265625000002,-22.961799872773042L176.68546875,59.89025557892664L177.22828125,86.7510828929288L177.77109375,46.57631605012077L178.31390625,117.1875199377537L178.85671875,94.15032207114358L179.39953125,67.35420783928463L179.94234375000002,157.63536279967855L180.48515625000002,134.94348976441793L181.02796875,145.53213250637057L181.57078125,100.79061903272357L182.11359375,99.60581386940821L182.65640625,66.45820953164782L183.19921875,146.0546411914485L183.74203125000003,129.01239920088224L184.28484375000002,176.35063106673107L184.82765625000002,152.15415532248363L185.37046875000001,176.10119840076993L185.91328125,74.25194418004581L186.45609375,-49.84127811874663L186.99890624999998,90.40035438537599L187.54171874999997,135.48361321858L188.08453125,105.4615471320493L188.62734375,173.81975611618589L189.17015625,86.80091290814536L189.71296875,99.22412914037706L190.25578124999998,58.97023713162967L190.79859374999998,116.12705432091443L191.34140624999998,155.88745020542828L191.88421875,131.08010934080397L192.42703125,99.36184460776194L192.96984375,100.79806056618692L193.51265625,81.83166409390314L194.05546875,157.08224021111218L194.59828124999999,101.30050536990167L195.14109374999998,123.78684136697225L195.68390625,116.68780683619637L196.22671875,92.85427069238256L196.76953125,37.01743082489287L197.31234375,59.4322715827397L197.85515625,90.56849536299707L198.39796875,121.29204372423038L198.94078125,143.23948082327846L199.48359374999998,184.2726615199021L200.02640625,67.84139278956823L200.56921875,133.01773394005642L201.11203125,141.2113332663264L201.65484375,61.285119218485704L202.19765625,160.60491143805643L202.74046875,82.75629817587989L203.28328125,131.34536703995298L203.82609375,49.462877460888464L204.36890625,116.55084494182043L204.91171875,152.18316788332805L205.45453125,89.29947841593199L205.99734375,138.11593793545453L206.54015625,121.65677306056025L207.08296875,96.37816647546633L207.62578125000002,105.15126344561578L208.16859375,137.4196364751884L208.71140625,162.5236025154591L209.25421875,153.15066143018862L209.79703125,148.07854990022525L210.33984375,91.60183235151429L210.88265625,41.500625048364924L211.42546875,69.01216265559198L211.96828125000002,20.819096407720025L212.51109375000001,127.44251822999547L213.05390625,117.47274732163976L213.59671875,158.52674547263555L214.13953125,-65.39003260220801L214.68234375,151.9171566111701L215.22515625,151.73356738686564L215.76796875000002,93.109543549163L216.31078125000002,125.20337023053852L216.85359375000002,-63.907283510480624L217.39640625,154.4466186123235L217.93921875,101.11635096584048L218.48203125,146.98634002038412L219.02484375,132.40677462305342L219.56765625000003,106.98564854264261L220.11046875000002,152.78762763312886L220.65328125,114.21439182758331L221.19609375,153.84470217142788L221.73890624999999,5.624144451958813L222.28171874999998,79.36569061875345L222.82453124999998,62.49356773495674L223.36734374999997,142.23656934499743L223.91015625,173.223208882979L224.45296875,142.00032420669285L224.99578125,-59.51498903121268L225.53859375,116.25450235605243L226.08140625,172.2296228706837L226.62421874999998,160.4525012969971L227.16703124999998,162.79875086035048L227.70984375,142.30900655048237L228.25265625,105.42320910521917L228.79546875,37.067731823240024L229.33828125,106.34077844023706L229.88109375,57.333664949451176L230.42390625,51.77041221090727L230.96671874999998,149.89974746959552L231.50953124999998,41.191000738314244L232.05234375,89.62530454567502L232.59515625,146.13941815495494L233.13796875,67.054191585098L233.68078125,137.62941236155376L234.22359375,122.51452753799305L234.76640625,120.14501140798842" style="fill: none;" fill="none"></path></g></g></g></g></g></g><g transform="translate(58, 177)" clip-path="url(#clip_1)"><clipPath id="clip_1"><rect width="271" height="23"></rect></clipPath><g><g><line x1="0" y1="0" x2="0" y2="5" style="visibility: inherit;" fill="rgb(0, 0, 0)" stroke="rgb(204, 204, 204)" stroke-width="1px"></line><line x1="33.92578125" y1="0" x2="33.92578125" y2="5" style="visibility: inherit;" fill="rgb(0, 0, 0)" stroke="rgb(204, 204, 204)" stroke-width="1px"></line><line x1="67.8515625" y1="0" x2="67.8515625" y2="5" style="visibility: inherit;" fill="rgb(0, 0, 0)" stroke="rgb(204, 204, 204)" stroke-width="1px"></line><line x1="101.77734375" y1="0" x2="101.77734375" y2="5" style="visibility: inherit;" fill="rgb(0, 0, 0)" stroke="rgb(204, 204, 204)" stroke-width="1px"></line><line x1="135.703125" y1="0" x2="135.703125" y2="5" style="visibility: inherit;" fill="rgb(0, 0, 0)" stroke="rgb(204, 204, 204)" stroke-width="1px"></line><line x1="169.62890625" y1="0" x2="169.62890625" y2="5" style="visibility: inherit;" fill="rgb(0, 0, 0)" stroke="rgb(204, 204, 204)" stroke-width="1px"></line><line x1="203.5546875" y1="0" x2="203.5546875" y2="5" style="visibility: inherit;" fill="rgb(0, 0, 0)" stroke="rgb(204, 204, 204)" stroke-width="1px"></line><line x1="237.48046875" y1="0" x2="237.48046875" y2="5" style="visibility: inherit;" fill="rgb(0, 0, 0)" stroke="rgb(204, 204, 204)" stroke-width="1px"></line><line x1="271.40625" y1="0" x2="271.40625" y2="5" style="visibility: inherit;" fill="rgb(0, 0, 0)" stroke="rgb(204, 204, 204)" stroke-width="1px"></line></g><g transform="translate(0, 8)"><text x="0" y="0" dx="0em" dy="0.95em" style="text-anchor: middle; visibility: hidden; font-family: &quot;Helvetica Neue&quot;, sans-serif; font-size: 12px; font-weight: 200;" fill="rgb(50, 49, 63)" stroke="none" stroke-width="1px">-50k</text><text x="33.92578125" y="0" dx="0em" dy="0.95em" style="text-anchor: middle; visibility: inherit; font-family: &quot;Helvetica Neue&quot;, sans-serif; font-size: 12px; font-weight: 200;" fill="rgb(50, 49, 63)" stroke="none" stroke-width="1px">0</text><text x="67.8515625" y="0" dx="0em" dy="0.95em" style="text-anchor: middle; visibility: inherit; font-family: &quot;Helvetica Neue&quot;, sans-serif; font-size: 12px; font-weight: 200;" fill="rgb(50, 49, 63)" stroke="none" stroke-width="1px">50k</text><text x="101.77734375" y="0" dx="0em" dy="0.95em" style="text-anchor: middle; visibility: inherit; font-family: &quot;Helvetica Neue&quot;, sans-serif; font-size: 12px; font-weight: 200;" fill="rgb(50, 49, 63)" stroke="none" stroke-width="1px">100k</text><text x="135.703125" y="0" dx="0em" dy="0.95em" style="text-anchor: middle; visibility: inherit; font-family: &quot;Helvetica Neue&quot;, sans-serif; font-size: 12px; font-weight: 200;" fill="rgb(50, 49, 63)" stroke="none" stroke-width="1px">150k</text><text x="169.62890625" y="0" dx="0em" dy="0.95em" style="text-anchor: middle; visibility: inherit; font-family: &quot;Helvetica Neue&quot;, sans-serif; font-size: 12px; font-weight: 200;" fill="rgb(50, 49, 63)" stroke="none" stroke-width="1px">200k</text><text x="203.5546875" y="0" dx="0em" dy="0.95em" style="text-anchor: middle; visibility: inherit; font-family: &quot;Helvetica Neue&quot;, sans-serif; font-size: 12px; font-weight: 200;" fill="rgb(50, 49, 63)" stroke="none" stroke-width="1px">250k</text><text x="237.48046875" y="0" dx="0em" dy="0.95em" style="text-anchor: middle; visibility: inherit; font-family: &quot;Helvetica Neue&quot;, sans-serif; font-size: 12px; font-weight: 200;" fill="rgb(50, 49, 63)" stroke="none" stroke-width="1px">300k</text><text x="271.40625" y="0" dx="0em" dy="0.95em" style="text-anchor: middle; visibility: hidden; font-family: &quot;Helvetica Neue&quot;, sans-serif; font-size: 12px; font-weight: 200;" fill="rgb(50, 49, 63)" stroke="none" stroke-width="1px">350k</text></g><line x1="0" y1="0" x2="271.40625" y2="0" fill="rgb(0, 0, 0)" stroke="rgb(204, 204, 204)" stroke-width="1px"></line></g></g></g></g></svg>