<svg viewBox="0 0 330 200" xmlns="http://www.w3.org/2000/svg"><g><g><g><g><g><line x1="58.59375" y1="177" x2="53.59375" y2="177" style="visibility: inherit;" fill="rgb(0, 0, 0)" stroke="rgb(204, 204, 204)" stroke-width="1px"></line><line x1="58.59375" y1="157.33333333333334" x2="53.59375" y2="157.33333333333334" style="visibility: inherit;" fill="rgb(0, 0, 0)" stroke="rgb(204, 204, 204)" stroke-width="1px"></line><line x1="58.59375" y1="137.66666666666666" x2="53.59375" y2="137.66666666666666" style="visibility: inherit;" fill="rgb(0, 0, 0)" stroke="rgb(204, 204, 204)" stroke-width="1px"></line><line x1="58.59375" y1="118.00000000000001" x2="53.59375" y2="118.00000000000001" style="visibility: inherit;" fill="rgb(0, 0, 0)" stroke="rgb(204, 204, 204)" stroke-width="1px"></line><line x1="58.59375" y1="98.33333333333336" x2="53.59375" y2="98.33333333333336" style="visibility: inherit;" fill="rgb(0, 0, 0)" stroke="rgb(204, 204, 204)" stroke-width="1px"></line><line x1="58.59375" y1="78.66666666666669" x2="53.59375" y2="78.66666666666669" style="visibility: inherit;" fill="rgb(0, 0, 0)" stroke="rgb(204, 204, 204)" stroke-width="1px"></line><line x1="58.59375" y1="58.999999999999986" x2="53.59375" y2="58.999999999999986" style="visibility: inherit;" fill="rgb(0, 0, 0)" stroke="rgb(204, 204, 204)" stroke-width="1px"></line><line x1="58.59375" y1="39.33333333333337" x2="53.59375" y2="39.33333333333337" style="visibility: inherit;" fill="rgb(0, 0, 0)" stroke="rgb(204, 204, 204)" stroke-width="1px"></line><line x1="58.59375" y1="19.666666666666686" x2="53.59375" y2="19.666666666666686" style="visibility: inherit;" fill="rgb(0, 0, 0)" stroke="rgb(204, 204, 204)" stroke-width="1px"></line><line x1="58.59375" y1="0" x2="53.59375" y2="0" style="visibility: inherit;" fill="rgb(0, 0, 0)" stroke="rgb(204, 204, 204)" stroke-width="1px"></line></g><g transform="translate(48.59375, 0)"><text x="0" y="177" dx="0em" dy="0.3em" style="text-anchor: end; visibility: hidden; font-family: &quot;Helvetica Neue&quot;, sans-serif; font-size: 12px; font-weight: 200;" fill="rgb(50, 49, 63)" stroke="none" stroke-width="1px">0.04</text><text x="0" y="157.33333333333334" dx="0em" dy="0.3em" style="text-anchor: end; visibility: inherit; font-family: &quot;Helvetica Neue&quot;, sans-serif; font-size: 12px; font-weight: 200;" fill="rgb(50, 49, 63)" stroke="none" stroke-width="1px">0.045</text><text x="0" y="137.66666666666666" dx="0em" dy="0.3em" style="text-anchor: end; visibility: hidden; font-family: &quot;Helvetica Neue&quot;, sans-serif; font-size: 12px; font-weight: 200;" fill="rgb(50, 49, 63)" stroke="none" stroke-width="1px">0.05</text><text x="0" y="118.00000000000001" dx="0em" dy="0.3em" style="text-anchor: end; visibility: inherit; font-family: &quot;Helvetica Neue&quot;, sans-serif; font-size: 12px; font-weight: 200;" fill="rgb(50, 49, 63)" stroke="none" stroke-width="1px">0.055</text><text x="0" y="98.33333333333336" dx="0em" dy="0.3em" style="text-anchor: end; visibility: hidden; font-family: &quot;Helvetica Neue&quot;, sans-serif; font-size: 12px; font-weight: 200;" fill="rgb(50, 49, 63)" stroke="none" stroke-width="1px">0.06</text><text x="0" y="78.66666666666669" dx="0em" dy="0.3em" style="text-anchor: end; visibility: inherit; font-family: &quot;Helvetica Neue&quot;, sans-serif; font-size: 12px; font-weight: 200;" fill="rgb(50, 49, 63)" stroke="none" stroke-width="1px">0.065</text><text x="0" y="58.999999999999986" dx="0em" dy="0.3em" style="text-anchor: end; visibility: hidden; font-family: &quot;Helvetica Neue&quot;, sans-serif; font-size: 12px; font-weight: 200;" fill="rgb(50, 49, 63)" stroke="none" stroke-width="1px">0.07</text><text x="0" y="39.33333333333337" dx="0em" dy="0.3em" style="text-anchor: end; visibility: inherit; font-family: &quot;Helvetica Neue&quot;, sans-serif; font-size: 12px; font-weight: 200;" fill="rgb(50, 49, 63)" stroke="none" stroke-width="1px">0.075</text><text x="0" y="19.666666666666686" dx="0em" dy="0.3em" style="text-anchor: end; visibility: hidden; font-family: &quot;Helvetica Neue&quot;, sans-serif; font-size: 12px; font-weight: 200;" fill="rgb(50, 49, 63)" stroke="none" stroke-width="1px">0.08</text><text x="0" y="0" dx="0em" dy="0.3em" style="text-anchor: end; visibility: hidden; font-family: &quot;Helvetica Neue&quot;, sans-serif; font-size: 12px; font-weight: 200;" fill="rgb(50, 49, 63)" stroke="none" stroke-width="1px">0.085</text></g><line x1="58.59375" y1="0" x2="58.59375" y2="177" fill="rgb(0, 0, 0)" stroke="rgb(204, 204, 204)" stroke-width="1px"></line></g></g><g transform="translate(58, 0)" clip-path="url(#clip_0)"><clipPath id="clip_0"><rect width="271" height="177"></rect></clipPath><g><g><g><line x1="0" y1="0" x2="0" y2="177" fill="rgb(0, 0, 0)" stroke="rgb(60, 60, 60)" stroke-width="1px" opacity="0.25"></line><line x1="33.92578125" y1="0" x2="33.92578125" y2="177" fill="rgb(0, 0, 0)" stroke="rgb(60, 60, 60)" stroke-width="1px" opacity="0.25"></line><line x1="67.8515625" y1="0" x2="67.8515625" y2="177" fill="rgb(0, 0, 0)" stroke="rgb(60, 60, 60)" stroke-width="1px" opacity="0.25"></line><line x1="101.77734375" y1="0" x2="101.77734375" y2="177" fill="rgb(0, 0, 0)" stroke="rgb(60, 60, 60)" stroke-width="1px" opacity="0.25"></line><line x1="135.703125" y1="0" x2="135.703125" y2="177" fill="rgb(0, 0, 0)" stroke="rgb(60, 60, 60)" stroke-width="1px" opacity="0.25"></line><line x1="169.62890625" y1="0" x2="169.62890625" y2="177" fill="rgb(0, 0, 0)" stroke="rgb(60, 60, 60)" stroke-width="1px" opacity="0.25"></line><line x1="203.5546875" y1="0" x2="203.5546875" y2="177" fill="rgb(0, 0, 0)" stroke="rgb(60, 60, 60)" stroke-width="1px" opacity="0.25"></line><line x1="237.48046875" y1="0" x2="237.48046875" y2="177" fill="rgb(0, 0, 0)" stroke="rgb(60, 60, 60)" stroke-width="1px" opacity="0.25"></line><line x1="271.40625" y1="0" x2="271.40625" y2="177" fill="rgb(0, 0, 0)" stroke="rgb(60, 60, 60)" stroke-width="1px" opacity="0.25"></line></g><g><line x1="0" y1="177" x2="271.40625" y2="177" fill="rgb(0, 0, 0)" stroke="rgb(60, 60, 60)" stroke-width="1px" opacity="0.25"></line><line x1="0" y1="157.33333333333334" x2="271.40625" y2="157.33333333333334" fill="rgb(0, 0, 0)" stroke="rgb(60, 60, 60)" stroke-width="1px" opacity="0.25"></line><line x1="0" y1="137.66666666666666" x2="271.40625" y2="137.66666666666666" fill="rgb(0, 0, 0)" stroke="rgb(60, 60, 60)" stroke-width="1px" opacity="0.25"></line><line x1="0" y1="118.00000000000001" x2="271.40625" y2="118.00000000000001" fill="rgb(0, 0, 0)" stroke="rgb(60, 60, 60)" stroke-width="1px" opacity="0.25"></line><line x1="0" y1="98.33333333333336" x2="271.40625" y2="98.33333333333336" fill="rgb(0, 0, 0)" stroke="rgb(60, 60, 60)" stroke-width="1px" opacity="0.25"></line><line x1="0" y1="78.66666666666669" x2="271.40625" y2="78.66666666666669" fill="rgb(0, 0, 0)" stroke="rgb(60, 60, 60)" stroke-width="1px" opacity="0.25"></line><line x1="0" y1="58.999999999999986" x2="271.40625" y2="58.999999999999986" fill="rgb(0, 0, 0)" stroke="rgb(60, 60, 60)" stroke-width="1px" opacity="0.25"></line><line x1="0" y1="39.33333333333337" x2="271.40625" y2="39.33333333333337" fill="rgb(0, 0, 0)" stroke="rgb(60, 60, 60)" stroke-width="1px" opacity="0.25"></line><line x1="0" y1="19.666666666666686" x2="271.40625" y2="19.666666666666686" fill="rgb(0, 0, 0)" stroke="rgb(60, 60, 60)" stroke-width="1px" opacity="0.25"></line><line x1="0" y1="0" x2="271.40625" y2="0" fill="rgb(0, 0, 0)" stroke="rgb(60, 60, 60)" stroke-width="1px" opacity="0.25"></line></g></g></g><g><g><line x1="0" y1="334.3333333333333" x2="271.40625" y2="334.3333333333333" fill="rgb(0, 0, 0)" stroke="rgb(153, 153, 153)" stroke-width="1.5px"></line></g></g><g><g><line x1="33.92578125" y1="0" x2="33.92578125" y2="177" fill="rgb(0, 0, 0)" stroke="rgb(153, 153, 153)" stroke-width="1.5px"></line></g></g><g><g><g><g><g><path stroke="rgb(255, 112, 67)" stroke-width="2px" d="M37.068665625,-7.267834928315523L37.1066625,6.087798385494722L37.3672125,15.291083462825526L37.437778125,70.1260079329877L37.568053125,102.84599013101163L37.8014625,112.06845400880457L37.844887500000006,131.4706412729294L38.110865624999995,131.11667308964678L38.186859375,99.4744397130229L38.2791375,101.2581048779389L38.31170625,128.07700739794527L38.463693750000004,137.34686738367571L39.055359375,56.204940799222385L39.196490624999996,90.15409814421425L39.429899999999996,77.15557847942372L39.7121625,97.19865108986421L39.91843125,59.890238861976215L40.330968750000004,108.21917253013673L40.770646875,118.19813020156553L41.069193750000004,130.53982999289582L41.085478124999995,126.53946702404286L41.161471875,66.61900460517167L41.183184375,20.641287367449365L41.443734375,29.386917066181383L41.48173125,16.53489963684183L41.72056875,27.569976613968294L41.883412500000006,46.279542929820764L42.192815624999994,102.91789398795557L42.35023125,53.40100202771863L42.43708125,81.85326191579185L42.523931250000004,41.517451981562004L42.82790625,49.42418469192765L43.104740625,98.44349631032539L43.202446875,58.5540920833473L43.2513,92.84832507817343L43.33815,63.0019074346998L43.354434375,59.10119227963551L43.593271875000006,77.70750389337435L43.93524375,111.07053605621263L44.0546625,93.19776919625915L44.070946875,90.60205712602132L44.114371874999996,89.93907248190393L44.331496875000006,75.7557084513381L44.423775,79.40706392641921L44.494340625,81.93837331443669L44.97744375,105.23948485082195L45.30313125000001,115.19500769233198L45.797090625,101.01730438702596L45.862228124999994,102.65810982366378L46.035928125,99.98236840951431L46.068496875,87.72372808051895L46.177059375000006,89.51230080918153L46.2042,109.44995659189826L46.448465625,81.83723673183167L46.513603125,129.58737511808744L46.703587500000005,118.52607884034556L46.893571875,111.33873058572436L46.899,102.13747654685393L47.14869375000001,59.22860621410024L47.240971875,86.61408046681133L47.251828125,74.14502710381217L47.27896875,78.22312538392785L47.414671874999996,65.35526745657593L47.4201,71.02222599868261L47.485237500000004,44.3855855203725L47.512378125,68.30095984957951L47.66979375,108.30535900049809L47.751215625,89.6943901506269L47.783784374999996,116.29500076734249L48.500296875,120.62681625026397L48.798843749999996,89.57066679242016L49.064821875,130.8042264475987L49.64563125,95.98643955953312L50.031028125,74.81376533528605L50.269865625,61.89605396282934L50.416425000000004,109.25274679238952L50.432709375,49.686898508719764L50.747540625,42.12885480665301L51.084084374999996,49.93720280454437L51.458625,86.77481656070084L51.53461875,96.45740057306804L51.545475,91.16253691480946L51.550903125,118.38792811771071L51.865734374999995,107.02336469256781L52.815656249999996,92.17081409472567L53.467031250000005,98.36217963166044L53.5647375,56.28267030398257L53.575593749999996,82.48327879794564L53.847,126.59420473985747L54.150975,111.00437482762064L54.232396875,129.24509716769688L54.514659375,102.22756765330219L54.62864999999999,57.75400956100857L54.666646875,83.10828083928408L55.24745625,113.88708475138338L55.399443749999996,110.44919204854325L55.55143125,152.38752455200765L55.833693749999995,29.79554467212762L56.1702375,43.197624664375866L56.70219375,68.85104442886691L56.870465625,30.722247933857716L56.897606249999995,7.231099416124664L57.288431249999995,72.93347198723231L57.358996875,32.67663881952646L57.369853125000006,16.323026000112804L57.80953125,51.48780641077981L58.308918750000004,97.06209884754239L58.401196875000004,82.98773875239341L58.5151875,103.59154775382788L59.047143750000004,75.61536053006873L59.24255625,90.35821934452669L59.26426875,75.20239399221148L59.30769375,77.13089372920957L59.709375,104.44999118769945L59.91564375,121.85142672533661L59.991637499999996,114.865286750445L60.19790625,106.4192477322713L60.263043749999994,82.87763296706053L60.491025,130.35815852766777L60.8601375,163.06501743327902L60.908990625,183.75188339430883L60.925275000000006,129.2056266030399L61.3378125,99.31500792269277L61.348668749999995,114.96390672781686L61.6417875,104.35414931928291L61.793775,105.8351610248596L62.363728125,130.37365300726754L62.852259375,97.91146946314096L62.939109375,71.97715896187097L63.015103124999996,51.82063135594848L63.34621875,120.98663081978196L63.872746875,153.55199701142968L64.046446875,177.03396513394117L64.67068125,123.03721844155551L64.75210312499999,148.80390407442428L64.99094062500001,114.04557569304731L65.45233125,129.70068270452595L65.544609375,112.33642326884139L65.56089375,104.37372520223857L65.75630625,66.40719031486273L65.794303125,-10.585015699108254L65.989715625,50.358382436728604L66.10370625,68.21534616535672L66.44024999999999,96.85803272397777L66.5488125,70.80393939458207L67.151334375,51.591016888079295L67.20561562500001,63.818771648083526L67.58015625,87.4505666778531L67.650721875,96.88514049566068L67.683290625,20.167261996167582L67.75385625,-20.267709923805114L68.063259375,30.635777696159693L68.18810625,54.910037651173624L68.215246875,73.17491424551349L68.53550625000001,125.50733446958108L68.66578125,90.67996635366944L69.18688125,81.49063542482936L69.31715625000001,96.43188865382085L69.610275,54.40324931580986L69.767690625,65.13640316271287L70.06080937499999,112.27743682827652L70.27250624999999,117.75799078682721L70.28879062499999,115.30857640667556L70.353928125,121.68167355952936L70.5222,87.03808220604027L71.086725,96.25856993424277L71.13015,59.81085925396712L71.211571875,114.25475702541928L71.7381,58.67922776852767L71.87923125,59.378937112776754L71.99865,55.89434019773503L72.49803750000001,53.982064978575494L72.54146250000001,104.77857192136591L72.764015625,82.26452964809187L73.09513125,98.45152117172867L73.26340312500001,106.48572334464386L73.610803125,84.55032181431451L73.76279062500001,37.19954213911058L73.76821875,83.58560136207201L73.871353125,106.78948141285734L73.9962,81.22281873910998L74.099334375,79.47973653886342L74.3653125,71.54139365283822L74.41959375,100.94642807758754L74.435878125,136.15828335513814L74.5173,139.35984220641936L74.69642812500001,96.92106432043366L75.65177812499999,91.34345223698726L75.684346875,135.80918670213447L76.04803125000001,120.21020496596631L76.20001875,124.22578816836918L76.2543,82.7632110271405L76.44428437500001,67.72249364973412L76.80796874999999,63.12927179408854L76.98166875,73.14961475256754L77.301928125,83.78275952412888L77.4919125,107.59106021527968L77.70903750000001,85.84253970029664L78.32784375,110.28702207749711L78.517828125,85.091625128263L78.550396875,110.4431230509721L78.9249375,104.99364386505543L79.163775,59.826864487965864L79.321190625,11.930136080805426L79.34833125,87.82645652863816L79.39718437500001,117.76881339653394L79.885715625,114.06832110784887L79.902,127.88717162153583L80.0539875,77.06772193635383L80.10826875,88.46909981563614L80.42309999999999,85.65287001288888L80.613084375,96.55385089729401L80.797640625,92.37673642325903L81.123328125,109.05343230220777L81.796415625,122.49894459835551L81.81269999999999,152.00239062582568L82.116675,93.94420427645315L82.25780625,101.29112942952953L82.274090625,95.88497405015852L82.38808125,85.35336070515767L82.426078125,49.217111332762585L82.740909375,31.239345532783886L82.773478125,56.915150882082614L83.07745312499999,85.56323286371078L84.0056625,73.85304530745734L84.043659375,98.36352193923389L84.19021875,135.2759633773859L84.49419375,106.50531137273485L84.66789375,85.1441427963124L85.01529375000001,133.18976906719683L85.03157812500001,113.53395548532136L85.140140625,118.06312748433984L85.31926874999999,83.39240141297483L85.748090625,83.65846545448959L85.78608750000001,63.93635273943978L85.85665312500001,58.416898240470786L85.976071875,31.703236796353593L86.182340625,48.09624258949023L86.34518437499999,71.34153446519574L86.47003125,90.01561183709424L86.5677375,55.28804009941332L86.94770625,86.76514740658071L87.354815625,111.38417659127077L87.702215625,116.20008916809178L88.05504375,92.57768314175217L88.5218625,74.32288141107006L88.66299375000001,78.33136186036735L89.11895625,38.29378145356938L89.70519374999999,42.56587677053588L89.743190625,101.08530253282376L90.35656875,104.25683633950065L90.372853125,93.18808241963414L90.48684374999999,84.48716097044965L90.807103125,89.66757013580019L90.861384375,58.551461804990865L90.88309687499999,106.39143384441827L91.0405125,115.60934450792328L91.219640625,68.12937714994189L91.501903125,60.27073416515333L91.59418125,49.057285690729685L91.670175,65.87365995511904L91.757025,68.24988858699099L91.849303125,80.50724556525127L92.066428125,101.54050780025865L92.316121875,134.32341539872337L92.32155,125.58099501140507L92.44096875000001,63.23811970238441L92.630953125,95.7248785659744L92.68523437500001,95.60668756356282L92.772084375,96.35928424471882L92.82093750000001,97.95036772653026L92.89693125,96.41749257106322L93.1032,43.08272555426004L93.119484375,79.39773064229038L93.304040625,81.646820855378L93.325753125,9.420690293454498L93.45060000000001,65.49472301920855L93.48316875,75.51890911889437L93.49402500000001,80.28806686142504L93.71114999999999,64.33231932166865L93.74371875,90.59438884006136L93.814284375,87.39654646563247L93.841425,106.12326725471645L94.18882500000001,109.52304221082905L94.291959375,111.79011949433394L94.3408125,139.90505786260073L94.585078125,133.88208468071684L94.709925,101.17414722827316L94.72078124999999,131.3294765988225L94.726209375,120.85037166114057L95.04646875,83.57499101699632L95.909540625,108.42278206114716L96.19723124999999,137.05296199181527L96.30579374999999,116.84791055118353L96.474065625,89.35641628977845L96.52291875,67.64136878536458L96.61519687500001,117.28107765447886L96.707475,125.52920142292061L96.87574687499999,154.44321288752008L97.15258125,157.12343167118698L97.277428125,130.69045399538163L97.35342187500001,72.56924223251035L97.755103125,52.84614766844247L98.373909375,60.54585617308699L98.895009375,71.24986731325517L98.92215,88.56791484742322L99.1175625,50.78797534538684L99.285834375,97.1654813057187L99.81236249999999,70.43229343291137L99.95349374999999,106.0287548053027L99.97520625,94.60060334291622L100.06205625,78.90859643669864L100.29003750000001,66.3599067770557L100.6374375,100.49878489433426L100.653721875,85.22892492289559L100.740571875,90.46736127898228L101.26167187499999,97.48923250495473L101.5493625,126.06403847014359L102.065034375,28.77236316686148L102.705553125,75.21577233524287L102.857540625,78.94747586121854L103.1778,71.70358714503466L103.432921875,91.69922032580229L103.823746875,98.55485353445282L103.92688125,112.31415385549428L104.160290625,76.78084738182129L104.268853125,44.057450082662314L104.583684375,106.7597640713628L104.67596250000001,80.04889346523538L104.822521875,92.40030708728307L104.93651249999999,108.01035112232809L105.00165,147.4471466348023L105.083071875,148.27208924326007L105.104784375,146.30007866243147L105.1970625,142.8001402053413L105.392475,119.95222814678218L105.6096,147.33646181304692L105.788728125,89.00666156061155L106.385821875,75.75676112958388L106.6735125,97.5261218364354L106.69522500000001,60.17200172436134L106.8037875,88.44437381322322L107.069765625,60.704346565575264L107.22718125,46.55723912010839L107.4551625,-2.261767150023047L107.73199687500001,56.06131063636634L107.85684375,80.13697457752524L108.177103125,89.4592763370786L108.1933875,101.37088394879385L108.546215625,127.96458121569408L108.70363125,159.21866574147217L108.8881875,141.33241936917426L109.078171875,151.24453283958826L109.20301875,106.74274389910615L109.28986875,85.52872531990958L109.686121875,64.83602041431719L109.78925625,48.70847768641582L109.908675,98.05789572630572L110.35378125000001,81.62902005494188L111.119146875,69.02875923304092L111.477403125,64.07026164047915L111.5154,51.84379007208146L111.564253125,60.488435922788355L111.65653125,30.015140536662017L111.72166875,-16.6638344109638L111.7542375,43.171822537148984L112.074496875,77.30180351883071L112.34590312499999,99.80659202506085L112.601025,76.66697589419252L112.79643750000001,88.6956430585899L112.92671250000001,34.006227861546535L112.942996875,33.09264547668084L113.35010625,89.81854993726125L113.382675,54.25654615536517L113.54551875,103.46395410840819L113.59437187500001,63.67896180398331L113.616084375,111.22782992351294L113.648653125,75.91149984416309L114.14804062500001,96.86649645934668L114.15346874999999,114.12329983455041L114.19689375,142.02699199761213L114.21860625,36.80985549755056L114.310884375,94.87195637027713L114.658284375,88.16937222202799L114.76141875,121.0082744247924L114.945975,130.73945349974696L115.494215625,118.85296913299916L115.83618750000001,88.94029265431936L116.08588125,96.23333336783476L116.32471874999999,120.3521878672025L116.427853125,84.3111316890944L116.79153749999999,115.5897949297088L117.10636874999999,133.08821204655516L117.231215625,118.06822993767153L117.67089375,149.8984241033309L117.915159375,133.58009288378835L117.926015625,89.32066556017564L118.099715625,95.63422437628687L118.26798749999999,104.62023834459333L118.588246875,118.9628371640385L119.36446875,101.25453127092169L119.49474375,132.56262689828503L119.543596875,132.6527747352896L119.576165625,117.29903673569228L119.82585937500001,87.88901102209009L119.84214375,99.42595101791969L119.945278125,130.89148134826632L120.661790625,127.08807028237389L120.73778437499999,90.49668352347656L121.291453125,72.97744415924181L121.40544375,95.20836309626837L121.79626875,46.29695435385986L122.12738437499999,85.13882905654762L122.518209375,109.42777274695626L122.63762812499999,59.876996731644425L122.72990625,88.13725387804841L122.9796,112.36741983743391L123.16415624999999,129.35728008261452L123.516984375,102.11440169043024L123.810103125,39.555885238806496L123.951234375,36.19852154455191L123.978375,48.64602676829662L124.363771875,100.05479180296841L124.559184375,104.97832996138284L124.8251625,105.891099769801L125.16170625000001,114.51166202958231L125.16713437499999,137.2650837560642L125.351690625,131.06862994393597L125.427684375,95.05031758364572L125.655665625,85.00146280417762L126.5621625,79.28030436052832L126.730434375,117.85745159078017L126.914990625,113.00385226381844L127.24610625,68.55184213463282L127.3003875,9.868176421386863L127.501228125,63.47526070328327L127.54465312500001,90.47942511748337L127.68035625,106.35493755247832L127.7780625,47.75549922728521L127.78891875,82.2877760828176L127.913765625,77.96948388222687L127.91919375,88.68320007525185L127.924621875,84.40097699603817L127.94090625,131.71732898975245L128.04404062499998,118.98750875646769L128.234025,81.80659479849483L128.40229687500002,81.30851744186646L128.5162875,63.125097687473485L128.61399375000002,98.9817407183432L128.668275,124.24675759787857L129.151378125,68.7770738270809L129.227371875,98.18942062856335L129.3847875,126.88429023902566L129.422784375,94.96063906002612L129.4282125,125.77770659555142L129.585628125,79.79292873479413L129.639909375,41.15453601640951L129.748471875,84.50313421942292L130.1230125,87.5502579024881L130.388990625,96.94349581071434L130.56811875,65.88159687162657L130.7743875,56.00178470715613L131.376909375,86.62707484466667L131.5126125,48.48800762913328L131.528896875,26.743266354531244L131.57775,57.223146067379076L131.7297375,34.92337458112925L131.919721875,28.982637068305905L131.984859375,79.6220572078275L132.332259375,131.25863508487032L132.4245375,116.73992474936023L132.79364999999999,140.27277805842505L132.91306875,129.93386383317437L133.06505625,137.82430743850784L133.35817500000002,99.51739044791967L134.080115625,138.81320931001414L134.08554375,155.491988409463L134.601215625,149.57294832998718L134.84548125,152.38787066142285L135.502284375,145.08758979161894L135.54028125,111.2973121471424L136.218796875,112.47746541503383L136.479346875,113.71020411493369L136.832175,66.61298751260036L136.935309375,81.69397260800118L136.96245,66.72634091012745L137.087296875,81.02545243521377L137.206715625,73.50372174990086L137.32070625,70.00844397313541L137.68981875,92.65807737211672L137.977509375,91.26509110113159L138.292340625,56.4102020500909L138.531178125,94.11166179411474L138.55289062499997,73.4959856603515L138.68859375,76.84906695290238L139.692796875,72.69957386257546L139.77421875000002,113.54147982678194L139.790503125,135.4995257024847L139.90992187499998,147.17074063012296L139.942490625,91.57012476874965L140.203040625,112.940357059361L140.2844625,144.68280647404282L140.53415625000002,153.86812580550088L140.61015,174.1963838950259L140.669859375,114.16052570832545L140.7187125,106.84492938653294L140.96840625,123.02401781242489L141.028115625,135.28295855220995L141.060684375,168.66538582939012L141.38094375,113.96378391602502L141.527503125,157.09127154520473L141.65235,152.51335519892766L142.03231875,165.57617693549074L142.1517375,139.52547574086395L142.330865625,100.98057107951287L142.42314375,53.2102418789827L142.461140625,51.683861767226276L142.678265625,49.29542644519043L142.74883125,34.4401699366079L142.77597187499998,66.79747174949883L142.808540625,71.0625837332295L142.824825,132.92449751414577L143.2373625,119.92676657190555L143.242790625,50.85811256816366L143.253646875,73.90815041532346L143.48162812500001,94.63451158644891L143.49791249999998,93.00783454761189L143.666184375,110.64977473051518L143.81274375,149.3268695872893L143.82902812499998,133.3017204484465L143.85616875,97.5020269958847L144.16014375,68.59017750473853L144.24156562500002,106.51149802318436L144.29041875,143.24382573511932L144.301275,123.38288343437551L144.567253125,83.62703689230308L144.87665625000002,100.23551304514902L145.120921875,119.82742945378439L145.343475,129.9421036086008L145.414040625,140.23216537087313L145.41946875000002,101.95530773470294L145.53888750000002,97.21152545175646L145.566028125,79.0551987796726L145.6257375,31.138573521954015L146.22825937500002,44.475672686844376L146.34225,36.36410972560401L146.7113625,-33.61117598363782L146.716790625,-22.20302537847971L146.733075,73.09857824383525L146.738503125,62.7029855029087L146.999053125,99.50235855835481L147.129328125,127.76069662724615L147.30845625,160.40255667222348L147.444159375,93.17498111001339L147.845840625,91.92463249328746L148.062965625,60.57591868060641L148.106390625,77.30832584669874L148.280090625,99.85014419935554L148.35065625,118.01839372624403L148.69805625,94.08178129857448L149.050884375,118.74193090040885L149.17573125,79.82774079942347L149.3602875,89.74703350724963L149.376571875,41.434816497934975L149.40371249999998,37.19328996640826L149.767396875,62.14003784121503L149.865103125,76.25587922331547L150.2722125,80.6412770708215L150.483909375,106.20233242272207L150.4893375,131.04584846034967L151.341553125,104.35454545697762L151.569534375,88.78207919367865L151.5749625,94.71070010285807L151.92779062500003,138.75096849295238L151.960359375,83.6098079424664L152.068921875,99.46848119943728L152.101490625,117.56444014896587L152.21548125,100.16232769761267L152.24805,85.9513380432553L152.5737375,121.55192323750819L152.893996875,125.35529092287956L153.06769687500002,132.564107394234L153.10569375,113.35368700187344L154.2673125,104.35150411542816L154.403015625,131.90206315606773L154.47358125,145.89171880775655L154.620140625,167.32164117670436L154.6581375,160.52956297184852L154.717846875,117.51195715776579L154.7449875,140.41565780388214L154.78841250000002,133.4478213700467L154.86440625,132.08388750033464L155.01639375,139.49706471926106L155.390934375,133.55314064601737L155.40721875,137.53850376156777L155.6352,118.88327735392934L155.825184375,146.35638287700428L156.02602499999998,142.52034677090575L156.519984375,84.00920361492433L156.606834375,107.70742085107206L157.18764375,116.94814741926217L157.225640625,101.82256387263631L157.290778125,108.87815068517186L157.5676125,131.35359877956347L157.63275,138.36464728084664L158.12128125,138.97633875906942L158.13756562499998,108.7801857163537L158.9355,147.54855899632147L158.9572125,129.07927522631587L158.962640625,140.3182929967171L159.05491875,58.84301062113005L159.136340625,72.58154169531241L159.19062187499998,55.012225984403926L159.25033125,121.22360950839686L159.277471875,109.22992616970639L159.30461250000002,137.30473769155722L159.48916875,90.89020321635954L159.54345,85.14173921268315L159.68458125,59.171915413863275L159.928846875,57.39987115180102L160.05369375,79.25003250906232L160.330528125,103.96069334627805L160.46080312499998,101.62900861510609L160.5639375,118.96544798458999L160.63993125,69.08275029010801L160.819059375,92.21442692447046L161.4324375,101.27226034980023L161.698415625,85.1727065494518L162.13809375000002,63.316492246639385L162.197803125,82.56645112060608L162.306365625,67.94938826256856L162.632053125,110.35070239123026L162.70261875,115.8448512312749L162.90345937499998,96.07547549547628L163.01202187500002,107.2253180075201L163.07173125,130.5154137171415L163.53855,101.12746767742082L163.59283125,66.40619621600297L164.358196875,75.84396709954095L164.5590375,64.67051748805454L164.56989375,69.76150140190049L164.727309375,114.80467575206711L164.93900625,123.80906187344206L165.19955625,127.47327848383952L165.46010625,111.40517191951972L165.4709625,97.37419760743083L165.51438750000003,75.20242834400717L165.67723125,34.645014017690755L165.802078125,114.26078328482481L165.878071875,112.33690349057619L166.187475,116.39831313567542L166.708575,123.36011616236279L166.952840625,118.58543387162473L166.974553125,86.16614418292713L167.300240625,99.91261804738446L167.549934375,125.90753858470202L167.712778125,53.917269443571215L167.83219687500002,110.76515218124766L167.875621875,66.42446238501459L168.537853125,18.06301921230704L168.700696875,39.028043629460484L168.820115625,43.63461756014797L168.99924375,68.19911591591823L169.156659375,81.42803642977708L169.400925,55.8629963665968L169.612621875,94.20242042957342L170.079440625,110.1468206184224L170.47569375,114.82620401007625L170.611396875,132.0936416198176L170.6819625,136.57461202200423L170.730815625,69.80914568934543L171.1596375,65.0944679580154L171.479896875,52.52431011212005L172.098703125,71.42109249042751L172.180125,118.68733259841176L172.608946875,83.14257417204604L172.945490625,102.05311666776313L173.08119374999998,93.44113303134586L173.564296875,108.50795336709271L173.7651375,113.4271190095694L173.95512187499997,89.79379347535479L174.13424999999998,96.19597698592648L174.356803125,80.35181325282758L174.943040625,94.99498968684338L175.029890625,126.03266226866046L175.14388125,88.4415770666889L175.192734375,114.49500410738142L175.27958437499998,111.73299125621251L175.62155625,73.34578773849925L175.626984375,79.64254471942023L175.702978125,69.727355940844L176.30007187500001,98.286784794155L176.3706375,87.5143103279014L176.430346875,106.43605444097554L176.973159375,95.73864033180894L177.33684374999999,125.57788076614395L177.564825,102.91406381099456L178.42246875,35.621201586538746L178.87843125,18.938383995581233L178.88928750000002,60.97983579581299L179.10641249999998,92.94468228863865L179.11184062499999,88.53452024170075L179.11726875,82.04643317843467L179.20411875,15.792810436795094L179.274684375,24.453023765510295L179.28554062499998,4.137029648240031L179.822925,59.47047603552478L180.63714375,82.6103709921734L180.98454375,113.0680410575169L181.0171125,140.60725638735084L181.04968125,130.48571417809202L181.07139375,153.17215502707563L181.076821875,157.40853723554852L181.48393125,113.81879473131326L181.70105625,122.41871489128329L181.999603125,129.16047869349038L182.59126875,94.33760262861561L182.650978125,25.810433316239L182.69440312499998,86.50411935329933L182.954953125,86.2598129253417L183.085228125,64.44382356847301L183.302353125,89.95500843472269L183.31863750000002,125.16829235204253L183.486909375,152.53045833219008L183.54119062499998,120.53390566572895L183.5791875,103.44239148337851L183.67689375,96.5319337656451L183.986296875,60.861560023448035L184.094859375,96.6427884240674L184.11114375,92.00121709543829L184.225134375,134.8676384260557L184.691953125,88.85205311598195L185.1859125,99.25343525621382L185.19676875,108.36800265041842L185.37046875000001,116.0252103709848L185.468175,160.7576099576754L187.00433437499998,126.04690773937321L187.145465625,125.29193866840929L187.384303125,129.1730880097067L187.68285,139.94901035758946L188.01939375,157.5400485706315L188.08995937499998,119.56798675727762L188.58934687500002,51.324844998549935L188.7467625,55.52130894805882L188.958459375,46.46242531704442L189.31128750000002,86.36829447687194L190.478334375,116.64449605906324L190.90715625,135.50155995824525L191.0482875,158.15071276349977L191.16770625,145.20465985252355L191.270840625,125.15245339858865L191.379403125,135.08592978470523L191.40654375,109.91471727303465L191.49339375,114.64437266356825L191.55853125,118.59342317283398L191.64538124999999,143.00853137870777L191.791940625,131.49870508134455L192.161053125,121.91960953009183L192.42703125,141.4817197501583L192.497596875,101.81019920785765L192.541021875,105.83422451821689L193.05669375,131.59367005193866L193.44751875,103.6087421029685L193.626646875,134.82877327103682L193.66464374999998,149.2921709642764L193.713496875,121.51580965673664L193.98490312500002,149.68961485319778L194.0011875,178.08683125432398L194.115178125,153.84895854546266L194.180315625,106.1383896113652L194.28345000000002,65.4364577596119L194.38658437499998,92.6782588003912L195.124809375,76.50120235913033L195.56448749999998,88.71769760906517L195.569915625,108.95496071692199L195.754471875,92.23222946315542L195.85760624999998,91.49553981933715L196.10729999999998,109.8795188755615L196.498125,69.08270575746837L196.525265625,114.13529478795294L196.666396875,95.69546159478206L196.91609062499998,116.88012494865367L196.9975125,158.52694046431765L197.24177812500002,164.81848863323918L197.44261875,165.45714798506333L197.676028125,102.328190566716L197.78459062500002,105.00490188695038L197.817159375,113.33306869326259L197.887725,89.63481707051332L198.0397125,44.055597106665005L198.273121875,72.38978073599911L198.490246875,104.89872379861063L198.85393125,17.069893565347513L198.989634375,50.92125512753175L199.02763124999998,50.929545014665024L199.04934375000002,68.81510672344692L199.586728125,60.711500970764575L199.6030125,63.59510515227532L199.82013750000002,96.64847676810392L199.99383749999998,91.28768576496904L200.33038125,48.07634689796407L200.406375,106.18164203001123L200.49865312499998,113.63185848057111L200.50408124999998,114.13940004066532L200.7320625,104.64409148031021L201.269446875,103.37722988526151L201.41600625,101.79276936610617L202.2085125,113.75087740437235L202.496203125,80.51484370082247L203.082440625,104.03653060108203L203.14215000000002,150.5768116635667L203.80980937500001,119.21645558213712L204.13006875,126.96563722889934L204.330909375,132.40293395241886L204.4449,139.80631289315696L204.645740625,115.89359673718101L204.84115312499998,116.26395124311935L204.84658124999999,139.58452891577696L204.982284375,134.83365932267557L205.31882812499998,157.39851011730224L205.704225,83.642083076022L205.84535625,87.6390519583515L205.93763437500002,92.04828436638664L206.06248125000002,78.25424011229921L206.312175,78.51343790499044L206.665003125,107.42735566978261L206.703,98.38917493592466L206.746425,133.8658947970714L207.00697499999998,146.79904633519527L207.055828125,142.6263288721888L207.37608749999998,141.42242595347457L207.446653125,156.88359541968123L208.23373125,158.34634701773894L208.29886875000003,159.3743768197221L208.477996875,131.80459508867597L208.488853125,133.8811354850026L208.705978125,137.226918543237L209.05880625,141.42815411777747L209.4604875,125.40292951280745L209.715609375,143.14282403477952L209.911021875,125.77488708549096L210.06843750000002,139.68826086552951L210.22585312500001,128.94706923901248L210.29641875,110.17247893297201L210.312703125,120.54814699421439L210.670959375,65.6168806580511L210.68724375,48.46940384871607L210.920653125,76.12130002518599L211.13234999999997,87.75025826895298L211.18663125,135.86110275708077L211.202915625,103.21222980254355L211.49060625,120.60166549742297L212.20711875,136.94316933190868L212.245115625,116.59023555300261L212.25054375,119.00530729402081L212.288540625,123.7853557132223L212.64136875,71.01567447160915L212.79335625,79.5810766457035L212.85849374999998,69.35171388617245L212.929059375,67.19083329259009L212.96705625,39.360167011928496L213.406734375,76.23523090202328L213.5858625,112.95225686581165L213.607575,142.5478522822334L213.75413437499998,173.29656245778443L213.764990625,140.78467156372733L214.128675,148.52666167347988L214.253521875,98.03167862850046L214.63349062499998,97.42678829326799L214.68777187499998,43.698665453759276L214.78005,51.67533452934076L214.818046875,84.29889396603531L214.83433125000002,48.7468195742903L214.910325,26.690882197213455L214.97003437499998,75.19991758934198L215.708259375,90.1660643665286L215.9091,87.71799777239315L216.207646875,95.7294545866435L216.24564375,94.77663201276769L216.598471875,126.51850745787806L216.73417500000002,72.93572721706185L216.78302812500002,96.35132001932276L216.848165625,73.63495634652664L216.95129999999997,113.39338444068525L217.04357812499998,100.33098331924973L217.125,132.79017271103478L217.336696875,108.42263117731821L217.401834375,124.53978327493596L217.5375375,92.22154914288159L217.70038125000002,124.40368848809659L217.738378125,122.78746037742928L218.053209375,125.08888681567569L218.11291875,119.20682611368215L218.30290312500003,71.8210422176249L218.4060375,63.68313727248476L218.444034375,81.34962476175288L218.693728125,77.89964251248792L218.975990625,46.58751211481541L218.992275,64.27792590409868L219.182259375,95.88583317727063L219.551371875,100.23132396537193L219.68707500000002,136.27419400293505L219.87163124999998,149.83980462200768L219.887915625,143.27713491070665L220.170178125,97.74301134873468L220.17560625,80.52992729740764L220.289596875,66.63296921490087L220.58814375,95.13875385585497L220.734703125,104.55583018737875L221.060390625,126.2095100482971L221.06581875,110.1313312769336L221.20695,125.57194876593766L221.2720875,106.6286957974578L221.353509375,105.72066444846062L221.46207187500002,120.52337896441662L221.510925,111.59568529694425L221.55977812499998,122.21341440301623L221.722621875,67.5191112750063L221.9886,88.01250039299069L222.287146875,120.76720124141218L222.46084687500002,109.6391130863975L222.580265625,79.94776203906636L222.97651875,127.14250424708585L223.3999125,115.92240315599636L223.80159375,115.95385618561545L224.067571875,130.8687379651509L224.262984375,110.3613370911226L224.599528125,72.41407140032122L224.8763625,107.86281477174563L225.01749375,119.97951218343619L225.033778125,83.58965901249752L225.44631562499998,59.32395528781875L225.56030625000002,92.10165004945874L225.60373124999998,13.852140059175554L225.674296875,89.46194145486899L225.685153125,77.57992659453244L225.717721875,76.08710216548259L226.06512187500002,90.4451159699731L226.249678125,105.67339317782562L226.260534375,93.38893227249687L226.2659625,97.67081377786579L226.73278125000002,136.1491702112487L226.749065625,133.814979703005L226.895625,157.94472768949024L227.82383437500002,128.81950501032603L227.86183125,71.77443858441474L228.062671875,89.4223205474422L228.22008749999998,73.38438224558467L228.247228125,64.75574784933188L228.475209375,93.67687172169678L228.811753125,63.320939325145076L228.90403125,71.50791936488021L228.90945937499998,73.38376413208883L229.26771562500002,54.049296584264255L229.311140625,65.9051132479524L229.376278125,96.03011808867548L229.57711874999998,55.771569407435024L229.582546875,87.21032687214121L229.59883125000002,122.53574795834487L229.9570875,71.53247514155865L230.23935,58.901548084342664L230.32077187500002,89.07813916805834L230.40219375,89.5423057925907L230.48904375,105.19123264067612L230.559609375,104.56286212948903L230.74959374999997,129.5103297937787L230.852728125,163.92024756722907L230.890725,130.06924131663598L232.155478125,130.54255040378547L232.481165625,140.8527083549371L232.64400937500002,123.61995192886218L232.74714375,119.2125696531186L233.230246875,113.35833708393076L233.44194375,100.07829986382029L233.46365624999999,115.43246122023565L233.512509375,142.8990693439311L233.545078125,114.1922989258726L233.68078125,101.56620592889546L233.990184375,94.81390902410365L234.22359375,115.9333480577295L234.78269062500001,99.9965282031273L235.11380625,88.93802115212135L235.227796875,131.64883432521574" style="fill: none;" fill="none"></path></g></g></g></g><g opacity="0.2"><g><g><g><path stroke="rgb(255, 112, 67)" stroke-width="2px" d="M36.211021875,-38.7772838672002L36.42271875,42.853277881940244L36.498712499999996,58.846290866533934L36.83525625,-9.133743782838167L37.068665625,-9.696294407049777L37.1066625,26.11921375989914L37.3672125,29.09516986211142L37.437778125,152.3753873606523L37.568053125,151.92488676309586L37.8014625,125.90196774403256L37.844887500000006,160.57369233171147L38.110865624999995,130.58572333057722L38.186859375,52.011224587758406L38.2791375,103.93359806140265L38.31170625,168.30532000462216L38.463693750000004,151.25164882342023L39.055359375,-65.50790423154828L39.196490624999996,141.07782290379208L39.429899999999996,57.65780156850816L39.7121625,127.26325761278471L39.91843125,3.927623192469298L40.330968750000004,180.71257095535597L40.770646875,133.1665664513906L41.069193750000004,149.052379488945L41.085478124999995,120.53892260789871L41.161471875,-23.26168868939081L41.183184375,-48.32528833548224L41.443734375,42.505361596743285L41.48173125,-2.7431264917055387L41.72056875,44.12259207169217L41.883412500000006,74.34389239549638L42.192815624999994,187.87542056043944L42.35023125,-20.87433590491611L42.43708125,124.53165174523991L42.523931250000004,-18.986262917518587L42.82790625,61.28428375720979L43.104740625,171.97246373693147L43.202446875,-1.2800142566362638L43.2513,144.2896745701631L43.33815,18.23228096961975L43.354434375,53.25011954704921L43.593271875000006,105.61697131395341L43.93524375,161.11508430043858L44.0546625,66.38861890633902L44.070946875,86.7084890206655L44.114371874999996,88.94459551572801L44.331496875000006,54.48066240549089L44.423775,84.88409713904063L44.494340625,85.73533739646278L44.97744375,140.19115215539932L45.30313125000001,130.12829195459685L45.797090625,79.75074942906699L45.862228124999994,105.11931797862054L46.035928125,95.96875628829004L46.068496875,69.33576758702597L46.177059375000006,92.19515990217528L46.2042,139.35644026597342L46.448465625,40.41815694173178L46.513603125,201.212582697471L46.703587500000005,101.93413442373277L46.893571875,100.55770820379259L46.899,88.3355954885483L47.14869375000001,-5.134699285030365L47.240971875,127.69229184587797L47.251828125,55.441447059313475L47.27896875,84.34027280410132L47.414671874999996,46.05348056554794L47.4201,79.52266381184262L47.485237500000004,4.430624802907346L47.512378125,104.17402134339015L47.66979375,168.31195772687593L47.751215625,61.77793687582019L47.783784374999996,156.1959166924159L48.500296875,127.12453947464627L48.798843749999996,42.98644260565442L49.064821875,192.65456593036652L49.64563125,43.75975922743481L50.031028125,43.05475399891537L50.269865625,42.51948690414429L50.416425000000004,180.2877860367298L50.432709375,-39.661873916784884L50.747540625,30.791789253552764L51.084084374999996,61.64972480138145L51.458625,142.0312371949355L51.53461875,110.98127659161887L51.545475,83.22024142742158L51.550903125,159.22601492206257L51.865734374999995,89.97651955485345L52.815656249999996,69.89198819796245L53.467031250000005,107.64922793706259L53.5647375,-6.836593687534304L53.575593749999996,121.78419153889021L53.847,192.76059365272522L54.150975,87.61962995926541L54.232396875,156.60618067781132L54.514659375,61.70127338171007L54.62864999999999,-8.956327577431978L54.666646875,121.13968775669736L55.24745625,160.0552906195323L55.399443749999996,105.29235299428305L55.55143125,215.29502330720425L55.833693749999995,-154.09242514769227L56.1702375,63.30074465274812L56.70219375,107.3311740756035L56.870465625,-26.470946808656038L56.897606249999995,-28.005623360474885L57.288431249999995,171.48703084389368L57.358996875,-27.70861093203223L57.369853125000006,-8.207393229007721L57.80953125,104.23497702678046L58.308918750000004,165.4235375026862L58.401196875000004,61.87619860967003L58.5151875,134.49726125597954L59.047143750000004,33.65107969443005L59.24255625,112.47250756621361L59.26426875,52.46865596373877L59.30769375,80.02364333470665L59.709375,145.42863737543425L59.91564375,147.95358003179234L59.991637499999996,104.38607678810756L60.19790625,93.75018920501076L60.263043749999994,47.56521081924441L60.491025,201.57894686857858L60.908990625,214.78218233585358L60.925275000000006,47.38624141613644L61.3378125,54.4790799021721L61.348668749999995,138.437254935503L61.6417875,88.43951320648195L61.793775,108.05667858322462L62.363728125,167.18139098087946L62.852259375,49.21819414695105L62.939109375,33.07569320996603L63.015103124999996,21.585839947064756L63.34621875,224.7356300155322L64.046446875,212.25691731770834L64.67068125,42.04209840297699L64.75210312499999,187.45393252372742L64.99094062500001,61.90808312098187L65.45233125,153.1833432217439L65.544609375,86.2900341153145L65.56089375,92.42967810233435L65.75630625,9.45738798379901L65.794303125,-126.0733247200647L65.989715625,141.77347964048386L66.10370625,95.00079175829889L66.44024999999999,139.82206256190938L66.5488125,31.722799400488555L67.151334375,22.771633128325163L67.20561562500001,82.16040378808977L67.58015625,122.89825922250749L67.650721875,111.03700122237207L67.683290625,-94.90955575307203L67.75385625,-80.92016780376429L68.063259375,106.9910091261069L68.18810625,91.32142758369447L68.215246875,100.5722291370233L68.53550625000001,204.0059648056825L68.66578125,38.43891417980197L69.18688125,67.70663903156918L69.31715625000001,118.8437684973081L69.610275,-8.639709691206576L69.767690625,81.23613393306732L70.06080937499999,182.988987326622L70.27250624999999,125.97882172465324L70.28879062499999,111.63445483644804L70.353928125,131.2413192888101L70.5222,35.0726951758067L71.086725,110.08930152654649L71.13015,5.1392932335535875L71.211571875,195.9206036825975L71.7381,-24.684066116809817L71.87923125,60.428501129150405L71.99865,50.66744482517245L72.49803750000001,51.11365214983624L72.54146250000001,180.9733323355516L72.764015625,48.493466238180815L73.09513125,122.73200845718384L73.26340312500001,118.53702660401663L73.610803125,51.647219518820464L73.76279062500001,-33.826627373695345L73.76821875,153.16469019651413L73.871353125,141.5953014890353L73.9962,42.87282472848895L74.099334375,76.86511323849362L74.3653125,59.63387932380043L74.41959375,145.05397971471152L74.435878125,188.97606627146402L74.5173,144.16218048334122L74.69642812500001,33.26289749145508L75.65177812499999,82.9770341118177L75.684346875,202.5077883998553L76.04803125000001,96.81173236171406L76.20001875,130.24916297197342L76.2543,20.569345315297483L76.44428437500001,45.16141758362454L76.80796874999999,56.239439010620146L76.98166875,88.18012919028601L77.301928125,99.73247668147089L77.4919125,143.3035112520059L77.70903750000001,53.21975892782214L78.32784375,146.95374564329785L78.517828125,47.29852970441186L78.550396875,148.4703699350357L78.9249375,96.81942508618039L79.163775,-7.9233045776684605L79.34833125,201.67093720038733L79.39718437500001,162.6823486983776L79.885715625,108.51758267482123L79.902,148.61544739206633L80.0539875,0.8385474085808085L80.10826875,105.57116663455965L80.42309999999999,81.42852530876797L80.613084375,112.90532222390175L80.797640625,86.11106471220653L81.123328125,134.06847612063092L81.796415625,142.66721304257712L81.81269999999999,196.25755966703096L82.116675,6.856924752394377L82.25780625,112.31151715914409L82.274090625,87.775740981102L82.38808125,69.5559406876564L82.426078125,-4.987262725830078L82.740909375,4.272696832815825L82.773478125,95.42885890603067L83.07745312499999,128.53535583615303L84.0056625,56.28776397307715L84.043659375,135.1292368868987L84.19021875,190.64462553461394L84.49419375,63.349333365758284L84.66789375,53.1023899316788L85.01529375000001,205.25820847352347L85.03157812500001,84.05023511250816L85.140140625,124.85688548286757L85.31926874999999,31.386312305927277L85.748090625,84.0575615167618L85.78608750000001,34.35318366686505L85.85665312500001,50.137716492017134L85.976071875,-8.367255369822146L86.182340625,72.68575127919517L86.34518437499999,106.20947227875394L86.47003125,118.02672789494198L86.5677375,3.1966824928919664L86.94770625,133.98080836733183L87.354815625,148.31272036830586L87.702215625,123.42395803332329L88.05504375,57.14407410224281L88.5218625,46.940678815046965L88.66299375000001,84.34408253431322L89.11895625,-21.762589156627655L89.70519374999999,48.974019745985686L89.743190625,188.86444117625555L90.35656875,109.01413704951605L90.372853125,76.58495153983435L90.48684374999999,71.43577879667284L90.807103125,97.43818388382596L90.861384375,11.877299308776884L90.88309687499999,178.15139190355936L91.0405125,129.43621050318083L91.219640625,-3.090573887030274L91.501903125,48.48276968797052L91.59418125,32.237112979094206L91.670175,91.09822135170302L91.757025,71.81423153479895L91.849303125,98.89328103264174L92.066428125,133.09040115276974L92.316121875,183.49777679642042L92.32155,112.46736443042755L92.44096875000001,-30.276193261146545L92.630953125,144.4550168613593L92.68523437500001,95.42940105994543L92.772084375,97.4881792664528L92.82093750000001,100.33699294924737L92.89693125,94.11817983786267L93.1032,-36.9194249709447L93.119484375,133.87023827433586L93.304040625,85.02045617500941L93.325753125,-98.91850554943079L93.45060000000001,149.60577210783958L93.48316875,90.5551882684231L93.49402500000001,87.44180347522102L93.71114999999999,40.39869801203412L93.74371875,129.98749311765036L93.814284375,82.59978290398917L93.841425,134.21334843834242L94.18882500000001,114.62270464499792L94.291959375,115.19073541959128L94.3408125,182.07746541500092L94.585078125,124.84762490789097L94.709925,52.11224104960762L94.72078124999999,176.56247065464655L94.726209375,105.1317142546177L95.04646875,27.661920050779997L95.909540625,145.6944686273734L96.19723124999999,179.99823188781738L96.30579374999999,86.54033339023592L96.474065625,48.119174897670746L96.52291875,35.068797528743744L96.61519687500001,191.74064095815024L96.707475,137.90138707558316L96.87574687499999,197.81423008441925L97.15258125,161.14375984668732L97.277428125,91.04098748167357L97.35342187500001,-14.61257541179657L97.755103125,23.261505822340666L98.373909375,72.09541893005373L98.895009375,87.30588402350745L98.92215,114.54498614867529L99.1175625,-5.881933907667758L99.285834375,166.73174024621648L99.81236249999999,30.332511623700498L99.95349374999999,159.4234468638897L99.97520625,77.45837614933652L100.06205625,55.37058607737225L100.29003750000001,47.53687228759131L100.6374375,151.70710207025212L100.653721875,62.324134965737684L100.740571875,98.32501581311227L101.26167187499999,108.0220393439134L101.5493625,168.9262474179268L102.065034375,-117.16514978806168L102.705553125,144.88088608781499L102.857540625,84.54503115018211L103.1778,60.837754070758834L103.432921875,121.69267009695372L103.823746875,108.83830334742865L103.92688125,132.9531043370565L104.160290625,23.480887671311734L104.268853125,-5.027645866076114L104.583684375,200.81323505441347L104.67596250000001,39.98258755604428L104.822521875,110.9274275203546L104.93651249999999,131.4254171748956L105.00165,206.60233990351358L105.083071875,149.50950315594673L105.104784375,143.34206279118857L105.1970625,137.5502325197061L105.392475,85.68036005894344L105.6096,188.41281231244406L105.788728125,1.5119611819585543L106.385821875,55.88191048304242L106.6735125,130.18016289671263L106.69522500000001,4.140821556250273L106.8037875,130.85293194651604L107.069765625,19.09430569410327L107.22718125,25.33657795190814L107.4551625,-75.49027655522025L107.73199687500001,143.5459273159504L107.85684375,116.25047048926353L108.177103125,103.44272897640866L108.1933875,119.23829536636671L108.546215625,167.85512711604437L108.70363125,206.0997925301393L108.8881875,114.50304981072745L109.078171875,166.11270304520926L109.20301875,39.990060488382994L109.28986875,53.70769745111468L109.686121875,33.79696305592856L109.78925625,24.51716359456384L109.908675,172.08202278614044L110.35378125000001,56.985706547896086L111.119146875,50.12836800018947L111.477403125,56.63251525163652L111.5154,33.504082719484984L111.564253125,73.45540469884874L111.65653125,-15.694802542527498L111.72166875,-86.68229683240247L111.7542375,132.92530795931816L112.074496875,128.49677499135336L112.34590312499999,133.56377478440604L112.601025,41.95755169788998L112.79643750000001,106.73864380518597L112.92671250000001,-48.027894934018406L112.942996875,31.722271899382292L113.35010625,174.90740662813187L113.382675,0.9135404825210856L113.54551875,177.27506603797278L113.59437187500001,4.001473347346007L113.616084375,182.55113210280737L113.648653125,22.937004725138365L114.14804062500001,128.29899138212204L114.15346874999999,140.00850489735603L114.19689375,183.88253024220467L114.310884375,181.96510767936707L114.658284375,78.11549599965414L114.76141875,170.26662772893906L114.945975,145.3362221121788L115.494215625,101.02324258287749L115.83618750000001,44.07127793629968L116.08588125,107.17289443810782L116.32471874999999,156.53046961625418L116.427853125,30.24954742193222L116.79153749999999,162.50778979063034L117.10636874999999,159.33583772182465L117.231215625,95.53825677434605L117.67089375,197.64371535182L117.915159375,109.10259605447452L117.926015625,22.931524574756622L118.099715625,105.1045626004537L118.26798749999999,118.09925929705304L118.588246875,140.4767353932063L119.36446875,74.69207243124646L119.49474375,179.52477033933005L119.543596875,132.78799649079642L119.576165625,94.26842973629635L119.82585937500001,43.77397245168689L119.84214375,116.73136101166409L119.945278125,178.08977684378624L120.661790625,121.38295368353528L120.73778437499999,35.60960338513058L121.291453125,46.69858511288962L121.40544375,128.55474150180817L121.79626875,-27.07015875975287L122.12738437499999,143.4016411105792L122.518209375,145.86118828256926L122.63762812499999,-14.449167291323306L122.72990625,130.52763959765434L122.9796,148.71266877651215L123.16415624999999,154.84207045038542L123.516984375,61.25008410215379L123.810103125,-54.28188943862912L123.951234375,31.162476003170042L123.978375,67.31728460391363L124.363771875,177.16793935497603L124.559184375,112.3636371990045L124.8251625,107.26025448242825L125.16170625000001,127.4425054192543L125.16713437499999,171.39521634578705L125.351690625,121.77394922574362L125.427684375,41.022849043210385L125.655665625,69.92818063497545L126.5621625,70.69856669505438L126.730434375,175.72317243615785L126.914990625,105.72345327337584L127.24610625,1.8738269408544284L127.3003875,-78.15732214848197L127.501228125,143.8858871261279L127.54465312500001,130.98567173878354L127.68035625,130.1682062049707L127.7780625,-40.14365826050437L127.78891875,134.08619136611622L127.913765625,71.4920455813408L127.91919375,104.75377436478934L127.924621875,77.97764237721763L127.94090625,202.6918569803238L128.04404062499998,99.89277840654057L128.234025,26.035223861535428L128.40229687500002,80.56140140692395L128.5162875,35.84996805588406L128.61399375000002,152.7667052646478L128.668275,162.14428291718164L129.151378125,-14.427451829115512L129.227371875,142.30794083078703L129.3847875,169.92659465471903L129.422784375,47.07516229152682L129.4282125,172.00330789883932L129.585628125,10.81576194365823L129.639909375,-16.80305306116736L129.748471875,149.52603152394295L130.1230125,92.12094342708589L130.388990625,111.03335267305374L130.56811875,19.28874846299493L130.7743875,41.1820664604505L131.376909375,132.56501005093259L131.5126125,-8.72059319416681L131.528896875,-5.873845557371737L131.57775,102.94296563665073L131.7297375,1.4737173517545443L131.919721875,20.071530799071013L131.984859375,155.58118741710982L132.332259375,208.7135019004345L132.4245375,94.96185924609505L132.79364999999999,175.57205802202225L132.91306875,114.42549249529839L133.06505625,149.65997284650803L133.35817500000002,42.05701496203744L134.080115625,197.75693760315576L134.08554375,180.51015705863634L134.601215625,140.69438821077347L134.84548125,156.61025415857634L135.502284375,134.13716848691305L135.54028125,60.61189568042758L136.218796875,114.24769531687102L136.479346875,115.55931216478348L136.832175,-4.03283739089963L136.935309375,104.31545025110246L136.96245,44.27489336331689L137.087296875,102.47411972284318L137.206715625,62.22112572193147L137.32070625,64.76552730798723L137.68981875,126.63252747058868L137.977509375,89.17561169465384L138.292340625,4.127868473529844L138.531178125,150.66385141015053L138.55289062499997,42.572471459706634L138.68859375,81.87868889172873L139.692796875,66.47533422708511L139.77421875000002,174.80433877309164L139.790503125,168.4365945160389L139.90992187499998,164.6775630215804L139.942490625,8.169200976689666L140.203040625,144.99570549527806L140.2844625,192.29648059606552L140.53415625000002,167.64610480268797L140.61015,204.68877102931341L140.669859375,24.10673842827481L140.7187125,95.87153490384422L140.96840625,147.2926504512628L141.028115625,153.6713696618875L141.060684375,218.73902674516043L141.38094375,31.911381045977294L141.527503125,221.78250298897424L141.65235,145.64648067951202L142.03231875,185.17040954033533L142.1517375,100.44942394892377L142.330865625,43.163214087486296L142.42314375,-18.445251921812655L142.461140625,49.3942915995916L142.678265625,45.712773462136596L142.74883125,12.157285173734067L142.77597187499998,115.3334244688352L142.808540625,77.46025170882545L142.824825,225.71736818552017L143.2373625,100.4301701585452L143.242790625,-52.7448684374491L143.253646875,108.48320718606314L143.48162812500001,125.72405334313711L143.49791249999998,90.56781898935637L143.666184375,137.11268500487012L143.81274375,207.3425118724505L143.82902812499998,109.26399674018225L143.85616875,43.80248681704205L144.16014375,25.222403268019377L144.24156562500002,163.3934788008531L144.29041875,198.34231730302176L144.301275,93.59146998325986L144.567253125,23.993267079194425L144.87665625000002,125.14822727441788L145.120921875,149.2153040667375L145.343475,145.1141148408254L145.414040625,155.6672580142816L145.41946875000002,44.54002128044766L145.53888750000002,90.09585202733678L145.566028125,51.820708771546705L145.6257375,-40.736364364623995L146.22825937500002,64.48132143417996L146.34225,24.19676528374356L146.7113625,-138.57410454750055L146.733075,216.05098367730776L146.738503125,47.10959639151892L146.999053125,154.70141814152402L147.129328125,170.1482037305832L147.30845625,209.3653467396895L147.444159375,-7.666382233301789L147.845840625,90.04910956819855L148.062965625,13.552847961584746L148.106390625,102.4069365958373L148.280090625,133.6628717283408L148.35065625,145.27076801657677L148.69805625,58.176862657070174L149.050884375,155.73215530316037L149.17573125,21.456455647945432L149.3602875,104.62597256898881L149.376571875,-31.03350901603696L149.40371249999998,30.831000169118283L149.767396875,99.56015965342523L149.865103125,97.42964129646622L150.2722125,87.21937384208044L150.483909375,144.54391545057297L150.4893375,168.31112251679104L151.341553125,64.31759095191958L151.569534375,65.42337979873024L151.5749625,103.60363146662714L151.92779062500003,204.81137107809386L151.960359375,0.8980671167373941L152.068921875,123.25649108489355L152.101490625,144.70837857325873L152.21548125,74.05915902058285L152.24805,64.63485356171928L152.5737375,174.95280102888742L152.893996875,131.06034245093664L153.06769687500002,143.3773321012656L153.10569375,84.53805641333263L154.2673125,90.84822978576025L154.403015625,173.22790171702704L154.47358125,166.87620228528976L154.620140625,199.46652473012605L154.6581375,150.3414456645648L154.717846875,52.98554843664172L154.7449875,174.77120877305666L154.78841250000002,122.9960667192936L154.86440625,130.03798669576645L155.01639375,150.61683054765066L155.390934375,124.63725453615189L155.40721875,143.5165484348933L155.6352,90.90043774247171L155.825184375,187.56604116161665L156.02602499999998,136.76629261175793L156.519984375,-3.757511119047763L156.606834375,143.25474670529366L157.18764375,130.80923727154732L157.225640625,79.13418855269752L157.290778125,119.46153090397519L157.5676125,165.06677092115083L157.63275,148.88122003277144L158.12128125,139.89387597640356L158.13756562499998,63.485956152280195L158.9355,205.70111891627312L158.9572125,101.37534957130751L158.962640625,157.17681965231895L159.05491875,-63.36991294225055L159.136340625,93.18933830658595L159.19062187499998,28.658252418041258L159.25033125,220.5406847943862L159.277471875,91.2394011616707L159.30461250000002,179.41695497433344L159.48916875,21.268401503562956L159.54345,76.5190432071686L159.68458125,20.21717971563342L159.928846875,54.7418047587077L160.05369375,112.02527454495431L160.330528125,141.02668460210165L160.46080312499998,98.13148151834807L160.5639375,144.97010703881583L160.63993125,-5.741296251614841L160.819059375,126.91194187601408L161.4324375,114.85901048779489L161.698415625,61.02337584892909L162.13809375000002,30.532170792420743L162.197803125,111.44138943155608L162.306365625,46.023793975512206L162.632053125,173.9526735842228L162.70261875,124.08607449134192L162.90345937499998,66.42141189177833L163.01202187500002,123.95008177558583L163.07173125,165.45055728157362L163.53855,57.04554861783983L163.59283125,14.32428902387619L164.358196875,90.00062342484793L164.5590375,47.91034307082495L164.56989375,77.3979772726695L164.727309375,182.36943727731705L164.93900625,137.3156410555045L165.19955625,132.9696033994357L165.46010625,87.30301207304002L165.4709625,76.32773613929749L165.51438750000003,41.94477444887161L165.67723125,-26.191107471783937L165.802078125,233.6844371855259L165.878071875,109.45108379920325L166.187475,122.49042760332426L166.708575,133.80282070239386L166.952840625,111.42341043551764L166.974553125,37.53720964988074L167.300240625,120.53232884407043L167.549934375,164.8999193906784L167.712778125,-54.06813426812485L168.537853125,-54.47914554675418L168.700696875,70.47558025519055L168.820115625,50.54447845617932L168.99924375,105.04586344957353L169.156659375,101.27141720056535L169.400925,17.515436271826445L169.612621875,151.71155652403831L170.079440625,134.0634209016959L170.47569375,121.84527909755707L170.611396875,157.99479803442955L170.6819625,143.2960676252842L170.730815625,-30.339053809642763L171.1596375,58.022451361020416L171.479896875,33.66907334327698L172.098703125,99.76626605788869L172.180125,189.58669276038805L172.608946875,29.825436532497406L172.945490625,130.4189304113388L173.08119374999998,80.52315757671994L173.564296875,131.10818387071294L173.7651375,120.80586747328442L173.95512187499997,54.343805174032866L174.13424999999998,105.79925225178401L174.356803125,56.58556765317918L174.943040625,116.95975433786711L175.029890625,172.58917114138603L175.14388125,32.05494926373166L175.192734375,153.57514466842017L175.27958437499998,107.58997197945914L175.62155625,15.76498246192935L175.626984375,89.08768019080163L175.702978125,54.85457277297975L176.30007187500001,141.12592807412148L176.3706375,71.35559862852098L176.430346875,134.81867061058682L176.973159375,79.69251916805905L177.33684374999999,170.3367414176464L177.564825,68.91833837827049L178.42246875,-65.31809175014496L178.87843125,-6.0858423908551345L178.88928750000002,124.04201349616052L179.10641249999998,140.89195202787718L179.11184062499999,81.9192771712939L179.11726875,72.31430258353552L179.20411875,-83.58762367566419L179.274684375,37.44334375858307L179.28554062499998,-26.336961527665437L179.822925,142.47064561645192L180.63714375,117.32021342714629L180.98454375,158.7545461555322L181.0171125,181.91607938210169L181.04968125,115.30340086420378L181.07139375,187.2018163005511L181.076821875,163.76311054825783L181.48393125,48.434180974960356L181.70105625,135.3185951312383L181.999603125,139.273124396801L182.59126875,42.103288531303406L182.650978125,-76.98032065232587L182.69440312499998,177.54464840888977L182.954953125,85.89335328340532L183.085228125,31.719839533170102L183.302353125,128.22178573409718L183.31863750000002,177.98821822802225L183.486909375,193.5737073024114L183.54119062499998,72.53907666603726L183.5791875,77.80512020985287L183.67689375,86.16624718904497L183.986296875,7.355999410152464L184.094859375,150.31463102499646L184.11114375,85.03886010249457L184.225134375,199.1672704219818L184.691953125,19.828675150871305L185.1859125,114.85550846656164L185.19676875,122.0398537417253L185.37046875000001,127.51102195183437L185.468175,227.85620933771133L187.00433437499998,73.98085441191994L187.145465625,124.15948506196341L187.384303125,134.99481202165288L187.68285,156.1128938794136L188.01939375,183.92660589019457L188.08995937499998,62.60989403724672L188.58934687500002,-51.0398676395416L188.7467625,61.8160048723221L188.958459375,32.87409987052283L189.31128750000002,146.22709821661314L190.478334375,162.05879843235016L190.90715625,163.78715580701828L191.0482875,192.12444197138151L191.16770625,125.78558048605919L191.270840625,95.07414371768635L191.379403125,149.98614436388016L191.40654375,72.15789850552878L191.49339375,121.73885574936867L191.55853125,124.51699893673262L191.64538124999999,179.63119368751845L191.791940625,114.23396563529968L192.161053125,107.55096620321275L192.42703125,170.82488508025804L192.497596875,42.302918394406646L192.541021875,111.87026248375575L193.05669375,170.23283835252127L193.44751875,61.631350179513305L193.626646875,181.65882002313933L193.66464374999998,170.98726750413576L193.713496875,79.85126769542696L193.98490312500002,191.95032264788946L194.0011875,220.6826558560133L194.115178125,117.49214948217076L194.180315625,34.572536210219084L194.28345000000002,4.383559981981932L194.38658437499998,133.5409603615602L195.124809375,52.235617697238936L195.56448749999998,107.04244048396747L195.569915625,139.31085537870726L195.754471875,67.14813258250557L195.85760624999998,90.39050535360974L196.10729999999998,137.455487459898L196.498125,7.887486080328642L196.525265625,181.71417833367983L196.666396875,68.03571180502574L196.91609062499998,148.65711997946104L196.9975125,220.99716373781362L197.24177812500002,174.25581088662148L197.44261875,166.4151370127996L197.676028125,7.634754439195035L197.78459062500002,109.01996886730196L197.817159375,125.82531890273094L197.887725,54.08743963638943L198.0397125,-24.313232839107485L198.273121875,114.89105618000032L198.490246875,153.6621383925279L198.85393125,-114.6733517845471L198.989634375,101.69829747080804L199.02763124999998,50.94197984536491L199.04934375000002,95.64344928661984L199.586728125,48.556092341740964L199.6030125,67.92051142454149L199.82013750000002,146.22853419184685L199.99383749999998,83.24649926026663L200.33038125,-16.740661402543367L200.406375,193.33958472808203L200.49865312499998,124.80718315641086L200.50408124999998,114.90071238080662L200.7320625,90.40112863977751L201.269446875,101.4769374926885L201.41600625,99.41607858737311L202.2085125,131.68803946177167L202.496203125,30.66079314549765L203.082440625,139.31906095147133L203.14215000000002,220.3872332572937L203.80980937500001,72.17592145999275L204.13006875,138.58940969904265L204.330909375,140.55887903769812L204.4449,150.91138130426407L204.645740625,80.02452250321707L204.84115312499998,116.81948300202689L204.84658124999999,174.56539542476335L204.982284375,127.70735493302347L205.31882812499998,191.24578630924225L205.704225,-26.992557485898317L205.84535625,93.63450528184575L205.93763437500002,98.66213297843935L206.06248125000002,57.563173731168135L206.312175,78.9022345940272L206.665003125,150.79823231697083L206.703,84.8319038351377L206.746425,187.08097458879152L207.00697499999998,166.19877364238104L207.055828125,136.36725267767906L207.37608749999998,139.6165715754032L207.446653125,180.07534961899123L208.23373125,160.54047441482544L208.29886875000003,160.91642152269682L208.477996875,90.44992249210677L208.488853125,136.99594607949257L208.705978125,142.24559313058853L209.05880625,147.7300074795882L209.4604875,101.36509260535242L209.715609375,169.75266581773758L209.911021875,99.72298166155817L210.06843750000002,160.5583215355873L210.22585312500001,112.83528179923695L210.29641875,82.0105934739113L210.312703125,136.11164908607802L210.670959375,-16.78001884619394L210.68724375,22.74818863471353L210.920653125,117.59914428989093L211.13234999999997,105.19369563460351L211.18663125,208.02736948927244L211.202915625,54.238920370737716L211.49060625,146.68581903974217L212.20711875,161.45542508363724L212.245115625,86.06083488464357L212.25054375,122.62791490554811L212.288540625,130.9554283420245L212.64136875,-8.13884739081061L212.79335625,92.4291799068451L212.85849374999998,54.00766974687578L212.929059375,63.94951240221661L212.96705625,-2.3858324090639655L213.406734375,131.54782673716545L213.5858625,168.0277958114942L213.607575,186.94124540686607L213.75413437499998,219.41962772111097L213.764990625,92.01683522264163L214.128675,160.13964683810872L214.253521875,22.28920406103137L214.63349062499998,96.51945279041927L214.68777187499998,-36.89351880550382L214.78005,63.64033814271292L214.818046875,133.23423312107724L214.83433125000002,-4.581292013327271L214.910325,-6.393023868401798L214.97003437499998,147.96347067753476L215.708259375,112.61528453230859L215.9091,84.04589788118999L216.207646875,107.74663980801901L216.24564375,93.34739815195402L216.598471875,174.1313206255436L216.73417500000002,-7.438443144162477L216.78302812500002,131.47470922271413L216.848165625,39.56041083733243L216.95129999999997,173.03102658192316L217.04357812499998,80.7373816370964L217.125,181.4789567987124L217.336696875,71.87131887674333L217.401834375,148.71551142136258L217.5375375,43.74419794480008L217.70038125000002,172.67689750591913L217.738378125,120.36311821142833L218.053209375,128.54102647304535L218.11291875,110.38373506069183L218.30290312500003,0.7423663735389994L218.4060375,51.47627985477449L218.444034375,107.84935599565506L218.693728125,72.7246691385905L218.975990625,-0.3806834816932394L218.992275,90.81354658802351L219.182259375,143.2976940870285L219.551371875,106.7495601475239L219.68707500000002,190.33849905927977L219.87163124999998,170.1882205506166L219.887915625,133.4331303437551L220.170178125,29.44182600577676L220.17560625,54.71030122041704L220.289596875,45.787532091140775L220.58814375,137.8974308172862L220.734703125,118.68144468466441L221.060390625,158.69002983967465L221.06581875,86.01406311988832L221.20695,148.7328749994437L221.2720875,78.213816344738L221.353509375,104.35861742496492L221.46207187500002,142.72745073835057L221.510925,98.20414479573569L221.55977812499998,138.14000806212425L221.722621875,-14.52234341700867L221.9886,118.75258406996727L222.287146875,169.89925251404446L222.46084687500002,92.94698085387549L222.580265625,35.41073546806973L222.97651875,197.93461755911508L223.3999125,99.09225151936215L223.80159375,116.00103573004407L224.067571875,153.2410606344541L224.262984375,79.60023578008018L224.599528125,15.49317286411923L224.8763625,161.03592982888222L225.01749375,138.15455830097198L225.033778125,29.004879256089538L225.44631562499998,22.925399700800597L225.56030625000002,141.2681921919187L225.60373124999998,-103.52212492624909L225.674296875,202.87664354840913L225.685153125,59.75690430402757L225.717721875,73.84786552190782L226.06512187500002,111.98213667670888L226.249678125,128.51580898960432L226.260534375,74.96224091450375L226.2659625,104.0936360359192L226.73278125000002,193.86670486132303L226.749065625,130.3136939406395L226.895625,194.13934966921806L227.82383437500002,85.13167099157971L227.86183125,-13.793161054452241L228.062671875,115.89414349198341L228.22008749999998,49.327474792798384L228.247228125,51.81279625495277L228.475209375,137.0585575302442L228.811753125,17.78704073031747L228.90403125,83.788389424483L228.90945937499998,76.19753128290178L229.26771562500002,25.047595262527466L229.311140625,83.68883824348451L229.376278125,141.21762534976006L229.57711874999998,-4.616253614425631L229.582546875,134.36846306920052L229.59883125000002,175.5238795876503L229.9570875,-4.972434083620698L230.23935,39.955157498518645L230.32077187500002,134.34302579363188L230.40219375,90.2385557293892L230.48904375,128.6646229128043L230.559609375,103.62030636270842L230.74959374999997,166.9315312902133L230.852728125,215.5351242274046L230.890725,79.29273194074632L232.155478125,131.25251403450966L232.481165625,156.31794528166455L232.64400937500002,97.77081728974979L232.74714375,112.60149623950323L233.230246875,104.57698823014897L233.44194375,80.15824403365454L233.46365624999999,138.46370325485867L233.512509375,184.09898152947426L233.545078125,71.1321432987849L233.68078125,82.62706643342973L233.990184375,84.6854636669159L234.22359375,147.6125066081683L234.78269062500001,76.09129842122398L235.11380625,72.35026057561241L235.227796875,195.71505408485731" style="fill: none;" fill="none"></path></g></g></g></g></g></g><g transform="translate(58, 177)" clip-path="url(#clip_1)"><clipPath id="clip_1"><rect width="271" height="23"></rect></clipPath><g><g><line x1="0" y1="0" x2="0" y2="5" style="visibility: inherit;" fill="rgb(0, 0, 0)" stroke="rgb(204, 204, 204)" stroke-width="1px"></line><line x1="33.92578125" y1="0" x2="33.92578125" y2="5" style="visibility: inherit;" fill="rgb(0, 0, 0)" stroke="rgb(204, 204, 204)" stroke-width="1px"></line><line x1="67.8515625" y1="0" x2="67.8515625" y2="5" style="visibility: inherit;" fill="rgb(0, 0, 0)" stroke="rgb(204, 204, 204)" stroke-width="1px"></line><line x1="101.77734375" y1="0" x2="101.77734375" y2="5" style="visibility: inherit;" fill="rgb(0, 0, 0)" stroke="rgb(204, 204, 204)" stroke-width="1px"></line><line x1="135.703125" y1="0" x2="135.703125" y2="5" style="visibility: inherit;" fill="rgb(0, 0, 0)" stroke="rgb(204, 204, 204)" stroke-width="1px"></line><line x1="169.62890625" y1="0" x2="169.62890625" y2="5" style="visibility: inherit;" fill="rgb(0, 0, 0)" stroke="rgb(204, 204, 204)" stroke-width="1px"></line><line x1="203.5546875" y1="0" x2="203.5546875" y2="5" style="visibility: inherit;" fill="rgb(0, 0, 0)" stroke="rgb(204, 204, 204)" stroke-width="1px"></line><line x1="237.48046875" y1="0" x2="237.48046875" y2="5" style="visibility: inherit;" fill="rgb(0, 0, 0)" stroke="rgb(204, 204, 204)" stroke-width="1px"></line><line x1="271.40625" y1="0" x2="271.40625" y2="5" style="visibility: inherit;" fill="rgb(0, 0, 0)" stroke="rgb(204, 204, 204)" stroke-width="1px"></line></g><g transform="translate(0, 8)"><text x="0" y="0" dx="0em" dy="0.95em" style="text-anchor: middle; visibility: hidden; font-family: &quot;Helvetica Neue&quot;, sans-serif; font-size: 12px; font-weight: 200;" fill="rgb(50, 49, 63)" stroke="none" stroke-width="1px">-50k</text><text x="33.92578125" y="0" dx="0em" dy="0.95em" style="text-anchor: middle; visibility: inherit; font-family: &quot;Helvetica Neue&quot;, sans-serif; font-size: 12px; font-weight: 200;" fill="rgb(50, 49, 63)" stroke="none" stroke-width="1px">0</text><text x="67.8515625" y="0" dx="0em" dy="0.95em" style="text-anchor: middle; visibility: inherit; font-family: &quot;Helvetica Neue&quot;, sans-serif; font-size: 12px; font-weight: 200;" fill="rgb(50, 49, 63)" stroke="none" stroke-width="1px">50k</text><text x="101.77734375" y="0" dx="0em" dy="0.95em" style="text-anchor: middle; visibility: inherit; font-family: &quot;Helvetica Neue&quot;, sans-serif; font-size: 12px; font-weight: 200;" fill="rgb(50, 49, 63)" stroke="none" stroke-width="1px">100k</text><text x="135.703125" y="0" dx="0em" dy="0.95em" style="text-anchor: middle; visibility: inherit; font-family: &quot;Helvetica Neue&quot;, sans-serif; font-size: 12px; font-weight: 200;" fill="rgb(50, 49, 63)" stroke="none" stroke-width="1px">150k</text><text x="169.62890625" y="0" dx="0em" dy="0.95em" style="text-anchor: middle; visibility: inherit; font-family: &quot;Helvetica Neue&quot;, sans-serif; font-size: 12px; font-weight: 200;" fill="rgb(50, 49, 63)" stroke="none" stroke-width="1px">200k</text><text x="203.5546875" y="0" dx="0em" dy="0.95em" style="text-anchor: middle; visibility: inherit; font-family: &quot;Helvetica Neue&quot;, sans-serif; font-size: 12px; font-weight: 200;" fill="rgb(50, 49, 63)" stroke="none" stroke-width="1px">250k</text><text x="237.48046875" y="0" dx="0em" dy="0.95em" style="text-anchor: middle; visibility: inherit; font-family: &quot;Helvetica Neue&quot;, sans-serif; font-size: 12px; font-weight: 200;" fill="rgb(50, 49, 63)" stroke="none" stroke-width="1px">300k</text><text x="271.40625" y="0" dx="0em" dy="0.95em" style="text-anchor: middle; visibility: hidden; font-family: &quot;Helvetica Neue&quot;, sans-serif; font-size: 12px; font-weight: 200;" fill="rgb(50, 49, 63)" stroke="none" stroke-width="1px">350k</text></g><line x1="0" y1="0" x2="271.40625" y2="0" fill="rgb(0, 0, 0)" stroke="rgb(204, 204, 204)" stroke-width="1px"></line></g></g></g></g></svg>