<svg viewBox="0 0 330 200" xmlns="http://www.w3.org/2000/svg"><g><g><g><g><g><line x1="48.875" y1="177" x2="43.875" y2="177" style="visibility: inherit;" fill="rgb(0, 0, 0)" stroke="rgb(204, 204, 204)" stroke-width="1px"></line><line x1="48.875" y1="157.33333333333334" x2="43.875" y2="157.33333333333334" style="visibility: inherit;" fill="rgb(0, 0, 0)" stroke="rgb(204, 204, 204)" stroke-width="1px"></line><line x1="48.875" y1="137.66666666666666" x2="43.875" y2="137.66666666666666" style="visibility: inherit;" fill="rgb(0, 0, 0)" stroke="rgb(204, 204, 204)" stroke-width="1px"></line><line x1="48.875" y1="118" x2="43.875" y2="118" style="visibility: inherit;" fill="rgb(0, 0, 0)" stroke="rgb(204, 204, 204)" stroke-width="1px"></line><line x1="48.875" y1="98.33333333333333" x2="43.875" y2="98.33333333333333" style="visibility: inherit;" fill="rgb(0, 0, 0)" stroke="rgb(204, 204, 204)" stroke-width="1px"></line><line x1="48.875" y1="78.66666666666666" x2="43.875" y2="78.66666666666666" style="visibility: inherit;" fill="rgb(0, 0, 0)" stroke="rgb(204, 204, 204)" stroke-width="1px"></line><line x1="48.875" y1="59" x2="43.875" y2="59" style="visibility: inherit;" fill="rgb(0, 0, 0)" stroke="rgb(204, 204, 204)" stroke-width="1px"></line><line x1="48.875" y1="39.33333333333334" x2="43.875" y2="39.33333333333334" style="visibility: inherit;" fill="rgb(0, 0, 0)" stroke="rgb(204, 204, 204)" stroke-width="1px"></line><line x1="48.875" y1="19.666666666666686" x2="43.875" y2="19.666666666666686" style="visibility: inherit;" fill="rgb(0, 0, 0)" stroke="rgb(204, 204, 204)" stroke-width="1px"></line><line x1="48.875" y1="0" x2="43.875" y2="0" style="visibility: inherit;" fill="rgb(0, 0, 0)" stroke="rgb(204, 204, 204)" stroke-width="1px"></line></g><g transform="translate(38.875, 0)"><text x="0" y="177" dx="0em" dy="0.3em" style="text-anchor: end; visibility: hidden; font-family: &quot;Helvetica Neue&quot;, sans-serif; font-size: 12px; font-weight: 200;" fill="rgb(50, 49, 63)" stroke="none" stroke-width="1px">-0.2</text><text x="0" y="157.33333333333334" dx="0em" dy="0.3em" style="text-anchor: end; visibility: inherit; font-family: &quot;Helvetica Neue&quot;, sans-serif; font-size: 12px; font-weight: 200;" fill="rgb(50, 49, 63)" stroke="none" stroke-width="1px">0</text><text x="0" y="137.66666666666666" dx="0em" dy="0.3em" style="text-anchor: end; visibility: hidden; font-family: &quot;Helvetica Neue&quot;, sans-serif; font-size: 12px; font-weight: 200;" fill="rgb(50, 49, 63)" stroke="none" stroke-width="1px">0.2</text><text x="0" y="118" dx="0em" dy="0.3em" style="text-anchor: end; visibility: inherit; font-family: &quot;Helvetica Neue&quot;, sans-serif; font-size: 12px; font-weight: 200;" fill="rgb(50, 49, 63)" stroke="none" stroke-width="1px">0.4</text><text x="0" y="98.33333333333333" dx="0em" dy="0.3em" style="text-anchor: end; visibility: hidden; font-family: &quot;Helvetica Neue&quot;, sans-serif; font-size: 12px; font-weight: 200;" fill="rgb(50, 49, 63)" stroke="none" stroke-width="1px">0.6</text><text x="0" y="78.66666666666666" dx="0em" dy="0.3em" style="text-anchor: end; visibility: inherit; font-family: &quot;Helvetica Neue&quot;, sans-serif; font-size: 12px; font-weight: 200;" fill="rgb(50, 49, 63)" stroke="none" stroke-width="1px">0.8</text><text x="0" y="59" dx="0em" dy="0.3em" style="text-anchor: end; visibility: hidden; font-family: &quot;Helvetica Neue&quot;, sans-serif; font-size: 12px; font-weight: 200;" fill="rgb(50, 49, 63)" stroke="none" stroke-width="1px">1</text><text x="0" y="39.33333333333334" dx="0em" dy="0.3em" style="text-anchor: end; visibility: inherit; font-family: &quot;Helvetica Neue&quot;, sans-serif; font-size: 12px; font-weight: 200;" fill="rgb(50, 49, 63)" stroke="none" stroke-width="1px">1.2</text><text x="0" y="19.666666666666686" dx="0em" dy="0.3em" style="text-anchor: end; visibility: hidden; font-family: &quot;Helvetica Neue&quot;, sans-serif; font-size: 12px; font-weight: 200;" fill="rgb(50, 49, 63)" stroke="none" stroke-width="1px">1.4</text><text x="0" y="0" dx="0em" dy="0.3em" style="text-anchor: end; visibility: hidden; font-family: &quot;Helvetica Neue&quot;, sans-serif; font-size: 12px; font-weight: 200;" fill="rgb(50, 49, 63)" stroke="none" stroke-width="1px">1.6</text></g><line x1="48.875" y1="0" x2="48.875" y2="177" fill="rgb(0, 0, 0)" stroke="rgb(204, 204, 204)" stroke-width="1px"></line></g></g><g transform="translate(48, 0)" clip-path="url(#clip_0)"><clipPath id="clip_0"><rect width="281" height="177"></rect></clipPath><g><g><g><line x1="0" y1="0" x2="0" y2="177" fill="rgb(0, 0, 0)" stroke="rgb(60, 60, 60)" stroke-width="1px" opacity="0.25"></line><line x1="25.556818181818183" y1="0" x2="25.556818181818183" y2="177" fill="rgb(0, 0, 0)" stroke="rgb(60, 60, 60)" stroke-width="1px" opacity="0.25"></line><line x1="51.11363636363637" y1="0" x2="51.11363636363637" y2="177" fill="rgb(0, 0, 0)" stroke="rgb(60, 60, 60)" stroke-width="1px" opacity="0.25"></line><line x1="76.67045454545455" y1="0" x2="76.67045454545455" y2="177" fill="rgb(0, 0, 0)" stroke="rgb(60, 60, 60)" stroke-width="1px" opacity="0.25"></line><line x1="102.22727272727273" y1="0" x2="102.22727272727273" y2="177" fill="rgb(0, 0, 0)" stroke="rgb(60, 60, 60)" stroke-width="1px" opacity="0.25"></line><line x1="127.7840909090909" y1="0" x2="127.7840909090909" y2="177" fill="rgb(0, 0, 0)" stroke="rgb(60, 60, 60)" stroke-width="1px" opacity="0.25"></line><line x1="153.3409090909091" y1="0" x2="153.3409090909091" y2="177" fill="rgb(0, 0, 0)" stroke="rgb(60, 60, 60)" stroke-width="1px" opacity="0.25"></line><line x1="178.89772727272728" y1="0" x2="178.89772727272728" y2="177" fill="rgb(0, 0, 0)" stroke="rgb(60, 60, 60)" stroke-width="1px" opacity="0.25"></line><line x1="204.45454545454547" y1="0" x2="204.45454545454547" y2="177" fill="rgb(0, 0, 0)" stroke="rgb(60, 60, 60)" stroke-width="1px" opacity="0.25"></line><line x1="230.01136363636365" y1="0" x2="230.01136363636365" y2="177" fill="rgb(0, 0, 0)" stroke="rgb(60, 60, 60)" stroke-width="1px" opacity="0.25"></line><line x1="255.5681818181818" y1="0" x2="255.5681818181818" y2="177" fill="rgb(0, 0, 0)" stroke="rgb(60, 60, 60)" stroke-width="1px" opacity="0.25"></line><line x1="281.125" y1="0" x2="281.125" y2="177" fill="rgb(0, 0, 0)" stroke="rgb(60, 60, 60)" stroke-width="1px" opacity="0.25"></line></g><g><line x1="0" y1="177" x2="281.125" y2="177" fill="rgb(0, 0, 0)" stroke="rgb(60, 60, 60)" stroke-width="1px" opacity="0.25"></line><line x1="0" y1="157.33333333333334" x2="281.125" y2="157.33333333333334" fill="rgb(0, 0, 0)" stroke="rgb(60, 60, 60)" stroke-width="1px" opacity="0.25"></line><line x1="0" y1="137.66666666666666" x2="281.125" y2="137.66666666666666" fill="rgb(0, 0, 0)" stroke="rgb(60, 60, 60)" stroke-width="1px" opacity="0.25"></line><line x1="0" y1="118" x2="281.125" y2="118" fill="rgb(0, 0, 0)" stroke="rgb(60, 60, 60)" stroke-width="1px" opacity="0.25"></line><line x1="0" y1="98.33333333333333" x2="281.125" y2="98.33333333333333" fill="rgb(0, 0, 0)" stroke="rgb(60, 60, 60)" stroke-width="1px" opacity="0.25"></line><line x1="0" y1="78.66666666666666" x2="281.125" y2="78.66666666666666" fill="rgb(0, 0, 0)" stroke="rgb(60, 60, 60)" stroke-width="1px" opacity="0.25"></line><line x1="0" y1="59" x2="281.125" y2="59" fill="rgb(0, 0, 0)" stroke="rgb(60, 60, 60)" stroke-width="1px" opacity="0.25"></line><line x1="0" y1="39.33333333333334" x2="281.125" y2="39.33333333333334" fill="rgb(0, 0, 0)" stroke="rgb(60, 60, 60)" stroke-width="1px" opacity="0.25"></line><line x1="0" y1="19.666666666666686" x2="281.125" y2="19.666666666666686" fill="rgb(0, 0, 0)" stroke="rgb(60, 60, 60)" stroke-width="1px" opacity="0.25"></line><line x1="0" y1="0" x2="281.125" y2="0" fill="rgb(0, 0, 0)" stroke="rgb(60, 60, 60)" stroke-width="1px" opacity="0.25"></line></g></g></g><g><g><line x1="0" y1="157.33333333333334" x2="281.125" y2="157.33333333333334" fill="rgb(0, 0, 0)" stroke="rgb(153, 153, 153)" stroke-width="1.5px"></line></g></g><g><g><line x1="25.556818181818183" y1="0" x2="25.556818181818183" y2="177" fill="rgb(0, 0, 0)" stroke="rgb(153, 153, 153)" stroke-width="1.5px"></line></g></g><g><g><g><g><g><path stroke="rgb(255, 112, 67)" stroke-width="2px" d="M25.556818181818183,16.143149177233397L27.601363636363633,16.58731243511042L29.64590909090909,17.10381122592355L31.690454545454546,17.683092551780675L33.735,18.334881700852833L35.77954545454545,19.07245500236911L37.82409090909091,19.929442737309245L39.86863636363636,20.92351366919121L41.91318181818181,22.101406552037645L43.957727272727276,23.476118892398517L46.002272727272725,24.98446246894906L48.04681818181818,26.425860327991444L50.09136363636364,27.886854046029043L52.13590909090909,29.190998153345674L54.180454545454545,30.429870471089487L56.225,31.60723399832625L58.26954545454546,32.805397630324705L60.31409090909091,34.10292396857622L62.358636363636364,35.334616688603234L64.40318181818182,36.69098008509178L66.44772727272728,38.06938313200172L68.49227272727272,39.548700961181L70.53681818181818,40.978090412239794L72.58136363636363,42.08392488828662L74.62590909090909,43.123613634406894L76.67045454545455,44.12615736397052L78.715,45.248174242598054L80.75954545454546,46.462604791099665L82.80409090909092,47.42827249395003L84.84863636363636,48.463293277518716L86.89318181818182,49.50167859855057L88.93772727272727,50.71671134722067L90.98227272727271,51.957744632766506L93.02681818181819,53.126015955664585L95.07136363636364,53.869797751849575L97.11590909090908,54.871921703946924L99.16045454545454,55.82056375478621L101.205,56.59907548797072L103.24954545454545,57.89896845216248L105.29409090909091,58.87003311879917L107.33863636363637,60.142924699418344L109.38318181818182,61.04092391766564L111.42772727272727,61.83154309874229L113.47227272727272,62.71535158819641L115.51681818181818,63.52375167616674L117.56136363636362,64.67229434263996L119.6059090909091,65.45545346190855L121.65045454545455,66.12066969863274L123.69500000000001,67.06107184247469L125.73954545454545,67.60144897872425L127.7840909090909,68.34208697820596L129.82863636363635,69.28840935277157L131.87318181818182,70.48342972624835L133.9177272727273,71.65251274284964L135.96227272727273,72.17534130043168L138.00681818181818,72.71261684830833L140.05136363636365,73.44360094509051L142.0959090909091,74.11177864019994L144.14045454545453,75.24716373092893L146.185,76.23389998161976L148.22954545454544,76.82202650160106L150.27409090909092,77.40995690654029L152.3186363636364,77.97389142571078L154.3631818181818,78.49733703647962L156.40772727272727,79.36991085200457L158.4522727272727,80.12054319534073L160.49681818181818,80.57409698577744L162.54136363636363,81.3406572191637L164.5859090909091,82.29251275750327L166.63045454545457,83.35477181052562L168.67499999999998,84.39504665399826L170.71954545454545,85.17957189638558L172.7640909090909,85.54037222241843L174.80863636363637,86.22964579845758L176.85318181818184,86.99520088226771L178.89772727272728,87.96298404330715L180.94227272727275,88.95550101475739L182.98681818181817,89.61882908429794L185.03136363636364,90.62514020176388L187.07590909090908,91.41686731083189L189.12045454545455,91.78504591884014L191.16500000000002,92.16620791972755L193.20954545454546,92.83843977265207L195.2540909090909,93.6721002201993L197.29863636363635,94.73188372894678L199.34318181818182,95.34404910670452L201.38772727272726,95.86519344488819L203.43227272727273,96.30409113470738L205.4768181818182,96.6674252027513L207.52136363636362,97.04640960341143L209.5659090909091,97.7025132873383L211.61045454545453,98.75697261683504L213.655,99.77631355877138L215.69954545454544,100.45264837079495L217.74409090909091,101.04466418186774L219.78863636363639,101.46358173545173L221.8331818181818,101.8931924747783L223.87772727272727,102.25478989168157L225.9222727272727,102.75269543101878L227.96681818181818,103.31813862504853L230.01136363636365,103.94025532354293L232.0559090909091,104.84587477018064L234.10045454545457,105.46428991776482L236.14499999999998,106.40446815543439L238.18954545454545,107.21756851466338L240.2340909090909,107.6009026276579L242.27863636363637,107.886419656327L244.32318181818184,108.55047686246076L246.36772727272728,108.95466094819926L248.41227272727272,109.41175416077111L250.45681818181816,109.84261696119071L252.50136363636364,110.28491837131357L254.54590909090908,110.6597134968482L256.5904545454545,110.85545492773309L258.635,111.28712398969166L260.67954545454546,111.75957230228006L262.72409090909093,112.17424136498265L264.76863636363635,112.82343372562742L266.8131818181818,113.66170019423492L268.8577272727273,114.49070850918011" style="fill: none;" fill="none"></path></g></g></g></g><g opacity="0.2"><g><g><g><path stroke="rgb(255, 112, 67)" stroke-width="2px" d="M25.556818181818183,16.143149177233397L27.601363636363633,16.85381038983664L29.64590909090909,17.599650065104157L31.690454545454546,18.364327390988677L33.735,19.18585761388144L35.77954545454545,20.09278440475464L37.82409090909091,21.154948910077422L39.86863636363636,22.372878630956023L41.91318181818181,23.83856976032257L43.957727272727276,25.517406503359496L46.002272727272725,27.23329726854959L48.04681818181818,28.58011309305826L50.09136363636364,30.07357422510782L52.13590909090909,31.144659360249847L54.180454545454545,32.286722699801146L56.225,33.37244892120361L58.26954545454546,34.60213605562848L60.31409090909091,36.0488840341568L62.358636363636364,37.181968132654816L64.40318181818182,38.725401202837645L66.44772727272728,40.13691210746765L68.49227272727272,41.76762902736664L70.53681818181818,43.12214636802673L72.58136363636363,43.742663502693176L74.62590909090909,44.68313936392465L76.67045454545455,45.629968682924925L78.715,46.93119668960571L80.75954545454546,48.2842487494151L82.80409090909092,48.8767731587092L84.84863636363636,50.01582388083142L86.89318181818182,51.05925623575847L88.93772727272727,52.53926022847493L90.98227272727271,53.8192944129308L93.02681818181819,54.87842285633087L95.07136363636364,54.98547041416168L97.11590909090908,56.375107606252044L99.16045454545454,57.2435268163681L101.205,57.766843080520644L103.24954545454545,59.84880789120993L105.29409090909091,60.32663011550903L107.33863636363637,62.052262067794814L109.38318181818182,62.38792274395625L111.42772727272727,63.01747186978659L113.47227272727272,64.04106432199478L115.51681818181818,64.73635180791219L117.56136363636362,66.39510834217072L119.6059090909091,66.63019214073817L121.65045454545455,67.11849405368169L123.69500000000001,68.47167505820593L125.73954545454545,68.41201468308768L127.7840909090909,69.45304397741954L129.82863636363635,70.7078929146131L131.87318181818182,72.27596028645834L133.9177272727273,73.40613726774852L135.96227272727273,72.95958413680395L138.00681818181818,73.5185301701228L140.05136363636365,74.54007709026337L142.0959090909091,75.11404518286388L144.14045454545453,76.95024136702222L146.185,77.71400435765585L148.22954545454544,77.70421628157298L150.27409090909092,78.29185251394908L152.3186363636364,78.8197932044665L154.3631818181818,79.28250545263292L156.40772727272727,80.67877157529196L158.4522727272727,81.24649171034496L160.49681818181818,81.2544276714325L162.54136363636363,82.49049756924312L164.5859090909091,83.72029606501263L166.63045454545457,84.94816039005917L168.67499999999998,85.95545891920726L170.71954545454545,86.35635975996654L172.7640909090909,86.08157271146776L174.80863636363637,87.26355616251628L176.85318181818184,88.1435335079829L178.89772727272728,89.41465878486633L180.94227272727275,90.44427647193274L182.98681818181817,90.61382118860881L185.03136363636364,92.13460687796275L187.07590909090908,92.6044579744339L189.12045454545455,92.33731383085251L191.16500000000002,92.73795092105865L193.20954545454546,93.84678755203883L195.2540909090909,94.92259089152019L197.29863636363635,96.32155899206798L199.34318181818182,96.26229717334112L201.38772727272726,96.6469099521637L203.43227272727273,96.96243766943614L205.4768181818182,97.2124263048172L207.52136363636362,97.61488620440166L209.5659090909091,98.68666881322862L211.61045454545453,100.33866161108017L213.655,101.30532497167587L215.69954545454544,101.46715058883032L217.74409090909091,101.93268789847693L219.78863636363639,102.0919580658277L221.8331818181818,102.53760858376822L223.87772727272727,102.79718601703644L225.9222727272727,103.49955374002457L227.96681818181818,104.1663034160932L230.01136363636365,104.87343037128448L232.0559090909091,106.20430394013724L234.10045454545457,106.39191263914108L236.14499999999998,107.81473551193874L238.18954545454545,108.43721905350685L240.2340909090909,108.17590379714966L242.27863636363637,108.31469519933066L244.32318181818184,109.54656267166138L246.36772727272728,109.56093707680702L248.41227272727272,110.09739397962889L250.45681818181816,110.4889111618201L252.50136363636364,110.94837048649788L254.54590909090908,111.22190618515015L256.5904545454545,111.14906707406045L258.635,111.93462758262953L260.67954545454546,112.46824477116267L262.72409090909093,112.79624495903651L264.76863636363635,113.79722226659457L266.8131818181818,114.91909989714622L268.8577272727273,115.7342209815979" style="fill: none;" fill="none"></path></g></g></g></g></g></g><g transform="translate(48, 177)" clip-path="url(#clip_1)"><clipPath id="clip_1"><rect width="281" height="23"></rect></clipPath><g><g><line x1="0" y1="0" x2="0" y2="5" style="visibility: inherit;" fill="rgb(0, 0, 0)" stroke="rgb(204, 204, 204)" stroke-width="1px"></line><line x1="25.556818181818183" y1="0" x2="25.556818181818183" y2="5" style="visibility: inherit;" fill="rgb(0, 0, 0)" stroke="rgb(204, 204, 204)" stroke-width="1px"></line><line x1="51.11363636363637" y1="0" x2="51.11363636363637" y2="5" style="visibility: inherit;" fill="rgb(0, 0, 0)" stroke="rgb(204, 204, 204)" stroke-width="1px"></line><line x1="76.67045454545455" y1="0" x2="76.67045454545455" y2="5" style="visibility: inherit;" fill="rgb(0, 0, 0)" stroke="rgb(204, 204, 204)" stroke-width="1px"></line><line x1="102.22727272727273" y1="0" x2="102.22727272727273" y2="5" style="visibility: inherit;" fill="rgb(0, 0, 0)" stroke="rgb(204, 204, 204)" stroke-width="1px"></line><line x1="127.7840909090909" y1="0" x2="127.7840909090909" y2="5" style="visibility: inherit;" fill="rgb(0, 0, 0)" stroke="rgb(204, 204, 204)" stroke-width="1px"></line><line x1="153.3409090909091" y1="0" x2="153.3409090909091" y2="5" style="visibility: inherit;" fill="rgb(0, 0, 0)" stroke="rgb(204, 204, 204)" stroke-width="1px"></line><line x1="178.89772727272728" y1="0" x2="178.89772727272728" y2="5" style="visibility: inherit;" fill="rgb(0, 0, 0)" stroke="rgb(204, 204, 204)" stroke-width="1px"></line><line x1="204.45454545454547" y1="0" x2="204.45454545454547" y2="5" style="visibility: inherit;" fill="rgb(0, 0, 0)" stroke="rgb(204, 204, 204)" stroke-width="1px"></line><line x1="230.01136363636365" y1="0" x2="230.01136363636365" y2="5" style="visibility: inherit;" fill="rgb(0, 0, 0)" stroke="rgb(204, 204, 204)" stroke-width="1px"></line><line x1="255.5681818181818" y1="0" x2="255.5681818181818" y2="5" style="visibility: inherit;" fill="rgb(0, 0, 0)" stroke="rgb(204, 204, 204)" stroke-width="1px"></line><line x1="281.125" y1="0" x2="281.125" y2="5" style="visibility: inherit;" fill="rgb(0, 0, 0)" stroke="rgb(204, 204, 204)" stroke-width="1px"></line></g><g transform="translate(0, 8)"><text x="0" y="0" dx="0em" dy="0.95em" style="text-anchor: middle; visibility: hidden; font-family: &quot;Helvetica Neue&quot;, sans-serif; font-size: 12px; font-weight: 200;" fill="rgb(50, 49, 63)" stroke="none" stroke-width="1px">-10k</text><text x="25.556818181818183" y="0" dx="0em" dy="0.95em" style="text-anchor: middle; visibility: inherit; font-family: &quot;Helvetica Neue&quot;, sans-serif; font-size: 12px; font-weight: 200;" fill="rgb(50, 49, 63)" stroke="none" stroke-width="1px">0</text><text x="51.11363636363637" y="0" dx="0em" dy="0.95em" style="text-anchor: middle; visibility: inherit; font-family: &quot;Helvetica Neue&quot;, sans-serif; font-size: 12px; font-weight: 200;" fill="rgb(50, 49, 63)" stroke="none" stroke-width="1px">10k</text><text x="76.67045454545455" y="0" dx="0em" dy="0.95em" style="text-anchor: middle; visibility: inherit; font-family: &quot;Helvetica Neue&quot;, sans-serif; font-size: 12px; font-weight: 200;" fill="rgb(50, 49, 63)" stroke="none" stroke-width="1px">20k</text><text x="102.22727272727273" y="0" dx="0em" dy="0.95em" style="text-anchor: middle; visibility: inherit; font-family: &quot;Helvetica Neue&quot;, sans-serif; font-size: 12px; font-weight: 200;" fill="rgb(50, 49, 63)" stroke="none" stroke-width="1px">30k</text><text x="127.7840909090909" y="0" dx="0em" dy="0.95em" style="text-anchor: middle; visibility: inherit; font-family: &quot;Helvetica Neue&quot;, sans-serif; font-size: 12px; font-weight: 200;" fill="rgb(50, 49, 63)" stroke="none" stroke-width="1px">40k</text><text x="153.3409090909091" y="0" dx="0em" dy="0.95em" style="text-anchor: middle; visibility: inherit; font-family: &quot;Helvetica Neue&quot;, sans-serif; font-size: 12px; font-weight: 200;" fill="rgb(50, 49, 63)" stroke="none" stroke-width="1px">50k</text><text x="178.89772727272728" y="0" dx="0em" dy="0.95em" style="text-anchor: middle; visibility: inherit; font-family: &quot;Helvetica Neue&quot;, sans-serif; font-size: 12px; font-weight: 200;" fill="rgb(50, 49, 63)" stroke="none" stroke-width="1px">60k</text><text x="204.45454545454547" y="0" dx="0em" dy="0.95em" style="text-anchor: middle; visibility: inherit; font-family: &quot;Helvetica Neue&quot;, sans-serif; font-size: 12px; font-weight: 200;" fill="rgb(50, 49, 63)" stroke="none" stroke-width="1px">70k</text><text x="230.01136363636365" y="0" dx="0em" dy="0.95em" style="text-anchor: middle; visibility: inherit; font-family: &quot;Helvetica Neue&quot;, sans-serif; font-size: 12px; font-weight: 200;" fill="rgb(50, 49, 63)" stroke="none" stroke-width="1px">80k</text><text x="255.5681818181818" y="0" dx="0em" dy="0.95em" style="text-anchor: middle; visibility: inherit; font-family: &quot;Helvetica Neue&quot;, sans-serif; font-size: 12px; font-weight: 200;" fill="rgb(50, 49, 63)" stroke="none" stroke-width="1px">90k</text><text x="281.125" y="0" dx="0em" dy="0.95em" style="text-anchor: middle; visibility: hidden; font-family: &quot;Helvetica Neue&quot;, sans-serif; font-size: 12px; font-weight: 200;" fill="rgb(50, 49, 63)" stroke="none" stroke-width="1px">100k</text></g><line x1="0" y1="0" x2="281.125" y2="0" fill="rgb(0, 0, 0)" stroke="rgb(204, 204, 204)" stroke-width="1px"></line></g></g></g></g></svg>