<svg viewBox="0 0 330 200" xmlns="http://www.w3.org/2000/svg"><g><g><g><g><g><line x1="48.875" y1="177" x2="43.875" y2="177" style="visibility: inherit;" fill="rgb(0, 0, 0)" stroke="rgb(204, 204, 204)" stroke-width="1px"></line><line x1="48.875" y1="154.875" x2="43.875" y2="154.875" style="visibility: inherit;" fill="rgb(0, 0, 0)" stroke="rgb(204, 204, 204)" stroke-width="1px"></line><line x1="48.875" y1="132.75" x2="43.875" y2="132.75" style="visibility: inherit;" fill="rgb(0, 0, 0)" stroke="rgb(204, 204, 204)" stroke-width="1px"></line><line x1="48.875" y1="110.62499999999999" x2="43.875" y2="110.62499999999999" style="visibility: inherit;" fill="rgb(0, 0, 0)" stroke="rgb(204, 204, 204)" stroke-width="1px"></line><line x1="48.875" y1="88.50000000000001" x2="43.875" y2="88.50000000000001" style="visibility: inherit;" fill="rgb(0, 0, 0)" stroke="rgb(204, 204, 204)" stroke-width="1px"></line><line x1="48.875" y1="66.375" x2="43.875" y2="66.375" style="visibility: inherit;" fill="rgb(0, 0, 0)" stroke="rgb(204, 204, 204)" stroke-width="1px"></line><line x1="48.875" y1="44.25000000000003" x2="43.875" y2="44.25000000000003" style="visibility: inherit;" fill="rgb(0, 0, 0)" stroke="rgb(204, 204, 204)" stroke-width="1px"></line><line x1="48.875" y1="22.12500000000003" x2="43.875" y2="22.12500000000003" style="visibility: inherit;" fill="rgb(0, 0, 0)" stroke="rgb(204, 204, 204)" stroke-width="1px"></line><line x1="48.875" y1="0" x2="43.875" y2="0" style="visibility: inherit;" fill="rgb(0, 0, 0)" stroke="rgb(204, 204, 204)" stroke-width="1px"></line></g><g transform="translate(38.875, 0)"><text x="0" y="177" dx="0em" dy="0.3em" style="text-anchor: end; visibility: hidden; font-family: &quot;Helvetica Neue&quot;, sans-serif; font-size: 12px; font-weight: 200;" fill="rgb(50, 49, 63)" stroke="none" stroke-width="1px">0.4</text><text x="0" y="154.875" dx="0em" dy="0.3em" style="text-anchor: end; visibility: inherit; font-family: &quot;Helvetica Neue&quot;, sans-serif; font-size: 12px; font-weight: 200;" fill="rgb(50, 49, 63)" stroke="none" stroke-width="1px">0.45</text><text x="0" y="132.75" dx="0em" dy="0.3em" style="text-anchor: end; visibility: hidden; font-family: &quot;Helvetica Neue&quot;, sans-serif; font-size: 12px; font-weight: 200;" fill="rgb(50, 49, 63)" stroke="none" stroke-width="1px">0.5</text><text x="0" y="110.62499999999999" dx="0em" dy="0.3em" style="text-anchor: end; visibility: inherit; font-family: &quot;Helvetica Neue&quot;, sans-serif; font-size: 12px; font-weight: 200;" fill="rgb(50, 49, 63)" stroke="none" stroke-width="1px">0.55</text><text x="0" y="88.50000000000001" dx="0em" dy="0.3em" style="text-anchor: end; visibility: hidden; font-family: &quot;Helvetica Neue&quot;, sans-serif; font-size: 12px; font-weight: 200;" fill="rgb(50, 49, 63)" stroke="none" stroke-width="1px">0.6</text><text x="0" y="66.375" dx="0em" dy="0.3em" style="text-anchor: end; visibility: inherit; font-family: &quot;Helvetica Neue&quot;, sans-serif; font-size: 12px; font-weight: 200;" fill="rgb(50, 49, 63)" stroke="none" stroke-width="1px">0.65</text><text x="0" y="44.25000000000003" dx="0em" dy="0.3em" style="text-anchor: end; visibility: hidden; font-family: &quot;Helvetica Neue&quot;, sans-serif; font-size: 12px; font-weight: 200;" fill="rgb(50, 49, 63)" stroke="none" stroke-width="1px">0.7</text><text x="0" y="22.12500000000003" dx="0em" dy="0.3em" style="text-anchor: end; visibility: inherit; font-family: &quot;Helvetica Neue&quot;, sans-serif; font-size: 12px; font-weight: 200;" fill="rgb(50, 49, 63)" stroke="none" stroke-width="1px">0.75</text><text x="0" y="0" dx="0em" dy="0.3em" style="text-anchor: end; visibility: hidden; font-family: &quot;Helvetica Neue&quot;, sans-serif; font-size: 12px; font-weight: 200;" fill="rgb(50, 49, 63)" stroke="none" stroke-width="1px">0.8</text></g><line x1="48.875" y1="0" x2="48.875" y2="177" fill="rgb(0, 0, 0)" stroke="rgb(204, 204, 204)" stroke-width="1px"></line></g></g><g transform="translate(48, 0)" clip-path="url(#clip_0)"><clipPath id="clip_0"><rect width="281" height="177"></rect></clipPath><g><g><g><line x1="0" y1="0" x2="0" y2="177" fill="rgb(0, 0, 0)" stroke="rgb(60, 60, 60)" stroke-width="1px" opacity="0.25"></line><line x1="23.427083333333332" y1="0" x2="23.427083333333332" y2="177" fill="rgb(0, 0, 0)" stroke="rgb(60, 60, 60)" stroke-width="1px" opacity="0.25"></line><line x1="46.854166666666664" y1="0" x2="46.854166666666664" y2="177" fill="rgb(0, 0, 0)" stroke="rgb(60, 60, 60)" stroke-width="1px" opacity="0.25"></line><line x1="70.28125" y1="0" x2="70.28125" y2="177" fill="rgb(0, 0, 0)" stroke="rgb(60, 60, 60)" stroke-width="1px" opacity="0.25"></line><line x1="93.70833333333333" y1="0" x2="93.70833333333333" y2="177" fill="rgb(0, 0, 0)" stroke="rgb(60, 60, 60)" stroke-width="1px" opacity="0.25"></line><line x1="117.13541666666667" y1="0" x2="117.13541666666667" y2="177" fill="rgb(0, 0, 0)" stroke="rgb(60, 60, 60)" stroke-width="1px" opacity="0.25"></line><line x1="140.5625" y1="0" x2="140.5625" y2="177" fill="rgb(0, 0, 0)" stroke="rgb(60, 60, 60)" stroke-width="1px" opacity="0.25"></line><line x1="163.98958333333334" y1="0" x2="163.98958333333334" y2="177" fill="rgb(0, 0, 0)" stroke="rgb(60, 60, 60)" stroke-width="1px" opacity="0.25"></line><line x1="187.41666666666666" y1="0" x2="187.41666666666666" y2="177" fill="rgb(0, 0, 0)" stroke="rgb(60, 60, 60)" stroke-width="1px" opacity="0.25"></line><line x1="210.84375" y1="0" x2="210.84375" y2="177" fill="rgb(0, 0, 0)" stroke="rgb(60, 60, 60)" stroke-width="1px" opacity="0.25"></line><line x1="234.27083333333334" y1="0" x2="234.27083333333334" y2="177" fill="rgb(0, 0, 0)" stroke="rgb(60, 60, 60)" stroke-width="1px" opacity="0.25"></line><line x1="257.69791666666663" y1="0" x2="257.69791666666663" y2="177" fill="rgb(0, 0, 0)" stroke="rgb(60, 60, 60)" stroke-width="1px" opacity="0.25"></line><line x1="281.125" y1="0" x2="281.125" y2="177" fill="rgb(0, 0, 0)" stroke="rgb(60, 60, 60)" stroke-width="1px" opacity="0.25"></line></g><g><line x1="0" y1="177" x2="281.125" y2="177" fill="rgb(0, 0, 0)" stroke="rgb(60, 60, 60)" stroke-width="1px" opacity="0.25"></line><line x1="0" y1="154.875" x2="281.125" y2="154.875" fill="rgb(0, 0, 0)" stroke="rgb(60, 60, 60)" stroke-width="1px" opacity="0.25"></line><line x1="0" y1="132.75" x2="281.125" y2="132.75" fill="rgb(0, 0, 0)" stroke="rgb(60, 60, 60)" stroke-width="1px" opacity="0.25"></line><line x1="0" y1="110.62499999999999" x2="281.125" y2="110.62499999999999" fill="rgb(0, 0, 0)" stroke="rgb(60, 60, 60)" stroke-width="1px" opacity="0.25"></line><line x1="0" y1="88.50000000000001" x2="281.125" y2="88.50000000000001" fill="rgb(0, 0, 0)" stroke="rgb(60, 60, 60)" stroke-width="1px" opacity="0.25"></line><line x1="0" y1="66.375" x2="281.125" y2="66.375" fill="rgb(0, 0, 0)" stroke="rgb(60, 60, 60)" stroke-width="1px" opacity="0.25"></line><line x1="0" y1="44.25000000000003" x2="281.125" y2="44.25000000000003" fill="rgb(0, 0, 0)" stroke="rgb(60, 60, 60)" stroke-width="1px" opacity="0.25"></line><line x1="0" y1="22.12500000000003" x2="281.125" y2="22.12500000000003" fill="rgb(0, 0, 0)" stroke="rgb(60, 60, 60)" stroke-width="1px" opacity="0.25"></line><line x1="0" y1="0" x2="281.125" y2="0" fill="rgb(0, 0, 0)" stroke="rgb(60, 60, 60)" stroke-width="1px" opacity="0.25"></line></g></g></g><g><g><line x1="0" y1="354" x2="281.125" y2="354" fill="rgb(0, 0, 0)" stroke="rgb(153, 153, 153)" stroke-width="1.5px"></line></g></g><g><g><line x1="23.427083333333332" y1="0" x2="23.427083333333332" y2="177" fill="rgb(0, 0, 0)" stroke="rgb(153, 153, 153)" stroke-width="1.5px"></line></g></g><g><g><g><g><g><path stroke="rgb(255, 112, 67)" stroke-width="2px" d="M36.95856666666667,-5.154717353747031L37.1085,2.167345210022461L37.52081666666667,38.387720696864534L37.59578333333334,19.117116195874303L37.76445833333333,55.17606581704328L37.839425,84.69708127691287L37.87690833333333,92.54577856614937L38.139291666666665,64.0353088219855L38.176775,66.54981042385202L38.27048333333333,105.72991848857149L38.30796666666667,84.22917298595411L38.4579,41.71266137430558L38.57035,12.399165480540006L38.58909166666667,43.20834494186491L39.09511666666667,92.97146101328245L40.425775,71.29023596961625L40.463258333333336,55.60968674015521L41.08173333333333,67.63235564703689L41.13795833333334,54.44749976202796L41.45656666666667,49.877292937069754L41.62524166666667,42.59754102589466L41.64398333333334,41.200607759724704L41.756433333333334,75.15121960817027L41.775175000000004,52.914425612558404L41.868883333333336,53.40600242678488L42.20623333333334,67.62287376203638L42.262458333333335,120.10315965937676L42.431133333333335,109.61940275029602L43.349475,90.69275410411512L43.4057,82.04284559153174L43.51815,103.19212792195472L43.6306,93.68039956019875L43.72430833333333,107.33964780763718L43.911725000000004,72.72290102121791L44.024175,87.18157123015855L44.11788333333334,99.73831639579853L45.09245,104.57101977999164L45.18615833333333,106.06210835656614L45.2049,84.0922788016861L45.54225,38.72414146857653L45.785891666666664,33.20618433354613L46.02953333333333,14.546246162642973L46.74171666666667,64.61930992698073L47.060325,80.8186759263003L47.435158333333334,54.7206011599138L47.54760833333333,83.09529094611611L47.6788,67.31100246140369L48.09111666666667,92.92114139097337L48.14734166666667,90.91663441954496L48.3535,94.05423043905759L48.409724999999995,71.80469909154813L48.46595,52.22233316208981L48.48469166666666,101.08725337330141L49.38429166666667,112.40788885440608L49.49674166666667,102.43390068105569L49.515483333333336,89.50054580385512L49.927800000000005,72.49094867953674L50.1527,63.22012281566275L50.34011666666667,52.567927373346166L50.902366666666666,64.55687975460081L51.108525,78.84944547160741L51.25845833333333,80.31261363592311L51.37090833333333,77.61453178505043L51.97064166666667,92.10446925747357L52.045608333333334,111.14659501783827L52.51415,113.84255534215438L52.81401666666666,91.02502484204572L52.83275833333334,84.69585833002449L53.113883333333334,79.09297533660721L53.18885,96.80811139243598L53.50745833333333,70.08752994714834L54.16341666666667,85.06859582053814L54.31335,67.62493561141007L54.688183333333335,87.00823358555026L54.95056666666667,87.46586553966635L55.11924166666667,90.143096200917L55.23169166666667,102.77856487768523L55.269175,122.01872828446407L55.3254,108.00039701964008L55.45659166666667,107.91041171136827L55.62526666666667,104.60670776118836L55.88765,92.76951982349158L55.92513333333333,96.2709076986909L55.98135833333333,86.95526608146427L56.13129166666666,57.07159611175773L56.15003333333334,73.26351003998712L56.69354166666667,88.20656361075757L56.80599166666667,107.496499704674L56.955925,78.43258848628707L57.1246,101.53911618495766L57.25579166666667,106.50149383607382L57.649366666666666,76.53357508458424L57.91175,82.92446159528333L57.986716666666666,72.93920301918172L58.15539166666667,62.59611099674696L58.39903333333333,56.91959259339805L58.45525833333333,43.643481751851084L58.567708333333336,55.00100367103333L58.60519166666666,31.2508367230553L59.35485833333333,59.08745451748722L59.67346666666666,95.37969797837944L59.860883333333334,82.17820755236274L59.91710833333334,99.97240142579632L60.291941666666666,115.79864729974125L60.554325000000006,106.30227664431007L60.59180833333333,134.0730332155232L60.92915833333333,127.64030184860255L61.004125,95.83537407228485L61.15405833333333,105.58994283383574L61.47266666666667,71.0030566817849L61.585116666666664,109.81251497664026L62.03491666666667,113.95893589018564L62.278558333333336,138.94050643657914L62.334783333333334,126.20036668667355L62.353525,84.92718001061179L62.503458333333334,81.01222172888217L62.578424999999996,96.22783089585364L62.70961666666667,86.54780459944763L62.990741666666665,110.3116590889952L63.62795833333333,87.33448104337823L63.702925,84.40043337509614L63.83411666666667,47.65482320407378L64.00279166666667,80.23021775495619L64.41510833333334,99.03289117820032L64.490075,97.45301600937226L64.64000833333333,86.23177476313226L64.78994166666666,71.57926555625505L64.86490833333333,85.76332391591018L65.23974166666667,96.44831894213644L65.33345,95.90692522749119L65.35219166666667,100.14061640873442L65.389675,90.2686034868651L65.44590000000001,113.42426346722206L65.6708,90.91763551821086L65.727025,107.60856057280166L65.82073333333334,107.52667058154266L66.176825,102.1881563940306L66.36424166666667,113.41155958644507L66.47669166666667,78.96902339739772L66.58914166666666,63.058449405927476L66.66410833333333,95.72801854520978L66.88900833333334,83.11102636045182L67.37629166666666,107.95077859393339L67.54496666666667,86.95436581988088L68.200925,93.99456143986549L68.21966666666667,98.4535117543421L68.25715,96.61157346944104L69.08178333333333,135.10706849801596L69.23171666666667,117.96203406994375L69.40039166666666,122.89848433938525L69.437875,120.88336046342192L69.53158333333333,113.11757398727025L70.000125,113.12082153011849L70.01886666666667,132.74503578215533L70.20628333333333,121.0828009573799L70.24376666666666,102.51198029090057L70.337475,86.69896144610101L70.59985833333333,78.73469993437202L70.71230833333334,79.82574278691334L70.88098333333333,89.3232915435965L71.16210833333334,67.59158392159553L71.237075,73.17577490453968L71.27455833333333,95.2616095855537L71.7431,87.46099489418881L72.15541666666667,65.07610644989141L72.26786666666666,92.56626160200193L72.586475,97.81547646078917L72.698925,122.0443610331622L73.18620833333334,141.8593403447394L73.61726666666668,113.2066818087533L73.74845833333333,111.13667604978295L73.84216666666667,134.47536431941637L74.08580833333333,97.9588943075731L74.217,119.05208936045136L74.498125,117.81094227260093L74.72302499999999,103.87080329671944L74.77925,84.13707711705831L75.04163333333334,100.45065155273241L75.69759166666667,127.49992478874663L75.71633333333332,96.10783353440368L75.735075,73.86873019333126L77.25314999999999,84.73151325342322L77.421825,92.03979119752209L77.5905,109.09682208951926L77.70294999999999,70.82399064693821L78.15275000000001,89.7472345256446L79.03360833333333,111.25809332869282L79.18354166666667,95.75645325864453L79.6146,92.58735307624994L79.85824166666667,81.33194794995228L80.15810833333333,70.8146257802405L80.21433333333333,62.80523581531986L80.36426666666667,64.04521816508378L80.42049166666668,28.72709029636627L80.87029166666667,89.75085854364544L80.94525833333333,96.00967798133559L81.50750833333333,82.22562116086408L81.93856666666666,83.30594597876028L82.21969166666666,36.71561500203583L82.55704166666668,71.3365832970856L82.66949166666666,95.3914766076993L82.96935833333335,80.92231048129746L83.30670833333333,61.36887585510462L83.32545,98.31120950811894L83.96266666666668,91.39612781306381L84.15008333333334,79.4035698968189L84.20630833333333,94.52171174275975L84.22505,100.25097229235234L84.26253333333334,118.74489774795094L84.28127500000001,100.0609248667462L84.74981666666666,106.50149830517195L85.36829166666666,86.2013437410416L85.79935,91.68189309002294L86.11795833333333,60.113593148954706L86.69895,53.86225364671233L87.20497499999999,54.63945614138889L87.29868333333333,81.52688379788191L87.711,95.76178176226492L88.06709166666667,61.400907868279674L88.104575,59.94282281049111L88.23576666666668,55.95892245559702L88.34821666666667,82.4398044406701L88.64808333333333,88.15209879036719L88.96669166666666,92.04117601845249L89.19159166666665,60.88812417825211L89.24781666666667,78.25008638525101L89.71635833333333,62.342194401169365L90.20364166666667,71.13215276178393L90.52225,76.79610934601233L90.89708333333333,86.01882346121074L91.23443333333334,99.82111617116689L91.27191666666667,110.7638509284768L91.3094,52.23627727099142L91.42184999999999,68.20124165337018L91.94661666666667,70.68994076323946L92.209,47.82981620593333L93.25853333333333,65.76239414431733L93.3335,114.00133233319569L93.48343333333334,108.05205319554119L93.53965833333334,98.93801653522557L94.12065,90.17891603790702L94.27058333333333,90.61356797267784L94.514225,114.35687795549507L94.60793333333334,120.8793140725486L94.90780000000001,149.65482073284343L95.00150833333332,134.21101548228955L95.03899166666667,137.96869772049362L95.22640833333334,138.6307653985773L95.30137500000001,106.03712676777565L95.84488333333333,133.48875102289986L95.93859166666667,132.12630577616977L96.06978333333333,116.97998847802333L97.04435000000001,94.68554325246723L97.17554166666667,122.12846257295553L97.25050833333333,118.47072216276138L97.45666666666666,101.50103568079358L97.56911666666667,102.35995909596852L97.68156666666665,77.76500503435956L98.09388333333332,102.74114612469208L98.39375,77.33596557217321L98.562425,108.00201174519944L98.58116666666668,102.69975401701026L98.80606666666667,126.61428495491441L99.012225,139.92386853840884L99.06845,161.11444310633502L100.136725,130.3520569937716L100.23043333333332,108.50705542190612L100.249175,128.88743358268584L100.43659166666667,122.62097056754976L101.80473333333333,111.46551669864981L102.01089166666667,119.99456007617195L102.02963333333334,94.27243045173576L102.06711666666666,102.57443420411641L102.160825,110.8406390447706L102.17956666666666,106.58684827681127L102.64810833333333,105.33017983314836L102.74181666666667,104.25554249452023L102.79804166666666,108.82562547782938L102.94797500000001,92.15917936479975L103.32280833333333,89.90438888976531L103.37903333333334,111.5960017830703L103.39777500000001,109.68189696017346L103.6789,101.37517020430232L103.97876666666667,115.84473139838019L104.09121666666667,109.49517639157558L104.16618333333334,110.8933879594647L104.33485833333333,83.49303902749082L104.37234166666667,111.66887323596393L104.61598333333333,126.46362555943915L104.82214166666667,108.34585576607579L105.30942499999999,86.59837427946206L105.4781,94.69333242900534L105.759225,110.37903465346909L105.89041666666667,129.72424077103386L106.00286666666666,121.00358708566336L106.07783333333334,104.7353758803958L106.45266666666666,92.44739180755347L106.50889166666667,95.3370193359359L107.29604166666667,129.8721703181925L107.61465,107.68896370472089L107.93325833333334,128.7589718123768L107.952,93.7385772955712L108.32683333333334,103.56588041140414L108.38305833333334,109.5765612206088L108.55173333333333,77.13399775512376L108.75789166666668,86.58501531891439L109.22643333333333,117.61966200001484L109.28265833333333,124.12058459119467L109.54504166666666,113.33455784557142L109.58252499999999,103.39817738197972L109.62000833333335,124.07883165277676L110.16351666666667,111.13906058071635L110.68828333333333,120.294590195409L110.83821666666667,120.1696994068572L110.91318333333334,119.58219210877115L111.06311666666667,126.44238443120774L111.269275,111.83544413414272L111.75655833333334,121.57846109370392L111.85026666666666,137.97635592401028L112.15013333333333,118.03952272760867L112.45,117.59434391276838L112.59993333333334,103.96544370184421L112.76860833333333,114.4735748119955L112.93728333333333,108.48277194188863L113.14344166666666,111.19859605364101L113.16218333333335,131.95725348789747L113.27463333333333,122.60016115426575L113.38708333333334,106.50734947871894L113.42456666666666,104.15209843368372L113.48079166666668,103.3979760387602L114.13675,125.20791136497633L114.36165,86.49107479616632L114.71774166666667,106.8821124110498L115.14880000000001,95.27159079753626L115.52363333333332,126.54126936699906L115.97343333333333,137.177808168566L116.2733,122.34033479871498L116.42323333333334,126.626090559853L116.59190833333334,115.12323952525432L116.64813333333333,125.99097337013228L116.68561666666666,113.17929948381033L117.64144166666667,102.70069599754483L117.69766666666668,110.15036956433576L118.07249999999999,113.57043595292643L118.10998333333335,82.65959630714937L118.128725,113.05311013047148L118.25991666666667,93.51277002563621L118.59726666666667,95.31359937709895L119.12203333333333,125.83294202639058L119.49686666666666,80.44623592944974L119.53435,104.70201802523152L119.6468,120.592929412551L120.13408333333334,95.80117520667748L120.22779166666666,103.87328590737364L120.5464,103.51597167126288L120.88374999999999,116.9794547144887L121.03368333333333,118.36300690080628L121.61467499999999,119.9250037974471L122.1207,112.1367850367042L122.55175833333334,108.5141928830035L123.09526666666667,113.75169053305908L123.301425,96.46949398892954L123.60129166666667,88.71847000347279L123.863675,121.00838355795563L123.88241666666666,88.47654461011902L124.25725,92.77829399791723L125.00691666666667,120.27957199267962L125.41923333333334,104.67474355848084L125.51294166666666,119.9137648674932L126.20638333333333,96.00039770204343L126.337575,104.04269990920139L126.41254166666667,118.23740818261572L126.52499166666666,104.31876709556262L126.63744166666667,119.0330588906746L126.787375,133.77196208773498L126.82485833333334,114.03231896244557L127.42459166666666,101.31340875198286L127.87439166666665,115.90983566623832L128.09929166666666,123.60826386798564L128.136775,105.2901167857L128.249225,65.41438625975542L128.47412500000002,84.77963443234022L128.94266666666667,95.64237839957745L129.46743333333333,82.51339377749368L129.50491666666667,92.64706407659293L129.57988333333333,135.27060696883822L129.86100833333333,89.8633662188281L130.62941666666666,87.86507701422155L130.68564166666667,102.8054956885897L131.02299166666668,80.22003232793348L131.36034166666667,74.89400521133152L131.67895,114.3264760149348L131.735175,132.46850792603658L131.82888333333332,125.27939224265198L131.92259166666668,104.3177558184992L132.25994166666666,74.5706129551727L132.27868333333333,107.35758570318217L132.59729166666668,84.2811904757309L132.65351666666666,104.65645483190346L133.29073333333335,124.71992118391117L133.32821666666666,103.6604346587224L133.45940833333333,136.54218020164748L133.96543333333332,118.93291627242436L134.13410833333333,119.76028460785314L134.52768333333333,114.75922622993329L134.97748333333334,136.32542019912447L135.07119166666666,124.93319327729253L135.18364166666666,144.3610136276323L135.68966666666668,114.13471407686703L136.0645,139.00503398773094L136.15820833333333,129.1874873506845L136.43933333333334,121.1498294155491L136.53304166666666,83.63383439068154L137.00158333333334,123.22939022114369L137.33893333333333,132.96665689188535L137.4139,108.66634295486391L137.50760833333334,134.98217068375934L137.807475,116.34620134986517L137.84495833333332,123.41123644087958L138.144825,111.93431681140807L138.18230833333334,113.34066177454324L138.29475833333333,106.95938105015L138.33224166666668,116.37863409893534L138.36972500000002,73.28077029214394L138.594625,89.7790298880702L138.66959166666666,89.79107461104189L139.10065,66.97468952971334L139.269325,44.94853694818994L139.32555,51.8533411954795L139.62541666666667,54.21358650535073L139.83157500000002,88.00517738824921L139.86905833333333,96.03022692779204L139.98150833333332,92.2684368144244L140.22515,91.77565349643051L140.5625,124.09361505213151L141.293425,103.87747782291629L141.72448333333332,89.8022553552488L141.79944999999998,106.78716950591203L141.81819166666665,115.95603185281634L141.94938333333334,107.81189789405751L142.26799166666666,97.75592777747686L142.47415,130.69019755493866L142.68030833333333,114.70878783924144L142.8115,86.457691371815L142.92395,104.95203777574099L143.37375,114.05330938352704L144.4045416666667,102.82319884451367L144.47950833333334,72.20688764424405L144.72315,94.49008143050243L145.004275,77.78821463646156L145.15420833333332,93.8976425603727L145.17295,92.81953658316733L145.24791666666667,128.32684449347377L145.43533333333332,121.45152406688044L145.62275,117.78955163237757L145.64149166666667,135.98833032058062L145.66023333333334,116.40484078887931L145.81016666666667,110.21208727457422L146.185,104.97589212714615L146.63479999999998,139.96267767583717L146.76599166666668,121.26846175095673L146.82221666666666,131.82209802687905L147.17830833333332,128.54814177167856L147.42194999999998,117.64644337542319L147.51565833333333,111.74851148633641L148.19035833333334,91.41045627181819L148.35903333333334,113.80384122243576L148.39651666666668,143.70406264609727L148.47148333333334,153.88693303195615L148.58393333333333,133.2464622636317L148.64015833333335,125.45443563340183L148.77135,135.20994609402464L148.92128333333332,124.87546194676665L148.97750833333333,131.12204626252714L149.20240833333332,146.66542271405734L149.70843333333332,114.35575989264417L149.7834,94.73478110658031L149.98955833333332,107.44725488440336L150.19571666666667,100.94693022260752L150.42061666666666,102.85817291313224L151.47015,99.88894344552644L151.73253333333332,91.44370584001712L151.88246666666666,71.79384794420343L152.14485,88.13329894892183L152.16359166666666,93.38373825282936L152.650875,60.922349401301645L152.91325833333335,113.11904842733531L153.3818,80.99212021278854L153.92530833333333,92.07651100544639L153.98153333333332,107.46855621331039L154.46881666666667,115.48206967588128L154.80616666666666,101.44757448718465L154.88113333333334,85.72231635502288L155.349675,106.41588301093165L155.48086666666669,104.3648831643509L155.83695833333334,138.17265276299997L156.32424166666667,146.71026051155977L156.60536666666667,132.15048233337552L156.7553,136.52249041597454L156.77404166666665,129.4578736984754L157.18635833333335,153.51085535073426L157.261325,144.21528588166325L157.52370833333333,146.27479926604326L157.74860833333335,123.29077930365978L157.89854166666666,106.41129974791393L158.160925,127.47174567144503L158.273375,86.7679664621436L158.44205,93.75540415821571L158.610725,90.19438121544185L158.64820833333334,121.12989768282691L158.66695,129.625811254359L159.02304166666667,121.33232708893814L159.07926666666665,120.97108001782058L159.24794166666666,114.93733442588781L159.94138333333333,125.82317759254062L160.24124999999998,142.2816054860263L160.44740833333333,130.54977908369952L160.78475833333331,128.38553196571502L160.972175,112.96437592734236L160.99091666666666,131.41641493099533L161.23455833333333,76.3510319081402L161.32826666666665,84.01181459948161L161.34700833333332,93.48796484783136L161.77806666666666,118.12610509344842L161.85303333333334,102.9272928139502L162.13415833333332,88.86799978619422L162.69640833333332,100.50333466175562L162.86508333333333,97.48255546118834L162.92130833333334,87.42540390030157L163.05249999999998,92.29699788532028L163.23991666666666,89.44678171897753L163.25865833333333,83.66488152995603L163.29614166666667,102.7072731271678L163.38985000000002,94.45209546180331L163.57726666666667,122.93147620136597L164.02706666666668,100.02061058625614L164.19574166666666,106.88720974651L164.55183333333335,138.0762946863593L164.87044166666666,139.81141041872627L165.78878333333333,156.53159568999843L166.03242500000002,123.98140160020971L166.08865,124.97656419144141L166.66964166666665,127.49983203569693L166.68838333333332,153.31813191270618L167.00699166666666,118.43766195115916L167.19440833333334,139.50444989524766L167.28811666666667,122.42308473063997L167.494275,120.87374002619677L167.60672499999998,121.61509845783769L167.73791666666668,140.8856789477495L168.07526666666666,146.98058905052113L168.168975,154.98710878400186L168.26268333333334,176.07168289249051L168.60003333333333,165.23446999922342L168.80619166666668,154.0572111841139L168.86241666666666,132.68446306205377L169.23725,116.13955763469093L169.38718333333335,139.00660910302372L169.57459999999998,128.769596541488L169.7995,150.0179208723091L170.23055833333333,140.4644166235556L170.32426666666666,139.6839880588311L171.46750833333334,142.96756671325312L171.48624999999998,165.11333356771436L171.56121666666667,135.92369852348307L172.08598333333333,140.81840186646065L172.891875,132.80696478683043L173.04180833333334,119.57690157412463L173.19174166666667,101.97100272130353L173.21048333333331,101.35163996429077L173.84769999999997,97.65764099246756L174.05385833333332,89.41095446280539L174.27875833333334,107.52652526338042L174.33498333333333,118.76354128980125L174.59736666666666,84.66617743291549L175.72186666666667,70.3121707208043L176.17166666666668,80.21583622497833L176.30285833333332,121.7653202521951L176.7339166666667,123.33941388774818L176.80888333333334,115.3391287603909L177.07126666666667,143.80922788256018L177.389875,117.13522356673245L177.50232499999998,101.96013711645706L177.74596666666665,111.65021341296736L178.289475,140.34096409233035L178.58934166666666,127.14467504830137L178.7955,120.54519018656599L178.964175,82.70810167268866L179.11410833333332,97.358191348767L179.48894166666665,78.69319462636454L179.526425,82.41304618036354L179.58265,95.47168521830804L179.62013333333334,90.23101296871523L179.73258333333334,54.357349829969536L179.95748333333333,72.12045318907366L180.1074166666667,77.57604654446759L180.16364166666668,94.62967265734383L180.25735,134.2369290297586L180.38854166666667,104.21802966030589L180.426025,96.57983049292656L181.38185,101.41227823817309L181.58800833333333,99.18185137703166L181.73794166666667,104.43518578406662L182.112775,121.0662217461854L182.13151666666667,131.5419603659982L182.169,141.58350154008116L182.43138333333334,138.9172230675557L182.50635,125.19243688075176L182.675025,112.61593566351196L182.69376666666668,125.18812532432713L182.787475,125.92335159306433L182.86244166666665,107.42039287522259L182.88118333333333,141.7555689837624L183.16230833333333,136.64701978123722L183.74329999999998,122.51366159770808L183.9682,133.94203428896617L184.0993916666667,122.19556033892843L184.19310000000002,160.58133042623646L184.45548333333335,104.1288572118881L184.62415833333333,128.5292969147088L184.90528333333333,139.28309611080422L185.11144166666665,143.80227924941977L185.24263333333334,125.21276168560382L185.26137500000002,127.22555260977384L185.43005,132.41044835520526L186.14223333333334,125.7952993051573L186.29216666666665,164.32334479906345L186.31090833333332,123.49424083958971L186.385875,116.3930580969507L186.98560833333335,103.74523911213008L187.86646666666667,98.86524480184993L187.94143333333332,74.82007072926213L188.2787833333333,54.07853539324199L188.3724916666667,77.20560909233328L188.65361666666666,81.61810366464758L188.70984166666668,72.29984971376125L188.76606666666666,83.2353487520925L189.15964166666666,102.04834666904881L189.3658,103.57714285288499L189.62818333333334,115.95541599890142L189.81560000000002,114.76245265901417L189.94679166666666,135.29425568998056L190.2654,145.90499880087495L190.30288333333334,139.69828699929786L190.35910833333335,116.6675822788672L190.75268333333332,139.17778610910156L190.79016666666666,166.9094580157112L190.88387500000002,139.9014476742453L191.09003333333334,114.2440326455895L191.23996666666667,144.52957582734012L191.31493333333333,113.69624941505184L191.63354166666667,106.50813499067539L191.97089166666666,109.85671350344604L192.08334166666668,111.84354731431358L192.17705,106.63079246873112L192.2707583333333,103.82357538339168L192.32698333333335,103.94110451100273L192.60810833333335,110.65833637689353L192.62685000000002,110.85680196031811L193.132875,131.00914952364496L193.28280833333332,126.68132652763683L193.470225,126.82882008507346L193.67638333333332,111.75672342511713L194.06995833333335,119.65578816016139L194.40730833333333,127.62556465077174L195.00704166666665,125.3296580768095L195.02578333333332,128.10906550028722L195.13823333333335,98.01050893508676L196.1128,107.6899046185212L196.15028333333333,125.79332378998974L196.3377,101.38021053967225L196.46889166666665,115.7657766526779L196.97491666666667,141.40283940946105L197.36849166666664,116.0304154438677L197.55590833333332,107.67431861656324L197.855775,119.81840942798506L197.89325833333334,96.00177926122215L198.02445,99.31585292994421L198.62418333333335,116.19179732787276L198.71789166666667,125.18317856304445L198.92405,150.96807199068425L198.94279166666666,158.95253827182987L199.01775833333332,147.91177043919885L199.82365,125.70451560977176L199.879875,128.54200535633012L200.25470833333335,94.00863361130857L200.36715833333332,110.32301260692303L200.3859,120.30026912487997L200.87318333333334,111.75321850655943L201.00437499999998,128.1008663742451L201.13556666666668,133.535558347029L202.16635833333333,136.89109690435083L202.18509999999998,153.6354792323551L202.35377499999998,134.14645658772238L202.48496666666668,123.00334270501763L202.54119166666666,103.05354345860856L202.67238333333333,122.70504477633705L202.7286083333333,129.6732245028834L203.140925,112.21347330455899L203.34708333333336,101.51921602752756L203.55324166666665,99.17635225455135L203.74065833333333,102.80947225809199L203.77814166666667,125.91322424125734L203.79688333333334,132.51712878413238L203.85310833333332,117.30364051978137L204.30290833333333,106.12500306081976L204.39661666666666,153.70723218984728L204.41535833333333,132.3951394991119L204.490325,147.8780396721387L204.84641666666667,148.01707566032553L205.03383333333332,96.58518759161082L205.18376666666666,101.63035424798639L205.40866666666668,120.7282871201629L206.15833333333333,118.90331881016459L206.32700833333334,96.25029601317623L206.34575,107.52771189011325L206.4582,127.24345902322045L206.49568333333335,109.27910677026695L206.66435833333333,114.24157153028835L207.32031666666668,135.318409868828L207.84508333333332,136.8227294556806L207.90130833333333,148.48035663798507L208.12620833333332,160.05895976087484L208.650975,143.75407332099098L209.100775,140.47694975088012L209.28819166666668,151.58645215600714L210.31898333333334,169.2540278969406L210.562625,143.63089302409884L210.76878333333335,111.82244083421944L211.10613333333333,121.95545007072403L211.19984166666666,106.46910610963414L211.78083333333333,123.99877395730917L211.8745416666667,136.81444860995833L211.89328333333333,112.26023223102706L211.93076666666667,110.55861498177421L212.1556666666667,125.08739609277472L212.19315,108.17431440804143L212.41805000000002,107.86713568481052L212.60546666666667,109.83638336725379L212.84910833333333,140.91183639447297L212.94281666666666,111.67771597433332L212.96155833333333,111.7479842050567L213.24268333333333,101.7464924301919L213.35513333333333,121.51636851109363L213.54255,132.17755394147213L213.99235,130.79720033983216L214.31095833333333,153.85169044005767L214.723275,118.44587511341513L215.30426666666668,133.47588871431793L215.43545833333332,146.2546474368122L215.49168333333333,121.25442381088418L215.64161666666666,127.47093273034383L215.94148333333334,152.78845688003713L216.01645,144.87952912627708L216.11015833333335,114.89039075838951L216.1476416666667,104.15122955124033L216.185125,134.21114698100362L216.24135,124.3123585048215L216.8973083333333,103.39057699816799L217.0285,122.68772421465744L217.32836666666668,148.90762337557334L217.70319999999998,145.4243855745307L218.22796666666667,151.3542901379294L218.26545,155.76796627059142L218.28419166666666,149.4407828272257L218.321675,132.51427919989072L218.434125,130.64301399782448L218.50909166666668,98.69929363963098L218.6028,92.28983167789634L218.71525,110.95297485579403L218.80895833333332,112.95896408551546L218.9588916666667,132.380430779419L219.35246666666666,142.20923834536177L219.61485,138.38107466395917L219.82100833333334,138.52700770316258L220.008425,132.34055904399L220.08339166666667,96.35623546749737L220.10213333333334,82.97654419130322L220.6269,105.13935321561235L220.79557499999999,110.8955821394428L220.94550833333335,140.60188904997736L221.22663333333335,105.37156368253845L221.245375,95.0829479155434L221.470275,133.5483674202855L222.0512666666667,141.9225604590473L222.21994166666667,142.37079318503726L222.46358333333333,144.792359335066L222.51980833333332,148.13429103663034L222.53855,162.28113292080442L222.63225833333334,150.2281392480271L222.80093333333332,146.75383364947658L222.95086666666668,164.16227824563992L223.08205833333332,135.40363158628472L223.1008,137.10513479617313L223.4194083333333,99.4335351771538L223.9816583333333,134.9040689460292L224.169075,118.9823058838758L224.86251666666666,129.12976328701458L225.03119166666667,122.13697517019918L225.04993333333334,129.76109343828205L225.16238333333334,130.71410050428773L225.46225,145.43626961968462L225.59344166666668,135.92334636367633L226.11820833333334,156.87701224873825L226.13695,151.3825942909143L226.30562500000002,162.5530569812907L226.39933333333335,142.10899881489593L226.60549166666667,152.84074704627704L226.77416666666667,144.40346298682996L227.03655,122.83608933727925L227.24270833333333,119.1478868510782L227.74873333333335,134.6501088611161L227.80495833333333,163.2242910606787L227.9736333333333,133.12897158522162L228.442175,107.28615897213669L228.51714166666665,124.8184564907268L228.68581666666668,103.54792808287827L228.9482,137.4231759953111L229.06064999999998,115.83445834205207L229.09813333333332,101.61977215460335L229.73535,105.66961467177508L229.8478,99.1563719267299L229.96024999999997,95.24647452560961L229.99773333333334,100.39381589965757L230.016475,129.52970840023005L230.20389166666666,100.3429783790472L230.29760000000002,135.85934475118893L230.55998333333335,107.14647204312668L230.72865833333333,106.17155335326781L231.028525,110.20740632998822L231.49706666666668,113.69086224310327L231.85315833333334,125.19744243903595L232.02183333333335,144.8771719496467L232.35918333333333,139.01415514713636L232.69653333333332,142.87149628261392L232.86520833333336,146.91740224516192L233.29626666666667,139.58002469394089L233.33374999999998,121.71753178509162L233.35249166666665,130.62986613197378L234.30831666666668,147.64731613924062L234.45825,130.15176113921376L234.514475,127.87916208790523L234.68314999999998,113.87034613780253L235.00175833333333,120.92079678113504L235.39533333333335,140.33599358758477L235.67645833333336,156.22506533838L235.976325,128.48743242488317L236.35115833333333,128.05101596394783L236.48235,113.02736412930253L236.61354166666666,119.23084144263126L236.70725,109.64950818102751L237.28824166666666,101.51147636342763L237.438175,96.60423397164776L237.47565833333334,124.47488373602171L238.112875,115.48614699891053L238.1691,113.60349866897374L238.43148333333332,111.67750960082118L238.46896666666666,107.79365933829729L238.48770833333336,121.04736183818687L238.69386666666665,135.3272123082668L238.80631666666667,98.22379723454658L239.33108333333334,158.03088197866168L239.38730833333335,106.83743933295663L239.40605,141.76356393370307L239.5185,126.26139536066815L239.55598333333333,148.86637315490225L239.87459166666665,131.41909427248464L240.024525,146.82467203022856L240.19320000000002,103.71816007305274L240.47432500000002,121.3294223487919L240.77419166666667,111.35330850723655L241.50511666666665,86.98737055565876L241.73001666666667,95.64545045200565L241.76749999999998,101.61763457002391L241.95491666666666,135.5145398887524L242.161075,114.68162791207604L242.29226666666668,88.32810862228379L242.42345833333331,120.85811325529284L242.46094166666668,120.06439581286352L242.77955,128.65001717669634L243.13564166666666,116.25315311826985L243.81034166666666,116.48970102833343L243.99775833333334,115.50904412011286L244.31636666666665,113.6858542855977L244.42881666666668,114.57872055151458L244.59749166666666,110.18817077981468L245.15974166666666,126.66568602268123L245.5908,116.51297146763937L245.60954166666667,105.73148864916884L245.94689166666666,95.04681011683893L246.47165833333335,96.46370796350928L246.56536666666668,98.70215573303872L246.80900833333334,99.51126667495352L246.82775,75.5541782297837L247.07139166666667,125.86240621317313L247.22132499999998,151.8705734187894L247.31503333333333,141.09437854138216L247.35251666666667,140.80054060844898L247.37125833333334,158.8865107728739L247.74609166666667,132.5131679793417L247.83980000000003,113.54627906204578L248.0647,124.41253426624127L248.10218333333333,132.4616555211114L248.2896,126.73026600105568L248.38330833333333,99.60202225818041L248.5145,113.16121378406167L248.795625,108.31481042423418L248.87059166666666,111.70813792299374L249.09549166666667,110.92467265934437L249.470325,118.56771876579933L249.75144999999998,138.26027081111917L249.920125,128.542552779316L250.01383333333334,129.88398525130697L250.819725,137.7420884013888L250.91343333333333,163.3812786484192L251.08210833333334,154.17207932141008L251.19455833333333,123.3018723229562L251.40071666666665,109.97701607346504L251.4756833333333,96.55537139296513L251.77554999999998,95.76814262223235L252.01919166666667,86.54251530261034L252.394025,105.99696049386975L252.5627,116.34593215760418L252.71263333333334,129.50373907790677L253.08746666666667,117.04882315341293L253.38733333333332,127.8465074154357L253.76216666666664,122.16605922297356L253.81839166666668,125.52917430827449L254.11825833333333,159.2417838038768L254.3806416666667,159.24882894526516L254.418125,145.5685537563002L254.62428333333332,132.59615690149278L255.7487833333333,116.51664559028988L255.91745833333334,150.03634300817518L255.93619999999999,105.78403260105529L256.49845,115.02397621747062L256.85454166666665,104.67567390844945L256.9107666666667,132.84442491916252L257.32308333333333,119.17908587209843L258.016525,105.26553680987635L258.14771666666667,86.11501816804099L258.54129166666667,138.26081573900512L258.6537416666667,111.38318434916098L258.69122500000003,94.21464313007688L259.0848,101.92638352475937L259.49711666666667,73.05298245526777L260.04062500000003,101.4704617415513L260.0781083333333,134.10809532729658L260.6403583333333,105.4125135059826L260.90274166666666,112.20710972044898L261.14638333333335,111.4437177484872L261.20260833333333,114.84532375965367L261.4275083333333,117.55157176157147L261.76485833333334,140.26671379506774L262.53326666666663,153.52716541707628L262.8331333333333,160.53771658194134L263.301675,126.41617560060067" style="fill: none;" fill="none"></path></g></g></g></g><g opacity="0.2"><g><g><g><path stroke="rgb(255, 112, 67)" stroke-width="2px" d="M32.104475,-156.17702043056482L32.123216666666664,170.1264205724001L32.310633333333335,-37.674002408981295L36.002741666666665,-36.96910268068311L36.80863333333334,35.788175404071836L36.95856666666667,34.57887911796573L37.1085,13.150439053773908L37.52081666666667,92.7182839214802L37.59578333333334,-9.788790553808184L37.76445833333333,109.26449024677278L37.839425,128.97860446572304L37.87690833333333,104.31882449984552L38.139291666666665,21.269604206085233L38.176775,70.32156282663347L38.27048333333333,164.50008058547974L38.30796666666667,51.97805473208429L38.4579,-22.06210604310033L38.57035,-31.57107836008069L38.58909166666667,89.42211413383485L39.09511666666667,167.61613512039185L40.425775,38.76839840412143L40.463258333333336,32.088862895965605L41.08173333333333,85.66635900735857L41.13795833333334,34.67021593451503L41.45656666666667,43.02198269963267L41.62524166666667,31.677913159132032L41.64398333333334,39.10520786046985L41.756433333333334,126.0771373808384L41.775175000000004,19.559234619140653L41.868883333333336,54.14336764812471L42.20623333333334,88.94818076491357L42.262458333333335,198.8235885053873L42.431133333333335,93.8937673866749L43.349475,62.30278113484384L43.4057,69.06798282265665L43.51815,134.9160514175892L43.6306,79.41280701756479L43.72430833333333,127.82852017879486L43.911725000000004,20.797780841589002L44.024175,108.86957654356958L44.11788333333334,118.5734341442585L45.09245,111.8200748562813L45.18615833333333,108.29874122142793L45.2049,51.13753446936609L45.54225,-29.328064531087847L45.785891666666664,24.929248631000547L46.02953333333333,-13.443661093711825L46.74171666666667,139.72890557348728L47.060325,105.11772492527963L47.435158333333334,15.573489010334043L47.54760833333333,125.65732562541962L47.6788,43.634569734334974L48.09111666666667,131.3363497853279L48.14734166666667,87.90987396240236L48.3535,98.76062446832658L48.409724999999995,38.43040207028392L48.46595,22.848784267902403L48.48469166666666,174.3846336901188L49.38429166666667,129.38884207606316L49.49674166666667,87.47291842103006L49.515483333333336,70.10051348805429L49.927800000000005,46.97655299305919L50.1527,49.3138840198517L50.34011666666667,36.58963420987132L50.902366666666666,82.54030832648279L51.108525,100.28829404711725L51.25845833333333,82.50736588239671L51.37090833333333,73.5674090087414L51.97064166666667,113.83937546610832L52.045608333333334,139.70978365838528L52.51415,117.88649582862854L52.81401666666666,56.79872909188272L52.83275833333334,75.20210856199266L53.113883333333334,70.68865084648134L53.18885,123.38081547617912L53.50745833333333,30.006657779216795L54.16341666666667,107.54019463062288L54.31335,41.45944529771808L54.688183333333335,116.08318054676056L54.95056666666667,88.15231347084047L55.11924166666667,94.1589421927929L55.23169166666667,121.73176789283752L55.269175,150.87897339463234L55.3254,86.97290012240411L55.45659166666667,107.77543374896051L55.62526666666667,99.65115183591844L55.88765,75.01373791694643L55.92513333333333,101.52298951148988L55.98135833333333,72.9818036556244L56.13129166666666,12.24609115719798L56.15003333333334,97.5513809323311L56.69354166666667,110.62114396691324L56.80599166666667,136.43140384554863L56.955925,34.83672165870669L57.1246,136.19890773296356L57.25579166666667,113.94506031274796L57.649366666666666,31.581696957349806L57.91175,92.51079136133195L57.986716666666666,57.96131515502931L58.15539166666667,47.08147296309474L58.39903333333333,48.40481498837474L58.45525833333333,23.72931548953059L58.567708333333336,72.03728654980661L58.60519166666666,-4.3744136989116384L59.35485833333333,100.84238120913507L59.67346666666666,149.8180631697178L59.860883333333334,62.37597191333772L59.91710833333334,126.66369223594666L60.291941666666666,139.53801611065865L60.554325000000006,92.05772066116334L60.59180833333333,175.72916807234287L60.92915833333333,117.99120479822159L61.004125,48.12798240780833L61.15405833333333,120.22179597616196L61.47266666666667,19.122727453708677L61.585116666666664,168.02670241892338L62.03491666666667,120.17856726050377L62.278558333333336,176.41286225616932L62.334783333333334,107.09015706181528L62.353525,23.017399996519117L62.503458333333334,75.13978430628778L62.578424999999996,119.0512446463108L62.70961666666667,72.02776515483858L62.990741666666665,145.95744082331657L63.62795833333333,52.86871397495271L63.702925,79.99936187267305L63.83411666666667,-7.463592052459688L64.00279166666667,129.09330958127975L64.41510833333334,127.23690131306648L64.490075,95.08320325613023L64.64000833333333,69.39991289377214L64.78994166666666,49.60050174593927L64.86490833333333,107.03941145539285L65.23974166666667,112.47581148147584L65.33345,95.09483465552331L65.35219166666667,106.49115318059923L65.389675,75.46058410406114L65.44590000000001,148.1577534377575L65.6708,57.15769359469415L65.727025,132.64494815468788L65.82073333333334,107.4038355946541L66.176825,94.18038511276247L66.36424166666667,130.24666437506676L66.47669166666667,27.30521911382678L66.58914166666666,39.19258841872218L66.66410833333333,144.73237225413322L66.88900833333334,64.18553808331491L67.37629166666666,145.2104069441557L67.54496666666667,55.45974665880205L68.200925,104.55485486984254L68.21966666666667,105.14193722605707L68.25715,93.84866604208948L69.08178333333333,192.8503110408783L69.23171666666667,92.24448242783548L69.40039166666666,130.30315974354744L69.437875,117.860674649477L69.53158333333333,101.4688942730427L70.000125,113.12569284439087L70.01886666666667,162.1813571602106L70.20628333333333,103.58944872021677L70.24376666666666,74.65574929118158L70.337475,62.97943317890169L70.59985833333333,66.78830766677858L70.71230833333334,81.46230706572534L70.88098333333333,103.5696146786213L71.16210833333334,34.994022488594084L71.237075,81.55206137895586L71.27455833333333,128.39036160707474L71.7431,75.76007285714151L72.15541666666667,31.498773783445387L72.26786666666666,133.80149433016777L72.586475,105.68929874897005L72.698925,158.38768789172173L73.18620833333334,171.58180931210518L73.61726666666668,70.22769400477411L73.74845833333333,108.03166741132738L73.84216666666667,169.48339672386646L74.08580833333333,43.1841892898083L74.217,150.6918819397688L74.498125,115.94922164082527L74.72302499999999,82.9605948328972L74.77925,54.53648784756662L75.04163333333334,124.92101320624352L75.69759166666667,168.0738346427679L75.71633333333332,49.019696652889266L75.735075,40.51007518172267L77.25314999999999,101.02568784356119L77.421825,103.00220811367036L77.5905,134.68236842751503L77.70294999999999,13.414743483066587L78.15275000000001,118.13210034370422L79.03360833333333,143.5243815332651L79.18354166666667,72.5039931535721L79.6146,87.8337028026581L79.85824166666667,64.44884026050569L80.15810833333333,55.03864252567293L80.21433333333333,50.79115086793901L80.36426666666667,65.9051916897297L80.42049166666668,-24.250101506710024L80.87029166666667,181.28651091456413L80.94525833333333,105.3979071378708L81.50750833333333,61.54953593015672L81.93856666666666,84.92643320560457L82.21969166666666,-33.169881463050814L82.55704166666668,123.26803573966026L82.66949166666666,131.47381657361984L82.96935833333335,59.218561291694655L83.30670833333333,32.03872391581538L83.32545,153.72470998764038L83.96266666666668,81.02350527048112L84.15008333333334,61.414733022451415L84.20630833333333,117.19892451167107L84.22505,108.8448631167412L84.26253333333334,146.4857859313488L84.28127500000001,72.03496554493906L84.74981666666666,116.16235846281052L85.36829166666666,55.75111189484598L85.79935,99.90271711349489L86.11795833333333,12.7611432373524L86.69895,44.48524439334872L87.20497499999999,55.80525988340379L87.29868333333333,121.85802528262138L87.711,117.11412870883942L88.06709166666667,9.859597027301817L88.104575,57.7556952238083L88.23576666666668,49.983071923255935L88.34821666666667,122.16112741827965L88.64808333333333,96.72054031491281L88.96669166666666,97.87479186058046L89.19159166666665,14.158546417951612L89.24781666666667,104.2930296957493L89.71635833333333,38.48035642504695L90.20364166666667,84.31709030270578L90.52225,85.2920442223549L90.89708333333333,99.85289463400842L91.23443333333334,120.52455523610115L91.27191666666667,127.17795306444168L91.3094,-35.555083215236635L91.42184999999999,92.14868822693826L91.94661666666667,74.42298942804338L92.209,13.539629369974165L93.25853333333333,92.66126105189325L93.3335,186.35973961651325L93.48343333333334,99.12813448905946L93.53965833333334,85.26696154475214L94.12065,77.04026529192926L94.27058333333333,91.26554587483407L94.514225,149.97184292972088L94.60793333333334,130.6629682481289L94.90780000000001,192.81808072328568L95.00150833333332,111.04530760645868L95.03899166666667,143.6052210777998L95.22640833333334,139.62386691570282L95.30137500000001,57.14666882157327L95.84488333333333,174.66618740558624L95.93859166666667,130.08263790607452L96.06978333333333,94.2605125308037L97.04435000000001,61.243875414133086L97.17554166666667,163.29284155368805L97.25050833333333,112.9841115474701L97.45666666666666,76.04650595784189L97.56911666666667,103.64834421873094L97.68156666666665,40.87257394194606L98.09388333333332,140.20535776019096L98.39375,39.22819474339488L98.562425,154.0010810047388L98.58116666666668,94.7463674247265L98.80606666666667,162.48608136177063L99.012225,159.8882439136505L99.06845,192.9003049582243L100.136725,84.20847782492639L100.23043333333332,75.73955306410791L100.249175,159.4580008238554L100.43659166666667,113.22127604484558L101.80473333333333,94.73233589529993L102.01089166666667,132.7881251424551L102.02963333333334,55.68923601508142L102.06711666666666,115.02743983268738L102.160825,123.2399463057518L102.17956666666666,100.20616212487222L102.64810833333333,103.44517716765405L102.74181666666667,102.643586486578L102.79804166666666,115.68074995279312L102.94797500000001,67.1595101952553L103.32280833333333,86.52220317721368L103.37903333333334,144.1334211230278L103.39777500000001,106.81073972582818L103.6789,88.91508007049562L103.97876666666667,137.549073189497L104.09121666666667,99.97084388136865L104.16618333333334,112.99070531129838L104.33485833333333,42.39251562952998L104.37234166666667,153.93262454867363L104.61598333333333,148.65575404465199L104.82214166666667,81.16920107603075L105.30942499999999,53.97715204954149L105.4781,106.83576965332033L105.759225,133.90758799016476L105.89041666666667,158.74204994738102L106.00286666666666,107.92260655760766L106.07783333333334,80.33305907249452L106.45266666666666,74.01541569828989L106.50889166666667,99.67146062850954L107.29604166666667,181.67489679157734L107.61465,74.41415378451349L107.93325833333334,160.36398397386074L107.952,41.20798552036288L108.32683333333334,118.30683508515358L108.38305833333334,118.59258243441582L108.55173333333333,28.470152556896238L108.75789166666668,100.76154166460039L109.22643333333333,164.17163202166557L109.28265833333333,133.8719684779644L109.54504166666666,97.15551772713663L109.58252499999999,88.49360668659212L109.62000833333335,155.09981305897236L110.16351666666667,91.72940397262575L110.68828333333333,134.02788461744785L110.83821666666667,119.98236322402954L110.91318333333334,118.70093116164207L111.06311666666667,136.73267291486263L111.269275,89.92503368854524L111.75655833333334,136.19298653304577L111.85026666666666,162.57319816946983L112.15013333333333,88.1342729330063L112.45,116.92657569050789L112.59993333333334,83.522093385458L112.76860833333333,130.23577147722244L112.93728333333333,99.4965676367283L113.14344166666666,115.27233222126961L113.16218333333335,163.09523963928223L113.27463333333333,108.56452265381814L113.38708333333334,82.3681319653988L113.42456666666666,100.61922186613084L113.48079166666668,102.26679244637491L114.13675,157.9228143543005L114.36165,28.41581994295123L114.71774166666667,137.46866883337498L115.14880000000001,77.85580837726594L115.52363333333332,173.4457872211933L115.97343333333333,153.13261637091637L116.2733,100.08412474393846L116.42323333333334,133.05472420156002L116.59190833333334,97.86896297335626L116.64813333333333,142.29257413744926L116.68561666666666,93.9617886543274L117.64144166666667,86.98279076814653L117.69766666666668,121.32487991452217L118.07249999999999,118.70053553581238L118.10998333333335,36.29333683848384L118.128725,158.64338086545467L118.25991666666667,64.20225986838342L118.59726666666667,98.01484340429307L119.12203333333333,171.61195600032806L119.49686666666666,12.366176784038572L119.53435,141.0856911689043L119.6468,144.42929649353027L120.13408333333334,58.61354389786722L120.22779166666666,115.98145195841789L120.5464,102.98000031709672L120.88374999999999,137.1746792793274L121.03368333333333,120.43833518028259L121.61467499999999,122.26799914240837L122.1207,100.45445689558984L122.55175833333334,103.08030465245248L123.09526666666667,121.60793700814247L123.301425,70.54619917273523L123.60129166666667,77.09193402528764L123.863675,169.4432538896799L123.88241666666666,39.67878618836406L124.25725,99.23091807961465L125.00691666666667,161.53148898482323L125.41923333333334,81.26750090718271L125.51294166666666,142.77229683101177L126.20638333333333,60.13034695386888L126.337575,116.10615321993828L126.41254166666667,139.5294705927372L126.52499166666666,83.440805464983L126.63744166666667,141.10449658334255L126.787375,155.88031688332558L126.82485833333334,84.42285427451135L127.42459166666666,82.23504343628885L127.87439166666665,137.8044760376215L128.09929166666666,135.1559061706066L128.136775,77.81289616227151L128.249225,5.600790470838575L128.47412500000002,113.82750669121742L128.94266666666667,111.93649435043336L129.46743333333333,62.819916844367995L129.50491666666667,107.84756952524187L129.57988333333333,199.20592130720615L129.86100833333333,21.75250509381297L130.62941666666666,84.86764320731164L130.68564166666667,125.2161237001419L131.02299166666668,46.341837286949186L131.36034166666667,66.90496453642847L131.67895,173.47518222033978L131.735175,159.68155579268932L131.82888333333332,114.49571871757507L131.92259166666668,72.87530118227006L132.25994166666666,29.94989866018298L132.27868333333333,156.53804482519627L132.59729166666668,49.66659763455392L132.65351666666666,135.2193513661623L133.29073333333335,154.81512071192265L133.32821666666666,72.07120487093927L133.45940833333333,185.86479851603508L133.96543333333332,92.51902037858964L134.13410833333333,121.00133711099625L134.52768333333333,107.25763866305353L134.97748333333334,168.6747111529112L135.07119166666666,107.84485289454462L135.18364166666666,173.50274415314198L135.68966666666668,68.79526475071908L136.0645,176.3105138540268L136.15820833333333,114.4611673951149L136.43933333333334,109.09334251284601L136.53304166666666,27.35984185338023L137.00158333333334,182.62272396683693L137.33893333333333,147.57255689799786L137.4139,72.21587204933168L137.50760833333334,174.45591227710247L137.807475,88.39224734902383L137.84495833333332,134.00878907740116L138.144825,94.71893736720087L138.18230833333334,115.45017921924591L138.29475833333333,97.38745996356012L138.33224166666668,130.50751367211342L138.36972500000002,8.633974581956892L138.594625,114.52641928195953L138.66959166666666,89.80914169549943L139.10065,32.750111907720594L139.269325,11.909308075904875L139.32555,62.210547566413894L139.62541666666667,57.75395447015764L139.83157500000002,138.6925637125969L139.86905833333333,108.06780123710634L139.98150833333332,86.62575164437295L140.22515,91.03647851943971L140.5625,172.57055738568306L141.293425,73.55327197909357L141.72448333333332,68.68942165374757L141.79944999999998,132.2645407319069L141.81819166666665,129.70932537317276L141.94938333333334,95.59569695591928L142.26799166666666,82.67197260260583L142.47415,180.09160222113132L142.68030833333333,90.73667326569559L142.8115,44.081046670675306L142.92395,132.69355738162994L143.37375,127.70521679520607L144.4045416666667,85.97803303599359L144.47950833333334,26.282420843839674L144.72315,127.91487210988998L145.004275,52.73541444540025L145.15420833333332,118.06178444623947L145.17295,91.20237761735918L145.24791666666667,181.58780635893345L145.43533333333332,111.13854342699052L145.62275,112.29659298062326L145.64149166666667,163.28649835288525L145.66023333333334,87.0296064913273L145.81016666666667,100.92295700311662L146.185,97.12159940600397L146.63479999999998,192.4428559988737L146.76599166666668,93.22713786363603L146.82221666666666,147.65255244076252L147.17830833333332,123.63720738887787L147.42194999999998,101.2938957810402L147.51565833333333,102.90161365270616L148.19035833333334,60.90337345004083L148.35903333333334,147.39391864836216L148.39651666666668,188.5543947815895L148.47148333333334,169.16123861074448L148.58393333333333,102.28575611114503L148.64015833333335,113.76639568805695L148.77135,149.84321178495884L148.92128333333332,109.37373572587968L148.97750833333333,140.4919227361679L149.20240833333332,169.98048739135265L149.70843333333332,65.89126566052438L149.7834,65.30331292748453L149.98955833333332,126.51596555113792L150.19571666666667,91.19644322991373L150.42061666666666,105.72503694891931L151.47015,95.43509924411775L151.73253333333332,78.77584943175317L151.88246666666666,42.31906110048297L152.14485,112.64247545599939L152.16359166666666,101.25939720869066L152.650875,12.230266124010114L152.91325833333335,191.41409696638584L153.3818,32.80172789096835L153.92530833333333,108.70309719443323L153.98153333333332,130.55662402510643L154.46881666666667,127.50233986973763L154.80616666666666,80.39583170413972L154.88113333333334,62.13442915678026L155.349675,137.45623299479485L155.48086666666669,101.28838339447977L155.83695833333334,188.88430716097355L156.32424166666667,159.5166721343994L156.60536666666667,110.31081506609918L156.7553,143.08050253987312L156.77404166666665,118.86094862222672L157.18635833333335,189.59032782912254L157.261325,130.27193167805672L157.52370833333333,149.36406934261322L157.74860833333335,88.81474936008455L157.89854166666666,81.09208041429521L158.160925,159.06241455674171L158.273375,25.71229764819148L158.44205,104.23656070232393L158.610725,84.85284680128099L158.64820833333334,167.53317238390446L158.66695,142.36968161165714L159.02304166666667,108.89210084080698L159.07926666666665,120.42920941114426L159.24794166666666,105.88671603798868L159.94138333333333,142.15194234251976L160.24124999999998,166.96924732625484L160.44740833333333,112.95203948020936L160.78475833333331,125.13916128873825L160.972175,89.83264186978342L160.99091666666666,159.0944734364748L161.23455833333333,-6.247042626142473L161.32826666666665,95.5029886364937L161.34700833333332,107.702190220356L161.77806666666666,155.083315461874L161.85303333333334,80.12907439470293L162.13415833333332,67.77906024456026L162.69640833333332,117.95633697509766L162.86508333333333,92.95138666033746L162.92130833333334,72.33967655897142L163.05249999999998,99.6043888628483L163.23991666666666,85.17145746946336L163.25865833333333,74.99203124642374L163.29614166666667,131.27086052298546L163.38985000000002,82.06932896375658L163.57726666666667,165.65054731070995L164.02706666666668,65.6543121635914L164.19574166666666,117.18710848689079L164.55183333333335,184.85992209613323L164.87044166666666,142.41408401727676L165.78878333333333,181.61187359690666L166.03242500000002,75.1561104655266L166.08865,126.46930807828903L166.66964166666665,131.28473380208015L166.68838333333332,192.04558172822L167.00699166666666,66.11695700883867L167.19440833333334,171.1046318113804L167.28811666666667,96.80103698372842L167.494275,118.54972296953201L167.60672499999998,122.727136105299L167.73791666666668,169.7915496826172L168.07526666666666,156.12295420467854L168.168975,166.99688838422298L168.26268333333334,207.69854405522346L168.60003333333333,148.97865065932274L168.80619166666668,137.29132296144962L168.86241666666666,100.62534087896348L169.23725,91.32219949364664L169.38718333333335,173.30718630552292L169.57459999999998,113.41407769918442L169.7995,181.89040736854076L170.23055833333333,126.13416025042534L170.32426666666666,138.5133452117443L171.46750833333334,147.8929346948862L171.48624999999998,198.33198384940624L171.56121666666667,92.13924595713617L172.08598333333333,148.1604568809271L172.891875,120.7898091673851L173.04180833333334,99.73180675506593L173.19174166666667,75.56215444207193L173.21048333333331,100.4225958287716L173.84769999999997,92.11664253473283L174.05385833333332,77.04092466831209L174.27875833333334,134.69988146424294L174.33498333333333,135.6190653294325L174.59736666666666,33.52013164758685L175.72186666666667,48.78116065263751L176.17166666666668,95.07133448123933L176.30285833333332,184.08954629302025L176.7339166666667,125.7005543410778L176.80888333333334,103.33870106935503L177.07126666666667,186.51437656581402L177.389875,77.12421709299089L177.50232499999998,79.19750744104387L177.74596666666665,126.18532785773277L178.289475,183.37709011137486L178.58934166666666,107.35024148225786L178.7955,110.64596289396287L178.964175,25.952468901872663L179.11410833333332,119.33332586288452L179.48894166666665,50.69569954276086L179.526425,87.99282351136209L179.58265,115.05964377522469L179.62013333333334,82.37000459432603L179.73258333333334,0.5468551218509958L179.95748333333333,98.76510822772981L180.1074166666667,85.75943657755853L180.16364166666668,120.21011182665825L180.25735,193.6478135883808L180.38854166666667,59.1896806061268L180.426025,85.12253174185754L181.38185,108.66094985604288L181.58800833333333,95.83621108531953L181.73794166666667,112.315187394619L182.112775,146.01277568936348L182.13151666666667,147.25556829571724L182.169,156.64581330120564L182.43138333333334,134.9178053587675L182.50635,104.6052576005459L182.675025,93.75118383765222L182.69376666666668,144.04640981554985L182.787475,127.02619099617004L182.86244166666665,79.66595479846002L182.88118333333333,193.2583331465721L183.16230833333333,128.98419597744942L183.74329999999998,101.31362432241441L183.9682,151.08459332585335L184.0993916666667,104.57584941387178L184.19310000000002,218.15998555719852L184.45548333333335,19.45014739036563L184.62415833333333,165.12995646893978L184.90528333333333,155.41379490494728L185.11144166666665,150.5810539573431L185.24263333333334,97.32848533988L185.26137500000002,130.2447389960289L185.43005,140.18779197335243L186.14223333333334,115.87257573008537L186.29216666666665,222.11541303992271L186.31090833333332,62.250584900379195L186.385875,105.74128398299219L186.98560833333335,84.77351063489915L187.86646666666667,91.54525333642961L187.94143333333332,38.75230962038043L188.2787833333333,22.966232389211683L188.3724916666667,111.89621964097024L188.65361666666666,88.23684552311899L188.70984166666668,58.32246878743173L188.76606666666666,99.6385973095894L189.15964166666666,130.26784354448318L189.3658,105.87033712863924L189.62818333333334,134.52282571792603L189.81560000000002,112.97300764918329L189.94679166666666,166.09196023643017L190.2654,161.8211134672165L190.30288333333334,130.38821929693222L190.35910833333335,82.12152519822122L190.75268333333332,172.9430918544531L190.79016666666666,208.5069658756256L190.88387500000002,99.38943216204645L191.09003333333334,75.75791010260583L191.23996666666667,189.95789059996605L191.31493333333333,67.44625979661943L191.63354166666667,95.72596335411073L191.97089166666666,114.87958127260208L192.08334166666668,114.82379803061485L192.17705,98.81166020035745L192.2707583333333,99.61274975538255L192.32698333333335,104.1173982024193L192.60810833333335,120.73418417572975L192.62685000000002,111.15450033545496L193.132875,161.23767086863518L193.28280833333332,120.18959203362465L193.470225,127.05006042122841L193.67638333333332,89.14857843518259L194.06995833333335,131.50438526272774L194.40730833333333,139.58022938668728L195.00704166666665,121.88579821586609L195.02578333333332,132.27817663550377L195.13823333333335,52.86267408728601L196.1128,122.20899814367294L196.15028333333333,152.94845254719257L196.3377,64.76054066419603L196.46889166666665,137.34412582218647L196.97491666666667,179.85843354463577L197.36849166666664,77.97177949547769L197.55590833333332,95.14017337560655L197.855775,138.03454564511776L197.89325833333334,60.276834011077895L198.02445,104.28696343302728L198.62418333333335,141.5057139247656L198.71789166666667,138.670250415802L198.92405,189.64541213214397L198.94279166666666,170.9292376935482L199.01775833333332,131.3506186902523L199.82365,92.39363336563112L199.879875,132.79823997616768L200.25470833333335,42.20857599377635L200.36715833333332,134.79458110034466L200.3859,135.26615390181541L200.87318333333334,98.93264257907869L201.00437499999998,152.62233817577362L201.13556666666668,141.6875963062048L202.16635833333333,141.92440474033356L202.18509999999998,178.75205272436142L202.35377499999998,104.91292262077333L202.48496666666668,106.28867188096048L202.54119166666666,73.128844588995L202.67238333333333,152.1822967529297L202.7286083333333,140.12549409270287L203.140925,86.02384650707246L203.34708333333336,85.47783011198045L203.55324166666665,95.66205659508707L203.74065833333333,108.25915226340295L203.77814166666667,160.56885221600533L203.79688333333334,142.42298559844494L203.85310833333332,94.48340812325479L204.30290833333333,89.35704687237741L204.39661666666666,225.08057588338852L204.41535833333333,100.4270004630089L204.490325,171.10238993167877L204.84641666666667,148.22562964260578L205.03383333333332,19.43735548853877L205.18376666666666,109.19810423254968L205.40866666666668,149.3751864284277L206.15833333333333,116.16586634516716L206.32700833333334,62.270761817693725L206.34575,124.44383570551872L206.4582,156.81707972288132L206.49568333333335,82.33257839083673L206.66435833333333,121.68526867032051L207.32031666666668,166.93366737663746L207.84508333333332,139.07920883595943L207.90130833333333,165.9667974114418L208.12620833333332,177.4268644452095L208.650975,119.29674366116524L209.100775,135.5612643957138L209.28819166666668,168.25070576369762L210.31898333333334,195.75539150834084L210.562625,105.19619071483613L210.76878333333335,64.10976254940034L211.10613333333333,137.15496392548084L211.19984166666666,83.23959016799928L211.78083333333333,150.29327572882175L211.8745416666667,156.03796058893204L211.89328333333333,75.4289076626301L211.93076666666667,108.00618910789491L212.1556666666667,146.88056775927544L212.19315,82.8046918809414L212.41805000000002,107.40636759996416L212.60546666666667,112.79025489091875L212.84910833333333,187.52501593530178L212.94281666666666,67.82653534412385L212.96155833333333,111.85338655114175L213.24268333333333,86.74425476789476L213.35513333333333,151.1711826324463L213.54255,148.16933208703995L213.99235,128.7266699373722L214.31095833333333,188.43342559039593L214.723275,65.33715212345125L215.30426666666668,156.0209091156721L215.43545833333332,165.4227855205536L215.49168333333333,83.75408837199213L215.64161666666666,136.7956961095333L215.94148333333334,190.76474310457706L216.01645,133.01613749563694L216.11015833333335,69.90668320655824L216.1476416666667,88.04248774051668L216.185125,179.3010231256485L216.24135,109.46417579054834L216.8973083333333,72.0079047381878L217.0285,151.63344503939152L217.32836666666668,188.23747211694717L217.70319999999998,140.19952887296677L218.22796666666667,160.24914698302746L218.26545,162.38848046958447L218.28419166666666,139.9500076621771L218.321675,107.12452375888826L218.434125,127.83611619472504L218.50909166666668,50.78371310234071L218.6028,82.67563873529436L218.71525,138.9476896226406L218.80895833333332,115.96794793009758L218.9588916666667,161.51263082027435L219.35246666666666,156.95244969427586L219.61485,132.63882914185524L219.82100833333334,138.74590726196766L220.008425,123.0608860552311L220.08339166666667,42.379750102758436L220.10213333333334,62.907007277011886L220.6269,138.38356675207615L220.79557499999999,119.52992552518845L220.94550833333335,185.1613494157791L221.22663333333335,52.526075631380095L221.245375,79.6500242650509L221.470275,191.24649667739868L222.0512666666667,154.48385001718998L222.21994166666667,143.0431422740221L222.46358333333333,148.42470856010914L222.51980833333332,153.14718858897686L222.53855,183.50139574706554L222.63225833333334,132.14864873886108L222.80093333333332,141.5423752516508L222.95086666666668,190.27494513988495L223.08205833333332,92.2656615972519L223.1008,139.65738961100578L223.4194083333333,42.92613574862483L223.9816583333333,188.10986959934235L224.169075,95.09966129064561L224.86251666666666,144.35094939172268L225.03119166666667,111.64779299497606L225.04993333333334,141.19727084040642L225.16238333333334,132.14361110329628L225.46225,167.51952329277992L225.59344166666668,121.65396147966385L226.11820833333334,188.30751107633114L226.13695,143.14096735417843L226.30562500000002,179.30875101685524L226.39933333333335,111.44291156530382L226.60549166666667,168.9383693933487L226.77416666666667,131.7475368976593L227.03655,90.4850288629532L227.24270833333333,113.61558312177658L227.74873333333335,157.90344187617302L227.80495833333333,206.08556436002254L227.9736333333333,87.985992372036L228.442175,68.52194005250932L228.51714166666665,151.1169027686119L228.68581666666668,71.64213547110559L228.9482,188.23604786396027L229.06064999999998,83.45138186216356L229.09813333333332,80.29774287343027L229.73535,111.74437844753267L229.8478,89.38650780916215L229.96024999999997,89.38162842392923L229.99773333333334,108.11482796072961L230.016475,173.23354715108871L230.20389166666666,56.56288334727289L230.29760000000002,189.1338943094015L230.55998333333335,64.07716298103334L230.72865833333333,104.70917531847955L231.028525,116.26118579506874L231.49706666666668,118.9160461127758L231.85315833333334,142.45731273293495L232.02183333333335,174.39676621556282L232.35918333333333,130.21962994337082L232.69653333333332,148.6575079858303L232.86520833333336,152.98626118898392L233.29626666666667,128.5739583671093L233.33374999999998,94.9237924218178L233.35249166666665,143.99836765229702L234.30831666666668,173.17349115014076L234.45825,103.90842863917352L234.514475,124.47026351094246L234.68314999999998,92.8571222126484L235.00175833333333,131.4964727461338L235.39533333333335,169.45878879725933L235.67645833333336,180.0586729645729L235.976325,86.88098305463792L236.35115833333333,127.39639127254486L236.48235,90.49188637733461L236.61354166666666,128.53605741262436L236.70725,95.27750828862192L237.28824166666666,89.30442863702775L237.438175,89.2433703839779L237.47565833333334,166.28085838258266L238.112875,102.0030418932438L238.1691,110.77952617406847L238.43148333333332,108.78852599859239L238.46896666666666,101.96788394451143L238.48770833333336,140.92791558802128L238.69386666666665,156.74698801338673L238.80631666666667,42.568674623966245L239.33108333333334,247.74150909483433L239.38730833333335,30.047275364398985L239.40605,194.15275083482265L239.5185,103.00814250111581L239.55598333333333,182.7738398462534L239.87459166666665,105.24817594885828L240.024525,169.93303866684437L240.19320000000002,39.058392137289076L240.47432500000002,147.74631576240063L240.77419166666667,96.38913774490358L241.50511666666665,50.4384636282921L241.73001666666667,108.63257029652597L241.76749999999998,110.57591074705125L241.95491666666666,186.35989786684513L242.161075,83.43225994706155L242.29226666666668,48.797829687595396L242.42345833333331,169.65312020480633L242.46094166666668,118.87381964921951L242.77955,141.5284492224455L243.13564166666666,97.65785703063013L243.81034166666666,116.8445228934288L243.99775833333334,114.03805875778198L244.31636666666665,110.95106953382493L244.42881666666668,115.91801995038986L244.59749166666666,103.60234612226488L245.15974166666666,151.381958886981L245.5908,101.28389963507654L245.60954166666667,89.55926442146303L245.94689166666666,79.01979231834413L246.47165833333335,98.5890547335148L246.56536666666668,102.05982738733293L246.80900833333334,100.72493308782579L246.82775,39.61854556202891L247.07139166666667,201.32474818825722L247.22132499999998,190.88282422721386L247.31503333333333,124.93008622527122L247.35251666666667,140.35978370904922L247.37125833333334,186.01546601951122L247.74609166666667,92.95315378904344L247.83980000000003,85.09594568610193L248.0647,140.71191707253456L248.10218333333333,144.53533740341663L248.2896,118.13318172097206L248.38330833333333,58.90965664386751L248.5145,133.5000010728836L248.795625,101.04520538449289L248.87059166666666,116.79812917113304L249.09549166666667,109.74947476387025L249.470325,130.0322879254818L249.75144999999998,167.7990988790989L249.920125,113.96597573161125L250.01383333333334,131.89613395929337L250.819725,149.52924312651157L250.91343333333333,201.84006401896477L251.08210833333334,140.35828033089638L251.19455833333333,76.99656182527544L251.40071666666665,89.9897316992283L251.4756833333333,76.42290437221529L251.77554999999998,94.58729946613313L252.01919166666667,72.70407432317735L252.394025,135.17862828075886L252.5627,131.86938965320587L252.71263333333334,149.24044945836067L253.08746666666667,98.36644926667215L253.38733333333332,144.04303380846977L253.76216666666664,113.6453869342804L253.81839166666668,130.5738469362259L254.11825833333333,209.8106980472803L254.3806416666667,159.25939665734768L254.418125,125.0481409728527L254.62428333333332,113.13756161928177L255.7487833333333,92.39737862348558L255.91745833333334,200.3158891350031L255.93619999999999,39.40556699037555L256.49845,128.88389164209366L256.85454166666665,89.1532204449177L256.9107666666667,175.09755143523216L257.32308333333333,98.68107730150224L258.016525,84.39521321654321L258.14771666666667,57.38924020528795L258.54129166666667,216.47951209545135L258.6537416666667,71.06673726439477L258.69122500000003,68.46183130145074L259.0848,113.49399411678314L259.49711666666667,29.742880851030378L260.04062500000003,144.09668067097664L260.0781083333333,183.0645457059145L260.6403583333333,62.369140774011626L260.90274166666666,122.39900404214859L261.14638333333335,110.29862979054452L261.20260833333333,119.94773277640343L261.4275083333333,121.61094376444817L261.76485833333334,174.33942684531212L262.53326666666663,173.41784285008907L262.8331333333333,171.0535433292389L263.301675,75.23386412858964" style="fill: none;" fill="none"></path></g></g></g></g></g></g><g transform="translate(48, 177)" clip-path="url(#clip_1)"><clipPath id="clip_1"><rect width="281" height="23"></rect></clipPath><g><g><line x1="0" y1="0" x2="0" y2="5" style="visibility: inherit;" fill="rgb(0, 0, 0)" stroke="rgb(204, 204, 204)" stroke-width="1px"></line><line x1="23.427083333333332" y1="0" x2="23.427083333333332" y2="5" style="visibility: inherit;" fill="rgb(0, 0, 0)" stroke="rgb(204, 204, 204)" stroke-width="1px"></line><line x1="46.854166666666664" y1="0" x2="46.854166666666664" y2="5" style="visibility: inherit;" fill="rgb(0, 0, 0)" stroke="rgb(204, 204, 204)" stroke-width="1px"></line><line x1="70.28125" y1="0" x2="70.28125" y2="5" style="visibility: inherit;" fill="rgb(0, 0, 0)" stroke="rgb(204, 204, 204)" stroke-width="1px"></line><line x1="93.70833333333333" y1="0" x2="93.70833333333333" y2="5" style="visibility: inherit;" fill="rgb(0, 0, 0)" stroke="rgb(204, 204, 204)" stroke-width="1px"></line><line x1="117.13541666666667" y1="0" x2="117.13541666666667" y2="5" style="visibility: inherit;" fill="rgb(0, 0, 0)" stroke="rgb(204, 204, 204)" stroke-width="1px"></line><line x1="140.5625" y1="0" x2="140.5625" y2="5" style="visibility: inherit;" fill="rgb(0, 0, 0)" stroke="rgb(204, 204, 204)" stroke-width="1px"></line><line x1="163.98958333333334" y1="0" x2="163.98958333333334" y2="5" style="visibility: inherit;" fill="rgb(0, 0, 0)" stroke="rgb(204, 204, 204)" stroke-width="1px"></line><line x1="187.41666666666666" y1="0" x2="187.41666666666666" y2="5" style="visibility: inherit;" fill="rgb(0, 0, 0)" stroke="rgb(204, 204, 204)" stroke-width="1px"></line><line x1="210.84375" y1="0" x2="210.84375" y2="5" style="visibility: inherit;" fill="rgb(0, 0, 0)" stroke="rgb(204, 204, 204)" stroke-width="1px"></line><line x1="234.27083333333334" y1="0" x2="234.27083333333334" y2="5" style="visibility: inherit;" fill="rgb(0, 0, 0)" stroke="rgb(204, 204, 204)" stroke-width="1px"></line><line x1="257.69791666666663" y1="0" x2="257.69791666666663" y2="5" style="visibility: inherit;" fill="rgb(0, 0, 0)" stroke="rgb(204, 204, 204)" stroke-width="1px"></line><line x1="281.125" y1="0" x2="281.125" y2="5" style="visibility: inherit;" fill="rgb(0, 0, 0)" stroke="rgb(204, 204, 204)" stroke-width="1px"></line></g><g transform="translate(0, 8)"><text x="0" y="0" dx="0em" dy="0.95em" style="text-anchor: middle; visibility: hidden; font-family: &quot;Helvetica Neue&quot;, sans-serif; font-size: 12px; font-weight: 200;" fill="rgb(50, 49, 63)" stroke="none" stroke-width="1px">-10k</text><text x="23.427083333333332" y="0" dx="0em" dy="0.95em" style="text-anchor: middle; visibility: inherit; font-family: &quot;Helvetica Neue&quot;, sans-serif; font-size: 12px; font-weight: 200;" fill="rgb(50, 49, 63)" stroke="none" stroke-width="1px">0</text><text x="46.854166666666664" y="0" dx="0em" dy="0.95em" style="text-anchor: middle; visibility: hidden; font-family: &quot;Helvetica Neue&quot;, sans-serif; font-size: 12px; font-weight: 200;" fill="rgb(50, 49, 63)" stroke="none" stroke-width="1px">10k</text><text x="70.28125" y="0" dx="0em" dy="0.95em" style="text-anchor: middle; visibility: inherit; font-family: &quot;Helvetica Neue&quot;, sans-serif; font-size: 12px; font-weight: 200;" fill="rgb(50, 49, 63)" stroke="none" stroke-width="1px">20k</text><text x="93.70833333333333" y="0" dx="0em" dy="0.95em" style="text-anchor: middle; visibility: hidden; font-family: &quot;Helvetica Neue&quot;, sans-serif; font-size: 12px; font-weight: 200;" fill="rgb(50, 49, 63)" stroke="none" stroke-width="1px">30k</text><text x="117.13541666666667" y="0" dx="0em" dy="0.95em" style="text-anchor: middle; visibility: inherit; font-family: &quot;Helvetica Neue&quot;, sans-serif; font-size: 12px; font-weight: 200;" fill="rgb(50, 49, 63)" stroke="none" stroke-width="1px">40k</text><text x="140.5625" y="0" dx="0em" dy="0.95em" style="text-anchor: middle; visibility: hidden; font-family: &quot;Helvetica Neue&quot;, sans-serif; font-size: 12px; font-weight: 200;" fill="rgb(50, 49, 63)" stroke="none" stroke-width="1px">50k</text><text x="163.98958333333334" y="0" dx="0em" dy="0.95em" style="text-anchor: middle; visibility: inherit; font-family: &quot;Helvetica Neue&quot;, sans-serif; font-size: 12px; font-weight: 200;" fill="rgb(50, 49, 63)" stroke="none" stroke-width="1px">60k</text><text x="187.41666666666666" y="0" dx="0em" dy="0.95em" style="text-anchor: middle; visibility: hidden; font-family: &quot;Helvetica Neue&quot;, sans-serif; font-size: 12px; font-weight: 200;" fill="rgb(50, 49, 63)" stroke="none" stroke-width="1px">70k</text><text x="210.84375" y="0" dx="0em" dy="0.95em" style="text-anchor: middle; visibility: inherit; font-family: &quot;Helvetica Neue&quot;, sans-serif; font-size: 12px; font-weight: 200;" fill="rgb(50, 49, 63)" stroke="none" stroke-width="1px">80k</text><text x="234.27083333333334" y="0" dx="0em" dy="0.95em" style="text-anchor: middle; visibility: hidden; font-family: &quot;Helvetica Neue&quot;, sans-serif; font-size: 12px; font-weight: 200;" fill="rgb(50, 49, 63)" stroke="none" stroke-width="1px">90k</text><text x="257.69791666666663" y="0" dx="0em" dy="0.95em" style="text-anchor: middle; visibility: inherit; font-family: &quot;Helvetica Neue&quot;, sans-serif; font-size: 12px; font-weight: 200;" fill="rgb(50, 49, 63)" stroke="none" stroke-width="1px">100k</text><text x="281.125" y="0" dx="0em" dy="0.95em" style="text-anchor: middle; visibility: hidden; font-family: &quot;Helvetica Neue&quot;, sans-serif; font-size: 12px; font-weight: 200;" fill="rgb(50, 49, 63)" stroke="none" stroke-width="1px">110k</text></g><line x1="0" y1="0" x2="281.125" y2="0" fill="rgb(0, 0, 0)" stroke="rgb(204, 204, 204)" stroke-width="1px"></line></g></g></g></g></svg>