<svg viewBox="0 0 330 200" xmlns="http://www.w3.org/2000/svg"><g><g><g><g><g><line x1="39.15625" y1="177" x2="34.15625" y2="177" style="visibility: inherit;" fill="rgb(0, 0, 0)" stroke="rgb(204, 204, 204)" stroke-width="1px"></line><line x1="39.15625" y1="162.25" x2="34.15625" y2="162.25" style="visibility: inherit;" fill="rgb(0, 0, 0)" stroke="rgb(204, 204, 204)" stroke-width="1px"></line><line x1="39.15625" y1="147.5" x2="34.15625" y2="147.5" style="visibility: inherit;" fill="rgb(0, 0, 0)" stroke="rgb(204, 204, 204)" stroke-width="1px"></line><line x1="39.15625" y1="132.75" x2="34.15625" y2="132.75" style="visibility: inherit;" fill="rgb(0, 0, 0)" stroke="rgb(204, 204, 204)" stroke-width="1px"></line><line x1="39.15625" y1="118" x2="34.15625" y2="118" style="visibility: inherit;" fill="rgb(0, 0, 0)" stroke="rgb(204, 204, 204)" stroke-width="1px"></line><line x1="39.15625" y1="103.25" x2="34.15625" y2="103.25" style="visibility: inherit;" fill="rgb(0, 0, 0)" stroke="rgb(204, 204, 204)" stroke-width="1px"></line><line x1="39.15625" y1="88.5" x2="34.15625" y2="88.5" style="visibility: inherit;" fill="rgb(0, 0, 0)" stroke="rgb(204, 204, 204)" stroke-width="1px"></line><line x1="39.15625" y1="73.75" x2="34.15625" y2="73.75" style="visibility: inherit;" fill="rgb(0, 0, 0)" stroke="rgb(204, 204, 204)" stroke-width="1px"></line><line x1="39.15625" y1="59" x2="34.15625" y2="59" style="visibility: inherit;" fill="rgb(0, 0, 0)" stroke="rgb(204, 204, 204)" stroke-width="1px"></line><line x1="39.15625" y1="44.25" x2="34.15625" y2="44.25" style="visibility: inherit;" fill="rgb(0, 0, 0)" stroke="rgb(204, 204, 204)" stroke-width="1px"></line><line x1="39.15625" y1="29.5" x2="34.15625" y2="29.5" style="visibility: inherit;" fill="rgb(0, 0, 0)" stroke="rgb(204, 204, 204)" stroke-width="1px"></line><line x1="39.15625" y1="14.75" x2="34.15625" y2="14.75" style="visibility: inherit;" fill="rgb(0, 0, 0)" stroke="rgb(204, 204, 204)" stroke-width="1px"></line><line x1="39.15625" y1="0" x2="34.15625" y2="0" style="visibility: inherit;" fill="rgb(0, 0, 0)" stroke="rgb(204, 204, 204)" stroke-width="1px"></line></g><g transform="translate(29.15625, 0)"><text x="0" y="177" dx="0em" dy="0.3em" style="text-anchor: end; visibility: hidden; font-family: &quot;Helvetica Neue&quot;, sans-serif; font-size: 12px; font-weight: 200;" fill="rgb(50, 49, 63)" stroke="none" stroke-width="1px">96</text><text x="0" y="162.25" dx="0em" dy="0.3em" style="text-anchor: end; visibility: inherit; font-family: &quot;Helvetica Neue&quot;, sans-serif; font-size: 12px; font-weight: 200;" fill="rgb(50, 49, 63)" stroke="none" stroke-width="1px">98</text><text x="0" y="147.5" dx="0em" dy="0.3em" style="text-anchor: end; visibility: hidden; font-family: &quot;Helvetica Neue&quot;, sans-serif; font-size: 12px; font-weight: 200;" fill="rgb(50, 49, 63)" stroke="none" stroke-width="1px">100</text><text x="0" y="132.75" dx="0em" dy="0.3em" style="text-anchor: end; visibility: inherit; font-family: &quot;Helvetica Neue&quot;, sans-serif; font-size: 12px; font-weight: 200;" fill="rgb(50, 49, 63)" stroke="none" stroke-width="1px">102</text><text x="0" y="118" dx="0em" dy="0.3em" style="text-anchor: end; visibility: hidden; font-family: &quot;Helvetica Neue&quot;, sans-serif; font-size: 12px; font-weight: 200;" fill="rgb(50, 49, 63)" stroke="none" stroke-width="1px">104</text><text x="0" y="103.25" dx="0em" dy="0.3em" style="text-anchor: end; visibility: inherit; font-family: &quot;Helvetica Neue&quot;, sans-serif; font-size: 12px; font-weight: 200;" fill="rgb(50, 49, 63)" stroke="none" stroke-width="1px">106</text><text x="0" y="88.5" dx="0em" dy="0.3em" style="text-anchor: end; visibility: hidden; font-family: &quot;Helvetica Neue&quot;, sans-serif; font-size: 12px; font-weight: 200;" fill="rgb(50, 49, 63)" stroke="none" stroke-width="1px">108</text><text x="0" y="73.75" dx="0em" dy="0.3em" style="text-anchor: end; visibility: inherit; font-family: &quot;Helvetica Neue&quot;, sans-serif; font-size: 12px; font-weight: 200;" fill="rgb(50, 49, 63)" stroke="none" stroke-width="1px">110</text><text x="0" y="59" dx="0em" dy="0.3em" style="text-anchor: end; visibility: hidden; font-family: &quot;Helvetica Neue&quot;, sans-serif; font-size: 12px; font-weight: 200;" fill="rgb(50, 49, 63)" stroke="none" stroke-width="1px">112</text><text x="0" y="44.25" dx="0em" dy="0.3em" style="text-anchor: end; visibility: inherit; font-family: &quot;Helvetica Neue&quot;, sans-serif; font-size: 12px; font-weight: 200;" fill="rgb(50, 49, 63)" stroke="none" stroke-width="1px">114</text><text x="0" y="29.5" dx="0em" dy="0.3em" style="text-anchor: end; visibility: hidden; font-family: &quot;Helvetica Neue&quot;, sans-serif; font-size: 12px; font-weight: 200;" fill="rgb(50, 49, 63)" stroke="none" stroke-width="1px">116</text><text x="0" y="14.75" dx="0em" dy="0.3em" style="text-anchor: end; visibility: inherit; font-family: &quot;Helvetica Neue&quot;, sans-serif; font-size: 12px; font-weight: 200;" fill="rgb(50, 49, 63)" stroke="none" stroke-width="1px">118</text><text x="0" y="0" dx="0em" dy="0.3em" style="text-anchor: end; visibility: hidden; font-family: &quot;Helvetica Neue&quot;, sans-serif; font-size: 12px; font-weight: 200;" fill="rgb(50, 49, 63)" stroke="none" stroke-width="1px">120</text></g><line x1="39.15625" y1="0" x2="39.15625" y2="177" fill="rgb(0, 0, 0)" stroke="rgb(204, 204, 204)" stroke-width="1px"></line></g></g><g transform="translate(39, 0)" clip-path="url(#clip_0)"><clipPath id="clip_0"><rect width="290" height="177"></rect></clipPath><g><g><g><line x1="0" y1="0" x2="0" y2="177" fill="rgb(0, 0, 0)" stroke="rgb(60, 60, 60)" stroke-width="1px" opacity="0.25"></line><line x1="36.35546875" y1="0" x2="36.35546875" y2="177" fill="rgb(0, 0, 0)" stroke="rgb(60, 60, 60)" stroke-width="1px" opacity="0.25"></line><line x1="72.7109375" y1="0" x2="72.7109375" y2="177" fill="rgb(0, 0, 0)" stroke="rgb(60, 60, 60)" stroke-width="1px" opacity="0.25"></line><line x1="109.06640625" y1="0" x2="109.06640625" y2="177" fill="rgb(0, 0, 0)" stroke="rgb(60, 60, 60)" stroke-width="1px" opacity="0.25"></line><line x1="145.421875" y1="0" x2="145.421875" y2="177" fill="rgb(0, 0, 0)" stroke="rgb(60, 60, 60)" stroke-width="1px" opacity="0.25"></line><line x1="181.77734375" y1="0" x2="181.77734375" y2="177" fill="rgb(0, 0, 0)" stroke="rgb(60, 60, 60)" stroke-width="1px" opacity="0.25"></line><line x1="218.1328125" y1="0" x2="218.1328125" y2="177" fill="rgb(0, 0, 0)" stroke="rgb(60, 60, 60)" stroke-width="1px" opacity="0.25"></line><line x1="254.48828125" y1="0" x2="254.48828125" y2="177" fill="rgb(0, 0, 0)" stroke="rgb(60, 60, 60)" stroke-width="1px" opacity="0.25"></line><line x1="290.84375" y1="0" x2="290.84375" y2="177" fill="rgb(0, 0, 0)" stroke="rgb(60, 60, 60)" stroke-width="1px" opacity="0.25"></line></g><g><line x1="0" y1="177" x2="290.84375" y2="177" fill="rgb(0, 0, 0)" stroke="rgb(60, 60, 60)" stroke-width="1px" opacity="0.25"></line><line x1="0" y1="162.25" x2="290.84375" y2="162.25" fill="rgb(0, 0, 0)" stroke="rgb(60, 60, 60)" stroke-width="1px" opacity="0.25"></line><line x1="0" y1="147.5" x2="290.84375" y2="147.5" fill="rgb(0, 0, 0)" stroke="rgb(60, 60, 60)" stroke-width="1px" opacity="0.25"></line><line x1="0" y1="132.75" x2="290.84375" y2="132.75" fill="rgb(0, 0, 0)" stroke="rgb(60, 60, 60)" stroke-width="1px" opacity="0.25"></line><line x1="0" y1="118" x2="290.84375" y2="118" fill="rgb(0, 0, 0)" stroke="rgb(60, 60, 60)" stroke-width="1px" opacity="0.25"></line><line x1="0" y1="103.25" x2="290.84375" y2="103.25" fill="rgb(0, 0, 0)" stroke="rgb(60, 60, 60)" stroke-width="1px" opacity="0.25"></line><line x1="0" y1="88.5" x2="290.84375" y2="88.5" fill="rgb(0, 0, 0)" stroke="rgb(60, 60, 60)" stroke-width="1px" opacity="0.25"></line><line x1="0" y1="73.75" x2="290.84375" y2="73.75" fill="rgb(0, 0, 0)" stroke="rgb(60, 60, 60)" stroke-width="1px" opacity="0.25"></line><line x1="0" y1="59" x2="290.84375" y2="59" fill="rgb(0, 0, 0)" stroke="rgb(60, 60, 60)" stroke-width="1px" opacity="0.25"></line><line x1="0" y1="44.25" x2="290.84375" y2="44.25" fill="rgb(0, 0, 0)" stroke="rgb(60, 60, 60)" stroke-width="1px" opacity="0.25"></line><line x1="0" y1="29.5" x2="290.84375" y2="29.5" fill="rgb(0, 0, 0)" stroke="rgb(60, 60, 60)" stroke-width="1px" opacity="0.25"></line><line x1="0" y1="14.75" x2="290.84375" y2="14.75" fill="rgb(0, 0, 0)" stroke="rgb(60, 60, 60)" stroke-width="1px" opacity="0.25"></line><line x1="0" y1="0" x2="290.84375" y2="0" fill="rgb(0, 0, 0)" stroke="rgb(60, 60, 60)" stroke-width="1px" opacity="0.25"></line></g></g></g><g><g><line x1="0" y1="885" x2="290.84375" y2="885" fill="rgb(0, 0, 0)" stroke="rgb(153, 153, 153)" stroke-width="1.5px"></line></g></g><g><g><line x1="36.35546875" y1="0" x2="36.35546875" y2="177" fill="rgb(0, 0, 0)" stroke="rgb(153, 153, 153)" stroke-width="1.5px"></line></g></g><g><g><g><g><g><path stroke="rgb(255, 112, 67)" stroke-width="2px" d="M43.690548125,-10.002713941945558L44.01047625,7.33544525897824L44.027926875,-7.005765673743554L44.109363124999994,0.5122598355259811L44.132630625000004,8.434822876627692L44.411840625,8.230716800153772L44.45255875,6.366886194917896L44.70850125,14.11335223920696L44.883007500000005,18.78517900790777L45.214569374999996,22.04059249724608L45.38325875,21.981357756644684L45.47632875,0.4118882310605727L45.569398750000005,24.07517096406994L45.895143749999995,19.320709496712908L46.191804375,27.612209481053668L46.296508124999995,11.204425908279234L46.34886,21.574115811110943L46.44193,23.933665119605195L46.459380625,29.219514181021594L46.715323125000005,47.81921842683761L47.08178625,48.490417164501196L47.209757499999995,48.32065563317349L47.227208125,37.660359078144694L47.273743124999996,35.516374596056465L47.506418125,32.419318776188504L47.605304999999994,34.621071398769715L47.680924375000004,37.992844713041166L48.198626250000004,36.77230861920654L48.547638750000004,35.86319672547896L49.076974375,41.32522165467219L49.146776875,30.178693936406688L49.332916874999995,25.558559135281456L49.367818125,27.820374891569344L49.48415562500001,38.90977254236347L49.51324,44.734308807400424L49.77499937499999,46.03809199830735L49.844801875,45.219526875620204L50.048392500000006,45.13769490039641L50.251983124999995,49.86764883110713L50.2578,48.14418549007053L50.52537625,48.01503492990656L50.624263125,44.8582885360689L50.635896875,50.52546125030351L50.66498125,45.19306987151998L50.810403125,45.898842487487116L50.816219999999994,50.591221996398545L50.8860225,53.2517359901975L50.915106875,56.749366560549205L51.08379625,46.342629503590274L51.171049375,46.47919563733481L51.205950625,41.80605185200534L51.973778125,45.33305661779491L52.29370625,39.30182905734688L52.578733125,46.422306083089666L53.20113875,49.689082349804934L53.614136875,52.69746582834003L54.027135,54.672511632013794L54.044585625,50.22752965376881L54.381964375,48.3840161137945L54.742610625,51.70585636932654L55.143975,54.704312924379224L55.22541125,55.78981149425151L55.237045,58.14048006671689L55.242861875,64.45671464525475L55.580240624999995,59.31918984367138L56.59819375,62.59423645564128L57.29621875,65.91545148031835L57.4009225,62.510192747932166L57.412556249999994,63.626732561601145L57.703399999999995,62.915239366062295L58.029145,68.74151880274282L58.116398124999996,73.1915036125783L58.418875625000005,69.45880704425603L58.54103,59.18706057848233L58.581748125,58.78462862003862L59.204153749999996,59.61894535439622L59.36702625,56.57036165843856L59.52989875,68.49580700665973L59.832376249999996,63.59902152699388L60.193022500000005,50.911176832212035L60.76307625,62.646569151695445L60.943399375,65.72763570488446L60.972483749999995,63.4151893636045L61.39129875,67.83542152526722L61.466918125,67.72218339611744L61.478551875,74.26988649946246L61.949718749999995,70.53927107204075L62.48487125,71.65503236978697L62.583758125,72.09298508959675L62.705912500000004,72.45465122221506L63.27596625,75.1741949233924L63.48537375,80.28494145354716L63.50864125,83.38960577178659L63.555176249999995,78.36589008050356L64.20666625,76.63544362471822L64.2881025,75.30492607168155L64.50914374999999,66.66561402923939L64.57894625,62.594331109804386L64.823255,65.74976883189822L65.2188025,71.7335141769465L65.27115437500001,76.83848573395115L65.288605,80.2931755162985L65.7306875,78.53017014132203L65.74232125,78.20167447248856L66.0564325,75.65793705654009L66.21930499999999,74.34289760990069L66.830076875,76.12071964504199L67.353595625,76.70113280631227L67.446665625,79.32066823969554L67.528101875,77.36020833212294L67.88293125,77.74731625293592L68.447168125,75.7742381404335L68.633308125,77.0862958139476L69.30224875,81.61079276241638L69.389501875,81.9614982404576L69.645444375,92.76488646258514L70.13987875000001,92.33987899058822L70.238765625,95.9278959002123L70.25621625,91.55245363509815L70.46562374999999,93.82055299160571L70.506341875,91.09009714530511L70.715749375,86.3017614579594L70.83790375,90.32830571510775L71.19855,86.17996911632059L71.3148875,79.47480695502183L71.960560625,84.46967726383339L72.018729375,77.67815950771411L72.42009375,79.61641261136668L72.49571312500001,82.79011429045292L72.530614375,80.48706524785571L72.60623375,77.7054532600416L72.937795625,70.01864091354453L73.07158375,73.90180268167157L73.100668125,84.45342482494534L73.44386375,85.75439513544576L73.58346875,86.39629095089637L74.28149375000001,91.6464346962703L74.59560499999999,103.37932123646335L74.764294375,96.41983212176073L75.07840562499999,92.7936625787205L75.30526375,92.78819324425382L75.32271437499999,89.45112715871055L75.392516875,96.6442080182488L75.57284,97.0539713288936L76.17779499999999,93.71552259836155L76.22433,92.33823003240552L76.311583125,94.13082574527331L76.87582,91.22602581215423L77.02705875000001,93.87663645286865L77.15503000000001,89.87084347450434L77.6901825,93.9646958735209L77.73671750000001,92.08452621857055L77.975209375,91.8768815026267L78.510361875,95.72623762044805L78.882641875,95.71495895715648L79.04551437500001,95.39039695937694L79.05133124999999,95.86966832088979L79.161851875,95.79716872935028L79.29563999999999,92.01420097210723L79.406160625,91.36402595435806L79.69118750000001,92.11046498057388L79.74935625,95.87088904998986L79.766806875,98.85894929303093L79.85406,103.3910775836311L80.046016875,101.9600490007401L81.06978687499999,103.56828022441863L81.104688125,99.63731098438262L81.49441875000001,103.23744945684047L81.65729125,98.01465519046175L81.71546,101.11938958034156L81.91905062500001,93.21278593936698L82.30878125,91.07269300221883L82.49492125,91.22296760797194L82.83811687500001,93.4326346297245L83.0417075,95.30552804345972L83.2743825,104.81805651113442L83.93750625000001,98.9273687882724L84.141096875,91.28764151832472L84.175998125,95.82199515879756L84.5773625,94.27483924615746L84.833305,99.95195112459875L85.00199437500001,101.96541277070651L85.03107875,99.16148795783407L85.083430625,96.92258704960275L85.606949375,101.18105505263762L85.6244,103.62556036922909L85.7872725,101.20776229270447L85.84544125,102.01948083143327L86.18281999999999,99.62243411958752L86.386410625,102.09292458308066L86.584184375,106.8136423993845L86.933196875,102.9824202876531L87.654489375,105.4775945676113L87.67193999999999,103.9153840263334L87.997685,99.97856543777269L88.14892375000001,98.32417539547615L88.166374375,101.07071678513717L88.28852875,101.31140933438795L88.32924687500001,100.89637547734175L88.66662562500001,101.97828968765015L88.701526875,101.615108730803L89.027271875,103.6976113810599L90.0219575,105.57658074465148L90.062675625,104.57775310377335L90.21973125,99.69203035652671L90.54547625,101.38444352519534L90.73161625,101.94377036316406L91.10389625,106.84406563891896L91.121346875,109.10264948161796L91.237684375,102.18255373926367L91.42964124999999,101.19876640493514L91.889174375,100.76586094769733L91.92989250000001,101.08739857240253L92.005511875,103.35168154456453L92.354524375,106.8258374179497L92.52903062499999,104.70571668416825L92.66281875,106.0295686213408L92.76752250000001,109.999487083449L93.17470374999999,111.5357708938682L93.610969375,109.15553617523693L93.983249375,111.9917424204742L94.36134625,106.58724134461852L94.8615975,109.718712146859L95.01283625,108.0702524040822L95.50145375,108.34549120990538L96.12967624999999,110.09418437438075L96.170394375,104.560276493769L96.82770125,106.72306241115393L96.845151875,105.5265174241093L96.96730625,107.99947979040311L97.310501875,106.26313163034538L97.36867062500001,104.14131556267989L97.391938125,99.56059423873091L97.56062750000001,103.37863025539673L98.05506187499999,105.62520366593328L98.15394875,106.65368741562446L98.23538500000001,109.42741600162081L98.32845499999999,111.15654000929764L98.427341875,112.65880056197507L98.66001687500001,110.41551883205811L98.927593125,111.28146461954736L98.93341000000001,109.00617087072744L99.06138125000001,110.24155538193347L99.264971875,113.9372199112889L99.416210625,113.8215276560019L99.4685625,112.76235705380617L99.77104,112.65108107188335L99.78849062500001,111.75440291559099L99.98626437499999,112.24229705330971L100.009531875,118.84118969438816L100.14332,116.38647193430866L100.17822125,113.61905509662041L100.18985500000001,113.73791827220556L100.42253,114.01352961932923L100.45743125,110.17400674864831L100.533050625,109.17770803478466L100.562135,107.62956030671067L100.934415,107.8820265740411L101.04493562500001,111.69384073080165L101.09728750000001,114.7714100293013L101.35904687499999,113.13985407422146L101.492835,113.62088601631027L101.50446874999999,113.60084810758889L101.510285625,112.2336060935572L101.85348125,112.99163422193024L102.77836437500001,114.62542029145892L103.08665875,113.98307039692128L103.20299625,116.67250520201995L103.383319375,113.85569695360948L103.43567125,114.11296040849385L103.534558125,116.27734808347518L103.63344500000001,111.35507996214565L103.813768125,104.91711711486059L104.11042875,101.34888477086946L104.244216875,106.32695400094939L104.325653125,107.93530432805987L104.756101875,109.76097126260737L105.419225625,109.99040310058196L105.977645625,112.77386145873784L106.00673,109.44049142053082L106.2161375,109.05282787233801L106.39646062499999,110.67401773780709L106.9606975,110.16569985777214L107.11193625,113.00154355663106L107.13520375,108.83215095697665L107.22827375,107.43341189681786L107.4725825,112.25260390078606L107.8448625,115.36421225807423L107.862313125,116.48843320811598L107.955383125,114.21015243890764L108.513803125,116.90726631380844L108.8220975,114.517921647416L109.374700625,115.11079685746812L110.06109187499999,116.48794417893407L110.223964375,111.47617104837609L110.56716,114.5634301375706L110.840553125,116.96807784267423L111.259368125,121.15571776883692L111.36988875,120.56467089567715L111.620014375,120.48827076860746L112.07373062500001,122.3524404579907L112.1726175,123.43389622059512L112.329673125,118.51195287517938L112.4518275,120.96253633387225L112.52163,118.60942335061625L112.608883125,118.88211557348006L112.632150625,120.00615990805284L112.7310375,124.77145183472433L112.940445,124.6520434641158L113.17312000000001,123.9767683758328L113.365076875,125.16656410777507L114.004933125,123.88324077179395L114.3132275,120.07195953876004L114.33649500000001,121.07684271544349L114.4528325,116.58618817931492L114.737859375,119.42732173327255L114.90654875,122.03767203166277L115.1508575,124.78152350708358L115.447518125,123.98905189111538L115.58130625,124.2244434790295L115.92450187499999,121.80018313148503L115.9419525,120.72362718235782L116.32004937500001,121.86844030172422L116.48873875,118.68212527722591L116.6865125,116.22342311555437L116.890103125,119.37882315644191L117.02389125,120.53199741559362L117.11696124999999,116.4486074764558L117.541593125,119.51105291360786L117.65211375,114.66875256725649L117.780085,111.74284623639886L118.25706875,114.66482776747412L119.077248125,117.8660536429064L119.461161875,117.73831809882972L119.50188,118.3167571862021L119.554231875,116.40763510700938L119.65311874999999,115.23035987279943L119.72292125,116.30423078574029L119.7578225,117.87600999854382L120.101018125,121.33622840513218L120.39186187499999,125.77623960655592L120.665255,123.01088422108691L120.87466250000001,123.07773338299387L121.0142675,123.23798371876117L121.031718125,122.29941025689146L121.46798375,120.6197081048185L121.502885,121.0842760347661L121.67739125,122.89531888624055L121.72974312500001,120.01689180171502L121.753010625,121.92457981369495L121.787911875,119.79392559207434L122.323064375,124.47092208192916L122.32888125,122.0665231283079L122.37541625,123.15438111636462L122.39868375,121.45433406837836L122.497570625,119.69151676182781L122.869850625,119.18287766268749L122.98037125,118.91845386201679L123.178145,124.07039375886042L123.765649375,119.52703277936406L124.1321125,123.51497149867313L124.39968875,121.11042866946758L124.65563125,122.19547701979587L124.76615187499999,124.6694148129517L125.15588249999999,124.03405016340578L125.49326124999999,123.05451289223294L125.627049375,118.8595494711796L126.359975625,124.02757889535431L126.371609375,125.9563369185114L126.55774937500001,121.91667896690268L126.7380725,120.54604085792482L127.081268125,118.68389282530174L127.91308125,120.03613067809113L128.05268625,119.22532449450111L128.105038125,122.71512442997705L128.407515625,125.54578417641883L128.42496625,126.52799388231614L129.30331437499999,122.4943506506788L129.38475062499998,123.34207204507035L129.978071875,124.76492759899051L130.10022625,121.21531489679657L130.873870625,124.52596017831235L131.292685625,124.16253388591804L131.420656875,124.85298412244433L131.51954375,124.17327042341773L131.78712000000002,123.38917496157012L131.98489375,124.08443042249877L132.362990625,125.88124525911448L132.677101875,124.17255285004885L132.828340625,121.77532812726564L132.857425,121.46640270216508L133.270423125,123.2671299056009L133.479830625,118.10620689843859L133.7648575,123.11053962978572L134.12550375,119.8925986496976L134.131320625,120.68816233923255L134.329094375,122.71049643308058L134.410530625,125.22816095799288L134.654839375,124.95415731698327L135.6262575,124.93388812798295L135.806580625,123.40760994588159L136.004354375,125.18083267590298L136.35918375,124.82569549787577L136.4173525,124.89948376601062L136.63257687499998,125.86779237142282L136.67911187500002,125.82948279590053L136.82453375,127.38743615276L136.9292375,127.1221951969051L136.94087125,126.58304726645854L137.074659375,122.2018455717892L137.08047625,123.32080750786847L137.086293125,120.11850913240667L137.10374375,116.87695379182202L137.214264375,125.93649827912148L137.417855,124.05828568622293L137.598178125,123.64560869505897L137.82503625,127.19499766332444L137.883205,127.2194880694302L138.400906875,129.45440211595007L138.482343125,131.71621274173805L138.65103249999999,135.42245988381237L138.691750625,130.49469983775816L138.69756750000002,123.4997541677917L138.866256875,122.1545449597815L138.924425625,118.52388466019508L139.04076312499998,122.90412495505268L139.4421275,125.53125632984322L139.727154375,126.10371320952697L139.91911125000001,124.3453978628499L140.1401525,127.80235209051267L140.785825625,124.45249661197357L140.93124749999998,125.17026200527013L140.948698125,125.81667060037886L141.00105,128.84243766296166L141.1639225,127.97784342663444L141.367513125,125.05244397101976L141.437315625,126.5577519355904L141.80959562500001,124.69927289597348L141.90848250000002,126.03516661234002L142.30403,126.78185398046554L142.43200124999998,123.66273230710252L142.59487375,125.34986335276736L142.908985,124.84226359271508L143.682629375,125.3332485517472L143.68844625,126.71779466632665L144.241049375,125.24435248949334L144.50280875,127.95073823319791L145.20665062499998,128.91275975815606L145.24736875,127.60519293375114L145.974478125,128.62787444250168L146.253688125,128.82747234616508L146.631785,128.054704843246L146.742305625,128.9790783991116L146.77139,126.95614363370522L146.905178125,129.18212886821144L147.033149375,125.79394338232825L147.15530375,127.07696875156486L147.55085125,129.50462851656388L147.85914562500002,128.35053559382507L148.196524375,126.40162003183218L148.452466875,123.7100966223708L148.47573437499997,129.87948967508257L148.62115625,131.44188486034741L149.69727812500003,134.42790557441162L149.78453125000001,131.48165217338232L149.801981875,129.79037794648542L149.929953125,129.23256722199275L149.964854375,128.30496391717995L150.24406437500002,131.39313917794473L150.3313175,131.9472268905559L150.59889375,128.41041529693118L150.68033,130.33784883331003L150.74431562499998,128.70039301580636L151.06424375,129.39228399673965L151.128229375,127.54524626779482L151.163130625,130.98160180120425L151.50632625,127.64373937051748L151.663381875,126.41369990587978L151.79717000000002,129.40569140959238L152.20435125,129.91282707720077L152.3323225,127.15682557981663L152.524279375,127.75929767943302L152.62316625,128.05501632128286L152.663884375,128.48614318510374L152.89655937499998,127.78929676616474L152.97217874999998,129.24347742798503L153.00126312499998,127.76716265918358L153.036164375,129.70720425749747L153.053615,128.75899662676403L153.4956975,125.73922594847052L153.501514375,130.92474589623072L153.513148125,133.36873379872475L153.77490749999998,130.41519055084126L153.955230625,127.4951996881708L154.11228625,125.77313910001185L154.129736875,127.5035021428685L154.15882125,126.00021682527196L154.48456625,128.63035928217488L154.57181937500002,132.92968651657054L154.62417125,127.60240419509856L154.635805,126.86304774166848L154.920831875,126.34804257322378L155.25239375,127.8285707984509L155.51415312499998,129.9685085984553L155.752645,130.65766384437592L155.828264375,128.17989951512166L155.83408125000003,129.10190943563546L155.96205250000003,131.1055380564008L155.99113687500002,133.88316269284925L156.0551225,131.48025352696442L156.700795625,133.0537774976484L156.82295,131.17602260210467L157.22431437499998,130.64102615891915L157.24176500000002,134.30657500016105L157.247581875,137.71777831308492L157.526791875,136.66044184441836L157.666396875,137.57612236067928L157.85835375,136.251419113429L158.003775625,133.67062189957596L158.434224375,133.2986820386713L158.666899375,127.12676857989229L158.713434375,127.86120175767654L158.89957437500001,131.4317128148598L158.97519375,129.55360013764636L159.34747375,127.37001980853998L159.725570625,133.95709489293645L159.85935875,131.00810627047866L160.34797625000002,127.41197817268764L160.365426875,128.42572236503835L160.39451125,127.7175061729293L160.784241875,125.61911225478293L160.888945625,125.58905501461292L161.32521125,132.08331582126775L161.55206937499997,130.97590959774118L161.55788625,134.0644604009787L162.471135625,130.5838598038197L162.71544437499998,131.84404833468443L162.72126125,131.38088273616225L163.09935812499998,134.01652250058396L163.134259375,132.9564283929285L163.250596875,131.09879752647973L163.285498125,133.7505150118595L163.4076525,133.08421212906396L163.44255375,132.25002831503602L163.79156625,131.62919713428525L164.13476187499998,136.0088560186083L164.320901875,137.61689465059374L164.36162,136.00150313862284L165.60643125,132.41466988854478L165.751853125,133.9799588545136L165.8274725,134.15057296895813L165.984528125,134.54388572778592L166.02524625,129.93604594472822L166.11831625,128.19827841522556L166.16485125000003,126.80878943683066L166.2462875,131.1747771411023L166.40916,128.29498927050122L166.81052437500003,127.38933181913674L166.827975,129.64493980498293L167.07228375,129.96004737908348L167.275874375,131.2445136874599L167.49109875,130.9300322633793L168.020434375,131.37279177318868L168.113504375,133.20858335859094L168.73591,131.5628888152034L168.776628125,135.62723905694435L168.84643062499998,131.13936299593416L169.14309125,132.72480355805857L169.21289375,132.144486016671L169.7364125,132.623012105608L169.75386312499998,131.11404697894096L170.60894375,131.89844947337534L170.63221124999998,129.81808999347345L170.638028125,129.6432870100001L170.736915,130.38285712421296L170.824168125,130.17408454430318L170.882336875,131.24977924831046L170.94632249999998,131.60733520035353L170.975406875,130.5714182558322L171.00449125,130.5238117994466L171.202265,129.20176457295406L171.26043375,127.813818829832L171.4116725,131.72983296965208L171.673431875,131.80092926177173L171.80722,130.66934425445072L172.10388062500002,128.58023509270942L172.24348562499998,130.12809024385803L172.35400625,131.4318327077162L172.4354425,131.36544003295495L172.62739937499998,126.96139506225344L173.28470625,129.53719470336776L173.569733125,126.43616341015544L174.04090000000002,127.93001278913523L174.104885625,130.57943787977996L174.221223125,131.23695487264334L174.57023562499998,133.05472213318072L174.645855,134.33808497363398L174.861079375,129.00263888701244L174.97741687500002,131.6862242166069L175.0414025,132.12928976678057L175.5998225,134.46680458821783L176.420001875,135.1590240981455L176.64686,133.7794003597662L176.81554937500002,134.1511439390042L177.04240750000002,133.24869684619057L177.3216175,133.09144070292922L177.60082749999998,134.81779014197232L177.61246125,135.23646571115992L177.65899625,134.5082238786003L177.8335025,134.43827325538274L177.967290625,133.05796364805383L178.04872687499997,131.05449979222578L178.38028875,131.63556089828478L178.93870875,132.61461061733996L179.20046812500001,131.41892353593136L179.223735625,133.03737058579222L179.572748125,133.84857362711L179.840324375,136.2055133474086L180.014830625,134.2528978521952L180.142801875,134.93948285194207L180.18933687499998,134.00298910386545L180.898995625,134.6934789481591L181.073501875,137.37680971996969L181.201473125,131.8431546948969L181.39343,137.2727842964303L181.82387875,136.377938308571L182.050736875,132.82843954459088L182.550988125,130.71724080500167L182.97562,134.68560571346973L183.12104187499997,135.48561803623616L183.19666125,134.20875134542334L183.24901312499998,134.40292529150693L183.70854624999998,135.2934130423358L184.051741875,135.812468647545L184.714865625,137.16161906694492L184.80211874999998,134.1424021957822L185.26165187499998,135.04799510470076L185.62229812500001,133.34479819197085L185.76772,135.09588724648134L186.285421875,134.489146270008L186.50064625000002,134.26720907548142L186.704236875,131.07250348483956L186.89619374999998,132.230817459556L187.134685625,135.6206697359875L187.76290812500002,138.7480697950837L187.855978125,134.1914833260248L187.97813250000002,133.11204499439413L188.030484375,134.03667851946355L188.123554375,129.4923150340415L188.4900175,128.39052413700213L188.49583437500002,134.70585569619055L188.57727062499998,136.35982018040966L189.21712687500002,136.20770996408075L189.29274625,133.65859814641718L189.35673187499998,135.42762501333863L189.938419375,136.00487670478054L190.32815,135.50060897574917L190.57245875,135.14310944978052L191.491525,133.678384285591L191.9801425,133.29195107306361L191.99177625000002,134.40873845389683L192.22445125,133.6477439878654L192.23026812499998,135.92854888905714L192.236085,141.15117153924479L192.329155,133.14538470150097L192.40477437500002,136.53122801328342L192.41640812499998,140.1918149634876L192.99227875000003,135.03868974713544L193.86481,132.56381367127938L194.23709,131.6403855233243L194.27199125,132.7123936980277L194.3068925,140.49976974542795L194.33016,134.4792331088534L194.335976875,136.06701984578078L194.7722425,133.8103470240456L195.00491749999998,132.96816851105825L195.324845625,131.79630256537516L195.958885,133.94176774527978L196.022870625,132.81794761005847L196.069405625,136.08899244298817L196.348615625,134.27310219186705L196.488220625,134.41398758159977L196.720895625,134.468247285288L196.73834625,132.87775394368256L196.918669375,135.1699613872057L196.976838125,136.07295995610272L197.01755625,134.36197207961865L197.12226,136.28418649789327L197.453821875,136.97059086296937L197.570159375,137.30546052058924L197.58760999999998,135.27436899423833L197.70976437500002,134.87608379888675L198.210015625,134.98070017557228L198.73935125,135.45088653600746L198.750985,133.85764892599894L198.937125,133.89978909314814L199.04182874999998,135.87629275215355L200.688004375,136.11531498845036L200.83924312500002,137.56931678542867L201.095185625,137.28671832137917L201.41511375000002,135.12515751870643L201.77576000000002,138.27532263012034L201.851379375,138.793412419625L202.386531875,134.51231148986085L202.55522125,134.01881496398488L202.782079375,134.9663030164769L203.16017625,132.96488923176113L204.410804375,134.3058817049502L204.8703375,132.93414547804826L205.02157625,135.81714927413373L205.14954749999998,138.4707621291775L205.260068125,136.12466003629555L205.376405625,135.53885394414067L205.40549,137.24610441970705L205.49856,134.76994048385546L205.5683625,138.70592943923907L205.6614325,132.74593544064302L205.818488125,134.11473159824803L206.214035625,135.07075698873396L206.49906249999998,134.4494907838165L206.574681875,132.7632392395769L206.62121687500002,134.9567594617149L207.17381999999998,134.88621044692633L207.59263499999997,136.48144703231603L207.78459187500002,133.27986591531243L207.82531,133.02990570946582L207.877661875,135.28736023476156L208.16850562500002,136.42446310740965L208.18595625,136.256961342229L208.30811062499998,137.13500718863816L208.377913125,136.47978208417902L208.48843375,135.58605269166955L208.59895437499998,134.5665959094353L209.39004937500002,132.37544567432326L209.86121624999998,135.9807907047648L209.867033125,135.07495971338625L210.06480687500002,135.47093636880328L210.17532749999998,134.74201654845479L210.44290375,132.84764752062566L210.86171875,134.3307850913549L210.890803125,136.08323744275236L211.04204187500002,135.62864958845412L211.309618125,136.87926380397576L211.39687125,135.5362153563601L211.2921675,137.4205237694801L211.542293125,137.2209845345152L211.65863062500003,138.56331963306266L211.693531875,137.5466671643591L211.76915125,138.16185115921112L211.93202374999998,137.818263954804L212.182149375,138.16525913887364L212.804555,142.99392705925192L212.949976875,144.9047485695355L212.990695,138.22966325915297L213.01396250000002,136.26245997331398L213.589833125,137.28547776926672L213.60728375,135.167288477356L213.83995875,136.6624050230592L214.386745,140.64930916373788L214.46818125000001,140.2069561037115L214.567068125,138.48103859142608L214.57288499999999,138.66314631769754L214.81719375,138.30980795663407L215.393064375,137.29287482524995L216.39938375,135.4430451466148L216.707678125,137.20833502253922L217.33590062500002,135.4824831607404L217.39988625,141.43676963582416L218.11536187500002,141.14183282336472L218.4585575,139.43076810527367L218.673781875,142.6775015430958L218.79593624999998,144.26975547297658L219.011160625,144.71681620492856L219.220568125,143.87920776494929L219.226385,142.58564424209948L219.371806875,144.72221250351163L219.73245312499998,138.38788148770269L220.14545125,139.38330605631788L220.29669,138.32832042578295L220.395576875,134.107128669044L220.529365,134.55088151050836L220.79694124999997,135.1823046478822L221.17503812500001,140.40768677432507L221.21575625000003,138.48221391701207L221.26229125,138.1619968072385L221.54150124999998,140.61028669213118L221.593853125,137.95807875355996L221.93704875,140.63413947320527L222.012668125,138.62296949324931L222.85611500000002,137.63368236123276L222.92591750000003,135.5710743611977L223.117874375,136.29778301393537L223.129508125,135.77016074464052L223.362183125,136.33492779138882L223.74027999999998,138.86576189639095L224.17072875,139.09609059120373L224.444121875,139.58413216844298L224.653529375,141.4829011760658L224.82221875000002,141.98141894355456L224.990908125,138.96301747331052L225.06652749999998,138.61878414731638L225.08397812500002,140.57284366954218L225.467891875,139.2279484502605L225.4853425,137.84416424227553L225.735468125,137.52542631025793L225.96232625000002,138.85282406923585L226.020495,141.313476668104L226.34624000000002,140.7314491905597L227.1140675,141.69255107866687L227.15478562500002,139.66381250755168L227.16060249999998,138.7756625350486L227.201320625,137.52147738553117L227.57941749999998,135.6174778009476L227.74229,137.47985939175015L227.8120925,137.85623228544074L227.887711875,137.578760886157L227.92843000000002,136.6865940713671L228.59155375,135.05758022211717L228.61482124999998,135.6741424020692L228.77187687499998,137.12714779475715L228.783510625,138.1684265857898L229.17324125,140.41367725884686L229.307029375,134.5242664596782L229.714210625,135.78074639924444L229.77237937499999,134.66306606464434L229.87126625,139.3428664179615L229.911984375,139.866517732857L229.929435,141.0945936383714L230.01087125,137.9183093751615L230.074856875,136.75296469003837L230.865951875,138.03671190423296L231.08117625,138.970786602989L231.401104375,133.50456363659808L231.4418225,136.88141555012285L231.81991937499998,133.40715590966354L231.96534125000002,135.1266398897923L232.017693125,138.40152943558437L232.087495625,140.00689590231735L232.19801625,142.06956875476922L232.296903125,139.70789878459988L232.38415625000002,139.81739216382636L232.61101437500002,137.7087370713671L232.68081687499998,137.70578804970506L232.82623875000002,138.14267448997924L233.00074500000002,139.25114882240555L233.04146312499998,139.4784328237168L233.378841875,138.92780829042155L233.64641812500003,139.65421381336427L233.75693875,136.08368200505961L233.797656875,137.79154144790877L234.06523312500002,136.58703462521504L234.367710625,138.04691910886925L234.38516125,137.36457495775318L234.58875187499999,136.02505600980814L234.984299375,135.68129184563097L235.12972125000002,136.12066094111887L235.327495,137.4234398843734L235.344945625,140.39566320430566L235.64742312500002,139.72292953879432L235.65323999999998,137.3563887962747L235.77539437500002,135.91526302629995L236.0953225,136.12717371543818L236.252378125,133.08726538038601L236.601390625,134.65226881990642L236.60720750000002,135.88383565717822L236.75844625,137.26973124965355L236.82824875,136.00299017801476L236.915501875,135.39914212926976L237.031839375,136.40722209396802L237.08419125,138.07821310867573L237.13654312499997,134.00423835104533L237.311049375,140.0058354758371L237.59607624999998,136.34817596811942L237.916004375,137.8370515617066L238.10214437500002,138.55221377088625L238.23011562500002,138.9983486787915L238.65474749999998,137.67597530224555L239.10846375,137.70812004768035L239.5389125,136.66245671488747L239.82393937499998,136.7430974267596L240.033346875,138.4215531124279L240.393993125,137.77120960793516L240.8418925,137.67086747313522L240.859343125,137.09462825670826L241.30142562499998,136.27480330595364L241.42358000000002,137.5948563488065L241.470115,138.1879288239323L241.545734375,137.79875506657626L241.55736812499998,139.0341965061323L241.592269375,138.22243059288837L241.964549375,138.3817638672076L242.162323125,137.32054124573963L242.173956875,140.31281272351796L242.17977374999998,137.9439158903363L242.680025,138.07074711720963L242.69747562499998,137.72574523687854L242.85453124999998,135.9203172898322L243.84921687500002,136.63737256384073L243.88993499999998,136.5767342988025L244.27384874999998,138.87078652044357L244.30293312499998,138.73776007449754L244.547241875,138.66116266701303L244.907888125,139.3752109363895L245.006775,138.41776648492936L245.012591875,139.4174193819245L245.396505625,138.54333645581482L245.512843125,139.0201653866725L245.72806749999998,138.6628633158658L245.733884375,138.6424674402031L245.751335,138.73409839930252L246.13524875000002,138.953308465851L246.43772625,139.80955069230353L246.52497937500002,139.45266881565067L246.6122325,138.95875872957598L246.7053025,138.4484638559096L246.78092187500002,138.2437021843954L246.9845125,137.88700042440678L247.09503312500001,139.81093713208554L247.13575125,139.05717995503255L248.49108312500002,138.4711007281465L248.840095625,136.7410520079328L249.014601875,134.01186829582412L249.1251225,139.0267124997113L249.642824375,138.22316174665295L249.8696825,139.1432895955992L249.89294999999998,139.43728181705185L249.945301875,140.03002884975254L249.980203125,139.81027042264446L250.12562499999999,140.88153426286397L250.457186875,142.22920284531602L250.7073125,143.81716648258026L251.30645062500002,141.23742589662817L251.66128,140.2123224813363L251.98120812500002,137.60789199344043L252.173165,137.5752851228221L252.388389375,137.00138063790223L252.807204375,138.68120176530968L252.842105625,141.2916624959534L252.8944575,141.0245420227185L253.20856875,141.63114100037433L253.644834375,140.30752447449214L253.70300312499998,138.4240746212187L253.842608125,137.1290304966081L253.87750937500002,136.36519295616796L254.261423125,139.42671541359334L254.773308125,139.00994160167164L254.97689875,139.7585902356612L255.331728125,141.44762926957054L255.44224874999998,139.7561057905021L255.692374375,139.86220610735785L256.09373875,138.4571231639264L256.47183562500004,138.94671843265755L256.599806875,140.84434903749977L257.344366875,140.1728699510643L257.93187125,138.1998691264003L258.25179937499996,138.68577421326694L258.33905250000004,138.12235472571413L258.740416875,138.1803761838172L258.938190625,140.58933227767312L259.368639375,138.819621858059L259.461709375,140.1156214577309L259.525695,139.8939906419725L259.72346875,141.68479602702928L260.18881875,141.6289245675116L260.2469875,136.52493164480387" style="fill: none;" fill="none"></path></g></g></g></g><g opacity="0.2"><g><g><g><path stroke="rgb(255, 112, 67)" stroke-width="2px" d="M42.25378,-27.971343994140625L42.5562575,17.94584083557129L42.77729875,-9.067279815673828L43.690548125,-1.5134639739990234L44.01047625,33.34268379211426L44.027926875,-28.517581939697266L44.109363124999994,11.789298057556152L44.132630625000004,20.3186674118042L44.411840625,7.924557685852051L44.45255875,3.5711402893066406L44.70850125,25.733051300048828L44.883007500000005,25.792919158935547L45.214569374999996,26.923712730407715L45.38325875,21.892505645751953L45.47632875,-31.94231605529785L45.569398750000005,59.57009506225586L45.895143749999995,12.189017295837402L46.191804375,40.04945945739746L46.296508124999995,-13.407249450683594L46.34886,37.1286506652832L46.44193,27.472989082336426L46.459380625,37.148287773132324L46.715323125000005,75.71877479553223L47.08178625,49.497215270996094L47.209757499999995,48.06601333618164L47.227208125,21.66991424560547L47.273743124999996,32.300397872924805L47.506418125,27.77373504638672L47.605304999999994,37.9237003326416L47.680924375000004,43.05050468444824L48.198626250000004,34.94150447845459L48.547638750000004,34.499528884887695L49.076974375,49.518259048461914L49.146776875,13.458902359008789L49.332916874999995,18.62835693359375L49.367818125,31.213098526000977L49.48415562500001,55.54386901855469L49.51324,53.471113204956055L49.77499937499999,47.99376678466797L49.844801875,43.991679191589355L50.048392500000006,45.014946937561035L50.251983124999995,56.96257972717285L50.2578,45.558990478515625L50.52537625,47.821309089660645L50.624263125,40.1231689453125L50.635896875,59.02622032165527L50.66498125,37.19448280334473L50.810403125,46.95750141143799L50.816219999999994,57.629791259765625L50.8860225,57.242506980895996L50.915106875,61.99581241607666L51.08379625,30.732523918151855L51.171049375,46.68404483795166L51.205950625,34.79633617401123L51.973778125,50.62356376647949L52.29370625,30.254987716674805L52.578733125,57.1030216217041L53.20113875,54.58924674987793L53.614136875,57.21004104614258L54.027135,57.635080337524414L54.044585625,43.56005668640137L54.381964375,45.61874580383301L54.742610625,56.68861675262451L55.143975,59.20199775695801L55.22541125,57.41805934906006L55.237045,61.66648292541504L55.242861875,73.93106651306152L55.580240624999995,51.61290264129639L56.59819375,67.50680637359619L57.29621875,70.89727401733398L57.4009225,57.40230464935303L57.412556249999994,65.30154228210449L57.703399999999995,61.847999572753906L58.029145,77.48093795776367L58.116398124999996,79.86648082733154L58.418875625000005,63.85976219177246L58.54103,43.77944087982178L58.581748125,58.18098068237305L59.204153749999996,60.87042045593262L59.36702625,51.99748611450195L59.52989875,86.3839750289917L59.832376249999996,56.25384330749512L60.193022500000005,31.879409790039062L60.76307625,80.24965763092041L60.943399375,70.34923553466797L60.972483749999995,59.94651985168457L61.39129875,74.46576976776123L61.466918125,67.55232620239258L61.478551875,84.09144115447998L61.949718749999995,64.9433479309082L62.48487125,73.32867431640625L62.583758125,72.74991416931152L62.705912500000004,72.99715042114258L63.27596625,79.25351047515869L63.48537375,87.9510612487793L63.50864125,88.04660224914551L63.555176249999995,70.8303165435791L64.20666625,74.03977394104004L64.2881025,73.30914974212646L64.50914374999999,53.70664596557617L64.57894625,56.487406730651855L64.823255,70.48292541503906L65.2188025,80.70913219451904L65.27115437500001,84.49594306945801L65.288605,85.47521018981934L65.7306875,75.88566207885742L65.74232125,77.70893096923828L66.0564325,71.84233093261719L66.21930499999999,72.3703384399414L66.830076875,78.7874526977539L67.353595625,77.57175254821777L67.446665625,83.24997138977051L67.528101875,74.41951847076416L67.88293125,78.32797813415527L68.447168125,72.81462097167969L68.633308125,79.05438232421875L69.30224875,88.39753818511963L69.389501875,82.48755645751953L69.645444375,108.96996879577637L70.13987875000001,91.70236778259277L70.238765625,101.30992126464844L70.25621625,84.98929023742676L70.46562374999999,97.22270202636719L70.506341875,86.99441337585449L70.715749375,79.11925792694092L70.83790375,96.36812210083008L71.19855,79.95746421813965L71.3148875,69.41706371307373L71.960560625,91.96198272705078L72.018729375,67.49088287353516L72.42009375,82.5237922668457L72.49571312500001,87.55066680908203L72.530614375,77.03249168395996L72.60623375,73.53303527832031L72.937795625,58.48842239379883L73.07158375,79.7265453338623L73.100668125,100.28085803985596L73.44386375,87.70585060119629L73.58346875,87.35913467407227L74.28149375000001,99.52165031433105L74.59560499999999,120.97865104675293L74.764294375,85.98059844970703L75.07840562499999,87.35440826416016L75.30526375,92.77998924255371L75.32271437499999,84.44552803039551L75.392516875,107.43382930755615L75.57284,97.66861629486084L76.17779499999999,88.70784950256348L76.22433,90.27229118347168L76.311583125,96.8197193145752L76.87582,86.86882591247559L77.02705875000001,97.85255241394043L77.15503000000001,83.86215400695801L77.6901825,100.1054744720459L77.73671750000001,89.26427173614502L77.975209375,91.56541442871094L78.510361875,101.50027179718018L78.882641875,95.69804096221924L79.04551437500001,94.90355396270752L79.05133124999999,96.58857536315918L79.161851875,95.68841934204102L79.29563999999999,86.33974933624268L79.406160625,90.38876342773438L79.69118750000001,93.23012351989746L79.74935625,101.51152515411377L79.766806875,103.34103965759277L79.85406,110.18927001953125L80.046016875,99.81350612640381L81.06978687499999,105.98062705993652L81.104688125,93.74085712432861L81.49441875000001,108.63765716552734L81.65729125,90.18046379089355L81.71546,105.77649116516113L81.91905062500001,81.35288047790527L82.30878125,87.86255359649658L82.49492125,91.44837951660156L82.83811687500001,96.74713516235352L83.0417075,98.1148681640625L83.2743825,119.08684921264648L83.93750625000001,90.09133720397949L84.141096875,79.82805061340332L84.175998125,102.62352561950684L84.5773625,91.95410537719727L84.833305,108.46761894226074L85.00199437500001,104.98560523986816L85.03107875,94.95560073852539L85.083430625,93.56423568725586L85.606949375,107.56875705718994L85.6244,107.29231834411621L85.7872725,97.58106517791748L85.84544125,103.23705863952637L86.18281999999999,96.02686405181885L86.386410625,105.79866027832031L86.584184375,113.89471912384033L86.933196875,97.23558712005615L87.654489375,109.22035598754883L87.67193999999999,101.5720682144165L87.997685,94.07333755493164L88.14892375000001,95.84259033203125L88.166374375,105.1905288696289L88.28852875,101.67244815826416L88.32924687500001,100.27382469177246L88.66662562500001,103.6011610031128L88.701526875,101.07033729553223L89.027271875,106.82136535644531L90.0219575,108.39503479003906L90.062675625,103.07951164245605L90.21973125,92.36344623565674L90.54547625,103.92306327819824L90.73161625,102.78276062011719L91.10389625,114.19450855255127L91.121346875,112.4905252456665L91.237684375,91.80241012573242L91.42964124999999,99.72308540344238L91.889174375,100.11650276184082L91.92989250000001,101.56970500946045L92.005511875,106.74810600280762L92.354524375,112.03707122802734L92.52903062499999,101.5255355834961L92.66281875,108.01534652709961L92.76752250000001,115.95436477661133L93.17470374999999,113.84019660949707L93.610969375,105.58518409729004L93.983249375,116.24605178833008L94.36134625,98.48048973083496L94.8615975,114.41591835021973L95.01283625,105.59756278991699L95.50145375,108.75834941864014L96.12967624999999,112.71722412109375L96.170394375,96.25941467285156L96.82770125,109.96724128723145L96.845151875,103.73169994354248L96.96730625,111.70892333984375L97.310501875,103.65860939025879L97.36867062500001,100.95859146118164L97.391938125,92.68951225280762L97.56062750000001,109.10568428039551L98.05506187499999,108.99506378173828L98.15394875,108.19641304016113L98.23538500000001,113.58800888061523L98.32845499999999,113.75022602081299L98.427341875,114.91219139099121L98.66001687500001,107.05059623718262L98.927593125,112.58038330078125L98.93341000000001,105.59323024749756L99.06138125000001,112.09463214874268L99.264971875,119.48071670532227L99.416210625,113.64798927307129L99.4685625,111.1736011505127L99.77104,112.48416709899902L99.78849062500001,110.40938568115234L99.98626437499999,112.9741382598877L100.009531875,128.73952865600586L100.14332,112.70439529418945L100.17822125,109.46792984008789L100.18985500000001,113.9162130355835L100.42253,114.42694664001465L100.45743125,104.41472244262695L100.533050625,107.68325996398926L100.562135,105.30733871459961L100.934415,108.26072597503662L101.04493562500001,117.41156196594238L101.09728750000001,119.38776397705078L101.35904687499999,110.69252014160156L101.492835,114.34243392944336L101.50446874999999,113.57079124450684L101.510285625,110.18274307250977L101.85348125,114.12867641448975L102.77836437500001,117.07609939575195L103.08665875,113.01954555511475L103.20299625,120.70665740966797L103.383319375,109.63048458099365L103.43567125,114.49885559082031L103.534558125,119.52392959594727L103.63344500000001,103.97167778015137L103.813768125,95.2601728439331L104.11042875,95.99653625488281L104.244216875,113.79405784606934L104.325653125,110.34782981872559L104.756101875,112.49947166442871L105.419225625,110.33455085754395L105.977645625,116.94904899597168L106.00673,104.44043636322021L106.2161375,108.47133255004883L106.39646062499999,113.10580253601074L106.9606975,109.40322303771973L107.11193625,117.25530910491943L107.13520375,102.57806205749512L107.22827375,105.33530330657959L107.4725825,119.48139190673828L107.8448625,120.03162479400635L107.862313125,118.17476463317871L107.955383125,110.79273128509521L108.513803125,120.95293712615967L108.8220975,110.93390464782715L109.374700625,116.00010967254639L110.06109187499999,118.55366516113281L110.223964375,103.95851135253906L110.56716,119.1943187713623L110.840553125,120.57504940032959L111.259368125,127.43717765808105L111.36988875,119.6781005859375L111.620014375,120.37367057800293L112.07373062500001,125.14869499206543L112.1726175,125.05607986450195L112.329673125,111.12903785705566L112.4518275,124.63841152191162L112.52163,115.07975387573242L112.608883125,119.29115390777588L112.632150625,121.69222640991211L112.7310375,131.91938972473145L112.940445,124.47293090820312L113.17312000000001,122.9638557434082L113.365076875,126.95125770568848L114.004933125,121.95825576782227L114.3132275,114.35503768920898L114.33649500000001,122.58416748046875L114.4528325,109.85020637512207L114.737859375,123.68902206420898L114.90654875,125.95319747924805L115.1508575,128.89730072021484L115.447518125,122.80034446716309L115.58130625,124.57753086090088L115.92450187499999,118.16379261016846L115.9419525,119.10879325866699L116.32004937500001,123.58565998077393L116.48873875,113.90265274047852L116.6865125,112.53536987304688L116.890103125,124.11192321777344L117.02389125,122.26175880432129L117.11696124999999,110.32352256774902L117.541593125,124.10472106933594L117.65211375,107.40530204772949L117.780085,107.3539867401123L118.25706875,119.04780006408691L119.077248125,122.66789245605469L119.461161875,117.54671478271484L119.50188,119.18441581726074L119.554231875,113.54395198822021L119.65311874999999,113.46444702148438L119.72292125,117.91503715515137L119.7578225,120.23367881774902L120.101018125,126.52655601501465L120.39186187499999,132.4362564086914L120.665255,118.8628511428833L120.87466250000001,123.17800712585449L121.0142675,123.47835922241211L121.031718125,120.89155006408691L121.46798375,118.10015487670898L121.502885,121.7811279296875L121.67739125,125.61188316345215L121.72974312500001,115.69925117492676L121.753010625,124.78611183166504L121.787911875,116.59794425964355L122.323064375,131.48641681671143L122.32888125,118.45992469787598L122.37541625,124.7861680984497L122.39868375,118.90426349639893L122.497570625,117.04729080200195L122.869850625,118.41991901397705L122.98037125,118.52181816101074L123.178145,131.79830360412598L123.765649375,112.71199131011963L124.1321125,129.49687957763672L124.39968875,117.50361442565918L124.65563125,123.82304954528809L124.76615187499999,128.38032150268555L125.15588249999999,123.08100318908691L125.49326124999999,121.58520698547363L125.627049375,112.56710433959961L126.359975625,131.7796230316162L126.371609375,128.84947395324707L126.55774937500001,115.85719203948975L126.7380725,118.49008369445801L127.081268125,115.89067077636719L127.91308125,122.06448745727539L128.05268625,118.00911521911621L128.105038125,127.94982433319092L128.407515625,129.79177379608154L128.42496625,128.0013084411621L129.30331437499999,116.44388580322266L129.38475062499998,124.61365413665771L129.978071875,126.8992109298706L130.10022625,115.89089584350586L130.873870625,129.49192810058594L131.292685625,123.61739444732666L131.420656875,125.88865947723389L131.51954375,123.15369987487793L131.78712000000002,122.21303176879883L131.98489375,125.1273136138916L132.362990625,128.5764675140381L132.677101875,121.6095142364502L132.828340625,118.17949104309082L132.857425,121.00301456451416L133.270423125,125.9682207107544L133.479830625,110.36482238769531L133.7648575,130.61703872680664L134.12550375,115.06568717956543L134.131320625,121.88150787353516L134.329094375,125.74399757385254L134.410530625,129.00465774536133L134.654839375,124.54315185546875L135.6262575,124.90348434448242L135.806580625,121.11819267272949L136.004354375,127.84066677093506L136.35918375,124.29298973083496L136.4173525,125.01016616821289L136.63257687499998,127.32025527954102L136.67911187500002,125.77201843261719L136.82453375,129.72436618804932L136.9292375,126.72433376312256L136.94087125,125.77432537078857L137.074659375,115.63004302978516L137.08047625,124.9992504119873L137.086293125,115.31506156921387L137.10374375,112.01462078094482L137.214264375,139.5258150100708L137.417855,121.240966796875L137.598178125,123.02659320831299L137.82503625,132.51908111572266L137.883205,127.25622367858887L138.400906875,132.80677318572998L138.482343125,135.10892868041992L138.65103249999999,140.98183059692383L138.691750625,123.10305976867676L138.69756750000002,113.0073356628418L138.866256875,120.13673114776611L138.924425625,113.07789421081543L139.04076312499998,129.47448539733887L139.4421275,129.4719533920288L139.727154375,126.96239852905273L139.91911125000001,121.70792484283447L140.1401525,132.98778343200684L140.785825625,119.42771339416504L140.93124749999998,126.24691009521484L140.948698125,126.78628349304199L141.00105,133.38108825683594L141.1639225,126.68095207214355L141.367513125,120.66434478759766L141.437315625,128.8157138824463L141.80959562500001,121.91155433654785L141.90848250000002,128.03900718688965L142.30403,127.90188503265381L142.43200124999998,118.9840497970581L142.59487375,127.88055992126465L142.908985,124.08086395263672L143.682629375,126.06972599029541L143.68844625,128.7946138381958L144.241049375,123.03418922424316L144.50280875,132.01031684875488L145.20665062499998,130.35579204559326L145.24736875,125.64384269714355L145.974478125,130.16189670562744L146.253688125,129.12686920166016L146.631785,126.89555358886719L146.742305625,130.36563873291016L146.77139,123.9217414855957L146.905178125,132.5211067199707L147.033149375,120.71166515350342L147.15530375,129.00150680541992L147.55085125,133.1461181640625L147.85914562500002,126.6193962097168L148.196524375,123.47824668884277L148.452466875,119.67281150817871L148.47573437499997,139.1335792541504L148.62115625,133.78547763824463L149.69727812500003,138.9069366455078L149.78453125000001,127.06227207183838L149.801981875,127.25346660614014L149.929953125,128.3958511352539L149.964854375,126.91355895996094L150.24406437500002,136.0254020690918L150.3313175,132.77835845947266L150.59889375,123.10519790649414L150.68033,133.22899913787842L150.74431562499998,126.24420928955078L151.06424375,130.43012046813965L151.128229375,124.77468967437744L151.163130625,136.13613510131836L151.50632625,122.6369457244873L151.663381875,124.56864070892334L151.79717000000002,133.89367866516113L152.20435125,130.67353057861328L152.3323225,123.02282333374023L152.524279375,128.66300582885742L152.62316625,128.49859428405762L152.663884375,129.13283348083496L152.89655937499998,126.74402713775635L152.97217874999998,131.42474842071533L153.00126312499998,125.55269050598145L153.036164375,132.61726665496826L153.053615,127.33668518066406L153.4956975,121.20956993103027L153.501514375,138.7030258178711L153.513148125,137.03471565246582L153.77490749999998,125.98487567901611L153.955230625,123.11521339416504L154.11228625,123.19004821777344L154.129736875,130.09904670715332L154.15882125,123.74528884887695L154.48456625,132.5755729675293L154.57181937500002,139.37867736816406L154.62417125,119.61148071289062L154.635805,125.75401306152344L154.920831875,125.57553482055664L155.25239375,130.0493631362915L155.51415312499998,133.1784152984619L155.752645,131.69139671325684L155.828264375,124.46325302124023L155.83408125000003,130.48492431640625L155.96205250000003,134.11098098754883L155.99113687500002,138.04959964752197L156.0551225,127.8758897781372L156.700795625,135.41406345367432L156.82295,128.35939025878906L157.22431437499998,129.83853149414062L157.24176500000002,139.80489826202393L157.247581875,142.8345832824707L157.526791875,135.07443714141846L157.666396875,138.9496431350708L157.85835375,134.2643642425537L158.003775625,129.7994260787964L158.434224375,132.74077224731445L158.666899375,117.86889839172363L158.713434375,128.96285152435303L158.89957437500001,136.78747940063477L158.97519375,126.73643112182617L159.34747375,124.09464931488037L159.725570625,143.83770751953125L159.85935875,126.58462333679199L160.34797625000002,122.01778602600098L160.365426875,129.94633865356445L160.39451125,126.65518188476562L160.784241875,122.47152137756348L160.888945625,125.54396915435791L161.32521125,141.82470703125L161.55206937499997,129.31480026245117L161.55788625,138.69728660583496L162.471135625,125.36295890808105L162.71544437499998,133.73433113098145L162.72126125,130.6861343383789L163.09935812499998,137.9699821472168L163.134259375,131.3662872314453L163.250596875,128.31235122680664L163.285498125,137.7280912399292L163.4076525,132.0847578048706L163.44255375,130.99875259399414L163.79156625,130.69795036315918L164.13476187499998,142.57834434509277L164.320901875,140.02895259857178L164.36162,133.5784158706665L165.60643125,127.03442001342773L165.751853125,136.3278923034668L165.8274725,134.406494140625L165.984528125,135.13385486602783L166.02524625,123.0242862701416L166.11831625,125.59162712097168L166.16485125000003,124.72455596923828L166.2462875,137.72375869750977L166.40916,123.97530746459961L166.81052437500003,126.03084564208984L166.827975,133.02835178375244L167.07228375,130.43270874023438L167.275874375,133.1712131500244L167.49109875,130.4583101272583L168.020434375,132.03693103790283L168.113504375,135.96227073669434L168.73591,129.09434700012207L168.776628125,141.72376441955566L168.84643062499998,124.40754890441895L169.14309125,135.10296440124512L169.21289375,131.27400970458984L169.7364125,133.34080123901367L169.75386312499998,128.85059928894043L170.60894375,133.07505321502686L170.63221124999998,126.6975507736206L170.638028125,129.38108253479004L170.736915,131.49221229553223L170.824168125,129.86092567443848L170.882336875,132.8633213043213L170.94632249999998,132.14366912841797L170.975406875,129.0175428390503L171.00449125,130.45240211486816L171.202265,127.21869373321533L171.26043375,125.73190021514893L171.4116725,137.60385417938232L171.673431875,131.90757369995117L171.80722,128.97196674346924L172.10388062500002,125.44657135009766L172.24348562499998,132.44987297058105L172.35400625,133.38744640350342L172.4354425,131.265851020813L172.62739937499998,120.35532760620117L173.28470625,133.40089416503906L173.569733125,121.78461647033691L174.04090000000002,130.17078685760498L174.104885625,134.55357551574707L174.221223125,132.22323036193848L174.57023562499998,135.78137302398682L174.645855,136.26312923431396L174.861079375,120.99946975708008L174.97741687500002,135.71160221099854L175.0414025,132.79388809204102L175.5998225,137.97307682037354L176.420001875,136.1973533630371L176.64686,131.70996475219727L176.81554937500002,134.70875930786133L177.04240750000002,131.89502620697021L177.3216175,132.8555564880371L177.60082749999998,137.4073143005371L177.61246125,135.8644790649414L177.65899625,133.41586112976074L177.8335025,134.33334732055664L177.967290625,130.98749923706055L178.04872687499997,128.0493040084839L178.38028875,132.50715255737305L178.93870875,134.08318519592285L179.20046812500001,129.62539291381836L179.223735625,135.4650411605835L179.572748125,135.0653781890869L179.840324375,139.74092292785645L180.014830625,131.323974609375L180.142801875,135.9693603515625L180.18933687499998,132.5982484817505L180.898995625,135.7292137145996L181.073501875,141.40180587768555L181.201473125,123.5426721572876L181.39343,145.41722869873047L181.82387875,135.03566932678223L182.050736875,127.5041913986206L182.550988125,127.55044269561768L182.97562,140.63815307617188L183.12104187499997,136.68563652038574L183.19666125,132.2934513092041L183.24901312499998,134.69418621063232L183.70854624999998,136.6291446685791L184.051741875,136.5910520553589L184.714865625,139.18534469604492L184.80211874999998,129.6135768890381L185.26165187499998,136.4063844680786L185.62229812500001,130.79000282287598L185.76772,137.72252082824707L186.285421875,133.57903480529785L186.50064625000002,133.9343032836914L186.704236875,126.28044509887695L186.89619374999998,133.96828842163086L187.134685625,140.70544815063477L187.76290812500002,143.43916988372803L187.855978125,127.35660362243652L187.97813250000002,131.49288749694824L188.030484375,135.42362880706787L188.123554375,122.6757698059082L188.4900175,126.73783779144287L188.49583437500002,144.17885303497314L188.57727062499998,138.84076690673828L189.21712687500002,135.9795446395874L189.29274625,129.83493041992188L189.35673187499998,138.0811653137207L189.938419375,136.87075424194336L190.32815,134.74420738220215L190.57245875,134.60686016082764L191.491525,131.48129653930664L191.9801425,132.71230125427246L191.99177625000002,136.08391952514648L192.22445125,132.50625228881836L192.23026812499998,139.34975624084473L192.236085,148.98510551452637L192.329155,121.13670444488525L192.40477437500002,141.60999298095703L192.41640812499998,145.68269538879395L192.99227875000003,127.30900192260742L193.86481,128.85149955749512L194.23709,130.2552433013916L194.27199125,134.320405960083L194.3068925,152.18083381652832L194.33016,125.4484281539917L194.335976875,138.44869995117188L194.7722425,130.42533779144287L195.00491749999998,131.70490074157715L195.324845625,130.0385036468506L195.958885,137.15996551513672L196.022870625,131.13221740722656L196.069405625,140.9955596923828L196.348615625,131.54926681518555L196.488220625,134.62531566619873L196.720895625,134.5496368408203L196.73834625,130.4920139312744L196.918669375,138.60827255249023L196.976838125,137.42745780944824L197.01755625,131.79549026489258L197.12226,139.16750812530518L197.453821875,138.0001974105835L197.570159375,137.80776500701904L197.58760999999998,132.2277317047119L197.70976437500002,134.27865600585938L198.210015625,135.1376247406006L198.73935125,136.15616607666016L198.750985,131.46779251098633L198.937125,133.96299934387207L199.04182874999998,138.84104824066162L200.688004375,136.4738483428955L200.83924312500002,139.750319480896L201.095185625,136.86282062530518L201.41511375000002,131.88281631469727L201.77576000000002,143.0005702972412L201.851379375,139.57054710388184L202.386531875,128.09066009521484L202.55522125,133.2785701751709L202.782079375,136.38753509521484L203.16017625,129.9627685546875L204.410804375,136.3173704147339L204.8703375,130.8765411376953L205.02157625,140.14165496826172L205.14954749999998,142.45118141174316L205.260068125,132.60550689697266L205.376405625,134.6601448059082L205.40549,139.80698013305664L205.49856,131.05569458007812L205.5683625,144.60991287231445L205.6614325,123.80594444274902L205.818488125,136.16792583465576L206.214035625,136.5047950744629L206.49906249999998,133.51759147644043L206.574681875,130.23386192321777L206.62121687500002,138.24703979492188L207.17381999999998,134.78038692474365L207.59263499999997,138.8743019104004L207.78459187500002,128.47749423980713L207.82531,132.6549654006958L207.877661875,138.67354202270508L208.16850562500002,138.13011741638184L208.18595625,136.005708694458L208.30811062499998,138.45207595825195L208.377913125,135.49694442749023L208.48843375,134.24545860290527L208.59895437499998,133.03741073608398L209.39004937500002,129.08872032165527L209.86121624999998,141.38880825042725L209.867033125,133.71621322631836L210.06480687500002,136.0649013519287L210.17532749999998,133.64863681793213L210.44290375,130.00609397888184L210.86171875,136.55549144744873L210.890803125,138.71191596984863L211.04204187500002,134.94676780700684L211.309618125,138.7551851272583L211.39687125,133.52164268493652L211.2921675,140.24698638916016L211.542293125,136.92167568206787L211.65863062500003,140.5768222808838L211.693531875,136.0216884613037L211.76915125,139.08462715148926L211.93202374999998,137.30288314819336L212.182149375,138.68575191497803L212.804555,150.23692893981934L212.949976875,147.77098083496094L212.990695,128.2170352935791L213.01396250000002,133.31165504455566L213.589833125,138.8200044631958L213.60728375,131.99000453948975L213.83995875,138.90507984161377L214.386745,146.62966537475586L214.46818125000001,139.54342651367188L214.567068125,135.89216232299805L214.57288499999999,138.9363079071045L214.81719375,137.77980041503906L215.393064375,135.76747512817383L216.39938375,132.6683006286621L216.707678125,139.85626983642578L217.33590062500002,132.893705368042L217.39988625,150.3681993484497L218.11536187500002,140.6994276046753L218.4585575,136.8641710281372L218.673781875,147.5476016998291L218.79593624999998,146.65813636779785L219.011160625,145.38740730285645L219.220568125,142.62279510498047L219.226385,140.6452989578247L219.371806875,147.92706489562988L219.73245312499998,128.88638496398926L220.14545125,140.87644290924072L220.29669,136.74584197998047L220.395576875,127.77534103393555L220.529365,135.21651077270508L220.79694124999997,136.12943935394287L221.17503812500001,148.24575996398926L221.21575625000003,135.59400463104248L221.26229125,137.68167114257812L221.54150124999998,144.28272151947021L221.593853125,133.97976684570312L221.93704875,144.64823055267334L222.012668125,135.60621452331543L222.85611500000002,136.149751663208L222.92591750000003,132.47716236114502L223.117874375,137.387845993042L223.129508125,134.97872734069824L223.362183125,137.18207836151123L223.74027999999998,142.66201305389404L224.17072875,139.44158363342285L224.444121875,140.31619453430176L224.653529375,144.3310546875L224.82221875000002,142.7291955947876L224.990908125,134.43541526794434L225.06652749999998,138.1024341583252L225.08397812500002,143.50393295288086L225.467891875,137.2106056213379L225.4853425,135.76848793029785L225.735468125,137.04731941223145L225.96232625000002,140.84392070770264L226.020495,145.00445556640625L226.34624000000002,139.85840797424316L227.1140675,143.13420391082764L227.15478562500002,136.6207046508789L227.16060249999998,137.44343757629395L227.201320625,135.64019966125488L227.57941749999998,132.76147842407227L227.74229,140.2734317779541L227.8120925,138.42079162597656L227.887711875,137.16255378723145L227.92843000000002,135.34834384918213L228.59155375,132.6140594482422L228.61482124999998,136.59898567199707L228.77187687499998,139.30665588378906L228.783510625,139.73034477233887L229.17324125,143.78155326843262L229.307029375,125.6901502609253L229.714210625,137.66546630859375L229.77237937499999,132.98654556274414L229.87126625,146.362566947937L229.911984375,140.6519947052002L229.929435,142.93670749664307L230.01087125,133.15388298034668L230.074856875,135.00494766235352L230.865951875,139.9623327255249L231.08117625,140.37189865112305L231.401104375,125.30522918701172L231.4418225,141.94669342041016L231.81991937499998,128.1957664489746L231.96534125000002,137.70586585998535L232.017693125,143.31386375427246L232.087495625,142.414945602417L232.19801625,145.16357803344727L232.296903125,136.1653938293457L232.38415625000002,139.98163223266602L232.61101437500002,134.54575443267822L232.68081687499998,137.7013645172119L232.82623875000002,138.79800415039062L233.00074500000002,140.91386032104492L233.04146312499998,139.8193588256836L233.378841875,138.10187149047852L233.64641812500003,140.74382209777832L233.75693875,130.72788429260254L233.797656875,140.35333061218262L234.06523312500002,134.78027439117432L234.367710625,140.2367458343506L234.38516125,136.3410587310791L234.58875187499999,134.01577758789062L234.984299375,135.16564559936523L235.12972125000002,136.7797145843506L235.327495,139.37760829925537L235.344945625,144.8539981842041L235.64742312500002,138.71382904052734L235.65323999999998,133.80657768249512L235.77539437500002,133.7535743713379L236.0953225,136.4450397491455L236.252378125,128.52740287780762L236.601390625,136.999773979187L236.60720750000002,137.73118591308594L236.75844625,139.3485746383667L236.82824875,134.10287857055664L236.915501875,134.49337005615234L237.031839375,137.91934204101562L237.08419125,140.5846996307373L237.13654312499997,127.89327621459961L237.311049375,149.0082311630249L237.59607624999998,130.86168670654297L237.916004375,140.0703649520874L238.10214437500002,139.62495708465576L238.23011562500002,139.6675510406494L238.65474749999998,135.69241523742676L239.10846375,137.75633716583252L239.5389125,135.09396171569824L239.82393937499998,136.86405849456787L240.033346875,140.93923664093018L240.393993125,136.7956943511963L240.8418925,137.52035427093506L240.859343125,136.23026943206787L241.30142562499998,135.04506587982178L241.42358000000002,139.57493591308594L241.470115,139.0775375366211L241.545734375,137.214994430542L241.55736812499998,140.8873586654663L241.592269375,137.00478172302246L241.964549375,138.62076377868652L242.162323125,135.7287073135376L242.173956875,144.80121994018555L242.17977374999998,134.39057064056396L242.680025,138.26099395751953L242.69747562499998,137.20824241638184L242.85453124999998,133.2121753692627L243.84921687500002,137.71295547485352L243.88993499999998,136.48577690124512L244.27384874999998,142.31186485290527L244.30293312499998,138.5382204055786L244.547241875,138.54626655578613L244.907888125,140.4462833404541L245.006775,136.98159980773926L245.012591875,140.916898727417L245.396505625,137.2322120666504L245.512843125,139.73540878295898L245.72806749999998,138.12691020965576L245.733884375,138.61187362670898L245.751335,138.87154483795166L246.13524875000002,139.28212356567383L246.43772625,141.09391403198242L246.52497937500002,138.9173460006714L246.6122325,138.21789360046387L246.7053025,137.68302154541016L246.78092187500002,137.93655967712402L246.9845125,137.35194778442383L247.09503312500001,142.69684219360352L247.13575125,137.92654418945312L248.49108312500002,137.59198188781738L248.840095625,134.1459789276123L249.014601875,129.91809272766113L249.1251225,146.548978805542L249.642824375,137.01783561706543L249.8696825,140.52348136901855L249.89294999999998,139.87827014923096L249.945301875,140.9191493988037L249.980203125,139.48063278198242L250.12562499999999,142.48843002319336L250.457186875,144.25070571899414L250.7073125,146.19911193847656L251.30645062500002,137.3678150177002L251.66128,138.67466735839844L251.98120812500002,133.70124626159668L252.173165,137.52637481689453L252.388389375,136.14052391052246L252.807204375,141.2009334564209L252.842105625,145.20735359191895L252.8944575,140.6238613128662L253.20856875,142.5410394668579L253.644834375,138.32209968566895L253.70300312499998,135.5988998413086L253.842608125,135.18646430969238L253.87750937500002,135.2194366455078L254.261423125,144.01899909973145L254.773308125,138.38478088378906L254.97689875,140.8815631866455L255.331728125,143.98118782043457L255.44224874999998,137.2188205718994L255.692374375,140.0213565826416L256.09373875,136.3494987487793L256.47183562500004,139.6811113357544L256.599806875,143.69079494476318L257.344366875,139.16565132141113L257.93187125,135.2403678894043L258.25179937499996,139.4146318435669L258.33905250000004,137.27722549438477L258.740416875,138.26740837097168L258.938190625,144.20276641845703L259.368639375,136.1650562286377L259.461709375,142.05962085723877L259.525695,139.56154441833496L259.72346875,144.37100410461426L260.18881875,141.54511737823486L260.2469875,128.8689422607422" style="fill: none;" fill="none"></path></g></g></g></g></g></g><g transform="translate(39, 177)" clip-path="url(#clip_1)"><clipPath id="clip_1"><rect width="290" height="23"></rect></clipPath><g><g><line x1="0" y1="0" x2="0" y2="5" style="visibility: inherit;" fill="rgb(0, 0, 0)" stroke="rgb(204, 204, 204)" stroke-width="1px"></line><line x1="36.35546875" y1="0" x2="36.35546875" y2="5" style="visibility: inherit;" fill="rgb(0, 0, 0)" stroke="rgb(204, 204, 204)" stroke-width="1px"></line><line x1="72.7109375" y1="0" x2="72.7109375" y2="5" style="visibility: inherit;" fill="rgb(0, 0, 0)" stroke="rgb(204, 204, 204)" stroke-width="1px"></line><line x1="109.06640625" y1="0" x2="109.06640625" y2="5" style="visibility: inherit;" fill="rgb(0, 0, 0)" stroke="rgb(204, 204, 204)" stroke-width="1px"></line><line x1="145.421875" y1="0" x2="145.421875" y2="5" style="visibility: inherit;" fill="rgb(0, 0, 0)" stroke="rgb(204, 204, 204)" stroke-width="1px"></line><line x1="181.77734375" y1="0" x2="181.77734375" y2="5" style="visibility: inherit;" fill="rgb(0, 0, 0)" stroke="rgb(204, 204, 204)" stroke-width="1px"></line><line x1="218.1328125" y1="0" x2="218.1328125" y2="5" style="visibility: inherit;" fill="rgb(0, 0, 0)" stroke="rgb(204, 204, 204)" stroke-width="1px"></line><line x1="254.48828125" y1="0" x2="254.48828125" y2="5" style="visibility: inherit;" fill="rgb(0, 0, 0)" stroke="rgb(204, 204, 204)" stroke-width="1px"></line><line x1="290.84375" y1="0" x2="290.84375" y2="5" style="visibility: inherit;" fill="rgb(0, 0, 0)" stroke="rgb(204, 204, 204)" stroke-width="1px"></line></g><g transform="translate(0, 8)"><text x="0" y="0" dx="0em" dy="0.95em" style="text-anchor: middle; visibility: hidden; font-family: &quot;Helvetica Neue&quot;, sans-serif; font-size: 12px; font-weight: 200;" fill="rgb(50, 49, 63)" stroke="none" stroke-width="1px">-50k</text><text x="36.35546875" y="0" dx="0em" dy="0.95em" style="text-anchor: middle; visibility: inherit; font-family: &quot;Helvetica Neue&quot;, sans-serif; font-size: 12px; font-weight: 200;" fill="rgb(50, 49, 63)" stroke="none" stroke-width="1px">0</text><text x="72.7109375" y="0" dx="0em" dy="0.95em" style="text-anchor: middle; visibility: inherit; font-family: &quot;Helvetica Neue&quot;, sans-serif; font-size: 12px; font-weight: 200;" fill="rgb(50, 49, 63)" stroke="none" stroke-width="1px">50k</text><text x="109.06640625" y="0" dx="0em" dy="0.95em" style="text-anchor: middle; visibility: inherit; font-family: &quot;Helvetica Neue&quot;, sans-serif; font-size: 12px; font-weight: 200;" fill="rgb(50, 49, 63)" stroke="none" stroke-width="1px">100k</text><text x="145.421875" y="0" dx="0em" dy="0.95em" style="text-anchor: middle; visibility: inherit; font-family: &quot;Helvetica Neue&quot;, sans-serif; font-size: 12px; font-weight: 200;" fill="rgb(50, 49, 63)" stroke="none" stroke-width="1px">150k</text><text x="181.77734375" y="0" dx="0em" dy="0.95em" style="text-anchor: middle; visibility: inherit; font-family: &quot;Helvetica Neue&quot;, sans-serif; font-size: 12px; font-weight: 200;" fill="rgb(50, 49, 63)" stroke="none" stroke-width="1px">200k</text><text x="218.1328125" y="0" dx="0em" dy="0.95em" style="text-anchor: middle; visibility: inherit; font-family: &quot;Helvetica Neue&quot;, sans-serif; font-size: 12px; font-weight: 200;" fill="rgb(50, 49, 63)" stroke="none" stroke-width="1px">250k</text><text x="254.48828125" y="0" dx="0em" dy="0.95em" style="text-anchor: middle; visibility: inherit; font-family: &quot;Helvetica Neue&quot;, sans-serif; font-size: 12px; font-weight: 200;" fill="rgb(50, 49, 63)" stroke="none" stroke-width="1px">300k</text><text x="290.84375" y="0" dx="0em" dy="0.95em" style="text-anchor: middle; visibility: hidden; font-family: &quot;Helvetica Neue&quot;, sans-serif; font-size: 12px; font-weight: 200;" fill="rgb(50, 49, 63)" stroke="none" stroke-width="1px">350k</text></g><line x1="0" y1="0" x2="290.84375" y2="0" fill="rgb(0, 0, 0)" stroke="rgb(204, 204, 204)" stroke-width="1px"></line></g></g></g></g></svg>