<svg viewBox="0 0 330 200" xmlns="http://www.w3.org/2000/svg"><g><g><g><g><g><line x1="48.875" y1="177" x2="43.875" y2="177" style="visibility: inherit;" fill="rgb(0, 0, 0)" stroke="rgb(204, 204, 204)" stroke-width="1px"></line><line x1="48.875" y1="160.9090909090909" x2="43.875" y2="160.9090909090909" style="visibility: inherit;" fill="rgb(0, 0, 0)" stroke="rgb(204, 204, 204)" stroke-width="1px"></line><line x1="48.875" y1="144.8181818181818" x2="43.875" y2="144.8181818181818" style="visibility: inherit;" fill="rgb(0, 0, 0)" stroke="rgb(204, 204, 204)" stroke-width="1px"></line><line x1="48.875" y1="128.72727272727272" x2="43.875" y2="128.72727272727272" style="visibility: inherit;" fill="rgb(0, 0, 0)" stroke="rgb(204, 204, 204)" stroke-width="1px"></line><line x1="48.875" y1="112.63636363636364" x2="43.875" y2="112.63636363636364" style="visibility: inherit;" fill="rgb(0, 0, 0)" stroke="rgb(204, 204, 204)" stroke-width="1px"></line><line x1="48.875" y1="96.54545454545455" x2="43.875" y2="96.54545454545455" style="visibility: inherit;" fill="rgb(0, 0, 0)" stroke="rgb(204, 204, 204)" stroke-width="1px"></line><line x1="48.875" y1="80.45454545454547" x2="43.875" y2="80.45454545454547" style="visibility: inherit;" fill="rgb(0, 0, 0)" stroke="rgb(204, 204, 204)" stroke-width="1px"></line><line x1="48.875" y1="64.36363636363639" x2="43.875" y2="64.36363636363639" style="visibility: inherit;" fill="rgb(0, 0, 0)" stroke="rgb(204, 204, 204)" stroke-width="1px"></line><line x1="48.875" y1="48.27272727272728" x2="43.875" y2="48.27272727272728" style="visibility: inherit;" fill="rgb(0, 0, 0)" stroke="rgb(204, 204, 204)" stroke-width="1px"></line><line x1="48.875" y1="32.18181818181819" x2="43.875" y2="32.18181818181819" style="visibility: inherit;" fill="rgb(0, 0, 0)" stroke="rgb(204, 204, 204)" stroke-width="1px"></line><line x1="48.875" y1="16.090909090909093" x2="43.875" y2="16.090909090909093" style="visibility: inherit;" fill="rgb(0, 0, 0)" stroke="rgb(204, 204, 204)" stroke-width="1px"></line><line x1="48.875" y1="0" x2="43.875" y2="0" style="visibility: inherit;" fill="rgb(0, 0, 0)" stroke="rgb(204, 204, 204)" stroke-width="1px"></line></g><g transform="translate(38.875, 0)"><text x="0" y="177" dx="0em" dy="0.3em" style="text-anchor: end; visibility: hidden; font-family: &quot;Helvetica Neue&quot;, sans-serif; font-size: 12px; font-weight: 200;" fill="rgb(50, 49, 63)" stroke="none" stroke-width="1px">-0.2</text><text x="0" y="160.9090909090909" dx="0em" dy="0.3em" style="text-anchor: end; visibility: inherit; font-family: &quot;Helvetica Neue&quot;, sans-serif; font-size: 12px; font-weight: 200;" fill="rgb(50, 49, 63)" stroke="none" stroke-width="1px">0</text><text x="0" y="144.8181818181818" dx="0em" dy="0.3em" style="text-anchor: end; visibility: hidden; font-family: &quot;Helvetica Neue&quot;, sans-serif; font-size: 12px; font-weight: 200;" fill="rgb(50, 49, 63)" stroke="none" stroke-width="1px">0.2</text><text x="0" y="128.72727272727272" dx="0em" dy="0.3em" style="text-anchor: end; visibility: inherit; font-family: &quot;Helvetica Neue&quot;, sans-serif; font-size: 12px; font-weight: 200;" fill="rgb(50, 49, 63)" stroke="none" stroke-width="1px">0.4</text><text x="0" y="112.63636363636364" dx="0em" dy="0.3em" style="text-anchor: end; visibility: hidden; font-family: &quot;Helvetica Neue&quot;, sans-serif; font-size: 12px; font-weight: 200;" fill="rgb(50, 49, 63)" stroke="none" stroke-width="1px">0.6</text><text x="0" y="96.54545454545455" dx="0em" dy="0.3em" style="text-anchor: end; visibility: inherit; font-family: &quot;Helvetica Neue&quot;, sans-serif; font-size: 12px; font-weight: 200;" fill="rgb(50, 49, 63)" stroke="none" stroke-width="1px">0.8</text><text x="0" y="80.45454545454547" dx="0em" dy="0.3em" style="text-anchor: end; visibility: hidden; font-family: &quot;Helvetica Neue&quot;, sans-serif; font-size: 12px; font-weight: 200;" fill="rgb(50, 49, 63)" stroke="none" stroke-width="1px">1</text><text x="0" y="64.36363636363639" dx="0em" dy="0.3em" style="text-anchor: end; visibility: inherit; font-family: &quot;Helvetica Neue&quot;, sans-serif; font-size: 12px; font-weight: 200;" fill="rgb(50, 49, 63)" stroke="none" stroke-width="1px">1.2</text><text x="0" y="48.27272727272728" dx="0em" dy="0.3em" style="text-anchor: end; visibility: hidden; font-family: &quot;Helvetica Neue&quot;, sans-serif; font-size: 12px; font-weight: 200;" fill="rgb(50, 49, 63)" stroke="none" stroke-width="1px">1.4</text><text x="0" y="32.18181818181819" dx="0em" dy="0.3em" style="text-anchor: end; visibility: inherit; font-family: &quot;Helvetica Neue&quot;, sans-serif; font-size: 12px; font-weight: 200;" fill="rgb(50, 49, 63)" stroke="none" stroke-width="1px">1.6</text><text x="0" y="16.090909090909093" dx="0em" dy="0.3em" style="text-anchor: end; visibility: hidden; font-family: &quot;Helvetica Neue&quot;, sans-serif; font-size: 12px; font-weight: 200;" fill="rgb(50, 49, 63)" stroke="none" stroke-width="1px">1.8</text><text x="0" y="0" dx="0em" dy="0.3em" style="text-anchor: end; visibility: hidden; font-family: &quot;Helvetica Neue&quot;, sans-serif; font-size: 12px; font-weight: 200;" fill="rgb(50, 49, 63)" stroke="none" stroke-width="1px">2</text></g><line x1="48.875" y1="0" x2="48.875" y2="177" fill="rgb(0, 0, 0)" stroke="rgb(204, 204, 204)" stroke-width="1px"></line></g></g><g transform="translate(48, 0)" clip-path="url(#clip_0)"><clipPath id="clip_0"><rect width="281" height="177"></rect></clipPath><g><g><g><line x1="0" y1="0" x2="0" y2="177" fill="rgb(0, 0, 0)" stroke="rgb(60, 60, 60)" stroke-width="1px" opacity="0.25"></line><line x1="28.1125" y1="0" x2="28.1125" y2="177" fill="rgb(0, 0, 0)" stroke="rgb(60, 60, 60)" stroke-width="1px" opacity="0.25"></line><line x1="56.225" y1="0" x2="56.225" y2="177" fill="rgb(0, 0, 0)" stroke="rgb(60, 60, 60)" stroke-width="1px" opacity="0.25"></line><line x1="84.33749999999999" y1="0" x2="84.33749999999999" y2="177" fill="rgb(0, 0, 0)" stroke="rgb(60, 60, 60)" stroke-width="1px" opacity="0.25"></line><line x1="112.45" y1="0" x2="112.45" y2="177" fill="rgb(0, 0, 0)" stroke="rgb(60, 60, 60)" stroke-width="1px" opacity="0.25"></line><line x1="140.5625" y1="0" x2="140.5625" y2="177" fill="rgb(0, 0, 0)" stroke="rgb(60, 60, 60)" stroke-width="1px" opacity="0.25"></line><line x1="168.67499999999998" y1="0" x2="168.67499999999998" y2="177" fill="rgb(0, 0, 0)" stroke="rgb(60, 60, 60)" stroke-width="1px" opacity="0.25"></line><line x1="196.7875" y1="0" x2="196.7875" y2="177" fill="rgb(0, 0, 0)" stroke="rgb(60, 60, 60)" stroke-width="1px" opacity="0.25"></line><line x1="224.9" y1="0" x2="224.9" y2="177" fill="rgb(0, 0, 0)" stroke="rgb(60, 60, 60)" stroke-width="1px" opacity="0.25"></line><line x1="253.01250000000002" y1="0" x2="253.01250000000002" y2="177" fill="rgb(0, 0, 0)" stroke="rgb(60, 60, 60)" stroke-width="1px" opacity="0.25"></line><line x1="281.125" y1="0" x2="281.125" y2="177" fill="rgb(0, 0, 0)" stroke="rgb(60, 60, 60)" stroke-width="1px" opacity="0.25"></line></g><g><line x1="0" y1="177" x2="281.125" y2="177" fill="rgb(0, 0, 0)" stroke="rgb(60, 60, 60)" stroke-width="1px" opacity="0.25"></line><line x1="0" y1="160.9090909090909" x2="281.125" y2="160.9090909090909" fill="rgb(0, 0, 0)" stroke="rgb(60, 60, 60)" stroke-width="1px" opacity="0.25"></line><line x1="0" y1="144.8181818181818" x2="281.125" y2="144.8181818181818" fill="rgb(0, 0, 0)" stroke="rgb(60, 60, 60)" stroke-width="1px" opacity="0.25"></line><line x1="0" y1="128.72727272727272" x2="281.125" y2="128.72727272727272" fill="rgb(0, 0, 0)" stroke="rgb(60, 60, 60)" stroke-width="1px" opacity="0.25"></line><line x1="0" y1="112.63636363636364" x2="281.125" y2="112.63636363636364" fill="rgb(0, 0, 0)" stroke="rgb(60, 60, 60)" stroke-width="1px" opacity="0.25"></line><line x1="0" y1="96.54545454545455" x2="281.125" y2="96.54545454545455" fill="rgb(0, 0, 0)" stroke="rgb(60, 60, 60)" stroke-width="1px" opacity="0.25"></line><line x1="0" y1="80.45454545454547" x2="281.125" y2="80.45454545454547" fill="rgb(0, 0, 0)" stroke="rgb(60, 60, 60)" stroke-width="1px" opacity="0.25"></line><line x1="0" y1="64.36363636363639" x2="281.125" y2="64.36363636363639" fill="rgb(0, 0, 0)" stroke="rgb(60, 60, 60)" stroke-width="1px" opacity="0.25"></line><line x1="0" y1="48.27272727272728" x2="281.125" y2="48.27272727272728" fill="rgb(0, 0, 0)" stroke="rgb(60, 60, 60)" stroke-width="1px" opacity="0.25"></line><line x1="0" y1="32.18181818181819" x2="281.125" y2="32.18181818181819" fill="rgb(0, 0, 0)" stroke="rgb(60, 60, 60)" stroke-width="1px" opacity="0.25"></line><line x1="0" y1="16.090909090909093" x2="281.125" y2="16.090909090909093" fill="rgb(0, 0, 0)" stroke="rgb(60, 60, 60)" stroke-width="1px" opacity="0.25"></line><line x1="0" y1="0" x2="281.125" y2="0" fill="rgb(0, 0, 0)" stroke="rgb(60, 60, 60)" stroke-width="1px" opacity="0.25"></line></g></g></g><g><g><line x1="0" y1="160.9090909090909" x2="281.125" y2="160.9090909090909" fill="rgb(0, 0, 0)" stroke="rgb(153, 153, 153)" stroke-width="1.5px"></line></g></g><g><g><line x1="28.1125" y1="0" x2="28.1125" y2="177" fill="rgb(0, 0, 0)" stroke="rgb(153, 153, 153)" stroke-width="1.5px"></line></g></g><g><g><g><g><g><path stroke="rgb(255, 112, 67)" stroke-width="2px" d="M31.64343,-1.3585493766713341L31.719896000000002,2.0773721381701193L31.746884,1.9517166029867212L31.872828000000002,1.8134453523049103L32.480058,4.715814279395545L32.673472,6.020296139896004L32.907368,7.348574335502036L33.078292000000005,8.551425167949986L33.420139999999996,9.715185244916967L33.784478,11.499034710753591L34.031867999999996,14.363212598189563L34.045362000000004,13.819656223712144L34.108334,16.461761634689253L34.126326,16.26166182155373L34.34223,16.250739038606497L34.373716,16.453555354746044L34.571628000000004,17.72712341813954L34.706568,18.573888190246407L34.962954,20.060996779577863L35.093396,20.225981769723717L35.165364000000004,21.558795933681722L35.237332,22.62870694388255L35.718618,24.150456340512847L35.912031999999996,24.65491704867003L35.925526,25.210391185525793L36.406812,27.242244575331654L36.505768,28.89610192091334L36.555246000000004,29.748668816979887L36.735166,31.141051401900455L36.811632,33.402617598256285L36.870106,32.63513580622717L37.270428,32.83363180392848L37.540307999999996,33.83701691160118L37.949626,35.941578290910684L38.003602,37.477829237557216L38.147538000000004,38.64322009831932L38.174526,37.65394467367511L38.286976,38.97448719674449L38.489386,40.10344665292999L38.858222000000005,40.46965805589349L39.069627999999994,41.450912349273494L39.146094000000005,40.670797636365165L39.155089999999994,40.38031445377567L39.177580000000006,40.61534622082306L39.29003,44.36288842638032L39.294528,44.0264243103573L39.348504000000005,43.922450046065734L39.370994,44.85269596921077L39.501436,43.37630820177543L39.568906,44.25339574755759L40.18963,45.91523347472972L40.43702,48.53000744902769L41.458065999999995,50.274052073717385L41.777423999999996,51.22857089214776L41.790918000000005,51.48282496989087L42.051801999999995,53.41191290587919L42.330678,54.21701794671911L42.641040000000004,55.71221556657382L42.704012000000006,57.89909544334202L42.713007999999995,58.05489490801598L42.717506,60.452484073486985L42.97839,62.501484871166284L43.76554,61.84762200024079L44.386264,62.97489877363219L44.39526,63.7391177491827L44.62016,62.82244415955823L44.939518,65.360558082108L45.173414,65.65423760326816L45.267872,66.90805910318181L45.299358,67.90963943502034L45.780643999999995,69.79033217251734L45.906588,70.59213831187638L46.032532,71.76567173858929L46.266428,71.80736933267384L46.545304,71.61671474591112L46.986108,73.19781413141563L47.125546,73.49967684263557L47.148036,74.31151315573143L47.530366,74.15080522138214L47.539362000000004,75.97868915093036L47.9037,77.7748341845453L48.317516,79.39048985111054L48.393981999999994,79.52402993448251L48.48844,79.55181820202112L49.091172,78.41828938673336L49.109164,78.58965862873164L49.145148,79.42817158044069L49.648923999999994,79.97720455687023L49.711895999999996,80.991999816444L49.882819999999995,81.12619311305671L49.936796,80.46621262898266L50.125712,81.4767552064616L50.472058,81.37503040440701L50.8274,82.81910963420765L50.836396,82.52966030251528L51.079288,83.03928494557847L51.205232,84.70419606358149L51.677521999999996,87.0305541909249L52.154309999999995,88.14560804216225L52.217282,88.70177046165128L52.491659999999996,88.99824359891515L53.071902,89.41540581944571L53.656642000000005,89.86613247209942L53.854554,91.81030261925984L54.236883999999996,92.89100233670443L54.326844,95.52594721508028L54.488772,95.12096263176313L54.520258,95.59266682606786L54.682185999999994,96.9923919209352L54.776644,96.07788489869304L55.055519999999994,94.88611847309726L55.14548,95.8188761644109L55.644758,96.26793393816722L55.689738,97.47807571161222L56.000099999999996,96.45362054085338L56.058574,95.94232039155291L56.085561999999996,95.60788198033192L56.400422,96.25554429450436L56.503876,96.9322186689739L56.791748,97.80494476336138L57.439460000000004,99.05110156251999L57.682352,98.6055632032341L57.812794,100.10467642855237L58.055686,100.59369671205363L58.231108,101.41213744686762L58.244602,101.74267083291244L58.298578,102.7647557739368L58.438016,102.50650777450183L58.941792,103.01001654665079L59.445568,106.05290246692813L59.562516,106.3959377459844L60.075288,107.5505933760175L60.111272,106.89991816382114L60.29569,107.09879507233097L60.709506000000005,106.35297720307835L60.997378,106.43772358863028L61.213282,107.61393844368956L61.316736,107.61546105260844L61.6226,108.16415670311838L61.66758,107.64276033681105L61.681073999999995,109.12531185499982L61.748544,109.06411505388873L61.896978000000004,109.4954841912466L62.715614,110.04335901622044L63.01698,110.38558410315336L63.142924,112.07748440926446L63.187903999999996,113.3983834159791L63.345334,114.31820979604186L64.056018,113.64248586772771L64.39336800000001,114.05664244774678L64.90614,113.79832100560486L65.090558,115.29805691057574L65.598832,115.87596356931354L65.72927399999999,115.68643651262916L65.75176400000001,116.79292432850923L65.79224599999999,117.67467881129524L66.19706599999999,118.19455489990374L66.21056,118.58008518015788L66.336504,117.91877173085099L66.381484,117.8394549270597L66.799798,117.93453183489171L66.95273,118.00195152861878L67.22261,118.24182178125221L68.045744,118.8540555786002L68.162692,119.52739828965875L68.176186,119.67633123590726L68.270644,120.89241802114572L68.30213,120.92818075071767L68.563014,120.40066223261624L68.590002,119.39048716702058L68.84188999999999,120.41969693902294L69.76398,121.77430105709746L70.015868,122.8731388869832L70.15980400000001,123.13387997178842L70.55113,123.36977204383217L70.699564,123.37590542582427L71.05490599999999,123.70707540545968L71.08639199999999,123.39999590525584L71.14486600000001,124.55243121293735L71.414746,124.91538197223872L71.54968600000001,124.57828552325739L71.65314,125.18838607116282L71.734104,125.43348368258971L72.386314,125.929427644756L72.674186,125.68576829610154L73.35338399999999,125.84683536765615L73.470332,126.4742779146834L74.33394799999999,128.01372992734065L74.365434,129.12408281734827L74.87370800000001,129.93132436984436L74.887202,130.10132659665575L74.98166,129.9710116500801L75.24704200000001,130.526491538322L75.440456,130.24519272782567L75.82278600000001,131.1472291781251L75.962224,130.94630974190446L76.03419199999999,130.96591991957052L76.11065799999999,131.7546567919776L76.290578,131.84637366984202L76.49748600000001,132.14639449216727L76.501984,132.16667677330744L76.60094,131.7091140796084L76.75837,131.67870397536717L76.875318,132.11099948495973L76.9158,132.57726080640546L77.149696,133.10002776799868L77.16319,132.45773509469953L77.316122,132.906007852663L77.334114,131.87999561437712L77.437568,132.22897103975913L77.464556,133.07151491374196L77.473552,132.64810219907469L77.68046,131.9880916370808L78.049296,132.94518701939393L78.134758,133.59795559525202L78.17524,133.48381607092338L78.481104,133.58610364628169L78.4901,133.68397830895708L78.75998,133.38433995501205L79.475162,134.55764715303943L79.71355600000001,133.36877623402512L79.803516,133.60004128176394L79.942954,134.35843955535384L79.983436,134.05413300429996L80.059902,134.9162314463677L80.13636799999999,134.18955754377214L80.505204,134.76188691232176L80.60865799999999,134.70363176384257L80.67163,135.32806944397663L81.00448200000001,135.80444961083117L81.517254,136.30674018763088L81.949062,137.10151796846412L81.971552,138.11452141588225L82.13347999999999,137.78966987839516L82.272918,137.3323146873295L82.709224,136.85343255297366L82.826172,136.57069157289172L82.844164,137.4172030568089L82.91613199999999,137.09880727789417L83.105048,136.9964715192956L83.39292,136.99475058020607L83.406414,137.6990809869311L83.478382,137.3192838709298L83.91019,137.70281870629665L84.148584,137.36839449629406L85.106658,137.55974810149314L85.232602,137.56162419594767L85.70939,138.19198386314343L86.033246,138.6379864328943L86.312122,139.04310079949698L86.662966,139.3754926204213L86.739432,139.48943321095172L86.86087799999999,139.8888006730778L86.95533599999999,139.73500890711728L87.009312,139.84927067159393L87.07678200000001,140.09149356266943L87.333168,139.82155157186332L87.66152199999999,140.32012230354826L88.156302,140.87284027889703L88.394696,141.157775707087L88.412688,141.7805680365699L88.853492,142.38120030568248L89.04240800000001,142.06273034121136L89.271806,142.0200464123818L89.37526,142.41182801906444L89.640642,142.98963075639224L89.654136,142.50996033623846L90.07694799999999,142.54927974290487L90.22988000000001,142.76249988231615L90.38730999999999,142.45878692209132L90.562732,143.20079383423843L90.97654800000001,142.71480939002475L91.075504,143.36072533961212L91.44434,143.4549862124686L92.078558,143.6553788605593L92.375426,143.37761150791366L92.406912,143.98025295514157L92.44739399999999,144.5367360549413L92.52386000000001,144.55045624109653L92.604824,144.85109756147756L92.870206,145.39379313171713L93.095106,145.25160235187622L93.306512,145.52201400953712L93.58988599999999,145.33874490225315L93.92723600000001,145.516973117267L93.954224,145.19957664728295L94.089164,145.37980180400146L94.12964600000001,146.3420235301109L94.174626,146.1407088259977L94.588442,145.81444777261854L94.62892400000001,145.5694148645228L94.646916,145.4076768797077L94.723382,145.69079070880093L95.011254,145.96115132382505L95.096716,145.4720615973911L95.703946,145.6442123675306L95.98732000000001,145.59521613751517L96.194228,145.64823804962708L96.39214000000001,145.56759611332893L96.778968,145.707343741552L97.039852,146.4273087798062L97.710054,146.28954536699996L97.71905000000001,146.19941310818695L97.86298599999999,146.41149402699293L98.00242399999999,146.30138578277047L98.267806,147.02966940667054L98.91102,147.40233527797136L99.01897199999999,147.34758637382464L99.059454,147.29627928808205L99.306844,147.13223243216146L99.986042,147.0368667023042L100.049014,147.39505006965317L100.50781,147.6188264245659L100.602268,147.98990043186907L101.20050200000001,148.25311350769422L101.524358,148.2266773188184L101.623314,148.2262948856829L101.69978,147.89604011322618L101.906688,147.99183580257738L102.05962,148.26613007770925L102.35199,148.66301717089328L102.71183,148.3692623886162L103.053678,148.50971494934575L103.215606,148.47472615840098L103.714884,148.68339391774626L103.719382,148.6536195437982L103.87231399999999,148.91312315339184L103.93528599999999,148.8197464899679L104.124202,148.98513332670962L104.875368,149.10125793236298L105.014806,149.4687094679723L105.167738,149.7237724732472L105.653522,150.2524330243861L105.801956,150.02834152784862L105.88292,149.77912588698L105.891916,149.690410186814L105.999868,149.2091342394804L106.004366,149.71961724724446L106.01786,149.69182141944864L106.10332199999999,149.85138348101273L106.260752,149.4692354066511L106.40019,149.25050425690273L106.57561199999999,149.60661568683952L106.620592,149.89990787769895L107.020914,149.91493876832234L107.08388599999999,150.13380395641792L107.214328,150.27778501401139L107.25031200000001,150.16038990074273L107.380754,149.81840149738173L107.826056,149.51353664179044L108.865094,150.211963939273L108.99103799999999,150.18805965584193L109.03152,150.30475459468278L109.157464,150.44703153680186L109.31489400000001,150.5831255652767L109.36887,150.5825714144971L109.65674200000001,150.91480271579204L110.26397200000001,150.80259382842627L110.506864,151.01908159462164L111.105098,151.08563288059185L111.10959600000001,151.15566646189572L111.739316,151.43816117749535L112.283574,151.49926875795296L112.31506,151.71855850513364L112.87731,151.74187306163066L113.38558400000001,151.49730257260305L113.471046,151.09980399648848L113.59699,151.5799097771783L113.695946,152.16900422008868L113.79040400000001,151.90974916905293L114.096268,151.96042916980193L114.33466200000001,152.0190160395746L114.595546,151.79717082133342L114.79345799999999,152.2496237263652L115.75603000000001,152.56035713695016L115.836994,152.55108923764L115.93594999999999,152.50992025519537L115.962938,152.90877468013568L116.45322,152.61418188586117L116.516192,152.78013768370428L116.56567,152.7929122940141L116.81306000000001,152.59101981276714L116.862538,152.2638735624329L116.889526,152.3237753563249L117.15490799999999,152.05804142726745L117.276354,152.32022191427305L117.37980800000001,152.35693362288242L117.694668,152.3668326782954L117.793624,152.669815896996L117.942058,153.12917762965125L118.05001,153.07372634311793L118.22993,152.97233743516048L118.310894,152.6509139882011L118.337882,152.62313659576563L118.35137599999999,152.54422455021893L118.693224,152.4016552209208L118.697722,152.58981812234816L118.90912800000001,152.63301714203416L119.04856600000001,152.7112785704343L119.170012,152.58666761084845L119.183506,152.98154701889047L119.205996,152.9340357569702L119.525354,153.01096040615343L119.574832,153.3089406271945L119.79523400000001,153.1607946037264L120.05162,152.85616239400952L120.25402999999999,152.79145148283501L120.43844800000001,153.13110961737897L120.496922,153.12539017008072L120.50142000000001,152.73795591910837L120.600376,152.89182447077022L120.67234400000001,152.95938901575752L121.171622,153.04312696630078L121.26608,153.2494532378248L121.576442,152.92362959644495L121.58993600000001,152.9432911241999L121.594434,153.11608113871085L121.810338,153.19658705905715L121.91829,153.23513759535663L122.512026,153.47817881241886L122.87186600000001,153.36758693331475L122.93034,153.34589172792107L123.21821200000001,153.2870661688438L123.510582,153.50697706747326L123.614036,153.67241009619616L123.991868,153.75052215430662L124.005362,153.55363592343372L124.02785200000001,153.60230986541254L124.329218,153.67569916189973L124.41018199999999,153.57201780387157L124.747532,153.50046047058558L124.92295399999999,153.2361163528699L125.633638,153.5185115968711L125.82255400000001,153.49014997504403L125.827052,153.80021845494875L126.119422,153.87162492066452L126.14641,154.02799686886402L126.263358,153.75420163955084L126.357816,153.75595931153066L126.384804,153.7387921083224L127.095488,154.0195412410973L128.17051,154.08082167782817L128.228984,154.10573818887514L128.38191600000002,154.04809531144537L128.489868,153.874686639306L128.55284,154.0098567138351L128.678784,154.18249722438836L129.191556,153.88309730036457L129.348986,153.9737191809185L129.515412,154.1164324399701L129.92473,154.2906635573538L130.50947,154.12507226809237L130.84682,154.22637651762534L131.25164,154.07933969628425L131.265134,153.84895965194036L131.92633999999998,153.99493963045893L131.944332,154.1401508793252L132.137746,154.2996845884496L132.18722400000001,154.43571788710418L132.232204,154.52506791546273L132.385136,154.24724155444318L132.430116,154.4507651960647L132.547064,154.21047269373457L132.749474,154.38853850676935L132.852928,154.35122081385825L133.082326,154.39974097296027L133.190278,154.34326913098243L133.27574,154.45143152369002L133.487146,154.342525497091L133.99542,154.28567081257071L134.215822,154.52362748720864L134.58016,154.4577939863231L134.629638,154.56714462750332L134.719598,154.49624995434553L135.04795199999998,154.4891964714565L135.304338,154.50170966456812L135.78562399999998,154.5066755046494L136.419842,154.42608564593857L136.595264,154.5840724202628L136.725706,154.76869288801598L137.117032,155.02707412482061L137.332936,154.90812718437388L137.34193199999999,155.15193973223134L137.512856,154.98790291582313L137.61631,154.91699048821624L137.935668,154.7264760940668L138.569886,154.9092270680632L138.857758,154.77646044293328L139.298562,154.84323549427342L139.33454600000002,154.85431721656715L140.01824200000001,154.86153403295233L140.117198,154.82580401036128L140.265632,154.66247107650085L140.598484,154.70632979095942L140.77390599999998,154.84408873971518L141.16073400000002,154.86534178133357L141.48908799999998,155.1866117396848L141.601538,155.06706884269207L141.660012,154.66191948593053L141.70049400000002,154.72249715303525L142.055836,154.94196480324408L142.32121800000002,154.98901383520035L142.83399,155.13167215116977L142.90146,155.14441396296553L143.25680200000002,155.25010663975686L143.64812799999999,155.15535367662446L144.04845,155.0919186849389L144.214876,155.08631651140846L144.372306,154.99477860191388L144.70515799999998,155.2625234874531L145.26290999999998,155.22580060485757L145.35736799999998,154.96761661868817L145.39785,155.44917563450164L145.469818,155.43116702186524L145.753192,155.49640929104092L145.75769000000003,155.03699585357214L145.82066200000003,155.07212626671136L146.373916,155.0838931609765L146.423394,155.17377936328177L146.873194,155.0025059964613L147.17455999999999,155.01183907850177L148.07415999999998,155.15229578440812L148.645406,154.99721354347994L148.649904,154.9771662758848L148.780346,155.32593764244248L148.78934199999998,155.17089021540014L149.234644,155.1356545406036L149.909344,155.0390749627459L150.197216,154.92486658554287L150.224204,155.07477593095254L150.251192,155.36256850084536L150.269184,155.2165276346042L150.273682,155.27108768122724L150.790952,155.29960729694943L151.038342,155.1693791357942L151.578102,154.91987918881364L151.82999,154.97815971929685L152.270794,155.14324505705585L152.31577399999998,155.4443516022067L152.34725999999998,155.57877298402303L152.428224,155.54439916165452L152.68461000000002,155.553686818464L152.882522,155.6296060009879L153.26935,155.47183436705257L153.67866800000002,155.76751369337572L153.68766399999998,155.5284983686987L153.8316,155.6938005644962L153.912564,155.57952160590202L155.185498,155.61604324090828L155.302446,155.56674573052572L155.50035799999998,155.56109731198177L155.74774799999997,155.5929587620546L156.026624,155.63496558351162L156.08509800000002,155.80573972087626L156.49891399999998,155.6935080161077L156.629356,155.5928601756649L156.80477800000003,155.54715158741325L158.06421799999998,155.6182600445136L158.41956000000002,155.79688613118057L158.536508,155.61372613338696L158.635464,155.74866365896503L158.720926,155.53658840010127L158.83337600000002,155.43813976994707L158.90534399999999,155.65352198447266L158.95932000000002,155.7703962781864L159.15273399999998,155.84041247691465L159.45859800000002,155.6922024199547L159.73747400000002,155.78161851547523L160.67305800000003,155.8907490607316L160.704544,155.81677839430006L160.745026,155.84941523210037L160.969926,155.96703665231797L160.98342000000002,155.73044716879804L161.077878,155.75216652193714L161.21731599999998,155.70814673121924L161.302778,155.85266979197357L161.91450600000002,155.65706060054987L162.278844,155.5947549318476L162.283342,155.7413624778511L162.436274,155.78169269646483L163.05249999999998,155.73570824408426L163.07499,155.8189369232453L163.191938,155.9151420919785L163.398846,155.85967364617684L163.466316,155.74195379820384L163.385352,155.63236641226905L163.57876599999997,155.60504651244426L163.695714,155.78723560094042L163.880132,155.85859702785515L164.07354600000002,155.92796301468218L164.667282,156.05271222543394L164.698768,156.0668150841477L164.71676,155.91762733921195L165.175556,155.6050270414421L165.355476,155.71750685451659L165.778288,155.91409776084018L165.84126,156.026542076033L165.922224,155.79509632691352L166.11113999999998,155.7994389539148L167.334596,155.82200613106943L167.57299,155.96142522521575L168.108252,155.92653543423813L168.926888,155.94039565250722L169.093314,155.77041533057252L169.51612599999999,155.6855483846816L170.23130799999998,155.991609915232L170.34825600000002,155.9630041259521L170.528176,156.0322100869251L170.735084,156.00819548742749L171.027454,155.9762154261061L171.05894,156.029303193161L171.09492400000002,155.85021811158876L171.31082800000001,155.79730444292892L171.35130999999998,155.87567533460387L171.616692,155.91615817464395L171.675166,155.99778029549503L172.327376,156.04697523835694L172.381352,155.95650908028935L172.529786,156.1655291649073L172.718702,156.02465577995812L173.01107199999998,156.28272093904906L173.34392400000002,156.1648646211363L173.55533,156.19531043685626L173.84769999999997,156.24410513462732L173.978142,156.2459248013893L174.03661599999998,156.16021869214336L174.34697799999998,156.09500674711117L174.360472,156.21863872767628L174.553886,156.18551951542364L174.774288,156.18439549727523L175.02617600000002,156.18012209020208L175.619912,156.28228284058446L175.655896,156.0594040147349L175.687382,155.83450678484402L176.105696,155.84113271993095L176.159672,155.9255394917069L176.249632,156.22176133513298L176.762404,156.22501493834275L176.780396,156.3790522629678L176.90184200000002,156.19330042606734L176.91083799999998,156.33214799941538L177.31565799999998,156.22646296752612L177.630518,156.25570751770752L177.751964,156.08732557323228L177.78345,156.07851391017067L177.909394,156.17397698612425L178.52112200000002,156.0095806440795L178.934938,155.96450302333687L178.966424,156.21804388024134L179.371244,156.0846876729537L179.411726,156.2744396927362L179.465702,156.28856538182745L179.551164,156.17650331578946L179.62762999999998,156.12638336717825L179.870522,156.23751828903346L179.924498,156.06359591710475L180.036948,156.17199807649686L180.203374,156.3149012928086L180.46425799999997,156.11912463390638L180.671166,156.03056929578668L180.756628,156.1056867175607L180.788114,156.10639840373335L180.99502199999998,156.22298943121234L181.228918,156.0366834108445L181.242412,156.21648190955432L181.39984199999998,156.37891361466387L181.98458200000002,156.2428197246328L182.218478,156.3484858669849L182.222976,156.386326805045L182.317434,156.3370012117076L182.564824,156.29635854390062L182.95615,156.3250576573853L182.960648,156.42385768917845L183.131572,156.53076026835447L183.289002,156.50657283459603L183.329484,156.3588111971668L183.504906,156.31086686997722L183.725308,156.16684116205855L183.972698,156.25518865211126L184.11663399999998,156.23480771552784L184.543944,156.18052928300548L185.22764,156.23947215631352L185.44804200000002,156.14508579568547L185.60997,156.1593292677193L185.888846,156.16960267728936L186.235192,156.19256871224536L186.248686,156.46816715332164L186.590534,156.42797354313743L186.684992,156.41301983146946L186.720976,156.52429076232144L186.77945,156.52074605520417L186.788446,156.4889100089693L186.815434,156.3985331510699L187.256238,156.37986384783093L187.26523400000002,156.35910514470822L187.65656,156.38044380166085L187.67005400000002,156.39894952256432L187.7915,156.2135614305293L188.560658,156.2848248961032L188.592144,156.3490745693828L188.88901199999998,156.44430688483737L188.911502,156.39366820717152L189.37929400000002,156.4191713450482L189.45576,156.37804571511765L189.757126,156.44027710350895L189.84708600000002,156.37451248849953L190.328372,156.40419113153263L190.56226800000002,156.5224226592099L190.629738,156.73185075716142L190.69720800000002,156.59447134725377L190.769176,156.63484164292885L190.82764999999998,156.50324155207005L190.98507999999998,156.63356588305172L191.07054200000002,156.5503303970708L191.10202800000002,156.51990700607382L192.150062,156.62473240686748L192.419942,156.37821539958836L192.554882,156.36371178352059L192.640344,156.46025543573523L193.040666,156.4766428331317L193.216088,156.47151665894876L193.23408,156.5150318902165L193.274562,156.44868255325736L193.30155,156.41086270923202L193.414,156.4314224168185L193.67038599999998,156.4952452266203L194.327094,156.48256791924268L194.84886200000003,156.42465675147724L194.997296,156.47506071803022L195.48757799999998,156.39632964158466L195.514566,156.37724624737746L195.555048,156.29357435598217L196.13529,156.33648283914363L196.288222,156.28765317946238L197.43971000000002,156.61002430639223L197.525172,156.45161129753L197.71858600000002,156.490583420435L198.028948,156.537261622577L198.99601800000002,156.62963914419956L199.450316,156.4971069425362L199.69770599999998,156.67513548097932L199.765176,156.41736853603945L200.075538,156.27265548141366L200.22847,156.41853739917127L200.561322,156.30026606936255L200.63329,156.350687270359L200.682768,156.38924189927653L200.8357,156.56831779059888L201.19554,156.6840363410377L201.46991799999998,156.66067391249211L201.474416,156.62306744509903L201.7353,156.46883017715737L201.82526000000001,156.56843369094685L202.018674,156.69517093627005L202.041164,156.6893853936747L202.36502000000002,156.62842783676336L202.999238,156.59694872352983L203.102692,156.45137443195068L203.10719,156.51130337040703L203.718918,156.4620733809644L204.150726,156.5596129214163L204.416108,156.4753122444551L204.465586,156.50435117684498L205.74301799999998,156.6159762832683L205.92743600000003,156.73538124059968L206.24229599999998,156.64987791895794L206.36824,156.6789149438897L206.597638,156.45955941569346L207.033944,156.52982472840054L207.173382,156.67121754402146L207.195872,156.81244382097316L207.272338,156.59987420909724L207.501736,156.60883857881717L207.67266,156.6944134336074L208.590252,156.65165946220787L208.914108,156.69428082823197L209.386398,156.7125508745767L209.777724,156.6446194772711L209.83169999999998,156.62942669932247L209.975636,156.64508823906084L210.10158,156.7442856324812L210.492906,156.6694429430046L210.53788600000001,156.57298620472963L210.564874,156.6507998326891L210.582866,156.7404008238923L210.722304,156.74220315908045L210.7313,156.7106918253634L210.794272,156.6171815027674L210.82126,156.64436941230124L211.14961399999999,156.71681462971844L212.26062000000002,156.80158078087095L212.656444,156.72906515600462L212.773392,156.75543948730228L213.178212,156.8056867702031L213.299658,156.89220031156032L213.614518,156.82328023184039L213.920382,156.8364771932936L213.99235,156.73966625962117L214.289218,156.63721146148336L214.505122,156.6002738579191L214.57709,156.7698138296325L214.707532,156.676156078479L214.819982,156.6989619116466L214.90544400000002,156.8417385993236L215.553156,156.9132684214883L215.58914000000001,156.8405848070096L215.877012,156.81735488333607L215.998458,156.83829170567952L216.605688,156.89421594854636L216.637174,156.90320189046906L216.718138,156.77499097259397L217.181432,156.6649425075201L217.28938399999998,156.69573565709715L217.334364,156.82005991882593L217.397336,156.9595542557194L217.676212,156.7415981513733L218.103522,156.83058888260462L218.40039000000002,156.92830828020968L218.458864,157.01636860605802L218.6028,156.96905224266595L218.683764,157.02174090318917L218.72874399999998,156.96058295949126L218.82320199999998,156.9988080964154L219.31348400000002,156.8514792487693L219.62834400000003,156.70884067983732L220.06914799999998,156.4977994327569L220.595414,156.59142497879841L220.766338,156.74006117987545L220.914772,156.76577588560204L220.991238,156.76685607951458L221.16665999999998,156.8883109406923L222.25517599999998,156.81329928191812L222.327144,156.87001715851125L222.974856,156.95284809078697L223.208752,157.05519341851644L223.40666399999998,156.8837353716813L223.56409399999998,156.84129706464435L223.69903399999998,157.02609961797674L223.80698600000002,156.97921492024915L223.914938,156.88187283941897L223.950922,156.99223317780644L224.00039999999998,156.98015203197656L224.004898,156.96778142862343L224.274778,156.90051682349826L224.39622400000002,156.96723670884947L224.41421599999998,156.9500550308687L224.481686,156.83736633153117L224.598634,156.97760976772685L224.648112,156.82033799473965L224.69759,156.8526725443817L224.846024,156.83372789999999L225.228354,156.9330049499559L225.466748,156.7428297374279L225.48474000000002,156.83878562090038L225.543214,156.86822080333647L225.903054,156.95179941012955L225.921046,157.03140031779324L226.042492,156.94990426915868L226.082974,156.8476132177753L226.4743,156.83419778866045L226.505786,156.82164379163072L226.703698,156.73771472694565L226.942092,156.7463123702965L227.099522,156.7966493879859L227.11751400000003,156.8358644345465L227.391892,156.83654427251864L227.82819800000001,156.7907681346959L227.999122,156.98599831335267L228.20603,157.13611483061732L228.210528,157.07692950182536L228.224022,157.13032969499022L228.47591,157.0302884492323L228.853742,157.00166560286013L228.961694,156.92522294971673L229.182096,157.05774180750228L229.24506799999997,157.08255233643376L229.910772,157.17053867811896L230.045712,157.15863654859191L230.311094,157.17614264017917L230.540492,157.11088754534308L231.46707999999998,156.99832347823565L231.507562,156.8701935035138L231.597522,157.00027722089743L231.73696,157.01468887866184L231.745956,157.06558103918871L232.353186,157.12451555642662L232.515114,157.12584669085794L232.71302599999999,157.00086692876002L232.978408,156.99704952075817L233.032384,156.94803134955174L233.540658,156.9859315061728L233.70708399999998,156.94626714029505L233.846522,156.95700269944263L234.003952,156.94783239991813L234.678652,156.91252916509174L234.719134,156.91123749261385L234.84058,156.815331620871L234.97552000000002,156.90321259996506L235.128452,156.89203251021198L235.330862,156.8547515712207L235.36684599999998,156.9006691050111L235.49278999999999,156.71301631771635L236.001064,156.94198736620177L236.073032,157.05513743367766L236.17648599999998,157.04137078246026L236.351908,157.15194696026825L236.428374,157.13872727736322L236.815202,156.87136490877617L236.85568400000002,156.82491530049802L237.00861600000002,156.9210490569519L237.52588599999999,156.85923748238798L237.70130799999998,156.9597008869123L237.935204,156.97032021525658L239.230628,156.96775366567738L239.325086,157.03554128814005L239.959304,156.93326298000645L240.152718,156.878730371391L240.391112,156.80373387040046L240.422598,157.00849095949522L240.51255799999998,156.94852232101772L240.62950600000002,157.06241966759364L241.03432600000002,157.1186902888673L241.268222,157.20804756174647L241.53810199999998,157.12620611526305L241.56958799999998,157.0963863281581L241.70003,156.97015100367992L241.938424,157.0978147151142L241.956416,157.04043149735583L242.01488999999998,157.02158562779243L242.07786199999998,157.09311963717394L242.18581400000002,157.19881854889218L242.23979,157.17987303398505L242.383726,157.116042622971L242.415212,157.22089474930124L242.478184,157.22421578365095L242.986458,157.16843528423678L243.035936,157.2533222879137L243.062924,157.23512439116467L243.247342,157.1219899654556L243.265334,157.18134053878813L243.328306,157.05808325472807L243.43176,157.01663482121268L243.90854800000002,157.20824178497793L244.101962,157.19535683886505L244.299874,157.17803733972488L244.38083799999998,157.01126769751613L244.452806,156.9717528488275L244.587746,156.87606365627266L244.898108,156.9930191081266L245.460358,157.17405560832947L245.653772,157.04959395145232L245.662768,157.1634556834066L245.829194,157.0774876404936L245.833692,157.09866648097193L245.878672,157.06624486675202L245.91465599999998,156.9834174357673L246.027106,157.08006081362217L246.40044,157.09947332193968L246.42293,157.10215834336157L246.4904,157.01041388884101L247.363012,157.2511250977484L247.983736,157.1484225900468L248.937312,157.1167461243622L249.288156,157.29013224672664L249.531048,157.10626017033798L249.643498,157.19792884698086L250.210246,156.9528823884868L250.57458400000002,157.0115892959886L250.794986,157.1365613997296L250.848962,157.34136604105055L250.93442399999998,157.23076604641614L251.199806,157.33708377654364L251.721574,157.26233080475174L252.076916,157.17557864971326L252.26583200000002,157.1271343852775L252.589688,157.07759766664105L252.814588,157.020452291584L252.98101400000002,157.00441037072247L253.008002,157.10393994314484" style="fill: none;" fill="none"></path></g></g></g></g><g opacity="0.2"><g><g><g><path stroke="rgb(255, 112, 67)" stroke-width="2px" d="M31.324071999999997,-6.985879377885311L31.360056,0.2900776537981926L31.64343,2.0451121980493667L31.719896000000002,7.231186574155629L31.746884,1.7632347887212632L31.872828000000002,1.6060394590551255L32.480058,9.069355292753727L32.673472,7.9770155928351585L32.907368,9.340989589691162L33.078292000000005,10.355700308626353L33.420139999999996,11.460824717174887L33.784478,14.174808317964732L34.031867999999996,18.659478859467953L34.045362000000004,13.004321726885706L34.108334,20.424919561906307L34.126326,15.961512110450059L34.34223,16.234354864467292L34.373716,16.757779825817465L34.571628000000004,19.637475501407295L34.706568,19.844035343690365L34.962954,22.291659658605397L35.093396,20.47345925461164L35.165364000000004,23.55801717801529L35.237332,24.233573458411485L35.718618,26.433080434799223L35.912031999999996,25.411608110774665L35.925526,26.04360239072281L36.406812,30.29002465985039L36.505768,31.37688793919304L36.555246000000004,31.027519161050975L36.735166,33.229625279253185L36.811632,36.79496689276263L36.870106,31.483913118189037L37.270428,33.13137580047956L37.540307999999996,35.34209457310766L37.949626,39.098420359871625L38.003602,39.78220565752551L38.147538000000004,40.391306389461874L38.174526,36.17003153670919L38.286976,40.955300981348216L38.489386,41.79688583720815L38.858222000000005,41.01897516033867L39.069627999999994,42.922793789343416L39.146094000000005,39.50062556700274L39.155089999999994,39.94458967989141L39.177580000000006,40.9678938713941L39.29003,49.98420173471625L39.294528,43.521728136322736L39.348504000000005,43.7664886496284L39.370994,46.24806485392833L39.501436,41.16172655062243L39.568906,45.5690270662308L40.18963,48.40799006548795L40.43702,52.45216841047461L41.458065999999995,52.8901190107519L41.777423999999996,52.66034911979331L41.790918000000005,51.86420608650556L42.051801999999995,56.30554480986163L42.330678,55.424675507978975L42.641040000000004,57.955011996355935L42.704012000000006,61.1794152584943L42.713007999999995,58.288594105026945L42.717506,64.04886782169343L42.97839,65.57498606768522L43.76554,60.866827693852514L44.386264,64.6658139337193L44.39526,64.88544621250848L44.62016,61.447433775121524L44.939518,69.16772896593268L45.173414,66.0947568850084L45.267872,68.78879135305232L45.299358,69.4120099327781L45.780643999999995,72.61137127876283L45.906588,71.79484752091496L46.032532,73.52597187865867L46.266428,71.86991572380067L46.545304,71.33073286576706L46.986108,75.56946320967242L47.125546,73.95247090946546L47.148036,75.52926762537524L47.530366,73.90974331985822L47.539362000000004,78.72051504525272L47.9037,80.46905173496768L48.317516,81.8139733509584L48.393981999999994,79.7243400595405L48.48844,79.59350060332905L49.091172,76.71799616380173L49.109164,78.84671249172906L49.145148,80.68594100800428L49.648923999999994,80.80075402151456L49.711895999999996,82.51419270580466L49.882819999999995,81.32748305797578L49.936796,79.47624190287158L50.125712,82.99256907268006L50.472058,81.22244320132516L50.8274,84.98522847890855L50.836396,82.09548630497675L51.079288,83.80372191017325L51.205232,87.20156274058603L51.677521999999996,90.52009138193999L52.154309999999995,89.81818881901829L52.217282,89.53601409088482L52.491659999999996,89.44295330481097L53.071902,90.04114915024151L53.656642000000005,90.54222245107998L53.854554,94.72655784000051L54.236883999999996,94.51205191287129L54.326844,99.47836453264411L54.488772,94.51348575678739L54.520258,96.30022311752494L54.682185999999994,99.09197956323625L54.776644,94.70612436532976L55.055519999999994,93.09846883470362L55.14548,97.21801270138134L55.644758,96.9415205988017L55.689738,99.29328837177971L56.000099999999996,94.91693778471515L56.058574,95.1753701676022L56.085561999999996,95.10622436350043L56.400422,97.22703776576303L56.503876,97.94723023067822L56.791748,99.1140339049426L57.439460000000004,100.92033676125787L57.682352,97.93725566430527L57.812794,102.35334626652978L58.055686,101.32722713730553L58.231108,102.63979854908857L58.244602,102.23847091197969L58.298578,104.29788318547337L58.438016,102.11913577534936L58.941792,103.76527970487422L59.445568,110.61723134734414L59.562516,106.91049066456881L60.075288,109.28257682106712L60.111272,105.9239053455266L60.29569,107.3971104350957L60.709506000000005,105.2342503991994L60.997378,106.56484316695821L61.213282,109.37826072627848L61.316736,107.61774496598679L61.6226,108.9872001788833L61.66758,106.86066578735006L61.681073999999995,111.34913913228296L61.748544,108.9723198522221L61.896978000000004,110.14253789728339L62.715614,110.8651712536812L63.01698,110.89892173355277L63.142924,114.61533486843109L63.187903999999996,115.37973192605105L63.345334,115.69794936613604L64.056018,112.6288999752565L64.39336800000001,114.6778773177754L64.90614,113.41083884239197L65.090558,117.54766076803207L65.598832,116.74282355742022L65.72927399999999,115.4021459276026L65.75176400000001,118.45265605232933L65.79224599999999,118.99731053547427L66.19706599999999,118.97436903281647L66.21056,119.15838060053912L66.336504,116.92680155689067L66.381484,117.72047972137278L66.799798,118.07714719663969L66.95273,118.10308106920937L67.22261,118.60162716020238L68.045744,119.77240627462214L68.162692,120.53741235624662L68.176186,119.89973065528002L68.270644,122.7165481990034L68.30213,120.98182484507561L68.563014,119.60938445546411L68.590002,117.8752245686271L68.84188999999999,121.9635115970265L69.76398,123.80620723420924L70.015868,124.52139563181184L70.15980400000001,123.52499159899625L70.55113,123.72361015189779L70.699564,123.38510549881242L71.05490599999999,124.2038303749128L71.08639199999999,122.93937665495005L71.14486600000001,126.28108417445964L71.414746,125.4598081111908L71.54968600000001,124.07264084978539L71.65314,126.10353689302099L71.734104,125.80113009973007L72.386314,126.67334358800542L72.674186,125.32027927311984L73.35338399999999,126.08843597498807L73.470332,127.41544173522429L74.33394799999999,130.32290794632652L74.365434,130.78961215235972L74.87370800000001,131.14218669858846L74.887202,130.35632993687284L74.98166,129.77553923021665L75.24704200000001,131.3597113706849L75.440456,129.82324451208115L75.82278600000001,132.50028385357425L75.962224,130.6449305875735L76.03419199999999,130.99533518606967L76.11065799999999,132.9377621005882L76.290578,131.9839489866387L76.49748600000001,132.59642572565514L76.501984,132.19710019501773L76.60094,131.0227700390599L76.75837,131.63308881900528L76.875318,132.75944274934858L76.9158,133.27665278857404L77.149696,133.88417821038854L77.16319,131.4942960847508L77.316122,133.57841698960826L77.334114,130.3409772569483L77.437568,132.75243417783219L77.464556,134.3353307247162L77.473552,132.01298312707382L77.68046,130.99807579408994L78.049296,134.38083009286362L78.134758,134.57710845903918L78.17524,133.31260678443044L78.481104,133.73953500931913L78.4901,133.8307903029702L78.75998,132.93488242409447L79.475162,136.31760795008054L79.71355600000001,131.58546985550362L79.803516,133.94693885337225L79.942954,135.49603696573865L79.983436,133.59767317771912L80.059902,136.20937910946932L80.13636799999999,133.09954668987882L80.505204,135.62038096514615L80.60865799999999,134.61624904112384L80.67163,136.26472596417776L81.00448200000001,136.51901986111295L81.517254,137.06017605283046L81.949062,138.293684639714L81.971552,139.63402658700943L82.13347999999999,137.30239257216454L82.272918,136.646281900731L82.709224,136.13510935143992L82.826172,136.1465801027688L82.844164,138.68697028268468L82.91613199999999,136.62121360952204L83.105048,136.84296788139778L83.39292,136.99216917157173L83.406414,138.75557659701866L83.478382,136.74958819692785L83.91019,138.27812095934695L84.148584,136.8667581812902L85.106658,137.84677850929174L85.232602,137.5644383376295L85.70939,139.13752336393702L86.033246,139.30699028752068L86.312122,139.65077234940094L86.662966,139.87408035180786L86.739432,139.6603440967473L86.86087799999999,140.48785186626696L86.95533599999999,139.50432125817645L87.009312,140.02066331830892L87.07678200000001,140.45482789928263L87.333168,139.41663858565417L87.66152199999999,141.06797840107572L88.156302,141.7019172419201L88.394696,141.585178849372L88.412688,142.71475653079423L88.853492,143.28214870935136L89.04240800000001,141.58502539450473L89.271806,141.95602051913738L89.37526,142.9995004290884L89.640642,143.85633486238393L89.654136,141.79045470600778L90.07694799999999,142.6082588529045L90.22988000000001,143.0823300914331L90.38730999999999,142.00321748175406L90.562732,144.3138042024591L90.97654800000001,141.98583272370425L91.075504,144.32959926399317L91.44434,143.5963775217533L92.078558,143.95596783269536L92.375426,142.9609604789452L92.406912,144.88421512598342L92.44739399999999,145.37146070464092L92.52386000000001,144.5710365203294L92.604824,145.30205954204905L92.870206,146.2078364870765L93.095106,145.03831618211487L93.306512,145.92763149602848L93.58988599999999,145.0638412413272L93.92723600000001,145.78431543978778L93.954224,144.72348194230688L94.089164,145.65013953907925L94.12964600000001,147.7853561192751L94.174626,145.83873676982793L94.588442,145.3250561925498L94.62892400000001,145.20186550237915L94.646916,145.16506990248507L94.723382,146.1154614524408L95.011254,146.36669224636123L95.096716,144.7384270077402L95.703946,145.90243852273986L95.98732000000001,145.521721792492L96.194228,145.7277709177949L96.39214000000001,145.44663320888174L96.778968,145.91696518388662L97.039852,147.5072563371875L97.710054,146.0829002477906L97.71905000000001,146.06421471996742L97.86298599999999,146.7296154052019L98.00242399999999,146.1362234164368L98.267806,148.12209484252062L98.91102,147.9613340849226L99.01897199999999,147.26546301760456L99.059454,147.21931865946814L99.306844,146.8861621482806L99.986042,146.89381810751829L100.049014,147.93232512067664L100.50781,147.95449095693502L100.602268,148.54651144282386L101.20050200000001,148.64793312143195L101.524358,148.1870230355046L101.623314,148.22572123597968L101.69978,147.40065795454112L101.906688,148.1355293366042L102.05962,148.677571490407L102.35199,149.2583478106694L102.71183,147.9286302152005L103.053678,148.72039379044014L103.215606,148.42224297198382L103.714884,148.99639555676418L103.719382,148.6089579828761L103.87231399999999,149.3023785677823L103.93528599999999,148.67968149483204L104.124202,149.23321358182213L104.875368,149.27544484084302L105.014806,150.01988677138633L105.167738,150.10636698115957L105.653522,151.04542385109445L105.801956,149.6922042830424L105.88292,149.40530242567712L105.891916,149.55733663656494L105.999868,148.48722031847998L106.004366,150.4853417588906L106.01786,149.65012767775494L106.10332199999999,150.0907265733589L106.260752,148.89601329510862L106.40019,148.92240753228015L106.57561199999999,150.14078283174473L106.620592,150.3398461639881L107.020914,149.9374851042574L107.08388599999999,150.46210173856127L107.214328,150.4937566004016L107.25031200000001,149.98429723083973L107.380754,149.30541889234024L107.826056,149.05623935840347L108.865094,151.25960488549688L108.99103799999999,150.1522032306953L109.03152,150.47979700294408L109.157464,150.66044694998047L109.31489400000001,150.78726660798895L109.36887,150.5817401883277L109.65674200000001,151.41314966773444L110.26397200000001,150.63428049737757L110.506864,151.34381324391472L111.105098,151.18545980954713L111.10959600000001,151.26071683385155L111.739316,151.86190325089476L112.283574,151.5909301286394L112.31506,152.04749312590468L112.87731,151.77684489637613L113.38558400000001,151.13044683906165L113.471046,150.5035561323166L113.59699,152.300068448213L113.695946,153.05264588445425L113.79040400000001,151.52086659249935L114.096268,152.0364491709254L114.33466200000001,152.10689634423363L114.595546,151.46440299397165L114.79345799999999,152.9283030839129L115.75603000000001,153.02645725282756L115.836994,152.5371873886748L115.93594999999999,152.44816678152844L115.962938,153.50705631754616L116.45322,152.17229269444942L116.516192,153.02907138046893L116.56567,152.81207420947877L116.81306000000001,152.28818109089679L116.862538,151.77315418693152L116.889526,152.41362804716283L117.15490799999999,151.65944053368136L117.276354,152.7134926447814L117.37980800000001,152.41200118579647L117.694668,152.38168126141483L117.793624,153.12429072504693L117.942058,153.8182202286341L118.05001,152.99054941331798L118.22993,152.82025407322428L118.310894,152.16877881776202L118.337882,152.5814705071124L118.35137599999999,152.4258564818989L118.693224,152.18780122697353L118.697722,152.8720624744892L118.90912800000001,152.69781567156315L119.04856600000001,152.82867071303454L119.170012,152.3997511714697L119.183506,153.5738661309535L119.205996,152.8627688640898L119.525354,153.1263473799283L119.574832,153.7559109587561L119.79523400000001,152.93857556852427L120.05162,152.39921407943422L120.25402999999999,152.69438511607322L120.43844800000001,153.64059681919488L120.496922,153.11681099913338L120.50142000000001,152.15680454264987L120.600376,153.12262729826298L120.67234400000001,153.06073583323848L121.171622,153.16873389211568L121.26608,153.55894264511087L121.576442,152.43489413437518L121.58993600000001,152.9727834158323L121.594434,153.37526616047728L121.810338,153.31734593957663L121.91829,153.2929633998058L122.512026,153.84274063801223L122.87186600000001,153.20169911465862L122.93034,153.31334891983053L123.21821200000001,153.19882783022794L123.510582,153.83684341541746L123.614036,153.9205596392805L123.991868,153.8676902414723L124.005362,153.2583065771244L124.02785200000001,153.67532077838075L124.329218,153.7857831066305L124.41018199999999,153.41649576682937L124.747532,153.39312447065657L124.92295399999999,152.83960017629644L125.633638,153.94210446287286L125.82255400000001,153.44760754230347L125.827052,154.26532117480582L126.119422,153.97873461923817L126.14641,154.26255479116332L126.263358,153.34350879558107L126.357816,153.75859581950036L126.384804,153.71304130351L127.095488,154.44066494025967L128.17051,154.17274233292449L128.228984,154.1431129554456L128.38191600000002,153.96163099530068L128.489868,153.61457363109696L128.55284,154.21261182562873L128.678784,154.44145799021828L129.191556,153.43399741432884L129.348986,154.1096520017494L129.515412,154.33050232854757L129.92473,154.55201023342934L130.50947,153.8766853342002L130.84682,154.37833289192483L131.25164,153.8587844642726L131.265134,153.50338958542454L131.92633999999998,154.21390959823674L131.944332,154.35796775262463L132.137746,154.5389851521362L132.18722400000001,154.63976783508605L132.232204,154.65909295800057L132.385136,153.83050201291388L132.430116,154.75605065849695L132.547064,153.8500339402394L132.749474,154.6556372263215L132.852928,154.2952442744916L133.082326,154.4725212116133L133.190278,154.25856136801568L133.27574,154.6136751127514L133.487146,154.17916645719248L133.99542,154.20038878579032L134.215822,154.88056249916553L134.58016,154.3590437349948L134.629638,154.73117058927363L134.719598,154.3899079446088L135.04795199999998,154.47861624712294L135.304338,154.5204794542356L135.78562399999998,154.51412426477128L136.419842,154.3052008578723L136.595264,154.82105258174917L136.725706,155.04562358964574L137.117032,155.4146459800276L137.332936,154.72970677370375L137.34193199999999,155.51765855401754L137.512856,154.74184769121084L137.61631,154.81062184680593L137.935668,154.44070450284264L138.569886,155.1833535290577L138.857758,154.57731050523844L139.298562,154.94339807128364L139.33454600000002,154.8709398000078L140.01824200000001,154.8723592575301L140.117198,154.77220897647467L140.265632,154.41747167571026L140.598484,154.77211786264724L140.77390599999998,155.05072716284883L141.16073400000002,154.89722134376115L141.48908799999998,155.66851667721164L141.601538,154.88775449720296L141.660012,154.0541954507882L141.70049400000002,154.81336365369233L142.055836,155.27116627855736L142.32121800000002,155.05958738313478L142.83399,155.34565962512386L142.90146,155.16352668065917L143.25680200000002,155.40864565494385L143.64812799999999,155.01322423192588L144.04845,154.9967661974105L144.214876,155.07791325111282L144.372306,154.85747173767197L144.70515799999998,155.66414081576195L145.26290999999998,155.17071628096429L145.35736799999998,154.58034063943407L145.39785,156.1715141582218L145.469818,155.40415410291064L145.753192,155.59427269480446L145.75769000000003,154.34787569736892L145.82066200000003,155.12482188642025L146.373916,155.1015435023741L146.423394,155.30860866673967L146.873194,154.74559594623068L147.17455999999999,155.02583870156246L148.07415999999998,155.36298084326765L148.645406,154.76459018208763L148.649904,154.94709537449208L148.780346,155.84909469227898L148.78934199999998,154.93831907483664L149.234644,155.0828010284088L149.909344,154.8942055959593L150.197216,154.75355401973832L150.224204,155.29963994906706L150.251192,155.79425735568458L150.269184,154.99746633524245L150.273682,155.35292775116184L150.790952,155.34238672053272L151.038342,154.97403689406136L151.578102,154.5456292683428L151.82999,155.06558051502162L152.270794,155.39087306369436L152.31577399999998,155.89601141993296L152.34725999999998,155.78040505674753L152.428224,155.49283842810175L152.68461000000002,155.56761830367824L152.882522,155.74348477477378L153.26935,155.23517691614953L153.67866800000002,156.21103268286043L153.68766399999998,155.16997538168323L153.8316,155.94175385819238L153.912564,155.4081031680107L155.185498,155.67082569341767L155.302446,155.49279946495187L155.50035799999998,155.55262468416583L155.74774799999997,155.64075093716383L156.026624,155.69797581569713L156.08509800000002,156.06190092692322L156.49891399999998,155.5251604589549L156.629356,155.44188841500065L156.80477800000003,155.47858870503578L158.06421799999998,155.7249227301641L158.41956000000002,156.06482526118106L158.536508,155.33898613669655L158.635464,155.95106994733214L158.720926,155.2184755118056L158.83337600000002,155.2904668247158L158.90534399999999,155.976595306261L158.95932000000002,155.94570771875706L159.15273399999998,155.94543677500704L159.45859800000002,155.46988733451474L159.73747400000002,155.915742658756L160.67305800000003,156.05444487861612L160.704544,155.70582239465278L160.745026,155.8983704888008L160.969926,156.1434687826444L160.98342000000002,155.37556294351816L161.077878,155.78474555164576L161.21731599999998,155.64211704514244L161.302778,156.06945438310504L161.91450600000002,155.3636468134143L162.278844,155.5012964287942L162.283342,155.9612737968564L162.436274,155.8421880243854L163.05249999999998,155.6667315655134L163.07499,155.94377994198692L163.191938,156.05944984507832L163.398846,155.77647097747433L163.466316,155.56537402624434L163.385352,155.4679853333668L163.57876599999997,155.56406666270712L163.695714,156.06051923368466L163.880132,155.96563916822726L164.07354600000002,156.0320119949227L164.667282,156.23983604156157L164.698768,156.0879693722183L164.71676,155.69384572180834L165.175556,155.1361265947873L165.355476,155.88622657412833L165.778288,156.20898412032562L165.84126,156.1952085488222L165.922224,155.44792770323428L166.11113999999998,155.80595289441672L167.334596,155.8558568968014L167.57299,156.17055386643517L168.108252,155.87420074777168L168.926888,155.96118597991088L169.093314,155.51544484767047L169.51612599999999,155.5582479658452L170.23130799999998,156.4507022110576L170.34825600000002,155.92009544203228L170.528176,156.13601902838457L170.735084,155.97217358818108L171.027454,155.92824533412403L171.05894,156.10893484374338L171.09492400000002,155.58159048923036L171.31082800000001,155.7179339399392L171.35130999999998,155.9932316721163L171.616692,155.9768824347041L171.675166,156.12021347677165L172.327376,156.12076765264976L172.381352,155.820809843188L172.529786,156.47905929183418L172.718702,155.81334570253438L173.01107199999998,156.66981867768547L173.34392400000002,155.9880801442672L173.55533,156.24097916043618L173.84769999999997,156.3172971812839L173.978142,156.2486543015323L174.03661599999998,156.03165952827442L174.34697799999998,155.99718882956287L174.360472,156.40408669852397L174.553886,156.13584069704467L174.774288,156.1827094700526L175.02617600000002,156.17371197959238L175.619912,156.43552396615797L175.655896,155.72508577596057L175.687382,155.49716094000775L176.105696,155.85107162256134L176.159672,156.0521496493708L176.249632,156.66609410027212L176.762404,156.22989534315738L176.780396,156.61010824990544L176.90184200000002,155.91467267071658L176.91083799999998,156.54041935943744L177.31565799999998,156.06793541969222L177.630518,156.2995743429796L177.751964,155.8347526565194L177.78345,156.06529641557825L177.909394,156.31717160005462L178.52112200000002,155.76298613101244L178.934938,155.89688659222287L178.966424,156.59835516559806L179.371244,155.88465336202222L179.411726,156.55906772240996L179.465702,156.30975391546434L179.551164,156.00841021673244L179.62762999999998,156.05120344426143L179.870522,156.4042206718163L179.924498,155.80271235921165L180.036948,156.33460131558505L180.203374,156.52925611727616L180.46425799999997,155.82545964555305L180.671166,155.89773628860712L180.756628,156.21836285022172L180.788114,156.10746593299237L180.99502199999998,156.39787597243082L181.228918,155.75722438029268L181.242412,156.48617965761912L181.39984199999998,156.6225611723282L181.98458200000002,156.03867888958615L182.218478,156.5069850805131L182.222976,156.44308821213517L182.317434,156.26301282170144L182.564824,156.23539454219016L182.95615,156.36810632761228L182.960648,156.5720577368682L183.131572,156.69111413711852L183.289002,156.47029168395835L183.329484,156.137168741023L183.504906,156.23895037919283L183.725308,155.95080260018057L183.972698,156.38770988719028L184.11663399999998,156.2042363106527L184.543944,156.09911163422194L185.22764,156.32788646627557L185.44804200000002,156.00350625474346L185.60997,156.18069447577L185.888846,156.18501279164445L186.235192,156.2270177646794L186.248686,156.88156481493604L186.590534,156.36768312786114L186.684992,156.39058926396748L186.720976,156.69119715859944L186.77945,156.51542899452826L186.788446,156.44115593961695L186.815434,156.2629678642208L187.256238,156.3518598929725L187.26523400000002,156.32796709002417L187.65656,156.41245178708976L187.67005400000002,156.42670810391957L187.7915,155.9354792924767L188.560658,156.39172009446403L188.592144,156.44544907930222L188.88901199999998,156.5871553580192L188.911502,156.31771019067276L189.37929400000002,156.45742605186322L189.45576,156.31635727022183L189.757126,156.53362418609586L189.84708600000002,156.27586556598544L190.328372,156.44870909608224L190.56226800000002,156.69976995072582L190.629738,157.0459929040887L190.69720800000002,156.38840223239225L190.769176,156.69539708644152L190.82764999999998,156.30584141578186L190.98507999999998,156.82905237952417L191.07054200000002,156.42547716809946L191.10202800000002,156.4742719195783L192.150062,156.78197050805795L192.419942,156.00843988866967L192.554882,156.34195635941896L192.640344,156.60507091405717L193.040666,156.5012239292264L193.216088,156.46382739767432L193.23408,156.58030473711815L193.274562,156.34915854781866L193.30155,156.35413294319403L193.414,156.46226197819817L193.67038599999998,156.59097944132307L194.327094,156.46355195817623L194.84886200000003,156.3377899998291L194.997296,156.55066666785967L195.48757799999998,156.27823302691633L195.514566,156.34862115606666L195.555048,156.16806651888925L196.13529,156.40084556388584L196.288222,156.2144086899405L197.43971000000002,157.093580996787L197.525172,156.21399178423664L197.71858600000002,156.54904160479254L198.028948,156.60727892579L198.99601800000002,156.76820542663336L199.450316,156.29830864004114L199.69770599999998,156.94217828864402L199.765176,156.03071811862966L200.075538,156.05558589947495L200.22847,156.6373602758077L200.561322,156.12285907464948L200.63329,156.4263190718537L200.682768,156.44707384265283L200.8357,156.83693162758243L201.19554,156.85761416669595L201.46991799999998,156.62563026967374L201.474416,156.56665774400938L201.7353,156.2374742752449L201.82526000000001,156.71783896163106L202.018674,156.88527680425483L202.041164,156.6807070797817L202.36502000000002,156.53699150139636L202.999238,156.54973005367953L203.102692,156.233012994582L203.10719,156.60119677809152L203.718918,156.38822839680043L204.150726,156.70592223209414L204.416108,156.34886122901332L204.465586,156.54790957542983L205.74301799999998,156.78341394290328L205.92743600000003,156.91448867659676L206.24229599999998,156.52162293649533L206.36824,156.72247048128736L206.597638,156.13052612339908L207.033944,156.6352226974612L207.173382,156.88330676745284L207.195872,157.02428323640066L207.272338,156.2810197912834L207.501736,156.62228513339704L207.67266,156.82277571579272L208.590252,156.58752850510857L208.914108,156.75821287726814L209.386398,156.7399559440938L209.777724,156.54272238131273L209.83169999999998,156.60663753239947L209.975636,156.66858054866844L210.10158,156.89308172261173L210.492906,156.5571789087897L210.53788600000001,156.42830109731716L210.564874,156.76752027462828L210.582866,156.87480231069705L210.722304,156.74490666186267L210.7313,156.6634248247878L210.794272,156.47691601887345L210.82126,156.68515127660197L211.14961399999999,156.82548245584422L212.26062000000002,156.9287300075997L212.656444,156.62029171870512L212.773392,156.7950009842488L213.178212,156.88105769455433L213.299658,157.02197062359613L213.614518,156.71990011226046L213.920382,156.85627263547343L213.99235,156.5944498591125L214.289218,156.48352926427668L214.505122,156.5448674525727L214.57709,157.02412378720263L214.707532,156.5356694517488L214.819982,156.73317066139796L214.90544400000002,157.05590363083917L215.553156,157.02056315473536L215.58914000000001,156.73155938529155L215.877012,156.78250999782574L215.998458,156.86969693919474L216.605688,156.9781023128466L216.637174,156.91668080335313L216.718138,156.58267459578136L217.181432,156.49986980990928L217.28938399999998,156.7419253814627L217.334364,157.00654631141913L217.397336,157.16879576105964L217.676212,156.41466399485415L218.103522,156.96407497945157L218.40039000000002,157.0748873766173L218.458864,157.14845909483054L218.6028,156.8980776975778L218.683764,157.10077389397404L218.72874399999998,156.86884604394436L218.82320199999998,157.05614580180156L219.31348400000002,156.6304859773002L219.62834400000003,156.49488282643935L220.06914799999998,156.18123756213623L220.595414,156.73186329786074L220.766338,156.96301548149097L220.914772,156.8043479441919L220.991238,156.76847637038338L221.16665999999998,157.07049323245883L222.25517599999998,156.7007817937569L222.327144,156.95509397340092L222.974856,157.07709448920053L223.208752,157.20871141011065L223.40666399999998,156.62654830142856L223.56409399999998,156.77763960408893L223.69903399999998,157.30330344797534L223.80698600000002,156.90888787365773L223.914938,156.73585971817374L223.950922,157.15777368538758L224.00039999999998,156.96203031323174L224.004898,156.94922552359375L224.274778,156.7996199158105L224.39622400000002,157.0673165368763L224.41421599999998,156.92428251389754L224.481686,156.66833328252488L224.598634,157.18797492202032L224.648112,156.5844303352589L224.69759,156.9011743688448L224.846024,156.8053109334274L225.228354,157.08192052488977L225.466748,156.4575669186359L225.48474000000002,156.98271944610912L225.543214,156.91237357699057L225.903054,157.0771673203192L225.921046,157.1508016792888L226.042492,156.82766019620678L226.082974,156.69417664070022L226.4743,156.81407464498824L226.505786,156.80281279608607L226.703698,156.6118211299181L226.942092,156.75920883532274L227.099522,156.87215491452L227.11751400000003,156.89468700438738L227.391892,156.83756402947685L227.82819800000001,156.7221039279618L227.999122,157.2788435813378L228.20603,157.3612896065143L228.210528,156.98815150863746L228.224022,157.21042998473752L228.47591,156.88022658059543L228.853742,156.95873133330184L228.961694,156.8105589700016L229.182096,157.25652009418064L229.24506799999997,157.11976812983102L229.910772,157.3025181906467L230.045712,157.14078335430133L230.311094,157.20240177756006L230.540492,157.01300490308893L231.46707999999998,156.82947737757456L231.507562,156.677998541431L231.597522,157.19540279697287L231.73696,157.03630636530843L231.745956,157.14191927997905L232.353186,157.21291733228347L232.515114,157.12784339250487L232.71302599999999,156.81339728561315L232.978408,156.9913234087554L233.032384,156.8745040927421L233.540658,157.04278174110433L233.70708399999998,156.88677059147847L233.846522,156.97310603816402L234.003952,156.93407695063135L234.678652,156.8595743128522L234.719134,156.909299983897L234.84058,156.67147281325677L234.97552000000002,157.0350340686061L235.128452,156.87526237558234L235.330862,156.7988301627338L235.36684599999998,156.96954540569675L235.49278999999999,156.43153713677418L236.001064,157.28544393892992L236.073032,157.22486253489149L236.17648599999998,157.02072080563414L236.351908,157.31781122698027L236.428374,157.11889775300568L236.815202,156.47032135589558L236.85568400000002,156.7552408880808L237.00861600000002,157.06524969163266L237.52588599999999,156.76652012054217L237.70130799999998,157.11039599369872L237.935204,156.986249207773L239.230628,156.96390384130856L239.325086,157.13722272183406L239.959304,156.77984551780602L240.152718,156.79693145846778L240.391112,156.69123911891472L240.422598,157.31562659313732L240.51255799999998,156.85856936330146L240.62950600000002,157.23326568745753L241.03432600000002,157.2030962207778L241.268222,157.34208347106522L241.53810199999998,157.00344394553792L241.56958799999998,157.05165664750066L241.70003,156.78079801696268L241.938424,157.2893102822656L241.956416,156.9543566707183L242.01488999999998,156.9933168234473L242.07786199999998,157.2004206512462L242.18581400000002,157.35736691646954L242.23979,157.15145476162434L242.383726,157.0202970064499L242.415212,157.3781729387966L242.478184,157.22919733517548L242.986458,157.08476453511554L243.035936,157.3806527934291L243.062924,157.20782754604113L243.247342,156.952288326892L243.265334,157.27036639878696L243.328306,156.87319732863796L243.43176,156.95446217093956L243.90854800000002,157.4956522306258L244.101962,157.1760294196958L244.299874,157.15205809101462L244.38083799999998,156.76111323420298L244.452806,156.91248057579452L244.587746,156.73252986744046L244.898108,157.16845228590748L245.460358,157.4456103586338L245.653772,156.86290146613663L245.662768,157.334248281338L245.829194,156.94853557612407L245.833692,157.13043474168938L245.878672,157.0176124454222L245.91465599999998,156.8591762892902L246.027106,157.2250258804045L246.40044,157.12859208441594L246.42293,157.10618587549436L246.4904,156.8727972070602L247.363012,157.61219191110948L247.983736,156.99436882849443L248.937312,157.0692314258353L249.288156,157.55021143027327L249.531048,156.830452055755L249.643498,157.33543186194518L250.210246,156.58531270074573L250.57458400000002,157.09964965724132L250.794986,157.32401955534112L250.848962,157.648573003032L250.93442399999998,157.06486605446446L251.199806,157.4965603717349L251.721574,157.1502013470639L252.076916,157.04545041715556L252.26583200000002,157.0544679886238L252.589688,157.0032925886864L252.814588,156.93473422899842L252.98101400000002,156.98034748943013L253.008002,157.2532343017784" style="fill: none;" fill="none"></path></g></g></g></g></g></g><g transform="translate(48, 177)" clip-path="url(#clip_1)"><clipPath id="clip_1"><rect width="281" height="23"></rect></clipPath><g><g><line x1="0" y1="0" x2="0" y2="5" style="visibility: inherit;" fill="rgb(0, 0, 0)" stroke="rgb(204, 204, 204)" stroke-width="1px"></line><line x1="28.1125" y1="0" x2="28.1125" y2="5" style="visibility: inherit;" fill="rgb(0, 0, 0)" stroke="rgb(204, 204, 204)" stroke-width="1px"></line><line x1="56.225" y1="0" x2="56.225" y2="5" style="visibility: inherit;" fill="rgb(0, 0, 0)" stroke="rgb(204, 204, 204)" stroke-width="1px"></line><line x1="84.33749999999999" y1="0" x2="84.33749999999999" y2="5" style="visibility: inherit;" fill="rgb(0, 0, 0)" stroke="rgb(204, 204, 204)" stroke-width="1px"></line><line x1="112.45" y1="0" x2="112.45" y2="5" style="visibility: inherit;" fill="rgb(0, 0, 0)" stroke="rgb(204, 204, 204)" stroke-width="1px"></line><line x1="140.5625" y1="0" x2="140.5625" y2="5" style="visibility: inherit;" fill="rgb(0, 0, 0)" stroke="rgb(204, 204, 204)" stroke-width="1px"></line><line x1="168.67499999999998" y1="0" x2="168.67499999999998" y2="5" style="visibility: inherit;" fill="rgb(0, 0, 0)" stroke="rgb(204, 204, 204)" stroke-width="1px"></line><line x1="196.7875" y1="0" x2="196.7875" y2="5" style="visibility: inherit;" fill="rgb(0, 0, 0)" stroke="rgb(204, 204, 204)" stroke-width="1px"></line><line x1="224.9" y1="0" x2="224.9" y2="5" style="visibility: inherit;" fill="rgb(0, 0, 0)" stroke="rgb(204, 204, 204)" stroke-width="1px"></line><line x1="253.01250000000002" y1="0" x2="253.01250000000002" y2="5" style="visibility: inherit;" fill="rgb(0, 0, 0)" stroke="rgb(204, 204, 204)" stroke-width="1px"></line><line x1="281.125" y1="0" x2="281.125" y2="5" style="visibility: inherit;" fill="rgb(0, 0, 0)" stroke="rgb(204, 204, 204)" stroke-width="1px"></line></g><g transform="translate(0, 8)"><text x="0" y="0" dx="0em" dy="0.95em" style="text-anchor: middle; visibility: hidden; font-family: &quot;Helvetica Neue&quot;, sans-serif; font-size: 12px; font-weight: 200;" fill="rgb(50, 49, 63)" stroke="none" stroke-width="1px">-50k</text><text x="28.1125" y="0" dx="0em" dy="0.95em" style="text-anchor: middle; visibility: inherit; font-family: &quot;Helvetica Neue&quot;, sans-serif; font-size: 12px; font-weight: 200;" fill="rgb(50, 49, 63)" stroke="none" stroke-width="1px">0</text><text x="56.225" y="0" dx="0em" dy="0.95em" style="text-anchor: middle; visibility: hidden; font-family: &quot;Helvetica Neue&quot;, sans-serif; font-size: 12px; font-weight: 200;" fill="rgb(50, 49, 63)" stroke="none" stroke-width="1px">50k</text><text x="84.33749999999999" y="0" dx="0em" dy="0.95em" style="text-anchor: middle; visibility: inherit; font-family: &quot;Helvetica Neue&quot;, sans-serif; font-size: 12px; font-weight: 200;" fill="rgb(50, 49, 63)" stroke="none" stroke-width="1px">100k</text><text x="112.45" y="0" dx="0em" dy="0.95em" style="text-anchor: middle; visibility: hidden; font-family: &quot;Helvetica Neue&quot;, sans-serif; font-size: 12px; font-weight: 200;" fill="rgb(50, 49, 63)" stroke="none" stroke-width="1px">150k</text><text x="140.5625" y="0" dx="0em" dy="0.95em" style="text-anchor: middle; visibility: inherit; font-family: &quot;Helvetica Neue&quot;, sans-serif; font-size: 12px; font-weight: 200;" fill="rgb(50, 49, 63)" stroke="none" stroke-width="1px">200k</text><text x="168.67499999999998" y="0" dx="0em" dy="0.95em" style="text-anchor: middle; visibility: hidden; font-family: &quot;Helvetica Neue&quot;, sans-serif; font-size: 12px; font-weight: 200;" fill="rgb(50, 49, 63)" stroke="none" stroke-width="1px">250k</text><text x="196.7875" y="0" dx="0em" dy="0.95em" style="text-anchor: middle; visibility: inherit; font-family: &quot;Helvetica Neue&quot;, sans-serif; font-size: 12px; font-weight: 200;" fill="rgb(50, 49, 63)" stroke="none" stroke-width="1px">300k</text><text x="224.9" y="0" dx="0em" dy="0.95em" style="text-anchor: middle; visibility: hidden; font-family: &quot;Helvetica Neue&quot;, sans-serif; font-size: 12px; font-weight: 200;" fill="rgb(50, 49, 63)" stroke="none" stroke-width="1px">350k</text><text x="253.01250000000002" y="0" dx="0em" dy="0.95em" style="text-anchor: middle; visibility: inherit; font-family: &quot;Helvetica Neue&quot;, sans-serif; font-size: 12px; font-weight: 200;" fill="rgb(50, 49, 63)" stroke="none" stroke-width="1px">400k</text><text x="281.125" y="0" dx="0em" dy="0.95em" style="text-anchor: middle; visibility: hidden; font-family: &quot;Helvetica Neue&quot;, sans-serif; font-size: 12px; font-weight: 200;" fill="rgb(50, 49, 63)" stroke="none" stroke-width="1px">450k</text></g><line x1="0" y1="0" x2="281.125" y2="0" fill="rgb(0, 0, 0)" stroke="rgb(204, 204, 204)" stroke-width="1px"></line></g></g></g></g></svg>