<svg viewBox="0 0 330 200" xmlns="http://www.w3.org/2000/svg"><g><g><g><g><g><line x1="48.875" y1="177" x2="43.875" y2="177" style="visibility: inherit;" fill="rgb(0, 0, 0)" stroke="rgb(204, 204, 204)" stroke-width="1px"></line><line x1="48.875" y1="163.38461538461542" x2="43.875" y2="163.38461538461542" style="visibility: inherit;" fill="rgb(0, 0, 0)" stroke="rgb(204, 204, 204)" stroke-width="1px"></line><line x1="48.875" y1="149.76923076923077" x2="43.875" y2="149.76923076923077" style="visibility: inherit;" fill="rgb(0, 0, 0)" stroke="rgb(204, 204, 204)" stroke-width="1px"></line><line x1="48.875" y1="136.15384615384616" x2="43.875" y2="136.15384615384616" style="visibility: inherit;" fill="rgb(0, 0, 0)" stroke="rgb(204, 204, 204)" stroke-width="1px"></line><line x1="48.875" y1="122.53846153846156" x2="43.875" y2="122.53846153846156" style="visibility: inherit;" fill="rgb(0, 0, 0)" stroke="rgb(204, 204, 204)" stroke-width="1px"></line><line x1="48.875" y1="108.92307692307693" x2="43.875" y2="108.92307692307693" style="visibility: inherit;" fill="rgb(0, 0, 0)" stroke="rgb(204, 204, 204)" stroke-width="1px"></line><line x1="48.875" y1="95.3076923076923" x2="43.875" y2="95.3076923076923" style="visibility: inherit;" fill="rgb(0, 0, 0)" stroke="rgb(204, 204, 204)" stroke-width="1px"></line><line x1="48.875" y1="81.69230769230768" x2="43.875" y2="81.69230769230768" style="visibility: inherit;" fill="rgb(0, 0, 0)" stroke="rgb(204, 204, 204)" stroke-width="1px"></line><line x1="48.875" y1="68.07692307692305" x2="43.875" y2="68.07692307692305" style="visibility: inherit;" fill="rgb(0, 0, 0)" stroke="rgb(204, 204, 204)" stroke-width="1px"></line><line x1="48.875" y1="54.46153846153851" x2="43.875" y2="54.46153846153851" style="visibility: inherit;" fill="rgb(0, 0, 0)" stroke="rgb(204, 204, 204)" stroke-width="1px"></line><line x1="48.875" y1="40.84615384615387" x2="43.875" y2="40.84615384615387" style="visibility: inherit;" fill="rgb(0, 0, 0)" stroke="rgb(204, 204, 204)" stroke-width="1px"></line><line x1="48.875" y1="27.230769230769255" x2="43.875" y2="27.230769230769255" style="visibility: inherit;" fill="rgb(0, 0, 0)" stroke="rgb(204, 204, 204)" stroke-width="1px"></line><line x1="48.875" y1="13.615384615384613" x2="43.875" y2="13.615384615384613" style="visibility: inherit;" fill="rgb(0, 0, 0)" stroke="rgb(204, 204, 204)" stroke-width="1px"></line><line x1="48.875" y1="0" x2="43.875" y2="0" style="visibility: inherit;" fill="rgb(0, 0, 0)" stroke="rgb(204, 204, 204)" stroke-width="1px"></line></g><g transform="translate(38.875, 0)"><text x="0" y="177" dx="0em" dy="0.3em" style="text-anchor: end; visibility: hidden; font-family: &quot;Helvetica Neue&quot;, sans-serif; font-size: 12px; font-weight: 200;" fill="rgb(50, 49, 63)" stroke="none" stroke-width="1px">0.4</text><text x="0" y="163.38461538461542" dx="0em" dy="0.3em" style="text-anchor: end; visibility: inherit; font-family: &quot;Helvetica Neue&quot;, sans-serif; font-size: 12px; font-weight: 200;" fill="rgb(50, 49, 63)" stroke="none" stroke-width="1px">0.42</text><text x="0" y="149.76923076923077" dx="0em" dy="0.3em" style="text-anchor: end; visibility: hidden; font-family: &quot;Helvetica Neue&quot;, sans-serif; font-size: 12px; font-weight: 200;" fill="rgb(50, 49, 63)" stroke="none" stroke-width="1px">0.44</text><text x="0" y="136.15384615384616" dx="0em" dy="0.3em" style="text-anchor: end; visibility: inherit; font-family: &quot;Helvetica Neue&quot;, sans-serif; font-size: 12px; font-weight: 200;" fill="rgb(50, 49, 63)" stroke="none" stroke-width="1px">0.46</text><text x="0" y="122.53846153846156" dx="0em" dy="0.3em" style="text-anchor: end; visibility: hidden; font-family: &quot;Helvetica Neue&quot;, sans-serif; font-size: 12px; font-weight: 200;" fill="rgb(50, 49, 63)" stroke="none" stroke-width="1px">0.48</text><text x="0" y="108.92307692307693" dx="0em" dy="0.3em" style="text-anchor: end; visibility: inherit; font-family: &quot;Helvetica Neue&quot;, sans-serif; font-size: 12px; font-weight: 200;" fill="rgb(50, 49, 63)" stroke="none" stroke-width="1px">0.5</text><text x="0" y="95.3076923076923" dx="0em" dy="0.3em" style="text-anchor: end; visibility: hidden; font-family: &quot;Helvetica Neue&quot;, sans-serif; font-size: 12px; font-weight: 200;" fill="rgb(50, 49, 63)" stroke="none" stroke-width="1px">0.52</text><text x="0" y="81.69230769230768" dx="0em" dy="0.3em" style="text-anchor: end; visibility: inherit; font-family: &quot;Helvetica Neue&quot;, sans-serif; font-size: 12px; font-weight: 200;" fill="rgb(50, 49, 63)" stroke="none" stroke-width="1px">0.54</text><text x="0" y="68.07692307692305" dx="0em" dy="0.3em" style="text-anchor: end; visibility: hidden; font-family: &quot;Helvetica Neue&quot;, sans-serif; font-size: 12px; font-weight: 200;" fill="rgb(50, 49, 63)" stroke="none" stroke-width="1px">0.56</text><text x="0" y="54.46153846153851" dx="0em" dy="0.3em" style="text-anchor: end; visibility: inherit; font-family: &quot;Helvetica Neue&quot;, sans-serif; font-size: 12px; font-weight: 200;" fill="rgb(50, 49, 63)" stroke="none" stroke-width="1px">0.58</text><text x="0" y="40.84615384615387" dx="0em" dy="0.3em" style="text-anchor: end; visibility: hidden; font-family: &quot;Helvetica Neue&quot;, sans-serif; font-size: 12px; font-weight: 200;" fill="rgb(50, 49, 63)" stroke="none" stroke-width="1px">0.6</text><text x="0" y="27.230769230769255" dx="0em" dy="0.3em" style="text-anchor: end; visibility: inherit; font-family: &quot;Helvetica Neue&quot;, sans-serif; font-size: 12px; font-weight: 200;" fill="rgb(50, 49, 63)" stroke="none" stroke-width="1px">0.62</text><text x="0" y="13.615384615384613" dx="0em" dy="0.3em" style="text-anchor: end; visibility: hidden; font-family: &quot;Helvetica Neue&quot;, sans-serif; font-size: 12px; font-weight: 200;" fill="rgb(50, 49, 63)" stroke="none" stroke-width="1px">0.64</text><text x="0" y="0" dx="0em" dy="0.3em" style="text-anchor: end; visibility: hidden; font-family: &quot;Helvetica Neue&quot;, sans-serif; font-size: 12px; font-weight: 200;" fill="rgb(50, 49, 63)" stroke="none" stroke-width="1px">0.66</text></g><line x1="48.875" y1="0" x2="48.875" y2="177" fill="rgb(0, 0, 0)" stroke="rgb(204, 204, 204)" stroke-width="1px"></line></g></g><g transform="translate(48, 0)" clip-path="url(#clip_0)"><clipPath id="clip_0"><rect width="281" height="177"></rect></clipPath><g><g><g><line x1="0" y1="0" x2="0" y2="177" fill="rgb(0, 0, 0)" stroke="rgb(60, 60, 60)" stroke-width="1px" opacity="0.25"></line><line x1="28.1125" y1="0" x2="28.1125" y2="177" fill="rgb(0, 0, 0)" stroke="rgb(60, 60, 60)" stroke-width="1px" opacity="0.25"></line><line x1="56.225" y1="0" x2="56.225" y2="177" fill="rgb(0, 0, 0)" stroke="rgb(60, 60, 60)" stroke-width="1px" opacity="0.25"></line><line x1="84.33749999999999" y1="0" x2="84.33749999999999" y2="177" fill="rgb(0, 0, 0)" stroke="rgb(60, 60, 60)" stroke-width="1px" opacity="0.25"></line><line x1="112.45" y1="0" x2="112.45" y2="177" fill="rgb(0, 0, 0)" stroke="rgb(60, 60, 60)" stroke-width="1px" opacity="0.25"></line><line x1="140.5625" y1="0" x2="140.5625" y2="177" fill="rgb(0, 0, 0)" stroke="rgb(60, 60, 60)" stroke-width="1px" opacity="0.25"></line><line x1="168.67499999999998" y1="0" x2="168.67499999999998" y2="177" fill="rgb(0, 0, 0)" stroke="rgb(60, 60, 60)" stroke-width="1px" opacity="0.25"></line><line x1="196.7875" y1="0" x2="196.7875" y2="177" fill="rgb(0, 0, 0)" stroke="rgb(60, 60, 60)" stroke-width="1px" opacity="0.25"></line><line x1="224.9" y1="0" x2="224.9" y2="177" fill="rgb(0, 0, 0)" stroke="rgb(60, 60, 60)" stroke-width="1px" opacity="0.25"></line><line x1="253.01250000000002" y1="0" x2="253.01250000000002" y2="177" fill="rgb(0, 0, 0)" stroke="rgb(60, 60, 60)" stroke-width="1px" opacity="0.25"></line><line x1="281.125" y1="0" x2="281.125" y2="177" fill="rgb(0, 0, 0)" stroke="rgb(60, 60, 60)" stroke-width="1px" opacity="0.25"></line></g><g><line x1="0" y1="177" x2="281.125" y2="177" fill="rgb(0, 0, 0)" stroke="rgb(60, 60, 60)" stroke-width="1px" opacity="0.25"></line><line x1="0" y1="163.38461538461542" x2="281.125" y2="163.38461538461542" fill="rgb(0, 0, 0)" stroke="rgb(60, 60, 60)" stroke-width="1px" opacity="0.25"></line><line x1="0" y1="149.76923076923077" x2="281.125" y2="149.76923076923077" fill="rgb(0, 0, 0)" stroke="rgb(60, 60, 60)" stroke-width="1px" opacity="0.25"></line><line x1="0" y1="136.15384615384616" x2="281.125" y2="136.15384615384616" fill="rgb(0, 0, 0)" stroke="rgb(60, 60, 60)" stroke-width="1px" opacity="0.25"></line><line x1="0" y1="122.53846153846156" x2="281.125" y2="122.53846153846156" fill="rgb(0, 0, 0)" stroke="rgb(60, 60, 60)" stroke-width="1px" opacity="0.25"></line><line x1="0" y1="108.92307692307693" x2="281.125" y2="108.92307692307693" fill="rgb(0, 0, 0)" stroke="rgb(60, 60, 60)" stroke-width="1px" opacity="0.25"></line><line x1="0" y1="95.3076923076923" x2="281.125" y2="95.3076923076923" fill="rgb(0, 0, 0)" stroke="rgb(60, 60, 60)" stroke-width="1px" opacity="0.25"></line><line x1="0" y1="81.69230769230768" x2="281.125" y2="81.69230769230768" fill="rgb(0, 0, 0)" stroke="rgb(60, 60, 60)" stroke-width="1px" opacity="0.25"></line><line x1="0" y1="68.07692307692305" x2="281.125" y2="68.07692307692305" fill="rgb(0, 0, 0)" stroke="rgb(60, 60, 60)" stroke-width="1px" opacity="0.25"></line><line x1="0" y1="54.46153846153851" x2="281.125" y2="54.46153846153851" fill="rgb(0, 0, 0)" stroke="rgb(60, 60, 60)" stroke-width="1px" opacity="0.25"></line><line x1="0" y1="40.84615384615387" x2="281.125" y2="40.84615384615387" fill="rgb(0, 0, 0)" stroke="rgb(60, 60, 60)" stroke-width="1px" opacity="0.25"></line><line x1="0" y1="27.230769230769255" x2="281.125" y2="27.230769230769255" fill="rgb(0, 0, 0)" stroke="rgb(60, 60, 60)" stroke-width="1px" opacity="0.25"></line><line x1="0" y1="13.615384615384613" x2="281.125" y2="13.615384615384613" fill="rgb(0, 0, 0)" stroke="rgb(60, 60, 60)" stroke-width="1px" opacity="0.25"></line><line x1="0" y1="0" x2="281.125" y2="0" fill="rgb(0, 0, 0)" stroke="rgb(60, 60, 60)" stroke-width="1px" opacity="0.25"></line></g></g></g><g><g><line x1="0" y1="449.3076923076923" x2="281.125" y2="449.3076923076923" fill="rgb(0, 0, 0)" stroke="rgb(153, 153, 153)" stroke-width="1.5px"></line></g></g><g><g><line x1="28.1125" y1="0" x2="28.1125" y2="177" fill="rgb(0, 0, 0)" stroke="rgb(153, 153, 153)" stroke-width="1.5px"></line></g></g><g><g><g><g><g><path stroke="rgb(255, 112, 67)" stroke-width="2px" d="M28.301416,149.36898078368262L28.31491,68.48766729121027L28.431858000000002,-9.551062193358518L28.535311999999998,57.63777249770001L28.863666,134.1869088752229L29.142542000000002,6.266595709220923L29.165032,-16.966903883308134L29.259490000000003,20.752222787824763L29.340454,19.894520573700788L29.497884,32.09153027743142L29.50688,35.06091730669206L29.542864,0.14908721905490552L30.244552,7.396328432298958L30.523428000000003,87.04919006746478L30.716842,78.58548805939691L30.748328,98.78797366269352L30.964232000000003,39.21180767419463L31.022706000000003,67.24884328162125L31.130658,33.63894616865147L31.324071999999997,6.403110722985787L31.360056,17.5057286586823L31.64343,48.772326384119026L31.719896000000002,65.16909017169795L31.746884,39.51082854932952L31.872828000000002,-19.444647734599414L32.480058,24.53856925077585L32.673472,22.590705914972204L32.907368,53.60731852938625L33.078292000000005,31.743933192475367L33.420139999999996,109.72194363693356L33.784478,76.35298744556582L34.031867999999996,52.915243203808416L34.045362000000004,42.927292515565284L34.108334,82.01479258683973L34.126326,25.10351141751329L34.34223,14.060967418584454L34.373716,42.295424953810596L34.571628000000004,87.94356990507598L34.706568,87.07024589512169L34.962954,67.61995000409485L35.093396,51.66311995435812L35.165364000000004,59.69960579673727L35.237332,89.74018904113848L35.718618,86.03921926281764L35.912031999999996,74.67787099472787L35.925526,88.97588443281215L36.406812,111.21395221838601L36.505768,129.87247834493286L36.555246000000004,167.73779837611863L36.735166,123.96227848137087L36.811632,71.18510179075032L36.870106,55.84037792888249L37.270428,18.129526295362496L37.540307999999996,54.34126778639785L37.949626,47.51170756200523L38.003602,65.66859386845245L38.147538000000004,51.942561019513604L38.174526,52.1793881552815L38.286976,59.81618769290964L38.489386,39.37596840087991L38.858222000000005,55.17436006230503L39.069627999999994,6.878049201832027L39.146094000000005,13.664285842815616L39.155089999999994,32.35746579881439L39.177580000000006,45.565039410823715L39.29003,49.615826454082026L39.294528,26.01747886227389L39.348504000000005,65.5690874092986L39.370994,98.1565445342052L39.501436,81.35923407728414L39.568906,119.22182011297772L40.18963,98.35164693868548L40.43702,111.09206605250704L41.458065999999995,73.91236547866053L41.777423999999996,99.53490249886039L41.790918000000005,165.21861548949252L42.051801999999995,152.43889014009173L42.330678,105.85787451500437L42.641040000000004,109.79797301615739L42.704012000000006,94.27338213967862L42.713007999999995,63.46148053050891L42.717506,95.12373989092895L42.97839,115.84970851700061L43.76554,109.10121061411601L44.386264,86.54401328843024L44.39526,71.82448917666558L44.62016,131.7652688606488L44.939518,129.98151404486617L45.173414,83.28673285738537L45.267872,21.39747618548995L45.299358,19.845154033196877L45.780643999999995,70.48239062103892L45.906588,71.52116884284409L46.032532,62.2857647159519L46.266428,13.247917173663836L46.545304,46.94261501654668L46.986108,60.69858394197361L47.125546,72.47890784727268L47.148036,76.14601851932247L47.530366,118.28698068518662L47.539362000000004,80.87540588450885L47.9037,48.339572230550885L48.317516,83.76277392068518L48.393981999999994,51.981498364516014L48.48844,58.889776586147605L49.091172,67.62242875569058L49.109164,73.61383086486454L49.145148,59.6931520895634L49.648923999999994,36.298799201865194L49.711895999999996,60.38118656530976L49.882819999999995,32.36919831895605L49.936796,96.34801260124219L50.125712,109.35925179874779L50.472058,110.08414688845157L50.8274,94.39311543098592L50.836396,136.46164691030503L51.079288,76.20580849580294L51.205232,56.860081311336L51.677521999999996,61.14743818097483L52.154309999999995,93.19194776475031L52.217282,52.33617201152893L52.491659999999996,34.13772257252151L53.071902,72.2644559975253L53.656642000000005,133.61119230923848L53.854554,116.38579443252608L54.236883999999996,80.4070876199625L54.326844,69.2922861872365L54.488772,106.16878395757884L54.520258,54.43078025270586L54.682185999999994,60.30171013665117L54.776644,78.79919670283562L55.055519999999994,107.56193153371122L55.14548,54.62508137594101L55.644758,81.40678886561015L55.689738,66.3369929404669L56.000099999999996,107.76527696091837L56.058574,103.50719712152198L56.085561999999996,110.26616844290196L56.400422,115.44735221211641L56.503876,129.36657276056312L56.791748,101.23765427604425L57.439460000000004,101.21393106880392L57.682352,59.90247953696151L57.812794,64.38570361775633L58.055686,106.2230452036638L58.231108,103.45638997813893L58.244602,79.58301687286026L58.298578,55.53046053033353L58.438016,101.98376987253553L58.941792,141.21323571955887L59.445568,108.9623251908671L59.562516,95.67231212211327L60.075288,99.02927150542226L60.111272,76.98826053362207L60.29569,60.69661644150408L60.709506000000005,81.41839228943894L60.997378,87.316165438701L61.213282,93.98674135796475L61.316736,65.43923349293337L61.6226,84.9494055731753L61.66758,108.6670255115746L61.681073999999995,95.05232353973638L61.748544,68.33581684350386L61.896978000000004,78.25888609984855L62.715614,78.53681575027402L63.01698,97.80389355878408L63.142924,57.696112925449256L63.187903999999996,76.22139694096082L63.345334,70.48011530702787L64.056018,103.94448511621182L64.39336800000001,158.07427725914383L64.90614,123.16258775564451L65.090558,135.32006647946352L65.598832,142.84732777884597L65.72927399999999,122.8371797759455L65.75176400000001,61.832000137606855L65.79224599999999,91.4815380672361L66.19706599999999,76.9720110109067L66.21056,61.614586981159064L66.336504,56.64344884690327L66.381484,25.43799600902753L66.799798,24.95824456615921L66.95273,49.126675912622204L67.22261,72.53883525479239L68.045744,80.9286084568176L68.162692,75.87278829512117L68.176186,106.01502561957223L68.270644,66.8158416477889L68.30213,88.10243753866345L68.563014,92.61699014057926L68.590002,94.48428439862579L68.84188999999999,69.02735360080078L69.76398,36.89361053383482L70.015868,68.36283404725778L70.15980400000001,63.953214155836235L70.55113,118.35236135416964L70.699564,119.02072989336284L71.05490599999999,115.85914650701159L71.08639199999999,113.69494006856345L71.14486600000001,93.37267311706582L71.414746,111.24737915801443L71.54968600000001,114.48040484020189L71.65314,89.33318452017946L71.734104,101.20335632640894L72.386314,69.53271967036179L72.674186,73.22354888375654L73.35338399999999,91.69326892491893L73.470332,99.84330660882237L74.33394799999999,91.5038773977639L74.365434,108.08378786642032L74.87370800000001,77.32977313462715L74.887202,90.61018342175377L74.98166,81.96004285774679L75.24704200000001,73.86810189517955L75.440456,71.29914334298282L75.82278600000001,66.75886761475276L75.962224,66.71690734133023L76.03419199999999,67.899757403027L76.11065799999999,128.49968696340153L76.290578,129.8824016154523L76.49748600000001,122.54960001940591L76.501984,97.39925908247133L76.60094,68.55101412882873L76.75837,41.155970081254225L76.875318,34.446680822708856L76.9158,52.37666092760756L77.149696,47.5020157446385L77.16319,14.241532707897392L77.316122,79.81621995159931L77.334114,74.26401729476288L77.437568,42.08784774642447L77.464556,86.01643040002146L77.473552,116.03533036381921L77.68046,124.98269187180901L78.049296,113.48165585994407L78.134758,95.46622886620848L78.17524,65.77439699297571L78.481104,74.28061299252079L78.4901,99.80412141610033L78.75998,109.82553194746377L79.475162,125.83682900401496L79.71355600000001,122.0781737467523L79.803516,163.33204280005685L79.942954,191.64775593586532L79.983436,116.51340054071915L80.059902,120.9079032539224L80.13636799999999,158.63968359775566L80.505204,135.4338903516595L80.60865799999999,143.62367466399684L80.67163,94.15030653798816L81.00448200000001,97.74972269434892L81.517254,122.36843802722103L81.949062,130.9658348562596L81.971552,136.29554850518525L82.13347999999999,111.27352828180685L82.272918,112.60940139621341L82.709224,55.389999238659755L82.826172,92.788169374105L82.844164,118.07060268798595L82.91613199999999,123.14995659251797L83.105048,108.47040733519758L83.39292,111.07557810027157L83.406414,101.47586445662785L83.478382,44.29711120518098L83.91019,19.532549036235423L84.148584,16.5412232382931L85.106658,49.95657475521875L85.232602,65.11132201621136L85.70939,54.797242365387646L86.033246,104.76176614520176L86.312122,112.51922850354079L86.662966,104.22005602170245L86.739432,117.15241255844549L86.86087799999999,112.720091066133L86.95533599999999,90.57287583983047L87.009312,61.95849710110029L87.07678200000001,100.71976526803314L87.333168,52.17003230816809L87.66152199999999,85.67612023691352L88.156302,60.20939877125859L88.394696,78.109217937365L88.412688,60.010088341166096L88.853492,82.36208023371533L89.04240800000001,76.77959984387302L89.271806,88.45787151042745L89.37526,84.38833381945976L89.640642,59.62227746376446L89.654136,72.08012432450408L90.07694799999999,85.23119880682077L90.22988000000001,84.87883528610196L90.38730999999999,65.86505412643768L90.562732,78.84371342045205L90.97654800000001,17.729039112956627L91.075504,20.995606587621182L91.44434,63.58978505876452L92.078558,82.79491912920119L92.375426,115.04552254070913L92.406912,114.2936127373214L92.44739399999999,91.73091082963698L92.52386000000001,72.73126730713184L92.604824,129.70258757981344L92.870206,104.78162379249464L93.095106,141.71974322860007L93.306512,143.71025843145267L93.58988599999999,131.3642309259376L93.92723600000001,134.54702690180912L93.954224,104.13627347495834L94.089164,134.33838775474607L94.12964600000001,125.43862315477963L94.174626,98.28474333928476L94.588442,147.50681930670552L94.62892400000001,101.88333034724565L94.646916,57.907316385203785L94.723382,65.43782175139393L95.011254,88.20089500281698L95.096716,89.15208130558423L95.703946,74.61819656410641L95.98732000000001,79.41116182819917L96.194228,84.27170853367531L96.39214000000001,123.90539217507111L96.778968,129.77461068203752L97.039852,101.77302463825808L97.710054,108.54789095460981L97.71905000000001,127.30211781970122L97.86298599999999,94.82650023315917L98.00242399999999,105.5513777297228L98.267806,120.08612429132538L98.91102,89.2169916627023L99.01897199999999,36.09945753154284L99.059454,68.54601889857085L99.306844,75.9872632274763L99.986042,93.50952063178362L100.049014,146.31421315132627L100.50781,140.8039644319129L100.602268,125.54292778261836L101.20050200000001,145.56343886721515L101.524358,131.55992657362913L101.623314,147.89964181618205L101.69978,126.88721341154763L101.906688,109.13912012641397L102.05962,88.11152569699374L102.35199,83.55805879520689L102.71183,62.37924873734217L103.053678,65.62642031576138L103.215606,38.31013050522105L103.714884,63.61233982351837L103.719382,82.53277990992086L103.87231399999999,122.94844779742581L103.93528599999999,125.08490477059746L104.124202,86.47023097675954L104.875368,87.36640047661382L105.014806,74.01845520973889L105.167738,116.64761120774602L105.653522,122.64402028004818L105.801956,78.7915749426284L105.88292,94.84368100708623L105.891916,100.86919054540157L105.999868,92.68036055151225L106.004366,102.27761979405093L106.01786,87.43747102551829L106.10332199999999,112.2792100353109L106.260752,89.57237767788021L106.40019,68.74926778122064L106.57561199999999,96.61523375409183L106.620592,79.73589006729557L107.020914,88.48157551273901L107.08388599999999,97.8939650916171L107.214328,95.71765662349392L107.25031200000001,119.46859609095988L107.380754,139.40824297167413L107.826056,81.19124695716833L108.865094,93.02485018957623L108.99103799999999,74.65742102671432L109.03152,71.64063231409239L109.157464,77.05245500133053L109.31489400000001,103.87440082349825L109.36887,115.44852314726195L109.65674200000001,142.52738103608166L110.26397200000001,146.64996111091213L110.506864,161.9129682467768L111.105098,123.80123608810656L111.10959600000001,115.70120883883806L111.739316,102.2282842726538L112.283574,104.4353294991685L112.31506,138.68253187263025L112.87731,120.67788309822274L113.38558400000001,110.01902859697313L113.471046,116.75874501960297L113.59699,105.77229108281261L113.695946,114.08174877912967L113.79040400000001,107.94003102236768L114.096268,89.6989238416686L114.33466200000001,102.11429706180076L114.595546,126.94843176077504L114.79345799999999,86.80288990823999L115.75603000000001,56.68986285207431L115.836994,17.86560847310423L115.93594999999999,71.83353422482502L115.962938,100.01341694281466L116.45322,73.09614077986096L116.516192,111.99368052718756L116.56567,108.34071938509686L116.81306000000001,95.80751885821924L116.862538,42.483427713493455L116.889526,88.24769198492581L117.15490799999999,94.13053826127623L117.276354,101.65498755860527L117.37980800000001,113.3603655633315L117.694668,76.94836408257852L117.793624,59.435891361733994L117.942058,50.498754176364926L118.05001,72.45654946782341L118.22993,93.41104018909934L118.310894,58.93251871645525L118.337882,91.03795189423792L118.35137599999999,117.53319515995092L118.693224,118.04222492472704L118.697722,128.29608641645217L118.90912800000001,69.6422792478487L119.04856600000001,91.11006550354733L119.170012,99.23654832506116L119.183506,103.18187737411313L119.205996,68.04926462141302L119.525354,66.35456731556893L119.574832,83.85687634683912L119.79523400000001,106.26219257638294L120.05162,127.38655315363896L120.25402999999999,69.95523370633605L120.43844800000001,84.14084113070187L120.496922,93.74710311228255L120.50142000000001,71.95704290066536L120.600376,105.89203882140697L120.67234400000001,58.756056128555116L121.171622,60.216244886562336L121.26608,82.22003533442144L121.576442,90.37031789284082L121.58993600000001,60.474873322521105L121.594434,41.63848500240621L121.810338,43.58530487200579L121.91829,37.64388296079292L122.512026,47.99900492976795L122.87186600000001,100.36914717984149L122.93034,134.31895290788106L123.21821200000001,168.60742372672794L123.510582,146.59942395651044L123.614036,109.34369807845269L123.991868,88.1909199926839L124.005362,119.73911538150043L124.02785200000001,131.24363308298572L124.329218,115.7591074846909L124.41018199999999,130.81389910558295L124.747532,156.34307271220712L124.92295399999999,127.77458672418942L125.633638,66.93419979399519L125.82255400000001,118.94006806475335L125.827052,147.90880218662272L126.119422,99.74071822979212L126.14641,107.75171718938353L126.263358,129.9153671582211L126.357816,160.92012996561573L126.384804,141.79308148536967L127.095488,157.41503868840317L128.17051,143.41317010404896L128.228984,131.30542041075643L128.38191600000002,118.29862889865792L128.489868,170.4762503219829L128.55284,123.72645563195036L128.678784,132.31822585418985L129.191556,84.1496375815764L129.348986,91.84268090090862L129.515412,79.2752963178443L129.92473,74.46253321147941L130.50947,122.73719952863036L130.84682,165.37129779352614L131.25164,129.40403136841167L131.265134,154.3918587134491L131.92633999999998,88.26074429732442L131.944332,111.54379615094315L132.137746,112.67117459947268L132.18722400000001,140.20601030306966L132.232204,152.4145658353294L132.385136,131.08956403187256L132.430116,141.20069794951377L132.547064,150.28522835982784L132.749474,130.65312292601894L132.852928,123.78487873423148L133.082326,133.7899817285742L133.190278,101.63076499219805L133.27574,104.70992475863096L133.487146,78.28080497132143L133.99542,106.69636298569495L134.215822,151.92288354065875L134.58016,127.47804969977835L134.629638,176.9503740987454L134.719598,173.90742968218402L135.04795199999998,168.23325030760554L135.304338,137.4046986698351L135.78562399999998,133.0934358220382L136.419842,127.38818895795751L136.595264,141.97392049189918L136.725706,133.1866212073815L137.117032,100.44536002961526L137.332936,83.46234144354808L137.34193199999999,117.30117297383654L137.512856,87.51105972196626L137.61631,123.26009238172381L137.935668,126.5493612387155L138.569886,155.4618765486152L138.857758,139.7646551262751L139.298562,145.99573816936015L139.33454600000002,142.27024734160096L140.01824200000001,149.03843911144838L140.117198,133.11267810395046L140.265632,169.56473183141256L140.598484,137.32899074993657L140.77390599999998,142.54495433300627L141.16073400000002,165.25136453889363L141.48908799999998,154.0593674654104L141.601538,131.63339277307068L141.660012,106.48817244245384L141.70049400000002,132.87518983802389L142.055836,104.65651327755607L142.32121800000002,104.87285884115563L142.83399,95.66542590517962L142.90146,98.1257098120768L143.25680200000002,70.7901592714518L143.64812799999999,101.36948955067346L144.04845,84.82227276843722L144.214876,94.42112472793927L144.372306,96.53886042046507L144.70515799999998,113.04747498498676L145.26290999999998,72.1503674516596L145.35736799999998,107.65149165246912L145.39785,83.78514364210564L145.469818,134.17916243673352L145.753192,112.18818422198883L145.75769000000003,69.08300233461665L145.82066200000003,82.07010621635581L146.373916,82.14213827780125L146.423394,131.48289224638668L146.873194,141.94554679152768L147.17455999999999,117.23679126558224L148.07415999999998,125.87201980460046L148.645406,111.69624414086739L148.649904,85.69320997023821L148.780346,75.88116045617835L148.78934199999998,123.60610802802172L149.234644,91.91853337188206L149.909344,132.59887399540287L150.197216,110.42287136658213L150.224204,133.7151585799338L150.251192,143.51537588268272L150.269184,99.33321665955815L150.273682,118.05417886607097L150.790952,45.80140406811202L151.038342,96.03778438293546L151.578102,95.4051331092793L151.82999,122.89467556076974L152.270794,103.14490371501009L152.31577399999998,109.3160203237819L152.34725999999998,86.35406121480159L152.428224,107.20123870889957L152.68461000000002,137.4702639911578L152.882522,157.98814021780896L153.26935,132.16732044680873L153.67866800000002,138.40033495409284L153.68766399999998,97.08509743937114L153.8316,109.24948496702423L153.912564,112.04748616038857L155.185498,110.71617890983738L155.302446,90.19912728376983L155.50035799999998,103.08631757461168L155.74774799999997,105.11714821518423L156.026624,112.04526988130007L156.08509800000002,99.23038721130241L156.49891399999998,101.97065763500903L156.629356,101.27885022106467L156.80477800000003,130.68132576688214L158.06421799999998,82.76372383625376L158.41956000000002,43.47222980246352L158.536508,106.76062404972332L158.635464,130.17608272213488L158.720926,107.3659665480594L158.83337600000002,130.40765640662002L158.90534399999999,108.12578767622279L158.95932000000002,94.78893327488441L159.15273399999998,74.08237037523948L159.45859800000002,35.901089233176805L159.73747400000002,94.57630710538632L160.67305800000003,77.88138306213031L160.704544,115.93902103393995L160.745026,155.15971964311896L160.969926,146.42565087091918L160.98342000000002,128.2732485289555L161.077878,134.5164226734517L161.21731599999998,91.14487334659657L161.302778,99.51200506477286L161.91450600000002,110.39264284741577L162.278844,117.95323968173545L162.283342,88.30604097803703L162.436274,93.99044975147041L163.05249999999998,124.78656652458362L163.07499,138.8110803647876L163.191938,117.41565426722181L163.398846,102.62825136503582L163.466316,93.83732071774425L163.385352,75.3974708732935L163.57876599999997,100.60878950366897L163.695714,122.72734003714592L163.880132,95.90828889648473L164.07354600000002,126.85246820015385L164.667282,137.27223246643854L164.698768,117.75748795066839L164.71676,133.76235640018234L165.175556,97.09718970683794L165.355476,16.55048221393662L165.778288,19.950498431726174L165.84126,87.70492420780892L165.922224,77.53156585163663L166.11113999999998,55.46567574770093L167.334596,99.21579493339286L167.57299,112.3295956649783L168.108252,132.40829317285113L168.926888,102.36609290869214L169.093314,88.31678393474239L169.51612599999999,127.26320094460857L170.23130799999998,118.52031400099627L170.34825600000002,95.94173948482273L170.528176,80.76128904209814L170.735084,158.74629992632762L171.027454,85.26415703069841L171.05894,113.27638434897564L171.09492400000002,73.98009892697476L171.31082800000001,123.9345535760382L171.35130999999998,144.36930843971496L171.616692,126.22754582908075L171.675166,148.7315797085497L172.327376,143.4389976582808L172.381352,142.1030557860983L172.529786,138.32917612163232L172.718702,166.9392446104307L173.01107199999998,148.08175634836718L173.34392400000002,97.23895987796888L173.55533,114.20582520781363L173.84769999999997,116.71164731137537L173.978142,116.03307949734815L174.03661599999998,105.5805810497496L174.34697799999998,146.4964012874173L174.360472,139.4367692555331L174.553886,119.16429094309743L174.774288,124.49332494820851L175.02617600000002,102.89695981590286L175.619912,112.68455020685764L175.655896,73.34659147322034L175.687382,57.17078834716092L176.105696,110.10970665549631L176.159672,125.5802527024013L176.249632,81.81883012697145L176.762404,94.52931918767125L176.780396,136.41219992769288L176.90184200000002,137.30537877418578L176.91083799999998,119.26228323404317L177.31565799999998,115.86580829836598L177.630518,92.31594941489038L177.751964,126.43938443437807L177.78345,110.12019459187192L177.909394,114.9429852197398L178.52112200000002,114.30017044905416L178.934938,67.9711965432198L178.966424,91.23205635472267L179.371244,110.54745598014212L179.411726,128.0449921845877L179.465702,140.64052557428656L179.551164,203.2139508518988L179.62762999999998,209.60342954724743L179.870522,143.76451095649202L179.924498,127.00415088268966L180.036948,118.5927482109469L180.203374,144.63627807908617L180.46425799999997,152.1106941736541L180.671166,153.59253972529646L180.756628,119.21895283500533L180.788114,151.76425847572654L180.99502199999998,105.00608296353697L181.228918,112.27644162410405L181.242412,94.37691717213893L181.39984199999998,96.63288206286822L181.98458200000002,76.95765374236781L182.218478,54.62766860069459L182.222976,32.660933314764065L182.317434,103.57390930868328L182.564824,114.4420235441386L182.95615,105.88988882083792L182.960648,87.40637013872231L183.131572,111.36419527726767L183.289002,122.76940809440894L183.329484,88.44634133658943L183.504906,120.77564038637408L183.725308,85.6206054483197L183.972698,137.88061420425285L184.11663399999998,149.56725559232723L184.543944,149.6413267597672L185.22764,121.4603214203693L185.44804200000002,132.46259705842417L185.60997,103.61144086034089L185.888846,82.97523409038456L186.235192,90.56799676456161L186.248686,94.12240857697239L186.590534,78.92239185324877L186.684992,140.5631250243785L186.720976,96.65743709398342L186.77945,101.27153856676794L186.788446,113.83262737190984L186.815434,61.25348542779746L187.256238,99.46927133635873L187.26523400000002,90.51884833146542L187.65656,86.32367222364233L187.67005400000002,90.62950932939292L187.7915,108.52596293755344L188.560658,71.06557209917382L188.592144,103.48877176833625L188.88901199999998,101.67669547131527L188.911502,82.44336294527295L189.37929400000002,87.24117638521047L189.45576,96.00390394288046L189.757126,142.541772549359L189.84708600000002,137.10986026273804L190.328372,134.43742396735516L190.56226800000002,139.7646937250833L190.629738,110.29081829527996L190.69720800000002,112.55829722597957L190.769176,61.905528080413816L190.82764999999998,75.16836491343388L190.98507999999998,112.1576665899025L191.07054200000002,124.68051300686722L191.10202800000002,104.65043409290115L192.150062,93.13925849982805L192.419942,51.81146664924488L192.554882,81.18356364029731L192.640344,91.94978626221653L193.040666,122.15653217547354L193.216088,109.03681904594343L193.23408,101.47720689991951L193.274562,116.2443362861679L193.30155,131.8590789293669L193.414,126.15879229729214L193.67038599999998,147.06339244673933L194.327094,120.64290820827563L194.84886200000003,59.176899082163814L194.997296,50.1437686208165L195.48757799999998,79.51015368151023L195.514566,73.4841227437971L195.555048,102.39918090369582L196.13529,79.35524058849153L196.288222,130.6996011122543L197.43971000000002,93.62856803673147L197.525172,90.80590953386262L197.71858600000002,108.57275539794047L198.028948,99.65947179063483L198.99601800000002,84.71435749935928L199.450316,74.17445916455608L199.69770599999998,74.41191977023213L199.765176,61.532649901678354L200.075538,92.40663697321658L200.22847,89.30071650743157L200.561322,115.546221177576L200.63329,123.22973629925683L200.682768,115.54926436599516L200.8357,116.33828325589508L201.19554,196.14012293621218L201.46991799999998,179.78530297272758L201.474416,159.2096598463396L201.7353,129.13023862528257L201.82526000000001,98.44403269508106L202.018674,70.96795735819623L202.041164,98.04887198431003L202.36502000000002,126.22272753866602L202.999238,112.65612612228081L203.102692,93.96226398522408L203.10719,102.76681295948383L203.718918,67.69091151261468L204.150726,139.9941413362915L204.416108,130.43008715501765L204.465586,141.4658165169163L205.74301799999998,127.17466754592951L205.92743600000003,136.62900024258514L206.24229599999998,161.7230706677274L206.36824,118.82709711721617L206.597638,103.42481781569995L207.033944,114.38074532282462L207.173382,129.30815830813808L207.195872,137.1194823516472L207.272338,152.51152219006573L207.501736,171.18463357832755L207.67266,150.04340669334277L208.590252,146.35715774144782L208.914108,139.9055492478145L209.386398,157.34937004478127L209.777724,139.258740903326L209.83169999999998,74.04460345497705L209.975636,104.70279687931112L210.10158,110.50966188071769L210.492906,53.723817369507714L210.53788600000001,69.67012786659694L210.564874,80.00603692958458L210.582866,81.20989080941959L210.722304,108.99721366661868L210.7313,106.95133612544494L210.794272,85.2662616976798L210.82126,115.88370549914063L211.14961399999999,108.26827432150046L212.26062000000002,96.67656381068191L212.656444,64.60948214750483L212.773392,32.06326932158518L213.178212,17.10066604605268L213.299658,21.68497898389853L213.614518,47.04228400300531L213.920382,103.06169362821832L213.99235,36.534468971519516L214.289218,39.08291461819752L214.505122,96.67614673642314L214.57709,93.85366600288063L214.707532,83.96716022671657L214.819982,75.87457976816168L214.90544400000002,104.31182558307962L215.553156,99.27608861309244L215.58914000000001,88.1175604431287L215.877012,102.4071922806131L215.998458,127.4817010264853L216.605688,106.22728599454973L216.637174,117.77382935812759L216.718138,84.34190723460405L217.181432,67.10514457184503L217.28938399999998,60.7516445696627L217.334364,117.7187576483927L217.397336,100.16556369380832L217.676212,104.44212906934519L218.103522,59.123205871724196L218.40039000000002,131.52166677197403L218.458864,141.01387219651278L218.6028,102.53064507030915L218.683764,84.73638166977123L218.72874399999998,101.09006777814305L218.82320199999998,73.15822813343387L219.31348400000002,105.14226353104661L219.62834400000003,114.07796587905733L220.06914799999998,123.97360014305612L220.595414,84.48912644387173L220.766338,134.09465601628173L220.914772,172.76684255857052L220.991238,101.72212425239455L221.16665999999998,105.16209472499366L222.25517599999998,125.79155959746794L222.327144,63.267822631872704L222.974856,89.16735317307261L223.208752,91.29418725324047L223.40666399999998,100.34783705068587L223.56409399999998,134.80506114588724L223.69903399999998,151.57517326132384L223.80698600000002,133.0346697767547L223.914938,130.759547705832L223.950922,122.64199772522895L224.00039999999998,78.88139998527612L224.004898,90.92319604385777L224.274778,104.89007054850485L224.39622400000002,132.72457401207106L224.41421599999998,127.21029738612505L224.481686,105.38302599666575L224.598634,112.29323008180343L224.648112,131.52432601487126L224.69759,101.08998835768213L224.846024,102.13292355396057L225.228354,90.7885484144092L225.466748,90.56564029173214L225.48474000000002,99.03636361704883L225.543214,81.02447456401404L225.903054,32.48755669853489L225.921046,75.50298387976711L226.042492,119.39385007034767L226.082974,130.92544708652835L226.4743,98.60101730367128L226.505786,83.7982159869614L226.703698,122.715877517451L226.942092,130.25735555048448L227.099522,93.34411704422126L227.11751400000003,62.435046028382146L227.391892,75.56299345890952L227.82819800000001,72.5539244723336L227.999122,142.441750856804L228.20603,135.6484147696941L228.210528,121.20808761239164L228.224022,102.69252411950622L228.47591,110.19793721601457L228.853742,128.4550379181578L228.961694,158.64571364311425L229.182096,137.16821516231602L229.24506799999997,90.72414077464747L229.910772,102.78931077025128L230.045712,33.36830819025562L230.311094,70.96422668643818L230.540492,96.07330063513805L231.46707999999998,135.65727234708098L231.507562,168.34750877653124L231.597522,147.75106095939844L231.73696,96.08782695426832L231.745956,103.83769942752478L232.353186,136.02821220737948L232.515114,114.95596394684193L232.71302599999999,144.4125594353225L232.978408,126.39324364259656L233.032384,112.86223177154825L233.540658,108.63775143096984L233.70708399999998,104.29970736774658L233.846522,135.08377310181908L234.003952,90.16164536617732L234.678652,27.55763657434767L234.719134,29.35283545442354L234.84058,52.90760469126849L234.97552000000002,41.490114265197064L235.128452,60.37008520161535L235.330862,64.01031533321077L235.36684599999998,62.24338897224774L235.49278999999999,98.87476970142338L236.001064,145.26924653512734L236.073032,149.77827555932103L236.17648599999998,162.45324476634883L236.351908,148.02166469142094L236.428374,187.74361676353138L236.815202,152.76664728701707L236.85568400000002,126.83711477249757L237.00861600000002,105.22403964156771L237.52588599999999,121.29900150932404L237.70130799999998,93.97867314571963L237.935204,93.36132367171362L239.230628,108.94494148416138L239.325086,129.11825002349184L239.959304,167.35880315235852L240.152718,141.48646219102727L240.391112,175.54119858827337L240.422598,176.52423875236508L240.51255799999998,140.90563218463018L240.62950600000002,123.50859665535562L241.03432600000002,81.99119500546031L241.268222,125.87563044427398L241.53810199999998,135.5688256620358L241.56958799999998,86.67153274181658L241.70003,88.55807370457339L241.938424,99.10890384301436L241.956416,131.70347912183337L242.01488999999998,140.33655284181106L242.07786199999998,70.79739106726338L242.18581400000002,102.45424827860502L242.23979,113.08876853541558L242.383726,158.56925853473788L242.415212,160.87531925759728L242.478184,144.6749741223162L242.986458,87.39842419178287L243.035936,94.88480531278162L243.062924,137.221754507073L243.247342,133.43107141650768L243.265334,124.61008879439723L243.328306,126.60881428152646L243.43176,119.56408374630222L243.90854800000002,135.16381273572102L244.101962,109.99849172406837L244.299874,87.18346739716473L244.38083799999998,40.40688910291419L244.452806,130.3105591446967L244.587746,132.63150291094664L244.898108,103.5108244867707L245.460358,65.73313069467632L245.653772,91.18439436950294L245.662768,81.73379699861731L245.829194,98.1111588524784L245.833692,127.46466060881923L245.878672,115.67600058100152L245.91465599999998,74.29103252959246L246.027106,104.21757995795099L246.40044,119.50869455715397L246.42293,125.2049398679664L246.4904,158.84972586892522L247.363012,132.05144904879984L247.983736,139.9454930015561L248.937312,107.25332995582566L249.288156,84.54035086277645L249.531048,128.22515283225397L249.643498,125.36319196617578L250.210246,113.48640906313187L250.57458400000002,104.60233232676462L250.794986,95.44674041678961L250.848962,90.70832862328386L250.93442399999998,86.59668196362789L251.199806,65.26419309588258L251.721574,107.68033434132239L252.076916,81.07500884318972L252.26583200000002,160.13759952233397L252.589688,140.16913110604662L252.814588,100.03106354460348L252.98101400000002,112.52503610033624L253.008002,141.2805582179128" style="fill: none;" fill="none"></path></g></g></g></g><g opacity="0.2"><g><g><g><path stroke="rgb(255, 112, 67)" stroke-width="2px" d="M28.301416,149.36898078368262L28.31491,19.958879195726865L28.431858000000002,-84.4682424985445L28.535311999999998,136.65184209438473L28.863666,234.12946132971692L29.165032,-50.191180036618135L29.259490000000003,75.74707157795248L29.340454,18.629576407946104L29.497884,50.20266819917241L29.50688,39.48806572877447L29.542864,-52.028669274770294L30.244552,18.243526752178525L30.523428000000003,206.37243427221594L30.716842,65.89988381129047L30.748328,129.0774537095657L30.964232000000003,-50.12723067173587L31.022706000000003,109.29727809245772L31.130658,-16.77077937126157L31.324071999999997,-34.44815298227161L31.360056,34.159046668272765L31.64343,95.67119413155777L31.719896000000002,89.76391212756819L31.746884,1.0237400623468602L31.872828000000002,-107.87744313019971L32.480058,90.51320716050957L32.673472,19.668915895315337L32.907368,100.13218983320091L33.078292000000005,-1.051124673623292L33.420139999999996,226.68891620635986L33.784478,26.2995642240231L34.031867999999996,17.75863150449902L34.045362000000004,27.945367675561187L34.108334,140.646039893994L34.126326,-60.26340789061325L34.34223,-2.5028482950650357L34.373716,84.6471108198166L34.571628000000004,156.41578690822308L34.706568,85.76025988505438L34.962954,38.44450623255511L35.093396,27.727874911748444L35.165364000000004,71.7543345506375L35.237332,134.8010638860556L35.718618,80.4877645969391L35.912031999999996,57.635848595545866L35.925526,110.42290458770901L36.406812,144.57105389466653L36.505768,157.8602675337058L36.555246000000004,224.53577842162207L36.735166,58.2989986401338L36.811632,-7.980663244540864L36.870106,32.82329213619235L37.270428,-38.43675115475284L37.540307999999996,108.65888002285593L37.949626,37.26736722542691L38.003602,92.90392332810623L38.147538000000004,31.353511746113156L38.174526,52.53462885893309L38.286976,71.27138699935034L38.489386,8.715639462837828L38.858222000000005,78.87194755444162L39.069627999999994,-65.56641708887537L39.146094000000005,23.8436408042908L39.155089999999994,60.39723573281218L39.177580000000006,65.37639982883749L39.29003,55.69200701896963L39.294528,-9.38004252543817L39.348504000000005,124.89650022983554L39.370994,147.03773022156497L39.501436,56.16326839190265L39.568906,176.015699166518L40.18963,67.0463871772473L40.43702,130.20269472323935L41.458065999999995,18.142814617890593L41.777423999999996,137.96870802916015L41.790918000000005,263.7441849754407L42.051801999999995,133.26930211599057L42.330678,35.98635107737323L42.641040000000004,115.70812076788684L42.704012000000006,70.98649582496058L42.713007999999995,17.243628116754394L42.717506,142.61712893155908L42.97839,146.9386614561081L43.76554,98.97846375978912L44.386264,52.708217299901534L44.39526,49.74520300901854L44.62016,221.6764383866237L44.939518,127.30588182119224L45.173414,13.244561076164274L45.267872,-71.43640882235306L45.299358,17.516670804757354L45.780643999999995,146.43824550280206L45.906588,73.0793361755518L46.032532,48.43265852561365L46.266428,-60.30885413976816L46.545304,97.4846617808709L46.986108,81.33253733011394L47.125546,90.14939370522134L47.148036,81.64668452739717L47.530366,181.49842393398288L47.539362000000004,24.758043683492218L47.9037,-0.4641782503861407L48.317516,136.89757645588656L48.393981999999994,4.309585030262326L48.48844,69.25219391859495L49.091172,80.7214070100051L49.109164,82.6009340286255L49.145148,38.81213392661169L49.648923999999994,1.2072698703179299L49.711895999999996,96.50476761047659L49.882819999999995,-9.648784050574648L49.936796,192.31623402467142L50.125712,128.87611059500622L50.472058,111.17148952300734L50.8274,70.85656824478738L50.836396,199.56444412928363L51.079288,-14.177949125950107L51.205232,27.84149053463571L51.677521999999996,67.57847348543315L52.154309999999995,141.25871214041345L52.217282,-8.947491618303161L52.491659999999996,6.840048414010283L53.071902,129.4545561350309L53.656642000000005,225.63129677680823L53.854554,90.54769761745749L54.236883999999996,26.439027401117187L54.326844,52.62008403814757L54.488772,161.48353061309228L54.520258,-23.17622530460355L54.682185999999994,69.10810496256903L54.776644,106.5454265521123L55.055519999999994,150.70603378002463L55.14548,-24.780193860714206L55.644758,121.57935010011381L55.689738,43.73229905275201L56.000099999999996,169.90770299159564L56.058574,97.12007736242737L56.085561999999996,120.40462542497197L56.400422,123.21912786593805L56.503876,150.24540358323318L56.791748,59.04427654926596L57.439460000000004,101.17834625794339L57.682352,-2.0646977608020336L57.812794,71.11053973894855L58.055686,168.97905758252512L58.231108,99.30640713985152L58.244602,43.77295721494238L58.298578,19.451626016543486L58.438016,171.66373388583844L58.941792,200.05743449009384L59.445568,60.58595939782953L59.562516,75.73729251898253L60.075288,104.06471058038566L60.111272,43.926744075921874L60.29569,36.25915030332712L60.709506000000005,112.50105606134123L60.997378,96.16282516259415L61.213282,103.99260523686044L61.316736,22.617971695386444L61.6226,114.2146636935381L61.66758,144.24345541917364L61.681073999999995,74.63027058197905L61.748544,28.26105679915503L61.896978000000004,93.14348998436563L62.715614,78.95371022591226L63.01698,126.70451027154925L63.142924,-2.465558024553161L63.187903999999996,104.00932296422813L63.345334,61.86819285612842L64.056018,154.14103982998776L64.39336800000001,239.26896547354187L64.90614,70.79505350039557L65.090558,153.55628456519202L65.598832,154.13821972791968L65.72927399999999,92.82195777159473L65.75176400000001,-29.675769319901065L65.79224599999999,135.95584496167993L66.19706599999999,55.20772042641275L66.21056,38.578450936537536L66.336504,49.186741645519575L66.381484,-21.370183247786287L66.799798,24.238617401856658L66.95273,85.37932293231673L67.22261,107.65707426804764L68.045744,93.51326825985544L68.162692,68.28905805257651L68.176186,151.22838160624872L68.270644,8.017065690113952L68.30213,120.03233137497537L68.563014,99.38881904345294L68.590002,97.28522578569562L68.84188999999999,30.841957404063322L69.76398,-11.307004066614013L70.015868,115.56666931739221L70.15980400000001,57.3387843187039L70.55113,199.95108215166974L70.699564,120.02328270215256L71.05490599999999,111.11677142748468L71.08639199999999,110.44863041089133L71.14486600000001,62.88927268981935L71.414746,138.05943821943725L71.54968600000001,119.32994336348315L71.65314,51.61235404014589L71.734104,119.00861403575311L72.386314,22.026764686291074L72.674186,78.75979270384863L73.35338399999999,119.39784898666237L73.470332,112.06836313467761L74.33394799999999,78.99473358117619L74.365434,132.9536535694049L74.87370800000001,31.198751036937438L74.887202,110.53079885244371L74.98166,68.98483201173636L75.24704200000001,61.730190451328596L75.440456,67.44570551468779L75.82278600000001,59.948454022407546L75.962224,66.65396693119638L76.03419199999999,69.67403249557204L76.11065799999999,219.39958130396332L76.290578,131.95647359352847L76.49748600000001,111.5503976253363L76.501984,59.67374767706946L76.60094,25.278646698364867L76.75837,0.0634040098923947L76.875318,24.382746934890775L76.9158,79.27163108495566L77.149696,40.190047970184935L77.16319,-35.6491918472143L77.316122,178.1782508171522L77.334114,65.93571330950812L77.437568,-6.176406576083252L77.464556,151.90930438041687L77.473552,161.06368030951575L77.68046,138.40373413379376L78.049296,96.23010184214667L78.134758,68.44308837560507L78.17524,21.236649183126616L78.481104,87.03993699183833L78.4901,138.08938405146966L78.75998,124.85764774450891L79.475162,149.85377458884167L79.71355600000001,116.44019086085835L79.803516,225.2128463800137L79.942954,234.12132563957803L79.983436,3.8118674479998162L80.059902,127.49965732372726L80.13636799999999,215.23735411350546L80.505204,100.62520048251521L80.60865799999999,155.90835113250293L80.67163,19.940254348974975L81.00448200000001,103.14884692888995L81.517254,159.29651102652917L81.949062,143.86193009981744L81.971552,144.29011897857373L82.13347999999999,73.74049794673921L82.272918,114.61321106782327L82.709224,-30.439103997670685L82.826172,148.88542457727286L82.844164,155.99425265880734L82.91613199999999,130.7689874493159L83.105048,86.45108344921701L83.39292,114.98333424788257L83.406414,87.07629399116225L83.478382,-41.47101867198941L83.91019,-17.614294217183016L84.148584,12.054234541379515L85.106658,100.07960203060739L85.232602,87.84344290770018L85.70939,39.326122889151975L86.033246,179.70855181492294L86.312122,124.15542204104939L86.662966,91.77129729894493L86.739432,136.55094736356003L86.86087799999999,106.07160882766432L86.95533599999999,57.3520530003768L87.009312,19.036928993005034L87.07678200000001,158.86166751843234L87.333168,-20.654567131629335L87.66152199999999,135.93525213003159L88.156302,22.009316572776243L88.394696,104.95894668652463L88.412688,32.861393946867736L88.853492,115.89006807253912L89.04240800000001,68.40587925910951L89.271806,105.97527901025921L89.37526,78.2840272830083L89.640642,22.473192930221586L89.654136,90.76689461561352L90.07694799999999,104.95781053029576L90.22988000000001,84.35029000502368L90.38730999999999,37.34438238694119L90.562732,98.31170236147369L90.97654800000001,-73.94297234828653L91.075504,25.8954577996181L91.44434,127.48105276547948L92.078558,111.60262023485626L92.375426,163.42142765797104L92.406912,113.16574803223978L92.44739399999999,57.886857968110334L92.52386000000001,44.231802023374115L92.604824,215.15956798883587L92.870206,67.40017811151652L93.095106,197.12692238275824L93.306512,146.69603123573157L93.58988599999999,112.84518966766507L93.92723600000001,139.32122086561645L93.954224,58.52014333468219L94.089164,179.64155917442764L94.12964600000001,112.08897625483002L94.174626,57.553923616042525L94.588442,221.33993325783658L94.62892400000001,33.44809690805582L94.646916,-8.056704557858978L94.723382,76.73357980067915L95.011254,122.3455048799515L95.096716,90.57886075973512L95.703946,52.81736945188963L95.98732000000001,86.60060972433826L96.194228,91.56252859188962L96.39214000000001,183.3559176371648L96.778968,138.578438442487L97.039852,59.77064557258902L97.710054,118.71019042913733L97.71905000000001,155.43345811733835L97.86298599999999,46.11307385334604L98.00242399999999,121.63869397456831L98.267806,141.88824413372922L98.91102,42.91329271976767L99.01897199999999,-43.57684366519632L99.059454,117.21586094911284L99.306844,87.14912972083461L99.986042,119.7929067382446L100.049014,225.5212519306403L100.50781,132.5385913527929L100.602268,102.65137280867651L101.20050200000001,175.5942054941104L101.524358,110.55465813325003L101.623314,172.40921468001147L101.69978,95.36857080459596L101.906688,82.51698019871347L102.05962,56.57013405286351L102.35199,76.72785844252661L102.71183,30.611033650544982L103.053678,70.4971776833901L103.215606,-2.664304210589478L103.714884,101.56565380096437L103.719382,110.91344003952469L103.87231399999999,183.57194962868326L103.93528599999999,128.28959023035492L104.124202,28.54822028600256L104.875368,88.71065472639526L105.014806,53.99653730942656L105.167738,180.59134520475683L105.653522,131.6386338885014L105.801956,13.012906936498808L105.88292,118.92184010377298L105.891916,109.90745485287448L105.999868,80.39711556067836L106.004366,116.67350865785895L106.01786,65.1772478727194L106.10332199999999,149.54181854999985L106.260752,55.51212914173422L106.40019,37.51460293623117L106.57561199999999,138.4141827133986L106.620592,54.41687453710118L107.020914,101.60010368090411L107.08388599999999,112.01254945993425L107.214328,92.45319392130926L107.25031200000001,155.09500529215887L107.380754,169.31771329274545L107.826056,-6.134247064590426L108.865094,110.77525503818808L108.99103799999999,47.106277282421445L109.03152,67.11544924515947L109.157464,85.17018903218785L109.31489400000001,144.10731955674981L109.36887,132.8097066329076L109.65674200000001,183.14566786931113L110.26397200000001,152.83383122315774L110.506864,184.80747895057385L111.105098,66.6336378501012L111.10959600000001,103.55116796493532L111.739316,82.01889742337742L112.283574,107.74589733894057L112.31506,190.0533354328229L112.87731,93.67090993661148L113.38558400000001,94.03074684509866L113.471046,126.86831965354774L113.59699,89.292610177627L113.695946,126.54593532360519L113.79040400000001,98.72745438722465L114.096268,62.337263070620054L114.33466200000001,120.7373568919989L114.595546,164.1996338092364L114.79345799999999,26.584577129437378L115.75603000000001,11.520322267825804L115.836994,-40.370773095350984L115.93594999999999,152.78542285240616L115.962938,142.28324101979916L116.45322,32.720226535430356L116.516192,170.33999014817752L116.56567,102.8612776719607L116.81306000000001,77.00771806790281L116.862538,-37.502709003595214L116.889526,156.8940883920743L117.15490799999999,102.95480767580182L117.276354,112.94166150459878L117.37980800000001,130.9184325704208L117.694668,22.330361861449035L117.793624,33.16718228046713L117.942058,37.09304839831134L118.05001,105.39324240501112L118.22993,124.84277627101312L118.310894,7.214736507489135L118.337882,139.19610166091186L118.35137599999999,157.27606005852041L118.693224,118.80576957189122L118.697722,143.67687865403985L118.90912800000001,-18.33843150505649L119.04856600000001,123.31174488709524L119.170012,111.42627255733198L119.183506,109.09987094769113L119.205996,15.350345492363004L119.525354,63.81252135680273L119.574832,110.11033989374457L119.79523400000001,139.87016692069864L120.05162,159.07309401952304L120.25402999999999,-16.19174546461838L120.43844800000001,105.41925226725067L120.496922,108.15649608465344L120.50142000000001,39.27195258323965L120.600376,156.79453270251935L120.67234400000001,-11.947917910722595L121.171622,62.40652802357309L121.26608,115.22572100621005L121.576442,102.59574173046994L121.58993600000001,15.631706467041624L121.594434,13.383902522233825L121.810338,46.50553467640512L121.91829,28.73175009397363L122.512026,63.531687883230376L122.87186600000001,178.9243605549519L123.21821200000001,220.04012995499832L123.510582,113.58742430118416L123.614036,53.46010926136606L123.991868,56.461752864030714L124.005362,167.06140846472522L124.02785200000001,148.5004096352137L124.329218,92.5323190872486L124.41018199999999,153.396086536921L124.747532,194.6368331221434L124.92295399999999,84.92185774216287L125.633638,-24.326380601296023L125.827052,191.36190336942673L126.119422,27.488592294546294L126.14641,119.76821562877069L126.263358,163.1608421114775L126.357816,207.42727417670764L126.384804,113.10250876500058L127.095488,180.8479744929534L128.17051,122.41036722751767L128.228984,113.14379587081764L128.38191600000002,98.7884416305102L128.489868,248.74268245697021L128.55284,53.601763596901534L128.678784,145.205881187549L129.191556,11.896755172656157L129.348986,103.38224587990689L129.515412,60.42421944324789L129.92473,67.24338855193213L130.50947,195.1491990043567L130.84682,229.32244519086987L131.25164,75.45313173073991L131.265134,191.87359973100516L131.92633999999998,-10.935927326862583L131.944332,146.46837393137127L132.137746,114.362242272267L132.18722400000001,181.50826385846506L132.232204,170.72739913371893L132.385136,99.10206132668716L132.430116,156.36739882597558L132.547064,163.91202397529898L132.749474,101.20496477530554L132.852928,113.48251244655023L133.082326,148.79763622008838L133.190278,53.39193988763371L133.27574,109.32866440828032L133.487146,38.63712529035715L133.99542,149.31970000725528L134.215822,219.7626643731044L134.58016,90.8107989384578L134.629638,251.15886069719608L134.719598,169.34301305734195L135.04795199999998,159.72198124573782L135.304338,91.16187121317938L135.78562399999998,126.62654155034286L136.419842,118.83031866183649L136.595264,163.85251779281177L136.725706,120.00567228060504L137.117032,51.33346826296588L137.332936,57.98781356444728L137.34193199999999,168.05942026926922L137.512856,42.82588984416083L137.61631,176.8836413713602L137.935668,131.4832645242031L138.569886,198.83064951346472L138.857758,116.21882299276501L139.298562,155.34236273398767L139.33454600000002,136.6820110999621L140.01824200000001,159.1907267662195L140.117198,109.22403659270361L140.265632,224.24281242260568L140.598484,88.97537912772253L140.77390599999998,150.3688997076108L141.16073400000002,199.31097984772464L141.48908799999998,137.2713718551856L141.601538,97.99443073456106L141.660012,68.77034194652853L141.70049400000002,172.4557159313789L142.055836,62.32849843685446L142.32121800000002,105.19737718655514L142.83399,81.85427650121542L142.90146,101.81613567242258L143.25680200000002,29.7868334605144L143.64812799999999,147.23848496950592L144.04845,60.00144759508281L144.214876,108.81940266719234L144.372306,99.71546395925377L144.70515799999998,137.81039683176922L145.26290999999998,10.804706151668881L145.35736799999998,160.90317795368344L145.39785,47.985621626560544L145.469818,209.77019062867532L145.753192,79.20171689987184L145.75769000000003,4.425229503558256L145.82066200000003,101.5507620389645L146.373916,82.25018636996931L146.423394,205.49402319926483L146.873194,157.63952860923916L147.17455999999999,80.17365797666403L148.07415999999998,138.8248626131278L148.645406,90.43258064526779L148.649904,46.68865871429446L148.780346,61.163086185088545L148.78934199999998,195.1935293857868L149.234644,44.38717138767245L149.909344,193.61938493068402L150.197216,77.15886742335101L150.224204,168.65358939996133L150.251192,158.2157018368061L150.269184,33.059977824871396L150.273682,146.13562217584024L150.790952,-62.57775812882639L151.038342,171.39235485517062L151.578102,94.45615619879504L151.82999,164.12898923800543L152.270794,73.52024594637065L152.31577399999998,118.57269523693967L152.34725999999998,51.91112255133116L152.428224,138.47200495004654L152.68461000000002,182.87380191454523L152.882522,188.76495455778564L153.26935,93.43609079030846L153.67866800000002,147.74985671501895L153.68766399999998,35.11224116728857L153.8316,127.49606625850386L153.912564,116.24448795043507L155.185498,108.71921803401068L155.302446,59.423549844668486L155.50035799999998,122.41710301087454L155.74774799999997,108.16339417604301L156.026624,122.43745238047381L156.08509800000002,80.00806320630589L156.49891399999998,106.08106327056886L156.629356,100.24113910014815L156.80477800000003,174.78503908560828L158.06421799999998,10.887320940311156L158.41956000000002,-15.465011248221742L158.536508,201.69321542061294L158.635464,165.29927073075223L158.720926,73.15079228694624L158.83337600000002,164.97019119446097L158.90534399999999,74.70298458062688L158.95932000000002,74.7836516728768L159.15273399999998,43.02252602577212L159.45859800000002,-21.370832479917084L159.73747400000002,182.5891339137004L160.67305800000003,52.83899699724638L160.704544,173.02547799165433L160.745026,213.99076755688742L160.969926,133.3245477126195L160.98342000000002,101.04464501601001L161.077878,143.881183890196L161.21731599999998,26.087549356313872L161.302778,112.06270264203734L161.91450600000002,126.71359952138022L162.278844,129.29413493321493L162.283342,43.8352429224895L162.436274,102.51706291162053L163.05249999999998,170.98074168425342L163.07499,159.84785112509363L163.191938,85.32251512087309L163.398846,80.44714701175691L163.466316,80.65092474680682L163.385352,47.73769610661731L163.57876599999997,138.42576744923227L163.695714,155.90516583736127L163.880132,55.6797121854929L164.07354600000002,173.26873715565756L164.667282,152.90187886586557L164.698768,88.48537117701312L164.71676,157.76965907445322L165.175556,42.09943966682141L165.355476,-104.26957902541523L165.778288,25.05052275841055L165.84126,189.33656287193298L165.922224,62.27152831737814L166.11113999999998,22.366840591797484L167.334596,164.84097371193081L167.57299,132.0002967623564L168.108252,162.52633943466043L168.926888,57.30279251245355L169.093314,67.2428204738177L169.51612599999999,185.6828264594078L170.23130799999998,105.40598358557776L170.34825600000002,62.0738777105625L170.528176,57.990613378011275L170.735084,275.7238162526718L171.027454,-24.9590573127453L171.05894,155.2947253263914L171.09492400000002,15.035670793973509L171.31082800000001,198.86623554963333L171.35130999999998,175.0214407352301L171.616692,99.01490191312939L171.675166,182.4876305277531L172.327376,135.50012458287756L172.381352,140.0991429778246L172.529786,132.6683566249334L172.718702,209.85434734362823L173.01107199999998,119.79552395527182L173.34392400000002,20.97476517237152L173.55533,139.6561232025807L173.84769999999997,120.47038046671796L173.978142,115.01522777630734L174.03661599999998,89.90183337835167L174.34697799999998,207.87013164391885L174.360472,128.84732120770676L174.553886,88.75557347444389L174.774288,132.48687595587512L175.02617600000002,70.50241211744456L175.619912,127.3659357932898L175.655896,14.339653372764616L175.687382,32.907083658071684L176.105696,189.51808411799945L176.159672,148.7860717727588L176.249632,16.17669626382684L176.762404,113.59505277872088L176.780396,199.2365210377253L176.90184200000002,138.64514704392508L176.91083799999998,92.19763992382931L177.31565799999998,110.77109589485023L177.630518,56.99116108967711L177.751964,177.62453696360956L177.78345,85.6414098281127L177.909394,122.1771711615416L178.52112200000002,113.3359482930257L178.934938,-1.5222643155317996L178.966424,126.1233460719769L179.371244,139.5205554182713L179.411726,154.29129649125613L179.465702,159.53382565883493L179.551164,297.07408876831715L179.62762999999998,219.18764759027042L179.870522,45.006133070358885L179.924498,101.86361077198617L180.036948,105.97564420333278L180.203374,183.70157288129514L180.46425799999997,163.32231831550598L180.671166,155.81530805275992L180.756628,67.65857249956866L180.788114,200.58221693680838L180.99502199999998,34.868819695252654L181.228918,123.18197961495474L181.242412,67.52763049419111L181.39984199999998,100.01682939896219L181.98458200000002,47.44481126161722L182.218478,21.132690888184783L182.222976,-0.2891696141316231L182.317434,209.94337329956204L182.564824,130.74419489732156L182.95615,93.06168673588681L182.960648,59.681092115548964L183.131572,147.30093298508572L183.289002,139.8772273201209L183.329484,36.96174119986023L183.504906,169.26958896105108L183.725308,32.88805304123807L183.972698,216.27062733815268L184.11663399999998,167.09721767443878L184.543944,149.75243351092706L185.22764,79.18881341127249L185.44804200000002,148.96601051550647L185.60997,60.334706563216L185.888846,52.02092393545007L186.235192,101.95714077582728L186.248686,99.45402629558859L186.590534,56.12236676766325L186.684992,233.02422478107306L186.720976,30.798905198390685L186.77945,108.19269077594466L186.788446,132.67426057962274L186.815434,-17.615227488371005L187.256238,156.79295019920056L187.26523400000002,77.09321382412546L187.65656,80.03090806190787L187.67005400000002,97.08826498801893L187.7915,135.37064334979425L188.560658,14.8749858416044L188.592144,152.12357127207977L188.88901199999998,98.95858102578384L188.911502,53.59336415620952L189.37929400000002,94.43789654511673L189.45576,109.14799527938551L189.757126,212.3485754590768L189.84708600000002,128.96199183280652L190.328372,130.42876952428085L190.56226800000002,147.75559836167557L190.629738,66.08000515057493L190.69720800000002,115.95951562202896L190.769176,-14.073625637934754L190.82764999999998,95.06262016296388L190.98507999999998,167.64161910460547L191.07054200000002,143.46478263231427L191.10202800000002,74.60531572195201L192.150062,75.87249511021837L192.419942,-10.180221126629732L192.554882,125.24170912687597L192.640344,108.09912019509537L193.040666,167.4666510453591L193.216088,89.3572493516482L193.23408,90.13778868088357L193.274562,138.39503036554044L193.30155,155.28119289416534L193.414,117.60836234918008L193.67038599999998,178.4202926709102L194.327094,81.01218185058009L194.84886200000003,-33.02211460700403L194.997296,36.59407292879547L195.48757799999998,123.55973127255075L195.514566,64.44507633722746L195.555048,145.77176814354385L196.13529,44.78933011568512L196.288222,207.71614189789847L197.43971000000002,38.022018423447264L197.525172,86.57192177955923L197.71858600000002,135.2230241940572L198.028948,86.28954637967625L198.99601800000002,62.29668606244603L199.450316,58.36461166235118L199.69770599999998,74.76811067874617L199.765176,42.213745098847625L200.075538,138.7176175805239L200.22847,84.64183580875398L200.561322,154.91447818279266L200.63329,134.75500898177808L200.682768,104.02855646610261L200.8357,117.52181159074492L201.19554,315.8428824566878L201.46991799999998,155.25307302750076L201.474416,128.34619515675766L201.7353,84.01110679369708L201.82526000000001,52.41472379977888L202.018674,29.753844352868896L202.041164,138.6702439234807L202.36502000000002,168.48351087019995L202.999238,92.30622399770299L203.102692,65.92147077963904L203.10719,115.9736364208735L203.718918,15.077059342311003L204.150726,248.4489860718067L204.416108,116.08400588310684L204.465586,158.01941055976428L205.74301799999998,105.73794408944939L205.92743600000003,150.81049928756863L206.24229599999998,199.36417630544076L206.36824,54.48313679144934L206.597638,80.32139886342564L207.033944,130.81463658351166L207.173382,151.69927778610818L207.195872,148.83646841691092L207.272338,175.59958194769348L207.501736,199.19430066072024L207.67266,118.33156636586557L208.590252,140.8277843136054L208.914108,130.22813650736444L209.386398,183.51510124023144L209.777724,112.12279719114305L209.83169999999998,-23.776602717546325L209.975636,150.69008701581222L210.10158,119.21995938282748L210.492906,-31.45494939730716L210.53788600000001,93.58959361223076L210.564874,95.50990052406607L210.582866,83.01567162917212L210.722304,150.67819795241724L210.7313,103.88251981368434L210.794272,52.73865005603206L210.82126,161.80987120133182L211.14961399999999,96.84512755504024L212.26062000000002,79.28899804445415L212.656444,16.508859652739318L212.773392,-16.756049917294405L213.178212,-5.3432388672461855L213.299658,28.561448390667294L213.614518,85.07824153166553L213.920382,187.090808066038L213.99235,-63.25636801352863L214.289218,42.9055830882146L214.505122,183.06599491376144L214.57709,89.61994490256679L214.707532,69.13740156247069L214.819982,63.73570908032933L214.90544400000002,146.9676943054566L215.553156,91.72248315811159L215.58914000000001,71.37976818818315L215.877012,123.84164003683972L215.998458,165.0934641452936L216.605688,74.34566344664648L216.637174,135.09364440349435L216.718138,34.194024049318784L217.181432,41.25000057770657L217.28938399999998,51.22139456638925L217.334364,203.16942726648773L217.397336,73.8357727619318L217.676212,110.85697713265054L218.103522,-8.855178924707275L218.40039000000002,240.11935812234879L218.458864,155.25218033332092L218.6028,44.80580438100378L218.683764,58.044986568964475L218.72874399999998,125.62059694070084L218.82320199999998,31.260468666370116L219.31348400000002,153.1183166274658L219.62834400000003,127.48151940107348L220.06914799999998,138.81705153905432L220.595414,25.262415895095273L220.766338,208.50295037489673L220.991238,-4.844953206869235L221.16665999999998,110.32205043389249L222.25517599999998,156.7357569061793L222.327144,-30.517782816520082L222.974856,128.0166489848724L223.208752,94.48443837349234L223.40666399999998,113.92831174685406L223.56409399999998,186.49089728868927L223.69903399999998,176.7303414344788L223.80698600000002,105.22391454990095L223.914938,127.346864599448L223.950922,110.46567275432442L224.00039999999998,13.240503375346862L224.004898,108.98589013173032L224.274778,125.8403823054754L224.39622400000002,174.47632920742038L224.41421599999998,118.93888244720608L224.481686,72.64211891247679L224.598634,122.65853620950995L224.648112,160.37096991447305L224.69759,55.438481871898375L224.846024,103.69732634837813L225.228354,73.77198570508226L225.466748,90.2312781077165L225.48474000000002,111.74244860502392L225.543214,54.00664098446188L225.903054,-40.31782009968387L225.921046,140.02612465161545L226.042492,185.2301493562185L226.082974,148.22284261079938L226.4743,50.11437262938574L226.505786,61.594014011896604L226.703698,181.09236981318548L226.942092,141.56957260003458L227.099522,37.974259284826445L227.11751400000003,16.07143950462344L227.391892,95.25491460470055L227.82819800000001,68.0403209924698L227.999122,247.27349043350955L228.20603,125.4584106390293L228.210528,99.54759687643786L228.224022,74.91917888017802L228.47591,121.45605686077707L228.853742,155.84068897137277L228.961694,203.93172723054886L229.182096,104.9519674411187L229.24506799999997,21.05802919314459L229.910772,120.88706576365692L230.045712,-70.76319567973795L230.311094,127.3581044307122L230.540492,133.73691155818796L231.46707999999998,195.03322991499536L231.507562,217.38286342070654L231.597522,116.85638923369923L231.73696,18.59297594657312L231.745956,115.46250813740951L232.353186,184.31398137716147L232.515114,83.34759155603557L232.71302599999999,188.5974526680433L232.978408,99.36426995350766L233.032384,92.56571396497581L233.540658,102.30103092010206L233.70708399999998,97.79264127291168L233.846522,181.25987170292782L234.003952,22.77845376271472L234.678652,-66.34837661339685L234.719134,32.04563377453732L234.84058,88.23975854653581L234.97552000000002,24.363878626089843L235.128452,88.69004160624286L235.330862,69.47066053060385L235.36684599999998,59.592999430803175L235.49278999999999,153.82184079518686L236.001064,214.8609617856833L236.073032,156.54181909561157L236.17648599999998,181.46569857689053L236.351908,126.37429457902911L236.428374,247.32654487169708L236.815202,100.3011930722457L236.85568400000002,87.94281600071837L237.00861600000002,72.80442694517284L237.52588599999999,145.4114443109586L237.70130799999998,52.99818060031306L237.935204,92.43529946070453L239.230628,132.32036820283304L239.325086,159.37821283248758L239.959304,224.71963284565854L240.152718,102.6779507490305L240.391112,226.62330318414251L240.422598,177.9987989985026L240.51255799999998,87.47772233302778L240.62950600000002,97.41304336144375L241.03432600000002,19.71509253061737L241.268222,191.70228360249448L241.53810199999998,150.1086184886786L241.56958799999998,13.32559336148779L241.70003,91.38788514870865L241.938424,114.93514905067593L241.956416,180.59534204006198L242.01488999999998,153.2861634217776L242.07786199999998,-33.51135159455811L242.18581400000002,149.93953409561746L242.23979,129.04054892063144L242.383726,226.78999353372137L242.415212,164.33441034188638L242.478184,120.37445641939459L242.986458,1.4835992959829696L243.035936,106.11437699427974L243.062924,200.72717829851004L243.247342,127.74504678065962L243.265334,111.3786148612316L243.328306,129.60690251222024L243.43176,108.99698794346591L243.90854800000002,158.56340621984924L244.101962,72.25051020658934L244.299874,52.960930906809324L244.38083799999998,-29.75797833846164L244.452806,265.1660642073705L244.587746,136.11291856032153L244.898108,59.82980685050673L245.460358,9.06659000653491L245.653772,129.36128988174295L245.662768,67.55790094228892L245.829194,122.67720163326999L245.833692,171.49491324333044L245.878672,97.99301053927496L245.91465599999998,12.21358045247888L246.027106,149.10740110048883L246.40044,142.44536645595846L246.42293,133.74930783418512L246.4904,209.3169048703634L247.363012,91.85403381861175L247.983736,151.7865589306905L248.937312,58.215085387229934L249.288156,50.47088222320265L249.531048,193.75235578647028L249.643498,121.07025066705853L250.210246,95.67123470856595L250.57458400000002,91.27621722221376L250.794986,81.71335255182707L250.848962,83.60071093302508L250.93442399999998,80.429211974144L251.199806,33.265459794264586L251.721574,171.30454620948206L252.076916,41.16702059599069L252.26583200000002,278.73148554105023L252.589688,110.21642848161552L252.814588,39.82396220243896L252.98101400000002,131.26599493393533L253.008002,184.41384139427774" style="fill: none;" fill="none"></path></g></g></g></g></g><g><g opacity="0.0395289"><span fill="rgb(0, 0, 0)" stroke="none" stroke-width="1px">Alt + Scroll to Zoom</span></g></g></g><g transform="translate(48, 177)" clip-path="url(#clip_1)"><clipPath id="clip_1"><rect width="281" height="23"></rect></clipPath><g><g><line x1="0" y1="0" x2="0" y2="5" style="visibility: inherit;" fill="rgb(0, 0, 0)" stroke="rgb(204, 204, 204)" stroke-width="1px"></line><line x1="28.1125" y1="0" x2="28.1125" y2="5" style="visibility: inherit;" fill="rgb(0, 0, 0)" stroke="rgb(204, 204, 204)" stroke-width="1px"></line><line x1="56.225" y1="0" x2="56.225" y2="5" style="visibility: inherit;" fill="rgb(0, 0, 0)" stroke="rgb(204, 204, 204)" stroke-width="1px"></line><line x1="84.33749999999999" y1="0" x2="84.33749999999999" y2="5" style="visibility: inherit;" fill="rgb(0, 0, 0)" stroke="rgb(204, 204, 204)" stroke-width="1px"></line><line x1="112.45" y1="0" x2="112.45" y2="5" style="visibility: inherit;" fill="rgb(0, 0, 0)" stroke="rgb(204, 204, 204)" stroke-width="1px"></line><line x1="140.5625" y1="0" x2="140.5625" y2="5" style="visibility: inherit;" fill="rgb(0, 0, 0)" stroke="rgb(204, 204, 204)" stroke-width="1px"></line><line x1="168.67499999999998" y1="0" x2="168.67499999999998" y2="5" style="visibility: inherit;" fill="rgb(0, 0, 0)" stroke="rgb(204, 204, 204)" stroke-width="1px"></line><line x1="196.7875" y1="0" x2="196.7875" y2="5" style="visibility: inherit;" fill="rgb(0, 0, 0)" stroke="rgb(204, 204, 204)" stroke-width="1px"></line><line x1="224.9" y1="0" x2="224.9" y2="5" style="visibility: inherit;" fill="rgb(0, 0, 0)" stroke="rgb(204, 204, 204)" stroke-width="1px"></line><line x1="253.01250000000002" y1="0" x2="253.01250000000002" y2="5" style="visibility: inherit;" fill="rgb(0, 0, 0)" stroke="rgb(204, 204, 204)" stroke-width="1px"></line><line x1="281.125" y1="0" x2="281.125" y2="5" style="visibility: inherit;" fill="rgb(0, 0, 0)" stroke="rgb(204, 204, 204)" stroke-width="1px"></line></g><g transform="translate(0, 8)"><text x="0" y="0" dx="0em" dy="0.95em" style="text-anchor: middle; visibility: hidden; font-family: &quot;Helvetica Neue&quot;, sans-serif; font-size: 12px; font-weight: 200;" fill="rgb(50, 49, 63)" stroke="none" stroke-width="1px">-50k</text><text x="28.1125" y="0" dx="0em" dy="0.95em" style="text-anchor: middle; visibility: inherit; font-family: &quot;Helvetica Neue&quot;, sans-serif; font-size: 12px; font-weight: 200;" fill="rgb(50, 49, 63)" stroke="none" stroke-width="1px">0</text><text x="56.225" y="0" dx="0em" dy="0.95em" style="text-anchor: middle; visibility: hidden; font-family: &quot;Helvetica Neue&quot;, sans-serif; font-size: 12px; font-weight: 200;" fill="rgb(50, 49, 63)" stroke="none" stroke-width="1px">50k</text><text x="84.33749999999999" y="0" dx="0em" dy="0.95em" style="text-anchor: middle; visibility: inherit; font-family: &quot;Helvetica Neue&quot;, sans-serif; font-size: 12px; font-weight: 200;" fill="rgb(50, 49, 63)" stroke="none" stroke-width="1px">100k</text><text x="112.45" y="0" dx="0em" dy="0.95em" style="text-anchor: middle; visibility: hidden; font-family: &quot;Helvetica Neue&quot;, sans-serif; font-size: 12px; font-weight: 200;" fill="rgb(50, 49, 63)" stroke="none" stroke-width="1px">150k</text><text x="140.5625" y="0" dx="0em" dy="0.95em" style="text-anchor: middle; visibility: inherit; font-family: &quot;Helvetica Neue&quot;, sans-serif; font-size: 12px; font-weight: 200;" fill="rgb(50, 49, 63)" stroke="none" stroke-width="1px">200k</text><text x="168.67499999999998" y="0" dx="0em" dy="0.95em" style="text-anchor: middle; visibility: hidden; font-family: &quot;Helvetica Neue&quot;, sans-serif; font-size: 12px; font-weight: 200;" fill="rgb(50, 49, 63)" stroke="none" stroke-width="1px">250k</text><text x="196.7875" y="0" dx="0em" dy="0.95em" style="text-anchor: middle; visibility: inherit; font-family: &quot;Helvetica Neue&quot;, sans-serif; font-size: 12px; font-weight: 200;" fill="rgb(50, 49, 63)" stroke="none" stroke-width="1px">300k</text><text x="224.9" y="0" dx="0em" dy="0.95em" style="text-anchor: middle; visibility: hidden; font-family: &quot;Helvetica Neue&quot;, sans-serif; font-size: 12px; font-weight: 200;" fill="rgb(50, 49, 63)" stroke="none" stroke-width="1px">350k</text><text x="253.01250000000002" y="0" dx="0em" dy="0.95em" style="text-anchor: middle; visibility: inherit; font-family: &quot;Helvetica Neue&quot;, sans-serif; font-size: 12px; font-weight: 200;" fill="rgb(50, 49, 63)" stroke="none" stroke-width="1px">400k</text><text x="281.125" y="0" dx="0em" dy="0.95em" style="text-anchor: middle; visibility: hidden; font-family: &quot;Helvetica Neue&quot;, sans-serif; font-size: 12px; font-weight: 200;" fill="rgb(50, 49, 63)" stroke="none" stroke-width="1px">450k</text></g><line x1="0" y1="0" x2="281.125" y2="0" fill="rgb(0, 0, 0)" stroke="rgb(204, 204, 204)" stroke-width="1px"></line></g></g></g></g></svg>